<?xml version="1.0" encoding="UTF-8"?>
<!--Generator: Apple Native CoreSVG 123-->
<!DOCTYPE svg
PUBLIC "-//W3C//DTD SVG 1.1//EN"
       "http://www.w3.org/Graphics/SVG/1.1/DTD/svg11.dtd">
<svg version="1.1" xmlns="http://www.w3.org/2000/svg" xmlns:xlink="http://www.w3.org/1999/xlink" width="3300" height="2200">
 <!--glyph: "uni10003B.medium", point size: 100.000000, font version: "Version 15.0d7e11", template writer version: "5"-->
 <g id="Notes">
  <rect height="2200" id="artboard" style="fill:white;opacity:1" width="3300" x="0" y="0"/>
  <line id="" style="fill:none;stroke:black;opacity:1;stroke-width:0.5;" x1="263" x2="3036" y1="292" y2="292"/>
  <text style="stroke:none;fill:black;font-family:-apple-system,&quot;SF Pro Display&quot;,&quot;SF Pro Text&quot;,Helvetica,sans-serif;font-weight:bold;" transform="matrix(1 0 0 1 263 322)">Weight/Scale Variations</text>
  <text style="stroke:none;fill:black;font-family:-apple-system,&quot;SF Pro Display&quot;,&quot;SF Pro Text&quot;,Helvetica,sans-serif;text-anchor:middle;" transform="matrix(1 0 0 1 559.711 322)">Ultralight</text>
  <text style="stroke:none;fill:black;font-family:-apple-system,&quot;SF Pro Display&quot;,&quot;SF Pro Text&quot;,Helvetica,sans-serif;text-anchor:middle;" transform="matrix(1 0 0 1 856.422 322)">Thin</text>
  <text style="stroke:none;fill:black;font-family:-apple-system,&quot;SF Pro Display&quot;,&quot;SF Pro Text&quot;,Helvetica,sans-serif;text-anchor:middle;" transform="matrix(1 0 0 1 1153.13 322)">Light</text>
  <text style="stroke:none;fill:black;font-family:-apple-system,&quot;SF Pro Display&quot;,&quot;SF Pro Text&quot;,Helvetica,sans-serif;text-anchor:middle;" transform="matrix(1 0 0 1 1449.84 322)">Regular</text>
  <text style="stroke:none;fill:black;font-family:-apple-system,&quot;SF Pro Display&quot;,&quot;SF Pro Text&quot;,Helvetica,sans-serif;text-anchor:middle;" transform="matrix(1 0 0 1 1746.56 322)">Medium</text>
  <text style="stroke:none;fill:black;font-family:-apple-system,&quot;SF Pro Display&quot;,&quot;SF Pro Text&quot;,Helvetica,sans-serif;text-anchor:middle;" transform="matrix(1 0 0 1 2043.27 322)">Semibold</text>
  <text style="stroke:none;fill:black;font-family:-apple-system,&quot;SF Pro Display&quot;,&quot;SF Pro Text&quot;,Helvetica,sans-serif;text-anchor:middle;" transform="matrix(1 0 0 1 2339.98 322)">Bold</text>
  <text style="stroke:none;fill:black;font-family:-apple-system,&quot;SF Pro Display&quot;,&quot;SF Pro Text&quot;,Helvetica,sans-serif;text-anchor:middle;" transform="matrix(1 0 0 1 2636.69 322)">Heavy</text>
  <text style="stroke:none;fill:black;font-family:-apple-system,&quot;SF Pro Display&quot;,&quot;SF Pro Text&quot;,Helvetica,sans-serif;text-anchor:middle;" transform="matrix(1 0 0 1 2933.4 322)">Black</text>
  <line id="" style="fill:none;stroke:black;opacity:1;stroke-width:0.5;" x1="263" x2="3036" y1="1903" y2="1903"/>
  <g id="" transform="matrix(1 0 0 1 263 1933)">
   <path d="M 9.24805 0.830078 C 13.5547 0.830078 17.1387 -2.74414 17.1387 -7.05078 C 17.1387 -11.3574 13.5449 -14.9316 9.23828 -14.9316 C 4.94141 -14.9316 1.36719 -11.3574 1.36719 -7.05078 C 1.36719 -2.74414 4.95117 0.830078 9.24805 0.830078 Z M 9.24805 -0.654297 C 5.70312 -0.654297 2.87109 -3.49609 2.87109 -7.05078 C 2.87109 -10.6055 5.69336 -13.4473 9.23828 -13.4473 C 12.793 -13.4473 15.6348 -10.6055 15.6445 -7.05078 C 15.6543 -3.49609 12.8027 -0.654297 9.24805 -0.654297 Z M 9.22852 -3.42773 C 9.69727 -3.42773 9.9707 -3.74023 9.9707 -4.25781 L 9.9707 -6.31836 L 12.1973 -6.31836 C 12.6953 -6.31836 13.0371 -6.57227 13.0371 -7.04102 C 13.0371 -7.51953 12.7148 -7.7832 12.1973 -7.7832 L 9.9707 -7.7832 L 9.9707 -10.0098 C 9.9707 -10.5273 9.69727 -10.8496 9.22852 -10.8496 C 8.75977 -10.8496 8.50586 -10.5078 8.50586 -10.0098 L 8.50586 -7.7832 L 6.29883 -7.7832 C 5.78125 -7.7832 5.44922 -7.51953 5.44922 -7.04102 C 5.44922 -6.57227 5.80078 -6.31836 6.29883 -6.31836 L 8.50586 -6.31836 L 8.50586 -4.25781 C 8.50586 -3.75977 8.75977 -3.42773 9.22852 -3.42773 Z"/>
  </g>
  <g id="" transform="matrix(1 0 0 1 281.506 1933)">
   <path d="M 11.709 2.91016 C 17.1582 2.91016 21.6699 -1.60156 21.6699 -7.05078 C 21.6699 -12.4902 17.1484 -17.0117 11.6992 -17.0117 C 6.25977 -17.0117 1.74805 -12.4902 1.74805 -7.05078 C 1.74805 -1.60156 6.26953 2.91016 11.709 2.91016 Z M 11.709 1.25 C 7.09961 1.25 3.41797 -2.44141 3.41797 -7.05078 C 3.41797 -11.6504 7.08984 -15.3516 11.6992 -15.3516 C 16.3086 -15.3516 20 -11.6504 20.0098 -7.05078 C 20.0195 -2.44141 16.3184 1.25 11.709 1.25 Z M 11.6895 -2.41211 C 12.207 -2.41211 12.5195 -2.77344 12.5195 -3.33984 L 12.5195 -6.23047 L 15.5762 -6.23047 C 16.123 -6.23047 16.5039 -6.51367 16.5039 -7.03125 C 16.5039 -7.55859 16.1426 -7.86133 15.5762 -7.86133 L 12.5195 -7.86133 L 12.5195 -10.9277 C 12.5195 -11.5039 12.207 -11.8555 11.6895 -11.8555 C 11.1719 -11.8555 10.8789 -11.4844 10.8789 -10.9277 L 10.8789 -7.86133 L 7.83203 -7.86133 C 7.26562 -7.86133 6.89453 -7.55859 6.89453 -7.03125 C 6.89453 -6.51367 7.28516 -6.23047 7.83203 -6.23047 L 10.8789 -6.23047 L 10.8789 -3.33984 C 10.8789 -2.79297 11.1719 -2.41211 11.6895 -2.41211 Z"/>
  </g>
  <g id="" transform="matrix(1 0 0 1 304.924 1933)">
   <path d="M 14.9707 5.67383 C 21.9336 5.67383 27.6953 -0.078125 27.6953 -7.04102 C 27.6953 -14.0039 21.9238 -19.7559 14.9609 -19.7559 C 8.00781 -19.7559 2.25586 -14.0039 2.25586 -7.04102 C 2.25586 -0.078125 8.01758 5.67383 14.9707 5.67383 Z M 14.9707 3.85742 C 8.93555 3.85742 4.08203 -1.00586 4.08203 -7.04102 C 4.08203 -13.0762 8.92578 -17.9395 14.9609 -17.9395 C 21.0059 -17.9395 25.8594 -13.0762 25.8691 -7.04102 C 25.8789 -1.00586 21.0156 3.85742 14.9707 3.85742 Z M 14.9512 -1.06445 C 15.5176 -1.06445 15.8691 -1.45508 15.8691 -2.06055 L 15.8691 -6.13281 L 20.1074 -6.13281 C 20.6934 -6.13281 21.1133 -6.46484 21.1133 -7.02148 C 21.1133 -7.59766 20.7227 -7.93945 20.1074 -7.93945 L 15.8691 -7.93945 L 15.8691 -12.1875 C 15.8691 -12.8027 15.5176 -13.1934 14.9512 -13.1934 C 14.3848 -13.1934 14.0625 -12.7832 14.0625 -12.1875 L 14.0625 -7.93945 L 9.83398 -7.93945 C 9.21875 -7.93945 8.80859 -7.59766 8.80859 -7.02148 C 8.80859 -6.46484 9.23828 -6.13281 9.83398 -6.13281 L 14.0625 -6.13281 L 14.0625 -2.06055 C 14.0625 -1.47461 14.3848 -1.06445 14.9512 -1.06445 Z"/>
  </g>
  <text style="stroke:none;fill:black;font-family:-apple-system,&quot;SF Pro Display&quot;,&quot;SF Pro Text&quot;,Helvetica,sans-serif;font-weight:bold;" transform="matrix(1 0 0 1 263 1953)">Design Variations</text>
  <text style="stroke:none;fill:black;font-family:-apple-system,&quot;SF Pro Display&quot;,&quot;SF Pro Text&quot;,Helvetica,sans-serif;" transform="matrix(1 0 0 1 263 1971)">Symbols are supported in up to nine weights and three scales.</text>
  <text style="stroke:none;fill:black;font-family:-apple-system,&quot;SF Pro Display&quot;,&quot;SF Pro Text&quot;,Helvetica,sans-serif;" transform="matrix(1 0 0 1 263 1989)">For optimal layout with text and other symbols, vertically align</text>
  <text style="stroke:none;fill:black;font-family:-apple-system,&quot;SF Pro Display&quot;,&quot;SF Pro Text&quot;,Helvetica,sans-serif;" transform="matrix(1 0 0 1 263 2007)">symbols with the adjacent text.</text>
  <rect height="14" id="" style="fill:#00AEEF;stroke:none;opacity:0.4;" width="3" x="776" y="1919"/>
  <g id="" transform="matrix(1 0 0 1 779 1933)">
   <path d="M 10.5273 0 L 12.373 0 L 7.17773 -14.0918 L 5.43945 -14.0918 L 0.244141 0 L 2.08984 0 L 3.50586 -4.0332 L 9.11133 -4.0332 Z M 6.2793 -11.9531 L 6.33789 -11.9531 L 8.59375 -5.52734 L 4.02344 -5.52734 Z"/>
  </g>
  <rect height="14" id="" style="fill:#00AEEF;stroke:none;opacity:0.4;" width="3" x="791.617" y="1919"/>
  <text style="stroke:none;fill:black;font-family:-apple-system,&quot;SF Pro Display&quot;,&quot;SF Pro Text&quot;,Helvetica,sans-serif;font-weight:bold;" transform="matrix(1 0 0 1 776 1953)">Margins</text>
  <text style="stroke:none;fill:black;font-family:-apple-system,&quot;SF Pro Display&quot;,&quot;SF Pro Text&quot;,Helvetica,sans-serif;" transform="matrix(1 0 0 1 776 1971)">Leading and trailing margins on the left and right side of each symbol</text>
  <text style="stroke:none;fill:black;font-family:-apple-system,&quot;SF Pro Display&quot;,&quot;SF Pro Text&quot;,Helvetica,sans-serif;" transform="matrix(1 0 0 1 776 1989)">can be adjusted by modifying the width of the blue rectangles.</text>
  <text style="stroke:none;fill:black;font-family:-apple-system,&quot;SF Pro Display&quot;,&quot;SF Pro Text&quot;,Helvetica,sans-serif;" transform="matrix(1 0 0 1 776 2007)">Modifications are automatically applied proportionally to all</text>
  <text style="stroke:none;fill:black;font-family:-apple-system,&quot;SF Pro Display&quot;,&quot;SF Pro Text&quot;,Helvetica,sans-serif;" transform="matrix(1 0 0 1 776 2025)">scales and weights.</text>
  <g id="" transform="matrix(1 0 0 1 1289 1933)">
   <path d="M 2.83203 3.11523 L 4.375 4.6582 C 5.22461 5.48828 6.19141 5.41992 7.06055 4.46289 L 17.2754 -6.66016 C 17.7051 -6.36719 18.0957 -6.37695 18.5645 -6.47461 L 19.6094 -6.68945 L 20.3027 -5.99609 L 20.2539 -5.47852 C 20.1855 -4.95117 20.3516 -4.53125 20.8496 -4.0332 L 21.6602 -3.22266 C 22.168 -2.71484 22.8223 -2.68555 23.3008 -3.16406 L 26.5527 -6.41602 C 27.0312 -6.89453 27.0117 -7.54883 26.5039 -8.05664 L 25.6836 -8.87695 C 25.1855 -9.375 24.7754 -9.55078 24.2383 -9.47266 L 23.7109 -9.41406 L 23.0566 -10.0781 L 23.3398 -11.2207 C 23.4863 -11.7871 23.3398 -12.2559 22.7148 -12.8613 L 20.3027 -15.2539 C 16.7578 -18.7793 12.2266 -18.6719 9.11133 -15.5371 C 8.69141 -15.1074 8.64258 -14.5215 8.91602 -14.0918 C 9.15039 -13.7207 9.62891 -13.4961 10.2734 -13.6621 C 11.7871 -14.043 13.3008 -13.9258 14.7852 -12.9199 L 14.1602 -11.3379 C 13.9258 -10.752 13.9453 -10.2734 14.1797 -9.83398 L 3.01758 0.439453 C 2.08008 1.30859 1.97266 2.25586 2.83203 3.11523 Z M 10.6738 -15.1465 C 13.3398 -17.1387 16.6504 -16.8262 19.0527 -14.4141 L 21.6797 -11.8066 C 21.9141 -11.5723 21.9434 -11.3867 21.8848 -11.0938 L 21.5039 -9.53125 L 23.0762 -7.95898 L 24.043 -8.04688 C 24.3262 -8.07617 24.4141 -8.05664 24.6387 -7.83203 L 25.2637 -7.20703 L 22.5098 -4.46289 L 21.8848 -5.07812 C 21.6602 -5.30273 21.6406 -5.40039 21.6699 -5.68359 L 21.7578 -6.64062 L 20.1953 -8.20312 L 18.5742 -7.89062 C 18.291 -7.83203 18.1445 -7.83203 17.9102 -8.07617 L 15.7324 -10.2539 C 15.5078 -10.4883 15.4785 -10.625 15.6055 -10.9473 L 16.5527 -13.2227 C 14.9512 -14.7559 12.8418 -15.6055 10.8008 -14.9512 C 10.7129 -14.9219 10.6445 -14.9414 10.6152 -14.9805 C 10.5859 -15.0293 10.5859 -15.0781 10.6738 -15.1465 Z M 4.10156 2.41211 C 3.61328 1.91406 3.78906 1.61133 4.12109 1.30859 L 15.0781 -8.80859 L 16.3086 -7.57812 L 6.15234 3.34961 C 5.84961 3.68164 5.46875 3.7793 5.06836 3.37891 Z"/>
  </g>
  <text style="stroke:none;fill:black;font-family:-apple-system,&quot;SF Pro Display&quot;,&quot;SF Pro Text&quot;,Helvetica,sans-serif;font-weight:bold;" transform="matrix(1 0 0 1 1289 1953)">Exporting</text>
  <text style="stroke:none;fill:black;font-family:-apple-system,&quot;SF Pro Display&quot;,&quot;SF Pro Text&quot;,Helvetica,sans-serif;" transform="matrix(1 0 0 1 1289 1971)">Symbols should be outlined when exporting to ensure the</text>
  <text style="stroke:none;fill:black;font-family:-apple-system,&quot;SF Pro Display&quot;,&quot;SF Pro Text&quot;,Helvetica,sans-serif;" transform="matrix(1 0 0 1 1289 1989)">design is preserved when submitting to Xcode.</text>
  <text id="template-version" style="stroke:none;fill:black;font-family:-apple-system,&quot;SF Pro Display&quot;,&quot;SF Pro Text&quot;,Helvetica,sans-serif;text-anchor:end;" transform="matrix(1 0 0 1 3036 1933)">Template v.1.0</text>
  <text style="stroke:none;fill:black;font-family:-apple-system,&quot;SF Pro Display&quot;,&quot;SF Pro Text&quot;,Helvetica,sans-serif;text-anchor:end;" transform="matrix(1 0 0 1 3036 1951)">Generated from 1.circle.fill</text>
  <text style="stroke:none;fill:black;font-family:-apple-system,&quot;SF Pro Display&quot;,&quot;SF Pro Text&quot;,Helvetica,sans-serif;text-anchor:end;" transform="matrix(1 0 0 1 3036 1969)">Typeset at 100 points</text>
  <text style="stroke:none;fill:black;font-family:-apple-system,&quot;SF Pro Display&quot;,&quot;SF Pro Text&quot;,Helvetica,sans-serif;" transform="matrix(1 0 0 1 263 726)">Small</text>
  <text style="stroke:none;fill:black;font-family:-apple-system,&quot;SF Pro Display&quot;,&quot;SF Pro Text&quot;,Helvetica,sans-serif;" transform="matrix(1 0 0 1 263 1156)">Medium</text>
  <text style="stroke:none;fill:black;font-family:-apple-system,&quot;SF Pro Display&quot;,&quot;SF Pro Text&quot;,Helvetica,sans-serif;" transform="matrix(1 0 0 1 263 1586)">Large</text>
 </g>
 <g id="Guides">
  <g id="H-reference" style="fill:#27AAE1;stroke:none;" transform="matrix(1 0 0 1 339 696)">
   <path d="M 54.9316 0 L 57.666 0 L 30.5664 -70.459 L 28.0762 -70.459 L 0.976562 0 L 3.66211 0 L 12.9395 -24.4629 L 45.7031 -24.4629 Z M 29.1992 -67.0898 L 29.4434 -67.0898 L 44.8242 -26.709 L 13.8184 -26.709 Z"/>
  </g>
  <line id="Baseline-S" style="fill:none;stroke:#27AAE1;opacity:1;stroke-width:0.577;" x1="263" x2="3036" y1="696" y2="696"/>
  <line id="Capline-S" style="fill:none;stroke:#27AAE1;opacity:1;stroke-width:0.577;" x1="263" x2="3036" y1="625.541" y2="625.541"/>
  <g id="H-reference" style="fill:#27AAE1;stroke:none;" transform="matrix(1 0 0 1 339 1126)">
   <path d="M 54.9316 0 L 57.666 0 L 30.5664 -70.459 L 28.0762 -70.459 L 0.976562 0 L 3.66211 0 L 12.9395 -24.4629 L 45.7031 -24.4629 Z M 29.1992 -67.0898 L 29.4434 -67.0898 L 44.8242 -26.709 L 13.8184 -26.709 Z"/>
  </g>
  <line id="Baseline-M" style="fill:none;stroke:#27AAE1;opacity:1;stroke-width:0.577;" x1="263" x2="3036" y1="1126" y2="1126"/>
  <line id="Capline-M" style="fill:none;stroke:#27AAE1;opacity:1;stroke-width:0.577;" x1="263" x2="3036" y1="1055.54" y2="1055.54"/>
  <g id="H-reference" style="fill:#27AAE1;stroke:none;" transform="matrix(1 0 0 1 339 1556)">
   <path d="M 54.9316 0 L 57.666 0 L 30.5664 -70.459 L 28.0762 -70.459 L 0.976562 0 L 3.66211 0 L 12.9395 -24.4629 L 45.7031 -24.4629 Z M 29.1992 -67.0898 L 29.4434 -67.0898 L 44.8242 -26.709 L 13.8184 -26.709 Z"/>
  </g>
  <line id="Baseline-L" style="fill:none;stroke:#27AAE1;opacity:1;stroke-width:0.577;" x1="263" x2="3036" y1="1556" y2="1556"/>
  <line id="Capline-L" style="fill:none;stroke:#27AAE1;opacity:1;stroke-width:0.577;" x1="263" x2="3036" y1="1485.54" y2="1485.54"/>
  <rect height="119.336" id="left-margin" style="fill:#00AEEF;stroke:none;opacity:0.4;" width="8.74023" x="1391.3" y="1030.79"/>
  <rect height="119.336" id="right-margin" style="fill:#00AEEF;stroke:none;opacity:0.4;" width="8.74023" x="1499.65" y="1030.79"/>
 </g>
 <g id="Symbols">
  <g id="Black-L" transform="matrix(1 0 0 1 2854.05 1556)">
   <path d="M 79.3457 32.8613 C 116.748 32.8613 147.412 2.19727 147.412 -35.2051 C 147.412 -72.6074 116.748 -103.271 79.2969 -103.271 C 41.8945 -103.271 11.2793 -72.6074 11.2793 -35.2051 C 11.2793 2.19727 41.9434 32.8613 79.3457 32.8613 Z M 83.3984 -5.12695 C 77.3438 -5.12695 73.3887 -8.39844 73.3887 -15.625 L 73.3887 -46.4355 L 72.7539 -46.4355 L 67.2852 -42.7734 C 64.9902 -41.2109 63.9648 -41.0156 62.3047 -41.0156 C 58.5449 -41.0156 55.8105 -44.043 55.8105 -47.9004 C 55.8105 -50.9766 57.1777 -52.9785 60.0098 -54.8828 L 69.8242 -61.3281 C 74.2676 -64.2578 77.6855 -65.3809 81.9824 -65.3809 C 88.8184 -65.3809 93.457 -61.1328 93.457 -54.9316 L 93.457 -15.625 C 93.457 -8.39844 89.4043 -5.12695 83.3984 -5.12695 Z"/>
  </g>
  <g id="Heavy-L" transform="matrix(1 0 0 1 2558.39 1556)">
   <path d="M 78.2715 31.7871 C 115.088 31.7871 145.312 1.61133 145.312 -35.2051 C 145.312 -72.0215 115.039 -102.197 78.2715 -102.197 C 41.4551 -102.197 11.2793 -72.0215 11.2793 -35.2051 C 11.2793 1.61133 41.5039 31.7871 78.2715 31.7871 Z M 82.2266 -5.32227 C 76.9531 -5.32227 73.5352 -8.25195 73.5352 -14.502 L 73.5352 -48.4375 L 72.9492 -48.4375 L 66.5527 -44.1895 C 64.5508 -42.8223 63.623 -42.627 62.1094 -42.627 C 58.8379 -42.627 56.3965 -45.3125 56.3965 -48.6816 C 56.3965 -51.3672 57.5195 -53.125 60.0098 -54.7852 L 70.3613 -61.6211 C 74.3652 -64.2578 77.3438 -65.2832 81.0547 -65.2832 C 87.0117 -65.2832 91.0156 -61.5723 91.0156 -56.0547 L 91.0156 -14.502 C 91.0156 -8.25195 87.5 -5.32227 82.2266 -5.32227 Z"/>
  </g>
  <g id="Bold-L" transform="matrix(1 0 0 1 2262.88 1556)">
   <path d="M 77.0996 30.6152 C 113.232 30.6152 142.92 0.878906 142.92 -35.2051 C 142.92 -71.3379 113.184 -101.025 77.0508 -101.025 C 40.9668 -101.025 11.2793 -71.3379 11.2793 -35.2051 C 11.2793 0.878906 41.0156 30.6152 77.0996 30.6152 Z M 80.957 -5.51758 C 76.5137 -5.51758 73.7305 -8.05664 73.7305 -13.2324 L 73.7305 -50.6836 L 73.1934 -50.6836 L 65.7227 -45.752 C 64.0137 -44.5801 63.1836 -44.3848 61.9141 -44.3848 C 59.1309 -44.3848 57.0801 -46.7285 57.0801 -49.5605 C 57.0801 -51.8066 57.959 -53.2715 60.0586 -54.6387 L 71.0449 -61.9629 C 74.4629 -64.2578 76.9043 -65.1367 80.0781 -65.1367 C 85.0098 -65.1367 88.2324 -62.0605 88.2324 -57.373 L 88.2324 -13.2324 C 88.2324 -8.05664 85.4004 -5.51758 80.957 -5.51758 Z"/>
  </g>
  <g id="Semibold-L" transform="matrix(1 0 0 1 1966.97 1556)">
   <path d="M 76.2695 29.7852 C 111.914 29.7852 141.309 0.439453 141.309 -35.2051 C 141.309 -70.8496 111.865 -100.244 76.2695 -100.244 C 40.625 -100.244 11.2793 -70.8496 11.2793 -35.2051 C 11.2793 0.439453 40.6738 29.7852 76.2695 29.7852 Z M 80.0781 -5.61523 C 76.2207 -5.61523 73.8281 -7.95898 73.8281 -12.3535 L 73.8281 -52.2461 L 73.3398 -52.2461 L 65.1855 -46.875 C 63.623 -45.8008 62.8906 -45.6543 61.7676 -45.6543 C 59.3262 -45.6543 57.5195 -47.7051 57.5195 -50.1465 C 57.5195 -52.1484 58.252 -53.418 60.0586 -54.5898 L 71.4844 -62.207 C 74.5605 -64.2578 76.6602 -65.0391 79.3945 -65.0391 C 83.6426 -65.0391 86.3281 -62.4023 86.3281 -58.252 L 86.3281 -12.3535 C 86.3281 -7.95898 83.9355 -5.61523 80.0781 -5.61523 Z"/>
  </g>
  <g id="Medium-L" transform="matrix(1 0 0 1 1670.87 1556)">
   <path d="M 75.6836 29.1992 C 110.938 29.1992 140.088 0.0488281 140.088 -35.2051 C 140.088 -70.459 110.889 -99.6094 75.6348 -99.6094 C 40.3809 -99.6094 11.2793 -70.459 11.2793 -35.2051 C 11.2793 0.0488281 40.3809 29.1992 75.6836 29.1992 Z M 79.3945 -5.71289 C 76.0254 -5.71289 73.9258 -7.86133 73.9258 -11.7188 L 73.9258 -53.418 L 73.4863 -53.418 L 64.7461 -47.7051 C 63.3789 -46.7285 62.6953 -46.582 61.6699 -46.582 C 59.5215 -46.582 57.8613 -48.4863 57.8613 -50.6348 C 57.8613 -52.3438 58.4961 -53.4668 60.0586 -54.4922 L 71.7773 -62.4023 C 74.6094 -64.2578 76.416 -64.9414 78.8574 -64.9414 C 82.6172 -64.9414 84.9121 -62.6465 84.9121 -58.9355 L 84.9121 -11.7188 C 84.9121 -7.86133 82.8125 -5.71289 79.3945 -5.71289 Z"/>
  </g>
  <g id="Regular-L" transform="matrix(1 0 0 1 1374.97 1556)">
   <path d="M 74.8535 28.3691 C 109.668 28.3691 138.477 -0.390625 138.477 -35.2051 C 138.477 -70.0195 109.619 -98.7793 74.8047 -98.7793 C 40.0391 -98.7793 11.2793 -70.0195 11.2793 -35.2051 C 11.2793 -0.390625 40.0879 28.3691 74.8535 28.3691 Z M 78.5156 -5.85938 C 75.7324 -5.85938 74.0723 -7.76367 74.0723 -10.8398 L 74.0723 -54.9316 L 73.6328 -54.9316 L 64.209 -48.7793 C 62.9883 -47.9004 62.4023 -47.8027 61.5234 -47.8027 C 59.7168 -47.8027 58.3008 -49.4629 58.3008 -51.2207 C 58.3008 -52.6367 58.7891 -53.5645 60.0586 -54.4434 L 72.2168 -62.5977 C 74.6582 -64.2578 76.123 -64.8438 78.1738 -64.8438 C 81.25 -64.8438 83.0078 -62.9883 83.0078 -59.8145 L 83.0078 -10.8398 C 83.0078 -7.76367 81.3965 -5.85938 78.5156 -5.85938 Z"/>
  </g>
  <g id="Light-L" transform="matrix(1 0 0 1 1079.18 1556)">
   <path d="M 73.9258 27.4902 C 108.301 27.4902 136.621 -0.830078 136.621 -35.1562 C 136.621 -69.5312 108.252 -97.8516 73.9258 -97.8516 C 39.5508 -97.8516 11.2793 -69.5312 11.2793 -35.1562 C 11.2793 -0.830078 39.5996 27.4902 73.9258 27.4902 Z M 77.7832 -6.29883 C 75.6836 -6.29883 74.3652 -7.76367 74.3652 -10.0586 L 74.3652 -56.6406 L 73.9746 -56.6406 L 63.2812 -49.6582 C 62.4023 -49.0723 61.9629 -48.9746 61.2793 -48.9746 C 59.8145 -48.9746 58.6914 -50.293 58.6914 -51.709 C 58.6914 -52.8809 59.082 -53.6133 60.1074 -54.2969 L 72.8027 -62.6953 C 74.707 -64.0137 75.8789 -64.4531 77.4414 -64.4531 C 79.7852 -64.4531 81.25 -63.0371 81.25 -60.5957 L 81.25 -10.0586 C 81.25 -7.76367 79.9805 -6.29883 77.7832 -6.29883 Z"/>
  </g>
  <g id="Thin-L" transform="matrix(1 0 0 1 783.693 1556)">
   <path d="M 72.7051 26.3184 C 106.494 26.3184 134.18 -1.36719 134.18 -35.1074 C 134.18 -68.8965 106.494 -96.582 72.7051 -96.582 C 38.9648 -96.582 11.2793 -68.8965 11.2793 -35.1074 C 11.2793 -1.36719 38.9648 26.3184 72.7051 26.3184 Z M 76.8555 -6.93359 C 75.6348 -6.93359 74.8047 -7.8125 74.8047 -9.08203 L 74.8047 -58.8867 L 74.4629 -58.8867 L 62.0117 -50.8789 C 61.6699 -50.6348 61.377 -50.5371 60.9863 -50.5371 C 59.9609 -50.5371 59.1797 -51.3672 59.1797 -52.3926 C 59.1797 -53.125 59.4238 -53.6621 60.1562 -54.1504 L 73.584 -62.8418 C 74.8047 -63.6719 75.5371 -63.9648 76.5137 -63.9648 C 77.8809 -63.9648 78.9062 -63.0859 78.9062 -61.6699 L 78.9062 -9.08203 C 78.9062 -7.8125 78.125 -6.93359 76.8555 -6.93359 Z"/>
  </g>
  <g id="Ultralight-L" transform="matrix(1 0 0 1 487.616 1556)">
   <path d="M 72.1191 25.7324 C 105.566 25.7324 132.91 -1.61133 132.91 -35.1074 C 132.91 -68.5547 105.566 -95.8984 72.1191 -95.8984 C 38.623 -95.8984 11.2793 -68.5547 11.2793 -35.1074 C 11.2793 -1.61133 38.623 25.7324 72.1191 25.7324 Z M 76.3672 -7.27539 C 75.5859 -7.27539 75 -7.86133 75 -8.54492 L 75 -60.0098 L 74.707 -60.0098 L 61.377 -51.4648 C 61.2793 -51.416 61.084 -51.3184 60.8398 -51.3184 C 60.0586 -51.3184 59.4238 -51.9531 59.4238 -52.7344 C 59.4238 -53.2715 59.6191 -53.7109 60.2051 -54.0527 L 73.9746 -62.8906 C 74.8535 -63.4766 75.3906 -63.6719 76.0254 -63.6719 C 76.9043 -63.6719 77.6855 -63.0859 77.6855 -62.2559 L 77.6855 -8.54492 C 77.6855 -7.86133 77.1484 -7.27539 76.3672 -7.27539 Z"/>
  </g>
  <g id="Black-M" transform="matrix(1 0 0 1 2870.97 1126)">
   <path d="M 62.4023 18.457 C 91.9922 18.457 116.113 -5.61523 116.113 -35.2051 C 116.113 -64.7949 91.9922 -88.8672 62.4023 -88.8672 C 32.8125 -88.8672 8.74023 -64.7949 8.74023 -35.2051 C 8.74023 -5.61523 32.8125 18.457 62.4023 18.457 Z M 65.8203 -11.9629 C 60.4492 -11.9629 56.8359 -14.6484 56.8359 -21.1426 L 56.8359 -42.0898 L 56.2988 -42.0898 L 52.5879 -39.6484 C 50.7324 -38.3789 49.8535 -38.1836 48.3887 -38.1836 C 45.0684 -38.1836 42.6758 -40.7715 42.6758 -44.2383 C 42.6758 -47.0215 43.9453 -48.8281 46.4844 -50.5371 L 53.6621 -55.127 C 57.4707 -57.5684 60.5469 -58.5449 64.3555 -58.5449 C 70.459 -58.5449 74.8047 -54.7363 74.8047 -49.3652 L 74.8047 -21.1426 C 74.8047 -14.6484 71.0938 -11.9629 65.8203 -11.9629 Z"/>
  </g>
  <g id="Heavy-M" transform="matrix(1 0 0 1 2575.19 1126)">
   <path d="M 61.5234 17.5781 C 90.5273 17.5781 114.258 -6.15234 114.258 -35.2051 C 114.258 -64.2578 90.5273 -87.9883 61.4746 -87.9883 C 32.4707 -87.9883 8.74023 -64.2578 8.74023 -35.2051 C 8.74023 -6.15234 32.4707 17.5781 61.5234 17.5781 Z M 64.7461 -12.0117 C 60.0586 -12.0117 56.9336 -14.4531 56.9336 -20.1172 L 56.9336 -43.8477 L 56.4453 -43.8477 L 52.0508 -40.9668 C 50.3418 -39.7949 49.5605 -39.6484 48.2422 -39.6484 C 45.3125 -39.6484 43.2129 -41.9434 43.2129 -44.9707 C 43.2129 -47.3633 44.2871 -48.9746 46.5332 -50.4395 L 54.1016 -55.4199 C 57.5684 -57.6172 60.2539 -58.5449 63.5742 -58.5449 C 68.8965 -58.5449 72.5586 -55.1758 72.5586 -50.4395 L 72.5586 -20.1172 C 72.5586 -14.4531 69.3848 -12.0117 64.7461 -12.0117 Z"/>
  </g>
  <g id="Bold-M" transform="matrix(1 0 0 1 2279.5 1126)">
   <path d="M 60.498 16.5039 C 88.8672 16.5039 112.207 -6.78711 112.207 -35.2051 C 112.207 -63.623 88.8672 -86.9629 60.4492 -86.9629 C 32.0312 -86.9629 8.74023 -63.623 8.74023 -35.2051 C 8.74023 -6.78711 32.0801 16.5039 60.498 16.5039 Z M 63.5254 -12.0605 C 59.5703 -12.0605 57.0312 -14.2578 57.0312 -18.9453 L 57.0312 -45.8008 L 56.5918 -45.8008 L 51.4648 -42.4316 C 49.9512 -41.4062 49.2188 -41.2598 48.0957 -41.2598 C 45.6543 -41.2598 43.7988 -43.2617 43.7988 -45.8008 C 43.7988 -47.8027 44.6777 -49.1211 46.5332 -50.3418 L 54.6387 -55.7617 C 57.666 -57.7148 59.8633 -58.4961 62.6465 -58.4961 C 67.0898 -58.4961 70.0684 -55.7129 70.0684 -51.6113 L 70.0684 -18.9453 C 70.0684 -14.2578 67.4805 -12.0605 63.5254 -12.0605 Z"/>
  </g>
  <g id="Semibold-M" transform="matrix(1 0 0 1 1983.5 1126)">
   <path d="M 59.7656 15.8203 C 87.7441 15.8203 110.791 -7.22656 110.791 -35.2051 C 110.791 -63.1836 87.6953 -86.2793 59.7656 -86.2793 C 31.7871 -86.2793 8.74023 -63.1836 8.74023 -35.2051 C 8.74023 -7.22656 31.7871 15.8203 59.7656 15.8203 Z M 62.6953 -12.1094 C 59.2773 -12.1094 57.0801 -14.1602 57.0801 -18.1641 L 57.0801 -47.168 L 56.6895 -47.168 L 51.0254 -43.457 C 49.6582 -42.4805 49.0234 -42.334 47.998 -42.334 C 45.8496 -42.334 44.2383 -44.1895 44.2383 -46.3379 C 44.2383 -48.0957 44.9219 -49.2676 46.5332 -50.293 L 55.0293 -56.0059 C 57.7148 -57.7637 59.6191 -58.4473 62.0605 -58.4473 C 65.918 -58.4473 68.3594 -56.1035 68.3594 -52.3926 L 68.3594 -18.1641 C 68.3594 -14.1602 66.1621 -12.1094 62.6953 -12.1094 Z"/>
  </g>
  <g id="Medium-M" transform="matrix(1 0 0 1 1687.3 1126)">
   <path d="M 59.2285 15.2832 C 86.9141 15.2832 109.766 -7.56836 109.766 -35.2051 C 109.766 -62.8906 86.8652 -85.7422 59.1797 -85.7422 C 31.543 -85.7422 8.74023 -62.8906 8.74023 -35.2051 C 8.74023 -7.56836 31.5918 15.2832 59.2285 15.2832 Z M 62.0605 -12.1582 C 59.0332 -12.1582 57.1289 -14.0625 57.1289 -17.5293 L 57.1289 -48.1934 L 56.7383 -48.1934 L 50.7324 -44.1895 C 49.4141 -43.3105 48.8281 -43.2129 47.9492 -43.2129 C 45.9961 -43.2129 44.5312 -44.873 44.5312 -46.7773 C 44.5312 -48.3398 45.1172 -49.3164 46.5332 -50.2441 L 55.2734 -56.1523 C 57.7637 -57.8125 59.4238 -58.4473 61.6211 -58.4473 C 64.9902 -58.4473 67.041 -56.3477 67.041 -53.0273 L 67.041 -17.5293 C 67.041 -14.0625 65.1855 -12.1582 62.0605 -12.1582 Z"/>
  </g>
  <g id="Regular-M" transform="matrix(1 0 0 1 1391.3 1126)">
   <path d="M 58.5449 14.5508 C 85.791 14.5508 108.35 -8.00781 108.35 -35.2539 C 108.35 -62.4512 85.7422 -85.0586 58.4961 -85.0586 C 31.2988 -85.0586 8.74023 -62.4512 8.74023 -35.2539 C 8.74023 -8.00781 31.3477 14.5508 58.5449 14.5508 Z M 61.2305 -12.1582 C 58.6914 -12.1582 57.2266 -13.916 57.2266 -16.748 L 57.2266 -49.5117 L 56.8848 -49.5117 L 50.293 -45.2148 C 49.1211 -44.3848 48.6328 -44.2871 47.8516 -44.2871 C 46.2402 -44.2871 44.9707 -45.8008 44.9707 -47.3633 C 44.9707 -48.6328 45.4102 -49.4141 46.5332 -50.1953 L 55.6641 -56.3965 C 57.8125 -57.8613 59.1797 -58.3984 60.9863 -58.3984 C 63.7695 -58.3984 65.332 -56.7383 65.332 -53.8086 L 65.332 -16.748 C 65.332 -13.916 63.8672 -12.1582 61.2305 -12.1582 Z"/>
  </g>
  <g id="Light-M" transform="matrix(1 0 0 1 1095.42 1126)">
   <path d="M 57.7148 13.7695 C 84.5215 13.7695 106.689 -8.39844 106.689 -35.2051 C 106.689 -62.0117 84.5215 -84.1797 57.666 -84.1797 C 30.8594 -84.1797 8.74023 -62.0117 8.74023 -35.2051 C 8.74023 -8.39844 30.9082 13.7695 57.7148 13.7695 Z M 60.5957 -12.5977 C 58.6426 -12.5977 57.4707 -13.9648 57.4707 -16.0645 L 57.4707 -51.0742 L 57.1777 -51.0742 L 49.4629 -46.0449 C 48.6328 -45.459 48.1934 -45.3613 47.6074 -45.3613 C 46.3379 -45.3613 45.3125 -46.5332 45.3125 -47.8027 C 45.3125 -48.8281 45.6543 -49.4629 46.582 -50.0488 L 56.1523 -56.4941 C 57.8613 -57.666 58.9355 -58.0566 60.3516 -58.0566 C 62.5 -58.0566 63.7695 -56.7383 63.7695 -54.541 L 63.7695 -16.0645 C 63.7695 -13.9648 62.5977 -12.5977 60.5957 -12.5977 Z"/>
  </g>
  <g id="Thin-M" transform="matrix(1 0 0 1 799.806 1126)">
   <path d="M 56.6406 12.7441 C 82.9102 12.7441 104.492 -8.83789 104.492 -35.1562 C 104.492 -61.4746 82.9102 -83.0566 56.5918 -83.0566 C 30.3223 -83.0566 8.74023 -61.4746 8.74023 -35.1562 C 8.74023 -8.83789 30.3223 12.7441 56.6406 12.7441 Z M 59.7656 -13.1836 C 58.6426 -13.1836 57.8613 -13.9648 57.8613 -15.1855 L 57.8613 -53.0762 L 57.6172 -53.0762 L 48.3398 -47.1191 C 47.9492 -46.8262 47.7051 -46.7773 47.3145 -46.7773 C 46.4355 -46.7773 45.752 -47.5098 45.752 -48.3887 C 45.752 -49.0234 45.9961 -49.5117 46.6309 -49.9023 L 56.8359 -56.5918 C 57.959 -57.3242 58.6426 -57.6172 59.5215 -57.6172 C 60.791 -57.6172 61.6699 -56.7871 61.6699 -55.5176 L 61.6699 -15.1855 C 61.6699 -13.9648 60.9375 -13.1836 59.7656 -13.1836 Z"/>
  </g>
  <g id="Ultralight-M" transform="matrix(1 0 0 1 503.656 1126)">
   <path d="M 56.0547 12.207 C 82.0801 12.207 103.369 -9.08203 103.369 -35.1562 C 103.369 -61.1816 82.0801 -82.4707 56.0547 -82.4707 C 30.0293 -82.4707 8.74023 -61.1816 8.74023 -35.1562 C 8.74023 -9.08203 30.0293 12.207 56.0547 12.207 Z M 59.3262 -13.4766 C 58.5938 -13.4766 58.0566 -14.0137 58.0566 -14.6973 L 58.0566 -54.1016 L 57.8125 -54.1016 L 47.7539 -47.6562 C 47.6074 -47.5098 47.4121 -47.4609 47.168 -47.4609 C 46.5332 -47.4609 45.9473 -47.998 45.9473 -48.6816 C 45.9473 -49.1699 46.1426 -49.5117 46.6309 -49.8535 L 57.1777 -56.6406 C 57.959 -57.1777 58.4473 -57.373 59.082 -57.373 C 59.9121 -57.373 60.5469 -56.8359 60.5469 -56.0059 L 60.5469 -14.6973 C 60.5469 -14.0137 60.1074 -13.4766 59.3262 -13.4766 Z"/>
  </g>
  <g id="Black-S" transform="matrix(1 0 0 1 2884.57 696)">
   <path d="M 48.8281 6.78711 C 71.9727 6.78711 90.8203 -12.0605 90.8203 -35.2051 C 90.8203 -58.3496 71.9727 -77.1973 48.8281 -77.1973 C 25.6836 -77.1973 6.83594 -58.3496 6.83594 -35.2051 C 6.83594 -12.0605 25.6836 6.78711 48.8281 6.78711 Z M 51.4648 -16.9922 C 47.3145 -16.9922 44.5312 -19.0918 44.5312 -24.1211 L 44.5312 -40.7227 L 44.0918 -40.7227 L 41.1621 -38.7695 C 39.6973 -37.793 39.0137 -37.6465 37.8906 -37.6465 C 35.3027 -37.6465 33.4473 -39.6484 33.4473 -42.334 C 33.4473 -44.4824 34.4238 -45.8984 36.4258 -47.2168 L 42.041 -50.8301 C 45.0195 -52.7344 47.4121 -53.5156 50.3418 -53.5156 C 55.0781 -53.5156 58.4473 -50.5371 58.4473 -46.3867 L 58.4473 -24.1211 C 58.4473 -19.0918 55.5664 -16.9922 51.4648 -16.9922 Z"/>
  </g>
  <g id="Heavy-S" transform="matrix(1 0 0 1 2588.47 696)">
   <path d="M 48.2422 6.15234 C 70.9961 6.15234 89.5996 -12.4512 89.5996 -35.2051 C 89.5996 -57.959 70.9961 -76.6113 48.1934 -76.6113 C 25.4395 -76.6113 6.83594 -57.959 6.83594 -35.2051 C 6.83594 -12.4512 25.4395 6.15234 48.2422 6.15234 Z M 50.7324 -16.9922 C 47.0215 -16.9922 44.5801 -18.9453 44.5801 -23.3887 L 44.5801 -41.8945 L 44.1406 -41.8945 L 40.8203 -39.6973 C 39.4531 -38.7695 38.8184 -38.623 37.793 -38.623 C 35.498 -38.623 33.8379 -40.4785 33.8379 -42.8223 C 33.8379 -44.7754 34.668 -45.9961 36.4258 -47.168 L 42.334 -51.0742 C 45.0684 -52.832 47.168 -53.5156 49.8047 -53.5156 C 54.0039 -53.5156 56.9336 -50.8789 56.9336 -47.1191 L 56.9336 -23.3887 C 56.9336 -18.9453 54.3945 -16.9922 50.7324 -16.9922 Z"/>
  </g>
  <g id="Bold-S" transform="matrix(1 0 0 1 2292.44 696)">
   <path d="M 47.5586 5.46875 C 69.873 5.46875 88.2324 -12.8906 88.2324 -35.2051 C 88.2324 -57.5684 69.873 -75.9277 47.5098 -75.9277 C 25.1953 -75.9277 6.83594 -57.5684 6.83594 -35.2051 C 6.83594 -12.8906 25.1953 5.46875 47.5586 5.46875 Z M 49.8535 -16.9922 C 46.6309 -16.9922 44.5801 -18.7988 44.5801 -22.6074 L 44.5801 -43.2129 L 44.2383 -43.2129 L 40.4785 -40.7227 C 39.209 -39.8438 38.623 -39.7461 37.7441 -39.7461 C 35.7422 -39.7461 34.2773 -41.4062 34.2773 -43.4082 C 34.2773 -45.0684 34.9121 -46.1426 36.4258 -47.1191 L 42.6758 -51.3184 C 45.166 -52.9297 46.9238 -53.5156 49.2188 -53.5156 C 52.832 -53.5156 55.1758 -51.3184 55.1758 -47.9004 L 55.1758 -22.6074 C 55.1758 -18.7988 53.125 -16.9922 49.8535 -16.9922 Z"/>
  </g>
  <g id="Semibold-S" transform="matrix(1 0 0 1 1996.2 696)">
   <path d="M 47.0703 4.98047 C 69.0918 4.98047 87.3047 -13.1836 87.3047 -35.2539 C 87.3047 -57.2754 69.0918 -75.4883 47.0215 -75.4883 C 25 -75.4883 6.83594 -57.2754 6.83594 -35.2539 C 6.83594 -13.1836 25.0488 4.98047 47.0703 4.98047 Z M 49.3164 -16.9922 C 46.4355 -16.9922 44.6289 -18.7012 44.6289 -22.0703 L 44.6289 -44.0918 L 44.2871 -44.0918 L 40.2344 -41.4062 C 39.0625 -40.625 38.5254 -40.4785 37.6465 -40.4785 C 35.8887 -40.4785 34.5703 -42.041 34.5703 -43.7988 C 34.5703 -45.2637 35.1074 -46.1914 36.4258 -47.0703 L 42.9199 -51.4648 C 45.2148 -52.9785 46.7773 -53.5645 48.8281 -53.5645 C 52.002 -53.5645 54.0039 -51.5625 54.0039 -48.4375 L 54.0039 -22.0703 C 54.0039 -18.7012 52.1973 -16.9922 49.3164 -16.9922 Z"/>
  </g>
  <g id="Medium-S" transform="matrix(1 0 0 1 1699.83 696)">
   <path d="M 46.7285 4.63867 C 68.5547 4.63867 86.6211 -13.4277 86.6211 -35.2539 C 86.6211 -57.0312 68.5059 -75.1465 46.6797 -75.1465 C 24.8535 -75.1465 6.83594 -57.0312 6.83594 -35.2539 C 6.83594 -13.4277 24.9023 4.63867 46.7285 4.63867 Z M 48.877 -16.9434 C 46.2402 -16.9434 44.6289 -18.6035 44.6289 -21.6309 L 44.6289 -44.8242 L 44.3359 -44.8242 L 40.0391 -41.9434 C 38.916 -41.1621 38.3789 -41.0645 37.6465 -41.0645 C 35.9863 -41.0645 34.7656 -42.5293 34.7656 -44.0918 C 34.7656 -45.4102 35.2539 -46.2402 36.4258 -47.0215 L 43.1152 -51.6113 C 45.2148 -53.0273 46.6309 -53.5645 48.4863 -53.5645 C 51.3672 -53.5645 53.125 -51.8066 53.125 -48.877 L 53.125 -21.6309 C 53.125 -18.6035 51.5137 -16.9434 48.877 -16.9434 Z"/>
  </g>
  <g id="Regular-S" transform="matrix(1 0 0 1 1403.58 696)">
   <path d="M 46.2402 4.15039 C 67.7734 4.15039 85.6934 -13.7207 85.6934 -35.2539 C 85.6934 -56.7871 67.7246 -74.6582 46.1914 -74.6582 C 24.707 -74.6582 6.83594 -56.7871 6.83594 -35.2539 C 6.83594 -13.7207 24.7559 4.15039 46.2402 4.15039 Z M 48.291 -16.9434 C 45.9961 -16.9434 44.6777 -18.5059 44.6777 -21.0938 L 44.6777 -45.7031 L 44.3848 -45.7031 L 39.7949 -42.6758 C 38.7207 -41.8945 38.2812 -41.7969 37.5488 -41.7969 C 36.1328 -41.7969 35.0586 -43.1152 35.0586 -44.4824 C 35.0586 -45.6543 35.4492 -46.3379 36.4258 -47.0215 L 43.3594 -51.7578 C 45.2637 -53.0762 46.4355 -53.5645 48.0957 -53.5645 C 50.5859 -53.5645 51.9531 -52.0508 51.9531 -49.4141 L 51.9531 -21.0938 C 51.9531 -18.5059 50.6348 -16.9434 48.291 -16.9434 Z"/>
  </g>
  <g id="Light-S" transform="matrix(1 0 0 1 1107.6 696)">
   <path d="M 45.5078 3.4668 C 66.6992 3.4668 84.2285 -14.0625 84.2285 -35.2051 C 84.2285 -56.3965 66.6504 -73.9258 45.5078 -73.9258 C 24.3164 -73.9258 6.83594 -56.3965 6.83594 -35.2051 C 6.83594 -14.0625 24.3652 3.4668 45.5078 3.4668 Z M 47.7051 -17.334 C 45.9473 -17.334 44.9219 -18.5547 44.9219 -20.5078 L 44.9219 -47.0215 L 44.6777 -47.0215 L 39.0625 -43.3594 C 38.2812 -42.8223 37.9395 -42.7734 37.3535 -42.7734 C 36.2305 -42.7734 35.3516 -43.7988 35.3516 -44.9219 C 35.3516 -45.8008 35.6445 -46.3867 36.4746 -46.9238 L 43.7988 -51.8555 C 45.3125 -52.8809 46.2402 -53.2715 47.5098 -53.2715 C 49.4141 -53.2715 50.5371 -52.0996 50.5371 -50.0977 L 50.5371 -20.5078 C 50.5371 -18.5547 49.5117 -17.334 47.7051 -17.334 Z"/>
  </g>
  <g id="Thin-S" transform="matrix(1 0 0 1 811.867 696)">
   <path d="M 44.5801 2.53906 C 65.2832 2.53906 82.2754 -14.4531 82.2754 -35.2051 C 82.2754 -55.9082 65.2344 -72.9004 44.5312 -72.9004 C 23.8281 -72.9004 6.83594 -55.9082 6.83594 -35.2051 C 6.83594 -14.4531 23.877 2.53906 44.5801 2.53906 Z M 46.9727 -17.8223 C 45.9473 -17.8223 45.2637 -18.5547 45.2637 -19.6777 L 45.2637 -48.8281 L 45.0195 -48.8281 L 38.0859 -44.3359 C 37.6953 -44.043 37.4512 -43.9941 37.1094 -43.9941 C 36.3281 -43.9941 35.7422 -44.6777 35.7422 -45.4102 C 35.7422 -45.9961 35.9375 -46.3867 36.4746 -46.7773 L 44.3848 -51.9531 C 45.3613 -52.6367 45.9961 -52.832 46.7773 -52.832 C 47.9492 -52.832 48.6816 -52.0996 48.6816 -50.9277 L 48.6816 -19.6777 C 48.6816 -18.5547 48.0469 -17.8223 46.9727 -17.8223 Z"/>
  </g>
  <g id="Ultralight-S" transform="matrix(1 0 0 1 515.644 696)">
   <path d="M 44.043 2.05078 C 64.502 2.05078 81.2988 -14.6973 81.2988 -35.1562 C 81.2988 -55.6152 64.502 -72.3633 44.043 -72.3633 C 23.584 -72.3633 6.83594 -55.6152 6.83594 -35.1562 C 6.83594 -14.6973 23.584 2.05078 44.043 2.05078 Z M 46.582 -18.1152 C 45.8984 -18.1152 45.4102 -18.6035 45.4102 -19.2871 L 45.4102 -49.7559 L 45.2148 -49.7559 L 37.5488 -44.8242 C 37.3535 -44.6777 37.207 -44.6289 37.0117 -44.6289 C 36.4258 -44.6289 35.9375 -45.1172 35.9375 -45.7031 C 35.9375 -46.0938 36.084 -46.4355 36.5234 -46.6797 L 44.7266 -52.002 C 45.4102 -52.4902 45.8496 -52.6367 46.3867 -52.6367 C 47.168 -52.6367 47.7051 -52.1484 47.7051 -51.3672 L 47.7051 -19.2871 C 47.7051 -18.6035 47.3145 -18.1152 46.582 -18.1152 Z"/>
  </g>
 </g>
</svg>
