<?xml version="1.0" encoding="UTF-8"?>
<!--Generator: Apple Native CoreSVG 123-->
<!DOCTYPE svg
PUBLIC "-//W3C//DTD SVG 1.1//EN"
       "http://www.w3.org/Graphics/SVG/1.1/DTD/svg11.dtd">
<svg version="1.1" xmlns="http://www.w3.org/2000/svg" xmlns:xlink="http://www.w3.org/1999/xlink" width="3300" height="2200">
 <!--glyph: "uni100514.medium", point size: 100.000000, font version: "Version 15.0d7e11", template writer version: "5"-->
 <g id="Notes">
  <rect height="2200" id="artboard" style="fill:white;opacity:1" width="3300" x="0" y="0"/>
  <line id="" style="fill:none;stroke:black;opacity:1;stroke-width:0.5;" x1="263" x2="3036" y1="292" y2="292"/>
  <text style="stroke:none;fill:black;font-family:-apple-system,&quot;SF Pro Display&quot;,&quot;SF Pro Text&quot;,Helvetica,sans-serif;font-weight:bold;" transform="matrix(1 0 0 1 263 322)">Weight/Scale Variations</text>
  <text style="stroke:none;fill:black;font-family:-apple-system,&quot;SF Pro Display&quot;,&quot;SF Pro Text&quot;,Helvetica,sans-serif;text-anchor:middle;" transform="matrix(1 0 0 1 559.711 322)">Ultralight</text>
  <text style="stroke:none;fill:black;font-family:-apple-system,&quot;SF Pro Display&quot;,&quot;SF Pro Text&quot;,Helvetica,sans-serif;text-anchor:middle;" transform="matrix(1 0 0 1 856.422 322)">Thin</text>
  <text style="stroke:none;fill:black;font-family:-apple-system,&quot;SF Pro Display&quot;,&quot;SF Pro Text&quot;,Helvetica,sans-serif;text-anchor:middle;" transform="matrix(1 0 0 1 1153.13 322)">Light</text>
  <text style="stroke:none;fill:black;font-family:-apple-system,&quot;SF Pro Display&quot;,&quot;SF Pro Text&quot;,Helvetica,sans-serif;text-anchor:middle;" transform="matrix(1 0 0 1 1449.84 322)">Regular</text>
  <text style="stroke:none;fill:black;font-family:-apple-system,&quot;SF Pro Display&quot;,&quot;SF Pro Text&quot;,Helvetica,sans-serif;text-anchor:middle;" transform="matrix(1 0 0 1 1746.56 322)">Medium</text>
  <text style="stroke:none;fill:black;font-family:-apple-system,&quot;SF Pro Display&quot;,&quot;SF Pro Text&quot;,Helvetica,sans-serif;text-anchor:middle;" transform="matrix(1 0 0 1 2043.27 322)">Semibold</text>
  <text style="stroke:none;fill:black;font-family:-apple-system,&quot;SF Pro Display&quot;,&quot;SF Pro Text&quot;,Helvetica,sans-serif;text-anchor:middle;" transform="matrix(1 0 0 1 2339.98 322)">Bold</text>
  <text style="stroke:none;fill:black;font-family:-apple-system,&quot;SF Pro Display&quot;,&quot;SF Pro Text&quot;,Helvetica,sans-serif;text-anchor:middle;" transform="matrix(1 0 0 1 2636.69 322)">Heavy</text>
  <text style="stroke:none;fill:black;font-family:-apple-system,&quot;SF Pro Display&quot;,&quot;SF Pro Text&quot;,Helvetica,sans-serif;text-anchor:middle;" transform="matrix(1 0 0 1 2933.4 322)">Black</text>
  <line id="" style="fill:none;stroke:black;opacity:1;stroke-width:0.5;" x1="263" x2="3036" y1="1903" y2="1903"/>
  <g id="" transform="matrix(1 0 0 1 263 1933)">
   <path d="M 9.24805 0.830078 C 13.5547 0.830078 17.1387 -2.74414 17.1387 -7.05078 C 17.1387 -11.3574 13.5449 -14.9316 9.23828 -14.9316 C 4.94141 -14.9316 1.36719 -11.3574 1.36719 -7.05078 C 1.36719 -2.74414 4.95117 0.830078 9.24805 0.830078 Z M 9.24805 -0.654297 C 5.70312 -0.654297 2.87109 -3.49609 2.87109 -7.05078 C 2.87109 -10.6055 5.69336 -13.4473 9.23828 -13.4473 C 12.793 -13.4473 15.6348 -10.6055 15.6445 -7.05078 C 15.6543 -3.49609 12.8027 -0.654297 9.24805 -0.654297 Z M 9.22852 -3.42773 C 9.69727 -3.42773 9.9707 -3.74023 9.9707 -4.25781 L 9.9707 -6.31836 L 12.1973 -6.31836 C 12.6953 -6.31836 13.0371 -6.57227 13.0371 -7.04102 C 13.0371 -7.51953 12.7148 -7.7832 12.1973 -7.7832 L 9.9707 -7.7832 L 9.9707 -10.0098 C 9.9707 -10.5273 9.69727 -10.8496 9.22852 -10.8496 C 8.75977 -10.8496 8.50586 -10.5078 8.50586 -10.0098 L 8.50586 -7.7832 L 6.29883 -7.7832 C 5.78125 -7.7832 5.44922 -7.51953 5.44922 -7.04102 C 5.44922 -6.57227 5.80078 -6.31836 6.29883 -6.31836 L 8.50586 -6.31836 L 8.50586 -4.25781 C 8.50586 -3.75977 8.75977 -3.42773 9.22852 -3.42773 Z"/>
  </g>
  <g id="" transform="matrix(1 0 0 1 281.506 1933)">
   <path d="M 11.709 2.91016 C 17.1582 2.91016 21.6699 -1.60156 21.6699 -7.05078 C 21.6699 -12.4902 17.1484 -17.0117 11.6992 -17.0117 C 6.25977 -17.0117 1.74805 -12.4902 1.74805 -7.05078 C 1.74805 -1.60156 6.26953 2.91016 11.709 2.91016 Z M 11.709 1.25 C 7.09961 1.25 3.41797 -2.44141 3.41797 -7.05078 C 3.41797 -11.6504 7.08984 -15.3516 11.6992 -15.3516 C 16.3086 -15.3516 20 -11.6504 20.0098 -7.05078 C 20.0195 -2.44141 16.3184 1.25 11.709 1.25 Z M 11.6895 -2.41211 C 12.207 -2.41211 12.5195 -2.77344 12.5195 -3.33984 L 12.5195 -6.23047 L 15.5762 -6.23047 C 16.123 -6.23047 16.5039 -6.51367 16.5039 -7.03125 C 16.5039 -7.55859 16.1426 -7.86133 15.5762 -7.86133 L 12.5195 -7.86133 L 12.5195 -10.9277 C 12.5195 -11.5039 12.207 -11.8555 11.6895 -11.8555 C 11.1719 -11.8555 10.8789 -11.4844 10.8789 -10.9277 L 10.8789 -7.86133 L 7.83203 -7.86133 C 7.26562 -7.86133 6.89453 -7.55859 6.89453 -7.03125 C 6.89453 -6.51367 7.28516 -6.23047 7.83203 -6.23047 L 10.8789 -6.23047 L 10.8789 -3.33984 C 10.8789 -2.79297 11.1719 -2.41211 11.6895 -2.41211 Z"/>
  </g>
  <g id="" transform="matrix(1 0 0 1 304.924 1933)">
   <path d="M 14.9707 5.67383 C 21.9336 5.67383 27.6953 -0.078125 27.6953 -7.04102 C 27.6953 -14.0039 21.9238 -19.7559 14.9609 -19.7559 C 8.00781 -19.7559 2.25586 -14.0039 2.25586 -7.04102 C 2.25586 -0.078125 8.01758 5.67383 14.9707 5.67383 Z M 14.9707 3.85742 C 8.93555 3.85742 4.08203 -1.00586 4.08203 -7.04102 C 4.08203 -13.0762 8.92578 -17.9395 14.9609 -17.9395 C 21.0059 -17.9395 25.8594 -13.0762 25.8691 -7.04102 C 25.8789 -1.00586 21.0156 3.85742 14.9707 3.85742 Z M 14.9512 -1.06445 C 15.5176 -1.06445 15.8691 -1.45508 15.8691 -2.06055 L 15.8691 -6.13281 L 20.1074 -6.13281 C 20.6934 -6.13281 21.1133 -6.46484 21.1133 -7.02148 C 21.1133 -7.59766 20.7227 -7.93945 20.1074 -7.93945 L 15.8691 -7.93945 L 15.8691 -12.1875 C 15.8691 -12.8027 15.5176 -13.1934 14.9512 -13.1934 C 14.3848 -13.1934 14.0625 -12.7832 14.0625 -12.1875 L 14.0625 -7.93945 L 9.83398 -7.93945 C 9.21875 -7.93945 8.80859 -7.59766 8.80859 -7.02148 C 8.80859 -6.46484 9.23828 -6.13281 9.83398 -6.13281 L 14.0625 -6.13281 L 14.0625 -2.06055 C 14.0625 -1.47461 14.3848 -1.06445 14.9512 -1.06445 Z"/>
  </g>
  <text style="stroke:none;fill:black;font-family:-apple-system,&quot;SF Pro Display&quot;,&quot;SF Pro Text&quot;,Helvetica,sans-serif;font-weight:bold;" transform="matrix(1 0 0 1 263 1953)">Design Variations</text>
  <text style="stroke:none;fill:black;font-family:-apple-system,&quot;SF Pro Display&quot;,&quot;SF Pro Text&quot;,Helvetica,sans-serif;" transform="matrix(1 0 0 1 263 1971)">Symbols are supported in up to nine weights and three scales.</text>
  <text style="stroke:none;fill:black;font-family:-apple-system,&quot;SF Pro Display&quot;,&quot;SF Pro Text&quot;,Helvetica,sans-serif;" transform="matrix(1 0 0 1 263 1989)">For optimal layout with text and other symbols, vertically align</text>
  <text style="stroke:none;fill:black;font-family:-apple-system,&quot;SF Pro Display&quot;,&quot;SF Pro Text&quot;,Helvetica,sans-serif;" transform="matrix(1 0 0 1 263 2007)">symbols with the adjacent text.</text>
  <rect height="14" id="" style="fill:#00AEEF;stroke:none;opacity:0.4;" width="3" x="776" y="1919"/>
  <g id="" transform="matrix(1 0 0 1 779 1933)">
   <path d="M 10.5273 0 L 12.373 0 L 7.17773 -14.0918 L 5.43945 -14.0918 L 0.244141 0 L 2.08984 0 L 3.50586 -4.0332 L 9.11133 -4.0332 Z M 6.2793 -11.9531 L 6.33789 -11.9531 L 8.59375 -5.52734 L 4.02344 -5.52734 Z"/>
  </g>
  <rect height="14" id="" style="fill:#00AEEF;stroke:none;opacity:0.4;" width="3" x="791.617" y="1919"/>
  <text style="stroke:none;fill:black;font-family:-apple-system,&quot;SF Pro Display&quot;,&quot;SF Pro Text&quot;,Helvetica,sans-serif;font-weight:bold;" transform="matrix(1 0 0 1 776 1953)">Margins</text>
  <text style="stroke:none;fill:black;font-family:-apple-system,&quot;SF Pro Display&quot;,&quot;SF Pro Text&quot;,Helvetica,sans-serif;" transform="matrix(1 0 0 1 776 1971)">Leading and trailing margins on the left and right side of each symbol</text>
  <text style="stroke:none;fill:black;font-family:-apple-system,&quot;SF Pro Display&quot;,&quot;SF Pro Text&quot;,Helvetica,sans-serif;" transform="matrix(1 0 0 1 776 1989)">can be adjusted by modifying the width of the blue rectangles.</text>
  <text style="stroke:none;fill:black;font-family:-apple-system,&quot;SF Pro Display&quot;,&quot;SF Pro Text&quot;,Helvetica,sans-serif;" transform="matrix(1 0 0 1 776 2007)">Modifications are automatically applied proportionally to all</text>
  <text style="stroke:none;fill:black;font-family:-apple-system,&quot;SF Pro Display&quot;,&quot;SF Pro Text&quot;,Helvetica,sans-serif;" transform="matrix(1 0 0 1 776 2025)">scales and weights.</text>
  <g id="" transform="matrix(1 0 0 1 1289 1933)">
   <path d="M 2.83203 3.11523 L 4.375 4.6582 C 5.22461 5.48828 6.19141 5.41992 7.06055 4.46289 L 17.2754 -6.66016 C 17.7051 -6.36719 18.0957 -6.37695 18.5645 -6.47461 L 19.6094 -6.68945 L 20.3027 -5.99609 L 20.2539 -5.47852 C 20.1855 -4.95117 20.3516 -4.53125 20.8496 -4.0332 L 21.6602 -3.22266 C 22.168 -2.71484 22.8223 -2.68555 23.3008 -3.16406 L 26.5527 -6.41602 C 27.0312 -6.89453 27.0117 -7.54883 26.5039 -8.05664 L 25.6836 -8.87695 C 25.1855 -9.375 24.7754 -9.55078 24.2383 -9.47266 L 23.7109 -9.41406 L 23.0566 -10.0781 L 23.3398 -11.2207 C 23.4863 -11.7871 23.3398 -12.2559 22.7148 -12.8613 L 20.3027 -15.2539 C 16.7578 -18.7793 12.2266 -18.6719 9.11133 -15.5371 C 8.69141 -15.1074 8.64258 -14.5215 8.91602 -14.0918 C 9.15039 -13.7207 9.62891 -13.4961 10.2734 -13.6621 C 11.7871 -14.043 13.3008 -13.9258 14.7852 -12.9199 L 14.1602 -11.3379 C 13.9258 -10.752 13.9453 -10.2734 14.1797 -9.83398 L 3.01758 0.439453 C 2.08008 1.30859 1.97266 2.25586 2.83203 3.11523 Z M 10.6738 -15.1465 C 13.3398 -17.1387 16.6504 -16.8262 19.0527 -14.4141 L 21.6797 -11.8066 C 21.9141 -11.5723 21.9434 -11.3867 21.8848 -11.0938 L 21.5039 -9.53125 L 23.0762 -7.95898 L 24.043 -8.04688 C 24.3262 -8.07617 24.4141 -8.05664 24.6387 -7.83203 L 25.2637 -7.20703 L 22.5098 -4.46289 L 21.8848 -5.07812 C 21.6602 -5.30273 21.6406 -5.40039 21.6699 -5.68359 L 21.7578 -6.64062 L 20.1953 -8.20312 L 18.5742 -7.89062 C 18.291 -7.83203 18.1445 -7.83203 17.9102 -8.07617 L 15.7324 -10.2539 C 15.5078 -10.4883 15.4785 -10.625 15.6055 -10.9473 L 16.5527 -13.2227 C 14.9512 -14.7559 12.8418 -15.6055 10.8008 -14.9512 C 10.7129 -14.9219 10.6445 -14.9414 10.6152 -14.9805 C 10.5859 -15.0293 10.5859 -15.0781 10.6738 -15.1465 Z M 4.10156 2.41211 C 3.61328 1.91406 3.78906 1.61133 4.12109 1.30859 L 15.0781 -8.80859 L 16.3086 -7.57812 L 6.15234 3.34961 C 5.84961 3.68164 5.46875 3.7793 5.06836 3.37891 Z"/>
  </g>
  <text style="stroke:none;fill:black;font-family:-apple-system,&quot;SF Pro Display&quot;,&quot;SF Pro Text&quot;,Helvetica,sans-serif;font-weight:bold;" transform="matrix(1 0 0 1 1289 1953)">Exporting</text>
  <text style="stroke:none;fill:black;font-family:-apple-system,&quot;SF Pro Display&quot;,&quot;SF Pro Text&quot;,Helvetica,sans-serif;" transform="matrix(1 0 0 1 1289 1971)">Symbols should be outlined when exporting to ensure the</text>
  <text style="stroke:none;fill:black;font-family:-apple-system,&quot;SF Pro Display&quot;,&quot;SF Pro Text&quot;,Helvetica,sans-serif;" transform="matrix(1 0 0 1 1289 1989)">design is preserved when submitting to Xcode.</text>
  <text id="template-version" style="stroke:none;fill:black;font-family:-apple-system,&quot;SF Pro Display&quot;,&quot;SF Pro Text&quot;,Helvetica,sans-serif;text-anchor:end;" transform="matrix(1 0 0 1 3036 1933)">Template v.1.0</text>
  <text style="stroke:none;fill:black;font-family:-apple-system,&quot;SF Pro Display&quot;,&quot;SF Pro Text&quot;,Helvetica,sans-serif;text-anchor:end;" transform="matrix(1 0 0 1 3036 1951)">Generated from 10.circle.fill</text>
  <text style="stroke:none;fill:black;font-family:-apple-system,&quot;SF Pro Display&quot;,&quot;SF Pro Text&quot;,Helvetica,sans-serif;text-anchor:end;" transform="matrix(1 0 0 1 3036 1969)">Typeset at 100 points</text>
  <text style="stroke:none;fill:black;font-family:-apple-system,&quot;SF Pro Display&quot;,&quot;SF Pro Text&quot;,Helvetica,sans-serif;" transform="matrix(1 0 0 1 263 726)">Small</text>
  <text style="stroke:none;fill:black;font-family:-apple-system,&quot;SF Pro Display&quot;,&quot;SF Pro Text&quot;,Helvetica,sans-serif;" transform="matrix(1 0 0 1 263 1156)">Medium</text>
  <text style="stroke:none;fill:black;font-family:-apple-system,&quot;SF Pro Display&quot;,&quot;SF Pro Text&quot;,Helvetica,sans-serif;" transform="matrix(1 0 0 1 263 1586)">Large</text>
 </g>
 <g id="Guides">
  <g id="H-reference" style="fill:#27AAE1;stroke:none;" transform="matrix(1 0 0 1 339 696)">
   <path d="M 54.9316 0 L 57.666 0 L 30.5664 -70.459 L 28.0762 -70.459 L 0.976562 0 L 3.66211 0 L 12.9395 -24.4629 L 45.7031 -24.4629 Z M 29.1992 -67.0898 L 29.4434 -67.0898 L 44.8242 -26.709 L 13.8184 -26.709 Z"/>
  </g>
  <line id="Baseline-S" style="fill:none;stroke:#27AAE1;opacity:1;stroke-width:0.577;" x1="263" x2="3036" y1="696" y2="696"/>
  <line id="Capline-S" style="fill:none;stroke:#27AAE1;opacity:1;stroke-width:0.577;" x1="263" x2="3036" y1="625.541" y2="625.541"/>
  <g id="H-reference" style="fill:#27AAE1;stroke:none;" transform="matrix(1 0 0 1 339 1126)">
   <path d="M 54.9316 0 L 57.666 0 L 30.5664 -70.459 L 28.0762 -70.459 L 0.976562 0 L 3.66211 0 L 12.9395 -24.4629 L 45.7031 -24.4629 Z M 29.1992 -67.0898 L 29.4434 -67.0898 L 44.8242 -26.709 L 13.8184 -26.709 Z"/>
  </g>
  <line id="Baseline-M" style="fill:none;stroke:#27AAE1;opacity:1;stroke-width:0.577;" x1="263" x2="3036" y1="1126" y2="1126"/>
  <line id="Capline-M" style="fill:none;stroke:#27AAE1;opacity:1;stroke-width:0.577;" x1="263" x2="3036" y1="1055.54" y2="1055.54"/>
  <g id="H-reference" style="fill:#27AAE1;stroke:none;" transform="matrix(1 0 0 1 339 1556)">
   <path d="M 54.9316 0 L 57.666 0 L 30.5664 -70.459 L 28.0762 -70.459 L 0.976562 0 L 3.66211 0 L 12.9395 -24.4629 L 45.7031 -24.4629 Z M 29.1992 -67.0898 L 29.4434 -67.0898 L 44.8242 -26.709 L 13.8184 -26.709 Z"/>
  </g>
  <line id="Baseline-L" style="fill:none;stroke:#27AAE1;opacity:1;stroke-width:0.577;" x1="263" x2="3036" y1="1556" y2="1556"/>
  <line id="Capline-L" style="fill:none;stroke:#27AAE1;opacity:1;stroke-width:0.577;" x1="263" x2="3036" y1="1485.54" y2="1485.54"/>
  <rect height="119.336" id="left-margin" style="fill:#00AEEF;stroke:none;opacity:0.4;" width="8.74023" x="1391.3" y="1030.79"/>
  <rect height="119.336" id="right-margin" style="fill:#00AEEF;stroke:none;opacity:0.4;" width="8.74023" x="1499.65" y="1030.79"/>
 </g>
 <g id="Symbols">
  <g id="Black-L" transform="matrix(1 0 0 1 2854.05 1556)">
   <path d="M 79.3457 32.8613 C 116.748 32.8613 147.412 2.19727 147.412 -35.2051 C 147.412 -72.6074 116.748 -103.271 79.2969 -103.271 C 41.8945 -103.271 11.2793 -72.6074 11.2793 -35.2051 C 11.2793 2.19727 41.9434 32.8613 79.3457 32.8613 Z M 96.3867 -9.47266 C 86.1816 -9.47266 79.3945 -17.4805 79.3945 -35.2539 C 79.3945 -53.0273 86.1816 -61.084 96.3867 -61.084 C 106.543 -61.084 113.77 -53.0273 113.77 -35.2539 C 113.77 -17.4805 106.543 -9.47266 96.3867 -9.47266 Z M 64.5508 -9.66797 C 60.4492 -9.66797 58.3984 -12.1094 58.3984 -16.8457 L 58.3984 -45.8496 L 58.1055 -45.8496 L 55.0781 -42.9199 C 53.5645 -41.1133 52.3438 -40.3809 50.2441 -40.3809 C 47.5586 -40.3809 45.2148 -42.7246 45.2148 -45.5566 C 45.2148 -47.998 46.2891 -49.707 48.584 -51.8066 L 54.9805 -57.3242 C 58.2031 -60.2051 60.3516 -60.9863 62.9883 -60.9863 C 68.0176 -60.9863 70.7031 -57.959 70.7031 -52.832 L 70.7031 -16.8457 C 70.7031 -12.1094 68.5547 -9.66797 64.5508 -9.66797 Z M 96.5332 -21.5332 C 99.4629 -21.5332 101.27 -25.1953 101.27 -35.2539 C 101.27 -45.3125 99.4629 -49.0234 96.5332 -49.0234 C 93.7012 -49.0234 91.8457 -45.3125 91.8457 -35.2539 C 91.8457 -25.1953 93.7012 -21.5332 96.5332 -21.5332 Z"/>
  </g>
  <g id="Heavy-L" transform="matrix(1 0 0 1 2558.39 1556)">
   <path d="M 78.2715 31.7871 C 115.088 31.7871 145.312 1.61133 145.312 -35.2051 C 145.312 -72.0215 115.039 -102.197 78.2715 -102.197 C 41.4551 -102.197 11.2793 -72.0215 11.2793 -35.2051 C 11.2793 1.61133 41.5039 31.7871 78.2715 31.7871 Z M 95.3125 -8.88672 C 84.8145 -8.88672 77.8809 -17.5781 77.8809 -35.2539 C 77.8809 -52.9297 84.8145 -61.6699 95.3125 -61.6699 C 105.713 -61.6699 113.037 -52.9297 113.037 -35.2539 C 113.037 -17.5781 105.713 -8.88672 95.3125 -8.88672 Z M 62.6953 -9.17969 C 59.0332 -9.17969 57.1777 -11.377 57.1777 -15.5273 L 57.1777 -47.7539 L 56.8848 -47.7539 L 52.6367 -44.1406 C 51.123 -42.5293 50.0977 -41.9922 48.291 -41.9922 C 45.8496 -41.9922 43.6523 -44.1406 43.6523 -46.7773 C 43.6523 -48.9746 44.6289 -50.4883 46.6797 -52.3438 L 54.1504 -58.252 C 57.0801 -60.791 58.9355 -61.4746 61.4258 -61.4746 C 65.8203 -61.4746 68.2617 -58.7891 68.2617 -54.2969 L 68.2617 -15.5273 C 68.2617 -11.377 66.3086 -9.17969 62.6953 -9.17969 Z M 95.4102 -19.7266 C 99.2676 -19.7266 101.709 -24.5117 101.709 -35.2539 C 101.709 -46.0449 99.2676 -50.7812 95.4102 -50.7812 C 91.6016 -50.7812 89.1602 -46.0449 89.1602 -35.2539 C 89.1602 -24.5117 91.6016 -19.7266 95.4102 -19.7266 Z"/>
  </g>
  <g id="Bold-L" transform="matrix(1 0 0 1 2262.88 1556)">
   <path d="M 77.0996 30.6152 C 113.232 30.6152 142.92 0.878906 142.92 -35.2051 C 142.92 -71.3379 113.184 -101.025 77.0508 -101.025 C 40.9668 -101.025 11.2793 -71.3379 11.2793 -35.2051 C 11.2793 0.878906 41.0156 30.6152 77.0996 30.6152 Z M 94.0918 -8.25195 C 83.3496 -8.25195 76.1719 -17.6758 76.1719 -35.2539 C 76.1719 -52.832 83.3496 -62.3047 94.0918 -62.3047 C 104.785 -62.3047 112.207 -52.832 112.207 -35.2539 C 112.207 -17.6758 104.785 -8.25195 94.0918 -8.25195 Z M 60.6445 -8.69141 C 57.5195 -8.69141 55.8105 -10.5957 55.8105 -14.1113 L 55.8105 -49.9023 L 55.4688 -49.9023 L 49.8535 -45.5078 C 48.4375 -44.1406 47.6074 -43.75 46.0938 -43.75 C 43.8965 -43.75 41.9434 -45.7031 41.9434 -48.0957 C 41.9434 -50.0488 42.7734 -51.416 44.5801 -52.8809 L 53.1738 -59.2773 C 55.7617 -61.377 57.373 -62.0605 59.668 -62.0605 C 63.3789 -62.0605 65.5273 -59.7168 65.5273 -55.9082 L 65.5273 -14.1113 C 65.5273 -10.5957 63.7695 -8.69141 60.6445 -8.69141 Z M 94.1406 -17.7734 C 99.0723 -17.7734 102.197 -23.7305 102.197 -35.2539 C 102.197 -46.7773 99.0723 -52.7832 94.1406 -52.7832 C 89.3066 -52.7832 86.1816 -46.7773 86.1816 -35.2539 C 86.1816 -23.7305 89.3066 -17.7734 94.1406 -17.7734 Z"/>
  </g>
  <g id="Semibold-L" transform="matrix(1 0 0 1 1966.97 1556)">
   <path d="M 76.2695 29.7852 C 111.914 29.7852 141.309 0.439453 141.309 -35.2051 C 141.309 -70.8496 111.865 -100.244 76.2695 -100.244 C 40.625 -100.244 11.2793 -70.8496 11.2793 -35.2051 C 11.2793 0.439453 40.6738 29.7852 76.2695 29.7852 Z M 93.2129 -7.76367 C 82.2754 -7.76367 74.9512 -17.7734 74.9512 -35.2539 C 74.9512 -52.7832 82.2754 -62.7441 93.2129 -62.7441 C 104.199 -62.7441 111.67 -52.7832 111.67 -35.2539 C 111.67 -17.7734 104.199 -7.76367 93.2129 -7.76367 Z M 59.2285 -8.30078 C 56.4453 -8.30078 54.834 -10.0586 54.834 -13.0859 L 54.834 -51.3672 L 54.541 -51.3672 L 47.9492 -46.4844 C 46.582 -45.2637 45.8496 -44.9707 44.5801 -44.9707 C 42.5781 -44.9707 40.7227 -46.7773 40.7227 -49.0234 C 40.7227 -50.7812 41.5039 -52.002 43.1152 -53.2715 L 52.4902 -59.9609 C 54.8828 -61.8164 56.2988 -62.4512 58.4473 -62.4512 C 61.6699 -62.4512 63.6719 -60.3516 63.6719 -57.0312 L 63.6719 -13.0859 C 63.6719 -10.0586 62.0117 -8.30078 59.2285 -8.30078 Z M 93.3105 -16.4062 C 98.9746 -16.4062 102.539 -23.1934 102.539 -35.2539 C 102.539 -47.3145 98.9258 -54.1504 93.3105 -54.1504 C 87.6953 -54.1504 84.082 -47.3145 84.082 -35.2539 C 84.082 -23.1934 87.6953 -16.4062 93.3105 -16.4062 Z"/>
  </g>
  <g id="Medium-L" transform="matrix(1 0 0 1 1670.87 1556)">
   <path d="M 75.6836 29.1992 C 110.938 29.1992 140.088 0.0488281 140.088 -35.2051 C 140.088 -70.459 110.889 -99.6094 75.6348 -99.6094 C 40.3809 -99.6094 11.2793 -70.459 11.2793 -35.2051 C 11.2793 0.0488281 40.3809 29.1992 75.6836 29.1992 Z M 92.5781 -7.4707 C 81.4941 -7.4707 74.0723 -17.8223 74.0723 -35.2539 C 74.0723 -52.6855 81.4941 -63.0859 92.5781 -63.0859 C 103.711 -63.0859 111.23 -52.6855 111.23 -35.2539 C 111.23 -17.8223 103.711 -7.4707 92.5781 -7.4707 Z M 58.1543 -8.00781 C 55.6641 -8.00781 54.1016 -9.66797 54.1016 -12.3535 L 54.1016 -52.4902 L 53.8086 -52.4902 L 46.5332 -47.2168 C 45.2148 -46.0938 44.5801 -45.8984 43.457 -45.8984 C 41.5527 -45.8984 39.7949 -47.6074 39.7949 -49.707 C 39.7949 -51.3184 40.5762 -52.4902 41.9922 -53.5645 L 52.002 -60.5469 C 54.1992 -62.1582 55.5176 -62.7441 57.5195 -62.7441 C 60.4004 -62.7441 62.2559 -60.8398 62.2559 -57.8613 L 62.2559 -12.3535 C 62.2559 -9.66797 60.6934 -8.00781 58.1543 -8.00781 Z M 92.627 -15.332 C 98.8281 -15.332 102.783 -22.8027 102.783 -35.2539 C 102.783 -47.7539 98.7793 -55.1758 92.627 -55.1758 C 86.4746 -55.1758 82.5195 -47.7539 82.5195 -35.2539 C 82.5195 -22.8027 86.4746 -15.332 92.627 -15.332 Z"/>
  </g>
  <g id="Regular-L" transform="matrix(1 0 0 1 1374.97 1556)">
   <path d="M 74.8535 28.3691 C 109.668 28.3691 138.477 -0.390625 138.477 -35.2051 C 138.477 -70.0195 109.619 -98.7793 74.8047 -98.7793 C 40.0391 -98.7793 11.2793 -70.0195 11.2793 -35.2051 C 11.2793 -0.390625 40.0879 28.3691 74.8535 28.3691 Z M 91.748 -6.98242 C 80.4688 -6.98242 72.9004 -17.9199 72.9004 -35.2539 C 72.9004 -52.6367 80.4688 -63.5254 91.748 -63.5254 C 103.076 -63.5254 110.645 -52.6367 110.645 -35.2539 C 110.645 -17.9199 103.076 -6.98242 91.748 -6.98242 Z M 56.7383 -7.66602 C 54.5898 -7.66602 53.1738 -9.13086 53.1738 -11.377 L 53.1738 -53.9551 L 52.832 -53.9551 L 44.6289 -48.1445 C 43.3594 -47.168 42.8711 -47.1191 41.9434 -47.1191 C 40.2832 -47.1191 38.623 -48.6328 38.623 -50.6348 C 38.623 -52.0996 39.3066 -53.125 40.5762 -53.9551 L 51.3184 -61.2305 C 53.3203 -62.5977 54.4434 -63.1348 56.2988 -63.1348 C 58.7402 -63.1348 60.4004 -61.4258 60.4004 -58.9355 L 60.4004 -11.377 C 60.4004 -9.13086 58.9844 -7.66602 56.7383 -7.66602 Z M 91.748 -14.0137 C 98.7305 -14.0137 103.125 -22.2656 103.125 -35.2539 C 103.125 -48.291 98.6816 -56.543 91.748 -56.543 C 84.8633 -56.543 80.4688 -48.291 80.4688 -35.2539 C 80.4688 -22.2656 84.8633 -14.0137 91.748 -14.0137 Z"/>
  </g>
  <g id="Light-L" transform="matrix(1 0 0 1 1079.18 1556)">
   <path d="M 73.9258 27.4902 C 108.301 27.4902 136.621 -0.830078 136.621 -35.1562 C 136.621 -69.5312 108.252 -97.8516 73.9258 -97.8516 C 39.5508 -97.8516 11.2793 -69.5312 11.2793 -35.1562 C 11.2793 -0.830078 39.5996 27.4902 73.9258 27.4902 Z M 90.5273 -7.32422 C 79.2969 -7.32422 71.7285 -18.3105 71.7285 -35.2539 C 71.7285 -52.2461 79.2969 -63.2324 90.5273 -63.2324 C 101.709 -63.2324 109.326 -52.2461 109.326 -35.2539 C 109.326 -18.3105 101.709 -7.32422 90.5273 -7.32422 Z M 55.4688 -7.86133 C 53.7598 -7.86133 52.5879 -9.0332 52.5879 -10.8398 L 52.5879 -55.4199 L 52.2949 -55.4199 L 42.627 -48.877 C 41.6992 -48.1934 41.3086 -48.1934 40.625 -48.1934 C 39.209 -48.1934 37.9395 -49.4141 37.9395 -50.9766 C 37.9395 -52.0996 38.4277 -52.8809 39.502 -53.5645 L 51.2207 -61.4258 C 52.7344 -62.4023 53.6133 -62.793 55.127 -62.793 C 57.0312 -62.793 58.3984 -61.5234 58.3984 -59.5215 L 58.3984 -10.8398 C 58.3984 -9.0332 57.2754 -7.86133 55.4688 -7.86133 Z M 90.5273 -12.9395 C 98.1934 -12.9395 103.271 -21.8262 103.271 -35.2539 C 103.271 -48.7305 98.1445 -57.5684 90.5273 -57.5684 C 82.8125 -57.5684 77.7344 -48.7305 77.7344 -35.2539 C 77.7344 -21.8262 82.8125 -12.9395 90.5273 -12.9395 Z"/>
  </g>
  <g id="Thin-L" transform="matrix(1 0 0 1 783.693 1556)">
   <path d="M 72.7051 26.3184 C 106.494 26.3184 134.18 -1.36719 134.18 -35.1074 C 134.18 -68.8965 106.494 -96.582 72.7051 -96.582 C 38.9648 -96.582 11.2793 -68.8965 11.2793 -35.1074 C 11.2793 -1.36719 38.9648 26.3184 72.7051 26.3184 Z M 88.8184 -7.71484 C 77.7344 -7.71484 70.166 -18.7988 70.166 -35.2539 C 70.166 -51.709 77.7344 -62.793 88.8184 -62.793 C 99.9023 -62.793 107.52 -51.709 107.52 -35.2539 C 107.52 -18.7988 99.9023 -7.71484 88.8184 -7.71484 Z M 53.8086 -8.1543 C 52.6855 -8.1543 51.8555 -8.93555 51.8555 -10.1074 L 51.8555 -57.4219 L 51.6113 -57.4219 L 39.9902 -49.8047 C 39.4531 -49.5605 39.2578 -49.5605 38.8672 -49.5605 C 37.8418 -49.5605 37.0117 -50.3906 37.0117 -51.416 C 37.0117 -52.0996 37.2559 -52.6367 38.0371 -53.0762 L 51.123 -61.6699 C 51.9531 -62.207 52.4902 -62.4023 53.5156 -62.4023 C 54.834 -62.4023 55.7129 -61.6211 55.7129 -60.2539 L 55.7129 -10.1074 C 55.7129 -8.93555 55.0781 -8.1543 53.8086 -8.1543 Z M 88.8184 -11.5723 C 97.5098 -11.5723 103.516 -21.1914 103.516 -35.2539 C 103.516 -49.3652 97.5098 -58.9355 88.8184 -58.9355 C 80.127 -58.9355 74.1699 -49.3652 74.1699 -35.2539 C 74.1699 -21.1914 80.127 -11.5723 88.8184 -11.5723 Z"/>
  </g>
  <g id="Ultralight-L" transform="matrix(1 0 0 1 487.616 1556)">
   <path d="M 72.1191 25.7324 C 105.566 25.7324 132.91 -1.61133 132.91 -35.1074 C 132.91 -68.5547 105.566 -95.8984 72.1191 -95.8984 C 38.623 -95.8984 11.2793 -68.5547 11.2793 -35.1074 C 11.2793 -1.61133 38.623 25.7324 72.1191 25.7324 Z M 87.9883 -7.95898 C 76.9043 -7.95898 69.3359 -19.0918 69.3359 -35.2539 C 69.3359 -51.4648 76.9043 -62.5977 87.9883 -62.5977 C 98.9746 -62.5977 106.641 -51.4648 106.641 -35.2539 C 106.641 -19.0918 98.9746 -7.95898 87.9883 -7.95898 Z M 52.9297 -8.30078 C 52.0996 -8.30078 51.4648 -8.83789 51.4648 -9.76562 L 51.4648 -58.4473 L 51.2207 -58.4473 L 38.623 -50.293 C 38.3301 -50.2441 38.1836 -50.2441 37.9395 -50.2441 C 37.1582 -50.2441 36.5723 -50.8789 36.5723 -51.6113 C 36.5723 -52.0996 36.6211 -52.4902 37.3047 -52.832 L 51.0742 -61.7676 C 51.5137 -62.0605 51.9531 -62.207 52.6855 -62.207 C 53.6621 -62.207 54.3457 -61.6699 54.3457 -60.6445 L 54.3457 -9.76562 C 54.3457 -8.83789 53.9062 -8.30078 52.9297 -8.30078 Z M 87.9883 -10.8887 C 97.168 -10.8887 103.662 -20.8984 103.662 -35.2539 C 103.662 -49.6582 97.168 -59.668 87.9883 -59.668 C 78.7109 -59.668 72.3145 -49.6582 72.3145 -35.2539 C 72.3145 -20.8984 78.7109 -10.8887 87.9883 -10.8887 Z"/>
  </g>
  <g id="Black-M" transform="matrix(1 0 0 1 2870.97 1126)">
   <path d="M 62.4023 18.457 C 91.9922 18.457 116.113 -5.61523 116.113 -35.2051 C 116.113 -64.7949 91.9922 -88.8672 62.4023 -88.8672 C 32.8125 -88.8672 8.74023 -64.7949 8.74023 -35.2051 C 8.74023 -5.61523 32.8125 18.457 62.4023 18.457 Z M 51.8066 -16.2109 C 48.2422 -16.2109 46.6309 -18.2129 46.6309 -22.4121 L 46.6309 -41.6504 L 46.4355 -41.6504 L 44.9707 -39.8926 C 43.8477 -38.3789 42.7734 -37.6465 40.8691 -37.6465 C 38.623 -37.6465 36.8164 -39.5508 36.8164 -41.7969 C 36.8164 -43.7988 37.5977 -45.2637 39.6484 -47.2168 L 43.75 -51.1719 C 46.3379 -53.7598 48.1934 -54.3457 50.293 -54.3457 C 54.7852 -54.3457 56.9824 -51.7578 56.9824 -47.2168 L 56.9824 -22.4121 C 56.9824 -18.2129 55.2734 -16.2109 51.8066 -16.2109 Z M 75.4883 -16.2109 C 67.9688 -16.2109 62.9395 -21.5332 62.9395 -35.2539 C 62.9395 -48.9746 67.9688 -54.2969 75.4883 -54.2969 C 82.959 -54.2969 88.4277 -48.9746 88.4277 -35.2539 C 88.4277 -21.5332 82.959 -16.2109 75.4883 -16.2109 Z M 75.6836 -26.416 C 77.0508 -26.416 78.0273 -28.1738 78.0273 -35.2539 C 78.0273 -42.3828 77.0508 -44.0918 75.6836 -44.0918 C 74.3164 -44.0918 73.3398 -42.3828 73.3398 -35.2539 C 73.3398 -28.1738 74.3164 -26.416 75.6836 -26.416 Z"/>
  </g>
  <g id="Heavy-M" transform="matrix(1 0 0 1 2575.19 1126)">
   <path d="M 61.5234 17.5781 C 90.5273 17.5781 114.258 -6.15234 114.258 -35.2051 C 114.258 -64.2578 90.5273 -87.9883 61.4746 -87.9883 C 32.4707 -87.9883 8.74023 -64.2578 8.74023 -35.2051 C 8.74023 -6.15234 32.4707 17.5781 61.5234 17.5781 Z M 74.6094 -15.4785 C 66.7969 -15.4785 61.5723 -21.582 61.5723 -35.2539 C 61.5723 -48.9746 66.7969 -55.0293 74.6094 -55.0293 C 82.4219 -55.0293 87.9883 -48.9746 87.9883 -35.2539 C 87.9883 -21.582 82.4219 -15.4785 74.6094 -15.4785 Z M 50.1465 -15.625 C 46.9727 -15.625 45.4102 -17.4316 45.4102 -21.1426 L 45.4102 -43.3594 L 45.2148 -43.3594 L 42.7734 -41.0645 C 41.6504 -39.6973 40.7227 -39.1113 39.0625 -39.1113 C 37.0117 -39.1113 35.2539 -40.918 35.2539 -43.0176 C 35.2539 -44.873 36.0352 -46.1914 37.8418 -47.8516 L 42.8223 -52.1484 C 45.2637 -54.3945 46.875 -54.9805 48.877 -54.9805 C 52.832 -54.9805 54.834 -52.6367 54.834 -48.6328 L 54.834 -21.1426 C 54.834 -17.4316 53.2715 -15.625 50.1465 -15.625 Z M 74.7559 -24.7559 C 77.002 -24.7559 78.418 -27.4902 78.418 -35.2539 C 78.418 -43.0176 76.9531 -45.752 74.7559 -45.752 C 72.5586 -45.752 71.1426 -43.0176 71.1426 -35.2539 C 71.1426 -27.4902 72.5586 -24.7559 74.7559 -24.7559 Z"/>
  </g>
  <g id="Bold-M" transform="matrix(1 0 0 1 2279.5 1126)">
   <path d="M 60.498 16.5039 C 88.8672 16.5039 112.207 -6.78711 112.207 -35.2051 C 112.207 -63.623 88.8672 -86.9629 60.4492 -86.9629 C 32.0312 -86.9629 8.74023 -63.623 8.74023 -35.2051 C 8.74023 -6.78711 32.0801 16.5039 60.498 16.5039 Z M 73.6816 -14.6973 C 65.5273 -14.6973 60.0586 -21.582 60.0586 -35.2539 C 60.0586 -48.9746 65.5273 -55.8105 73.6816 -55.8105 C 81.7871 -55.8105 87.4512 -48.9746 87.4512 -35.2539 C 87.4512 -21.582 81.7871 -14.6973 73.6816 -14.6973 Z M 48.2422 -14.9414 C 45.5078 -14.9414 44.0918 -16.6504 44.0918 -19.7266 L 44.0918 -45.2637 L 43.8477 -45.2637 L 40.332 -42.3828 C 39.209 -41.1621 38.4277 -40.7227 37.0605 -40.7227 C 35.2051 -40.7227 33.5449 -42.3828 33.5449 -44.3848 C 33.5449 -46.0449 34.2773 -47.2168 35.8398 -48.584 L 41.7969 -53.2227 C 43.9941 -55.127 45.4102 -55.6641 47.3145 -55.6641 C 50.6348 -55.6641 52.4902 -53.6133 52.4902 -50.2441 L 52.4902 -19.7266 C 52.4902 -16.6504 50.9766 -14.9414 48.2422 -14.9414 Z M 73.7793 -22.9004 C 76.9043 -22.9004 78.9062 -26.8066 78.9062 -35.2539 C 78.9062 -43.7012 76.9043 -47.6074 73.7793 -47.6074 C 70.6543 -47.6074 68.6523 -43.7012 68.6523 -35.2539 C 68.6523 -26.8066 70.6543 -22.9004 73.7793 -22.9004 Z"/>
  </g>
  <g id="Semibold-M" transform="matrix(1 0 0 1 1983.5 1126)">
   <path d="M 59.7656 15.8203 C 87.7441 15.8203 110.791 -7.22656 110.791 -35.2051 C 110.791 -63.1836 87.6953 -86.2793 59.7656 -86.2793 C 31.7871 -86.2793 8.74023 -63.1836 8.74023 -35.2051 C 8.74023 -7.22656 31.7871 15.8203 59.7656 15.8203 Z M 72.998 -14.1602 C 64.5996 -14.1602 59.0332 -21.582 59.0332 -35.2539 C 59.0332 -48.9258 64.5996 -56.3965 72.998 -56.3965 C 81.3965 -56.3965 87.1094 -48.9258 87.1094 -35.2539 C 87.1094 -21.582 81.3965 -14.1602 72.998 -14.1602 Z M 46.9727 -14.502 C 44.5312 -14.502 43.1641 -16.0645 43.1641 -18.75 L 43.1641 -46.582 L 42.9199 -46.582 L 38.6719 -43.2617 C 37.5 -42.1387 36.8652 -41.8945 35.6934 -41.8945 C 33.9844 -41.8945 32.373 -43.4082 32.373 -45.3125 C 32.373 -46.875 33.0566 -47.9492 34.4727 -49.0723 L 41.0645 -53.9551 C 43.1641 -55.6641 44.4336 -56.1523 46.2402 -56.1523 C 49.1211 -56.1523 50.8301 -54.2969 50.8301 -51.3672 L 50.8301 -18.75 C 50.8301 -16.0645 49.4141 -14.502 46.9727 -14.502 Z M 73.0469 -21.6309 C 76.8555 -21.6309 79.248 -26.3184 79.248 -35.2539 C 79.248 -44.1895 76.8555 -48.9258 73.0469 -48.9258 C 69.2871 -48.9258 66.8945 -44.1895 66.8945 -35.2539 C 66.8945 -26.3184 69.2871 -21.6309 73.0469 -21.6309 Z"/>
  </g>
  <g id="Medium-M" transform="matrix(1 0 0 1 1687.3 1126)">
   <path d="M 59.2285 15.2832 C 86.9141 15.2832 109.766 -7.56836 109.766 -35.2051 C 109.766 -62.8906 86.8652 -85.7422 59.1797 -85.7422 C 31.543 -85.7422 8.74023 -62.8906 8.74023 -35.2051 C 8.74023 -7.56836 31.5918 15.2832 59.2285 15.2832 Z M 72.5098 -13.7207 C 63.916 -13.7207 58.2031 -21.582 58.2031 -35.2539 C 58.2031 -48.9258 63.916 -56.7871 72.5098 -56.7871 C 81.0547 -56.7871 86.8652 -48.9258 86.8652 -35.2539 C 86.8652 -21.582 81.0547 -13.7207 72.5098 -13.7207 Z M 45.9961 -14.1602 C 43.75 -14.1602 42.4316 -15.625 42.4316 -18.0176 L 42.4316 -47.5586 L 42.1875 -47.5586 L 37.4023 -43.9453 C 36.2305 -42.9199 35.6445 -42.7246 34.6191 -42.7246 C 33.0078 -42.7246 31.4941 -44.1895 31.4941 -46.0449 C 31.4941 -47.4609 32.1777 -48.4863 33.4473 -49.4629 L 40.5273 -54.541 C 42.4805 -56.0059 43.6523 -56.543 45.4102 -56.543 C 47.9492 -56.543 49.6094 -54.834 49.6094 -52.1973 L 49.6094 -18.0176 C 49.6094 -15.625 48.1934 -14.1602 45.9961 -14.1602 Z M 72.5098 -20.6543 C 76.8555 -20.6543 79.4922 -25.9277 79.4922 -35.2539 C 79.4922 -44.5801 76.8066 -49.9023 72.5098 -49.9023 C 68.2617 -49.9023 65.625 -44.5801 65.625 -35.2539 C 65.625 -25.9277 68.2617 -20.6543 72.5098 -20.6543 Z"/>
  </g>
  <g id="Regular-M" transform="matrix(1 0 0 1 1391.3 1126)">
   <path d="M 58.5449 14.5508 C 85.791 14.5508 108.35 -8.00781 108.35 -35.2539 C 108.35 -62.4512 85.7422 -85.0586 58.4961 -85.0586 C 31.2988 -85.0586 8.74023 -62.4512 8.74023 -35.2539 C 8.74023 -8.00781 31.3477 14.5508 58.5449 14.5508 Z M 71.8262 -13.1836 C 63.0371 -13.1836 57.1777 -21.582 57.1777 -35.2539 C 57.1777 -48.9258 63.0371 -57.3242 71.8262 -57.3242 C 80.6641 -57.3242 86.5234 -48.9258 86.5234 -35.2539 C 86.5234 -21.582 80.6641 -13.1836 71.8262 -13.1836 Z M 44.7266 -13.7207 C 42.7734 -13.7207 41.5527 -15.0391 41.5527 -17.041 L 41.5527 -48.877 L 41.2598 -48.877 L 35.7422 -44.8242 C 34.5703 -43.8965 34.082 -43.8477 33.252 -43.8477 C 31.7871 -43.8477 30.3223 -45.2148 30.3223 -46.9727 C 30.3223 -48.291 30.957 -49.2188 32.0801 -49.9512 L 39.8438 -55.2734 C 41.6504 -56.4941 42.6758 -57.0312 44.3359 -57.0312 C 46.4844 -57.0312 47.9492 -55.5176 47.9492 -53.3203 L 47.9492 -17.041 C 47.9492 -15.0391 46.6309 -13.7207 44.7266 -13.7207 Z M 71.8262 -19.3359 C 76.8066 -19.3359 79.7852 -25.4395 79.7852 -35.2539 C 79.7852 -45.0684 76.7578 -51.1719 71.8262 -51.1719 C 66.9434 -51.1719 63.916 -45.0684 63.916 -35.2539 C 63.916 -25.4395 66.9434 -19.3359 71.8262 -19.3359 Z"/>
  </g>
  <g id="Light-M" transform="matrix(1 0 0 1 1095.42 1126)">
   <path d="M 57.7148 13.7695 C 84.5215 13.7695 106.689 -8.39844 106.689 -35.2051 C 106.689 -62.0117 84.5215 -84.1797 57.666 -84.1797 C 30.8594 -84.1797 8.74023 -62.0117 8.74023 -35.2051 C 8.74023 -8.39844 30.9082 13.7695 57.7148 13.7695 Z M 70.7031 -13.4766 C 61.9629 -13.4766 56.1035 -21.9238 56.1035 -35.2539 C 56.1035 -48.584 61.9629 -57.0801 70.7031 -57.0801 C 79.4434 -57.0801 85.3027 -48.584 85.3027 -35.2539 C 85.3027 -21.9238 79.4434 -13.4766 70.7031 -13.4766 Z M 43.5547 -13.916 C 42.041 -13.916 41.0156 -14.9902 41.0156 -16.5527 L 41.0156 -50.2441 L 40.7715 -50.2441 L 33.9355 -45.459 C 33.0566 -44.8242 32.7148 -44.7754 32.0801 -44.7754 C 30.8594 -44.7754 29.6875 -45.8984 29.6875 -47.2656 C 29.6875 -48.291 30.1758 -49.0234 31.1035 -49.6094 L 39.7461 -55.4199 C 41.1133 -56.3477 41.8945 -56.7383 43.2617 -56.7383 C 44.9707 -56.7383 46.1426 -55.5664 46.1426 -53.8086 L 46.1426 -16.5527 C 46.1426 -14.9902 45.1172 -13.916 43.5547 -13.916 Z M 70.7031 -18.4082 C 76.3184 -18.4082 79.9805 -25.0488 79.9805 -35.2539 C 79.9805 -45.5078 76.3184 -52.0996 70.7031 -52.0996 C 65.0879 -52.0996 61.4746 -45.5078 61.4746 -35.2539 C 61.4746 -25.0488 65.0879 -18.4082 70.7031 -18.4082 Z"/>
  </g>
  <g id="Thin-M" transform="matrix(1 0 0 1 799.806 1126)">
   <path d="M 56.6406 12.7441 C 82.9102 12.7441 104.492 -8.83789 104.492 -35.1562 C 104.492 -61.4746 82.9102 -83.0566 56.5918 -83.0566 C 30.3223 -83.0566 8.74023 -61.4746 8.74023 -35.1562 C 8.74023 -8.83789 30.3223 12.7441 56.6406 12.7441 Z M 69.1895 -13.8184 C 60.5469 -13.8184 54.6875 -22.4121 54.6875 -35.2539 C 54.6875 -48.1445 60.5469 -56.6895 69.1895 -56.6895 C 77.832 -56.6895 83.7402 -48.1445 83.7402 -35.2539 C 83.7402 -22.4121 77.832 -13.8184 69.1895 -13.8184 Z M 42.041 -14.209 C 41.0645 -14.209 40.332 -14.8926 40.332 -15.918 L 40.332 -52.002 L 40.1367 -52.002 L 31.543 -46.3379 C 31.0547 -46.0449 30.8594 -46.0449 30.4688 -46.0449 C 29.6387 -46.0449 28.8574 -46.7285 28.8574 -47.6562 C 28.8574 -48.291 29.1016 -48.7793 29.7852 -49.1699 L 39.6484 -55.6641 C 40.4297 -56.1523 40.918 -56.3965 41.7969 -56.3965 C 42.9688 -56.3965 43.75 -55.6641 43.75 -54.4434 L 43.75 -15.918 C 43.75 -14.8926 43.1641 -14.209 42.041 -14.209 Z M 69.1895 -17.1875 C 75.7324 -17.1875 80.1758 -24.4629 80.1758 -35.2539 C 80.1758 -46.0449 75.6836 -53.3203 69.1895 -53.3203 C 62.6953 -53.3203 58.252 -46.0449 58.252 -35.2539 C 58.252 -24.4629 62.6953 -17.1875 69.1895 -17.1875 Z"/>
  </g>
  <g id="Ultralight-M" transform="matrix(1 0 0 1 503.656 1126)">
   <path d="M 56.0547 12.207 C 82.0801 12.207 103.369 -9.08203 103.369 -35.1562 C 103.369 -61.1816 82.0801 -82.4707 56.0547 -82.4707 C 30.0293 -82.4707 8.74023 -61.1816 8.74023 -35.1562 C 8.74023 -9.08203 30.0293 12.207 56.0547 12.207 Z M 68.457 -14.0137 C 59.8633 -14.0137 54.0039 -22.6074 54.0039 -35.2539 C 54.0039 -47.9004 59.8633 -56.4941 68.457 -56.4941 C 77.002 -56.4941 82.9102 -47.9004 82.9102 -35.2539 C 82.9102 -22.6074 77.002 -14.0137 68.457 -14.0137 Z M 41.2598 -14.3066 C 40.5273 -14.3066 39.9902 -14.7949 39.9902 -15.625 L 39.9902 -52.9297 L 39.7949 -52.9297 L 30.3223 -46.7773 C 30.0293 -46.6309 29.9316 -46.6309 29.6875 -46.6309 C 29.0039 -46.6309 28.4668 -47.2168 28.4668 -47.8516 C 28.4668 -48.291 28.5645 -48.6328 29.1504 -48.9746 L 39.5996 -55.7617 C 40.0391 -56.0547 40.4297 -56.2012 41.1133 -56.2012 C 41.9434 -56.2012 42.5293 -55.7129 42.5293 -54.7852 L 42.5293 -15.625 C 42.5293 -14.7949 42.1387 -14.3066 41.2598 -14.3066 Z M 68.457 -16.5527 C 75.3906 -16.5527 80.2734 -24.2188 80.2734 -35.2539 C 80.2734 -46.3379 75.3906 -53.9551 68.457 -53.9551 C 61.4258 -53.9551 56.5918 -46.3379 56.5918 -35.2539 C 56.5918 -24.2188 61.4258 -16.5527 68.457 -16.5527 Z"/>
  </g>
  <g id="Black-S" transform="matrix(1 0 0 1 2884.57 696)">
   <path d="M 48.8281 6.78711 C 71.9727 6.78711 90.8203 -12.0605 90.8203 -35.2051 C 90.8203 -58.3496 71.9727 -77.1973 48.8281 -77.1973 C 25.6836 -77.1973 6.83594 -58.3496 6.83594 -35.2051 C 6.83594 -12.0605 25.6836 6.78711 48.8281 6.78711 Z M 59.082 -20.2637 C 53.1738 -20.2637 49.2188 -24.5117 49.2188 -35.2539 C 49.2188 -45.9961 53.1738 -50.2441 59.082 -50.2441 C 64.9414 -50.2441 69.2383 -45.9961 69.2383 -35.2539 C 69.2383 -24.5117 64.9414 -20.2637 59.082 -20.2637 Z M 40.4785 -20.2637 C 37.6953 -20.2637 36.4258 -21.8262 36.4258 -25.0977 L 36.4258 -40.3809 L 36.2793 -40.3809 L 35.0586 -38.9648 C 34.1797 -37.793 33.3496 -37.207 31.8848 -37.207 C 30.127 -37.207 28.7109 -38.7207 28.7109 -40.4785 C 28.7109 -42.041 29.3457 -43.1641 30.9082 -44.6777 L 34.1797 -47.8027 C 36.2305 -49.8047 37.6465 -50.2441 39.3066 -50.2441 C 42.7734 -50.2441 44.4824 -48.2422 44.4824 -44.7266 L 44.4824 -25.0977 C 44.4824 -21.8262 43.1641 -20.2637 40.4785 -20.2637 Z M 59.2285 -28.2227 C 60.3516 -28.2227 61.1328 -29.6387 61.1328 -35.2539 C 61.1328 -40.8691 60.3516 -42.2852 59.2285 -42.2852 C 58.1055 -42.2852 57.3242 -40.8691 57.3242 -35.2539 C 57.3242 -29.6387 58.1055 -28.2227 59.2285 -28.2227 Z"/>
  </g>
  <g id="Heavy-S" transform="matrix(1 0 0 1 2588.47 696)">
   <path d="M 48.2422 6.15234 C 70.9961 6.15234 89.5996 -12.4512 89.5996 -35.2051 C 89.5996 -57.959 70.9961 -76.6113 48.1934 -76.6113 C 25.4395 -76.6113 6.83594 -57.959 6.83594 -35.2051 C 6.83594 -12.4512 25.4395 6.15234 48.2422 6.15234 Z M 58.5449 -19.6777 C 52.3926 -19.6777 48.291 -24.4629 48.291 -35.2539 C 48.291 -46.0449 52.3926 -50.8301 58.5449 -50.8301 C 64.6484 -50.8301 69.043 -46.0449 69.043 -35.2539 C 69.043 -24.4629 64.6484 -19.6777 58.5449 -19.6777 Z M 39.3066 -19.7754 C 36.8164 -19.7754 35.5469 -21.2891 35.5469 -24.1699 L 35.5469 -41.5527 L 35.4004 -41.5527 L 33.5938 -39.7949 C 32.666 -38.6719 31.9336 -38.2324 30.6641 -38.2324 C 29.0039 -38.2324 27.5879 -39.6484 27.5879 -41.3574 C 27.5879 -42.8711 28.2227 -43.8965 29.6387 -45.2148 L 33.4961 -48.5352 C 35.4492 -50.3418 36.7188 -50.7812 38.3301 -50.7812 C 41.4551 -50.7812 43.0664 -48.9258 43.0664 -45.752 L 43.0664 -24.1699 C 43.0664 -21.2891 41.748 -19.7754 39.3066 -19.7754 Z M 58.6426 -27.0508 C 60.3516 -27.0508 61.4258 -29.1992 61.4258 -35.2539 C 61.4258 -41.3086 60.3516 -43.457 58.6426 -43.457 C 56.9824 -43.457 55.9082 -41.3086 55.9082 -35.2539 C 55.9082 -29.1992 56.9824 -27.0508 58.6426 -27.0508 Z"/>
  </g>
  <g id="Bold-S" transform="matrix(1 0 0 1 2292.44 696)">
   <path d="M 47.5586 5.46875 C 69.873 5.46875 88.2324 -12.8906 88.2324 -35.2051 C 88.2324 -57.5684 69.873 -75.9277 47.5098 -75.9277 C 25.1953 -75.9277 6.83594 -57.5684 6.83594 -35.2051 C 6.83594 -12.8906 25.1953 5.46875 47.5586 5.46875 Z M 57.959 -19.043 C 51.5137 -19.043 47.2656 -24.4629 47.2656 -35.2539 C 47.2656 -46.0449 51.5137 -51.4648 57.959 -51.4648 C 64.3555 -51.4648 68.7988 -46.0449 68.7988 -35.2539 C 68.7988 -24.4629 64.3555 -19.043 57.959 -19.043 Z M 38.0371 -19.2871 C 35.791 -19.2871 34.6191 -20.6543 34.6191 -23.1445 L 34.6191 -42.8223 L 34.4238 -42.8223 L 31.9824 -40.7227 C 31.0059 -39.6973 30.3711 -39.3555 29.248 -39.3555 C 27.7344 -39.3555 26.3672 -40.7227 26.3672 -42.3828 C 26.3672 -43.75 27.002 -44.7266 28.2227 -45.8008 L 32.7148 -49.3164 C 34.5703 -50.8789 35.6934 -51.3672 37.2559 -51.3672 C 39.9414 -51.3672 41.4551 -49.6582 41.4551 -46.9238 L 41.4551 -23.1445 C 41.4551 -20.6543 40.2344 -19.2871 38.0371 -19.2871 Z M 58.0078 -25.7324 C 60.3516 -25.7324 61.7676 -28.7109 61.7676 -35.2539 C 61.7676 -41.7969 60.3516 -44.7754 58.0078 -44.7754 C 55.7129 -44.7754 54.2969 -41.7969 54.2969 -35.2539 C 54.2969 -28.7109 55.7129 -25.7324 58.0078 -25.7324 Z"/>
  </g>
  <g id="Semibold-S" transform="matrix(1 0 0 1 1996.2 696)">
   <path d="M 47.0703 4.98047 C 69.0918 4.98047 87.3047 -13.1836 87.3047 -35.2539 C 87.3047 -57.2754 69.0918 -75.4883 47.0215 -75.4883 C 25 -75.4883 6.83594 -57.2754 6.83594 -35.2539 C 6.83594 -13.1836 25.0488 4.98047 47.0703 4.98047 Z M 57.5195 -18.6035 C 50.9277 -18.6035 46.5332 -24.4141 46.5332 -35.2539 C 46.5332 -46.0938 50.9277 -51.9043 57.5195 -51.9043 C 64.1602 -51.9043 68.6523 -46.0938 68.6523 -35.2539 C 68.6523 -24.4141 64.1602 -18.6035 57.5195 -18.6035 Z M 37.1094 -18.8965 C 35.1074 -18.8965 33.9355 -20.2148 33.9355 -22.4609 L 33.9355 -43.7012 L 33.7402 -43.7012 L 30.8594 -41.3086 C 29.834 -40.3809 29.2969 -40.1855 28.2715 -40.1855 C 26.8555 -40.1855 25.5371 -41.4551 25.5371 -43.0664 C 25.5371 -44.3848 26.123 -45.2637 27.2949 -46.1914 L 32.1777 -49.9023 C 33.9355 -51.2695 35.0098 -51.7578 36.5234 -51.7578 C 38.916 -51.7578 40.3809 -50.1953 40.3809 -47.7539 L 40.3809 -22.4609 C 40.3809 -20.2148 39.1602 -18.8965 37.1094 -18.8965 Z M 57.5684 -24.8047 C 60.3516 -24.8047 62.0117 -28.3691 62.0117 -35.2539 C 62.0117 -42.1387 60.3516 -45.7031 57.5684 -45.7031 C 54.834 -45.7031 53.1738 -42.1387 53.1738 -35.2539 C 53.1738 -28.3691 54.834 -24.8047 57.5684 -24.8047 Z"/>
  </g>
  <g id="Medium-S" transform="matrix(1 0 0 1 1699.83 696)">
   <path d="M 46.7285 4.63867 C 68.5547 4.63867 86.6211 -13.4277 86.6211 -35.2539 C 86.6211 -57.0312 68.5059 -75.1465 46.6797 -75.1465 C 24.8535 -75.1465 6.83594 -57.0312 6.83594 -35.2539 C 6.83594 -13.4277 24.9023 4.63867 46.7285 4.63867 Z M 57.2266 -18.2617 C 50.4883 -18.2617 45.9961 -24.4141 45.9961 -35.2539 C 45.9961 -46.0938 50.4883 -52.2461 57.2266 -52.2461 C 63.9648 -52.2461 68.5059 -46.0938 68.5059 -35.2539 C 68.5059 -24.4141 63.9648 -18.2617 57.2266 -18.2617 Z M 36.4258 -18.6523 C 34.5703 -18.6523 33.4473 -19.873 33.4473 -21.9238 L 33.4473 -44.3848 L 33.2031 -44.3848 L 29.9805 -41.7969 C 28.9551 -40.918 28.4668 -40.7715 27.5879 -40.7715 C 26.2207 -40.7715 24.8535 -41.9922 24.8535 -43.6035 C 24.8535 -44.8242 25.4883 -45.7031 26.5625 -46.5332 L 31.7871 -50.293 C 33.4961 -51.6113 34.4727 -52.0508 35.9863 -52.0508 C 38.1348 -52.0508 39.5508 -50.5859 39.5508 -48.3398 L 39.5508 -21.9238 C 39.5508 -19.873 38.3301 -18.6523 36.4258 -18.6523 Z M 57.2266 -24.1211 C 60.3516 -24.1211 62.207 -28.125 62.207 -35.2539 C 62.207 -42.3828 60.3516 -46.3867 57.2266 -46.3867 C 54.1992 -46.3867 52.3438 -42.3828 52.3438 -35.2539 C 52.3438 -28.125 54.1992 -24.1211 57.2266 -24.1211 Z"/>
  </g>
  <g id="Regular-S" transform="matrix(1 0 0 1 1403.58 696)">
   <path d="M 46.2402 4.15039 C 67.7734 4.15039 85.6934 -13.7207 85.6934 -35.2539 C 85.6934 -56.7871 67.7246 -74.6582 46.1914 -74.6582 C 24.707 -74.6582 6.83594 -56.7871 6.83594 -35.2539 C 6.83594 -13.7207 24.7559 4.15039 46.2402 4.15039 Z M 56.7871 -17.8223 C 49.9023 -17.8223 45.3125 -24.3652 45.3125 -35.2539 C 45.3125 -46.1426 49.9023 -52.6855 56.7871 -52.6855 C 63.7695 -52.6855 68.3594 -46.1426 68.3594 -35.2539 C 68.3594 -24.3652 63.7695 -17.8223 56.7871 -17.8223 Z M 35.5469 -18.3105 C 33.8867 -18.3105 32.7637 -19.4824 32.7637 -21.1914 L 32.7637 -45.2637 L 32.5195 -45.2637 L 28.8574 -42.4316 C 27.7832 -41.6016 27.3926 -41.5527 26.6113 -41.5527 C 25.3418 -41.5527 24.0234 -42.7246 24.0234 -44.2871 C 24.0234 -45.459 24.6094 -46.2402 25.5859 -46.9238 L 31.25 -50.8789 C 32.8613 -52.002 33.7891 -52.4414 35.2539 -52.4414 C 37.1094 -52.4414 38.4277 -51.0742 38.4277 -49.1699 L 38.4277 -21.1914 C 38.4277 -19.4824 37.2559 -18.3105 35.5469 -18.3105 Z M 56.7871 -23.2422 C 60.4004 -23.2422 62.4512 -27.7832 62.4512 -35.2539 C 62.4512 -42.7246 60.3516 -47.2656 56.7871 -47.2656 C 53.3203 -47.2656 51.2207 -42.7246 51.2207 -35.2539 C 51.2207 -27.7832 53.3203 -23.2422 56.7871 -23.2422 Z"/>
  </g>
  <g id="Light-S" transform="matrix(1 0 0 1 1107.6 696)">
   <path d="M 45.5078 3.4668 C 66.6992 3.4668 84.2285 -14.0625 84.2285 -35.2051 C 84.2285 -56.3965 66.6504 -73.9258 45.5078 -73.9258 C 24.3164 -73.9258 6.83594 -56.3965 6.83594 -35.2051 C 6.83594 -14.0625 24.3652 3.4668 45.5078 3.4668 Z M 55.8105 -18.0664 C 48.9258 -18.0664 44.3359 -24.6582 44.3359 -35.2539 C 44.3359 -45.8496 48.9258 -52.4414 55.8105 -52.4414 C 62.6953 -52.4414 67.2852 -45.8496 67.2852 -35.2539 C 67.2852 -24.6582 62.6953 -18.0664 55.8105 -18.0664 Z M 34.5703 -18.457 C 33.2031 -18.457 32.3242 -19.3848 32.3242 -20.8008 L 32.3242 -46.4844 L 32.1289 -46.4844 L 27.2949 -43.0176 C 26.4648 -42.3828 26.123 -42.3828 25.5859 -42.3828 C 24.5117 -42.3828 23.4863 -43.3105 23.4863 -44.5312 C 23.4863 -45.459 23.9258 -46.0938 24.707 -46.6309 L 31.1523 -51.0254 C 32.4219 -51.8555 33.1055 -52.1973 34.2773 -52.1973 C 35.791 -52.1973 36.8652 -51.123 36.8652 -49.6094 L 36.8652 -20.8008 C 36.8652 -19.3848 35.9375 -18.457 34.5703 -18.457 Z M 55.8105 -22.4121 C 59.9609 -22.4121 62.5977 -27.3926 62.5977 -35.2539 C 62.5977 -43.1152 59.9121 -48.0957 55.8105 -48.0957 C 51.709 -48.0957 49.0723 -43.1152 49.0723 -35.2539 C 49.0723 -27.3926 51.709 -22.4121 55.8105 -22.4121 Z"/>
  </g>
  <g id="Thin-S" transform="matrix(1 0 0 1 811.867 696)">
   <path d="M 44.5801 2.53906 C 65.2832 2.53906 82.2754 -14.4531 82.2754 -35.2051 C 82.2754 -55.9082 65.2344 -72.9004 44.5312 -72.9004 C 23.8281 -72.9004 6.83594 -55.9082 6.83594 -35.2051 C 6.83594 -14.4531 23.877 2.53906 44.5801 2.53906 Z M 54.4922 -18.4082 C 47.7051 -18.4082 43.1152 -25.0977 43.1152 -35.2539 C 43.1152 -45.4102 47.7051 -52.0996 54.4922 -52.0996 C 61.2793 -52.0996 65.8691 -45.4102 65.8691 -35.2539 C 65.8691 -25.0977 61.2793 -18.4082 54.4922 -18.4082 Z M 33.2031 -18.7012 C 32.3242 -18.7012 31.7383 -19.2871 31.7383 -20.2148 L 31.7383 -48.0469 L 31.543 -48.0469 L 25.1465 -43.75 C 24.707 -43.457 24.5117 -43.457 24.1699 -43.457 C 23.4375 -43.457 22.7539 -44.0918 22.7539 -44.873 C 22.7539 -45.459 22.998 -45.8984 23.584 -46.2402 L 31.0547 -51.1719 C 31.7871 -51.6602 32.2266 -51.8555 33.0078 -51.8555 C 34.0332 -51.8555 34.7168 -51.2207 34.7168 -50.1465 L 34.7168 -20.2148 C 34.7168 -19.2871 34.1797 -18.7012 33.2031 -18.7012 Z M 54.4922 -21.3379 C 59.4238 -21.3379 62.7441 -26.9043 62.7441 -35.2539 C 62.7441 -43.6035 59.4238 -49.1699 54.4922 -49.1699 C 49.5605 -49.1699 46.2402 -43.6035 46.2402 -35.2539 C 46.2402 -26.9043 49.5605 -21.3379 54.4922 -21.3379 Z"/>
  </g>
  <g id="Ultralight-S" transform="matrix(1 0 0 1 515.644 696)">
   <path d="M 44.043 2.05078 C 64.502 2.05078 81.2988 -14.6973 81.2988 -35.1562 C 81.2988 -55.6152 64.502 -72.3633 44.043 -72.3633 C 23.584 -72.3633 6.83594 -55.6152 6.83594 -35.1562 C 6.83594 -14.6973 23.584 2.05078 44.043 2.05078 Z M 53.8086 -18.5547 C 47.0703 -18.5547 42.4805 -25.293 42.4805 -35.2539 C 42.4805 -45.2148 47.0703 -51.9531 53.8086 -51.9531 C 60.498 -51.9531 65.1367 -45.2148 65.1367 -35.2539 C 65.1367 -25.293 60.498 -18.5547 53.8086 -18.5547 Z M 32.5195 -18.7988 C 31.8848 -18.7988 31.3965 -19.2383 31.3965 -19.9219 L 31.3965 -48.8281 L 31.25 -48.8281 L 24.0723 -44.1406 C 23.7793 -43.9941 23.6816 -43.9941 23.4375 -43.9941 C 22.9004 -43.9941 22.4121 -44.4824 22.4121 -45.0684 C 22.4121 -45.459 22.5098 -45.8008 22.998 -46.0449 L 31.0059 -51.3184 C 31.4453 -51.5625 31.7871 -51.709 32.373 -51.709 C 33.1055 -51.709 33.6426 -51.2695 33.6426 -50.4883 L 33.6426 -19.9219 C 33.6426 -19.2383 33.252 -18.7988 32.5195 -18.7988 Z M 53.8086 -20.8008 C 59.1309 -20.8008 62.8906 -26.6602 62.8906 -35.2539 C 62.8906 -43.8477 59.1309 -49.707 53.8086 -49.707 C 48.4375 -49.707 44.7754 -43.8477 44.7754 -35.2539 C 44.7754 -26.6602 48.4375 -20.8008 53.8086 -20.8008 Z"/>
  </g>
 </g>
</svg>
