<?xml version="1.0" encoding="UTF-8"?>
<!--Generator: Apple Native CoreSVG 123-->
<!DOCTYPE svg
PUBLIC "-//W3C//DTD SVG 1.1//EN"
       "http://www.w3.org/Graphics/SVG/1.1/DTD/svg11.dtd">
<svg version="1.1" xmlns="http://www.w3.org/2000/svg" xmlns:xlink="http://www.w3.org/1999/xlink" width="3300" height="2200">
 <!--glyph: "uni100515.medium", point size: 100.000000, font version: "Version 15.0d7e11", template writer version: "5"-->
 <g id="Notes">
  <rect height="2200" id="artboard" style="fill:white;opacity:1" width="3300" x="0" y="0"/>
  <line id="" style="fill:none;stroke:black;opacity:1;stroke-width:0.5;" x1="263" x2="3036" y1="292" y2="292"/>
  <text style="stroke:none;fill:black;font-family:-apple-system,&quot;SF Pro Display&quot;,&quot;SF Pro Text&quot;,Helvetica,sans-serif;font-weight:bold;" transform="matrix(1 0 0 1 263 322)">Weight/Scale Variations</text>
  <text style="stroke:none;fill:black;font-family:-apple-system,&quot;SF Pro Display&quot;,&quot;SF Pro Text&quot;,Helvetica,sans-serif;text-anchor:middle;" transform="matrix(1 0 0 1 559.711 322)">Ultralight</text>
  <text style="stroke:none;fill:black;font-family:-apple-system,&quot;SF Pro Display&quot;,&quot;SF Pro Text&quot;,Helvetica,sans-serif;text-anchor:middle;" transform="matrix(1 0 0 1 856.422 322)">Thin</text>
  <text style="stroke:none;fill:black;font-family:-apple-system,&quot;SF Pro Display&quot;,&quot;SF Pro Text&quot;,Helvetica,sans-serif;text-anchor:middle;" transform="matrix(1 0 0 1 1153.13 322)">Light</text>
  <text style="stroke:none;fill:black;font-family:-apple-system,&quot;SF Pro Display&quot;,&quot;SF Pro Text&quot;,Helvetica,sans-serif;text-anchor:middle;" transform="matrix(1 0 0 1 1449.84 322)">Regular</text>
  <text style="stroke:none;fill:black;font-family:-apple-system,&quot;SF Pro Display&quot;,&quot;SF Pro Text&quot;,Helvetica,sans-serif;text-anchor:middle;" transform="matrix(1 0 0 1 1746.56 322)">Medium</text>
  <text style="stroke:none;fill:black;font-family:-apple-system,&quot;SF Pro Display&quot;,&quot;SF Pro Text&quot;,Helvetica,sans-serif;text-anchor:middle;" transform="matrix(1 0 0 1 2043.27 322)">Semibold</text>
  <text style="stroke:none;fill:black;font-family:-apple-system,&quot;SF Pro Display&quot;,&quot;SF Pro Text&quot;,Helvetica,sans-serif;text-anchor:middle;" transform="matrix(1 0 0 1 2339.98 322)">Bold</text>
  <text style="stroke:none;fill:black;font-family:-apple-system,&quot;SF Pro Display&quot;,&quot;SF Pro Text&quot;,Helvetica,sans-serif;text-anchor:middle;" transform="matrix(1 0 0 1 2636.69 322)">Heavy</text>
  <text style="stroke:none;fill:black;font-family:-apple-system,&quot;SF Pro Display&quot;,&quot;SF Pro Text&quot;,Helvetica,sans-serif;text-anchor:middle;" transform="matrix(1 0 0 1 2933.4 322)">Black</text>
  <line id="" style="fill:none;stroke:black;opacity:1;stroke-width:0.5;" x1="263" x2="3036" y1="1903" y2="1903"/>
  <g id="" transform="matrix(1 0 0 1 263 1933)">
   <path d="M 9.24805 0.830078 C 13.5547 0.830078 17.1387 -2.74414 17.1387 -7.05078 C 17.1387 -11.3574 13.5449 -14.9316 9.23828 -14.9316 C 4.94141 -14.9316 1.36719 -11.3574 1.36719 -7.05078 C 1.36719 -2.74414 4.95117 0.830078 9.24805 0.830078 Z M 9.24805 -0.654297 C 5.70312 -0.654297 2.87109 -3.49609 2.87109 -7.05078 C 2.87109 -10.6055 5.69336 -13.4473 9.23828 -13.4473 C 12.793 -13.4473 15.6348 -10.6055 15.6445 -7.05078 C 15.6543 -3.49609 12.8027 -0.654297 9.24805 -0.654297 Z M 9.22852 -3.42773 C 9.69727 -3.42773 9.9707 -3.74023 9.9707 -4.25781 L 9.9707 -6.31836 L 12.1973 -6.31836 C 12.6953 -6.31836 13.0371 -6.57227 13.0371 -7.04102 C 13.0371 -7.51953 12.7148 -7.7832 12.1973 -7.7832 L 9.9707 -7.7832 L 9.9707 -10.0098 C 9.9707 -10.5273 9.69727 -10.8496 9.22852 -10.8496 C 8.75977 -10.8496 8.50586 -10.5078 8.50586 -10.0098 L 8.50586 -7.7832 L 6.29883 -7.7832 C 5.78125 -7.7832 5.44922 -7.51953 5.44922 -7.04102 C 5.44922 -6.57227 5.80078 -6.31836 6.29883 -6.31836 L 8.50586 -6.31836 L 8.50586 -4.25781 C 8.50586 -3.75977 8.75977 -3.42773 9.22852 -3.42773 Z"/>
  </g>
  <g id="" transform="matrix(1 0 0 1 281.506 1933)">
   <path d="M 11.709 2.91016 C 17.1582 2.91016 21.6699 -1.60156 21.6699 -7.05078 C 21.6699 -12.4902 17.1484 -17.0117 11.6992 -17.0117 C 6.25977 -17.0117 1.74805 -12.4902 1.74805 -7.05078 C 1.74805 -1.60156 6.26953 2.91016 11.709 2.91016 Z M 11.709 1.25 C 7.09961 1.25 3.41797 -2.44141 3.41797 -7.05078 C 3.41797 -11.6504 7.08984 -15.3516 11.6992 -15.3516 C 16.3086 -15.3516 20 -11.6504 20.0098 -7.05078 C 20.0195 -2.44141 16.3184 1.25 11.709 1.25 Z M 11.6895 -2.41211 C 12.207 -2.41211 12.5195 -2.77344 12.5195 -3.33984 L 12.5195 -6.23047 L 15.5762 -6.23047 C 16.123 -6.23047 16.5039 -6.51367 16.5039 -7.03125 C 16.5039 -7.55859 16.1426 -7.86133 15.5762 -7.86133 L 12.5195 -7.86133 L 12.5195 -10.9277 C 12.5195 -11.5039 12.207 -11.8555 11.6895 -11.8555 C 11.1719 -11.8555 10.8789 -11.4844 10.8789 -10.9277 L 10.8789 -7.86133 L 7.83203 -7.86133 C 7.26562 -7.86133 6.89453 -7.55859 6.89453 -7.03125 C 6.89453 -6.51367 7.28516 -6.23047 7.83203 -6.23047 L 10.8789 -6.23047 L 10.8789 -3.33984 C 10.8789 -2.79297 11.1719 -2.41211 11.6895 -2.41211 Z"/>
  </g>
  <g id="" transform="matrix(1 0 0 1 304.924 1933)">
   <path d="M 14.9707 5.67383 C 21.9336 5.67383 27.6953 -0.078125 27.6953 -7.04102 C 27.6953 -14.0039 21.9238 -19.7559 14.9609 -19.7559 C 8.00781 -19.7559 2.25586 -14.0039 2.25586 -7.04102 C 2.25586 -0.078125 8.01758 5.67383 14.9707 5.67383 Z M 14.9707 3.85742 C 8.93555 3.85742 4.08203 -1.00586 4.08203 -7.04102 C 4.08203 -13.0762 8.92578 -17.9395 14.9609 -17.9395 C 21.0059 -17.9395 25.8594 -13.0762 25.8691 -7.04102 C 25.8789 -1.00586 21.0156 3.85742 14.9707 3.85742 Z M 14.9512 -1.06445 C 15.5176 -1.06445 15.8691 -1.45508 15.8691 -2.06055 L 15.8691 -6.13281 L 20.1074 -6.13281 C 20.6934 -6.13281 21.1133 -6.46484 21.1133 -7.02148 C 21.1133 -7.59766 20.7227 -7.93945 20.1074 -7.93945 L 15.8691 -7.93945 L 15.8691 -12.1875 C 15.8691 -12.8027 15.5176 -13.1934 14.9512 -13.1934 C 14.3848 -13.1934 14.0625 -12.7832 14.0625 -12.1875 L 14.0625 -7.93945 L 9.83398 -7.93945 C 9.21875 -7.93945 8.80859 -7.59766 8.80859 -7.02148 C 8.80859 -6.46484 9.23828 -6.13281 9.83398 -6.13281 L 14.0625 -6.13281 L 14.0625 -2.06055 C 14.0625 -1.47461 14.3848 -1.06445 14.9512 -1.06445 Z"/>
  </g>
  <text style="stroke:none;fill:black;font-family:-apple-system,&quot;SF Pro Display&quot;,&quot;SF Pro Text&quot;,Helvetica,sans-serif;font-weight:bold;" transform="matrix(1 0 0 1 263 1953)">Design Variations</text>
  <text style="stroke:none;fill:black;font-family:-apple-system,&quot;SF Pro Display&quot;,&quot;SF Pro Text&quot;,Helvetica,sans-serif;" transform="matrix(1 0 0 1 263 1971)">Symbols are supported in up to nine weights and three scales.</text>
  <text style="stroke:none;fill:black;font-family:-apple-system,&quot;SF Pro Display&quot;,&quot;SF Pro Text&quot;,Helvetica,sans-serif;" transform="matrix(1 0 0 1 263 1989)">For optimal layout with text and other symbols, vertically align</text>
  <text style="stroke:none;fill:black;font-family:-apple-system,&quot;SF Pro Display&quot;,&quot;SF Pro Text&quot;,Helvetica,sans-serif;" transform="matrix(1 0 0 1 263 2007)">symbols with the adjacent text.</text>
  <rect height="14" id="" style="fill:#00AEEF;stroke:none;opacity:0.4;" width="3" x="776" y="1919"/>
  <g id="" transform="matrix(1 0 0 1 779 1933)">
   <path d="M 10.5273 0 L 12.373 0 L 7.17773 -14.0918 L 5.43945 -14.0918 L 0.244141 0 L 2.08984 0 L 3.50586 -4.0332 L 9.11133 -4.0332 Z M 6.2793 -11.9531 L 6.33789 -11.9531 L 8.59375 -5.52734 L 4.02344 -5.52734 Z"/>
  </g>
  <rect height="14" id="" style="fill:#00AEEF;stroke:none;opacity:0.4;" width="3" x="791.617" y="1919"/>
  <text style="stroke:none;fill:black;font-family:-apple-system,&quot;SF Pro Display&quot;,&quot;SF Pro Text&quot;,Helvetica,sans-serif;font-weight:bold;" transform="matrix(1 0 0 1 776 1953)">Margins</text>
  <text style="stroke:none;fill:black;font-family:-apple-system,&quot;SF Pro Display&quot;,&quot;SF Pro Text&quot;,Helvetica,sans-serif;" transform="matrix(1 0 0 1 776 1971)">Leading and trailing margins on the left and right side of each symbol</text>
  <text style="stroke:none;fill:black;font-family:-apple-system,&quot;SF Pro Display&quot;,&quot;SF Pro Text&quot;,Helvetica,sans-serif;" transform="matrix(1 0 0 1 776 1989)">can be adjusted by modifying the width of the blue rectangles.</text>
  <text style="stroke:none;fill:black;font-family:-apple-system,&quot;SF Pro Display&quot;,&quot;SF Pro Text&quot;,Helvetica,sans-serif;" transform="matrix(1 0 0 1 776 2007)">Modifications are automatically applied proportionally to all</text>
  <text style="stroke:none;fill:black;font-family:-apple-system,&quot;SF Pro Display&quot;,&quot;SF Pro Text&quot;,Helvetica,sans-serif;" transform="matrix(1 0 0 1 776 2025)">scales and weights.</text>
  <g id="" transform="matrix(1 0 0 1 1289 1933)">
   <path d="M 2.83203 3.11523 L 4.375 4.6582 C 5.22461 5.48828 6.19141 5.41992 7.06055 4.46289 L 17.2754 -6.66016 C 17.7051 -6.36719 18.0957 -6.37695 18.5645 -6.47461 L 19.6094 -6.68945 L 20.3027 -5.99609 L 20.2539 -5.47852 C 20.1855 -4.95117 20.3516 -4.53125 20.8496 -4.0332 L 21.6602 -3.22266 C 22.168 -2.71484 22.8223 -2.68555 23.3008 -3.16406 L 26.5527 -6.41602 C 27.0312 -6.89453 27.0117 -7.54883 26.5039 -8.05664 L 25.6836 -8.87695 C 25.1855 -9.375 24.7754 -9.55078 24.2383 -9.47266 L 23.7109 -9.41406 L 23.0566 -10.0781 L 23.3398 -11.2207 C 23.4863 -11.7871 23.3398 -12.2559 22.7148 -12.8613 L 20.3027 -15.2539 C 16.7578 -18.7793 12.2266 -18.6719 9.11133 -15.5371 C 8.69141 -15.1074 8.64258 -14.5215 8.91602 -14.0918 C 9.15039 -13.7207 9.62891 -13.4961 10.2734 -13.6621 C 11.7871 -14.043 13.3008 -13.9258 14.7852 -12.9199 L 14.1602 -11.3379 C 13.9258 -10.752 13.9453 -10.2734 14.1797 -9.83398 L 3.01758 0.439453 C 2.08008 1.30859 1.97266 2.25586 2.83203 3.11523 Z M 10.6738 -15.1465 C 13.3398 -17.1387 16.6504 -16.8262 19.0527 -14.4141 L 21.6797 -11.8066 C 21.9141 -11.5723 21.9434 -11.3867 21.8848 -11.0938 L 21.5039 -9.53125 L 23.0762 -7.95898 L 24.043 -8.04688 C 24.3262 -8.07617 24.4141 -8.05664 24.6387 -7.83203 L 25.2637 -7.20703 L 22.5098 -4.46289 L 21.8848 -5.07812 C 21.6602 -5.30273 21.6406 -5.40039 21.6699 -5.68359 L 21.7578 -6.64062 L 20.1953 -8.20312 L 18.5742 -7.89062 C 18.291 -7.83203 18.1445 -7.83203 17.9102 -8.07617 L 15.7324 -10.2539 C 15.5078 -10.4883 15.4785 -10.625 15.6055 -10.9473 L 16.5527 -13.2227 C 14.9512 -14.7559 12.8418 -15.6055 10.8008 -14.9512 C 10.7129 -14.9219 10.6445 -14.9414 10.6152 -14.9805 C 10.5859 -15.0293 10.5859 -15.0781 10.6738 -15.1465 Z M 4.10156 2.41211 C 3.61328 1.91406 3.78906 1.61133 4.12109 1.30859 L 15.0781 -8.80859 L 16.3086 -7.57812 L 6.15234 3.34961 C 5.84961 3.68164 5.46875 3.7793 5.06836 3.37891 Z"/>
  </g>
  <text style="stroke:none;fill:black;font-family:-apple-system,&quot;SF Pro Display&quot;,&quot;SF Pro Text&quot;,Helvetica,sans-serif;font-weight:bold;" transform="matrix(1 0 0 1 1289 1953)">Exporting</text>
  <text style="stroke:none;fill:black;font-family:-apple-system,&quot;SF Pro Display&quot;,&quot;SF Pro Text&quot;,Helvetica,sans-serif;" transform="matrix(1 0 0 1 1289 1971)">Symbols should be outlined when exporting to ensure the</text>
  <text style="stroke:none;fill:black;font-family:-apple-system,&quot;SF Pro Display&quot;,&quot;SF Pro Text&quot;,Helvetica,sans-serif;" transform="matrix(1 0 0 1 1289 1989)">design is preserved when submitting to Xcode.</text>
  <text id="template-version" style="stroke:none;fill:black;font-family:-apple-system,&quot;SF Pro Display&quot;,&quot;SF Pro Text&quot;,Helvetica,sans-serif;text-anchor:end;" transform="matrix(1 0 0 1 3036 1933)">Template v.1.0</text>
  <text style="stroke:none;fill:black;font-family:-apple-system,&quot;SF Pro Display&quot;,&quot;SF Pro Text&quot;,Helvetica,sans-serif;text-anchor:end;" transform="matrix(1 0 0 1 3036 1951)">Generated from 11.circle.fill</text>
  <text style="stroke:none;fill:black;font-family:-apple-system,&quot;SF Pro Display&quot;,&quot;SF Pro Text&quot;,Helvetica,sans-serif;text-anchor:end;" transform="matrix(1 0 0 1 3036 1969)">Typeset at 100 points</text>
  <text style="stroke:none;fill:black;font-family:-apple-system,&quot;SF Pro Display&quot;,&quot;SF Pro Text&quot;,Helvetica,sans-serif;" transform="matrix(1 0 0 1 263 726)">Small</text>
  <text style="stroke:none;fill:black;font-family:-apple-system,&quot;SF Pro Display&quot;,&quot;SF Pro Text&quot;,Helvetica,sans-serif;" transform="matrix(1 0 0 1 263 1156)">Medium</text>
  <text style="stroke:none;fill:black;font-family:-apple-system,&quot;SF Pro Display&quot;,&quot;SF Pro Text&quot;,Helvetica,sans-serif;" transform="matrix(1 0 0 1 263 1586)">Large</text>
 </g>
 <g id="Guides">
  <g id="H-reference" style="fill:#27AAE1;stroke:none;" transform="matrix(1 0 0 1 339 696)">
   <path d="M 54.9316 0 L 57.666 0 L 30.5664 -70.459 L 28.0762 -70.459 L 0.976562 0 L 3.66211 0 L 12.9395 -24.4629 L 45.7031 -24.4629 Z M 29.1992 -67.0898 L 29.4434 -67.0898 L 44.8242 -26.709 L 13.8184 -26.709 Z"/>
  </g>
  <line id="Baseline-S" style="fill:none;stroke:#27AAE1;opacity:1;stroke-width:0.577;" x1="263" x2="3036" y1="696" y2="696"/>
  <line id="Capline-S" style="fill:none;stroke:#27AAE1;opacity:1;stroke-width:0.577;" x1="263" x2="3036" y1="625.541" y2="625.541"/>
  <g id="H-reference" style="fill:#27AAE1;stroke:none;" transform="matrix(1 0 0 1 339 1126)">
   <path d="M 54.9316 0 L 57.666 0 L 30.5664 -70.459 L 28.0762 -70.459 L 0.976562 0 L 3.66211 0 L 12.9395 -24.4629 L 45.7031 -24.4629 Z M 29.1992 -67.0898 L 29.4434 -67.0898 L 44.8242 -26.709 L 13.8184 -26.709 Z"/>
  </g>
  <line id="Baseline-M" style="fill:none;stroke:#27AAE1;opacity:1;stroke-width:0.577;" x1="263" x2="3036" y1="1126" y2="1126"/>
  <line id="Capline-M" style="fill:none;stroke:#27AAE1;opacity:1;stroke-width:0.577;" x1="263" x2="3036" y1="1055.54" y2="1055.54"/>
  <g id="H-reference" style="fill:#27AAE1;stroke:none;" transform="matrix(1 0 0 1 339 1556)">
   <path d="M 54.9316 0 L 57.666 0 L 30.5664 -70.459 L 28.0762 -70.459 L 0.976562 0 L 3.66211 0 L 12.9395 -24.4629 L 45.7031 -24.4629 Z M 29.1992 -67.0898 L 29.4434 -67.0898 L 44.8242 -26.709 L 13.8184 -26.709 Z"/>
  </g>
  <line id="Baseline-L" style="fill:none;stroke:#27AAE1;opacity:1;stroke-width:0.577;" x1="263" x2="3036" y1="1556" y2="1556"/>
  <line id="Capline-L" style="fill:none;stroke:#27AAE1;opacity:1;stroke-width:0.577;" x1="263" x2="3036" y1="1485.54" y2="1485.54"/>
  <rect height="119.336" id="left-margin" style="fill:#00AEEF;stroke:none;opacity:0.4;" width="8.74023" x="1391.3" y="1030.79"/>
  <rect height="119.336" id="right-margin" style="fill:#00AEEF;stroke:none;opacity:0.4;" width="8.74023" x="1499.65" y="1030.79"/>
 </g>
 <g id="Symbols">
  <g id="Black-L" transform="matrix(1 0 0 1 2854.05 1556)">
   <path d="M 79.3457 32.8613 C 116.748 32.8613 147.412 2.19727 147.412 -35.2051 C 147.412 -72.6074 116.748 -103.271 79.2969 -103.271 C 41.8945 -103.271 11.2793 -72.6074 11.2793 -35.2051 C 11.2793 2.19727 41.9434 32.8613 79.3457 32.8613 Z M 66.6992 -8.78906 C 62.4023 -8.78906 60.3516 -11.2793 60.3516 -16.2598 L 60.3516 -46.0938 L 60.0586 -46.0938 L 56.9824 -43.0664 C 55.2734 -41.2598 54.1016 -40.4785 51.9531 -40.4785 C 49.0723 -40.4785 46.7285 -42.9688 46.7285 -45.8984 C 46.7285 -48.3887 47.8027 -50.1953 50.2441 -52.3926 L 56.7383 -58.0566 C 60.1074 -61.084 62.3047 -61.8652 65.1367 -61.8652 C 70.3613 -61.8652 73.0957 -58.6914 73.0957 -53.418 L 73.0957 -16.2598 C 73.0957 -11.2793 70.8984 -8.78906 66.6992 -8.78906 Z M 102.051 -8.78906 C 97.7539 -8.78906 95.7031 -11.2793 95.7031 -16.2598 L 95.7031 -46.0938 L 95.4102 -46.0938 L 92.334 -43.0664 C 90.625 -41.2598 89.4531 -40.4785 87.3047 -40.4785 C 84.4238 -40.4785 82.0312 -42.9688 82.0312 -45.8984 C 82.0312 -48.3887 83.1543 -50.1953 85.5957 -52.3926 L 92.0898 -58.0566 C 95.459 -61.084 97.6562 -61.8652 100.439 -61.8652 C 105.713 -61.8652 108.398 -58.6914 108.398 -53.418 L 108.398 -16.2598 C 108.398 -11.2793 106.25 -8.78906 102.051 -8.78906 Z"/>
  </g>
  <g id="Heavy-L" transform="matrix(1 0 0 1 2558.39 1556)">
   <path d="M 78.2715 31.7871 C 115.088 31.7871 145.312 1.61133 145.312 -35.2051 C 145.312 -72.0215 115.039 -102.197 78.2715 -102.197 C 41.4551 -102.197 11.2793 -72.0215 11.2793 -35.2051 C 11.2793 1.61133 41.5039 31.7871 78.2715 31.7871 Z M 65.4297 -8.54492 C 61.6699 -8.54492 59.7168 -10.7422 59.7168 -15.0879 L 59.7168 -47.9492 L 59.4238 -47.9492 L 55.127 -44.2871 C 53.5645 -42.6758 52.5391 -42.041 50.6348 -42.041 C 48.0469 -42.041 45.8984 -44.3359 45.8984 -47.0215 C 45.8984 -49.2676 46.875 -50.8789 49.0234 -52.7832 L 56.543 -58.7891 C 59.5703 -61.4258 61.5234 -62.1582 64.1113 -62.1582 C 68.7012 -62.1582 71.1914 -59.3262 71.1914 -54.7363 L 71.1914 -15.0879 C 71.1914 -10.7422 69.1895 -8.54492 65.4297 -8.54492 Z M 100.586 -8.54492 C 96.7773 -8.54492 94.873 -10.7422 94.873 -15.0879 L 94.873 -47.9492 L 94.5312 -47.9492 L 90.2832 -44.2871 C 88.6719 -42.6758 87.6465 -42.041 85.791 -42.041 C 83.2031 -42.041 81.0059 -44.3359 81.0059 -47.0215 C 81.0059 -49.2676 82.0312 -50.8789 84.1309 -52.7832 L 91.6504 -58.7891 C 94.6777 -61.4258 96.6797 -62.1582 99.2188 -62.1582 C 103.809 -62.1582 106.25 -59.3262 106.25 -54.7363 L 106.25 -15.0879 C 106.25 -10.7422 104.297 -8.54492 100.586 -8.54492 Z"/>
  </g>
  <g id="Bold-L" transform="matrix(1 0 0 1 2262.88 1556)">
   <path d="M 77.0996 30.6152 C 113.232 30.6152 142.92 0.878906 142.92 -35.2051 C 142.92 -71.3379 113.184 -101.025 77.0508 -101.025 C 40.9668 -101.025 11.2793 -71.3379 11.2793 -35.2051 C 11.2793 0.878906 41.0156 30.6152 77.0996 30.6152 Z M 64.0137 -8.25195 C 60.791 -8.25195 59.0332 -10.1562 59.0332 -13.8184 L 59.0332 -50 L 58.7402 -50 L 53.0762 -45.6055 C 51.6113 -44.2383 50.7812 -43.7988 49.2188 -43.7988 C 46.9238 -43.7988 44.9707 -45.8008 44.9707 -48.291 C 44.9707 -50.2441 45.8496 -51.6602 47.6562 -53.1738 L 56.2988 -59.668 C 58.9844 -61.8164 60.6445 -62.5 63.0371 -62.5 C 66.7969 -62.5 69.043 -60.0586 69.043 -56.2012 L 69.043 -13.8184 C 69.043 -10.1562 67.2363 -8.25195 64.0137 -8.25195 Z M 98.877 -8.25195 C 95.7031 -8.25195 93.8965 -10.1562 93.8965 -13.8184 L 93.8965 -50 L 93.6035 -50 L 87.9883 -45.6055 C 86.4746 -44.2383 85.6445 -43.7988 84.082 -43.7988 C 81.8359 -43.7988 79.7852 -45.8008 79.7852 -48.291 C 79.7852 -50.2441 80.7129 -51.6602 82.5684 -53.1738 L 91.2109 -59.668 C 93.8477 -61.8164 95.5566 -62.5 97.8516 -62.5 C 101.709 -62.5 103.857 -60.0586 103.857 -56.2012 L 103.857 -13.8184 C 103.857 -10.1562 102.1 -8.25195 98.877 -8.25195 Z"/>
  </g>
  <g id="Semibold-L" transform="matrix(1 0 0 1 1966.97 1556)">
   <path d="M 76.2695 29.7852 C 111.914 29.7852 141.309 0.439453 141.309 -35.2051 C 141.309 -70.8496 111.865 -100.244 76.2695 -100.244 C 40.625 -100.244 11.2793 -70.8496 11.2793 -35.2051 C 11.2793 0.439453 40.6738 29.7852 76.2695 29.7852 Z M 63.0371 -8.00781 C 60.2051 -8.00781 58.5938 -9.76562 58.5938 -12.9395 L 58.5938 -51.416 L 58.252 -51.416 L 51.6602 -46.5332 C 50.293 -45.3125 49.5605 -45.0195 48.2422 -45.0195 C 46.1426 -45.0195 44.3359 -46.8262 44.3359 -49.1211 C 44.3359 -50.9277 45.1172 -52.1484 46.7285 -53.4668 L 56.1523 -60.2051 C 58.5938 -62.1094 60.0586 -62.7441 62.2559 -62.7441 C 65.5273 -62.7441 67.5781 -60.5957 67.5781 -57.1777 L 67.5781 -12.9395 C 67.5781 -9.76562 65.918 -8.00781 63.0371 -8.00781 Z M 97.7539 -8.00781 C 94.9219 -8.00781 93.2617 -9.76562 93.2617 -12.9395 L 93.2617 -51.416 L 92.9688 -51.416 L 86.377 -46.5332 C 85.0098 -45.3125 84.2773 -45.0195 82.9102 -45.0195 C 80.8594 -45.0195 79.0039 -46.8262 79.0039 -49.1211 C 79.0039 -50.9277 79.834 -52.1484 81.4453 -53.4668 L 90.8691 -60.2051 C 93.2617 -62.1094 94.7754 -62.7441 96.9238 -62.7441 C 100.244 -62.7441 102.197 -60.5957 102.197 -57.1777 L 102.197 -12.9395 C 102.197 -9.76562 100.586 -8.00781 97.7539 -8.00781 Z"/>
  </g>
  <g id="Medium-L" transform="matrix(1 0 0 1 1670.87 1556)">
   <path d="M 75.6836 29.1992 C 110.938 29.1992 140.088 0.0488281 140.088 -35.2051 C 140.088 -70.459 110.889 -99.6094 75.6348 -99.6094 C 40.3809 -99.6094 11.2793 -70.459 11.2793 -35.2051 C 11.2793 0.0488281 40.3809 29.1992 75.6836 29.1992 Z M 62.3047 -7.86133 C 59.7656 -7.86133 58.2031 -9.47266 58.2031 -12.2559 L 58.2031 -52.4902 L 57.8613 -52.4902 L 50.5859 -47.2168 C 49.2676 -46.1426 48.6328 -45.9473 47.5098 -45.9473 C 45.5566 -45.9473 43.8477 -47.6074 43.8477 -49.7559 C 43.8477 -51.416 44.5801 -52.5879 46.0449 -53.6621 L 56.0547 -60.6445 C 58.3008 -62.3047 59.6191 -62.8906 61.6699 -62.8906 C 64.5508 -62.8906 66.4551 -60.9375 66.4551 -57.959 L 66.4551 -12.2559 C 66.4551 -9.47266 64.8926 -7.86133 62.3047 -7.86133 Z M 96.875 -7.86133 C 94.3359 -7.86133 92.7734 -9.47266 92.7734 -12.2559 L 92.7734 -52.4902 L 92.4316 -52.4902 L 85.1562 -47.2168 C 83.8379 -46.1426 83.2031 -45.9473 82.0312 -45.9473 C 80.1758 -45.9473 78.3691 -47.6074 78.3691 -49.7559 C 78.3691 -51.416 79.1504 -52.5879 80.6152 -53.6621 L 90.625 -60.6445 C 92.8223 -62.3047 94.1895 -62.8906 96.1914 -62.8906 C 99.1211 -62.8906 100.977 -60.9375 100.977 -57.959 L 100.977 -12.2559 C 100.977 -9.47266 99.4141 -7.86133 96.875 -7.86133 Z"/>
  </g>
  <g id="Regular-L" transform="matrix(1 0 0 1 1374.97 1556)">
   <path d="M 74.8535 28.3691 C 109.668 28.3691 138.477 -0.390625 138.477 -35.2051 C 138.477 -70.0195 109.619 -98.7793 74.8047 -98.7793 C 40.0391 -98.7793 11.2793 -70.0195 11.2793 -35.2051 C 11.2793 -0.390625 40.0879 28.3691 74.8535 28.3691 Z M 61.3281 -7.66602 C 59.1797 -7.66602 57.7637 -9.08203 57.7637 -11.377 L 57.7637 -53.9062 L 57.373 -53.9062 L 49.2188 -48.1445 C 47.9492 -47.168 47.4121 -47.1191 46.5332 -47.1191 C 44.8242 -47.1191 43.2129 -48.6328 43.2129 -50.6348 C 43.2129 -52.0996 43.8965 -53.125 45.1172 -53.9551 L 55.8594 -61.2305 C 57.9102 -62.5977 59.0332 -63.1348 60.8887 -63.1348 C 63.2812 -63.1348 64.9902 -61.4258 64.9902 -58.9355 L 64.9902 -11.377 C 64.9902 -9.08203 63.5742 -7.66602 61.3281 -7.66602 Z M 95.7031 -7.66602 C 93.6035 -7.66602 92.1387 -9.08203 92.1387 -11.377 L 92.1387 -53.9062 L 91.7969 -53.9062 L 83.5938 -48.1445 C 82.373 -47.168 81.8359 -47.1191 80.9082 -47.1191 C 79.248 -47.1191 77.5391 -48.6328 77.5391 -50.6348 C 77.5391 -52.0996 78.3203 -53.125 79.541 -53.9551 L 90.2832 -61.2305 C 92.2852 -62.5977 93.4082 -63.1348 95.2637 -63.1348 C 97.6562 -63.1348 99.3164 -61.4258 99.3164 -58.9355 L 99.3164 -11.377 C 99.3164 -9.08203 97.9004 -7.66602 95.7031 -7.66602 Z"/>
  </g>
  <g id="Light-L" transform="matrix(1 0 0 1 1079.18 1556)">
   <path d="M 73.9258 27.4902 C 108.301 27.4902 136.621 -0.830078 136.621 -35.1562 C 136.621 -69.5312 108.252 -97.8516 73.9258 -97.8516 C 39.5508 -97.8516 11.2793 -69.5312 11.2793 -35.1562 C 11.2793 -0.830078 39.5996 27.4902 73.9258 27.4902 Z M 60.6445 -7.86133 C 58.9355 -7.86133 57.7637 -9.0332 57.7637 -10.8398 L 57.7637 -55.4199 L 57.4219 -55.4199 L 47.7539 -48.877 C 46.8262 -48.1934 46.4355 -48.1934 45.752 -48.1934 C 44.3359 -48.1934 43.1152 -49.4141 43.1152 -50.9766 C 43.1152 -52.0996 43.5547 -52.8809 44.5801 -53.5645 L 56.3477 -61.4258 C 57.8613 -62.4023 58.7402 -62.793 60.2539 -62.793 C 62.1582 -62.793 63.5742 -61.5234 63.5742 -59.5215 L 63.5742 -10.8398 C 63.5742 -9.0332 62.4023 -7.86133 60.6445 -7.86133 Z M 94.5801 -7.86133 C 92.9199 -7.86133 91.748 -9.0332 91.748 -10.8398 L 91.748 -55.4199 L 91.4551 -55.4199 L 81.7871 -48.877 C 80.8594 -48.1934 80.4688 -48.1934 79.7363 -48.1934 C 78.3691 -48.1934 77.0508 -49.4141 77.0508 -50.9766 C 77.0508 -52.0996 77.5879 -52.8809 78.6133 -53.5645 L 90.3809 -61.4258 C 91.8457 -62.4023 92.7734 -62.793 94.2383 -62.793 C 96.1426 -62.793 97.5098 -61.5234 97.5098 -59.5215 L 97.5098 -10.8398 C 97.5098 -9.0332 96.3867 -7.86133 94.5801 -7.86133 Z"/>
  </g>
  <g id="Thin-L" transform="matrix(1 0 0 1 783.693 1556)">
   <path d="M 72.7051 26.3184 C 106.494 26.3184 134.18 -1.36719 134.18 -35.1074 C 134.18 -68.8965 106.494 -96.582 72.7051 -96.582 C 38.9648 -96.582 11.2793 -68.8965 11.2793 -35.1074 C 11.2793 -1.36719 38.9648 26.3184 72.7051 26.3184 Z M 59.7168 -8.1543 C 58.5938 -8.1543 57.7637 -8.93555 57.7637 -10.1074 L 57.7637 -57.4219 L 57.4219 -57.4219 L 45.8008 -49.8047 C 45.3613 -49.5605 45.166 -49.5605 44.7754 -49.5605 C 43.7012 -49.5605 42.9199 -50.3906 42.9199 -51.416 C 42.9199 -52.0996 43.1641 -52.6367 43.8965 -53.0762 L 56.9336 -61.6699 C 57.8613 -62.207 58.3984 -62.4023 59.375 -62.4023 C 60.6445 -62.4023 61.6211 -61.6211 61.6211 -60.2539 L 61.6211 -10.1074 C 61.6211 -8.93555 60.8887 -8.1543 59.7168 -8.1543 Z M 93.1152 -8.1543 C 92.0898 -8.1543 91.2109 -8.93555 91.2109 -10.1074 L 91.2109 -57.4219 L 90.9668 -57.4219 L 79.2969 -49.8047 C 78.8574 -49.5605 78.6621 -49.5605 78.1738 -49.5605 C 77.1973 -49.5605 76.3672 -50.3906 76.3672 -51.416 C 76.3672 -52.0996 76.6602 -52.6367 77.3926 -53.0762 L 90.4785 -61.6699 C 91.3086 -62.207 91.9434 -62.4023 92.8711 -62.4023 C 94.1406 -62.4023 95.0684 -61.6211 95.0684 -60.2539 L 95.0684 -10.1074 C 95.0684 -8.93555 94.3848 -8.1543 93.1152 -8.1543 Z"/>
  </g>
  <g id="Ultralight-L" transform="matrix(1 0 0 1 487.616 1556)">
   <path d="M 72.1191 25.7324 C 105.566 25.7324 132.91 -1.61133 132.91 -35.1074 C 132.91 -68.5547 105.566 -95.8984 72.1191 -95.8984 C 38.623 -95.8984 11.2793 -68.5547 11.2793 -35.1074 C 11.2793 -1.61133 38.623 25.7324 72.1191 25.7324 Z M 59.2285 -8.30078 C 58.3984 -8.30078 57.7637 -8.88672 57.7637 -9.76562 L 57.7637 -58.4473 L 57.4707 -58.4473 L 44.8242 -50.293 C 44.6289 -50.2441 44.4824 -50.2441 44.2383 -50.2441 C 43.3594 -50.2441 42.8223 -50.8789 42.8223 -51.6113 C 42.8223 -52.0996 42.9199 -52.4902 43.5059 -52.832 L 57.2754 -61.7676 C 57.8125 -62.0605 58.252 -62.207 58.9355 -62.207 C 59.8633 -62.207 60.6445 -61.6699 60.6445 -60.6445 L 60.6445 -9.76562 C 60.6445 -8.88672 60.1074 -8.30078 59.2285 -8.30078 Z M 92.3828 -8.30078 C 91.6504 -8.30078 90.918 -8.88672 90.918 -9.76562 L 90.918 -58.4473 L 90.6738 -58.4473 L 78.0762 -50.293 C 77.8809 -50.2441 77.7344 -50.2441 77.3926 -50.2441 C 76.6113 -50.2441 76.0254 -50.8789 76.0254 -51.6113 C 76.0254 -52.0996 76.1719 -52.4902 76.7578 -52.832 L 90.5273 -61.7676 C 91.0156 -62.0605 91.5039 -62.207 92.1875 -62.207 C 93.1152 -62.207 93.8477 -61.6699 93.8477 -60.6445 L 93.8477 -9.76562 C 93.8477 -8.88672 93.3594 -8.30078 92.3828 -8.30078 Z"/>
  </g>
  <g id="Black-M" transform="matrix(1 0 0 1 2870.97 1126)">
   <path d="M 62.4023 18.457 C 91.9922 18.457 116.113 -5.61523 116.113 -35.2051 C 116.113 -64.7949 91.9922 -88.8672 62.4023 -88.8672 C 32.8125 -88.8672 8.74023 -64.7949 8.74023 -35.2051 C 8.74023 -5.61523 32.8125 18.457 62.4023 18.457 Z M 53.0273 -15.2344 C 49.2676 -15.2344 47.5586 -17.2852 47.5586 -21.7773 L 47.5586 -41.9922 L 47.4121 -41.9922 L 45.8496 -40.0879 C 44.5801 -38.5742 43.5059 -37.7441 41.5527 -37.7441 C 39.1113 -37.7441 37.2559 -39.7949 37.2559 -42.1875 C 37.2559 -44.2871 38.1348 -45.752 40.2832 -47.8516 L 44.4824 -52.002 C 47.2656 -54.7363 49.2188 -55.2734 51.4648 -55.2734 C 56.2012 -55.2734 58.4473 -52.5879 58.4473 -47.8516 L 58.4473 -21.7773 C 58.4473 -17.2852 56.6895 -15.2344 53.0273 -15.2344 Z M 80.5176 -15.2344 C 76.7578 -15.2344 75.0488 -17.2852 75.0488 -21.7773 L 75.0488 -41.9922 L 74.9023 -41.9922 L 73.3398 -40.0879 C 72.0703 -38.5742 70.9961 -37.7441 69.043 -37.7441 C 66.6016 -37.7441 64.7461 -39.7949 64.7461 -42.1875 C 64.7461 -44.2871 65.625 -45.752 67.7734 -47.8516 L 71.9727 -52.002 C 74.7559 -54.7363 76.709 -55.2734 78.9551 -55.2734 C 83.6914 -55.2734 85.9375 -52.5879 85.9375 -47.8516 L 85.9375 -21.7773 C 85.9375 -17.2852 84.1797 -15.2344 80.5176 -15.2344 Z"/>
  </g>
  <g id="Heavy-M" transform="matrix(1 0 0 1 2575.19 1126)">
   <path d="M 61.5234 17.5781 C 90.5273 17.5781 114.258 -6.15234 114.258 -35.2051 C 114.258 -64.2578 90.5273 -87.9883 61.4746 -87.9883 C 32.4707 -87.9883 8.74023 -64.2578 8.74023 -35.2051 C 8.74023 -6.15234 32.4707 17.5781 61.5234 17.5781 Z M 51.8555 -14.8926 C 48.4863 -14.8926 46.9238 -16.748 46.9238 -20.6543 L 46.9238 -43.6035 L 46.6797 -43.6035 L 44.1895 -41.2109 C 42.9688 -39.8438 42.041 -39.209 40.3809 -39.209 C 38.1348 -39.209 36.377 -41.1133 36.377 -43.3105 C 36.377 -45.2148 37.207 -46.582 39.0625 -48.3398 L 44.1406 -52.7832 C 46.6797 -55.127 48.4375 -55.7129 50.5371 -55.7129 C 54.6387 -55.7129 56.7383 -53.2715 56.7383 -49.1211 L 56.7383 -20.6543 C 56.7383 -16.748 55.0781 -14.8926 51.8555 -14.8926 Z M 79.1992 -14.8926 C 75.8301 -14.8926 74.2676 -16.748 74.2676 -20.6543 L 74.2676 -43.6035 L 74.0723 -43.6035 L 71.582 -41.2109 C 70.3613 -39.8438 69.3848 -39.209 67.7246 -39.209 C 65.4785 -39.209 63.7207 -41.1133 63.7207 -43.3105 C 63.7207 -45.2148 64.5508 -46.582 66.4551 -48.3398 L 71.4844 -52.7832 C 74.0234 -55.127 75.7812 -55.7129 77.8809 -55.7129 C 81.9824 -55.7129 84.082 -53.2715 84.082 -49.1211 L 84.082 -20.6543 C 84.082 -16.748 82.4219 -14.8926 79.1992 -14.8926 Z"/>
  </g>
  <g id="Bold-M" transform="matrix(1 0 0 1 2279.5 1126)">
   <path d="M 60.498 16.5039 C 88.8672 16.5039 112.207 -6.78711 112.207 -35.2051 C 112.207 -63.623 88.8672 -86.9629 60.4492 -86.9629 C 32.0312 -86.9629 8.74023 -63.623 8.74023 -35.2051 C 8.74023 -6.78711 32.0801 16.5039 60.498 16.5039 Z M 50.4883 -14.502 C 47.6562 -14.502 46.1914 -16.1621 46.1914 -19.4336 L 46.1914 -45.4102 L 45.9473 -45.4102 L 42.3828 -42.4316 C 41.2109 -41.2598 40.4297 -40.8203 39.0137 -40.8203 C 37.0605 -40.8203 35.4004 -42.5293 35.4004 -44.5801 C 35.4004 -46.2891 36.1328 -47.4609 37.7441 -48.9258 L 43.75 -53.6621 C 46.0449 -55.6152 47.5586 -56.1523 49.5117 -56.1523 C 52.9297 -56.1523 54.834 -54.0527 54.834 -50.5859 L 54.834 -19.4336 C 54.834 -16.1621 53.3203 -14.502 50.4883 -14.502 Z M 77.6855 -14.502 C 74.8047 -14.502 73.3398 -16.1621 73.3398 -19.4336 L 73.3398 -45.4102 L 73.0957 -45.4102 L 69.5801 -42.4316 C 68.3594 -41.2598 67.627 -40.8203 66.2109 -40.8203 C 64.2578 -40.8203 62.5488 -42.5293 62.5488 -44.5801 C 62.5488 -46.2891 63.3301 -47.4609 64.9414 -48.9258 L 70.9473 -53.6621 C 73.2422 -55.6152 74.7559 -56.1523 76.6602 -56.1523 C 80.127 -56.1523 81.9824 -54.0527 81.9824 -50.5859 L 81.9824 -19.4336 C 81.9824 -16.1621 80.4688 -14.502 77.6855 -14.502 Z"/>
  </g>
  <g id="Semibold-M" transform="matrix(1 0 0 1 1983.5 1126)">
   <path d="M 59.7656 15.8203 C 87.7441 15.8203 110.791 -7.22656 110.791 -35.2051 C 110.791 -63.1836 87.6953 -86.2793 59.7656 -86.2793 C 31.7871 -86.2793 8.74023 -63.1836 8.74023 -35.2051 C 8.74023 -7.22656 31.7871 15.8203 59.7656 15.8203 Z M 49.5605 -14.209 C 47.0215 -14.209 45.6543 -15.7227 45.6543 -18.5547 L 45.6543 -46.6309 L 45.4102 -46.6309 L 41.1621 -43.3105 C 39.9414 -42.2363 39.3066 -41.9434 38.0859 -41.9434 C 36.3281 -41.9434 34.7656 -43.5059 34.7656 -45.459 C 34.7656 -47.0215 35.4492 -48.0957 36.8652 -49.2676 L 43.5059 -54.248 C 45.6543 -55.957 46.9238 -56.4941 48.8281 -56.4941 C 51.7578 -56.4941 53.5156 -54.5898 53.5156 -51.5625 L 53.5156 -18.5547 C 53.5156 -15.7227 52.0508 -14.209 49.5605 -14.209 Z M 76.6113 -14.209 C 74.1211 -14.209 72.7051 -15.7227 72.7051 -18.5547 L 72.7051 -46.6309 L 72.4609 -46.6309 L 68.2129 -43.3105 C 67.041 -42.2363 66.3574 -41.9434 65.1855 -41.9434 C 63.3789 -41.9434 61.7676 -43.5059 61.7676 -45.459 C 61.7676 -47.0215 62.5 -48.0957 63.916 -49.2676 L 70.6055 -54.248 C 72.7051 -55.957 74.0234 -56.4941 75.8789 -56.4941 C 78.8086 -56.4941 80.5176 -54.5898 80.5176 -51.5625 L 80.5176 -18.5547 C 80.5176 -15.7227 79.1016 -14.209 76.6113 -14.209 Z"/>
  </g>
  <g id="Medium-M" transform="matrix(1 0 0 1 1687.3 1126)">
   <path d="M 59.2285 15.2832 C 86.9141 15.2832 109.766 -7.56836 109.766 -35.2051 C 109.766 -62.8906 86.8652 -85.7422 59.1797 -85.7422 C 31.543 -85.7422 8.74023 -62.8906 8.74023 -35.2051 C 8.74023 -7.56836 31.5918 15.2832 59.2285 15.2832 Z M 48.8281 -14.0137 C 46.582 -14.0137 45.2637 -15.4297 45.2637 -17.9199 L 45.2637 -47.6074 L 44.9707 -47.6074 L 40.1855 -43.9941 C 39.0137 -42.9688 38.4277 -42.7734 37.4023 -42.7734 C 35.7422 -42.7734 34.2285 -44.2383 34.2285 -46.0938 C 34.2285 -47.5586 34.9121 -48.584 36.1816 -49.5605 L 43.3105 -54.6875 C 45.3125 -56.2012 46.4844 -56.7383 48.291 -56.7383 C 50.8301 -56.7383 52.4902 -54.9805 52.4902 -52.3438 L 52.4902 -17.9199 C 52.4902 -15.4297 51.123 -14.0137 48.8281 -14.0137 Z M 75.8301 -14.0137 C 73.584 -14.0137 72.2656 -15.4297 72.2656 -17.9199 L 72.2656 -47.6074 L 71.9727 -47.6074 L 67.1875 -43.9941 C 66.0156 -42.9688 65.4297 -42.7734 64.4043 -42.7734 C 62.7441 -42.7734 61.1816 -44.2383 61.1816 -46.0938 C 61.1816 -47.5586 61.9141 -48.584 63.1836 -49.5605 L 70.3125 -54.6875 C 72.2656 -56.2012 73.4863 -56.7383 75.2441 -56.7383 C 77.832 -56.7383 79.4434 -54.9805 79.4434 -52.3438 L 79.4434 -17.9199 C 79.4434 -15.4297 78.0762 -14.0137 75.8301 -14.0137 Z"/>
  </g>
  <g id="Regular-M" transform="matrix(1 0 0 1 1391.3 1126)">
   <path d="M 58.5449 14.5508 C 85.791 14.5508 108.35 -8.00781 108.35 -35.2539 C 108.35 -62.4512 85.7422 -85.0586 58.4961 -85.0586 C 31.2988 -85.0586 8.74023 -62.4512 8.74023 -35.2539 C 8.74023 -8.00781 31.3477 14.5508 58.5449 14.5508 Z M 47.9492 -13.7207 C 45.9961 -13.7207 44.7754 -14.9902 44.7754 -17.041 L 44.7754 -48.8281 L 44.4824 -48.8281 L 38.9648 -44.8242 C 37.793 -43.8965 37.3047 -43.8477 36.4746 -43.8477 C 35.0098 -43.8477 33.5938 -45.2148 33.5938 -46.9727 C 33.5938 -48.291 34.1797 -49.2188 35.2539 -49.9512 L 43.0664 -55.2734 C 44.873 -56.4941 45.8984 -57.0312 47.5586 -57.0312 C 49.6582 -57.0312 51.1719 -55.5176 51.1719 -53.3203 L 51.1719 -17.041 C 51.1719 -14.9902 49.9023 -13.7207 47.9492 -13.7207 Z M 74.8047 -13.7207 C 72.9004 -13.7207 71.6309 -14.9902 71.6309 -17.041 L 71.6309 -48.8281 L 71.3379 -48.8281 L 65.8691 -44.8242 C 64.6484 -43.8965 64.209 -43.8477 63.3789 -43.8477 C 61.9141 -43.8477 60.4004 -45.2148 60.4004 -46.9727 C 60.4004 -48.291 61.084 -49.2188 62.1582 -49.9512 L 69.9219 -55.2734 C 71.7285 -56.4941 72.7539 -57.0312 74.4141 -57.0312 C 76.5625 -57.0312 78.0273 -55.5176 78.0273 -53.3203 L 78.0273 -17.041 C 78.0273 -14.9902 76.7578 -13.7207 74.8047 -13.7207 Z"/>
  </g>
  <g id="Light-M" transform="matrix(1 0 0 1 1095.42 1126)">
   <path d="M 57.7148 13.7695 C 84.5215 13.7695 106.689 -8.39844 106.689 -35.2051 C 106.689 -62.0117 84.5215 -84.1797 57.666 -84.1797 C 30.8594 -84.1797 8.74023 -62.0117 8.74023 -35.2051 C 8.74023 -8.39844 30.9082 13.7695 57.7148 13.7695 Z M 47.3145 -13.916 C 45.752 -13.916 44.7754 -14.9414 44.7754 -16.5527 L 44.7754 -50.1953 L 44.4824 -50.1953 L 37.6465 -45.459 C 36.7676 -44.8242 36.4258 -44.7754 35.791 -44.7754 C 34.5703 -44.7754 33.4473 -45.8984 33.4473 -47.2656 C 33.4473 -48.291 33.8867 -49.0234 34.8145 -49.6094 L 43.457 -55.4199 C 44.873 -56.3477 45.6543 -56.7383 46.9727 -56.7383 C 48.6816 -56.7383 49.9023 -55.5664 49.9023 -53.8086 L 49.9023 -16.5527 C 49.9023 -14.9414 48.877 -13.916 47.3145 -13.916 Z M 73.8281 -13.916 C 72.3145 -13.916 71.2891 -14.9414 71.2891 -16.5527 L 71.2891 -50.1953 L 71.0449 -50.1953 L 64.209 -45.459 C 63.3301 -44.8242 62.9883 -44.7754 62.3047 -44.7754 C 61.1328 -44.7754 59.9609 -45.8984 59.9609 -47.2656 C 59.9609 -48.291 60.4492 -49.0234 61.3281 -49.6094 L 70.0195 -55.4199 C 71.3867 -56.3477 72.2168 -56.7383 73.4863 -56.7383 C 75.1953 -56.7383 76.3672 -55.5664 76.3672 -53.8086 L 76.3672 -16.5527 C 76.3672 -14.9414 75.3906 -13.916 73.8281 -13.916 Z"/>
  </g>
  <g id="Thin-M" transform="matrix(1 0 0 1 799.806 1126)">
   <path d="M 56.6406 12.7441 C 82.9102 12.7441 104.492 -8.83789 104.492 -35.1562 C 104.492 -61.4746 82.9102 -83.0566 56.5918 -83.0566 C 30.3223 -83.0566 8.74023 -61.4746 8.74023 -35.1562 C 8.74023 -8.83789 30.3223 12.7441 56.6406 12.7441 Z M 46.4844 -14.209 C 45.459 -14.209 44.7754 -14.8438 44.7754 -15.918 L 44.7754 -52.002 L 44.4824 -52.002 L 35.9375 -46.3379 C 35.4492 -46.0449 35.2539 -46.0449 34.9121 -46.0449 C 33.9844 -46.0449 33.3008 -46.7285 33.3008 -47.6562 C 33.3008 -48.291 33.5449 -48.7793 34.1797 -49.1699 L 43.9941 -55.6641 C 44.8242 -56.1523 45.3613 -56.3965 46.1914 -56.3965 C 47.3145 -56.3965 48.1934 -55.6641 48.1934 -54.4434 L 48.1934 -15.918 C 48.1934 -14.8438 47.5098 -14.209 46.4844 -14.209 Z M 72.5098 -14.209 C 71.5332 -14.209 70.8008 -14.8438 70.8008 -15.918 L 70.8008 -52.002 L 70.6055 -52.002 L 62.0117 -46.3379 C 61.5723 -46.0449 61.377 -46.0449 60.9375 -46.0449 C 60.0586 -46.0449 59.3262 -46.7285 59.3262 -47.6562 C 59.3262 -48.291 59.6191 -48.7793 60.2539 -49.1699 L 70.0684 -55.6641 C 70.8496 -56.1523 71.4355 -56.3965 72.2656 -56.3965 C 73.3887 -56.3965 74.2188 -55.6641 74.2188 -54.4434 L 74.2188 -15.918 C 74.2188 -14.8438 73.584 -14.209 72.5098 -14.209 Z"/>
  </g>
  <g id="Ultralight-M" transform="matrix(1 0 0 1 503.656 1126)">
   <path d="M 56.0547 12.207 C 82.0801 12.207 103.369 -9.08203 103.369 -35.1562 C 103.369 -61.1816 82.0801 -82.4707 56.0547 -82.4707 C 30.0293 -82.4707 8.74023 -61.1816 8.74023 -35.1562 C 8.74023 -9.08203 30.0293 12.207 56.0547 12.207 Z M 46.0449 -14.3066 C 45.3125 -14.3066 44.7754 -14.7949 44.7754 -15.625 L 44.7754 -52.9297 L 44.5312 -52.9297 L 35.0098 -46.7773 C 34.8145 -46.6309 34.668 -46.6309 34.4238 -46.6309 C 33.6914 -46.6309 33.2031 -47.2168 33.2031 -47.8516 C 33.2031 -48.291 33.3496 -48.6328 33.8379 -48.9746 L 44.2871 -55.7617 C 44.8242 -56.0547 45.166 -56.2012 45.8008 -56.2012 C 46.6309 -56.2012 47.3145 -55.7129 47.3145 -54.7852 L 47.3145 -15.625 C 47.3145 -14.7949 46.8262 -14.3066 46.0449 -14.3066 Z M 71.8262 -14.3066 C 71.1426 -14.3066 70.5566 -14.7949 70.5566 -15.625 L 70.5566 -52.9297 L 70.3613 -52.9297 L 60.8887 -46.7773 C 60.6445 -46.6309 60.5469 -46.6309 60.2051 -46.6309 C 59.5703 -46.6309 59.0332 -47.2168 59.0332 -47.8516 C 59.0332 -48.291 59.1797 -48.6328 59.668 -48.9746 L 70.1172 -55.7617 C 70.6055 -56.0547 71.0449 -56.2012 71.6309 -56.2012 C 72.5098 -56.2012 73.0957 -55.7129 73.0957 -54.7852 L 73.0957 -15.625 C 73.0957 -14.7949 72.6562 -14.3066 71.8262 -14.3066 Z"/>
  </g>
  <g id="Black-S" transform="matrix(1 0 0 1 2884.57 696)">
   <path d="M 48.8281 6.78711 C 71.9727 6.78711 90.8203 -12.0605 90.8203 -35.2051 C 90.8203 -58.3496 71.9727 -77.1973 48.8281 -77.1973 C 25.6836 -77.1973 6.83594 -58.3496 6.83594 -35.2051 C 6.83594 -12.0605 25.6836 6.78711 48.8281 6.78711 Z M 41.4551 -19.5312 C 38.5254 -19.5312 37.207 -21.1426 37.207 -24.6094 L 37.207 -40.625 L 37.0605 -40.625 L 35.791 -39.1113 C 34.8145 -37.9395 33.9844 -37.3047 32.4707 -37.3047 C 30.5664 -37.3047 29.1016 -38.916 29.1016 -40.7715 C 29.1016 -42.3828 29.7852 -43.5547 31.4453 -45.166 L 34.8145 -48.4375 C 36.9629 -50.5371 38.4766 -50.9766 40.2344 -50.9766 C 43.8965 -50.9766 45.6543 -48.877 45.6543 -45.2148 L 45.6543 -24.6094 C 45.6543 -21.1426 44.2871 -19.5312 41.4551 -19.5312 Z M 62.9883 -19.5312 C 60.0586 -19.5312 58.7402 -21.1426 58.7402 -24.6094 L 58.7402 -40.625 L 58.5938 -40.625 L 57.3242 -39.1113 C 56.3477 -37.9395 55.5176 -37.3047 54.0039 -37.3047 C 52.0996 -37.3047 50.6348 -38.916 50.6348 -40.7715 C 50.6348 -42.3828 51.3184 -43.5547 52.9785 -45.166 L 56.3477 -48.4375 C 58.4961 -50.5371 60.0098 -50.9766 61.7676 -50.9766 C 65.4297 -50.9766 67.1875 -48.877 67.1875 -45.2148 L 67.1875 -24.6094 C 67.1875 -21.1426 65.8203 -19.5312 62.9883 -19.5312 Z"/>
  </g>
  <g id="Heavy-S" transform="matrix(1 0 0 1 2588.47 696)">
   <path d="M 48.2422 6.15234 C 70.9961 6.15234 89.5996 -12.4512 89.5996 -35.2051 C 89.5996 -57.959 70.9961 -76.6113 48.1934 -76.6113 C 25.4395 -76.6113 6.83594 -57.959 6.83594 -35.2051 C 6.83594 -12.4512 25.4395 6.15234 48.2422 6.15234 Z M 40.625 -19.2383 C 37.9395 -19.2383 36.7188 -20.752 36.7188 -23.8281 L 36.7188 -41.6992 L 36.5234 -41.6992 L 34.7168 -39.8926 C 33.6914 -38.8184 32.959 -38.3301 31.6406 -38.3301 C 29.8828 -38.3301 28.4668 -39.7949 28.4668 -41.6016 C 28.4668 -43.1152 29.1016 -44.1895 30.6152 -45.5566 L 34.5215 -49.0234 C 36.5234 -50.8789 37.8906 -51.3184 39.5996 -51.3184 C 42.8223 -51.3184 44.4824 -49.4141 44.4824 -46.1426 L 44.4824 -23.8281 C 44.4824 -20.752 43.1641 -19.2383 40.625 -19.2383 Z M 62.0605 -19.2383 C 59.4238 -19.2383 58.1543 -20.752 58.1543 -23.8281 L 58.1543 -41.6992 L 58.0078 -41.6992 L 56.1523 -39.8926 C 55.1758 -38.8184 54.4434 -38.3301 53.0762 -38.3301 C 51.3184 -38.3301 49.9023 -39.7949 49.9023 -41.6016 C 49.9023 -43.1152 50.5859 -44.1895 52.0508 -45.5566 L 55.957 -49.0234 C 58.0078 -50.8789 59.375 -51.3184 61.0352 -51.3184 C 64.3066 -51.3184 65.918 -49.4141 65.918 -46.1426 L 65.918 -23.8281 C 65.918 -20.752 64.6484 -19.2383 62.0605 -19.2383 Z"/>
  </g>
  <g id="Bold-S" transform="matrix(1 0 0 1 2292.44 696)">
   <path d="M 47.5586 5.46875 C 69.873 5.46875 88.2324 -12.8906 88.2324 -35.2051 C 88.2324 -57.5684 69.873 -75.9277 47.5098 -75.9277 C 25.1953 -75.9277 6.83594 -57.5684 6.83594 -35.2051 C 6.83594 -12.8906 25.1953 5.46875 47.5586 5.46875 Z M 39.6484 -18.8965 C 37.3535 -18.8965 36.1328 -20.2637 36.1328 -22.9004 L 36.1328 -42.9199 L 35.9375 -42.9199 L 33.4473 -40.7715 C 32.4219 -39.7461 31.8359 -39.4043 30.6641 -39.4043 C 29.1016 -39.4043 27.7344 -40.8203 27.7344 -42.5293 C 27.7344 -43.9453 28.3691 -44.9219 29.6387 -46.0449 L 34.1797 -49.6582 C 36.0352 -51.2695 37.2559 -51.709 38.916 -51.709 C 41.6504 -51.709 43.1641 -50 43.1641 -47.168 L 43.1641 -22.9004 C 43.1641 -20.2637 41.9434 -18.8965 39.6484 -18.8965 Z M 61.0352 -18.8965 C 58.7402 -18.8965 57.5195 -20.2637 57.5195 -22.9004 L 57.5195 -42.9199 L 57.3242 -42.9199 L 54.834 -40.7715 C 53.8086 -39.7461 53.2227 -39.4043 52.0508 -39.4043 C 50.4883 -39.4043 49.0723 -40.8203 49.0723 -42.5293 C 49.0723 -43.9453 49.7559 -44.9219 51.0254 -46.0449 L 55.5664 -49.6582 C 57.4219 -51.2695 58.6426 -51.709 60.2539 -51.709 C 63.0371 -51.709 64.5508 -50 64.5508 -47.168 L 64.5508 -22.9004 C 64.5508 -20.2637 63.2812 -18.8965 61.0352 -18.8965 Z"/>
  </g>
  <g id="Semibold-S" transform="matrix(1 0 0 1 1996.2 696)">
   <path d="M 47.0703 4.98047 C 69.0918 4.98047 87.3047 -13.1836 87.3047 -35.2539 C 87.3047 -57.2754 69.0918 -75.4883 47.0215 -75.4883 C 25 -75.4883 6.83594 -57.2754 6.83594 -35.2539 C 6.83594 -13.1836 25.0488 4.98047 47.0703 4.98047 Z M 39.0137 -18.7012 C 36.9141 -18.7012 35.7422 -19.9707 35.7422 -22.3145 L 35.7422 -43.75 L 35.5469 -43.75 L 32.6172 -41.3574 C 31.5918 -40.4297 31.0059 -40.1855 30.0293 -40.1855 C 28.5645 -40.1855 27.2461 -41.5039 27.2461 -43.1641 C 27.2461 -44.4824 27.832 -45.4102 29.0039 -46.3867 L 33.9355 -50.0977 C 35.7422 -51.5137 36.8164 -52.002 38.4277 -52.002 C 40.8203 -52.002 42.2852 -50.3906 42.2852 -47.9004 L 42.2852 -22.3145 C 42.2852 -19.9707 41.0645 -18.7012 39.0137 -18.7012 Z M 60.3027 -18.7012 C 58.252 -18.7012 57.0801 -19.9707 57.0801 -22.3145 L 57.0801 -43.75 L 56.8848 -43.75 L 53.9551 -41.3574 C 52.9297 -40.4297 52.3438 -40.1855 51.3672 -40.1855 C 49.9023 -40.1855 48.5352 -41.5039 48.5352 -43.1641 C 48.5352 -44.4824 49.1699 -45.4102 50.3418 -46.3867 L 55.2734 -50.0977 C 57.0801 -51.5137 58.1543 -52.002 59.7168 -52.002 C 62.1582 -52.002 63.5742 -50.3906 63.5742 -47.9004 L 63.5742 -22.3145 C 63.5742 -19.9707 62.4023 -18.7012 60.3027 -18.7012 Z"/>
  </g>
  <g id="Medium-S" transform="matrix(1 0 0 1 1699.83 696)">
   <path d="M 46.7285 4.63867 C 68.5547 4.63867 86.6211 -13.4277 86.6211 -35.2539 C 86.6211 -57.0312 68.5059 -75.1465 46.6797 -75.1465 C 24.8535 -75.1465 6.83594 -57.0312 6.83594 -35.2539 C 6.83594 -13.4277 24.9023 4.63867 46.7285 4.63867 Z M 38.4766 -18.5059 C 36.5723 -18.5059 35.4492 -19.7266 35.4492 -21.8262 L 35.4492 -44.3848 L 35.2051 -44.3848 L 31.9824 -41.8457 C 30.9082 -40.918 30.4199 -40.7715 29.541 -40.7715 C 28.125 -40.7715 26.8555 -42.041 26.8555 -43.6523 C 26.8555 -44.9219 27.4414 -45.752 28.5156 -46.582 L 33.7402 -50.4395 C 35.498 -51.709 36.4746 -52.1973 38.0371 -52.1973 C 40.1855 -52.1973 41.6016 -50.6836 41.6016 -48.4375 L 41.6016 -21.8262 C 41.6016 -19.7266 40.4297 -18.5059 38.4766 -18.5059 Z M 59.7656 -18.5059 C 57.8613 -18.5059 56.7383 -19.7266 56.7383 -21.8262 L 56.7383 -44.3848 L 56.4941 -44.3848 L 53.2715 -41.8457 C 52.1973 -40.918 51.709 -40.7715 50.8301 -40.7715 C 49.4141 -40.7715 48.0957 -42.041 48.0957 -43.6523 C 48.0957 -44.9219 48.7305 -45.752 49.8047 -46.582 L 55.0293 -50.4395 C 56.7871 -51.709 57.7637 -52.1973 59.2773 -52.1973 C 61.4746 -52.1973 62.8418 -50.6836 62.8418 -48.4375 L 62.8418 -21.8262 C 62.8418 -19.7266 61.6699 -18.5059 59.7656 -18.5059 Z"/>
  </g>
  <g id="Regular-S" transform="matrix(1 0 0 1 1403.58 696)">
   <path d="M 46.2402 4.15039 C 67.7734 4.15039 85.6934 -13.7207 85.6934 -35.2539 C 85.6934 -56.7871 67.7246 -74.6582 46.1914 -74.6582 C 24.707 -74.6582 6.83594 -56.7871 6.83594 -35.2539 C 6.83594 -13.7207 24.7559 4.15039 46.2402 4.15039 Z M 37.8418 -18.3105 C 36.1328 -18.3105 35.0586 -19.4336 35.0586 -21.1914 L 35.0586 -45.2148 L 34.8145 -45.2148 L 31.1523 -42.4316 C 30.0781 -41.6016 29.6387 -41.5527 28.9062 -41.5527 C 27.6367 -41.5527 26.3672 -42.7246 26.3672 -44.2871 C 26.3672 -45.459 26.9043 -46.2402 27.832 -46.9238 L 33.4961 -50.8789 C 35.1562 -52.002 36.0352 -52.4414 37.5488 -52.4414 C 39.4043 -52.4414 40.7227 -51.0742 40.7227 -49.1699 L 40.7227 -21.1914 C 40.7227 -19.4336 39.5996 -18.3105 37.8418 -18.3105 Z M 59.082 -18.3105 C 57.373 -18.3105 56.2988 -19.4336 56.2988 -21.1914 L 56.2988 -45.2148 L 56.0547 -45.2148 L 52.3926 -42.4316 C 51.3184 -41.6016 50.8789 -41.5527 50.1465 -41.5527 C 48.877 -41.5527 47.5586 -42.7246 47.5586 -44.2871 C 47.5586 -45.459 48.1445 -46.2402 49.0723 -46.9238 L 54.7363 -50.8789 C 56.3965 -52.002 57.2754 -52.4414 58.7402 -52.4414 C 60.6445 -52.4414 61.9141 -51.0742 61.9141 -49.1699 L 61.9141 -21.1914 C 61.9141 -19.4336 60.791 -18.3105 59.082 -18.3105 Z"/>
  </g>
  <g id="Light-S" transform="matrix(1 0 0 1 1107.6 696)">
   <path d="M 45.5078 3.4668 C 66.6992 3.4668 84.2285 -14.0625 84.2285 -35.2051 C 84.2285 -56.3965 66.6504 -73.9258 45.5078 -73.9258 C 24.3164 -73.9258 6.83594 -56.3965 6.83594 -35.2051 C 6.83594 -14.0625 24.3652 3.4668 45.5078 3.4668 Z M 37.3047 -18.457 C 35.9375 -18.457 35.0586 -19.3848 35.0586 -20.8008 L 35.0586 -46.4355 L 34.8145 -46.4355 L 29.9805 -43.0176 C 29.1992 -42.3828 28.8574 -42.3828 28.3203 -42.3828 C 27.2461 -42.3828 26.2695 -43.3105 26.2695 -44.5312 C 26.2695 -45.459 26.6602 -46.0938 27.4414 -46.6309 L 33.8867 -51.0254 C 35.1562 -51.8555 35.8398 -52.1973 37.0117 -52.1973 C 38.4766 -52.1973 39.5508 -51.123 39.5508 -49.6094 L 39.5508 -20.8008 C 39.5508 -19.3848 38.6719 -18.457 37.3047 -18.457 Z M 58.2031 -18.457 C 56.8848 -18.457 55.957 -19.3848 55.957 -20.8008 L 55.957 -46.4355 L 55.7617 -46.4355 L 50.9277 -43.0176 C 50.0977 -42.3828 49.8047 -42.3828 49.2188 -42.3828 C 48.1445 -42.3828 47.1191 -43.3105 47.1191 -44.5312 C 47.1191 -45.459 47.6074 -46.0938 48.3398 -46.6309 L 54.7852 -51.0254 C 56.0547 -51.8555 56.7871 -52.1973 57.9102 -52.1973 C 59.4238 -52.1973 60.4492 -51.123 60.4492 -49.6094 L 60.4492 -20.8008 C 60.4492 -19.3848 59.5703 -18.457 58.2031 -18.457 Z"/>
  </g>
  <g id="Thin-S" transform="matrix(1 0 0 1 811.867 696)">
   <path d="M 44.5801 2.53906 C 65.2832 2.53906 82.2754 -14.4531 82.2754 -35.2051 C 82.2754 -55.9082 65.2344 -72.9004 44.5312 -72.9004 C 23.8281 -72.9004 6.83594 -55.9082 6.83594 -35.2051 C 6.83594 -14.4531 23.877 2.53906 44.5801 2.53906 Z M 36.5723 -18.7012 C 35.6934 -18.7012 35.0586 -19.2871 35.0586 -20.2148 L 35.0586 -47.998 L 34.8633 -47.998 L 28.4668 -43.75 C 28.0273 -43.457 27.832 -43.457 27.4902 -43.457 C 26.7578 -43.457 26.123 -44.0918 26.123 -44.873 C 26.123 -45.459 26.3184 -45.8984 26.8555 -46.2402 L 34.375 -51.1719 C 35.1074 -51.6602 35.5957 -51.8555 36.3281 -51.8555 C 37.3047 -51.8555 38.0859 -51.2207 38.0859 -50.1465 L 38.0859 -20.2148 C 38.0859 -19.2871 37.5 -18.7012 36.5723 -18.7012 Z M 57.0312 -18.7012 C 56.2012 -18.7012 55.5664 -19.2871 55.5664 -20.2148 L 55.5664 -47.998 L 55.3711 -47.998 L 48.9746 -43.75 C 48.5352 -43.457 48.3887 -43.457 47.998 -43.457 C 47.2656 -43.457 46.582 -44.0918 46.582 -44.873 C 46.582 -45.459 46.875 -45.8984 47.4121 -46.2402 L 54.8828 -51.1719 C 55.6152 -51.6602 56.1035 -51.8555 56.8359 -51.8555 C 57.8613 -51.8555 58.5449 -51.2207 58.5449 -50.1465 L 58.5449 -20.2148 C 58.5449 -19.2871 58.0078 -18.7012 57.0312 -18.7012 Z"/>
  </g>
  <g id="Ultralight-S" transform="matrix(1 0 0 1 515.644 696)">
   <path d="M 44.043 2.05078 C 64.502 2.05078 81.2988 -14.6973 81.2988 -35.1562 C 81.2988 -55.6152 64.502 -72.3633 44.043 -72.3633 C 23.584 -72.3633 6.83594 -55.6152 6.83594 -35.1562 C 6.83594 -14.6973 23.584 2.05078 44.043 2.05078 Z M 36.1816 -18.7988 C 35.5469 -18.7988 35.0586 -19.2383 35.0586 -19.9219 L 35.0586 -48.8281 L 34.8633 -48.8281 L 27.6855 -44.1406 C 27.4414 -43.9941 27.2949 -43.9941 27.0996 -43.9941 C 26.4648 -43.9941 26.0254 -44.4824 26.0254 -45.0684 C 26.0254 -45.459 26.1719 -45.8008 26.5625 -46.0449 L 34.6191 -51.3184 C 35.1074 -51.5625 35.4492 -51.709 35.9863 -51.709 C 36.7188 -51.709 37.3047 -51.2695 37.3047 -50.4883 L 37.3047 -19.9219 C 37.3047 -19.2383 36.8652 -18.7988 36.1816 -18.7988 Z M 56.4453 -18.7988 C 55.8594 -18.7988 55.3223 -19.2383 55.3223 -19.9219 L 55.3223 -48.8281 L 55.1758 -48.8281 L 47.998 -44.1406 C 47.7539 -43.9941 47.6074 -43.9941 47.3633 -43.9941 C 46.7773 -43.9941 46.2891 -44.4824 46.2891 -45.0684 C 46.2891 -45.459 46.4844 -45.8008 46.875 -46.0449 L 54.9316 -51.3184 C 55.3711 -51.5625 55.7617 -51.709 56.2988 -51.709 C 57.0312 -51.709 57.5684 -51.2695 57.5684 -50.4883 L 57.5684 -19.9219 C 57.5684 -19.2383 57.1777 -18.7988 56.4453 -18.7988 Z"/>
  </g>
 </g>
</svg>
