<?xml version="1.0" encoding="UTF-8"?>
<!--Generator: Apple Native CoreSVG 123-->
<!DOCTYPE svg
PUBLIC "-//W3C//DTD SVG 1.1//EN"
       "http://www.w3.org/Graphics/SVG/1.1/DTD/svg11.dtd">
<svg version="1.1" xmlns="http://www.w3.org/2000/svg" xmlns:xlink="http://www.w3.org/1999/xlink" width="3300" height="2200">
 <!--glyph: "uni100516.medium", point size: 100.000000, font version: "Version 15.0d7e11", template writer version: "5"-->
 <g id="Notes">
  <rect height="2200" id="artboard" style="fill:white;opacity:1" width="3300" x="0" y="0"/>
  <line id="" style="fill:none;stroke:black;opacity:1;stroke-width:0.5;" x1="263" x2="3036" y1="292" y2="292"/>
  <text style="stroke:none;fill:black;font-family:-apple-system,&quot;SF Pro Display&quot;,&quot;SF Pro Text&quot;,Helvetica,sans-serif;font-weight:bold;" transform="matrix(1 0 0 1 263 322)">Weight/Scale Variations</text>
  <text style="stroke:none;fill:black;font-family:-apple-system,&quot;SF Pro Display&quot;,&quot;SF Pro Text&quot;,Helvetica,sans-serif;text-anchor:middle;" transform="matrix(1 0 0 1 559.711 322)">Ultralight</text>
  <text style="stroke:none;fill:black;font-family:-apple-system,&quot;SF Pro Display&quot;,&quot;SF Pro Text&quot;,Helvetica,sans-serif;text-anchor:middle;" transform="matrix(1 0 0 1 856.422 322)">Thin</text>
  <text style="stroke:none;fill:black;font-family:-apple-system,&quot;SF Pro Display&quot;,&quot;SF Pro Text&quot;,Helvetica,sans-serif;text-anchor:middle;" transform="matrix(1 0 0 1 1153.13 322)">Light</text>
  <text style="stroke:none;fill:black;font-family:-apple-system,&quot;SF Pro Display&quot;,&quot;SF Pro Text&quot;,Helvetica,sans-serif;text-anchor:middle;" transform="matrix(1 0 0 1 1449.84 322)">Regular</text>
  <text style="stroke:none;fill:black;font-family:-apple-system,&quot;SF Pro Display&quot;,&quot;SF Pro Text&quot;,Helvetica,sans-serif;text-anchor:middle;" transform="matrix(1 0 0 1 1746.56 322)">Medium</text>
  <text style="stroke:none;fill:black;font-family:-apple-system,&quot;SF Pro Display&quot;,&quot;SF Pro Text&quot;,Helvetica,sans-serif;text-anchor:middle;" transform="matrix(1 0 0 1 2043.27 322)">Semibold</text>
  <text style="stroke:none;fill:black;font-family:-apple-system,&quot;SF Pro Display&quot;,&quot;SF Pro Text&quot;,Helvetica,sans-serif;text-anchor:middle;" transform="matrix(1 0 0 1 2339.98 322)">Bold</text>
  <text style="stroke:none;fill:black;font-family:-apple-system,&quot;SF Pro Display&quot;,&quot;SF Pro Text&quot;,Helvetica,sans-serif;text-anchor:middle;" transform="matrix(1 0 0 1 2636.69 322)">Heavy</text>
  <text style="stroke:none;fill:black;font-family:-apple-system,&quot;SF Pro Display&quot;,&quot;SF Pro Text&quot;,Helvetica,sans-serif;text-anchor:middle;" transform="matrix(1 0 0 1 2933.4 322)">Black</text>
  <line id="" style="fill:none;stroke:black;opacity:1;stroke-width:0.5;" x1="263" x2="3036" y1="1903" y2="1903"/>
  <g id="" transform="matrix(1 0 0 1 263 1933)">
   <path d="M 9.24805 0.830078 C 13.5547 0.830078 17.1387 -2.74414 17.1387 -7.05078 C 17.1387 -11.3574 13.5449 -14.9316 9.23828 -14.9316 C 4.94141 -14.9316 1.36719 -11.3574 1.36719 -7.05078 C 1.36719 -2.74414 4.95117 0.830078 9.24805 0.830078 Z M 9.24805 -0.654297 C 5.70312 -0.654297 2.87109 -3.49609 2.87109 -7.05078 C 2.87109 -10.6055 5.69336 -13.4473 9.23828 -13.4473 C 12.793 -13.4473 15.6348 -10.6055 15.6445 -7.05078 C 15.6543 -3.49609 12.8027 -0.654297 9.24805 -0.654297 Z M 9.22852 -3.42773 C 9.69727 -3.42773 9.9707 -3.74023 9.9707 -4.25781 L 9.9707 -6.31836 L 12.1973 -6.31836 C 12.6953 -6.31836 13.0371 -6.57227 13.0371 -7.04102 C 13.0371 -7.51953 12.7148 -7.7832 12.1973 -7.7832 L 9.9707 -7.7832 L 9.9707 -10.0098 C 9.9707 -10.5273 9.69727 -10.8496 9.22852 -10.8496 C 8.75977 -10.8496 8.50586 -10.5078 8.50586 -10.0098 L 8.50586 -7.7832 L 6.29883 -7.7832 C 5.78125 -7.7832 5.44922 -7.51953 5.44922 -7.04102 C 5.44922 -6.57227 5.80078 -6.31836 6.29883 -6.31836 L 8.50586 -6.31836 L 8.50586 -4.25781 C 8.50586 -3.75977 8.75977 -3.42773 9.22852 -3.42773 Z"/>
  </g>
  <g id="" transform="matrix(1 0 0 1 281.506 1933)">
   <path d="M 11.709 2.91016 C 17.1582 2.91016 21.6699 -1.60156 21.6699 -7.05078 C 21.6699 -12.4902 17.1484 -17.0117 11.6992 -17.0117 C 6.25977 -17.0117 1.74805 -12.4902 1.74805 -7.05078 C 1.74805 -1.60156 6.26953 2.91016 11.709 2.91016 Z M 11.709 1.25 C 7.09961 1.25 3.41797 -2.44141 3.41797 -7.05078 C 3.41797 -11.6504 7.08984 -15.3516 11.6992 -15.3516 C 16.3086 -15.3516 20 -11.6504 20.0098 -7.05078 C 20.0195 -2.44141 16.3184 1.25 11.709 1.25 Z M 11.6895 -2.41211 C 12.207 -2.41211 12.5195 -2.77344 12.5195 -3.33984 L 12.5195 -6.23047 L 15.5762 -6.23047 C 16.123 -6.23047 16.5039 -6.51367 16.5039 -7.03125 C 16.5039 -7.55859 16.1426 -7.86133 15.5762 -7.86133 L 12.5195 -7.86133 L 12.5195 -10.9277 C 12.5195 -11.5039 12.207 -11.8555 11.6895 -11.8555 C 11.1719 -11.8555 10.8789 -11.4844 10.8789 -10.9277 L 10.8789 -7.86133 L 7.83203 -7.86133 C 7.26562 -7.86133 6.89453 -7.55859 6.89453 -7.03125 C 6.89453 -6.51367 7.28516 -6.23047 7.83203 -6.23047 L 10.8789 -6.23047 L 10.8789 -3.33984 C 10.8789 -2.79297 11.1719 -2.41211 11.6895 -2.41211 Z"/>
  </g>
  <g id="" transform="matrix(1 0 0 1 304.924 1933)">
   <path d="M 14.9707 5.67383 C 21.9336 5.67383 27.6953 -0.078125 27.6953 -7.04102 C 27.6953 -14.0039 21.9238 -19.7559 14.9609 -19.7559 C 8.00781 -19.7559 2.25586 -14.0039 2.25586 -7.04102 C 2.25586 -0.078125 8.01758 5.67383 14.9707 5.67383 Z M 14.9707 3.85742 C 8.93555 3.85742 4.08203 -1.00586 4.08203 -7.04102 C 4.08203 -13.0762 8.92578 -17.9395 14.9609 -17.9395 C 21.0059 -17.9395 25.8594 -13.0762 25.8691 -7.04102 C 25.8789 -1.00586 21.0156 3.85742 14.9707 3.85742 Z M 14.9512 -1.06445 C 15.5176 -1.06445 15.8691 -1.45508 15.8691 -2.06055 L 15.8691 -6.13281 L 20.1074 -6.13281 C 20.6934 -6.13281 21.1133 -6.46484 21.1133 -7.02148 C 21.1133 -7.59766 20.7227 -7.93945 20.1074 -7.93945 L 15.8691 -7.93945 L 15.8691 -12.1875 C 15.8691 -12.8027 15.5176 -13.1934 14.9512 -13.1934 C 14.3848 -13.1934 14.0625 -12.7832 14.0625 -12.1875 L 14.0625 -7.93945 L 9.83398 -7.93945 C 9.21875 -7.93945 8.80859 -7.59766 8.80859 -7.02148 C 8.80859 -6.46484 9.23828 -6.13281 9.83398 -6.13281 L 14.0625 -6.13281 L 14.0625 -2.06055 C 14.0625 -1.47461 14.3848 -1.06445 14.9512 -1.06445 Z"/>
  </g>
  <text style="stroke:none;fill:black;font-family:-apple-system,&quot;SF Pro Display&quot;,&quot;SF Pro Text&quot;,Helvetica,sans-serif;font-weight:bold;" transform="matrix(1 0 0 1 263 1953)">Design Variations</text>
  <text style="stroke:none;fill:black;font-family:-apple-system,&quot;SF Pro Display&quot;,&quot;SF Pro Text&quot;,Helvetica,sans-serif;" transform="matrix(1 0 0 1 263 1971)">Symbols are supported in up to nine weights and three scales.</text>
  <text style="stroke:none;fill:black;font-family:-apple-system,&quot;SF Pro Display&quot;,&quot;SF Pro Text&quot;,Helvetica,sans-serif;" transform="matrix(1 0 0 1 263 1989)">For optimal layout with text and other symbols, vertically align</text>
  <text style="stroke:none;fill:black;font-family:-apple-system,&quot;SF Pro Display&quot;,&quot;SF Pro Text&quot;,Helvetica,sans-serif;" transform="matrix(1 0 0 1 263 2007)">symbols with the adjacent text.</text>
  <rect height="14" id="" style="fill:#00AEEF;stroke:none;opacity:0.4;" width="3" x="776" y="1919"/>
  <g id="" transform="matrix(1 0 0 1 779 1933)">
   <path d="M 10.5273 0 L 12.373 0 L 7.17773 -14.0918 L 5.43945 -14.0918 L 0.244141 0 L 2.08984 0 L 3.50586 -4.0332 L 9.11133 -4.0332 Z M 6.2793 -11.9531 L 6.33789 -11.9531 L 8.59375 -5.52734 L 4.02344 -5.52734 Z"/>
  </g>
  <rect height="14" id="" style="fill:#00AEEF;stroke:none;opacity:0.4;" width="3" x="791.617" y="1919"/>
  <text style="stroke:none;fill:black;font-family:-apple-system,&quot;SF Pro Display&quot;,&quot;SF Pro Text&quot;,Helvetica,sans-serif;font-weight:bold;" transform="matrix(1 0 0 1 776 1953)">Margins</text>
  <text style="stroke:none;fill:black;font-family:-apple-system,&quot;SF Pro Display&quot;,&quot;SF Pro Text&quot;,Helvetica,sans-serif;" transform="matrix(1 0 0 1 776 1971)">Leading and trailing margins on the left and right side of each symbol</text>
  <text style="stroke:none;fill:black;font-family:-apple-system,&quot;SF Pro Display&quot;,&quot;SF Pro Text&quot;,Helvetica,sans-serif;" transform="matrix(1 0 0 1 776 1989)">can be adjusted by modifying the width of the blue rectangles.</text>
  <text style="stroke:none;fill:black;font-family:-apple-system,&quot;SF Pro Display&quot;,&quot;SF Pro Text&quot;,Helvetica,sans-serif;" transform="matrix(1 0 0 1 776 2007)">Modifications are automatically applied proportionally to all</text>
  <text style="stroke:none;fill:black;font-family:-apple-system,&quot;SF Pro Display&quot;,&quot;SF Pro Text&quot;,Helvetica,sans-serif;" transform="matrix(1 0 0 1 776 2025)">scales and weights.</text>
  <g id="" transform="matrix(1 0 0 1 1289 1933)">
   <path d="M 2.83203 3.11523 L 4.375 4.6582 C 5.22461 5.48828 6.19141 5.41992 7.06055 4.46289 L 17.2754 -6.66016 C 17.7051 -6.36719 18.0957 -6.37695 18.5645 -6.47461 L 19.6094 -6.68945 L 20.3027 -5.99609 L 20.2539 -5.47852 C 20.1855 -4.95117 20.3516 -4.53125 20.8496 -4.0332 L 21.6602 -3.22266 C 22.168 -2.71484 22.8223 -2.68555 23.3008 -3.16406 L 26.5527 -6.41602 C 27.0312 -6.89453 27.0117 -7.54883 26.5039 -8.05664 L 25.6836 -8.87695 C 25.1855 -9.375 24.7754 -9.55078 24.2383 -9.47266 L 23.7109 -9.41406 L 23.0566 -10.0781 L 23.3398 -11.2207 C 23.4863 -11.7871 23.3398 -12.2559 22.7148 -12.8613 L 20.3027 -15.2539 C 16.7578 -18.7793 12.2266 -18.6719 9.11133 -15.5371 C 8.69141 -15.1074 8.64258 -14.5215 8.91602 -14.0918 C 9.15039 -13.7207 9.62891 -13.4961 10.2734 -13.6621 C 11.7871 -14.043 13.3008 -13.9258 14.7852 -12.9199 L 14.1602 -11.3379 C 13.9258 -10.752 13.9453 -10.2734 14.1797 -9.83398 L 3.01758 0.439453 C 2.08008 1.30859 1.97266 2.25586 2.83203 3.11523 Z M 10.6738 -15.1465 C 13.3398 -17.1387 16.6504 -16.8262 19.0527 -14.4141 L 21.6797 -11.8066 C 21.9141 -11.5723 21.9434 -11.3867 21.8848 -11.0938 L 21.5039 -9.53125 L 23.0762 -7.95898 L 24.043 -8.04688 C 24.3262 -8.07617 24.4141 -8.05664 24.6387 -7.83203 L 25.2637 -7.20703 L 22.5098 -4.46289 L 21.8848 -5.07812 C 21.6602 -5.30273 21.6406 -5.40039 21.6699 -5.68359 L 21.7578 -6.64062 L 20.1953 -8.20312 L 18.5742 -7.89062 C 18.291 -7.83203 18.1445 -7.83203 17.9102 -8.07617 L 15.7324 -10.2539 C 15.5078 -10.4883 15.4785 -10.625 15.6055 -10.9473 L 16.5527 -13.2227 C 14.9512 -14.7559 12.8418 -15.6055 10.8008 -14.9512 C 10.7129 -14.9219 10.6445 -14.9414 10.6152 -14.9805 C 10.5859 -15.0293 10.5859 -15.0781 10.6738 -15.1465 Z M 4.10156 2.41211 C 3.61328 1.91406 3.78906 1.61133 4.12109 1.30859 L 15.0781 -8.80859 L 16.3086 -7.57812 L 6.15234 3.34961 C 5.84961 3.68164 5.46875 3.7793 5.06836 3.37891 Z"/>
  </g>
  <text style="stroke:none;fill:black;font-family:-apple-system,&quot;SF Pro Display&quot;,&quot;SF Pro Text&quot;,Helvetica,sans-serif;font-weight:bold;" transform="matrix(1 0 0 1 1289 1953)">Exporting</text>
  <text style="stroke:none;fill:black;font-family:-apple-system,&quot;SF Pro Display&quot;,&quot;SF Pro Text&quot;,Helvetica,sans-serif;" transform="matrix(1 0 0 1 1289 1971)">Symbols should be outlined when exporting to ensure the</text>
  <text style="stroke:none;fill:black;font-family:-apple-system,&quot;SF Pro Display&quot;,&quot;SF Pro Text&quot;,Helvetica,sans-serif;" transform="matrix(1 0 0 1 1289 1989)">design is preserved when submitting to Xcode.</text>
  <text id="template-version" style="stroke:none;fill:black;font-family:-apple-system,&quot;SF Pro Display&quot;,&quot;SF Pro Text&quot;,Helvetica,sans-serif;text-anchor:end;" transform="matrix(1 0 0 1 3036 1933)">Template v.1.0</text>
  <text style="stroke:none;fill:black;font-family:-apple-system,&quot;SF Pro Display&quot;,&quot;SF Pro Text&quot;,Helvetica,sans-serif;text-anchor:end;" transform="matrix(1 0 0 1 3036 1951)">Generated from 12.circle.fill</text>
  <text style="stroke:none;fill:black;font-family:-apple-system,&quot;SF Pro Display&quot;,&quot;SF Pro Text&quot;,Helvetica,sans-serif;text-anchor:end;" transform="matrix(1 0 0 1 3036 1969)">Typeset at 100 points</text>
  <text style="stroke:none;fill:black;font-family:-apple-system,&quot;SF Pro Display&quot;,&quot;SF Pro Text&quot;,Helvetica,sans-serif;" transform="matrix(1 0 0 1 263 726)">Small</text>
  <text style="stroke:none;fill:black;font-family:-apple-system,&quot;SF Pro Display&quot;,&quot;SF Pro Text&quot;,Helvetica,sans-serif;" transform="matrix(1 0 0 1 263 1156)">Medium</text>
  <text style="stroke:none;fill:black;font-family:-apple-system,&quot;SF Pro Display&quot;,&quot;SF Pro Text&quot;,Helvetica,sans-serif;" transform="matrix(1 0 0 1 263 1586)">Large</text>
 </g>
 <g id="Guides">
  <g id="H-reference" style="fill:#27AAE1;stroke:none;" transform="matrix(1 0 0 1 339 696)">
   <path d="M 54.9316 0 L 57.666 0 L 30.5664 -70.459 L 28.0762 -70.459 L 0.976562 0 L 3.66211 0 L 12.9395 -24.4629 L 45.7031 -24.4629 Z M 29.1992 -67.0898 L 29.4434 -67.0898 L 44.8242 -26.709 L 13.8184 -26.709 Z"/>
  </g>
  <line id="Baseline-S" style="fill:none;stroke:#27AAE1;opacity:1;stroke-width:0.577;" x1="263" x2="3036" y1="696" y2="696"/>
  <line id="Capline-S" style="fill:none;stroke:#27AAE1;opacity:1;stroke-width:0.577;" x1="263" x2="3036" y1="625.541" y2="625.541"/>
  <g id="H-reference" style="fill:#27AAE1;stroke:none;" transform="matrix(1 0 0 1 339 1126)">
   <path d="M 54.9316 0 L 57.666 0 L 30.5664 -70.459 L 28.0762 -70.459 L 0.976562 0 L 3.66211 0 L 12.9395 -24.4629 L 45.7031 -24.4629 Z M 29.1992 -67.0898 L 29.4434 -67.0898 L 44.8242 -26.709 L 13.8184 -26.709 Z"/>
  </g>
  <line id="Baseline-M" style="fill:none;stroke:#27AAE1;opacity:1;stroke-width:0.577;" x1="263" x2="3036" y1="1126" y2="1126"/>
  <line id="Capline-M" style="fill:none;stroke:#27AAE1;opacity:1;stroke-width:0.577;" x1="263" x2="3036" y1="1055.54" y2="1055.54"/>
  <g id="H-reference" style="fill:#27AAE1;stroke:none;" transform="matrix(1 0 0 1 339 1556)">
   <path d="M 54.9316 0 L 57.666 0 L 30.5664 -70.459 L 28.0762 -70.459 L 0.976562 0 L 3.66211 0 L 12.9395 -24.4629 L 45.7031 -24.4629 Z M 29.1992 -67.0898 L 29.4434 -67.0898 L 44.8242 -26.709 L 13.8184 -26.709 Z"/>
  </g>
  <line id="Baseline-L" style="fill:none;stroke:#27AAE1;opacity:1;stroke-width:0.577;" x1="263" x2="3036" y1="1556" y2="1556"/>
  <line id="Capline-L" style="fill:none;stroke:#27AAE1;opacity:1;stroke-width:0.577;" x1="263" x2="3036" y1="1485.54" y2="1485.54"/>
  <rect height="119.336" id="left-margin" style="fill:#00AEEF;stroke:none;opacity:0.4;" width="8.74023" x="1391.3" y="1030.79"/>
  <rect height="119.336" id="right-margin" style="fill:#00AEEF;stroke:none;opacity:0.4;" width="8.74023" x="1499.65" y="1030.79"/>
 </g>
 <g id="Symbols">
  <g id="Black-L" transform="matrix(1 0 0 1 2854.05 1556)">
   <path d="M 79.3457 32.8613 C 116.748 32.8613 147.412 2.19727 147.412 -35.2051 C 147.412 -72.6074 116.748 -103.271 79.2969 -103.271 C 41.8945 -103.271 11.2793 -72.6074 11.2793 -35.2051 C 11.2793 2.19727 41.9434 32.8613 79.3457 32.8613 Z M 86.4746 -10.5469 C 83.1055 -10.5469 80.4688 -12.8418 80.4688 -16.5527 C 80.4688 -18.8965 81.3477 -20.8984 83.4473 -23.3398 L 94.8242 -36.6699 C 97.6562 -40.0391 100.049 -42.4316 100.049 -45.4102 C 100.049 -47.8516 98.0469 -49.7559 95.3125 -49.7559 C 92.9199 -49.7559 91.1133 -48.3398 90.1855 -45.8008 C 89.4531 -43.5059 87.8906 -41.8945 84.9609 -41.8945 C 81.7871 -41.8945 79.7363 -44.0918 79.7363 -47.2168 C 79.7363 -48.3887 79.9316 -49.3164 80.1758 -50.3418 C 81.9824 -56.7383 88.2812 -61.084 95.6543 -61.084 C 105.176 -61.084 111.035 -55.0293 111.133 -46.5332 C 111.279 -40.7227 108.398 -36.2793 103.613 -30.7129 L 96.7285 -22.7539 L 96.7285 -22.1191 L 106.787 -22.1191 C 110.352 -22.1191 112.598 -20.0684 112.598 -16.4551 C 112.598 -12.7441 110.352 -10.5469 106.787 -10.5469 Z M 64.5996 -9.66797 C 60.498 -9.66797 58.4473 -12.0605 58.4473 -16.8457 L 58.4473 -45.8008 L 58.1543 -45.8008 L 55.2246 -42.9199 C 53.6133 -41.1133 52.3926 -40.3809 50.3418 -40.3809 C 47.6074 -40.3809 45.3613 -42.7246 45.3613 -45.5566 C 45.3613 -47.998 46.3379 -49.707 48.6816 -51.8066 L 55.0781 -57.3242 C 58.252 -60.2051 60.4004 -60.9863 63.0859 -60.9863 C 68.1152 -60.9863 70.752 -57.959 70.752 -52.832 L 70.752 -16.8457 C 70.752 -12.0605 68.7012 -9.66797 64.5996 -9.66797 Z"/>
  </g>
  <g id="Heavy-L" transform="matrix(1 0 0 1 2558.39 1556)">
   <path d="M 78.2715 31.7871 C 115.088 31.7871 145.312 1.61133 145.312 -35.2051 C 145.312 -72.0215 115.039 -102.197 78.2715 -102.197 C 41.4551 -102.197 11.2793 -72.0215 11.2793 -35.2051 C 11.2793 1.61133 41.5039 31.7871 78.2715 31.7871 Z M 84.5215 -10.0586 C 81.4453 -10.0586 79.1016 -12.1094 79.1016 -15.4297 C 79.1016 -17.4805 79.8828 -19.2871 81.6895 -21.3867 L 94.6289 -36.5234 C 97.6074 -40.0391 100.146 -42.7246 100.146 -46.0449 C 100.146 -49.1699 97.7539 -51.416 94.2871 -51.416 C 91.2109 -51.416 88.9648 -49.6582 87.9395 -46.4844 C 87.207 -44.2871 85.791 -42.8223 83.1055 -42.8223 C 80.2246 -42.8223 78.3691 -44.873 78.3691 -47.7051 C 78.3691 -48.7793 78.5156 -49.6582 78.7598 -50.6348 C 80.5176 -57.1289 87.0117 -61.6699 94.5312 -61.6699 C 104.15 -61.6699 110.254 -55.6641 110.303 -47.0215 C 110.4 -41.1133 107.422 -36.6211 102.539 -30.957 L 93.9941 -21.0449 L 93.9941 -20.5078 L 106.592 -20.5078 C 109.717 -20.5078 111.768 -18.6035 111.768 -15.3809 C 111.768 -12.0117 109.717 -10.0586 106.592 -10.0586 Z M 62.7441 -9.17969 C 59.082 -9.17969 57.2266 -11.377 57.2266 -15.5273 L 57.2266 -47.7051 L 56.9336 -47.7051 L 52.7344 -44.1406 C 51.1719 -42.5293 50.1465 -41.9922 48.3887 -41.9922 C 45.8496 -41.9922 43.7988 -44.1406 43.7988 -46.7285 C 43.7988 -48.9746 44.6777 -50.4883 46.7773 -52.3438 L 54.1992 -58.252 C 57.0801 -60.791 58.9844 -61.4746 61.4746 -61.4746 C 65.8691 -61.4746 68.3105 -58.7402 68.3105 -54.2969 L 68.3105 -15.5273 C 68.3105 -11.377 66.4062 -9.17969 62.7441 -9.17969 Z"/>
  </g>
  <g id="Bold-L" transform="matrix(1 0 0 1 2262.88 1556)">
   <path d="M 77.0996 30.6152 C 113.232 30.6152 142.92 0.878906 142.92 -35.2051 C 142.92 -71.3379 113.184 -101.025 77.0508 -101.025 C 40.9668 -101.025 11.2793 -71.3379 11.2793 -35.2051 C 11.2793 0.878906 41.0156 30.6152 77.0996 30.6152 Z M 82.3242 -9.47266 C 79.5898 -9.47266 77.5879 -11.2793 77.5879 -14.209 C 77.5879 -15.9668 78.2227 -17.4316 79.6875 -19.1895 L 94.3848 -36.377 C 97.5586 -40.0879 100.293 -43.1152 100.293 -46.7285 C 100.293 -50.5859 97.4609 -53.2715 93.1641 -53.2715 C 89.3555 -53.2715 86.5234 -51.123 85.4004 -47.2656 C 84.668 -45.2148 83.4473 -43.8965 81.1035 -43.8965 C 78.4668 -43.8965 76.8555 -45.7031 76.8555 -48.291 C 76.8555 -49.2676 77.002 -50.0488 77.1973 -50.9766 C 78.9062 -57.6172 85.5957 -62.3047 93.2129 -62.3047 C 103.076 -62.3047 109.326 -56.3477 109.375 -47.6074 C 109.473 -41.5527 106.348 -36.9629 101.318 -31.25 L 90.9668 -19.1406 L 90.9668 -18.6523 L 106.299 -18.6523 C 109.033 -18.6523 110.84 -16.9922 110.84 -14.1113 C 110.84 -11.2305 109.033 -9.47266 106.299 -9.47266 Z M 60.6934 -8.69141 C 57.5195 -8.69141 55.8105 -10.5957 55.8105 -14.1113 L 55.8105 -49.8535 L 55.5176 -49.8535 L 49.9512 -45.5078 C 48.4863 -44.1406 47.6074 -43.75 46.1426 -43.75 C 43.8965 -43.75 41.9922 -45.7031 41.9922 -48.0469 C 41.9922 -50.0488 42.8223 -51.3672 44.6289 -52.8809 L 53.2227 -59.2773 C 55.8105 -61.377 57.4219 -62.0605 59.7168 -62.0605 C 63.4277 -62.0605 65.5762 -59.668 65.5762 -55.9082 L 65.5762 -14.1113 C 65.5762 -10.5957 63.8184 -8.69141 60.6934 -8.69141 Z"/>
  </g>
  <g id="Semibold-L" transform="matrix(1 0 0 1 1966.97 1556)">
   <path d="M 76.2695 29.7852 C 111.914 29.7852 141.309 0.439453 141.309 -35.2051 C 141.309 -70.8496 111.865 -100.244 76.2695 -100.244 C 40.625 -100.244 11.2793 -70.8496 11.2793 -35.2051 C 11.2793 0.439453 40.6738 29.7852 76.2695 29.7852 Z M 80.8105 -9.0332 C 78.2715 -9.0332 76.5625 -10.7422 76.5625 -13.3301 C 76.5625 -14.8926 77.0996 -16.2109 78.3203 -17.627 L 94.2383 -36.2793 C 97.5098 -40.0879 100.391 -43.3594 100.391 -47.2168 C 100.391 -51.6113 97.2168 -54.5898 92.3828 -54.5898 C 88.0371 -54.5898 84.8633 -52.1484 83.6426 -47.8027 C 82.959 -45.8008 81.8359 -44.6289 79.6875 -44.6289 C 77.2949 -44.6289 75.7812 -46.2891 75.7812 -48.6816 C 75.7812 -49.6094 75.9277 -50.3418 76.123 -51.2207 C 77.7832 -57.9102 84.5703 -62.7441 92.334 -62.7441 C 102.295 -62.7441 108.74 -56.8359 108.74 -47.9492 C 108.789 -41.8945 105.566 -37.2559 100.488 -31.3965 L 88.8672 -17.8223 L 88.8672 -17.3828 L 106.152 -17.3828 C 108.545 -17.3828 110.205 -15.8691 110.205 -13.2812 C 110.205 -10.6934 108.545 -9.0332 106.152 -9.0332 Z M 59.2285 -8.30078 C 56.4941 -8.30078 54.8828 -10.0586 54.8828 -13.0859 L 54.8828 -51.3184 L 54.541 -51.3184 L 48.0469 -46.4844 C 46.6309 -45.2637 45.8984 -44.9707 44.6289 -44.9707 C 42.5781 -44.9707 40.7715 -46.7773 40.7715 -48.9746 C 40.7715 -50.7812 41.5527 -52.002 43.1641 -53.2715 L 52.5391 -59.9609 C 54.8828 -61.8164 56.3477 -62.4512 58.4961 -62.4512 C 61.7188 -62.4512 63.7207 -60.3027 63.7207 -57.0312 L 63.7207 -13.0859 C 63.7207 -10.0586 62.0605 -8.30078 59.2285 -8.30078 Z"/>
  </g>
  <g id="Medium-L" transform="matrix(1 0 0 1 1670.87 1556)">
   <path d="M 75.6836 29.1992 C 110.938 29.1992 140.088 0.0488281 140.088 -35.2051 C 140.088 -70.459 110.889 -99.6094 75.6348 -99.6094 C 40.3809 -99.6094 11.2793 -70.459 11.2793 -35.2051 C 11.2793 0.0488281 40.3809 29.1992 75.6836 29.1992 Z M 79.6875 -8.74023 C 77.2949 -8.74023 75.7324 -10.3027 75.7324 -12.6465 C 75.7324 -14.0625 76.2207 -15.2344 77.2949 -16.5039 L 94.1406 -36.1816 C 97.4609 -40.0879 100.488 -43.5547 100.488 -47.6074 C 100.488 -52.3438 97.0703 -55.5664 91.7969 -55.5664 C 87.0605 -55.5664 83.5938 -52.8809 82.3242 -48.1934 C 81.6406 -46.2891 80.6152 -45.166 78.6133 -45.166 C 76.3672 -45.166 75 -46.7285 75 -48.9746 C 75 -49.8535 75.1465 -50.5371 75.293 -51.416 C 76.9043 -58.1543 83.8379 -63.0859 91.6504 -63.0859 C 101.709 -63.0859 108.252 -57.2266 108.252 -48.2422 C 108.301 -42.0898 104.98 -37.4512 99.9023 -31.543 L 87.2559 -16.8457 L 87.2559 -16.4551 L 106.006 -16.4551 C 108.154 -16.4551 109.668 -15.0391 109.668 -12.5977 C 109.668 -10.3027 108.154 -8.74023 106.006 -8.74023 Z M 58.1543 -8.00781 C 55.6641 -8.00781 54.1504 -9.61914 54.1504 -12.3535 L 54.1504 -52.4414 L 53.8086 -52.4414 L 46.582 -47.2168 C 45.2148 -46.0938 44.5801 -45.8984 43.457 -45.8984 C 41.5527 -45.8984 39.8438 -47.6074 39.8438 -49.6582 C 39.8438 -51.3184 40.5762 -52.4414 41.9922 -53.5645 L 52.0508 -60.5469 C 54.1992 -62.1582 55.5176 -62.7441 57.5684 -62.7441 C 60.4492 -62.7441 62.2559 -60.791 62.2559 -57.8613 L 62.2559 -12.3535 C 62.2559 -9.61914 60.7422 -8.00781 58.1543 -8.00781 Z"/>
  </g>
  <g id="Regular-L" transform="matrix(1 0 0 1 1374.97 1556)">
   <path d="M 74.8535 28.3691 C 109.668 28.3691 138.477 -0.390625 138.477 -35.2051 C 138.477 -70.0195 109.619 -98.7793 74.8047 -98.7793 C 40.0391 -98.7793 11.2793 -70.0195 11.2793 -35.2051 C 11.2793 -0.390625 40.0879 28.3691 74.8535 28.3691 Z M 78.1738 -8.34961 C 76.0254 -8.34961 74.707 -9.7168 74.707 -11.8164 C 74.707 -13.0371 75.0977 -14.0137 75.9277 -14.9902 L 93.9941 -36.0352 C 97.4609 -40.0879 100.586 -43.7988 100.586 -48.0957 C 100.586 -53.3691 96.8262 -56.8359 91.0156 -56.8359 C 85.7422 -56.8359 81.9824 -53.9062 80.5664 -48.7305 C 79.8828 -46.9238 79.0039 -45.8984 77.2461 -45.8984 C 75.1953 -45.8984 73.9258 -47.3145 73.9258 -49.4141 C 73.9258 -50.1465 74.0723 -50.7812 74.2188 -51.6113 C 75.8301 -58.4961 82.8613 -63.5254 90.7715 -63.5254 C 100.928 -63.5254 107.617 -57.666 107.617 -48.6328 C 107.617 -42.4316 104.248 -37.6953 99.0723 -31.7383 L 85.2051 -15.5273 L 85.2051 -15.1855 L 105.811 -15.1855 C 107.715 -15.1855 109.033 -13.916 109.033 -11.7676 C 109.033 -9.76562 107.715 -8.34961 105.811 -8.34961 Z M 56.7383 -7.66602 C 54.5898 -7.66602 53.1738 -9.08203 53.1738 -11.377 L 53.1738 -53.9062 L 52.832 -53.9062 L 44.6777 -48.1445 C 43.3594 -47.168 42.8711 -47.1191 41.9434 -47.1191 C 40.2344 -47.1191 38.6719 -48.6328 38.6719 -50.5371 C 38.6719 -52.0996 39.3066 -53.0762 40.5273 -53.9551 L 51.3672 -61.2305 C 53.3203 -62.5977 54.4434 -63.1348 56.3477 -63.1348 C 58.7402 -63.1348 60.4004 -61.4258 60.4004 -58.9355 L 60.4004 -11.377 C 60.4004 -9.08203 58.9844 -7.66602 56.7383 -7.66602 Z"/>
  </g>
  <g id="Light-L" transform="matrix(1 0 0 1 1079.18 1556)">
   <path d="M 73.9258 27.4902 C 108.301 27.4902 136.621 -0.830078 136.621 -35.1562 C 136.621 -69.5312 108.252 -97.8516 73.9258 -97.8516 C 39.5508 -97.8516 11.2793 -69.5312 11.2793 -35.1562 C 11.2793 -0.830078 39.5996 27.4902 73.9258 27.4902 Z M 76.9043 -8.44727 C 75.0977 -8.44727 73.9746 -9.57031 73.9746 -11.377 C 73.9746 -12.4023 74.2676 -13.1836 74.9512 -13.9648 L 93.75 -35.8398 C 97.6074 -40.332 100.293 -43.9453 100.293 -48.291 C 100.293 -54.0039 96.1914 -57.7637 89.7949 -57.7637 C 83.7402 -57.7637 79.3945 -54.1992 78.3691 -48.6816 C 77.9297 -47.1191 77.1484 -46.2402 75.5859 -46.2402 C 73.877 -46.2402 72.8516 -47.4609 72.8516 -49.1211 C 72.8516 -49.8047 72.9492 -50.3906 73.0957 -51.1719 C 74.5117 -58.1543 81.543 -63.2324 89.6484 -63.2324 C 99.5117 -63.2324 106.055 -57.4707 106.055 -48.584 C 106.055 -42.8223 103.027 -38.2324 97.5098 -31.8848 L 82.4219 -14.3066 L 82.4219 -14.0137 L 104.883 -14.0137 C 106.494 -14.0137 107.568 -12.9395 107.568 -11.2305 C 107.568 -9.61914 106.494 -8.44727 104.883 -8.44727 Z M 55.6152 -7.86133 C 53.9062 -7.86133 52.7832 -9.0332 52.7832 -10.8398 L 52.7832 -55.4199 L 52.4414 -55.4199 L 42.7734 -48.877 C 41.8457 -48.1934 41.4551 -48.1934 40.7715 -48.1934 C 39.3555 -48.1934 38.0859 -49.4141 38.0859 -50.8789 C 38.0859 -52.0996 38.5742 -52.8809 39.5996 -53.5645 L 51.3672 -61.4258 C 52.8809 -62.4023 53.7598 -62.793 55.2734 -62.793 C 57.1777 -62.793 58.5449 -61.4746 58.5449 -59.5215 L 58.5449 -10.8398 C 58.5449 -9.0332 57.4219 -7.86133 55.6152 -7.86133 Z"/>
  </g>
  <g id="Thin-L" transform="matrix(1 0 0 1 783.693 1556)">
   <path d="M 72.7051 26.3184 C 106.494 26.3184 134.18 -1.36719 134.18 -35.1074 C 134.18 -68.8965 106.494 -96.582 72.7051 -96.582 C 38.9648 -96.582 11.2793 -68.8965 11.2793 -35.1074 C 11.2793 -1.36719 38.9648 26.3184 72.7051 26.3184 Z M 75.1953 -8.59375 C 73.877 -8.59375 72.998 -9.42383 72.998 -10.7422 C 72.998 -11.6211 73.1934 -12.0605 73.6328 -12.6465 L 93.457 -35.5957 C 97.8516 -40.6738 99.9023 -44.1895 99.9023 -48.5352 C 99.9023 -54.8828 95.3613 -58.9844 88.1348 -58.9844 C 81.0547 -58.9844 75.9766 -54.6387 75.4395 -48.6328 C 75.293 -47.4121 74.6582 -46.7285 73.3887 -46.7285 C 72.1191 -46.7285 71.4355 -47.6074 71.4355 -48.7793 C 71.4355 -49.3652 71.4844 -49.8047 71.582 -50.5371 C 72.8516 -57.666 79.834 -62.793 88.0859 -62.793 C 97.6074 -62.793 104.004 -57.2266 104.004 -48.5352 C 104.004 -43.4082 101.465 -38.9648 95.459 -32.0801 L 78.7598 -12.6465 L 78.7598 -12.4512 L 103.662 -12.4512 C 104.883 -12.4512 105.566 -11.6699 105.566 -10.5469 C 105.566 -9.47266 104.883 -8.59375 103.662 -8.59375 Z M 54.1504 -8.1543 C 53.0273 -8.1543 52.1973 -8.93555 52.1973 -10.1074 L 52.1973 -57.4219 L 51.9531 -57.4219 L 40.2344 -49.8047 C 39.7949 -49.5605 39.5996 -49.5605 39.209 -49.5605 C 38.1348 -49.5605 37.3535 -50.3906 37.3535 -51.3184 C 37.3535 -52.0996 37.5977 -52.6367 38.3301 -53.0762 L 51.416 -61.6699 C 52.2949 -62.207 52.832 -62.4023 53.8574 -62.4023 C 55.0781 -62.4023 56.1035 -61.5234 56.1035 -60.2539 L 56.1035 -10.1074 C 56.1035 -8.93555 55.3223 -8.1543 54.1504 -8.1543 Z"/>
  </g>
  <g id="Ultralight-L" transform="matrix(1 0 0 1 487.616 1556)">
   <path d="M 72.1191 25.7324 C 105.566 25.7324 132.91 -1.61133 132.91 -35.1074 C 132.91 -68.5547 105.566 -95.8984 72.1191 -95.8984 C 38.623 -95.8984 11.2793 -68.5547 11.2793 -35.1074 C 11.2793 -1.61133 38.623 25.7324 72.1191 25.7324 Z M 74.3164 -8.69141 C 73.1934 -8.69141 72.4609 -9.32617 72.4609 -10.4492 C 72.4609 -11.1816 72.6074 -11.5234 72.9492 -11.9141 L 93.3105 -35.4492 C 97.9492 -40.8203 99.707 -44.3359 99.707 -48.6816 C 99.707 -55.3711 94.9707 -59.6191 87.2559 -59.6191 C 79.6875 -59.6191 74.2188 -54.834 73.9258 -48.584 C 73.9258 -47.5586 73.3887 -46.9727 72.2656 -46.9727 C 71.2402 -46.9727 70.6543 -47.7051 70.6543 -48.6328 C 70.6543 -49.1699 70.752 -49.5117 70.8008 -50.2441 C 71.9727 -57.4219 78.9551 -62.5977 87.3047 -62.5977 C 96.6309 -62.5977 102.93 -57.0801 102.93 -48.5352 C 102.93 -43.7012 100.635 -39.3066 94.3848 -32.1777 L 76.9043 -11.7676 L 76.9043 -11.6211 L 103.076 -11.6211 C 104.102 -11.6211 104.541 -10.9863 104.541 -10.1562 C 104.541 -9.42383 104.102 -8.69141 103.076 -8.69141 Z M 53.3691 -8.30078 C 52.5391 -8.30078 51.9043 -8.88672 51.9043 -9.76562 L 51.9043 -58.4473 L 51.6602 -58.4473 L 38.9648 -50.293 C 38.7695 -50.2441 38.623 -50.2441 38.3789 -50.2441 C 37.5 -50.2441 37.0117 -50.8789 37.0117 -51.5625 C 37.0117 -52.0996 37.1094 -52.4902 37.6465 -52.832 L 51.416 -61.7676 C 52.002 -62.0605 52.3926 -62.207 53.125 -62.207 C 54.0527 -62.207 54.834 -61.5723 54.834 -60.6445 L 54.834 -9.76562 C 54.834 -8.88672 54.2969 -8.30078 53.3691 -8.30078 Z"/>
  </g>
  <g id="Black-M" transform="matrix(1 0 0 1 2870.97 1126)">
   <path d="M 62.4023 18.457 C 91.9922 18.457 116.113 -5.61523 116.113 -35.2051 C 116.113 -64.7949 91.9922 -88.8672 62.4023 -88.8672 C 32.8125 -88.8672 8.74023 -64.7949 8.74023 -35.2051 C 8.74023 -5.61523 32.8125 18.457 62.4023 18.457 Z M 51.9531 -16.2109 C 48.3887 -16.2109 46.7285 -18.2129 46.7285 -22.4121 L 46.7285 -41.6504 L 46.582 -41.6504 L 45.166 -39.8926 C 43.9453 -38.3789 42.8711 -37.6465 41.0645 -37.6465 C 38.7695 -37.6465 37.0117 -39.5508 37.0117 -41.7969 C 37.0117 -43.7988 37.7441 -45.2637 39.8438 -47.2168 L 43.8477 -51.1719 C 46.4844 -53.7598 48.3398 -54.3457 50.4395 -54.3457 C 54.9316 -54.3457 57.0801 -51.7578 57.0801 -47.2168 L 57.0801 -22.4121 C 57.0801 -18.2129 55.4688 -16.2109 51.9531 -16.2109 Z M 68.9941 -16.8945 C 66.1621 -16.8945 63.8184 -18.7988 63.8184 -22.0215 C 63.8184 -24.1211 64.5996 -25.8789 66.5527 -28.125 L 73.6328 -36.4746 C 75.8301 -39.0625 77.1973 -40.4785 77.1973 -42.3828 C 77.1973 -43.6035 76.0742 -44.7266 74.5605 -44.7266 C 73.2422 -44.7266 72.1191 -43.7988 71.7773 -42.4805 C 71.2891 -40.6738 69.9707 -39.3066 67.3828 -39.3066 C 64.7461 -39.3066 63.0859 -41.1621 63.0859 -43.6523 C 63.0859 -44.6777 63.1836 -45.4102 63.4277 -46.2891 C 64.7949 -51.1719 69.4824 -54.2969 75.0488 -54.2969 C 82.0801 -54.2969 86.2793 -49.6582 86.4258 -43.3105 C 86.5234 -39.1602 84.7168 -35.8887 80.9082 -31.4941 L 77.1484 -27.1484 L 77.1484 -26.6602 L 82.5684 -26.6602 C 85.7422 -26.6602 87.5977 -24.9023 87.5977 -21.875 C 87.5977 -18.7012 85.7422 -16.8945 82.5684 -16.8945 Z"/>
  </g>
  <g id="Heavy-M" transform="matrix(1 0 0 1 2575.19 1126)">
   <path d="M 61.5234 17.5781 C 90.5273 17.5781 114.258 -6.15234 114.258 -35.2051 C 114.258 -64.2578 90.5273 -87.9883 61.4746 -87.9883 C 32.4707 -87.9883 8.74023 -64.2578 8.74023 -35.2051 C 8.74023 -6.15234 32.4707 17.5781 61.5234 17.5781 Z M 67.1875 -16.2598 C 64.5996 -16.2598 62.5488 -18.0664 62.5488 -20.8984 C 62.5488 -22.7539 63.1836 -24.3164 64.8438 -26.2695 L 73.4863 -36.3281 C 75.7324 -39.0137 77.3926 -40.7715 77.3926 -43.0176 C 77.3926 -44.873 75.8789 -46.2891 73.7793 -46.2891 C 71.875 -46.2891 70.459 -45.166 69.873 -43.2129 C 69.3359 -41.5039 68.1641 -40.2344 65.8203 -40.2344 C 63.3789 -40.2344 61.8652 -41.9434 61.8652 -44.2871 C 61.8652 -45.2148 61.9629 -45.9473 62.207 -46.7285 C 63.5742 -51.709 68.4082 -55.0293 74.1211 -55.0293 C 81.3477 -55.0293 85.8398 -50.3906 85.9375 -43.8477 C 86.0352 -39.502 83.9355 -36.084 80.127 -31.7383 L 74.9023 -25.6348 L 74.9023 -25.1953 L 82.5684 -25.1953 C 85.3516 -25.1953 87.0605 -23.584 87.0605 -20.8496 C 87.0605 -17.9688 85.3516 -16.2598 82.5684 -16.2598 Z M 50.2441 -15.625 C 47.0215 -15.625 45.5078 -17.4316 45.5078 -21.1426 L 45.5078 -43.3594 L 45.3125 -43.3594 L 42.9199 -41.0645 C 41.748 -39.6973 40.8203 -39.1113 39.209 -39.1113 C 37.0605 -39.1113 35.4004 -40.918 35.4004 -43.0176 C 35.4004 -44.873 36.1328 -46.1914 37.9883 -47.8516 L 42.9199 -52.1484 C 45.3125 -54.3945 46.9727 -54.9805 48.9746 -54.9805 C 52.9297 -54.9805 54.9316 -52.6367 54.9316 -48.6328 L 54.9316 -21.1426 C 54.9316 -17.4316 53.3691 -15.625 50.2441 -15.625 Z"/>
  </g>
  <g id="Bold-M" transform="matrix(1 0 0 1 2279.5 1126)">
   <path d="M 60.498 16.5039 C 88.8672 16.5039 112.207 -6.78711 112.207 -35.2051 C 112.207 -63.623 88.8672 -86.9629 60.4492 -86.9629 C 32.0312 -86.9629 8.74023 -63.623 8.74023 -35.2051 C 8.74023 -6.78711 32.0801 16.5039 60.498 16.5039 Z M 65.1367 -15.625 C 62.793 -15.625 61.084 -17.1875 61.084 -19.6777 C 61.084 -21.2402 61.6211 -22.5586 62.9883 -24.1211 L 73.291 -36.2305 C 75.6348 -38.9648 77.6367 -41.1133 77.6367 -43.7012 C 77.6367 -46.2402 75.7324 -48.0957 72.9004 -48.0957 C 70.4102 -48.0957 68.5547 -46.6309 67.7246 -44.0918 C 67.1875 -42.3828 66.1133 -41.3086 64.1113 -41.3086 C 61.8652 -41.3086 60.498 -42.8223 60.498 -45.0195 C 60.498 -45.8496 60.5957 -46.4844 60.791 -47.2656 C 62.1582 -52.2949 67.1875 -55.8105 73.0469 -55.8105 C 80.5664 -55.8105 85.3027 -51.1719 85.3516 -44.4824 C 85.4492 -39.8438 83.1055 -36.377 79.2969 -31.9824 L 72.3633 -23.9258 L 72.3633 -23.5352 L 82.5684 -23.5352 C 84.9609 -23.5352 86.4746 -22.0703 86.4746 -19.6289 C 86.4746 -17.1387 84.9609 -15.625 82.5684 -15.625 Z M 48.291 -14.9414 C 45.5566 -14.9414 44.0918 -16.6016 44.0918 -19.7266 L 44.0918 -45.2637 L 43.8965 -45.2637 L 40.4297 -42.3828 C 39.209 -41.1621 38.4766 -40.7227 37.1094 -40.7227 C 35.2051 -40.7227 33.6426 -42.3828 33.6426 -44.3848 C 33.6426 -46.0449 34.3262 -47.2168 35.8887 -48.584 L 41.8457 -53.2227 C 44.043 -55.127 45.459 -55.6641 47.3633 -55.6641 C 50.6836 -55.6641 52.4902 -53.6133 52.4902 -50.2441 L 52.4902 -19.7266 C 52.4902 -16.6016 51.0254 -14.9414 48.291 -14.9414 Z"/>
  </g>
  <g id="Semibold-M" transform="matrix(1 0 0 1 1983.5 1126)">
   <path d="M 59.7656 15.8203 C 87.7441 15.8203 110.791 -7.22656 110.791 -35.2051 C 110.791 -63.1836 87.6953 -86.2793 59.7656 -86.2793 C 31.7871 -86.2793 8.74023 -63.1836 8.74023 -35.2051 C 8.74023 -7.22656 31.7871 15.8203 59.7656 15.8203 Z M 63.7695 -15.1367 C 61.5723 -15.1367 60.0586 -16.6016 60.0586 -18.8477 C 60.0586 -20.166 60.5469 -21.3379 61.6699 -22.6562 L 73.1934 -36.1328 C 75.5371 -38.916 77.832 -41.3574 77.832 -44.1895 C 77.832 -47.2168 75.6348 -49.3164 72.3145 -49.3164 C 69.3848 -49.3164 67.2852 -47.7051 66.2598 -44.6777 C 65.6738 -43.0176 64.7461 -42.041 62.8906 -42.041 C 60.8398 -42.041 59.5703 -43.457 59.5703 -45.5078 C 59.5703 -46.2402 59.668 -46.875 59.8145 -47.6074 C 61.1816 -52.7344 66.4062 -56.3965 72.3145 -56.3965 C 80.0293 -56.3965 84.9609 -51.7578 84.9609 -44.9219 C 85.0098 -40.1367 82.5195 -36.5234 78.7109 -32.1289 L 70.6543 -22.7539 L 70.6543 -22.3633 L 82.5684 -22.3633 C 84.668 -22.3633 86.084 -21.0449 86.084 -18.7988 C 86.084 -16.5527 84.668 -15.1367 82.5684 -15.1367 Z M 46.9727 -14.502 C 44.5312 -14.502 43.1641 -16.0156 43.1641 -18.75 L 43.1641 -46.5332 L 42.8711 -46.5332 L 38.7207 -43.2617 C 37.5 -42.1387 36.8164 -41.8945 35.6934 -41.8945 C 33.9355 -41.8945 32.4219 -43.4082 32.4219 -45.3125 C 32.4219 -46.875 33.0566 -47.9004 34.4727 -49.0723 L 41.0645 -53.9551 C 43.1152 -55.6641 44.3848 -56.1523 46.2402 -56.1523 C 49.1211 -56.1523 50.8301 -54.2969 50.8301 -51.3672 L 50.8301 -18.75 C 50.8301 -16.0156 49.4141 -14.502 46.9727 -14.502 Z"/>
  </g>
  <g id="Medium-M" transform="matrix(1 0 0 1 1687.3 1126)">
   <path d="M 59.2285 15.2832 C 86.9141 15.2832 109.766 -7.56836 109.766 -35.2051 C 109.766 -62.8906 86.8652 -85.7422 59.1797 -85.7422 C 31.543 -85.7422 8.74023 -62.8906 8.74023 -35.2051 C 8.74023 -7.56836 31.5918 15.2832 59.2285 15.2832 Z M 62.6953 -14.7949 C 60.6934 -14.7949 59.2773 -16.1133 59.2773 -18.2129 C 59.2773 -19.3848 59.7168 -20.459 60.6934 -21.582 L 73.0957 -36.084 C 75.4883 -38.916 77.9297 -41.5039 77.9297 -44.5801 C 77.9297 -47.9492 75.5371 -50.2441 71.875 -50.2441 C 68.6035 -50.2441 66.2598 -48.4863 65.1367 -45.1172 C 64.5508 -43.5059 63.6719 -42.5781 62.0117 -42.5781 C 60.0586 -42.5781 58.8379 -43.8965 58.8379 -45.8496 C 58.8379 -46.582 58.9844 -47.168 59.082 -47.8516 C 60.4492 -53.0273 65.7715 -56.7871 71.7285 -56.7871 C 79.5898 -56.7871 84.668 -52.1973 84.668 -45.2148 C 84.7168 -40.2832 82.0312 -36.6699 78.2227 -32.2754 L 69.3359 -21.875 L 69.3359 -21.4844 L 82.5684 -21.4844 C 84.4238 -21.4844 85.791 -20.3125 85.791 -18.1641 C 85.791 -16.1133 84.4238 -14.7949 82.5684 -14.7949 Z M 45.9473 -14.1602 C 43.75 -14.1602 42.4316 -15.5762 42.4316 -18.0176 L 42.4316 -47.5586 L 42.1387 -47.5586 L 37.4023 -43.9453 C 36.1816 -42.9199 35.5957 -42.7246 34.6191 -42.7246 C 32.959 -42.7246 31.4941 -44.1895 31.4941 -45.9961 C 31.4941 -47.4609 32.1289 -48.4375 33.3984 -49.4629 L 40.5273 -54.541 C 42.4805 -56.0059 43.6035 -56.543 45.4102 -56.543 C 47.9492 -56.543 49.5605 -54.834 49.5605 -52.1973 L 49.5605 -18.0176 C 49.5605 -15.5762 48.1934 -14.1602 45.9473 -14.1602 Z"/>
  </g>
  <g id="Regular-M" transform="matrix(1 0 0 1 1391.3 1126)">
   <path d="M 58.5449 14.5508 C 85.791 14.5508 108.35 -8.00781 108.35 -35.2539 C 108.35 -62.4512 85.7422 -85.0586 58.4961 -85.0586 C 31.2988 -85.0586 8.74023 -62.4512 8.74023 -35.2539 C 8.74023 -8.00781 31.3477 14.5508 58.5449 14.5508 Z M 61.3281 -14.3555 C 59.4727 -14.3555 58.3008 -15.5273 58.3008 -17.334 C 58.3008 -18.3594 58.6914 -19.2383 59.4238 -20.1172 L 72.9492 -35.9863 C 75.4395 -38.8672 78.0762 -41.748 78.0762 -45.0684 C 78.0762 -48.877 75.3906 -51.4648 71.2891 -51.4648 C 67.5781 -51.4648 64.9902 -49.5117 63.7207 -45.7031 C 63.0371 -44.1406 62.3047 -43.3105 60.791 -43.3105 C 59.0332 -43.3105 57.9102 -44.5312 57.9102 -46.3379 C 57.9102 -46.9727 58.0566 -47.5586 58.1543 -48.1934 C 59.4727 -53.4668 64.9414 -57.3242 71.0449 -57.3242 C 79.0527 -57.3242 84.3262 -52.7344 84.3262 -45.6543 C 84.3262 -40.5762 81.4453 -36.8164 77.6367 -32.4219 L 67.5781 -20.7031 L 67.5781 -20.3613 L 82.5195 -20.3613 C 84.1309 -20.3613 85.3516 -19.2871 85.3516 -17.334 C 85.3516 -15.5273 84.1309 -14.3555 82.5195 -14.3555 Z M 44.6289 -13.7207 C 42.7246 -13.7207 41.4551 -14.9902 41.4551 -17.041 L 41.4551 -48.8281 L 41.1621 -48.8281 L 35.6934 -44.8242 C 34.4727 -43.8965 34.0332 -43.8477 33.1543 -43.8477 C 31.6895 -43.8477 30.2734 -45.2148 30.2734 -46.9238 C 30.2734 -48.291 30.9082 -49.1699 31.9824 -49.9512 L 39.7949 -55.2734 C 41.5527 -56.4941 42.5781 -57.0312 44.2871 -57.0312 C 46.4355 -57.0312 47.9004 -55.5176 47.9004 -53.3203 L 47.9004 -17.041 C 47.9004 -14.9902 46.582 -13.7207 44.6289 -13.7207 Z"/>
  </g>
  <g id="Light-M" transform="matrix(1 0 0 1 1095.42 1126)">
   <path d="M 57.7148 13.7695 C 84.5215 13.7695 106.689 -8.39844 106.689 -35.2051 C 106.689 -62.0117 84.5215 -84.1797 57.666 -84.1797 C 30.8594 -84.1797 8.74023 -62.0117 8.74023 -35.2051 C 8.74023 -8.39844 30.9082 13.7695 57.7148 13.7695 Z M 60.1562 -14.4531 C 58.6426 -14.4531 57.666 -15.4297 57.666 -16.9434 C 57.666 -17.8223 57.9102 -18.5059 58.5449 -19.1895 L 72.7539 -35.791 C 75.5859 -39.0625 77.832 -41.8945 77.832 -45.2637 C 77.832 -49.5117 74.8535 -52.2949 70.1172 -52.2949 C 65.7715 -52.2949 62.6953 -49.8047 61.7188 -45.6543 C 61.2793 -44.3359 60.5957 -43.6035 59.3262 -43.6035 C 57.8125 -43.6035 56.9336 -44.6289 56.9336 -46.1426 C 56.9336 -46.6797 57.0312 -47.168 57.1289 -47.8027 C 58.3496 -53.125 63.7695 -57.0801 69.9707 -57.0801 C 77.7344 -57.0801 82.9102 -52.5879 82.9102 -45.6055 C 82.9102 -40.918 80.3711 -37.3047 76.2695 -32.5684 L 65.1367 -19.5801 L 65.1367 -19.3359 L 81.6895 -19.3359 C 83.0566 -19.3359 84.0332 -18.4082 84.0332 -16.8945 C 84.0332 -15.4297 83.0566 -14.4531 81.6895 -14.4531 Z M 43.6035 -13.916 C 42.0898 -13.916 41.0645 -14.9414 41.0645 -16.5527 L 41.0645 -50.1953 L 40.8203 -50.1953 L 33.9844 -45.459 C 33.1055 -44.8242 32.7637 -44.7754 32.1289 -44.7754 C 30.9082 -44.7754 29.7852 -45.8984 29.7852 -47.2168 C 29.7852 -48.291 30.2246 -48.9746 31.1035 -49.6094 L 39.7949 -55.4199 C 41.1621 -56.3477 41.9434 -56.7383 43.3105 -56.7383 C 45.0195 -56.7383 46.1914 -55.5664 46.1914 -53.8086 L 46.1914 -16.5527 C 46.1914 -14.9414 45.2148 -13.916 43.6035 -13.916 Z"/>
  </g>
  <g id="Thin-M" transform="matrix(1 0 0 1 799.806 1126)">
   <path d="M 56.6406 12.7441 C 82.9102 12.7441 104.492 -8.83789 104.492 -35.1562 C 104.492 -61.4746 82.9102 -83.0566 56.5918 -83.0566 C 30.3223 -83.0566 8.74023 -61.4746 8.74023 -35.1562 C 8.74023 -8.83789 30.3223 12.7441 56.6406 12.7441 Z M 58.6426 -14.5508 C 57.5195 -14.5508 56.7871 -15.2832 56.7871 -16.4062 C 56.7871 -17.0898 56.9336 -17.5293 57.373 -18.0176 L 72.5098 -35.5469 C 75.7812 -39.3555 77.4902 -42.1387 77.4902 -45.5078 C 77.4902 -50.293 74.0723 -53.3691 68.6523 -53.3691 C 63.3789 -53.3691 59.6191 -50.1465 59.082 -45.6055 C 58.8867 -44.6289 58.3984 -44.043 57.3242 -44.043 C 56.2988 -44.043 55.6641 -44.7754 55.6641 -45.8008 C 55.6641 -46.2891 55.7129 -46.6309 55.8105 -47.2168 C 56.8359 -52.7344 62.2559 -56.6895 68.6035 -56.6895 C 76.0254 -56.6895 81.0547 -52.3438 81.0547 -45.5566 C 81.0547 -41.4551 78.9551 -37.9395 74.4141 -32.7637 L 61.8164 -18.0664 L 61.8164 -17.9199 L 80.6152 -17.9199 C 81.6406 -17.9199 82.2266 -17.2363 82.2266 -16.2598 C 82.2266 -15.332 81.6406 -14.5508 80.6152 -14.5508 Z M 42.2852 -14.209 C 41.2598 -14.209 40.5762 -14.8438 40.5762 -15.918 L 40.5762 -52.002 L 40.3809 -52.002 L 31.7383 -46.3379 C 31.2988 -46.0449 31.1035 -46.0449 30.7129 -46.0449 C 29.834 -46.0449 29.1016 -46.7285 29.1016 -47.6074 C 29.1016 -48.291 29.3457 -48.7793 29.9805 -49.1699 L 39.8438 -55.6641 C 40.625 -56.1523 41.1621 -56.3965 42.041 -56.3965 C 43.1641 -56.3965 43.9941 -55.6152 43.9941 -54.4434 L 43.9941 -15.918 C 43.9941 -14.8438 43.3105 -14.209 42.2852 -14.209 Z"/>
  </g>
  <g id="Ultralight-M" transform="matrix(1 0 0 1 503.656 1126)">
   <path d="M 56.0547 12.207 C 82.0801 12.207 103.369 -9.08203 103.369 -35.1562 C 103.369 -61.1816 82.0801 -82.4707 56.0547 -82.4707 C 30.0293 -82.4707 8.74023 -61.1816 8.74023 -35.1562 C 8.74023 -9.08203 30.0293 12.207 56.0547 12.207 Z M 57.8613 -14.6484 C 56.9336 -14.6484 56.2988 -15.1855 56.2988 -16.1133 C 56.2988 -16.6992 56.4453 -17.041 56.7383 -17.3828 L 72.3633 -35.4492 C 75.8789 -39.502 77.3438 -42.2363 77.3438 -45.6055 C 77.3438 -50.6836 73.7305 -53.9551 67.8711 -53.9551 C 62.1582 -53.9551 58.0566 -50.3418 57.7637 -45.6055 C 57.7148 -44.7266 57.2754 -44.2383 56.3477 -44.2383 C 55.4688 -44.2383 54.9805 -44.873 54.9805 -45.6543 C 54.9805 -46.0938 55.0781 -46.3867 55.127 -46.9727 C 56.0547 -52.4902 61.4746 -56.4941 67.8711 -56.4941 C 75.1465 -56.4941 80.0781 -52.1973 80.0781 -45.5566 C 80.0781 -41.6992 78.2227 -38.2812 73.4863 -32.8613 L 60.1562 -17.334 L 60.1562 -17.1875 L 80.0781 -17.1875 C 80.9082 -17.1875 81.3477 -16.6504 81.3477 -15.918 C 81.3477 -15.2344 80.9082 -14.6484 80.0781 -14.6484 Z M 41.6016 -14.3066 C 40.8691 -14.3066 40.332 -14.7949 40.332 -15.625 L 40.332 -52.9297 L 40.1367 -52.9297 L 30.5664 -46.7773 C 30.3711 -46.6309 30.2246 -46.6309 29.9805 -46.6309 C 29.248 -46.6309 28.7598 -47.2168 28.7598 -47.8027 C 28.7598 -48.291 28.9062 -48.6328 29.3945 -48.9746 L 39.8438 -55.7617 C 40.3809 -56.0547 40.7227 -56.2012 41.4062 -56.2012 C 42.1875 -56.2012 42.8711 -55.6641 42.8711 -54.7852 L 42.8711 -15.625 C 42.8711 -14.7949 42.3828 -14.3066 41.6016 -14.3066 Z"/>
  </g>
  <g id="Black-S" transform="matrix(1 0 0 1 2884.57 696)">
   <path d="M 48.8281 6.78711 C 71.9727 6.78711 90.8203 -12.0605 90.8203 -35.2051 C 90.8203 -58.3496 71.9727 -77.1973 48.8281 -77.1973 C 25.6836 -77.1973 6.83594 -58.3496 6.83594 -35.2051 C 6.83594 -12.0605 25.6836 6.78711 48.8281 6.78711 Z M 40.5762 -20.2637 C 37.793 -20.2637 36.5234 -21.8262 36.5234 -25.0977 L 36.5234 -40.3809 L 36.377 -40.3809 L 35.2051 -38.9648 C 34.2773 -37.793 33.4473 -37.207 32.0312 -37.207 C 30.2246 -37.207 28.8574 -38.7207 28.8574 -40.4785 C 28.8574 -42.041 29.4434 -43.1641 31.0547 -44.6777 L 34.2773 -47.8027 C 36.3281 -49.8047 37.7441 -50.2441 39.4043 -50.2441 C 42.8711 -50.2441 44.5801 -48.2422 44.5801 -44.7266 L 44.5801 -25.0977 C 44.5801 -21.8262 43.3105 -20.2637 40.5762 -20.2637 Z M 53.9062 -20.8008 C 51.709 -20.8008 49.9023 -22.3145 49.9023 -24.8047 C 49.9023 -26.416 50.4883 -27.7832 52.002 -29.541 L 57.666 -36.1816 C 59.375 -38.2324 60.498 -39.3555 60.498 -40.8691 C 60.498 -41.8945 59.5703 -42.7734 58.3496 -42.7734 C 57.2754 -42.7734 56.3965 -42.041 56.1035 -40.9668 C 55.7129 -39.5508 54.6875 -38.4766 52.6855 -38.4766 C 50.6348 -38.4766 49.3164 -39.9414 49.3164 -41.8945 C 49.3164 -42.6758 49.4141 -43.2617 49.6094 -43.9453 C 50.6836 -47.7539 54.3457 -50.2441 58.7402 -50.2441 C 64.2578 -50.2441 67.5781 -46.582 67.6758 -41.6016 C 67.7734 -38.3301 66.3086 -35.7422 63.3301 -32.3242 L 60.3027 -28.8086 L 60.3027 -28.418 L 64.6973 -28.418 C 67.1387 -28.418 68.6035 -27.0508 68.6035 -24.707 C 68.6035 -22.2168 67.1387 -20.8008 64.6973 -20.8008 Z"/>
  </g>
  <g id="Heavy-S" transform="matrix(1 0 0 1 2588.47 696)">
   <path d="M 48.2422 6.15234 C 70.9961 6.15234 89.5996 -12.4512 89.5996 -35.2051 C 89.5996 -57.959 70.9961 -76.6113 48.1934 -76.6113 C 25.4395 -76.6113 6.83594 -57.959 6.83594 -35.2051 C 6.83594 -12.4512 25.4395 6.15234 48.2422 6.15234 Z M 52.6367 -20.3125 C 50.5859 -20.3125 48.9746 -21.7285 48.9746 -24.0234 C 48.9746 -25.4395 49.5117 -26.6602 50.8301 -28.1738 L 57.5684 -36.1328 C 59.2773 -38.1836 60.6934 -39.5508 60.6934 -41.3574 C 60.6934 -42.7734 59.5215 -43.8965 57.8613 -43.8965 C 56.4453 -43.8965 55.3711 -43.0664 54.8828 -41.5527 C 54.4434 -40.1367 53.4668 -39.1602 51.6602 -39.1602 C 49.707 -39.1602 48.4863 -40.5273 48.4863 -42.3828 C 48.4863 -43.1152 48.584 -43.7012 48.7793 -44.3359 C 49.8535 -48.1934 53.6621 -50.8301 58.1055 -50.8301 C 63.8672 -50.8301 67.3828 -47.168 67.4316 -42.041 C 67.5293 -38.5254 65.8203 -35.8398 62.8906 -32.4707 L 58.8379 -27.7832 L 58.8379 -27.3926 L 64.7949 -27.3926 C 66.9922 -27.3926 68.3594 -26.123 68.3594 -23.9258 C 68.3594 -21.6797 66.9922 -20.3125 64.7949 -20.3125 Z M 39.3555 -19.7754 C 36.8164 -19.7754 35.5957 -21.2402 35.5957 -24.1699 L 35.5957 -41.5039 L 35.4492 -41.5039 L 33.6914 -39.7949 C 32.7148 -38.6719 31.9824 -38.2324 30.7129 -38.2324 C 29.0527 -38.2324 27.6855 -39.6484 27.6855 -41.3574 C 27.6855 -42.8711 28.2715 -43.8965 29.7363 -45.2148 L 33.5449 -48.5352 C 35.498 -50.3418 36.7676 -50.7812 38.3789 -50.7812 C 41.5039 -50.7812 43.1152 -48.9258 43.1152 -45.752 L 43.1152 -24.1699 C 43.1152 -21.2402 41.8457 -19.7754 39.3555 -19.7754 Z"/>
  </g>
  <g id="Bold-S" transform="matrix(1 0 0 1 2292.44 696)">
   <path d="M 47.5586 5.46875 C 69.873 5.46875 88.2324 -12.8906 88.2324 -35.2051 C 88.2324 -57.5684 69.873 -75.9277 47.5098 -75.9277 C 25.1953 -75.9277 6.83594 -57.5684 6.83594 -35.2051 C 6.83594 -12.8906 25.1953 5.46875 47.5586 5.46875 Z M 51.2695 -19.8242 C 49.3652 -19.8242 47.9492 -21.0938 47.9492 -23.0957 C 47.9492 -24.3652 48.3887 -25.4395 49.5117 -26.709 L 57.4707 -36.0352 C 59.1797 -38.0859 60.8887 -39.7949 60.8887 -41.8457 C 60.8887 -43.75 59.4727 -45.166 57.373 -45.166 C 55.5664 -45.166 54.1992 -44.1406 53.4668 -42.1875 C 52.9785 -40.8203 52.1484 -39.9414 50.5371 -39.9414 C 48.7305 -39.9414 47.5586 -41.2109 47.5586 -42.9688 C 47.5586 -43.6523 47.6562 -44.1406 47.8027 -44.7754 C 48.9258 -48.7305 52.8809 -51.4648 57.4219 -51.4648 C 63.3789 -51.4648 67.1387 -47.8027 67.1875 -42.4805 C 67.2363 -38.7695 65.332 -35.9863 62.4023 -32.666 L 57.2266 -26.6113 L 57.2266 -26.2695 L 64.8926 -26.2695 C 66.7969 -26.2695 68.0664 -25.0977 68.0664 -23.0957 C 68.0664 -21.0449 66.7969 -19.8242 64.8926 -19.8242 Z M 37.9883 -19.2871 C 35.791 -19.2871 34.5703 -20.6055 34.5703 -23.1445 L 34.5703 -42.8223 L 34.375 -42.8223 L 31.9824 -40.7227 C 30.957 -39.6973 30.3711 -39.3555 29.248 -39.3555 C 27.7344 -39.3555 26.416 -40.7227 26.416 -42.334 C 26.416 -43.75 26.9531 -44.6777 28.2715 -45.8008 L 32.7148 -49.3164 C 34.5215 -50.8789 35.6934 -51.3672 37.2559 -51.3672 C 39.9414 -51.3672 41.4551 -49.6582 41.4551 -46.9238 L 41.4551 -23.1445 C 41.4551 -20.6055 40.2344 -19.2871 37.9883 -19.2871 Z"/>
  </g>
  <g id="Semibold-S" transform="matrix(1 0 0 1 1996.2 696)">
   <path d="M 47.0703 4.98047 C 69.0918 4.98047 87.3047 -13.1836 87.3047 -35.2539 C 87.3047 -57.2754 69.0918 -75.4883 47.0215 -75.4883 C 25 -75.4883 6.83594 -57.2754 6.83594 -35.2539 C 6.83594 -13.1836 25.0488 4.98047 47.0703 4.98047 Z M 50.293 -19.4336 C 48.4863 -19.4336 47.2168 -20.6543 47.2168 -22.5098 C 47.2168 -23.584 47.6562 -24.5605 48.584 -25.6348 L 57.373 -35.9863 C 59.1309 -38.0371 61.0352 -39.9902 61.0352 -42.2363 C 61.0352 -44.4336 59.4238 -46.0449 56.9824 -46.0449 C 54.9316 -46.0449 53.418 -44.9219 52.5391 -42.6758 C 52.002 -41.3086 51.2207 -40.4785 49.707 -40.4785 C 47.998 -40.4785 46.9727 -41.6504 46.9727 -43.3594 C 46.9727 -43.9941 47.0215 -44.4824 47.168 -45.0684 C 48.2422 -49.0723 52.3438 -51.9043 56.9824 -51.9043 C 63.0859 -51.9043 66.9922 -48.2422 67.041 -42.8223 C 67.041 -38.916 64.9414 -36.084 62.0605 -32.7637 L 56.1035 -25.7812 L 56.1035 -25.4883 L 64.9414 -25.4883 C 66.6504 -25.4883 67.8711 -24.4141 67.8711 -22.5098 C 67.8711 -20.6055 66.6504 -19.4336 64.9414 -19.4336 Z M 37.0605 -18.8965 C 35.0098 -18.8965 33.8867 -20.166 33.8867 -22.4609 L 33.8867 -43.7012 L 33.6914 -43.7012 L 30.8105 -41.3086 C 29.7852 -40.3809 29.1992 -40.1855 28.2715 -40.1855 C 26.8066 -40.1855 25.4883 -41.4551 25.4883 -43.0176 C 25.4883 -44.3848 26.0742 -45.2637 27.2461 -46.1914 L 32.1289 -49.9023 C 33.8867 -51.2695 34.9609 -51.7578 36.5234 -51.7578 C 38.916 -51.7578 40.2832 -50.1953 40.2832 -47.7539 L 40.2832 -22.4609 C 40.2832 -20.166 39.1113 -18.8965 37.0605 -18.8965 Z"/>
  </g>
  <g id="Medium-S" transform="matrix(1 0 0 1 1699.83 696)">
   <path d="M 46.7285 4.63867 C 68.5547 4.63867 86.6211 -13.4277 86.6211 -35.2539 C 86.6211 -57.0312 68.5059 -75.1465 46.6797 -75.1465 C 24.8535 -75.1465 6.83594 -57.0312 6.83594 -35.2539 C 6.83594 -13.4277 24.9023 4.63867 46.7285 4.63867 Z M 49.5605 -19.1895 C 47.8516 -19.1895 46.6797 -20.3125 46.6797 -22.0215 C 46.6797 -23.0469 47.0703 -23.9258 47.9004 -24.8535 L 57.3242 -35.9375 C 59.082 -38.0371 61.1328 -40.0879 61.1328 -42.4805 C 61.1328 -44.9707 59.375 -46.6797 56.7383 -46.6797 C 54.4434 -46.6797 52.832 -45.5078 51.8066 -43.0176 C 51.2207 -41.6504 50.4883 -40.8691 49.1211 -40.8691 C 47.4609 -40.8691 46.4844 -41.9922 46.4844 -43.6523 C 46.4844 -44.2383 46.582 -44.7266 46.6797 -45.3125 C 47.7539 -49.3164 51.9531 -52.2461 56.5918 -52.2461 C 62.8418 -52.2461 66.8945 -48.584 66.8945 -43.0664 C 66.8945 -39.0625 64.6973 -36.1816 61.8164 -32.8613 L 55.2734 -25.1953 L 55.2734 -24.9023 L 64.9902 -24.9023 C 66.5527 -24.9023 67.7246 -23.877 67.7246 -22.0215 C 67.7246 -20.2637 66.5527 -19.1895 64.9902 -19.1895 Z M 36.377 -18.6523 C 34.4727 -18.6523 33.3496 -19.873 33.3496 -21.9238 L 33.3496 -44.3359 L 33.1055 -44.3359 L 29.9316 -41.7969 C 28.8574 -40.918 28.3691 -40.7715 27.4902 -40.7715 C 26.123 -40.7715 24.8535 -41.9922 24.8535 -43.5547 C 24.8535 -44.8242 25.3906 -45.6543 26.4648 -46.5332 L 31.7383 -50.293 C 33.3984 -51.6113 34.375 -52.0508 35.9375 -52.0508 C 38.0859 -52.0508 39.4531 -50.5859 39.4531 -48.3398 L 39.4531 -21.9238 C 39.4531 -19.873 38.2812 -18.6523 36.377 -18.6523 Z"/>
  </g>
  <g id="Regular-S" transform="matrix(1 0 0 1 1403.58 696)">
   <path d="M 46.2402 4.15039 C 67.7734 4.15039 85.6934 -13.7207 85.6934 -35.2539 C 85.6934 -56.7871 67.7246 -74.6582 46.1914 -74.6582 C 24.707 -74.6582 6.83594 -56.7871 6.83594 -35.2539 C 6.83594 -13.7207 24.7559 4.15039 46.2402 4.15039 Z M 48.584 -18.7988 C 46.9727 -18.7988 45.9961 -19.873 45.9961 -21.4355 C 45.9961 -22.2656 46.3379 -23.0957 46.9727 -23.8281 L 57.2266 -35.8887 C 58.9844 -37.9883 61.2793 -40.2832 61.2793 -42.8711 C 61.2793 -45.6543 59.3262 -47.5586 56.3477 -47.5586 C 53.8086 -47.5586 52.0508 -46.2891 50.8789 -43.457 C 50.2441 -42.1387 49.6094 -41.4062 48.3398 -41.4062 C 46.7773 -41.4062 45.8496 -42.4316 45.8496 -44.043 C 45.8496 -44.5801 45.9473 -45.0684 46.0449 -45.6055 C 47.1191 -49.6582 51.416 -52.6855 56.1523 -52.6855 C 62.5488 -52.6855 66.748 -49.0234 66.748 -43.4082 C 66.748 -39.209 64.3555 -36.2793 61.5234 -32.959 L 54.1504 -24.3652 L 54.1504 -24.1211 L 65.0391 -24.1211 C 66.4551 -24.1211 67.5293 -23.1445 67.5293 -21.4355 C 67.5293 -19.873 66.4551 -18.7988 65.0391 -18.7988 Z M 35.4492 -18.3105 C 33.7402 -18.3105 32.666 -19.4336 32.666 -21.1914 L 32.666 -45.2148 L 32.4219 -45.2148 L 28.8086 -42.4316 C 27.6855 -41.6016 27.2461 -41.5527 26.5137 -41.5527 C 25.1953 -41.5527 23.9258 -42.7246 23.9258 -44.2383 C 23.9258 -45.459 24.5117 -46.1914 25.4395 -46.9238 L 31.1523 -50.8789 C 32.7637 -52.002 33.6426 -52.4414 35.1562 -52.4414 C 37.0605 -52.4414 38.3301 -51.0742 38.3301 -49.1699 L 38.3301 -21.1914 C 38.3301 -19.4336 37.207 -18.3105 35.4492 -18.3105 Z"/>
  </g>
  <g id="Light-S" transform="matrix(1 0 0 1 1107.6 696)">
   <path d="M 45.5078 3.4668 C 66.6992 3.4668 84.2285 -14.0625 84.2285 -35.2051 C 84.2285 -56.3965 66.6504 -73.9258 45.5078 -73.9258 C 24.3164 -73.9258 6.83594 -56.3965 6.83594 -35.2051 C 6.83594 -14.0625 24.3652 3.4668 45.5078 3.4668 Z M 47.5586 -18.8965 C 46.2402 -18.8965 45.4102 -19.7754 45.4102 -21.0449 C 45.4102 -21.7773 45.6543 -22.4121 46.1914 -23.0469 L 57.0801 -35.7422 C 59.1309 -38.1836 61.084 -40.4297 61.084 -43.0176 C 61.084 -46.1914 58.8379 -48.291 55.3711 -48.291 C 52.2461 -48.291 50 -46.5332 49.1211 -43.4082 C 48.6816 -42.2852 48.0957 -41.6992 47.0215 -41.6992 C 45.752 -41.6992 44.9707 -42.5293 44.9707 -43.8477 C 44.9707 -44.3359 45.0684 -44.7266 45.1172 -45.2148 C 46.1426 -49.3652 50.3906 -52.4414 55.2246 -52.4414 C 61.377 -52.4414 65.4785 -48.877 65.4785 -43.3594 C 65.4785 -39.5508 63.3789 -36.6699 60.2539 -33.1055 L 51.9531 -23.3887 L 51.9531 -23.1445 L 64.3066 -23.1445 C 65.4785 -23.1445 66.3086 -22.3633 66.3086 -21.0449 C 66.3086 -19.7754 65.4785 -18.8965 64.3066 -18.8965 Z M 34.5215 -18.457 C 33.2031 -18.457 32.3242 -19.3848 32.3242 -20.8008 L 32.3242 -46.4355 L 32.1289 -46.4355 L 27.2949 -43.0176 C 26.4648 -42.3828 26.123 -42.3828 25.5371 -42.3828 C 24.5117 -42.3828 23.4863 -43.3105 23.4863 -44.4824 C 23.4863 -45.459 23.9258 -46.0449 24.707 -46.6309 L 31.1523 -51.0254 C 32.4219 -51.8555 33.1055 -52.1973 34.3262 -52.1973 C 35.791 -52.1973 36.8164 -51.123 36.8164 -49.6094 L 36.8164 -20.8008 C 36.8164 -19.3848 35.9375 -18.457 34.5215 -18.457 Z"/>
  </g>
  <g id="Thin-S" transform="matrix(1 0 0 1 811.867 696)">
   <path d="M 44.5801 2.53906 C 65.2832 2.53906 82.2754 -14.4531 82.2754 -35.2051 C 82.2754 -55.9082 65.2344 -72.9004 44.5312 -72.9004 C 23.8281 -72.9004 6.83594 -55.9082 6.83594 -35.2051 C 6.83594 -14.4531 23.877 2.53906 44.5801 2.53906 Z M 46.2402 -18.9941 C 45.2637 -18.9941 44.6289 -19.6289 44.6289 -20.5566 C 44.6289 -21.1426 44.7754 -21.5332 45.166 -21.9727 L 56.8359 -35.5469 C 59.3262 -38.4277 60.791 -40.5762 60.791 -43.2129 C 60.791 -46.875 58.2031 -49.2188 54.0527 -49.2188 C 50.0977 -49.2188 47.2656 -46.875 46.7773 -43.4082 C 46.582 -42.5293 46.1426 -42.041 45.3125 -42.041 C 44.3848 -42.041 43.8477 -42.6758 43.8477 -43.6035 C 43.8477 -43.9941 43.8965 -44.2871 43.9453 -44.7266 C 44.7754 -49.0234 49.0723 -52.0996 54.0039 -52.0996 C 59.9121 -52.0996 63.8184 -48.6816 63.8184 -43.3594 C 63.8184 -39.9902 62.1094 -37.2559 58.6426 -33.252 L 49.0723 -22.0703 L 49.0723 -21.9238 L 63.3789 -21.9238 C 64.209 -21.9238 64.7461 -21.3379 64.7461 -20.459 C 64.7461 -19.6777 64.209 -18.9941 63.3789 -18.9941 Z M 33.3496 -18.7012 C 32.4707 -18.7012 31.8848 -19.2871 31.8848 -20.2148 L 31.8848 -47.998 L 31.6895 -47.998 L 25.293 -43.75 C 24.8535 -43.457 24.6582 -43.457 24.3164 -43.457 C 23.5352 -43.457 22.9492 -44.0918 22.9492 -44.8242 C 22.9492 -45.459 23.1445 -45.8984 23.6816 -46.2402 L 31.2012 -51.1719 C 31.9336 -51.6602 32.373 -51.8555 33.2031 -51.8555 C 34.1309 -51.8555 34.8633 -51.1719 34.8633 -50.1465 L 34.8633 -20.2148 C 34.8633 -19.2871 34.2773 -18.7012 33.3496 -18.7012 Z"/>
  </g>
  <g id="Ultralight-S" transform="matrix(1 0 0 1 515.644 696)">
   <path d="M 44.043 2.05078 C 64.502 2.05078 81.2988 -14.6973 81.2988 -35.1562 C 81.2988 -55.6152 64.502 -72.3633 44.043 -72.3633 C 23.584 -72.3633 6.83594 -55.6152 6.83594 -35.1562 C 6.83594 -14.6973 23.584 2.05078 44.043 2.05078 Z M 45.5078 -19.0918 C 44.7266 -19.0918 44.2383 -19.5312 44.2383 -20.3125 C 44.2383 -20.8496 44.3359 -21.0938 44.6289 -21.4355 L 56.7383 -35.4492 C 59.4238 -38.5254 60.6445 -40.7227 60.6445 -43.3105 C 60.6445 -47.2168 57.8613 -49.7559 53.3691 -49.7559 C 49.0234 -49.7559 45.8984 -47.0215 45.6055 -43.3594 C 45.5078 -42.627 45.166 -42.2363 44.3848 -42.2363 C 43.6523 -42.2363 43.2617 -42.7734 43.2617 -43.457 C 43.2617 -43.7988 43.3105 -44.043 43.3594 -44.4824 C 44.0918 -48.8281 48.3398 -51.9531 53.3691 -51.9531 C 59.1309 -51.9531 62.9883 -48.584 62.9883 -43.3105 C 62.9883 -40.2344 61.4746 -37.5488 57.8125 -33.3496 L 47.5586 -21.3867 L 47.5586 -21.2891 L 62.8418 -21.2891 C 63.5742 -21.2891 63.9648 -20.8008 63.9648 -20.166 C 63.9648 -19.5801 63.5742 -19.0918 62.8418 -19.0918 Z M 32.7637 -18.7988 C 32.1289 -18.7988 31.6406 -19.2383 31.6406 -19.9219 L 31.6406 -48.8281 L 31.4941 -48.8281 L 24.2676 -44.1406 C 24.0234 -43.9941 23.9258 -43.9941 23.6816 -43.9941 C 23.0469 -43.9941 22.6074 -44.4824 22.6074 -45.0195 C 22.6074 -45.459 22.7539 -45.752 23.1445 -46.0449 L 31.2012 -51.3184 C 31.6895 -51.5625 32.0312 -51.709 32.6172 -51.709 C 33.3008 -51.709 33.8867 -51.2207 33.8867 -50.4883 L 33.8867 -19.9219 C 33.8867 -19.2383 33.4473 -18.7988 32.7637 -18.7988 Z"/>
  </g>
 </g>
</svg>
