<?xml version="1.0" encoding="UTF-8"?>
<!--Generator: Apple Native CoreSVG 123-->
<!DOCTYPE svg
PUBLIC "-//W3C//DTD SVG 1.1//EN"
       "http://www.w3.org/Graphics/SVG/1.1/DTD/svg11.dtd">
<svg version="1.1" xmlns="http://www.w3.org/2000/svg" xmlns:xlink="http://www.w3.org/1999/xlink" width="3300" height="2200">
 <!--glyph: "uni100517.medium", point size: 100.000000, font version: "Version 15.0d7e11", template writer version: "5"-->
 <g id="Notes">
  <rect height="2200" id="artboard" style="fill:white;opacity:1" width="3300" x="0" y="0"/>
  <line id="" style="fill:none;stroke:black;opacity:1;stroke-width:0.5;" x1="263" x2="3036" y1="292" y2="292"/>
  <text style="stroke:none;fill:black;font-family:-apple-system,&quot;SF Pro Display&quot;,&quot;SF Pro Text&quot;,Helvetica,sans-serif;font-weight:bold;" transform="matrix(1 0 0 1 263 322)">Weight/Scale Variations</text>
  <text style="stroke:none;fill:black;font-family:-apple-system,&quot;SF Pro Display&quot;,&quot;SF Pro Text&quot;,Helvetica,sans-serif;text-anchor:middle;" transform="matrix(1 0 0 1 559.711 322)">Ultralight</text>
  <text style="stroke:none;fill:black;font-family:-apple-system,&quot;SF Pro Display&quot;,&quot;SF Pro Text&quot;,Helvetica,sans-serif;text-anchor:middle;" transform="matrix(1 0 0 1 856.422 322)">Thin</text>
  <text style="stroke:none;fill:black;font-family:-apple-system,&quot;SF Pro Display&quot;,&quot;SF Pro Text&quot;,Helvetica,sans-serif;text-anchor:middle;" transform="matrix(1 0 0 1 1153.13 322)">Light</text>
  <text style="stroke:none;fill:black;font-family:-apple-system,&quot;SF Pro Display&quot;,&quot;SF Pro Text&quot;,Helvetica,sans-serif;text-anchor:middle;" transform="matrix(1 0 0 1 1449.84 322)">Regular</text>
  <text style="stroke:none;fill:black;font-family:-apple-system,&quot;SF Pro Display&quot;,&quot;SF Pro Text&quot;,Helvetica,sans-serif;text-anchor:middle;" transform="matrix(1 0 0 1 1746.56 322)">Medium</text>
  <text style="stroke:none;fill:black;font-family:-apple-system,&quot;SF Pro Display&quot;,&quot;SF Pro Text&quot;,Helvetica,sans-serif;text-anchor:middle;" transform="matrix(1 0 0 1 2043.27 322)">Semibold</text>
  <text style="stroke:none;fill:black;font-family:-apple-system,&quot;SF Pro Display&quot;,&quot;SF Pro Text&quot;,Helvetica,sans-serif;text-anchor:middle;" transform="matrix(1 0 0 1 2339.98 322)">Bold</text>
  <text style="stroke:none;fill:black;font-family:-apple-system,&quot;SF Pro Display&quot;,&quot;SF Pro Text&quot;,Helvetica,sans-serif;text-anchor:middle;" transform="matrix(1 0 0 1 2636.69 322)">Heavy</text>
  <text style="stroke:none;fill:black;font-family:-apple-system,&quot;SF Pro Display&quot;,&quot;SF Pro Text&quot;,Helvetica,sans-serif;text-anchor:middle;" transform="matrix(1 0 0 1 2933.4 322)">Black</text>
  <line id="" style="fill:none;stroke:black;opacity:1;stroke-width:0.5;" x1="263" x2="3036" y1="1903" y2="1903"/>
  <g id="" transform="matrix(1 0 0 1 263 1933)">
   <path d="M 9.24805 0.830078 C 13.5547 0.830078 17.1387 -2.74414 17.1387 -7.05078 C 17.1387 -11.3574 13.5449 -14.9316 9.23828 -14.9316 C 4.94141 -14.9316 1.36719 -11.3574 1.36719 -7.05078 C 1.36719 -2.74414 4.95117 0.830078 9.24805 0.830078 Z M 9.24805 -0.654297 C 5.70312 -0.654297 2.87109 -3.49609 2.87109 -7.05078 C 2.87109 -10.6055 5.69336 -13.4473 9.23828 -13.4473 C 12.793 -13.4473 15.6348 -10.6055 15.6445 -7.05078 C 15.6543 -3.49609 12.8027 -0.654297 9.24805 -0.654297 Z M 9.22852 -3.42773 C 9.69727 -3.42773 9.9707 -3.74023 9.9707 -4.25781 L 9.9707 -6.31836 L 12.1973 -6.31836 C 12.6953 -6.31836 13.0371 -6.57227 13.0371 -7.04102 C 13.0371 -7.51953 12.7148 -7.7832 12.1973 -7.7832 L 9.9707 -7.7832 L 9.9707 -10.0098 C 9.9707 -10.5273 9.69727 -10.8496 9.22852 -10.8496 C 8.75977 -10.8496 8.50586 -10.5078 8.50586 -10.0098 L 8.50586 -7.7832 L 6.29883 -7.7832 C 5.78125 -7.7832 5.44922 -7.51953 5.44922 -7.04102 C 5.44922 -6.57227 5.80078 -6.31836 6.29883 -6.31836 L 8.50586 -6.31836 L 8.50586 -4.25781 C 8.50586 -3.75977 8.75977 -3.42773 9.22852 -3.42773 Z"/>
  </g>
  <g id="" transform="matrix(1 0 0 1 281.506 1933)">
   <path d="M 11.709 2.91016 C 17.1582 2.91016 21.6699 -1.60156 21.6699 -7.05078 C 21.6699 -12.4902 17.1484 -17.0117 11.6992 -17.0117 C 6.25977 -17.0117 1.74805 -12.4902 1.74805 -7.05078 C 1.74805 -1.60156 6.26953 2.91016 11.709 2.91016 Z M 11.709 1.25 C 7.09961 1.25 3.41797 -2.44141 3.41797 -7.05078 C 3.41797 -11.6504 7.08984 -15.3516 11.6992 -15.3516 C 16.3086 -15.3516 20 -11.6504 20.0098 -7.05078 C 20.0195 -2.44141 16.3184 1.25 11.709 1.25 Z M 11.6895 -2.41211 C 12.207 -2.41211 12.5195 -2.77344 12.5195 -3.33984 L 12.5195 -6.23047 L 15.5762 -6.23047 C 16.123 -6.23047 16.5039 -6.51367 16.5039 -7.03125 C 16.5039 -7.55859 16.1426 -7.86133 15.5762 -7.86133 L 12.5195 -7.86133 L 12.5195 -10.9277 C 12.5195 -11.5039 12.207 -11.8555 11.6895 -11.8555 C 11.1719 -11.8555 10.8789 -11.4844 10.8789 -10.9277 L 10.8789 -7.86133 L 7.83203 -7.86133 C 7.26562 -7.86133 6.89453 -7.55859 6.89453 -7.03125 C 6.89453 -6.51367 7.28516 -6.23047 7.83203 -6.23047 L 10.8789 -6.23047 L 10.8789 -3.33984 C 10.8789 -2.79297 11.1719 -2.41211 11.6895 -2.41211 Z"/>
  </g>
  <g id="" transform="matrix(1 0 0 1 304.924 1933)">
   <path d="M 14.9707 5.67383 C 21.9336 5.67383 27.6953 -0.078125 27.6953 -7.04102 C 27.6953 -14.0039 21.9238 -19.7559 14.9609 -19.7559 C 8.00781 -19.7559 2.25586 -14.0039 2.25586 -7.04102 C 2.25586 -0.078125 8.01758 5.67383 14.9707 5.67383 Z M 14.9707 3.85742 C 8.93555 3.85742 4.08203 -1.00586 4.08203 -7.04102 C 4.08203 -13.0762 8.92578 -17.9395 14.9609 -17.9395 C 21.0059 -17.9395 25.8594 -13.0762 25.8691 -7.04102 C 25.8789 -1.00586 21.0156 3.85742 14.9707 3.85742 Z M 14.9512 -1.06445 C 15.5176 -1.06445 15.8691 -1.45508 15.8691 -2.06055 L 15.8691 -6.13281 L 20.1074 -6.13281 C 20.6934 -6.13281 21.1133 -6.46484 21.1133 -7.02148 C 21.1133 -7.59766 20.7227 -7.93945 20.1074 -7.93945 L 15.8691 -7.93945 L 15.8691 -12.1875 C 15.8691 -12.8027 15.5176 -13.1934 14.9512 -13.1934 C 14.3848 -13.1934 14.0625 -12.7832 14.0625 -12.1875 L 14.0625 -7.93945 L 9.83398 -7.93945 C 9.21875 -7.93945 8.80859 -7.59766 8.80859 -7.02148 C 8.80859 -6.46484 9.23828 -6.13281 9.83398 -6.13281 L 14.0625 -6.13281 L 14.0625 -2.06055 C 14.0625 -1.47461 14.3848 -1.06445 14.9512 -1.06445 Z"/>
  </g>
  <text style="stroke:none;fill:black;font-family:-apple-system,&quot;SF Pro Display&quot;,&quot;SF Pro Text&quot;,Helvetica,sans-serif;font-weight:bold;" transform="matrix(1 0 0 1 263 1953)">Design Variations</text>
  <text style="stroke:none;fill:black;font-family:-apple-system,&quot;SF Pro Display&quot;,&quot;SF Pro Text&quot;,Helvetica,sans-serif;" transform="matrix(1 0 0 1 263 1971)">Symbols are supported in up to nine weights and three scales.</text>
  <text style="stroke:none;fill:black;font-family:-apple-system,&quot;SF Pro Display&quot;,&quot;SF Pro Text&quot;,Helvetica,sans-serif;" transform="matrix(1 0 0 1 263 1989)">For optimal layout with text and other symbols, vertically align</text>
  <text style="stroke:none;fill:black;font-family:-apple-system,&quot;SF Pro Display&quot;,&quot;SF Pro Text&quot;,Helvetica,sans-serif;" transform="matrix(1 0 0 1 263 2007)">symbols with the adjacent text.</text>
  <rect height="14" id="" style="fill:#00AEEF;stroke:none;opacity:0.4;" width="3" x="776" y="1919"/>
  <g id="" transform="matrix(1 0 0 1 779 1933)">
   <path d="M 10.5273 0 L 12.373 0 L 7.17773 -14.0918 L 5.43945 -14.0918 L 0.244141 0 L 2.08984 0 L 3.50586 -4.0332 L 9.11133 -4.0332 Z M 6.2793 -11.9531 L 6.33789 -11.9531 L 8.59375 -5.52734 L 4.02344 -5.52734 Z"/>
  </g>
  <rect height="14" id="" style="fill:#00AEEF;stroke:none;opacity:0.4;" width="3" x="791.617" y="1919"/>
  <text style="stroke:none;fill:black;font-family:-apple-system,&quot;SF Pro Display&quot;,&quot;SF Pro Text&quot;,Helvetica,sans-serif;font-weight:bold;" transform="matrix(1 0 0 1 776 1953)">Margins</text>
  <text style="stroke:none;fill:black;font-family:-apple-system,&quot;SF Pro Display&quot;,&quot;SF Pro Text&quot;,Helvetica,sans-serif;" transform="matrix(1 0 0 1 776 1971)">Leading and trailing margins on the left and right side of each symbol</text>
  <text style="stroke:none;fill:black;font-family:-apple-system,&quot;SF Pro Display&quot;,&quot;SF Pro Text&quot;,Helvetica,sans-serif;" transform="matrix(1 0 0 1 776 1989)">can be adjusted by modifying the width of the blue rectangles.</text>
  <text style="stroke:none;fill:black;font-family:-apple-system,&quot;SF Pro Display&quot;,&quot;SF Pro Text&quot;,Helvetica,sans-serif;" transform="matrix(1 0 0 1 776 2007)">Modifications are automatically applied proportionally to all</text>
  <text style="stroke:none;fill:black;font-family:-apple-system,&quot;SF Pro Display&quot;,&quot;SF Pro Text&quot;,Helvetica,sans-serif;" transform="matrix(1 0 0 1 776 2025)">scales and weights.</text>
  <g id="" transform="matrix(1 0 0 1 1289 1933)">
   <path d="M 2.83203 3.11523 L 4.375 4.6582 C 5.22461 5.48828 6.19141 5.41992 7.06055 4.46289 L 17.2754 -6.66016 C 17.7051 -6.36719 18.0957 -6.37695 18.5645 -6.47461 L 19.6094 -6.68945 L 20.3027 -5.99609 L 20.2539 -5.47852 C 20.1855 -4.95117 20.3516 -4.53125 20.8496 -4.0332 L 21.6602 -3.22266 C 22.168 -2.71484 22.8223 -2.68555 23.3008 -3.16406 L 26.5527 -6.41602 C 27.0312 -6.89453 27.0117 -7.54883 26.5039 -8.05664 L 25.6836 -8.87695 C 25.1855 -9.375 24.7754 -9.55078 24.2383 -9.47266 L 23.7109 -9.41406 L 23.0566 -10.0781 L 23.3398 -11.2207 C 23.4863 -11.7871 23.3398 -12.2559 22.7148 -12.8613 L 20.3027 -15.2539 C 16.7578 -18.7793 12.2266 -18.6719 9.11133 -15.5371 C 8.69141 -15.1074 8.64258 -14.5215 8.91602 -14.0918 C 9.15039 -13.7207 9.62891 -13.4961 10.2734 -13.6621 C 11.7871 -14.043 13.3008 -13.9258 14.7852 -12.9199 L 14.1602 -11.3379 C 13.9258 -10.752 13.9453 -10.2734 14.1797 -9.83398 L 3.01758 0.439453 C 2.08008 1.30859 1.97266 2.25586 2.83203 3.11523 Z M 10.6738 -15.1465 C 13.3398 -17.1387 16.6504 -16.8262 19.0527 -14.4141 L 21.6797 -11.8066 C 21.9141 -11.5723 21.9434 -11.3867 21.8848 -11.0938 L 21.5039 -9.53125 L 23.0762 -7.95898 L 24.043 -8.04688 C 24.3262 -8.07617 24.4141 -8.05664 24.6387 -7.83203 L 25.2637 -7.20703 L 22.5098 -4.46289 L 21.8848 -5.07812 C 21.6602 -5.30273 21.6406 -5.40039 21.6699 -5.68359 L 21.7578 -6.64062 L 20.1953 -8.20312 L 18.5742 -7.89062 C 18.291 -7.83203 18.1445 -7.83203 17.9102 -8.07617 L 15.7324 -10.2539 C 15.5078 -10.4883 15.4785 -10.625 15.6055 -10.9473 L 16.5527 -13.2227 C 14.9512 -14.7559 12.8418 -15.6055 10.8008 -14.9512 C 10.7129 -14.9219 10.6445 -14.9414 10.6152 -14.9805 C 10.5859 -15.0293 10.5859 -15.0781 10.6738 -15.1465 Z M 4.10156 2.41211 C 3.61328 1.91406 3.78906 1.61133 4.12109 1.30859 L 15.0781 -8.80859 L 16.3086 -7.57812 L 6.15234 3.34961 C 5.84961 3.68164 5.46875 3.7793 5.06836 3.37891 Z"/>
  </g>
  <text style="stroke:none;fill:black;font-family:-apple-system,&quot;SF Pro Display&quot;,&quot;SF Pro Text&quot;,Helvetica,sans-serif;font-weight:bold;" transform="matrix(1 0 0 1 1289 1953)">Exporting</text>
  <text style="stroke:none;fill:black;font-family:-apple-system,&quot;SF Pro Display&quot;,&quot;SF Pro Text&quot;,Helvetica,sans-serif;" transform="matrix(1 0 0 1 1289 1971)">Symbols should be outlined when exporting to ensure the</text>
  <text style="stroke:none;fill:black;font-family:-apple-system,&quot;SF Pro Display&quot;,&quot;SF Pro Text&quot;,Helvetica,sans-serif;" transform="matrix(1 0 0 1 1289 1989)">design is preserved when submitting to Xcode.</text>
  <text id="template-version" style="stroke:none;fill:black;font-family:-apple-system,&quot;SF Pro Display&quot;,&quot;SF Pro Text&quot;,Helvetica,sans-serif;text-anchor:end;" transform="matrix(1 0 0 1 3036 1933)">Template v.1.0</text>
  <text style="stroke:none;fill:black;font-family:-apple-system,&quot;SF Pro Display&quot;,&quot;SF Pro Text&quot;,Helvetica,sans-serif;text-anchor:end;" transform="matrix(1 0 0 1 3036 1951)">Generated from 13.circle.fill</text>
  <text style="stroke:none;fill:black;font-family:-apple-system,&quot;SF Pro Display&quot;,&quot;SF Pro Text&quot;,Helvetica,sans-serif;text-anchor:end;" transform="matrix(1 0 0 1 3036 1969)">Typeset at 100 points</text>
  <text style="stroke:none;fill:black;font-family:-apple-system,&quot;SF Pro Display&quot;,&quot;SF Pro Text&quot;,Helvetica,sans-serif;" transform="matrix(1 0 0 1 263 726)">Small</text>
  <text style="stroke:none;fill:black;font-family:-apple-system,&quot;SF Pro Display&quot;,&quot;SF Pro Text&quot;,Helvetica,sans-serif;" transform="matrix(1 0 0 1 263 1156)">Medium</text>
  <text style="stroke:none;fill:black;font-family:-apple-system,&quot;SF Pro Display&quot;,&quot;SF Pro Text&quot;,Helvetica,sans-serif;" transform="matrix(1 0 0 1 263 1586)">Large</text>
 </g>
 <g id="Guides">
  <g id="H-reference" style="fill:#27AAE1;stroke:none;" transform="matrix(1 0 0 1 339 696)">
   <path d="M 54.9316 0 L 57.666 0 L 30.5664 -70.459 L 28.0762 -70.459 L 0.976562 0 L 3.66211 0 L 12.9395 -24.4629 L 45.7031 -24.4629 Z M 29.1992 -67.0898 L 29.4434 -67.0898 L 44.8242 -26.709 L 13.8184 -26.709 Z"/>
  </g>
  <line id="Baseline-S" style="fill:none;stroke:#27AAE1;opacity:1;stroke-width:0.577;" x1="263" x2="3036" y1="696" y2="696"/>
  <line id="Capline-S" style="fill:none;stroke:#27AAE1;opacity:1;stroke-width:0.577;" x1="263" x2="3036" y1="625.541" y2="625.541"/>
  <g id="H-reference" style="fill:#27AAE1;stroke:none;" transform="matrix(1 0 0 1 339 1126)">
   <path d="M 54.9316 0 L 57.666 0 L 30.5664 -70.459 L 28.0762 -70.459 L 0.976562 0 L 3.66211 0 L 12.9395 -24.4629 L 45.7031 -24.4629 Z M 29.1992 -67.0898 L 29.4434 -67.0898 L 44.8242 -26.709 L 13.8184 -26.709 Z"/>
  </g>
  <line id="Baseline-M" style="fill:none;stroke:#27AAE1;opacity:1;stroke-width:0.577;" x1="263" x2="3036" y1="1126" y2="1126"/>
  <line id="Capline-M" style="fill:none;stroke:#27AAE1;opacity:1;stroke-width:0.577;" x1="263" x2="3036" y1="1055.54" y2="1055.54"/>
  <g id="H-reference" style="fill:#27AAE1;stroke:none;" transform="matrix(1 0 0 1 339 1556)">
   <path d="M 54.9316 0 L 57.666 0 L 30.5664 -70.459 L 28.0762 -70.459 L 0.976562 0 L 3.66211 0 L 12.9395 -24.4629 L 45.7031 -24.4629 Z M 29.1992 -67.0898 L 29.4434 -67.0898 L 44.8242 -26.709 L 13.8184 -26.709 Z"/>
  </g>
  <line id="Baseline-L" style="fill:none;stroke:#27AAE1;opacity:1;stroke-width:0.577;" x1="263" x2="3036" y1="1556" y2="1556"/>
  <line id="Capline-L" style="fill:none;stroke:#27AAE1;opacity:1;stroke-width:0.577;" x1="263" x2="3036" y1="1485.54" y2="1485.54"/>
  <rect height="119.336" id="left-margin" style="fill:#00AEEF;stroke:none;opacity:0.4;" width="8.74023" x="1391.3" y="1030.79"/>
  <rect height="119.336" id="right-margin" style="fill:#00AEEF;stroke:none;opacity:0.4;" width="8.74023" x="1499.65" y="1030.79"/>
 </g>
 <g id="Symbols">
  <g id="Black-L" transform="matrix(1 0 0 1 2854.05 1556)">
   <path d="M 79.3457 32.8613 C 116.748 32.8613 147.412 2.19727 147.412 -35.2051 C 147.412 -72.6074 116.748 -103.271 79.2969 -103.271 C 41.8945 -103.271 11.2793 -72.6074 11.2793 -35.2051 C 11.2793 2.19727 41.9434 32.8613 79.3457 32.8613 Z M 94.873 -9.47266 C 87.1094 -9.47266 80.3711 -14.2578 78.8574 -19.4336 C 78.5645 -20.5078 78.3691 -21.4355 78.3691 -22.5098 C 78.3691 -25.9277 81.0547 -27.832 83.5449 -27.832 C 85.9375 -27.832 87.5488 -26.8555 88.7695 -24.9023 C 90.2344 -22.168 92.5293 -20.8984 95.1172 -20.8984 C 98.0469 -20.8984 99.9512 -22.9492 99.9512 -25.3418 C 99.9512 -28.125 98.1445 -29.8828 94.9219 -29.8828 L 93.9453 -29.8828 C 90.1367 -29.8828 88.3301 -32.2754 88.3301 -35.5957 C 88.3301 -38.9648 90.4297 -41.3574 93.9453 -41.3574 L 94.8242 -41.3574 C 97.8027 -41.3574 99.2188 -43.4082 99.2188 -45.7031 C 99.2188 -48.3887 97.3145 -50.0977 94.8242 -50.0977 C 92.2363 -50.0977 90.5273 -48.7793 89.1113 -46.0938 C 88.0371 -44.2383 86.4746 -43.0176 83.9844 -43.0176 C 81.1523 -43.0176 79.0039 -45.0195 79.0039 -48.3398 C 79.0039 -49.5117 79.1992 -50.5371 79.7852 -51.9043 C 81.3477 -56.1523 86.9141 -61.084 95.0195 -61.084 C 105.029 -61.084 111.475 -55.7129 111.475 -47.5098 C 111.475 -42.4316 108.008 -37.6953 103.467 -36.9141 L 103.467 -36.377 C 108.936 -35.9375 112.646 -30.8105 112.646 -24.5605 C 112.646 -15.4297 105.713 -9.47266 94.873 -9.47266 Z M 64.4043 -9.66797 C 60.2539 -9.66797 58.252 -12.1094 58.252 -16.8457 L 58.252 -45.8496 L 57.959 -45.8496 L 55.0293 -42.9199 C 53.418 -41.1133 52.1973 -40.3809 50.1465 -40.3809 C 47.3633 -40.3809 45.1172 -42.7246 45.1172 -45.5566 C 45.1172 -47.998 46.1426 -49.707 48.4863 -51.8066 L 54.834 -57.3242 C 58.0566 -60.2051 60.1562 -60.9863 62.8418 -60.9863 C 67.8711 -60.9863 70.5078 -57.959 70.5078 -52.832 L 70.5078 -16.8457 C 70.5078 -12.1094 68.457 -9.66797 64.4043 -9.66797 Z"/>
  </g>
  <g id="Heavy-L" transform="matrix(1 0 0 1 2558.39 1556)">
   <path d="M 78.2715 31.7871 C 115.088 31.7871 145.312 1.61133 145.312 -35.2051 C 145.312 -72.0215 115.039 -102.197 78.2715 -102.197 C 41.4551 -102.197 11.2793 -72.0215 11.2793 -35.2051 C 11.2793 1.61133 41.5039 31.7871 78.2715 31.7871 Z M 93.7012 -8.88672 C 85.6934 -8.88672 78.9062 -13.8184 77.3438 -19.1895 C 77.0508 -20.166 76.8555 -21.0449 76.8555 -22.0703 C 76.8555 -25.1953 79.248 -27.002 81.5918 -27.002 C 83.8379 -27.002 85.3027 -25.9766 86.377 -24.0723 C 87.9395 -20.8496 90.625 -19.1895 93.8965 -19.1895 C 97.7539 -19.1895 100.342 -21.7285 100.342 -24.8535 C 100.342 -28.3203 97.9004 -30.5664 93.8477 -30.5664 L 92.0898 -30.5664 C 88.7207 -30.5664 87.0605 -32.7148 87.0605 -35.7422 C 87.0605 -38.8184 88.9648 -40.918 92.0898 -40.918 L 93.75 -40.918 C 97.3145 -40.918 99.3652 -43.4082 99.3652 -46.3867 C 99.3652 -49.5605 96.9727 -51.709 93.7012 -51.709 C 90.4297 -51.709 88.3301 -50.0488 86.9141 -46.8262 C 85.9375 -44.9219 84.5215 -43.7988 82.2266 -43.7988 C 79.541 -43.7988 77.5879 -45.6543 77.5879 -48.7305 C 77.5879 -49.8047 77.7344 -50.7324 78.2715 -51.9531 C 79.8828 -56.7383 85.6934 -61.6699 93.8965 -61.6699 C 103.809 -61.6699 110.4 -56.1523 110.4 -47.9492 C 110.4 -42.627 106.738 -37.6465 101.953 -36.8652 L 101.953 -36.377 C 107.666 -35.8887 111.719 -30.6152 111.719 -24.2188 C 111.719 -14.9902 104.59 -8.88672 93.7012 -8.88672 Z M 62.5488 -9.17969 C 58.8867 -9.17969 57.0312 -11.377 57.0312 -15.5273 L 57.0312 -47.7539 L 56.7383 -47.7539 L 52.5391 -44.1406 C 51.0254 -42.5293 49.9512 -41.9922 48.1445 -41.9922 C 45.6543 -41.9922 43.5547 -44.1406 43.5547 -46.7773 C 43.5547 -48.9746 44.4824 -50.4883 46.582 -52.3438 L 54.0039 -58.252 C 56.8848 -60.791 58.7891 -61.4746 61.2793 -61.4746 C 65.6738 -61.4746 68.1152 -58.7891 68.1152 -54.2969 L 68.1152 -15.5273 C 68.1152 -11.377 66.2109 -9.17969 62.5488 -9.17969 Z"/>
  </g>
  <g id="Bold-L" transform="matrix(1 0 0 1 2262.88 1556)">
   <path d="M 77.0996 30.6152 C 113.232 30.6152 142.92 0.878906 142.92 -35.2051 C 142.92 -71.3379 113.184 -101.025 77.0508 -101.025 C 40.9668 -101.025 11.2793 -71.3379 11.2793 -35.2051 C 11.2793 0.878906 41.0156 30.6152 77.0996 30.6152 Z M 92.4316 -8.25195 C 84.082 -8.25195 77.2461 -13.3301 75.6348 -18.8965 C 75.3418 -19.8242 75.1953 -20.6055 75.1953 -21.582 C 75.1953 -24.3164 77.2461 -26.0254 79.4434 -26.0254 C 81.4941 -26.0254 82.7637 -25.0488 83.7402 -23.0957 C 85.4004 -19.3359 88.5254 -17.2852 92.5781 -17.2852 C 97.4121 -17.2852 100.732 -20.3613 100.732 -24.3652 C 100.732 -28.5645 97.6074 -31.3477 92.6758 -31.3477 L 90.0879 -31.3477 C 87.207 -31.3477 85.6934 -33.252 85.6934 -35.8887 C 85.6934 -38.623 87.3535 -40.4297 90.0879 -40.4297 L 92.4805 -40.4297 C 96.7773 -40.4297 99.5117 -43.3594 99.5117 -47.1191 C 99.5117 -50.9277 96.582 -53.4668 92.4805 -53.4668 C 88.4277 -53.4668 85.791 -51.416 84.4238 -47.6562 C 83.5938 -45.7031 82.3242 -44.6777 80.2246 -44.6777 C 77.7832 -44.6777 76.0254 -46.3867 76.0254 -49.1211 C 76.0254 -50.0977 76.1719 -50.9277 76.5625 -52.0508 C 78.1738 -57.4219 84.2773 -62.3047 92.627 -62.3047 C 102.49 -62.3047 109.18 -56.6895 109.18 -48.4375 C 109.18 -42.8223 105.273 -37.6465 100.244 -36.8164 L 100.244 -36.377 C 106.299 -35.791 110.693 -30.4199 110.693 -23.8281 C 110.693 -14.5508 103.369 -8.25195 92.4316 -8.25195 Z M 60.498 -8.69141 C 57.373 -8.69141 55.6152 -10.5957 55.6152 -14.1113 L 55.6152 -49.9023 L 55.3223 -49.9023 L 49.7559 -45.5078 C 48.3398 -44.1406 47.4609 -43.75 45.9473 -43.75 C 43.75 -43.75 41.7969 -45.7031 41.7969 -48.0957 C 41.7969 -50.0488 42.627 -51.416 44.4336 -52.8809 L 53.0273 -59.2773 C 55.6152 -61.377 57.2266 -62.0605 59.5215 -62.0605 C 63.2324 -62.0605 65.3809 -59.7168 65.3809 -55.9082 L 65.3809 -14.1113 C 65.3809 -10.5957 63.6719 -8.69141 60.498 -8.69141 Z"/>
  </g>
  <g id="Semibold-L" transform="matrix(1 0 0 1 1966.97 1556)">
   <path d="M 76.2695 29.7852 C 111.914 29.7852 141.309 0.439453 141.309 -35.2051 C 141.309 -70.8496 111.865 -100.244 76.2695 -100.244 C 40.625 -100.244 11.2793 -70.8496 11.2793 -35.2051 C 11.2793 0.439453 40.6738 29.7852 76.2695 29.7852 Z M 91.5039 -7.76367 C 82.959 -7.76367 76.123 -12.9883 74.4141 -18.7012 C 74.1699 -19.5801 74.0234 -20.3125 74.0234 -21.2891 C 74.0234 -23.7305 75.8301 -25.3418 77.9785 -25.3418 C 79.8828 -25.3418 81.0547 -24.4141 81.9336 -22.4609 C 83.6426 -18.3105 87.1094 -15.9668 91.6504 -15.9668 C 97.168 -15.9668 101.025 -19.4336 101.025 -23.9746 C 101.025 -28.7109 97.4121 -31.8848 91.8945 -31.8848 L 88.6719 -31.8848 C 86.1328 -31.8848 84.7168 -33.5938 84.7168 -35.9863 C 84.7168 -38.4766 86.2793 -40.1367 88.6719 -40.1367 L 91.6504 -40.1367 C 96.4355 -40.1367 99.6094 -43.3594 99.6094 -47.6074 C 99.6094 -51.8555 96.3379 -54.6875 91.6016 -54.6875 C 87.0605 -54.6875 84.082 -52.3926 82.7637 -48.2422 C 81.9824 -46.2891 80.8594 -45.3125 78.8574 -45.3125 C 76.5625 -45.3125 74.9512 -46.9238 74.9512 -49.4141 C 74.9512 -50.3418 75.0488 -51.0742 75.3906 -52.0996 C 77.002 -57.8613 83.3496 -62.7441 91.7969 -62.7441 C 101.611 -62.7441 108.35 -57.0312 108.35 -48.7793 C 108.35 -42.9688 104.297 -37.6465 99.0723 -36.7676 L 99.0723 -36.377 C 105.371 -35.7422 109.961 -30.2734 109.961 -23.5352 C 109.961 -14.2578 102.49 -7.76367 91.5039 -7.76367 Z M 59.082 -8.30078 C 56.2988 -8.30078 54.6875 -10.0586 54.6875 -13.0859 L 54.6875 -51.3672 L 54.3457 -51.3672 L 47.8516 -46.4844 C 46.4844 -45.2637 45.7031 -44.9707 44.4336 -44.9707 C 42.3828 -44.9707 40.5762 -46.7773 40.5762 -49.0234 C 40.5762 -50.7812 41.3574 -52.002 42.9688 -53.2715 L 52.3438 -59.9609 C 54.6875 -61.8164 56.1523 -62.4512 58.3008 -62.4512 C 61.5234 -62.4512 63.5254 -60.3516 63.5254 -57.0312 L 63.5254 -13.0859 C 63.5254 -10.0586 61.9141 -8.30078 59.082 -8.30078 Z"/>
  </g>
  <g id="Medium-L" transform="matrix(1 0 0 1 1670.87 1556)">
   <path d="M 75.6836 29.1992 C 110.938 29.1992 140.088 0.0488281 140.088 -35.2051 C 140.088 -70.459 110.889 -99.6094 75.6348 -99.6094 C 40.3809 -99.6094 11.2793 -70.459 11.2793 -35.2051 C 11.2793 0.0488281 40.3809 29.1992 75.6836 29.1992 Z M 90.8203 -7.4707 C 82.1289 -7.4707 75.2441 -12.6953 73.5352 -18.5547 C 73.291 -19.4336 73.1445 -20.0684 73.1445 -20.9961 C 73.1445 -23.291 74.8047 -24.8047 76.8066 -24.8047 C 78.6621 -24.8047 79.7363 -23.877 80.5664 -21.9727 C 82.2754 -17.5293 85.9863 -14.9902 90.918 -14.9902 C 97.0215 -14.9902 101.221 -18.75 101.221 -23.7305 C 101.221 -28.8086 97.2656 -32.2754 91.2598 -32.2754 L 87.5977 -32.2754 C 85.3516 -32.2754 83.9844 -33.8867 83.9844 -36.0352 C 83.9844 -38.3789 85.4004 -39.8926 87.5977 -39.8926 L 91.0156 -39.8926 C 96.1426 -39.8926 99.707 -43.3594 99.707 -47.998 C 99.707 -52.5391 96.0938 -55.6152 90.9668 -55.6152 C 85.9863 -55.6152 82.7637 -53.125 81.4453 -48.6328 C 80.7617 -46.6797 79.6875 -45.752 77.832 -45.752 C 75.6348 -45.752 74.1699 -47.3145 74.1699 -49.6094 C 74.1699 -50.4883 74.2188 -51.2207 74.4629 -52.1484 C 76.123 -58.2031 82.6172 -63.0859 91.1133 -63.0859 C 100.928 -63.0859 107.715 -57.3242 107.715 -49.0234 C 107.715 -43.0664 103.564 -37.6465 98.1934 -36.7676 L 98.1934 -36.377 C 104.639 -35.7422 109.424 -30.1758 109.424 -23.3398 C 109.424 -14.0137 101.855 -7.4707 90.8203 -7.4707 Z M 58.0078 -8.00781 C 55.4688 -8.00781 53.9551 -9.66797 53.9551 -12.3535 L 53.9551 -52.4902 L 53.6133 -52.4902 L 46.3867 -47.2168 C 45.0684 -46.0938 44.3848 -45.8984 43.2617 -45.8984 C 41.4062 -45.8984 39.6973 -47.6074 39.6973 -49.707 C 39.6973 -51.3184 40.3809 -52.4902 41.8457 -53.5645 L 51.8555 -60.5469 C 54.0527 -62.1582 55.3223 -62.7441 57.373 -62.7441 C 60.2539 -62.7441 62.1094 -60.8398 62.1094 -57.8613 L 62.1094 -12.3535 C 62.1094 -9.66797 60.5469 -8.00781 58.0078 -8.00781 Z"/>
  </g>
  <g id="Regular-L" transform="matrix(1 0 0 1 1374.97 1556)">
   <path d="M 74.8535 28.3691 C 109.668 28.3691 138.477 -0.390625 138.477 -35.2051 C 138.477 -70.0195 109.619 -98.7793 74.8047 -98.7793 C 40.0391 -98.7793 11.2793 -70.0195 11.2793 -35.2051 C 11.2793 -0.390625 40.0879 28.3691 74.8535 28.3691 Z M 89.9414 -6.98242 C 81.0547 -6.98242 74.1211 -12.3535 72.3633 -18.4082 C 72.168 -19.1895 72.0215 -19.7754 72.0215 -20.6543 C 72.0215 -22.7051 73.4375 -24.1699 75.3418 -24.1699 C 77.0996 -24.1699 78.0273 -23.2422 78.7598 -21.3379 C 80.5176 -16.5039 84.5703 -13.6719 89.9902 -13.6719 C 96.7773 -13.6719 101.514 -17.8223 101.514 -23.3887 C 101.514 -28.9551 97.0703 -32.8125 90.4785 -32.8125 L 86.1816 -32.8125 C 84.2773 -32.8125 83.0566 -34.2285 83.0566 -36.1328 C 83.0566 -38.2324 84.3262 -39.5508 86.1816 -39.5508 L 90.1367 -39.5508 C 95.8008 -39.5508 99.8047 -43.3594 99.8047 -48.4863 C 99.8047 -53.4668 95.8496 -56.8359 90.1367 -56.8359 C 84.6191 -56.8359 81.0547 -54.0527 79.7852 -49.2188 C 79.1992 -47.2168 78.2227 -46.3379 76.4648 -46.3379 C 74.4141 -46.3379 73.0957 -47.8027 73.0957 -49.9023 C 73.0957 -50.7324 73.0957 -51.3672 73.3398 -52.1973 C 75 -58.6914 81.6406 -63.5254 90.2832 -63.5254 C 100 -63.5254 106.934 -57.666 106.934 -49.3652 C 106.934 -43.2129 102.588 -37.5977 97.0215 -36.7188 L 97.0215 -36.377 C 103.711 -35.6934 108.74 -30.0293 108.74 -23.0957 C 108.74 -13.6719 100.977 -6.98242 89.9414 -6.98242 Z M 56.5918 -7.66602 C 54.4434 -7.66602 53.0273 -9.13086 53.0273 -11.377 L 53.0273 -53.9551 L 52.6855 -53.9551 L 44.5312 -48.1445 C 43.2617 -47.168 42.6758 -47.1191 41.7969 -47.1191 C 40.0879 -47.1191 38.4766 -48.6328 38.4766 -50.6348 C 38.4766 -52.0996 39.1602 -53.125 40.3809 -53.9551 L 51.1719 -61.2305 C 53.1738 -62.5977 54.2969 -63.1348 56.2012 -63.1348 C 58.5938 -63.1348 60.2539 -61.4258 60.2539 -58.9355 L 60.2539 -11.377 C 60.2539 -9.13086 58.8379 -7.66602 56.5918 -7.66602 Z"/>
  </g>
  <g id="Light-L" transform="matrix(1 0 0 1 1079.18 1556)">
   <path d="M 73.9258 27.4902 C 108.301 27.4902 136.621 -0.830078 136.621 -35.1562 C 136.621 -69.5312 108.252 -97.8516 73.9258 -97.8516 C 39.5508 -97.8516 11.2793 -69.5312 11.2793 -35.1562 C 11.2793 -0.830078 39.5996 27.4902 73.9258 27.4902 Z M 88.7695 -7.32422 C 80.0781 -7.32422 73.291 -12.5 71.4844 -18.457 C 71.2891 -19.1406 71.0938 -19.7266 71.0938 -20.5078 C 71.0938 -22.168 72.2656 -23.3887 73.877 -23.3887 C 75.3418 -23.3887 76.0742 -22.6074 76.709 -20.9961 C 78.4668 -15.8691 83.0566 -12.793 88.8184 -12.793 C 96.2402 -12.793 101.27 -17.1875 101.27 -23.291 C 101.27 -29.1992 96.3867 -33.4473 89.3555 -33.4473 L 84.5703 -33.4473 C 82.959 -33.4473 81.9336 -34.6191 81.9336 -36.1816 C 81.9336 -37.8906 83.0078 -38.9648 84.5703 -38.9648 L 88.9648 -38.9648 C 95.1172 -38.9648 99.5117 -43.1152 99.5117 -48.6816 C 99.5117 -54.1016 95.2148 -57.7637 88.8672 -57.7637 C 82.9102 -57.7637 78.9062 -54.5898 77.7344 -49.5605 C 77.2949 -47.8516 76.4648 -47.1191 75 -47.1191 C 73.1934 -47.1191 72.2168 -48.3398 72.2168 -50.0977 C 72.2168 -50.7812 72.2656 -51.416 72.4121 -52.1484 C 74.0723 -58.6914 80.7617 -63.2324 88.916 -63.2324 C 98.4863 -63.2324 105.322 -57.4707 105.322 -49.3164 C 105.322 -43.2129 100.928 -37.5977 95.2148 -36.6211 L 95.2148 -36.377 C 102.002 -35.6445 107.178 -29.9805 107.178 -23.0957 C 107.178 -13.916 99.5117 -7.32422 88.7695 -7.32422 Z M 55.3223 -7.86133 C 53.6133 -7.86133 52.4414 -9.0332 52.4414 -10.8398 L 52.4414 -55.4199 L 52.1484 -55.4199 L 42.4805 -48.877 C 41.5527 -48.1934 41.1621 -48.1934 40.4297 -48.1934 C 39.0137 -48.1934 37.793 -49.4141 37.793 -50.9766 C 37.793 -52.0996 38.2324 -52.8809 39.2578 -53.5645 L 51.0742 -61.4258 C 52.5391 -62.4023 53.4668 -62.793 54.9805 -62.793 C 56.8359 -62.793 58.252 -61.5234 58.252 -59.5215 L 58.252 -10.8398 C 58.252 -9.0332 57.0801 -7.86133 55.3223 -7.86133 Z"/>
  </g>
  <g id="Thin-L" transform="matrix(1 0 0 1 783.693 1556)">
   <path d="M 72.7051 26.3184 C 106.494 26.3184 134.18 -1.36719 134.18 -35.1074 C 134.18 -68.8965 106.494 -96.582 72.7051 -96.582 C 38.9648 -96.582 11.2793 -68.8965 11.2793 -35.1074 C 11.2793 -1.36719 38.9648 26.3184 72.7051 26.3184 Z M 87.207 -7.71484 C 78.7598 -7.71484 72.2168 -12.6953 70.3125 -18.5059 C 70.1172 -19.043 69.9219 -19.6289 69.9219 -20.3125 C 69.9219 -21.4844 70.7031 -22.3633 71.875 -22.3633 C 72.998 -22.3633 73.5352 -21.7285 74.0234 -20.5078 C 75.7812 -14.9902 81.1035 -11.5723 87.207 -11.5723 C 95.5078 -11.5723 101.025 -16.3574 101.025 -23.1445 C 101.025 -29.4922 95.459 -34.3262 87.8906 -34.3262 L 82.373 -34.3262 C 81.1523 -34.3262 80.5176 -35.0586 80.5176 -36.2305 C 80.5176 -37.4023 81.25 -38.1348 82.373 -38.1348 L 87.4512 -38.1348 C 94.1895 -38.1348 99.1699 -42.8223 99.1699 -48.877 C 99.1699 -54.9316 94.3359 -58.9844 87.1582 -58.9844 C 80.6641 -58.9844 76.0742 -55.3223 75.0488 -50 C 74.7559 -48.6328 74.1211 -48.0957 73.0469 -48.0957 C 71.6309 -48.0957 70.9961 -49.0234 70.9961 -50.3418 C 70.9961 -50.8301 71.0938 -51.5137 71.2402 -52.0996 C 72.8027 -58.6914 79.541 -62.793 87.1582 -62.793 C 96.4844 -62.793 103.271 -57.2266 103.271 -49.2676 C 103.271 -43.2129 98.7305 -37.5488 92.8223 -36.5234 L 92.8223 -36.377 C 99.7559 -35.5957 105.127 -29.8828 105.127 -23.0957 C 105.127 -14.209 97.6074 -7.71484 87.207 -7.71484 Z M 53.6133 -8.1543 C 52.4902 -8.1543 51.709 -8.93555 51.709 -10.1074 L 51.709 -57.4219 L 51.416 -57.4219 L 39.7461 -49.8047 C 39.3066 -49.5605 39.0625 -49.5605 38.6719 -49.5605 C 37.6465 -49.5605 36.8652 -50.3906 36.8652 -51.416 C 36.8652 -52.0996 37.0605 -52.6367 37.793 -53.0762 L 50.8789 -61.6699 C 51.7578 -62.207 52.3438 -62.4023 53.3691 -62.4023 C 54.5898 -62.4023 55.5664 -61.6211 55.5664 -60.2539 L 55.5664 -10.1074 C 55.5664 -8.93555 54.834 -8.1543 53.6133 -8.1543 Z"/>
  </g>
  <g id="Ultralight-L" transform="matrix(1 0 0 1 487.616 1556)">
   <path d="M 72.1191 25.7324 C 105.566 25.7324 132.91 -1.61133 132.91 -35.1074 C 132.91 -68.5547 105.566 -95.8984 72.1191 -95.8984 C 38.623 -95.8984 11.2793 -68.5547 11.2793 -35.1074 C 11.2793 -1.61133 38.623 25.7324 72.1191 25.7324 Z M 86.4258 -7.95898 C 78.125 -7.95898 71.6309 -12.793 69.6777 -18.5547 C 69.5312 -18.9941 69.2871 -19.5801 69.2871 -20.166 C 69.2871 -21.0938 69.9219 -21.8262 70.8496 -21.8262 C 71.8262 -21.8262 72.2656 -21.2891 72.6074 -20.2637 C 74.3652 -14.5508 80.127 -10.9375 86.377 -10.9375 C 95.1172 -10.9375 100.879 -15.918 100.879 -23.0957 C 100.879 -29.6387 95.0195 -34.7656 87.1582 -34.7656 L 81.25 -34.7656 C 80.2246 -34.7656 79.7852 -35.3027 79.7852 -36.2305 C 79.7852 -37.1582 80.3223 -37.7441 81.25 -37.7441 L 86.6699 -37.7441 C 93.75 -37.7441 99.0234 -42.6758 99.0234 -48.9746 C 99.0234 -55.3223 93.8965 -59.6191 86.2793 -59.6191 C 79.4922 -59.6191 74.6094 -55.7129 73.6816 -50.2441 C 73.4863 -49.0723 72.9492 -48.6328 72.0703 -48.6328 C 70.8008 -48.6328 70.4102 -49.3652 70.4102 -50.4395 C 70.4102 -50.8789 70.5078 -51.5137 70.6543 -52.0508 C 72.168 -58.6914 78.9551 -62.5977 86.2793 -62.5977 C 95.459 -62.5977 102.197 -57.0801 102.197 -49.2676 C 102.197 -43.2129 97.6074 -37.5 91.6016 -36.4258 L 91.6016 -36.377 C 98.6328 -35.5957 104.053 -29.8828 104.053 -23.1445 C 104.053 -14.3555 96.6309 -7.95898 86.4258 -7.95898 Z M 52.7832 -8.30078 C 51.9531 -8.30078 51.3184 -8.83789 51.3184 -9.76562 L 51.3184 -58.4473 L 51.0742 -58.4473 L 38.3301 -50.293 C 38.1348 -50.2441 38.0371 -50.2441 37.793 -50.2441 C 36.9141 -50.2441 36.377 -50.8789 36.377 -51.6113 C 36.377 -52.0996 36.4746 -52.4902 37.0605 -52.832 L 50.7812 -61.7676 C 51.3672 -62.0605 51.7578 -62.207 52.5391 -62.207 C 53.418 -62.207 54.1992 -61.6699 54.1992 -60.6445 L 54.1992 -9.76562 C 54.1992 -8.83789 53.6621 -8.30078 52.7832 -8.30078 Z"/>
  </g>
  <g id="Black-M" transform="matrix(1 0 0 1 2870.97 1126)">
   <path d="M 62.4023 18.457 C 91.9922 18.457 116.113 -5.61523 116.113 -35.2051 C 116.113 -64.7949 91.9922 -88.8672 62.4023 -88.8672 C 32.8125 -88.8672 8.74023 -64.7949 8.74023 -35.2051 C 8.74023 -5.61523 32.8125 18.457 62.4023 18.457 Z M 51.709 -16.2109 C 48.1445 -16.2109 46.4844 -18.2129 46.4844 -22.4121 L 46.4844 -41.6504 L 46.2891 -41.6504 L 44.873 -39.8926 C 43.7012 -38.3789 42.627 -37.6465 40.8203 -37.6465 C 38.4766 -37.6465 36.6699 -39.5508 36.6699 -41.7969 C 36.6699 -43.7988 37.5 -45.2637 39.5508 -47.2168 L 43.6035 -51.1719 C 46.2402 -53.7598 48.0469 -54.3457 50.1953 -54.3457 C 54.6387 -54.3457 56.8359 -51.7578 56.8359 -47.2168 L 56.8359 -22.4121 C 56.8359 -18.2129 55.2246 -16.2109 51.709 -16.2109 Z M 74.4629 -16.2109 C 68.9453 -16.2109 63.8184 -19.6777 62.6953 -23.3398 C 62.4512 -24.2188 62.2559 -25 62.2559 -25.8789 C 62.2559 -28.7598 64.5996 -30.2734 66.5527 -30.2734 C 68.457 -30.2734 69.873 -29.541 70.8496 -28.1738 C 71.9238 -26.6113 73.4375 -25.9277 74.707 -25.9277 C 76.0742 -25.9277 76.8555 -27.002 76.8555 -28.125 C 76.8555 -29.5898 76.0254 -30.4688 74.3652 -30.4688 C 70.9473 -30.4688 69.5312 -32.4707 69.5312 -35.3516 C 69.5312 -38.1836 71.2891 -40.1855 74.3652 -40.1855 C 76.0742 -40.1855 76.5625 -41.5039 76.5625 -42.5293 C 76.5625 -44.1406 75.5859 -45.1172 74.3164 -45.1172 C 72.998 -45.1172 72.0215 -44.3848 70.9473 -42.8711 C 70.0195 -41.5527 68.7012 -40.625 66.6992 -40.625 C 64.4043 -40.625 62.6465 -42.1875 62.6465 -45.0195 C 62.6465 -45.9473 62.8418 -46.8262 63.4277 -48.0469 C 64.5996 -50.6348 68.5547 -54.2969 74.4141 -54.2969 C 82.1777 -54.2969 87.0117 -50.3418 87.0117 -44.1406 C 87.0117 -40.5273 84.5215 -37.1094 81.25 -36.5723 L 81.25 -36.1328 C 85.1562 -35.8398 87.7441 -32.0312 87.7441 -27.4414 C 87.7441 -20.5566 82.666 -16.2109 74.4629 -16.2109 Z"/>
  </g>
  <g id="Heavy-M" transform="matrix(1 0 0 1 2575.19 1126)">
   <path d="M 61.5234 17.5781 C 90.5273 17.5781 114.258 -6.15234 114.258 -35.2051 C 114.258 -64.2578 90.5273 -87.9883 61.4746 -87.9883 C 32.4707 -87.9883 8.74023 -64.2578 8.74023 -35.2051 C 8.74023 -6.15234 32.4707 17.5781 61.5234 17.5781 Z M 73.4863 -15.4785 C 67.627 -15.4785 62.4512 -19.1406 61.2793 -23.0469 C 61.0352 -23.877 60.8887 -24.6094 60.8887 -25.4395 C 60.8887 -28.0762 62.9395 -29.541 64.7949 -29.541 C 66.6504 -29.541 67.9199 -28.7598 68.7988 -27.3438 C 69.9707 -25.293 71.7773 -24.3164 73.6816 -24.3164 C 75.8789 -24.3164 77.3438 -25.8301 77.3438 -27.6367 C 77.3438 -29.7363 75.9277 -31.0547 73.5352 -31.0547 L 72.8027 -31.0547 C 69.8242 -31.0547 68.457 -32.9102 68.457 -35.498 C 68.457 -38.0859 70.0684 -39.8926 72.8027 -39.8926 L 73.4863 -39.8926 C 75.7324 -39.8926 76.8066 -41.5039 76.8066 -43.2129 C 76.8066 -45.2637 75.3418 -46.582 73.4375 -46.582 C 71.4844 -46.582 70.166 -45.6055 69.0918 -43.5547 C 68.2617 -42.1875 67.041 -41.3086 65.1367 -41.3086 C 62.9883 -41.3086 61.3281 -42.7734 61.3281 -45.3613 C 61.3281 -46.2402 61.4746 -47.0215 61.9629 -48.0957 C 63.1836 -51.3184 67.4316 -55.0293 73.5352 -55.0293 C 81.25 -55.0293 86.2305 -50.9277 86.2305 -44.6289 C 86.2305 -40.7715 83.5449 -37.1094 80.0781 -36.5234 L 80.0781 -36.1328 C 84.2285 -35.791 87.1094 -31.8359 87.1094 -27.0508 C 87.1094 -20.0195 81.8359 -15.4785 73.4863 -15.4785 Z M 50 -15.625 C 46.8262 -15.625 45.3125 -17.4316 45.3125 -21.1426 L 45.3125 -43.3594 L 45.0684 -43.3594 L 42.7246 -41.0645 C 41.5527 -39.6973 40.5762 -39.1113 39.0137 -39.1113 C 36.8652 -39.1113 35.1562 -40.918 35.1562 -43.0176 C 35.1562 -44.873 35.9375 -46.1914 37.7441 -47.8516 L 42.6758 -52.1484 C 45.1172 -54.3945 46.7773 -54.9805 48.7793 -54.9805 C 52.6855 -54.9805 54.7363 -52.6367 54.7363 -48.6328 L 54.7363 -21.1426 C 54.7363 -17.4316 53.1738 -15.625 50 -15.625 Z"/>
  </g>
  <g id="Bold-M" transform="matrix(1 0 0 1 2279.5 1126)">
   <path d="M 60.498 16.5039 C 88.8672 16.5039 112.207 -6.78711 112.207 -35.2051 C 112.207 -63.623 88.8672 -86.9629 60.4492 -86.9629 C 32.0312 -86.9629 8.74023 -63.623 8.74023 -35.2051 C 8.74023 -6.78711 32.0801 16.5039 60.498 16.5039 Z M 72.4121 -14.6973 C 66.1621 -14.6973 60.8887 -18.5547 59.668 -22.7539 C 59.4238 -23.4863 59.2773 -24.1699 59.2773 -24.9512 C 59.2773 -27.2949 61.084 -28.6621 62.8906 -28.6621 C 64.5996 -28.6621 65.7227 -27.9297 66.5527 -26.416 C 67.7246 -23.8281 69.9219 -22.5098 72.5586 -22.5098 C 75.6836 -22.5098 77.832 -24.5605 77.832 -27.0996 C 77.832 -29.9316 75.8301 -31.7383 72.5586 -31.7383 L 71.0449 -31.7383 C 68.5059 -31.7383 67.2363 -33.3984 67.2363 -35.6445 C 67.2363 -37.9883 68.7012 -39.5508 71.0449 -39.5508 L 72.4609 -39.5508 C 75.3418 -39.5508 77.0508 -41.5527 77.0508 -43.9941 C 77.0508 -46.582 75.0977 -48.291 72.4609 -48.291 C 69.7754 -48.291 68.0664 -46.9238 66.9922 -44.3848 C 66.2109 -42.8711 65.1855 -42.041 63.3789 -42.041 C 61.377 -42.041 59.9121 -43.457 59.9121 -45.752 C 59.9121 -46.582 60.0098 -47.2656 60.3516 -48.1934 C 61.6211 -52.002 66.1621 -55.8105 72.5586 -55.8105 C 80.2734 -55.8105 85.4004 -51.5625 85.4004 -45.166 C 85.4004 -40.9668 82.4707 -37.1094 78.7109 -36.5234 L 78.7109 -36.1328 C 83.252 -35.6934 86.4258 -31.6406 86.4258 -26.6113 C 86.4258 -19.4824 80.8594 -14.6973 72.4121 -14.6973 Z M 48.1445 -14.9414 C 45.4102 -14.9414 43.9453 -16.6504 43.9453 -19.7266 L 43.9453 -45.2637 L 43.7012 -45.2637 L 40.2832 -42.3828 C 39.1113 -41.1621 38.2812 -40.7227 36.9629 -40.7227 C 35.0586 -40.7227 33.4473 -42.3828 33.4473 -44.3848 C 33.4473 -46.0449 34.1797 -47.2168 35.7422 -48.584 L 41.6992 -53.2227 C 43.8965 -55.127 45.3125 -55.6641 47.2168 -55.6641 C 50.5371 -55.6641 52.3438 -53.6133 52.3438 -50.2441 L 52.3438 -19.7266 C 52.3438 -16.6504 50.8789 -14.9414 48.1445 -14.9414 Z"/>
  </g>
  <g id="Semibold-M" transform="matrix(1 0 0 1 1983.5 1126)">
   <path d="M 59.7656 15.8203 C 87.7441 15.8203 110.791 -7.22656 110.791 -35.2051 C 110.791 -63.1836 87.6953 -86.2793 59.7656 -86.2793 C 31.7871 -86.2793 8.74023 -63.1836 8.74023 -35.2051 C 8.74023 -7.22656 31.7871 15.8203 59.7656 15.8203 Z M 71.6797 -14.1602 C 65.1367 -14.1602 59.8145 -18.1152 58.5449 -22.5098 C 58.3496 -23.2422 58.2031 -23.8281 58.2031 -24.6094 C 58.2031 -26.7578 59.8145 -28.125 61.5723 -28.125 C 63.1836 -28.125 64.209 -27.3438 64.9414 -25.7812 C 66.2109 -22.8516 68.6035 -21.2402 71.7773 -21.2402 C 75.5859 -21.2402 78.1738 -23.6328 78.1738 -26.7578 C 78.1738 -30.0293 75.7324 -32.1777 71.9238 -32.1777 L 69.873 -32.1777 C 67.627 -32.1777 66.4062 -33.6914 66.4062 -35.7422 C 66.4062 -37.8906 67.7734 -39.3555 69.873 -39.3555 L 71.7285 -39.3555 C 75.0977 -39.3555 77.1973 -41.6016 77.1973 -44.4824 C 77.1973 -47.4609 74.9512 -49.4141 71.7773 -49.4141 C 68.6035 -49.4141 66.6016 -47.8516 65.5273 -44.9219 C 64.8438 -43.3594 63.8672 -42.5293 62.207 -42.5293 C 60.2539 -42.5293 58.8867 -43.8965 58.8867 -45.9961 C 58.8867 -46.8262 58.9355 -47.4121 59.2773 -48.291 C 60.5469 -52.5391 65.2832 -56.3965 71.875 -56.3965 C 79.5898 -56.3965 84.7656 -52.002 84.7656 -45.5566 C 84.7656 -41.1621 81.7383 -37.1094 77.832 -36.4746 L 77.832 -36.1328 C 82.5684 -35.6934 85.9863 -31.4941 85.9863 -26.3184 C 85.9863 -19.0918 80.2246 -14.1602 71.6797 -14.1602 Z M 46.8262 -14.502 C 44.3848 -14.502 43.0176 -16.0645 43.0176 -18.75 L 43.0176 -46.582 L 42.7734 -46.582 L 38.5742 -43.2617 C 37.4023 -42.1387 36.7188 -41.8945 35.5957 -41.8945 C 33.8379 -41.8945 32.2754 -43.4082 32.2754 -45.3125 C 32.2754 -46.875 32.959 -47.9492 34.375 -49.0723 L 40.9668 -53.9551 C 43.0176 -55.6641 44.2871 -56.1523 46.1426 -56.1523 C 49.0234 -56.1523 50.6836 -54.2969 50.6836 -51.3672 L 50.6836 -18.75 C 50.6836 -16.0645 49.3164 -14.502 46.8262 -14.502 Z"/>
  </g>
  <g id="Medium-M" transform="matrix(1 0 0 1 1687.3 1126)">
   <path d="M 59.2285 15.2832 C 86.9141 15.2832 109.766 -7.56836 109.766 -35.2051 C 109.766 -62.8906 86.8652 -85.7422 59.1797 -85.7422 C 31.543 -85.7422 8.74023 -62.8906 8.74023 -35.2051 C 8.74023 -7.56836 31.5918 15.2832 59.2285 15.2832 Z M 71.0938 -13.7207 C 64.3555 -13.7207 58.9844 -17.8223 57.666 -22.3633 C 57.5195 -23.0469 57.373 -23.6328 57.373 -24.3652 C 57.373 -26.3672 58.8379 -27.6855 60.5469 -27.6855 C 62.1582 -27.6855 63.0371 -26.9043 63.7695 -25.293 C 65.0879 -22.0703 67.627 -20.3125 71.1914 -20.3125 C 75.4395 -20.3125 78.418 -22.998 78.418 -26.4648 C 78.418 -30.127 75.6836 -32.5195 71.3867 -32.5195 L 68.9453 -32.5195 C 66.9434 -32.5195 65.7715 -33.9355 65.7715 -35.791 C 65.7715 -37.8418 67.041 -39.1602 68.9453 -39.1602 L 71.2402 -39.1602 C 74.8535 -39.1602 77.3438 -41.6016 77.3438 -44.9219 C 77.3438 -48.0957 74.8047 -50.293 71.2402 -50.293 C 67.7246 -50.293 65.4785 -48.584 64.4043 -45.3125 C 63.8184 -43.7012 62.8906 -42.9199 61.2793 -42.9199 C 59.4238 -42.9199 58.1543 -44.2383 58.1543 -46.2402 C 58.1543 -46.9727 58.1543 -47.5586 58.3984 -48.3398 C 59.7168 -52.8809 64.6484 -56.7871 71.3867 -56.7871 C 79.0527 -56.7871 84.3262 -52.2949 84.3262 -45.8496 C 84.3262 -41.2598 81.2012 -37.1094 77.1484 -36.4746 L 77.1484 -36.1328 C 82.0312 -35.6445 85.5957 -31.3965 85.5957 -26.0742 C 85.5957 -18.7988 79.7363 -13.7207 71.0938 -13.7207 Z M 45.8496 -14.1602 C 43.6523 -14.1602 42.334 -15.625 42.334 -18.0176 L 42.334 -47.5586 L 42.041 -47.5586 L 37.3047 -43.9453 C 36.1328 -42.9199 35.5469 -42.7246 34.5215 -42.7246 C 32.8613 -42.7246 31.3965 -44.1895 31.3965 -46.0449 C 31.3965 -47.4609 32.0312 -48.4863 33.3008 -49.4629 L 40.4297 -54.541 C 42.3828 -56.0059 43.5059 -56.543 45.3125 -56.543 C 47.8516 -56.543 49.4629 -54.834 49.4629 -52.1973 L 49.4629 -18.0176 C 49.4629 -15.625 48.0957 -14.1602 45.8496 -14.1602 Z"/>
  </g>
  <g id="Regular-M" transform="matrix(1 0 0 1 1391.3 1126)">
   <path d="M 58.5449 14.5508 C 85.791 14.5508 108.35 -8.00781 108.35 -35.2539 C 108.35 -62.4512 85.7422 -85.0586 58.4961 -85.0586 C 31.2988 -85.0586 8.74023 -62.4512 8.74023 -35.2539 C 8.74023 -8.00781 31.3477 14.5508 58.5449 14.5508 Z M 70.4102 -13.1836 C 63.3789 -13.1836 57.9102 -17.4316 56.5918 -22.168 C 56.3965 -22.8027 56.2988 -23.291 56.2988 -24.0234 C 56.2988 -25.8301 57.5684 -27.0996 59.2285 -27.0996 C 60.7422 -27.0996 61.5723 -26.3184 62.207 -24.6582 C 63.5742 -21.0938 66.3574 -19.043 70.459 -19.043 C 75.3418 -19.043 78.7598 -22.0703 78.7598 -26.0742 C 78.7598 -30.2734 75.6348 -33.0078 70.752 -33.0078 L 67.7246 -33.0078 C 66.0645 -33.0078 64.9902 -34.2773 64.9902 -35.8887 C 64.9902 -37.7441 66.1133 -38.916 67.7246 -38.916 L 70.5078 -38.916 C 74.6094 -38.916 77.4902 -41.6504 77.4902 -45.4102 C 77.4902 -48.9746 74.6582 -51.4648 70.5566 -51.4648 C 66.5527 -51.4648 64.0625 -49.5117 62.9883 -45.8496 C 62.4512 -44.1895 61.6211 -43.4082 60.1074 -43.4082 C 58.3496 -43.4082 57.1289 -44.6777 57.1289 -46.4844 C 57.1289 -47.2168 57.1777 -47.7051 57.3242 -48.3887 C 58.6426 -53.418 63.8184 -57.3242 70.7031 -57.3242 C 78.3691 -57.3242 83.7402 -52.7344 83.7402 -46.1914 C 83.7402 -41.4551 80.4199 -37.1094 76.2207 -36.4258 L 76.2207 -36.1328 C 81.3477 -35.5957 85.1562 -31.25 85.1562 -25.7812 C 85.1562 -18.4082 79.1016 -13.1836 70.4102 -13.1836 Z M 44.5801 -13.7207 C 42.6758 -13.7207 41.4062 -15.0391 41.4062 -17.041 L 41.4062 -48.877 L 41.1133 -48.877 L 35.6445 -44.8242 C 34.4727 -43.8965 33.9844 -43.8477 33.1543 -43.8477 C 31.6406 -43.8477 30.2246 -45.2148 30.2246 -46.9727 C 30.2246 -48.291 30.8594 -49.2188 31.9336 -49.9512 L 39.7461 -55.2734 C 41.5039 -56.4941 42.5293 -57.0312 44.2383 -57.0312 C 46.3867 -57.0312 47.8516 -55.5176 47.8516 -53.3203 L 47.8516 -17.041 C 47.8516 -15.0391 46.582 -13.7207 44.5801 -13.7207 Z"/>
  </g>
  <g id="Light-M" transform="matrix(1 0 0 1 1095.42 1126)">
   <path d="M 57.7148 13.7695 C 84.5215 13.7695 106.689 -8.39844 106.689 -35.2051 C 106.689 -62.0117 84.5215 -84.1797 57.666 -84.1797 C 30.8594 -84.1797 8.74023 -62.0117 8.74023 -35.2051 C 8.74023 -8.39844 30.9082 13.7695 57.7148 13.7695 Z M 69.3359 -13.4766 C 62.5 -13.4766 57.1777 -17.5293 55.7617 -22.2168 C 55.6152 -22.7539 55.5176 -23.2422 55.5176 -23.877 C 55.5176 -25.3418 56.4941 -26.416 57.9102 -26.416 C 59.1797 -26.416 59.8145 -25.7324 60.3516 -24.3652 C 61.7188 -20.5078 65.0391 -18.2129 69.3359 -18.2129 C 74.8535 -18.2129 78.5645 -21.5332 78.5645 -26.0254 C 78.5645 -30.4688 75 -33.5938 69.7754 -33.5938 L 66.2598 -33.5938 C 64.8926 -33.5938 64.0137 -34.5703 64.0137 -35.9375 C 64.0137 -37.4512 64.8926 -38.3789 66.2598 -38.3789 L 69.4824 -38.3789 C 74.0234 -38.3789 77.2461 -41.4551 77.2461 -45.5566 C 77.2461 -49.5605 74.0723 -52.2949 69.4336 -52.2949 C 65.0391 -52.2949 62.1094 -50 61.1328 -46.1914 C 60.7422 -44.7266 60.0586 -44.0918 58.7891 -44.0918 C 57.2754 -44.0918 56.3477 -45.1172 56.3477 -46.6797 C 56.3477 -47.2656 56.3965 -47.7539 56.543 -48.3398 C 57.8125 -53.418 62.9883 -57.0801 69.5312 -57.0801 C 77.002 -57.0801 82.3242 -52.5879 82.3242 -46.1914 C 82.3242 -41.4551 78.9551 -37.0605 74.6094 -36.377 L 74.6094 -36.1328 C 79.834 -35.5957 83.7402 -31.2012 83.7402 -25.8301 C 83.7402 -18.6035 77.7832 -13.4766 69.3359 -13.4766 Z M 43.457 -13.916 C 41.8945 -13.916 40.918 -14.9902 40.918 -16.5527 L 40.918 -50.2441 L 40.6738 -50.2441 L 33.8379 -45.459 C 32.959 -44.8242 32.5684 -44.7754 31.9336 -44.7754 C 30.7129 -44.7754 29.5898 -45.8984 29.5898 -47.2656 C 29.5898 -48.291 30.0293 -49.0234 30.9082 -49.6094 L 39.6484 -55.4199 C 41.0156 -56.3477 41.7969 -56.7383 43.1641 -56.7383 C 44.8242 -56.7383 46.0449 -55.5664 46.0449 -53.8086 L 46.0449 -16.5527 C 46.0449 -14.9902 45.0195 -13.916 43.457 -13.916 Z"/>
  </g>
  <g id="Thin-M" transform="matrix(1 0 0 1 799.806 1126)">
   <path d="M 56.6406 12.7441 C 82.9102 12.7441 104.492 -8.83789 104.492 -35.1562 C 104.492 -61.4746 82.9102 -83.0566 56.5918 -83.0566 C 30.3223 -83.0566 8.74023 -61.4746 8.74023 -35.1562 C 8.74023 -8.83789 30.3223 12.7441 56.6406 12.7441 Z M 67.9199 -13.8184 C 61.3281 -13.8184 56.2012 -17.7246 54.7363 -22.2656 C 54.5898 -22.7051 54.4434 -23.1445 54.4434 -23.6816 C 54.4434 -24.707 55.127 -25.4883 56.1523 -25.4883 C 57.0801 -25.4883 57.5684 -24.9512 57.959 -23.9258 C 59.3262 -19.7266 63.2812 -17.1387 67.9199 -17.1387 C 74.1699 -17.1387 78.3691 -20.8008 78.3691 -25.8789 C 78.3691 -30.7129 74.1699 -34.3262 68.457 -34.3262 L 64.3066 -34.3262 C 63.2812 -34.3262 62.6953 -35.0098 62.6953 -35.9863 C 62.6953 -37.0117 63.3301 -37.6465 64.3066 -37.6465 L 68.1152 -37.6465 C 73.1934 -37.6465 76.9531 -41.1621 76.9531 -45.752 C 76.9531 -50.293 73.291 -53.3691 67.9199 -53.3691 C 62.9883 -53.3691 59.5703 -50.6348 58.7402 -46.582 C 58.4961 -45.459 57.959 -45.0195 57.0312 -45.0195 C 55.8594 -45.0195 55.2734 -45.752 55.2734 -46.875 C 55.2734 -47.3145 55.3223 -47.8027 55.4688 -48.291 C 56.6895 -53.418 61.9141 -56.6895 67.9199 -56.6895 C 75.1953 -56.6895 80.4688 -52.3438 80.4688 -46.1426 C 80.4688 -41.4551 77.002 -37.0117 72.4609 -36.2305 L 72.4609 -36.1328 C 77.832 -35.5469 81.8848 -31.1035 81.8848 -25.8301 C 81.8848 -18.8477 76.0742 -13.8184 67.9199 -13.8184 Z M 41.9434 -14.209 C 40.918 -14.209 40.2344 -14.8926 40.2344 -15.918 L 40.2344 -52.002 L 39.9902 -52.002 L 31.3965 -46.3379 C 30.957 -46.0449 30.7129 -46.0449 30.3711 -46.0449 C 29.4434 -46.0449 28.7598 -46.7285 28.7598 -47.6562 C 28.7598 -48.291 29.0039 -48.7793 29.6387 -49.1699 L 39.4531 -55.6641 C 40.2832 -56.1523 40.8203 -56.3965 41.6992 -56.3965 C 42.7734 -56.3965 43.6523 -55.6641 43.6523 -54.4434 L 43.6523 -15.918 C 43.6523 -14.8926 42.9688 -14.209 41.9434 -14.209 Z"/>
  </g>
  <g id="Ultralight-M" transform="matrix(1 0 0 1 503.656 1126)">
   <path d="M 56.0547 12.207 C 82.0801 12.207 103.369 -9.08203 103.369 -35.1562 C 103.369 -61.1816 82.0801 -82.4707 56.0547 -82.4707 C 30.0293 -82.4707 8.74023 -61.1816 8.74023 -35.1562 C 8.74023 -9.08203 30.0293 12.207 56.0547 12.207 Z M 67.1875 -14.0137 C 60.7422 -14.0137 55.7129 -17.8223 54.1992 -22.3145 C 54.0527 -22.6562 53.8574 -23.0957 53.8574 -23.584 C 53.8574 -24.4141 54.4434 -25 55.2246 -25 C 56.0059 -25 56.3965 -24.5605 56.6895 -23.7305 C 58.0566 -19.3359 62.4023 -16.6016 67.1875 -16.6016 C 73.8281 -16.6016 78.2227 -20.4102 78.2227 -25.8301 C 78.2227 -30.8594 73.7793 -34.7168 67.7734 -34.7168 L 63.3301 -34.7168 C 62.4512 -34.7168 62.0117 -35.2051 62.0117 -35.9863 C 62.0117 -36.8164 62.5 -37.3047 63.3301 -37.3047 L 67.3828 -37.3047 C 72.7539 -37.3047 76.8066 -41.0645 76.8066 -45.8496 C 76.8066 -50.6836 72.9004 -53.9551 67.1387 -53.9551 C 61.9629 -53.9551 58.252 -50.9766 57.5195 -46.8262 C 57.3242 -45.8008 56.8848 -45.459 56.1523 -45.459 C 55.127 -45.459 54.7363 -46.0449 54.7363 -46.9727 C 54.7363 -47.3633 54.834 -47.8516 54.9316 -48.291 C 56.1035 -53.418 61.377 -56.4941 67.1387 -56.4941 C 74.3164 -56.4941 79.541 -52.1973 79.541 -46.0938 C 79.541 -41.4551 75.9766 -37.0117 71.3379 -36.1816 L 71.3379 -36.1328 C 76.7578 -35.498 80.957 -31.1035 80.957 -25.8301 C 80.957 -18.9941 75.1465 -14.0137 67.1875 -14.0137 Z M 41.1621 -14.3066 C 40.4297 -14.3066 39.8926 -14.7949 39.8926 -15.625 L 39.8926 -52.9297 L 39.6973 -52.9297 L 30.127 -46.7773 C 29.9316 -46.6309 29.7852 -46.6309 29.541 -46.6309 C 28.8086 -46.6309 28.3203 -47.2168 28.3203 -47.8516 C 28.3203 -48.291 28.4668 -48.6328 28.9551 -48.9746 L 39.4043 -55.7617 C 39.9414 -56.0547 40.2832 -56.2012 40.9668 -56.2012 C 41.748 -56.2012 42.4316 -55.7129 42.4316 -54.7852 L 42.4316 -15.625 C 42.4316 -14.7949 41.9434 -14.3066 41.1621 -14.3066 Z"/>
  </g>
  <g id="Black-S" transform="matrix(1 0 0 1 2884.57 696)">
   <path d="M 48.8281 6.78711 C 71.9727 6.78711 90.8203 -12.0605 90.8203 -35.2051 C 90.8203 -58.3496 71.9727 -77.1973 48.8281 -77.1973 C 25.6836 -77.1973 6.83594 -58.3496 6.83594 -35.2051 C 6.83594 -12.0605 25.6836 6.78711 48.8281 6.78711 Z M 40.3809 -20.2637 C 37.5977 -20.2637 36.3281 -21.8262 36.3281 -25.0977 L 36.3281 -40.3809 L 36.1816 -40.3809 L 35.0098 -38.9648 C 34.082 -37.793 33.252 -37.207 31.8359 -37.207 C 30.0293 -37.207 28.6133 -38.7207 28.6133 -40.4785 C 28.6133 -42.041 29.248 -43.1641 30.8594 -44.6777 L 34.082 -47.8027 C 36.1328 -49.8047 37.5488 -50.2441 39.209 -50.2441 C 42.6758 -50.2441 44.3848 -48.2422 44.3848 -44.7266 L 44.3848 -25.0977 C 44.3848 -21.8262 43.1152 -20.2637 40.3809 -20.2637 Z M 58.252 -20.2637 C 53.9062 -20.2637 49.9023 -22.998 49.0234 -25.8789 C 48.8281 -26.5625 48.6816 -27.1973 48.6816 -27.8809 C 48.6816 -30.127 50.4883 -31.2988 52.002 -31.2988 C 53.5156 -31.2988 54.5898 -30.7129 55.3711 -29.6387 C 56.2012 -28.3691 57.4219 -27.832 58.4473 -27.832 C 59.5703 -27.832 60.2539 -28.7109 60.2539 -29.6387 C 60.2539 -30.8105 59.5703 -31.543 58.2031 -31.543 L 58.1543 -31.543 C 55.5176 -31.543 54.3945 -33.1055 54.3945 -35.3516 C 54.3945 -37.5488 55.7617 -39.1113 58.1543 -39.1113 L 58.2031 -39.1113 C 59.5703 -39.1113 60.0098 -40.1367 60.0098 -41.0156 C 60.0098 -42.2852 59.1797 -43.0664 58.1543 -43.0664 C 57.0801 -43.0664 56.2988 -42.4805 55.4688 -41.2598 C 54.7363 -40.2344 53.7109 -39.502 52.1484 -39.502 C 50.3418 -39.502 48.9746 -40.7227 48.9746 -42.9199 C 48.9746 -43.6523 49.1211 -44.3359 49.5605 -45.2637 C 50.4883 -47.3633 53.6133 -50.2441 58.252 -50.2441 C 64.3066 -50.2441 68.1152 -47.1191 68.1152 -42.2363 C 68.1152 -39.4043 66.1621 -36.7188 63.5742 -36.2793 L 63.5742 -35.9375 C 66.6504 -35.6934 68.7012 -32.7148 68.7012 -29.1016 C 68.7012 -23.6816 64.6973 -20.2637 58.252 -20.2637 Z"/>
  </g>
  <g id="Heavy-S" transform="matrix(1 0 0 1 2588.47 696)">
   <path d="M 48.2422 6.15234 C 70.9961 6.15234 89.5996 -12.4512 89.5996 -35.2051 C 89.5996 -57.959 70.9961 -76.6113 48.1934 -76.6113 C 25.4395 -76.6113 6.83594 -57.959 6.83594 -35.2051 C 6.83594 -12.4512 25.4395 6.15234 48.2422 6.15234 Z M 57.6172 -19.6777 C 52.9785 -19.6777 48.9258 -22.5586 47.998 -25.6836 C 47.8027 -26.3184 47.7051 -26.9043 47.7051 -27.5879 C 47.7051 -29.6387 49.3164 -30.8105 50.8301 -30.8105 C 52.2949 -30.8105 53.2715 -30.1758 54.0039 -29.0527 C 54.8828 -27.4414 56.2988 -26.6602 57.8125 -26.6602 C 59.4727 -26.6602 60.5957 -27.8809 60.5957 -29.2969 C 60.5957 -30.9082 59.5703 -31.9336 57.666 -31.9336 L 57.1289 -31.9336 C 54.7852 -31.9336 53.6621 -33.3984 53.6621 -35.4492 C 53.6621 -37.5 54.9805 -38.9648 57.1289 -38.9648 L 57.6172 -38.9648 C 59.375 -38.9648 60.2051 -40.1855 60.2051 -41.5039 C 60.2051 -43.1152 59.082 -44.1406 57.6172 -44.1406 C 56.1035 -44.1406 55.0781 -43.3594 54.248 -41.748 C 53.5645 -40.625 52.5879 -39.9414 51.0742 -39.9414 C 49.3652 -39.9414 48.0469 -41.1133 48.0469 -43.1641 C 48.0469 -43.8965 48.1934 -44.4824 48.5352 -45.3125 C 49.5117 -47.8516 52.832 -50.8301 57.7148 -50.8301 C 63.7695 -50.8301 67.6758 -47.5586 67.6758 -42.627 C 67.6758 -39.5508 65.5762 -36.7188 62.8418 -36.2793 L 62.8418 -35.9375 C 66.1133 -35.6445 68.4082 -32.5684 68.4082 -28.8086 C 68.4082 -23.291 64.209 -19.6777 57.6172 -19.6777 Z M 39.209 -19.7754 C 36.7188 -19.7754 35.4492 -21.2891 35.4492 -24.1699 L 35.4492 -41.5527 L 35.3027 -41.5527 L 33.5449 -39.7949 C 32.5684 -38.6719 31.8359 -38.2324 30.5664 -38.2324 C 28.9062 -38.2324 27.5391 -39.6484 27.5391 -41.3574 C 27.5391 -42.8711 28.125 -43.8965 29.5898 -45.2148 L 33.3984 -48.5352 C 35.3516 -50.3418 36.6211 -50.7812 38.2812 -50.7812 C 41.3574 -50.7812 42.9688 -48.9258 42.9688 -45.752 L 42.9688 -24.1699 C 42.9688 -21.2891 41.6992 -19.7754 39.209 -19.7754 Z"/>
  </g>
  <g id="Bold-S" transform="matrix(1 0 0 1 2292.44 696)">
   <path d="M 47.5586 5.46875 C 69.873 5.46875 88.2324 -12.8906 88.2324 -35.2051 C 88.2324 -57.5684 69.873 -75.9277 47.5098 -75.9277 C 25.1953 -75.9277 6.83594 -57.5684 6.83594 -35.2051 C 6.83594 -12.8906 25.1953 5.46875 47.5586 5.46875 Z M 56.9336 -19.043 C 52.002 -19.043 47.8027 -22.1191 46.875 -25.4395 C 46.6797 -26.0254 46.582 -26.5625 46.582 -27.1973 C 46.582 -29.1016 48.0469 -30.2246 49.5117 -30.2246 C 50.9277 -30.2246 51.8066 -29.6387 52.4902 -28.3691 C 53.4668 -26.416 55.0293 -25.3906 57.0801 -25.3906 C 59.4238 -25.3906 61.0352 -26.9531 61.0352 -28.8574 C 61.0352 -31.0059 59.5703 -32.373 57.0312 -32.373 L 55.957 -32.373 C 53.9551 -32.373 52.8809 -33.7402 52.8809 -35.5469 C 52.8809 -37.4512 54.0527 -38.7695 55.957 -38.7695 L 56.9824 -38.7695 C 59.1797 -38.7695 60.4004 -40.2344 60.4004 -42.0898 C 60.4004 -43.9941 58.9844 -45.3125 56.9824 -45.3125 C 54.9805 -45.3125 53.7109 -44.3359 52.832 -42.334 C 52.2461 -41.1133 51.3672 -40.4297 49.9023 -40.4297 C 48.291 -40.4297 47.0703 -41.5527 47.0703 -43.457 C 47.0703 -44.1406 47.1191 -44.6777 47.4121 -45.4102 C 48.4375 -48.4375 52.002 -51.4648 57.1289 -51.4648 C 63.1836 -51.4648 67.1875 -48.0957 67.1875 -43.0176 C 67.1875 -39.7461 64.9414 -36.7188 62.0117 -36.2305 L 62.0117 -35.9375 C 65.5762 -35.5957 68.0176 -32.4219 68.0176 -28.4668 C 68.0176 -22.8027 63.623 -19.043 56.9336 -19.043 Z M 37.9395 -19.2871 C 35.6934 -19.2871 34.5215 -20.6543 34.5215 -23.1445 L 34.5215 -42.8223 L 34.3262 -42.8223 L 31.9336 -40.7227 C 30.9082 -39.6973 30.2734 -39.3555 29.1992 -39.3555 C 27.6367 -39.3555 26.3184 -40.7227 26.3184 -42.3828 C 26.3184 -43.75 26.9043 -44.7266 28.1738 -45.8008 L 32.6172 -49.3164 C 34.4727 -50.8789 35.5957 -51.3672 37.207 -51.3672 C 39.8926 -51.3672 41.3574 -49.6582 41.3574 -46.9238 L 41.3574 -23.1445 C 41.3574 -20.6543 40.1855 -19.2871 37.9395 -19.2871 Z"/>
  </g>
  <g id="Semibold-S" transform="matrix(1 0 0 1 1996.2 696)">
   <path d="M 47.0703 4.98047 C 69.0918 4.98047 87.3047 -13.1836 87.3047 -35.2539 C 87.3047 -57.2754 69.0918 -75.4883 47.0215 -75.4883 C 25 -75.4883 6.83594 -57.2754 6.83594 -35.2539 C 6.83594 -13.1836 25.0488 4.98047 47.0703 4.98047 Z M 56.4941 -18.6035 C 51.2695 -18.6035 47.0703 -21.7773 46.0938 -25.2441 C 45.8984 -25.8789 45.8496 -26.3184 45.8496 -26.9531 C 45.8496 -28.7598 47.168 -29.8828 48.6328 -29.8828 C 50 -29.8828 50.8301 -29.1992 51.4648 -27.9297 C 52.4414 -25.6836 54.1504 -24.5117 56.5918 -24.5117 C 59.375 -24.5117 61.2793 -26.3184 61.2793 -28.6133 C 61.2793 -31.1035 59.5215 -32.666 56.6406 -32.666 L 55.1758 -32.666 C 53.3691 -32.666 52.3438 -33.9355 52.3438 -35.6445 C 52.3438 -37.4023 53.418 -38.623 55.1758 -38.623 L 56.543 -38.623 C 58.9844 -38.623 60.5469 -40.2832 60.5469 -42.4805 C 60.5469 -44.6289 58.8867 -46.0938 56.5918 -46.0938 C 54.1992 -46.0938 52.7832 -45.0195 51.8555 -42.7246 C 51.3184 -41.4062 50.5371 -40.7227 49.1211 -40.7227 C 47.5098 -40.7227 46.3379 -41.8945 46.3379 -43.6523 C 46.3379 -44.2871 46.3867 -44.7754 46.6309 -45.459 C 47.6562 -48.7793 51.416 -51.9043 56.6895 -51.9043 C 62.7441 -51.9043 66.8457 -48.4375 66.8457 -43.3105 C 66.8457 -39.8926 64.502 -36.7188 61.4746 -36.2305 L 61.4746 -35.9375 C 65.1367 -35.5957 67.7734 -32.3242 67.7734 -28.2227 C 67.7734 -22.5098 63.2812 -18.6035 56.4941 -18.6035 Z M 37.0117 -18.8965 C 35.0098 -18.8965 33.8379 -20.2148 33.8379 -22.4609 L 33.8379 -43.7012 L 33.6426 -43.7012 L 30.7617 -41.3086 C 29.7363 -40.3809 29.1992 -40.1855 28.2227 -40.1855 C 26.7578 -40.1855 25.4395 -41.4551 25.4395 -43.0664 C 25.4395 -44.3848 26.0254 -45.2637 27.1973 -46.1914 L 32.1289 -49.9023 C 33.8379 -51.2695 34.9121 -51.7578 36.4746 -51.7578 C 38.8672 -51.7578 40.2832 -50.1953 40.2832 -47.7539 L 40.2832 -22.4609 C 40.2832 -20.2148 39.1113 -18.8965 37.0117 -18.8965 Z"/>
  </g>
  <g id="Medium-S" transform="matrix(1 0 0 1 1699.83 696)">
   <path d="M 46.7285 4.63867 C 68.5547 4.63867 86.6211 -13.4277 86.6211 -35.2539 C 86.6211 -57.0312 68.5059 -75.1465 46.6797 -75.1465 C 24.8535 -75.1465 6.83594 -57.0312 6.83594 -35.2539 C 6.83594 -13.4277 24.9023 4.63867 46.7285 4.63867 Z M 56.1035 -18.2617 C 50.7324 -18.2617 46.4844 -21.5332 45.459 -25.1465 C 45.3125 -25.7324 45.2637 -26.1719 45.2637 -26.7578 C 45.2637 -28.4668 46.4844 -29.5898 47.9492 -29.5898 C 49.2676 -29.5898 50.0488 -28.9062 50.6348 -27.5391 C 51.6602 -25.1465 53.4668 -23.8281 56.2012 -23.8281 C 59.3262 -23.8281 61.5234 -25.8301 61.5234 -28.3691 C 61.5234 -31.1523 59.5215 -32.9102 56.2988 -32.9102 L 54.541 -32.9102 C 52.9297 -32.9102 51.9043 -34.1309 51.9043 -35.6934 C 51.9043 -37.4023 52.9785 -38.5254 54.541 -38.5254 L 56.2012 -38.5254 C 58.8867 -38.5254 60.6445 -40.332 60.6445 -42.7734 C 60.6445 -45.1172 58.8379 -46.7285 56.25 -46.7285 C 53.6621 -46.7285 52.0508 -45.5078 51.1719 -43.0176 C 50.6348 -41.6504 49.8535 -40.9668 48.4863 -40.9668 C 46.9727 -40.9668 45.8496 -42.0898 45.8496 -43.7988 C 45.8496 -44.4336 45.8496 -44.873 46.0449 -45.5078 C 47.1191 -49.0723 50.9277 -52.2461 56.3965 -52.2461 C 62.4512 -52.2461 66.6016 -48.6816 66.6016 -43.5547 C 66.6016 -39.9414 64.1602 -36.7188 61.0352 -36.2305 L 61.0352 -35.9375 C 64.8438 -35.5469 67.627 -32.2266 67.627 -28.0762 C 67.627 -22.2656 62.9883 -18.2617 56.1035 -18.2617 Z M 36.3281 -18.6523 C 34.4727 -18.6523 33.3496 -19.873 33.3496 -21.9238 L 33.3496 -44.3848 L 33.1055 -44.3848 L 29.9316 -41.7969 C 28.9062 -40.918 28.3691 -40.7715 27.4902 -40.7715 C 26.123 -40.7715 24.8047 -41.9922 24.8047 -43.6035 C 24.8047 -44.8242 25.3906 -45.7031 26.4648 -46.5332 L 31.6895 -50.293 C 33.3984 -51.6113 34.375 -52.0508 35.8887 -52.0508 C 38.0859 -52.0508 39.4531 -50.5859 39.4531 -48.3398 L 39.4531 -21.9238 C 39.4531 -19.873 38.2812 -18.6523 36.3281 -18.6523 Z"/>
  </g>
  <g id="Regular-S" transform="matrix(1 0 0 1 1403.58 696)">
   <path d="M 46.2402 4.15039 C 67.7734 4.15039 85.6934 -13.7207 85.6934 -35.2539 C 85.6934 -56.7871 67.7246 -74.6582 46.1914 -74.6582 C 24.707 -74.6582 6.83594 -56.7871 6.83594 -35.2539 C 6.83594 -13.7207 24.7559 4.15039 46.2402 4.15039 Z M 55.6641 -17.8223 C 50.0488 -17.8223 45.752 -21.1914 44.6777 -24.9512 C 44.5801 -25.5371 44.4824 -25.9277 44.4824 -26.5625 C 44.4824 -28.0762 45.6055 -29.1992 47.0703 -29.1992 C 48.3398 -29.1992 49.0723 -28.5156 49.6094 -27.0996 C 50.6836 -24.4141 52.6367 -22.9492 55.7129 -22.9492 C 59.2285 -22.9492 61.7676 -25.1953 61.7676 -28.125 C 61.7676 -31.25 59.5215 -33.2031 55.9082 -33.2031 L 53.7598 -33.2031 C 52.3438 -33.2031 51.3672 -34.3262 51.3672 -35.7422 C 51.3672 -37.3535 52.3438 -38.3789 53.7598 -38.3789 L 55.7617 -38.3789 C 58.7402 -38.3789 60.791 -40.332 60.791 -43.1152 C 60.791 -45.752 58.7402 -47.5586 55.8105 -47.5586 C 52.8809 -47.5586 51.123 -46.1914 50.1953 -43.4082 C 49.7559 -41.9922 49.0234 -41.3086 47.7051 -41.3086 C 46.2402 -41.3086 45.1172 -42.3828 45.1172 -43.9941 C 45.1172 -44.5801 45.166 -44.9707 45.2637 -45.5566 C 46.3379 -49.4629 50.3418 -52.6855 55.957 -52.6855 C 62.0605 -52.6855 66.3086 -49.0234 66.3086 -43.8477 C 66.3086 -40.0879 63.7207 -36.7188 60.498 -36.2305 L 60.498 -35.9375 C 64.4531 -35.5469 67.3828 -32.1289 67.3828 -27.832 C 67.3828 -21.9727 62.5977 -17.8223 55.6641 -17.8223 Z M 35.4492 -18.3105 C 33.7891 -18.3105 32.666 -19.4824 32.666 -21.1914 L 32.666 -45.2637 L 32.4219 -45.2637 L 28.8086 -42.4316 C 27.7344 -41.6016 27.2949 -41.5527 26.5137 -41.5527 C 25.2441 -41.5527 23.9746 -42.7246 23.9746 -44.2871 C 23.9746 -45.459 24.5117 -46.2402 25.4883 -46.9238 L 31.2012 -50.8789 C 32.7637 -52.002 33.6914 -52.4414 35.2051 -52.4414 C 37.0605 -52.4414 38.3301 -51.0742 38.3301 -49.1699 L 38.3301 -21.1914 C 38.3301 -19.4824 37.207 -18.3105 35.4492 -18.3105 Z"/>
  </g>
  <g id="Light-S" transform="matrix(1 0 0 1 1107.6 696)">
   <path d="M 45.5078 3.4668 C 66.6992 3.4668 84.2285 -14.0625 84.2285 -35.2051 C 84.2285 -56.3965 66.6504 -73.9258 45.5078 -73.9258 C 24.3164 -73.9258 6.83594 -56.3965 6.83594 -35.2051 C 6.83594 -14.0625 24.3652 3.4668 45.5078 3.4668 Z M 54.6875 -18.0664 C 49.2676 -18.0664 45.0684 -21.3379 43.9941 -25 C 43.8477 -25.4883 43.7988 -25.8789 43.7988 -26.416 C 43.7988 -27.6855 44.6777 -28.5645 45.8496 -28.5645 C 46.9238 -28.5645 47.5098 -28.0273 47.998 -26.8066 C 49.0723 -23.9258 51.4648 -22.2168 54.7363 -22.2168 C 58.7891 -22.2168 61.6211 -24.707 61.6211 -28.0273 C 61.6211 -31.3965 58.9844 -33.6914 55.0293 -33.6914 L 52.4902 -33.6914 C 51.2695 -33.6914 50.4883 -34.6191 50.4883 -35.791 C 50.4883 -37.0605 51.3184 -37.8906 52.4902 -37.8906 L 54.834 -37.8906 C 58.2031 -37.8906 60.5957 -40.1855 60.5957 -43.2617 C 60.5957 -46.2402 58.252 -48.291 54.834 -48.291 C 51.5137 -48.291 49.4141 -46.6309 48.584 -43.7012 C 48.2422 -42.4805 47.6074 -41.8945 46.5332 -41.8945 C 45.2637 -41.8945 44.4336 -42.8223 44.4336 -44.1406 C 44.4336 -44.6289 44.4336 -45.0195 44.5801 -45.5078 C 45.6055 -49.4629 49.6582 -52.4414 54.9316 -52.4414 C 60.8398 -52.4414 65.0391 -48.877 65.0391 -43.7988 C 65.0391 -40.0879 62.4023 -36.6699 59.0332 -36.1328 L 59.0332 -35.9375 C 63.1348 -35.498 66.1133 -32.0801 66.1133 -27.832 C 66.1133 -22.1191 61.4258 -18.0664 54.6875 -18.0664 Z M 34.4727 -18.457 C 33.1055 -18.457 32.2266 -19.3848 32.2266 -20.8008 L 32.2266 -46.4844 L 32.0312 -46.4844 L 27.1973 -43.0176 C 26.416 -42.3828 26.0254 -42.3828 25.4883 -42.3828 C 24.4141 -42.3828 23.4375 -43.3105 23.4375 -44.5312 C 23.4375 -45.459 23.8281 -46.0938 24.6094 -46.6309 L 31.1035 -51.0254 C 32.3242 -51.8555 33.0078 -52.1973 34.2285 -52.1973 C 35.6934 -52.1973 36.7676 -51.123 36.7676 -49.6094 L 36.7676 -20.8008 C 36.7676 -19.3848 35.8398 -18.457 34.4727 -18.457 Z"/>
  </g>
  <g id="Thin-S" transform="matrix(1 0 0 1 811.867 696)">
   <path d="M 44.5801 2.53906 C 65.2832 2.53906 82.2754 -14.4531 82.2754 -35.2051 C 82.2754 -55.9082 65.2344 -72.9004 44.5312 -72.9004 C 23.8281 -72.9004 6.83594 -55.9082 6.83594 -35.2051 C 6.83594 -14.4531 23.877 2.53906 44.5801 2.53906 Z M 53.4668 -18.4082 C 48.2422 -18.4082 44.1895 -21.4844 43.0664 -25.0488 C 42.9688 -25.4395 42.8223 -25.7812 42.8223 -26.2207 C 42.8223 -27.0996 43.457 -27.7832 44.2871 -27.7832 C 45.1172 -27.7832 45.5078 -27.3438 45.8496 -26.4648 C 46.9238 -23.2422 49.9023 -21.2891 53.4668 -21.2891 C 58.252 -21.2891 61.4258 -24.0723 61.4258 -27.9297 C 61.4258 -31.6406 58.252 -34.375 53.8574 -34.375 L 50.7324 -34.375 C 49.8535 -34.375 49.3652 -34.9609 49.3652 -35.791 C 49.3652 -36.7188 49.9023 -37.2559 50.7324 -37.2559 L 53.6133 -37.2559 C 57.4707 -37.2559 60.3516 -39.9414 60.3516 -43.457 C 60.3516 -46.875 57.5684 -49.2188 53.4668 -49.2188 C 49.707 -49.2188 47.1191 -47.168 46.4844 -44.043 C 46.2402 -43.1152 45.8008 -42.7246 45.0195 -42.7246 C 43.9941 -42.7246 43.5059 -43.3594 43.5059 -44.2871 C 43.5059 -44.6777 43.5547 -45.0684 43.6523 -45.5078 C 44.6289 -49.4629 48.6816 -52.0996 53.5156 -52.0996 C 59.2773 -52.0996 63.3789 -48.6816 63.3789 -43.7988 C 63.3789 -40.0879 60.6934 -36.6699 57.1777 -36.0352 L 57.1777 -35.9375 C 61.3281 -35.498 64.502 -32.0312 64.502 -27.8809 C 64.502 -22.3633 59.9121 -18.4082 53.4668 -18.4082 Z M 33.1055 -18.7012 C 32.2266 -18.7012 31.6406 -19.2871 31.6406 -20.2148 L 31.6406 -48.0469 L 31.4453 -48.0469 L 25.0488 -43.75 C 24.6094 -43.457 24.4141 -43.457 24.0723 -43.457 C 23.291 -43.457 22.7051 -44.0918 22.7051 -44.873 C 22.7051 -45.459 22.9004 -45.8984 23.4375 -46.2402 L 30.957 -51.1719 C 31.6895 -51.6602 32.1289 -51.8555 32.959 -51.8555 C 33.8867 -51.8555 34.6191 -51.2207 34.6191 -50.1465 L 34.6191 -20.2148 C 34.6191 -19.2871 34.0332 -18.7012 33.1055 -18.7012 Z"/>
  </g>
  <g id="Ultralight-S" transform="matrix(1 0 0 1 515.644 696)">
   <path d="M 44.043 2.05078 C 64.502 2.05078 81.2988 -14.6973 81.2988 -35.1562 C 81.2988 -55.6152 64.502 -72.3633 44.043 -72.3633 C 23.584 -72.3633 6.83594 -55.6152 6.83594 -35.1562 C 6.83594 -14.6973 23.584 2.05078 44.043 2.05078 Z M 52.832 -18.5547 C 47.7051 -18.5547 43.75 -21.582 42.5781 -25.0977 C 42.4805 -25.3906 42.334 -25.7324 42.334 -26.123 C 42.334 -26.8066 42.8223 -27.3438 43.5059 -27.3438 C 44.1406 -27.3438 44.4824 -27.002 44.7266 -26.2695 C 45.8008 -22.9004 49.1211 -20.752 52.832 -20.752 C 57.9102 -20.752 61.3281 -23.7305 61.3281 -27.8809 C 61.3281 -31.7383 57.9102 -34.7168 53.2715 -34.7168 L 49.8535 -34.7168 C 49.1211 -34.7168 48.7793 -35.1562 48.7793 -35.8398 C 48.7793 -36.5234 49.1699 -36.9629 49.8535 -36.9629 L 52.9785 -36.9629 C 57.1289 -36.9629 60.2051 -39.8438 60.2051 -43.5547 C 60.2051 -47.2168 57.2266 -49.7559 52.7832 -49.7559 C 48.7793 -49.7559 45.9473 -47.5098 45.3613 -44.2383 C 45.2148 -43.4082 44.8242 -43.1152 44.2383 -43.1152 C 43.3594 -43.1152 43.0176 -43.6523 43.0176 -44.4336 C 43.0176 -44.7266 43.0664 -45.1172 43.1641 -45.459 C 44.0918 -49.4629 48.1934 -51.9531 52.7832 -51.9531 C 58.4473 -51.9531 62.5488 -48.584 62.5488 -43.75 C 62.5488 -40.0879 59.7656 -36.6211 56.2012 -35.9863 L 56.2012 -35.9375 C 60.4004 -35.4492 63.6719 -31.9824 63.6719 -27.8809 C 63.6719 -22.4609 59.1309 -18.5547 52.832 -18.5547 Z M 32.4219 -18.7988 C 31.7871 -18.7988 31.2988 -19.2383 31.2988 -19.9219 L 31.2988 -48.8281 L 31.1523 -48.8281 L 23.9258 -44.1406 C 23.6816 -43.9941 23.584 -43.9941 23.3398 -43.9941 C 22.7539 -43.9941 22.3145 -44.4824 22.3145 -45.0684 C 22.3145 -45.459 22.4121 -45.8008 22.8516 -46.0449 L 30.8594 -51.3184 C 31.3477 -51.5625 31.6895 -51.709 32.2754 -51.709 C 32.959 -51.709 33.5449 -51.2695 33.5449 -50.4883 L 33.5449 -19.9219 C 33.5449 -19.2383 33.1055 -18.7988 32.4219 -18.7988 Z"/>
  </g>
 </g>
</svg>
