<?xml version="1.0" encoding="UTF-8"?>
<!--Generator: Apple Native CoreSVG 123-->
<!DOCTYPE svg
PUBLIC "-//W3C//DTD SVG 1.1//EN"
       "http://www.w3.org/Graphics/SVG/1.1/DTD/svg11.dtd">
<svg version="1.1" xmlns="http://www.w3.org/2000/svg" xmlns:xlink="http://www.w3.org/1999/xlink" width="3300" height="2200">
 <!--glyph: "uni100518.medium", point size: 100.000000, font version: "Version 15.0d7e11", template writer version: "5"-->
 <g id="Notes">
  <rect height="2200" id="artboard" style="fill:white;opacity:1" width="3300" x="0" y="0"/>
  <line id="" style="fill:none;stroke:black;opacity:1;stroke-width:0.5;" x1="263" x2="3036" y1="292" y2="292"/>
  <text style="stroke:none;fill:black;font-family:-apple-system,&quot;SF Pro Display&quot;,&quot;SF Pro Text&quot;,Helvetica,sans-serif;font-weight:bold;" transform="matrix(1 0 0 1 263 322)">Weight/Scale Variations</text>
  <text style="stroke:none;fill:black;font-family:-apple-system,&quot;SF Pro Display&quot;,&quot;SF Pro Text&quot;,Helvetica,sans-serif;text-anchor:middle;" transform="matrix(1 0 0 1 559.711 322)">Ultralight</text>
  <text style="stroke:none;fill:black;font-family:-apple-system,&quot;SF Pro Display&quot;,&quot;SF Pro Text&quot;,Helvetica,sans-serif;text-anchor:middle;" transform="matrix(1 0 0 1 856.422 322)">Thin</text>
  <text style="stroke:none;fill:black;font-family:-apple-system,&quot;SF Pro Display&quot;,&quot;SF Pro Text&quot;,Helvetica,sans-serif;text-anchor:middle;" transform="matrix(1 0 0 1 1153.13 322)">Light</text>
  <text style="stroke:none;fill:black;font-family:-apple-system,&quot;SF Pro Display&quot;,&quot;SF Pro Text&quot;,Helvetica,sans-serif;text-anchor:middle;" transform="matrix(1 0 0 1 1449.84 322)">Regular</text>
  <text style="stroke:none;fill:black;font-family:-apple-system,&quot;SF Pro Display&quot;,&quot;SF Pro Text&quot;,Helvetica,sans-serif;text-anchor:middle;" transform="matrix(1 0 0 1 1746.56 322)">Medium</text>
  <text style="stroke:none;fill:black;font-family:-apple-system,&quot;SF Pro Display&quot;,&quot;SF Pro Text&quot;,Helvetica,sans-serif;text-anchor:middle;" transform="matrix(1 0 0 1 2043.27 322)">Semibold</text>
  <text style="stroke:none;fill:black;font-family:-apple-system,&quot;SF Pro Display&quot;,&quot;SF Pro Text&quot;,Helvetica,sans-serif;text-anchor:middle;" transform="matrix(1 0 0 1 2339.98 322)">Bold</text>
  <text style="stroke:none;fill:black;font-family:-apple-system,&quot;SF Pro Display&quot;,&quot;SF Pro Text&quot;,Helvetica,sans-serif;text-anchor:middle;" transform="matrix(1 0 0 1 2636.69 322)">Heavy</text>
  <text style="stroke:none;fill:black;font-family:-apple-system,&quot;SF Pro Display&quot;,&quot;SF Pro Text&quot;,Helvetica,sans-serif;text-anchor:middle;" transform="matrix(1 0 0 1 2933.4 322)">Black</text>
  <line id="" style="fill:none;stroke:black;opacity:1;stroke-width:0.5;" x1="263" x2="3036" y1="1903" y2="1903"/>
  <g id="" transform="matrix(1 0 0 1 263 1933)">
   <path d="M 9.24805 0.830078 C 13.5547 0.830078 17.1387 -2.74414 17.1387 -7.05078 C 17.1387 -11.3574 13.5449 -14.9316 9.23828 -14.9316 C 4.94141 -14.9316 1.36719 -11.3574 1.36719 -7.05078 C 1.36719 -2.74414 4.95117 0.830078 9.24805 0.830078 Z M 9.24805 -0.654297 C 5.70312 -0.654297 2.87109 -3.49609 2.87109 -7.05078 C 2.87109 -10.6055 5.69336 -13.4473 9.23828 -13.4473 C 12.793 -13.4473 15.6348 -10.6055 15.6445 -7.05078 C 15.6543 -3.49609 12.8027 -0.654297 9.24805 -0.654297 Z M 9.22852 -3.42773 C 9.69727 -3.42773 9.9707 -3.74023 9.9707 -4.25781 L 9.9707 -6.31836 L 12.1973 -6.31836 C 12.6953 -6.31836 13.0371 -6.57227 13.0371 -7.04102 C 13.0371 -7.51953 12.7148 -7.7832 12.1973 -7.7832 L 9.9707 -7.7832 L 9.9707 -10.0098 C 9.9707 -10.5273 9.69727 -10.8496 9.22852 -10.8496 C 8.75977 -10.8496 8.50586 -10.5078 8.50586 -10.0098 L 8.50586 -7.7832 L 6.29883 -7.7832 C 5.78125 -7.7832 5.44922 -7.51953 5.44922 -7.04102 C 5.44922 -6.57227 5.80078 -6.31836 6.29883 -6.31836 L 8.50586 -6.31836 L 8.50586 -4.25781 C 8.50586 -3.75977 8.75977 -3.42773 9.22852 -3.42773 Z"/>
  </g>
  <g id="" transform="matrix(1 0 0 1 281.506 1933)">
   <path d="M 11.709 2.91016 C 17.1582 2.91016 21.6699 -1.60156 21.6699 -7.05078 C 21.6699 -12.4902 17.1484 -17.0117 11.6992 -17.0117 C 6.25977 -17.0117 1.74805 -12.4902 1.74805 -7.05078 C 1.74805 -1.60156 6.26953 2.91016 11.709 2.91016 Z M 11.709 1.25 C 7.09961 1.25 3.41797 -2.44141 3.41797 -7.05078 C 3.41797 -11.6504 7.08984 -15.3516 11.6992 -15.3516 C 16.3086 -15.3516 20 -11.6504 20.0098 -7.05078 C 20.0195 -2.44141 16.3184 1.25 11.709 1.25 Z M 11.6895 -2.41211 C 12.207 -2.41211 12.5195 -2.77344 12.5195 -3.33984 L 12.5195 -6.23047 L 15.5762 -6.23047 C 16.123 -6.23047 16.5039 -6.51367 16.5039 -7.03125 C 16.5039 -7.55859 16.1426 -7.86133 15.5762 -7.86133 L 12.5195 -7.86133 L 12.5195 -10.9277 C 12.5195 -11.5039 12.207 -11.8555 11.6895 -11.8555 C 11.1719 -11.8555 10.8789 -11.4844 10.8789 -10.9277 L 10.8789 -7.86133 L 7.83203 -7.86133 C 7.26562 -7.86133 6.89453 -7.55859 6.89453 -7.03125 C 6.89453 -6.51367 7.28516 -6.23047 7.83203 -6.23047 L 10.8789 -6.23047 L 10.8789 -3.33984 C 10.8789 -2.79297 11.1719 -2.41211 11.6895 -2.41211 Z"/>
  </g>
  <g id="" transform="matrix(1 0 0 1 304.924 1933)">
   <path d="M 14.9707 5.67383 C 21.9336 5.67383 27.6953 -0.078125 27.6953 -7.04102 C 27.6953 -14.0039 21.9238 -19.7559 14.9609 -19.7559 C 8.00781 -19.7559 2.25586 -14.0039 2.25586 -7.04102 C 2.25586 -0.078125 8.01758 5.67383 14.9707 5.67383 Z M 14.9707 3.85742 C 8.93555 3.85742 4.08203 -1.00586 4.08203 -7.04102 C 4.08203 -13.0762 8.92578 -17.9395 14.9609 -17.9395 C 21.0059 -17.9395 25.8594 -13.0762 25.8691 -7.04102 C 25.8789 -1.00586 21.0156 3.85742 14.9707 3.85742 Z M 14.9512 -1.06445 C 15.5176 -1.06445 15.8691 -1.45508 15.8691 -2.06055 L 15.8691 -6.13281 L 20.1074 -6.13281 C 20.6934 -6.13281 21.1133 -6.46484 21.1133 -7.02148 C 21.1133 -7.59766 20.7227 -7.93945 20.1074 -7.93945 L 15.8691 -7.93945 L 15.8691 -12.1875 C 15.8691 -12.8027 15.5176 -13.1934 14.9512 -13.1934 C 14.3848 -13.1934 14.0625 -12.7832 14.0625 -12.1875 L 14.0625 -7.93945 L 9.83398 -7.93945 C 9.21875 -7.93945 8.80859 -7.59766 8.80859 -7.02148 C 8.80859 -6.46484 9.23828 -6.13281 9.83398 -6.13281 L 14.0625 -6.13281 L 14.0625 -2.06055 C 14.0625 -1.47461 14.3848 -1.06445 14.9512 -1.06445 Z"/>
  </g>
  <text style="stroke:none;fill:black;font-family:-apple-system,&quot;SF Pro Display&quot;,&quot;SF Pro Text&quot;,Helvetica,sans-serif;font-weight:bold;" transform="matrix(1 0 0 1 263 1953)">Design Variations</text>
  <text style="stroke:none;fill:black;font-family:-apple-system,&quot;SF Pro Display&quot;,&quot;SF Pro Text&quot;,Helvetica,sans-serif;" transform="matrix(1 0 0 1 263 1971)">Symbols are supported in up to nine weights and three scales.</text>
  <text style="stroke:none;fill:black;font-family:-apple-system,&quot;SF Pro Display&quot;,&quot;SF Pro Text&quot;,Helvetica,sans-serif;" transform="matrix(1 0 0 1 263 1989)">For optimal layout with text and other symbols, vertically align</text>
  <text style="stroke:none;fill:black;font-family:-apple-system,&quot;SF Pro Display&quot;,&quot;SF Pro Text&quot;,Helvetica,sans-serif;" transform="matrix(1 0 0 1 263 2007)">symbols with the adjacent text.</text>
  <rect height="14" id="" style="fill:#00AEEF;stroke:none;opacity:0.4;" width="3" x="776" y="1919"/>
  <g id="" transform="matrix(1 0 0 1 779 1933)">
   <path d="M 10.5273 0 L 12.373 0 L 7.17773 -14.0918 L 5.43945 -14.0918 L 0.244141 0 L 2.08984 0 L 3.50586 -4.0332 L 9.11133 -4.0332 Z M 6.2793 -11.9531 L 6.33789 -11.9531 L 8.59375 -5.52734 L 4.02344 -5.52734 Z"/>
  </g>
  <rect height="14" id="" style="fill:#00AEEF;stroke:none;opacity:0.4;" width="3" x="791.617" y="1919"/>
  <text style="stroke:none;fill:black;font-family:-apple-system,&quot;SF Pro Display&quot;,&quot;SF Pro Text&quot;,Helvetica,sans-serif;font-weight:bold;" transform="matrix(1 0 0 1 776 1953)">Margins</text>
  <text style="stroke:none;fill:black;font-family:-apple-system,&quot;SF Pro Display&quot;,&quot;SF Pro Text&quot;,Helvetica,sans-serif;" transform="matrix(1 0 0 1 776 1971)">Leading and trailing margins on the left and right side of each symbol</text>
  <text style="stroke:none;fill:black;font-family:-apple-system,&quot;SF Pro Display&quot;,&quot;SF Pro Text&quot;,Helvetica,sans-serif;" transform="matrix(1 0 0 1 776 1989)">can be adjusted by modifying the width of the blue rectangles.</text>
  <text style="stroke:none;fill:black;font-family:-apple-system,&quot;SF Pro Display&quot;,&quot;SF Pro Text&quot;,Helvetica,sans-serif;" transform="matrix(1 0 0 1 776 2007)">Modifications are automatically applied proportionally to all</text>
  <text style="stroke:none;fill:black;font-family:-apple-system,&quot;SF Pro Display&quot;,&quot;SF Pro Text&quot;,Helvetica,sans-serif;" transform="matrix(1 0 0 1 776 2025)">scales and weights.</text>
  <g id="" transform="matrix(1 0 0 1 1289 1933)">
   <path d="M 2.83203 3.11523 L 4.375 4.6582 C 5.22461 5.48828 6.19141 5.41992 7.06055 4.46289 L 17.2754 -6.66016 C 17.7051 -6.36719 18.0957 -6.37695 18.5645 -6.47461 L 19.6094 -6.68945 L 20.3027 -5.99609 L 20.2539 -5.47852 C 20.1855 -4.95117 20.3516 -4.53125 20.8496 -4.0332 L 21.6602 -3.22266 C 22.168 -2.71484 22.8223 -2.68555 23.3008 -3.16406 L 26.5527 -6.41602 C 27.0312 -6.89453 27.0117 -7.54883 26.5039 -8.05664 L 25.6836 -8.87695 C 25.1855 -9.375 24.7754 -9.55078 24.2383 -9.47266 L 23.7109 -9.41406 L 23.0566 -10.0781 L 23.3398 -11.2207 C 23.4863 -11.7871 23.3398 -12.2559 22.7148 -12.8613 L 20.3027 -15.2539 C 16.7578 -18.7793 12.2266 -18.6719 9.11133 -15.5371 C 8.69141 -15.1074 8.64258 -14.5215 8.91602 -14.0918 C 9.15039 -13.7207 9.62891 -13.4961 10.2734 -13.6621 C 11.7871 -14.043 13.3008 -13.9258 14.7852 -12.9199 L 14.1602 -11.3379 C 13.9258 -10.752 13.9453 -10.2734 14.1797 -9.83398 L 3.01758 0.439453 C 2.08008 1.30859 1.97266 2.25586 2.83203 3.11523 Z M 10.6738 -15.1465 C 13.3398 -17.1387 16.6504 -16.8262 19.0527 -14.4141 L 21.6797 -11.8066 C 21.9141 -11.5723 21.9434 -11.3867 21.8848 -11.0938 L 21.5039 -9.53125 L 23.0762 -7.95898 L 24.043 -8.04688 C 24.3262 -8.07617 24.4141 -8.05664 24.6387 -7.83203 L 25.2637 -7.20703 L 22.5098 -4.46289 L 21.8848 -5.07812 C 21.6602 -5.30273 21.6406 -5.40039 21.6699 -5.68359 L 21.7578 -6.64062 L 20.1953 -8.20312 L 18.5742 -7.89062 C 18.291 -7.83203 18.1445 -7.83203 17.9102 -8.07617 L 15.7324 -10.2539 C 15.5078 -10.4883 15.4785 -10.625 15.6055 -10.9473 L 16.5527 -13.2227 C 14.9512 -14.7559 12.8418 -15.6055 10.8008 -14.9512 C 10.7129 -14.9219 10.6445 -14.9414 10.6152 -14.9805 C 10.5859 -15.0293 10.5859 -15.0781 10.6738 -15.1465 Z M 4.10156 2.41211 C 3.61328 1.91406 3.78906 1.61133 4.12109 1.30859 L 15.0781 -8.80859 L 16.3086 -7.57812 L 6.15234 3.34961 C 5.84961 3.68164 5.46875 3.7793 5.06836 3.37891 Z"/>
  </g>
  <text style="stroke:none;fill:black;font-family:-apple-system,&quot;SF Pro Display&quot;,&quot;SF Pro Text&quot;,Helvetica,sans-serif;font-weight:bold;" transform="matrix(1 0 0 1 1289 1953)">Exporting</text>
  <text style="stroke:none;fill:black;font-family:-apple-system,&quot;SF Pro Display&quot;,&quot;SF Pro Text&quot;,Helvetica,sans-serif;" transform="matrix(1 0 0 1 1289 1971)">Symbols should be outlined when exporting to ensure the</text>
  <text style="stroke:none;fill:black;font-family:-apple-system,&quot;SF Pro Display&quot;,&quot;SF Pro Text&quot;,Helvetica,sans-serif;" transform="matrix(1 0 0 1 1289 1989)">design is preserved when submitting to Xcode.</text>
  <text id="template-version" style="stroke:none;fill:black;font-family:-apple-system,&quot;SF Pro Display&quot;,&quot;SF Pro Text&quot;,Helvetica,sans-serif;text-anchor:end;" transform="matrix(1 0 0 1 3036 1933)">Template v.1.0</text>
  <text style="stroke:none;fill:black;font-family:-apple-system,&quot;SF Pro Display&quot;,&quot;SF Pro Text&quot;,Helvetica,sans-serif;text-anchor:end;" transform="matrix(1 0 0 1 3036 1951)">Generated from 14.circle.fill</text>
  <text style="stroke:none;fill:black;font-family:-apple-system,&quot;SF Pro Display&quot;,&quot;SF Pro Text&quot;,Helvetica,sans-serif;text-anchor:end;" transform="matrix(1 0 0 1 3036 1969)">Typeset at 100 points</text>
  <text style="stroke:none;fill:black;font-family:-apple-system,&quot;SF Pro Display&quot;,&quot;SF Pro Text&quot;,Helvetica,sans-serif;" transform="matrix(1 0 0 1 263 726)">Small</text>
  <text style="stroke:none;fill:black;font-family:-apple-system,&quot;SF Pro Display&quot;,&quot;SF Pro Text&quot;,Helvetica,sans-serif;" transform="matrix(1 0 0 1 263 1156)">Medium</text>
  <text style="stroke:none;fill:black;font-family:-apple-system,&quot;SF Pro Display&quot;,&quot;SF Pro Text&quot;,Helvetica,sans-serif;" transform="matrix(1 0 0 1 263 1586)">Large</text>
 </g>
 <g id="Guides">
  <g id="H-reference" style="fill:#27AAE1;stroke:none;" transform="matrix(1 0 0 1 339 696)">
   <path d="M 54.9316 0 L 57.666 0 L 30.5664 -70.459 L 28.0762 -70.459 L 0.976562 0 L 3.66211 0 L 12.9395 -24.4629 L 45.7031 -24.4629 Z M 29.1992 -67.0898 L 29.4434 -67.0898 L 44.8242 -26.709 L 13.8184 -26.709 Z"/>
  </g>
  <line id="Baseline-S" style="fill:none;stroke:#27AAE1;opacity:1;stroke-width:0.577;" x1="263" x2="3036" y1="696" y2="696"/>
  <line id="Capline-S" style="fill:none;stroke:#27AAE1;opacity:1;stroke-width:0.577;" x1="263" x2="3036" y1="625.541" y2="625.541"/>
  <g id="H-reference" style="fill:#27AAE1;stroke:none;" transform="matrix(1 0 0 1 339 1126)">
   <path d="M 54.9316 0 L 57.666 0 L 30.5664 -70.459 L 28.0762 -70.459 L 0.976562 0 L 3.66211 0 L 12.9395 -24.4629 L 45.7031 -24.4629 Z M 29.1992 -67.0898 L 29.4434 -67.0898 L 44.8242 -26.709 L 13.8184 -26.709 Z"/>
  </g>
  <line id="Baseline-M" style="fill:none;stroke:#27AAE1;opacity:1;stroke-width:0.577;" x1="263" x2="3036" y1="1126" y2="1126"/>
  <line id="Capline-M" style="fill:none;stroke:#27AAE1;opacity:1;stroke-width:0.577;" x1="263" x2="3036" y1="1055.54" y2="1055.54"/>
  <g id="H-reference" style="fill:#27AAE1;stroke:none;" transform="matrix(1 0 0 1 339 1556)">
   <path d="M 54.9316 0 L 57.666 0 L 30.5664 -70.459 L 28.0762 -70.459 L 0.976562 0 L 3.66211 0 L 12.9395 -24.4629 L 45.7031 -24.4629 Z M 29.1992 -67.0898 L 29.4434 -67.0898 L 44.8242 -26.709 L 13.8184 -26.709 Z"/>
  </g>
  <line id="Baseline-L" style="fill:none;stroke:#27AAE1;opacity:1;stroke-width:0.577;" x1="263" x2="3036" y1="1556" y2="1556"/>
  <line id="Capline-L" style="fill:none;stroke:#27AAE1;opacity:1;stroke-width:0.577;" x1="263" x2="3036" y1="1485.54" y2="1485.54"/>
  <rect height="119.336" id="left-margin" style="fill:#00AEEF;stroke:none;opacity:0.4;" width="8.74023" x="1391.3" y="1030.79"/>
  <rect height="119.336" id="right-margin" style="fill:#00AEEF;stroke:none;opacity:0.4;" width="8.74023" x="1499.65" y="1030.79"/>
 </g>
 <g id="Symbols">
  <g id="Black-L" transform="matrix(1 0 0 1 2854.05 1556)">
   <path d="M 79.3457 32.8613 C 116.748 32.8613 147.412 2.19727 147.412 -35.2051 C 147.412 -72.6074 116.748 -103.271 79.2969 -103.271 C 41.8945 -103.271 11.2793 -72.6074 11.2793 -35.2051 C 11.2793 2.19727 41.9434 32.8613 79.3457 32.8613 Z M 102.148 -9.47266 C 98.7793 -9.47266 96.6797 -11.7676 96.6797 -15.0391 L 96.6797 -19.1406 L 84.3262 -19.1406 C 79.3945 -19.1406 76.709 -21.9238 76.709 -26.6602 C 76.709 -29.4922 77.4414 -32.0312 78.418 -34.5703 C 80.5176 -39.7949 83.9355 -47.6562 87.207 -53.8574 C 89.6973 -58.7891 92.9688 -61.084 98.4863 -61.084 C 104.639 -61.084 107.764 -57.4219 107.764 -51.5137 L 107.764 -29.7852 L 108.838 -29.7852 C 112.012 -29.7852 113.818 -27.6367 113.818 -24.4141 C 113.818 -21.1914 112.012 -19.2383 108.838 -19.2383 L 107.764 -19.2383 L 107.764 -15.0391 C 107.764 -11.7676 105.566 -9.47266 102.148 -9.47266 Z M 63.1348 -9.66797 C 59.082 -9.66797 56.9824 -12.1094 56.9824 -16.8457 L 56.9824 -45.8496 L 56.6895 -45.8496 L 53.7598 -42.9199 C 52.1484 -41.1133 50.9277 -40.3809 48.877 -40.3809 C 46.1426 -40.3809 43.8965 -42.7246 43.8965 -45.5566 C 43.8965 -47.998 44.873 -49.707 47.2656 -51.8066 L 53.6133 -57.3242 C 56.8359 -60.2051 58.9355 -60.9863 61.5723 -60.9863 C 66.6016 -60.9863 69.2383 -57.959 69.2383 -52.832 L 69.2383 -16.8457 C 69.2383 -12.1094 67.2363 -9.66797 63.1348 -9.66797 Z M 96.6797 -29.6387 L 96.6797 -49.3164 L 96.4355 -49.3164 C 93.7012 -43.3105 90.4785 -34.8633 88.4766 -29.9316 L 88.4766 -29.6387 Z"/>
  </g>
  <g id="Heavy-L" transform="matrix(1 0 0 1 2558.39 1556)">
   <path d="M 78.2715 31.7871 C 115.088 31.7871 145.312 1.61133 145.312 -35.2051 C 145.312 -72.0215 115.039 -102.197 78.2715 -102.197 C 41.4551 -102.197 11.2793 -72.0215 11.2793 -35.2051 C 11.2793 1.61133 41.5039 31.7871 78.2715 31.7871 Z M 101.562 -8.93555 C 98.4863 -8.93555 96.582 -11.084 96.582 -14.1113 L 96.582 -19.2871 L 82.373 -19.2871 C 77.9297 -19.2871 75.3906 -21.8262 75.3906 -26.1719 C 75.3906 -28.7109 76.0254 -30.957 76.9531 -33.3496 C 79.6387 -39.1602 84.1309 -48.2422 87.9395 -55.127 C 90.2832 -59.6191 93.2617 -61.6699 98.291 -61.6699 C 103.76 -61.6699 106.738 -58.3496 106.738 -53.0762 L 106.738 -28.9062 L 108.594 -28.9062 C 111.475 -28.9062 113.184 -27.002 113.184 -24.0723 C 113.184 -21.0938 111.475 -19.3359 108.594 -19.3359 L 106.738 -19.3359 L 106.738 -14.1113 C 106.738 -11.0352 104.736 -8.93555 101.562 -8.93555 Z M 61.5723 -9.17969 C 58.0078 -9.17969 56.0547 -11.377 56.0547 -15.5273 L 56.0547 -47.7539 L 55.7129 -47.7539 L 51.5625 -44.1406 C 50 -42.5293 48.9746 -41.9922 47.2168 -41.9922 C 44.6777 -41.9922 42.627 -44.1406 42.627 -46.7773 C 42.627 -48.9746 43.5059 -50.4883 45.6543 -52.3438 L 53.0273 -58.252 C 55.957 -60.791 57.8125 -61.4746 60.3027 -61.4746 C 64.6973 -61.4746 67.1387 -58.7402 67.1387 -54.2969 L 67.1387 -15.5273 C 67.1387 -11.377 65.2344 -9.17969 61.5723 -9.17969 Z M 96.582 -28.8574 L 96.582 -50.8301 L 96.3379 -50.8301 C 93.0664 -44.2871 88.623 -34.5703 86.1816 -29.1016 L 86.1816 -28.8574 Z"/>
  </g>
  <g id="Bold-L" transform="matrix(1 0 0 1 2262.88 1556)">
   <path d="M 77.0996 30.6152 C 113.232 30.6152 142.92 0.878906 142.92 -35.2051 C 142.92 -71.3379 113.184 -101.025 77.0508 -101.025 C 40.9668 -101.025 11.2793 -71.3379 11.2793 -35.2051 C 11.2793 0.878906 41.0156 30.6152 77.0996 30.6152 Z M 100.977 -8.30078 C 98.1934 -8.30078 96.4844 -10.3027 96.4844 -13.0371 L 96.4844 -19.4336 L 80.2246 -19.4336 C 76.2207 -19.4336 73.877 -21.6797 73.877 -25.6348 C 73.877 -27.832 74.4141 -29.7852 75.3418 -31.9336 C 78.7109 -38.4277 84.375 -48.877 88.7695 -56.4941 C 90.9668 -60.5469 93.6523 -62.3047 98.0469 -62.3047 C 102.832 -62.3047 105.566 -59.4238 105.566 -54.7852 L 105.566 -27.9785 L 108.301 -27.9785 C 110.889 -27.9785 112.451 -26.3184 112.451 -23.6816 C 112.451 -21.0449 110.889 -19.4824 108.301 -19.4824 L 105.566 -19.4824 L 105.566 -13.0371 C 105.566 -10.2539 103.857 -8.30078 100.977 -8.30078 Z M 59.8145 -8.69141 C 56.7383 -8.69141 54.9805 -10.5957 54.9805 -14.1113 L 54.9805 -49.9023 L 54.6387 -49.9023 L 49.1211 -45.5078 C 47.6562 -44.1406 46.7773 -43.75 45.3125 -43.75 C 43.0664 -43.75 41.1621 -45.7031 41.1621 -48.0957 C 41.1621 -50.0488 41.9922 -51.416 43.7988 -52.8809 L 52.3926 -59.2773 C 54.9805 -61.377 56.5918 -62.0605 58.8867 -62.0605 C 62.5977 -62.0605 64.7461 -59.668 64.7461 -55.9082 L 64.7461 -14.1113 C 64.7461 -10.5957 62.9883 -8.69141 59.8145 -8.69141 Z M 96.4844 -27.9297 L 96.4844 -52.4902 L 96.2402 -52.4902 C 92.3828 -45.3613 86.5234 -34.2285 83.5938 -28.1738 L 83.5938 -27.9297 Z"/>
  </g>
  <g id="Semibold-L" transform="matrix(1 0 0 1 1966.97 1556)">
   <path d="M 76.2695 29.7852 C 111.914 29.7852 141.309 0.439453 141.309 -35.2051 C 141.309 -70.8496 111.865 -100.244 76.2695 -100.244 C 40.625 -100.244 11.2793 -70.8496 11.2793 -35.2051 C 11.2793 0.439453 40.6738 29.7852 76.2695 29.7852 Z M 100.537 -7.91016 C 97.9492 -7.91016 96.4355 -9.7168 96.4355 -12.3047 L 96.4355 -19.5312 L 78.7598 -19.5312 C 75.0977 -19.5312 72.8516 -21.6309 72.8516 -25.293 C 72.8516 -27.2461 73.3398 -28.9551 74.2676 -30.957 C 78.0273 -37.9395 84.5703 -49.3164 89.3555 -57.4707 C 91.4062 -61.1816 93.8965 -62.7441 97.9004 -62.7441 C 102.148 -62.7441 104.736 -60.1074 104.736 -56.0059 L 104.736 -27.3438 L 108.105 -27.3438 C 110.449 -27.3438 111.914 -25.8301 111.914 -23.3887 C 111.914 -20.9961 110.498 -19.5312 108.105 -19.5312 L 104.736 -19.5312 L 104.736 -12.3047 C 104.736 -9.7168 103.223 -7.91016 100.537 -7.91016 Z M 58.6426 -8.30078 C 55.9082 -8.30078 54.2969 -10.0586 54.2969 -13.0859 L 54.2969 -51.3672 L 53.9062 -51.3672 L 47.4121 -46.4844 C 46.0449 -45.2637 45.2637 -44.9707 44.043 -44.9707 C 41.9922 -44.9707 40.1855 -46.7773 40.1855 -48.9746 C 40.1855 -50.7812 40.9668 -52.002 42.5781 -53.2715 L 51.9531 -59.9609 C 54.2969 -61.8164 55.7617 -62.4512 57.8613 -62.4512 C 61.1328 -62.4512 63.0859 -60.3027 63.0859 -57.0312 L 63.0859 -13.0859 C 63.0859 -10.0586 61.4746 -8.30078 58.6426 -8.30078 Z M 96.4355 -27.2949 L 96.4355 -53.6621 L 96.1426 -53.6621 C 91.8457 -46.0938 85.0586 -33.9844 81.7871 -27.5391 L 81.7871 -27.2949 Z"/>
  </g>
  <g id="Medium-L" transform="matrix(1 0 0 1 1670.87 1556)">
   <path d="M 75.6836 29.1992 C 110.938 29.1992 140.088 0.0488281 140.088 -35.2051 C 140.088 -70.459 110.889 -99.6094 75.6348 -99.6094 C 40.3809 -99.6094 11.2793 -70.459 11.2793 -35.2051 C 11.2793 0.0488281 40.3809 29.1992 75.6836 29.1992 Z M 100.195 -7.56836 C 97.8027 -7.56836 96.3867 -9.32617 96.3867 -11.7676 L 96.3867 -19.5801 L 77.6367 -19.5801 C 74.2188 -19.5801 72.0703 -21.5332 72.0703 -25 C 72.0703 -26.8066 72.5098 -28.3203 73.4375 -30.2246 C 77.5391 -37.5977 84.668 -49.707 89.7949 -58.1543 C 91.7969 -61.6699 94.0918 -63.0859 97.8027 -63.0859 C 101.66 -63.0859 104.15 -60.6934 104.15 -56.8848 L 104.15 -26.8555 L 107.959 -26.8555 C 110.156 -26.8555 111.572 -25.4395 111.572 -23.1934 C 111.572 -20.9473 110.156 -19.6289 107.959 -19.6289 L 104.15 -19.6289 L 104.15 -11.7676 C 104.15 -9.27734 102.734 -7.56836 100.195 -7.56836 Z M 57.7148 -8.00781 C 55.2734 -8.00781 53.7109 -9.66797 53.7109 -12.3535 L 53.7109 -52.4902 L 53.3691 -52.4902 L 46.1426 -47.2168 C 44.7754 -46.0938 44.1406 -45.8984 43.0664 -45.8984 C 41.1133 -45.8984 39.4043 -47.6074 39.4043 -49.707 C 39.4043 -51.3184 40.1855 -52.4902 41.6504 -53.5645 L 51.6113 -60.5469 C 53.8086 -62.1582 55.0781 -62.7441 57.1289 -62.7441 C 60.0098 -62.7441 61.8164 -60.791 61.8164 -57.8613 L 61.8164 -12.3535 C 61.8164 -9.66797 60.3027 -8.00781 57.7148 -8.00781 Z M 96.3867 -26.8066 L 96.3867 -54.541 L 96.0938 -54.541 C 91.5039 -46.6309 83.9355 -33.8379 80.4688 -27.0996 L 80.4688 -26.8066 Z"/>
  </g>
  <g id="Regular-L" transform="matrix(1 0 0 1 1374.97 1556)">
   <path d="M 74.8535 28.3691 C 109.668 28.3691 138.477 -0.390625 138.477 -35.2051 C 138.477 -70.0195 109.619 -98.7793 74.8047 -98.7793 C 40.0391 -98.7793 11.2793 -70.0195 11.2793 -35.2051 C 11.2793 -0.390625 40.0879 28.3691 74.8535 28.3691 Z M 99.7559 -7.17773 C 97.5586 -7.17773 96.2891 -8.78906 96.2891 -11.0352 L 96.2891 -19.6777 L 76.1719 -19.6777 C 73.0957 -19.6777 71.0938 -21.4844 71.0938 -24.6582 C 71.0938 -26.2207 71.3867 -27.4902 72.3145 -29.248 C 76.9043 -37.1094 84.8633 -50.1465 90.332 -59.1309 C 92.2363 -62.3047 94.3359 -63.5254 97.6074 -63.5254 C 101.025 -63.5254 103.369 -61.377 103.369 -58.1055 L 103.369 -26.1719 L 107.764 -26.1719 C 109.717 -26.1719 111.035 -24.9512 111.035 -22.9004 C 111.035 -20.8496 109.766 -19.6777 107.764 -19.6777 L 103.369 -19.6777 L 103.369 -11.0352 C 103.369 -8.74023 102.148 -7.17773 99.7559 -7.17773 Z M 56.543 -7.66602 C 54.3945 -7.66602 53.0273 -9.13086 53.0273 -11.377 L 53.0273 -53.9551 L 52.6367 -53.9551 L 44.4824 -48.1445 C 43.1641 -47.168 42.627 -47.1191 41.748 -47.1191 C 40.0391 -47.1191 38.4277 -48.6328 38.4277 -50.5859 C 38.4277 -52.0996 39.1113 -53.125 40.3809 -53.9551 L 51.1719 -61.2305 C 53.125 -62.5977 54.248 -63.1348 56.1523 -63.1348 C 58.5449 -63.1348 60.2051 -61.4258 60.2051 -58.9355 L 60.2051 -11.377 C 60.2051 -9.13086 58.7891 -7.66602 56.543 -7.66602 Z M 96.2891 -26.1719 L 96.2891 -55.7129 L 95.9961 -55.7129 C 91.0156 -47.3633 82.5195 -33.5938 78.6621 -26.4648 L 78.6621 -26.1719 Z"/>
  </g>
  <g id="Light-L" transform="matrix(1 0 0 1 1079.18 1556)">
   <path d="M 73.9258 27.4902 C 108.301 27.4902 136.621 -0.830078 136.621 -35.1562 C 136.621 -69.5312 108.252 -97.8516 73.9258 -97.8516 C 39.5508 -97.8516 11.2793 -69.5312 11.2793 -35.1562 C 11.2793 -0.830078 39.5996 27.4902 73.9258 27.4902 Z M 98.6328 -7.56836 C 96.9238 -7.56836 95.8496 -8.83789 95.8496 -10.5957 L 95.8496 -20.459 L 74.5117 -20.459 C 71.875 -20.459 70.166 -21.875 70.166 -24.5117 C 70.166 -25.7324 70.5078 -26.8555 71.1914 -28.1738 C 75.9277 -35.8887 85.5957 -51.123 91.0156 -59.668 C 92.627 -62.2559 94.2871 -63.2324 96.9238 -63.2324 C 99.6582 -63.2324 101.514 -61.5234 101.514 -58.8379 L 101.514 -25.7812 L 107.08 -25.7812 C 108.643 -25.7812 109.717 -24.707 109.717 -23.0957 C 109.717 -21.4355 108.691 -20.459 107.08 -20.459 L 101.514 -20.459 L 101.514 -10.5957 C 101.514 -8.78906 100.537 -7.56836 98.6328 -7.56836 Z M 55.5176 -7.86133 C 53.8574 -7.86133 52.6855 -9.0332 52.6855 -10.8398 L 52.6855 -55.4199 L 52.3926 -55.4199 L 42.7246 -48.877 C 41.7969 -48.1934 41.3574 -48.1934 40.7227 -48.1934 C 39.3066 -48.1934 38.0371 -49.4141 38.0371 -50.9277 C 38.0371 -52.0996 38.5254 -52.8809 39.5996 -53.5645 L 51.3184 -61.4258 C 52.832 -62.4023 53.7109 -62.793 55.2246 -62.793 C 57.1289 -62.793 58.4473 -61.4746 58.4473 -59.5215 L 58.4473 -10.8398 C 58.4473 -9.0332 57.373 -7.86133 55.5176 -7.86133 Z M 95.8496 -25.7812 L 95.8496 -56.8359 L 95.6055 -56.8359 C 90.918 -49.4141 80.127 -32.666 76.416 -25.9766 L 76.416 -25.7812 Z"/>
  </g>
  <g id="Thin-L" transform="matrix(1 0 0 1 783.693 1556)">
   <path d="M 72.7051 26.3184 C 106.494 26.3184 134.18 -1.36719 134.18 -35.1074 C 134.18 -68.8965 106.494 -96.582 72.7051 -96.582 C 38.9648 -96.582 11.2793 -68.8965 11.2793 -35.1074 C 11.2793 -1.36719 38.9648 26.3184 72.7051 26.3184 Z M 97.168 -8.10547 C 96.0938 -8.10547 95.2148 -8.88672 95.2148 -10.0586 L 95.2148 -21.4844 L 72.2656 -21.4844 C 70.2637 -21.4844 68.9941 -22.4121 68.9941 -24.3164 C 68.9941 -25.1465 69.2871 -26.0254 69.6777 -26.709 C 74.6582 -34.3262 86.6211 -52.4414 91.9434 -60.4004 C 93.1152 -62.207 94.2871 -62.793 96.0449 -62.793 C 97.9004 -62.793 99.0723 -61.6699 99.0723 -59.8633 L 99.0723 -25.1953 L 106.152 -25.1953 C 107.178 -25.1953 108.008 -24.3652 108.008 -23.291 C 108.008 -22.2168 107.275 -21.4844 106.152 -21.4844 L 99.0723 -21.4844 L 99.0723 -10.0586 C 99.0723 -8.88672 98.4375 -8.10547 97.168 -8.10547 Z M 54.248 -8.1543 C 53.125 -8.1543 52.2949 -8.93555 52.2949 -10.1074 L 52.2949 -57.4219 L 52.0508 -57.4219 L 40.4297 -49.8047 C 39.9414 -49.5605 39.6973 -49.5605 39.3066 -49.5605 C 38.3301 -49.5605 37.5 -50.3906 37.5 -51.3184 C 37.5 -52.0996 37.6953 -52.6367 38.5254 -53.0762 L 51.5625 -61.6699 C 52.3926 -62.207 52.9785 -62.4023 54.0039 -62.4023 C 55.2734 -62.4023 56.2012 -61.5234 56.2012 -60.2539 L 56.2012 -10.1074 C 56.2012 -8.93555 55.5176 -8.1543 54.248 -8.1543 Z M 95.2148 -25.1953 L 95.2148 -58.3496 L 95.0684 -58.3496 C 90.8203 -52.0996 77.002 -31.4941 73.3398 -25.3906 L 73.3398 -25.1953 Z"/>
  </g>
  <g id="Ultralight-L" transform="matrix(1 0 0 1 487.616 1556)">
   <path d="M 72.1191 25.7324 C 105.566 25.7324 132.91 -1.61133 132.91 -35.1074 C 132.91 -68.5547 105.566 -95.8984 72.1191 -95.8984 C 38.623 -95.8984 11.2793 -68.5547 11.2793 -35.1074 C 11.2793 -1.61133 38.623 25.7324 72.1191 25.7324 Z M 96.3867 -8.39844 C 95.6543 -8.39844 94.9219 -8.88672 94.9219 -9.81445 L 94.9219 -22.0215 L 71.1426 -22.0215 C 69.4336 -22.0215 68.4082 -22.7051 68.4082 -24.2188 C 68.4082 -24.8047 68.6523 -25.5859 68.8965 -25.9766 C 74.0234 -33.4961 87.1094 -53.125 92.3828 -60.791 C 93.3594 -62.207 94.2871 -62.5977 95.5566 -62.5977 C 96.9727 -62.5977 97.8516 -61.7676 97.8516 -60.3516 L 97.8516 -24.9023 L 105.713 -24.9023 C 106.445 -24.9023 107.129 -24.1699 107.129 -23.4375 C 107.129 -22.6074 106.543 -22.0215 105.713 -22.0215 L 97.8516 -22.0215 L 97.8516 -9.81445 C 97.8516 -8.88672 97.3633 -8.39844 96.3867 -8.39844 Z M 53.5645 -8.30078 C 52.7344 -8.30078 52.0996 -8.83789 52.0996 -9.76562 L 52.0996 -58.4473 L 51.9043 -58.4473 L 39.2578 -50.293 C 38.9648 -50.2441 38.8672 -50.2441 38.623 -50.2441 C 37.793 -50.2441 37.207 -50.8789 37.207 -51.5137 C 37.207 -52.0996 37.3047 -52.4902 37.9395 -52.832 L 51.709 -61.7676 C 52.1973 -62.0605 52.5879 -62.207 53.3691 -62.207 C 54.3457 -62.207 55.0293 -61.5723 55.0293 -60.6445 L 55.0293 -9.76562 C 55.0293 -8.83789 54.5898 -8.30078 53.5645 -8.30078 Z M 94.9219 -24.9023 L 94.9219 -59.1309 L 94.7754 -59.1309 C 90.7715 -53.4668 75.3906 -30.8594 71.8262 -25.0488 L 71.8262 -24.9023 Z"/>
  </g>
  <g id="Black-M" transform="matrix(1 0 0 1 2870.97 1126)">
   <path d="M 62.4023 18.457 C 91.9922 18.457 116.113 -5.61523 116.113 -35.2051 C 116.113 -64.7949 91.9922 -88.8672 62.4023 -88.8672 C 32.8125 -88.8672 8.74023 -64.7949 8.74023 -35.2051 C 8.74023 -5.61523 32.8125 18.457 62.4023 18.457 Z M 50.4883 -16.2109 C 46.9727 -16.2109 45.3125 -18.2129 45.3125 -22.4121 L 45.3125 -41.6504 L 45.1172 -41.6504 L 43.7012 -39.8926 C 42.5293 -38.3789 41.4551 -37.6465 39.5996 -37.6465 C 37.3047 -37.6465 35.5469 -39.5508 35.5469 -41.7969 C 35.5469 -43.7988 36.2793 -45.2637 38.3789 -47.2168 L 42.3828 -51.1719 C 45.0195 -53.7598 46.875 -54.3457 48.9746 -54.3457 C 53.4668 -54.3457 55.6641 -51.7578 55.6641 -47.2168 L 55.6641 -22.4121 C 55.6641 -18.2129 54.0039 -16.2109 50.4883 -16.2109 Z M 79.2969 -16.2109 C 76.6113 -16.2109 74.8047 -18.0176 74.8047 -20.6543 L 74.8047 -22.998 L 67.041 -22.998 C 62.8906 -22.998 60.7422 -25.2441 60.7422 -29.1504 C 60.7422 -31.5918 61.4746 -33.8379 62.0605 -35.8398 C 63.0371 -38.9648 65.1367 -44.5801 66.9434 -48.291 C 68.8965 -52.3926 71.582 -54.2969 76.2207 -54.2969 C 81.4941 -54.2969 83.9355 -51.2207 83.9355 -46.1426 L 83.9355 -31.8848 L 84.3262 -31.8848 C 86.9629 -31.8848 88.4277 -30.0781 88.4277 -27.3926 C 88.4277 -24.7559 86.9629 -23.1445 84.3262 -23.1445 L 83.9355 -23.1445 L 83.9355 -20.6543 C 83.9355 -18.0176 82.0312 -16.2109 79.2969 -16.2109 Z M 74.8047 -31.7871 L 74.8047 -44.7266 L 74.6582 -44.7266 C 73.4375 -41.3086 71.4355 -34.8633 70.459 -31.9824 L 70.459 -31.7871 Z"/>
  </g>
  <g id="Heavy-M" transform="matrix(1 0 0 1 2575.19 1126)">
   <path d="M 61.5234 17.5781 C 90.5273 17.5781 114.258 -6.15234 114.258 -35.2051 C 114.258 -64.2578 90.5273 -87.9883 61.4746 -87.9883 C 32.4707 -87.9883 8.74023 -64.2578 8.74023 -35.2051 C 8.74023 -6.15234 32.4707 17.5781 61.5234 17.5781 Z M 79.0039 -15.5273 C 76.4648 -15.5273 74.8047 -17.2363 74.8047 -19.7266 L 74.8047 -22.9492 L 65.3809 -22.9492 C 61.5723 -22.9492 59.5215 -25.0488 59.5215 -28.6621 C 59.5215 -30.8594 60.1562 -32.8613 60.791 -34.7656 C 62.3535 -38.5742 65.1855 -44.9707 67.5781 -49.5117 C 69.4336 -53.2715 71.9238 -55.0293 76.1719 -55.0293 C 80.9082 -55.0293 83.252 -52.2461 83.252 -47.6562 L 83.252 -31.1035 L 84.2285 -31.1035 C 86.6699 -31.1035 88.0371 -29.4434 88.0371 -26.9531 C 88.0371 -24.5117 86.6699 -23.0469 84.2285 -23.0469 L 83.252 -23.0469 L 83.252 -19.7266 C 83.252 -17.2363 81.5918 -15.5273 79.0039 -15.5273 Z M 49.0723 -15.625 C 45.8984 -15.625 44.3359 -17.4316 44.3359 -21.1426 L 44.3359 -43.3594 L 44.1406 -43.3594 L 41.748 -41.0645 C 40.5762 -39.6973 39.5996 -39.1113 38.0371 -39.1113 C 35.8887 -39.1113 34.2285 -40.918 34.2285 -43.0176 C 34.2285 -44.873 34.9609 -46.1914 36.8164 -47.8516 L 41.748 -52.1484 C 44.1406 -54.3945 45.8008 -54.9805 47.8027 -54.9805 C 51.709 -54.9805 53.7598 -52.6367 53.7598 -48.6328 L 53.7598 -21.1426 C 53.7598 -17.4316 52.1973 -15.625 49.0723 -15.625 Z M 74.8047 -31.0059 L 74.8047 -46.0938 L 74.6582 -46.0938 C 72.7539 -41.7969 69.9707 -34.7656 68.5547 -31.2012 L 68.5547 -31.0059 Z"/>
  </g>
  <g id="Bold-M" transform="matrix(1 0 0 1 2279.5 1126)">
   <path d="M 60.498 16.5039 C 88.8672 16.5039 112.207 -6.78711 112.207 -35.2051 C 112.207 -63.623 88.8672 -86.9629 60.4492 -86.9629 C 32.0312 -86.9629 8.74023 -63.623 8.74023 -35.2051 C 8.74023 -6.78711 32.0801 16.5039 60.498 16.5039 Z M 78.6133 -14.7461 C 76.2695 -14.7461 74.8535 -16.3574 74.8535 -18.6523 L 74.8535 -22.8516 L 63.5254 -22.8516 C 60.1074 -22.8516 58.1543 -24.8047 58.1543 -28.125 C 58.1543 -30.0293 58.6426 -31.7383 59.375 -33.5449 C 61.5723 -38.1836 65.2344 -45.4102 68.3105 -50.8789 C 70.0684 -54.2969 72.3633 -55.8105 76.123 -55.8105 C 80.2734 -55.8105 82.5195 -53.3203 82.5195 -49.3164 L 82.5195 -30.1758 L 84.1309 -30.1758 C 86.3281 -30.1758 87.5977 -28.7598 87.5977 -26.5137 C 87.5977 -24.2676 86.3281 -22.9492 84.1309 -22.9492 L 82.5195 -22.9492 L 82.5195 -18.6523 C 82.5195 -16.3574 81.0547 -14.7461 78.6133 -14.7461 Z M 47.4121 -14.9414 C 44.7266 -14.9414 43.2617 -16.6504 43.2617 -19.7266 L 43.2617 -45.2637 L 43.0176 -45.2637 L 39.5508 -42.3828 C 38.3789 -41.1621 37.5977 -40.7227 36.2793 -40.7227 C 34.375 -40.7227 32.7637 -42.3828 32.7637 -44.3848 C 32.7637 -46.0449 33.4961 -47.2168 35.0586 -48.584 L 40.9668 -53.2227 C 43.2129 -55.127 44.6289 -55.6641 46.4844 -55.6641 C 49.8047 -55.6641 51.6113 -53.6133 51.6113 -50.2441 L 51.6113 -19.7266 C 51.6113 -16.6504 50.1953 -14.9414 47.4121 -14.9414 Z M 74.8535 -30.127 L 74.8535 -47.6074 L 74.6582 -47.6074 C 72.0215 -42.3828 68.3594 -34.668 66.3574 -30.3223 L 66.3574 -30.127 Z"/>
  </g>
  <g id="Semibold-M" transform="matrix(1 0 0 1 1983.5 1126)">
   <path d="M 59.7656 15.8203 C 87.7441 15.8203 110.791 -7.22656 110.791 -35.2051 C 110.791 -63.1836 87.6953 -86.2793 59.7656 -86.2793 C 31.7871 -86.2793 8.74023 -63.1836 8.74023 -35.2051 C 8.74023 -7.22656 31.7871 15.8203 59.7656 15.8203 Z M 78.3691 -14.209 C 76.1719 -14.209 74.8535 -15.7715 74.8535 -17.9688 L 74.8535 -22.8027 L 62.207 -22.8027 C 59.082 -22.8027 57.2266 -24.6094 57.2266 -27.7344 C 57.2266 -29.4922 57.666 -30.957 58.3984 -32.7148 C 61.0352 -37.8906 65.2832 -45.7031 68.7988 -51.8066 C 70.5078 -55.0293 72.6074 -56.3965 76.123 -56.3965 C 79.834 -56.3965 82.0312 -54.1016 82.0312 -50.4883 L 82.0312 -29.541 L 84.0332 -29.541 C 86.084 -29.541 87.3047 -28.2715 87.3047 -26.1719 C 87.3047 -24.0723 86.084 -22.8516 84.0332 -22.8516 L 82.0312 -22.8516 L 82.0312 -17.9688 C 82.0312 -15.7227 80.7129 -14.209 78.3691 -14.209 Z M 46.2891 -14.502 C 43.8965 -14.502 42.5293 -16.0645 42.5293 -18.75 L 42.5293 -46.582 L 42.2363 -46.582 L 38.0859 -43.2617 C 36.8652 -42.1387 36.1816 -41.8945 35.0586 -41.8945 C 33.3008 -41.8945 31.7871 -43.4082 31.7871 -45.3125 C 31.7871 -46.875 32.4707 -47.9492 33.8867 -49.0723 L 40.4297 -53.9551 C 42.5293 -55.6641 43.7988 -56.1523 45.6055 -56.1523 C 48.4863 -56.1523 50.1953 -54.2969 50.1953 -51.3672 L 50.1953 -18.75 C 50.1953 -16.0645 48.7793 -14.502 46.2891 -14.502 Z M 74.8535 -29.541 L 74.8535 -48.6328 L 74.6582 -48.6328 C 71.4844 -42.7734 67.2363 -34.6191 64.8926 -29.7363 L 64.8926 -29.541 Z"/>
  </g>
  <g id="Medium-M" transform="matrix(1 0 0 1 1687.3 1126)">
   <path d="M 59.2285 15.2832 C 86.9141 15.2832 109.766 -7.56836 109.766 -35.2051 C 109.766 -62.8906 86.8652 -85.7422 59.1797 -85.7422 C 31.543 -85.7422 8.74023 -62.8906 8.74023 -35.2051 C 8.74023 -7.56836 31.5918 15.2832 59.2285 15.2832 Z M 78.2227 -13.7695 C 76.0742 -13.7695 74.9023 -15.332 74.9023 -17.4316 L 74.9023 -22.8027 L 61.2305 -22.8027 C 58.3496 -22.8027 56.4941 -24.5117 56.4941 -27.4902 C 56.4941 -29.0527 56.8848 -30.3711 57.666 -32.0312 C 60.6445 -37.6465 65.2832 -45.8984 69.1406 -52.4902 C 70.8496 -55.5176 72.8516 -56.7871 76.0742 -56.7871 C 79.4922 -56.7871 81.6406 -54.6875 81.6406 -51.3672 L 81.6406 -29.1016 L 83.9844 -29.1016 C 85.8887 -29.1016 87.1094 -27.8809 87.1094 -25.9277 C 87.1094 -23.9746 85.8887 -22.8027 83.9844 -22.8027 L 81.6406 -22.8027 L 81.6406 -17.4316 C 81.6406 -15.2832 80.4199 -13.7695 78.2227 -13.7695 Z M 45.459 -14.1602 C 43.3105 -14.1602 41.9922 -15.625 41.9922 -18.0176 L 41.9922 -47.5586 L 41.6504 -47.5586 L 36.9141 -43.9453 C 35.7422 -42.9199 35.1074 -42.7246 34.1797 -42.7246 C 32.5195 -42.7246 31.0059 -44.1895 31.0059 -46.0449 C 31.0059 -47.4609 31.6895 -48.4863 32.959 -49.4629 L 40.0391 -54.541 C 42.041 -56.0059 43.1641 -56.543 44.9219 -56.543 C 47.4609 -56.543 49.0723 -54.834 49.0723 -52.1973 L 49.0723 -18.0176 C 49.0723 -15.625 47.7539 -14.1602 45.459 -14.1602 Z M 74.9023 -29.0527 L 74.9023 -49.4141 L 74.6582 -49.4141 C 71.0938 -43.0664 66.4062 -34.5703 63.7695 -29.2969 L 63.7695 -29.0527 Z"/>
  </g>
  <g id="Regular-M" transform="matrix(1 0 0 1 1391.3 1126)">
   <path d="M 58.5449 14.5508 C 85.791 14.5508 108.35 -8.00781 108.35 -35.2539 C 108.35 -62.4512 85.7422 -85.0586 58.4961 -85.0586 C 31.2988 -85.0586 8.74023 -62.4512 8.74023 -35.2539 C 8.74023 -8.00781 31.3477 14.5508 58.5449 14.5508 Z M 77.9785 -13.2324 C 75.9766 -13.2324 74.9023 -14.6973 74.9023 -16.6992 L 74.9023 -22.7539 L 60.0098 -22.7539 C 57.3242 -22.7539 55.5664 -24.3164 55.5664 -27.0996 C 55.5664 -28.5156 55.8594 -29.6387 56.6895 -31.2012 C 60.1562 -37.3535 65.332 -46.1914 69.6289 -53.418 C 71.2891 -56.25 73.0957 -57.3242 76.0254 -57.3242 C 79.0527 -57.3242 81.1523 -55.4199 81.1523 -52.5391 L 81.1523 -28.4668 L 83.8867 -28.4668 C 85.6445 -28.4668 86.8164 -27.3926 86.8164 -25.5859 C 86.8164 -23.7793 85.6934 -22.7539 83.8867 -22.7539 L 81.1523 -22.7539 L 81.1523 -16.6992 C 81.1523 -14.6484 80.0781 -13.2324 77.9785 -13.2324 Z M 44.3359 -13.7207 C 42.4805 -13.7207 41.2598 -15.0391 41.2598 -17.041 L 41.2598 -48.877 L 40.918 -48.877 L 35.4492 -44.8242 C 34.2773 -43.8965 33.7402 -43.8477 32.959 -43.8477 C 31.4453 -43.8477 30.0293 -45.2148 30.0293 -46.9727 C 30.0293 -48.291 30.6641 -49.2188 31.7871 -49.9512 L 39.5508 -55.2734 C 41.3574 -56.4941 42.3828 -57.0312 44.043 -57.0312 C 46.1426 -57.0312 47.6074 -55.5176 47.6074 -53.3203 L 47.6074 -17.041 C 47.6074 -15.0391 46.3379 -13.7207 44.3359 -13.7207 Z M 74.9023 -28.4668 L 74.9023 -50.4395 L 74.6094 -50.4395 C 70.5566 -43.457 65.2832 -34.4727 62.3047 -28.7109 L 62.3047 -28.4668 Z"/>
  </g>
  <g id="Light-M" transform="matrix(1 0 0 1 1095.42 1126)">
   <path d="M 57.7148 13.7695 C 84.5215 13.7695 106.689 -8.39844 106.689 -35.2051 C 106.689 -62.0117 84.5215 -84.1797 57.666 -84.1797 C 30.8594 -84.1797 8.74023 -62.0117 8.74023 -35.2051 C 8.74023 -8.39844 30.9082 13.7695 57.7148 13.7695 Z M 76.9531 -13.623 C 75.3906 -13.623 74.5117 -14.7461 74.5117 -16.3574 L 74.5117 -23.4375 L 58.4961 -23.4375 C 56.25 -23.4375 54.7852 -24.707 54.7852 -27.002 C 54.7852 -28.0762 55.0293 -29.0527 55.6641 -30.2246 C 59.2773 -36.2793 66.0156 -47.1191 70.2637 -53.9062 C 71.582 -56.2012 73.0957 -57.0801 75.4395 -57.0801 C 77.832 -57.0801 79.4922 -55.5176 79.4922 -53.1738 L 79.4922 -28.0762 L 83.3008 -28.0762 C 84.668 -28.0762 85.6445 -27.1973 85.6445 -25.7324 C 85.6445 -24.2676 84.7168 -23.4375 83.3008 -23.4375 L 79.4922 -23.4375 L 79.4922 -16.3574 C 79.4922 -14.6973 78.6133 -13.623 76.9531 -13.623 Z M 43.457 -13.916 C 41.9922 -13.916 40.9668 -14.9902 40.9668 -16.5527 L 40.9668 -50.2441 L 40.6738 -50.2441 L 33.8867 -45.459 C 33.0078 -44.8242 32.6172 -44.7754 32.0312 -44.7754 C 30.7617 -44.7754 29.6387 -45.8984 29.6387 -47.2168 C 29.6387 -48.291 30.127 -49.0234 31.0547 -49.6094 L 39.6973 -55.4199 C 41.0645 -56.3477 41.8457 -56.7383 43.2129 -56.7383 C 44.9219 -56.7383 46.0938 -55.5664 46.0938 -53.8086 L 46.0938 -16.5527 C 46.0938 -14.9902 45.1172 -13.916 43.457 -13.916 Z M 74.5117 -28.0762 L 74.5117 -51.4648 L 74.2676 -51.4648 C 70.5078 -45.3125 63.1836 -33.6426 60.2051 -28.2715 L 60.2051 -28.0762 Z"/>
  </g>
  <g id="Thin-M" transform="matrix(1 0 0 1 799.806 1126)">
   <path d="M 56.6406 12.7441 C 82.9102 12.7441 104.492 -8.83789 104.492 -35.1562 C 104.492 -61.4746 82.9102 -83.0566 56.5918 -83.0566 C 30.3223 -83.0566 8.74023 -61.4746 8.74023 -35.1562 C 8.74023 -8.83789 30.3223 12.7441 56.6406 12.7441 Z M 75.6348 -14.1113 C 74.6582 -14.1113 73.9258 -14.7949 73.9258 -15.8691 L 73.9258 -24.3652 L 56.4941 -24.3652 C 54.7852 -24.3652 53.7109 -25.1953 53.7109 -26.8066 C 53.7109 -27.5391 53.9551 -28.2715 54.2969 -28.9551 C 58.1543 -34.8633 66.8945 -48.291 71.0449 -54.5898 C 72.0215 -56.1523 73.0469 -56.6895 74.6094 -56.6895 C 76.2207 -56.6895 77.3438 -55.7129 77.3438 -54.1016 L 77.3438 -27.5879 L 82.4707 -27.5879 C 83.3984 -27.5879 84.082 -26.8555 84.082 -25.9277 C 84.082 -24.9512 83.4473 -24.3652 82.4707 -24.3652 L 77.3438 -24.3652 L 77.3438 -15.8691 C 77.3438 -14.7949 76.7578 -14.1113 75.6348 -14.1113 Z M 42.334 -14.209 C 41.3574 -14.209 40.625 -14.8926 40.625 -15.918 L 40.625 -52.002 L 40.4297 -52.002 L 31.8359 -46.3379 C 31.3477 -46.0449 31.1523 -46.0449 30.7617 -46.0449 C 29.8828 -46.0449 29.1504 -46.7285 29.1504 -47.6074 C 29.1504 -48.291 29.3945 -48.7793 30.0781 -49.1699 L 39.9414 -55.6641 C 40.7227 -56.1523 41.2109 -56.3965 42.0898 -56.3965 C 43.2617 -56.3965 44.043 -55.6152 44.043 -54.4434 L 44.043 -15.918 C 44.043 -14.8926 43.4082 -14.209 42.334 -14.209 Z M 73.9258 -27.5879 L 73.9258 -52.832 L 73.7793 -52.832 C 70.4102 -47.7051 60.3516 -32.5684 57.5195 -27.7344 L 57.5195 -27.5879 Z"/>
  </g>
  <g id="Ultralight-M" transform="matrix(1 0 0 1 503.656 1126)">
   <path d="M 56.0547 12.207 C 82.0801 12.207 103.369 -9.08203 103.369 -35.1562 C 103.369 -61.1816 82.0801 -82.4707 56.0547 -82.4707 C 30.0293 -82.4707 8.74023 -61.1816 8.74023 -35.1562 C 8.74023 -9.08203 30.0293 12.207 56.0547 12.207 Z M 74.9512 -14.3555 C 74.2676 -14.3555 73.6816 -14.8438 73.6816 -15.625 L 73.6816 -24.8047 L 55.4688 -24.8047 C 54.0527 -24.8047 53.1738 -25.4395 53.1738 -26.709 C 53.1738 -27.2461 53.3691 -27.8809 53.6133 -28.2715 C 57.5684 -34.1309 67.3828 -48.877 71.4844 -54.9316 C 72.2656 -56.1523 73.0469 -56.4941 74.2188 -56.4941 C 75.4395 -56.4941 76.2207 -55.7617 76.2207 -54.541 L 76.2207 -27.3438 L 82.0801 -27.3438 C 82.7148 -27.3438 83.3008 -26.709 83.3008 -26.0254 C 83.3008 -25.293 82.8125 -24.8047 82.0801 -24.8047 L 76.2207 -24.8047 L 76.2207 -15.625 C 76.2207 -14.8438 75.7812 -14.3555 74.9512 -14.3555 Z M 41.748 -14.3066 C 41.0156 -14.3066 40.4297 -14.7949 40.4297 -15.625 L 40.4297 -52.9297 L 40.2832 -52.9297 L 30.7617 -46.7773 C 30.4688 -46.6309 30.3711 -46.6309 30.127 -46.6309 C 29.4434 -46.6309 28.9062 -47.2168 28.9062 -47.8027 C 28.9062 -48.291 29.0039 -48.6328 29.5898 -48.9746 L 40.0391 -55.7617 C 40.5273 -56.0547 40.8691 -56.2012 41.5527 -56.2012 C 42.3828 -56.2012 43.0176 -55.6641 43.0176 -54.7852 L 43.0176 -15.625 C 43.0176 -14.7949 42.5781 -14.3066 41.748 -14.3066 Z M 73.6816 -27.3438 L 73.6816 -53.5156 L 73.5352 -53.5156 C 70.3613 -48.9258 58.9355 -32.0312 56.1035 -27.4414 L 56.1035 -27.3438 Z"/>
  </g>
  <g id="Black-S" transform="matrix(1 0 0 1 2884.57 696)">
   <path d="M 48.8281 6.78711 C 71.9727 6.78711 90.8203 -12.0605 90.8203 -35.2051 C 90.8203 -58.3496 71.9727 -77.1973 48.8281 -77.1973 C 25.6836 -77.1973 6.83594 -58.3496 6.83594 -35.2051 C 6.83594 -12.0605 25.6836 6.78711 48.8281 6.78711 Z M 39.4531 -20.2637 C 36.7188 -20.2637 35.4004 -21.8262 35.4004 -25.0977 L 35.4004 -40.3809 L 35.2539 -40.3809 L 34.082 -38.9648 C 33.1543 -37.793 32.3242 -37.207 30.9082 -37.207 C 29.1016 -37.207 27.7344 -38.7207 27.7344 -40.4785 C 27.7344 -42.041 28.3203 -43.1641 29.9316 -44.6777 L 33.1543 -47.8027 C 35.2051 -49.8047 36.6211 -50.2441 38.2812 -50.2441 C 41.748 -50.2441 43.457 -48.2422 43.457 -44.7266 L 43.457 -25.0977 C 43.457 -21.8262 42.1875 -20.2637 39.4531 -20.2637 Z M 62.1094 -20.2637 C 60.0098 -20.2637 58.5938 -21.6797 58.5938 -23.7305 L 58.5938 -25.6348 L 52.3926 -25.6348 C 49.1699 -25.6348 47.5098 -27.3926 47.5098 -30.4199 C 47.5098 -32.3242 48.0469 -34.082 48.5352 -35.6445 C 49.3164 -38.1348 51.0254 -42.5781 52.4902 -45.5566 C 54.0039 -48.7305 56.1035 -50.2441 59.7168 -50.2441 C 63.8184 -50.2441 65.7227 -47.8516 65.7227 -43.8965 L 65.7227 -32.5684 L 66.0645 -32.5684 C 68.1152 -32.5684 69.2383 -31.1523 69.2383 -29.0527 C 69.2383 -27.002 68.1152 -25.7324 66.0645 -25.7324 L 65.7227 -25.7324 L 65.7227 -23.7305 C 65.7227 -21.6797 64.2578 -20.2637 62.1094 -20.2637 Z M 58.5938 -32.4707 L 58.5938 -42.7734 L 58.4961 -42.7734 C 57.4707 -39.9902 55.8594 -34.9609 55.0781 -32.6172 L 55.0781 -32.4707 Z"/>
  </g>
  <g id="Heavy-S" transform="matrix(1 0 0 1 2588.47 696)">
   <path d="M 48.2422 6.15234 C 70.9961 6.15234 89.5996 -12.4512 89.5996 -35.2051 C 89.5996 -57.959 70.9961 -76.6113 48.1934 -76.6113 C 25.4395 -76.6113 6.83594 -57.959 6.83594 -35.2051 C 6.83594 -12.4512 25.4395 6.15234 48.2422 6.15234 Z M 61.9629 -19.6777 C 59.9609 -19.6777 58.6426 -21.0938 58.6426 -23.0469 L 58.6426 -25.4883 L 51.2695 -25.4883 C 48.291 -25.4883 46.6797 -27.1973 46.6797 -30.0781 C 46.6797 -31.8359 47.1191 -33.3984 47.6562 -34.9121 C 48.877 -37.9883 50.9766 -42.7734 52.8809 -46.4355 C 54.3945 -49.4141 56.3965 -50.8301 59.7656 -50.8301 C 63.5254 -50.8301 65.3809 -48.584 65.3809 -44.9707 L 65.3809 -31.9824 L 66.0645 -31.9824 C 67.9688 -31.9824 69.0918 -30.7129 69.0918 -28.7109 C 69.0918 -26.7578 67.9688 -25.5859 66.0645 -25.5859 L 65.3809 -25.5859 L 65.3809 -23.0469 C 65.3809 -21.0938 64.0625 -19.6777 61.9629 -19.6777 Z M 38.4277 -19.7754 C 35.9863 -19.7754 34.7168 -21.2891 34.7168 -24.1699 L 34.7168 -41.5527 L 34.5215 -41.5527 L 32.7637 -39.7949 C 31.7871 -38.6719 31.0547 -38.2324 29.834 -38.2324 C 28.125 -38.2324 26.7578 -39.6484 26.7578 -41.3574 C 26.7578 -42.8711 27.3438 -43.8965 28.8086 -45.2148 L 32.6172 -48.5352 C 34.5703 -50.3418 35.8887 -50.7812 37.5 -50.7812 C 40.5762 -50.7812 42.1875 -48.9258 42.1875 -45.752 L 42.1875 -24.1699 C 42.1875 -21.2891 40.9668 -19.7754 38.4277 -19.7754 Z M 58.6426 -31.9336 L 58.6426 -43.7012 L 58.5449 -43.7012 C 56.9824 -40.1855 54.9805 -34.9609 53.8086 -32.0801 L 53.8086 -31.9336 Z"/>
  </g>
  <g id="Bold-S" transform="matrix(1 0 0 1 2292.44 696)">
   <path d="M 47.5586 5.46875 C 69.873 5.46875 88.2324 -12.8906 88.2324 -35.2051 C 88.2324 -57.5684 69.873 -75.9277 47.5098 -75.9277 C 25.1953 -75.9277 6.83594 -57.5684 6.83594 -35.2051 C 6.83594 -12.8906 25.1953 5.46875 47.5586 5.46875 Z M 61.8164 -19.043 C 59.9121 -19.043 58.7402 -20.4102 58.7402 -22.3145 L 58.7402 -25.3906 L 50.0488 -25.3906 C 47.3145 -25.3906 45.7031 -26.9531 45.7031 -29.6875 C 45.7031 -31.25 46.0938 -32.6172 46.7285 -34.082 C 48.4375 -37.793 50.9277 -42.9688 53.3691 -47.4121 C 54.834 -50.1953 56.6895 -51.4648 59.8145 -51.4648 C 63.1836 -51.4648 65.0391 -49.4141 65.0391 -46.1914 L 65.0391 -31.3477 L 66.0645 -31.3477 C 67.8223 -31.3477 68.8965 -30.1758 68.8965 -28.3203 C 68.8965 -26.5137 67.8223 -25.4395 66.0645 -25.4395 L 65.0391 -25.4395 L 65.0391 -22.3145 C 65.0391 -20.4102 63.8184 -19.043 61.8164 -19.043 Z M 37.3047 -19.2871 C 35.1074 -19.2871 33.9355 -20.6543 33.9355 -23.1445 L 33.9355 -42.8223 L 33.6914 -42.8223 L 31.2988 -40.7227 C 30.3223 -39.6973 29.6387 -39.3555 28.6133 -39.3555 C 27.002 -39.3555 25.6836 -40.7227 25.6836 -42.3828 C 25.6836 -43.75 26.3184 -44.7266 27.5879 -45.8008 L 32.0312 -49.3164 C 33.8867 -50.8789 35.0098 -51.3672 36.5723 -51.3672 C 39.2578 -51.3672 40.7715 -49.6582 40.7715 -46.9238 L 40.7715 -23.1445 C 40.7715 -20.6543 39.5508 -19.2871 37.3047 -19.2871 Z M 58.7402 -31.2988 L 58.7402 -44.7266 L 58.5449 -44.7266 C 56.3965 -40.3809 54.0039 -35.0098 52.4414 -31.4453 L 52.4414 -31.2988 Z"/>
  </g>
  <g id="Semibold-S" transform="matrix(1 0 0 1 1996.2 696)">
   <path d="M 47.0703 4.98047 C 69.0918 4.98047 87.3047 -13.1836 87.3047 -35.2539 C 87.3047 -57.2754 69.0918 -75.4883 47.0215 -75.4883 C 25 -75.4883 6.83594 -57.2754 6.83594 -35.2539 C 6.83594 -13.1836 25.0488 4.98047 47.0703 4.98047 Z M 61.7188 -18.6035 C 59.8633 -18.6035 58.7891 -19.9707 58.7891 -21.7773 L 58.7891 -25.293 L 49.2188 -25.293 C 46.6309 -25.293 45.0684 -26.8066 45.0684 -29.3945 C 45.0684 -30.8594 45.4102 -32.0801 46.0449 -33.5449 C 48.0957 -37.6465 50.8789 -43.1152 53.7109 -48.0957 C 55.127 -50.7812 56.8848 -51.9043 59.8145 -51.9043 C 62.9395 -51.9043 64.7949 -50 64.7949 -47.0215 L 64.7949 -30.9082 L 66.0156 -30.9082 C 67.7246 -30.9082 68.7988 -29.834 68.7988 -28.0762 C 68.7988 -26.3184 67.7246 -25.293 66.0156 -25.293 L 64.7949 -25.293 L 64.7949 -21.7773 C 64.7949 -19.9219 63.6719 -18.6035 61.7188 -18.6035 Z M 36.5234 -18.8965 C 34.5215 -18.8965 33.3984 -20.2148 33.3984 -22.4609 L 33.3984 -43.7012 L 33.1543 -43.7012 L 30.2734 -41.3086 C 29.248 -40.3809 28.6621 -40.1855 27.7344 -40.1855 C 26.2695 -40.1855 24.9512 -41.4551 24.9512 -43.0664 C 24.9512 -44.3848 25.5859 -45.2637 26.709 -46.1914 L 31.5918 -49.9023 C 33.3984 -51.2695 34.4238 -51.7578 35.9863 -51.7578 C 38.3301 -51.7578 39.7461 -50.1953 39.7461 -47.7539 L 39.7461 -22.4609 C 39.7461 -20.2148 38.5742 -18.8965 36.5234 -18.8965 Z M 58.7891 -30.8594 L 58.7891 -45.4102 L 58.5938 -45.4102 C 56.0059 -40.5273 53.3203 -35.0098 51.4648 -31.0547 L 51.4648 -30.8594 Z"/>
  </g>
  <g id="Medium-S" transform="matrix(1 0 0 1 1699.83 696)">
   <path d="M 46.7285 4.63867 C 68.5547 4.63867 86.6211 -13.4277 86.6211 -35.2539 C 86.6211 -57.0312 68.5059 -75.1465 46.6797 -75.1465 C 24.8535 -75.1465 6.83594 -57.0312 6.83594 -35.2539 C 6.83594 -13.4277 24.9023 4.63867 46.7285 4.63867 Z M 61.6699 -18.2617 C 59.8145 -18.2617 58.8379 -19.5801 58.8379 -21.3867 L 58.8379 -25.1953 L 48.5352 -25.1953 C 46.0938 -25.1953 44.5801 -26.6602 44.5801 -29.1992 C 44.5801 -30.5664 44.873 -31.6406 45.5566 -33.1055 C 47.8516 -37.5488 50.8789 -43.2617 53.9062 -48.584 C 55.3711 -51.1719 57.0801 -52.2461 59.8633 -52.2461 C 62.7441 -52.2461 64.5996 -50.4395 64.5996 -47.6074 L 64.5996 -30.5664 L 66.0156 -30.5664 C 67.6758 -30.5664 68.7012 -29.541 68.7012 -27.8809 C 68.7012 -26.1719 67.6758 -25.2441 66.0156 -25.2441 L 64.5996 -25.2441 L 64.5996 -21.3867 C 64.5996 -19.5801 63.5742 -18.2617 61.6699 -18.2617 Z M 35.9375 -18.6523 C 34.082 -18.6523 32.959 -19.873 32.959 -21.9238 L 32.959 -44.3848 L 32.7148 -44.3848 L 29.541 -41.7969 C 28.4668 -40.918 27.9297 -40.7715 27.0996 -40.7715 C 25.6836 -40.7715 24.4141 -41.9922 24.4141 -43.6035 C 24.4141 -44.8242 25 -45.7031 26.0742 -46.5332 L 31.2988 -50.293 C 33.0078 -51.6113 33.9844 -52.0508 35.498 -52.0508 C 37.6465 -52.0508 39.0137 -50.5859 39.0137 -48.3398 L 39.0137 -21.9238 C 39.0137 -19.873 37.8418 -18.6523 35.9375 -18.6523 Z M 58.8379 -30.5176 L 58.8379 -45.9473 L 58.5938 -45.9473 C 55.7129 -40.6738 52.832 -35.0098 50.7324 -30.7129 L 50.7324 -30.5176 Z"/>
  </g>
  <g id="Regular-S" transform="matrix(1 0 0 1 1403.58 696)">
   <path d="M 46.2402 4.15039 C 67.7734 4.15039 85.6934 -13.7207 85.6934 -35.2539 C 85.6934 -56.7871 67.7246 -74.6582 46.1914 -74.6582 C 24.707 -74.6582 6.83594 -56.7871 6.83594 -35.2539 C 6.83594 -13.7207 24.7559 4.15039 46.2402 4.15039 Z M 61.5723 -17.8223 C 59.7656 -17.8223 58.8867 -19.1406 58.8867 -20.8984 L 58.8867 -25.0977 L 47.7051 -25.0977 C 45.459 -25.0977 43.8965 -26.5137 43.8965 -28.9551 C 43.8965 -30.1758 44.1406 -31.1035 44.9219 -32.5684 C 47.5098 -37.4512 50.8301 -43.4082 54.248 -49.2676 C 55.6641 -51.709 57.2754 -52.6855 59.8633 -52.6855 C 62.5 -52.6855 64.3555 -50.9766 64.3555 -48.4375 L 64.3555 -30.127 L 66.0156 -30.127 C 67.5781 -30.127 68.5547 -29.1992 68.5547 -27.5879 C 68.5547 -26.0254 67.5781 -25.0977 66.0156 -25.0977 L 64.3555 -25.0977 L 64.3555 -20.8984 C 64.3555 -19.0918 63.3789 -17.8223 61.5723 -17.8223 Z M 35.1562 -18.3105 C 33.4961 -18.3105 32.4219 -19.4824 32.4219 -21.1914 L 32.4219 -45.2637 L 32.1289 -45.2637 L 28.5156 -42.4316 C 27.4414 -41.6016 26.9531 -41.5527 26.2695 -41.5527 C 24.9512 -41.5527 23.6816 -42.7246 23.6816 -44.2871 C 23.6816 -45.459 24.2676 -46.2402 25.2441 -46.9238 L 30.9082 -50.8789 C 32.5195 -52.002 33.3984 -52.4414 34.8633 -52.4414 C 36.7676 -52.4414 38.0371 -51.0742 38.0371 -49.1699 L 38.0371 -21.1914 C 38.0371 -19.4824 36.9141 -18.3105 35.1562 -18.3105 Z M 58.8867 -30.127 L 58.8867 -46.6309 L 58.6426 -46.6309 C 55.3223 -40.8203 52.1484 -35.0098 49.7559 -30.3223 L 49.7559 -30.127 Z"/>
  </g>
  <g id="Light-S" transform="matrix(1 0 0 1 1107.6 696)">
   <path d="M 45.5078 3.4668 C 66.6992 3.4668 84.2285 -14.0625 84.2285 -35.2051 C 84.2285 -56.3965 66.6504 -73.9258 45.5078 -73.9258 C 24.3164 -73.9258 6.83594 -56.3965 6.83594 -35.2051 C 6.83594 -14.0625 24.3652 3.4668 45.5078 3.4668 Z M 60.6445 -18.1641 C 59.2773 -18.1641 58.4961 -19.1895 58.4961 -20.5566 L 58.4961 -25.7324 L 46.3867 -25.7324 C 44.4824 -25.7324 43.2129 -26.8555 43.2129 -28.8086 C 43.2129 -29.7852 43.4082 -30.6152 43.9941 -31.6895 C 46.7773 -36.4746 51.416 -44.1895 54.7852 -49.707 C 55.957 -51.6602 57.2754 -52.4414 59.3262 -52.4414 C 61.4258 -52.4414 62.8906 -51.0742 62.8906 -49.0234 L 62.8906 -29.7852 L 65.4785 -29.7852 C 66.6992 -29.7852 67.5293 -29.0039 67.5293 -27.7344 C 67.5293 -26.4648 66.748 -25.7324 65.4785 -25.7324 L 62.8906 -25.7324 L 62.8906 -20.5566 C 62.8906 -19.1406 62.1582 -18.1641 60.6445 -18.1641 Z M 34.375 -18.457 C 33.0566 -18.457 32.1777 -19.3848 32.1777 -20.8008 L 32.1777 -46.4844 L 31.9336 -46.4844 L 27.1484 -43.0176 C 26.3184 -42.3828 25.9766 -42.3828 25.4395 -42.3828 C 24.3652 -42.3828 23.3398 -43.3105 23.3398 -44.5312 C 23.3398 -45.459 23.7793 -46.0938 24.5605 -46.6309 L 31.0547 -51.0254 C 32.2754 -51.8555 32.959 -52.1973 34.1309 -52.1973 C 35.6445 -52.1973 36.6699 -51.123 36.6699 -49.6094 L 36.6699 -20.8008 C 36.6699 -19.3848 35.791 -18.457 34.375 -18.457 Z M 58.4961 -29.7852 L 58.4961 -47.5586 L 58.3008 -47.5586 C 55.2734 -42.4316 50.293 -34.3262 47.9492 -29.9316 L 47.9492 -29.7852 Z"/>
  </g>
  <g id="Thin-S" transform="matrix(1 0 0 1 811.867 696)">
   <path d="M 44.5801 2.53906 C 65.2832 2.53906 82.2754 -14.4531 82.2754 -35.2051 C 82.2754 -55.9082 65.2344 -72.9004 44.5312 -72.9004 C 23.8281 -72.9004 6.83594 -55.9082 6.83594 -35.2051 C 6.83594 -14.4531 23.877 2.53906 44.5801 2.53906 Z M 59.4727 -18.5547 C 58.6426 -18.5547 58.0078 -19.1895 58.0078 -20.166 L 58.0078 -26.5137 L 44.6289 -26.5137 C 43.2129 -26.5137 42.2852 -27.2461 42.2852 -28.6621 C 42.2852 -29.2969 42.4805 -29.9316 42.8223 -30.5664 C 45.752 -35.2051 52.2461 -45.2148 55.5176 -50.2441 C 56.3477 -51.6602 57.2266 -52.0996 58.5938 -52.0996 C 60.0098 -52.0996 60.9863 -51.2207 60.9863 -49.8535 L 60.9863 -29.3457 L 64.7461 -29.3457 C 65.5762 -29.3457 66.1621 -28.7598 66.1621 -27.9297 C 66.1621 -27.0508 65.625 -26.5137 64.7461 -26.5137 L 60.9863 -26.5137 L 60.9863 -20.166 C 60.9863 -19.1895 60.498 -18.5547 59.4727 -18.5547 Z M 33.3496 -18.7012 C 32.5195 -18.7012 31.8848 -19.2871 31.8848 -20.2148 L 31.8848 -48.0469 L 31.6895 -48.0469 L 25.3418 -43.75 C 24.8535 -43.457 24.6582 -43.457 24.3164 -43.457 C 23.584 -43.457 22.9492 -44.0918 22.9492 -44.873 C 22.9492 -45.459 23.1445 -45.8984 23.7305 -46.2402 L 31.2012 -51.1719 C 31.9336 -51.6602 32.4219 -51.8555 33.2031 -51.8555 C 34.1797 -51.8555 34.8633 -51.1719 34.8633 -50.1465 L 34.8633 -20.2148 C 34.8633 -19.2871 34.3262 -18.7012 33.3496 -18.7012 Z M 58.0078 -29.3457 L 58.0078 -48.7305 L 57.9102 -48.7305 C 55.1758 -44.5312 47.8027 -33.3496 45.5566 -29.4434 L 45.5566 -29.3457 Z"/>
  </g>
  <g id="Ultralight-S" transform="matrix(1 0 0 1 515.644 696)">
   <path d="M 44.043 2.05078 C 64.502 2.05078 81.2988 -14.6973 81.2988 -35.1562 C 81.2988 -55.6152 64.502 -72.3633 44.043 -72.3633 C 23.584 -72.3633 6.83594 -55.6152 6.83594 -35.1562 C 6.83594 -14.6973 23.584 2.05078 44.043 2.05078 Z M 58.8867 -18.7988 C 58.3008 -18.7988 57.7637 -19.2383 57.7637 -19.9219 L 57.7637 -26.9531 L 43.7012 -26.9531 C 42.5293 -26.9531 41.7969 -27.4902 41.7969 -28.5645 C 41.7969 -29.0527 41.9434 -29.5898 42.1875 -29.9805 C 45.2148 -34.5703 52.6367 -45.752 55.8594 -50.5859 C 56.543 -51.6113 57.2266 -51.9531 58.252 -51.9531 C 59.2773 -51.9531 60.0098 -51.3184 60.0098 -50.2441 L 60.0098 -29.1016 L 64.4043 -29.1016 C 64.9902 -29.1016 65.4297 -28.6133 65.4297 -28.0273 C 65.4297 -27.3926 65.0391 -26.9531 64.4043 -26.9531 L 60.0098 -26.9531 L 60.0098 -19.9219 C 60.0098 -19.2383 59.6191 -18.7988 58.8867 -18.7988 Z M 32.8125 -18.7988 C 32.1777 -18.7988 31.7383 -19.2383 31.7383 -19.9219 L 31.7383 -48.8281 L 31.5918 -48.8281 L 24.3652 -44.1406 C 24.1211 -43.9941 23.9746 -43.9941 23.7793 -43.9941 C 23.1934 -43.9941 22.7051 -44.4824 22.7051 -45.0195 C 22.7051 -45.459 22.8516 -45.8008 23.291 -46.0449 L 31.3477 -51.3184 C 31.7871 -51.5625 32.0801 -51.709 32.666 -51.709 C 33.4473 -51.709 33.9355 -51.2207 33.9355 -50.4883 L 33.9355 -19.9219 C 33.9355 -19.2383 33.5938 -18.7988 32.8125 -18.7988 Z M 57.7637 -29.1016 L 57.7637 -49.3652 L 57.666 -49.3652 C 55.127 -45.6543 46.5332 -32.8613 44.3359 -29.1992 L 44.3359 -29.1016 Z"/>
  </g>
 </g>
</svg>
