<?xml version="1.0" encoding="UTF-8"?>
<!--Generator: Apple Native CoreSVG 123-->
<!DOCTYPE svg
PUBLIC "-//W3C//DTD SVG 1.1//EN"
       "http://www.w3.org/Graphics/SVG/1.1/DTD/svg11.dtd">
<svg version="1.1" xmlns="http://www.w3.org/2000/svg" xmlns:xlink="http://www.w3.org/1999/xlink" width="3300" height="2200">
 <!--glyph: "uni100519.medium", point size: 100.000000, font version: "Version 15.0d7e11", template writer version: "5"-->
 <g id="Notes">
  <rect height="2200" id="artboard" style="fill:white;opacity:1" width="3300" x="0" y="0"/>
  <line id="" style="fill:none;stroke:black;opacity:1;stroke-width:0.5;" x1="263" x2="3036" y1="292" y2="292"/>
  <text style="stroke:none;fill:black;font-family:-apple-system,&quot;SF Pro Display&quot;,&quot;SF Pro Text&quot;,Helvetica,sans-serif;font-weight:bold;" transform="matrix(1 0 0 1 263 322)">Weight/Scale Variations</text>
  <text style="stroke:none;fill:black;font-family:-apple-system,&quot;SF Pro Display&quot;,&quot;SF Pro Text&quot;,Helvetica,sans-serif;text-anchor:middle;" transform="matrix(1 0 0 1 559.711 322)">Ultralight</text>
  <text style="stroke:none;fill:black;font-family:-apple-system,&quot;SF Pro Display&quot;,&quot;SF Pro Text&quot;,Helvetica,sans-serif;text-anchor:middle;" transform="matrix(1 0 0 1 856.422 322)">Thin</text>
  <text style="stroke:none;fill:black;font-family:-apple-system,&quot;SF Pro Display&quot;,&quot;SF Pro Text&quot;,Helvetica,sans-serif;text-anchor:middle;" transform="matrix(1 0 0 1 1153.13 322)">Light</text>
  <text style="stroke:none;fill:black;font-family:-apple-system,&quot;SF Pro Display&quot;,&quot;SF Pro Text&quot;,Helvetica,sans-serif;text-anchor:middle;" transform="matrix(1 0 0 1 1449.84 322)">Regular</text>
  <text style="stroke:none;fill:black;font-family:-apple-system,&quot;SF Pro Display&quot;,&quot;SF Pro Text&quot;,Helvetica,sans-serif;text-anchor:middle;" transform="matrix(1 0 0 1 1746.56 322)">Medium</text>
  <text style="stroke:none;fill:black;font-family:-apple-system,&quot;SF Pro Display&quot;,&quot;SF Pro Text&quot;,Helvetica,sans-serif;text-anchor:middle;" transform="matrix(1 0 0 1 2043.27 322)">Semibold</text>
  <text style="stroke:none;fill:black;font-family:-apple-system,&quot;SF Pro Display&quot;,&quot;SF Pro Text&quot;,Helvetica,sans-serif;text-anchor:middle;" transform="matrix(1 0 0 1 2339.98 322)">Bold</text>
  <text style="stroke:none;fill:black;font-family:-apple-system,&quot;SF Pro Display&quot;,&quot;SF Pro Text&quot;,Helvetica,sans-serif;text-anchor:middle;" transform="matrix(1 0 0 1 2636.69 322)">Heavy</text>
  <text style="stroke:none;fill:black;font-family:-apple-system,&quot;SF Pro Display&quot;,&quot;SF Pro Text&quot;,Helvetica,sans-serif;text-anchor:middle;" transform="matrix(1 0 0 1 2933.4 322)">Black</text>
  <line id="" style="fill:none;stroke:black;opacity:1;stroke-width:0.5;" x1="263" x2="3036" y1="1903" y2="1903"/>
  <g id="" transform="matrix(1 0 0 1 263 1933)">
   <path d="M 9.24805 0.830078 C 13.5547 0.830078 17.1387 -2.74414 17.1387 -7.05078 C 17.1387 -11.3574 13.5449 -14.9316 9.23828 -14.9316 C 4.94141 -14.9316 1.36719 -11.3574 1.36719 -7.05078 C 1.36719 -2.74414 4.95117 0.830078 9.24805 0.830078 Z M 9.24805 -0.654297 C 5.70312 -0.654297 2.87109 -3.49609 2.87109 -7.05078 C 2.87109 -10.6055 5.69336 -13.4473 9.23828 -13.4473 C 12.793 -13.4473 15.6348 -10.6055 15.6445 -7.05078 C 15.6543 -3.49609 12.8027 -0.654297 9.24805 -0.654297 Z M 9.22852 -3.42773 C 9.69727 -3.42773 9.9707 -3.74023 9.9707 -4.25781 L 9.9707 -6.31836 L 12.1973 -6.31836 C 12.6953 -6.31836 13.0371 -6.57227 13.0371 -7.04102 C 13.0371 -7.51953 12.7148 -7.7832 12.1973 -7.7832 L 9.9707 -7.7832 L 9.9707 -10.0098 C 9.9707 -10.5273 9.69727 -10.8496 9.22852 -10.8496 C 8.75977 -10.8496 8.50586 -10.5078 8.50586 -10.0098 L 8.50586 -7.7832 L 6.29883 -7.7832 C 5.78125 -7.7832 5.44922 -7.51953 5.44922 -7.04102 C 5.44922 -6.57227 5.80078 -6.31836 6.29883 -6.31836 L 8.50586 -6.31836 L 8.50586 -4.25781 C 8.50586 -3.75977 8.75977 -3.42773 9.22852 -3.42773 Z"/>
  </g>
  <g id="" transform="matrix(1 0 0 1 281.506 1933)">
   <path d="M 11.709 2.91016 C 17.1582 2.91016 21.6699 -1.60156 21.6699 -7.05078 C 21.6699 -12.4902 17.1484 -17.0117 11.6992 -17.0117 C 6.25977 -17.0117 1.74805 -12.4902 1.74805 -7.05078 C 1.74805 -1.60156 6.26953 2.91016 11.709 2.91016 Z M 11.709 1.25 C 7.09961 1.25 3.41797 -2.44141 3.41797 -7.05078 C 3.41797 -11.6504 7.08984 -15.3516 11.6992 -15.3516 C 16.3086 -15.3516 20 -11.6504 20.0098 -7.05078 C 20.0195 -2.44141 16.3184 1.25 11.709 1.25 Z M 11.6895 -2.41211 C 12.207 -2.41211 12.5195 -2.77344 12.5195 -3.33984 L 12.5195 -6.23047 L 15.5762 -6.23047 C 16.123 -6.23047 16.5039 -6.51367 16.5039 -7.03125 C 16.5039 -7.55859 16.1426 -7.86133 15.5762 -7.86133 L 12.5195 -7.86133 L 12.5195 -10.9277 C 12.5195 -11.5039 12.207 -11.8555 11.6895 -11.8555 C 11.1719 -11.8555 10.8789 -11.4844 10.8789 -10.9277 L 10.8789 -7.86133 L 7.83203 -7.86133 C 7.26562 -7.86133 6.89453 -7.55859 6.89453 -7.03125 C 6.89453 -6.51367 7.28516 -6.23047 7.83203 -6.23047 L 10.8789 -6.23047 L 10.8789 -3.33984 C 10.8789 -2.79297 11.1719 -2.41211 11.6895 -2.41211 Z"/>
  </g>
  <g id="" transform="matrix(1 0 0 1 304.924 1933)">
   <path d="M 14.9707 5.67383 C 21.9336 5.67383 27.6953 -0.078125 27.6953 -7.04102 C 27.6953 -14.0039 21.9238 -19.7559 14.9609 -19.7559 C 8.00781 -19.7559 2.25586 -14.0039 2.25586 -7.04102 C 2.25586 -0.078125 8.01758 5.67383 14.9707 5.67383 Z M 14.9707 3.85742 C 8.93555 3.85742 4.08203 -1.00586 4.08203 -7.04102 C 4.08203 -13.0762 8.92578 -17.9395 14.9609 -17.9395 C 21.0059 -17.9395 25.8594 -13.0762 25.8691 -7.04102 C 25.8789 -1.00586 21.0156 3.85742 14.9707 3.85742 Z M 14.9512 -1.06445 C 15.5176 -1.06445 15.8691 -1.45508 15.8691 -2.06055 L 15.8691 -6.13281 L 20.1074 -6.13281 C 20.6934 -6.13281 21.1133 -6.46484 21.1133 -7.02148 C 21.1133 -7.59766 20.7227 -7.93945 20.1074 -7.93945 L 15.8691 -7.93945 L 15.8691 -12.1875 C 15.8691 -12.8027 15.5176 -13.1934 14.9512 -13.1934 C 14.3848 -13.1934 14.0625 -12.7832 14.0625 -12.1875 L 14.0625 -7.93945 L 9.83398 -7.93945 C 9.21875 -7.93945 8.80859 -7.59766 8.80859 -7.02148 C 8.80859 -6.46484 9.23828 -6.13281 9.83398 -6.13281 L 14.0625 -6.13281 L 14.0625 -2.06055 C 14.0625 -1.47461 14.3848 -1.06445 14.9512 -1.06445 Z"/>
  </g>
  <text style="stroke:none;fill:black;font-family:-apple-system,&quot;SF Pro Display&quot;,&quot;SF Pro Text&quot;,Helvetica,sans-serif;font-weight:bold;" transform="matrix(1 0 0 1 263 1953)">Design Variations</text>
  <text style="stroke:none;fill:black;font-family:-apple-system,&quot;SF Pro Display&quot;,&quot;SF Pro Text&quot;,Helvetica,sans-serif;" transform="matrix(1 0 0 1 263 1971)">Symbols are supported in up to nine weights and three scales.</text>
  <text style="stroke:none;fill:black;font-family:-apple-system,&quot;SF Pro Display&quot;,&quot;SF Pro Text&quot;,Helvetica,sans-serif;" transform="matrix(1 0 0 1 263 1989)">For optimal layout with text and other symbols, vertically align</text>
  <text style="stroke:none;fill:black;font-family:-apple-system,&quot;SF Pro Display&quot;,&quot;SF Pro Text&quot;,Helvetica,sans-serif;" transform="matrix(1 0 0 1 263 2007)">symbols with the adjacent text.</text>
  <rect height="14" id="" style="fill:#00AEEF;stroke:none;opacity:0.4;" width="3" x="776" y="1919"/>
  <g id="" transform="matrix(1 0 0 1 779 1933)">
   <path d="M 10.5273 0 L 12.373 0 L 7.17773 -14.0918 L 5.43945 -14.0918 L 0.244141 0 L 2.08984 0 L 3.50586 -4.0332 L 9.11133 -4.0332 Z M 6.2793 -11.9531 L 6.33789 -11.9531 L 8.59375 -5.52734 L 4.02344 -5.52734 Z"/>
  </g>
  <rect height="14" id="" style="fill:#00AEEF;stroke:none;opacity:0.4;" width="3" x="791.617" y="1919"/>
  <text style="stroke:none;fill:black;font-family:-apple-system,&quot;SF Pro Display&quot;,&quot;SF Pro Text&quot;,Helvetica,sans-serif;font-weight:bold;" transform="matrix(1 0 0 1 776 1953)">Margins</text>
  <text style="stroke:none;fill:black;font-family:-apple-system,&quot;SF Pro Display&quot;,&quot;SF Pro Text&quot;,Helvetica,sans-serif;" transform="matrix(1 0 0 1 776 1971)">Leading and trailing margins on the left and right side of each symbol</text>
  <text style="stroke:none;fill:black;font-family:-apple-system,&quot;SF Pro Display&quot;,&quot;SF Pro Text&quot;,Helvetica,sans-serif;" transform="matrix(1 0 0 1 776 1989)">can be adjusted by modifying the width of the blue rectangles.</text>
  <text style="stroke:none;fill:black;font-family:-apple-system,&quot;SF Pro Display&quot;,&quot;SF Pro Text&quot;,Helvetica,sans-serif;" transform="matrix(1 0 0 1 776 2007)">Modifications are automatically applied proportionally to all</text>
  <text style="stroke:none;fill:black;font-family:-apple-system,&quot;SF Pro Display&quot;,&quot;SF Pro Text&quot;,Helvetica,sans-serif;" transform="matrix(1 0 0 1 776 2025)">scales and weights.</text>
  <g id="" transform="matrix(1 0 0 1 1289 1933)">
   <path d="M 2.83203 3.11523 L 4.375 4.6582 C 5.22461 5.48828 6.19141 5.41992 7.06055 4.46289 L 17.2754 -6.66016 C 17.7051 -6.36719 18.0957 -6.37695 18.5645 -6.47461 L 19.6094 -6.68945 L 20.3027 -5.99609 L 20.2539 -5.47852 C 20.1855 -4.95117 20.3516 -4.53125 20.8496 -4.0332 L 21.6602 -3.22266 C 22.168 -2.71484 22.8223 -2.68555 23.3008 -3.16406 L 26.5527 -6.41602 C 27.0312 -6.89453 27.0117 -7.54883 26.5039 -8.05664 L 25.6836 -8.87695 C 25.1855 -9.375 24.7754 -9.55078 24.2383 -9.47266 L 23.7109 -9.41406 L 23.0566 -10.0781 L 23.3398 -11.2207 C 23.4863 -11.7871 23.3398 -12.2559 22.7148 -12.8613 L 20.3027 -15.2539 C 16.7578 -18.7793 12.2266 -18.6719 9.11133 -15.5371 C 8.69141 -15.1074 8.64258 -14.5215 8.91602 -14.0918 C 9.15039 -13.7207 9.62891 -13.4961 10.2734 -13.6621 C 11.7871 -14.043 13.3008 -13.9258 14.7852 -12.9199 L 14.1602 -11.3379 C 13.9258 -10.752 13.9453 -10.2734 14.1797 -9.83398 L 3.01758 0.439453 C 2.08008 1.30859 1.97266 2.25586 2.83203 3.11523 Z M 10.6738 -15.1465 C 13.3398 -17.1387 16.6504 -16.8262 19.0527 -14.4141 L 21.6797 -11.8066 C 21.9141 -11.5723 21.9434 -11.3867 21.8848 -11.0938 L 21.5039 -9.53125 L 23.0762 -7.95898 L 24.043 -8.04688 C 24.3262 -8.07617 24.4141 -8.05664 24.6387 -7.83203 L 25.2637 -7.20703 L 22.5098 -4.46289 L 21.8848 -5.07812 C 21.6602 -5.30273 21.6406 -5.40039 21.6699 -5.68359 L 21.7578 -6.64062 L 20.1953 -8.20312 L 18.5742 -7.89062 C 18.291 -7.83203 18.1445 -7.83203 17.9102 -8.07617 L 15.7324 -10.2539 C 15.5078 -10.4883 15.4785 -10.625 15.6055 -10.9473 L 16.5527 -13.2227 C 14.9512 -14.7559 12.8418 -15.6055 10.8008 -14.9512 C 10.7129 -14.9219 10.6445 -14.9414 10.6152 -14.9805 C 10.5859 -15.0293 10.5859 -15.0781 10.6738 -15.1465 Z M 4.10156 2.41211 C 3.61328 1.91406 3.78906 1.61133 4.12109 1.30859 L 15.0781 -8.80859 L 16.3086 -7.57812 L 6.15234 3.34961 C 5.84961 3.68164 5.46875 3.7793 5.06836 3.37891 Z"/>
  </g>
  <text style="stroke:none;fill:black;font-family:-apple-system,&quot;SF Pro Display&quot;,&quot;SF Pro Text&quot;,Helvetica,sans-serif;font-weight:bold;" transform="matrix(1 0 0 1 1289 1953)">Exporting</text>
  <text style="stroke:none;fill:black;font-family:-apple-system,&quot;SF Pro Display&quot;,&quot;SF Pro Text&quot;,Helvetica,sans-serif;" transform="matrix(1 0 0 1 1289 1971)">Symbols should be outlined when exporting to ensure the</text>
  <text style="stroke:none;fill:black;font-family:-apple-system,&quot;SF Pro Display&quot;,&quot;SF Pro Text&quot;,Helvetica,sans-serif;" transform="matrix(1 0 0 1 1289 1989)">design is preserved when submitting to Xcode.</text>
  <text id="template-version" style="stroke:none;fill:black;font-family:-apple-system,&quot;SF Pro Display&quot;,&quot;SF Pro Text&quot;,Helvetica,sans-serif;text-anchor:end;" transform="matrix(1 0 0 1 3036 1933)">Template v.1.0</text>
  <text style="stroke:none;fill:black;font-family:-apple-system,&quot;SF Pro Display&quot;,&quot;SF Pro Text&quot;,Helvetica,sans-serif;text-anchor:end;" transform="matrix(1 0 0 1 3036 1951)">Generated from 15.circle.fill</text>
  <text style="stroke:none;fill:black;font-family:-apple-system,&quot;SF Pro Display&quot;,&quot;SF Pro Text&quot;,Helvetica,sans-serif;text-anchor:end;" transform="matrix(1 0 0 1 3036 1969)">Typeset at 100 points</text>
  <text style="stroke:none;fill:black;font-family:-apple-system,&quot;SF Pro Display&quot;,&quot;SF Pro Text&quot;,Helvetica,sans-serif;" transform="matrix(1 0 0 1 263 726)">Small</text>
  <text style="stroke:none;fill:black;font-family:-apple-system,&quot;SF Pro Display&quot;,&quot;SF Pro Text&quot;,Helvetica,sans-serif;" transform="matrix(1 0 0 1 263 1156)">Medium</text>
  <text style="stroke:none;fill:black;font-family:-apple-system,&quot;SF Pro Display&quot;,&quot;SF Pro Text&quot;,Helvetica,sans-serif;" transform="matrix(1 0 0 1 263 1586)">Large</text>
 </g>
 <g id="Guides">
  <g id="H-reference" style="fill:#27AAE1;stroke:none;" transform="matrix(1 0 0 1 339 696)">
   <path d="M 54.9316 0 L 57.666 0 L 30.5664 -70.459 L 28.0762 -70.459 L 0.976562 0 L 3.66211 0 L 12.9395 -24.4629 L 45.7031 -24.4629 Z M 29.1992 -67.0898 L 29.4434 -67.0898 L 44.8242 -26.709 L 13.8184 -26.709 Z"/>
  </g>
  <line id="Baseline-S" style="fill:none;stroke:#27AAE1;opacity:1;stroke-width:0.577;" x1="263" x2="3036" y1="696" y2="696"/>
  <line id="Capline-S" style="fill:none;stroke:#27AAE1;opacity:1;stroke-width:0.577;" x1="263" x2="3036" y1="625.541" y2="625.541"/>
  <g id="H-reference" style="fill:#27AAE1;stroke:none;" transform="matrix(1 0 0 1 339 1126)">
   <path d="M 54.9316 0 L 57.666 0 L 30.5664 -70.459 L 28.0762 -70.459 L 0.976562 0 L 3.66211 0 L 12.9395 -24.4629 L 45.7031 -24.4629 Z M 29.1992 -67.0898 L 29.4434 -67.0898 L 44.8242 -26.709 L 13.8184 -26.709 Z"/>
  </g>
  <line id="Baseline-M" style="fill:none;stroke:#27AAE1;opacity:1;stroke-width:0.577;" x1="263" x2="3036" y1="1126" y2="1126"/>
  <line id="Capline-M" style="fill:none;stroke:#27AAE1;opacity:1;stroke-width:0.577;" x1="263" x2="3036" y1="1055.54" y2="1055.54"/>
  <g id="H-reference" style="fill:#27AAE1;stroke:none;" transform="matrix(1 0 0 1 339 1556)">
   <path d="M 54.9316 0 L 57.666 0 L 30.5664 -70.459 L 28.0762 -70.459 L 0.976562 0 L 3.66211 0 L 12.9395 -24.4629 L 45.7031 -24.4629 Z M 29.1992 -67.0898 L 29.4434 -67.0898 L 44.8242 -26.709 L 13.8184 -26.709 Z"/>
  </g>
  <line id="Baseline-L" style="fill:none;stroke:#27AAE1;opacity:1;stroke-width:0.577;" x1="263" x2="3036" y1="1556" y2="1556"/>
  <line id="Capline-L" style="fill:none;stroke:#27AAE1;opacity:1;stroke-width:0.577;" x1="263" x2="3036" y1="1485.54" y2="1485.54"/>
  <rect height="119.336" id="left-margin" style="fill:#00AEEF;stroke:none;opacity:0.4;" width="8.74023" x="1391.3" y="1030.79"/>
  <rect height="119.336" id="right-margin" style="fill:#00AEEF;stroke:none;opacity:0.4;" width="8.74023" x="1499.65" y="1030.79"/>
 </g>
 <g id="Symbols">
  <g id="Black-L" transform="matrix(1 0 0 1 2854.05 1556)">
   <path d="M 79.3457 32.8613 C 116.748 32.8613 147.412 2.19727 147.412 -35.2051 C 147.412 -72.6074 116.748 -103.271 79.2969 -103.271 C 41.8945 -103.271 11.2793 -72.6074 11.2793 -35.2051 C 11.2793 2.19727 41.9434 32.8613 79.3457 32.8613 Z M 63.1836 -9.7168 C 59.1309 -9.7168 57.0312 -12.1094 57.0312 -16.8457 L 57.0312 -45.8496 L 56.7383 -45.8496 L 53.7598 -42.9199 C 52.1484 -41.1133 50.9766 -40.3809 48.9258 -40.3809 C 46.1426 -40.3809 43.8965 -42.7246 43.8965 -45.5566 C 43.8965 -47.998 44.9707 -49.707 47.2656 -51.8555 L 53.6133 -57.3242 C 56.8359 -60.2051 58.9844 -60.9863 61.6211 -60.9863 C 66.6992 -60.9863 69.2871 -57.959 69.2871 -52.832 L 69.2871 -16.8457 C 69.2871 -12.1094 67.2363 -9.7168 63.1836 -9.7168 Z M 95.1172 -9.47266 C 87.5 -9.47266 82.0801 -13.7207 80.3711 -17.4316 C 79.7852 -18.7012 79.6875 -19.7754 79.6875 -20.9473 C 79.6875 -24.1211 82.0801 -26.3672 84.8633 -26.3672 C 87.4512 -26.3672 88.5742 -24.8535 89.6973 -23.6328 C 91.3086 -21.875 92.9688 -20.2148 95.752 -20.2148 C 99.3652 -20.2148 101.758 -22.9492 101.758 -26.9531 C 101.758 -30.4199 99.4629 -33.2031 96.2891 -33.2031 C 94.4336 -33.2031 93.2617 -32.6172 91.5039 -31.3477 C 89.9902 -30.2734 88.4766 -29.541 85.5469 -29.541 C 81.8359 -29.541 79.4434 -32.0312 79.6387 -36.1328 L 80.5664 -52.7832 C 80.8105 -57.3242 83.2031 -59.9609 87.3047 -59.9609 L 106.25 -59.9609 C 109.668 -59.9609 111.572 -58.1543 111.572 -54.7363 C 111.572 -51.3672 109.521 -49.3652 106.25 -49.3652 L 90.918 -49.3652 L 90.0879 -38.3301 L 90.332 -38.3301 C 92.1387 -41.0645 95.7031 -42.7734 99.4141 -42.7734 C 106.885 -42.7734 113.232 -37.1094 113.232 -27.5391 C 113.232 -16.4551 106.396 -9.47266 95.1172 -9.47266 Z"/>
  </g>
  <g id="Heavy-L" transform="matrix(1 0 0 1 2558.39 1556)">
   <path d="M 78.2715 31.7871 C 115.088 31.7871 145.312 1.61133 145.312 -35.2051 C 145.312 -72.0215 115.039 -102.197 78.2715 -102.197 C 41.4551 -102.197 11.2793 -72.0215 11.2793 -35.2051 C 11.2793 1.61133 41.5039 31.7871 78.2715 31.7871 Z M 61.4746 -9.22852 C 57.9102 -9.22852 55.957 -11.4258 55.957 -15.5762 L 55.957 -47.7539 L 55.6641 -47.7539 L 51.4648 -44.1406 C 49.9512 -42.5293 48.877 -41.9922 47.1191 -41.9922 C 44.6289 -41.9922 42.5293 -44.1406 42.5293 -46.7773 C 42.5293 -48.9746 43.457 -50.4883 45.5078 -52.3438 L 52.9297 -58.252 C 55.8594 -60.791 57.7637 -61.4746 60.2051 -61.4746 C 64.6484 -61.4746 67.041 -58.7891 67.041 -54.2969 L 67.041 -15.5762 C 67.041 -11.4258 65.1367 -9.22852 61.4746 -9.22852 Z M 94.043 -8.88672 C 86.2305 -8.88672 80.6152 -13.1836 78.8574 -17.3828 C 78.3203 -18.5059 78.1738 -19.5312 78.1738 -20.6543 C 78.1738 -23.5352 80.3223 -25.5859 82.9102 -25.5859 C 85.2051 -25.5859 86.3281 -24.2188 87.4023 -22.9004 C 89.0625 -20.5566 91.3574 -18.6523 94.6289 -18.6523 C 98.9746 -18.6523 101.953 -21.8262 101.953 -26.5625 C 101.953 -30.7617 99.1699 -34.082 95.2637 -34.082 C 93.0176 -34.082 91.6016 -33.3496 89.502 -31.6895 C 87.9395 -30.5176 86.5234 -29.834 83.8867 -29.834 C 80.4199 -29.834 78.2227 -32.2266 78.418 -36.084 L 79.541 -53.8574 C 79.7363 -58.1055 82.0312 -60.5469 85.8887 -60.5469 L 105.859 -60.5469 C 108.887 -60.5469 110.645 -58.8379 110.645 -55.7617 C 110.645 -52.7344 108.74 -50.8789 105.859 -50.8789 L 88.8672 -50.8789 L 87.8906 -38.1836 L 88.1348 -38.1836 C 90.0391 -41.0156 93.8965 -42.8223 97.8027 -42.8223 C 105.908 -42.8223 112.402 -36.7676 112.402 -27.0996 C 112.402 -15.918 105.371 -8.88672 94.043 -8.88672 Z"/>
  </g>
  <g id="Bold-L" transform="matrix(1 0 0 1 2262.88 1556)">
   <path d="M 77.0996 30.6152 C 113.232 30.6152 142.92 0.878906 142.92 -35.2051 C 142.92 -71.3379 113.184 -101.025 77.0508 -101.025 C 40.9668 -101.025 11.2793 -71.3379 11.2793 -35.2051 C 11.2793 0.878906 41.0156 30.6152 77.0996 30.6152 Z M 59.6191 -8.69141 C 56.543 -8.69141 54.7852 -10.6445 54.7852 -14.1113 L 54.7852 -49.9023 L 54.4434 -49.9023 L 48.877 -45.5078 C 47.4121 -44.1406 46.582 -43.75 45.0684 -43.75 C 42.8711 -43.75 40.918 -45.7031 40.918 -48.0957 C 40.918 -50.0488 41.7969 -51.416 43.6035 -52.9297 L 52.1484 -59.2773 C 54.7363 -61.377 56.3965 -62.0605 58.6426 -62.0605 C 62.3535 -62.0605 64.502 -59.7168 64.502 -55.9082 L 64.502 -14.1113 C 64.502 -10.6445 62.7441 -8.69141 59.6191 -8.69141 Z M 92.8711 -8.25195 C 84.8633 -8.25195 78.9551 -12.5977 77.0996 -17.2852 C 76.6602 -18.3105 76.5137 -19.2871 76.5137 -20.3125 C 76.5137 -22.8516 78.3691 -24.707 80.7617 -24.707 C 82.7148 -24.707 83.8379 -23.5352 84.8633 -22.0703 C 86.5234 -19.043 89.502 -16.8945 93.3594 -16.8945 C 98.584 -16.8945 102.148 -20.5566 102.148 -26.1719 C 102.148 -31.1523 98.8281 -35.0098 94.0918 -35.0098 C 91.5039 -35.0098 89.6973 -34.1797 87.3047 -32.0801 C 85.6445 -30.8105 84.375 -30.1758 81.9824 -30.1758 C 78.8086 -30.1758 76.8066 -32.4219 77.002 -35.9863 L 78.3203 -55.0781 C 78.5645 -58.9355 80.7129 -61.1816 84.2773 -61.1816 L 105.42 -61.1816 C 108.008 -61.1816 109.57 -59.5703 109.57 -56.9336 C 109.57 -54.2969 107.91 -52.5879 105.42 -52.5879 L 86.5234 -52.5879 L 85.4492 -37.9883 L 85.6934 -37.9883 C 87.6953 -40.9668 91.8945 -42.9199 95.9961 -42.9199 C 104.834 -42.9199 111.475 -36.377 111.475 -26.5625 C 111.475 -15.2832 104.248 -8.25195 92.8711 -8.25195 Z"/>
  </g>
  <g id="Semibold-L" transform="matrix(1 0 0 1 1966.97 1556)">
   <path d="M 76.2695 29.7852 C 111.914 29.7852 141.309 0.439453 141.309 -35.2051 C 141.309 -70.8496 111.865 -100.244 76.2695 -100.244 C 40.625 -100.244 11.2793 -70.8496 11.2793 -35.2051 C 11.2793 0.439453 40.6738 29.7852 76.2695 29.7852 Z M 58.3496 -8.34961 C 55.5664 -8.34961 53.9551 -10.1074 53.9551 -13.1348 L 53.9551 -51.3672 L 53.6133 -51.3672 L 47.0703 -46.4844 C 45.7031 -45.2637 44.9707 -44.9707 43.7012 -44.9707 C 41.6992 -44.9707 39.8438 -46.7773 39.8438 -49.0234 C 39.8438 -50.7812 40.6738 -52.002 42.2363 -53.3203 L 51.6113 -59.9609 C 53.9551 -61.8164 55.4688 -62.4512 57.5195 -62.4512 C 60.791 -62.4512 62.7441 -60.3516 62.7441 -57.0312 L 62.7441 -13.1348 C 62.7441 -10.1074 61.1328 -8.34961 58.3496 -8.34961 Z M 92.041 -7.76367 C 83.8867 -7.76367 77.832 -12.207 75.9277 -17.1875 C 75.5371 -18.1641 75.3906 -19.0918 75.3906 -20.1172 C 75.3906 -22.4121 77.0508 -24.1211 79.248 -24.1211 C 81.0059 -24.1211 82.1289 -23.0469 83.0566 -21.4844 C 84.8145 -18.0176 88.2324 -15.7227 92.5293 -15.7227 C 98.291 -15.7227 102.295 -19.6777 102.295 -25.8789 C 102.295 -31.4453 98.584 -35.6934 93.2617 -35.6934 C 90.4297 -35.6934 88.3789 -34.7168 85.7422 -32.3242 C 84.082 -30.957 82.8613 -30.4199 80.7129 -30.4199 C 77.7344 -30.4199 75.8301 -32.5195 76.0254 -35.9375 L 77.5391 -55.957 C 77.7344 -59.5215 79.834 -61.5723 83.2031 -61.5723 L 105.078 -61.5723 C 107.373 -61.5723 108.838 -60.1074 108.838 -57.7637 C 108.838 -55.3711 107.324 -53.8086 105.078 -53.8086 L 84.9609 -53.8086 L 83.7402 -37.8906 L 83.9844 -37.8906 C 86.0352 -40.9668 90.4785 -43.0176 94.7754 -43.0176 C 104.102 -43.0176 110.84 -36.1328 110.84 -26.1719 C 110.84 -14.8438 103.418 -7.76367 92.041 -7.76367 Z"/>
  </g>
  <g id="Medium-L" transform="matrix(1 0 0 1 1670.87 1556)">
   <path d="M 75.6836 29.1992 C 110.938 29.1992 140.088 0.0488281 140.088 -35.2051 C 140.088 -70.459 110.889 -99.6094 75.6348 -99.6094 C 40.3809 -99.6094 11.2793 -70.459 11.2793 -35.2051 C 11.2793 0.0488281 40.3809 29.1992 75.6836 29.1992 Z M 57.3242 -8.05664 C 54.8828 -8.05664 53.3203 -9.7168 53.3203 -12.4023 L 53.3203 -52.4902 L 52.9785 -52.4902 L 45.752 -47.2168 C 44.4336 -46.0938 43.7988 -45.8984 42.627 -45.8984 C 40.7715 -45.8984 39.0137 -47.6074 39.0137 -49.707 C 39.0137 -51.3184 39.7949 -52.4902 41.2109 -53.6133 L 51.1719 -60.5469 C 53.3691 -62.1582 54.7363 -62.7441 56.6895 -62.7441 C 59.6191 -62.7441 61.4258 -60.8398 61.4258 -57.9102 L 61.4258 -12.4023 C 61.4258 -9.7168 59.9121 -8.05664 57.3242 -8.05664 Z M 91.4062 -7.4707 C 83.1543 -7.4707 76.9531 -11.8652 75.0488 -17.1387 C 74.6582 -18.0176 74.5117 -18.9453 74.5117 -19.9219 C 74.5117 -22.0703 76.0254 -23.6328 78.125 -23.6328 C 79.6875 -23.6328 80.8594 -22.6562 81.7383 -21.0449 C 83.4961 -17.2363 87.2559 -14.7949 91.8457 -14.7949 C 98.0957 -14.7949 102.393 -18.9941 102.393 -25.6836 C 102.393 -31.6406 98.4375 -36.1816 92.6758 -36.1816 C 89.6484 -36.1816 87.4023 -35.1562 84.5703 -32.5195 C 82.8613 -31.1035 81.6895 -30.6152 79.7363 -30.6152 C 76.9043 -30.6152 75.0977 -32.6172 75.293 -35.8887 L 76.9043 -56.5918 C 77.0996 -59.9609 79.1504 -61.9141 82.373 -61.9141 L 104.883 -61.9141 C 106.934 -61.9141 108.252 -60.498 108.252 -58.3496 C 108.252 -56.1523 106.836 -54.6875 104.883 -54.6875 L 83.7402 -54.6875 L 82.4219 -37.793 L 82.7148 -37.793 C 84.8145 -40.918 89.4043 -43.0664 93.8477 -43.0664 C 103.516 -43.0664 110.352 -35.9375 110.352 -25.8789 C 110.352 -14.5508 102.832 -7.4707 91.4062 -7.4707 Z"/>
  </g>
  <g id="Regular-L" transform="matrix(1 0 0 1 1374.97 1556)">
   <path d="M 74.8535 28.3691 C 109.668 28.3691 138.477 -0.390625 138.477 -35.2051 C 138.477 -70.0195 109.619 -98.7793 74.8047 -98.7793 C 40.0391 -98.7793 11.2793 -70.0195 11.2793 -35.2051 C 11.2793 -0.390625 40.0879 28.3691 74.8535 28.3691 Z M 56.0547 -7.71484 C 53.9551 -7.71484 52.4902 -9.17969 52.4902 -11.4258 L 52.4902 -53.9551 L 52.1484 -53.9551 L 43.9941 -48.1445 C 42.7246 -47.168 42.1875 -47.1191 41.2598 -47.1191 C 39.5996 -47.1191 37.9395 -48.6328 37.9395 -50.6348 C 37.9395 -52.0996 38.6719 -53.125 39.8926 -54.0527 L 50.6348 -61.2305 C 52.6367 -62.5977 53.8086 -63.1348 55.6152 -63.1348 C 58.0566 -63.1348 59.668 -61.5234 59.668 -58.9844 L 59.668 -11.4258 C 59.668 -9.17969 58.3008 -7.71484 56.0547 -7.71484 Z M 90.5762 -6.98242 C 82.2266 -6.98242 75.8301 -11.4746 73.877 -17.0898 C 73.5352 -17.8711 73.3887 -18.75 73.3887 -19.6777 C 73.3887 -21.6309 74.707 -23.0469 76.6113 -23.0469 C 77.9785 -23.0469 79.1504 -22.168 79.9805 -20.5078 C 81.7871 -16.2109 86.0352 -13.5742 91.0156 -13.5742 C 97.8027 -13.5742 102.539 -18.1641 102.539 -25.3906 C 102.539 -31.9336 98.1934 -36.8164 91.8457 -36.8164 C 88.5742 -36.8164 86.1328 -35.6934 83.0566 -32.8125 C 81.2988 -31.2988 80.2246 -30.8594 78.418 -30.8594 C 75.7812 -30.8594 74.1699 -32.7637 74.3652 -35.791 L 76.0742 -57.4219 C 76.2695 -60.498 78.2715 -62.3535 81.2988 -62.3535 L 104.541 -62.3535 C 106.299 -62.3535 107.52 -60.9863 107.52 -59.1309 C 107.52 -57.2266 106.25 -55.8594 104.541 -55.8594 L 82.1777 -55.8594 L 80.7617 -37.6465 L 81.0059 -37.6465 C 83.2031 -40.8691 88.0371 -43.1152 92.627 -43.1152 C 102.783 -43.1152 109.717 -35.6445 109.717 -25.5371 C 109.717 -14.1113 102.051 -6.98242 90.5762 -6.98242 Z"/>
  </g>
  <g id="Light-L" transform="matrix(1 0 0 1 1079.18 1556)">
   <path d="M 73.9258 27.4902 C 108.301 27.4902 136.621 -0.830078 136.621 -35.1562 C 136.621 -69.5312 108.252 -97.8516 73.9258 -97.8516 C 39.5508 -97.8516 11.2793 -69.5312 11.2793 -35.1562 C 11.2793 -0.830078 39.5996 27.4902 73.9258 27.4902 Z M 55.127 -7.91016 C 53.4668 -7.91016 52.2461 -9.08203 52.2461 -10.8887 L 52.2461 -55.4688 L 51.9531 -55.4688 L 42.2852 -48.877 C 41.3574 -48.1934 40.9668 -48.1934 40.2344 -48.1934 C 38.8672 -48.1934 37.5977 -49.4141 37.5977 -50.9766 C 37.5977 -52.0996 38.0859 -52.8809 39.1113 -53.6621 L 50.8789 -61.4258 C 52.3438 -62.4023 53.2715 -62.793 54.7363 -62.793 C 56.6895 -62.793 58.0078 -61.5723 58.0078 -59.5215 L 58.0078 -10.8887 C 58.0078 -9.08203 56.9336 -7.91016 55.127 -7.91016 Z M 89.6484 -7.32422 C 81.1523 -7.32422 75 -11.9141 72.998 -17.6758 C 72.7539 -18.4082 72.6074 -19.043 72.6074 -19.8242 C 72.6074 -21.3867 73.7305 -22.5098 75.2441 -22.5098 C 76.4648 -22.5098 77.3926 -21.7285 77.9785 -20.3125 C 79.6387 -15.7227 84.4238 -12.6953 90.0391 -12.6953 C 97.4121 -12.6953 102.637 -17.8223 102.637 -25.4395 C 102.637 -32.6172 97.7539 -37.8906 90.7227 -37.8906 C 86.9141 -37.8906 83.9355 -36.5234 80.5176 -33.0078 C 79.1504 -31.8359 78.3203 -31.3965 76.9043 -31.3965 C 74.8047 -31.3965 73.4375 -32.959 73.584 -35.3516 L 75.4395 -58.3984 C 75.5859 -60.8398 77.1484 -62.3047 79.5898 -62.3047 L 103.613 -62.3047 C 105.078 -62.3047 106.104 -61.2305 106.104 -59.7168 C 106.104 -58.2031 105.029 -57.0801 103.613 -57.0801 L 80.4688 -57.0801 L 78.9062 -37.207 L 79.1016 -37.207 C 81.5918 -40.7227 86.5234 -43.0176 91.3086 -43.0176 C 101.416 -43.0176 108.398 -35.5957 108.398 -25.5371 C 108.398 -14.4531 100.83 -7.32422 89.6484 -7.32422 Z"/>
  </g>
  <g id="Thin-L" transform="matrix(1 0 0 1 783.693 1556)">
   <path d="M 72.7051 26.3184 C 106.494 26.3184 134.18 -1.36719 134.18 -35.1074 C 134.18 -68.8965 106.494 -96.582 72.7051 -96.582 C 38.9648 -96.582 11.2793 -68.8965 11.2793 -35.1074 C 11.2793 -1.36719 38.9648 26.3184 72.7051 26.3184 Z M 53.8574 -8.1543 C 52.7832 -8.1543 51.9043 -8.98438 51.9043 -10.1074 L 51.9043 -57.5195 L 51.6602 -57.5195 L 40.0391 -49.8047 C 39.5996 -49.5605 39.3555 -49.5605 38.916 -49.5605 C 37.8906 -49.5605 37.1582 -50.3906 37.1582 -51.416 C 37.1582 -52.0996 37.3535 -52.6367 38.0859 -53.1738 L 51.1719 -61.6699 C 52.002 -62.207 52.6367 -62.4023 53.5645 -62.4023 C 54.8828 -62.4023 55.7617 -61.6211 55.7617 -60.2539 L 55.7617 -10.1074 C 55.7617 -8.98438 55.127 -8.1543 53.8574 -8.1543 Z M 88.4277 -7.71484 C 79.7852 -7.71484 73.877 -12.5 71.875 -18.5059 C 71.7285 -19.0918 71.6309 -19.4824 71.6309 -19.9707 C 71.6309 -21.0938 72.4121 -21.7773 73.4375 -21.7773 C 74.4141 -21.7773 75.0488 -21.0938 75.3418 -20.0684 C 76.8555 -15.0391 82.2754 -11.5234 88.8184 -11.5234 C 96.8262 -11.5234 102.783 -17.3828 102.783 -25.5371 C 102.783 -33.4961 97.168 -39.3066 89.209 -39.3066 C 84.7168 -39.3066 81.0547 -37.6465 77.1484 -33.252 C 76.3672 -32.5195 75.7812 -32.1777 74.8535 -32.1777 C 73.4863 -32.1777 72.5098 -33.2031 72.6074 -34.7656 L 74.6094 -59.6191 C 74.707 -61.2793 75.6836 -62.3047 77.3438 -62.3047 L 102.344 -62.3047 C 103.418 -62.3047 104.199 -61.5723 104.199 -60.498 C 104.199 -59.4727 103.369 -58.6426 102.344 -58.6426 L 78.2227 -58.6426 L 76.416 -36.6211 L 76.6113 -36.6211 C 79.4922 -40.5273 84.5215 -42.9199 89.5996 -42.9199 C 99.5605 -42.9199 106.641 -35.5469 106.641 -25.5859 C 106.641 -14.8926 99.2188 -7.71484 88.4277 -7.71484 Z"/>
  </g>
  <g id="Ultralight-L" transform="matrix(1 0 0 1 487.616 1556)">
   <path d="M 72.1191 25.7324 C 105.566 25.7324 132.91 -1.61133 132.91 -35.1074 C 132.91 -68.5547 105.566 -95.8984 72.1191 -95.8984 C 38.623 -95.8984 11.2793 -68.5547 11.2793 -35.1074 C 11.2793 -1.61133 38.623 25.7324 72.1191 25.7324 Z M 87.793 -7.95898 C 79.0527 -7.95898 73.3398 -12.793 71.3379 -18.8965 C 71.1914 -19.4336 71.0938 -19.6777 71.0938 -20.0195 C 71.0938 -20.9473 71.7773 -21.4355 72.5098 -21.4355 C 73.3398 -21.4355 73.8281 -20.8008 73.9746 -19.9219 C 75.3906 -14.6973 81.2012 -10.9375 88.1836 -10.9375 C 96.5332 -10.9375 102.832 -17.1387 102.832 -25.5371 C 102.832 -33.9844 96.875 -40.0391 88.4277 -40.0391 C 83.5938 -40.0391 79.5898 -38.1836 75.4395 -33.3984 C 74.9023 -32.8613 74.5117 -32.5684 73.8281 -32.5684 C 72.8027 -32.5684 72.0215 -33.3008 72.0703 -34.4727 L 74.2188 -60.2539 C 74.2676 -61.5234 74.9512 -62.3047 76.1719 -62.3047 L 101.66 -62.3047 C 102.539 -62.3047 103.223 -61.7188 103.223 -60.8887 C 103.223 -60.1074 102.539 -59.4727 101.66 -59.4727 L 77.0508 -59.4727 L 75.1465 -36.3281 L 75.293 -36.3281 C 78.3691 -40.4297 83.4961 -42.8711 88.7207 -42.8711 C 98.6328 -42.8711 105.762 -35.498 105.762 -25.6348 C 105.762 -15.1367 98.3887 -7.95898 87.793 -7.95898 Z M 53.1738 -8.30078 C 52.4414 -8.30078 51.709 -8.93555 51.709 -9.76562 L 51.709 -58.5449 L 51.5137 -58.5449 L 38.8672 -50.293 C 38.6719 -50.2441 38.5254 -50.2441 38.2324 -50.2441 C 37.4023 -50.2441 36.9141 -50.8789 36.9141 -51.6113 C 36.9141 -52.0996 37.0117 -52.4902 37.5488 -52.9297 L 51.3184 -61.7676 C 51.8066 -62.0605 52.2949 -62.207 52.9785 -62.207 C 53.9551 -62.207 54.6387 -61.6699 54.6387 -60.5957 L 54.6387 -9.76562 C 54.6387 -8.93555 54.1992 -8.30078 53.1738 -8.30078 Z"/>
  </g>
  <g id="Black-M" transform="matrix(1 0 0 1 2870.97 1126)">
   <path d="M 62.4023 18.457 C 91.9922 18.457 116.113 -5.61523 116.113 -35.2051 C 116.113 -64.7949 91.9922 -88.8672 62.4023 -88.8672 C 32.8125 -88.8672 8.74023 -64.7949 8.74023 -35.2051 C 8.74023 -5.61523 32.8125 18.457 62.4023 18.457 Z M 50.6836 -16.2109 C 47.168 -16.2109 45.5078 -18.2129 45.5078 -22.4121 L 45.5078 -41.6504 L 45.3125 -41.6504 L 43.8965 -39.8926 C 42.7246 -38.3789 41.6504 -37.6465 39.7949 -37.6465 C 37.5 -37.6465 35.7422 -39.5508 35.7422 -41.7969 C 35.7422 -43.7988 36.5723 -45.2637 38.5742 -47.2168 L 42.627 -51.1719 C 45.2148 -53.7598 47.1191 -54.3457 49.1699 -54.3457 C 53.7109 -54.3457 55.8594 -51.7578 55.8594 -47.2168 L 55.8594 -22.4121 C 55.8594 -18.2129 54.248 -16.2109 50.6836 -16.2109 Z M 74.6094 -16.2109 C 68.8965 -16.2109 65.1367 -19.5312 63.916 -21.875 C 63.3789 -22.9492 63.3301 -23.7793 63.3301 -24.6582 C 63.3301 -27.2949 65.4297 -29.1504 67.6758 -29.1504 C 69.9219 -29.1504 70.6543 -27.7832 71.5332 -27.1484 C 72.6562 -26.416 73.4375 -25.2441 75.1953 -25.2441 C 77.2461 -25.2441 78.6621 -27.0996 78.6621 -29.2969 C 78.6621 -31.3965 77.2461 -33.1055 75.4395 -33.1055 C 74.1211 -33.1055 73.3887 -32.666 72.2168 -31.8848 C 71.3867 -31.3477 70.2148 -30.7129 67.7734 -30.7129 C 64.8438 -30.7129 62.8906 -32.6172 62.9883 -35.791 L 63.5742 -47.8516 C 63.7207 -51.5137 65.4785 -53.6621 68.6523 -53.6621 L 82.3242 -53.6621 C 85.3516 -53.6621 87.0117 -52.1973 87.0117 -49.2676 C 87.0117 -46.3867 85.2539 -44.7266 82.3242 -44.7266 L 72.3633 -44.7266 L 71.7773 -37.6465 L 71.9727 -37.6465 C 73.3887 -39.7461 75.8301 -40.918 78.4668 -40.918 C 83.3984 -40.918 88.1836 -37.1094 88.1836 -29.9316 C 88.1836 -21.6309 83.2031 -16.2109 74.6094 -16.2109 Z"/>
  </g>
  <g id="Heavy-M" transform="matrix(1 0 0 1 2575.19 1126)">
   <path d="M 61.5234 17.5781 C 90.5273 17.5781 114.258 -6.15234 114.258 -35.2051 C 114.258 -64.2578 90.5273 -87.9883 61.4746 -87.9883 C 32.4707 -87.9883 8.74023 -64.2578 8.74023 -35.2051 C 8.74023 -6.15234 32.4707 17.5781 61.5234 17.5781 Z M 49.1211 -15.625 C 45.9961 -15.625 44.3848 -17.4805 44.3848 -21.1426 L 44.3848 -43.3594 L 44.1895 -43.3594 L 41.7969 -41.0645 C 40.625 -39.6973 39.6973 -39.1113 38.0859 -39.1113 C 35.9863 -39.1113 34.2773 -40.918 34.2773 -43.0176 C 34.2773 -44.873 35.0586 -46.1914 36.8652 -47.8516 L 41.7969 -52.1484 C 44.2383 -54.3945 45.8984 -54.9805 47.8516 -54.9805 C 51.8555 -54.9805 53.8086 -52.6367 53.8086 -48.6816 L 53.8086 -21.1426 C 53.8086 -17.4805 52.2461 -15.625 49.1211 -15.625 Z M 73.7305 -15.4785 C 67.8223 -15.4785 63.7695 -18.7988 62.4512 -21.6309 C 62.0117 -22.6074 61.9141 -23.4375 61.9141 -24.2676 C 61.9141 -26.709 63.7695 -28.418 65.918 -28.418 C 67.9199 -28.418 68.7012 -27.1973 69.5312 -26.416 C 70.752 -25.0977 72.0215 -23.7793 74.2188 -23.7793 C 76.9531 -23.7793 78.8086 -25.9277 78.8086 -28.9062 C 78.8086 -31.5918 77.0508 -33.7402 74.5605 -33.7402 C 73.0469 -33.7402 72.1191 -33.252 70.7031 -32.1777 C 69.6777 -31.4453 68.5547 -30.9082 66.3086 -30.9082 C 63.5254 -30.9082 61.7188 -32.7637 61.8164 -35.8398 L 62.5488 -48.7793 C 62.7441 -52.2461 64.502 -54.248 67.5293 -54.248 L 82.1777 -54.248 C 84.8145 -54.248 86.3281 -52.8809 86.3281 -50.2441 C 86.3281 -47.6562 84.7168 -46.0938 82.1777 -46.0938 L 70.5078 -46.0938 L 69.873 -37.5488 L 70.0684 -37.5488 C 71.5332 -39.7461 74.2188 -41.0156 77.0508 -41.0156 C 82.7148 -41.0156 87.5977 -36.7676 87.5977 -29.4434 C 87.5977 -20.9473 82.4219 -15.4785 73.7305 -15.4785 Z"/>
  </g>
  <g id="Bold-M" transform="matrix(1 0 0 1 2279.5 1126)">
   <path d="M 60.498 16.5039 C 88.8672 16.5039 112.207 -6.78711 112.207 -35.2051 C 112.207 -63.623 88.8672 -86.9629 60.4492 -86.9629 C 32.0312 -86.9629 8.74023 -63.623 8.74023 -35.2051 C 8.74023 -6.78711 32.0801 16.5039 60.498 16.5039 Z M 47.3633 -14.9902 C 44.6289 -14.9902 43.1641 -16.6504 43.1641 -19.7754 L 43.1641 -45.2637 L 42.9199 -45.2637 L 39.4531 -42.3828 C 38.2812 -41.1621 37.5 -40.7227 36.1816 -40.7227 C 34.2773 -40.7227 32.666 -42.3828 32.666 -44.3848 C 32.666 -46.0449 33.3984 -47.2168 34.9609 -48.6328 L 40.8691 -53.2227 C 43.0664 -55.127 44.5312 -55.6641 46.3867 -55.6641 C 49.7559 -55.6641 51.5137 -53.6621 51.5137 -50.293 L 51.5137 -19.7754 C 51.5137 -16.6504 50.0977 -14.9902 47.3633 -14.9902 Z M 72.7051 -14.6973 C 66.6016 -14.6973 62.207 -18.0664 60.8398 -21.3379 C 60.4492 -22.2168 60.3027 -23.0469 60.3027 -23.877 C 60.3027 -26.0254 61.9141 -27.6367 63.916 -27.6367 C 65.625 -27.6367 66.5039 -26.5625 67.334 -25.5371 C 68.6035 -23.584 70.5078 -22.1191 73.1445 -22.1191 C 76.6602 -22.1191 79.0527 -24.6094 79.0527 -28.4668 C 79.0527 -31.8359 76.8066 -34.4727 73.6328 -34.4727 C 71.875 -34.4727 70.7031 -33.8867 69.043 -32.5684 C 67.8223 -31.5918 66.748 -31.1035 64.6973 -31.1035 C 62.0605 -31.1035 60.4004 -32.9102 60.5469 -35.8887 L 61.4258 -49.8535 C 61.6211 -53.0762 63.3789 -54.9316 66.3086 -54.9316 L 81.9824 -54.9316 C 84.2285 -54.9316 85.5957 -53.6621 85.5957 -51.3672 C 85.5957 -49.0723 84.1309 -47.6562 81.9824 -47.6562 L 68.5059 -47.6562 L 67.7246 -37.5 L 67.9199 -37.5 C 69.3848 -39.7461 72.4609 -41.1621 75.4883 -41.1621 C 81.9336 -41.1621 86.9629 -36.3281 86.9629 -28.8086 C 86.9629 -20.166 81.4941 -14.6973 72.7051 -14.6973 Z"/>
  </g>
  <g id="Semibold-M" transform="matrix(1 0 0 1 1983.5 1126)">
   <path d="M 59.7656 15.8203 C 87.7441 15.8203 110.791 -7.22656 110.791 -35.2051 C 110.791 -63.1836 87.6953 -86.2793 59.7656 -86.2793 C 31.7871 -86.2793 8.74023 -63.1836 8.74023 -35.2051 C 8.74023 -7.22656 31.7871 15.8203 59.7656 15.8203 Z M 46.1426 -14.5508 C 43.7012 -14.5508 42.334 -16.0645 42.334 -18.7988 L 42.334 -46.582 L 42.041 -46.582 L 37.8418 -43.2617 C 36.6699 -42.1387 36.0352 -41.8945 34.8633 -41.8945 C 33.1055 -41.8945 31.543 -43.4082 31.543 -45.3125 C 31.543 -46.875 32.2754 -47.9492 33.6426 -49.1211 L 40.2344 -53.9551 C 42.334 -55.6641 43.6035 -56.1523 45.3613 -56.1523 C 48.291 -56.1523 49.9512 -54.3457 49.9512 -51.416 L 49.9512 -18.7988 C 49.9512 -16.0645 48.584 -14.5508 46.1426 -14.5508 Z M 71.9727 -14.1602 C 65.7715 -14.1602 61.1328 -17.5293 59.7168 -21.1426 C 59.3262 -21.9727 59.2285 -22.7539 59.2285 -23.584 C 59.2285 -25.5859 60.6445 -27.0508 62.5488 -27.0508 C 64.0625 -27.0508 64.9902 -26.123 65.8203 -24.9512 C 67.1387 -22.5586 69.4336 -20.9473 72.3633 -20.9473 C 76.416 -20.9473 79.1992 -23.7305 79.1992 -28.125 C 79.1992 -31.9824 76.6113 -34.9609 72.998 -34.9609 C 71.0449 -34.9609 69.6777 -34.3262 67.8711 -32.8125 C 66.5039 -31.7383 65.4785 -31.25 63.5742 -31.25 C 61.0352 -31.25 59.4727 -33.0078 59.6191 -35.8887 L 60.6445 -50.5859 C 60.8398 -53.6621 62.5977 -55.4199 65.4297 -55.4199 L 81.8359 -55.4199 C 83.8379 -55.4199 85.0586 -54.1504 85.0586 -52.0996 C 85.0586 -50.0488 83.7402 -48.6816 81.8359 -48.6816 L 67.0898 -48.6816 L 66.2598 -37.4512 L 66.4551 -37.4512 C 67.9688 -39.6973 71.2402 -41.2109 74.4141 -41.2109 C 81.3965 -41.2109 86.5723 -36.084 86.5723 -28.418 C 86.5723 -19.6289 80.8594 -14.1602 71.9727 -14.1602 Z"/>
  </g>
  <g id="Medium-M" transform="matrix(1 0 0 1 1687.3 1126)">
   <path d="M 59.2285 15.2832 C 86.9141 15.2832 109.766 -7.56836 109.766 -35.2051 C 109.766 -62.8906 86.8652 -85.7422 59.1797 -85.7422 C 31.543 -85.7422 8.74023 -62.8906 8.74023 -35.2051 C 8.74023 -7.56836 31.5918 15.2832 59.2285 15.2832 Z M 45.2148 -14.209 C 43.0176 -14.209 41.6504 -15.625 41.6504 -18.0664 L 41.6504 -47.6074 L 41.4062 -47.6074 L 36.6211 -43.9453 C 35.4492 -42.9199 34.8633 -42.7246 33.8379 -42.7246 C 32.2266 -42.7246 30.7129 -44.1895 30.7129 -46.0449 C 30.7129 -47.4609 31.3965 -48.4863 32.666 -49.5117 L 39.7461 -54.541 C 41.6992 -56.0059 42.8711 -56.543 44.6289 -56.543 C 47.168 -56.543 48.7793 -54.8828 48.7793 -52.2461 L 48.7793 -18.0664 C 48.7793 -15.625 47.4121 -14.209 45.2148 -14.209 Z M 71.4355 -13.7207 C 65.1367 -13.7207 60.3027 -17.0898 58.8379 -20.9961 C 58.5449 -21.7773 58.3984 -22.5586 58.3984 -23.3887 C 58.3984 -25.2441 59.7168 -26.6113 61.5234 -26.6113 C 62.8906 -26.6113 63.8672 -25.8301 64.6484 -24.5117 C 66.0156 -21.8262 68.6523 -20.1172 71.8262 -20.1172 C 76.2695 -20.1172 79.2969 -23.0469 79.2969 -27.8809 C 79.2969 -32.1289 76.5137 -35.3516 72.5098 -35.3516 C 70.4102 -35.3516 68.9453 -34.668 66.9922 -32.959 C 65.4785 -31.7871 64.502 -31.3477 62.7441 -31.3477 C 60.3027 -31.3477 58.7891 -33.1055 58.9355 -35.8887 L 60.1074 -51.1719 C 60.2539 -54.0527 62.0117 -55.7617 64.7949 -55.7617 L 81.7383 -55.7617 C 83.4961 -55.7617 84.668 -54.541 84.668 -52.6855 C 84.668 -50.7812 83.4473 -49.5117 81.7383 -49.5117 L 66.0156 -49.5117 L 65.1367 -37.4023 L 65.332 -37.4023 C 66.8457 -39.6973 70.3125 -41.3086 73.584 -41.3086 C 81.0059 -41.3086 86.2305 -35.8887 86.2305 -28.0762 C 86.2305 -19.1895 80.3711 -13.7207 71.4355 -13.7207 Z"/>
  </g>
  <g id="Regular-M" transform="matrix(1 0 0 1 1391.3 1126)">
   <path d="M 58.5449 14.5508 C 85.791 14.5508 108.35 -8.00781 108.35 -35.2539 C 108.35 -62.4512 85.7422 -85.0586 58.4961 -85.0586 C 31.2988 -85.0586 8.74023 -62.4512 8.74023 -35.2539 C 8.74023 -8.00781 31.3477 14.5508 58.5449 14.5508 Z M 43.9941 -13.7695 C 42.0898 -13.7695 40.8203 -15.0879 40.8203 -17.0898 L 40.8203 -48.877 L 40.5273 -48.877 L 35.0586 -44.8242 C 33.8867 -43.8965 33.3984 -43.8477 32.5684 -43.8477 C 31.1035 -43.8477 29.5898 -45.2148 29.5898 -46.9727 C 29.5898 -48.291 30.2734 -49.2188 31.3477 -50 L 39.1113 -55.2734 C 40.9668 -56.4941 41.9922 -57.0312 43.6035 -57.0312 C 45.752 -57.0312 47.2168 -55.5664 47.2168 -53.3691 L 47.2168 -17.0898 C 47.2168 -15.0879 45.9473 -13.7695 43.9941 -13.7695 Z M 70.752 -13.1836 C 64.3066 -13.1836 59.2285 -16.5527 57.7148 -20.8008 C 57.4707 -21.4844 57.2754 -22.2656 57.2754 -23.1445 C 57.2754 -24.8047 58.4473 -26.0742 60.1562 -26.0742 C 61.3281 -26.0742 62.3535 -25.3906 63.1348 -23.9258 C 64.5996 -20.8008 67.5781 -18.9453 71.0449 -18.9453 C 76.0742 -18.9453 79.4434 -22.168 79.4434 -27.5879 C 79.4434 -32.2754 76.3672 -35.8398 71.8262 -35.8398 C 69.5801 -35.8398 67.9688 -35.1074 65.8203 -33.252 C 64.209 -31.8848 63.2324 -31.4941 61.6699 -31.4941 C 59.3262 -31.4941 57.8613 -33.2031 58.0566 -35.9375 L 59.3262 -51.9043 C 59.4727 -54.6387 61.2793 -56.25 63.9648 -56.25 L 81.5918 -56.25 C 83.1055 -56.25 84.1797 -55.0781 84.1797 -53.418 C 84.1797 -51.709 83.0566 -50.5371 81.5918 -50.5371 L 64.6484 -50.5371 L 63.6719 -37.3535 L 63.8672 -37.3535 C 65.3809 -39.6973 69.0918 -41.3574 72.5586 -41.3574 C 80.4688 -41.3574 85.791 -35.5957 85.791 -27.6855 C 85.791 -18.6523 79.7852 -13.1836 70.752 -13.1836 Z"/>
  </g>
  <g id="Light-M" transform="matrix(1 0 0 1 1095.42 1126)">
   <path d="M 57.7148 13.7695 C 84.5215 13.7695 106.689 -8.39844 106.689 -35.2051 C 106.689 -62.0117 84.5215 -84.1797 57.666 -84.1797 C 30.8594 -84.1797 8.74023 -62.0117 8.74023 -35.2051 C 8.74023 -8.39844 30.9082 13.7695 57.7148 13.7695 Z M 43.1152 -13.9648 C 41.6504 -13.9648 40.625 -14.9902 40.625 -16.6016 L 40.625 -50.2441 L 40.332 -50.2441 L 33.4961 -45.459 C 32.666 -44.8242 32.3242 -44.7754 31.6406 -44.7754 C 30.4199 -44.7754 29.2969 -45.8984 29.2969 -47.2656 C 29.2969 -48.291 29.7852 -49.0234 30.6641 -49.6582 L 39.3066 -55.4199 C 40.6738 -56.3477 41.5039 -56.7383 42.8223 -56.7383 C 44.5312 -56.7383 45.7031 -55.6152 45.7031 -53.8574 L 45.7031 -16.6016 C 45.7031 -14.9902 44.7266 -13.9648 43.1152 -13.9648 Z M 69.9219 -13.4766 C 63.3789 -13.4766 58.4961 -16.9922 56.9824 -21.3379 C 56.7383 -21.9727 56.6406 -22.5586 56.6406 -23.2422 C 56.6406 -24.6094 57.5684 -25.5859 58.9355 -25.5859 C 59.9121 -25.5859 60.7422 -24.9512 61.3281 -23.7305 C 62.6953 -20.3125 66.1621 -18.1641 70.2148 -18.1641 C 75.6836 -18.1641 79.4922 -21.875 79.4922 -27.6367 C 79.4922 -32.8613 75.9277 -36.8164 70.8008 -36.8164 C 68.1152 -36.8164 66.0156 -35.8887 63.5254 -33.3984 C 62.3047 -32.373 61.5234 -32.0312 60.2539 -32.0312 C 58.3984 -32.0312 57.2266 -33.3984 57.373 -35.5469 L 58.7402 -52.7344 C 58.8867 -54.9316 60.3027 -56.25 62.4512 -56.25 L 80.7129 -56.25 C 81.9824 -56.25 82.8613 -55.2734 82.8613 -53.9551 C 82.8613 -52.5879 81.9336 -51.6113 80.7129 -51.6113 L 63.1348 -51.6113 L 61.9629 -36.9629 L 62.1582 -36.9629 C 63.9648 -39.5508 67.7246 -41.3086 71.3379 -41.3086 C 79.1992 -41.3086 84.6191 -35.5469 84.6191 -27.7344 C 84.6191 -18.9941 78.6621 -13.4766 69.9219 -13.4766 Z"/>
  </g>
  <g id="Thin-M" transform="matrix(1 0 0 1 799.806 1126)">
   <path d="M 56.6406 12.7441 C 82.9102 12.7441 104.492 -8.83789 104.492 -35.1562 C 104.492 -61.4746 82.9102 -83.0566 56.5918 -83.0566 C 30.3223 -83.0566 8.74023 -61.4746 8.74023 -35.1562 C 8.74023 -8.83789 30.3223 12.7441 56.6406 12.7441 Z M 41.9922 -14.209 C 41.0645 -14.209 40.2832 -14.9414 40.2832 -15.918 L 40.2832 -52.0508 L 40.0879 -52.0508 L 31.4941 -46.3379 C 31.0547 -46.0449 30.8594 -46.0449 30.4199 -46.0449 C 29.5898 -46.0449 28.8574 -46.7285 28.8574 -47.6562 C 28.8574 -48.291 29.1016 -48.7793 29.7363 -49.2188 L 39.5996 -55.6641 C 40.3809 -56.1523 40.918 -56.3965 41.748 -56.3965 C 42.9199 -56.3965 43.7012 -55.6641 43.7012 -54.4922 L 43.7012 -15.918 C 43.7012 -14.9414 43.1152 -14.209 41.9922 -14.209 Z M 68.7988 -13.8184 C 62.1094 -13.8184 57.5195 -17.4805 55.957 -22.0703 C 55.8105 -22.5586 55.7129 -22.9492 55.7129 -23.3398 C 55.7129 -24.3652 56.3965 -24.9512 57.3242 -24.9512 C 58.1055 -24.9512 58.6426 -24.4141 58.9844 -23.5352 C 60.1562 -19.7266 64.2578 -17.1387 69.0918 -17.1387 C 75.1465 -17.1387 79.5898 -21.4844 79.5898 -27.6855 C 79.5898 -33.6914 75.4395 -38.0859 69.4824 -38.0859 C 66.1133 -38.0859 63.4277 -36.8652 60.498 -33.6426 C 59.7656 -32.959 59.2773 -32.7148 58.4473 -32.7148 C 57.2266 -32.7148 56.3965 -33.5938 56.4453 -35.0098 L 58.0078 -53.8574 C 58.1055 -55.3223 58.9844 -56.2012 60.4004 -56.2012 L 79.5898 -56.2012 C 80.4688 -56.2012 81.1523 -55.5664 81.1523 -54.6387 C 81.1523 -53.7109 80.4688 -53.0273 79.5898 -53.0273 L 61.084 -53.0273 L 59.7656 -36.4258 L 59.9121 -36.4258 C 62.0605 -39.4043 65.918 -41.2109 69.8242 -41.2109 C 77.5879 -41.2109 83.0078 -35.498 83.0078 -27.7832 C 83.0078 -19.3848 77.2461 -13.8184 68.7988 -13.8184 Z"/>
  </g>
  <g id="Ultralight-M" transform="matrix(1 0 0 1 503.656 1126)">
   <path d="M 56.0547 12.207 C 82.0801 12.207 103.369 -9.08203 103.369 -35.1562 C 103.369 -61.1816 82.0801 -82.4707 56.0547 -82.4707 C 30.0293 -82.4707 8.74023 -61.1816 8.74023 -35.1562 C 8.74023 -9.08203 30.0293 12.207 56.0547 12.207 Z M 68.2129 -14.0137 C 61.4746 -14.0137 56.9824 -17.7734 55.4199 -22.4609 C 55.3223 -22.9004 55.2734 -23.1445 55.2734 -23.4375 C 55.2734 -24.2188 55.8105 -24.6582 56.4941 -24.6582 C 57.1289 -24.6582 57.5684 -24.1211 57.7637 -23.3887 C 58.8867 -19.3848 63.2324 -16.6016 68.5059 -16.6016 C 74.9023 -16.6016 79.6875 -21.2891 79.6875 -27.7344 C 79.6875 -34.1309 75.1465 -38.7207 68.75 -38.7207 C 65.1367 -38.7207 62.1094 -37.3535 58.9844 -33.7891 C 58.4961 -33.3008 58.1543 -33.0566 57.5195 -33.0566 C 56.6406 -33.0566 55.957 -33.6914 56.0059 -34.7168 L 57.6172 -54.4434 C 57.7148 -55.5176 58.3008 -56.2012 59.375 -56.2012 L 79.0039 -56.2012 C 79.7363 -56.2012 80.2734 -55.7129 80.2734 -54.9805 C 80.2734 -54.2969 79.7363 -53.7598 79.0039 -53.7598 L 60.0586 -53.7598 L 58.6426 -36.1816 L 58.7402 -36.1816 C 61.084 -39.3066 64.9902 -41.1621 68.9941 -41.1621 C 76.709 -41.1621 82.2266 -35.4492 82.2266 -27.7832 C 82.2266 -19.5801 76.4648 -14.0137 68.2129 -14.0137 Z M 41.4062 -14.3066 C 40.7715 -14.3066 40.1367 -14.8926 40.1367 -15.625 L 40.1367 -52.9785 L 39.9414 -52.9785 L 30.4688 -46.7773 C 30.2246 -46.6309 30.127 -46.6309 29.834 -46.6309 C 29.1504 -46.6309 28.6621 -47.2168 28.6621 -47.8516 C 28.6621 -48.291 28.7598 -48.6328 29.248 -49.0234 L 39.7461 -55.7617 C 40.1855 -56.0547 40.625 -56.2012 41.2109 -56.2012 C 42.0898 -56.2012 42.6758 -55.7129 42.6758 -54.7852 L 42.6758 -15.625 C 42.6758 -14.8926 42.2852 -14.3066 41.4062 -14.3066 Z"/>
  </g>
  <g id="Black-S" transform="matrix(1 0 0 1 2884.57 696)">
   <path d="M 48.8281 6.78711 C 71.9727 6.78711 90.8203 -12.0605 90.8203 -35.2051 C 90.8203 -58.3496 71.9727 -77.1973 48.8281 -77.1973 C 25.6836 -77.1973 6.83594 -58.3496 6.83594 -35.2051 C 6.83594 -12.0605 25.6836 6.78711 48.8281 6.78711 Z M 39.5996 -20.2637 C 36.8652 -20.2637 35.5469 -21.8262 35.5469 -25.0977 L 35.5469 -40.3809 L 35.4004 -40.3809 L 34.2285 -38.9648 C 33.3008 -37.793 32.4707 -37.207 31.0547 -37.207 C 29.248 -37.207 27.8809 -38.7207 27.8809 -40.4785 C 27.8809 -42.041 28.5156 -43.1641 30.0781 -44.6777 L 33.3008 -47.8027 C 35.3516 -49.8047 36.8164 -50.2441 38.4277 -50.2441 C 41.9434 -50.2441 43.6035 -48.2422 43.6035 -44.7266 L 43.6035 -25.0977 C 43.6035 -21.8262 42.334 -20.2637 39.5996 -20.2637 Z M 58.3984 -20.2637 C 53.9062 -20.2637 50.9277 -22.8516 49.9512 -24.7559 C 49.5605 -25.5859 49.5117 -26.2207 49.5117 -26.9043 C 49.5117 -28.9551 51.123 -30.4199 52.8809 -30.4199 C 54.6387 -30.4199 55.2246 -29.3457 55.9082 -28.8574 C 56.7871 -28.2227 57.4219 -27.2949 58.8379 -27.2949 C 60.498 -27.2949 61.6211 -28.7598 61.6211 -30.5664 C 61.6211 -32.2266 60.498 -33.5938 59.0332 -33.5938 C 58.0078 -33.5938 57.4219 -33.252 56.4941 -32.6172 C 55.8105 -32.1777 54.8828 -31.6895 52.9785 -31.6895 C 50.6836 -31.6895 49.1699 -33.2031 49.2676 -35.6934 L 49.707 -45.166 C 49.8535 -48.0469 51.2207 -49.707 53.7109 -49.707 L 64.502 -49.707 C 66.8457 -49.707 68.1152 -48.584 68.1152 -46.2891 C 68.1152 -44.043 66.748 -42.7734 64.502 -42.7734 L 56.543 -42.7734 L 56.1035 -37.1094 L 56.25 -37.1094 C 57.373 -38.7695 59.2773 -39.6973 61.377 -39.6973 C 65.2832 -39.6973 69.043 -36.6699 69.043 -31.0547 C 69.043 -24.5117 65.1367 -20.2637 58.3984 -20.2637 Z"/>
  </g>
  <g id="Heavy-S" transform="matrix(1 0 0 1 2588.47 696)">
   <path d="M 48.2422 6.15234 C 70.9961 6.15234 89.5996 -12.4512 89.5996 -35.2051 C 89.5996 -57.959 70.9961 -76.6113 48.1934 -76.6113 C 25.4395 -76.6113 6.83594 -57.959 6.83594 -35.2051 C 6.83594 -12.4512 25.4395 6.15234 48.2422 6.15234 Z M 38.4766 -19.8242 C 35.9863 -19.8242 34.7168 -21.2891 34.7168 -24.1699 L 34.7168 -41.5527 L 34.5703 -41.5527 L 32.8125 -39.7949 C 31.8359 -38.6719 31.1035 -38.2324 29.834 -38.2324 C 28.1738 -38.2324 26.8066 -39.6484 26.8066 -41.3574 C 26.8066 -42.8711 27.4414 -43.8965 28.8574 -45.2148 L 32.666 -48.5352 C 34.6191 -50.3418 35.9375 -50.7812 37.5 -50.7812 C 40.625 -50.7812 42.1875 -48.9258 42.1875 -45.8008 L 42.1875 -24.1699 C 42.1875 -21.2891 40.9668 -19.8242 38.4766 -19.8242 Z M 57.8125 -19.6777 C 53.1738 -19.6777 49.9512 -22.2656 48.9258 -24.5117 C 48.584 -25.293 48.4863 -25.9277 48.4863 -26.6113 C 48.4863 -28.5156 49.9512 -29.9316 51.6602 -29.9316 C 53.2227 -29.9316 53.9062 -28.9551 54.5898 -28.2715 C 55.5176 -27.2461 56.543 -26.2695 58.2031 -26.2695 C 60.3027 -26.2695 61.7676 -27.9297 61.7676 -30.2246 C 61.7676 -32.3242 60.4004 -33.9844 58.4961 -33.9844 C 57.373 -33.9844 56.6406 -33.5938 55.6152 -32.8613 C 54.7363 -32.2266 53.8086 -31.7871 52.0508 -31.7871 C 49.8047 -31.7871 48.3398 -33.3008 48.4375 -35.7422 L 49.0234 -45.8008 C 49.1699 -48.584 50.5859 -50.1953 53.0273 -50.1953 L 64.4531 -50.1953 C 66.5527 -50.1953 67.7246 -49.0723 67.7246 -46.9727 C 67.7246 -44.9219 66.4551 -43.7012 64.4531 -43.7012 L 55.3223 -43.7012 L 54.834 -37.1094 L 54.9805 -37.1094 C 56.1035 -38.7695 58.2031 -39.7949 60.4492 -39.7949 C 64.8926 -39.7949 68.75 -36.4258 68.75 -30.6641 C 68.75 -23.9258 64.6484 -19.6777 57.8125 -19.6777 Z"/>
  </g>
  <g id="Bold-S" transform="matrix(1 0 0 1 2292.44 696)">
   <path d="M 47.5586 5.46875 C 69.873 5.46875 88.2324 -12.8906 88.2324 -35.2051 C 88.2324 -57.5684 69.873 -75.9277 47.5098 -75.9277 C 25.1953 -75.9277 6.83594 -57.5684 6.83594 -35.2051 C 6.83594 -12.8906 25.1953 5.46875 47.5586 5.46875 Z M 37.2559 -19.2871 C 35.0098 -19.2871 33.8379 -20.6543 33.8379 -23.1934 L 33.8379 -42.8223 L 33.6426 -42.8223 L 31.2012 -40.7227 C 30.2246 -39.6973 29.5898 -39.3555 28.5156 -39.3555 C 26.9531 -39.3555 25.6348 -40.7227 25.6348 -42.3828 C 25.6348 -43.75 26.2207 -44.7266 27.4902 -45.8008 L 31.9336 -49.3164 C 33.7891 -50.8789 34.9609 -51.3672 36.4746 -51.3672 C 39.209 -51.3672 40.6738 -49.707 40.6738 -46.9727 L 40.6738 -23.1934 C 40.6738 -20.6543 39.4531 -19.2871 37.2559 -19.2871 Z M 57.1289 -19.043 C 52.3926 -19.043 48.8281 -21.6309 47.7539 -24.2188 C 47.4609 -24.9023 47.3633 -25.5859 47.3633 -26.3184 C 47.3633 -28.0762 48.6816 -29.3457 50.293 -29.3457 C 51.6602 -29.3457 52.3926 -28.5156 53.125 -27.6367 C 54.1504 -26.1719 55.5176 -25.0977 57.4707 -25.0977 C 60.1074 -25.0977 61.9141 -26.9531 61.9141 -29.8828 C 61.9141 -32.4219 60.2539 -34.4238 57.9102 -34.4238 C 56.6406 -34.4238 55.8105 -34.0332 54.5898 -33.1055 C 53.5156 -32.2754 52.6367 -31.8848 50.9766 -31.8848 C 48.7793 -31.8848 47.4121 -33.3984 47.5098 -35.8398 L 48.2422 -46.5332 C 48.3887 -49.1699 49.8535 -50.6836 52.2949 -50.6836 L 64.4043 -50.6836 C 66.2598 -50.6836 67.334 -49.6094 67.334 -47.7539 C 67.334 -45.8984 66.1621 -44.7266 64.4043 -44.7266 L 53.9551 -44.7266 L 53.3691 -37.1094 L 53.5645 -37.1094 C 54.6387 -38.7695 57.0312 -39.8926 59.375 -39.8926 C 64.4531 -39.8926 68.4082 -36.084 68.4082 -30.1758 C 68.4082 -23.291 64.0625 -19.043 57.1289 -19.043 Z"/>
  </g>
  <g id="Semibold-S" transform="matrix(1 0 0 1 1996.2 696)">
   <path d="M 47.0703 4.98047 C 69.0918 4.98047 87.3047 -13.1836 87.3047 -35.2539 C 87.3047 -57.2754 69.0918 -75.4883 47.0215 -75.4883 C 25 -75.4883 6.83594 -57.2754 6.83594 -35.2539 C 6.83594 -13.1836 25.0488 4.98047 47.0703 4.98047 Z M 36.377 -18.9453 C 34.375 -18.9453 33.2031 -20.2148 33.2031 -22.4609 L 33.2031 -43.7012 L 32.959 -43.7012 L 30.127 -41.3086 C 29.0527 -40.3809 28.5156 -40.1855 27.5391 -40.1855 C 26.123 -40.1855 24.8047 -41.4551 24.8047 -43.0664 C 24.8047 -44.3848 25.3906 -45.2637 26.5625 -46.2402 L 31.4453 -49.9023 C 33.2031 -51.2695 34.2773 -51.7578 35.791 -51.7578 C 38.1836 -51.7578 39.5996 -50.1953 39.5996 -47.7539 L 39.5996 -22.4609 C 39.5996 -20.2148 38.4277 -18.9453 36.377 -18.9453 Z M 56.6406 -18.6035 C 51.8066 -18.6035 48.0957 -21.1914 46.9727 -24.0234 C 46.6797 -24.6582 46.582 -25.3418 46.582 -26.0742 C 46.582 -27.7344 47.7539 -28.9551 49.3652 -28.9551 C 50.5859 -28.9551 51.416 -28.2227 52.0996 -27.1973 C 53.1738 -25.4395 54.834 -24.2676 56.9336 -24.2676 C 60.0098 -24.2676 62.0117 -26.3184 62.0117 -29.6387 C 62.0117 -32.4707 60.1562 -34.7168 57.4707 -34.7168 C 56.1035 -34.7168 55.2246 -34.2773 53.9062 -33.252 C 52.6855 -32.3242 51.8066 -31.9336 50.2441 -31.9336 C 48.0957 -31.9336 46.7773 -33.4473 46.875 -35.8887 L 47.7051 -47.0215 C 47.8027 -49.5605 49.3652 -51.0742 51.7578 -51.0742 L 64.3555 -51.0742 C 66.0156 -51.0742 67.041 -50 67.041 -48.291 C 67.041 -46.582 65.9668 -45.459 64.3555 -45.459 L 53.0273 -45.459 L 52.3926 -37.1094 L 52.5879 -37.1094 C 53.6621 -38.7695 56.2012 -39.9414 58.6426 -39.9414 C 64.1602 -39.9414 68.1641 -35.8887 68.1641 -29.8828 C 68.1641 -22.9004 63.6719 -18.6035 56.6406 -18.6035 Z"/>
  </g>
  <g id="Medium-S" transform="matrix(1 0 0 1 1699.83 696)">
   <path d="M 46.7285 4.63867 C 68.5547 4.63867 86.6211 -13.4277 86.6211 -35.2539 C 86.6211 -57.0312 68.5059 -75.1465 46.6797 -75.1465 C 24.8535 -75.1465 6.83594 -57.0312 6.83594 -35.2539 C 6.83594 -13.4277 24.9023 4.63867 46.7285 4.63867 Z M 35.7422 -18.7012 C 33.8379 -18.7012 32.7148 -19.873 32.7148 -21.9727 L 32.7148 -44.3848 L 32.4707 -44.3848 L 29.248 -41.7969 C 28.2227 -40.918 27.7344 -40.7715 26.8555 -40.7715 C 25.4883 -40.7715 24.1699 -41.9922 24.1699 -43.6035 C 24.1699 -44.8242 24.7559 -45.7031 25.8301 -46.5332 L 31.0547 -50.293 C 32.7637 -51.6113 33.7402 -52.0508 35.2539 -52.0508 C 37.4023 -52.0508 38.7695 -50.6348 38.7695 -48.3887 L 38.7695 -21.9727 C 38.7695 -19.873 37.5977 -18.7012 35.7422 -18.7012 Z M 56.2988 -18.2617 C 51.3672 -18.2617 47.5098 -20.8496 46.3867 -23.877 C 46.0938 -24.4629 45.9961 -25.1953 45.9961 -25.9277 C 45.9961 -27.4902 47.0703 -28.6621 48.6328 -28.6621 C 49.7559 -28.6621 50.6348 -28.0273 51.3184 -26.8555 C 52.4414 -24.9023 54.2969 -23.6816 56.5918 -23.6816 C 59.9121 -23.6816 62.0605 -25.7812 62.0605 -29.4434 C 62.0605 -32.5684 60.1074 -34.9609 57.1777 -34.9609 C 55.7129 -34.9609 54.7852 -34.5215 53.3691 -33.3984 C 52.0508 -32.373 51.1719 -31.9824 49.6582 -31.9824 C 47.5586 -31.9824 46.2891 -33.4961 46.4355 -35.9375 L 47.2656 -47.4121 C 47.4121 -49.9023 48.9746 -51.3672 51.3672 -51.3672 L 64.3555 -51.3672 C 65.8691 -51.3672 66.8457 -50.293 66.8457 -48.7305 C 66.8457 -47.0703 65.8203 -45.9961 64.3555 -45.9961 L 52.2949 -45.9961 L 51.6602 -37.1094 L 51.8066 -37.1094 C 52.9297 -38.7695 55.5664 -39.9902 58.1055 -39.9902 C 63.916 -39.9902 68.0176 -35.7422 68.0176 -29.6387 C 68.0176 -22.5586 63.3789 -18.2617 56.2988 -18.2617 Z"/>
  </g>
  <g id="Regular-S" transform="matrix(1 0 0 1 1403.58 696)">
   <path d="M 46.2402 4.15039 C 67.7734 4.15039 85.6934 -13.7207 85.6934 -35.2539 C 85.6934 -56.7871 67.7246 -74.6582 46.1914 -74.6582 C 24.707 -74.6582 6.83594 -56.7871 6.83594 -35.2539 C 6.83594 -13.7207 24.7559 4.15039 46.2402 4.15039 Z M 34.8633 -18.3594 C 33.2031 -18.3594 32.0801 -19.4824 32.0801 -21.2402 L 32.0801 -45.2637 L 31.8359 -45.2637 L 28.1738 -42.4316 C 27.0996 -41.6016 26.709 -41.5527 25.9277 -41.5527 C 24.6582 -41.5527 23.3398 -42.7246 23.3398 -44.2871 C 23.3398 -45.459 23.9258 -46.2402 24.9023 -46.9727 L 30.5664 -50.8789 C 32.1777 -52.002 33.1055 -52.4414 34.5215 -52.4414 C 36.4258 -52.4414 37.6953 -51.123 37.6953 -49.2188 L 37.6953 -21.2402 C 37.6953 -19.4824 36.5723 -18.3594 34.8633 -18.3594 Z M 55.8105 -17.8223 C 50.8301 -17.8223 46.7773 -20.4102 45.6055 -23.6816 C 45.3613 -24.2188 45.2148 -24.9512 45.2148 -25.6836 C 45.2148 -27.1484 46.1914 -28.2715 47.7051 -28.2715 C 48.7305 -28.2715 49.6094 -27.7344 50.293 -26.416 C 51.5137 -24.1699 53.6133 -22.8516 56.0547 -22.8516 C 59.7656 -22.8516 62.1582 -25.1465 62.1582 -29.1992 C 62.1582 -32.6172 60.0098 -35.2539 56.7871 -35.2539 C 55.2246 -35.2539 54.1992 -34.7656 52.6855 -33.5938 C 51.2207 -32.373 50.3906 -32.0801 48.9746 -32.0801 C 46.875 -32.0801 45.6543 -33.5938 45.8008 -35.9863 L 46.7285 -47.9004 C 46.875 -50.293 48.4863 -51.709 50.8301 -51.709 L 64.3066 -51.709 C 65.625 -51.709 66.5527 -50.6836 66.5527 -49.2676 C 66.5527 -47.7539 65.5762 -46.6797 64.3066 -46.6797 L 51.3672 -46.6797 L 50.6836 -37.1094 L 50.8789 -37.1094 C 51.9043 -38.8184 54.7852 -40.0879 57.373 -40.0879 C 63.623 -40.0879 67.7734 -35.5469 67.7734 -29.2969 C 67.7734 -22.1191 63.0371 -17.8223 55.8105 -17.8223 Z"/>
  </g>
  <g id="Light-S" transform="matrix(1 0 0 1 1107.6 696)">
   <path d="M 45.5078 3.4668 C 66.6992 3.4668 84.2285 -14.0625 84.2285 -35.2051 C 84.2285 -56.3965 66.6504 -73.9258 45.5078 -73.9258 C 24.3164 -73.9258 6.83594 -56.3965 6.83594 -35.2051 C 6.83594 -14.0625 24.3652 3.4668 45.5078 3.4668 Z M 34.1309 -18.5059 C 32.7637 -18.5059 31.8848 -19.4336 31.8848 -20.8008 L 31.8848 -46.4844 L 31.6895 -46.4844 L 26.8555 -43.0176 C 26.0254 -42.3828 25.7324 -42.3828 25.1465 -42.3828 C 24.0723 -42.3828 23.0469 -43.3105 23.0469 -44.5312 C 23.0469 -45.459 23.4863 -46.0938 24.2676 -46.6797 L 30.7129 -51.0254 C 31.9824 -51.8555 32.666 -52.1973 33.8379 -52.1973 C 35.3516 -52.1973 36.377 -51.1719 36.377 -49.6094 L 36.377 -20.8008 C 36.377 -19.4336 35.498 -18.5059 34.1309 -18.5059 Z M 55.0781 -18.0664 C 50 -18.0664 46.0938 -20.752 44.9219 -24.1699 C 44.7266 -24.6582 44.6289 -25.1953 44.6289 -25.7812 C 44.6289 -27.002 45.4102 -27.8809 46.6309 -27.8809 C 47.4609 -27.8809 48.1934 -27.3438 48.7305 -26.2695 C 49.8047 -23.7305 52.3438 -22.168 55.3223 -22.168 C 59.4238 -22.168 62.2559 -24.9023 62.2559 -29.248 C 62.2559 -33.1543 59.668 -36.084 55.8594 -36.084 C 53.9062 -36.084 52.4414 -35.4492 50.6348 -33.7402 C 49.5117 -32.8125 48.877 -32.5195 47.7539 -32.5195 C 46.0938 -32.5195 45.0684 -33.7402 45.2148 -35.6445 L 46.2402 -48.6328 C 46.3379 -50.5371 47.6074 -51.709 49.5117 -51.709 L 63.5742 -51.709 C 64.6484 -51.709 65.3809 -50.8789 65.3809 -49.707 C 65.3809 -48.4863 64.5996 -47.6562 63.5742 -47.6562 L 50.0488 -47.6562 L 49.1699 -36.7676 L 49.3652 -36.7676 C 50.6348 -38.6719 53.5645 -40.0391 56.3477 -40.0391 C 62.5488 -40.0391 66.748 -35.498 66.748 -29.3457 C 66.748 -22.3633 62.0605 -18.0664 55.0781 -18.0664 Z"/>
  </g>
  <g id="Thin-S" transform="matrix(1 0 0 1 811.867 696)">
   <path d="M 44.5801 2.53906 C 65.2832 2.53906 82.2754 -14.4531 82.2754 -35.2051 C 82.2754 -55.9082 65.2344 -72.9004 44.5312 -72.9004 C 23.8281 -72.9004 6.83594 -55.9082 6.83594 -35.2051 C 6.83594 -14.4531 23.877 2.53906 44.5801 2.53906 Z M 33.1055 -18.7012 C 32.2754 -18.7012 31.6406 -19.3359 31.6406 -20.2637 L 31.6406 -48.0469 L 31.4453 -48.0469 L 25.0488 -43.75 C 24.6094 -43.457 24.4629 -43.457 24.0723 -43.457 C 23.3398 -43.457 22.7051 -44.0918 22.7051 -44.873 C 22.7051 -45.459 22.9492 -45.8984 23.4863 -46.2891 L 30.957 -51.1719 C 31.6895 -51.6602 32.1777 -51.8555 32.9102 -51.8555 C 33.9355 -51.8555 34.6191 -51.2207 34.6191 -50.1953 L 34.6191 -20.2637 C 34.6191 -19.3359 34.082 -18.7012 33.1055 -18.7012 Z M 54.1016 -18.4082 C 48.877 -18.4082 45.2148 -21.2402 44.043 -24.8047 C 43.8965 -25.1953 43.7988 -25.5371 43.7988 -25.8789 C 43.7988 -26.7578 44.3848 -27.2949 45.2148 -27.2949 C 45.8496 -27.2949 46.3379 -26.8555 46.6309 -26.123 C 47.6074 -23.1934 50.6836 -21.2402 54.3457 -21.2402 C 58.9844 -21.2402 62.3535 -24.5605 62.3535 -29.2969 C 62.3535 -33.8867 59.1797 -37.207 54.6875 -37.207 C 52.1973 -37.207 50.1953 -36.3281 47.998 -33.9355 C 47.3145 -33.3496 46.875 -33.1055 46.1426 -33.1055 C 45.0684 -33.1055 44.3359 -33.8867 44.3848 -35.1562 L 45.6055 -49.6094 C 45.6543 -50.8789 46.4355 -51.6602 47.7051 -51.6602 L 62.5488 -51.6602 C 63.3301 -51.6602 63.916 -51.123 63.916 -50.293 C 63.916 -49.5117 63.3301 -48.9258 62.5488 -48.9258 L 48.2422 -48.9258 L 47.2168 -36.2793 L 47.3633 -36.2793 C 48.9746 -38.5254 52.002 -39.9414 54.9805 -39.9414 C 61.084 -39.9414 65.332 -35.4492 65.332 -29.3457 C 65.332 -22.7051 60.791 -18.4082 54.1016 -18.4082 Z"/>
  </g>
  <g id="Ultralight-S" transform="matrix(1 0 0 1 515.644 696)">
   <path d="M 44.043 2.05078 C 64.502 2.05078 81.2988 -14.6973 81.2988 -35.1562 C 81.2988 -55.6152 64.502 -72.3633 44.043 -72.3633 C 23.584 -72.3633 6.83594 -55.6152 6.83594 -35.1562 C 6.83594 -14.6973 23.584 2.05078 44.043 2.05078 Z M 32.5684 -18.7988 C 31.9824 -18.7988 31.4941 -19.2871 31.4941 -19.9219 L 31.4941 -48.877 L 31.3477 -48.877 L 24.1211 -44.1406 C 23.877 -43.9941 23.7793 -43.9941 23.5352 -43.9941 C 22.9492 -43.9941 22.5098 -44.4824 22.5098 -45.0684 C 22.5098 -45.459 22.6074 -45.8008 23.0469 -46.0938 L 31.0547 -51.3184 C 31.543 -51.5625 31.8848 -51.709 32.4219 -51.709 C 33.1543 -51.709 33.6914 -51.2695 33.6914 -50.4883 L 33.6914 -19.9219 C 33.6914 -19.2871 33.3008 -18.7988 32.5684 -18.7988 Z M 53.5645 -18.5547 C 48.3398 -18.5547 44.7754 -21.4844 43.5547 -25.0977 C 43.457 -25.4883 43.4082 -25.6836 43.4082 -25.9766 C 43.4082 -26.6602 43.8477 -27.002 44.4336 -27.002 C 45.0195 -27.002 45.3613 -26.6113 45.5566 -25.9766 C 46.4355 -22.9004 49.8047 -20.752 53.8086 -20.752 C 58.7402 -20.752 62.4023 -24.3652 62.4023 -29.3457 C 62.4023 -34.2285 58.9355 -37.793 54.0527 -37.793 C 51.2695 -37.793 49.0234 -36.7676 46.582 -34.0332 C 46.1426 -33.6426 45.8496 -33.4473 45.3125 -33.4473 C 44.5312 -33.4473 43.9453 -34.0332 43.9941 -34.9121 L 45.2637 -50.1465 C 45.3125 -51.0742 45.8496 -51.6602 46.7773 -51.6602 L 62.0117 -51.6602 C 62.6465 -51.6602 63.1348 -51.2207 63.1348 -50.6348 C 63.1348 -50.0488 62.6465 -49.5605 62.0117 -49.5605 L 47.3145 -49.5605 L 46.2402 -36.0352 L 46.3379 -36.0352 C 48.0957 -38.4277 51.1719 -39.8926 54.248 -39.8926 C 60.3516 -39.8926 64.5996 -35.4004 64.5996 -29.3945 C 64.5996 -22.9004 60.1074 -18.5547 53.5645 -18.5547 Z"/>
  </g>
 </g>
</svg>
