<?xml version="1.0" encoding="UTF-8"?>
<!--Generator: Apple Native CoreSVG 123-->
<!DOCTYPE svg
PUBLIC "-//W3C//DTD SVG 1.1//EN"
       "http://www.w3.org/Graphics/SVG/1.1/DTD/svg11.dtd">
<svg version="1.1" xmlns="http://www.w3.org/2000/svg" xmlns:xlink="http://www.w3.org/1999/xlink" width="3300" height="2200">
 <!--glyph: "uni10051A.medium", point size: 100.000000, font version: "Version 15.0d7e11", template writer version: "5"-->
 <g id="Notes">
  <rect height="2200" id="artboard" style="fill:white;opacity:1" width="3300" x="0" y="0"/>
  <line id="" style="fill:none;stroke:black;opacity:1;stroke-width:0.5;" x1="263" x2="3036" y1="292" y2="292"/>
  <text style="stroke:none;fill:black;font-family:-apple-system,&quot;SF Pro Display&quot;,&quot;SF Pro Text&quot;,Helvetica,sans-serif;font-weight:bold;" transform="matrix(1 0 0 1 263 322)">Weight/Scale Variations</text>
  <text style="stroke:none;fill:black;font-family:-apple-system,&quot;SF Pro Display&quot;,&quot;SF Pro Text&quot;,Helvetica,sans-serif;text-anchor:middle;" transform="matrix(1 0 0 1 559.711 322)">Ultralight</text>
  <text style="stroke:none;fill:black;font-family:-apple-system,&quot;SF Pro Display&quot;,&quot;SF Pro Text&quot;,Helvetica,sans-serif;text-anchor:middle;" transform="matrix(1 0 0 1 856.422 322)">Thin</text>
  <text style="stroke:none;fill:black;font-family:-apple-system,&quot;SF Pro Display&quot;,&quot;SF Pro Text&quot;,Helvetica,sans-serif;text-anchor:middle;" transform="matrix(1 0 0 1 1153.13 322)">Light</text>
  <text style="stroke:none;fill:black;font-family:-apple-system,&quot;SF Pro Display&quot;,&quot;SF Pro Text&quot;,Helvetica,sans-serif;text-anchor:middle;" transform="matrix(1 0 0 1 1449.84 322)">Regular</text>
  <text style="stroke:none;fill:black;font-family:-apple-system,&quot;SF Pro Display&quot;,&quot;SF Pro Text&quot;,Helvetica,sans-serif;text-anchor:middle;" transform="matrix(1 0 0 1 1746.56 322)">Medium</text>
  <text style="stroke:none;fill:black;font-family:-apple-system,&quot;SF Pro Display&quot;,&quot;SF Pro Text&quot;,Helvetica,sans-serif;text-anchor:middle;" transform="matrix(1 0 0 1 2043.27 322)">Semibold</text>
  <text style="stroke:none;fill:black;font-family:-apple-system,&quot;SF Pro Display&quot;,&quot;SF Pro Text&quot;,Helvetica,sans-serif;text-anchor:middle;" transform="matrix(1 0 0 1 2339.98 322)">Bold</text>
  <text style="stroke:none;fill:black;font-family:-apple-system,&quot;SF Pro Display&quot;,&quot;SF Pro Text&quot;,Helvetica,sans-serif;text-anchor:middle;" transform="matrix(1 0 0 1 2636.69 322)">Heavy</text>
  <text style="stroke:none;fill:black;font-family:-apple-system,&quot;SF Pro Display&quot;,&quot;SF Pro Text&quot;,Helvetica,sans-serif;text-anchor:middle;" transform="matrix(1 0 0 1 2933.4 322)">Black</text>
  <line id="" style="fill:none;stroke:black;opacity:1;stroke-width:0.5;" x1="263" x2="3036" y1="1903" y2="1903"/>
  <g id="" transform="matrix(1 0 0 1 263 1933)">
   <path d="M 9.24805 0.830078 C 13.5547 0.830078 17.1387 -2.74414 17.1387 -7.05078 C 17.1387 -11.3574 13.5449 -14.9316 9.23828 -14.9316 C 4.94141 -14.9316 1.36719 -11.3574 1.36719 -7.05078 C 1.36719 -2.74414 4.95117 0.830078 9.24805 0.830078 Z M 9.24805 -0.654297 C 5.70312 -0.654297 2.87109 -3.49609 2.87109 -7.05078 C 2.87109 -10.6055 5.69336 -13.4473 9.23828 -13.4473 C 12.793 -13.4473 15.6348 -10.6055 15.6445 -7.05078 C 15.6543 -3.49609 12.8027 -0.654297 9.24805 -0.654297 Z M 9.22852 -3.42773 C 9.69727 -3.42773 9.9707 -3.74023 9.9707 -4.25781 L 9.9707 -6.31836 L 12.1973 -6.31836 C 12.6953 -6.31836 13.0371 -6.57227 13.0371 -7.04102 C 13.0371 -7.51953 12.7148 -7.7832 12.1973 -7.7832 L 9.9707 -7.7832 L 9.9707 -10.0098 C 9.9707 -10.5273 9.69727 -10.8496 9.22852 -10.8496 C 8.75977 -10.8496 8.50586 -10.5078 8.50586 -10.0098 L 8.50586 -7.7832 L 6.29883 -7.7832 C 5.78125 -7.7832 5.44922 -7.51953 5.44922 -7.04102 C 5.44922 -6.57227 5.80078 -6.31836 6.29883 -6.31836 L 8.50586 -6.31836 L 8.50586 -4.25781 C 8.50586 -3.75977 8.75977 -3.42773 9.22852 -3.42773 Z"/>
  </g>
  <g id="" transform="matrix(1 0 0 1 281.506 1933)">
   <path d="M 11.709 2.91016 C 17.1582 2.91016 21.6699 -1.60156 21.6699 -7.05078 C 21.6699 -12.4902 17.1484 -17.0117 11.6992 -17.0117 C 6.25977 -17.0117 1.74805 -12.4902 1.74805 -7.05078 C 1.74805 -1.60156 6.26953 2.91016 11.709 2.91016 Z M 11.709 1.25 C 7.09961 1.25 3.41797 -2.44141 3.41797 -7.05078 C 3.41797 -11.6504 7.08984 -15.3516 11.6992 -15.3516 C 16.3086 -15.3516 20 -11.6504 20.0098 -7.05078 C 20.0195 -2.44141 16.3184 1.25 11.709 1.25 Z M 11.6895 -2.41211 C 12.207 -2.41211 12.5195 -2.77344 12.5195 -3.33984 L 12.5195 -6.23047 L 15.5762 -6.23047 C 16.123 -6.23047 16.5039 -6.51367 16.5039 -7.03125 C 16.5039 -7.55859 16.1426 -7.86133 15.5762 -7.86133 L 12.5195 -7.86133 L 12.5195 -10.9277 C 12.5195 -11.5039 12.207 -11.8555 11.6895 -11.8555 C 11.1719 -11.8555 10.8789 -11.4844 10.8789 -10.9277 L 10.8789 -7.86133 L 7.83203 -7.86133 C 7.26562 -7.86133 6.89453 -7.55859 6.89453 -7.03125 C 6.89453 -6.51367 7.28516 -6.23047 7.83203 -6.23047 L 10.8789 -6.23047 L 10.8789 -3.33984 C 10.8789 -2.79297 11.1719 -2.41211 11.6895 -2.41211 Z"/>
  </g>
  <g id="" transform="matrix(1 0 0 1 304.924 1933)">
   <path d="M 14.9707 5.67383 C 21.9336 5.67383 27.6953 -0.078125 27.6953 -7.04102 C 27.6953 -14.0039 21.9238 -19.7559 14.9609 -19.7559 C 8.00781 -19.7559 2.25586 -14.0039 2.25586 -7.04102 C 2.25586 -0.078125 8.01758 5.67383 14.9707 5.67383 Z M 14.9707 3.85742 C 8.93555 3.85742 4.08203 -1.00586 4.08203 -7.04102 C 4.08203 -13.0762 8.92578 -17.9395 14.9609 -17.9395 C 21.0059 -17.9395 25.8594 -13.0762 25.8691 -7.04102 C 25.8789 -1.00586 21.0156 3.85742 14.9707 3.85742 Z M 14.9512 -1.06445 C 15.5176 -1.06445 15.8691 -1.45508 15.8691 -2.06055 L 15.8691 -6.13281 L 20.1074 -6.13281 C 20.6934 -6.13281 21.1133 -6.46484 21.1133 -7.02148 C 21.1133 -7.59766 20.7227 -7.93945 20.1074 -7.93945 L 15.8691 -7.93945 L 15.8691 -12.1875 C 15.8691 -12.8027 15.5176 -13.1934 14.9512 -13.1934 C 14.3848 -13.1934 14.0625 -12.7832 14.0625 -12.1875 L 14.0625 -7.93945 L 9.83398 -7.93945 C 9.21875 -7.93945 8.80859 -7.59766 8.80859 -7.02148 C 8.80859 -6.46484 9.23828 -6.13281 9.83398 -6.13281 L 14.0625 -6.13281 L 14.0625 -2.06055 C 14.0625 -1.47461 14.3848 -1.06445 14.9512 -1.06445 Z"/>
  </g>
  <text style="stroke:none;fill:black;font-family:-apple-system,&quot;SF Pro Display&quot;,&quot;SF Pro Text&quot;,Helvetica,sans-serif;font-weight:bold;" transform="matrix(1 0 0 1 263 1953)">Design Variations</text>
  <text style="stroke:none;fill:black;font-family:-apple-system,&quot;SF Pro Display&quot;,&quot;SF Pro Text&quot;,Helvetica,sans-serif;" transform="matrix(1 0 0 1 263 1971)">Symbols are supported in up to nine weights and three scales.</text>
  <text style="stroke:none;fill:black;font-family:-apple-system,&quot;SF Pro Display&quot;,&quot;SF Pro Text&quot;,Helvetica,sans-serif;" transform="matrix(1 0 0 1 263 1989)">For optimal layout with text and other symbols, vertically align</text>
  <text style="stroke:none;fill:black;font-family:-apple-system,&quot;SF Pro Display&quot;,&quot;SF Pro Text&quot;,Helvetica,sans-serif;" transform="matrix(1 0 0 1 263 2007)">symbols with the adjacent text.</text>
  <rect height="14" id="" style="fill:#00AEEF;stroke:none;opacity:0.4;" width="3" x="776" y="1919"/>
  <g id="" transform="matrix(1 0 0 1 779 1933)">
   <path d="M 10.5273 0 L 12.373 0 L 7.17773 -14.0918 L 5.43945 -14.0918 L 0.244141 0 L 2.08984 0 L 3.50586 -4.0332 L 9.11133 -4.0332 Z M 6.2793 -11.9531 L 6.33789 -11.9531 L 8.59375 -5.52734 L 4.02344 -5.52734 Z"/>
  </g>
  <rect height="14" id="" style="fill:#00AEEF;stroke:none;opacity:0.4;" width="3" x="791.617" y="1919"/>
  <text style="stroke:none;fill:black;font-family:-apple-system,&quot;SF Pro Display&quot;,&quot;SF Pro Text&quot;,Helvetica,sans-serif;font-weight:bold;" transform="matrix(1 0 0 1 776 1953)">Margins</text>
  <text style="stroke:none;fill:black;font-family:-apple-system,&quot;SF Pro Display&quot;,&quot;SF Pro Text&quot;,Helvetica,sans-serif;" transform="matrix(1 0 0 1 776 1971)">Leading and trailing margins on the left and right side of each symbol</text>
  <text style="stroke:none;fill:black;font-family:-apple-system,&quot;SF Pro Display&quot;,&quot;SF Pro Text&quot;,Helvetica,sans-serif;" transform="matrix(1 0 0 1 776 1989)">can be adjusted by modifying the width of the blue rectangles.</text>
  <text style="stroke:none;fill:black;font-family:-apple-system,&quot;SF Pro Display&quot;,&quot;SF Pro Text&quot;,Helvetica,sans-serif;" transform="matrix(1 0 0 1 776 2007)">Modifications are automatically applied proportionally to all</text>
  <text style="stroke:none;fill:black;font-family:-apple-system,&quot;SF Pro Display&quot;,&quot;SF Pro Text&quot;,Helvetica,sans-serif;" transform="matrix(1 0 0 1 776 2025)">scales and weights.</text>
  <g id="" transform="matrix(1 0 0 1 1289 1933)">
   <path d="M 2.83203 3.11523 L 4.375 4.6582 C 5.22461 5.48828 6.19141 5.41992 7.06055 4.46289 L 17.2754 -6.66016 C 17.7051 -6.36719 18.0957 -6.37695 18.5645 -6.47461 L 19.6094 -6.68945 L 20.3027 -5.99609 L 20.2539 -5.47852 C 20.1855 -4.95117 20.3516 -4.53125 20.8496 -4.0332 L 21.6602 -3.22266 C 22.168 -2.71484 22.8223 -2.68555 23.3008 -3.16406 L 26.5527 -6.41602 C 27.0312 -6.89453 27.0117 -7.54883 26.5039 -8.05664 L 25.6836 -8.87695 C 25.1855 -9.375 24.7754 -9.55078 24.2383 -9.47266 L 23.7109 -9.41406 L 23.0566 -10.0781 L 23.3398 -11.2207 C 23.4863 -11.7871 23.3398 -12.2559 22.7148 -12.8613 L 20.3027 -15.2539 C 16.7578 -18.7793 12.2266 -18.6719 9.11133 -15.5371 C 8.69141 -15.1074 8.64258 -14.5215 8.91602 -14.0918 C 9.15039 -13.7207 9.62891 -13.4961 10.2734 -13.6621 C 11.7871 -14.043 13.3008 -13.9258 14.7852 -12.9199 L 14.1602 -11.3379 C 13.9258 -10.752 13.9453 -10.2734 14.1797 -9.83398 L 3.01758 0.439453 C 2.08008 1.30859 1.97266 2.25586 2.83203 3.11523 Z M 10.6738 -15.1465 C 13.3398 -17.1387 16.6504 -16.8262 19.0527 -14.4141 L 21.6797 -11.8066 C 21.9141 -11.5723 21.9434 -11.3867 21.8848 -11.0938 L 21.5039 -9.53125 L 23.0762 -7.95898 L 24.043 -8.04688 C 24.3262 -8.07617 24.4141 -8.05664 24.6387 -7.83203 L 25.2637 -7.20703 L 22.5098 -4.46289 L 21.8848 -5.07812 C 21.6602 -5.30273 21.6406 -5.40039 21.6699 -5.68359 L 21.7578 -6.64062 L 20.1953 -8.20312 L 18.5742 -7.89062 C 18.291 -7.83203 18.1445 -7.83203 17.9102 -8.07617 L 15.7324 -10.2539 C 15.5078 -10.4883 15.4785 -10.625 15.6055 -10.9473 L 16.5527 -13.2227 C 14.9512 -14.7559 12.8418 -15.6055 10.8008 -14.9512 C 10.7129 -14.9219 10.6445 -14.9414 10.6152 -14.9805 C 10.5859 -15.0293 10.5859 -15.0781 10.6738 -15.1465 Z M 4.10156 2.41211 C 3.61328 1.91406 3.78906 1.61133 4.12109 1.30859 L 15.0781 -8.80859 L 16.3086 -7.57812 L 6.15234 3.34961 C 5.84961 3.68164 5.46875 3.7793 5.06836 3.37891 Z"/>
  </g>
  <text style="stroke:none;fill:black;font-family:-apple-system,&quot;SF Pro Display&quot;,&quot;SF Pro Text&quot;,Helvetica,sans-serif;font-weight:bold;" transform="matrix(1 0 0 1 1289 1953)">Exporting</text>
  <text style="stroke:none;fill:black;font-family:-apple-system,&quot;SF Pro Display&quot;,&quot;SF Pro Text&quot;,Helvetica,sans-serif;" transform="matrix(1 0 0 1 1289 1971)">Symbols should be outlined when exporting to ensure the</text>
  <text style="stroke:none;fill:black;font-family:-apple-system,&quot;SF Pro Display&quot;,&quot;SF Pro Text&quot;,Helvetica,sans-serif;" transform="matrix(1 0 0 1 1289 1989)">design is preserved when submitting to Xcode.</text>
  <text id="template-version" style="stroke:none;fill:black;font-family:-apple-system,&quot;SF Pro Display&quot;,&quot;SF Pro Text&quot;,Helvetica,sans-serif;text-anchor:end;" transform="matrix(1 0 0 1 3036 1933)">Template v.1.0</text>
  <text style="stroke:none;fill:black;font-family:-apple-system,&quot;SF Pro Display&quot;,&quot;SF Pro Text&quot;,Helvetica,sans-serif;text-anchor:end;" transform="matrix(1 0 0 1 3036 1951)">Generated from 16.circle.fill</text>
  <text style="stroke:none;fill:black;font-family:-apple-system,&quot;SF Pro Display&quot;,&quot;SF Pro Text&quot;,Helvetica,sans-serif;text-anchor:end;" transform="matrix(1 0 0 1 3036 1969)">Typeset at 100 points</text>
  <text style="stroke:none;fill:black;font-family:-apple-system,&quot;SF Pro Display&quot;,&quot;SF Pro Text&quot;,Helvetica,sans-serif;" transform="matrix(1 0 0 1 263 726)">Small</text>
  <text style="stroke:none;fill:black;font-family:-apple-system,&quot;SF Pro Display&quot;,&quot;SF Pro Text&quot;,Helvetica,sans-serif;" transform="matrix(1 0 0 1 263 1156)">Medium</text>
  <text style="stroke:none;fill:black;font-family:-apple-system,&quot;SF Pro Display&quot;,&quot;SF Pro Text&quot;,Helvetica,sans-serif;" transform="matrix(1 0 0 1 263 1586)">Large</text>
 </g>
 <g id="Guides">
  <g id="H-reference" style="fill:#27AAE1;stroke:none;" transform="matrix(1 0 0 1 339 696)">
   <path d="M 54.9316 0 L 57.666 0 L 30.5664 -70.459 L 28.0762 -70.459 L 0.976562 0 L 3.66211 0 L 12.9395 -24.4629 L 45.7031 -24.4629 Z M 29.1992 -67.0898 L 29.4434 -67.0898 L 44.8242 -26.709 L 13.8184 -26.709 Z"/>
  </g>
  <line id="Baseline-S" style="fill:none;stroke:#27AAE1;opacity:1;stroke-width:0.577;" x1="263" x2="3036" y1="696" y2="696"/>
  <line id="Capline-S" style="fill:none;stroke:#27AAE1;opacity:1;stroke-width:0.577;" x1="263" x2="3036" y1="625.541" y2="625.541"/>
  <g id="H-reference" style="fill:#27AAE1;stroke:none;" transform="matrix(1 0 0 1 339 1126)">
   <path d="M 54.9316 0 L 57.666 0 L 30.5664 -70.459 L 28.0762 -70.459 L 0.976562 0 L 3.66211 0 L 12.9395 -24.4629 L 45.7031 -24.4629 Z M 29.1992 -67.0898 L 29.4434 -67.0898 L 44.8242 -26.709 L 13.8184 -26.709 Z"/>
  </g>
  <line id="Baseline-M" style="fill:none;stroke:#27AAE1;opacity:1;stroke-width:0.577;" x1="263" x2="3036" y1="1126" y2="1126"/>
  <line id="Capline-M" style="fill:none;stroke:#27AAE1;opacity:1;stroke-width:0.577;" x1="263" x2="3036" y1="1055.54" y2="1055.54"/>
  <g id="H-reference" style="fill:#27AAE1;stroke:none;" transform="matrix(1 0 0 1 339 1556)">
   <path d="M 54.9316 0 L 57.666 0 L 30.5664 -70.459 L 28.0762 -70.459 L 0.976562 0 L 3.66211 0 L 12.9395 -24.4629 L 45.7031 -24.4629 Z M 29.1992 -67.0898 L 29.4434 -67.0898 L 44.8242 -26.709 L 13.8184 -26.709 Z"/>
  </g>
  <line id="Baseline-L" style="fill:none;stroke:#27AAE1;opacity:1;stroke-width:0.577;" x1="263" x2="3036" y1="1556" y2="1556"/>
  <line id="Capline-L" style="fill:none;stroke:#27AAE1;opacity:1;stroke-width:0.577;" x1="263" x2="3036" y1="1485.54" y2="1485.54"/>
  <rect height="119.336" id="left-margin" style="fill:#00AEEF;stroke:none;opacity:0.4;" width="8.74023" x="1391.3" y="1030.79"/>
  <rect height="119.336" id="right-margin" style="fill:#00AEEF;stroke:none;opacity:0.4;" width="8.74023" x="1499.65" y="1030.79"/>
 </g>
 <g id="Symbols">
  <g id="Black-L" transform="matrix(1 0 0 1 2854.05 1556)">
   <path d="M 79.3457 32.8613 C 116.748 32.8613 147.412 2.19727 147.412 -35.2051 C 147.412 -72.6074 116.748 -103.271 79.2969 -103.271 C 41.8945 -103.271 11.2793 -72.6074 11.2793 -35.2051 C 11.2793 2.19727 41.9434 32.8613 79.3457 32.8613 Z M 96.1426 -9.42383 C 89.4531 -9.42383 83.8379 -12.3535 80.7617 -18.8965 C 78.8574 -23.1445 77.832 -28.6133 77.832 -34.9121 C 77.832 -52.0508 86.1328 -61.084 97.2168 -61.084 C 103.906 -61.084 108.447 -58.0566 110.205 -54.4434 C 110.889 -53.125 111.182 -52.002 111.182 -50.5371 C 111.182 -47.6074 108.74 -45.8008 106.299 -45.8008 C 104.053 -45.8008 102.783 -46.6309 101.709 -47.9004 C 100.488 -49.1699 99.1699 -50.3906 96.875 -50.3906 C 92.7246 -50.3906 89.4531 -45.9473 89.4531 -39.4043 C 89.4531 -38.2324 89.502 -37.5488 89.5508 -36.8652 L 89.9902 -36.8652 C 91.4062 -40.0391 94.4336 -42.8223 99.6582 -42.8223 C 106.494 -42.8223 112.842 -37.3047 112.842 -27.6367 C 112.842 -16.5039 106.104 -9.42383 96.1426 -9.42383 Z M 63.2812 -9.66797 C 59.1797 -9.66797 57.1777 -12.1094 57.1777 -16.8457 L 57.1777 -45.8496 L 56.8359 -45.8496 L 53.8574 -42.9199 C 52.2461 -41.1133 51.0742 -40.3809 48.9746 -40.3809 C 46.2891 -40.3809 43.9941 -42.7246 43.9941 -45.5566 C 43.9941 -47.998 45.0195 -49.707 47.3633 -51.8066 L 53.6621 -57.3242 C 56.8848 -60.2051 59.082 -60.9863 61.6699 -60.9863 C 66.7969 -60.9863 69.4336 -57.959 69.4336 -52.832 L 69.4336 -16.8457 C 69.4336 -12.1094 67.2852 -9.66797 63.2812 -9.66797 Z M 95.5566 -19.7754 C 98.7305 -19.7754 101.025 -22.4609 101.025 -26.4648 C 101.025 -30.3711 98.7305 -33.0566 95.5566 -33.0566 C 92.2852 -33.0566 89.8926 -30.3711 89.8926 -26.5137 C 89.8926 -22.4609 92.2852 -19.7754 95.5566 -19.7754 Z"/>
  </g>
  <g id="Heavy-L" transform="matrix(1 0 0 1 2558.39 1556)">
   <path d="M 78.2715 31.7871 C 115.088 31.7871 145.312 1.61133 145.312 -35.2051 C 145.312 -72.0215 115.039 -102.197 78.2715 -102.197 C 41.4551 -102.197 11.2793 -72.0215 11.2793 -35.2051 C 11.2793 1.61133 41.5039 31.7871 78.2715 31.7871 Z M 95.0195 -8.83789 C 88.2324 -8.83789 82.6172 -11.7188 79.541 -18.2129 C 77.5879 -22.4609 76.4648 -27.9785 76.4648 -34.6191 C 76.4648 -52.3926 84.6191 -61.6699 96.1426 -61.6699 C 103.027 -61.6699 107.812 -58.3496 109.473 -54.541 C 110.107 -53.3691 110.352 -52.3926 110.352 -51.0742 C 110.352 -48.3887 108.154 -46.7285 105.908 -46.7285 C 103.809 -46.7285 102.637 -47.5098 101.611 -48.8281 C 100.244 -50.5371 98.5352 -51.9043 95.752 -51.9043 C 90.6738 -51.9043 86.9629 -46.582 86.9629 -38.4277 C 86.9629 -37.5 87.0117 -36.9141 87.0605 -36.3281 L 87.5 -36.3281 C 89.0137 -39.8438 92.4316 -42.9199 98.0957 -42.9199 C 105.469 -42.9199 112.109 -37.207 112.109 -27.2461 C 112.109 -15.918 105.127 -8.83789 95.0195 -8.83789 Z M 61.377 -9.17969 C 57.7148 -9.17969 55.8105 -11.377 55.8105 -15.5273 L 55.8105 -47.7539 L 55.4688 -47.7539 L 51.2695 -44.1406 C 49.7559 -42.5293 48.7305 -41.9922 46.9238 -41.9922 C 44.4824 -41.9922 42.334 -44.1406 42.334 -46.7773 C 42.334 -48.9746 43.2617 -50.4883 45.3125 -52.3438 L 52.7344 -58.252 C 55.6641 -60.791 57.5684 -61.4746 60.0098 -61.4746 C 64.4531 -61.4746 66.8945 -58.7891 66.8945 -54.2969 L 66.8945 -15.5273 C 66.8945 -11.377 64.9414 -9.17969 61.377 -9.17969 Z M 94.4824 -18.2617 C 98.584 -18.2617 101.318 -21.4355 101.318 -26.2207 C 101.318 -30.8594 98.4863 -34.0332 94.5312 -34.0332 C 90.3809 -34.0332 87.5 -30.8594 87.5 -26.2695 C 87.5 -21.5332 90.4297 -18.2617 94.4824 -18.2617 Z"/>
  </g>
  <g id="Bold-L" transform="matrix(1 0 0 1 2262.88 1556)">
   <path d="M 77.0996 30.6152 C 113.232 30.6152 142.92 0.878906 142.92 -35.2051 C 142.92 -71.3379 113.184 -101.025 77.0508 -101.025 C 40.9668 -101.025 11.2793 -71.3379 11.2793 -35.2051 C 11.2793 0.878906 41.0156 30.6152 77.0996 30.6152 Z M 93.75 -8.20312 C 86.9141 -8.20312 81.3477 -10.9863 78.1738 -17.3828 C 76.123 -21.6309 74.9512 -27.2949 74.9512 -34.3262 C 74.9512 -52.7344 83.0078 -62.3047 94.873 -62.3047 C 102.1 -62.3047 107.031 -58.6914 108.691 -54.6875 C 109.18 -53.7109 109.375 -52.7832 109.375 -51.6602 C 109.375 -49.2676 107.568 -47.7539 105.518 -47.7539 C 103.613 -47.7539 102.49 -48.5352 101.514 -49.8535 C 100 -52.002 97.8027 -53.6133 94.5801 -53.6133 C 88.4277 -53.6133 84.1797 -47.2656 84.1797 -37.3047 C 84.1797 -36.6211 84.2285 -36.1816 84.2285 -35.6934 L 84.668 -35.6934 C 86.2793 -39.6973 90.2344 -43.0176 96.3867 -43.0176 C 104.248 -43.0176 111.279 -37.0605 111.279 -26.7578 C 111.279 -15.2344 104.102 -8.20312 93.75 -8.20312 Z M 59.1797 -8.69141 C 56.0547 -8.69141 54.2969 -10.5957 54.2969 -14.1113 L 54.2969 -49.9023 L 53.9551 -49.9023 L 48.3887 -45.5078 C 46.9238 -44.1406 46.1426 -43.75 44.6289 -43.75 C 42.4316 -43.75 40.4297 -45.7031 40.4297 -48.0957 C 40.4297 -50.0488 41.3086 -51.416 43.1152 -52.8809 L 51.6602 -59.2773 C 54.248 -61.377 55.9082 -62.0605 58.1543 -62.0605 C 61.8652 -62.0605 64.0137 -59.7168 64.0137 -55.9082 L 64.0137 -14.1113 C 64.0137 -10.5957 62.2559 -8.69141 59.1797 -8.69141 Z M 93.3105 -16.6016 C 98.3398 -16.6016 101.709 -20.2637 101.709 -25.9766 C 101.709 -31.4453 98.291 -35.1562 93.3594 -35.1562 C 88.3301 -35.1562 84.8145 -31.3965 84.8145 -26.0254 C 84.8145 -20.459 88.3301 -16.6016 93.3105 -16.6016 Z"/>
  </g>
  <g id="Semibold-L" transform="matrix(1 0 0 1 1966.97 1556)">
   <path d="M 76.2695 29.7852 C 111.914 29.7852 141.309 0.439453 141.309 -35.2051 C 141.309 -70.8496 111.865 -100.244 76.2695 -100.244 C 40.625 -100.244 11.2793 -70.8496 11.2793 -35.2051 C 11.2793 0.439453 40.6738 29.7852 76.2695 29.7852 Z M 92.8711 -7.76367 C 85.9375 -7.76367 80.4199 -10.498 77.1973 -16.8457 C 75.0977 -21.0938 73.9258 -26.8066 73.9258 -34.082 C 73.9258 -52.9785 81.8359 -62.7441 94.043 -62.7441 C 101.416 -62.7441 106.494 -58.8867 108.154 -54.7852 C 108.545 -53.9062 108.74 -53.0762 108.74 -52.0996 C 108.74 -49.8535 107.129 -48.4375 105.225 -48.4375 C 103.418 -48.4375 102.393 -49.2188 101.465 -50.5859 C 99.8535 -53.0273 97.3145 -54.7852 93.7012 -54.7852 C 86.9141 -54.7852 82.2754 -47.7539 82.2754 -36.5723 C 82.2754 -36.0352 82.2754 -35.6934 82.3242 -35.3027 L 82.7148 -35.3027 C 84.4238 -39.5508 88.7207 -43.1152 95.166 -43.1152 C 103.467 -43.1152 110.693 -37.0117 110.693 -26.416 C 110.693 -14.7949 103.369 -7.76367 92.8711 -7.76367 Z M 57.666 -8.30078 C 54.8828 -8.30078 53.2715 -10.0586 53.2715 -13.0859 L 53.2715 -51.3672 L 52.8809 -51.3672 L 46.3867 -46.4844 C 45.0195 -45.2637 44.3359 -44.9707 43.0176 -44.9707 C 41.0156 -44.9707 39.1602 -46.7773 39.1602 -49.0234 C 39.1602 -50.7812 39.9902 -52.002 41.5527 -53.2715 L 50.8789 -59.9609 C 53.2715 -61.8164 54.7363 -62.4512 56.8359 -62.4512 C 60.1074 -62.4512 62.0605 -60.3516 62.0605 -57.0312 L 62.0605 -13.0859 C 62.0605 -10.0586 60.4492 -8.30078 57.666 -8.30078 Z M 92.5293 -15.4297 C 98.1934 -15.4297 101.953 -19.4824 101.953 -25.7812 C 101.953 -31.8359 98.0957 -35.8887 92.5293 -35.8887 C 86.9141 -35.8887 82.959 -31.7383 82.959 -25.8301 C 82.959 -19.7266 86.8652 -15.4297 92.5293 -15.4297 Z"/>
  </g>
  <g id="Medium-L" transform="matrix(1 0 0 1 1670.87 1556)">
   <path d="M 75.6836 29.1992 C 110.938 29.1992 140.088 0.0488281 140.088 -35.2051 C 140.088 -70.459 110.889 -99.6094 75.6348 -99.6094 C 40.3809 -99.6094 11.2793 -70.459 11.2793 -35.2051 C 11.2793 0.0488281 40.3809 29.1992 75.6836 29.1992 Z M 92.1875 -7.42188 C 85.2539 -7.42188 79.7363 -10.1562 76.4648 -16.4551 C 74.3164 -20.7031 73.1445 -26.4648 73.1445 -33.9355 C 73.1445 -53.1738 81.0059 -63.0859 93.4082 -63.0859 C 100.928 -63.0859 106.104 -59.082 107.764 -54.8828 C 108.105 -54.0527 108.252 -53.2715 108.252 -52.3926 C 108.252 -50.3418 106.787 -48.9258 104.98 -48.9258 C 103.32 -48.9258 102.344 -49.707 101.367 -51.123 C 99.707 -53.8086 96.9238 -55.6641 93.0664 -55.6641 C 85.6934 -55.6641 80.8105 -48.0957 80.8105 -35.9863 C 80.8105 -35.5957 80.8105 -35.3516 80.8594 -35.0098 L 81.25 -35.0098 C 83.0078 -39.4531 87.5488 -43.1641 94.2871 -43.1641 C 102.832 -43.1641 110.254 -36.9141 110.254 -26.1719 C 110.254 -14.4531 102.832 -7.42188 92.1875 -7.42188 Z M 56.543 -8.00781 C 54.0039 -8.00781 52.4902 -9.66797 52.4902 -12.3535 L 52.4902 -52.4902 L 52.0996 -52.4902 L 44.873 -47.2168 C 43.5547 -46.0938 42.9199 -45.8984 41.7969 -45.8984 C 39.9414 -45.8984 38.1836 -47.6074 38.1836 -49.707 C 38.1836 -51.3184 38.9648 -52.4902 40.3809 -53.5645 L 50.3418 -60.5469 C 52.5879 -62.1582 53.8574 -62.7441 55.8594 -62.7441 C 58.7402 -62.7441 60.5957 -60.8398 60.5957 -57.9102 L 60.5957 -12.3535 C 60.5957 -9.66797 59.0332 -8.00781 56.543 -8.00781 Z M 91.8945 -14.5508 C 98.0957 -14.5508 102.148 -18.8477 102.148 -25.6348 C 102.148 -32.0801 97.998 -36.4746 91.9434 -36.4746 C 85.791 -36.4746 81.543 -32.0312 81.543 -25.6836 C 81.543 -19.1406 85.791 -14.5508 91.8945 -14.5508 Z"/>
  </g>
  <g id="Regular-L" transform="matrix(1 0 0 1 1374.97 1556)">
   <path d="M 74.8535 28.3691 C 109.668 28.3691 138.477 -0.390625 138.477 -35.2051 C 138.477 -70.0195 109.619 -98.7793 74.8047 -98.7793 C 40.0391 -98.7793 11.2793 -70.0195 11.2793 -35.2051 C 11.2793 -0.390625 40.0879 28.3691 74.8535 28.3691 Z M 91.3574 -6.93359 C 84.3262 -6.93359 78.8574 -9.66797 75.5371 -15.918 C 73.3398 -20.166 72.1191 -25.9766 72.1191 -33.6914 C 72.1191 -53.418 79.8828 -63.5254 92.5293 -63.5254 C 100.293 -63.5254 105.615 -59.2773 107.227 -54.9805 C 107.471 -54.2969 107.617 -53.5645 107.617 -52.832 C 107.617 -50.9277 106.396 -49.6582 104.736 -49.6582 C 103.174 -49.6582 102.246 -50.3906 101.318 -51.8066 C 99.5605 -54.7852 96.3867 -56.8359 92.2363 -56.8359 C 84.1797 -56.8359 78.9062 -48.584 78.9062 -35.2051 L 78.9062 -34.5703 L 79.2969 -34.5703 C 81.1523 -39.3066 86.0352 -43.2617 93.0664 -43.2617 C 102.051 -43.2617 109.668 -36.8652 109.668 -25.8301 C 109.668 -14.0137 102.1 -6.93359 91.3574 -6.93359 Z M 55.0293 -7.66602 C 52.8809 -7.66602 51.4648 -9.13086 51.4648 -11.377 L 51.4648 -53.9551 L 51.0742 -53.9551 L 42.9199 -48.1445 C 41.6504 -47.168 41.1621 -47.1191 40.2344 -47.1191 C 38.5254 -47.1191 36.9141 -48.6328 36.9141 -50.6348 C 36.9141 -52.0996 37.5977 -53.125 38.8184 -53.9551 L 49.6094 -61.2305 C 51.6113 -62.5977 52.7344 -63.1348 54.5898 -63.1348 C 56.9824 -63.1348 58.6426 -61.4258 58.6426 -58.9844 L 58.6426 -11.377 C 58.6426 -9.13086 57.2266 -7.66602 55.0293 -7.66602 Z M 91.1133 -13.3789 C 97.9492 -13.3789 102.393 -18.0664 102.393 -25.4395 C 102.393 -32.4707 97.8516 -37.207 91.1133 -37.207 C 84.375 -37.207 79.7363 -32.373 79.7363 -25.5371 C 79.7363 -18.4082 84.375 -13.3789 91.1133 -13.3789 Z"/>
  </g>
  <g id="Light-L" transform="matrix(1 0 0 1 1079.18 1556)">
   <path d="M 73.9258 27.4902 C 108.301 27.4902 136.621 -0.830078 136.621 -35.1562 C 136.621 -69.5312 108.252 -97.8516 73.9258 -97.8516 C 39.5508 -97.8516 11.2793 -69.5312 11.2793 -35.1562 C 11.2793 -0.830078 39.5996 27.4902 73.9258 27.4902 Z M 90.4297 -7.27539 C 83.0566 -7.27539 77.7832 -10.3027 74.6582 -16.3574 C 72.5098 -20.6543 71.3867 -26.3672 71.3867 -33.6426 C 71.3867 -52.832 79.0039 -63.2324 91.5527 -63.2324 C 99.6094 -63.2324 104.98 -58.4473 106.445 -54.3945 C 106.641 -53.9062 106.738 -53.2715 106.738 -52.6855 C 106.738 -51.2207 105.811 -50.0977 104.346 -50.0977 C 103.076 -50.0977 102.344 -50.7812 101.611 -51.9043 C 99.707 -55.4688 95.9961 -57.7637 91.4062 -57.7637 C 82.4707 -57.7637 76.8555 -48.9746 76.8555 -34.4238 L 76.8555 -33.7891 L 77.1484 -33.7891 C 79.248 -39.0137 84.8145 -42.9688 91.8457 -42.9688 C 101.221 -42.9688 108.691 -36.2793 108.691 -25.7324 C 108.691 -14.4043 101.221 -7.27539 90.4297 -7.27539 Z M 53.9551 -7.86133 C 52.2461 -7.86133 51.0742 -9.0332 51.0742 -10.8398 L 51.0742 -55.4199 L 50.7324 -55.4199 L 41.0645 -48.877 C 40.1855 -48.1934 39.7949 -48.1934 39.1113 -48.1934 C 37.6465 -48.1934 36.377 -49.4141 36.377 -50.9766 C 36.377 -52.0996 36.9141 -52.8809 37.9395 -53.5645 L 49.6582 -61.4258 C 51.2207 -62.4023 52.0996 -62.793 53.5645 -62.793 C 55.4688 -62.793 56.8359 -61.5234 56.8359 -59.5215 L 56.8359 -10.8398 C 56.8359 -9.0332 55.7129 -7.86133 53.9551 -7.86133 Z M 90.3809 -12.5977 C 97.9004 -12.5977 102.881 -17.5781 102.881 -25.3906 C 102.881 -32.9102 97.8027 -37.9395 90.4297 -37.9395 C 83.0078 -37.9395 77.7832 -32.7637 77.7832 -25.4883 C 77.7832 -17.9199 82.9102 -12.5977 90.3809 -12.5977 Z"/>
  </g>
  <g id="Thin-L" transform="matrix(1 0 0 1 783.693 1556)">
   <path d="M 72.7051 26.3184 C 106.494 26.3184 134.18 -1.36719 134.18 -35.1074 C 134.18 -68.8965 106.494 -96.582 72.7051 -96.582 C 38.9648 -96.582 11.2793 -68.8965 11.2793 -35.1074 C 11.2793 -1.36719 38.9648 26.3184 72.7051 26.3184 Z M 89.2578 -7.71484 C 81.3477 -7.71484 76.3672 -11.084 73.4863 -16.9434 C 71.3867 -21.2891 70.459 -26.9043 70.459 -33.5449 C 70.459 -52.0508 77.832 -62.793 90.2832 -62.793 C 98.6816 -62.793 104.15 -57.373 105.42 -53.6621 C 105.518 -53.3691 105.615 -52.8809 105.615 -52.5391 C 105.615 -51.5625 105.029 -50.7324 103.809 -50.7324 C 102.979 -50.7324 102.441 -51.3184 102.051 -52.0508 C 99.9023 -56.3477 95.459 -58.9844 90.2344 -58.9844 C 80.2246 -58.9844 74.1699 -49.4629 74.1699 -33.3984 L 74.1699 -32.7148 L 74.2676 -32.7148 C 76.7578 -38.5742 83.1543 -42.5293 90.1855 -42.5293 C 100.195 -42.5293 107.422 -35.498 107.422 -25.5859 C 107.422 -14.8926 100.098 -7.71484 89.2578 -7.71484 Z M 52.5391 -8.1543 C 51.416 -8.1543 50.5859 -8.93555 50.5859 -10.1074 L 50.5859 -57.4219 L 50.2441 -57.4219 L 38.623 -49.8047 C 38.1836 -49.5605 37.9883 -49.5605 37.5977 -49.5605 C 36.5234 -49.5605 35.7422 -50.3906 35.7422 -51.416 C 35.7422 -52.0996 35.9863 -52.6367 36.6699 -53.0762 L 49.7559 -61.6699 C 50.6836 -62.207 51.2207 -62.4023 52.1973 -62.4023 C 53.4668 -62.4023 54.4434 -61.6211 54.4434 -60.2539 L 54.4434 -10.1074 C 54.4434 -8.93555 53.7109 -8.1543 52.5391 -8.1543 Z M 89.4043 -11.5234 C 97.8516 -11.5234 103.516 -16.8945 103.516 -25.293 C 103.516 -33.4961 97.7539 -38.8672 89.4531 -38.8672 C 81.1523 -38.8672 75.1953 -33.3008 75.1953 -25.3906 C 75.1953 -17.2852 81.0059 -11.5234 89.4043 -11.5234 Z"/>
  </g>
  <g id="Ultralight-L" transform="matrix(1 0 0 1 487.616 1556)">
   <path d="M 72.1191 25.7324 C 105.566 25.7324 132.91 -1.61133 132.91 -35.1074 C 132.91 -68.5547 105.566 -95.8984 72.1191 -95.8984 C 38.623 -95.8984 11.2793 -68.5547 11.2793 -35.1074 C 11.2793 -1.61133 38.623 25.7324 72.1191 25.7324 Z M 88.6719 -7.95898 C 80.5176 -7.95898 75.6836 -11.5234 72.9004 -17.2363 C 70.8496 -21.582 70.0195 -27.1973 70.0195 -33.4961 C 70.0195 -51.6602 77.2461 -62.5977 89.5996 -62.5977 C 98.2422 -62.5977 103.711 -56.7871 104.883 -53.2715 C 104.932 -53.0762 105.029 -52.7344 105.029 -52.4414 C 105.029 -51.7578 104.59 -51.0254 103.564 -51.0254 C 102.93 -51.0254 102.49 -51.5625 102.246 -52.0996 C 100.049 -56.7871 95.166 -59.6191 89.6484 -59.6191 C 79.1016 -59.6191 72.7539 -49.707 72.7539 -32.8613 L 72.7539 -32.1777 L 72.8027 -32.1777 C 75.4883 -38.3789 82.2754 -42.334 89.3555 -42.334 C 99.6582 -42.334 106.738 -35.0586 106.738 -25.4883 C 106.738 -15.1367 99.5605 -7.95898 88.6719 -7.95898 Z M 51.7578 -8.30078 C 50.9766 -8.30078 50.293 -8.83789 50.293 -9.76562 L 50.293 -58.4473 L 50 -58.4473 L 37.3535 -50.293 C 37.1582 -50.2441 37.0605 -50.2441 36.8164 -50.2441 C 35.9375 -50.2441 35.4004 -50.8789 35.4004 -51.6113 C 35.4004 -52.0996 35.498 -52.4902 36.084 -52.832 L 49.8047 -61.7676 C 50.3906 -62.0605 50.7812 -62.207 51.4648 -62.207 C 52.4414 -62.207 53.2227 -61.6699 53.2227 -60.5957 L 53.2227 -9.76562 C 53.2227 -8.83789 52.6855 -8.30078 51.7578 -8.30078 Z M 88.8672 -10.9375 C 97.8027 -10.9375 103.857 -16.5039 103.857 -25.293 C 103.857 -33.7891 97.7051 -39.3555 88.9648 -39.3555 C 80.2246 -39.3555 73.8281 -33.5449 73.8281 -25.3418 C 73.8281 -16.9434 80.0293 -10.9375 88.8672 -10.9375 Z"/>
  </g>
  <g id="Black-M" transform="matrix(1 0 0 1 2870.97 1126)">
   <path d="M 62.4023 18.457 C 91.9922 18.457 116.113 -5.61523 116.113 -35.2051 C 116.113 -64.7949 91.9922 -88.8672 62.4023 -88.8672 C 32.8125 -88.8672 8.74023 -64.7949 8.74023 -35.2051 C 8.74023 -5.61523 32.8125 18.457 62.4023 18.457 Z M 51.123 -16.2109 C 47.5098 -16.2109 45.8984 -18.2129 45.8984 -22.4121 L 45.8984 -41.6504 L 45.7031 -41.6504 L 44.2383 -39.8926 C 43.0176 -38.3789 42.041 -37.6465 40.1367 -37.6465 C 37.8906 -37.6465 36.084 -39.5508 36.084 -41.7969 C 36.084 -43.7988 36.8652 -45.2637 38.916 -47.2168 L 42.9199 -51.1719 C 45.5566 -53.7598 47.4609 -54.3457 49.5117 -54.3457 C 54.0527 -54.3457 56.25 -51.7578 56.25 -47.2168 L 56.25 -22.4121 C 56.25 -18.2129 54.541 -16.2109 51.123 -16.2109 Z M 75.5859 -16.2109 C 70.2637 -16.2109 65.9668 -18.6523 63.8184 -23.7793 C 62.4512 -27.0508 61.7676 -31.1523 61.7676 -35.3516 C 61.7676 -47.5586 68.2617 -54.2969 76.3184 -54.2969 C 81.2988 -54.2969 84.6191 -52.0996 85.9375 -49.6094 C 86.5723 -48.4863 86.8164 -47.6074 86.8164 -46.2891 C 86.8164 -43.8965 84.668 -42.4805 82.666 -42.4805 C 80.8594 -42.4805 79.8828 -43.1152 79.1504 -43.8477 C 78.2715 -44.6289 77.5391 -45.4102 76.0742 -45.4102 C 73.6328 -45.4102 71.582 -42.8711 71.582 -39.4043 C 71.582 -38.1836 71.6309 -37.5 71.6797 -36.7676 L 71.9727 -36.7676 C 73.1445 -39.0137 75.1465 -40.7715 78.6621 -40.7715 C 83.5449 -40.7715 87.9395 -36.6699 87.9395 -29.8828 C 87.9395 -21.6797 83.0566 -16.2109 75.5859 -16.2109 Z M 75.0977 -24.8535 C 76.7578 -24.8535 78.0762 -26.416 78.0762 -28.7598 C 78.0762 -31.0547 76.7578 -32.6172 75.0977 -32.6172 C 73.2422 -32.6172 71.875 -31.0547 71.875 -28.7598 C 71.875 -26.3672 73.2422 -24.8535 75.0977 -24.8535 Z"/>
  </g>
  <g id="Heavy-M" transform="matrix(1 0 0 1 2575.19 1126)">
   <path d="M 61.5234 17.5781 C 90.5273 17.5781 114.258 -6.15234 114.258 -35.2051 C 114.258 -64.2578 90.5273 -87.9883 61.4746 -87.9883 C 32.4707 -87.9883 8.74023 -64.2578 8.74023 -35.2051 C 8.74023 -6.15234 32.4707 17.5781 61.5234 17.5781 Z M 74.5605 -15.4785 C 69.2871 -15.4785 64.9414 -17.8223 62.6953 -22.9004 C 61.2305 -26.1719 60.498 -30.3711 60.498 -35.0586 C 60.498 -48.0469 66.8945 -55.0293 75.3418 -55.0293 C 80.5176 -55.0293 84.082 -52.6367 85.3516 -49.9023 C 85.9375 -48.877 86.1328 -48.0957 86.1328 -46.9238 C 86.1328 -44.6777 84.2285 -43.3594 82.373 -43.3594 C 80.6641 -43.3594 79.6875 -43.9453 78.9551 -44.8242 C 77.9785 -45.8984 76.9043 -46.8262 75.0977 -46.8262 C 71.875 -46.8262 69.3848 -43.457 69.3848 -38.5254 C 69.3848 -37.5488 69.4336 -36.9629 69.4824 -36.4258 L 69.8242 -36.4258 C 70.9473 -38.916 73.3398 -40.9668 77.2949 -40.9668 C 82.6172 -40.9668 87.3535 -36.7188 87.3535 -29.4434 C 87.3535 -20.9473 82.2266 -15.4785 74.5605 -15.4785 Z M 49.2676 -15.625 C 46.0449 -15.625 44.5312 -17.4316 44.5312 -21.1426 L 44.5312 -43.3594 L 44.2871 -43.3594 L 41.8945 -41.0645 C 40.7227 -39.6973 39.8438 -39.1113 38.1836 -39.1113 C 36.084 -39.1113 34.375 -40.918 34.375 -43.0176 C 34.375 -44.873 35.1562 -46.1914 36.9629 -47.8516 L 41.8457 -52.1484 C 44.2871 -54.3945 45.9961 -54.9805 47.9492 -54.9805 C 51.9043 -54.9805 53.9551 -52.6367 53.9551 -48.6816 L 53.9551 -21.1426 C 53.9551 -17.4316 52.3438 -15.625 49.2676 -15.625 Z M 74.1211 -23.4375 C 76.5625 -23.4375 78.3203 -25.4395 78.3203 -28.4668 C 78.3203 -31.4941 76.5625 -33.4961 74.1211 -33.4961 C 71.582 -33.4961 69.7754 -31.4453 69.7754 -28.5156 C 69.7754 -25.4395 71.582 -23.4375 74.1211 -23.4375 Z"/>
  </g>
  <g id="Bold-M" transform="matrix(1 0 0 1 2279.5 1126)">
   <path d="M 60.498 16.5039 C 88.8672 16.5039 112.207 -6.78711 112.207 -35.2051 C 112.207 -63.623 88.8672 -86.9629 60.4492 -86.9629 C 32.0312 -86.9629 8.74023 -63.623 8.74023 -35.2051 C 8.74023 -6.78711 32.0801 16.5039 60.498 16.5039 Z M 73.4375 -14.6484 C 68.1641 -14.6484 63.8184 -16.8457 61.4258 -21.875 C 59.8633 -25.1953 59.0332 -29.4922 59.0332 -34.7168 C 59.0332 -48.584 65.332 -55.8105 74.3164 -55.8105 C 79.6875 -55.8105 83.3984 -53.2227 84.7168 -50.2441 C 85.1562 -49.3652 85.3516 -48.584 85.3516 -47.6074 C 85.3516 -45.5566 83.7402 -44.2871 82.0312 -44.2871 C 80.4199 -44.2871 79.541 -44.9219 78.7109 -45.9473 C 77.6367 -47.3145 76.2207 -48.4375 74.0234 -48.4375 C 69.9219 -48.4375 66.9434 -44.1406 66.9434 -37.5488 C 66.9434 -36.8164 66.9922 -36.4258 66.9922 -35.9863 L 67.334 -35.9863 C 68.5547 -38.8184 71.2891 -41.2109 75.7324 -41.2109 C 81.543 -41.2109 86.7676 -36.7676 86.7676 -28.9551 C 86.7676 -20.1172 81.2988 -14.6484 73.4375 -14.6484 Z M 47.168 -14.9414 C 44.4336 -14.9414 43.0176 -16.6504 43.0176 -19.7266 L 43.0176 -45.2637 L 42.7246 -45.2637 L 39.2578 -42.3828 C 38.0859 -41.1621 37.3535 -40.7227 35.9863 -40.7227 C 34.1309 -40.7227 32.4707 -42.3828 32.4707 -44.3848 C 32.4707 -46.0449 33.2031 -47.2168 34.7656 -48.584 L 40.6738 -53.2227 C 42.9199 -55.127 44.3359 -55.6641 46.1914 -55.6641 C 49.5605 -55.6641 51.3672 -53.6133 51.3672 -50.293 L 51.3672 -19.7266 C 51.3672 -16.6504 49.9023 -14.9414 47.168 -14.9414 Z M 73.0469 -21.8262 C 76.3672 -21.8262 78.5645 -24.3164 78.5645 -28.2227 C 78.5645 -31.9336 76.3184 -34.4727 73.0469 -34.4727 C 69.7266 -34.4727 67.3828 -31.9336 67.3828 -28.2227 C 67.3828 -24.4141 69.7266 -21.8262 73.0469 -21.8262 Z"/>
  </g>
  <g id="Semibold-M" transform="matrix(1 0 0 1 1983.5 1126)">
   <path d="M 59.7656 15.8203 C 87.7441 15.8203 110.791 -7.22656 110.791 -35.2051 C 110.791 -63.1836 87.6953 -86.2793 59.7656 -86.2793 C 31.7871 -86.2793 8.74023 -63.1836 8.74023 -35.2051 C 8.74023 -7.22656 31.7871 15.8203 59.7656 15.8203 Z M 72.6562 -14.1113 C 67.4316 -14.1113 63.0371 -16.2109 60.5469 -21.1914 C 58.9355 -24.4629 58.0078 -28.9062 58.0078 -34.4727 C 58.0078 -48.9746 64.2578 -56.3965 73.584 -56.3965 C 79.1016 -56.3965 82.959 -53.6133 84.2773 -50.4883 C 84.668 -49.6582 84.8145 -48.9746 84.8145 -48.0957 C 84.8145 -46.1914 83.3984 -44.9707 81.7871 -44.9707 C 80.2734 -44.9707 79.3945 -45.6055 78.5645 -46.6797 C 77.4414 -48.291 75.7812 -49.5117 73.291 -49.5117 C 68.5547 -49.5117 65.2832 -44.5801 65.2832 -36.8652 C 65.2832 -36.377 65.2832 -36.0352 65.332 -35.6934 L 65.625 -35.6934 C 66.8457 -38.7207 69.873 -41.3574 74.707 -41.3574 C 80.8105 -41.3574 86.3281 -36.7676 86.3281 -28.6133 C 86.3281 -19.5801 80.7129 -14.1113 72.6562 -14.1113 Z M 45.752 -14.502 C 43.3105 -14.502 41.9434 -16.0645 41.9434 -18.75 L 41.9434 -46.582 L 41.6504 -46.582 L 37.4512 -43.2617 C 36.2793 -42.1387 35.6445 -41.8945 34.4727 -41.8945 C 32.7637 -41.8945 31.1523 -43.4082 31.1523 -45.3125 C 31.1523 -46.875 31.8848 -47.9492 33.252 -49.0723 L 39.8438 -53.9551 C 41.9434 -55.6641 43.2129 -56.1523 44.9707 -56.1523 C 47.9004 -56.1523 49.6094 -54.2969 49.6094 -51.416 L 49.6094 -18.75 C 49.6094 -16.0645 48.1934 -14.502 45.752 -14.502 Z M 72.3145 -20.7031 C 76.2207 -20.7031 78.7598 -23.584 78.7598 -28.0273 C 78.7598 -32.2754 76.123 -35.1562 72.3145 -35.1562 C 68.457 -35.1562 65.7715 -32.2266 65.7715 -28.0762 C 65.7715 -23.7305 68.457 -20.7031 72.3145 -20.7031 Z"/>
  </g>
  <g id="Medium-M" transform="matrix(1 0 0 1 1687.3 1126)">
   <path d="M 59.2285 15.2832 C 86.9141 15.2832 109.766 -7.56836 109.766 -35.2051 C 109.766 -62.8906 86.8652 -85.7422 59.1797 -85.7422 C 31.543 -85.7422 8.74023 -62.8906 8.74023 -35.2051 C 8.74023 -7.56836 31.5918 15.2832 59.2285 15.2832 Z M 72.0703 -13.6719 C 66.8457 -13.6719 62.4512 -15.7227 59.8633 -20.7031 C 58.252 -23.9746 57.2754 -28.418 57.2754 -34.3262 C 57.2754 -49.2676 63.4277 -56.7871 72.998 -56.7871 C 78.6621 -56.7871 82.6172 -53.9551 83.9355 -50.6348 C 84.2773 -49.9023 84.4238 -49.2188 84.4238 -48.4863 C 84.4238 -46.6309 83.1055 -45.459 81.5918 -45.459 C 80.127 -45.459 79.2969 -46.0938 78.4668 -47.2656 C 77.2461 -49.0234 75.3906 -50.3906 72.7051 -50.3906 C 67.5293 -50.3906 64.0137 -44.9219 64.0137 -36.3281 C 64.0137 -35.9863 64.0137 -35.7422 64.0137 -35.4492 L 64.3555 -35.4492 C 65.625 -38.6719 68.7988 -41.5039 73.877 -41.5039 C 80.2246 -41.5039 85.9863 -36.8164 85.9863 -28.3691 C 85.9863 -19.1406 80.2246 -13.6719 72.0703 -13.6719 Z M 44.6777 -14.1602 C 42.4805 -14.1602 41.1621 -15.625 41.1621 -18.0176 L 41.1621 -47.5586 L 40.8203 -47.5586 L 36.084 -43.9453 C 34.9121 -42.9199 34.375 -42.7246 33.3496 -42.7246 C 31.6895 -42.7246 30.1758 -44.1895 30.1758 -46.0449 C 30.1758 -47.4609 30.8594 -48.4863 32.1289 -49.4629 L 39.209 -54.541 C 41.2109 -56.0059 42.334 -56.543 44.0918 -56.543 C 46.6309 -56.543 48.2422 -54.834 48.2422 -52.2461 L 48.2422 -18.0176 C 48.2422 -15.625 46.875 -14.1602 44.6777 -14.1602 Z M 71.7285 -19.873 C 76.0742 -19.873 78.9062 -22.998 78.9062 -27.8809 C 78.9062 -32.5195 76.0254 -35.6934 71.7773 -35.6934 C 67.4805 -35.6934 64.502 -32.4707 64.502 -27.9297 C 64.502 -23.1934 67.4805 -19.873 71.7285 -19.873 Z"/>
  </g>
  <g id="Regular-M" transform="matrix(1 0 0 1 1391.3 1126)">
   <path d="M 58.5449 14.5508 C 85.791 14.5508 108.35 -8.00781 108.35 -35.2539 C 108.35 -62.4512 85.7422 -85.0586 58.4961 -85.0586 C 31.2988 -85.0586 8.74023 -62.4512 8.74023 -35.2539 C 8.74023 -8.00781 31.3477 14.5508 58.5449 14.5508 Z M 71.2891 -13.1348 C 66.0645 -13.1348 61.6699 -15.0879 59.0332 -20.0195 C 57.3242 -23.291 56.2988 -27.832 56.2988 -34.082 C 56.2988 -49.6582 62.4023 -57.3242 72.2656 -57.3242 C 78.125 -57.3242 82.1777 -54.3457 83.5449 -50.8789 C 83.7891 -50.2441 83.8867 -49.5605 83.8867 -48.9258 C 83.8867 -47.2656 82.7637 -46.1426 81.3965 -46.1426 C 79.9805 -46.1426 79.1504 -46.7773 78.3203 -48.0469 C 77.0508 -50 74.9512 -51.4648 71.9727 -51.4648 C 66.2109 -51.4648 62.3535 -45.3613 62.3535 -35.6934 L 62.3535 -35.1562 L 62.6953 -35.1562 C 63.9648 -38.5742 67.3828 -41.6504 72.8516 -41.6504 C 79.541 -41.6504 85.5469 -36.8164 85.5469 -28.0273 C 85.5469 -18.5547 79.5898 -13.1348 71.2891 -13.1348 Z M 43.2617 -13.7207 C 41.3574 -13.7207 40.1367 -15.0391 40.1367 -17.041 L 40.1367 -48.877 L 39.7461 -48.877 L 34.3262 -44.8242 C 33.1543 -43.8965 32.666 -43.8477 31.8359 -43.8477 C 30.3711 -43.8477 28.8574 -45.2148 28.8574 -46.9727 C 28.8574 -48.291 29.541 -49.2188 30.6152 -49.9512 L 38.3789 -55.2734 C 40.2344 -56.4941 41.2598 -57.0312 42.8711 -57.0312 C 45.0195 -57.0312 46.4844 -55.5176 46.4844 -53.3691 L 46.4844 -17.041 C 46.4844 -15.0391 45.2148 -13.7207 43.2617 -13.7207 Z M 71.0449 -18.75 C 75.9277 -18.75 79.1016 -22.2168 79.1016 -27.6855 C 79.1016 -32.8613 75.8301 -36.3281 71.0449 -36.3281 C 66.1621 -36.3281 62.8906 -32.8125 62.8906 -27.7344 C 62.8906 -22.5098 66.2109 -18.75 71.0449 -18.75 Z"/>
  </g>
  <g id="Light-M" transform="matrix(1 0 0 1 1095.42 1126)">
   <path d="M 57.7148 13.7695 C 84.5215 13.7695 106.689 -8.39844 106.689 -35.2051 C 106.689 -62.0117 84.5215 -84.1797 57.666 -84.1797 C 30.8594 -84.1797 8.74023 -62.0117 8.74023 -35.2051 C 8.74023 -8.39844 30.9082 13.7695 57.7148 13.7695 Z M 70.5078 -13.4277 C 64.9414 -13.4277 60.7422 -15.625 58.252 -20.4102 C 56.543 -23.6816 55.6641 -28.1738 55.6641 -34.0332 C 55.6641 -49.1211 61.6211 -57.0801 71.3867 -57.0801 C 77.4902 -57.0801 81.6406 -53.6133 82.8125 -50.3418 C 83.0078 -49.8535 83.1055 -49.3164 83.1055 -48.8281 C 83.1055 -47.5098 82.2754 -46.5332 81.0059 -46.5332 C 79.9316 -46.5332 79.248 -47.1191 78.6133 -48.1445 C 77.1973 -50.6348 74.5605 -52.2949 71.1914 -52.2949 C 64.6973 -52.2949 60.498 -45.7031 60.498 -34.9609 L 60.498 -34.4727 L 60.7422 -34.4727 C 62.2559 -38.2812 66.2598 -41.3574 71.7285 -41.3574 C 78.8086 -41.3574 84.668 -36.2793 84.668 -27.9297 C 84.668 -18.8965 78.8574 -13.4277 70.5078 -13.4277 Z M 42.2852 -13.916 C 40.7715 -13.916 39.7461 -14.9902 39.7461 -16.5527 L 39.7461 -50.2441 L 39.4531 -50.2441 L 32.666 -45.459 C 31.7871 -44.8242 31.4453 -44.7754 30.8105 -44.7754 C 29.5898 -44.7754 28.418 -45.8984 28.418 -47.2656 C 28.418 -48.291 28.9062 -49.0234 29.7852 -49.6094 L 38.4766 -55.4199 C 39.8438 -56.3477 40.6738 -56.7383 41.9434 -56.7383 C 43.6523 -56.7383 44.873 -55.5664 44.873 -53.8574 L 44.873 -16.5527 C 44.873 -14.9902 43.8477 -13.916 42.2852 -13.916 Z M 70.3613 -18.0664 C 75.8789 -18.0664 79.4922 -21.7773 79.4922 -27.6367 C 79.4922 -33.252 75.7812 -37.0117 70.4102 -37.0117 C 64.9414 -37.0117 61.1328 -33.1543 61.1328 -27.6855 C 61.1328 -22.0215 64.8926 -18.0664 70.3613 -18.0664 Z"/>
  </g>
  <g id="Thin-M" transform="matrix(1 0 0 1 799.806 1126)">
   <path d="M 56.6406 12.7441 C 82.9102 12.7441 104.492 -8.83789 104.492 -35.1562 C 104.492 -61.4746 82.9102 -83.0566 56.5918 -83.0566 C 30.3223 -83.0566 8.74023 -61.4746 8.74023 -35.1562 C 8.74023 -8.83789 30.3223 12.7441 56.6406 12.7441 Z M 69.4336 -13.8184 C 63.4277 -13.8184 59.5215 -16.3574 57.2266 -20.9473 C 55.5664 -24.2676 54.834 -28.6621 54.834 -33.9355 C 54.834 -48.4375 60.5957 -56.6895 70.2637 -56.6895 C 76.6602 -56.6895 80.9082 -52.6367 81.8848 -49.6582 C 82.0312 -49.3652 82.0801 -49.0234 82.0801 -48.6816 C 82.0801 -47.8027 81.543 -47.0703 80.5664 -47.0703 C 79.834 -47.0703 79.3457 -47.5586 79.0039 -48.2422 C 77.3926 -51.416 74.0723 -53.3691 70.166 -53.3691 C 62.6465 -53.3691 58.0566 -46.1426 58.0566 -34.0332 L 58.0566 -33.5449 L 58.2031 -33.5449 C 60.0098 -37.9395 64.7949 -40.9668 70.2637 -40.9668 C 77.8809 -40.9668 83.4961 -35.5957 83.4961 -27.7832 C 83.4961 -19.3359 77.832 -13.8184 69.4336 -13.8184 Z M 41.0156 -14.209 C 39.9902 -14.209 39.3066 -14.8926 39.3066 -15.918 L 39.3066 -52.002 L 39.0625 -52.002 L 30.4688 -46.3379 C 30.0293 -46.0449 29.834 -46.0449 29.4434 -46.0449 C 28.5645 -46.0449 27.832 -46.7285 27.832 -47.6562 C 27.832 -48.291 28.0762 -48.7793 28.7109 -49.1699 L 38.5742 -55.6641 C 39.4043 -56.1523 39.8926 -56.3965 40.7227 -56.3965 C 41.8457 -56.3965 42.7246 -55.6641 42.7246 -54.4922 L 42.7246 -15.918 C 42.7246 -14.8926 42.041 -14.209 41.0156 -14.209 Z M 69.4824 -17.0898 C 75.8301 -17.0898 80.0781 -21.1426 80.0781 -27.5391 C 80.0781 -33.7891 75.7812 -37.8418 69.5312 -37.8418 C 63.2812 -37.8418 58.8379 -33.5938 58.8379 -27.6367 C 58.8379 -21.4355 63.1836 -17.0898 69.4824 -17.0898 Z"/>
  </g>
  <g id="Ultralight-M" transform="matrix(1 0 0 1 503.656 1126)">
   <path d="M 56.0547 12.207 C 82.0801 12.207 103.369 -9.08203 103.369 -35.1562 C 103.369 -61.1816 82.0801 -82.4707 56.0547 -82.4707 C 30.0293 -82.4707 8.74023 -61.1816 8.74023 -35.1562 C 8.74023 -9.08203 30.0293 12.207 56.0547 12.207 Z M 68.8965 -14.0137 C 62.6465 -14.0137 58.8379 -16.6992 56.6895 -21.1914 C 55.0781 -24.5605 54.3945 -28.9062 54.3945 -33.8867 C 54.3945 -48.0469 60.0586 -56.4941 69.6289 -56.4941 C 76.2695 -56.4941 80.5176 -52.0996 81.4453 -49.3164 C 81.4941 -49.1211 81.543 -48.8281 81.543 -48.584 C 81.543 -47.998 81.2012 -47.3633 80.3223 -47.3633 C 79.7852 -47.3633 79.4434 -47.8027 79.1992 -48.291 C 77.4902 -51.8066 73.8281 -53.9551 69.6289 -53.9551 C 61.6211 -53.9551 56.8359 -46.3867 56.8359 -33.5449 L 56.8359 -33.0566 L 56.8848 -33.0566 C 58.8867 -37.7441 64.0137 -40.7715 69.5312 -40.7715 C 77.3926 -40.7715 82.9102 -35.2539 82.9102 -27.7344 C 82.9102 -19.5801 77.2949 -14.0137 68.8965 -14.0137 Z M 40.332 -14.3066 C 39.5996 -14.3066 39.0625 -14.7949 39.0625 -15.625 L 39.0625 -52.9297 L 38.8184 -52.9297 L 29.3457 -46.7773 C 29.1016 -46.6309 29.0039 -46.6309 28.7598 -46.6309 C 28.0273 -46.6309 27.5391 -47.2168 27.5391 -47.8516 C 27.5391 -48.291 27.6367 -48.6328 28.125 -48.9746 L 38.5742 -55.7617 C 39.1113 -56.0547 39.502 -56.2012 40.0879 -56.2012 C 40.9668 -56.2012 41.6016 -55.7129 41.6016 -54.7852 L 41.6016 -15.625 C 41.6016 -14.7949 41.1133 -14.3066 40.332 -14.3066 Z M 69.043 -16.6016 C 75.7812 -16.6016 80.3711 -20.8496 80.3711 -27.5391 C 80.3711 -34.0332 75.7324 -38.2812 69.0918 -38.2812 C 62.4512 -38.2812 57.6172 -33.8379 57.6172 -27.5879 C 57.6172 -21.1426 62.3535 -16.6016 69.043 -16.6016 Z"/>
  </g>
  <g id="Black-S" transform="matrix(1 0 0 1 2884.57 696)">
   <path d="M 48.8281 6.78711 C 71.9727 6.78711 90.8203 -12.0605 90.8203 -35.2051 C 90.8203 -58.3496 71.9727 -77.1973 48.8281 -77.1973 C 25.6836 -77.1973 6.83594 -58.3496 6.83594 -35.2051 C 6.83594 -12.0605 25.6836 6.78711 48.8281 6.78711 Z M 39.8926 -20.2637 C 37.1094 -20.2637 35.8398 -21.8262 35.8398 -25.0977 L 35.8398 -40.3809 L 35.6934 -40.3809 L 34.4727 -38.9648 C 33.5449 -37.793 32.7637 -37.207 31.2988 -37.207 C 29.541 -37.207 28.125 -38.7207 28.125 -40.4785 C 28.125 -42.041 28.7598 -43.1641 30.3223 -44.6777 L 33.5449 -47.8027 C 35.5957 -49.8047 37.0605 -50.2441 38.6719 -50.2441 C 42.1875 -50.2441 43.8965 -48.2422 43.8965 -44.7266 L 43.8965 -25.0977 C 43.8965 -21.8262 42.5781 -20.2637 39.8926 -20.2637 Z M 59.1309 -20.2637 C 54.9805 -20.2637 51.6113 -22.168 49.9023 -26.1719 C 48.8281 -28.7598 48.291 -31.9824 48.291 -35.3027 C 48.291 -44.9219 53.3691 -50.2441 59.7168 -50.2441 C 63.623 -50.2441 66.2598 -48.4863 67.2852 -46.5332 C 67.7734 -45.6543 67.9688 -44.9707 67.9688 -43.9453 C 67.9688 -42.0898 66.3086 -40.9668 64.7461 -40.9668 C 63.3301 -40.9668 62.5488 -41.4551 61.9629 -42.041 C 61.2793 -42.6758 60.6934 -43.3105 59.5215 -43.3105 C 57.5684 -43.3105 55.9082 -41.2598 55.9082 -38.4277 C 55.9082 -37.5 55.957 -36.9629 56.0059 -36.4258 L 56.25 -36.4258 C 57.1289 -38.1836 58.7402 -39.5996 61.5234 -39.5996 C 65.3809 -39.5996 68.8477 -36.377 68.8477 -31.0059 C 68.8477 -24.5605 64.9902 -20.2637 59.1309 -20.2637 Z M 58.7402 -27.002 C 60.1074 -27.002 61.1816 -28.2715 61.1816 -30.127 C 61.1816 -31.9824 60.1074 -33.252 58.7402 -33.252 C 57.2754 -33.252 56.1523 -31.9824 56.1523 -30.127 C 56.1523 -28.2227 57.2754 -27.002 58.7402 -27.002 Z"/>
  </g>
  <g id="Heavy-S" transform="matrix(1 0 0 1 2588.47 696)">
   <path d="M 48.2422 6.15234 C 70.9961 6.15234 89.5996 -12.4512 89.5996 -35.2051 C 89.5996 -57.959 70.9961 -76.6113 48.1934 -76.6113 C 25.4395 -76.6113 6.83594 -57.959 6.83594 -35.2051 C 6.83594 -12.4512 25.4395 6.15234 48.2422 6.15234 Z M 58.4473 -19.6777 C 54.3457 -19.6777 50.9277 -21.4844 49.1211 -25.4395 C 47.998 -28.0273 47.3633 -31.3477 47.3633 -35.0586 C 47.3633 -45.3613 52.3926 -50.8301 59.082 -50.8301 C 63.1348 -50.8301 65.8691 -48.9746 66.9434 -46.8262 C 67.334 -45.9961 67.5293 -45.3613 67.5293 -44.4336 C 67.5293 -42.6758 66.0156 -41.6016 64.5508 -41.6016 C 63.1836 -41.6016 62.4023 -42.0898 61.7676 -42.7734 C 61.0352 -43.6035 60.2539 -44.2871 58.8867 -44.2871 C 56.3965 -44.2871 54.4434 -41.6992 54.4434 -37.8418 C 54.4434 -37.1094 54.4922 -36.6699 54.541 -36.2305 L 54.7852 -36.2305 C 55.6641 -38.1348 57.4707 -39.7949 60.5957 -39.7949 C 64.7461 -39.7949 68.5059 -36.4746 68.5059 -30.6641 C 68.5059 -23.9746 64.4531 -19.6777 58.4473 -19.6777 Z M 38.5742 -19.7754 C 36.084 -19.7754 34.8145 -21.2891 34.8145 -24.1699 L 34.8145 -41.5527 L 34.668 -41.5527 L 32.8613 -39.7949 C 31.8848 -38.6719 31.2012 -38.2324 29.9316 -38.2324 C 28.2715 -38.2324 26.8555 -39.6484 26.8555 -41.3574 C 26.8555 -42.8711 27.4902 -43.8965 28.9062 -45.2148 L 32.7148 -48.5352 C 34.668 -50.3418 35.9863 -50.7812 37.5977 -50.7812 C 40.7227 -50.7812 42.334 -48.9258 42.334 -45.8008 L 42.334 -24.1699 C 42.334 -21.2891 41.0645 -19.7754 38.5742 -19.7754 Z M 58.1055 -25.9766 C 59.9609 -25.9766 61.3281 -27.5391 61.3281 -29.9316 C 61.3281 -32.2754 59.9609 -33.8379 58.1055 -33.8379 C 56.1523 -33.8379 54.7363 -32.2754 54.7363 -29.9316 C 54.7363 -27.5879 56.1523 -25.9766 58.1055 -25.9766 Z"/>
  </g>
  <g id="Bold-S" transform="matrix(1 0 0 1 2292.44 696)">
   <path d="M 47.5586 5.46875 C 69.873 5.46875 88.2324 -12.8906 88.2324 -35.2051 C 88.2324 -57.5684 69.873 -75.9277 47.5098 -75.9277 C 25.1953 -75.9277 6.83594 -57.5684 6.83594 -35.2051 C 6.83594 -12.8906 25.1953 5.46875 47.5586 5.46875 Z M 57.666 -18.9941 C 53.6621 -18.9941 50.1953 -20.6543 48.2422 -24.6582 C 47.0215 -27.1973 46.3379 -30.6152 46.3379 -34.8145 C 46.3379 -45.8496 51.3184 -51.4648 58.3984 -51.4648 C 62.5488 -51.4648 65.4785 -49.5117 66.5039 -47.1191 C 66.8945 -46.3867 67.041 -45.8008 67.041 -44.9707 C 67.041 -43.3105 65.7227 -42.2852 64.3066 -42.2852 C 62.9883 -42.2852 62.2559 -42.7734 61.5723 -43.6523 C 60.791 -44.5801 59.7656 -45.4102 58.1543 -45.4102 C 55.0781 -45.4102 52.832 -42.1387 52.832 -37.1582 C 52.832 -36.6211 52.832 -36.3281 52.8809 -35.9863 L 53.125 -35.9863 C 54.0039 -38.0859 56.0547 -39.9902 59.5703 -39.9902 C 64.0137 -39.9902 68.1641 -36.5723 68.1641 -30.3223 C 68.1641 -23.291 63.8672 -18.9941 57.666 -18.9941 Z M 37.1094 -19.2871 C 34.9121 -19.2871 33.6914 -20.6543 33.6914 -23.1445 L 33.6914 -42.8223 L 33.4961 -42.8223 L 31.0547 -40.7227 C 30.0781 -39.6973 29.4922 -39.3555 28.3691 -39.3555 C 26.8555 -39.3555 25.4883 -40.7227 25.4883 -42.3828 C 25.4883 -43.75 26.123 -44.7266 27.3438 -45.8008 L 31.7871 -49.3164 C 33.6426 -50.8789 34.8145 -51.3672 36.377 -51.3672 C 39.0625 -51.3672 40.5273 -49.6582 40.5273 -46.9727 L 40.5273 -23.1445 C 40.5273 -20.6543 39.3066 -19.2871 37.1094 -19.2871 Z M 57.3242 -24.8535 C 59.8145 -24.8535 61.4746 -26.7578 61.4746 -29.7363 C 61.4746 -32.5684 59.7656 -34.5215 57.3242 -34.5215 C 54.8828 -34.5215 53.125 -32.5684 53.125 -29.7363 C 53.125 -26.8555 54.8828 -24.8535 57.3242 -24.8535 Z"/>
  </g>
  <g id="Semibold-S" transform="matrix(1 0 0 1 1996.2 696)">
   <path d="M 47.0703 4.98047 C 69.0918 4.98047 87.3047 -13.1836 87.3047 -35.2539 C 87.3047 -57.2754 69.0918 -75.4883 47.0215 -75.4883 C 25 -75.4883 6.83594 -57.2754 6.83594 -35.2539 C 6.83594 -13.1836 25.0488 4.98047 47.0703 4.98047 Z M 57.1289 -18.5547 C 53.1738 -18.5547 49.6582 -20.1172 47.6562 -24.0723 C 46.3867 -26.6602 45.6055 -30.127 45.6055 -34.668 C 45.6055 -46.1914 50.5371 -51.9043 57.9102 -51.9043 C 62.1582 -51.9043 65.1855 -49.9023 66.2598 -47.3633 C 66.5527 -46.6797 66.6992 -46.0938 66.6992 -45.3613 C 66.6992 -43.75 65.4785 -42.7246 64.1602 -42.7246 C 62.8906 -42.7246 62.1582 -43.2617 61.4746 -44.2383 C 60.5957 -45.3125 59.4727 -46.1914 57.6172 -46.1914 C 54.1992 -46.1914 51.6602 -42.4805 51.6602 -36.7188 C 51.6602 -36.3281 51.709 -36.084 51.709 -35.8398 L 52.002 -35.8398 C 52.8809 -38.0371 55.0781 -40.1367 58.8379 -40.1367 C 63.5254 -40.1367 67.8711 -36.6211 67.8711 -30.0781 C 67.8711 -22.8516 63.4277 -18.5547 57.1289 -18.5547 Z M 36.1328 -18.8965 C 34.082 -18.8965 32.959 -20.2148 32.959 -22.4609 L 32.959 -43.7012 L 32.7148 -43.7012 L 29.834 -41.3086 C 28.8086 -40.3809 28.2715 -40.1855 27.2949 -40.1855 C 25.8789 -40.1855 24.5117 -41.4551 24.5117 -43.0664 C 24.5117 -44.3848 25.1465 -45.2637 26.2695 -46.1914 L 31.1523 -49.9023 C 32.9102 -51.2695 33.9844 -51.7578 35.498 -51.7578 C 37.8906 -51.7578 39.3066 -50.1953 39.3066 -47.7539 L 39.3066 -22.4609 C 39.3066 -20.2148 38.1348 -18.8965 36.1328 -18.8965 Z M 56.8359 -24.0723 C 59.7168 -24.0723 61.5723 -26.2207 61.5723 -29.5898 C 61.5723 -32.8125 59.6191 -34.9609 56.8359 -34.9609 C 54.0039 -34.9609 52.0508 -32.7637 52.0508 -29.6387 C 52.0508 -26.3672 54.0039 -24.0723 56.8359 -24.0723 Z"/>
  </g>
  <g id="Medium-S" transform="matrix(1 0 0 1 1699.83 696)">
   <path d="M 46.7285 4.63867 C 68.5547 4.63867 86.6211 -13.4277 86.6211 -35.2539 C 86.6211 -57.0312 68.5059 -75.1465 46.6797 -75.1465 C 24.8535 -75.1465 6.83594 -57.0312 6.83594 -35.2539 C 6.83594 -13.4277 24.9023 4.63867 46.7285 4.63867 Z M 56.7383 -18.2129 C 52.7832 -18.2129 49.2676 -19.7266 47.2168 -23.6816 C 45.8984 -26.2207 45.0684 -29.7363 45.0684 -34.5215 C 45.0684 -46.4355 50 -52.2461 57.5195 -52.2461 C 61.8652 -52.2461 64.9414 -50.1953 66.0156 -47.5098 C 66.3086 -46.875 66.4062 -46.2891 66.4062 -45.6543 C 66.4062 -44.0918 65.332 -43.1152 64.0625 -43.1152 C 62.793 -43.1152 62.0605 -43.6035 61.377 -44.6777 C 60.4492 -45.8496 59.2285 -46.7773 57.2754 -46.7773 C 53.4668 -46.7773 50.8301 -42.7246 50.8301 -36.377 C 50.8301 -36.084 50.8301 -35.9375 50.8301 -35.6934 L 51.1719 -35.6934 C 52.0508 -38.0371 54.2969 -40.2344 58.3008 -40.2344 C 63.1348 -40.2344 67.6758 -36.6699 67.6758 -29.8828 C 67.6758 -22.4609 63.1348 -18.2129 56.7383 -18.2129 Z M 35.3516 -18.6523 C 33.4961 -18.6523 32.373 -19.873 32.373 -21.9238 L 32.373 -44.3848 L 32.0801 -44.3848 L 28.9062 -41.7969 C 27.832 -40.918 27.3438 -40.7715 26.4648 -40.7715 C 25.0977 -40.7715 23.7793 -41.9922 23.7793 -43.6035 C 23.7793 -44.8242 24.4141 -45.7031 25.4395 -46.5332 L 30.6641 -50.293 C 32.373 -51.6113 33.3984 -52.0508 34.8633 -52.0508 C 37.0605 -52.0508 38.4277 -50.5859 38.4277 -48.3887 L 38.4277 -21.9238 C 38.4277 -19.873 37.2559 -18.6523 35.3516 -18.6523 Z M 56.4453 -23.4863 C 59.6191 -23.4863 61.6211 -25.8301 61.6211 -29.4922 C 61.6211 -32.959 59.5215 -35.3516 56.4453 -35.3516 C 53.3203 -35.3516 51.2207 -32.959 51.2207 -29.541 C 51.2207 -25.9766 53.3691 -23.4863 56.4453 -23.4863 Z"/>
  </g>
  <g id="Regular-S" transform="matrix(1 0 0 1 1403.58 696)">
   <path d="M 46.2402 4.15039 C 67.7734 4.15039 85.6934 -13.7207 85.6934 -35.2539 C 85.6934 -56.7871 67.7246 -74.6582 46.1914 -74.6582 C 24.707 -74.6582 6.83594 -56.7871 6.83594 -35.2539 C 6.83594 -13.7207 24.7559 4.15039 46.2402 4.15039 Z M 56.2012 -17.7734 C 52.2949 -17.7734 48.7793 -19.1895 46.6309 -23.0957 C 45.2637 -25.6348 44.3848 -29.248 44.3848 -34.375 C 44.3848 -46.7773 49.2676 -52.6855 57.0312 -52.6855 C 61.4746 -52.6855 64.6484 -50.5859 65.7715 -47.7051 C 66.0156 -47.168 66.1133 -46.582 66.1133 -46.0449 C 66.1133 -44.5312 65.0879 -43.5547 63.916 -43.5547 C 62.6953 -43.5547 61.9629 -44.0918 61.2305 -45.2148 C 60.2539 -46.5332 58.8867 -47.5586 56.7871 -47.5586 C 52.5879 -47.5586 49.707 -43.0176 49.707 -35.9375 L 49.707 -35.5469 L 50.0488 -35.5469 C 50.9277 -37.9883 53.3203 -40.3809 57.5684 -40.3809 C 62.6465 -40.3809 67.4316 -36.7188 67.4316 -29.6387 C 67.4316 -22.0215 62.7441 -17.7734 56.2012 -17.7734 Z M 34.375 -18.3105 C 32.666 -18.3105 31.5918 -19.4824 31.5918 -21.1914 L 31.5918 -45.2637 L 31.2988 -45.2637 L 27.6855 -42.4316 C 26.6113 -41.6016 26.1719 -41.5527 25.4395 -41.5527 C 24.1699 -41.5527 22.8516 -42.7246 22.8516 -44.2871 C 22.8516 -45.459 23.4375 -46.2402 24.3652 -46.9238 L 30.0293 -50.8789 C 31.6895 -52.002 32.5684 -52.4414 34.0332 -52.4414 C 35.9375 -52.4414 37.207 -51.0742 37.207 -49.2188 L 37.207 -21.1914 C 37.207 -19.4824 36.084 -18.3105 34.375 -18.3105 Z M 55.957 -22.7051 C 59.5215 -22.7051 61.7188 -25.293 61.7188 -29.3457 C 61.7188 -33.1543 59.4238 -35.791 55.957 -35.791 C 52.4414 -35.791 50.0977 -33.1543 50.0977 -29.3945 C 50.0977 -25.4883 52.4902 -22.7051 55.957 -22.7051 Z"/>
  </g>
  <g id="Light-S" transform="matrix(1 0 0 1 1107.6 696)">
   <path d="M 45.5078 3.4668 C 66.6992 3.4668 84.2285 -14.0625 84.2285 -35.2051 C 84.2285 -56.3965 66.6504 -73.9258 45.5078 -73.9258 C 24.3164 -73.9258 6.83594 -56.3965 6.83594 -35.2051 C 6.83594 -14.0625 24.3652 3.4668 45.5078 3.4668 Z M 55.5176 -18.0176 C 51.3184 -18.0176 47.9492 -19.6777 45.8984 -23.4375 C 44.5801 -26.0254 43.8477 -29.5898 43.8477 -34.3262 C 43.8477 -46.3379 48.5352 -52.4414 56.25 -52.4414 C 60.9375 -52.4414 64.1602 -49.9023 65.1367 -47.2656 C 65.332 -46.8262 65.3809 -46.3867 65.3809 -45.9473 C 65.3809 -44.7266 64.6484 -43.9453 63.623 -43.9453 C 62.6465 -43.9453 62.0605 -44.3848 61.4746 -45.3125 C 60.4004 -47.0703 58.5449 -48.291 56.0547 -48.291 C 51.2695 -48.291 48.0957 -43.3105 48.0957 -35.3027 L 48.0957 -34.9121 L 48.3398 -34.9121 C 49.4141 -37.7441 52.3438 -40.1367 56.5918 -40.1367 C 62.0117 -40.1367 66.6504 -36.2793 66.6504 -29.541 C 66.6504 -22.3145 62.0605 -18.0176 55.5176 -18.0176 Z M 33.4961 -18.457 C 32.1777 -18.457 31.2988 -19.3848 31.2988 -20.8008 L 31.2988 -46.4844 L 31.0059 -46.4844 L 26.2207 -43.0176 C 25.3906 -42.3828 25.0977 -42.3828 24.5117 -42.3828 C 23.4375 -42.3828 22.4121 -43.3105 22.4121 -44.5312 C 22.4121 -45.459 22.9004 -46.0938 23.6328 -46.6309 L 30.0781 -51.0254 C 31.3477 -51.8555 32.0801 -52.1973 33.2031 -52.1973 C 34.7168 -52.1973 35.7422 -51.123 35.7422 -49.6094 L 35.7422 -20.8008 C 35.7422 -19.3848 34.8633 -18.457 33.4961 -18.457 Z M 55.3711 -22.0215 C 59.4727 -22.0215 62.1094 -24.8535 62.1094 -29.2969 C 62.1094 -33.4961 59.375 -36.377 55.3711 -36.377 C 51.3672 -36.377 48.584 -33.4473 48.584 -29.3457 C 48.584 -25.0488 51.3184 -22.0215 55.3711 -22.0215 Z"/>
  </g>
  <g id="Thin-S" transform="matrix(1 0 0 1 811.867 696)">
   <path d="M 44.5801 2.53906 C 65.2832 2.53906 82.2754 -14.4531 82.2754 -35.2051 C 82.2754 -55.9082 65.2344 -72.9004 44.5312 -72.9004 C 23.8281 -72.9004 6.83594 -55.9082 6.83594 -35.2051 C 6.83594 -14.4531 23.877 2.53906 44.5801 2.53906 Z M 54.5898 -18.3594 C 49.9512 -18.3594 46.8262 -20.3125 45.0195 -23.9258 C 43.7012 -26.5137 43.1152 -29.9805 43.1152 -34.2285 C 43.1152 -45.7031 47.6562 -52.0996 55.2246 -52.0996 C 60.2051 -52.0996 63.5254 -49.0234 64.3555 -46.6797 C 64.4531 -46.4355 64.502 -46.0938 64.502 -45.8008 C 64.502 -45.0195 64.0137 -44.4336 63.1836 -44.4336 C 62.5488 -44.4336 62.1582 -44.8242 61.8164 -45.4102 C 60.5957 -47.7539 58.1543 -49.2188 55.1758 -49.2188 C 49.4629 -49.2188 45.9473 -43.7012 45.9473 -34.4727 L 45.9473 -34.082 L 46.0449 -34.082 C 47.4609 -37.4023 51.0254 -39.7949 55.3223 -39.7949 C 61.1816 -39.7949 65.625 -35.6445 65.625 -29.4434 C 65.625 -22.7051 61.1816 -18.3594 54.5898 -18.3594 Z M 32.373 -18.7012 C 31.4941 -18.7012 30.8594 -19.2871 30.8594 -20.2148 L 30.8594 -48.0469 L 30.6641 -48.0469 L 24.2676 -43.75 C 23.8281 -43.457 23.6816 -43.457 23.3398 -43.457 C 22.5586 -43.457 21.9238 -44.0918 21.9238 -44.873 C 21.9238 -45.459 22.168 -45.8984 22.7051 -46.2402 L 30.1758 -51.1719 C 30.957 -51.6602 31.3965 -51.8555 32.1289 -51.8555 C 33.1543 -51.8555 33.8867 -51.2207 33.8867 -50.1953 L 33.8867 -20.2148 C 33.8867 -19.2871 33.3008 -18.7012 32.373 -18.7012 Z M 54.5898 -21.1914 C 59.4238 -21.1914 62.5977 -24.3164 62.5977 -29.248 C 62.5977 -33.9844 59.375 -37.1094 54.6387 -37.1094 C 49.9023 -37.1094 46.5332 -33.8867 46.5332 -29.2969 C 46.5332 -24.5605 49.8535 -21.1914 54.5898 -21.1914 Z"/>
  </g>
  <g id="Ultralight-S" transform="matrix(1 0 0 1 515.644 696)">
   <path d="M 44.043 2.05078 C 64.502 2.05078 81.2988 -14.6973 81.2988 -35.1562 C 81.2988 -55.6152 64.502 -72.3633 44.043 -72.3633 C 23.584 -72.3633 6.83594 -55.6152 6.83594 -35.1562 C 6.83594 -14.6973 23.584 2.05078 44.043 2.05078 Z M 54.1016 -18.5547 C 49.2676 -18.5547 46.2891 -20.6055 44.5312 -24.1699 C 43.2617 -26.8066 42.7246 -30.2246 42.7246 -34.1797 C 42.7246 -45.3613 47.168 -51.9531 54.6875 -51.9531 C 59.8633 -51.9531 63.1836 -48.584 63.916 -46.3379 C 63.9648 -46.1914 64.0137 -45.9473 64.0137 -45.7031 C 64.0137 -45.166 63.6719 -44.6777 62.9883 -44.6777 C 62.5 -44.6777 62.207 -45.0195 61.9629 -45.459 C 60.6934 -48.0957 57.9102 -49.7559 54.6875 -49.7559 C 48.5352 -49.7559 44.8242 -43.8965 44.8242 -34.0332 L 44.8242 -33.6426 L 44.873 -33.6426 C 46.4355 -37.2559 50.3418 -39.6484 54.6387 -39.6484 C 60.7422 -39.6484 65.0879 -35.3027 65.0879 -29.3457 C 65.0879 -22.9004 60.6934 -18.5547 54.1016 -18.5547 Z M 31.7871 -18.7988 C 31.1523 -18.7988 30.6641 -19.2383 30.6641 -19.9219 L 30.6641 -48.8281 L 30.4688 -48.8281 L 23.291 -44.1406 C 23.0469 -43.9941 22.9004 -43.9941 22.7051 -43.9941 C 22.0703 -43.9941 21.6309 -44.4824 21.6309 -45.0684 C 21.6309 -45.459 21.7773 -45.8008 22.168 -46.0449 L 30.2246 -51.3184 C 30.7129 -51.5625 31.0547 -51.709 31.5918 -51.709 C 32.3242 -51.709 32.9102 -51.2695 32.9102 -50.4883 L 32.9102 -19.9219 C 32.9102 -19.2383 32.4707 -18.7988 31.7871 -18.7988 Z M 54.1992 -20.752 C 59.375 -20.752 62.8906 -24.0234 62.8906 -29.1992 C 62.8906 -34.2285 59.3262 -37.5 54.248 -37.5 C 49.1699 -37.5 45.459 -34.082 45.459 -29.248 C 45.459 -24.2676 49.0723 -20.752 54.1992 -20.752 Z"/>
  </g>
 </g>
</svg>
