<?xml version="1.0" encoding="UTF-8"?>
<!--Generator: Apple Native CoreSVG 123-->
<!DOCTYPE svg
PUBLIC "-//W3C//DTD SVG 1.1//EN"
       "http://www.w3.org/Graphics/SVG/1.1/DTD/svg11.dtd">
<svg version="1.1" xmlns="http://www.w3.org/2000/svg" xmlns:xlink="http://www.w3.org/1999/xlink" width="3300" height="2200">
 <!--glyph: "uni10051B.medium", point size: 100.000000, font version: "Version 15.0d7e11", template writer version: "5"-->
 <g id="Notes">
  <rect height="2200" id="artboard" style="fill:white;opacity:1" width="3300" x="0" y="0"/>
  <line id="" style="fill:none;stroke:black;opacity:1;stroke-width:0.5;" x1="263" x2="3036" y1="292" y2="292"/>
  <text style="stroke:none;fill:black;font-family:-apple-system,&quot;SF Pro Display&quot;,&quot;SF Pro Text&quot;,Helvetica,sans-serif;font-weight:bold;" transform="matrix(1 0 0 1 263 322)">Weight/Scale Variations</text>
  <text style="stroke:none;fill:black;font-family:-apple-system,&quot;SF Pro Display&quot;,&quot;SF Pro Text&quot;,Helvetica,sans-serif;text-anchor:middle;" transform="matrix(1 0 0 1 559.711 322)">Ultralight</text>
  <text style="stroke:none;fill:black;font-family:-apple-system,&quot;SF Pro Display&quot;,&quot;SF Pro Text&quot;,Helvetica,sans-serif;text-anchor:middle;" transform="matrix(1 0 0 1 856.422 322)">Thin</text>
  <text style="stroke:none;fill:black;font-family:-apple-system,&quot;SF Pro Display&quot;,&quot;SF Pro Text&quot;,Helvetica,sans-serif;text-anchor:middle;" transform="matrix(1 0 0 1 1153.13 322)">Light</text>
  <text style="stroke:none;fill:black;font-family:-apple-system,&quot;SF Pro Display&quot;,&quot;SF Pro Text&quot;,Helvetica,sans-serif;text-anchor:middle;" transform="matrix(1 0 0 1 1449.84 322)">Regular</text>
  <text style="stroke:none;fill:black;font-family:-apple-system,&quot;SF Pro Display&quot;,&quot;SF Pro Text&quot;,Helvetica,sans-serif;text-anchor:middle;" transform="matrix(1 0 0 1 1746.56 322)">Medium</text>
  <text style="stroke:none;fill:black;font-family:-apple-system,&quot;SF Pro Display&quot;,&quot;SF Pro Text&quot;,Helvetica,sans-serif;text-anchor:middle;" transform="matrix(1 0 0 1 2043.27 322)">Semibold</text>
  <text style="stroke:none;fill:black;font-family:-apple-system,&quot;SF Pro Display&quot;,&quot;SF Pro Text&quot;,Helvetica,sans-serif;text-anchor:middle;" transform="matrix(1 0 0 1 2339.98 322)">Bold</text>
  <text style="stroke:none;fill:black;font-family:-apple-system,&quot;SF Pro Display&quot;,&quot;SF Pro Text&quot;,Helvetica,sans-serif;text-anchor:middle;" transform="matrix(1 0 0 1 2636.69 322)">Heavy</text>
  <text style="stroke:none;fill:black;font-family:-apple-system,&quot;SF Pro Display&quot;,&quot;SF Pro Text&quot;,Helvetica,sans-serif;text-anchor:middle;" transform="matrix(1 0 0 1 2933.4 322)">Black</text>
  <line id="" style="fill:none;stroke:black;opacity:1;stroke-width:0.5;" x1="263" x2="3036" y1="1903" y2="1903"/>
  <g id="" transform="matrix(1 0 0 1 263 1933)">
   <path d="M 9.24805 0.830078 C 13.5547 0.830078 17.1387 -2.74414 17.1387 -7.05078 C 17.1387 -11.3574 13.5449 -14.9316 9.23828 -14.9316 C 4.94141 -14.9316 1.36719 -11.3574 1.36719 -7.05078 C 1.36719 -2.74414 4.95117 0.830078 9.24805 0.830078 Z M 9.24805 -0.654297 C 5.70312 -0.654297 2.87109 -3.49609 2.87109 -7.05078 C 2.87109 -10.6055 5.69336 -13.4473 9.23828 -13.4473 C 12.793 -13.4473 15.6348 -10.6055 15.6445 -7.05078 C 15.6543 -3.49609 12.8027 -0.654297 9.24805 -0.654297 Z M 9.22852 -3.42773 C 9.69727 -3.42773 9.9707 -3.74023 9.9707 -4.25781 L 9.9707 -6.31836 L 12.1973 -6.31836 C 12.6953 -6.31836 13.0371 -6.57227 13.0371 -7.04102 C 13.0371 -7.51953 12.7148 -7.7832 12.1973 -7.7832 L 9.9707 -7.7832 L 9.9707 -10.0098 C 9.9707 -10.5273 9.69727 -10.8496 9.22852 -10.8496 C 8.75977 -10.8496 8.50586 -10.5078 8.50586 -10.0098 L 8.50586 -7.7832 L 6.29883 -7.7832 C 5.78125 -7.7832 5.44922 -7.51953 5.44922 -7.04102 C 5.44922 -6.57227 5.80078 -6.31836 6.29883 -6.31836 L 8.50586 -6.31836 L 8.50586 -4.25781 C 8.50586 -3.75977 8.75977 -3.42773 9.22852 -3.42773 Z"/>
  </g>
  <g id="" transform="matrix(1 0 0 1 281.506 1933)">
   <path d="M 11.709 2.91016 C 17.1582 2.91016 21.6699 -1.60156 21.6699 -7.05078 C 21.6699 -12.4902 17.1484 -17.0117 11.6992 -17.0117 C 6.25977 -17.0117 1.74805 -12.4902 1.74805 -7.05078 C 1.74805 -1.60156 6.26953 2.91016 11.709 2.91016 Z M 11.709 1.25 C 7.09961 1.25 3.41797 -2.44141 3.41797 -7.05078 C 3.41797 -11.6504 7.08984 -15.3516 11.6992 -15.3516 C 16.3086 -15.3516 20 -11.6504 20.0098 -7.05078 C 20.0195 -2.44141 16.3184 1.25 11.709 1.25 Z M 11.6895 -2.41211 C 12.207 -2.41211 12.5195 -2.77344 12.5195 -3.33984 L 12.5195 -6.23047 L 15.5762 -6.23047 C 16.123 -6.23047 16.5039 -6.51367 16.5039 -7.03125 C 16.5039 -7.55859 16.1426 -7.86133 15.5762 -7.86133 L 12.5195 -7.86133 L 12.5195 -10.9277 C 12.5195 -11.5039 12.207 -11.8555 11.6895 -11.8555 C 11.1719 -11.8555 10.8789 -11.4844 10.8789 -10.9277 L 10.8789 -7.86133 L 7.83203 -7.86133 C 7.26562 -7.86133 6.89453 -7.55859 6.89453 -7.03125 C 6.89453 -6.51367 7.28516 -6.23047 7.83203 -6.23047 L 10.8789 -6.23047 L 10.8789 -3.33984 C 10.8789 -2.79297 11.1719 -2.41211 11.6895 -2.41211 Z"/>
  </g>
  <g id="" transform="matrix(1 0 0 1 304.924 1933)">
   <path d="M 14.9707 5.67383 C 21.9336 5.67383 27.6953 -0.078125 27.6953 -7.04102 C 27.6953 -14.0039 21.9238 -19.7559 14.9609 -19.7559 C 8.00781 -19.7559 2.25586 -14.0039 2.25586 -7.04102 C 2.25586 -0.078125 8.01758 5.67383 14.9707 5.67383 Z M 14.9707 3.85742 C 8.93555 3.85742 4.08203 -1.00586 4.08203 -7.04102 C 4.08203 -13.0762 8.92578 -17.9395 14.9609 -17.9395 C 21.0059 -17.9395 25.8594 -13.0762 25.8691 -7.04102 C 25.8789 -1.00586 21.0156 3.85742 14.9707 3.85742 Z M 14.9512 -1.06445 C 15.5176 -1.06445 15.8691 -1.45508 15.8691 -2.06055 L 15.8691 -6.13281 L 20.1074 -6.13281 C 20.6934 -6.13281 21.1133 -6.46484 21.1133 -7.02148 C 21.1133 -7.59766 20.7227 -7.93945 20.1074 -7.93945 L 15.8691 -7.93945 L 15.8691 -12.1875 C 15.8691 -12.8027 15.5176 -13.1934 14.9512 -13.1934 C 14.3848 -13.1934 14.0625 -12.7832 14.0625 -12.1875 L 14.0625 -7.93945 L 9.83398 -7.93945 C 9.21875 -7.93945 8.80859 -7.59766 8.80859 -7.02148 C 8.80859 -6.46484 9.23828 -6.13281 9.83398 -6.13281 L 14.0625 -6.13281 L 14.0625 -2.06055 C 14.0625 -1.47461 14.3848 -1.06445 14.9512 -1.06445 Z"/>
  </g>
  <text style="stroke:none;fill:black;font-family:-apple-system,&quot;SF Pro Display&quot;,&quot;SF Pro Text&quot;,Helvetica,sans-serif;font-weight:bold;" transform="matrix(1 0 0 1 263 1953)">Design Variations</text>
  <text style="stroke:none;fill:black;font-family:-apple-system,&quot;SF Pro Display&quot;,&quot;SF Pro Text&quot;,Helvetica,sans-serif;" transform="matrix(1 0 0 1 263 1971)">Symbols are supported in up to nine weights and three scales.</text>
  <text style="stroke:none;fill:black;font-family:-apple-system,&quot;SF Pro Display&quot;,&quot;SF Pro Text&quot;,Helvetica,sans-serif;" transform="matrix(1 0 0 1 263 1989)">For optimal layout with text and other symbols, vertically align</text>
  <text style="stroke:none;fill:black;font-family:-apple-system,&quot;SF Pro Display&quot;,&quot;SF Pro Text&quot;,Helvetica,sans-serif;" transform="matrix(1 0 0 1 263 2007)">symbols with the adjacent text.</text>
  <rect height="14" id="" style="fill:#00AEEF;stroke:none;opacity:0.4;" width="3" x="776" y="1919"/>
  <g id="" transform="matrix(1 0 0 1 779 1933)">
   <path d="M 10.5273 0 L 12.373 0 L 7.17773 -14.0918 L 5.43945 -14.0918 L 0.244141 0 L 2.08984 0 L 3.50586 -4.0332 L 9.11133 -4.0332 Z M 6.2793 -11.9531 L 6.33789 -11.9531 L 8.59375 -5.52734 L 4.02344 -5.52734 Z"/>
  </g>
  <rect height="14" id="" style="fill:#00AEEF;stroke:none;opacity:0.4;" width="3" x="791.617" y="1919"/>
  <text style="stroke:none;fill:black;font-family:-apple-system,&quot;SF Pro Display&quot;,&quot;SF Pro Text&quot;,Helvetica,sans-serif;font-weight:bold;" transform="matrix(1 0 0 1 776 1953)">Margins</text>
  <text style="stroke:none;fill:black;font-family:-apple-system,&quot;SF Pro Display&quot;,&quot;SF Pro Text&quot;,Helvetica,sans-serif;" transform="matrix(1 0 0 1 776 1971)">Leading and trailing margins on the left and right side of each symbol</text>
  <text style="stroke:none;fill:black;font-family:-apple-system,&quot;SF Pro Display&quot;,&quot;SF Pro Text&quot;,Helvetica,sans-serif;" transform="matrix(1 0 0 1 776 1989)">can be adjusted by modifying the width of the blue rectangles.</text>
  <text style="stroke:none;fill:black;font-family:-apple-system,&quot;SF Pro Display&quot;,&quot;SF Pro Text&quot;,Helvetica,sans-serif;" transform="matrix(1 0 0 1 776 2007)">Modifications are automatically applied proportionally to all</text>
  <text style="stroke:none;fill:black;font-family:-apple-system,&quot;SF Pro Display&quot;,&quot;SF Pro Text&quot;,Helvetica,sans-serif;" transform="matrix(1 0 0 1 776 2025)">scales and weights.</text>
  <g id="" transform="matrix(1 0 0 1 1289 1933)">
   <path d="M 2.83203 3.11523 L 4.375 4.6582 C 5.22461 5.48828 6.19141 5.41992 7.06055 4.46289 L 17.2754 -6.66016 C 17.7051 -6.36719 18.0957 -6.37695 18.5645 -6.47461 L 19.6094 -6.68945 L 20.3027 -5.99609 L 20.2539 -5.47852 C 20.1855 -4.95117 20.3516 -4.53125 20.8496 -4.0332 L 21.6602 -3.22266 C 22.168 -2.71484 22.8223 -2.68555 23.3008 -3.16406 L 26.5527 -6.41602 C 27.0312 -6.89453 27.0117 -7.54883 26.5039 -8.05664 L 25.6836 -8.87695 C 25.1855 -9.375 24.7754 -9.55078 24.2383 -9.47266 L 23.7109 -9.41406 L 23.0566 -10.0781 L 23.3398 -11.2207 C 23.4863 -11.7871 23.3398 -12.2559 22.7148 -12.8613 L 20.3027 -15.2539 C 16.7578 -18.7793 12.2266 -18.6719 9.11133 -15.5371 C 8.69141 -15.1074 8.64258 -14.5215 8.91602 -14.0918 C 9.15039 -13.7207 9.62891 -13.4961 10.2734 -13.6621 C 11.7871 -14.043 13.3008 -13.9258 14.7852 -12.9199 L 14.1602 -11.3379 C 13.9258 -10.752 13.9453 -10.2734 14.1797 -9.83398 L 3.01758 0.439453 C 2.08008 1.30859 1.97266 2.25586 2.83203 3.11523 Z M 10.6738 -15.1465 C 13.3398 -17.1387 16.6504 -16.8262 19.0527 -14.4141 L 21.6797 -11.8066 C 21.9141 -11.5723 21.9434 -11.3867 21.8848 -11.0938 L 21.5039 -9.53125 L 23.0762 -7.95898 L 24.043 -8.04688 C 24.3262 -8.07617 24.4141 -8.05664 24.6387 -7.83203 L 25.2637 -7.20703 L 22.5098 -4.46289 L 21.8848 -5.07812 C 21.6602 -5.30273 21.6406 -5.40039 21.6699 -5.68359 L 21.7578 -6.64062 L 20.1953 -8.20312 L 18.5742 -7.89062 C 18.291 -7.83203 18.1445 -7.83203 17.9102 -8.07617 L 15.7324 -10.2539 C 15.5078 -10.4883 15.4785 -10.625 15.6055 -10.9473 L 16.5527 -13.2227 C 14.9512 -14.7559 12.8418 -15.6055 10.8008 -14.9512 C 10.7129 -14.9219 10.6445 -14.9414 10.6152 -14.9805 C 10.5859 -15.0293 10.5859 -15.0781 10.6738 -15.1465 Z M 4.10156 2.41211 C 3.61328 1.91406 3.78906 1.61133 4.12109 1.30859 L 15.0781 -8.80859 L 16.3086 -7.57812 L 6.15234 3.34961 C 5.84961 3.68164 5.46875 3.7793 5.06836 3.37891 Z"/>
  </g>
  <text style="stroke:none;fill:black;font-family:-apple-system,&quot;SF Pro Display&quot;,&quot;SF Pro Text&quot;,Helvetica,sans-serif;font-weight:bold;" transform="matrix(1 0 0 1 1289 1953)">Exporting</text>
  <text style="stroke:none;fill:black;font-family:-apple-system,&quot;SF Pro Display&quot;,&quot;SF Pro Text&quot;,Helvetica,sans-serif;" transform="matrix(1 0 0 1 1289 1971)">Symbols should be outlined when exporting to ensure the</text>
  <text style="stroke:none;fill:black;font-family:-apple-system,&quot;SF Pro Display&quot;,&quot;SF Pro Text&quot;,Helvetica,sans-serif;" transform="matrix(1 0 0 1 1289 1989)">design is preserved when submitting to Xcode.</text>
  <text id="template-version" style="stroke:none;fill:black;font-family:-apple-system,&quot;SF Pro Display&quot;,&quot;SF Pro Text&quot;,Helvetica,sans-serif;text-anchor:end;" transform="matrix(1 0 0 1 3036 1933)">Template v.1.0</text>
  <text style="stroke:none;fill:black;font-family:-apple-system,&quot;SF Pro Display&quot;,&quot;SF Pro Text&quot;,Helvetica,sans-serif;text-anchor:end;" transform="matrix(1 0 0 1 3036 1951)">Generated from 17.circle.fill</text>
  <text style="stroke:none;fill:black;font-family:-apple-system,&quot;SF Pro Display&quot;,&quot;SF Pro Text&quot;,Helvetica,sans-serif;text-anchor:end;" transform="matrix(1 0 0 1 3036 1969)">Typeset at 100 points</text>
  <text style="stroke:none;fill:black;font-family:-apple-system,&quot;SF Pro Display&quot;,&quot;SF Pro Text&quot;,Helvetica,sans-serif;" transform="matrix(1 0 0 1 263 726)">Small</text>
  <text style="stroke:none;fill:black;font-family:-apple-system,&quot;SF Pro Display&quot;,&quot;SF Pro Text&quot;,Helvetica,sans-serif;" transform="matrix(1 0 0 1 263 1156)">Medium</text>
  <text style="stroke:none;fill:black;font-family:-apple-system,&quot;SF Pro Display&quot;,&quot;SF Pro Text&quot;,Helvetica,sans-serif;" transform="matrix(1 0 0 1 263 1586)">Large</text>
 </g>
 <g id="Guides">
  <g id="H-reference" style="fill:#27AAE1;stroke:none;" transform="matrix(1 0 0 1 339 696)">
   <path d="M 54.9316 0 L 57.666 0 L 30.5664 -70.459 L 28.0762 -70.459 L 0.976562 0 L 3.66211 0 L 12.9395 -24.4629 L 45.7031 -24.4629 Z M 29.1992 -67.0898 L 29.4434 -67.0898 L 44.8242 -26.709 L 13.8184 -26.709 Z"/>
  </g>
  <line id="Baseline-S" style="fill:none;stroke:#27AAE1;opacity:1;stroke-width:0.577;" x1="263" x2="3036" y1="696" y2="696"/>
  <line id="Capline-S" style="fill:none;stroke:#27AAE1;opacity:1;stroke-width:0.577;" x1="263" x2="3036" y1="625.541" y2="625.541"/>
  <g id="H-reference" style="fill:#27AAE1;stroke:none;" transform="matrix(1 0 0 1 339 1126)">
   <path d="M 54.9316 0 L 57.666 0 L 30.5664 -70.459 L 28.0762 -70.459 L 0.976562 0 L 3.66211 0 L 12.9395 -24.4629 L 45.7031 -24.4629 Z M 29.1992 -67.0898 L 29.4434 -67.0898 L 44.8242 -26.709 L 13.8184 -26.709 Z"/>
  </g>
  <line id="Baseline-M" style="fill:none;stroke:#27AAE1;opacity:1;stroke-width:0.577;" x1="263" x2="3036" y1="1126" y2="1126"/>
  <line id="Capline-M" style="fill:none;stroke:#27AAE1;opacity:1;stroke-width:0.577;" x1="263" x2="3036" y1="1055.54" y2="1055.54"/>
  <g id="H-reference" style="fill:#27AAE1;stroke:none;" transform="matrix(1 0 0 1 339 1556)">
   <path d="M 54.9316 0 L 57.666 0 L 30.5664 -70.459 L 28.0762 -70.459 L 0.976562 0 L 3.66211 0 L 12.9395 -24.4629 L 45.7031 -24.4629 Z M 29.1992 -67.0898 L 29.4434 -67.0898 L 44.8242 -26.709 L 13.8184 -26.709 Z"/>
  </g>
  <line id="Baseline-L" style="fill:none;stroke:#27AAE1;opacity:1;stroke-width:0.577;" x1="263" x2="3036" y1="1556" y2="1556"/>
  <line id="Capline-L" style="fill:none;stroke:#27AAE1;opacity:1;stroke-width:0.577;" x1="263" x2="3036" y1="1485.54" y2="1485.54"/>
  <rect height="119.336" id="left-margin" style="fill:#00AEEF;stroke:none;opacity:0.4;" width="8.74023" x="1391.3" y="1030.79"/>
  <rect height="119.336" id="right-margin" style="fill:#00AEEF;stroke:none;opacity:0.4;" width="8.74023" x="1499.65" y="1030.79"/>
 </g>
 <g id="Symbols">
  <g id="Black-L" transform="matrix(1 0 0 1 2854.05 1556)">
   <path d="M 79.3457 32.8613 C 116.748 32.8613 147.412 2.19727 147.412 -35.2051 C 147.412 -72.6074 116.748 -103.271 79.2969 -103.271 C 41.8945 -103.271 11.2793 -72.6074 11.2793 -35.2051 C 11.2793 2.19727 41.9434 32.8613 79.3457 32.8613 Z M 65.2344 -9.66797 C 61.1816 -9.66797 59.082 -12.1094 59.082 -16.8457 L 59.082 -45.8008 L 58.7891 -45.8008 L 55.8594 -42.9199 C 54.248 -41.1133 53.0273 -40.3809 50.9766 -40.3809 C 48.1934 -40.3809 45.9961 -42.7246 45.9961 -45.5566 C 45.9961 -47.998 47.0215 -49.707 49.3164 -51.8066 L 55.6641 -57.3242 C 58.8867 -60.2051 61.084 -60.9863 63.6719 -60.9863 C 68.75 -60.9863 71.3379 -57.959 71.3379 -52.832 L 71.3379 -16.8457 C 71.3379 -12.1094 69.2871 -9.66797 65.2344 -9.66797 Z M 90.1855 -9.66797 C 86.377 -9.66797 83.4961 -12.3047 83.4961 -16.3086 C 83.4961 -18.0176 83.8867 -19.2383 84.6191 -20.752 L 98.3398 -48.0469 L 98.3398 -48.4863 L 84.4238 -48.4863 C 80.957 -48.4863 77.9785 -50.4883 77.9785 -54.1992 C 77.9785 -57.959 80.8105 -60.0098 84.4238 -60.0098 L 103.711 -60.0098 C 109.619 -60.0098 112.207 -56.3965 112.207 -52.1484 C 112.207 -50.4395 111.865 -48.7305 110.986 -46.8262 L 96.7773 -14.9902 C 95.2637 -11.4258 93.6523 -9.66797 90.1855 -9.66797 Z"/>
  </g>
  <g id="Heavy-L" transform="matrix(1 0 0 1 2558.39 1556)">
   <path d="M 78.2715 31.7871 C 115.088 31.7871 145.312 1.61133 145.312 -35.2051 C 145.312 -72.0215 115.039 -102.197 78.2715 -102.197 C 41.4551 -102.197 11.2793 -72.0215 11.2793 -35.2051 C 11.2793 1.61133 41.5039 31.7871 78.2715 31.7871 Z M 63.4277 -9.17969 C 59.8633 -9.17969 57.959 -11.377 57.959 -15.5273 L 57.959 -47.7051 L 57.6172 -47.7051 L 53.4668 -44.1406 C 51.9043 -42.5293 50.8301 -41.9922 49.0723 -41.9922 C 46.582 -41.9922 44.4824 -44.1406 44.4824 -46.7773 C 44.4824 -48.9746 45.459 -50.4883 47.5098 -52.3438 L 54.8828 -58.252 C 57.8125 -60.791 59.7656 -61.4746 62.207 -61.4746 C 66.6504 -61.4746 68.9941 -58.7891 68.9941 -54.2969 L 68.9941 -15.5273 C 68.9941 -11.377 67.0898 -9.17969 63.4277 -9.17969 Z M 88.4766 -9.17969 C 85.0586 -9.17969 82.4707 -11.5723 82.4707 -15.1367 C 82.4707 -16.6992 82.7637 -17.7734 83.4473 -19.1895 L 98.9746 -49.8047 L 98.9746 -50.2441 L 82.5684 -50.2441 C 79.4434 -50.2441 76.8555 -52.0508 76.8555 -55.3223 C 76.8555 -58.6914 79.2969 -60.5469 82.5684 -60.5469 L 103.76 -60.5469 C 108.984 -60.5469 111.475 -57.2754 111.475 -53.3691 C 111.475 -51.8066 111.182 -50.1953 110.303 -48.3398 L 94.3848 -13.916 C 92.9688 -10.7422 91.5039 -9.17969 88.4766 -9.17969 Z"/>
  </g>
  <g id="Bold-L" transform="matrix(1 0 0 1 2262.88 1556)">
   <path d="M 77.0996 30.6152 C 113.232 30.6152 142.92 0.878906 142.92 -35.2051 C 142.92 -71.3379 113.184 -101.025 77.0508 -101.025 C 40.9668 -101.025 11.2793 -71.3379 11.2793 -35.2051 C 11.2793 0.878906 41.0156 30.6152 77.0996 30.6152 Z M 61.4746 -8.69141 C 58.3984 -8.69141 56.6406 -10.5957 56.6406 -14.1113 L 56.6406 -49.8535 L 56.2988 -49.8535 L 50.7812 -45.5078 C 49.3164 -44.1406 48.4375 -43.75 46.9727 -43.75 C 44.7266 -43.75 42.8223 -45.7031 42.8223 -48.0957 C 42.8223 -50.0488 43.7012 -51.416 45.459 -52.8809 L 54.0039 -59.2773 C 56.6406 -61.377 58.252 -62.0605 60.498 -62.0605 C 64.2578 -62.0605 66.3574 -59.7168 66.3574 -55.9082 L 66.3574 -14.1113 C 66.3574 -10.5957 64.6484 -8.69141 61.4746 -8.69141 Z M 86.5723 -8.64258 C 83.5449 -8.64258 81.2988 -10.791 81.2988 -13.8184 C 81.2988 -15.2344 81.543 -16.1621 82.1777 -17.3828 L 99.6582 -51.709 L 99.6582 -52.1484 L 80.5176 -52.1484 C 77.7344 -52.1484 75.5859 -53.8086 75.5859 -56.6406 C 75.5859 -59.5215 77.6367 -61.1816 80.5176 -61.1816 L 103.76 -61.1816 C 108.301 -61.1816 110.645 -58.3008 110.645 -54.7363 C 110.645 -53.3203 110.4 -51.9043 109.521 -50.0488 L 91.6992 -12.6953 C 90.4785 -9.96094 89.1113 -8.64258 86.5723 -8.64258 Z"/>
  </g>
  <g id="Semibold-L" transform="matrix(1 0 0 1 1966.97 1556)">
   <path d="M 76.2695 29.7852 C 111.914 29.7852 141.309 0.439453 141.309 -35.2051 C 141.309 -70.8496 111.865 -100.244 76.2695 -100.244 C 40.625 -100.244 11.2793 -70.8496 11.2793 -35.2051 C 11.2793 0.439453 40.6738 29.7852 76.2695 29.7852 Z M 60.1074 -8.30078 C 57.373 -8.30078 55.7617 -10.0586 55.7617 -13.0859 L 55.7617 -51.3184 L 55.3711 -51.3184 L 48.9258 -46.4844 C 47.5098 -45.2637 46.7285 -44.9707 45.5078 -44.9707 C 43.457 -44.9707 41.6504 -46.7773 41.6504 -49.0234 C 41.6504 -50.7812 42.4805 -52.002 44.043 -53.2715 L 53.418 -59.9609 C 55.8105 -61.8164 57.2266 -62.4512 59.375 -62.4512 C 62.5977 -62.4512 64.5508 -60.3516 64.5508 -57.0312 L 64.5508 -13.0859 C 64.5508 -10.0586 62.9395 -8.30078 60.1074 -8.30078 Z M 85.2539 -8.25195 C 82.5195 -8.25195 80.4688 -10.2539 80.4688 -12.9395 C 80.4688 -14.209 80.7129 -15.0879 81.25 -16.1621 L 100.146 -53.0762 L 100.146 -53.5156 L 79.0527 -53.5156 C 76.5625 -53.5156 74.707 -55.0293 74.707 -57.5195 C 74.707 -60.1074 76.5137 -61.6211 79.0527 -61.6211 L 103.809 -61.6211 C 107.812 -61.6211 110.107 -58.9844 110.107 -55.7129 C 110.107 -54.3457 109.863 -53.0762 108.936 -51.2207 L 89.8438 -11.8652 C 88.7207 -9.42383 87.4512 -8.25195 85.2539 -8.25195 Z"/>
  </g>
  <g id="Medium-L" transform="matrix(1 0 0 1 1670.87 1556)">
   <path d="M 75.6836 29.1992 C 110.938 29.1992 140.088 0.0488281 140.088 -35.2051 C 140.088 -70.459 110.889 -99.6094 75.6348 -99.6094 C 40.3809 -99.6094 11.2793 -70.459 11.2793 -35.2051 C 11.2793 0.0488281 40.3809 29.1992 75.6836 29.1992 Z M 59.082 -8.00781 C 56.6406 -8.00781 55.0781 -9.66797 55.0781 -12.3535 L 55.0781 -52.4414 L 54.6875 -52.4414 L 47.5098 -47.2168 C 46.1426 -46.0938 45.459 -45.8984 44.3848 -45.8984 C 42.4805 -45.8984 40.7715 -47.6074 40.7715 -49.707 C 40.7715 -51.3184 41.5527 -52.4902 42.9688 -53.5645 L 52.9297 -60.5469 C 55.1758 -62.1582 56.4453 -62.7441 58.4961 -62.7441 C 61.3281 -62.7441 63.1836 -60.8398 63.1836 -57.8613 L 63.1836 -12.3535 C 63.1836 -9.66797 61.6699 -8.00781 59.082 -8.00781 Z M 84.2773 -7.95898 C 81.7383 -7.95898 79.8828 -9.81445 79.8828 -12.2559 C 79.8828 -13.4277 80.0781 -14.209 80.5664 -15.1855 L 100.537 -54.1016 L 100.537 -54.541 L 77.9785 -54.541 C 75.6836 -54.541 74.0234 -55.957 74.0234 -58.2031 C 74.0234 -60.5469 75.6348 -61.9629 77.9785 -61.9629 L 103.809 -61.9629 C 107.471 -61.9629 109.668 -59.5215 109.668 -56.4453 C 109.668 -55.127 109.424 -53.9551 108.545 -52.0996 L 88.4277 -11.2793 C 87.4023 -8.98438 86.1816 -7.95898 84.2773 -7.95898 Z"/>
  </g>
  <g id="Regular-L" transform="matrix(1 0 0 1 1374.97 1556)">
   <path d="M 74.8535 28.3691 C 109.668 28.3691 138.477 -0.390625 138.477 -35.2051 C 138.477 -70.0195 109.619 -98.7793 74.8047 -98.7793 C 40.0391 -98.7793 11.2793 -70.0195 11.2793 -35.2051 C 11.2793 -0.390625 40.0879 28.3691 74.8535 28.3691 Z M 57.7148 -7.66602 C 55.6152 -7.66602 54.1992 -9.13086 54.1992 -11.377 L 54.1992 -53.9062 L 53.8086 -53.9062 L 45.6543 -48.1445 C 44.3848 -47.168 43.8477 -47.1191 42.9688 -47.1191 C 41.2109 -47.1191 39.5996 -48.6328 39.5996 -50.6348 C 39.5996 -52.0996 40.332 -53.125 41.6016 -53.9551 L 52.3438 -61.2305 C 54.3457 -62.5977 55.4688 -63.1348 57.3242 -63.1348 C 59.7168 -63.1348 61.377 -61.4258 61.377 -58.9355 L 61.377 -11.377 C 61.377 -9.13086 59.9609 -7.66602 57.7148 -7.66602 Z M 82.959 -7.61719 C 80.7617 -7.61719 79.0527 -9.27734 79.0527 -11.377 C 79.0527 -12.4023 79.248 -13.1348 79.6875 -13.9648 L 101.025 -55.4199 L 101.025 -55.8594 L 76.5625 -55.8594 C 74.5117 -55.8594 73.1445 -57.1289 73.1445 -59.082 C 73.1445 -61.084 74.5117 -62.4023 76.5625 -62.4023 L 103.809 -62.4023 C 106.982 -62.4023 109.131 -60.2051 109.131 -57.373 C 109.131 -56.1523 108.887 -55.0781 108.008 -53.2227 L 86.6211 -10.4492 C 85.6445 -8.44727 84.5215 -7.61719 82.959 -7.61719 Z"/>
  </g>
  <g id="Light-L" transform="matrix(1 0 0 1 1079.18 1556)">
   <path d="M 73.9258 27.4902 C 108.301 27.4902 136.621 -0.830078 136.621 -35.1562 C 136.621 -69.5312 108.252 -97.8516 73.9258 -97.8516 C 39.5508 -97.8516 11.2793 -69.5312 11.2793 -35.1562 C 11.2793 -0.830078 39.5996 27.4902 73.9258 27.4902 Z M 56.5918 -7.86133 C 54.9316 -7.86133 53.7598 -9.0332 53.7598 -10.8398 L 53.7598 -55.4199 L 53.418 -55.4199 L 43.7988 -48.877 C 42.8223 -48.1934 42.4316 -48.1934 41.748 -48.1934 C 40.2832 -48.1934 39.0625 -49.4141 39.0625 -50.9766 C 39.0625 -52.0996 39.5508 -52.8809 40.625 -53.5645 L 52.3926 -61.4258 C 53.8574 -62.4023 54.7363 -62.793 56.25 -62.793 C 58.1543 -62.793 59.5215 -61.5234 59.5215 -59.5215 L 59.5215 -10.8398 C 59.5215 -9.0332 58.4473 -7.86133 56.5918 -7.86133 Z M 81.543 -7.86133 C 79.7363 -7.86133 78.418 -9.22852 78.418 -10.8398 C 78.418 -11.6211 78.5645 -12.207 78.9062 -12.8906 L 101.27 -56.6406 L 101.27 -56.9824 L 75.1953 -56.9824 C 73.4863 -56.9824 72.4121 -58.0566 72.4121 -59.6191 C 72.4121 -61.3281 73.4863 -62.3535 75.1953 -62.3535 L 103.271 -62.3535 C 105.908 -62.3535 107.715 -60.5957 107.715 -58.3008 C 107.715 -57.2754 107.568 -56.4453 106.836 -54.9316 L 84.4727 -10.0586 C 83.7402 -8.49609 82.8613 -7.86133 81.543 -7.86133 Z"/>
  </g>
  <g id="Thin-L" transform="matrix(1 0 0 1 783.693 1556)">
   <path d="M 72.7051 26.3184 C 106.494 26.3184 134.18 -1.36719 134.18 -35.1074 C 134.18 -68.8965 106.494 -96.582 72.7051 -96.582 C 38.9648 -96.582 11.2793 -68.8965 11.2793 -35.1074 C 11.2793 -1.36719 38.9648 26.3184 72.7051 26.3184 Z M 55.0781 -8.1543 C 54.0039 -8.1543 53.1738 -8.93555 53.1738 -10.1074 L 53.1738 -57.4219 L 52.9297 -57.4219 L 41.3086 -49.8047 C 40.7715 -49.5605 40.5762 -49.5605 40.1855 -49.5605 C 39.1113 -49.5605 38.3301 -50.3906 38.3301 -51.416 C 38.3301 -52.0996 38.5742 -52.6367 39.3555 -53.0762 L 52.4414 -61.6699 C 53.2715 -62.207 53.8086 -62.4023 54.834 -62.4023 C 56.0547 -62.4023 57.0312 -61.6211 57.0312 -60.2539 L 57.0312 -10.1074 C 57.0312 -8.93555 56.3965 -8.1543 55.0781 -8.1543 Z M 79.6387 -8.1543 C 78.3691 -8.1543 77.5879 -9.13086 77.5879 -10.1074 C 77.5879 -10.5957 77.6855 -10.9863 77.8809 -11.4258 L 101.66 -58.252 L 101.66 -58.4961 L 73.4375 -58.4961 C 72.168 -58.4961 71.4355 -59.2285 71.4355 -60.4004 C 71.4355 -61.5723 72.168 -62.3047 73.4375 -62.3047 L 102.588 -62.3047 C 104.541 -62.3047 105.908 -61.1816 105.908 -59.5703 C 105.908 -58.7402 105.762 -58.252 105.273 -57.1777 L 81.6895 -9.57031 C 81.2012 -8.54492 80.6152 -8.1543 79.6387 -8.1543 Z"/>
  </g>
  <g id="Ultralight-L" transform="matrix(1 0 0 1 487.616 1556)">
   <path d="M 72.1191 25.7324 C 105.566 25.7324 132.91 -1.61133 132.91 -35.1074 C 132.91 -68.5547 105.566 -95.8984 72.1191 -95.8984 C 38.623 -95.8984 11.2793 -68.5547 11.2793 -35.1074 C 11.2793 -1.61133 38.623 25.7324 72.1191 25.7324 Z M 78.7109 -8.34961 C 77.6855 -8.34961 77.1973 -9.13086 77.1973 -9.76562 C 77.1973 -10.1074 77.2461 -10.3516 77.3926 -10.6934 L 101.855 -59.082 L 101.855 -59.2773 L 72.5098 -59.2773 C 71.5332 -59.2773 70.9473 -59.8633 70.9473 -60.791 C 70.9473 -61.7188 71.5332 -62.2559 72.5098 -62.2559 L 102.197 -62.2559 C 103.809 -62.2559 104.98 -61.4746 104.98 -60.2051 C 104.98 -59.5215 104.834 -59.1797 104.492 -58.3496 L 80.2246 -9.32617 C 79.8828 -8.59375 79.4922 -8.34961 78.7109 -8.34961 Z M 54.3457 -8.30078 C 53.5156 -8.30078 52.8809 -8.83789 52.8809 -9.76562 L 52.8809 -58.4473 L 52.6367 -58.4473 L 40.0391 -50.293 C 39.7461 -50.2441 39.5996 -50.2441 39.3555 -50.2441 C 38.4766 -50.2441 37.9395 -50.8789 37.9395 -51.6113 C 37.9395 -52.0996 38.0371 -52.4902 38.7207 -52.832 L 52.4902 -61.7676 C 52.9297 -62.0605 53.3691 -62.207 54.1016 -62.207 C 54.9805 -62.207 55.7617 -61.6699 55.7617 -60.6445 L 55.7617 -9.76562 C 55.7617 -8.83789 55.3223 -8.30078 54.3457 -8.30078 Z"/>
  </g>
  <g id="Black-M" transform="matrix(1 0 0 1 2870.97 1126)">
   <path d="M 62.4023 18.457 C 91.9922 18.457 116.113 -5.61523 116.113 -35.2051 C 116.113 -64.7949 91.9922 -88.8672 62.4023 -88.8672 C 32.8125 -88.8672 8.74023 -64.7949 8.74023 -35.2051 C 8.74023 -5.61523 32.8125 18.457 62.4023 18.457 Z M 52.3438 -16.2109 C 48.8281 -16.2109 47.1191 -18.2129 47.1191 -22.4121 L 47.1191 -41.6504 L 46.9238 -41.6504 L 45.5078 -39.8926 C 44.3359 -38.3789 43.2617 -37.6465 41.4062 -37.6465 C 39.1113 -37.6465 37.3535 -39.5508 37.3535 -41.7969 C 37.3535 -43.7988 38.1836 -45.2637 40.1855 -47.2168 L 44.2383 -51.1719 C 46.875 -53.7598 48.7305 -54.3457 50.7812 -54.3457 C 55.3223 -54.3457 57.4707 -51.7578 57.4707 -47.2168 L 57.4707 -22.4121 C 57.4707 -18.2129 55.8594 -16.2109 52.3438 -16.2109 Z M 71.4355 -16.2109 C 68.1641 -16.2109 65.7715 -18.4082 65.7715 -21.8262 C 65.7715 -23.291 66.1133 -24.2676 66.748 -25.5859 L 75.4883 -43.457 L 75.4883 -43.7988 L 67.2363 -43.7988 C 64.2578 -43.7988 61.5723 -45.4102 61.5723 -48.6816 C 61.5723 -51.9531 64.0625 -53.6621 67.2363 -53.6621 L 80.0781 -53.6621 C 85.2539 -53.6621 87.207 -50.6348 87.207 -47.2168 C 87.207 -45.8008 86.9141 -44.3848 86.377 -43.0664 L 77.0996 -20.8008 C 75.8301 -17.7734 74.6094 -16.2109 71.4355 -16.2109 Z"/>
  </g>
  <g id="Heavy-M" transform="matrix(1 0 0 1 2575.19 1126)">
   <path d="M 61.5234 17.5781 C 90.5273 17.5781 114.258 -6.15234 114.258 -35.2051 C 114.258 -64.2578 90.5273 -87.9883 61.4746 -87.9883 C 32.4707 -87.9883 8.74023 -64.2578 8.74023 -35.2051 C 8.74023 -6.15234 32.4707 17.5781 61.5234 17.5781 Z M 50.6836 -15.625 C 47.5586 -15.625 45.9473 -17.4316 45.9473 -21.1426 L 45.9473 -43.3594 L 45.752 -43.3594 L 43.3594 -41.0645 C 42.1875 -39.6973 41.2598 -39.1113 39.6484 -39.1113 C 37.5488 -39.1113 35.8887 -40.918 35.8887 -43.0176 C 35.8887 -44.873 36.6211 -46.1914 38.4277 -47.8516 L 43.3594 -52.1484 C 45.8008 -54.3945 47.4609 -54.9805 49.4629 -54.9805 C 53.418 -54.9805 55.3711 -52.6367 55.3711 -48.6328 L 55.3711 -21.1426 C 55.3711 -17.4316 53.8574 -15.625 50.6836 -15.625 Z M 69.9219 -15.5762 C 66.9922 -15.5762 64.7949 -17.627 64.7949 -20.7031 C 64.7949 -22.0215 65.0879 -22.9492 65.6738 -24.1211 L 76.123 -45.0684 L 76.123 -45.3613 L 65.5273 -45.3613 C 62.8418 -45.3613 60.498 -46.875 60.498 -49.8047 C 60.498 -52.7344 62.6953 -54.248 65.5273 -54.248 L 80.2246 -54.248 C 84.8145 -54.248 86.7676 -51.5137 86.7676 -48.291 C 86.7676 -46.9727 86.5234 -45.6543 85.8887 -44.2871 L 75.0488 -19.7266 C 73.877 -16.9922 72.6562 -15.5762 69.9219 -15.5762 Z"/>
  </g>
  <g id="Bold-M" transform="matrix(1 0 0 1 2279.5 1126)">
   <path d="M 60.498 16.5039 C 88.8672 16.5039 112.207 -6.78711 112.207 -35.2051 C 112.207 -63.623 88.8672 -86.9629 60.4492 -86.9629 C 32.0312 -86.9629 8.74023 -63.623 8.74023 -35.2051 C 8.74023 -6.78711 32.0801 16.5039 60.498 16.5039 Z M 48.8281 -14.9414 C 46.1426 -14.9414 44.6777 -16.6504 44.6777 -19.7266 L 44.6777 -45.2637 L 44.4336 -45.2637 L 40.9668 -42.3828 C 39.7949 -41.1621 39.0137 -40.7227 37.6953 -40.7227 C 35.791 -40.7227 34.1797 -42.3828 34.1797 -44.3848 C 34.1797 -46.0449 34.9121 -47.2168 36.4746 -48.584 L 42.3828 -53.2227 C 44.6289 -55.127 46.0449 -55.6641 47.9004 -55.6641 C 51.2695 -55.6641 53.0273 -53.6133 53.0273 -50.2441 L 53.0273 -19.7266 C 53.0273 -16.6504 51.6113 -14.9414 48.8281 -14.9414 Z M 68.2617 -14.9414 C 65.6738 -14.9414 63.7207 -16.748 63.7207 -19.4336 C 63.7207 -20.6543 63.9648 -21.4355 64.4531 -22.5098 L 76.8066 -46.8262 L 76.8066 -47.168 L 63.6719 -47.168 C 61.2793 -47.168 59.3262 -48.5352 59.3262 -51.0254 C 59.3262 -53.5645 61.1816 -54.9805 63.6719 -54.9805 L 80.4199 -54.9805 C 84.375 -54.9805 86.2793 -52.4902 86.2793 -49.5117 C 86.2793 -48.291 86.0352 -47.1191 85.3516 -45.6543 L 72.7051 -18.5059 C 71.6797 -16.1133 70.5078 -14.9414 68.2617 -14.9414 Z"/>
  </g>
  <g id="Semibold-M" transform="matrix(1 0 0 1 1983.5 1126)">
   <path d="M 59.7656 15.8203 C 87.7441 15.8203 110.791 -7.22656 110.791 -35.2051 C 110.791 -63.1836 87.6953 -86.2793 59.7656 -86.2793 C 31.7871 -86.2793 8.74023 -63.1836 8.74023 -35.2051 C 8.74023 -7.22656 31.7871 15.8203 59.7656 15.8203 Z M 47.6074 -14.502 C 45.166 -14.502 43.7988 -16.0645 43.7988 -18.75 L 43.7988 -46.5332 L 43.5059 -46.5332 L 39.3555 -43.2617 C 38.1348 -42.1387 37.4512 -41.8945 36.3281 -41.8945 C 34.5703 -41.8945 33.0566 -43.4082 33.0566 -45.3125 C 33.0566 -46.875 33.7402 -47.9492 35.1562 -49.0723 L 41.6992 -53.9551 C 43.7988 -55.6641 45.0684 -56.1523 46.875 -56.1523 C 49.7559 -56.1523 51.4648 -54.2969 51.4648 -51.3672 L 51.4648 -18.75 C 51.4648 -16.0645 50.0488 -14.502 47.6074 -14.502 Z M 67.1387 -14.502 C 64.7461 -14.502 62.9395 -16.1621 62.9395 -18.5547 C 62.9395 -19.6777 63.1836 -20.4102 63.623 -21.3379 L 77.2949 -48.0469 L 77.2949 -48.3887 L 62.3535 -48.3887 C 60.2051 -48.3887 58.5449 -49.707 58.5449 -51.9043 C 58.5449 -54.1504 60.1562 -55.4688 62.3535 -55.4688 L 80.5664 -55.4688 C 84.0332 -55.4688 85.9375 -53.1738 85.9375 -50.3418 C 85.9375 -49.2188 85.6934 -48.0957 85.0098 -46.582 L 71.0938 -17.6758 C 70.1172 -15.5273 69.043 -14.502 67.1387 -14.502 Z"/>
  </g>
  <g id="Medium-M" transform="matrix(1 0 0 1 1687.3 1126)">
   <path d="M 59.2285 15.2832 C 86.9141 15.2832 109.766 -7.56836 109.766 -35.2051 C 109.766 -62.8906 86.8652 -85.7422 59.1797 -85.7422 C 31.543 -85.7422 8.74023 -62.8906 8.74023 -35.2051 C 8.74023 -7.56836 31.5918 15.2832 59.2285 15.2832 Z M 46.6309 -14.1602 C 44.4336 -14.1602 43.1152 -15.625 43.1152 -18.0176 L 43.1152 -47.5586 L 42.8223 -47.5586 L 38.0859 -43.9453 C 36.9141 -42.9199 36.2793 -42.7246 35.3027 -42.7246 C 33.6426 -42.7246 32.1777 -44.1895 32.1777 -46.0449 C 32.1777 -47.4609 32.8613 -48.4863 34.1309 -49.4629 L 41.2109 -54.541 C 43.1641 -56.0059 44.3359 -56.543 46.0938 -56.543 C 48.6328 -56.543 50.2441 -54.834 50.2441 -52.1973 L 50.2441 -18.0176 C 50.2441 -15.625 48.877 -14.1602 46.6309 -14.1602 Z M 66.2598 -14.1602 C 64.0625 -14.1602 62.4023 -15.7227 62.4023 -17.9199 C 62.4023 -18.9453 62.5488 -19.6289 63.0371 -20.5078 L 77.6367 -48.9746 L 77.6367 -49.3164 L 61.377 -49.3164 C 59.375 -49.3164 57.9102 -50.5371 57.9102 -52.5391 C 57.9102 -54.5898 59.3262 -55.8105 61.377 -55.8105 L 80.6641 -55.8105 C 83.8379 -55.8105 85.6934 -53.6621 85.6934 -51.0254 C 85.6934 -49.9023 85.498 -48.877 84.7168 -47.3145 L 69.9219 -17.041 C 68.9941 -15.0879 67.9199 -14.1602 66.2598 -14.1602 Z"/>
  </g>
  <g id="Regular-M" transform="matrix(1 0 0 1 1391.3 1126)">
   <path d="M 58.5449 14.5508 C 85.791 14.5508 108.35 -8.00781 108.35 -35.2539 C 108.35 -62.4512 85.7422 -85.0586 58.4961 -85.0586 C 31.2988 -85.0586 8.74023 -62.4512 8.74023 -35.2539 C 8.74023 -8.00781 31.3477 14.5508 58.5449 14.5508 Z M 45.3613 -13.7207 C 43.5059 -13.7207 42.2363 -15.0391 42.2363 -17.041 L 42.2363 -48.8281 L 41.9434 -48.8281 L 36.4746 -44.8242 C 35.2539 -43.8965 34.7656 -43.8477 33.9844 -43.8477 C 32.4219 -43.8477 31.0059 -45.2148 31.0059 -46.9727 C 31.0059 -48.291 31.6895 -49.2188 32.7637 -49.9512 L 40.5762 -55.2734 C 42.3828 -56.4941 43.3594 -57.0312 45.0195 -57.0312 C 47.168 -57.0312 48.6328 -55.5176 48.6328 -53.3203 L 48.6328 -17.041 C 48.6328 -15.0391 47.3633 -13.7207 45.3613 -13.7207 Z M 65.0879 -13.6719 C 63.1348 -13.6719 61.6211 -15.1367 61.6211 -17.041 C 61.6211 -17.9688 61.7676 -18.6523 62.207 -19.3848 L 78.125 -50.1953 L 78.125 -50.5371 L 60.1074 -50.5371 C 58.3008 -50.5371 57.1289 -51.709 57.1289 -53.3691 C 57.1289 -55.1758 58.3008 -56.2988 60.1074 -56.2988 L 80.7617 -56.2988 C 83.4961 -56.2988 85.3516 -54.3457 85.3516 -51.8555 C 85.3516 -50.7812 85.1562 -49.8535 84.375 -48.2422 L 68.3105 -16.2109 C 67.4805 -14.4531 66.4551 -13.6719 65.0879 -13.6719 Z"/>
  </g>
  <g id="Light-M" transform="matrix(1 0 0 1 1095.42 1126)">
   <path d="M 57.7148 13.7695 C 84.5215 13.7695 106.689 -8.39844 106.689 -35.2051 C 106.689 -62.0117 84.5215 -84.1797 57.666 -84.1797 C 30.8594 -84.1797 8.74023 -62.0117 8.74023 -35.2051 C 8.74023 -8.39844 30.9082 13.7695 57.7148 13.7695 Z M 44.3848 -13.916 C 42.8711 -13.916 41.8457 -14.9902 41.8457 -16.5527 L 41.8457 -50.1953 L 41.5527 -50.1953 L 34.7656 -45.459 C 33.8867 -44.8242 33.4961 -44.7754 32.9102 -44.7754 C 31.6406 -44.7754 30.5176 -45.8984 30.5176 -47.2656 C 30.5176 -48.291 31.0059 -49.0234 31.9336 -49.6094 L 40.5762 -55.4199 C 41.9434 -56.3477 42.7246 -56.7383 44.0918 -56.7383 C 45.752 -56.7383 46.9727 -55.5664 46.9727 -53.8086 L 46.9727 -16.5527 C 46.9727 -14.9902 45.9961 -13.916 44.3848 -13.916 Z M 63.8184 -13.916 C 62.2559 -13.916 61.084 -15.0879 61.084 -16.5527 C 61.084 -17.2852 61.1816 -17.8223 61.5234 -18.4082 L 78.3691 -51.2695 L 78.3691 -51.5625 L 58.8867 -51.5625 C 57.4219 -51.5625 56.4453 -52.4902 56.4453 -53.9062 C 56.4453 -55.3711 57.4219 -56.25 58.8867 -56.25 L 80.2734 -56.25 C 82.5684 -56.25 84.1309 -54.7363 84.1309 -52.6855 C 84.1309 -51.8066 83.9355 -51.0742 83.3008 -49.7559 L 66.4062 -15.918 C 65.7715 -14.502 64.9414 -13.916 63.8184 -13.916 Z"/>
  </g>
  <g id="Thin-M" transform="matrix(1 0 0 1 799.806 1126)">
   <path d="M 56.6406 12.7441 C 82.9102 12.7441 104.492 -8.83789 104.492 -35.1562 C 104.492 -61.4746 82.9102 -83.0566 56.5918 -83.0566 C 30.3223 -83.0566 8.74023 -61.4746 8.74023 -35.1562 C 8.74023 -8.83789 30.3223 12.7441 56.6406 12.7441 Z M 43.0176 -14.209 C 42.041 -14.209 41.3574 -14.8926 41.3574 -15.918 L 41.3574 -52.002 L 41.1133 -52.002 L 32.5195 -46.3379 C 32.0312 -46.0449 31.8359 -46.0449 31.4941 -46.0449 C 30.5664 -46.0449 29.8828 -46.7285 29.8828 -47.6562 C 29.8828 -48.291 30.127 -48.7793 30.7617 -49.1699 L 40.625 -55.6641 C 41.4062 -56.1523 41.8945 -56.3965 42.8223 -56.3965 C 43.8965 -56.3965 44.7266 -55.6641 44.7266 -54.4434 L 44.7266 -15.918 C 44.7266 -14.8926 44.1406 -14.209 43.0176 -14.209 Z M 62.1582 -14.209 C 61.0352 -14.209 60.3027 -15.0391 60.3027 -15.918 C 60.3027 -16.3574 60.4004 -16.6992 60.5957 -17.0898 L 78.7109 -52.7344 L 78.7109 -52.9297 L 57.2754 -52.9297 C 56.25 -52.9297 55.5664 -53.5645 55.5664 -54.5898 C 55.5664 -55.5664 56.25 -56.2012 57.2754 -56.2012 L 79.6387 -56.2012 C 81.2988 -56.2012 82.4707 -55.2246 82.4707 -53.8086 C 82.4707 -53.125 82.373 -52.6855 81.9336 -51.7578 L 63.916 -15.4785 C 63.4766 -14.5508 62.9883 -14.209 62.1582 -14.209 Z"/>
  </g>
  <g id="Ultralight-M" transform="matrix(1 0 0 1 503.656 1126)">
   <path d="M 56.0547 12.207 C 82.0801 12.207 103.369 -9.08203 103.369 -35.1562 C 103.369 -61.1816 82.0801 -82.4707 56.0547 -82.4707 C 30.0293 -82.4707 8.74023 -61.1816 8.74023 -35.1562 C 8.74023 -9.08203 30.0293 12.207 56.0547 12.207 Z M 61.2793 -14.3555 C 60.4004 -14.3555 59.9609 -14.9902 59.9609 -15.625 C 59.9609 -15.918 60.0098 -16.1621 60.1074 -16.4551 L 78.8574 -53.4668 L 78.8574 -53.6621 L 56.4941 -53.6621 C 55.6152 -53.6621 55.127 -54.1504 55.127 -54.9316 C 55.127 -55.7129 55.6152 -56.2012 56.4941 -56.2012 L 79.3457 -56.2012 C 80.6641 -56.2012 81.6406 -55.4688 81.6406 -54.3945 C 81.6406 -53.8086 81.543 -53.5156 81.25 -52.7832 L 62.5977 -15.2344 C 62.3047 -14.5508 61.9629 -14.3555 61.2793 -14.3555 Z M 42.334 -14.3066 C 41.6016 -14.3066 41.0645 -14.7949 41.0645 -15.625 L 41.0645 -52.9297 L 40.8691 -52.9297 L 31.3965 -46.7773 C 31.1035 -46.6309 31.0059 -46.6309 30.7617 -46.6309 C 30.0293 -46.6309 29.541 -47.2168 29.541 -47.8516 C 29.541 -48.291 29.6387 -48.6328 30.1758 -48.9746 L 40.6738 -55.7617 C 41.1133 -56.0547 41.5039 -56.2012 42.1387 -56.2012 C 42.9199 -56.2012 43.6035 -55.7129 43.6035 -54.7852 L 43.6035 -15.625 C 43.6035 -14.7949 43.2129 -14.3066 42.334 -14.3066 Z"/>
  </g>
  <g id="Black-S" transform="matrix(1 0 0 1 2884.57 696)">
   <path d="M 48.8281 6.78711 C 71.9727 6.78711 90.8203 -12.0605 90.8203 -35.2051 C 90.8203 -58.3496 71.9727 -77.1973 48.8281 -77.1973 C 25.6836 -77.1973 6.83594 -58.3496 6.83594 -35.2051 C 6.83594 -12.0605 25.6836 6.78711 48.8281 6.78711 Z M 40.8691 -20.2637 C 38.1348 -20.2637 36.8164 -21.8262 36.8164 -25.0977 L 36.8164 -40.3809 L 36.6699 -40.3809 L 35.498 -38.9648 C 34.5703 -37.793 33.7402 -37.207 32.3242 -37.207 C 30.5176 -37.207 29.1504 -38.7207 29.1504 -40.4785 C 29.1504 -42.041 29.7852 -43.1641 31.3477 -44.6777 L 34.5703 -47.8027 C 36.6211 -49.8047 38.0859 -50.2441 39.6973 -50.2441 C 43.2129 -50.2441 44.873 -48.2422 44.873 -44.7266 L 44.873 -25.0977 C 44.873 -21.8262 43.6035 -20.2637 40.8691 -20.2637 Z M 55.8594 -20.2637 C 53.3203 -20.2637 51.4648 -21.9727 51.4648 -24.6582 C 51.4648 -25.7812 51.709 -26.5625 52.1973 -27.5879 L 59.1797 -41.7969 L 59.1797 -42.041 L 52.5391 -42.041 C 50.2441 -42.041 48.1445 -43.3105 48.1445 -45.8496 C 48.1445 -48.3887 50.0977 -49.707 52.5391 -49.707 L 62.7441 -49.707 C 66.748 -49.707 68.3105 -47.3633 68.3105 -44.6777 C 68.3105 -43.6035 68.0664 -42.4805 67.627 -41.4551 L 60.2539 -23.8281 C 59.2773 -21.4844 58.3008 -20.2637 55.8594 -20.2637 Z"/>
  </g>
  <g id="Heavy-S" transform="matrix(1 0 0 1 2588.47 696)">
   <path d="M 48.2422 6.15234 C 70.9961 6.15234 89.5996 -12.4512 89.5996 -35.2051 C 89.5996 -57.959 70.9961 -76.6113 48.1934 -76.6113 C 25.4395 -76.6113 6.83594 -57.959 6.83594 -35.2051 C 6.83594 -12.4512 25.4395 6.15234 48.2422 6.15234 Z M 39.7461 -19.7754 C 37.2559 -19.7754 35.9863 -21.2891 35.9863 -24.1699 L 35.9863 -41.5039 L 35.791 -41.5039 L 34.0332 -39.7949 C 33.1055 -38.6719 32.3242 -38.2324 31.1035 -38.2324 C 29.3945 -38.2324 28.0762 -39.6484 28.0762 -41.3574 C 28.0762 -42.8711 28.7109 -43.8965 30.127 -45.2148 L 33.8867 -48.5352 C 35.8398 -50.3418 37.207 -50.7812 38.7695 -50.7812 C 41.8945 -50.7812 43.457 -48.9258 43.457 -45.752 L 43.457 -24.1699 C 43.457 -21.2891 42.2363 -19.7754 39.7461 -19.7754 Z M 54.834 -19.7754 C 52.5391 -19.7754 50.7812 -21.3867 50.7812 -23.8281 C 50.7812 -24.9023 50.9766 -25.6348 51.4648 -26.5625 L 59.6191 -42.8711 L 59.6191 -43.1641 L 51.3672 -43.1641 C 49.2676 -43.1641 47.4121 -44.3359 47.4121 -46.6309 C 47.4121 -48.9258 49.1699 -50.1953 51.3672 -50.1953 L 62.9395 -50.1953 C 66.5527 -50.1953 68.1152 -47.998 68.1152 -45.4102 C 68.1152 -44.3848 67.8711 -43.3105 67.3828 -42.2363 L 58.8867 -23.0469 C 57.959 -20.8984 56.9824 -19.7754 54.834 -19.7754 Z"/>
  </g>
  <g id="Bold-S" transform="matrix(1 0 0 1 2292.44 696)">
   <path d="M 47.5586 5.46875 C 69.873 5.46875 88.2324 -12.8906 88.2324 -35.2051 C 88.2324 -57.5684 69.873 -75.9277 47.5098 -75.9277 C 25.1953 -75.9277 6.83594 -57.5684 6.83594 -35.2051 C 6.83594 -12.8906 25.1953 5.46875 47.5586 5.46875 Z M 38.4277 -19.2871 C 36.2793 -19.2871 35.0586 -20.6543 35.0586 -23.1445 L 35.0586 -42.8223 L 34.8145 -42.8223 L 32.4219 -40.7227 C 31.4453 -39.6973 30.8105 -39.3555 29.7363 -39.3555 C 28.1738 -39.3555 26.8555 -40.7227 26.8555 -42.3828 C 26.8555 -43.75 27.4414 -44.7266 28.7109 -45.8008 L 33.1543 -49.3164 C 35.0098 -50.8789 36.1816 -51.3672 37.6953 -51.3672 C 40.4297 -51.3672 41.8945 -49.6582 41.8945 -46.9238 L 41.8945 -23.1445 C 41.8945 -20.6543 40.6738 -19.2871 38.4277 -19.2871 Z M 53.7109 -19.2383 C 51.6113 -19.2383 50 -20.752 50 -22.9492 C 50 -23.9258 50.1953 -24.6094 50.6348 -25.4395 L 60.1074 -44.0918 L 60.1074 -44.3848 L 50.0977 -44.3848 C 48.1934 -44.3848 46.582 -45.5078 46.582 -47.5098 C 46.582 -49.5605 48.0957 -50.7324 50.0977 -50.7324 L 63.1348 -50.7324 C 66.3086 -50.7324 67.8711 -48.6816 67.8711 -46.2402 C 67.8711 -45.2637 67.6758 -44.2871 67.0898 -43.0664 L 57.3242 -22.168 C 56.4941 -20.2148 55.5664 -19.2383 53.7109 -19.2383 Z"/>
  </g>
  <g id="Semibold-S" transform="matrix(1 0 0 1 1996.2 696)">
   <path d="M 47.0703 4.98047 C 69.0918 4.98047 87.3047 -13.1836 87.3047 -35.2539 C 87.3047 -57.2754 69.0918 -75.4883 47.0215 -75.4883 C 25 -75.4883 6.83594 -57.2754 6.83594 -35.2539 C 6.83594 -13.1836 25.0488 4.98047 47.0703 4.98047 Z M 37.5488 -18.8965 C 35.5469 -18.8965 34.4238 -20.2148 34.4238 -22.4609 L 34.4238 -43.7012 L 34.1797 -43.7012 L 31.2988 -41.3086 C 30.2734 -40.3809 29.6875 -40.1855 28.7598 -40.1855 C 27.2949 -40.1855 25.9766 -41.4551 25.9766 -43.0664 C 25.9766 -44.3848 26.6113 -45.2637 27.7832 -46.1914 L 32.666 -49.9023 C 34.4238 -51.2695 35.498 -51.7578 37.0117 -51.7578 C 39.4043 -51.7578 40.8203 -50.1953 40.8203 -47.7539 L 40.8203 -22.4609 C 40.8203 -20.2148 39.6484 -18.8965 37.5488 -18.8965 Z M 52.9785 -18.8965 C 50.9766 -18.8965 49.4629 -20.3125 49.4629 -22.3145 C 49.4629 -23.2422 49.6582 -23.877 50.0488 -24.6582 L 60.4492 -44.9219 L 60.4492 -45.2637 L 49.2188 -45.2637 C 47.4121 -45.2637 46.0449 -46.3379 46.0449 -48.1445 C 46.0449 -50 47.3633 -51.123 49.2188 -51.123 L 63.2812 -51.123 C 66.1621 -51.123 67.7246 -49.1699 67.7246 -46.8262 C 67.7246 -45.8984 67.5293 -44.9219 66.8945 -43.6523 L 56.2988 -21.582 C 55.4688 -19.7754 54.541 -18.8965 52.9785 -18.8965 Z"/>
  </g>
  <g id="Medium-S" transform="matrix(1 0 0 1 1699.83 696)">
   <path d="M 46.7285 4.63867 C 68.5547 4.63867 86.6211 -13.4277 86.6211 -35.2539 C 86.6211 -57.0312 68.5059 -75.1465 46.6797 -75.1465 C 24.8535 -75.1465 6.83594 -57.0312 6.83594 -35.2539 C 6.83594 -13.4277 24.9023 4.63867 46.7285 4.63867 Z M 36.9141 -18.6523 C 35.0586 -18.6523 33.9355 -19.873 33.9355 -21.9238 L 33.9355 -44.3359 L 33.6426 -44.3359 L 30.4688 -41.7969 C 29.4434 -40.918 28.9062 -40.7715 28.0762 -40.7715 C 26.6602 -40.7715 25.3418 -41.9922 25.3418 -43.6035 C 25.3418 -44.8242 25.9766 -45.7031 27.0508 -46.5332 L 32.2754 -50.293 C 33.9844 -51.6113 34.9609 -52.0508 36.4746 -52.0508 C 38.623 -52.0508 39.9902 -50.5859 39.9902 -48.3398 L 39.9902 -21.9238 C 39.9902 -19.873 38.8184 -18.6523 36.9141 -18.6523 Z M 52.3926 -18.6035 C 50.5371 -18.6035 49.0723 -19.9707 49.0723 -21.8262 C 49.0723 -22.7539 49.2188 -23.3398 49.6094 -24.0723 L 60.7422 -45.5566 L 60.7422 -45.8984 L 48.5352 -45.8984 C 46.8262 -45.8984 45.6055 -46.9238 45.6055 -48.584 C 45.6055 -50.3418 46.8262 -51.3672 48.5352 -51.3672 L 63.3789 -51.3672 C 66.0156 -51.3672 67.5781 -49.5117 67.5781 -47.2656 C 67.5781 -46.3379 67.4316 -45.459 66.7969 -44.0918 L 55.4688 -21.0938 C 54.6875 -19.3848 53.8086 -18.6035 52.3926 -18.6035 Z"/>
  </g>
  <g id="Regular-S" transform="matrix(1 0 0 1 1403.58 696)">
   <path d="M 46.2402 4.15039 C 67.7734 4.15039 85.6934 -13.7207 85.6934 -35.2539 C 85.6934 -56.7871 67.7246 -74.6582 46.1914 -74.6582 C 24.707 -74.6582 6.83594 -56.7871 6.83594 -35.2539 C 6.83594 -13.7207 24.7559 4.15039 46.2402 4.15039 Z M 36.0352 -18.3105 C 34.375 -18.3105 33.3008 -19.4824 33.3008 -21.1914 L 33.3008 -45.2148 L 33.0078 -45.2148 L 29.3945 -42.4316 C 28.3203 -41.6016 27.832 -41.5527 27.1484 -41.5527 C 25.7812 -41.5527 24.5117 -42.7246 24.5117 -44.2871 C 24.5117 -45.459 25.1465 -46.2402 26.0742 -46.9238 L 31.7383 -50.8789 C 33.3984 -52.002 34.2773 -52.4414 35.7422 -52.4414 C 37.6465 -52.4414 38.916 -51.0742 38.916 -49.1699 L 38.916 -21.1914 C 38.916 -19.4824 37.793 -18.3105 36.0352 -18.3105 Z M 51.6113 -18.2617 C 49.9023 -18.2617 48.5352 -19.5312 48.5352 -21.1914 C 48.5352 -22.0703 48.6816 -22.6074 49.0723 -23.291 L 61.084 -46.3867 L 61.084 -46.7285 L 47.6562 -46.7285 C 46.0938 -46.7285 45.0684 -47.7539 45.0684 -49.2188 C 45.0684 -50.7812 46.0938 -51.7578 47.6562 -51.7578 L 63.4766 -51.7578 C 65.8691 -51.7578 67.4316 -50 67.4316 -47.8516 C 67.4316 -46.9238 67.2852 -46.0938 66.6016 -44.6777 L 54.4434 -20.5078 C 53.7109 -18.9453 52.7832 -18.2617 51.6113 -18.2617 Z"/>
  </g>
  <g id="Light-S" transform="matrix(1 0 0 1 1107.6 696)">
   <path d="M 45.5078 3.4668 C 66.6992 3.4668 84.2285 -14.0625 84.2285 -35.2051 C 84.2285 -56.3965 66.6504 -73.9258 45.5078 -73.9258 C 24.3164 -73.9258 6.83594 -56.3965 6.83594 -35.2051 C 6.83594 -14.0625 24.3652 3.4668 45.5078 3.4668 Z M 35.1074 -18.457 C 33.8379 -18.457 32.959 -19.3848 32.959 -20.8008 L 32.959 -46.4355 L 32.7148 -46.4355 L 27.8809 -43.0176 C 27.0508 -42.3828 26.709 -42.3828 26.1719 -42.3828 C 25.0977 -42.3828 24.0723 -43.3105 24.0723 -44.5312 C 24.0723 -45.459 24.5605 -46.0938 25.3418 -46.6309 L 31.7871 -51.0254 C 33.0078 -51.8555 33.7402 -52.1973 34.9121 -52.1973 C 36.377 -52.1973 37.4023 -51.123 37.4023 -49.6094 L 37.4023 -20.8008 C 37.4023 -19.3848 36.5234 -18.457 35.1074 -18.457 Z M 50.4883 -18.457 C 49.1211 -18.457 48.0469 -19.4824 48.0469 -20.8008 C 48.0469 -21.4355 48.1445 -21.875 48.4375 -22.4121 L 61.2793 -47.3633 L 61.2793 -47.6562 L 46.582 -47.6562 C 45.3125 -47.6562 44.4824 -48.4375 44.4824 -49.6582 C 44.4824 -50.9277 45.3125 -51.709 46.582 -51.709 L 63.0859 -51.709 C 65.0391 -51.709 66.3574 -50.3418 66.3574 -48.584 C 66.3574 -47.8516 66.2109 -47.168 65.6738 -45.9961 L 52.7344 -20.2148 C 52.1484 -18.9941 51.4648 -18.457 50.4883 -18.457 Z"/>
  </g>
  <g id="Thin-S" transform="matrix(1 0 0 1 811.867 696)">
   <path d="M 44.5801 2.53906 C 65.2832 2.53906 82.2754 -14.4531 82.2754 -35.2051 C 82.2754 -55.9082 65.2344 -72.9004 44.5312 -72.9004 C 23.8281 -72.9004 6.83594 -55.9082 6.83594 -35.2051 C 6.83594 -14.4531 23.877 2.53906 44.5801 2.53906 Z M 33.9355 -18.7012 C 33.1055 -18.7012 32.4707 -19.2871 32.4707 -20.2148 L 32.4707 -47.998 L 32.2754 -47.998 L 25.9277 -43.75 C 25.4395 -43.457 25.2441 -43.457 24.9023 -43.457 C 24.1211 -43.457 23.5352 -44.0918 23.5352 -44.873 C 23.5352 -45.459 23.7305 -45.8984 24.3164 -46.2402 L 31.7871 -51.1719 C 32.5195 -51.6602 33.0078 -51.8555 33.7891 -51.8555 C 34.7168 -51.8555 35.4492 -51.2207 35.4492 -50.1465 L 35.4492 -20.2148 C 35.4492 -19.2871 34.9121 -18.7012 33.9355 -18.7012 Z M 48.9746 -18.7012 C 48.0469 -18.7012 47.4121 -19.4336 47.4121 -20.2148 C 47.4121 -20.6543 47.4609 -20.9473 47.6562 -21.2891 L 61.5723 -48.6328 L 61.5723 -48.8281 L 45.166 -48.8281 C 44.2871 -48.8281 43.7012 -49.4141 43.7012 -50.2441 C 43.7012 -51.123 44.2871 -51.709 45.166 -51.709 L 62.5 -51.709 C 63.916 -51.709 64.9414 -50.7812 64.9414 -49.5605 C 64.9414 -49.0234 64.7949 -48.584 64.4531 -47.8027 L 50.5371 -19.8242 C 50.1465 -18.9941 49.707 -18.7012 48.9746 -18.7012 Z"/>
  </g>
  <g id="Ultralight-S" transform="matrix(1 0 0 1 515.644 696)">
   <path d="M 44.043 2.05078 C 64.502 2.05078 81.2988 -14.6973 81.2988 -35.1562 C 81.2988 -55.6152 64.502 -72.3633 44.043 -72.3633 C 23.584 -72.3633 6.83594 -55.6152 6.83594 -35.1562 C 6.83594 -14.6973 23.584 2.05078 44.043 2.05078 Z M 33.3496 -18.7988 C 32.7148 -18.7988 32.2266 -19.2383 32.2266 -19.9219 L 32.2266 -48.8281 L 32.0801 -48.8281 L 24.9023 -44.1406 C 24.6094 -43.9941 24.5117 -43.9941 24.2676 -43.9941 C 23.6328 -43.9941 23.1934 -44.4824 23.1934 -45.0684 C 23.1934 -45.459 23.3398 -45.8008 23.7793 -46.0449 L 31.8359 -51.3184 C 32.2754 -51.5625 32.6172 -51.709 33.2031 -51.709 C 33.8867 -51.709 34.4727 -51.2695 34.4727 -50.4883 L 34.4727 -19.9219 C 34.4727 -19.2383 34.082 -18.7988 33.3496 -18.7988 Z M 48.2422 -18.7988 C 47.5098 -18.7988 47.0703 -19.3848 47.0703 -19.9219 C 47.0703 -20.2148 47.1191 -20.4102 47.2168 -20.7031 L 61.7188 -49.3164 L 61.7188 -49.4629 L 44.4336 -49.4629 C 43.75 -49.4629 43.3105 -49.9023 43.3105 -50.5859 C 43.3105 -51.2207 43.75 -51.6602 44.4336 -51.6602 L 62.207 -51.6602 C 63.3789 -51.6602 64.1602 -51.0254 64.1602 -50.0977 C 64.1602 -49.6094 64.0625 -49.3652 63.8184 -48.7305 L 49.3652 -19.6289 C 49.1211 -19.043 48.7793 -18.7988 48.2422 -18.7988 Z"/>
  </g>
 </g>
</svg>
