<?xml version="1.0" encoding="UTF-8"?>
<!--Generator: Apple Native CoreSVG 123-->
<!DOCTYPE svg
PUBLIC "-//W3C//DTD SVG 1.1//EN"
       "http://www.w3.org/Graphics/SVG/1.1/DTD/svg11.dtd">
<svg version="1.1" xmlns="http://www.w3.org/2000/svg" xmlns:xlink="http://www.w3.org/1999/xlink" width="3300" height="2200">
 <!--glyph: "uni10051C.medium", point size: 100.000000, font version: "Version 15.0d7e11", template writer version: "5"-->
 <g id="Notes">
  <rect height="2200" id="artboard" style="fill:white;opacity:1" width="3300" x="0" y="0"/>
  <line id="" style="fill:none;stroke:black;opacity:1;stroke-width:0.5;" x1="263" x2="3036" y1="292" y2="292"/>
  <text style="stroke:none;fill:black;font-family:-apple-system,&quot;SF Pro Display&quot;,&quot;SF Pro Text&quot;,Helvetica,sans-serif;font-weight:bold;" transform="matrix(1 0 0 1 263 322)">Weight/Scale Variations</text>
  <text style="stroke:none;fill:black;font-family:-apple-system,&quot;SF Pro Display&quot;,&quot;SF Pro Text&quot;,Helvetica,sans-serif;text-anchor:middle;" transform="matrix(1 0 0 1 559.711 322)">Ultralight</text>
  <text style="stroke:none;fill:black;font-family:-apple-system,&quot;SF Pro Display&quot;,&quot;SF Pro Text&quot;,Helvetica,sans-serif;text-anchor:middle;" transform="matrix(1 0 0 1 856.422 322)">Thin</text>
  <text style="stroke:none;fill:black;font-family:-apple-system,&quot;SF Pro Display&quot;,&quot;SF Pro Text&quot;,Helvetica,sans-serif;text-anchor:middle;" transform="matrix(1 0 0 1 1153.13 322)">Light</text>
  <text style="stroke:none;fill:black;font-family:-apple-system,&quot;SF Pro Display&quot;,&quot;SF Pro Text&quot;,Helvetica,sans-serif;text-anchor:middle;" transform="matrix(1 0 0 1 1449.84 322)">Regular</text>
  <text style="stroke:none;fill:black;font-family:-apple-system,&quot;SF Pro Display&quot;,&quot;SF Pro Text&quot;,Helvetica,sans-serif;text-anchor:middle;" transform="matrix(1 0 0 1 1746.56 322)">Medium</text>
  <text style="stroke:none;fill:black;font-family:-apple-system,&quot;SF Pro Display&quot;,&quot;SF Pro Text&quot;,Helvetica,sans-serif;text-anchor:middle;" transform="matrix(1 0 0 1 2043.27 322)">Semibold</text>
  <text style="stroke:none;fill:black;font-family:-apple-system,&quot;SF Pro Display&quot;,&quot;SF Pro Text&quot;,Helvetica,sans-serif;text-anchor:middle;" transform="matrix(1 0 0 1 2339.98 322)">Bold</text>
  <text style="stroke:none;fill:black;font-family:-apple-system,&quot;SF Pro Display&quot;,&quot;SF Pro Text&quot;,Helvetica,sans-serif;text-anchor:middle;" transform="matrix(1 0 0 1 2636.69 322)">Heavy</text>
  <text style="stroke:none;fill:black;font-family:-apple-system,&quot;SF Pro Display&quot;,&quot;SF Pro Text&quot;,Helvetica,sans-serif;text-anchor:middle;" transform="matrix(1 0 0 1 2933.4 322)">Black</text>
  <line id="" style="fill:none;stroke:black;opacity:1;stroke-width:0.5;" x1="263" x2="3036" y1="1903" y2="1903"/>
  <g id="" transform="matrix(1 0 0 1 263 1933)">
   <path d="M 9.24805 0.830078 C 13.5547 0.830078 17.1387 -2.74414 17.1387 -7.05078 C 17.1387 -11.3574 13.5449 -14.9316 9.23828 -14.9316 C 4.94141 -14.9316 1.36719 -11.3574 1.36719 -7.05078 C 1.36719 -2.74414 4.95117 0.830078 9.24805 0.830078 Z M 9.24805 -0.654297 C 5.70312 -0.654297 2.87109 -3.49609 2.87109 -7.05078 C 2.87109 -10.6055 5.69336 -13.4473 9.23828 -13.4473 C 12.793 -13.4473 15.6348 -10.6055 15.6445 -7.05078 C 15.6543 -3.49609 12.8027 -0.654297 9.24805 -0.654297 Z M 9.22852 -3.42773 C 9.69727 -3.42773 9.9707 -3.74023 9.9707 -4.25781 L 9.9707 -6.31836 L 12.1973 -6.31836 C 12.6953 -6.31836 13.0371 -6.57227 13.0371 -7.04102 C 13.0371 -7.51953 12.7148 -7.7832 12.1973 -7.7832 L 9.9707 -7.7832 L 9.9707 -10.0098 C 9.9707 -10.5273 9.69727 -10.8496 9.22852 -10.8496 C 8.75977 -10.8496 8.50586 -10.5078 8.50586 -10.0098 L 8.50586 -7.7832 L 6.29883 -7.7832 C 5.78125 -7.7832 5.44922 -7.51953 5.44922 -7.04102 C 5.44922 -6.57227 5.80078 -6.31836 6.29883 -6.31836 L 8.50586 -6.31836 L 8.50586 -4.25781 C 8.50586 -3.75977 8.75977 -3.42773 9.22852 -3.42773 Z"/>
  </g>
  <g id="" transform="matrix(1 0 0 1 281.506 1933)">
   <path d="M 11.709 2.91016 C 17.1582 2.91016 21.6699 -1.60156 21.6699 -7.05078 C 21.6699 -12.4902 17.1484 -17.0117 11.6992 -17.0117 C 6.25977 -17.0117 1.74805 -12.4902 1.74805 -7.05078 C 1.74805 -1.60156 6.26953 2.91016 11.709 2.91016 Z M 11.709 1.25 C 7.09961 1.25 3.41797 -2.44141 3.41797 -7.05078 C 3.41797 -11.6504 7.08984 -15.3516 11.6992 -15.3516 C 16.3086 -15.3516 20 -11.6504 20.0098 -7.05078 C 20.0195 -2.44141 16.3184 1.25 11.709 1.25 Z M 11.6895 -2.41211 C 12.207 -2.41211 12.5195 -2.77344 12.5195 -3.33984 L 12.5195 -6.23047 L 15.5762 -6.23047 C 16.123 -6.23047 16.5039 -6.51367 16.5039 -7.03125 C 16.5039 -7.55859 16.1426 -7.86133 15.5762 -7.86133 L 12.5195 -7.86133 L 12.5195 -10.9277 C 12.5195 -11.5039 12.207 -11.8555 11.6895 -11.8555 C 11.1719 -11.8555 10.8789 -11.4844 10.8789 -10.9277 L 10.8789 -7.86133 L 7.83203 -7.86133 C 7.26562 -7.86133 6.89453 -7.55859 6.89453 -7.03125 C 6.89453 -6.51367 7.28516 -6.23047 7.83203 -6.23047 L 10.8789 -6.23047 L 10.8789 -3.33984 C 10.8789 -2.79297 11.1719 -2.41211 11.6895 -2.41211 Z"/>
  </g>
  <g id="" transform="matrix(1 0 0 1 304.924 1933)">
   <path d="M 14.9707 5.67383 C 21.9336 5.67383 27.6953 -0.078125 27.6953 -7.04102 C 27.6953 -14.0039 21.9238 -19.7559 14.9609 -19.7559 C 8.00781 -19.7559 2.25586 -14.0039 2.25586 -7.04102 C 2.25586 -0.078125 8.01758 5.67383 14.9707 5.67383 Z M 14.9707 3.85742 C 8.93555 3.85742 4.08203 -1.00586 4.08203 -7.04102 C 4.08203 -13.0762 8.92578 -17.9395 14.9609 -17.9395 C 21.0059 -17.9395 25.8594 -13.0762 25.8691 -7.04102 C 25.8789 -1.00586 21.0156 3.85742 14.9707 3.85742 Z M 14.9512 -1.06445 C 15.5176 -1.06445 15.8691 -1.45508 15.8691 -2.06055 L 15.8691 -6.13281 L 20.1074 -6.13281 C 20.6934 -6.13281 21.1133 -6.46484 21.1133 -7.02148 C 21.1133 -7.59766 20.7227 -7.93945 20.1074 -7.93945 L 15.8691 -7.93945 L 15.8691 -12.1875 C 15.8691 -12.8027 15.5176 -13.1934 14.9512 -13.1934 C 14.3848 -13.1934 14.0625 -12.7832 14.0625 -12.1875 L 14.0625 -7.93945 L 9.83398 -7.93945 C 9.21875 -7.93945 8.80859 -7.59766 8.80859 -7.02148 C 8.80859 -6.46484 9.23828 -6.13281 9.83398 -6.13281 L 14.0625 -6.13281 L 14.0625 -2.06055 C 14.0625 -1.47461 14.3848 -1.06445 14.9512 -1.06445 Z"/>
  </g>
  <text style="stroke:none;fill:black;font-family:-apple-system,&quot;SF Pro Display&quot;,&quot;SF Pro Text&quot;,Helvetica,sans-serif;font-weight:bold;" transform="matrix(1 0 0 1 263 1953)">Design Variations</text>
  <text style="stroke:none;fill:black;font-family:-apple-system,&quot;SF Pro Display&quot;,&quot;SF Pro Text&quot;,Helvetica,sans-serif;" transform="matrix(1 0 0 1 263 1971)">Symbols are supported in up to nine weights and three scales.</text>
  <text style="stroke:none;fill:black;font-family:-apple-system,&quot;SF Pro Display&quot;,&quot;SF Pro Text&quot;,Helvetica,sans-serif;" transform="matrix(1 0 0 1 263 1989)">For optimal layout with text and other symbols, vertically align</text>
  <text style="stroke:none;fill:black;font-family:-apple-system,&quot;SF Pro Display&quot;,&quot;SF Pro Text&quot;,Helvetica,sans-serif;" transform="matrix(1 0 0 1 263 2007)">symbols with the adjacent text.</text>
  <rect height="14" id="" style="fill:#00AEEF;stroke:none;opacity:0.4;" width="3" x="776" y="1919"/>
  <g id="" transform="matrix(1 0 0 1 779 1933)">
   <path d="M 10.5273 0 L 12.373 0 L 7.17773 -14.0918 L 5.43945 -14.0918 L 0.244141 0 L 2.08984 0 L 3.50586 -4.0332 L 9.11133 -4.0332 Z M 6.2793 -11.9531 L 6.33789 -11.9531 L 8.59375 -5.52734 L 4.02344 -5.52734 Z"/>
  </g>
  <rect height="14" id="" style="fill:#00AEEF;stroke:none;opacity:0.4;" width="3" x="791.617" y="1919"/>
  <text style="stroke:none;fill:black;font-family:-apple-system,&quot;SF Pro Display&quot;,&quot;SF Pro Text&quot;,Helvetica,sans-serif;font-weight:bold;" transform="matrix(1 0 0 1 776 1953)">Margins</text>
  <text style="stroke:none;fill:black;font-family:-apple-system,&quot;SF Pro Display&quot;,&quot;SF Pro Text&quot;,Helvetica,sans-serif;" transform="matrix(1 0 0 1 776 1971)">Leading and trailing margins on the left and right side of each symbol</text>
  <text style="stroke:none;fill:black;font-family:-apple-system,&quot;SF Pro Display&quot;,&quot;SF Pro Text&quot;,Helvetica,sans-serif;" transform="matrix(1 0 0 1 776 1989)">can be adjusted by modifying the width of the blue rectangles.</text>
  <text style="stroke:none;fill:black;font-family:-apple-system,&quot;SF Pro Display&quot;,&quot;SF Pro Text&quot;,Helvetica,sans-serif;" transform="matrix(1 0 0 1 776 2007)">Modifications are automatically applied proportionally to all</text>
  <text style="stroke:none;fill:black;font-family:-apple-system,&quot;SF Pro Display&quot;,&quot;SF Pro Text&quot;,Helvetica,sans-serif;" transform="matrix(1 0 0 1 776 2025)">scales and weights.</text>
  <g id="" transform="matrix(1 0 0 1 1289 1933)">
   <path d="M 2.83203 3.11523 L 4.375 4.6582 C 5.22461 5.48828 6.19141 5.41992 7.06055 4.46289 L 17.2754 -6.66016 C 17.7051 -6.36719 18.0957 -6.37695 18.5645 -6.47461 L 19.6094 -6.68945 L 20.3027 -5.99609 L 20.2539 -5.47852 C 20.1855 -4.95117 20.3516 -4.53125 20.8496 -4.0332 L 21.6602 -3.22266 C 22.168 -2.71484 22.8223 -2.68555 23.3008 -3.16406 L 26.5527 -6.41602 C 27.0312 -6.89453 27.0117 -7.54883 26.5039 -8.05664 L 25.6836 -8.87695 C 25.1855 -9.375 24.7754 -9.55078 24.2383 -9.47266 L 23.7109 -9.41406 L 23.0566 -10.0781 L 23.3398 -11.2207 C 23.4863 -11.7871 23.3398 -12.2559 22.7148 -12.8613 L 20.3027 -15.2539 C 16.7578 -18.7793 12.2266 -18.6719 9.11133 -15.5371 C 8.69141 -15.1074 8.64258 -14.5215 8.91602 -14.0918 C 9.15039 -13.7207 9.62891 -13.4961 10.2734 -13.6621 C 11.7871 -14.043 13.3008 -13.9258 14.7852 -12.9199 L 14.1602 -11.3379 C 13.9258 -10.752 13.9453 -10.2734 14.1797 -9.83398 L 3.01758 0.439453 C 2.08008 1.30859 1.97266 2.25586 2.83203 3.11523 Z M 10.6738 -15.1465 C 13.3398 -17.1387 16.6504 -16.8262 19.0527 -14.4141 L 21.6797 -11.8066 C 21.9141 -11.5723 21.9434 -11.3867 21.8848 -11.0938 L 21.5039 -9.53125 L 23.0762 -7.95898 L 24.043 -8.04688 C 24.3262 -8.07617 24.4141 -8.05664 24.6387 -7.83203 L 25.2637 -7.20703 L 22.5098 -4.46289 L 21.8848 -5.07812 C 21.6602 -5.30273 21.6406 -5.40039 21.6699 -5.68359 L 21.7578 -6.64062 L 20.1953 -8.20312 L 18.5742 -7.89062 C 18.291 -7.83203 18.1445 -7.83203 17.9102 -8.07617 L 15.7324 -10.2539 C 15.5078 -10.4883 15.4785 -10.625 15.6055 -10.9473 L 16.5527 -13.2227 C 14.9512 -14.7559 12.8418 -15.6055 10.8008 -14.9512 C 10.7129 -14.9219 10.6445 -14.9414 10.6152 -14.9805 C 10.5859 -15.0293 10.5859 -15.0781 10.6738 -15.1465 Z M 4.10156 2.41211 C 3.61328 1.91406 3.78906 1.61133 4.12109 1.30859 L 15.0781 -8.80859 L 16.3086 -7.57812 L 6.15234 3.34961 C 5.84961 3.68164 5.46875 3.7793 5.06836 3.37891 Z"/>
  </g>
  <text style="stroke:none;fill:black;font-family:-apple-system,&quot;SF Pro Display&quot;,&quot;SF Pro Text&quot;,Helvetica,sans-serif;font-weight:bold;" transform="matrix(1 0 0 1 1289 1953)">Exporting</text>
  <text style="stroke:none;fill:black;font-family:-apple-system,&quot;SF Pro Display&quot;,&quot;SF Pro Text&quot;,Helvetica,sans-serif;" transform="matrix(1 0 0 1 1289 1971)">Symbols should be outlined when exporting to ensure the</text>
  <text style="stroke:none;fill:black;font-family:-apple-system,&quot;SF Pro Display&quot;,&quot;SF Pro Text&quot;,Helvetica,sans-serif;" transform="matrix(1 0 0 1 1289 1989)">design is preserved when submitting to Xcode.</text>
  <text id="template-version" style="stroke:none;fill:black;font-family:-apple-system,&quot;SF Pro Display&quot;,&quot;SF Pro Text&quot;,Helvetica,sans-serif;text-anchor:end;" transform="matrix(1 0 0 1 3036 1933)">Template v.1.0</text>
  <text style="stroke:none;fill:black;font-family:-apple-system,&quot;SF Pro Display&quot;,&quot;SF Pro Text&quot;,Helvetica,sans-serif;text-anchor:end;" transform="matrix(1 0 0 1 3036 1951)">Generated from 18.circle.fill</text>
  <text style="stroke:none;fill:black;font-family:-apple-system,&quot;SF Pro Display&quot;,&quot;SF Pro Text&quot;,Helvetica,sans-serif;text-anchor:end;" transform="matrix(1 0 0 1 3036 1969)">Typeset at 100 points</text>
  <text style="stroke:none;fill:black;font-family:-apple-system,&quot;SF Pro Display&quot;,&quot;SF Pro Text&quot;,Helvetica,sans-serif;" transform="matrix(1 0 0 1 263 726)">Small</text>
  <text style="stroke:none;fill:black;font-family:-apple-system,&quot;SF Pro Display&quot;,&quot;SF Pro Text&quot;,Helvetica,sans-serif;" transform="matrix(1 0 0 1 263 1156)">Medium</text>
  <text style="stroke:none;fill:black;font-family:-apple-system,&quot;SF Pro Display&quot;,&quot;SF Pro Text&quot;,Helvetica,sans-serif;" transform="matrix(1 0 0 1 263 1586)">Large</text>
 </g>
 <g id="Guides">
  <g id="H-reference" style="fill:#27AAE1;stroke:none;" transform="matrix(1 0 0 1 339 696)">
   <path d="M 54.9316 0 L 57.666 0 L 30.5664 -70.459 L 28.0762 -70.459 L 0.976562 0 L 3.66211 0 L 12.9395 -24.4629 L 45.7031 -24.4629 Z M 29.1992 -67.0898 L 29.4434 -67.0898 L 44.8242 -26.709 L 13.8184 -26.709 Z"/>
  </g>
  <line id="Baseline-S" style="fill:none;stroke:#27AAE1;opacity:1;stroke-width:0.577;" x1="263" x2="3036" y1="696" y2="696"/>
  <line id="Capline-S" style="fill:none;stroke:#27AAE1;opacity:1;stroke-width:0.577;" x1="263" x2="3036" y1="625.541" y2="625.541"/>
  <g id="H-reference" style="fill:#27AAE1;stroke:none;" transform="matrix(1 0 0 1 339 1126)">
   <path d="M 54.9316 0 L 57.666 0 L 30.5664 -70.459 L 28.0762 -70.459 L 0.976562 0 L 3.66211 0 L 12.9395 -24.4629 L 45.7031 -24.4629 Z M 29.1992 -67.0898 L 29.4434 -67.0898 L 44.8242 -26.709 L 13.8184 -26.709 Z"/>
  </g>
  <line id="Baseline-M" style="fill:none;stroke:#27AAE1;opacity:1;stroke-width:0.577;" x1="263" x2="3036" y1="1126" y2="1126"/>
  <line id="Capline-M" style="fill:none;stroke:#27AAE1;opacity:1;stroke-width:0.577;" x1="263" x2="3036" y1="1055.54" y2="1055.54"/>
  <g id="H-reference" style="fill:#27AAE1;stroke:none;" transform="matrix(1 0 0 1 339 1556)">
   <path d="M 54.9316 0 L 57.666 0 L 30.5664 -70.459 L 28.0762 -70.459 L 0.976562 0 L 3.66211 0 L 12.9395 -24.4629 L 45.7031 -24.4629 Z M 29.1992 -67.0898 L 29.4434 -67.0898 L 44.8242 -26.709 L 13.8184 -26.709 Z"/>
  </g>
  <line id="Baseline-L" style="fill:none;stroke:#27AAE1;opacity:1;stroke-width:0.577;" x1="263" x2="3036" y1="1556" y2="1556"/>
  <line id="Capline-L" style="fill:none;stroke:#27AAE1;opacity:1;stroke-width:0.577;" x1="263" x2="3036" y1="1485.54" y2="1485.54"/>
  <rect height="119.336" id="left-margin" style="fill:#00AEEF;stroke:none;opacity:0.4;" width="8.74023" x="1391.3" y="1030.79"/>
  <rect height="119.336" id="right-margin" style="fill:#00AEEF;stroke:none;opacity:0.4;" width="8.74023" x="1499.65" y="1030.79"/>
 </g>
 <g id="Symbols">
  <g id="Black-L" transform="matrix(1 0 0 1 2854.05 1556)">
   <path d="M 79.3457 32.8613 C 116.748 32.8613 147.412 2.19727 147.412 -35.2051 C 147.412 -72.6074 116.748 -103.271 79.2969 -103.271 C 41.8945 -103.271 11.2793 -72.6074 11.2793 -35.2051 C 11.2793 2.19727 41.9434 32.8613 79.3457 32.8613 Z M 96.0449 -9.47266 C 85.3027 -9.47266 78.125 -15.332 78.125 -24.1699 C 78.125 -30.5664 81.9824 -34.9609 87.6465 -36.4258 L 87.6465 -36.9141 C 83.252 -38.0859 79.9316 -42.1875 79.9316 -47.6562 C 79.9316 -55.7129 86.377 -61.084 96.1426 -61.084 C 105.859 -61.084 112.305 -55.7129 112.305 -47.6562 C 112.305 -42.1875 108.936 -38.0371 104.59 -36.9141 L 104.59 -36.4258 C 110.205 -34.9609 114.111 -30.6152 114.111 -24.1699 C 114.111 -15.332 106.885 -9.47266 96.0449 -9.47266 Z M 63.0371 -9.66797 C 58.9355 -9.66797 56.8848 -12.1094 56.8848 -16.8457 L 56.8848 -45.8496 L 56.5918 -45.8496 L 53.6621 -42.9199 C 52.0508 -41.1133 50.8301 -40.3809 48.8281 -40.3809 C 46.0449 -40.3809 43.7988 -42.7246 43.7988 -45.5566 C 43.7988 -47.998 44.7754 -49.707 47.168 -51.8066 L 53.5156 -57.3242 C 56.7383 -60.2051 58.8379 -60.9863 61.5234 -60.9863 C 66.5527 -60.9863 69.1895 -57.959 69.1895 -52.832 L 69.1895 -16.8457 C 69.1895 -12.1094 67.1387 -9.66797 63.0371 -9.66797 Z M 96.1426 -41.5039 C 98.9746 -41.5039 100.83 -43.5547 100.83 -46.3867 C 100.83 -49.1699 98.9258 -51.2207 96.1426 -51.2207 C 93.3105 -51.2207 91.4062 -49.1699 91.4062 -46.3867 C 91.4062 -43.5547 93.2617 -41.5039 96.1426 -41.5039 Z M 96.1426 -19.4336 C 99.5117 -19.4336 101.855 -21.875 101.855 -25.1465 C 101.855 -28.5156 99.5605 -31.0059 96.1426 -31.0059 C 92.7734 -31.0059 90.4785 -28.5156 90.4785 -25.1465 C 90.4785 -21.875 92.7734 -19.4336 96.1426 -19.4336 Z"/>
  </g>
  <g id="Heavy-L" transform="matrix(1 0 0 1 2558.39 1556)">
   <path d="M 78.2715 31.7871 C 115.088 31.7871 145.312 1.61133 145.312 -35.2051 C 145.312 -72.0215 115.039 -102.197 78.2715 -102.197 C 41.4551 -102.197 11.2793 -72.0215 11.2793 -35.2051 C 11.2793 1.61133 41.5039 31.7871 78.2715 31.7871 Z M 95.0195 -8.88672 C 84.1309 -8.88672 76.8555 -14.8926 76.8555 -23.877 C 76.8555 -30.3711 80.8105 -35.0098 86.7676 -36.4746 L 86.7676 -36.9629 C 82.0312 -38.2324 78.7109 -42.4805 78.7109 -47.998 C 78.7109 -56.1523 85.3027 -61.6699 95.1172 -61.6699 C 104.883 -61.6699 111.523 -56.1523 111.523 -47.998 C 111.523 -42.4805 108.154 -38.1836 103.418 -36.9629 L 103.418 -36.4746 C 109.375 -35.0098 113.33 -30.4199 113.33 -23.9258 C 113.33 -14.9414 105.957 -8.88672 95.0195 -8.88672 Z M 61.2793 -9.17969 C 57.666 -9.17969 55.7617 -11.377 55.7617 -15.5273 L 55.7617 -47.7539 L 55.4199 -47.7539 L 51.2695 -44.1406 C 49.7559 -42.5293 48.6816 -41.9922 46.9238 -41.9922 C 44.3848 -41.9922 42.334 -44.1406 42.334 -46.7773 C 42.334 -48.9746 43.2617 -50.4883 45.3613 -52.3438 L 52.7344 -58.252 C 55.6641 -60.791 57.5195 -61.4746 60.0098 -61.4746 C 64.4043 -61.4746 66.8457 -58.7891 66.8457 -54.2969 L 66.8457 -15.5273 C 66.8457 -11.377 64.9414 -9.17969 61.2793 -9.17969 Z M 95.1172 -41.0156 C 98.6328 -41.0156 101.025 -43.457 101.025 -46.875 C 101.025 -50.2441 98.584 -52.6855 95.1172 -52.6855 C 91.6016 -52.6855 89.209 -50.2441 89.209 -46.875 C 89.209 -43.457 91.5527 -41.0156 95.1172 -41.0156 Z M 95.166 -17.9199 C 99.3164 -17.9199 102.246 -20.8008 102.246 -24.7559 C 102.246 -28.7598 99.3652 -31.6406 95.166 -31.6406 C 90.9668 -31.6406 87.9883 -28.7109 87.9883 -24.7559 C 87.9883 -20.8008 90.9668 -17.9199 95.166 -17.9199 Z"/>
  </g>
  <g id="Bold-L" transform="matrix(1 0 0 1 2262.88 1556)">
   <path d="M 77.0996 30.6152 C 113.232 30.6152 142.92 0.878906 142.92 -35.2051 C 142.92 -71.3379 113.184 -101.025 77.0508 -101.025 C 40.9668 -101.025 11.2793 -71.3379 11.2793 -35.2051 C 11.2793 0.878906 41.0156 30.6152 77.0996 30.6152 Z M 93.8965 -8.25195 C 82.8613 -8.25195 75.4395 -14.4043 75.4395 -23.584 C 75.4395 -30.127 79.4434 -35.1074 85.8398 -36.5234 L 85.8398 -36.9629 C 80.6152 -38.4277 77.2949 -42.8223 77.2949 -48.3887 C 77.2949 -56.6406 84.082 -62.3047 93.9941 -62.3047 C 103.857 -62.3047 110.596 -56.6406 110.596 -48.3887 C 110.596 -42.8223 107.275 -38.3301 102.1 -36.9629 L 102.1 -36.5234 C 108.447 -35.1074 112.5 -30.1758 112.5 -23.6328 C 112.5 -14.4531 104.932 -8.25195 93.8965 -8.25195 Z M 59.3262 -8.69141 C 56.2012 -8.69141 54.4922 -10.5957 54.4922 -14.1113 L 54.4922 -49.9023 L 54.1504 -49.9023 L 48.584 -45.5078 C 47.168 -44.1406 46.2891 -43.75 44.8242 -43.75 C 42.5781 -43.75 40.6738 -45.7031 40.6738 -48.0957 C 40.6738 -50.0488 41.5039 -51.416 43.3105 -52.8809 L 51.8555 -59.2773 C 54.4922 -61.377 56.0547 -62.0605 58.3496 -62.0605 C 62.0605 -62.0605 64.209 -59.7168 64.209 -55.9082 L 64.209 -14.1113 C 64.209 -10.5957 62.5 -8.69141 59.3262 -8.69141 Z M 93.9941 -40.4785 C 98.2422 -40.4785 101.221 -43.4082 101.221 -47.4609 C 101.221 -51.4648 98.2422 -54.3457 93.9941 -54.3457 C 89.6973 -54.3457 86.7188 -51.4648 86.7188 -47.4609 C 86.7188 -43.4082 89.6973 -40.4785 93.9941 -40.4785 Z M 93.9941 -16.2598 C 99.1211 -16.2598 102.734 -19.5801 102.734 -24.3164 C 102.734 -29.0039 99.1699 -32.373 93.9941 -32.373 C 88.8672 -32.373 85.2539 -28.9551 85.2539 -24.3164 C 85.2539 -19.5801 88.8672 -16.2598 93.9941 -16.2598 Z"/>
  </g>
  <g id="Semibold-L" transform="matrix(1 0 0 1 1966.97 1556)">
   <path d="M 76.2695 29.7852 C 111.914 29.7852 141.309 0.439453 141.309 -35.2051 C 141.309 -70.8496 111.865 -100.244 76.2695 -100.244 C 40.625 -100.244 11.2793 -70.8496 11.2793 -35.2051 C 11.2793 0.439453 40.6738 29.7852 76.2695 29.7852 Z M 93.0664 -7.76367 C 81.9824 -7.76367 74.4141 -14.0625 74.4141 -23.3887 C 74.4141 -29.9805 78.5645 -35.1562 85.1562 -36.5723 L 85.1562 -36.9629 C 79.6875 -38.5742 76.3672 -43.0664 76.3672 -48.6328 C 76.3672 -57.0312 83.252 -62.7441 93.2129 -62.7441 C 103.125 -62.7441 110.01 -57.0312 110.01 -48.6328 C 110.01 -43.0664 106.641 -38.4277 101.221 -36.9629 L 101.221 -36.5723 C 107.764 -35.1562 111.914 -30.0293 111.914 -23.4375 C 111.914 -14.1602 104.248 -7.76367 93.0664 -7.76367 Z M 57.959 -8.30078 C 55.2246 -8.30078 53.5645 -10.0586 53.5645 -13.0859 L 53.5645 -51.3672 L 53.2227 -51.3672 L 46.7773 -46.4844 C 45.3613 -45.2637 44.6289 -44.9707 43.3594 -44.9707 C 41.3086 -44.9707 39.502 -46.7773 39.502 -49.0234 C 39.502 -50.7812 40.2832 -52.002 41.8945 -53.2715 L 51.2695 -59.9609 C 53.6621 -61.8164 55.0293 -62.4512 57.1777 -62.4512 C 60.4492 -62.4512 62.4023 -60.3516 62.4023 -57.0312 L 62.4023 -13.0859 C 62.4023 -10.0586 60.791 -8.30078 57.959 -8.30078 Z M 93.2129 -40.0879 C 97.998 -40.0879 101.318 -43.3594 101.318 -47.8516 C 101.318 -52.3438 97.998 -55.4688 93.2129 -55.4688 C 88.3789 -55.4688 85.0586 -52.3438 85.0586 -47.8516 C 85.0586 -43.3594 88.3789 -40.0879 93.2129 -40.0879 Z M 93.2617 -15.0879 C 98.9746 -15.0879 103.076 -18.7988 103.076 -23.9746 C 103.076 -29.1504 99.0723 -32.8613 93.2617 -32.8613 C 87.4512 -32.8613 83.3496 -29.1016 83.3496 -23.9746 C 83.3496 -18.7988 87.4512 -15.0879 93.2617 -15.0879 Z"/>
  </g>
  <g id="Medium-L" transform="matrix(1 0 0 1 1670.87 1556)">
   <path d="M 75.6836 29.1992 C 110.938 29.1992 140.088 0.0488281 140.088 -35.2051 C 140.088 -70.459 110.889 -99.6094 75.6348 -99.6094 C 40.3809 -99.6094 11.2793 -70.459 11.2793 -35.2051 C 11.2793 0.0488281 40.3809 29.1992 75.6836 29.1992 Z M 92.4805 -7.4707 C 81.2988 -7.4707 73.6816 -13.8184 73.6816 -23.2422 C 73.6816 -29.8828 77.832 -35.2051 84.668 -36.5723 L 84.668 -37.0117 C 78.9551 -38.6719 75.6348 -43.2129 75.6348 -48.877 C 75.6348 -57.2754 82.6172 -63.0859 92.627 -63.0859 C 102.588 -63.0859 109.57 -57.2754 109.57 -48.877 C 109.57 -43.2129 106.201 -38.5254 100.537 -37.0117 L 100.537 -36.5723 C 107.275 -35.2051 111.475 -29.8828 111.475 -23.291 C 111.475 -13.8672 103.711 -7.4707 92.4805 -7.4707 Z M 56.9336 -8.00781 C 54.4922 -8.00781 52.9297 -9.66797 52.9297 -12.3535 L 52.9297 -52.4902 L 52.5391 -52.4902 L 45.3613 -47.2168 C 44.043 -46.0938 43.3594 -45.8984 42.2852 -45.8984 C 40.332 -45.8984 38.623 -47.6074 38.623 -49.707 C 38.623 -51.3184 39.4043 -52.4902 40.8203 -53.5645 L 50.8301 -60.5469 C 53.0273 -62.1582 54.2969 -62.7441 56.3477 -62.7441 C 59.2285 -62.7441 61.0352 -60.8398 61.0352 -57.8613 L 61.0352 -12.3535 C 61.0352 -9.66797 59.5215 -8.00781 56.9336 -8.00781 Z M 92.627 -39.7949 C 97.8027 -39.7949 101.416 -43.3105 101.416 -48.1445 C 101.416 -52.9785 97.8027 -56.3477 92.627 -56.3477 C 87.4023 -56.3477 83.7891 -52.9785 83.7891 -48.1445 C 83.7891 -43.3105 87.4023 -39.7949 92.627 -39.7949 Z M 92.6758 -14.209 C 98.877 -14.209 103.32 -18.1641 103.32 -23.7305 C 103.32 -29.248 98.9746 -33.252 92.6758 -33.252 C 86.377 -33.252 81.9336 -29.248 81.9336 -23.7305 C 81.9336 -18.1641 86.377 -14.209 92.6758 -14.209 Z"/>
  </g>
  <g id="Regular-L" transform="matrix(1 0 0 1 1374.97 1556)">
   <path d="M 74.8535 28.3691 C 109.668 28.3691 138.477 -0.390625 138.477 -35.2051 C 138.477 -70.0195 109.619 -98.7793 74.8047 -98.7793 C 40.0391 -98.7793 11.2793 -70.0195 11.2793 -35.2051 C 11.2793 -0.390625 40.0879 28.3691 74.8535 28.3691 Z M 91.6992 -6.98242 C 80.4688 -6.98242 72.7051 -13.4766 72.7051 -22.998 C 72.7051 -29.6875 76.9531 -35.2539 83.9844 -36.6211 L 83.9844 -37.0117 C 77.9785 -38.8184 74.6582 -43.457 74.6582 -49.1211 C 74.6582 -57.6172 81.7871 -63.5254 91.8457 -63.5254 C 101.855 -63.5254 108.936 -57.6172 108.936 -49.1211 C 108.936 -43.457 105.566 -38.623 99.6582 -37.0117 L 99.6582 -36.6211 C 106.641 -35.2539 110.889 -29.7363 110.889 -23.0469 C 110.889 -13.5742 103.027 -6.98242 91.6992 -6.98242 Z M 55.6152 -7.66602 C 53.5156 -7.66602 52.0508 -9.13086 52.0508 -11.377 L 52.0508 -53.9551 L 51.6602 -53.9551 L 43.5547 -48.1445 C 42.2852 -47.168 41.6992 -47.1191 40.8691 -47.1191 C 39.1113 -47.1191 37.5 -48.6328 37.5 -50.6348 C 37.5 -52.0996 38.2324 -53.125 39.4531 -53.9551 L 50.1953 -61.2305 C 52.2461 -62.5977 53.3203 -63.1348 55.1758 -63.1348 C 57.6172 -63.1348 59.2773 -61.4258 59.2773 -58.9355 L 59.2773 -11.377 C 59.2773 -9.13086 57.8613 -7.66602 55.6152 -7.66602 Z M 91.8457 -39.4043 C 97.5098 -39.4043 101.562 -43.2617 101.562 -48.5352 C 101.562 -53.8086 97.5586 -57.4707 91.8457 -57.4707 C 86.084 -57.4707 82.0801 -53.8086 82.0801 -48.5352 C 82.0801 -43.2617 86.1328 -39.4043 91.8457 -39.4043 Z M 91.8945 -13.0859 C 98.7305 -13.0859 103.662 -17.334 103.662 -23.4375 C 103.662 -29.4434 98.8281 -33.7402 91.8945 -33.7402 C 84.9609 -33.7402 80.0293 -29.3945 80.0293 -23.4375 C 80.0293 -17.334 84.9609 -13.0859 91.8945 -13.0859 Z"/>
  </g>
  <g id="Light-L" transform="matrix(1 0 0 1 1079.18 1556)">
   <path d="M 73.9258 27.4902 C 108.301 27.4902 136.621 -0.830078 136.621 -35.1562 C 136.621 -69.5312 108.252 -97.8516 73.9258 -97.8516 C 39.5508 -97.8516 11.2793 -69.5312 11.2793 -35.1562 C 11.2793 -0.830078 39.5996 27.4902 73.9258 27.4902 Z M 90.5762 -7.32422 C 79.541 -7.32422 71.7773 -13.7695 71.7773 -23.1445 C 71.7773 -29.7363 76.2207 -35.3027 83.0566 -36.6211 L 83.0566 -37.0117 C 77.2461 -38.7207 73.7305 -43.4082 73.7305 -48.9746 C 73.7305 -57.373 80.8594 -63.2324 90.6738 -63.2324 C 100.537 -63.2324 107.568 -57.373 107.568 -48.9746 C 107.568 -43.4082 104.004 -38.5742 98.291 -37.0117 L 98.291 -36.6211 C 105.078 -35.3027 109.57 -29.7852 109.57 -23.1934 C 109.57 -13.8672 101.66 -7.32422 90.5762 -7.32422 Z M 54.2969 -7.86133 C 52.5879 -7.86133 51.416 -9.0332 51.416 -10.8398 L 51.416 -55.4199 L 51.0742 -55.4199 L 41.4062 -48.877 C 40.5273 -48.1934 40.0879 -48.1934 39.4531 -48.1934 C 37.9883 -48.1934 36.7676 -49.4141 36.7676 -50.9766 C 36.7676 -52.0996 37.2559 -52.8809 38.2812 -53.5645 L 50.0488 -61.4258 C 51.5625 -62.4023 52.3926 -62.793 53.9062 -62.793 C 55.8105 -62.793 57.2266 -61.5234 57.2266 -59.5215 L 57.2266 -10.8398 C 57.2266 -9.0332 56.0547 -7.86133 54.2969 -7.86133 Z M 90.6738 -39.0137 C 97.1191 -39.0137 101.611 -43.0664 101.611 -48.6328 C 101.611 -54.2969 97.168 -58.2031 90.6738 -58.2031 C 84.1797 -58.2031 79.7363 -54.2969 79.7363 -48.6328 C 79.7363 -43.0664 84.2285 -39.0137 90.6738 -39.0137 Z M 90.7227 -12.3535 C 98.3398 -12.3535 103.809 -16.9434 103.809 -23.3887 C 103.809 -29.6875 98.3887 -34.2285 90.7227 -34.2285 C 83.0566 -34.2285 77.5391 -29.6387 77.5391 -23.3887 C 77.5391 -16.9434 83.0566 -12.3535 90.7227 -12.3535 Z"/>
  </g>
  <g id="Thin-L" transform="matrix(1 0 0 1 783.693 1556)">
   <path d="M 72.7051 26.3184 C 106.494 26.3184 134.18 -1.36719 134.18 -35.1074 C 134.18 -68.8965 106.494 -96.582 72.7051 -96.582 C 38.9648 -96.582 11.2793 -68.8965 11.2793 -35.1074 C 11.2793 -1.36719 38.9648 26.3184 72.7051 26.3184 Z M 89.1113 -7.71484 C 78.3691 -7.71484 70.5078 -14.1602 70.5078 -23.3398 C 70.5078 -29.7852 75.2441 -35.3516 81.8359 -36.6211 L 81.8359 -36.9629 C 76.2695 -38.6719 72.5098 -43.4082 72.5098 -48.8281 C 72.5098 -57.0801 79.5898 -62.793 89.1113 -62.793 C 98.7793 -62.793 105.762 -57.0801 105.762 -48.8281 C 105.762 -43.4082 101.953 -38.5254 96.5332 -36.9629 L 96.5332 -36.6211 C 103.027 -35.3516 107.764 -29.7852 107.764 -23.3398 C 107.764 -14.2578 99.9023 -7.71484 89.1113 -7.71484 Z M 52.5391 -8.1543 C 51.416 -8.1543 50.5859 -8.93555 50.5859 -10.1074 L 50.5859 -57.4219 L 50.2441 -57.4219 L 38.623 -49.8047 C 38.1836 -49.5605 37.9883 -49.5605 37.5977 -49.5605 C 36.5234 -49.5605 35.7422 -50.3906 35.7422 -51.416 C 35.7422 -52.0996 35.9863 -52.6367 36.7188 -53.0762 L 49.8047 -61.6699 C 50.6836 -62.207 51.2207 -62.4023 52.1973 -62.4023 C 53.4668 -62.4023 54.4434 -61.6211 54.4434 -60.2539 L 54.4434 -10.1074 C 54.4434 -8.93555 53.7109 -8.1543 52.5391 -8.1543 Z M 89.1113 -38.4766 C 96.582 -38.4766 101.709 -42.8223 101.709 -48.8281 C 101.709 -54.9805 96.6797 -59.2285 89.1113 -59.2285 C 81.6895 -59.2285 76.6113 -54.9805 76.6113 -48.8281 C 76.6113 -42.8223 81.7383 -38.4766 89.1113 -38.4766 Z M 89.1602 -11.3281 C 97.8516 -11.3281 104.004 -16.3574 104.004 -23.291 C 104.004 -30.0293 97.8516 -34.9121 89.1602 -34.9121 C 80.4688 -34.9121 74.2188 -30.0293 74.2188 -23.291 C 74.2188 -16.3574 80.4688 -11.3281 89.1602 -11.3281 Z"/>
  </g>
  <g id="Ultralight-L" transform="matrix(1 0 0 1 487.616 1556)">
   <path d="M 72.1191 25.7324 C 105.566 25.7324 132.91 -1.61133 132.91 -35.1074 C 132.91 -68.5547 105.566 -95.8984 72.1191 -95.8984 C 38.623 -95.8984 11.2793 -68.5547 11.2793 -35.1074 C 11.2793 -1.61133 38.623 25.7324 72.1191 25.7324 Z M 88.3789 -7.95898 C 77.7344 -7.95898 69.8242 -14.3555 69.8242 -23.3887 C 69.8242 -29.834 74.707 -35.3516 81.2012 -36.6211 L 81.2012 -36.9629 C 75.7812 -38.623 71.8262 -43.4082 71.8262 -48.7305 C 71.8262 -56.8848 78.9062 -62.5977 88.3301 -62.5977 C 97.8516 -62.5977 104.834 -56.8848 104.834 -48.7305 C 104.834 -43.4082 100.928 -38.4766 95.6055 -36.9629 L 95.6055 -36.6211 C 101.953 -35.3516 106.836 -29.7852 106.836 -23.3887 C 106.836 -14.4531 98.9746 -7.95898 88.3789 -7.95898 Z M 51.6113 -8.30078 C 50.7812 -8.30078 50.1465 -8.83789 50.1465 -9.76562 L 50.1465 -58.4473 L 49.8535 -58.4473 L 37.207 -50.293 C 37.0117 -50.2441 36.9141 -50.2441 36.6211 -50.2441 C 35.7422 -50.2441 35.2539 -50.8789 35.2539 -51.6113 C 35.2539 -52.0996 35.3516 -52.4902 35.8887 -52.832 L 49.6582 -61.7676 C 50.2441 -62.0605 50.6348 -62.207 51.3184 -62.207 C 52.2949 -62.207 53.0762 -61.6699 53.0762 -60.6445 L 53.0762 -9.76562 C 53.0762 -8.83789 52.5391 -8.30078 51.6113 -8.30078 Z M 88.3301 -38.1836 C 96.2891 -38.1836 101.758 -42.6758 101.758 -48.9258 C 101.758 -55.2734 96.3867 -59.7168 88.3301 -59.7168 C 80.3711 -59.7168 75 -55.2734 75 -48.9258 C 75 -42.6758 80.4688 -38.1836 88.3301 -38.1836 Z M 88.3301 -10.8398 C 97.6074 -10.8398 104.15 -16.0645 104.15 -23.291 C 104.15 -30.2246 97.6074 -35.2539 88.3301 -35.2539 C 79.1504 -35.2539 72.5586 -30.2246 72.5586 -23.291 C 72.5586 -16.0645 79.1504 -10.8398 88.3301 -10.8398 Z"/>
  </g>
  <g id="Black-M" transform="matrix(1 0 0 1 2870.97 1126)">
   <path d="M 62.4023 18.457 C 91.9922 18.457 116.113 -5.61523 116.113 -35.2051 C 116.113 -64.7949 91.9922 -88.8672 62.4023 -88.8672 C 32.8125 -88.8672 8.74023 -64.7949 8.74023 -35.2051 C 8.74023 -5.61523 32.8125 18.457 62.4023 18.457 Z M 50.4883 -16.2109 C 46.9238 -16.2109 45.3125 -18.2129 45.3125 -22.4121 L 45.3125 -41.6504 L 45.1172 -41.6504 L 43.7012 -39.8926 C 42.5293 -38.3789 41.4551 -37.6465 39.5996 -37.6465 C 37.3047 -37.6465 35.5469 -39.5508 35.5469 -41.7969 C 35.5469 -43.7988 36.2793 -45.2637 38.3789 -47.2168 L 42.4316 -51.1719 C 45.0195 -53.7598 46.875 -54.3457 48.9746 -54.3457 C 53.4668 -54.3457 55.6641 -51.7578 55.6641 -47.2168 L 55.6641 -22.4121 C 55.6641 -18.2129 54.0039 -16.2109 50.4883 -16.2109 Z M 75.2441 -16.2109 C 67.1387 -16.2109 61.7676 -20.5566 61.7676 -27.0508 C 61.7676 -31.9336 64.7461 -34.9609 68.5547 -36.084 L 68.5547 -36.5234 C 65.8203 -37.1582 63.1348 -40.2344 63.1348 -44.3359 C 63.1348 -50.3418 67.9199 -54.2969 75.2441 -54.2969 C 82.5684 -54.2969 87.3535 -50.3418 87.3535 -44.3359 C 87.3535 -40.2344 84.668 -37.1582 81.9336 -36.5234 L 81.9336 -36.084 C 85.7422 -34.9609 88.7207 -31.9336 88.7207 -27.0508 C 88.7207 -20.5566 83.3008 -16.2109 75.2441 -16.2109 Z M 75.2441 -40.5273 C 76.9531 -40.5273 77.9785 -41.6992 77.9785 -43.2617 C 77.9785 -44.8242 76.8555 -46.0449 75.2441 -46.0449 C 73.584 -46.0449 72.5098 -44.8242 72.5098 -43.2617 C 72.5098 -41.6992 73.5352 -40.5273 75.2441 -40.5273 Z M 75.2441 -24.6094 C 77.1973 -24.6094 78.418 -26.0742 78.418 -27.9297 C 78.418 -29.8828 77.1973 -31.3477 75.2441 -31.3477 C 73.3887 -31.3477 72.1191 -29.8828 72.1191 -27.9297 C 72.1191 -26.0742 73.3887 -24.6094 75.2441 -24.6094 Z"/>
  </g>
  <g id="Heavy-M" transform="matrix(1 0 0 1 2575.19 1126)">
   <path d="M 61.5234 17.5781 C 90.5273 17.5781 114.258 -6.15234 114.258 -35.2051 C 114.258 -64.2578 90.5273 -87.9883 61.4746 -87.9883 C 32.4707 -87.9883 8.74023 -64.2578 8.74023 -35.2051 C 8.74023 -6.15234 32.4707 17.5781 61.5234 17.5781 Z M 74.4141 -15.4785 C 66.1621 -15.4785 60.5957 -20.0195 60.5957 -26.7578 C 60.5957 -31.6895 63.623 -35.0098 67.8711 -36.1328 L 67.8711 -36.5234 C 64.6484 -37.3535 62.0117 -40.5273 62.0117 -44.7266 C 62.0117 -50.9277 66.9434 -55.0293 74.4141 -55.0293 C 81.8848 -55.0293 86.8652 -50.9277 86.8652 -44.7266 C 86.8652 -40.5273 84.2285 -37.3535 81.0059 -36.5234 L 81.0059 -36.1328 C 85.2051 -35.0098 88.2324 -31.6895 88.2324 -26.7578 C 88.2324 -20.0195 82.666 -15.4785 74.4141 -15.4785 Z M 48.9258 -15.625 C 45.752 -15.625 44.1895 -17.4316 44.1895 -21.1426 L 44.1895 -43.3594 L 43.9941 -43.3594 L 41.6016 -41.0645 C 40.4297 -39.6973 39.502 -39.1113 37.9395 -39.1113 C 35.791 -39.1113 34.1309 -40.918 34.1309 -43.0176 C 34.1309 -44.873 34.8633 -46.1914 36.6699 -47.8516 L 41.6016 -52.1484 C 44.043 -54.3945 45.6543 -54.9805 47.7051 -54.9805 C 51.6113 -54.9805 53.6133 -52.6367 53.6133 -48.6328 L 53.6133 -21.1426 C 53.6133 -17.4316 52.0996 -15.625 48.9258 -15.625 Z M 74.4141 -40.0879 C 76.6602 -40.0879 78.125 -41.6504 78.125 -43.75 C 78.125 -45.8984 76.6113 -47.4609 74.4141 -47.4609 C 72.2168 -47.4609 70.752 -45.8984 70.752 -43.75 C 70.752 -41.6504 72.168 -40.0879 74.4141 -40.0879 Z M 74.4629 -23.1934 C 77.0508 -23.1934 78.8574 -25 78.8574 -27.5391 C 78.8574 -30.0781 77.0996 -31.9336 74.4629 -31.9336 C 71.875 -31.9336 70.0684 -30.0293 70.0684 -27.5391 C 70.0684 -25 71.875 -23.1934 74.4629 -23.1934 Z"/>
  </g>
  <g id="Bold-M" transform="matrix(1 0 0 1 2279.5 1126)">
   <path d="M 60.498 16.5039 C 88.8672 16.5039 112.207 -6.78711 112.207 -35.2051 C 112.207 -63.623 88.8672 -86.9629 60.4492 -86.9629 C 32.0312 -86.9629 8.74023 -63.623 8.74023 -35.2051 C 8.74023 -6.78711 32.0801 16.5039 60.498 16.5039 Z M 73.4863 -14.6973 C 64.9902 -14.6973 59.3262 -19.3848 59.3262 -26.3672 C 59.3262 -31.4453 62.4023 -35.1074 67.0898 -36.1816 L 67.0898 -36.5723 C 63.3301 -37.5977 60.7422 -40.918 60.7422 -45.2148 C 60.7422 -51.5137 65.918 -55.8105 73.5352 -55.8105 C 81.1523 -55.8105 86.2793 -51.5137 86.2793 -45.2148 C 86.2793 -40.918 83.6914 -37.5488 79.9316 -36.5723 L 79.9316 -36.1816 C 84.6191 -35.1074 87.7441 -31.4453 87.7441 -26.416 C 87.7441 -19.4336 81.9824 -14.6973 73.4863 -14.6973 Z M 47.168 -14.9414 C 44.4336 -14.9414 43.0176 -16.6504 43.0176 -19.7266 L 43.0176 -45.2637 L 42.7734 -45.2637 L 39.3066 -42.3828 C 38.1348 -41.1621 37.3535 -40.7227 36.0352 -40.7227 C 34.1309 -40.7227 32.5195 -42.3828 32.5195 -44.3848 C 32.5195 -46.0449 33.2031 -47.2168 34.8145 -48.584 L 40.7227 -53.2227 C 42.9199 -55.127 44.3359 -55.6641 46.2402 -55.6641 C 49.5605 -55.6641 51.3672 -53.6133 51.3672 -50.2441 L 51.3672 -19.7266 C 51.3672 -16.6504 49.9512 -14.9414 47.168 -14.9414 Z M 73.5352 -39.5996 C 76.3672 -39.5996 78.3203 -41.6016 78.3203 -44.3359 C 78.3203 -47.0703 76.3672 -49.0234 73.5352 -49.0234 C 70.7031 -49.0234 68.75 -47.0703 68.75 -44.3359 C 68.75 -41.6016 70.6543 -39.5996 73.5352 -39.5996 Z M 73.5352 -21.5332 C 76.9531 -21.5332 79.3457 -23.8281 79.3457 -27.0508 C 79.3457 -30.2246 77.002 -32.5684 73.5352 -32.5684 C 70.166 -32.5684 67.7734 -30.2246 67.7734 -27.0508 C 67.7734 -23.8281 70.166 -21.5332 73.5352 -21.5332 Z"/>
  </g>
  <g id="Semibold-M" transform="matrix(1 0 0 1 1983.5 1126)">
   <path d="M 59.7656 15.8203 C 87.7441 15.8203 110.791 -7.22656 110.791 -35.2051 C 110.791 -63.1836 87.6953 -86.2793 59.7656 -86.2793 C 31.7871 -86.2793 8.74023 -63.1836 8.74023 -35.2051 C 8.74023 -7.22656 31.7871 15.8203 59.7656 15.8203 Z M 72.8027 -14.1602 C 64.209 -14.1602 58.4473 -18.9453 58.4473 -26.123 C 58.4473 -31.25 61.5234 -35.1562 66.5527 -36.2305 L 66.5527 -36.5723 C 62.4512 -37.7441 59.9121 -41.1621 59.9121 -45.5078 C 59.9121 -51.9531 65.1855 -56.3965 72.9004 -56.3965 C 80.6152 -56.3965 85.8887 -51.9531 85.8887 -45.5078 C 85.8887 -41.1621 83.3496 -37.6465 79.248 -36.5723 L 79.248 -36.2305 C 84.2285 -35.1562 87.3535 -31.25 87.3535 -26.1719 C 87.3535 -18.9941 81.4941 -14.1602 72.8027 -14.1602 Z M 45.9473 -14.502 C 43.5547 -14.502 42.1387 -16.0645 42.1387 -18.75 L 42.1387 -46.582 L 41.8945 -46.582 L 37.6953 -43.2617 C 36.5234 -42.1387 35.8398 -41.8945 34.7168 -41.8945 C 32.959 -41.8945 31.4453 -43.4082 31.4453 -45.3125 C 31.4453 -46.875 32.1289 -47.9492 33.4961 -49.0723 L 40.0879 -53.9551 C 42.1875 -55.6641 43.4082 -56.1523 45.2637 -56.1523 C 48.1445 -56.1523 49.8047 -54.2969 49.8047 -51.3672 L 49.8047 -18.75 C 49.8047 -16.0645 48.4375 -14.502 45.9473 -14.502 Z M 72.9004 -39.3066 C 76.1719 -39.3066 78.418 -41.6016 78.418 -44.7754 C 78.418 -47.9004 76.1719 -50.0977 72.9004 -50.0977 C 69.6289 -50.0977 67.3828 -47.9004 67.3828 -44.7754 C 67.3828 -41.6016 69.6289 -39.3066 72.9004 -39.3066 Z M 72.9492 -20.459 C 76.8555 -20.459 79.6387 -23.0469 79.6387 -26.709 C 79.6387 -30.3711 76.9043 -33.0078 72.9492 -33.0078 C 68.9941 -33.0078 66.2109 -30.3223 66.2109 -26.709 C 66.2109 -23.0469 68.9941 -20.459 72.9492 -20.459 Z"/>
  </g>
  <g id="Medium-M" transform="matrix(1 0 0 1 1687.3 1126)">
   <path d="M 59.2285 15.2832 C 86.9141 15.2832 109.766 -7.56836 109.766 -35.2051 C 109.766 -62.8906 86.8652 -85.7422 59.1797 -85.7422 C 31.543 -85.7422 8.74023 -62.8906 8.74023 -35.2051 C 8.74023 -7.56836 31.5918 15.2832 59.2285 15.2832 Z M 72.3145 -13.7207 C 63.623 -13.7207 57.7637 -18.6523 57.7637 -25.9277 C 57.7637 -31.1035 60.8887 -35.1562 66.1621 -36.2793 L 66.1621 -36.6211 C 61.7676 -37.8906 59.2773 -41.3574 59.2773 -45.752 C 59.2773 -52.2949 64.6484 -56.7871 72.4609 -56.7871 C 80.2246 -56.7871 85.5957 -52.2949 85.5957 -45.752 C 85.5957 -41.3574 83.0566 -37.793 78.7109 -36.6211 L 78.7109 -36.2793 C 83.9355 -35.1562 87.0605 -31.1523 87.0605 -25.9766 C 87.0605 -18.7012 81.1035 -13.7207 72.3145 -13.7207 Z M 45.0684 -14.1602 C 42.8711 -14.1602 41.5039 -15.625 41.5039 -18.0176 L 41.5039 -47.5586 L 41.2598 -47.5586 L 36.5234 -43.9453 C 35.3516 -42.9199 34.7168 -42.7246 33.7402 -42.7246 C 32.0801 -42.7246 30.5664 -44.1895 30.5664 -46.0449 C 30.5664 -47.4609 31.25 -48.4863 32.5195 -49.4629 L 39.6484 -54.541 C 41.6016 -56.0059 42.7246 -56.543 44.4824 -56.543 C 47.0703 -56.543 48.6328 -54.834 48.6328 -52.1973 L 48.6328 -18.0176 C 48.6328 -15.625 47.3145 -14.1602 45.0684 -14.1602 Z M 72.4609 -39.0137 C 76.0254 -39.0137 78.5156 -41.5527 78.5156 -45.0684 C 78.5156 -48.5352 76.0254 -50.9277 72.4609 -50.9277 C 68.8477 -50.9277 66.3086 -48.5352 66.3086 -45.0684 C 66.3086 -41.5527 68.8477 -39.0137 72.4609 -39.0137 Z M 72.5098 -19.5801 C 76.8066 -19.5801 79.8828 -22.4121 79.8828 -26.4648 C 79.8828 -30.4688 76.8555 -33.3496 72.5098 -33.3496 C 68.1152 -33.3496 64.9902 -30.4199 64.9902 -26.4648 C 64.9902 -22.4121 68.1152 -19.5801 72.5098 -19.5801 Z"/>
  </g>
  <g id="Regular-M" transform="matrix(1 0 0 1 1391.3 1126)">
   <path d="M 58.5449 14.5508 C 85.791 14.5508 108.35 -8.00781 108.35 -35.2539 C 108.35 -62.4512 85.7422 -85.0586 58.4961 -85.0586 C 31.2988 -85.0586 8.74023 -62.4512 8.74023 -35.2539 C 8.74023 -8.00781 31.3477 14.5508 58.5449 14.5508 Z M 71.6797 -13.1836 C 62.8418 -13.1836 56.8848 -18.2129 56.8848 -25.6836 C 56.8848 -30.9082 60.0586 -35.2051 65.625 -36.3281 L 65.625 -36.6211 C 60.8398 -38.0371 58.3984 -41.6016 58.3984 -46.0938 C 58.3984 -52.7344 63.9648 -57.3242 71.8262 -57.3242 C 79.6875 -57.3242 85.2051 -52.7344 85.2051 -46.0938 C 85.2051 -41.6016 82.7148 -37.8906 77.9785 -36.6211 L 77.9785 -36.3281 C 83.4961 -35.2051 86.7188 -30.957 86.7188 -25.7324 C 86.7188 -18.2617 80.6152 -13.1836 71.6797 -13.1836 Z M 43.8477 -13.7207 C 41.9922 -13.7207 40.6738 -15.0391 40.6738 -17.041 L 40.6738 -48.877 L 40.3809 -48.877 L 34.9121 -44.8242 C 33.7402 -43.8965 33.252 -43.8477 32.4707 -43.8477 C 30.9082 -43.8477 29.4922 -45.2148 29.4922 -46.9727 C 29.4922 -48.291 30.1758 -49.2188 31.25 -49.9512 L 39.0137 -55.2734 C 40.8691 -56.4941 41.7969 -57.0312 43.5059 -57.0312 C 45.6543 -57.0312 47.1191 -55.5176 47.1191 -53.3203 L 47.1191 -17.041 C 47.1191 -15.0391 45.8496 -13.7207 43.8477 -13.7207 Z M 71.8262 -38.7207 C 75.8301 -38.7207 78.6621 -41.5527 78.6621 -45.459 C 78.6621 -49.3164 75.8301 -52.002 71.8262 -52.002 C 67.8223 -52.002 64.9902 -49.3164 64.9902 -45.459 C 64.9902 -41.5527 67.8223 -38.7207 71.8262 -38.7207 Z M 71.875 -18.5059 C 76.709 -18.5059 80.2246 -21.6309 80.2246 -26.123 C 80.2246 -30.5664 76.8066 -33.7891 71.875 -33.7891 C 66.9434 -33.7891 63.4277 -30.5176 63.4277 -26.123 C 63.4277 -21.6309 66.9434 -18.5059 71.875 -18.5059 Z"/>
  </g>
  <g id="Light-M" transform="matrix(1 0 0 1 1095.42 1126)">
   <path d="M 57.7148 13.7695 C 84.5215 13.7695 106.689 -8.39844 106.689 -35.2051 C 106.689 -62.0117 84.5215 -84.1797 57.666 -84.1797 C 30.8594 -84.1797 8.74023 -62.0117 8.74023 -35.2051 C 8.74023 -8.39844 30.9082 13.7695 57.7148 13.7695 Z M 70.7031 -13.4766 C 62.0605 -13.4766 56.0547 -18.457 56.0547 -25.8301 C 56.0547 -30.957 59.375 -35.2539 64.7949 -36.3281 L 64.7949 -36.6211 C 60.2051 -37.9883 57.5684 -41.6016 57.5684 -45.9473 C 57.5684 -52.4902 63.0859 -57.0801 70.8008 -57.0801 C 78.5156 -57.0801 83.9844 -52.4902 83.9844 -45.9473 C 83.9844 -41.6016 81.2988 -37.8418 76.8066 -36.6211 L 76.8066 -36.3281 C 82.1289 -35.2539 85.498 -31.0059 85.498 -25.8301 C 85.498 -18.5547 79.3945 -13.4766 70.7031 -13.4766 Z M 42.6758 -13.916 C 41.1621 -13.916 40.1367 -14.9902 40.1367 -16.5527 L 40.1367 -50.2441 L 39.8438 -50.2441 L 33.0566 -45.459 C 32.1777 -44.8242 31.7871 -44.7754 31.2012 -44.7754 C 29.9316 -44.7754 28.8086 -45.8984 28.8086 -47.2656 C 28.8086 -48.291 29.2969 -49.0234 30.1758 -49.6094 L 38.8672 -55.4199 C 40.2344 -56.3477 41.0156 -56.7383 42.334 -56.7383 C 44.043 -56.7383 45.2637 -55.5664 45.2637 -53.8086 L 45.2637 -16.5527 C 45.2637 -14.9902 44.2383 -13.916 42.6758 -13.916 Z M 70.8008 -38.3301 C 75.4395 -38.3301 78.7109 -41.3574 78.7109 -45.5566 C 78.7109 -49.8047 75.4883 -52.6855 70.8008 -52.6855 C 66.1133 -52.6855 62.8418 -49.8047 62.8418 -45.5566 C 62.8418 -41.3574 66.1133 -38.3301 70.8008 -38.3301 Z M 70.8008 -17.8223 C 76.3672 -17.8223 80.3711 -21.2402 80.3711 -26.0742 C 80.3711 -30.8105 76.4648 -34.2285 70.8008 -34.2285 C 65.2344 -34.2285 61.1816 -30.8105 61.1816 -26.0742 C 61.1816 -21.2402 65.2344 -17.8223 70.8008 -17.8223 Z"/>
  </g>
  <g id="Thin-M" transform="matrix(1 0 0 1 799.806 1126)">
   <path d="M 56.6406 12.7441 C 82.9102 12.7441 104.492 -8.83789 104.492 -35.1562 C 104.492 -61.4746 82.9102 -83.0566 56.5918 -83.0566 C 30.3223 -83.0566 8.74023 -61.4746 8.74023 -35.1562 C 8.74023 -8.83789 30.3223 12.7441 56.6406 12.7441 Z M 69.3848 -13.8184 C 60.9863 -13.8184 54.8828 -18.8477 54.8828 -25.9766 C 54.8828 -31.0059 58.4961 -35.3027 63.6719 -36.3281 L 63.6719 -36.5723 C 59.3262 -37.8906 56.4453 -41.5527 56.4453 -45.8008 C 56.4453 -52.2461 61.9629 -56.6895 69.3848 -56.6895 C 76.9043 -56.6895 82.373 -52.2461 82.373 -45.8008 C 82.373 -41.5527 79.4922 -37.793 75.1953 -36.5723 L 75.1953 -36.3281 C 80.2734 -35.3027 83.8867 -31.0059 83.8867 -25.9766 C 83.8867 -18.8965 77.7832 -13.8184 69.3848 -13.8184 Z M 41.0645 -14.209 C 40.0879 -14.209 39.4043 -14.8926 39.4043 -15.918 L 39.4043 -52.002 L 39.1113 -52.002 L 30.5664 -46.3379 C 30.0781 -46.0449 29.8828 -46.0449 29.541 -46.0449 C 28.6133 -46.0449 27.9297 -46.7285 27.9297 -47.6562 C 27.9297 -48.291 28.1738 -48.7793 28.7598 -49.1699 L 38.623 -55.6641 C 39.4531 -56.1523 39.9414 -56.3965 40.8203 -56.3965 C 41.9434 -56.3965 42.8223 -55.6641 42.8223 -54.4434 L 42.8223 -15.918 C 42.8223 -14.8926 42.1387 -14.209 41.0645 -14.209 Z M 69.3848 -37.8418 C 74.9512 -37.8418 78.8086 -41.1621 78.8086 -45.7031 C 78.8086 -50.3906 75 -53.6133 69.3848 -53.6133 C 63.8184 -53.6133 60.0586 -50.3906 60.0586 -45.7031 C 60.0586 -41.1621 63.8672 -37.8418 69.3848 -37.8418 Z M 69.4336 -16.9434 C 75.9277 -16.9434 80.5664 -20.7031 80.5664 -26.0254 C 80.5664 -31.1035 75.9766 -34.8633 69.4336 -34.8633 C 62.9395 -34.8633 58.252 -31.1035 58.252 -26.0254 C 58.252 -20.7031 62.9395 -16.9434 69.4336 -16.9434 Z"/>
  </g>
  <g id="Ultralight-M" transform="matrix(1 0 0 1 503.656 1126)">
   <path d="M 56.0547 12.207 C 82.0801 12.207 103.369 -9.08203 103.369 -35.1562 C 103.369 -61.1816 82.0801 -82.4707 56.0547 -82.4707 C 30.0293 -82.4707 8.74023 -61.1816 8.74023 -35.1562 C 8.74023 -9.08203 30.0293 12.207 56.0547 12.207 Z M 68.7012 -14.0137 C 60.4004 -14.0137 54.2969 -18.9941 54.2969 -26.0254 C 54.2969 -31.0059 58.0566 -35.3027 63.0859 -36.3281 L 63.0859 -36.5723 C 58.8867 -37.8906 55.8594 -41.5527 55.8594 -45.7031 C 55.8594 -52.0996 61.377 -56.4941 68.7012 -56.4941 C 76.123 -56.4941 81.543 -52.0996 81.543 -45.7031 C 81.543 -41.5527 78.5156 -37.7441 74.3652 -36.5723 L 74.3652 -36.3281 C 79.3457 -35.3027 83.1055 -31.0059 83.1055 -26.0254 C 83.1055 -19.0918 77.002 -14.0137 68.7012 -14.0137 Z M 40.2832 -14.3066 C 39.5508 -14.3066 39.0137 -14.7949 39.0137 -15.625 L 39.0137 -52.9297 L 38.7695 -52.9297 L 29.248 -46.7773 C 29.0527 -46.6309 28.9062 -46.6309 28.6621 -46.6309 C 27.9297 -46.6309 27.4414 -47.2168 27.4414 -47.8516 C 27.4414 -48.291 27.5879 -48.6328 28.0762 -48.9746 L 38.5254 -55.7617 C 39.0625 -56.0547 39.4043 -56.2012 40.0391 -56.2012 C 40.8691 -56.2012 41.5527 -55.7129 41.5527 -54.7852 L 41.5527 -15.625 C 41.5527 -14.7949 41.0645 -14.3066 40.2832 -14.3066 Z M 68.7012 -37.5977 C 74.707 -37.5977 78.8574 -41.0645 78.8574 -45.8008 C 78.8574 -50.6836 74.8047 -54.0527 68.7012 -54.0527 C 62.6953 -54.0527 58.5938 -50.6836 58.5938 -45.8008 C 58.5938 -41.0645 62.7441 -37.5977 68.7012 -37.5977 Z M 68.7012 -16.4551 C 75.7324 -16.4551 80.6641 -20.459 80.6641 -25.9766 C 80.6641 -31.2988 75.7324 -35.1562 68.7012 -35.1562 C 61.7676 -35.1562 56.7383 -31.2988 56.7383 -25.9766 C 56.7383 -20.459 61.7676 -16.4551 68.7012 -16.4551 Z"/>
  </g>
  <g id="Black-S" transform="matrix(1 0 0 1 2884.57 696)">
   <path d="M 48.8281 6.78711 C 71.9727 6.78711 90.8203 -12.0605 90.8203 -35.2051 C 90.8203 -58.3496 71.9727 -77.1973 48.8281 -77.1973 C 25.6836 -77.1973 6.83594 -58.3496 6.83594 -35.2051 C 6.83594 -12.0605 25.6836 6.78711 48.8281 6.78711 Z M 39.4531 -20.2637 C 36.6699 -20.2637 35.4004 -21.8262 35.4004 -25.0977 L 35.4004 -40.3809 L 35.2539 -40.3809 L 34.082 -38.9648 C 33.1543 -37.793 32.3242 -37.207 30.9082 -37.207 C 29.1016 -37.207 27.7344 -38.7207 27.7344 -40.4785 C 27.7344 -42.041 28.3203 -43.1641 29.9316 -44.6777 L 33.1543 -47.8027 C 35.2051 -49.8047 36.6211 -50.2441 38.2812 -50.2441 C 41.748 -50.2441 43.457 -48.2422 43.457 -44.7266 L 43.457 -25.0977 C 43.457 -21.8262 42.1875 -20.2637 39.4531 -20.2637 Z M 58.8867 -20.2637 C 52.5391 -20.2637 48.291 -23.6816 48.291 -28.8086 C 48.291 -32.6172 50.6348 -35.0098 53.6621 -35.8887 L 53.6621 -36.2305 C 51.4648 -36.7676 49.3652 -39.1602 49.3652 -42.3828 C 49.3652 -47.1191 53.125 -50.2441 58.8867 -50.2441 C 64.6484 -50.2441 68.4082 -47.1191 68.4082 -42.3828 C 68.4082 -39.1602 66.3086 -36.7676 64.1113 -36.2305 L 64.1113 -35.8887 C 67.1387 -35.0098 69.4824 -32.6172 69.4824 -28.8086 C 69.4824 -23.6816 65.2344 -20.2637 58.8867 -20.2637 Z M 58.8867 -39.3555 C 60.2539 -39.3555 61.084 -40.2832 61.084 -41.5527 C 61.084 -42.8223 60.2051 -43.7988 58.8867 -43.7988 C 57.5684 -43.7988 56.6895 -42.8223 56.6895 -41.5527 C 56.6895 -40.2832 57.5195 -39.3555 58.8867 -39.3555 Z M 58.8867 -26.8066 C 60.4492 -26.8066 61.4746 -27.9785 61.4746 -29.4922 C 61.4746 -31.0547 60.4492 -32.2266 58.8867 -32.2266 C 57.373 -32.2266 56.3477 -31.0547 56.3477 -29.4922 C 56.3477 -27.9785 57.373 -26.8066 58.8867 -26.8066 Z"/>
  </g>
  <g id="Heavy-S" transform="matrix(1 0 0 1 2588.47 696)">
   <path d="M 48.2422 6.15234 C 70.9961 6.15234 89.5996 -12.4512 89.5996 -35.2051 C 89.5996 -57.959 70.9961 -76.6113 48.1934 -76.6113 C 25.4395 -76.6113 6.83594 -57.959 6.83594 -35.2051 C 6.83594 -12.4512 25.4395 6.15234 48.2422 6.15234 Z M 58.3496 -19.6777 C 51.8555 -19.6777 47.5098 -23.2422 47.5098 -28.5645 C 47.5098 -32.4219 49.8535 -35.0586 53.2227 -35.9375 L 53.2227 -36.2305 C 50.6348 -36.9141 48.584 -39.4043 48.584 -42.7246 C 48.584 -47.5586 52.4902 -50.8301 58.3984 -50.8301 C 64.2578 -50.8301 68.1641 -47.5586 68.1641 -42.7246 C 68.1641 -39.4043 66.1133 -36.9141 63.5254 -36.2305 L 63.5254 -35.9375 C 66.8945 -35.0586 69.2383 -32.4219 69.2383 -28.5645 C 69.2383 -23.2422 64.8926 -19.6777 58.3496 -19.6777 Z M 38.3789 -19.7754 C 35.8887 -19.7754 34.6191 -21.2891 34.6191 -24.1699 L 34.6191 -41.5527 L 34.4727 -41.5527 L 32.7148 -39.7949 C 31.7383 -38.6719 31.0059 -38.2324 29.7363 -38.2324 C 28.0762 -38.2324 26.709 -39.6484 26.709 -41.3574 C 26.709 -42.8711 27.2949 -43.8965 28.7598 -45.2148 L 32.5684 -48.5352 C 34.5215 -50.3418 35.791 -50.7812 37.4023 -50.7812 C 40.5273 -50.7812 42.1387 -48.9258 42.1387 -45.752 L 42.1387 -24.1699 C 42.1387 -21.2891 40.8691 -19.7754 38.3789 -19.7754 Z M 58.3984 -39.0625 C 60.1074 -39.0625 61.1816 -40.2832 61.1816 -41.9434 C 61.1816 -43.6035 60.0586 -44.8242 58.3984 -44.8242 C 56.6895 -44.8242 55.5664 -43.6035 55.5664 -41.9434 C 55.5664 -40.2832 56.6895 -39.0625 58.3984 -39.0625 Z M 58.3984 -25.7812 C 60.4004 -25.7812 61.7676 -27.1973 61.7676 -29.1504 C 61.7676 -31.1523 60.4004 -32.6172 58.3984 -32.6172 C 56.3965 -32.6172 55.0293 -31.1523 55.0293 -29.1504 C 55.0293 -27.1973 56.3965 -25.7812 58.3984 -25.7812 Z"/>
  </g>
  <g id="Bold-S" transform="matrix(1 0 0 1 2292.44 696)">
   <path d="M 47.5586 5.46875 C 69.873 5.46875 88.2324 -12.8906 88.2324 -35.2051 C 88.2324 -57.5684 69.873 -75.9277 47.5098 -75.9277 C 25.1953 -75.9277 6.83594 -57.5684 6.83594 -35.2051 C 6.83594 -12.8906 25.1953 5.46875 47.5586 5.46875 Z M 57.7637 -19.043 C 51.0742 -19.043 46.6309 -22.7051 46.6309 -28.2715 C 46.6309 -32.2266 48.9746 -35.1074 52.7344 -35.9863 L 52.7344 -36.2793 C 49.707 -37.1094 47.7539 -39.6973 47.7539 -43.0664 C 47.7539 -48.0957 51.8066 -51.4648 57.8125 -51.4648 C 63.8184 -51.4648 67.8711 -48.0957 67.8711 -43.0664 C 67.8711 -39.6973 65.8691 -37.0605 62.8906 -36.2793 L 62.8906 -35.9863 C 66.6016 -35.1074 68.9941 -32.2754 68.9941 -28.2715 C 68.9941 -22.7539 64.502 -19.043 57.7637 -19.043 Z M 37.207 -19.2871 C 34.9609 -19.2871 33.7891 -20.6543 33.7891 -23.1445 L 33.7891 -42.8223 L 33.5938 -42.8223 L 31.2012 -40.7227 C 30.1758 -39.6973 29.541 -39.3555 28.4668 -39.3555 C 26.9043 -39.3555 25.5859 -40.7227 25.5859 -42.3828 C 25.5859 -43.75 26.1719 -44.7266 27.4414 -45.8008 L 31.8848 -49.3164 C 33.7402 -50.8789 34.8633 -51.3672 36.4746 -51.3672 C 39.1113 -51.3672 40.625 -49.6582 40.625 -46.9238 L 40.625 -23.1445 C 40.625 -20.6543 39.4043 -19.2871 37.207 -19.2871 Z M 57.8125 -38.7207 C 59.9121 -38.7207 61.3281 -40.2832 61.3281 -42.3828 C 61.3281 -44.4336 59.8633 -45.9473 57.8125 -45.9473 C 55.7617 -45.9473 54.2969 -44.4336 54.2969 -42.3828 C 54.2969 -40.2832 55.7129 -38.7207 57.8125 -38.7207 Z M 57.8613 -24.6094 C 60.3516 -24.6094 62.1094 -26.3672 62.1094 -28.8086 C 62.1094 -31.25 60.4004 -33.0566 57.8613 -33.0566 C 55.3223 -33.0566 53.5645 -31.25 53.5645 -28.8086 C 53.5645 -26.3672 55.3223 -24.6094 57.8613 -24.6094 Z"/>
  </g>
  <g id="Semibold-S" transform="matrix(1 0 0 1 1996.2 696)">
   <path d="M 47.0703 4.98047 C 69.0918 4.98047 87.3047 -13.1836 87.3047 -35.2539 C 87.3047 -57.2754 69.0918 -75.4883 47.0215 -75.4883 C 25 -75.4883 6.83594 -57.2754 6.83594 -35.2539 C 6.83594 -13.1836 25.0488 4.98047 47.0703 4.98047 Z M 57.373 -18.6035 C 50.5371 -18.6035 46.0449 -22.3633 46.0449 -28.0762 C 46.0449 -32.0801 48.3887 -35.1562 52.3926 -36.0352 L 52.3926 -36.2793 C 49.1211 -37.207 47.168 -39.8926 47.168 -43.3594 C 47.168 -48.4375 51.3184 -51.9043 57.4219 -51.9043 C 63.5254 -51.9043 67.6758 -48.4375 67.6758 -43.3594 C 67.6758 -39.8926 65.7227 -37.1582 62.4512 -36.2793 L 62.4512 -36.0352 C 66.4062 -35.1562 68.7988 -32.1289 68.7988 -28.0762 C 68.7988 -22.4121 64.209 -18.6035 57.373 -18.6035 Z M 36.377 -18.8965 C 34.375 -18.8965 33.1543 -20.2148 33.1543 -22.4609 L 33.1543 -43.7012 L 32.959 -43.7012 L 30.127 -41.3086 C 29.1016 -40.3809 28.5156 -40.1855 27.5879 -40.1855 C 26.123 -40.1855 24.8047 -41.4551 24.8047 -43.0664 C 24.8047 -44.3848 25.3906 -45.2637 26.5625 -46.1914 L 31.4453 -49.9023 C 33.2031 -51.2695 34.2285 -51.7578 35.791 -51.7578 C 38.1836 -51.7578 39.5996 -50.1953 39.5996 -47.7539 L 39.5996 -22.4609 C 39.5996 -20.2148 38.4277 -18.8965 36.377 -18.8965 Z M 57.4219 -38.5254 C 59.7656 -38.5254 61.4258 -40.2832 61.4258 -42.6758 C 61.4258 -45.0195 59.7656 -46.6797 57.4219 -46.6797 C 55.0781 -46.6797 53.418 -45.0195 53.418 -42.6758 C 53.418 -40.2832 55.0781 -38.5254 57.4219 -38.5254 Z M 57.4707 -23.8281 C 60.3027 -23.8281 62.3535 -25.7812 62.3535 -28.5645 C 62.3535 -31.3477 60.4004 -33.3496 57.4707 -33.3496 C 54.5898 -33.3496 52.5391 -31.2988 52.5391 -28.5645 C 52.5391 -25.7812 54.5898 -23.8281 57.4707 -23.8281 Z"/>
  </g>
  <g id="Medium-S" transform="matrix(1 0 0 1 1699.83 696)">
   <path d="M 46.7285 4.63867 C 68.5547 4.63867 86.6211 -13.4277 86.6211 -35.2539 C 86.6211 -57.0312 68.5059 -75.1465 46.6797 -75.1465 C 24.8535 -75.1465 6.83594 -57.0312 6.83594 -35.2539 C 6.83594 -13.4277 24.9023 4.63867 46.7285 4.63867 Z M 57.0312 -18.2617 C 50.1465 -18.2617 45.5566 -22.1191 45.5566 -27.8809 C 45.5566 -31.9824 47.9492 -35.1562 52.1484 -36.0352 L 52.1484 -36.3281 C 48.6328 -37.3047 46.7285 -40.0391 46.7285 -43.5059 C 46.7285 -48.6816 50.9766 -52.2461 57.1289 -52.2461 C 63.2812 -52.2461 67.5293 -48.6816 67.5293 -43.5059 C 67.5293 -40.0391 65.625 -37.2559 62.1094 -36.3281 L 62.1094 -36.0352 C 66.2598 -35.1562 68.7012 -32.0312 68.7012 -27.9297 C 68.7012 -22.168 64.0137 -18.2617 57.0312 -18.2617 Z M 35.7422 -18.6523 C 33.8867 -18.6523 32.7148 -19.873 32.7148 -21.9238 L 32.7148 -44.3848 L 32.5195 -44.3848 L 29.2969 -41.7969 C 28.2715 -40.918 27.7344 -40.7715 26.9043 -40.7715 C 25.4883 -40.7715 24.2188 -41.9922 24.2188 -43.6035 C 24.2188 -44.8242 24.8047 -45.7031 25.8789 -46.5332 L 31.1035 -50.293 C 32.8125 -51.6113 33.7402 -52.0508 35.3027 -52.0508 C 37.4512 -52.0508 38.8184 -50.5859 38.8184 -48.3398 L 38.8184 -21.9238 C 38.8184 -19.873 37.6465 -18.6523 35.7422 -18.6523 Z M 57.1289 -38.3301 C 59.668 -38.3301 61.4746 -40.2832 61.4746 -42.8711 C 61.4746 -45.459 59.668 -47.2656 57.1289 -47.2656 C 54.5898 -47.2656 52.7832 -45.459 52.7832 -42.8711 C 52.7832 -40.2832 54.5898 -38.3301 57.1289 -38.3301 Z M 57.1777 -23.2422 C 60.3027 -23.2422 62.5488 -25.3418 62.5488 -28.3691 C 62.5488 -31.3965 60.3516 -33.5449 57.1777 -33.5449 C 54.0527 -33.5449 51.7578 -31.3477 51.7578 -28.3691 C 51.7578 -25.3418 54.0527 -23.2422 57.1777 -23.2422 Z"/>
  </g>
  <g id="Regular-S" transform="matrix(1 0 0 1 1403.58 696)">
   <path d="M 46.2402 4.15039 C 67.7734 4.15039 85.6934 -13.7207 85.6934 -35.2539 C 85.6934 -56.7871 67.7246 -74.6582 46.1914 -74.6582 C 24.707 -74.6582 6.83594 -56.7871 6.83594 -35.2539 C 6.83594 -13.7207 24.7559 4.15039 46.2402 4.15039 Z M 56.6406 -17.8223 C 49.6094 -17.8223 44.9707 -21.7773 44.9707 -27.6855 C 44.9707 -31.8359 47.3633 -35.2051 51.8066 -36.084 L 51.8066 -36.3281 C 47.998 -37.4512 46.1426 -40.2344 46.1426 -43.7988 C 46.1426 -49.0234 50.4883 -52.6855 56.7871 -52.6855 C 62.9883 -52.6855 67.334 -49.0234 67.334 -43.7988 C 67.334 -40.2344 65.4785 -37.3535 61.6699 -36.3281 L 61.6699 -36.084 C 66.1133 -35.2051 68.5059 -31.8848 68.5059 -27.7344 C 68.5059 -21.8262 63.7207 -17.8223 56.6406 -17.8223 Z M 34.9121 -18.3105 C 33.252 -18.3105 32.1289 -19.4824 32.1289 -21.1914 L 32.1289 -45.2637 L 31.8848 -45.2637 L 28.2715 -42.4316 C 27.1973 -41.6016 26.709 -41.5527 26.0254 -41.5527 C 24.707 -41.5527 23.4375 -42.7246 23.4375 -44.2871 C 23.4375 -45.459 24.0234 -46.2402 25 -46.9238 L 30.6152 -50.8789 C 32.2754 -52.002 33.1055 -52.4414 34.6191 -52.4414 C 36.5234 -52.4414 37.793 -51.0742 37.793 -49.1699 L 37.793 -21.1914 C 37.793 -19.4824 36.6699 -18.3105 34.9121 -18.3105 Z M 56.7871 -38.1348 C 59.5703 -38.1348 61.5723 -40.2344 61.5723 -43.1641 C 61.5723 -46.0449 59.5703 -48.0469 56.7871 -48.0469 C 53.9551 -48.0469 51.9043 -46.0449 51.9043 -43.1641 C 51.9043 -40.2344 53.9551 -38.1348 56.7871 -38.1348 Z M 56.8359 -22.4609 C 60.2539 -22.4609 62.7441 -24.7559 62.7441 -28.125 C 62.7441 -31.4941 60.3516 -33.8379 56.8359 -33.8379 C 53.2715 -33.8379 50.7812 -31.4453 50.7812 -28.125 C 50.7812 -24.7559 53.2715 -22.4609 56.8359 -22.4609 Z"/>
  </g>
  <g id="Light-S" transform="matrix(1 0 0 1 1107.6 696)">
   <path d="M 45.5078 3.4668 C 66.6992 3.4668 84.2285 -14.0625 84.2285 -35.2051 C 84.2285 -56.3965 66.6504 -73.9258 45.5078 -73.9258 C 24.3164 -73.9258 6.83594 -56.3965 6.83594 -35.2051 C 6.83594 -14.0625 24.3652 3.4668 45.5078 3.4668 Z M 55.7617 -18.0664 C 48.9258 -18.0664 44.2383 -22.0215 44.2383 -27.7832 C 44.2383 -31.8848 46.7773 -35.2539 51.0742 -36.084 L 51.0742 -36.3281 C 47.4121 -37.4023 45.4102 -40.2344 45.4102 -43.7012 C 45.4102 -48.8281 49.7559 -52.4414 55.8594 -52.4414 C 61.9629 -52.4414 66.2598 -48.8281 66.2598 -43.7012 C 66.2598 -40.2344 64.209 -37.3047 60.5957 -36.3281 L 60.5957 -36.084 C 64.8438 -35.2539 67.4316 -31.8848 67.4316 -27.832 C 67.4316 -22.0703 62.6465 -18.0664 55.7617 -18.0664 Z M 33.8867 -18.457 C 32.5684 -18.457 31.6406 -19.3848 31.6406 -20.8008 L 31.6406 -46.4844 L 31.3965 -46.4844 L 26.6113 -43.0176 C 25.7812 -42.3828 25.4395 -42.3828 24.9023 -42.3828 C 23.8281 -42.3828 22.8516 -43.3105 22.8516 -44.5312 C 22.8516 -45.459 23.291 -46.0938 24.0234 -46.6309 L 30.4688 -51.0254 C 31.7383 -51.8555 32.4219 -52.1973 33.5938 -52.1973 C 35.1074 -52.1973 36.1328 -51.123 36.1328 -49.6094 L 36.1328 -20.8008 C 36.1328 -19.3848 35.2539 -18.457 33.8867 -18.457 Z M 55.8594 -37.793 C 59.2285 -37.793 61.6211 -40.0879 61.6211 -43.2617 C 61.6211 -46.4844 59.2773 -48.6328 55.8594 -48.6328 C 52.4414 -48.6328 50.0488 -46.4844 50.0488 -43.2617 C 50.0488 -40.0879 52.4414 -37.793 55.8594 -37.793 Z M 55.8594 -21.875 C 59.9609 -21.875 62.8906 -24.4141 62.8906 -28.0762 C 62.8906 -31.6895 60.0098 -34.2773 55.8594 -34.2773 C 51.7578 -34.2773 48.7793 -31.6406 48.7793 -28.0762 C 48.7793 -24.4141 51.7578 -21.875 55.8594 -21.875 Z"/>
  </g>
  <g id="Thin-S" transform="matrix(1 0 0 1 811.867 696)">
   <path d="M 44.5801 2.53906 C 65.2832 2.53906 82.2754 -14.4531 82.2754 -35.2051 C 82.2754 -55.9082 65.2344 -72.9004 44.5312 -72.9004 C 23.8281 -72.9004 6.83594 -55.9082 6.83594 -35.2051 C 6.83594 -14.4531 23.877 2.53906 44.5801 2.53906 Z M 54.5898 -18.4082 C 47.9492 -18.4082 43.2129 -22.3145 43.2129 -27.9297 C 43.2129 -31.8848 45.9961 -35.2539 50.0977 -36.084 L 50.0977 -36.2793 C 46.6309 -37.3535 44.4336 -40.1855 44.4336 -43.5547 C 44.4336 -48.584 48.7305 -52.0996 54.6387 -52.0996 C 60.5469 -52.0996 64.8438 -48.584 64.8438 -43.5547 C 64.8438 -40.1855 62.5977 -37.2559 59.1797 -36.2793 L 59.1797 -36.084 C 63.2324 -35.2539 66.0156 -31.9336 66.0156 -27.9297 C 66.0156 -22.3633 61.2305 -18.4082 54.5898 -18.4082 Z M 32.4707 -18.7012 C 31.5918 -18.7012 31.0059 -19.2871 31.0059 -20.2148 L 31.0059 -48.0469 L 30.7617 -48.0469 L 24.4141 -43.75 C 23.9746 -43.457 23.7793 -43.457 23.4375 -43.457 C 22.6562 -43.457 22.0215 -44.0918 22.0215 -44.873 C 22.0215 -45.459 22.2656 -45.8984 22.8027 -46.2402 L 30.3223 -51.1719 C 31.0547 -51.6602 31.4941 -51.8555 32.2754 -51.8555 C 33.252 -51.8555 33.9844 -51.2207 33.9844 -50.1465 L 33.9844 -20.2148 C 33.9844 -19.2871 33.3984 -18.7012 32.4707 -18.7012 Z M 54.6387 -37.4023 C 58.8379 -37.4023 61.7188 -39.9414 61.7188 -43.4082 C 61.7188 -46.9727 58.8379 -49.4629 54.6387 -49.4629 C 50.4395 -49.4629 47.5586 -46.9727 47.5586 -43.4082 C 47.5586 -39.9414 50.4883 -37.4023 54.6387 -37.4023 Z M 54.6387 -21.0449 C 59.5703 -21.0449 63.0859 -23.9746 63.0859 -28.0273 C 63.0859 -31.9336 59.6191 -34.8145 54.6387 -34.8145 C 49.707 -34.8145 46.1914 -31.9336 46.1914 -28.0273 C 46.1914 -23.9746 49.707 -21.0449 54.6387 -21.0449 Z"/>
  </g>
  <g id="Ultralight-S" transform="matrix(1 0 0 1 515.644 696)">
   <path d="M 44.043 2.05078 C 64.502 2.05078 81.2988 -14.6973 81.2988 -35.1562 C 81.2988 -55.6152 64.502 -72.3633 44.043 -72.3633 C 23.584 -72.3633 6.83594 -55.6152 6.83594 -35.1562 C 6.83594 -14.6973 23.584 2.05078 44.043 2.05078 Z M 54.0039 -18.5547 C 47.4609 -18.5547 42.6758 -22.4609 42.6758 -28.0273 C 42.6758 -31.9336 45.6055 -35.3027 49.5605 -36.084 L 49.5605 -36.2793 C 46.2402 -37.3047 43.8965 -40.1855 43.8965 -43.457 C 43.8965 -48.4863 48.1934 -51.9531 54.0039 -51.9531 C 59.8145 -51.9531 64.0625 -48.4863 64.0625 -43.457 C 64.0625 -40.1855 61.7676 -37.207 58.4473 -36.2793 L 58.4473 -36.084 C 62.4023 -35.3027 65.2832 -31.9336 65.2832 -28.0273 C 65.2832 -22.5098 60.498 -18.5547 54.0039 -18.5547 Z M 31.7383 -18.7988 C 31.1035 -18.7988 30.6641 -19.2383 30.6641 -19.9219 L 30.6641 -48.8281 L 30.4688 -48.8281 L 23.2422 -44.1406 C 22.998 -43.9941 22.9004 -43.9941 22.7051 -43.9941 C 22.0703 -43.9941 21.6309 -44.4824 21.6309 -45.0684 C 21.6309 -45.459 21.7285 -45.8008 22.168 -46.0449 L 30.1758 -51.3184 C 30.7129 -51.5625 31.0059 -51.709 31.543 -51.709 C 32.2754 -51.709 32.8613 -51.2695 32.8613 -50.4883 L 32.8613 -19.9219 C 32.8613 -19.2383 32.4219 -18.7988 31.7383 -18.7988 Z M 54.0039 -37.1582 C 58.5938 -37.1582 61.7676 -39.7949 61.7676 -43.5059 C 61.7676 -47.2656 58.6426 -49.8535 54.0039 -49.8535 C 49.4141 -49.8535 46.2891 -47.2656 46.2891 -43.5059 C 46.2891 -39.7949 49.4629 -37.1582 54.0039 -37.1582 Z M 54.0039 -20.6543 C 59.375 -20.6543 63.1836 -23.7305 63.1836 -27.9785 C 63.1836 -32.0801 59.375 -35.1074 54.0039 -35.1074 C 48.6816 -35.1074 44.8242 -32.0801 44.8242 -27.9785 C 44.8242 -23.7305 48.6816 -20.6543 54.0039 -20.6543 Z"/>
  </g>
 </g>
</svg>
