<?xml version="1.0" encoding="UTF-8"?>
<!--Generator: Apple Native CoreSVG 123-->
<!DOCTYPE svg
PUBLIC "-//W3C//DTD SVG 1.1//EN"
       "http://www.w3.org/Graphics/SVG/1.1/DTD/svg11.dtd">
<svg version="1.1" xmlns="http://www.w3.org/2000/svg" xmlns:xlink="http://www.w3.org/1999/xlink" width="3300" height="2200">
 <!--glyph: "uni10051D.medium", point size: 100.000000, font version: "Version 15.0d7e11", template writer version: "5"-->
 <g id="Notes">
  <rect height="2200" id="artboard" style="fill:white;opacity:1" width="3300" x="0" y="0"/>
  <line id="" style="fill:none;stroke:black;opacity:1;stroke-width:0.5;" x1="263" x2="3036" y1="292" y2="292"/>
  <text style="stroke:none;fill:black;font-family:-apple-system,&quot;SF Pro Display&quot;,&quot;SF Pro Text&quot;,Helvetica,sans-serif;font-weight:bold;" transform="matrix(1 0 0 1 263 322)">Weight/Scale Variations</text>
  <text style="stroke:none;fill:black;font-family:-apple-system,&quot;SF Pro Display&quot;,&quot;SF Pro Text&quot;,Helvetica,sans-serif;text-anchor:middle;" transform="matrix(1 0 0 1 559.711 322)">Ultralight</text>
  <text style="stroke:none;fill:black;font-family:-apple-system,&quot;SF Pro Display&quot;,&quot;SF Pro Text&quot;,Helvetica,sans-serif;text-anchor:middle;" transform="matrix(1 0 0 1 856.422 322)">Thin</text>
  <text style="stroke:none;fill:black;font-family:-apple-system,&quot;SF Pro Display&quot;,&quot;SF Pro Text&quot;,Helvetica,sans-serif;text-anchor:middle;" transform="matrix(1 0 0 1 1153.13 322)">Light</text>
  <text style="stroke:none;fill:black;font-family:-apple-system,&quot;SF Pro Display&quot;,&quot;SF Pro Text&quot;,Helvetica,sans-serif;text-anchor:middle;" transform="matrix(1 0 0 1 1449.84 322)">Regular</text>
  <text style="stroke:none;fill:black;font-family:-apple-system,&quot;SF Pro Display&quot;,&quot;SF Pro Text&quot;,Helvetica,sans-serif;text-anchor:middle;" transform="matrix(1 0 0 1 1746.56 322)">Medium</text>
  <text style="stroke:none;fill:black;font-family:-apple-system,&quot;SF Pro Display&quot;,&quot;SF Pro Text&quot;,Helvetica,sans-serif;text-anchor:middle;" transform="matrix(1 0 0 1 2043.27 322)">Semibold</text>
  <text style="stroke:none;fill:black;font-family:-apple-system,&quot;SF Pro Display&quot;,&quot;SF Pro Text&quot;,Helvetica,sans-serif;text-anchor:middle;" transform="matrix(1 0 0 1 2339.98 322)">Bold</text>
  <text style="stroke:none;fill:black;font-family:-apple-system,&quot;SF Pro Display&quot;,&quot;SF Pro Text&quot;,Helvetica,sans-serif;text-anchor:middle;" transform="matrix(1 0 0 1 2636.69 322)">Heavy</text>
  <text style="stroke:none;fill:black;font-family:-apple-system,&quot;SF Pro Display&quot;,&quot;SF Pro Text&quot;,Helvetica,sans-serif;text-anchor:middle;" transform="matrix(1 0 0 1 2933.4 322)">Black</text>
  <line id="" style="fill:none;stroke:black;opacity:1;stroke-width:0.5;" x1="263" x2="3036" y1="1903" y2="1903"/>
  <g id="" transform="matrix(1 0 0 1 263 1933)">
   <path d="M 9.24805 0.830078 C 13.5547 0.830078 17.1387 -2.74414 17.1387 -7.05078 C 17.1387 -11.3574 13.5449 -14.9316 9.23828 -14.9316 C 4.94141 -14.9316 1.36719 -11.3574 1.36719 -7.05078 C 1.36719 -2.74414 4.95117 0.830078 9.24805 0.830078 Z M 9.24805 -0.654297 C 5.70312 -0.654297 2.87109 -3.49609 2.87109 -7.05078 C 2.87109 -10.6055 5.69336 -13.4473 9.23828 -13.4473 C 12.793 -13.4473 15.6348 -10.6055 15.6445 -7.05078 C 15.6543 -3.49609 12.8027 -0.654297 9.24805 -0.654297 Z M 9.22852 -3.42773 C 9.69727 -3.42773 9.9707 -3.74023 9.9707 -4.25781 L 9.9707 -6.31836 L 12.1973 -6.31836 C 12.6953 -6.31836 13.0371 -6.57227 13.0371 -7.04102 C 13.0371 -7.51953 12.7148 -7.7832 12.1973 -7.7832 L 9.9707 -7.7832 L 9.9707 -10.0098 C 9.9707 -10.5273 9.69727 -10.8496 9.22852 -10.8496 C 8.75977 -10.8496 8.50586 -10.5078 8.50586 -10.0098 L 8.50586 -7.7832 L 6.29883 -7.7832 C 5.78125 -7.7832 5.44922 -7.51953 5.44922 -7.04102 C 5.44922 -6.57227 5.80078 -6.31836 6.29883 -6.31836 L 8.50586 -6.31836 L 8.50586 -4.25781 C 8.50586 -3.75977 8.75977 -3.42773 9.22852 -3.42773 Z"/>
  </g>
  <g id="" transform="matrix(1 0 0 1 281.506 1933)">
   <path d="M 11.709 2.91016 C 17.1582 2.91016 21.6699 -1.60156 21.6699 -7.05078 C 21.6699 -12.4902 17.1484 -17.0117 11.6992 -17.0117 C 6.25977 -17.0117 1.74805 -12.4902 1.74805 -7.05078 C 1.74805 -1.60156 6.26953 2.91016 11.709 2.91016 Z M 11.709 1.25 C 7.09961 1.25 3.41797 -2.44141 3.41797 -7.05078 C 3.41797 -11.6504 7.08984 -15.3516 11.6992 -15.3516 C 16.3086 -15.3516 20 -11.6504 20.0098 -7.05078 C 20.0195 -2.44141 16.3184 1.25 11.709 1.25 Z M 11.6895 -2.41211 C 12.207 -2.41211 12.5195 -2.77344 12.5195 -3.33984 L 12.5195 -6.23047 L 15.5762 -6.23047 C 16.123 -6.23047 16.5039 -6.51367 16.5039 -7.03125 C 16.5039 -7.55859 16.1426 -7.86133 15.5762 -7.86133 L 12.5195 -7.86133 L 12.5195 -10.9277 C 12.5195 -11.5039 12.207 -11.8555 11.6895 -11.8555 C 11.1719 -11.8555 10.8789 -11.4844 10.8789 -10.9277 L 10.8789 -7.86133 L 7.83203 -7.86133 C 7.26562 -7.86133 6.89453 -7.55859 6.89453 -7.03125 C 6.89453 -6.51367 7.28516 -6.23047 7.83203 -6.23047 L 10.8789 -6.23047 L 10.8789 -3.33984 C 10.8789 -2.79297 11.1719 -2.41211 11.6895 -2.41211 Z"/>
  </g>
  <g id="" transform="matrix(1 0 0 1 304.924 1933)">
   <path d="M 14.9707 5.67383 C 21.9336 5.67383 27.6953 -0.078125 27.6953 -7.04102 C 27.6953 -14.0039 21.9238 -19.7559 14.9609 -19.7559 C 8.00781 -19.7559 2.25586 -14.0039 2.25586 -7.04102 C 2.25586 -0.078125 8.01758 5.67383 14.9707 5.67383 Z M 14.9707 3.85742 C 8.93555 3.85742 4.08203 -1.00586 4.08203 -7.04102 C 4.08203 -13.0762 8.92578 -17.9395 14.9609 -17.9395 C 21.0059 -17.9395 25.8594 -13.0762 25.8691 -7.04102 C 25.8789 -1.00586 21.0156 3.85742 14.9707 3.85742 Z M 14.9512 -1.06445 C 15.5176 -1.06445 15.8691 -1.45508 15.8691 -2.06055 L 15.8691 -6.13281 L 20.1074 -6.13281 C 20.6934 -6.13281 21.1133 -6.46484 21.1133 -7.02148 C 21.1133 -7.59766 20.7227 -7.93945 20.1074 -7.93945 L 15.8691 -7.93945 L 15.8691 -12.1875 C 15.8691 -12.8027 15.5176 -13.1934 14.9512 -13.1934 C 14.3848 -13.1934 14.0625 -12.7832 14.0625 -12.1875 L 14.0625 -7.93945 L 9.83398 -7.93945 C 9.21875 -7.93945 8.80859 -7.59766 8.80859 -7.02148 C 8.80859 -6.46484 9.23828 -6.13281 9.83398 -6.13281 L 14.0625 -6.13281 L 14.0625 -2.06055 C 14.0625 -1.47461 14.3848 -1.06445 14.9512 -1.06445 Z"/>
  </g>
  <text style="stroke:none;fill:black;font-family:-apple-system,&quot;SF Pro Display&quot;,&quot;SF Pro Text&quot;,Helvetica,sans-serif;font-weight:bold;" transform="matrix(1 0 0 1 263 1953)">Design Variations</text>
  <text style="stroke:none;fill:black;font-family:-apple-system,&quot;SF Pro Display&quot;,&quot;SF Pro Text&quot;,Helvetica,sans-serif;" transform="matrix(1 0 0 1 263 1971)">Symbols are supported in up to nine weights and three scales.</text>
  <text style="stroke:none;fill:black;font-family:-apple-system,&quot;SF Pro Display&quot;,&quot;SF Pro Text&quot;,Helvetica,sans-serif;" transform="matrix(1 0 0 1 263 1989)">For optimal layout with text and other symbols, vertically align</text>
  <text style="stroke:none;fill:black;font-family:-apple-system,&quot;SF Pro Display&quot;,&quot;SF Pro Text&quot;,Helvetica,sans-serif;" transform="matrix(1 0 0 1 263 2007)">symbols with the adjacent text.</text>
  <rect height="14" id="" style="fill:#00AEEF;stroke:none;opacity:0.4;" width="3" x="776" y="1919"/>
  <g id="" transform="matrix(1 0 0 1 779 1933)">
   <path d="M 10.5273 0 L 12.373 0 L 7.17773 -14.0918 L 5.43945 -14.0918 L 0.244141 0 L 2.08984 0 L 3.50586 -4.0332 L 9.11133 -4.0332 Z M 6.2793 -11.9531 L 6.33789 -11.9531 L 8.59375 -5.52734 L 4.02344 -5.52734 Z"/>
  </g>
  <rect height="14" id="" style="fill:#00AEEF;stroke:none;opacity:0.4;" width="3" x="791.617" y="1919"/>
  <text style="stroke:none;fill:black;font-family:-apple-system,&quot;SF Pro Display&quot;,&quot;SF Pro Text&quot;,Helvetica,sans-serif;font-weight:bold;" transform="matrix(1 0 0 1 776 1953)">Margins</text>
  <text style="stroke:none;fill:black;font-family:-apple-system,&quot;SF Pro Display&quot;,&quot;SF Pro Text&quot;,Helvetica,sans-serif;" transform="matrix(1 0 0 1 776 1971)">Leading and trailing margins on the left and right side of each symbol</text>
  <text style="stroke:none;fill:black;font-family:-apple-system,&quot;SF Pro Display&quot;,&quot;SF Pro Text&quot;,Helvetica,sans-serif;" transform="matrix(1 0 0 1 776 1989)">can be adjusted by modifying the width of the blue rectangles.</text>
  <text style="stroke:none;fill:black;font-family:-apple-system,&quot;SF Pro Display&quot;,&quot;SF Pro Text&quot;,Helvetica,sans-serif;" transform="matrix(1 0 0 1 776 2007)">Modifications are automatically applied proportionally to all</text>
  <text style="stroke:none;fill:black;font-family:-apple-system,&quot;SF Pro Display&quot;,&quot;SF Pro Text&quot;,Helvetica,sans-serif;" transform="matrix(1 0 0 1 776 2025)">scales and weights.</text>
  <g id="" transform="matrix(1 0 0 1 1289 1933)">
   <path d="M 2.83203 3.11523 L 4.375 4.6582 C 5.22461 5.48828 6.19141 5.41992 7.06055 4.46289 L 17.2754 -6.66016 C 17.7051 -6.36719 18.0957 -6.37695 18.5645 -6.47461 L 19.6094 -6.68945 L 20.3027 -5.99609 L 20.2539 -5.47852 C 20.1855 -4.95117 20.3516 -4.53125 20.8496 -4.0332 L 21.6602 -3.22266 C 22.168 -2.71484 22.8223 -2.68555 23.3008 -3.16406 L 26.5527 -6.41602 C 27.0312 -6.89453 27.0117 -7.54883 26.5039 -8.05664 L 25.6836 -8.87695 C 25.1855 -9.375 24.7754 -9.55078 24.2383 -9.47266 L 23.7109 -9.41406 L 23.0566 -10.0781 L 23.3398 -11.2207 C 23.4863 -11.7871 23.3398 -12.2559 22.7148 -12.8613 L 20.3027 -15.2539 C 16.7578 -18.7793 12.2266 -18.6719 9.11133 -15.5371 C 8.69141 -15.1074 8.64258 -14.5215 8.91602 -14.0918 C 9.15039 -13.7207 9.62891 -13.4961 10.2734 -13.6621 C 11.7871 -14.043 13.3008 -13.9258 14.7852 -12.9199 L 14.1602 -11.3379 C 13.9258 -10.752 13.9453 -10.2734 14.1797 -9.83398 L 3.01758 0.439453 C 2.08008 1.30859 1.97266 2.25586 2.83203 3.11523 Z M 10.6738 -15.1465 C 13.3398 -17.1387 16.6504 -16.8262 19.0527 -14.4141 L 21.6797 -11.8066 C 21.9141 -11.5723 21.9434 -11.3867 21.8848 -11.0938 L 21.5039 -9.53125 L 23.0762 -7.95898 L 24.043 -8.04688 C 24.3262 -8.07617 24.4141 -8.05664 24.6387 -7.83203 L 25.2637 -7.20703 L 22.5098 -4.46289 L 21.8848 -5.07812 C 21.6602 -5.30273 21.6406 -5.40039 21.6699 -5.68359 L 21.7578 -6.64062 L 20.1953 -8.20312 L 18.5742 -7.89062 C 18.291 -7.83203 18.1445 -7.83203 17.9102 -8.07617 L 15.7324 -10.2539 C 15.5078 -10.4883 15.4785 -10.625 15.6055 -10.9473 L 16.5527 -13.2227 C 14.9512 -14.7559 12.8418 -15.6055 10.8008 -14.9512 C 10.7129 -14.9219 10.6445 -14.9414 10.6152 -14.9805 C 10.5859 -15.0293 10.5859 -15.0781 10.6738 -15.1465 Z M 4.10156 2.41211 C 3.61328 1.91406 3.78906 1.61133 4.12109 1.30859 L 15.0781 -8.80859 L 16.3086 -7.57812 L 6.15234 3.34961 C 5.84961 3.68164 5.46875 3.7793 5.06836 3.37891 Z"/>
  </g>
  <text style="stroke:none;fill:black;font-family:-apple-system,&quot;SF Pro Display&quot;,&quot;SF Pro Text&quot;,Helvetica,sans-serif;font-weight:bold;" transform="matrix(1 0 0 1 1289 1953)">Exporting</text>
  <text style="stroke:none;fill:black;font-family:-apple-system,&quot;SF Pro Display&quot;,&quot;SF Pro Text&quot;,Helvetica,sans-serif;" transform="matrix(1 0 0 1 1289 1971)">Symbols should be outlined when exporting to ensure the</text>
  <text style="stroke:none;fill:black;font-family:-apple-system,&quot;SF Pro Display&quot;,&quot;SF Pro Text&quot;,Helvetica,sans-serif;" transform="matrix(1 0 0 1 1289 1989)">design is preserved when submitting to Xcode.</text>
  <text id="template-version" style="stroke:none;fill:black;font-family:-apple-system,&quot;SF Pro Display&quot;,&quot;SF Pro Text&quot;,Helvetica,sans-serif;text-anchor:end;" transform="matrix(1 0 0 1 3036 1933)">Template v.1.0</text>
  <text style="stroke:none;fill:black;font-family:-apple-system,&quot;SF Pro Display&quot;,&quot;SF Pro Text&quot;,Helvetica,sans-serif;text-anchor:end;" transform="matrix(1 0 0 1 3036 1951)">Generated from 19.circle.fill</text>
  <text style="stroke:none;fill:black;font-family:-apple-system,&quot;SF Pro Display&quot;,&quot;SF Pro Text&quot;,Helvetica,sans-serif;text-anchor:end;" transform="matrix(1 0 0 1 3036 1969)">Typeset at 100 points</text>
  <text style="stroke:none;fill:black;font-family:-apple-system,&quot;SF Pro Display&quot;,&quot;SF Pro Text&quot;,Helvetica,sans-serif;" transform="matrix(1 0 0 1 263 726)">Small</text>
  <text style="stroke:none;fill:black;font-family:-apple-system,&quot;SF Pro Display&quot;,&quot;SF Pro Text&quot;,Helvetica,sans-serif;" transform="matrix(1 0 0 1 263 1156)">Medium</text>
  <text style="stroke:none;fill:black;font-family:-apple-system,&quot;SF Pro Display&quot;,&quot;SF Pro Text&quot;,Helvetica,sans-serif;" transform="matrix(1 0 0 1 263 1586)">Large</text>
 </g>
 <g id="Guides">
  <g id="H-reference" style="fill:#27AAE1;stroke:none;" transform="matrix(1 0 0 1 339 696)">
   <path d="M 54.9316 0 L 57.666 0 L 30.5664 -70.459 L 28.0762 -70.459 L 0.976562 0 L 3.66211 0 L 12.9395 -24.4629 L 45.7031 -24.4629 Z M 29.1992 -67.0898 L 29.4434 -67.0898 L 44.8242 -26.709 L 13.8184 -26.709 Z"/>
  </g>
  <line id="Baseline-S" style="fill:none;stroke:#27AAE1;opacity:1;stroke-width:0.577;" x1="263" x2="3036" y1="696" y2="696"/>
  <line id="Capline-S" style="fill:none;stroke:#27AAE1;opacity:1;stroke-width:0.577;" x1="263" x2="3036" y1="625.541" y2="625.541"/>
  <g id="H-reference" style="fill:#27AAE1;stroke:none;" transform="matrix(1 0 0 1 339 1126)">
   <path d="M 54.9316 0 L 57.666 0 L 30.5664 -70.459 L 28.0762 -70.459 L 0.976562 0 L 3.66211 0 L 12.9395 -24.4629 L 45.7031 -24.4629 Z M 29.1992 -67.0898 L 29.4434 -67.0898 L 44.8242 -26.709 L 13.8184 -26.709 Z"/>
  </g>
  <line id="Baseline-M" style="fill:none;stroke:#27AAE1;opacity:1;stroke-width:0.577;" x1="263" x2="3036" y1="1126" y2="1126"/>
  <line id="Capline-M" style="fill:none;stroke:#27AAE1;opacity:1;stroke-width:0.577;" x1="263" x2="3036" y1="1055.54" y2="1055.54"/>
  <g id="H-reference" style="fill:#27AAE1;stroke:none;" transform="matrix(1 0 0 1 339 1556)">
   <path d="M 54.9316 0 L 57.666 0 L 30.5664 -70.459 L 28.0762 -70.459 L 0.976562 0 L 3.66211 0 L 12.9395 -24.4629 L 45.7031 -24.4629 Z M 29.1992 -67.0898 L 29.4434 -67.0898 L 44.8242 -26.709 L 13.8184 -26.709 Z"/>
  </g>
  <line id="Baseline-L" style="fill:none;stroke:#27AAE1;opacity:1;stroke-width:0.577;" x1="263" x2="3036" y1="1556" y2="1556"/>
  <line id="Capline-L" style="fill:none;stroke:#27AAE1;opacity:1;stroke-width:0.577;" x1="263" x2="3036" y1="1485.54" y2="1485.54"/>
  <rect height="119.336" id="left-margin" style="fill:#00AEEF;stroke:none;opacity:0.4;" width="8.74023" x="1391.3" y="1030.79"/>
  <rect height="119.336" id="right-margin" style="fill:#00AEEF;stroke:none;opacity:0.4;" width="8.74023" x="1499.65" y="1030.79"/>
 </g>
 <g id="Symbols">
  <g id="Black-L" transform="matrix(1 0 0 1 2854.05 1556)">
   <path d="M 79.3457 32.8613 C 116.748 32.8613 147.412 2.19727 147.412 -35.2051 C 147.412 -72.6074 116.748 -103.271 79.2969 -103.271 C 41.8945 -103.271 11.2793 -72.6074 11.2793 -35.2051 C 11.2793 2.19727 41.9434 32.8613 79.3457 32.8613 Z M 94.9219 -9.47266 C 87.0605 -9.47266 82.4707 -13.0371 81.0059 -16.4062 C 80.4199 -17.6758 80.127 -18.8477 80.127 -19.873 C 80.127 -22.7539 82.0801 -24.9023 85.2051 -24.9023 C 86.8164 -24.9023 88.4766 -24.2676 89.9902 -22.5098 C 91.2109 -20.9961 92.5781 -20.166 94.7266 -20.166 C 100.293 -20.166 102.49 -27.1484 102.49 -34.2285 L 102.197 -34.2285 C 100.879 -30.2734 97.4609 -27.7344 92.4805 -27.7344 C 84.375 -27.7344 78.6621 -33.7891 78.6621 -43.4082 C 78.6621 -54.4434 85.498 -61.084 95.6055 -61.084 C 108.008 -61.084 113.721 -51.709 113.721 -36.7676 C 113.721 -19.3848 107.129 -9.47266 94.9219 -9.47266 Z M 62.8418 -9.66797 C 58.7891 -9.66797 56.7383 -12.1094 56.7383 -16.8457 L 56.7383 -45.8496 L 56.4453 -45.8496 L 53.4668 -42.9199 C 51.8555 -41.1133 50.6836 -40.3809 48.6328 -40.3809 C 45.8496 -40.3809 43.6523 -42.7246 43.6523 -45.5566 C 43.6523 -47.998 44.5801 -49.707 46.9727 -51.8066 L 53.3203 -57.3242 C 56.543 -60.2051 58.6914 -60.9863 61.3281 -60.9863 C 66.4062 -60.9863 68.9941 -57.959 68.9941 -52.832 L 68.9941 -16.8457 C 68.9941 -12.1094 66.9434 -9.66797 62.8418 -9.66797 Z M 95.9961 -37.4512 C 99.2676 -37.4512 101.562 -40.1367 101.562 -44.043 C 101.562 -48.0469 99.2188 -50.7324 95.9961 -50.7324 C 92.7734 -50.7324 90.5273 -48.0957 90.5273 -44.043 C 90.5273 -40.1367 92.8223 -37.4512 95.9961 -37.4512 Z"/>
  </g>
  <g id="Heavy-L" transform="matrix(1 0 0 1 2558.39 1556)">
   <path d="M 78.2715 31.7871 C 115.088 31.7871 145.312 1.61133 145.312 -35.2051 C 145.312 -72.0215 115.039 -102.197 78.2715 -102.197 C 41.4551 -102.197 11.2793 -72.0215 11.2793 -35.2051 C 11.2793 1.61133 41.5039 31.7871 78.2715 31.7871 Z M 93.9453 -8.88672 C 85.9375 -8.88672 81.1523 -12.7441 79.7363 -16.1621 C 79.1992 -17.334 78.9062 -18.457 78.9062 -19.4336 C 78.9062 -22.1191 80.7129 -24.0723 83.4961 -24.0723 C 85.1074 -24.0723 86.6211 -23.3887 87.9883 -21.6797 C 89.3555 -19.7754 91.2109 -18.6035 93.8477 -18.6035 C 100 -18.6035 102.93 -25.8301 102.93 -34.6191 L 102.588 -34.6191 C 101.123 -30.4199 97.4121 -27.5879 91.8457 -27.5879 C 83.5938 -27.5879 77.3926 -33.7891 77.3926 -43.7012 C 77.3926 -54.834 84.375 -61.6699 94.7266 -61.6699 C 106.982 -61.6699 113.086 -52.3926 113.086 -36.9629 C 113.086 -18.8965 106.396 -8.88672 93.9453 -8.88672 Z M 60.9375 -9.17969 C 57.3242 -9.17969 55.3711 -11.377 55.3711 -15.5273 L 55.3711 -47.7539 L 55.0781 -47.7539 L 50.8789 -44.1406 C 49.3652 -42.5293 48.3398 -41.9922 46.5332 -41.9922 C 44.043 -41.9922 41.9434 -44.1406 41.9434 -46.7773 C 41.9434 -48.9746 42.8711 -50.4883 44.9707 -52.3438 L 52.3926 -58.252 C 55.2734 -60.791 57.1777 -61.4746 59.668 -61.4746 C 64.0625 -61.4746 66.4551 -58.7891 66.4551 -54.2969 L 66.4551 -15.5273 C 66.4551 -11.377 64.5996 -9.17969 60.9375 -9.17969 Z M 95.0684 -36.4258 C 99.1211 -36.4258 102.002 -39.6973 102.002 -44.2871 C 102.002 -49.0234 99.0723 -52.2461 95.0684 -52.2461 C 91.0156 -52.2461 88.1836 -49.0723 88.1836 -44.3359 C 88.1836 -39.6973 91.0156 -36.4258 95.0684 -36.4258 Z"/>
  </g>
  <g id="Bold-L" transform="matrix(1 0 0 1 2262.88 1556)">
   <path d="M 77.0996 30.6152 C 113.232 30.6152 142.92 0.878906 142.92 -35.2051 C 142.92 -71.3379 113.184 -101.025 77.0508 -101.025 C 40.9668 -101.025 11.2793 -71.3379 11.2793 -35.2051 C 11.2793 0.878906 41.0156 30.6152 77.0996 30.6152 Z M 92.9199 -8.25195 C 84.7168 -8.25195 79.6875 -12.4512 78.3203 -15.918 C 77.832 -16.9922 77.5879 -18.0176 77.5879 -18.9453 C 77.5879 -21.3867 79.1992 -23.1445 81.6406 -23.1445 C 83.2031 -23.1445 84.5703 -22.4609 85.791 -20.752 C 87.2559 -18.4082 89.6484 -16.8945 92.7734 -16.8945 C 99.707 -16.8945 103.418 -24.4141 103.369 -35.1074 L 103.076 -35.1074 C 101.416 -30.6152 97.4121 -27.4414 91.2109 -27.4414 C 82.666 -27.4414 76.0254 -33.7891 76.0254 -44.0918 C 76.0254 -55.2734 83.1055 -62.3047 93.6523 -62.3047 C 105.908 -62.3047 112.402 -53.125 112.402 -37.1582 C 112.402 -18.3594 105.566 -8.25195 92.9199 -8.25195 Z M 58.7402 -8.69141 C 55.6641 -8.69141 53.9062 -10.5957 53.9062 -14.1113 L 53.9062 -49.9023 L 53.5645 -49.9023 L 47.998 -45.5078 C 46.582 -44.1406 45.7031 -43.75 44.2383 -43.75 C 41.9922 -43.75 40.0879 -45.7031 40.0879 -48.0957 C 40.0879 -50.0488 40.918 -51.416 42.7246 -52.8809 L 51.3184 -59.2773 C 53.8574 -61.377 55.5176 -62.0605 57.7637 -62.0605 C 61.4746 -62.0605 63.623 -59.7168 63.623 -55.9082 L 63.623 -14.1113 C 63.623 -10.5957 61.9141 -8.69141 58.7402 -8.69141 Z M 93.9941 -35.3027 C 98.9746 -35.3027 102.539 -39.1602 102.539 -44.5312 C 102.539 -50.0488 98.9258 -53.9551 94.043 -53.9551 C 89.0137 -53.9551 85.5957 -50.1953 85.5957 -44.5801 C 85.5957 -39.1602 89.0625 -35.3027 93.9941 -35.3027 Z"/>
  </g>
  <g id="Semibold-L" transform="matrix(1 0 0 1 1966.97 1556)">
   <path d="M 76.2695 29.7852 C 111.914 29.7852 141.309 0.439453 141.309 -35.2051 C 141.309 -70.8496 111.865 -100.244 76.2695 -100.244 C 40.625 -100.244 11.2793 -70.8496 11.2793 -35.2051 C 11.2793 0.439453 40.6738 29.7852 76.2695 29.7852 Z M 92.1875 -7.76367 C 83.8379 -7.76367 78.6621 -12.207 77.3438 -15.7227 C 76.9043 -16.748 76.6602 -17.7246 76.6602 -18.6035 C 76.6602 -20.8496 78.125 -22.5098 80.3223 -22.5098 C 81.8848 -22.5098 83.1543 -21.8262 84.2773 -20.1172 C 85.8398 -17.4316 88.5742 -15.7227 92.0898 -15.7227 C 99.4629 -15.7227 103.76 -23.4375 103.711 -35.4004 L 103.369 -35.4004 C 101.611 -30.7129 97.3633 -27.2949 90.7227 -27.2949 C 82.0801 -27.2949 75.0488 -33.7891 75.0488 -44.3359 C 75.0488 -55.5664 82.2754 -62.7441 92.9688 -62.7441 C 105.127 -62.7441 111.914 -53.6621 111.914 -37.2559 C 111.914 -17.9688 104.98 -7.76367 92.1875 -7.76367 Z M 57.2266 -8.30078 C 54.4922 -8.30078 52.8809 -10.0586 52.8809 -13.0859 L 52.8809 -51.3672 L 52.5391 -51.3672 L 45.9961 -46.4844 C 44.6289 -45.2637 43.8965 -44.9707 42.627 -44.9707 C 40.5762 -44.9707 38.7695 -46.7773 38.7695 -49.0234 C 38.7695 -50.7812 39.5508 -52.002 41.1621 -53.2715 L 50.5371 -59.9609 C 52.8809 -61.8164 54.3945 -62.4512 56.4941 -62.4512 C 59.7168 -62.4512 61.7188 -60.3516 61.7188 -57.0312 L 61.7188 -13.0859 C 61.7188 -10.0586 60.1074 -8.30078 57.2266 -8.30078 Z M 93.3105 -34.5215 C 98.877 -34.5215 102.881 -38.7695 102.881 -44.7266 C 102.881 -50.7812 98.8281 -55.127 93.3105 -55.127 C 87.6465 -55.127 83.8379 -50.9766 83.8379 -44.7754 C 83.8379 -38.7695 87.6953 -34.5215 93.3105 -34.5215 Z"/>
  </g>
  <g id="Medium-L" transform="matrix(1 0 0 1 1670.87 1556)">
   <path d="M 75.6836 29.1992 C 110.938 29.1992 140.088 0.0488281 140.088 -35.2051 C 140.088 -70.459 110.889 -99.6094 75.6348 -99.6094 C 40.3809 -99.6094 11.2793 -70.459 11.2793 -35.2051 C 11.2793 0.0488281 40.3809 29.1992 75.6836 29.1992 Z M 91.6504 -7.4707 C 83.2031 -7.4707 77.9297 -12.0605 76.5625 -15.625 C 76.2207 -16.5527 75.9277 -17.5293 75.9277 -18.3105 C 75.9277 -20.459 77.2949 -22.0215 79.3457 -22.0215 C 80.9082 -22.0215 82.0801 -21.3379 83.1543 -19.6289 C 84.7656 -16.748 87.7441 -14.8438 91.5527 -14.8438 C 99.3164 -14.8438 104.053 -22.7051 103.955 -35.6445 L 103.613 -35.6445 C 101.758 -30.8105 97.3145 -27.2461 90.3809 -27.2461 C 81.5918 -27.2461 74.3164 -33.7891 74.3164 -44.4824 C 74.3164 -55.7617 81.5918 -63.0859 92.4316 -63.0859 C 104.59 -63.0859 111.572 -54.0527 111.572 -37.3535 C 111.572 -17.6758 104.541 -7.4707 91.6504 -7.4707 Z M 56.1035 -8.00781 C 53.6621 -8.00781 52.0996 -9.66797 52.0996 -12.3535 L 52.0996 -52.4902 L 51.7578 -52.4902 L 44.4824 -47.2168 C 43.1641 -46.0938 42.5293 -45.8984 41.4062 -45.8984 C 39.5508 -45.8984 37.793 -47.6074 37.793 -49.707 C 37.793 -51.3184 38.5254 -52.4902 39.9902 -53.5645 L 50 -60.5469 C 52.1484 -62.1582 53.5156 -62.7441 55.5176 -62.7441 C 58.3496 -62.7441 60.2051 -60.8398 60.2051 -57.8613 L 60.2051 -12.3535 C 60.2051 -9.66797 58.6914 -8.00781 56.1035 -8.00781 Z M 92.7246 -33.8867 C 98.7793 -33.8867 103.125 -38.4766 103.125 -44.8242 C 103.125 -51.3672 98.7305 -56.0059 92.7734 -56.0059 C 86.6211 -56.0059 82.4707 -51.5625 82.4707 -44.9219 C 82.4707 -38.4766 86.6211 -33.8867 92.7246 -33.8867 Z"/>
  </g>
  <g id="Regular-L" transform="matrix(1 0 0 1 1374.97 1556)">
   <path d="M 74.8535 28.3691 C 109.668 28.3691 138.477 -0.390625 138.477 -35.2051 C 138.477 -70.0195 109.619 -98.7793 74.8047 -98.7793 C 40.0391 -98.7793 11.2793 -70.0195 11.2793 -35.2051 C 11.2793 -0.390625 40.0879 28.3691 74.8535 28.3691 Z M 90.918 -6.98242 C 82.373 -6.98242 76.9043 -11.8164 75.6348 -15.4297 C 75.293 -16.3086 75 -17.2363 75 -17.9688 C 75 -19.9707 76.2695 -21.3867 78.0762 -21.3867 C 79.5898 -21.3867 80.7129 -20.7031 81.6406 -18.9941 C 83.3496 -15.8203 86.6699 -13.6719 90.8691 -13.6719 C 99.0723 -13.6719 104.346 -21.7285 104.248 -35.9375 L 103.955 -35.9375 C 101.953 -30.957 97.3145 -27.0996 89.8926 -27.0996 C 81.0059 -27.0996 73.3887 -33.7891 73.3887 -44.7266 C 73.3887 -56.1035 80.7129 -63.5254 91.6992 -63.5254 C 103.809 -63.5254 111.084 -54.541 111.084 -37.5 C 111.084 -17.334 104.004 -6.98242 90.918 -6.98242 Z M 54.6387 -7.66602 C 52.4902 -7.66602 51.0742 -9.13086 51.0742 -11.377 L 51.0742 -53.9551 L 50.7324 -53.9551 L 42.5293 -48.1445 C 41.2598 -47.168 40.7715 -47.1191 39.8438 -47.1191 C 38.1348 -47.1191 36.5234 -48.6328 36.5234 -50.6348 C 36.5234 -52.0996 37.207 -53.125 38.4766 -53.9551 L 49.2676 -61.2305 C 51.2207 -62.5977 52.3438 -63.1348 54.248 -63.1348 C 56.5918 -63.1348 58.3008 -61.4258 58.3008 -58.9355 L 58.3008 -11.377 C 58.3008 -9.13086 56.8848 -7.66602 54.6387 -7.66602 Z M 92.041 -33.1055 C 98.6816 -33.1055 103.467 -38.1348 103.467 -45.0195 C 103.467 -52.0996 98.6328 -57.1777 92.0898 -57.1777 C 85.3027 -57.1777 80.7129 -52.3438 80.7129 -45.1172 C 80.7129 -38.1348 85.3027 -33.1055 92.041 -33.1055 Z"/>
  </g>
  <g id="Light-L" transform="matrix(1 0 0 1 1079.18 1556)">
   <path d="M 73.9258 27.4902 C 108.301 27.4902 136.621 -0.830078 136.621 -35.1562 C 136.621 -69.5312 108.252 -97.8516 73.9258 -97.8516 C 39.5508 -97.8516 11.2793 -69.5312 11.2793 -35.1562 C 11.2793 -0.830078 39.5996 27.4902 73.9258 27.4902 Z M 89.8438 -7.32422 C 82.0801 -7.32422 76.5625 -11.7676 74.9023 -15.2832 C 74.4629 -16.2109 74.1211 -17.1875 74.1211 -18.0664 C 74.1211 -19.6289 75.0977 -20.752 76.6113 -20.752 C 77.8809 -20.752 78.7109 -20.1172 79.541 -18.6523 C 81.2988 -15.0879 85.2051 -12.7441 89.7949 -12.7441 C 98.877 -12.7441 104.443 -21.0938 104.395 -36.7676 L 104.15 -36.7676 C 101.807 -31.1035 96.7285 -27.3438 89.1602 -27.3438 C 79.8828 -27.3438 72.4609 -34.375 72.4609 -44.873 C 72.4609 -55.8105 79.8828 -63.2324 90.625 -63.2324 C 102.393 -63.2324 109.863 -54.6875 109.863 -37.9395 C 109.863 -17.5293 102.783 -7.32422 89.8438 -7.32422 Z M 53.4668 -7.86133 C 51.8066 -7.86133 50.6348 -9.0332 50.6348 -10.8398 L 50.6348 -55.4199 L 50.3418 -55.4199 L 40.6738 -48.877 C 39.7461 -48.1934 39.3555 -48.1934 38.623 -48.1934 C 37.2559 -48.1934 35.9375 -49.4141 35.9375 -50.9766 C 35.9375 -52.0996 36.4746 -52.8809 37.5 -53.5645 L 49.2676 -61.4258 C 50.7324 -62.4023 51.6602 -62.793 53.1738 -62.793 C 55.0293 -62.793 56.3965 -61.5234 56.3965 -59.5215 L 56.3965 -10.8398 C 56.3965 -9.0332 55.3223 -7.86133 53.4668 -7.86133 Z M 90.7715 -32.2754 C 98.1445 -32.2754 103.467 -37.6953 103.467 -45.0684 C 103.467 -52.5391 98.0469 -58.0078 90.918 -58.0078 C 83.4473 -58.0078 78.3203 -52.7832 78.3203 -45.2148 C 78.3203 -37.6953 83.3984 -32.2754 90.7715 -32.2754 Z"/>
  </g>
  <g id="Thin-L" transform="matrix(1 0 0 1 783.693 1556)">
   <path d="M 72.7051 26.3184 C 106.494 26.3184 134.18 -1.36719 134.18 -35.1074 C 134.18 -68.8965 106.494 -96.582 72.7051 -96.582 C 38.9648 -96.582 11.2793 -68.8965 11.2793 -35.1074 C 11.2793 -1.36719 38.9648 26.3184 72.7051 26.3184 Z M 88.3789 -7.71484 C 81.6895 -7.71484 76.0742 -11.6699 73.9258 -15.1367 C 73.3887 -16.0645 72.9492 -17.1875 72.9492 -18.1152 C 72.9492 -19.1406 73.584 -19.9707 74.6582 -19.9707 C 75.6348 -19.9707 76.123 -19.3359 76.7578 -18.1641 C 78.6621 -14.1113 83.2031 -11.4746 88.4277 -11.4746 C 98.584 -11.4746 104.541 -20.2148 104.541 -37.793 L 104.395 -37.793 C 101.66 -31.2988 95.9473 -27.6367 88.1836 -27.6367 C 78.418 -27.6367 71.1914 -35.1562 71.1914 -45.0195 C 71.1914 -55.4199 78.8086 -62.793 89.2578 -62.793 C 100.537 -62.793 108.203 -54.834 108.203 -38.5742 C 108.203 -17.7734 101.221 -7.71484 88.3789 -7.71484 Z M 51.9531 -8.1543 C 50.9277 -8.1543 50.0488 -8.93555 50.0488 -10.1074 L 50.0488 -57.4219 L 49.8047 -57.4219 L 38.1348 -49.8047 C 37.6953 -49.5605 37.5 -49.5605 37.0117 -49.5605 C 36.0352 -49.5605 35.2051 -50.3906 35.2051 -51.416 C 35.2051 -52.0996 35.498 -52.6367 36.2305 -53.0762 L 49.3164 -61.6699 C 50.1465 -62.207 50.7812 -62.4023 51.709 -62.4023 C 52.9785 -62.4023 53.9062 -61.6211 53.9062 -60.2539 L 53.9062 -10.1074 C 53.9062 -8.93555 53.2227 -8.1543 51.9531 -8.1543 Z M 89.1602 -31.1523 C 97.3633 -31.1523 103.516 -37.1582 103.516 -45.166 C 103.516 -53.1738 97.2656 -59.082 89.3066 -59.082 C 81.0547 -59.082 75.0977 -53.3691 75.0977 -45.3125 C 75.0977 -37.1582 80.8594 -31.1523 89.1602 -31.1523 Z"/>
  </g>
  <g id="Ultralight-L" transform="matrix(1 0 0 1 487.616 1556)">
   <path d="M 72.1191 25.7324 C 105.566 25.7324 132.91 -1.61133 132.91 -35.1074 C 132.91 -68.5547 105.566 -95.8984 72.1191 -95.8984 C 38.623 -95.8984 11.2793 -68.5547 11.2793 -35.1074 C 11.2793 -1.61133 38.623 25.7324 72.1191 25.7324 Z M 87.6465 -7.95898 C 81.4453 -7.95898 75.8301 -11.6211 73.4375 -15.0391 C 72.8516 -16.0156 72.3633 -17.1875 72.3633 -18.1641 C 72.3633 -18.8965 72.8516 -19.5312 73.6816 -19.5312 C 74.5117 -19.5312 74.8047 -18.8965 75.3418 -17.9688 C 77.2949 -13.623 82.2266 -10.8398 87.7441 -10.8398 C 98.4863 -10.8398 104.59 -19.7754 104.59 -38.3301 L 104.541 -38.3301 C 101.562 -31.3965 95.5078 -27.7832 87.6953 -27.7832 C 77.6855 -27.7832 70.5566 -35.5469 70.5566 -45.1172 C 70.5566 -55.1758 78.2227 -62.5977 88.5254 -62.5977 C 99.6094 -62.5977 107.373 -54.9316 107.373 -38.8672 C 107.373 -17.8711 100.391 -7.95898 87.6465 -7.95898 Z M 51.1719 -8.30078 C 50.4395 -8.30078 49.7559 -8.83789 49.7559 -9.76562 L 49.7559 -58.4473 L 49.5117 -58.4473 L 36.8652 -50.293 C 36.6699 -50.2441 36.5723 -50.2441 36.2305 -50.2441 C 35.4492 -50.2441 34.8145 -50.8789 34.8145 -51.6113 C 34.8145 -52.0996 35.0098 -52.4902 35.5957 -52.832 L 49.3164 -61.7676 C 49.8047 -62.0605 50.293 -62.207 50.9766 -62.207 C 51.9531 -62.207 52.6367 -61.6699 52.6367 -60.6445 L 52.6367 -9.76562 C 52.6367 -8.83789 52.1973 -8.30078 51.1719 -8.30078 Z M 88.3301 -30.5664 C 96.9727 -30.5664 103.516 -36.9141 103.516 -45.166 C 103.516 -53.5156 96.9238 -59.668 88.4766 -59.668 C 79.834 -59.668 73.4375 -53.6621 73.4375 -45.3613 C 73.4375 -36.9141 79.5898 -30.5664 88.3301 -30.5664 Z"/>
  </g>
  <g id="Black-M" transform="matrix(1 0 0 1 2870.97 1126)">
   <path d="M 62.4023 18.457 C 91.9922 18.457 116.113 -5.61523 116.113 -35.2051 C 116.113 -64.7949 91.9922 -88.8672 62.4023 -88.8672 C 32.8125 -88.8672 8.74023 -64.7949 8.74023 -35.2051 C 8.74023 -5.61523 32.8125 18.457 62.4023 18.457 Z M 50.7324 -16.2109 C 47.2168 -16.2109 45.5078 -18.2129 45.5078 -22.4121 L 45.5078 -41.6504 L 45.3125 -41.6504 L 43.8965 -39.8926 C 42.7246 -38.3789 41.6504 -37.6465 39.8438 -37.6465 C 37.5 -37.6465 35.7422 -39.5508 35.7422 -41.7969 C 35.7422 -43.7988 36.5234 -45.2637 38.5742 -47.2168 L 42.627 -51.1719 C 45.2637 -53.7598 47.1191 -54.3457 49.2188 -54.3457 C 53.7598 -54.3457 55.8594 -51.7578 55.8594 -47.2168 L 55.8594 -22.4121 C 55.8594 -18.2129 54.248 -16.2109 50.7324 -16.2109 Z M 74.2188 -16.2109 C 68.7988 -16.2109 65.4785 -18.4082 64.1113 -20.8984 C 63.4766 -22.0215 63.2324 -23.0469 63.2324 -23.9746 C 63.2324 -26.2695 64.8926 -28.0273 67.5293 -28.0273 C 68.7012 -28.0273 70.0195 -27.5391 71.2402 -26.3184 C 72.1191 -25.4395 72.8516 -25.0977 74.1211 -25.0977 C 78.0273 -25.0977 78.8574 -30.3223 78.9551 -34.3262 L 78.7598 -34.3262 C 77.7832 -31.25 75.293 -29.7363 72.1191 -29.7363 C 65.8691 -29.7363 62.1094 -34.4238 62.1094 -41.2109 C 62.1094 -49.4141 67.334 -54.2969 74.8047 -54.2969 C 84.2773 -54.2969 88.2812 -47.168 88.2812 -36.4258 C 88.2812 -23.7305 83.3496 -16.2109 74.2188 -16.2109 Z M 75 -37.8906 C 76.8066 -37.8906 78.125 -39.4531 78.125 -41.7969 C 78.125 -44.1406 76.8066 -45.6543 75 -45.6543 C 73.291 -45.6543 71.9727 -44.0918 71.9727 -41.7969 C 71.9727 -39.4531 73.291 -37.8906 75 -37.8906 Z"/>
  </g>
  <g id="Heavy-M" transform="matrix(1 0 0 1 2575.19 1126)">
   <path d="M 61.5234 17.5781 C 90.5273 17.5781 114.258 -6.15234 114.258 -35.2051 C 114.258 -64.2578 90.5273 -87.9883 61.4746 -87.9883 C 32.4707 -87.9883 8.74023 -64.2578 8.74023 -35.2051 C 8.74023 -6.15234 32.4707 17.5781 61.5234 17.5781 Z M 73.4863 -15.4785 C 67.6758 -15.4785 64.1113 -18.1152 62.9395 -20.6543 C 62.4023 -21.6797 62.1582 -22.6074 62.1582 -23.4863 C 62.1582 -25.6348 63.6719 -27.2949 66.0645 -27.2949 C 67.2852 -27.2949 68.5059 -26.7578 69.6289 -25.4883 C 70.6055 -24.3164 71.6797 -23.6816 73.3887 -23.6816 C 77.7344 -23.6816 79.3457 -29.1016 79.3457 -34.5703 L 79.1504 -34.5703 C 78.0762 -31.3965 75.3906 -29.541 71.6309 -29.541 C 65.2832 -29.541 61.0352 -34.2773 61.0352 -41.5039 C 61.0352 -49.9023 66.3574 -55.0293 74.0723 -55.0293 C 83.5449 -55.0293 87.9395 -47.8516 87.9395 -36.5234 C 87.9395 -23.1445 82.8613 -15.4785 73.4863 -15.4785 Z M 48.877 -15.625 C 45.752 -15.625 44.1895 -17.4316 44.1895 -21.1426 L 44.1895 -43.3594 L 43.9453 -43.3594 L 41.6016 -41.0645 C 40.3809 -39.6973 39.4531 -39.1113 37.8906 -39.1113 C 35.7422 -39.1113 34.082 -40.918 34.082 -43.0176 C 34.082 -44.873 34.8145 -46.1914 36.6211 -47.8516 L 41.5527 -52.1484 C 43.9941 -54.3945 45.7031 -54.9805 47.6562 -54.9805 C 51.6113 -54.9805 53.6133 -52.6367 53.6133 -48.6328 L 53.6133 -21.1426 C 53.6133 -17.4316 52.0508 -15.625 48.877 -15.625 Z M 74.2676 -37.0117 C 76.8066 -37.0117 78.6133 -39.0625 78.6133 -42.041 C 78.6133 -45.0684 76.7578 -47.1191 74.2676 -47.1191 C 71.8262 -47.1191 70.0684 -45.0684 70.0684 -42.041 C 70.0684 -39.0625 71.875 -37.0117 74.2676 -37.0117 Z"/>
  </g>
  <g id="Bold-M" transform="matrix(1 0 0 1 2279.5 1126)">
   <path d="M 60.498 16.5039 C 88.8672 16.5039 112.207 -6.78711 112.207 -35.2051 C 112.207 -63.623 88.8672 -86.9629 60.4492 -86.9629 C 32.0312 -86.9629 8.74023 -63.623 8.74023 -35.2051 C 8.74023 -6.78711 32.0801 16.5039 60.498 16.5039 Z M 72.6562 -14.6973 C 66.4062 -14.6973 62.6465 -17.7734 61.5723 -20.4102 C 61.1328 -21.2891 60.9375 -22.168 60.9375 -22.9004 C 60.9375 -24.9512 62.3047 -26.416 64.4043 -26.416 C 65.6738 -26.416 66.8457 -25.9277 67.8711 -24.5605 C 68.9453 -22.998 70.459 -22.0703 72.5586 -22.0703 C 77.4414 -22.0703 79.834 -27.7344 79.834 -34.8145 L 79.5898 -34.8145 C 78.418 -31.543 75.4883 -29.2969 71.0938 -29.2969 C 64.6484 -29.2969 59.7656 -34.082 59.7656 -41.8457 C 59.7656 -50.4883 65.1855 -55.8105 73.2422 -55.8105 C 82.7637 -55.8105 87.5488 -48.6328 87.5488 -36.5723 C 87.5488 -22.5098 82.3242 -14.6973 72.6562 -14.6973 Z M 46.875 -14.9414 C 44.1406 -14.9414 42.6758 -16.6504 42.6758 -19.7266 L 42.6758 -45.2637 L 42.4316 -45.2637 L 38.9648 -42.3828 C 37.793 -41.1621 37.0117 -40.7227 35.6934 -40.7227 C 33.7891 -40.7227 32.1777 -42.3828 32.1777 -44.3848 C 32.1777 -46.0449 32.9102 -47.2168 34.4727 -48.584 L 40.3809 -53.2227 C 42.5781 -55.127 44.043 -55.6641 45.9473 -55.6641 C 49.2676 -55.6641 51.0742 -53.6133 51.0742 -50.2441 L 51.0742 -19.7266 C 51.0742 -16.6504 49.6094 -14.9414 46.875 -14.9414 Z M 73.4863 -35.9863 C 76.8066 -35.9863 79.1504 -38.5742 79.1504 -42.2852 C 79.1504 -46.0938 76.7578 -48.7305 73.5352 -48.7305 C 70.2148 -48.7305 67.9688 -46.1426 67.9688 -42.334 C 67.9688 -38.5742 70.2148 -35.9863 73.4863 -35.9863 Z"/>
  </g>
  <g id="Semibold-M" transform="matrix(1 0 0 1 1983.5 1126)">
   <path d="M 59.7656 15.8203 C 87.7441 15.8203 110.791 -7.22656 110.791 -35.2051 C 110.791 -63.1836 87.6953 -86.2793 59.7656 -86.2793 C 31.7871 -86.2793 8.74023 -63.1836 8.74023 -35.2051 C 8.74023 -7.22656 31.7871 15.8203 59.7656 15.8203 Z M 72.0703 -14.1602 C 65.5273 -14.1602 61.6211 -17.5293 60.6445 -20.2637 C 60.3027 -21.0449 60.1074 -21.8262 60.1074 -22.5098 C 60.1074 -24.4629 61.377 -25.8789 63.2812 -25.8789 C 64.5508 -25.8789 65.6738 -25.3418 66.6504 -23.9258 C 67.7734 -22.1191 69.5801 -20.9961 71.9727 -20.9961 C 77.2461 -20.9961 80.2246 -26.7578 80.1758 -35.0098 L 79.8828 -35.0098 C 78.6621 -31.6406 75.5859 -29.1016 70.7031 -29.1016 C 64.1602 -29.1016 58.8867 -33.9844 58.8867 -42.0898 C 58.8867 -50.8789 64.4043 -56.3965 72.6562 -56.3965 C 82.2266 -56.3965 87.2559 -49.1699 87.2559 -36.6211 C 87.2559 -22.0215 81.9336 -14.1602 72.0703 -14.1602 Z M 45.459 -14.502 C 43.0176 -14.502 41.6504 -16.0645 41.6504 -18.75 L 41.6504 -46.582 L 41.4062 -46.582 L 37.1582 -43.2617 C 35.9863 -42.1387 35.3516 -41.8945 34.1797 -41.8945 C 32.4219 -41.8945 30.9082 -43.4082 30.9082 -45.3125 C 30.9082 -46.875 31.5918 -47.9492 32.959 -49.0723 L 39.5996 -53.9551 C 41.6504 -55.6641 42.9199 -56.1523 44.7266 -56.1523 C 47.6074 -56.1523 49.3164 -54.2969 49.3164 -51.3672 L 49.3164 -18.75 C 49.3164 -16.0645 47.9492 -14.502 45.459 -14.502 Z M 72.9492 -35.3027 C 76.8066 -35.3027 79.541 -38.2812 79.541 -42.4805 C 79.541 -46.7773 76.7578 -49.8047 72.998 -49.8047 C 69.0918 -49.8047 66.5039 -46.9238 66.5039 -42.5293 C 66.5039 -38.2812 69.1406 -35.3027 72.9492 -35.3027 Z"/>
  </g>
  <g id="Medium-M" transform="matrix(1 0 0 1 1687.3 1126)">
   <path d="M 59.2285 15.2832 C 86.9141 15.2832 109.766 -7.56836 109.766 -35.2051 C 109.766 -62.8906 86.8652 -85.7422 59.1797 -85.7422 C 31.543 -85.7422 8.74023 -62.8906 8.74023 -35.2051 C 8.74023 -7.56836 31.5918 15.2832 59.2285 15.2832 Z M 71.6309 -13.7207 C 64.8438 -13.7207 60.8398 -17.3828 59.9121 -20.1172 C 59.668 -20.8496 59.4727 -21.582 59.4727 -22.2168 C 59.4727 -24.0723 60.6934 -25.4395 62.4512 -25.4395 C 63.7207 -25.4395 64.7949 -24.9023 65.6738 -23.4863 C 66.8945 -21.4844 68.8965 -20.166 71.5332 -20.166 C 77.0996 -20.166 80.4688 -26.0742 80.4199 -35.1562 L 80.127 -35.1562 C 78.8574 -31.7383 75.6836 -29.0039 70.459 -29.0039 C 63.8184 -29.0039 58.252 -33.8867 58.252 -42.2852 C 58.252 -51.1719 63.8184 -56.7871 72.2168 -56.7871 C 81.7871 -56.7871 87.0605 -49.6094 87.0605 -36.6699 C 87.0605 -21.6797 81.6406 -13.7207 71.6309 -13.7207 Z M 44.3848 -14.1602 C 42.1875 -14.1602 40.8691 -15.625 40.8691 -18.0176 L 40.8691 -47.5586 L 40.5762 -47.5586 L 35.791 -43.9453 C 34.6191 -42.9199 34.082 -42.7246 33.0566 -42.7246 C 31.3965 -42.7246 29.9316 -44.1895 29.9316 -46.0449 C 29.9316 -47.4609 30.5664 -48.4863 31.8359 -49.4629 L 38.9648 -54.541 C 40.918 -56.0059 42.0898 -56.543 43.8477 -56.543 C 46.3867 -56.543 47.998 -54.834 47.998 -52.1973 L 47.998 -18.0176 C 47.998 -15.625 46.6309 -14.1602 44.3848 -14.1602 Z M 72.5586 -34.7656 C 76.8066 -34.7656 79.7852 -38.0371 79.7852 -42.5781 C 79.7852 -47.3145 76.7578 -50.6836 72.5586 -50.6836 C 68.2129 -50.6836 65.3809 -47.5098 65.3809 -42.6758 C 65.3809 -38.0371 68.2617 -34.7656 72.5586 -34.7656 Z"/>
  </g>
  <g id="Regular-M" transform="matrix(1 0 0 1 1391.3 1126)">
   <path d="M 58.5449 14.5508 C 85.791 14.5508 108.35 -8.00781 108.35 -35.2539 C 108.35 -62.4512 85.7422 -85.0586 58.4961 -85.0586 C 31.2988 -85.0586 8.74023 -62.4512 8.74023 -35.2539 C 8.74023 -8.00781 31.3477 14.5508 58.5449 14.5508 Z M 71.0938 -13.1836 C 64.0137 -13.1836 59.8145 -17.1387 58.9844 -19.9707 C 58.8379 -20.6055 58.6426 -21.2891 58.6426 -21.8262 C 58.6426 -23.584 59.7656 -24.8535 61.3281 -24.8535 C 62.6465 -24.8535 63.6719 -24.3164 64.4531 -22.8516 C 65.7227 -20.6055 68.0176 -19.043 70.9961 -19.043 C 76.9043 -19.043 80.8594 -25.1465 80.7617 -35.3516 L 80.4199 -35.3516 C 79.0527 -31.8359 75.7324 -28.8086 70.0684 -28.8086 C 63.3789 -28.8086 57.4219 -33.7402 57.4219 -42.5293 C 57.4219 -51.5625 63.0371 -57.3242 71.6797 -57.3242 C 81.25 -57.3242 86.8164 -50.1465 86.8164 -36.7188 C 86.8164 -21.2402 81.2988 -13.1836 71.0938 -13.1836 Z M 42.9688 -13.7207 C 41.0645 -13.7207 39.8438 -15.0391 39.8438 -17.041 L 39.8438 -48.877 L 39.5508 -48.877 L 34.0332 -44.8242 C 32.8613 -43.8965 32.373 -43.8477 31.543 -43.8477 C 30.0781 -43.8477 28.6621 -45.2148 28.6621 -46.9727 C 28.6621 -48.291 29.248 -49.2188 30.3711 -49.9512 L 38.1836 -55.2734 C 39.9414 -56.4941 40.9668 -57.0312 42.6758 -57.0312 C 44.7266 -57.0312 46.2402 -55.5176 46.2402 -53.3203 L 46.2402 -17.041 C 46.2402 -15.0391 44.9707 -13.7207 42.9688 -13.7207 Z M 72.0215 -34.082 C 76.8066 -34.082 80.1758 -37.6953 80.1758 -42.7734 C 80.1758 -47.998 76.7578 -51.7578 72.0703 -51.7578 C 67.1387 -51.7578 63.916 -48.2422 63.916 -42.8711 C 63.916 -37.6953 67.1875 -34.082 72.0215 -34.082 Z"/>
  </g>
  <g id="Light-M" transform="matrix(1 0 0 1 1095.42 1126)">
   <path d="M 57.7148 13.7695 C 84.5215 13.7695 106.689 -8.39844 106.689 -35.2051 C 106.689 -62.0117 84.5215 -84.1797 57.666 -84.1797 C 30.8594 -84.1797 8.74023 -62.0117 8.74023 -35.2051 C 8.74023 -8.39844 30.9082 13.7695 57.7148 13.7695 Z M 70.1172 -13.4766 C 63.7207 -13.4766 59.4727 -17.0898 58.3496 -19.8242 C 58.1055 -20.5078 57.8613 -21.2891 57.8613 -21.875 C 57.8613 -23.291 58.7402 -24.3164 60.0098 -24.3164 C 61.1328 -24.3164 61.9141 -23.7793 62.5977 -22.5586 C 63.916 -19.9219 66.6992 -18.2129 70.0684 -18.2129 C 76.709 -18.2129 80.9082 -24.5605 80.8594 -36.0352 L 80.6152 -36.0352 C 78.9551 -31.9336 75.1953 -29.0039 69.4336 -29.0039 C 62.4023 -29.0039 56.543 -34.2773 56.543 -42.627 C 56.543 -51.3184 62.3047 -57.0801 70.7031 -57.0801 C 79.9805 -57.0801 85.6934 -50.2441 85.6934 -37.1582 C 85.6934 -21.4355 80.2246 -13.4766 70.1172 -13.4766 Z M 41.9434 -13.916 C 40.4785 -13.916 39.4531 -14.9902 39.4531 -16.5527 L 39.4531 -50.2441 L 39.1602 -50.2441 L 32.3242 -45.459 C 31.4941 -44.8242 31.1523 -44.7754 30.4688 -44.7754 C 29.248 -44.7754 28.125 -45.8984 28.125 -47.2656 C 28.125 -48.291 28.6133 -49.0234 29.4922 -49.6094 L 38.1836 -55.4199 C 39.502 -56.3477 40.332 -56.7383 41.6992 -56.7383 C 43.3594 -56.7383 44.5801 -55.5664 44.5801 -53.8086 L 44.5801 -16.5527 C 44.5801 -14.9902 43.5547 -13.916 41.9434 -13.916 Z M 70.8984 -33.3008 C 76.3184 -33.3008 80.1758 -37.3535 80.1758 -42.8223 C 80.1758 -48.4375 76.2207 -52.4902 70.9961 -52.4902 C 65.4785 -52.4902 61.7676 -48.6328 61.7676 -42.9199 C 61.7676 -37.3535 65.4785 -33.3008 70.8984 -33.3008 Z"/>
  </g>
  <g id="Thin-M" transform="matrix(1 0 0 1 799.806 1126)">
   <path d="M 56.6406 12.7441 C 82.9102 12.7441 104.492 -8.83789 104.492 -35.1562 C 104.492 -61.4746 82.9102 -83.0566 56.5918 -83.0566 C 30.3223 -83.0566 8.74023 -61.4746 8.74023 -35.1562 C 8.74023 -8.83789 30.3223 12.7441 56.6406 12.7441 Z M 68.7988 -13.8184 C 63.3789 -13.8184 59.0332 -16.9922 57.5195 -19.6777 C 57.1289 -20.4102 56.7871 -21.2402 56.7871 -21.9727 C 56.7871 -22.8516 57.373 -23.584 58.3008 -23.584 C 59.1309 -23.584 59.5703 -23.0469 60.1074 -22.1191 C 61.5234 -19.0918 64.9414 -17.0898 68.8477 -17.0898 C 76.4648 -17.0898 81.0059 -23.7793 80.957 -37.0117 L 80.8594 -37.0117 C 78.8086 -32.1289 74.5117 -29.2969 68.5547 -29.2969 C 61.084 -29.2969 55.4688 -35.0098 55.4688 -42.7734 C 55.4688 -50.9277 61.3281 -56.6895 69.4824 -56.6895 C 78.3203 -56.6895 84.2285 -50.3906 84.2285 -37.6953 C 84.2285 -21.6309 78.7598 -13.8184 68.7988 -13.8184 Z M 40.625 -14.209 C 39.6484 -14.209 38.916 -14.8926 38.916 -15.918 L 38.916 -52.002 L 38.6719 -52.002 L 30.127 -46.3379 C 29.6875 -46.0449 29.4434 -46.0449 29.0527 -46.0449 C 28.1738 -46.0449 27.4414 -46.7285 27.4414 -47.6562 C 27.4414 -48.291 27.7344 -48.7793 28.3691 -49.1699 L 38.2324 -55.6641 C 38.9648 -56.1523 39.5508 -56.3965 40.3809 -56.3965 C 41.5039 -56.3965 42.334 -55.6641 42.334 -54.4434 L 42.334 -15.918 C 42.334 -14.8926 41.6992 -14.209 40.625 -14.209 Z M 69.4336 -32.3242 C 75.6348 -32.3242 80.2246 -36.8652 80.2246 -42.9199 C 80.2246 -49.0234 75.5371 -53.5156 69.5312 -53.5156 C 63.3301 -53.5156 58.8867 -49.1699 58.8867 -43.0176 C 58.8867 -36.8652 63.2324 -32.3242 69.4336 -32.3242 Z"/>
  </g>
  <g id="Ultralight-M" transform="matrix(1 0 0 1 503.656 1126)">
   <path d="M 56.0547 12.207 C 82.0801 12.207 103.369 -9.08203 103.369 -35.1562 C 103.369 -61.1816 82.0801 -82.4707 56.0547 -82.4707 C 30.0293 -82.4707 8.74023 -61.1816 8.74023 -35.1562 C 8.74023 -9.08203 30.0293 12.207 56.0547 12.207 Z M 68.1641 -14.0137 C 63.1836 -14.0137 58.8379 -16.9434 57.0801 -19.6289 C 56.6406 -20.3613 56.25 -21.2402 56.25 -21.9727 C 56.25 -22.6562 56.6895 -23.1934 57.4219 -23.1934 C 58.0566 -23.1934 58.3984 -22.7051 58.7891 -21.9238 C 60.3027 -18.6523 64.0137 -16.5039 68.2129 -16.5039 C 76.3672 -16.5039 81.0547 -23.3887 81.0547 -37.5 L 81.0059 -37.5 C 78.7109 -32.2266 74.1699 -29.3945 68.1152 -29.3945 C 60.4004 -29.3945 54.8828 -35.3516 54.8828 -42.8711 C 54.8828 -50.7812 60.791 -56.4941 68.8477 -56.4941 C 77.4902 -56.4941 83.4473 -50.4883 83.4473 -37.9395 C 83.4473 -21.7285 78.0273 -14.0137 68.1641 -14.0137 Z M 39.8926 -14.3066 C 39.2578 -14.3066 38.623 -14.7949 38.623 -15.625 L 38.623 -52.9297 L 38.4277 -52.9297 L 28.9551 -46.7773 C 28.7109 -46.6309 28.6133 -46.6309 28.3203 -46.6309 C 27.6367 -46.6309 27.0996 -47.2168 27.0996 -47.8516 C 27.0996 -48.291 27.2949 -48.6328 27.7832 -48.9746 L 38.2324 -55.7617 C 38.6719 -56.0547 39.1113 -56.2012 39.7461 -56.2012 C 40.5762 -56.2012 41.1621 -55.7129 41.1621 -54.7852 L 41.1621 -15.625 C 41.1621 -14.7949 40.7715 -14.3066 39.8926 -14.3066 Z M 68.7012 -31.7871 C 75.293 -31.7871 80.2246 -36.6211 80.2246 -42.9199 C 80.2246 -49.3164 75.1953 -54.0039 68.8477 -54.0039 C 62.2559 -54.0039 57.4219 -49.4141 57.4219 -43.0664 C 57.4219 -36.6211 62.0605 -31.7871 68.7012 -31.7871 Z"/>
  </g>
  <g id="Black-S" transform="matrix(1 0 0 1 2884.57 696)">
   <path d="M 48.8281 6.78711 C 71.9727 6.78711 90.8203 -12.0605 90.8203 -35.2051 C 90.8203 -58.3496 71.9727 -77.1973 48.8281 -77.1973 C 25.6836 -77.1973 6.83594 -58.3496 6.83594 -35.2051 C 6.83594 -12.0605 25.6836 6.78711 48.8281 6.78711 Z M 39.5996 -20.2637 C 36.8652 -20.2637 35.5469 -21.8262 35.5469 -25.0977 L 35.5469 -40.3809 L 35.4004 -40.3809 L 34.2285 -38.9648 C 33.3008 -37.793 32.4707 -37.207 31.0547 -37.207 C 29.248 -37.207 27.8809 -38.7207 27.8809 -40.4785 C 27.8809 -42.041 28.4668 -43.1641 30.0781 -44.6777 L 33.3008 -47.8027 C 35.3516 -49.8047 36.8164 -50.2441 38.4277 -50.2441 C 41.9434 -50.2441 43.6035 -48.2422 43.6035 -44.7266 L 43.6035 -25.0977 C 43.6035 -21.8262 42.334 -20.2637 39.5996 -20.2637 Z M 58.1055 -20.2637 C 53.8086 -20.2637 51.1719 -22.0215 50.1465 -23.9746 C 49.6582 -24.8535 49.4629 -25.6348 49.4629 -26.3672 C 49.4629 -28.1738 50.7324 -29.541 52.7832 -29.541 C 53.7109 -29.541 54.7363 -29.1504 55.7129 -28.1738 C 56.3965 -27.4902 56.9824 -27.1973 58.0078 -27.1973 C 61.084 -27.1973 61.8164 -31.2988 61.8652 -34.5215 L 61.7188 -34.5215 C 60.9375 -32.1289 58.9844 -30.9082 56.4453 -30.9082 C 51.5625 -30.9082 48.584 -34.5703 48.584 -39.9414 C 48.584 -46.3867 52.6855 -50.2441 58.5449 -50.2441 C 65.9668 -50.2441 69.1406 -44.6289 69.1406 -36.1816 C 69.1406 -26.1719 65.2832 -20.2637 58.1055 -20.2637 Z M 58.6914 -37.2559 C 60.1562 -37.2559 61.2305 -38.5254 61.2305 -40.3809 C 61.2305 -42.2852 60.1562 -43.5059 58.6914 -43.5059 C 57.3242 -43.5059 56.25 -42.2363 56.25 -40.3809 C 56.25 -38.5254 57.3242 -37.2559 58.6914 -37.2559 Z"/>
  </g>
  <g id="Heavy-S" transform="matrix(1 0 0 1 2588.47 696)">
   <path d="M 48.2422 6.15234 C 70.9961 6.15234 89.5996 -12.4512 89.5996 -35.2051 C 89.5996 -57.959 70.9961 -76.6113 48.1934 -76.6113 C 25.4395 -76.6113 6.83594 -57.959 6.83594 -35.2051 C 6.83594 -12.4512 25.4395 6.15234 48.2422 6.15234 Z M 57.666 -19.6777 C 52.9785 -19.6777 50.1953 -21.7773 49.3164 -23.8281 C 48.877 -24.6094 48.7305 -25.3418 48.7305 -25.9766 C 48.7305 -27.7344 49.9023 -29.0039 51.8066 -29.0039 C 52.7832 -29.0039 53.8086 -28.6133 54.6875 -27.5879 C 55.4199 -26.6602 56.25 -26.2207 57.5684 -26.2207 C 60.8887 -26.2207 62.1582 -30.4199 62.1582 -34.6191 L 62.0117 -34.6191 C 61.1816 -32.2266 59.1309 -30.7129 56.1523 -30.7129 C 51.2207 -30.7129 47.8027 -34.375 47.8027 -40.1855 C 47.8027 -46.8262 52.002 -50.8301 58.1055 -50.8301 C 65.5762 -50.8301 68.9941 -45.166 68.9941 -36.1816 C 68.9941 -25.6836 65.0391 -19.6777 57.666 -19.6777 Z M 38.3301 -19.7754 C 35.8398 -19.7754 34.5703 -21.2891 34.5703 -24.1699 L 34.5703 -41.5527 L 34.375 -41.5527 L 32.6172 -39.7949 C 31.6895 -38.6719 30.957 -38.2324 29.6875 -38.2324 C 27.9785 -38.2324 26.6602 -39.6484 26.6602 -41.3574 C 26.6602 -42.8711 27.2461 -43.8965 28.7109 -45.2148 L 32.4707 -48.5352 C 34.4238 -50.3418 35.791 -50.7812 37.3535 -50.7812 C 40.4785 -50.7812 42.041 -48.9258 42.041 -45.752 L 42.041 -24.1699 C 42.041 -21.2891 40.8203 -19.7754 38.3301 -19.7754 Z M 58.3008 -36.6699 C 60.2051 -36.6699 61.6211 -38.2324 61.6211 -40.5762 C 61.6211 -42.9199 60.2051 -44.5312 58.3008 -44.5312 C 56.3965 -44.5312 55.0293 -42.9199 55.0293 -40.5762 C 55.0293 -38.2324 56.3965 -36.6699 58.3008 -36.6699 Z"/>
  </g>
  <g id="Bold-S" transform="matrix(1 0 0 1 2292.44 696)">
   <path d="M 47.5586 5.46875 C 69.873 5.46875 88.2324 -12.8906 88.2324 -35.2051 C 88.2324 -57.5684 69.873 -75.9277 47.5098 -75.9277 C 25.1953 -75.9277 6.83594 -57.5684 6.83594 -35.2051 C 6.83594 -12.8906 25.1953 5.46875 47.5586 5.46875 Z M 57.1289 -19.043 C 52.0508 -19.043 49.0723 -21.5332 48.3398 -23.6328 C 48.0469 -24.3164 47.9004 -24.9512 47.9004 -25.5371 C 47.9004 -27.2461 49.0234 -28.4668 50.7324 -28.4668 C 51.7578 -28.4668 52.7344 -28.0273 53.5645 -26.9531 C 54.3945 -25.7812 55.4688 -25.0977 57.0312 -25.0977 C 60.6934 -25.0977 62.5488 -29.4434 62.5488 -34.7656 L 62.3047 -34.7656 C 61.4746 -32.3242 59.2773 -30.5176 55.8105 -30.5176 C 50.8301 -30.5176 46.9727 -34.1797 46.9727 -40.4297 C 46.9727 -47.2656 51.2207 -51.4648 57.5684 -51.4648 C 65.1367 -51.4648 68.8477 -45.752 68.8477 -36.1816 C 68.8477 -25.1953 64.7461 -19.043 57.1289 -19.043 Z M 36.8652 -19.2871 C 34.668 -19.2871 33.4473 -20.6543 33.4473 -23.1445 L 33.4473 -42.8223 L 33.252 -42.8223 L 30.8594 -40.7227 C 29.834 -39.6973 29.248 -39.3555 28.125 -39.3555 C 26.6113 -39.3555 25.293 -40.7227 25.293 -42.3828 C 25.293 -43.75 25.8301 -44.7266 27.1484 -45.8008 L 31.5918 -49.3164 C 33.3984 -50.8789 34.6191 -51.3672 36.1328 -51.3672 C 38.8184 -51.3672 40.332 -49.6582 40.332 -46.9238 L 40.332 -23.1445 C 40.332 -20.6543 39.1113 -19.2871 36.8652 -19.2871 Z M 57.8125 -35.9863 C 60.3027 -35.9863 62.0117 -37.9395 62.0117 -40.7715 C 62.0117 -43.6523 60.2539 -45.6543 57.8125 -45.6543 C 55.3223 -45.6543 53.7109 -43.75 53.7109 -40.7715 C 53.7109 -37.9395 55.3711 -35.9863 57.8125 -35.9863 Z"/>
  </g>
  <g id="Semibold-S" transform="matrix(1 0 0 1 1996.2 696)">
   <path d="M 47.0703 4.98047 C 69.0918 4.98047 87.3047 -13.1836 87.3047 -35.2539 C 87.3047 -57.2754 69.0918 -75.4883 47.0215 -75.4883 C 25 -75.4883 6.83594 -57.2754 6.83594 -35.2539 C 6.83594 -13.1836 25.0488 4.98047 47.0703 4.98047 Z M 56.7871 -18.6035 C 51.3672 -18.6035 48.3398 -21.3867 47.6562 -23.5352 C 47.4609 -24.1211 47.3145 -24.7559 47.3145 -25.2441 C 47.3145 -26.8555 48.3887 -28.0273 50 -28.0273 C 51.0742 -28.0273 52.002 -27.6367 52.7832 -26.4648 C 53.6621 -25.1465 54.9316 -24.3164 56.6895 -24.3164 C 60.5469 -24.3164 62.8418 -28.7598 62.793 -34.8145 L 62.5488 -34.8145 C 61.6699 -32.373 59.375 -30.3711 55.6152 -30.3711 C 50.5859 -30.3711 46.3867 -34.082 46.3867 -40.5762 C 46.3867 -47.6074 50.6836 -51.9043 57.2266 -51.9043 C 64.7949 -51.9043 68.7012 -46.1426 68.7012 -36.1816 C 68.7012 -24.8047 64.5508 -18.6035 56.7871 -18.6035 Z M 35.8887 -18.8965 C 33.8867 -18.8965 32.7148 -20.2148 32.7148 -22.4609 L 32.7148 -43.7012 L 32.5195 -43.7012 L 29.6387 -41.3086 C 28.6133 -40.3809 28.0273 -40.1855 27.0996 -40.1855 C 25.6348 -40.1855 24.3164 -41.4551 24.3164 -43.0664 C 24.3164 -44.3848 24.9023 -45.2637 26.0742 -46.1914 L 30.957 -49.9023 C 32.7148 -51.2695 33.7891 -51.7578 35.3516 -51.7578 C 37.6953 -51.7578 39.1113 -50.1953 39.1113 -47.7539 L 39.1113 -22.4609 C 39.1113 -20.2148 37.9395 -18.8965 35.8887 -18.8965 Z M 57.5195 -35.498 C 60.3516 -35.498 62.3047 -37.7441 62.3047 -40.8691 C 62.3047 -44.1406 60.3027 -46.4355 57.5195 -46.4355 C 54.6387 -46.4355 52.7344 -44.2871 52.7344 -40.918 C 52.7344 -37.7441 54.6875 -35.498 57.5195 -35.498 Z"/>
  </g>
  <g id="Medium-S" transform="matrix(1 0 0 1 1699.83 696)">
   <path d="M 46.7285 4.63867 C 68.5547 4.63867 86.6211 -13.4277 86.6211 -35.2539 C 86.6211 -57.0312 68.5059 -75.1465 46.6797 -75.1465 C 24.8535 -75.1465 6.83594 -57.0312 6.83594 -35.2539 C 6.83594 -13.4277 24.9023 4.63867 46.7285 4.63867 Z M 56.4941 -18.2617 C 50.8789 -18.2617 47.7539 -21.2402 47.168 -23.4375 C 47.0215 -24.0234 46.875 -24.5605 46.875 -25 C 46.875 -26.6113 47.9004 -27.7344 49.4141 -27.7344 C 50.5371 -27.7344 51.416 -27.3438 52.1973 -26.123 C 53.0762 -24.707 54.4922 -23.7305 56.3965 -23.7305 C 60.4492 -23.7305 63.0371 -28.2715 62.9395 -34.9121 L 62.6953 -34.9121 C 61.8164 -32.4219 59.4727 -30.2734 55.4199 -30.2734 C 50.3906 -30.2734 45.9473 -33.9355 45.9473 -40.7227 C 45.9473 -47.8516 50.2441 -52.2461 56.9336 -52.2461 C 64.5508 -52.2461 68.6523 -46.4355 68.6523 -36.1816 C 68.6523 -24.5605 64.4043 -18.2617 56.4941 -18.2617 Z M 35.1562 -18.6523 C 33.252 -18.6523 32.1289 -19.873 32.1289 -21.9238 L 32.1289 -44.3848 L 31.9336 -44.3848 L 28.7109 -41.7969 C 27.6367 -40.918 27.1484 -40.7715 26.2695 -40.7715 C 24.9023 -40.7715 23.6328 -41.9922 23.6328 -43.6035 C 23.6328 -44.8242 24.1699 -45.7031 25.2441 -46.5332 L 30.5176 -50.293 C 32.1777 -51.6113 33.1543 -52.0508 34.7168 -52.0508 C 36.8652 -52.0508 38.2324 -50.5859 38.2324 -48.3398 L 38.2324 -21.9238 C 38.2324 -19.873 37.0605 -18.6523 35.1562 -18.6523 Z M 57.2754 -35.1562 C 60.3516 -35.1562 62.5 -37.5488 62.5 -40.9668 C 62.5 -44.5312 60.3516 -47.0215 57.2754 -47.0215 C 54.0527 -47.0215 52.0508 -44.6777 52.0508 -41.0156 C 52.0508 -37.5488 54.1504 -35.1562 57.2754 -35.1562 Z"/>
  </g>
  <g id="Regular-S" transform="matrix(1 0 0 1 1403.58 696)">
   <path d="M 46.2402 4.15039 C 67.7734 4.15039 85.6934 -13.7207 85.6934 -35.2539 C 85.6934 -56.7871 67.7246 -74.6582 46.1914 -74.6582 C 24.707 -74.6582 6.83594 -56.7871 6.83594 -35.2539 C 6.83594 -13.7207 24.7559 4.15039 46.2402 4.15039 Z M 56.1523 -17.8223 C 50.2441 -17.8223 47.0215 -21.0938 46.5332 -23.3398 C 46.4355 -23.8281 46.2891 -24.3164 46.2891 -24.707 C 46.2891 -26.2695 47.3145 -27.3438 48.6816 -27.3438 C 49.8047 -27.3438 50.6836 -26.9043 51.416 -25.6836 C 52.3438 -24.0723 53.9551 -22.9492 56.0547 -22.9492 C 60.3027 -22.9492 63.2812 -27.5879 63.1836 -34.9609 L 62.9395 -34.9609 C 62.0117 -32.4707 59.5703 -30.127 55.2246 -30.127 C 50.1465 -30.127 45.3613 -33.8379 45.3613 -40.8691 C 45.3613 -48.1445 49.7559 -52.6855 56.5918 -52.6855 C 64.2578 -52.6855 68.5059 -46.8262 68.5059 -36.1816 C 68.5059 -24.2188 64.209 -17.8223 56.1523 -17.8223 Z M 34.1797 -18.3105 C 32.4707 -18.3105 31.3965 -19.4824 31.3965 -21.1914 L 31.3965 -45.2637 L 31.1523 -45.2637 L 27.4902 -42.4316 C 26.416 -41.6016 25.9766 -41.5527 25.2441 -41.5527 C 23.9258 -41.5527 22.6562 -42.7246 22.6562 -44.2871 C 22.6562 -45.459 23.2422 -46.2402 24.1699 -46.9238 L 29.8828 -50.8789 C 31.4941 -52.002 32.373 -52.4414 33.8867 -52.4414 C 35.7422 -52.4414 37.0605 -51.0742 37.0605 -49.1699 L 37.0605 -21.1914 C 37.0605 -19.4824 35.9375 -18.3105 34.1797 -18.3105 Z M 56.9336 -34.7168 C 60.4004 -34.7168 62.793 -37.3535 62.793 -41.1133 C 62.793 -45.0195 60.3516 -47.8027 56.9824 -47.8027 C 53.3691 -47.8027 51.123 -45.2148 51.123 -41.1621 C 51.123 -37.3535 53.4668 -34.7168 56.9336 -34.7168 Z"/>
  </g>
  <g id="Light-S" transform="matrix(1 0 0 1 1107.6 696)">
   <path d="M 45.5078 3.4668 C 66.6992 3.4668 84.2285 -14.0625 84.2285 -35.2051 C 84.2285 -56.3965 66.6504 -73.9258 45.5078 -73.9258 C 24.3164 -73.9258 6.83594 -56.3965 6.83594 -35.2051 C 6.83594 -14.0625 24.3652 3.4668 45.5078 3.4668 Z M 55.2734 -18.0664 C 50 -18.0664 46.7285 -21.0449 45.9473 -23.2422 C 45.752 -23.7305 45.6055 -24.3164 45.6055 -24.7559 C 45.6055 -25.9766 46.3867 -26.8555 47.5098 -26.8555 C 48.4863 -26.8555 49.1699 -26.4648 49.7559 -25.3906 C 50.7812 -23.4863 52.7344 -22.2168 55.2246 -22.2168 C 60.1562 -22.2168 63.3301 -27.0996 63.2812 -35.5957 L 63.0859 -35.5957 C 61.9141 -32.6172 59.1309 -30.2734 54.6387 -30.2734 C 49.2676 -30.2734 44.6289 -34.2773 44.6289 -40.9668 C 44.6289 -47.9004 49.0723 -52.4414 55.7617 -52.4414 C 63.1348 -52.4414 67.5293 -46.9238 67.5293 -36.5723 C 67.5293 -24.3652 63.2324 -18.0664 55.2734 -18.0664 Z M 33.252 -18.457 C 31.9336 -18.457 31.0547 -19.3848 31.0547 -20.8008 L 31.0547 -46.4844 L 30.8105 -46.4844 L 25.9766 -43.0176 C 25.1953 -42.3828 24.8535 -42.3828 24.2676 -42.3828 C 23.2422 -42.3828 22.2168 -43.3105 22.2168 -44.5312 C 22.2168 -45.459 22.6562 -46.0938 23.4375 -46.6309 L 29.8828 -51.0254 C 31.1035 -51.8555 31.8359 -52.1973 33.0078 -52.1973 C 34.4727 -52.1973 35.5469 -51.123 35.5469 -49.6094 L 35.5469 -20.8008 C 35.5469 -19.3848 34.668 -18.457 33.252 -18.457 Z M 55.957 -34.0332 C 59.9609 -34.0332 62.793 -37.0117 62.793 -41.1621 C 62.793 -45.4102 59.9121 -48.4863 56.0059 -48.4863 C 51.9043 -48.4863 49.2188 -45.5566 49.2188 -41.2109 C 49.2188 -37.0117 51.9531 -34.0332 55.957 -34.0332 Z"/>
  </g>
  <g id="Thin-S" transform="matrix(1 0 0 1 811.867 696)">
   <path d="M 44.5801 2.53906 C 65.2832 2.53906 82.2754 -14.4531 82.2754 -35.2051 C 82.2754 -55.9082 65.2344 -72.9004 44.5312 -72.9004 C 23.8281 -72.9004 6.83594 -55.9082 6.83594 -35.2051 C 6.83594 -14.4531 23.877 2.53906 44.5801 2.53906 Z M 54.1504 -18.4082 C 49.707 -18.4082 46.3379 -20.9473 45.2148 -23.0957 C 44.9219 -23.6328 44.6777 -24.2676 44.6777 -24.8047 C 44.6777 -25.6348 45.2148 -26.2207 45.9961 -26.2207 C 46.6797 -26.2207 47.1191 -25.8301 47.5586 -25.0488 C 48.6328 -22.7539 51.1719 -21.2402 54.1504 -21.2402 C 59.9609 -21.2402 63.4277 -26.416 63.3789 -36.4258 L 63.2812 -36.4258 C 61.7676 -32.7637 58.4961 -30.5176 53.8574 -30.5176 C 48.0957 -30.5176 43.6523 -34.9121 43.6523 -41.1133 C 43.6523 -47.6074 48.1934 -52.0996 54.6387 -52.0996 C 61.6699 -52.0996 66.2598 -47.0703 66.2598 -37.0605 C 66.2598 -24.5117 61.9629 -18.4082 54.1504 -18.4082 Z M 32.0801 -18.7012 C 31.2012 -18.7012 30.5664 -19.2871 30.5664 -20.2148 L 30.5664 -48.0469 L 30.4199 -48.0469 L 24.0234 -43.75 C 23.584 -43.457 23.3887 -43.457 22.998 -43.457 C 22.2656 -43.457 21.6309 -44.0918 21.6309 -44.873 C 21.6309 -45.459 21.875 -45.8984 22.4121 -46.2402 L 29.9316 -51.1719 C 30.6152 -51.6602 31.1035 -51.8555 31.8848 -51.8555 C 32.8613 -51.8555 33.5938 -51.2207 33.5938 -50.1465 L 33.5938 -20.2148 C 33.5938 -19.2871 33.0078 -18.7012 32.0801 -18.7012 Z M 54.6875 -33.1543 C 59.375 -33.1543 62.8418 -36.6211 62.8418 -41.2109 C 62.8418 -45.8984 59.3262 -49.3652 54.7363 -49.3652 C 50.0488 -49.3652 46.6797 -46.0449 46.6797 -41.3086 C 46.6797 -36.6211 49.9512 -33.1543 54.6875 -33.1543 Z"/>
  </g>
  <g id="Ultralight-S" transform="matrix(1 0 0 1 515.644 696)">
   <path d="M 44.043 2.05078 C 64.502 2.05078 81.2988 -14.6973 81.2988 -35.1562 C 81.2988 -55.6152 64.502 -72.3633 44.043 -72.3633 C 23.584 -72.3633 6.83594 -55.6152 6.83594 -35.1562 C 6.83594 -14.6973 23.584 2.05078 44.043 2.05078 Z M 53.5645 -18.5547 C 49.5605 -18.5547 46.1426 -20.8984 44.8242 -22.998 C 44.4824 -23.584 44.1895 -24.2676 44.1895 -24.8535 C 44.1895 -25.4395 44.5801 -25.9277 45.2148 -25.9277 C 45.752 -25.9277 46.0449 -25.4883 46.3867 -24.8535 C 47.5586 -22.3633 50.3906 -20.7031 53.6133 -20.7031 C 59.8633 -20.7031 63.4766 -26.0742 63.4766 -36.8652 L 63.3789 -36.8652 C 61.6699 -32.8613 58.1543 -30.6152 53.4668 -30.6152 C 47.5098 -30.6152 43.1152 -35.2539 43.1152 -41.2109 C 43.1152 -47.4609 47.7539 -51.9531 54.1016 -51.9531 C 60.9375 -51.9531 65.5762 -47.168 65.5762 -37.3047 C 65.5762 -24.6582 61.3281 -18.5547 53.5645 -18.5547 Z M 31.4453 -18.7988 C 30.8594 -18.7988 30.3223 -19.2383 30.3223 -19.9219 L 30.3223 -48.8281 L 30.1758 -48.8281 L 22.998 -44.1406 C 22.7539 -43.9941 22.6562 -43.9941 22.3633 -43.9941 C 21.7773 -43.9941 21.2891 -44.4824 21.2891 -45.0684 C 21.2891 -45.459 21.4844 -45.8008 21.875 -46.0449 L 29.9316 -51.3184 C 30.3711 -51.5625 30.7617 -51.709 31.2988 -51.709 C 32.0312 -51.709 32.5684 -51.2695 32.5684 -50.4883 L 32.5684 -19.9219 C 32.5684 -19.2383 32.1777 -18.7988 31.4453 -18.7988 Z M 54.0039 -32.666 C 59.0332 -32.666 62.8418 -36.377 62.8418 -41.2598 C 62.8418 -46.1914 58.9844 -49.8047 54.1016 -49.8047 C 49.0723 -49.8047 45.3613 -46.2891 45.3613 -41.3574 C 45.3613 -36.377 48.9258 -32.666 54.0039 -32.666 Z"/>
  </g>
 </g>
</svg>
