<?xml version="1.0" encoding="UTF-8"?>
<!--Generator: Apple Native CoreSVG 123-->
<!DOCTYPE svg
PUBLIC "-//W3C//DTD SVG 1.1//EN"
       "http://www.w3.org/Graphics/SVG/1.1/DTD/svg11.dtd">
<svg version="1.1" xmlns="http://www.w3.org/2000/svg" xmlns:xlink="http://www.w3.org/1999/xlink" width="3300" height="2200">
 <!--glyph: "uni10003D.medium", point size: 100.000000, font version: "Version 15.0d7e11", template writer version: "5"-->
 <g id="Notes">
  <rect height="2200" id="artboard" style="fill:white;opacity:1" width="3300" x="0" y="0"/>
  <line id="" style="fill:none;stroke:black;opacity:1;stroke-width:0.5;" x1="263" x2="3036" y1="292" y2="292"/>
  <text style="stroke:none;fill:black;font-family:-apple-system,&quot;SF Pro Display&quot;,&quot;SF Pro Text&quot;,Helvetica,sans-serif;font-weight:bold;" transform="matrix(1 0 0 1 263 322)">Weight/Scale Variations</text>
  <text style="stroke:none;fill:black;font-family:-apple-system,&quot;SF Pro Display&quot;,&quot;SF Pro Text&quot;,Helvetica,sans-serif;text-anchor:middle;" transform="matrix(1 0 0 1 559.711 322)">Ultralight</text>
  <text style="stroke:none;fill:black;font-family:-apple-system,&quot;SF Pro Display&quot;,&quot;SF Pro Text&quot;,Helvetica,sans-serif;text-anchor:middle;" transform="matrix(1 0 0 1 856.422 322)">Thin</text>
  <text style="stroke:none;fill:black;font-family:-apple-system,&quot;SF Pro Display&quot;,&quot;SF Pro Text&quot;,Helvetica,sans-serif;text-anchor:middle;" transform="matrix(1 0 0 1 1153.13 322)">Light</text>
  <text style="stroke:none;fill:black;font-family:-apple-system,&quot;SF Pro Display&quot;,&quot;SF Pro Text&quot;,Helvetica,sans-serif;text-anchor:middle;" transform="matrix(1 0 0 1 1449.84 322)">Regular</text>
  <text style="stroke:none;fill:black;font-family:-apple-system,&quot;SF Pro Display&quot;,&quot;SF Pro Text&quot;,Helvetica,sans-serif;text-anchor:middle;" transform="matrix(1 0 0 1 1746.56 322)">Medium</text>
  <text style="stroke:none;fill:black;font-family:-apple-system,&quot;SF Pro Display&quot;,&quot;SF Pro Text&quot;,Helvetica,sans-serif;text-anchor:middle;" transform="matrix(1 0 0 1 2043.27 322)">Semibold</text>
  <text style="stroke:none;fill:black;font-family:-apple-system,&quot;SF Pro Display&quot;,&quot;SF Pro Text&quot;,Helvetica,sans-serif;text-anchor:middle;" transform="matrix(1 0 0 1 2339.98 322)">Bold</text>
  <text style="stroke:none;fill:black;font-family:-apple-system,&quot;SF Pro Display&quot;,&quot;SF Pro Text&quot;,Helvetica,sans-serif;text-anchor:middle;" transform="matrix(1 0 0 1 2636.69 322)">Heavy</text>
  <text style="stroke:none;fill:black;font-family:-apple-system,&quot;SF Pro Display&quot;,&quot;SF Pro Text&quot;,Helvetica,sans-serif;text-anchor:middle;" transform="matrix(1 0 0 1 2933.4 322)">Black</text>
  <line id="" style="fill:none;stroke:black;opacity:1;stroke-width:0.5;" x1="263" x2="3036" y1="1903" y2="1903"/>
  <g id="" transform="matrix(1 0 0 1 263 1933)">
   <path d="M 9.24805 0.830078 C 13.5547 0.830078 17.1387 -2.74414 17.1387 -7.05078 C 17.1387 -11.3574 13.5449 -14.9316 9.23828 -14.9316 C 4.94141 -14.9316 1.36719 -11.3574 1.36719 -7.05078 C 1.36719 -2.74414 4.95117 0.830078 9.24805 0.830078 Z M 9.24805 -0.654297 C 5.70312 -0.654297 2.87109 -3.49609 2.87109 -7.05078 C 2.87109 -10.6055 5.69336 -13.4473 9.23828 -13.4473 C 12.793 -13.4473 15.6348 -10.6055 15.6445 -7.05078 C 15.6543 -3.49609 12.8027 -0.654297 9.24805 -0.654297 Z M 9.22852 -3.42773 C 9.69727 -3.42773 9.9707 -3.74023 9.9707 -4.25781 L 9.9707 -6.31836 L 12.1973 -6.31836 C 12.6953 -6.31836 13.0371 -6.57227 13.0371 -7.04102 C 13.0371 -7.51953 12.7148 -7.7832 12.1973 -7.7832 L 9.9707 -7.7832 L 9.9707 -10.0098 C 9.9707 -10.5273 9.69727 -10.8496 9.22852 -10.8496 C 8.75977 -10.8496 8.50586 -10.5078 8.50586 -10.0098 L 8.50586 -7.7832 L 6.29883 -7.7832 C 5.78125 -7.7832 5.44922 -7.51953 5.44922 -7.04102 C 5.44922 -6.57227 5.80078 -6.31836 6.29883 -6.31836 L 8.50586 -6.31836 L 8.50586 -4.25781 C 8.50586 -3.75977 8.75977 -3.42773 9.22852 -3.42773 Z"/>
  </g>
  <g id="" transform="matrix(1 0 0 1 281.506 1933)">
   <path d="M 11.709 2.91016 C 17.1582 2.91016 21.6699 -1.60156 21.6699 -7.05078 C 21.6699 -12.4902 17.1484 -17.0117 11.6992 -17.0117 C 6.25977 -17.0117 1.74805 -12.4902 1.74805 -7.05078 C 1.74805 -1.60156 6.26953 2.91016 11.709 2.91016 Z M 11.709 1.25 C 7.09961 1.25 3.41797 -2.44141 3.41797 -7.05078 C 3.41797 -11.6504 7.08984 -15.3516 11.6992 -15.3516 C 16.3086 -15.3516 20 -11.6504 20.0098 -7.05078 C 20.0195 -2.44141 16.3184 1.25 11.709 1.25 Z M 11.6895 -2.41211 C 12.207 -2.41211 12.5195 -2.77344 12.5195 -3.33984 L 12.5195 -6.23047 L 15.5762 -6.23047 C 16.123 -6.23047 16.5039 -6.51367 16.5039 -7.03125 C 16.5039 -7.55859 16.1426 -7.86133 15.5762 -7.86133 L 12.5195 -7.86133 L 12.5195 -10.9277 C 12.5195 -11.5039 12.207 -11.8555 11.6895 -11.8555 C 11.1719 -11.8555 10.8789 -11.4844 10.8789 -10.9277 L 10.8789 -7.86133 L 7.83203 -7.86133 C 7.26562 -7.86133 6.89453 -7.55859 6.89453 -7.03125 C 6.89453 -6.51367 7.28516 -6.23047 7.83203 -6.23047 L 10.8789 -6.23047 L 10.8789 -3.33984 C 10.8789 -2.79297 11.1719 -2.41211 11.6895 -2.41211 Z"/>
  </g>
  <g id="" transform="matrix(1 0 0 1 304.924 1933)">
   <path d="M 14.9707 5.67383 C 21.9336 5.67383 27.6953 -0.078125 27.6953 -7.04102 C 27.6953 -14.0039 21.9238 -19.7559 14.9609 -19.7559 C 8.00781 -19.7559 2.25586 -14.0039 2.25586 -7.04102 C 2.25586 -0.078125 8.01758 5.67383 14.9707 5.67383 Z M 14.9707 3.85742 C 8.93555 3.85742 4.08203 -1.00586 4.08203 -7.04102 C 4.08203 -13.0762 8.92578 -17.9395 14.9609 -17.9395 C 21.0059 -17.9395 25.8594 -13.0762 25.8691 -7.04102 C 25.8789 -1.00586 21.0156 3.85742 14.9707 3.85742 Z M 14.9512 -1.06445 C 15.5176 -1.06445 15.8691 -1.45508 15.8691 -2.06055 L 15.8691 -6.13281 L 20.1074 -6.13281 C 20.6934 -6.13281 21.1133 -6.46484 21.1133 -7.02148 C 21.1133 -7.59766 20.7227 -7.93945 20.1074 -7.93945 L 15.8691 -7.93945 L 15.8691 -12.1875 C 15.8691 -12.8027 15.5176 -13.1934 14.9512 -13.1934 C 14.3848 -13.1934 14.0625 -12.7832 14.0625 -12.1875 L 14.0625 -7.93945 L 9.83398 -7.93945 C 9.21875 -7.93945 8.80859 -7.59766 8.80859 -7.02148 C 8.80859 -6.46484 9.23828 -6.13281 9.83398 -6.13281 L 14.0625 -6.13281 L 14.0625 -2.06055 C 14.0625 -1.47461 14.3848 -1.06445 14.9512 -1.06445 Z"/>
  </g>
  <text style="stroke:none;fill:black;font-family:-apple-system,&quot;SF Pro Display&quot;,&quot;SF Pro Text&quot;,Helvetica,sans-serif;font-weight:bold;" transform="matrix(1 0 0 1 263 1953)">Design Variations</text>
  <text style="stroke:none;fill:black;font-family:-apple-system,&quot;SF Pro Display&quot;,&quot;SF Pro Text&quot;,Helvetica,sans-serif;" transform="matrix(1 0 0 1 263 1971)">Symbols are supported in up to nine weights and three scales.</text>
  <text style="stroke:none;fill:black;font-family:-apple-system,&quot;SF Pro Display&quot;,&quot;SF Pro Text&quot;,Helvetica,sans-serif;" transform="matrix(1 0 0 1 263 1989)">For optimal layout with text and other symbols, vertically align</text>
  <text style="stroke:none;fill:black;font-family:-apple-system,&quot;SF Pro Display&quot;,&quot;SF Pro Text&quot;,Helvetica,sans-serif;" transform="matrix(1 0 0 1 263 2007)">symbols with the adjacent text.</text>
  <rect height="14" id="" style="fill:#00AEEF;stroke:none;opacity:0.4;" width="3" x="776" y="1919"/>
  <g id="" transform="matrix(1 0 0 1 779 1933)">
   <path d="M 10.5273 0 L 12.373 0 L 7.17773 -14.0918 L 5.43945 -14.0918 L 0.244141 0 L 2.08984 0 L 3.50586 -4.0332 L 9.11133 -4.0332 Z M 6.2793 -11.9531 L 6.33789 -11.9531 L 8.59375 -5.52734 L 4.02344 -5.52734 Z"/>
  </g>
  <rect height="14" id="" style="fill:#00AEEF;stroke:none;opacity:0.4;" width="3" x="791.617" y="1919"/>
  <text style="stroke:none;fill:black;font-family:-apple-system,&quot;SF Pro Display&quot;,&quot;SF Pro Text&quot;,Helvetica,sans-serif;font-weight:bold;" transform="matrix(1 0 0 1 776 1953)">Margins</text>
  <text style="stroke:none;fill:black;font-family:-apple-system,&quot;SF Pro Display&quot;,&quot;SF Pro Text&quot;,Helvetica,sans-serif;" transform="matrix(1 0 0 1 776 1971)">Leading and trailing margins on the left and right side of each symbol</text>
  <text style="stroke:none;fill:black;font-family:-apple-system,&quot;SF Pro Display&quot;,&quot;SF Pro Text&quot;,Helvetica,sans-serif;" transform="matrix(1 0 0 1 776 1989)">can be adjusted by modifying the width of the blue rectangles.</text>
  <text style="stroke:none;fill:black;font-family:-apple-system,&quot;SF Pro Display&quot;,&quot;SF Pro Text&quot;,Helvetica,sans-serif;" transform="matrix(1 0 0 1 776 2007)">Modifications are automatically applied proportionally to all</text>
  <text style="stroke:none;fill:black;font-family:-apple-system,&quot;SF Pro Display&quot;,&quot;SF Pro Text&quot;,Helvetica,sans-serif;" transform="matrix(1 0 0 1 776 2025)">scales and weights.</text>
  <g id="" transform="matrix(1 0 0 1 1289 1933)">
   <path d="M 2.83203 3.11523 L 4.375 4.6582 C 5.22461 5.48828 6.19141 5.41992 7.06055 4.46289 L 17.2754 -6.66016 C 17.7051 -6.36719 18.0957 -6.37695 18.5645 -6.47461 L 19.6094 -6.68945 L 20.3027 -5.99609 L 20.2539 -5.47852 C 20.1855 -4.95117 20.3516 -4.53125 20.8496 -4.0332 L 21.6602 -3.22266 C 22.168 -2.71484 22.8223 -2.68555 23.3008 -3.16406 L 26.5527 -6.41602 C 27.0312 -6.89453 27.0117 -7.54883 26.5039 -8.05664 L 25.6836 -8.87695 C 25.1855 -9.375 24.7754 -9.55078 24.2383 -9.47266 L 23.7109 -9.41406 L 23.0566 -10.0781 L 23.3398 -11.2207 C 23.4863 -11.7871 23.3398 -12.2559 22.7148 -12.8613 L 20.3027 -15.2539 C 16.7578 -18.7793 12.2266 -18.6719 9.11133 -15.5371 C 8.69141 -15.1074 8.64258 -14.5215 8.91602 -14.0918 C 9.15039 -13.7207 9.62891 -13.4961 10.2734 -13.6621 C 11.7871 -14.043 13.3008 -13.9258 14.7852 -12.9199 L 14.1602 -11.3379 C 13.9258 -10.752 13.9453 -10.2734 14.1797 -9.83398 L 3.01758 0.439453 C 2.08008 1.30859 1.97266 2.25586 2.83203 3.11523 Z M 10.6738 -15.1465 C 13.3398 -17.1387 16.6504 -16.8262 19.0527 -14.4141 L 21.6797 -11.8066 C 21.9141 -11.5723 21.9434 -11.3867 21.8848 -11.0938 L 21.5039 -9.53125 L 23.0762 -7.95898 L 24.043 -8.04688 C 24.3262 -8.07617 24.4141 -8.05664 24.6387 -7.83203 L 25.2637 -7.20703 L 22.5098 -4.46289 L 21.8848 -5.07812 C 21.6602 -5.30273 21.6406 -5.40039 21.6699 -5.68359 L 21.7578 -6.64062 L 20.1953 -8.20312 L 18.5742 -7.89062 C 18.291 -7.83203 18.1445 -7.83203 17.9102 -8.07617 L 15.7324 -10.2539 C 15.5078 -10.4883 15.4785 -10.625 15.6055 -10.9473 L 16.5527 -13.2227 C 14.9512 -14.7559 12.8418 -15.6055 10.8008 -14.9512 C 10.7129 -14.9219 10.6445 -14.9414 10.6152 -14.9805 C 10.5859 -15.0293 10.5859 -15.0781 10.6738 -15.1465 Z M 4.10156 2.41211 C 3.61328 1.91406 3.78906 1.61133 4.12109 1.30859 L 15.0781 -8.80859 L 16.3086 -7.57812 L 6.15234 3.34961 C 5.84961 3.68164 5.46875 3.7793 5.06836 3.37891 Z"/>
  </g>
  <text style="stroke:none;fill:black;font-family:-apple-system,&quot;SF Pro Display&quot;,&quot;SF Pro Text&quot;,Helvetica,sans-serif;font-weight:bold;" transform="matrix(1 0 0 1 1289 1953)">Exporting</text>
  <text style="stroke:none;fill:black;font-family:-apple-system,&quot;SF Pro Display&quot;,&quot;SF Pro Text&quot;,Helvetica,sans-serif;" transform="matrix(1 0 0 1 1289 1971)">Symbols should be outlined when exporting to ensure the</text>
  <text style="stroke:none;fill:black;font-family:-apple-system,&quot;SF Pro Display&quot;,&quot;SF Pro Text&quot;,Helvetica,sans-serif;" transform="matrix(1 0 0 1 1289 1989)">design is preserved when submitting to Xcode.</text>
  <text id="template-version" style="stroke:none;fill:black;font-family:-apple-system,&quot;SF Pro Display&quot;,&quot;SF Pro Text&quot;,Helvetica,sans-serif;text-anchor:end;" transform="matrix(1 0 0 1 3036 1933)">Template v.1.0</text>
  <text style="stroke:none;fill:black;font-family:-apple-system,&quot;SF Pro Display&quot;,&quot;SF Pro Text&quot;,Helvetica,sans-serif;text-anchor:end;" transform="matrix(1 0 0 1 3036 1951)">Generated from 2.circle.fill</text>
  <text style="stroke:none;fill:black;font-family:-apple-system,&quot;SF Pro Display&quot;,&quot;SF Pro Text&quot;,Helvetica,sans-serif;text-anchor:end;" transform="matrix(1 0 0 1 3036 1969)">Typeset at 100 points</text>
  <text style="stroke:none;fill:black;font-family:-apple-system,&quot;SF Pro Display&quot;,&quot;SF Pro Text&quot;,Helvetica,sans-serif;" transform="matrix(1 0 0 1 263 726)">Small</text>
  <text style="stroke:none;fill:black;font-family:-apple-system,&quot;SF Pro Display&quot;,&quot;SF Pro Text&quot;,Helvetica,sans-serif;" transform="matrix(1 0 0 1 263 1156)">Medium</text>
  <text style="stroke:none;fill:black;font-family:-apple-system,&quot;SF Pro Display&quot;,&quot;SF Pro Text&quot;,Helvetica,sans-serif;" transform="matrix(1 0 0 1 263 1586)">Large</text>
 </g>
 <g id="Guides">
  <g id="H-reference" style="fill:#27AAE1;stroke:none;" transform="matrix(1 0 0 1 339 696)">
   <path d="M 54.9316 0 L 57.666 0 L 30.5664 -70.459 L 28.0762 -70.459 L 0.976562 0 L 3.66211 0 L 12.9395 -24.4629 L 45.7031 -24.4629 Z M 29.1992 -67.0898 L 29.4434 -67.0898 L 44.8242 -26.709 L 13.8184 -26.709 Z"/>
  </g>
  <line id="Baseline-S" style="fill:none;stroke:#27AAE1;opacity:1;stroke-width:0.577;" x1="263" x2="3036" y1="696" y2="696"/>
  <line id="Capline-S" style="fill:none;stroke:#27AAE1;opacity:1;stroke-width:0.577;" x1="263" x2="3036" y1="625.541" y2="625.541"/>
  <g id="H-reference" style="fill:#27AAE1;stroke:none;" transform="matrix(1 0 0 1 339 1126)">
   <path d="M 54.9316 0 L 57.666 0 L 30.5664 -70.459 L 28.0762 -70.459 L 0.976562 0 L 3.66211 0 L 12.9395 -24.4629 L 45.7031 -24.4629 Z M 29.1992 -67.0898 L 29.4434 -67.0898 L 44.8242 -26.709 L 13.8184 -26.709 Z"/>
  </g>
  <line id="Baseline-M" style="fill:none;stroke:#27AAE1;opacity:1;stroke-width:0.577;" x1="263" x2="3036" y1="1126" y2="1126"/>
  <line id="Capline-M" style="fill:none;stroke:#27AAE1;opacity:1;stroke-width:0.577;" x1="263" x2="3036" y1="1055.54" y2="1055.54"/>
  <g id="H-reference" style="fill:#27AAE1;stroke:none;" transform="matrix(1 0 0 1 339 1556)">
   <path d="M 54.9316 0 L 57.666 0 L 30.5664 -70.459 L 28.0762 -70.459 L 0.976562 0 L 3.66211 0 L 12.9395 -24.4629 L 45.7031 -24.4629 Z M 29.1992 -67.0898 L 29.4434 -67.0898 L 44.8242 -26.709 L 13.8184 -26.709 Z"/>
  </g>
  <line id="Baseline-L" style="fill:none;stroke:#27AAE1;opacity:1;stroke-width:0.577;" x1="263" x2="3036" y1="1556" y2="1556"/>
  <line id="Capline-L" style="fill:none;stroke:#27AAE1;opacity:1;stroke-width:0.577;" x1="263" x2="3036" y1="1485.54" y2="1485.54"/>
  <rect height="119.336" id="left-margin" style="fill:#00AEEF;stroke:none;opacity:0.4;" width="8.74023" x="1391.3" y="1030.79"/>
  <rect height="119.336" id="right-margin" style="fill:#00AEEF;stroke:none;opacity:0.4;" width="8.74023" x="1499.65" y="1030.79"/>
 </g>
 <g id="Symbols">
  <g id="Black-L" transform="matrix(1 0 0 1 2854.05 1556)">
   <path d="M 79.3457 32.8613 C 116.748 32.8613 147.412 2.19727 147.412 -35.2051 C 147.412 -72.6074 116.748 -103.271 79.2969 -103.271 C 41.8945 -103.271 11.2793 -72.6074 11.2793 -35.2051 C 11.2793 2.19727 41.9434 32.8613 79.3457 32.8613 Z M 64.209 -6.39648 C 59.375 -6.39648 56.0059 -9.47266 56.0059 -13.8672 C 56.0059 -16.6504 56.7871 -19.1406 60.1074 -22.0215 L 76.6602 -36.7676 C 81.1523 -40.625 83.252 -43.3105 83.252 -46.2402 C 83.252 -48.877 81.4453 -50.5371 78.3691 -50.5371 C 75.0488 -50.5371 73.3398 -48.1934 71.7285 -46.0449 C 70.1172 -43.9941 68.1641 -42.041 64.209 -42.041 C 59.1309 -42.041 55.8105 -44.4824 55.8105 -49.2188 C 55.8105 -50.4883 56.0059 -51.8066 56.4453 -53.0762 C 59.1797 -60.6445 68.2129 -65.7715 79.1992 -65.7715 C 93.1641 -65.7715 102.637 -58.5938 102.637 -47.9492 C 102.637 -41.6016 98.9746 -36.4258 91.4062 -30.0293 L 83.2031 -22.5586 L 83.2031 -21.875 L 96.2891 -21.875 C 101.807 -21.875 105.029 -19.043 105.029 -14.209 C 105.029 -9.375 101.709 -6.39648 96.2891 -6.39648 Z"/>
  </g>
  <g id="Heavy-L" transform="matrix(1 0 0 1 2558.39 1556)">
   <path d="M 78.2715 31.7871 C 115.088 31.7871 145.312 1.61133 145.312 -35.2051 C 145.312 -72.0215 115.039 -102.197 78.2715 -102.197 C 41.4551 -102.197 11.2793 -72.0215 11.2793 -35.2051 C 11.2793 1.61133 41.5039 31.7871 78.2715 31.7871 Z M 63.2812 -6.29883 C 58.9844 -6.29883 56.0547 -8.98438 56.0547 -12.8906 C 56.0547 -15.332 56.7383 -17.4805 59.5703 -19.9219 L 77.1973 -36.5723 C 81.543 -40.5762 84.0332 -43.5547 84.0332 -46.9238 C 84.0332 -50.293 81.5918 -52.4414 77.7344 -52.4414 C 73.6328 -52.4414 71.3867 -49.6582 69.8242 -46.9238 C 68.3594 -44.9707 66.6016 -43.1641 63.1348 -43.1641 C 58.7402 -43.1641 55.8105 -45.3613 55.8105 -49.5117 C 55.8105 -50.6836 55.957 -51.8555 56.3477 -53.0762 C 58.9355 -60.5469 67.7246 -65.7715 78.2715 -65.7715 C 91.6992 -65.7715 100.732 -58.7891 100.732 -48.3398 C 100.732 -41.8945 97.0703 -36.7676 89.8926 -30.3223 L 79.7363 -20.5078 L 79.7363 -19.873 L 95.6543 -19.873 C 100.391 -19.873 103.223 -17.3828 103.223 -13.1348 C 103.223 -8.88672 100.293 -6.29883 95.6543 -6.29883 Z"/>
  </g>
  <g id="Bold-L" transform="matrix(1 0 0 1 2262.88 1556)">
   <path d="M 77.0996 30.6152 C 113.232 30.6152 142.92 0.878906 142.92 -35.2051 C 142.92 -71.3379 113.184 -101.025 77.0508 -101.025 C 40.9668 -101.025 11.2793 -71.3379 11.2793 -35.2051 C 11.2793 0.878906 41.0156 30.6152 77.0996 30.6152 Z M 62.2559 -6.20117 C 58.5449 -6.20117 56.1035 -8.44727 56.1035 -11.8164 C 56.1035 -13.8184 56.7383 -15.5762 58.9355 -17.5781 L 77.7832 -36.377 C 82.0312 -40.4785 84.8633 -43.8477 84.8633 -47.6562 C 84.8633 -51.8555 81.8359 -54.5898 77.002 -54.5898 C 72.0215 -54.5898 69.2383 -51.2207 67.6758 -47.9004 C 66.4062 -46.0449 64.8926 -44.4336 61.9141 -44.4336 C 58.252 -44.4336 55.8105 -46.3867 55.8105 -49.8535 C 55.8105 -50.8789 55.957 -51.9531 56.2988 -53.0273 C 58.5938 -60.498 67.1387 -65.8203 77.2461 -65.8203 C 90.0391 -65.8203 98.6328 -58.9844 98.6328 -48.8281 C 98.6328 -42.2363 94.9219 -37.1094 88.1836 -30.7129 L 75.9277 -18.2129 L 75.9277 -17.6758 L 94.9219 -17.6758 C 98.7793 -17.6758 101.221 -15.5762 101.221 -11.9629 C 101.221 -8.39844 98.7305 -6.20117 94.9219 -6.20117 Z"/>
  </g>
  <g id="Semibold-L" transform="matrix(1 0 0 1 1966.97 1556)">
   <path d="M 76.2695 29.7852 C 111.914 29.7852 141.309 0.439453 141.309 -35.2051 C 141.309 -70.8496 111.865 -100.244 76.2695 -100.244 C 40.625 -100.244 11.2793 -70.8496 11.2793 -35.2051 C 11.2793 0.439453 40.6738 29.7852 76.2695 29.7852 Z M 61.5234 -6.10352 C 58.252 -6.10352 56.1523 -8.10547 56.1523 -11.084 C 56.1523 -12.793 56.7383 -14.3066 58.4961 -15.9668 L 78.1738 -36.2305 C 82.3242 -40.4297 85.4492 -44.043 85.4492 -48.1934 C 85.4492 -52.9297 81.9824 -56.0547 76.5137 -56.0547 C 70.8984 -56.0547 67.7246 -52.3438 66.2109 -48.584 C 65.0391 -46.7773 63.7207 -45.3125 61.0352 -45.3125 C 57.9102 -45.3125 55.8594 -47.0703 55.8594 -50.0977 C 55.8594 -51.0254 55.957 -51.9531 56.25 -52.9785 C 58.3984 -60.4004 66.748 -65.8203 76.5137 -65.8203 C 88.916 -65.8203 97.168 -59.1309 97.168 -49.1211 C 97.168 -42.4805 93.457 -37.3535 87.0117 -30.957 L 73.291 -16.6504 L 73.291 -16.1133 L 94.4336 -16.1133 C 97.7051 -16.1133 99.8047 -14.3066 99.8047 -11.1328 C 99.8047 -8.05664 97.6562 -6.10352 94.4336 -6.10352 Z"/>
  </g>
  <g id="Medium-L" transform="matrix(1 0 0 1 1670.87 1556)">
   <path d="M 75.6836 29.1992 C 110.938 29.1992 140.088 0.0488281 140.088 -35.2051 C 140.088 -70.459 110.889 -99.6094 75.6348 -99.6094 C 40.3809 -99.6094 11.2793 -70.459 11.2793 -35.2051 C 11.2793 0.0488281 40.3809 29.1992 75.6836 29.1992 Z M 60.9863 -6.05469 C 58.0566 -6.05469 56.2012 -7.8125 56.2012 -10.498 C 56.2012 -12.0117 56.6895 -13.3301 58.1543 -14.7461 L 78.4668 -36.1328 C 82.5684 -40.3809 85.9375 -44.1895 85.9375 -48.584 C 85.9375 -53.7598 82.0801 -57.1777 76.123 -57.1777 C 70.0684 -57.1777 66.5527 -53.1738 65.0879 -49.0723 C 64.0137 -47.3145 62.793 -45.9473 60.4004 -45.9473 C 57.666 -45.9473 55.8594 -47.6074 55.8594 -50.293 C 55.8594 -51.123 55.957 -52.002 56.2012 -52.9785 C 58.252 -60.4004 66.4551 -65.8203 75.9766 -65.8203 C 88.0859 -65.8203 96.0449 -59.2773 96.0449 -49.3652 C 96.0449 -42.627 92.334 -37.5488 86.1328 -31.1523 L 71.2891 -15.4297 L 71.2891 -14.9902 L 94.043 -14.9902 C 96.875 -14.9902 98.7305 -13.3301 98.7305 -10.5469 C 98.7305 -7.8125 96.8262 -6.05469 94.043 -6.05469 Z"/>
  </g>
  <g id="Regular-L" transform="matrix(1 0 0 1 1374.97 1556)">
   <path d="M 74.8535 28.3691 C 109.668 28.3691 138.477 -0.390625 138.477 -35.2051 C 138.477 -70.0195 109.619 -98.7793 74.8047 -98.7793 C 40.0391 -98.7793 11.2793 -70.0195 11.2793 -35.2051 C 11.2793 -0.390625 40.0879 28.3691 74.8535 28.3691 Z M 60.3027 -6.00586 C 57.7637 -6.00586 56.25 -7.4707 56.25 -9.76562 C 56.25 -10.9863 56.6895 -12.0605 57.7148 -13.1348 L 78.8574 -36.0352 C 82.9102 -40.332 86.5234 -44.3848 86.5234 -49.1211 C 86.5234 -54.834 82.2266 -58.6426 75.6348 -58.6426 C 68.9941 -58.6426 65.0879 -54.2969 63.623 -49.7559 C 62.6953 -48.0469 61.6211 -46.8262 59.5703 -46.8262 C 57.3242 -46.8262 55.8594 -48.291 55.8594 -50.4883 C 55.8594 -51.2695 55.957 -52.0508 56.1523 -52.9297 C 58.0078 -60.3027 66.1133 -65.8203 75.293 -65.8203 C 86.9629 -65.8203 94.6289 -59.4238 94.6289 -49.6582 C 94.6289 -42.8711 90.918 -37.793 84.9609 -31.3965 L 68.6523 -13.8672 L 68.6523 -13.4766 L 93.5547 -13.4766 C 95.752 -13.4766 97.3633 -12.0605 97.3633 -9.7168 C 97.3633 -7.4707 95.752 -6.00586 93.5547 -6.00586 Z"/>
  </g>
  <g id="Light-L" transform="matrix(1 0 0 1 1079.18 1556)">
   <path d="M 73.9258 27.4902 C 108.301 27.4902 136.621 -0.830078 136.621 -35.1562 C 136.621 -69.5312 108.252 -97.8516 73.9258 -97.8516 C 39.5508 -97.8516 11.2793 -69.5312 11.2793 -35.1562 C 11.2793 -0.830078 39.5996 27.4902 73.9258 27.4902 Z M 59.7168 -6.54297 C 57.7148 -6.54297 56.4941 -7.76367 56.4941 -9.61914 C 56.4941 -10.6445 56.8359 -11.4258 57.666 -12.3535 L 79.1016 -35.791 C 83.4473 -40.4785 86.4258 -44.4824 86.4258 -49.1699 C 86.4258 -55.3223 81.8848 -59.375 74.8047 -59.375 C 67.7734 -59.375 63.2324 -54.8828 62.1094 -49.5605 C 61.5234 -48.1445 60.6445 -47.1191 58.9355 -47.1191 C 57.1289 -47.1191 55.957 -48.3398 55.957 -50.0977 C 55.957 -50.7812 56.0547 -51.4648 56.2012 -52.2461 C 57.7637 -59.668 65.5762 -65.0879 74.6094 -65.0879 C 85.5957 -65.0879 92.8223 -58.8867 92.8223 -49.5117 C 92.8223 -43.2617 89.5996 -38.4277 83.3984 -31.6895 L 66.0645 -12.8418 L 66.0645 -12.4512 L 92.4805 -12.4512 C 94.2383 -12.4512 95.459 -11.3281 95.459 -9.52148 C 95.459 -7.76367 94.2383 -6.54297 92.4805 -6.54297 Z"/>
  </g>
  <g id="Thin-L" transform="matrix(1 0 0 1 783.693 1556)">
   <path d="M 72.7051 26.3184 C 106.494 26.3184 134.18 -1.36719 134.18 -35.1074 C 134.18 -68.8965 106.494 -96.582 72.7051 -96.582 C 38.9648 -96.582 11.2793 -68.8965 11.2793 -35.1074 C 11.2793 -1.36719 38.9648 26.3184 72.7051 26.3184 Z M 58.9844 -7.32422 C 57.6172 -7.32422 56.7871 -8.1543 56.7871 -9.42383 C 56.7871 -10.1562 56.9824 -10.6445 57.5684 -11.2793 L 79.4434 -35.498 C 84.1797 -40.6738 86.3281 -44.6289 86.3281 -49.2676 C 86.3281 -56.0059 81.4453 -60.3516 73.7305 -60.3516 C 66.1621 -60.3516 60.7422 -55.6641 60.1562 -49.3164 C 59.9609 -48.1934 59.3262 -47.5586 58.0566 -47.5586 C 56.8848 -47.5586 56.1035 -48.3887 56.1035 -49.5605 C 56.1035 -50.1465 56.2012 -50.6836 56.2988 -51.3672 C 57.373 -58.8379 64.9414 -64.0625 73.6816 -64.0625 C 83.7891 -64.0625 90.3809 -58.2031 90.3809 -49.2676 C 90.3809 -43.7988 87.8906 -39.3066 81.3965 -32.0801 L 62.6953 -11.4258 L 62.6953 -11.084 L 91.0156 -11.084 C 92.1387 -11.084 92.9199 -10.3516 92.9199 -9.22852 C 92.9199 -8.1543 92.1387 -7.32422 91.0156 -7.32422 Z"/>
  </g>
  <g id="Ultralight-L" transform="matrix(1 0 0 1 487.616 1556)">
   <path d="M 72.1191 25.7324 C 105.566 25.7324 132.91 -1.61133 132.91 -35.1074 C 132.91 -68.5547 105.566 -95.8984 72.1191 -95.8984 C 38.623 -95.8984 11.2793 -68.5547 11.2793 -35.1074 C 11.2793 -1.61133 38.623 25.7324 72.1191 25.7324 Z M 58.6426 -7.71484 C 57.5684 -7.71484 56.9336 -8.34961 56.9336 -9.32617 C 56.9336 -9.91211 57.0801 -10.2051 57.5195 -10.6934 L 79.6387 -35.3516 C 84.5703 -40.7715 86.2793 -44.7266 86.2793 -49.2676 C 86.2793 -56.3477 81.2012 -60.8398 73.1934 -60.8398 C 65.332 -60.8398 59.4727 -56.0547 59.1309 -49.2188 C 59.1309 -48.2422 58.6426 -47.7539 57.6172 -47.7539 C 56.7383 -47.7539 56.2012 -48.3887 56.2012 -49.2676 C 56.2012 -49.8535 56.25 -50.293 56.3477 -50.8789 C 57.1777 -58.3984 64.5996 -63.5742 73.2422 -63.5742 C 82.9102 -63.5742 89.1602 -57.8613 89.1602 -49.1211 C 89.1602 -44.0918 87.0117 -39.7461 80.3223 -32.3242 L 60.9375 -10.7422 L 60.9375 -10.4004 L 90.2832 -10.4004 C 91.1133 -10.4004 91.6504 -9.86328 91.6504 -9.08203 C 91.6504 -8.34961 91.1133 -7.71484 90.2832 -7.71484 Z"/>
  </g>
  <g id="Black-M" transform="matrix(1 0 0 1 2870.97 1126)">
   <path d="M 62.4023 18.457 C 91.9922 18.457 116.113 -5.61523 116.113 -35.2051 C 116.113 -64.7949 91.9922 -88.8672 62.4023 -88.8672 C 32.8125 -88.8672 8.74023 -64.7949 8.74023 -35.2051 C 8.74023 -5.61523 32.8125 18.457 62.4023 18.457 Z M 50.6836 -13.2812 C 46.4844 -13.2812 43.457 -16.0645 43.457 -19.9219 C 43.457 -22.4121 44.0918 -24.707 47.3145 -27.3438 L 58.8867 -36.5234 C 62.6465 -39.5508 63.4277 -41.2109 63.4277 -42.8711 C 63.4277 -44.1406 62.6953 -44.9219 61.1816 -44.9219 C 59.4727 -44.9219 58.4961 -43.6523 57.373 -42.334 C 56.0547 -40.7715 54.3457 -39.1602 50.8789 -39.1602 C 46.2891 -39.1602 43.2617 -41.2109 43.2617 -45.4102 C 43.2617 -46.582 43.457 -47.7051 43.8477 -48.7793 C 46.0938 -54.6875 53.2715 -58.4961 62.3047 -58.4961 C 73.4863 -58.4961 81.1035 -52.7832 81.1035 -44.4336 C 81.1035 -39.9902 78.5645 -36.084 72.1191 -30.957 L 67.7246 -27.5879 L 67.7246 -27.002 L 74.9023 -27.002 C 79.9805 -27.002 82.8125 -24.5117 82.8125 -20.2148 C 82.8125 -15.918 79.8828 -13.2812 74.9023 -13.2812 Z"/>
  </g>
  <g id="Heavy-M" transform="matrix(1 0 0 1 2575.19 1126)">
   <path d="M 61.5234 17.5781 C 90.5273 17.5781 114.258 -6.15234 114.258 -35.2051 C 114.258 -64.2578 90.5273 -87.9883 61.4746 -87.9883 C 32.4707 -87.9883 8.74023 -64.2578 8.74023 -35.2051 C 8.74023 -6.15234 32.4707 17.5781 61.5234 17.5781 Z M 49.8535 -13.0371 C 46.0938 -13.0371 43.457 -15.4785 43.457 -18.8965 C 43.457 -21.0449 44.043 -23.0469 46.7285 -25.293 L 59.375 -36.377 C 62.9395 -39.4531 64.3066 -41.4551 64.3066 -43.6035 C 64.3066 -45.5566 62.9883 -46.8262 60.6934 -46.8262 C 58.2031 -46.8262 56.8359 -45.0684 55.6641 -43.3105 C 54.4434 -41.7969 52.9297 -40.2832 49.8535 -40.2832 C 45.8984 -40.2832 43.2617 -42.1875 43.2617 -45.8496 C 43.2617 -46.875 43.4082 -47.9004 43.75 -48.877 C 45.8496 -54.7852 52.832 -58.6914 61.4258 -58.6914 C 72.2168 -58.6914 79.4922 -53.125 79.4922 -44.9219 C 79.4922 -40.1855 76.8066 -36.2305 70.8496 -31.2012 L 64.6484 -25.6348 L 64.6484 -25.0977 L 74.4629 -25.0977 C 78.8574 -25.0977 81.3477 -22.9004 81.3477 -19.1406 C 81.3477 -15.3809 78.7598 -13.0371 74.4629 -13.0371 Z"/>
  </g>
  <g id="Bold-M" transform="matrix(1 0 0 1 2279.5 1126)">
   <path d="M 60.498 16.5039 C 88.8672 16.5039 112.207 -6.78711 112.207 -35.2051 C 112.207 -63.623 88.8672 -86.9629 60.4492 -86.9629 C 32.0312 -86.9629 8.74023 -63.623 8.74023 -35.2051 C 8.74023 -6.78711 32.0801 16.5039 60.498 16.5039 Z M 48.877 -12.793 C 45.6543 -12.793 43.457 -14.7949 43.457 -17.7246 C 43.457 -19.5312 43.9941 -21.1426 46.0449 -22.9492 L 59.9121 -36.2305 C 63.2812 -39.3555 65.2832 -41.748 65.2832 -44.3848 C 65.2832 -47.168 63.2812 -48.9258 60.1074 -48.9258 C 56.7871 -48.9258 54.9805 -46.6797 53.7598 -44.4336 C 52.6367 -42.9688 51.3672 -41.6016 48.7305 -41.6016 C 45.4102 -41.6016 43.2617 -43.2617 43.2617 -46.3867 C 43.2617 -47.2656 43.3594 -48.1445 43.6523 -49.0723 C 45.6055 -54.8828 52.3926 -58.9355 60.498 -58.9355 C 70.8008 -58.9355 77.7344 -53.5156 77.7344 -45.459 C 77.7344 -40.4297 74.8535 -36.4746 69.3848 -31.4941 L 61.1816 -23.4375 L 61.1816 -22.998 L 74.0234 -22.998 C 77.5391 -22.998 79.6875 -21.0938 79.6875 -17.9199 C 79.6875 -14.7461 77.4902 -12.793 74.0234 -12.793 Z"/>
  </g>
  <g id="Semibold-M" transform="matrix(1 0 0 1 1983.5 1126)">
   <path d="M 59.7656 15.8203 C 87.7441 15.8203 110.791 -7.22656 110.791 -35.2051 C 110.791 -63.1836 87.6953 -86.2793 59.7656 -86.2793 C 31.7871 -86.2793 8.74023 -63.1836 8.74023 -35.2051 C 8.74023 -7.22656 31.7871 15.8203 59.7656 15.8203 Z M 48.1934 -12.5977 C 45.3125 -12.5977 43.457 -14.3555 43.457 -16.9434 C 43.457 -18.5059 43.9453 -19.873 45.5566 -21.3867 L 60.3027 -36.1328 C 63.5254 -39.2578 65.918 -41.9434 65.918 -44.9707 C 65.918 -48.2422 63.5254 -50.3906 59.7168 -50.3906 C 55.8594 -50.3906 53.7109 -47.7539 52.4414 -45.2148 C 51.416 -43.75 50.2441 -42.4805 47.9004 -42.4805 C 45.1172 -42.4805 43.2617 -43.9941 43.2617 -46.7285 C 43.2617 -47.5098 43.3594 -48.291 43.6035 -49.1699 C 45.4102 -54.9316 52.0508 -59.082 59.8633 -59.082 C 69.8242 -59.082 76.5137 -53.8086 76.5137 -45.8496 C 76.5137 -40.625 73.5352 -36.6211 68.4082 -31.6895 L 58.8379 -21.9238 L 58.8379 -21.4844 L 73.6816 -21.4844 C 76.6602 -21.4844 78.5156 -19.873 78.5156 -17.041 C 78.5156 -14.3066 76.6113 -12.5977 73.6816 -12.5977 Z"/>
  </g>
  <g id="Medium-M" transform="matrix(1 0 0 1 1687.3 1126)">
   <path d="M 59.2285 15.2832 C 86.9141 15.2832 109.766 -7.56836 109.766 -35.2051 C 109.766 -62.8906 86.8652 -85.7422 59.1797 -85.7422 C 31.543 -85.7422 8.74023 -62.8906 8.74023 -35.2051 C 8.74023 -7.56836 31.5918 15.2832 59.2285 15.2832 Z M 47.7051 -12.4512 C 45.0684 -12.4512 43.457 -14.0137 43.457 -16.3574 C 43.457 -17.7246 43.8965 -18.8965 45.2148 -20.166 L 60.5957 -36.084 C 63.6719 -39.209 66.4062 -42.0898 66.4062 -45.4102 C 66.4062 -49.0723 63.6719 -51.5137 59.4238 -51.5137 C 55.127 -51.5137 52.7344 -48.584 51.4648 -45.8008 C 50.4883 -44.3359 49.4141 -43.1641 47.3145 -43.1641 C 44.873 -43.1641 43.2129 -44.5801 43.2129 -46.9727 C 43.2129 -47.7051 43.3105 -48.4375 43.5547 -49.2188 C 45.3125 -54.9805 51.8066 -59.2285 59.375 -59.2285 C 69.0918 -59.2285 75.5859 -54.0039 75.5859 -46.1426 C 75.5859 -40.7715 72.5098 -36.7188 67.6758 -31.8848 L 57.0312 -20.8008 L 57.0312 -20.4102 L 73.4375 -20.4102 C 75.9766 -20.4102 77.6855 -18.9453 77.6855 -16.4062 C 77.6855 -13.9648 75.9766 -12.4512 73.4375 -12.4512 Z"/>
  </g>
  <g id="Regular-M" transform="matrix(1 0 0 1 1391.3 1126)">
   <path d="M 58.5449 14.5508 C 85.791 14.5508 108.35 -8.00781 108.35 -35.2539 C 108.35 -62.4512 85.7422 -85.0586 58.4961 -85.0586 C 31.2988 -85.0586 8.74023 -62.4512 8.74023 -35.2539 C 8.74023 -8.00781 31.3477 14.5508 58.5449 14.5508 Z M 47.0215 -12.2559 C 44.7754 -12.2559 43.457 -13.5254 43.457 -15.5762 C 43.457 -16.6504 43.8477 -17.627 44.7754 -18.6035 L 60.9863 -35.9863 C 63.916 -39.1113 67.0898 -42.2363 67.0898 -45.9473 C 67.0898 -50.1465 63.916 -52.9297 59.082 -52.9297 C 54.1504 -52.9297 51.5137 -49.6582 50.1465 -46.582 C 49.2676 -45.166 48.3398 -44.043 46.5332 -44.043 C 44.5312 -44.043 43.2129 -45.3125 43.2129 -47.3145 C 43.2129 -47.9492 43.3105 -48.584 43.5059 -49.3652 C 45.1172 -55.0293 51.5137 -59.375 58.7402 -59.375 C 68.1641 -59.375 74.3652 -54.248 74.3652 -46.5332 C 74.3652 -40.918 71.1914 -36.8652 66.6992 -32.0801 L 54.6387 -19.2871 L 54.6387 -18.9453 L 73.1445 -18.9453 C 75.0977 -18.9453 76.5137 -17.7246 76.5137 -15.5762 C 76.5137 -13.5254 75.0977 -12.2559 73.1445 -12.2559 Z"/>
  </g>
  <g id="Light-M" transform="matrix(1 0 0 1 1095.42 1126)">
   <path d="M 57.7148 13.7695 C 84.5215 13.7695 106.689 -8.39844 106.689 -35.2051 C 106.689 -62.0117 84.5215 -84.1797 57.666 -84.1797 C 30.8594 -84.1797 8.74023 -62.0117 8.74023 -35.2051 C 8.74023 -8.39844 30.9082 13.7695 57.7148 13.7695 Z M 46.5332 -12.7441 C 44.7266 -12.7441 43.6523 -13.8184 43.6523 -15.4297 C 43.6523 -16.3574 43.9941 -17.0898 44.7266 -17.8711 L 61.1816 -35.791 C 64.4043 -39.2578 67.041 -42.3828 67.041 -45.9961 C 67.041 -50.5859 63.623 -53.6133 58.3496 -53.6133 C 53.0762 -53.6133 49.8047 -50.1953 48.8281 -46.4355 C 48.1934 -45.2148 47.4609 -44.2871 45.9473 -44.2871 C 44.3848 -44.2871 43.3105 -45.3613 43.3105 -46.9238 C 43.3105 -47.5098 43.4082 -48.0469 43.5547 -48.7305 C 44.873 -54.4434 51.0742 -58.6914 58.1055 -58.6914 C 66.9434 -58.6914 72.7051 -53.8086 72.7051 -46.3867 C 72.7051 -41.2598 70.0195 -37.4512 65.332 -32.3242 L 52.3438 -18.3594 L 52.3438 -18.0176 L 72.168 -18.0176 C 73.7305 -18.0176 74.8047 -17.041 74.8047 -15.3809 C 74.8047 -13.8184 73.7305 -12.7441 72.168 -12.7441 Z"/>
  </g>
  <g id="Thin-M" transform="matrix(1 0 0 1 799.806 1126)">
   <path d="M 56.6406 12.7441 C 82.9102 12.7441 104.492 -8.83789 104.492 -35.1562 C 104.492 -61.4746 82.9102 -83.0566 56.5918 -83.0566 C 30.3223 -83.0566 8.74023 -61.4746 8.74023 -35.1562 C 8.74023 -8.83789 30.3223 12.7441 56.6406 12.7441 Z M 45.8984 -13.4277 C 44.6777 -13.4277 43.9453 -14.1602 43.9453 -15.2832 C 43.9453 -15.918 44.1406 -16.3574 44.6289 -16.8945 L 61.5234 -35.498 C 65.0879 -39.4043 66.9434 -42.4805 66.9434 -46.0938 C 66.9434 -51.1719 63.2324 -54.4922 57.373 -54.4922 C 51.6113 -54.4922 47.6074 -50.8789 47.0215 -46.1914 C 46.7773 -45.2637 46.2402 -44.6777 45.166 -44.6777 C 44.1406 -44.6777 43.457 -45.4102 43.457 -46.4355 C 43.457 -46.9238 43.5059 -47.3633 43.6035 -47.9004 C 44.5312 -53.7109 50.4883 -57.8125 57.2754 -57.8125 C 65.332 -57.8125 70.5566 -53.1738 70.5566 -46.1426 C 70.5566 -41.748 68.5059 -38.1836 63.5254 -32.7148 L 49.3164 -17.0898 L 49.3164 -16.7969 L 70.8496 -16.7969 C 71.875 -16.7969 72.5586 -16.1621 72.5586 -15.1367 C 72.5586 -14.1602 71.875 -13.4277 70.8496 -13.4277 Z"/>
  </g>
  <g id="Ultralight-M" transform="matrix(1 0 0 1 503.656 1126)">
   <path d="M 56.0547 12.207 C 82.0801 12.207 103.369 -9.08203 103.369 -35.1562 C 103.369 -61.1816 82.0801 -82.4707 56.0547 -82.4707 C 30.0293 -82.4707 8.74023 -61.1816 8.74023 -35.1562 C 8.74023 -9.08203 30.0293 12.207 56.0547 12.207 Z M 45.5566 -13.7695 C 44.6289 -13.7695 44.0918 -14.3555 44.0918 -15.1855 C 44.0918 -15.6738 44.1895 -15.9668 44.5801 -16.4062 L 61.6699 -35.3516 C 65.4297 -39.502 66.8945 -42.5781 66.8945 -46.0938 C 66.8945 -51.5137 62.9883 -54.9316 56.8848 -54.9316 C 50.8789 -54.9316 46.4844 -51.2207 46.1426 -46.0938 C 46.0938 -45.3125 45.6543 -44.873 44.7754 -44.873 C 43.9941 -44.873 43.5059 -45.4102 43.5059 -46.1914 C 43.5059 -46.6309 43.6035 -47.0215 43.6523 -47.5098 C 44.3848 -53.3203 50.1465 -57.3242 56.8848 -57.3242 C 64.502 -57.3242 69.4824 -52.8809 69.4824 -46.0449 C 69.4824 -41.9922 67.6758 -38.5742 62.5977 -32.9102 L 47.7539 -16.4551 L 47.7539 -16.2109 L 70.2148 -16.2109 C 70.9473 -16.2109 71.3867 -15.7227 71.3867 -14.9902 C 71.3867 -14.3555 70.9473 -13.7695 70.2148 -13.7695 Z"/>
  </g>
  <g id="Black-S" transform="matrix(1 0 0 1 2884.57 696)">
   <path d="M 48.8281 6.78711 C 71.9727 6.78711 90.8203 -12.0605 90.8203 -35.2051 C 90.8203 -58.3496 71.9727 -77.1973 48.8281 -77.1973 C 25.6836 -77.1973 6.83594 -58.3496 6.83594 -35.2051 C 6.83594 -12.0605 25.6836 6.78711 48.8281 6.78711 Z M 39.6484 -18.0176 C 36.377 -18.0176 34.0332 -20.166 34.0332 -23.1445 C 34.0332 -25.0977 34.5215 -26.8555 37.0117 -28.9062 L 46.1426 -36.2305 C 49.0723 -38.623 49.7559 -39.9414 49.7559 -41.2598 C 49.7559 -42.334 49.1211 -42.9688 47.9004 -42.9688 C 46.4844 -42.9688 45.7031 -41.9434 44.8242 -40.8691 C 43.7988 -39.6484 42.4805 -38.3789 39.7949 -38.3789 C 36.2305 -38.3789 33.8867 -39.9902 33.8867 -43.2617 C 33.8867 -44.1406 34.0332 -45.0195 34.3262 -45.8496 C 36.084 -50.4883 41.6992 -53.4668 48.7305 -53.4668 C 57.4707 -53.4668 63.4277 -49.0234 63.4277 -42.4805 C 63.4277 -38.9648 61.4258 -35.8887 56.3965 -31.8848 L 52.832 -29.1016 L 52.832 -28.6621 L 58.6426 -28.6621 C 62.5977 -28.6621 64.7949 -26.709 64.7949 -23.3887 C 64.7949 -20.0684 62.5 -18.0176 58.6426 -18.0176 Z"/>
  </g>
  <g id="Heavy-S" transform="matrix(1 0 0 1 2588.47 696)">
   <path d="M 48.2422 6.15234 C 70.9961 6.15234 89.5996 -12.4512 89.5996 -35.2051 C 89.5996 -57.959 70.9961 -76.6113 48.1934 -76.6113 C 25.4395 -76.6113 6.83594 -57.959 6.83594 -35.2051 C 6.83594 -12.4512 25.4395 6.15234 48.2422 6.15234 Z M 39.0625 -17.7734 C 36.084 -17.7734 33.9844 -19.6777 33.9844 -22.3633 C 33.9844 -24.0723 34.4727 -25.6348 36.5723 -27.3926 L 46.4844 -36.1328 C 49.2676 -38.5254 50.4395 -40.1367 50.4395 -41.7969 C 50.4395 -43.3594 49.3652 -44.3359 47.6074 -44.3359 C 45.6543 -44.3359 44.6289 -42.9688 43.6523 -41.6504 C 42.6758 -40.4297 41.5039 -39.209 39.0625 -39.209 C 35.9375 -39.209 33.8867 -40.7227 33.8867 -43.6523 C 33.8867 -44.4336 33.9844 -45.2637 34.2773 -46.0449 C 35.9375 -50.6348 41.4062 -53.7109 48.1445 -53.7109 C 56.6406 -53.7109 62.4023 -49.3164 62.4023 -42.8711 C 62.4023 -39.1113 60.2051 -35.9863 55.5664 -32.0801 L 50.7324 -27.6855 L 50.7324 -27.2949 L 58.4473 -27.2949 C 61.8652 -27.2949 63.8672 -25.5371 63.8672 -22.5586 C 63.8672 -19.6289 61.8164 -17.7734 58.4473 -17.7734 Z"/>
  </g>
  <g id="Bold-S" transform="matrix(1 0 0 1 2292.44 696)">
   <path d="M 47.5586 5.46875 C 69.873 5.46875 88.2324 -12.8906 88.2324 -35.2051 C 88.2324 -57.5684 69.873 -75.9277 47.5098 -75.9277 C 25.1953 -75.9277 6.83594 -57.5684 6.83594 -35.2051 C 6.83594 -12.8906 25.1953 5.46875 47.5586 5.46875 Z M 38.3789 -17.4805 C 35.7422 -17.4805 33.9844 -19.1406 33.9844 -21.5332 C 33.9844 -22.9492 34.4238 -24.2676 36.0352 -25.7324 L 46.875 -36.084 C 49.4629 -38.4277 51.1719 -40.332 51.1719 -42.4316 C 51.1719 -44.5312 49.6582 -45.8984 47.2656 -45.8984 C 44.7266 -45.8984 43.4082 -44.0918 42.3828 -42.5293 C 41.4551 -41.3086 40.3809 -40.1855 38.2812 -40.1855 C 35.5957 -40.1855 33.8379 -41.5527 33.8379 -44.043 C 33.8379 -44.7754 33.9355 -45.5078 34.1797 -46.2402 C 35.791 -50.7812 41.1133 -53.9551 47.5098 -53.9551 C 55.7129 -53.9551 61.2305 -49.707 61.2305 -43.3105 C 61.2305 -39.2578 58.8867 -36.0352 54.6387 -32.2266 L 48.3887 -26.1719 L 48.3887 -25.7812 L 58.2031 -25.7812 C 61.0352 -25.7812 62.793 -24.2676 62.793 -21.6797 C 62.793 -19.0918 60.9863 -17.4805 58.2031 -17.4805 Z"/>
  </g>
  <g id="Semibold-S" transform="matrix(1 0 0 1 1996.2 696)">
   <path d="M 47.0703 4.98047 C 69.0918 4.98047 87.3047 -13.1836 87.3047 -35.2539 C 87.3047 -57.2754 69.0918 -75.4883 47.0215 -75.4883 C 25 -75.4883 6.83594 -57.2754 6.83594 -35.2539 C 6.83594 -13.1836 25.0488 4.98047 47.0703 4.98047 Z M 37.8906 -17.2852 C 35.498 -17.2852 33.9355 -18.75 33.9355 -20.9473 C 33.9355 -22.2168 34.375 -23.3398 35.6934 -24.5605 L 47.168 -35.9863 C 49.6094 -38.3301 51.6602 -40.4297 51.6602 -42.8711 C 51.6602 -45.3125 49.8535 -46.9238 47.0215 -46.9238 C 44.0918 -46.9238 42.5781 -44.873 41.5039 -43.1641 C 40.5762 -41.8945 39.5996 -40.8203 37.6953 -40.8203 C 35.4004 -40.8203 33.8379 -42.1387 33.8379 -44.3359 C 33.8379 -44.9707 33.8867 -45.6543 34.1309 -46.3379 C 35.6445 -50.8789 40.918 -54.1504 47.0703 -54.1504 C 55.0781 -54.1504 60.4492 -49.9512 60.4492 -43.6523 C 60.4492 -39.3555 57.959 -36.1328 54.0039 -32.373 L 46.7773 -25.0488 L 46.7773 -24.7559 L 58.0566 -24.7559 C 60.498 -24.7559 62.0605 -23.3887 62.0605 -21.0449 C 62.0605 -18.75 60.4492 -17.2852 58.0566 -17.2852 Z"/>
  </g>
  <g id="Medium-S" transform="matrix(1 0 0 1 1699.83 696)">
   <path d="M 46.7285 4.63867 C 68.5547 4.63867 86.6211 -13.4277 86.6211 -35.2539 C 86.6211 -57.0312 68.5059 -75.1465 46.6797 -75.1465 C 24.8535 -75.1465 6.83594 -57.0312 6.83594 -35.2539 C 6.83594 -13.4277 24.9023 4.63867 46.7285 4.63867 Z M 37.5488 -17.1387 C 35.3516 -17.1387 33.9355 -18.457 33.9355 -20.5078 C 33.9355 -21.6309 34.3262 -22.6074 35.4492 -23.6816 L 47.3633 -35.9863 C 49.707 -38.2812 52.0508 -40.5762 52.0508 -43.1641 C 52.0508 -45.8984 50 -47.7539 46.8262 -47.7539 C 43.6035 -47.7539 41.9434 -45.5078 40.8203 -43.6035 C 39.9414 -42.3828 39.0625 -41.3574 37.2559 -41.3574 C 35.2051 -41.3574 33.8379 -42.5781 33.8379 -44.5801 C 33.8379 -45.166 33.8867 -45.8008 34.082 -46.4355 C 35.5957 -50.9277 40.7715 -54.2969 46.7285 -54.2969 C 54.5898 -54.2969 59.8145 -50.1465 59.8145 -43.8477 C 59.8145 -39.4043 57.2266 -36.1816 53.5156 -32.4707 L 45.5566 -24.2676 L 45.5566 -23.9258 L 57.9102 -23.9258 C 60.0586 -23.9258 61.4746 -22.7051 61.4746 -20.5566 C 61.4746 -18.457 60.0586 -17.1387 57.9102 -17.1387 Z"/>
  </g>
  <g id="Regular-S" transform="matrix(1 0 0 1 1403.58 696)">
   <path d="M 46.2402 4.15039 C 67.7734 4.15039 85.6934 -13.7207 85.6934 -35.2539 C 85.6934 -56.7871 67.7246 -74.6582 46.1914 -74.6582 C 24.707 -74.6582 6.83594 -56.7871 6.83594 -35.2539 C 6.83594 -13.7207 24.7559 4.15039 46.2402 4.15039 Z M 37.0605 -16.9922 C 35.1074 -16.9922 33.9355 -18.1152 33.9355 -19.9219 C 33.9355 -20.8496 34.2773 -21.6797 35.1074 -22.5586 L 47.6562 -35.8887 C 49.8535 -38.1836 52.5879 -40.6738 52.5879 -43.6035 C 52.5879 -46.6797 50.1953 -48.7793 46.6309 -48.7793 C 42.9688 -48.7793 41.1621 -46.2891 39.9414 -44.1895 C 39.1113 -42.9688 38.2812 -41.9922 36.7188 -41.9922 C 34.9609 -41.9922 33.7891 -43.1152 33.7891 -44.873 C 33.7891 -45.4102 33.8379 -45.9473 34.0332 -46.582 C 35.4492 -51.0254 40.5762 -54.4922 46.2891 -54.4922 C 53.9551 -54.4922 59.0332 -50.3906 59.0332 -44.1406 C 59.0332 -39.502 56.2988 -36.2305 52.9297 -32.6172 L 43.9453 -23.1934 L 43.9453 -22.9004 L 57.7637 -22.9004 C 59.5215 -22.9004 60.791 -21.8262 60.791 -19.9219 C 60.791 -18.1152 59.5215 -16.9922 57.7637 -16.9922 Z"/>
  </g>
  <g id="Light-S" transform="matrix(1 0 0 1 1107.6 696)">
   <path d="M 45.5078 3.4668 C 66.6992 3.4668 84.2285 -14.0625 84.2285 -35.2051 C 84.2285 -56.3965 66.6504 -73.9258 45.5078 -73.9258 C 24.3164 -73.9258 6.83594 -56.3965 6.83594 -35.2051 C 6.83594 -14.0625 24.3652 3.4668 45.5078 3.4668 Z M 36.6211 -17.4316 C 35.0586 -17.4316 34.1309 -18.3594 34.1309 -19.7754 C 34.1309 -20.5566 34.375 -21.1914 35.0586 -21.875 L 47.8516 -35.7422 C 50.293 -38.3301 52.5391 -40.7715 52.5391 -43.6523 C 52.5391 -47.1191 49.9512 -49.3652 45.9473 -49.3652 C 41.9922 -49.3652 39.6484 -46.7285 38.7207 -44.043 C 38.1348 -43.0176 37.5 -42.2363 36.2305 -42.2363 C 34.8145 -42.2363 33.8867 -43.1641 33.8867 -44.5312 C 33.8867 -45.0195 33.9355 -45.5078 34.082 -46.0449 C 35.2539 -50.5371 40.1367 -53.9062 45.752 -53.9062 C 52.8809 -53.9062 57.5684 -49.9512 57.5684 -43.9941 C 57.5684 -39.8438 55.2734 -36.7188 51.709 -32.8613 L 41.8945 -22.3633 L 41.8945 -22.1191 L 56.8848 -22.1191 C 58.252 -22.1191 59.2773 -21.2402 59.2773 -19.7754 C 59.2773 -18.3594 58.252 -17.4316 56.8848 -17.4316 Z"/>
  </g>
  <g id="Thin-S" transform="matrix(1 0 0 1 811.867 696)">
   <path d="M 44.5801 2.53906 C 65.2832 2.53906 82.2754 -14.4531 82.2754 -35.2051 C 82.2754 -55.9082 65.2344 -72.9004 44.5312 -72.9004 C 23.8281 -72.9004 6.83594 -55.9082 6.83594 -35.2051 C 6.83594 -14.4531 23.877 2.53906 44.5801 2.53906 Z M 36.084 -18.0176 C 35.0098 -18.0176 34.375 -18.6523 34.375 -19.6289 C 34.375 -20.166 34.5215 -20.5566 34.9609 -21.0449 L 48.0957 -35.498 C 50.8301 -38.4766 52.4414 -40.8691 52.4414 -43.7012 C 52.4414 -47.6074 49.6094 -50.1465 45.1172 -50.1465 C 40.7227 -50.1465 37.6953 -47.3633 37.1582 -43.8965 C 36.9141 -43.0664 36.4746 -42.5781 35.5469 -42.5781 C 34.6191 -42.5781 33.9844 -43.1641 33.9844 -44.1406 C 33.9844 -44.5312 34.0332 -44.873 34.1309 -45.3125 C 34.9609 -49.8535 39.6484 -53.0762 45.0195 -53.0762 C 51.4648 -53.0762 55.7129 -49.4141 55.7129 -43.8477 C 55.7129 -40.2344 53.9551 -37.4023 50.0977 -33.2031 L 39.209 -21.2402 L 39.209 -21.0449 L 55.7617 -21.0449 C 56.6406 -21.0449 57.2754 -20.459 57.2754 -19.5312 C 57.2754 -18.6523 56.6406 -18.0176 55.7617 -18.0176 Z"/>
  </g>
  <g id="Ultralight-S" transform="matrix(1 0 0 1 515.644 696)">
   <path d="M 44.043 2.05078 C 64.502 2.05078 81.2988 -14.6973 81.2988 -35.1562 C 81.2988 -55.6152 64.502 -72.3633 44.043 -72.3633 C 23.584 -72.3633 6.83594 -55.6152 6.83594 -35.1562 C 6.83594 -14.6973 23.584 2.05078 44.043 2.05078 Z M 35.7422 -18.3594 C 34.9609 -18.3594 34.4727 -18.7988 34.4727 -19.5312 C 34.4727 -19.9707 34.6191 -20.2637 34.9121 -20.6055 L 48.2422 -35.4004 C 51.1719 -38.5742 52.3926 -40.9668 52.3926 -43.75 C 52.3926 -47.9004 49.4141 -50.5371 44.6777 -50.5371 C 40.0391 -50.5371 36.7188 -47.7051 36.377 -43.75 C 36.2793 -43.1152 35.9375 -42.7246 35.2051 -42.7246 C 34.5215 -42.7246 34.082 -43.2129 34.082 -43.8965 C 34.082 -44.2383 34.1309 -44.5312 34.1797 -44.9707 C 34.8145 -49.5117 39.3555 -52.6855 44.6777 -52.6855 C 50.7324 -52.6855 54.7363 -49.1211 54.7363 -43.7012 C 54.7363 -40.4785 53.2227 -37.7441 49.2676 -33.3496 L 37.793 -20.7031 L 37.793 -20.5078 L 55.1758 -20.5078 C 55.8105 -20.5078 56.25 -20.0684 56.25 -19.4336 C 56.25 -18.7988 55.8105 -18.3594 55.1758 -18.3594 Z"/>
  </g>
 </g>
</svg>
