<?xml version="1.0" encoding="UTF-8"?>
<!--Generator: Apple Native CoreSVG 123-->
<!DOCTYPE svg
PUBLIC "-//W3C//DTD SVG 1.1//EN"
       "http://www.w3.org/Graphics/SVG/1.1/DTD/svg11.dtd">
<svg version="1.1" xmlns="http://www.w3.org/2000/svg" xmlns:xlink="http://www.w3.org/1999/xlink" width="3300" height="2200">
 <!--glyph: "uni10051E.medium", point size: 100.000000, font version: "Version 15.0d7e11", template writer version: "5"-->
 <g id="Notes">
  <rect height="2200" id="artboard" style="fill:white;opacity:1" width="3300" x="0" y="0"/>
  <line id="" style="fill:none;stroke:black;opacity:1;stroke-width:0.5;" x1="263" x2="3036" y1="292" y2="292"/>
  <text style="stroke:none;fill:black;font-family:-apple-system,&quot;SF Pro Display&quot;,&quot;SF Pro Text&quot;,Helvetica,sans-serif;font-weight:bold;" transform="matrix(1 0 0 1 263 322)">Weight/Scale Variations</text>
  <text style="stroke:none;fill:black;font-family:-apple-system,&quot;SF Pro Display&quot;,&quot;SF Pro Text&quot;,Helvetica,sans-serif;text-anchor:middle;" transform="matrix(1 0 0 1 559.711 322)">Ultralight</text>
  <text style="stroke:none;fill:black;font-family:-apple-system,&quot;SF Pro Display&quot;,&quot;SF Pro Text&quot;,Helvetica,sans-serif;text-anchor:middle;" transform="matrix(1 0 0 1 856.422 322)">Thin</text>
  <text style="stroke:none;fill:black;font-family:-apple-system,&quot;SF Pro Display&quot;,&quot;SF Pro Text&quot;,Helvetica,sans-serif;text-anchor:middle;" transform="matrix(1 0 0 1 1153.13 322)">Light</text>
  <text style="stroke:none;fill:black;font-family:-apple-system,&quot;SF Pro Display&quot;,&quot;SF Pro Text&quot;,Helvetica,sans-serif;text-anchor:middle;" transform="matrix(1 0 0 1 1449.84 322)">Regular</text>
  <text style="stroke:none;fill:black;font-family:-apple-system,&quot;SF Pro Display&quot;,&quot;SF Pro Text&quot;,Helvetica,sans-serif;text-anchor:middle;" transform="matrix(1 0 0 1 1746.56 322)">Medium</text>
  <text style="stroke:none;fill:black;font-family:-apple-system,&quot;SF Pro Display&quot;,&quot;SF Pro Text&quot;,Helvetica,sans-serif;text-anchor:middle;" transform="matrix(1 0 0 1 2043.27 322)">Semibold</text>
  <text style="stroke:none;fill:black;font-family:-apple-system,&quot;SF Pro Display&quot;,&quot;SF Pro Text&quot;,Helvetica,sans-serif;text-anchor:middle;" transform="matrix(1 0 0 1 2339.98 322)">Bold</text>
  <text style="stroke:none;fill:black;font-family:-apple-system,&quot;SF Pro Display&quot;,&quot;SF Pro Text&quot;,Helvetica,sans-serif;text-anchor:middle;" transform="matrix(1 0 0 1 2636.69 322)">Heavy</text>
  <text style="stroke:none;fill:black;font-family:-apple-system,&quot;SF Pro Display&quot;,&quot;SF Pro Text&quot;,Helvetica,sans-serif;text-anchor:middle;" transform="matrix(1 0 0 1 2933.4 322)">Black</text>
  <line id="" style="fill:none;stroke:black;opacity:1;stroke-width:0.5;" x1="263" x2="3036" y1="1903" y2="1903"/>
  <g id="" transform="matrix(1 0 0 1 263 1933)">
   <path d="M 9.24805 0.830078 C 13.5547 0.830078 17.1387 -2.74414 17.1387 -7.05078 C 17.1387 -11.3574 13.5449 -14.9316 9.23828 -14.9316 C 4.94141 -14.9316 1.36719 -11.3574 1.36719 -7.05078 C 1.36719 -2.74414 4.95117 0.830078 9.24805 0.830078 Z M 9.24805 -0.654297 C 5.70312 -0.654297 2.87109 -3.49609 2.87109 -7.05078 C 2.87109 -10.6055 5.69336 -13.4473 9.23828 -13.4473 C 12.793 -13.4473 15.6348 -10.6055 15.6445 -7.05078 C 15.6543 -3.49609 12.8027 -0.654297 9.24805 -0.654297 Z M 9.22852 -3.42773 C 9.69727 -3.42773 9.9707 -3.74023 9.9707 -4.25781 L 9.9707 -6.31836 L 12.1973 -6.31836 C 12.6953 -6.31836 13.0371 -6.57227 13.0371 -7.04102 C 13.0371 -7.51953 12.7148 -7.7832 12.1973 -7.7832 L 9.9707 -7.7832 L 9.9707 -10.0098 C 9.9707 -10.5273 9.69727 -10.8496 9.22852 -10.8496 C 8.75977 -10.8496 8.50586 -10.5078 8.50586 -10.0098 L 8.50586 -7.7832 L 6.29883 -7.7832 C 5.78125 -7.7832 5.44922 -7.51953 5.44922 -7.04102 C 5.44922 -6.57227 5.80078 -6.31836 6.29883 -6.31836 L 8.50586 -6.31836 L 8.50586 -4.25781 C 8.50586 -3.75977 8.75977 -3.42773 9.22852 -3.42773 Z"/>
  </g>
  <g id="" transform="matrix(1 0 0 1 281.506 1933)">
   <path d="M 11.709 2.91016 C 17.1582 2.91016 21.6699 -1.60156 21.6699 -7.05078 C 21.6699 -12.4902 17.1484 -17.0117 11.6992 -17.0117 C 6.25977 -17.0117 1.74805 -12.4902 1.74805 -7.05078 C 1.74805 -1.60156 6.26953 2.91016 11.709 2.91016 Z M 11.709 1.25 C 7.09961 1.25 3.41797 -2.44141 3.41797 -7.05078 C 3.41797 -11.6504 7.08984 -15.3516 11.6992 -15.3516 C 16.3086 -15.3516 20 -11.6504 20.0098 -7.05078 C 20.0195 -2.44141 16.3184 1.25 11.709 1.25 Z M 11.6895 -2.41211 C 12.207 -2.41211 12.5195 -2.77344 12.5195 -3.33984 L 12.5195 -6.23047 L 15.5762 -6.23047 C 16.123 -6.23047 16.5039 -6.51367 16.5039 -7.03125 C 16.5039 -7.55859 16.1426 -7.86133 15.5762 -7.86133 L 12.5195 -7.86133 L 12.5195 -10.9277 C 12.5195 -11.5039 12.207 -11.8555 11.6895 -11.8555 C 11.1719 -11.8555 10.8789 -11.4844 10.8789 -10.9277 L 10.8789 -7.86133 L 7.83203 -7.86133 C 7.26562 -7.86133 6.89453 -7.55859 6.89453 -7.03125 C 6.89453 -6.51367 7.28516 -6.23047 7.83203 -6.23047 L 10.8789 -6.23047 L 10.8789 -3.33984 C 10.8789 -2.79297 11.1719 -2.41211 11.6895 -2.41211 Z"/>
  </g>
  <g id="" transform="matrix(1 0 0 1 304.924 1933)">
   <path d="M 14.9707 5.67383 C 21.9336 5.67383 27.6953 -0.078125 27.6953 -7.04102 C 27.6953 -14.0039 21.9238 -19.7559 14.9609 -19.7559 C 8.00781 -19.7559 2.25586 -14.0039 2.25586 -7.04102 C 2.25586 -0.078125 8.01758 5.67383 14.9707 5.67383 Z M 14.9707 3.85742 C 8.93555 3.85742 4.08203 -1.00586 4.08203 -7.04102 C 4.08203 -13.0762 8.92578 -17.9395 14.9609 -17.9395 C 21.0059 -17.9395 25.8594 -13.0762 25.8691 -7.04102 C 25.8789 -1.00586 21.0156 3.85742 14.9707 3.85742 Z M 14.9512 -1.06445 C 15.5176 -1.06445 15.8691 -1.45508 15.8691 -2.06055 L 15.8691 -6.13281 L 20.1074 -6.13281 C 20.6934 -6.13281 21.1133 -6.46484 21.1133 -7.02148 C 21.1133 -7.59766 20.7227 -7.93945 20.1074 -7.93945 L 15.8691 -7.93945 L 15.8691 -12.1875 C 15.8691 -12.8027 15.5176 -13.1934 14.9512 -13.1934 C 14.3848 -13.1934 14.0625 -12.7832 14.0625 -12.1875 L 14.0625 -7.93945 L 9.83398 -7.93945 C 9.21875 -7.93945 8.80859 -7.59766 8.80859 -7.02148 C 8.80859 -6.46484 9.23828 -6.13281 9.83398 -6.13281 L 14.0625 -6.13281 L 14.0625 -2.06055 C 14.0625 -1.47461 14.3848 -1.06445 14.9512 -1.06445 Z"/>
  </g>
  <text style="stroke:none;fill:black;font-family:-apple-system,&quot;SF Pro Display&quot;,&quot;SF Pro Text&quot;,Helvetica,sans-serif;font-weight:bold;" transform="matrix(1 0 0 1 263 1953)">Design Variations</text>
  <text style="stroke:none;fill:black;font-family:-apple-system,&quot;SF Pro Display&quot;,&quot;SF Pro Text&quot;,Helvetica,sans-serif;" transform="matrix(1 0 0 1 263 1971)">Symbols are supported in up to nine weights and three scales.</text>
  <text style="stroke:none;fill:black;font-family:-apple-system,&quot;SF Pro Display&quot;,&quot;SF Pro Text&quot;,Helvetica,sans-serif;" transform="matrix(1 0 0 1 263 1989)">For optimal layout with text and other symbols, vertically align</text>
  <text style="stroke:none;fill:black;font-family:-apple-system,&quot;SF Pro Display&quot;,&quot;SF Pro Text&quot;,Helvetica,sans-serif;" transform="matrix(1 0 0 1 263 2007)">symbols with the adjacent text.</text>
  <rect height="14" id="" style="fill:#00AEEF;stroke:none;opacity:0.4;" width="3" x="776" y="1919"/>
  <g id="" transform="matrix(1 0 0 1 779 1933)">
   <path d="M 10.5273 0 L 12.373 0 L 7.17773 -14.0918 L 5.43945 -14.0918 L 0.244141 0 L 2.08984 0 L 3.50586 -4.0332 L 9.11133 -4.0332 Z M 6.2793 -11.9531 L 6.33789 -11.9531 L 8.59375 -5.52734 L 4.02344 -5.52734 Z"/>
  </g>
  <rect height="14" id="" style="fill:#00AEEF;stroke:none;opacity:0.4;" width="3" x="791.617" y="1919"/>
  <text style="stroke:none;fill:black;font-family:-apple-system,&quot;SF Pro Display&quot;,&quot;SF Pro Text&quot;,Helvetica,sans-serif;font-weight:bold;" transform="matrix(1 0 0 1 776 1953)">Margins</text>
  <text style="stroke:none;fill:black;font-family:-apple-system,&quot;SF Pro Display&quot;,&quot;SF Pro Text&quot;,Helvetica,sans-serif;" transform="matrix(1 0 0 1 776 1971)">Leading and trailing margins on the left and right side of each symbol</text>
  <text style="stroke:none;fill:black;font-family:-apple-system,&quot;SF Pro Display&quot;,&quot;SF Pro Text&quot;,Helvetica,sans-serif;" transform="matrix(1 0 0 1 776 1989)">can be adjusted by modifying the width of the blue rectangles.</text>
  <text style="stroke:none;fill:black;font-family:-apple-system,&quot;SF Pro Display&quot;,&quot;SF Pro Text&quot;,Helvetica,sans-serif;" transform="matrix(1 0 0 1 776 2007)">Modifications are automatically applied proportionally to all</text>
  <text style="stroke:none;fill:black;font-family:-apple-system,&quot;SF Pro Display&quot;,&quot;SF Pro Text&quot;,Helvetica,sans-serif;" transform="matrix(1 0 0 1 776 2025)">scales and weights.</text>
  <g id="" transform="matrix(1 0 0 1 1289 1933)">
   <path d="M 2.83203 3.11523 L 4.375 4.6582 C 5.22461 5.48828 6.19141 5.41992 7.06055 4.46289 L 17.2754 -6.66016 C 17.7051 -6.36719 18.0957 -6.37695 18.5645 -6.47461 L 19.6094 -6.68945 L 20.3027 -5.99609 L 20.2539 -5.47852 C 20.1855 -4.95117 20.3516 -4.53125 20.8496 -4.0332 L 21.6602 -3.22266 C 22.168 -2.71484 22.8223 -2.68555 23.3008 -3.16406 L 26.5527 -6.41602 C 27.0312 -6.89453 27.0117 -7.54883 26.5039 -8.05664 L 25.6836 -8.87695 C 25.1855 -9.375 24.7754 -9.55078 24.2383 -9.47266 L 23.7109 -9.41406 L 23.0566 -10.0781 L 23.3398 -11.2207 C 23.4863 -11.7871 23.3398 -12.2559 22.7148 -12.8613 L 20.3027 -15.2539 C 16.7578 -18.7793 12.2266 -18.6719 9.11133 -15.5371 C 8.69141 -15.1074 8.64258 -14.5215 8.91602 -14.0918 C 9.15039 -13.7207 9.62891 -13.4961 10.2734 -13.6621 C 11.7871 -14.043 13.3008 -13.9258 14.7852 -12.9199 L 14.1602 -11.3379 C 13.9258 -10.752 13.9453 -10.2734 14.1797 -9.83398 L 3.01758 0.439453 C 2.08008 1.30859 1.97266 2.25586 2.83203 3.11523 Z M 10.6738 -15.1465 C 13.3398 -17.1387 16.6504 -16.8262 19.0527 -14.4141 L 21.6797 -11.8066 C 21.9141 -11.5723 21.9434 -11.3867 21.8848 -11.0938 L 21.5039 -9.53125 L 23.0762 -7.95898 L 24.043 -8.04688 C 24.3262 -8.07617 24.4141 -8.05664 24.6387 -7.83203 L 25.2637 -7.20703 L 22.5098 -4.46289 L 21.8848 -5.07812 C 21.6602 -5.30273 21.6406 -5.40039 21.6699 -5.68359 L 21.7578 -6.64062 L 20.1953 -8.20312 L 18.5742 -7.89062 C 18.291 -7.83203 18.1445 -7.83203 17.9102 -8.07617 L 15.7324 -10.2539 C 15.5078 -10.4883 15.4785 -10.625 15.6055 -10.9473 L 16.5527 -13.2227 C 14.9512 -14.7559 12.8418 -15.6055 10.8008 -14.9512 C 10.7129 -14.9219 10.6445 -14.9414 10.6152 -14.9805 C 10.5859 -15.0293 10.5859 -15.0781 10.6738 -15.1465 Z M 4.10156 2.41211 C 3.61328 1.91406 3.78906 1.61133 4.12109 1.30859 L 15.0781 -8.80859 L 16.3086 -7.57812 L 6.15234 3.34961 C 5.84961 3.68164 5.46875 3.7793 5.06836 3.37891 Z"/>
  </g>
  <text style="stroke:none;fill:black;font-family:-apple-system,&quot;SF Pro Display&quot;,&quot;SF Pro Text&quot;,Helvetica,sans-serif;font-weight:bold;" transform="matrix(1 0 0 1 1289 1953)">Exporting</text>
  <text style="stroke:none;fill:black;font-family:-apple-system,&quot;SF Pro Display&quot;,&quot;SF Pro Text&quot;,Helvetica,sans-serif;" transform="matrix(1 0 0 1 1289 1971)">Symbols should be outlined when exporting to ensure the</text>
  <text style="stroke:none;fill:black;font-family:-apple-system,&quot;SF Pro Display&quot;,&quot;SF Pro Text&quot;,Helvetica,sans-serif;" transform="matrix(1 0 0 1 1289 1989)">design is preserved when submitting to Xcode.</text>
  <text id="template-version" style="stroke:none;fill:black;font-family:-apple-system,&quot;SF Pro Display&quot;,&quot;SF Pro Text&quot;,Helvetica,sans-serif;text-anchor:end;" transform="matrix(1 0 0 1 3036 1933)">Template v.1.0</text>
  <text style="stroke:none;fill:black;font-family:-apple-system,&quot;SF Pro Display&quot;,&quot;SF Pro Text&quot;,Helvetica,sans-serif;text-anchor:end;" transform="matrix(1 0 0 1 3036 1951)">Generated from 20.circle.fill</text>
  <text style="stroke:none;fill:black;font-family:-apple-system,&quot;SF Pro Display&quot;,&quot;SF Pro Text&quot;,Helvetica,sans-serif;text-anchor:end;" transform="matrix(1 0 0 1 3036 1969)">Typeset at 100 points</text>
  <text style="stroke:none;fill:black;font-family:-apple-system,&quot;SF Pro Display&quot;,&quot;SF Pro Text&quot;,Helvetica,sans-serif;" transform="matrix(1 0 0 1 263 726)">Small</text>
  <text style="stroke:none;fill:black;font-family:-apple-system,&quot;SF Pro Display&quot;,&quot;SF Pro Text&quot;,Helvetica,sans-serif;" transform="matrix(1 0 0 1 263 1156)">Medium</text>
  <text style="stroke:none;fill:black;font-family:-apple-system,&quot;SF Pro Display&quot;,&quot;SF Pro Text&quot;,Helvetica,sans-serif;" transform="matrix(1 0 0 1 263 1586)">Large</text>
 </g>
 <g id="Guides">
  <g id="H-reference" style="fill:#27AAE1;stroke:none;" transform="matrix(1 0 0 1 339 696)">
   <path d="M 54.9316 0 L 57.666 0 L 30.5664 -70.459 L 28.0762 -70.459 L 0.976562 0 L 3.66211 0 L 12.9395 -24.4629 L 45.7031 -24.4629 Z M 29.1992 -67.0898 L 29.4434 -67.0898 L 44.8242 -26.709 L 13.8184 -26.709 Z"/>
  </g>
  <line id="Baseline-S" style="fill:none;stroke:#27AAE1;opacity:1;stroke-width:0.577;" x1="263" x2="3036" y1="696" y2="696"/>
  <line id="Capline-S" style="fill:none;stroke:#27AAE1;opacity:1;stroke-width:0.577;" x1="263" x2="3036" y1="625.541" y2="625.541"/>
  <g id="H-reference" style="fill:#27AAE1;stroke:none;" transform="matrix(1 0 0 1 339 1126)">
   <path d="M 54.9316 0 L 57.666 0 L 30.5664 -70.459 L 28.0762 -70.459 L 0.976562 0 L 3.66211 0 L 12.9395 -24.4629 L 45.7031 -24.4629 Z M 29.1992 -67.0898 L 29.4434 -67.0898 L 44.8242 -26.709 L 13.8184 -26.709 Z"/>
  </g>
  <line id="Baseline-M" style="fill:none;stroke:#27AAE1;opacity:1;stroke-width:0.577;" x1="263" x2="3036" y1="1126" y2="1126"/>
  <line id="Capline-M" style="fill:none;stroke:#27AAE1;opacity:1;stroke-width:0.577;" x1="263" x2="3036" y1="1055.54" y2="1055.54"/>
  <g id="H-reference" style="fill:#27AAE1;stroke:none;" transform="matrix(1 0 0 1 339 1556)">
   <path d="M 54.9316 0 L 57.666 0 L 30.5664 -70.459 L 28.0762 -70.459 L 0.976562 0 L 3.66211 0 L 12.9395 -24.4629 L 45.7031 -24.4629 Z M 29.1992 -67.0898 L 29.4434 -67.0898 L 44.8242 -26.709 L 13.8184 -26.709 Z"/>
  </g>
  <line id="Baseline-L" style="fill:none;stroke:#27AAE1;opacity:1;stroke-width:0.577;" x1="263" x2="3036" y1="1556" y2="1556"/>
  <line id="Capline-L" style="fill:none;stroke:#27AAE1;opacity:1;stroke-width:0.577;" x1="263" x2="3036" y1="1485.54" y2="1485.54"/>
  <rect height="119.336" id="left-margin" style="fill:#00AEEF;stroke:none;opacity:0.4;" width="8.74023" x="1391.3" y="1030.79"/>
  <rect height="119.336" id="right-margin" style="fill:#00AEEF;stroke:none;opacity:0.4;" width="8.74023" x="1499.65" y="1030.79"/>
 </g>
 <g id="Symbols">
  <g id="Black-L" transform="matrix(1 0 0 1 2854.05 1556)">
   <path d="M 79.3457 32.8613 C 116.748 32.8613 147.412 2.19727 147.412 -35.2051 C 147.412 -72.6074 116.748 -103.271 79.2969 -103.271 C 41.8945 -103.271 11.2793 -72.6074 11.2793 -35.2051 C 11.2793 2.19727 41.9434 32.8613 79.3457 32.8613 Z M 51.2207 -10.5469 C 47.8516 -10.5469 45.2148 -12.8418 45.2148 -16.6016 C 45.2148 -18.8965 46.0449 -20.8984 48.1934 -23.3398 L 59.5215 -36.7188 C 62.4023 -40.0879 64.7949 -42.4316 64.7949 -45.4102 C 64.7949 -47.8516 62.793 -49.7559 60.1074 -49.7559 C 57.666 -49.7559 55.9082 -48.3398 54.9316 -45.8008 C 54.1504 -43.5059 52.6367 -41.8945 49.6582 -41.8945 C 46.4844 -41.8945 44.4336 -44.0918 44.4336 -47.2168 C 44.4336 -48.3887 44.6289 -49.3164 44.9219 -50.3418 C 46.7285 -56.7383 53.0762 -61.084 60.4004 -61.084 C 69.9219 -61.084 75.7812 -55.0293 75.9277 -46.5332 C 75.9766 -40.7227 73.1445 -36.2793 68.3105 -30.7129 L 61.4746 -22.7539 L 61.4746 -22.1191 L 71.4844 -22.1191 C 75.0977 -22.1191 77.3926 -20.0684 77.3926 -16.5039 C 77.3926 -12.7441 75.0977 -10.5469 71.4844 -10.5469 Z M 98.584 -9.47266 C 88.4277 -9.47266 81.6406 -17.4805 81.6406 -35.2539 C 81.6406 -53.0273 88.4277 -61.084 98.584 -61.084 C 108.74 -61.084 115.918 -53.0273 115.918 -35.2539 C 115.918 -17.4805 108.74 -9.47266 98.584 -9.47266 Z M 98.7793 -21.5332 C 101.709 -21.5332 103.467 -25.1953 103.467 -35.2539 C 103.467 -45.3125 101.66 -49.0234 98.7793 -49.0234 C 95.8984 -49.0234 94.0918 -45.3125 94.0918 -35.2539 C 94.0918 -25.1953 95.8984 -21.5332 98.7793 -21.5332 Z"/>
  </g>
  <g id="Heavy-L" transform="matrix(1 0 0 1 2558.39 1556)">
   <path d="M 78.2715 31.7871 C 115.088 31.7871 145.312 1.61133 145.312 -35.2051 C 145.312 -72.0215 115.039 -102.197 78.2715 -102.197 C 41.4551 -102.197 11.2793 -72.0215 11.2793 -35.2051 C 11.2793 1.61133 41.5039 31.7871 78.2715 31.7871 Z M 48.7305 -10.0586 C 45.7031 -10.0586 43.3594 -12.1094 43.3594 -15.4785 C 43.3594 -17.4805 44.0918 -19.2871 45.9473 -21.3867 L 58.8379 -36.5723 C 61.8652 -40.0879 64.4043 -42.7246 64.4043 -46.0449 C 64.4043 -49.1699 62.0117 -51.416 58.5938 -51.416 C 55.4688 -51.416 53.2227 -49.707 52.1973 -46.4844 C 51.416 -44.3359 50 -42.8223 47.3633 -42.8223 C 44.4336 -42.8223 42.5781 -44.873 42.5781 -47.7539 C 42.5781 -48.7793 42.7734 -49.707 43.0176 -50.6348 C 44.7754 -57.1289 51.2695 -61.6699 58.7402 -61.6699 C 68.4082 -61.6699 74.5117 -55.6641 74.6094 -47.0215 C 74.6094 -41.1133 71.6797 -36.6211 66.7969 -30.957 L 58.252 -21.0938 L 58.252 -20.5078 L 70.8008 -20.5078 C 73.9746 -20.5078 76.0742 -18.6035 76.0742 -15.3809 C 76.0742 -12.0117 73.9746 -10.0586 70.8008 -10.0586 Z M 98.1934 -8.88672 C 87.7441 -8.88672 80.7617 -17.5781 80.7617 -35.2539 C 80.7617 -52.9297 87.7441 -61.6699 98.1934 -61.6699 C 108.594 -61.6699 115.918 -52.9297 115.918 -35.2539 C 115.918 -17.5781 108.594 -8.88672 98.1934 -8.88672 Z M 98.3398 -19.7266 C 102.197 -19.7266 104.59 -24.5117 104.59 -35.2539 C 104.59 -46.0449 102.197 -50.7812 98.3398 -50.7812 C 94.4824 -50.7812 92.0898 -46.0449 92.0898 -35.2539 C 92.0898 -24.5117 94.4824 -19.7266 98.3398 -19.7266 Z"/>
  </g>
  <g id="Bold-L" transform="matrix(1 0 0 1 2262.88 1556)">
   <path d="M 77.0996 30.6152 C 113.232 30.6152 142.92 0.878906 142.92 -35.2051 C 142.92 -71.3379 113.184 -101.025 77.0508 -101.025 C 40.9668 -101.025 11.2793 -71.3379 11.2793 -35.2051 C 11.2793 0.878906 41.0156 30.6152 77.0996 30.6152 Z M 45.9961 -9.47266 C 43.3105 -9.47266 41.3086 -11.2793 41.3086 -14.209 C 41.3086 -15.9668 41.8945 -17.4316 43.4082 -19.1895 L 58.0566 -36.4258 C 61.2305 -40.0879 64.0137 -43.1152 64.0137 -46.7285 C 64.0137 -50.5859 61.1816 -53.2715 56.9336 -53.2715 C 53.0273 -53.2715 50.293 -51.1719 49.1211 -47.2656 C 48.3398 -45.2148 47.1191 -43.8965 44.7754 -43.8965 C 42.1387 -43.8965 40.5273 -45.7031 40.5273 -48.3398 C 40.5273 -49.2676 40.7227 -50.0977 40.918 -50.9766 C 42.5781 -57.6172 49.2676 -62.3047 56.9336 -62.3047 C 66.748 -62.3047 73.0469 -56.3477 73.0957 -47.6074 C 73.1445 -41.5527 70.0195 -36.9629 65.0391 -31.25 L 54.6875 -19.1895 L 54.6875 -18.6523 L 69.9707 -18.6523 C 72.7051 -18.6523 74.5605 -16.9922 74.5605 -14.1602 C 74.5605 -11.2305 72.7051 -9.47266 69.9707 -9.47266 Z M 97.7539 -8.25195 C 87.0117 -8.25195 79.834 -17.6758 79.834 -35.2539 C 79.834 -52.832 87.0117 -62.3047 97.7539 -62.3047 C 108.496 -62.3047 115.869 -52.832 115.869 -35.2539 C 115.869 -17.6758 108.496 -8.25195 97.7539 -8.25195 Z M 97.8516 -17.7734 C 102.783 -17.7734 105.859 -23.7305 105.859 -35.2539 C 105.859 -46.7773 102.783 -52.7832 97.8516 -52.7832 C 92.9688 -52.7832 89.8438 -46.7773 89.8438 -35.2539 C 89.8438 -23.7305 92.9688 -17.7734 97.8516 -17.7734 Z"/>
  </g>
  <g id="Semibold-L" transform="matrix(1 0 0 1 1966.97 1556)">
   <path d="M 76.2695 29.7852 C 111.914 29.7852 141.309 0.439453 141.309 -35.2051 C 141.309 -70.8496 111.865 -100.244 76.2695 -100.244 C 40.625 -100.244 11.2793 -70.8496 11.2793 -35.2051 C 11.2793 0.439453 40.6738 29.7852 76.2695 29.7852 Z M 44.1406 -9.0332 C 41.6504 -9.0332 39.8926 -10.7422 39.8926 -13.3789 C 39.8926 -14.8926 40.3809 -16.2109 41.6992 -17.627 L 57.5684 -36.2793 C 60.8398 -40.1367 63.7207 -43.3594 63.7207 -47.2168 C 63.7207 -51.6113 60.5469 -54.5898 55.7617 -54.5898 C 51.3672 -54.5898 48.2422 -52.1973 46.9727 -47.8027 C 46.2402 -45.8496 45.1172 -44.6289 43.0176 -44.6289 C 40.5762 -44.6289 39.1113 -46.2891 39.1113 -48.7305 C 39.1113 -49.6094 39.2578 -50.3906 39.4531 -51.2207 C 41.0645 -57.9102 47.9004 -62.7441 55.6641 -62.7441 C 65.625 -62.7441 72.0215 -56.8359 72.0703 -47.9492 C 72.0703 -41.8945 68.8965 -37.2559 63.8672 -31.3965 L 52.1973 -17.8711 L 52.1973 -17.3828 L 69.4336 -17.3828 C 71.875 -17.3828 73.5352 -15.8691 73.5352 -13.3301 C 73.5352 -10.6934 71.875 -9.0332 69.4336 -9.0332 Z M 97.4121 -7.76367 C 86.4746 -7.76367 79.1992 -17.7734 79.1992 -35.2539 C 79.1992 -52.7832 86.4746 -62.7441 97.4121 -62.7441 C 108.398 -62.7441 115.869 -52.7832 115.869 -35.2539 C 115.869 -17.7734 108.398 -7.76367 97.4121 -7.76367 Z M 97.5098 -16.4062 C 103.174 -16.4062 106.738 -23.1934 106.738 -35.2539 C 106.738 -47.3145 103.174 -54.1504 97.5098 -54.1504 C 91.8945 -54.1504 88.3301 -47.3145 88.3301 -35.2539 C 88.3301 -23.1934 91.8945 -16.4062 97.5098 -16.4062 Z"/>
  </g>
  <g id="Medium-L" transform="matrix(1 0 0 1 1670.87 1556)">
   <path d="M 75.6836 29.1992 C 110.938 29.1992 140.088 0.0488281 140.088 -35.2051 C 140.088 -70.459 110.889 -99.6094 75.6348 -99.6094 C 40.3809 -99.6094 11.2793 -70.459 11.2793 -35.2051 C 11.2793 0.0488281 40.3809 29.1992 75.6836 29.1992 Z M 42.6758 -8.74023 C 40.3809 -8.74023 38.8184 -10.3027 38.8184 -12.6953 C 38.8184 -14.0625 39.2578 -15.2344 40.3809 -16.5039 L 57.1289 -36.2305 C 60.498 -40.1367 63.4766 -43.5547 63.4766 -47.6074 C 63.4766 -52.3438 60.1074 -55.5664 54.8828 -55.5664 C 50.0488 -55.5664 46.6797 -52.9785 45.3613 -48.1934 C 44.6289 -46.3379 43.6035 -45.166 41.6504 -45.166 C 39.4043 -45.166 37.9883 -46.7285 37.9883 -49.0234 C 37.9883 -49.8535 38.1836 -50.5859 38.3301 -51.416 C 39.9414 -58.1543 46.875 -63.0859 54.7363 -63.0859 C 64.7461 -63.0859 71.2891 -57.2266 71.2891 -48.2422 C 71.2891 -42.0898 68.0176 -37.4512 62.9395 -31.543 L 50.3418 -16.8945 L 50.3418 -16.4551 L 69.043 -16.4551 C 71.1914 -16.4551 72.7539 -15.0391 72.7539 -12.6465 C 72.7539 -10.3027 71.1914 -8.74023 69.043 -8.74023 Z M 97.2168 -7.4707 C 86.084 -7.4707 78.7109 -17.8223 78.7109 -35.2539 C 78.7109 -52.6855 86.084 -63.0859 97.2168 -63.0859 C 108.35 -63.0859 115.82 -52.6855 115.82 -35.2539 C 115.82 -17.8223 108.35 -7.4707 97.2168 -7.4707 Z M 97.2656 -15.332 C 103.516 -15.332 107.373 -22.8027 107.373 -35.2539 C 107.373 -47.7539 103.467 -55.1758 97.2656 -55.1758 C 91.1133 -55.1758 87.1582 -47.7539 87.1582 -35.2539 C 87.1582 -22.8027 91.1133 -15.332 97.2656 -15.332 Z"/>
  </g>
  <g id="Regular-L" transform="matrix(1 0 0 1 1374.97 1556)">
   <path d="M 74.8535 28.3691 C 109.668 28.3691 138.477 -0.390625 138.477 -35.2051 C 138.477 -70.0195 109.619 -98.7793 74.8047 -98.7793 C 40.0391 -98.7793 11.2793 -70.0195 11.2793 -35.2051 C 11.2793 -0.390625 40.0879 28.3691 74.8535 28.3691 Z M 40.8203 -8.34961 C 38.7207 -8.34961 37.4023 -9.7168 37.4023 -11.8652 C 37.4023 -13.0371 37.7441 -14.0137 38.623 -14.9902 L 56.6406 -36.084 C 60.1074 -40.1367 63.1836 -43.7988 63.1836 -48.0957 C 63.1836 -53.3691 59.5215 -56.8359 53.7109 -56.8359 C 48.3887 -56.8359 44.6777 -53.9551 43.2617 -48.7305 C 42.5293 -46.9727 41.6016 -45.8984 39.8926 -45.8984 C 37.8418 -45.8984 36.5723 -47.3145 36.5723 -49.4629 C 36.5723 -50.1465 36.7676 -50.8789 36.9141 -51.6113 C 38.4766 -58.4961 45.5078 -63.5254 53.4668 -63.5254 C 63.623 -63.5254 70.2637 -57.666 70.2637 -48.6328 C 70.2637 -42.4316 66.8945 -37.6953 61.7676 -31.7383 L 47.9004 -15.5762 L 47.9004 -15.1855 L 68.457 -15.1855 C 70.3613 -15.1855 71.7285 -13.916 71.7285 -11.8164 C 71.7285 -9.76562 70.3613 -8.34961 68.457 -8.34961 Z M 96.9238 -6.98242 C 85.5957 -6.98242 78.0762 -17.9199 78.0762 -35.2539 C 78.0762 -52.6367 85.5957 -63.5254 96.9238 -63.5254 C 108.252 -63.5254 115.82 -52.6367 115.82 -35.2539 C 115.82 -17.9199 108.252 -6.98242 96.9238 -6.98242 Z M 96.9238 -14.0137 C 103.906 -14.0137 108.252 -22.2656 108.252 -35.2539 C 108.252 -48.291 103.857 -56.543 96.9238 -56.543 C 90.0391 -56.543 85.5957 -48.291 85.5957 -35.2539 C 85.5957 -22.2656 90.0391 -14.0137 96.9238 -14.0137 Z"/>
  </g>
  <g id="Light-L" transform="matrix(1 0 0 1 1079.18 1556)">
   <path d="M 73.9258 27.4902 C 108.301 27.4902 136.621 -0.830078 136.621 -35.1562 C 136.621 -69.5312 108.252 -97.8516 73.9258 -97.8516 C 39.5508 -97.8516 11.2793 -69.5312 11.2793 -35.1562 C 11.2793 -0.830078 39.5996 27.4902 73.9258 27.4902 Z M 39.9414 -8.44727 C 38.1836 -8.44727 37.0605 -9.57031 37.0605 -11.377 C 37.0605 -12.4023 37.3047 -13.1836 38.0371 -13.9648 L 56.7871 -35.8887 C 60.6445 -40.3809 63.3301 -43.9453 63.3301 -48.291 C 63.3301 -54.0039 59.2773 -57.7637 52.8809 -57.7637 C 46.7773 -57.7637 42.4805 -54.2969 41.4551 -48.6816 C 40.9668 -47.168 40.1367 -46.2402 38.623 -46.2402 C 36.9141 -46.2402 35.8887 -47.4609 35.8887 -49.1699 C 35.8887 -49.8047 36.0352 -50.4395 36.1816 -51.1719 C 37.5488 -58.1543 44.6289 -63.2324 52.6855 -63.2324 C 62.5977 -63.2324 69.1406 -57.4707 69.1406 -48.584 C 69.1406 -42.8223 66.0645 -38.2324 60.5957 -31.8848 L 45.5078 -14.3066 L 45.5078 -14.0137 L 67.9688 -14.0137 C 69.5312 -14.0137 70.6543 -12.9395 70.6543 -11.2793 C 70.6543 -9.61914 69.5312 -8.44727 67.9688 -8.44727 Z M 96.1426 -7.32422 C 84.9121 -7.32422 77.3438 -18.3105 77.3438 -35.2539 C 77.3438 -52.2461 84.9121 -63.2324 96.1426 -63.2324 C 107.373 -63.2324 114.941 -52.2461 114.941 -35.2539 C 114.941 -18.3105 107.373 -7.32422 96.1426 -7.32422 Z M 96.1426 -12.9395 C 103.857 -12.9395 108.936 -21.8262 108.936 -35.2539 C 108.936 -48.7305 103.857 -57.5684 96.1426 -57.5684 C 88.5254 -57.5684 83.3984 -48.7305 83.3984 -35.2539 C 83.3984 -21.8262 88.5254 -12.9395 96.1426 -12.9395 Z"/>
  </g>
  <g id="Thin-L" transform="matrix(1 0 0 1 783.693 1556)">
   <path d="M 72.7051 26.3184 C 106.494 26.3184 134.18 -1.36719 134.18 -35.1074 C 134.18 -68.8965 106.494 -96.582 72.7051 -96.582 C 38.9648 -96.582 11.2793 -68.8965 11.2793 -35.1074 C 11.2793 -1.36719 38.9648 26.3184 72.7051 26.3184 Z M 38.7695 -8.59375 C 37.4512 -8.59375 36.5723 -9.42383 36.5723 -10.7422 C 36.5723 -11.6211 36.7676 -12.0605 37.207 -12.6465 L 57.0312 -35.5957 C 61.4258 -40.6738 63.5254 -44.1895 63.5254 -48.5352 C 63.5254 -54.8828 58.9844 -58.9844 51.709 -58.9844 C 44.6777 -58.9844 39.5508 -54.6875 39.0137 -48.6328 C 38.8672 -47.4121 38.1836 -46.7285 36.9629 -46.7285 C 35.7422 -46.7285 35.0098 -47.6074 35.0098 -48.7793 C 35.0098 -49.3652 35.1074 -49.9023 35.2051 -50.5371 C 36.377 -57.666 43.457 -62.793 51.6602 -62.793 C 61.1816 -62.793 67.5781 -57.2266 67.5781 -48.5352 C 67.5781 -43.4082 64.9902 -38.9648 59.0332 -32.0801 L 42.334 -12.6465 L 42.334 -12.4512 L 67.2852 -12.4512 C 68.4082 -12.4512 69.1895 -11.6699 69.1895 -10.5469 C 69.1895 -9.47266 68.4082 -8.59375 67.2852 -8.59375 Z M 95.1172 -7.71484 C 84.0332 -7.71484 76.416 -18.7988 76.416 -35.2539 C 76.416 -51.709 84.0332 -62.793 95.1172 -62.793 C 106.25 -62.793 113.818 -51.709 113.818 -35.2539 C 113.818 -18.7988 106.25 -7.71484 95.1172 -7.71484 Z M 95.1172 -11.5723 C 103.857 -11.5723 109.814 -21.1914 109.814 -35.2539 C 109.814 -49.3652 103.857 -58.9355 95.1172 -58.9355 C 86.4746 -58.9355 80.4199 -49.3652 80.4199 -35.2539 C 80.4199 -21.1914 86.4746 -11.5723 95.1172 -11.5723 Z"/>
  </g>
  <g id="Ultralight-L" transform="matrix(1 0 0 1 487.616 1556)">
   <path d="M 72.1191 25.7324 C 105.566 25.7324 132.91 -1.61133 132.91 -35.1074 C 132.91 -68.5547 105.566 -95.8984 72.1191 -95.8984 C 38.623 -95.8984 11.2793 -68.5547 11.2793 -35.1074 C 11.2793 -1.61133 38.623 25.7324 72.1191 25.7324 Z M 38.1836 -8.69141 C 37.0605 -8.69141 36.3281 -9.32617 36.3281 -10.4004 C 36.3281 -11.1816 36.4746 -11.5234 36.8164 -11.9141 L 57.1777 -35.4492 C 61.8164 -40.8203 63.5742 -44.3359 63.5742 -48.6816 C 63.5742 -55.3711 58.7891 -59.6191 51.123 -59.6191 C 43.5547 -59.6191 38.0859 -54.9316 37.793 -48.584 C 37.793 -47.5586 37.1582 -46.9727 36.1328 -46.9727 C 35.1074 -46.9727 34.5215 -47.7051 34.5215 -48.6328 C 34.5215 -49.1699 34.6191 -49.6094 34.668 -50.2441 C 35.7422 -57.4219 42.8223 -62.5977 51.1719 -62.5977 C 60.4492 -62.5977 66.7969 -57.0801 66.7969 -48.5352 C 66.7969 -43.7012 64.4043 -39.3066 58.252 -32.1777 L 40.7227 -11.7676 L 40.7227 -11.6211 L 66.9434 -11.6211 C 67.8711 -11.6211 68.4082 -10.9863 68.4082 -10.1562 C 68.4082 -9.42383 67.8711 -8.69141 66.9434 -8.69141 Z M 94.5801 -7.95898 C 83.5938 -7.95898 75.9277 -19.0918 75.9277 -35.2539 C 75.9277 -51.4648 83.5938 -62.5977 94.5801 -62.5977 C 105.664 -62.5977 113.232 -51.4648 113.232 -35.2539 C 113.232 -19.0918 105.664 -7.95898 94.5801 -7.95898 Z M 94.5801 -10.8887 C 103.857 -10.8887 110.254 -20.8984 110.254 -35.2539 C 110.254 -49.6582 103.857 -59.668 94.5801 -59.668 C 85.4004 -59.668 78.9062 -49.6582 78.9062 -35.2539 C 78.9062 -20.8984 85.4004 -10.8887 94.5801 -10.8887 Z"/>
  </g>
  <g id="Black-M" transform="matrix(1 0 0 1 2870.97 1126)">
   <path d="M 62.4023 18.457 C 91.9922 18.457 116.113 -5.61523 116.113 -35.2051 C 116.113 -64.7949 91.9922 -88.8672 62.4023 -88.8672 C 32.8125 -88.8672 8.74023 -64.7949 8.74023 -35.2051 C 8.74023 -5.61523 32.8125 18.457 62.4023 18.457 Z M 42.4805 -16.8945 C 39.6973 -16.8945 37.3535 -18.7988 37.3535 -22.0215 C 37.3535 -24.1211 38.0859 -25.8789 40.0391 -28.125 L 47.168 -36.4746 C 49.4141 -39.0625 50.7812 -40.4785 50.7812 -42.3828 C 50.7812 -43.6035 49.5605 -44.7266 48.1445 -44.7266 C 46.8262 -44.7266 45.7031 -43.7988 45.3125 -42.4805 C 44.8242 -40.6738 43.5059 -39.3066 40.918 -39.3066 C 38.2812 -39.3066 36.5723 -41.1621 36.5723 -43.6523 C 36.5723 -44.6777 36.7188 -45.4102 36.9629 -46.2891 C 38.3301 -51.1719 43.0664 -54.2969 48.584 -54.2969 C 55.6152 -54.2969 59.8633 -49.6582 60.0098 -43.3105 C 60.0586 -39.1602 58.252 -35.8887 54.4434 -31.4941 L 50.6836 -27.1484 L 50.6836 -26.6602 L 56.1035 -26.6602 C 59.2285 -26.6602 61.1816 -24.9023 61.1816 -21.875 C 61.1816 -18.7012 59.2285 -16.8945 56.1035 -16.8945 Z M 76.5137 -16.2109 C 69.043 -16.2109 64.0137 -21.5332 64.0137 -35.2539 C 64.0137 -48.9746 69.043 -54.2969 76.5137 -54.2969 C 83.9355 -54.2969 89.4043 -48.9746 89.4043 -35.2539 C 89.4043 -21.5332 83.9355 -16.2109 76.5137 -16.2109 Z M 76.7578 -26.416 C 78.125 -26.416 79.0039 -28.1738 79.0039 -35.2539 C 79.0039 -42.3828 78.125 -44.0918 76.7578 -44.0918 C 75.3418 -44.0918 74.4141 -42.3828 74.4141 -35.2539 C 74.4141 -28.1738 75.3418 -26.416 76.7578 -26.416 Z"/>
  </g>
  <g id="Heavy-M" transform="matrix(1 0 0 1 2575.19 1126)">
   <path d="M 61.5234 17.5781 C 90.5273 17.5781 114.258 -6.15234 114.258 -35.2051 C 114.258 -64.2578 90.5273 -87.9883 61.4746 -87.9883 C 32.4707 -87.9883 8.74023 -64.2578 8.74023 -35.2051 C 8.74023 -6.15234 32.4707 17.5781 61.5234 17.5781 Z M 40.0391 -16.2598 C 37.4512 -16.2598 35.4004 -18.0664 35.4004 -20.9473 C 35.4004 -22.7539 36.084 -24.3164 37.7441 -26.2695 L 46.3379 -36.3281 C 48.6328 -39.0137 50.3418 -40.7715 50.3418 -43.0176 C 50.3418 -44.873 48.7793 -46.2891 46.7285 -46.2891 C 44.8242 -46.2891 43.4082 -45.166 42.7734 -43.2129 C 42.2363 -41.5039 41.0156 -40.2344 38.7207 -40.2344 C 36.2793 -40.2344 34.7168 -41.9434 34.7168 -44.3359 C 34.7168 -45.2148 34.8633 -45.9473 35.1074 -46.7285 C 36.4258 -51.709 41.3086 -55.0293 47.0215 -55.0293 C 54.248 -55.0293 58.7402 -50.3906 58.8379 -43.8477 C 58.8867 -39.502 56.8359 -36.084 53.0273 -31.7383 L 47.8027 -25.6348 L 47.8027 -25.1953 L 55.4688 -25.1953 C 58.252 -25.1953 60.0098 -23.584 60.0098 -20.8496 C 60.0098 -17.9688 58.252 -16.2598 55.4688 -16.2598 Z M 76.2695 -15.4785 C 68.5059 -15.4785 63.2812 -21.582 63.2812 -35.2539 C 63.2812 -48.9746 68.5059 -55.0293 76.2695 -55.0293 C 84.0332 -55.0293 89.5996 -48.9746 89.5996 -35.2539 C 89.5996 -21.582 84.0332 -15.4785 76.2695 -15.4785 Z M 76.4648 -24.7559 C 78.6621 -24.7559 80.0781 -27.4902 80.0781 -35.2539 C 80.0781 -43.0176 78.6621 -45.752 76.4648 -45.752 C 74.2188 -45.752 72.8027 -43.0176 72.8027 -35.2539 C 72.8027 -27.4902 74.2188 -24.7559 76.4648 -24.7559 Z"/>
  </g>
  <g id="Bold-M" transform="matrix(1 0 0 1 2279.5 1126)">
   <path d="M 60.498 16.5039 C 88.8672 16.5039 112.207 -6.78711 112.207 -35.2051 C 112.207 -63.623 88.8672 -86.9629 60.4492 -86.9629 C 32.0312 -86.9629 8.74023 -63.623 8.74023 -35.2051 C 8.74023 -6.78711 32.0801 16.5039 60.498 16.5039 Z M 37.3047 -15.625 C 35.0098 -15.625 33.252 -17.1875 33.252 -19.7266 C 33.252 -21.2402 33.7891 -22.5586 35.1562 -24.1211 L 45.459 -36.2305 C 47.8027 -39.0137 49.8535 -41.1133 49.8535 -43.7012 C 49.8535 -46.2402 47.9004 -48.0957 45.1172 -48.0957 C 42.627 -48.0957 40.7715 -46.6797 39.9414 -44.0918 C 39.3555 -42.4316 38.2812 -41.3086 36.2793 -41.3086 C 34.0332 -41.3086 32.666 -42.8223 32.666 -45.0195 C 32.666 -45.8496 32.8125 -46.5332 33.0078 -47.2656 C 34.3262 -52.2949 39.4043 -55.8105 45.2148 -55.8105 C 52.7344 -55.8105 57.5195 -51.1719 57.5684 -44.4824 C 57.6172 -39.8438 55.2734 -36.377 51.4648 -31.9824 L 44.5801 -23.9746 L 44.5801 -23.5352 L 54.7363 -23.5352 C 57.1289 -23.5352 58.6914 -22.0703 58.6914 -19.6289 C 58.6914 -17.1387 57.1289 -15.625 54.7363 -15.625 Z M 76.0254 -14.6973 C 67.8711 -14.6973 62.4512 -21.582 62.4512 -35.2539 C 62.4512 -48.9746 67.8711 -55.8105 76.0254 -55.8105 C 84.1797 -55.8105 89.8438 -48.9746 89.8438 -35.2539 C 89.8438 -21.582 84.1797 -14.6973 76.0254 -14.6973 Z M 76.1719 -22.9004 C 79.2969 -22.9004 81.25 -26.8066 81.25 -35.2539 C 81.25 -43.7012 79.2969 -47.6074 76.1719 -47.6074 C 72.998 -47.6074 71.0449 -43.7012 71.0449 -35.2539 C 71.0449 -26.8066 72.998 -22.9004 76.1719 -22.9004 Z"/>
  </g>
  <g id="Semibold-M" transform="matrix(1 0 0 1 1983.5 1126)">
   <path d="M 59.7656 15.8203 C 87.7441 15.8203 110.791 -7.22656 110.791 -35.2051 C 110.791 -63.1836 87.6953 -86.2793 59.7656 -86.2793 C 31.7871 -86.2793 8.74023 -63.1836 8.74023 -35.2051 C 8.74023 -7.22656 31.7871 15.8203 59.7656 15.8203 Z M 35.4492 -15.1367 C 33.3008 -15.1367 31.7871 -16.6016 31.7871 -18.8477 C 31.7871 -20.166 32.2266 -21.3379 33.3984 -22.6562 L 44.873 -36.1816 C 47.2656 -38.9648 49.5117 -41.3574 49.5117 -44.1895 C 49.5117 -47.2168 47.3145 -49.3164 44.043 -49.3164 C 41.0645 -49.3164 39.0137 -47.7539 37.9883 -44.6777 C 37.3535 -43.0664 36.377 -42.041 34.5703 -42.041 C 32.5195 -42.041 31.25 -43.457 31.25 -45.5078 C 31.25 -46.2402 31.3965 -46.9238 31.543 -47.6074 C 32.8613 -52.7344 38.0859 -56.3965 44.043 -56.3965 C 51.709 -56.3965 56.6406 -51.7578 56.6895 -44.9219 C 56.6895 -40.1367 54.1992 -36.5234 50.3906 -32.1289 L 42.334 -22.8027 L 42.334 -22.3633 L 54.248 -22.3633 C 56.3477 -22.3633 57.8125 -21.0449 57.8125 -18.8477 C 57.8125 -16.5527 56.3477 -15.1367 54.248 -15.1367 Z M 75.8301 -14.1602 C 67.4805 -14.1602 61.8652 -21.582 61.8652 -35.2539 C 61.8652 -48.9258 67.4805 -56.3965 75.8301 -56.3965 C 84.2285 -56.3965 89.9902 -48.9258 89.9902 -35.2539 C 89.9902 -21.582 84.2285 -14.1602 75.8301 -14.1602 Z M 75.9277 -21.6309 C 79.7363 -21.6309 82.0801 -26.3184 82.0801 -35.2539 C 82.0801 -44.1895 79.7363 -48.9258 75.9277 -48.9258 C 72.168 -48.9258 69.7754 -44.1895 69.7754 -35.2539 C 69.7754 -26.3184 72.168 -21.6309 75.9277 -21.6309 Z"/>
  </g>
  <g id="Medium-M" transform="matrix(1 0 0 1 1687.3 1126)">
   <path d="M 59.2285 15.2832 C 86.9141 15.2832 109.766 -7.56836 109.766 -35.2051 C 109.766 -62.8906 86.8652 -85.7422 59.1797 -85.7422 C 31.543 -85.7422 8.74023 -62.8906 8.74023 -35.2051 C 8.74023 -7.56836 31.5918 15.2832 59.2285 15.2832 Z M 34.0332 -14.7949 C 32.0312 -14.7949 30.6641 -16.1133 30.6641 -18.2129 C 30.6641 -19.3848 31.0547 -20.459 32.0312 -21.582 L 44.3848 -36.1328 C 46.8262 -38.9648 49.2676 -41.5039 49.2676 -44.5801 C 49.2676 -47.9492 46.875 -50.2441 43.2129 -50.2441 C 39.9414 -50.2441 37.6465 -48.5352 36.5234 -45.1172 C 35.8398 -43.5547 34.9609 -42.5781 33.3008 -42.5781 C 31.3477 -42.5781 30.1758 -43.8965 30.1758 -45.8984 C 30.1758 -46.582 30.3223 -47.2168 30.4688 -47.8516 C 31.7871 -53.0273 37.0605 -56.7871 43.1152 -56.7871 C 50.9277 -56.7871 56.0059 -52.1973 56.0059 -45.2148 C 56.0059 -40.2832 53.3691 -36.6699 49.5605 -32.2754 L 40.6738 -21.875 L 40.6738 -21.4844 L 53.8574 -21.4844 C 55.7617 -21.4844 57.1289 -20.3125 57.1289 -18.2129 C 57.1289 -16.1133 55.7617 -14.7949 53.8574 -14.7949 Z M 75.7324 -13.7207 C 67.1387 -13.7207 61.4746 -21.582 61.4746 -35.2539 C 61.4746 -48.9258 67.1387 -56.7871 75.7324 -56.7871 C 84.3262 -56.7871 90.0879 -48.9258 90.0879 -35.2539 C 90.0879 -21.582 84.3262 -13.7207 75.7324 -13.7207 Z M 75.7812 -20.6543 C 80.0781 -20.6543 82.7148 -25.9277 82.7148 -35.2539 C 82.7148 -44.5801 80.0293 -49.9023 75.7812 -49.9023 C 71.5332 -49.9023 68.8477 -44.5801 68.8477 -35.2539 C 68.8477 -25.9277 71.5332 -20.6543 75.7812 -20.6543 Z"/>
  </g>
  <g id="Regular-M" transform="matrix(1 0 0 1 1391.3 1126)">
   <path d="M 58.5449 14.5508 C 85.791 14.5508 108.35 -8.00781 108.35 -35.2539 C 108.35 -62.4512 85.7422 -85.0586 58.4961 -85.0586 C 31.2988 -85.0586 8.74023 -62.4512 8.74023 -35.2539 C 8.74023 -8.00781 31.3477 14.5508 58.5449 14.5508 Z M 32.1289 -14.3555 C 30.3223 -14.3555 29.1992 -15.5273 29.1992 -17.3828 C 29.1992 -18.3594 29.4922 -19.2383 30.2734 -20.1172 L 43.7988 -36.0352 C 46.2402 -38.916 48.9258 -41.748 48.9258 -45.0684 C 48.9258 -48.877 46.2891 -51.4648 42.1387 -51.4648 C 38.4277 -51.4648 35.8398 -49.5605 34.5703 -45.7031 C 33.8867 -44.1895 33.1055 -43.3105 31.6406 -43.3105 C 29.834 -43.3105 28.7598 -44.5312 28.7598 -46.3867 C 28.7598 -46.9727 28.9062 -47.6074 29.0039 -48.1934 C 30.3223 -53.4668 35.7422 -57.3242 41.8945 -57.3242 C 49.9023 -57.3242 55.127 -52.7344 55.127 -45.6543 C 55.127 -40.5762 52.3438 -36.8164 48.5352 -32.4219 L 38.4766 -20.752 L 38.4766 -20.3613 L 53.3691 -20.3613 C 54.9805 -20.3613 56.25 -19.2871 56.25 -17.3828 C 56.25 -15.5273 54.9805 -14.3555 53.3691 -14.3555 Z M 75.5371 -13.1836 C 66.6992 -13.1836 60.8887 -21.582 60.8887 -35.2539 C 60.8887 -48.9258 66.6992 -57.3242 75.5371 -57.3242 C 84.375 -57.3242 90.2344 -48.9258 90.2344 -35.2539 C 90.2344 -21.582 84.375 -13.1836 75.5371 -13.1836 Z M 75.5371 -19.3359 C 80.5176 -19.3359 83.4961 -25.4395 83.4961 -35.2539 C 83.4961 -45.0684 80.4688 -51.1719 75.5371 -51.1719 C 70.6543 -51.1719 67.627 -45.0684 67.627 -35.2539 C 67.627 -25.4395 70.6543 -19.3359 75.5371 -19.3359 Z"/>
  </g>
  <g id="Light-M" transform="matrix(1 0 0 1 1095.42 1126)">
   <path d="M 57.7148 13.7695 C 84.5215 13.7695 106.689 -8.39844 106.689 -35.2051 C 106.689 -62.0117 84.5215 -84.1797 57.666 -84.1797 C 30.8594 -84.1797 8.74023 -62.0117 8.74023 -35.2051 C 8.74023 -8.39844 30.9082 13.7695 57.7148 13.7695 Z M 31.3477 -14.4531 C 29.834 -14.4531 28.8574 -15.4297 28.8574 -16.9434 C 28.8574 -17.8223 29.1016 -18.5059 29.7363 -19.1895 L 43.9453 -35.8398 C 46.7773 -39.1113 49.0234 -41.8945 49.0234 -45.2637 C 49.0234 -49.5117 46.0449 -52.2949 41.3574 -52.2949 C 36.9629 -52.2949 33.8867 -49.8535 32.9102 -45.6543 C 32.4707 -44.3848 31.7383 -43.6035 30.5176 -43.6035 C 29.0039 -43.6035 28.125 -44.6289 28.125 -46.1426 C 28.125 -46.6797 28.2715 -47.2168 28.3691 -47.8027 C 29.4922 -53.125 34.9609 -57.0801 41.2109 -57.0801 C 48.9746 -57.0801 54.1016 -52.5879 54.1016 -45.6055 C 54.1016 -40.918 51.5625 -37.3047 47.4609 -32.5684 L 36.3281 -19.5801 L 36.3281 -19.3359 L 52.8809 -19.3359 C 54.248 -19.3359 55.2246 -18.4082 55.2246 -16.8945 C 55.2246 -15.4297 54.248 -14.4531 52.8809 -14.4531 Z M 74.8535 -13.4766 C 66.1133 -13.4766 60.2539 -21.9238 60.2539 -35.2539 C 60.2539 -48.584 66.1133 -57.0801 74.8535 -57.0801 C 83.5938 -57.0801 89.4531 -48.584 89.4531 -35.2539 C 89.4531 -21.9238 83.5938 -13.4766 74.8535 -13.4766 Z M 74.8535 -18.4082 C 80.5176 -18.4082 84.1309 -25.0488 84.1309 -35.2539 C 84.1309 -45.5078 80.4688 -52.0996 74.8535 -52.0996 C 69.2871 -52.0996 65.625 -45.5078 65.625 -35.2539 C 65.625 -25.0488 69.2871 -18.4082 74.8535 -18.4082 Z"/>
  </g>
  <g id="Thin-M" transform="matrix(1 0 0 1 799.806 1126)">
   <path d="M 56.6406 12.7441 C 82.9102 12.7441 104.492 -8.83789 104.492 -35.1562 C 104.492 -61.4746 82.9102 -83.0566 56.5918 -83.0566 C 30.3223 -83.0566 8.74023 -61.4746 8.74023 -35.1562 C 8.74023 -8.83789 30.3223 12.7441 56.6406 12.7441 Z M 30.3223 -14.5508 C 29.1992 -14.5508 28.4668 -15.2832 28.4668 -16.4062 C 28.4668 -17.0898 28.6133 -17.5293 29.0039 -18.0176 L 44.1406 -35.5957 C 47.4121 -39.3555 49.1699 -42.1387 49.1699 -45.5078 C 49.1699 -50.293 45.752 -53.3691 40.332 -53.3691 C 35.0586 -53.3691 31.2988 -50.2441 30.7617 -45.6055 C 30.5664 -44.6289 30.0293 -44.043 29.0039 -44.043 C 27.9297 -44.043 27.3438 -44.7754 27.3438 -45.8008 C 27.3438 -46.2891 27.3926 -46.7285 27.4902 -47.2168 C 28.418 -52.7344 33.9355 -56.6895 40.2832 -56.6895 C 47.7051 -56.6895 52.6855 -52.3438 52.6855 -45.5566 C 52.6855 -41.4551 50.5859 -37.9395 46.0938 -32.7637 L 33.4961 -18.0664 L 33.4961 -17.9199 L 52.2949 -17.9199 C 53.2715 -17.9199 53.9062 -17.2363 53.9062 -16.2598 C 53.9062 -15.332 53.2715 -14.5508 52.2949 -14.5508 Z M 73.9258 -13.8184 C 65.332 -13.8184 59.4238 -22.4121 59.4238 -35.2539 C 59.4238 -48.1445 65.332 -56.6895 73.9258 -56.6895 C 82.5684 -56.6895 88.4277 -48.1445 88.4277 -35.2539 C 88.4277 -22.4121 82.5684 -13.8184 73.9258 -13.8184 Z M 73.9258 -17.1875 C 80.4688 -17.1875 84.9121 -24.4629 84.9121 -35.2539 C 84.9121 -46.0449 80.4688 -53.3203 73.9258 -53.3203 C 67.4316 -53.3203 62.9395 -46.0449 62.9395 -35.2539 C 62.9395 -24.4629 67.4316 -17.1875 73.9258 -17.1875 Z"/>
  </g>
  <g id="Ultralight-M" transform="matrix(1 0 0 1 503.656 1126)">
   <path d="M 56.0547 12.207 C 82.0801 12.207 103.369 -9.08203 103.369 -35.1562 C 103.369 -61.1816 82.0801 -82.4707 56.0547 -82.4707 C 30.0293 -82.4707 8.74023 -61.1816 8.74023 -35.1562 C 8.74023 -9.08203 30.0293 12.207 56.0547 12.207 Z M 29.7852 -14.6484 C 28.8574 -14.6484 28.2227 -15.1855 28.2227 -16.1133 C 28.2227 -16.6992 28.3691 -17.041 28.6621 -17.3828 L 44.2871 -35.4492 C 47.8027 -39.502 49.2676 -42.2363 49.2676 -45.6055 C 49.2676 -50.6836 45.6055 -53.9551 39.7949 -53.9551 C 34.082 -53.9551 29.9316 -50.4395 29.6387 -45.6055 C 29.5898 -44.7266 29.1016 -44.2383 28.2715 -44.2383 C 27.3926 -44.2383 26.9043 -44.873 26.9043 -45.6543 C 26.9043 -46.0938 26.9531 -46.4355 27.0508 -46.9727 C 27.8809 -52.4902 33.3984 -56.4941 39.7949 -56.4941 C 47.0703 -56.4941 52.002 -52.1973 52.002 -45.5566 C 52.002 -41.6992 50.0977 -38.2812 45.4102 -32.8613 L 32.0801 -17.334 L 32.0801 -17.1875 L 51.9531 -17.1875 C 52.7832 -17.1875 53.2715 -16.6504 53.2715 -15.918 C 53.2715 -15.2344 52.7832 -14.6484 51.9531 -14.6484 Z M 73.4375 -14.0137 C 64.9414 -14.0137 58.9844 -22.6074 58.9844 -35.2539 C 58.9844 -47.9004 64.9414 -56.4941 73.4375 -56.4941 C 82.0312 -56.4941 87.8906 -47.9004 87.8906 -35.2539 C 87.8906 -22.6074 82.0312 -14.0137 73.4375 -14.0137 Z M 73.4375 -16.5527 C 80.4688 -16.5527 85.3027 -24.2188 85.3027 -35.2539 C 85.3027 -46.3379 80.4688 -53.9551 73.4375 -53.9551 C 66.5039 -53.9551 61.6211 -46.3379 61.6211 -35.2539 C 61.6211 -24.2188 66.5039 -16.5527 73.4375 -16.5527 Z"/>
  </g>
  <g id="Black-S" transform="matrix(1 0 0 1 2884.57 696)">
   <path d="M 48.8281 6.78711 C 71.9727 6.78711 90.8203 -12.0605 90.8203 -35.2051 C 90.8203 -58.3496 71.9727 -77.1973 48.8281 -77.1973 C 25.6836 -77.1973 6.83594 -58.3496 6.83594 -35.2051 C 6.83594 -12.0605 25.6836 6.78711 48.8281 6.78711 Z M 33.1055 -20.8008 C 30.9082 -20.8008 29.1016 -22.3145 29.1016 -24.8047 C 29.1016 -26.416 29.6875 -27.7832 31.2012 -29.541 L 36.8652 -36.1816 C 38.623 -38.2324 39.7461 -39.3555 39.7461 -40.8691 C 39.7461 -41.8945 38.7695 -42.7734 37.5977 -42.7734 C 36.5234 -42.7734 35.6445 -42.041 35.3027 -40.9668 C 34.9121 -39.5508 33.8867 -38.4766 31.8848 -38.4766 C 29.834 -38.4766 28.5156 -39.9414 28.5156 -41.8945 C 28.5156 -42.6758 28.6133 -43.2617 28.8086 -43.9453 C 29.8828 -47.7539 33.5938 -50.2441 37.9395 -50.2441 C 43.457 -50.2441 46.8262 -46.582 46.9238 -41.6016 C 46.9727 -38.3301 45.5078 -35.7422 42.5293 -32.3242 L 39.502 -28.8086 L 39.502 -28.418 L 43.8965 -28.418 C 46.3379 -28.418 47.8516 -27.0508 47.8516 -24.707 C 47.8516 -22.2168 46.3379 -20.8008 43.8965 -20.8008 Z M 59.9121 -20.2637 C 54.0527 -20.2637 50.0977 -24.5117 50.0977 -35.2539 C 50.0977 -45.9961 54.0527 -50.2441 59.9121 -50.2441 C 65.7715 -50.2441 70.0684 -45.9961 70.0684 -35.2539 C 70.0684 -24.5117 65.7715 -20.2637 59.9121 -20.2637 Z M 60.1074 -28.2227 C 61.2305 -28.2227 61.9629 -29.6387 61.9629 -35.2539 C 61.9629 -40.8691 61.2305 -42.2852 60.1074 -42.2852 C 58.9355 -42.2852 58.2031 -40.8691 58.2031 -35.2539 C 58.2031 -29.6387 58.9355 -28.2227 60.1074 -28.2227 Z"/>
  </g>
  <g id="Heavy-S" transform="matrix(1 0 0 1 2588.47 696)">
   <path d="M 48.2422 6.15234 C 70.9961 6.15234 89.5996 -12.4512 89.5996 -35.2051 C 89.5996 -57.959 70.9961 -76.6113 48.1934 -76.6113 C 25.4395 -76.6113 6.83594 -57.959 6.83594 -35.2051 C 6.83594 -12.4512 25.4395 6.15234 48.2422 6.15234 Z M 31.3477 -20.3125 C 29.2969 -20.3125 27.6855 -21.7285 27.6855 -24.0234 C 27.6855 -25.4395 28.1738 -26.6602 29.4922 -28.1738 L 36.2305 -36.1328 C 37.9883 -38.1836 39.4043 -39.5508 39.4043 -41.3574 C 39.4043 -42.7734 38.1836 -43.8965 36.6211 -43.8965 C 35.1562 -43.8965 34.082 -43.0664 33.5449 -41.5527 C 33.1055 -40.1855 32.1777 -39.1602 30.3223 -39.1602 C 28.418 -39.1602 27.1484 -40.5273 27.1484 -42.4316 C 27.1484 -43.1152 27.2949 -43.7012 27.4414 -44.3359 C 28.5156 -48.1934 32.373 -50.8301 36.8164 -50.8301 C 42.5293 -50.8301 46.0938 -47.168 46.1426 -42.041 C 46.1914 -38.5254 44.5312 -35.8398 41.6016 -32.4707 L 37.5488 -27.7832 L 37.5488 -27.3926 L 43.457 -27.3926 C 45.6543 -27.3926 47.0703 -26.123 47.0703 -23.9746 C 47.0703 -21.6797 45.6543 -20.3125 43.457 -20.3125 Z M 59.8145 -19.6777 C 53.7109 -19.6777 49.6094 -24.4629 49.6094 -35.2539 C 49.6094 -46.0449 53.7109 -50.8301 59.8145 -50.8301 C 65.918 -50.8301 70.3125 -46.0449 70.3125 -35.2539 C 70.3125 -24.4629 65.918 -19.6777 59.8145 -19.6777 Z M 59.9609 -27.0508 C 61.6699 -27.0508 62.6953 -29.1992 62.6953 -35.2539 C 62.6953 -41.3086 61.6699 -43.457 59.9609 -43.457 C 58.252 -43.457 57.1777 -41.3086 57.1777 -35.2539 C 57.1777 -29.1992 58.252 -27.0508 59.9609 -27.0508 Z"/>
  </g>
  <g id="Bold-S" transform="matrix(1 0 0 1 2292.44 696)">
   <path d="M 47.5586 5.46875 C 69.873 5.46875 88.2324 -12.8906 88.2324 -35.2051 C 88.2324 -57.5684 69.873 -75.9277 47.5098 -75.9277 C 25.1953 -75.9277 6.83594 -57.5684 6.83594 -35.2051 C 6.83594 -12.8906 25.1953 5.46875 47.5586 5.46875 Z M 29.3457 -19.8242 C 27.4414 -19.8242 26.0742 -21.0938 26.0742 -23.1445 C 26.0742 -24.3652 26.4648 -25.4395 27.5879 -26.709 L 35.5469 -36.084 C 37.3047 -38.1348 39.0137 -39.7949 39.0137 -41.8457 C 39.0137 -43.75 37.5488 -45.166 35.498 -45.166 C 33.6426 -45.166 32.3242 -44.1895 31.5918 -42.1875 C 31.0547 -40.8691 30.2246 -39.9414 28.6133 -39.9414 C 26.8066 -39.9414 25.6836 -41.2109 25.6836 -43.0176 C 25.6836 -43.6523 25.7812 -44.1895 25.9277 -44.7754 C 27.002 -48.7305 31.0059 -51.4648 35.5469 -51.4648 C 41.5039 -51.4648 45.2637 -47.8027 45.3125 -42.4805 C 45.3125 -38.7695 43.4082 -35.9863 40.5273 -32.666 L 35.3516 -26.6113 L 35.3516 -26.2695 L 42.9688 -26.2695 C 44.873 -26.2695 46.1914 -25.0977 46.1914 -23.0957 C 46.1914 -21.0449 44.873 -19.8242 42.9688 -19.8242 Z M 59.7168 -19.043 C 53.3203 -19.043 49.0723 -24.4629 49.0723 -35.2539 C 49.0723 -46.0449 53.3203 -51.4648 59.7168 -51.4648 C 66.1133 -51.4648 70.5566 -46.0449 70.5566 -35.2539 C 70.5566 -24.4629 66.1133 -19.043 59.7168 -19.043 Z M 59.8145 -25.7324 C 62.1582 -25.7324 63.5254 -28.7109 63.5254 -35.2539 C 63.5254 -41.7969 62.1582 -44.7754 59.8145 -44.7754 C 57.4707 -44.7754 56.0547 -41.7969 56.0547 -35.2539 C 56.0547 -28.7109 57.4707 -25.7324 59.8145 -25.7324 Z"/>
  </g>
  <g id="Semibold-S" transform="matrix(1 0 0 1 1996.2 696)">
   <path d="M 47.0703 4.98047 C 69.0918 4.98047 87.3047 -13.1836 87.3047 -35.2539 C 87.3047 -57.2754 69.0918 -75.4883 47.0215 -75.4883 C 25 -75.4883 6.83594 -57.2754 6.83594 -35.2539 C 6.83594 -13.1836 25.0488 4.98047 47.0703 4.98047 Z M 27.9785 -19.4336 C 26.1719 -19.4336 24.9512 -20.6543 24.9512 -22.5098 C 24.9512 -23.584 25.3418 -24.5605 26.2695 -25.6348 L 35.0586 -36.0352 C 36.8164 -38.0859 38.7207 -39.9902 38.7207 -42.2363 C 38.7207 -44.4336 37.1094 -46.0449 34.7168 -46.0449 C 32.6172 -46.0449 31.1523 -44.9707 30.2246 -42.6758 C 29.6875 -41.3574 28.9062 -40.4785 27.3926 -40.4785 C 25.6836 -40.4785 24.6094 -41.6504 24.6094 -43.4082 C 24.6094 -43.9941 24.7559 -44.5312 24.8535 -45.0684 C 25.9766 -49.0723 30.0293 -51.9043 34.668 -51.9043 C 40.7715 -51.9043 44.6777 -48.2422 44.7266 -42.8223 C 44.7266 -38.916 42.6758 -36.084 39.7949 -32.7637 L 33.8379 -25.8301 L 33.8379 -25.4883 L 42.627 -25.4883 C 44.3848 -25.4883 45.6055 -24.4141 45.6055 -22.5098 C 45.6055 -20.6055 44.3848 -19.4336 42.627 -19.4336 Z M 59.6191 -18.6035 C 53.0273 -18.6035 48.6816 -24.4141 48.6816 -35.2539 C 48.6816 -46.0938 53.0273 -51.9043 59.6191 -51.9043 C 66.2598 -51.9043 70.752 -46.0938 70.752 -35.2539 C 70.752 -24.4141 66.2598 -18.6035 59.6191 -18.6035 Z M 59.7168 -24.8047 C 62.5 -24.8047 64.1113 -28.3691 64.1113 -35.2539 C 64.1113 -42.1387 62.4512 -45.7031 59.7168 -45.7031 C 56.9336 -45.7031 55.2734 -42.1387 55.2734 -35.2539 C 55.2734 -28.3691 56.9336 -24.8047 59.7168 -24.8047 Z"/>
  </g>
  <g id="Medium-S" transform="matrix(1 0 0 1 1699.83 696)">
   <path d="M 46.7285 4.63867 C 68.5547 4.63867 86.6211 -13.4277 86.6211 -35.2539 C 86.6211 -57.0312 68.5059 -75.1465 46.6797 -75.1465 C 24.8535 -75.1465 6.83594 -57.0312 6.83594 -35.2539 C 6.83594 -13.4277 24.9023 4.63867 46.7285 4.63867 Z M 26.9043 -19.1895 C 25.2441 -19.1895 24.1211 -20.3125 24.1211 -22.0703 C 24.1211 -23.0469 24.4141 -23.9258 25.293 -24.8535 L 34.668 -35.9863 C 36.4258 -38.0371 38.5254 -40.0879 38.5254 -42.4805 C 38.5254 -44.9707 36.7676 -46.6797 34.1309 -46.6797 C 31.8359 -46.6797 30.2246 -45.5566 29.1992 -43.0176 C 28.6133 -41.6992 27.8809 -40.8691 26.5137 -40.8691 C 24.8535 -40.8691 23.8281 -41.9922 23.8281 -43.7012 C 23.8281 -44.2383 23.9746 -44.7754 24.0723 -45.3125 C 25.1953 -49.3164 29.3457 -52.2461 33.9844 -52.2461 C 40.2344 -52.2461 44.2383 -48.584 44.2871 -43.0664 C 44.2871 -39.0625 42.0898 -36.1816 39.2578 -32.8613 L 32.666 -25.2441 L 32.666 -24.9023 L 42.334 -24.9023 C 43.9453 -24.9023 45.1172 -23.877 45.1172 -22.0703 C 45.1172 -20.2637 43.9453 -19.1895 42.334 -19.1895 Z M 59.5703 -18.2617 C 52.832 -18.2617 48.3887 -24.4141 48.3887 -35.2539 C 48.3887 -46.0938 52.832 -52.2461 59.5703 -52.2461 C 66.3574 -52.2461 70.8984 -46.0938 70.8984 -35.2539 C 70.8984 -24.4141 66.3574 -18.2617 59.5703 -18.2617 Z M 59.6191 -24.1211 C 62.7441 -24.1211 64.5508 -28.125 64.5508 -35.2539 C 64.5508 -42.3828 62.6953 -46.3867 59.6191 -46.3867 C 56.543 -46.3867 54.6875 -42.3828 54.6875 -35.2539 C 54.6875 -28.125 56.543 -24.1211 59.6191 -24.1211 Z"/>
  </g>
  <g id="Regular-S" transform="matrix(1 0 0 1 1403.58 696)">
   <path d="M 46.2402 4.15039 C 67.7734 4.15039 85.6934 -13.7207 85.6934 -35.2539 C 85.6934 -56.7871 67.7246 -74.6582 46.1914 -74.6582 C 24.707 -74.6582 6.83594 -56.7871 6.83594 -35.2539 C 6.83594 -13.7207 24.7559 4.15039 46.2402 4.15039 Z M 25.5371 -18.7988 C 23.9746 -18.7988 22.998 -19.873 22.998 -21.4844 C 22.998 -22.2656 23.291 -23.0957 23.9746 -23.8281 L 34.2285 -35.9375 C 35.9863 -38.0371 38.2324 -40.2832 38.2324 -42.8711 C 38.2324 -45.6543 36.3281 -47.5586 33.3984 -47.5586 C 30.7617 -47.5586 29.0527 -46.3379 27.8809 -43.457 C 27.1973 -42.1875 26.5625 -41.4062 25.293 -41.4062 C 23.7305 -41.4062 22.8027 -42.4316 22.8027 -44.0918 C 22.8027 -44.5801 22.9492 -45.1172 23.0469 -45.6055 C 24.1211 -49.6582 28.3691 -52.6855 33.1543 -52.6855 C 39.5508 -52.6855 43.7012 -49.0234 43.7012 -43.4082 C 43.7012 -39.209 41.3574 -36.2793 38.5254 -32.959 L 31.1523 -24.4141 L 31.1523 -24.1211 L 42.041 -24.1211 C 43.457 -24.1211 44.5312 -23.1445 44.5312 -21.4844 C 44.5312 -19.873 43.457 -18.7988 42.041 -18.7988 Z M 59.5215 -17.8223 C 52.5391 -17.8223 47.998 -24.3652 47.998 -35.2539 C 47.998 -46.1426 52.5391 -52.6855 59.5215 -52.6855 C 66.5039 -52.6855 71.0938 -46.1426 71.0938 -35.2539 C 71.0938 -24.3652 66.5039 -17.8223 59.5215 -17.8223 Z M 59.5215 -23.2422 C 63.0859 -23.2422 65.1367 -27.7832 65.1367 -35.2539 C 65.1367 -42.7246 63.0371 -47.2656 59.5215 -47.2656 C 56.0547 -47.2656 53.9551 -42.7246 53.9551 -35.2539 C 53.9551 -27.7832 56.0547 -23.2422 59.5215 -23.2422 Z"/>
  </g>
  <g id="Light-S" transform="matrix(1 0 0 1 1107.6 696)">
   <path d="M 45.5078 3.4668 C 66.6992 3.4668 84.2285 -14.0625 84.2285 -35.2051 C 84.2285 -56.3965 66.6504 -73.9258 45.5078 -73.9258 C 24.3164 -73.9258 6.83594 -56.3965 6.83594 -35.2051 C 6.83594 -14.0625 24.3652 3.4668 45.5078 3.4668 Z M 24.8535 -18.8965 C 23.5352 -18.8965 22.7051 -19.7754 22.7051 -21.0938 C 22.7051 -21.7773 22.9492 -22.4121 23.4863 -23.0469 L 34.375 -35.791 C 36.4258 -38.1836 38.3301 -40.4297 38.3301 -43.0176 C 38.3301 -46.1914 36.1328 -48.291 32.666 -48.291 C 29.4922 -48.291 27.2949 -46.582 26.416 -43.4082 C 25.9766 -42.334 25.3906 -41.6992 24.3164 -41.6992 C 23.0469 -41.6992 22.2656 -42.5293 22.2656 -43.8965 C 22.2656 -44.3359 22.3633 -44.7754 22.4609 -45.2148 C 23.4375 -49.3652 27.6855 -52.4414 32.5195 -52.4414 C 38.7207 -52.4414 42.7734 -48.877 42.7734 -43.3594 C 42.7734 -39.5508 40.6738 -36.6699 37.5977 -33.1055 L 29.248 -23.4375 L 29.248 -23.1445 L 41.6016 -23.1445 C 42.7734 -23.1445 43.6523 -22.3633 43.6523 -21.0449 C 43.6523 -19.7754 42.7734 -18.8965 41.6016 -18.8965 Z M 58.8867 -18.0664 C 52.002 -18.0664 47.4609 -24.6582 47.4609 -35.2539 C 47.4609 -45.8496 52.002 -52.4414 58.8867 -52.4414 C 65.7715 -52.4414 70.3613 -45.8496 70.3613 -35.2539 C 70.3613 -24.6582 65.7715 -18.0664 58.8867 -18.0664 Z M 58.8867 -22.4121 C 63.0859 -22.4121 65.6738 -27.3926 65.6738 -35.2539 C 65.6738 -43.1152 63.0371 -48.0957 58.8867 -48.0957 C 54.7852 -48.0957 52.1484 -43.1152 52.1484 -35.2539 C 52.1484 -27.3926 54.7852 -22.4121 58.8867 -22.4121 Z"/>
  </g>
  <g id="Thin-S" transform="matrix(1 0 0 1 811.867 696)">
   <path d="M 44.5801 2.53906 C 65.2832 2.53906 82.2754 -14.4531 82.2754 -35.2051 C 82.2754 -55.9082 65.2344 -72.9004 44.5312 -72.9004 C 23.8281 -72.9004 6.83594 -55.9082 6.83594 -35.2051 C 6.83594 -14.4531 23.877 2.53906 44.5801 2.53906 Z M 23.9258 -18.9941 C 22.998 -18.9941 22.3633 -19.6289 22.3633 -20.6055 C 22.3633 -21.1426 22.5098 -21.5332 22.8516 -21.9727 L 34.5215 -35.5469 C 37.0117 -38.4277 38.4766 -40.5762 38.4766 -43.2129 C 38.4766 -46.875 35.8887 -49.2188 31.7871 -49.2188 C 27.832 -49.2188 25 -46.9238 24.5117 -43.4082 C 24.3164 -42.5293 23.8281 -42.041 22.998 -42.041 C 22.0703 -42.041 21.5332 -42.6758 21.5332 -43.6035 C 21.5332 -43.9941 21.6309 -44.3359 21.6797 -44.7266 C 22.4609 -49.0234 26.7578 -52.0996 31.7383 -52.0996 C 37.5977 -52.0996 41.5527 -48.6816 41.5527 -43.3594 C 41.5527 -39.9902 39.7949 -37.2559 36.377 -33.252 L 26.7578 -22.0703 L 26.7578 -21.9238 L 41.0645 -21.9238 C 41.8945 -21.9238 42.4805 -21.3379 42.4805 -20.5078 C 42.4805 -19.6777 41.8945 -18.9941 41.0645 -18.9941 Z M 58.1055 -18.4082 C 51.3184 -18.4082 46.7285 -25.0977 46.7285 -35.2539 C 46.7285 -45.4102 51.3184 -52.0996 58.1055 -52.0996 C 64.8926 -52.0996 69.4824 -45.4102 69.4824 -35.2539 C 69.4824 -25.0977 64.8926 -18.4082 58.1055 -18.4082 Z M 58.1055 -21.3379 C 63.0371 -21.3379 66.3574 -26.9043 66.3574 -35.2539 C 66.3574 -43.6035 63.0371 -49.1699 58.1055 -49.1699 C 53.1738 -49.1699 49.8047 -43.6035 49.8047 -35.2539 C 49.8047 -26.9043 53.1738 -21.3379 58.1055 -21.3379 Z"/>
  </g>
  <g id="Ultralight-S" transform="matrix(1 0 0 1 515.644 696)">
   <path d="M 44.043 2.05078 C 64.502 2.05078 81.2988 -14.6973 81.2988 -35.1562 C 81.2988 -55.6152 64.502 -72.3633 44.043 -72.3633 C 23.584 -72.3633 6.83594 -55.6152 6.83594 -35.1562 C 6.83594 -14.6973 23.584 2.05078 44.043 2.05078 Z M 23.4375 -19.0918 C 22.6562 -19.0918 22.168 -19.5312 22.168 -20.3125 C 22.168 -20.8496 22.2656 -21.0938 22.5586 -21.4355 L 34.668 -35.4492 C 37.3535 -38.5254 38.5742 -40.7227 38.5742 -43.3105 C 38.5742 -47.2168 35.791 -49.7559 31.2988 -49.7559 C 26.9531 -49.7559 23.8281 -47.0703 23.5352 -43.3594 C 23.4375 -42.627 23.0469 -42.2363 22.3145 -42.2363 C 21.582 -42.2363 21.1914 -42.7734 21.1914 -43.457 C 21.1914 -43.7988 21.2402 -44.0918 21.2891 -44.4824 C 21.9727 -48.8281 26.2695 -51.9531 31.2988 -51.9531 C 37.0605 -51.9531 40.918 -48.584 40.918 -43.3105 C 40.918 -40.2344 39.3555 -37.5488 35.7422 -33.3496 L 25.4883 -21.3867 L 25.4883 -21.2891 L 40.7715 -21.2891 C 41.4551 -21.2891 41.8945 -20.8008 41.8945 -20.166 C 41.8945 -19.5801 41.4551 -19.0918 40.7715 -19.0918 Z M 57.666 -18.5547 C 50.9766 -18.5547 46.3379 -25.293 46.3379 -35.2539 C 46.3379 -45.2148 50.9766 -51.9531 57.666 -51.9531 C 64.4043 -51.9531 68.9941 -45.2148 68.9941 -35.2539 C 68.9941 -25.293 64.4043 -18.5547 57.666 -18.5547 Z M 57.666 -20.8008 C 63.0371 -20.8008 66.6992 -26.6602 66.6992 -35.2539 C 66.6992 -43.8477 63.0371 -49.707 57.666 -49.707 C 52.3438 -49.707 48.6328 -43.8477 48.6328 -35.2539 C 48.6328 -26.6602 52.3438 -20.8008 57.666 -20.8008 Z"/>
  </g>
 </g>
</svg>
