<?xml version="1.0" encoding="UTF-8"?>
<!--Generator: Apple Native CoreSVG 123-->
<!DOCTYPE svg
PUBLIC "-//W3C//DTD SVG 1.1//EN"
       "http://www.w3.org/Graphics/SVG/1.1/DTD/svg11.dtd">
<svg version="1.1" xmlns="http://www.w3.org/2000/svg" xmlns:xlink="http://www.w3.org/1999/xlink" width="3300" height="2200">
 <!--glyph: "uni10051F.medium", point size: 100.000000, font version: "Version 15.0d7e11", template writer version: "5"-->
 <g id="Notes">
  <rect height="2200" id="artboard" style="fill:white;opacity:1" width="3300" x="0" y="0"/>
  <line id="" style="fill:none;stroke:black;opacity:1;stroke-width:0.5;" x1="263" x2="3036" y1="292" y2="292"/>
  <text style="stroke:none;fill:black;font-family:-apple-system,&quot;SF Pro Display&quot;,&quot;SF Pro Text&quot;,Helvetica,sans-serif;font-weight:bold;" transform="matrix(1 0 0 1 263 322)">Weight/Scale Variations</text>
  <text style="stroke:none;fill:black;font-family:-apple-system,&quot;SF Pro Display&quot;,&quot;SF Pro Text&quot;,Helvetica,sans-serif;text-anchor:middle;" transform="matrix(1 0 0 1 559.711 322)">Ultralight</text>
  <text style="stroke:none;fill:black;font-family:-apple-system,&quot;SF Pro Display&quot;,&quot;SF Pro Text&quot;,Helvetica,sans-serif;text-anchor:middle;" transform="matrix(1 0 0 1 856.422 322)">Thin</text>
  <text style="stroke:none;fill:black;font-family:-apple-system,&quot;SF Pro Display&quot;,&quot;SF Pro Text&quot;,Helvetica,sans-serif;text-anchor:middle;" transform="matrix(1 0 0 1 1153.13 322)">Light</text>
  <text style="stroke:none;fill:black;font-family:-apple-system,&quot;SF Pro Display&quot;,&quot;SF Pro Text&quot;,Helvetica,sans-serif;text-anchor:middle;" transform="matrix(1 0 0 1 1449.84 322)">Regular</text>
  <text style="stroke:none;fill:black;font-family:-apple-system,&quot;SF Pro Display&quot;,&quot;SF Pro Text&quot;,Helvetica,sans-serif;text-anchor:middle;" transform="matrix(1 0 0 1 1746.56 322)">Medium</text>
  <text style="stroke:none;fill:black;font-family:-apple-system,&quot;SF Pro Display&quot;,&quot;SF Pro Text&quot;,Helvetica,sans-serif;text-anchor:middle;" transform="matrix(1 0 0 1 2043.27 322)">Semibold</text>
  <text style="stroke:none;fill:black;font-family:-apple-system,&quot;SF Pro Display&quot;,&quot;SF Pro Text&quot;,Helvetica,sans-serif;text-anchor:middle;" transform="matrix(1 0 0 1 2339.98 322)">Bold</text>
  <text style="stroke:none;fill:black;font-family:-apple-system,&quot;SF Pro Display&quot;,&quot;SF Pro Text&quot;,Helvetica,sans-serif;text-anchor:middle;" transform="matrix(1 0 0 1 2636.69 322)">Heavy</text>
  <text style="stroke:none;fill:black;font-family:-apple-system,&quot;SF Pro Display&quot;,&quot;SF Pro Text&quot;,Helvetica,sans-serif;text-anchor:middle;" transform="matrix(1 0 0 1 2933.4 322)">Black</text>
  <line id="" style="fill:none;stroke:black;opacity:1;stroke-width:0.5;" x1="263" x2="3036" y1="1903" y2="1903"/>
  <g id="" transform="matrix(1 0 0 1 263 1933)">
   <path d="M 9.24805 0.830078 C 13.5547 0.830078 17.1387 -2.74414 17.1387 -7.05078 C 17.1387 -11.3574 13.5449 -14.9316 9.23828 -14.9316 C 4.94141 -14.9316 1.36719 -11.3574 1.36719 -7.05078 C 1.36719 -2.74414 4.95117 0.830078 9.24805 0.830078 Z M 9.24805 -0.654297 C 5.70312 -0.654297 2.87109 -3.49609 2.87109 -7.05078 C 2.87109 -10.6055 5.69336 -13.4473 9.23828 -13.4473 C 12.793 -13.4473 15.6348 -10.6055 15.6445 -7.05078 C 15.6543 -3.49609 12.8027 -0.654297 9.24805 -0.654297 Z M 9.22852 -3.42773 C 9.69727 -3.42773 9.9707 -3.74023 9.9707 -4.25781 L 9.9707 -6.31836 L 12.1973 -6.31836 C 12.6953 -6.31836 13.0371 -6.57227 13.0371 -7.04102 C 13.0371 -7.51953 12.7148 -7.7832 12.1973 -7.7832 L 9.9707 -7.7832 L 9.9707 -10.0098 C 9.9707 -10.5273 9.69727 -10.8496 9.22852 -10.8496 C 8.75977 -10.8496 8.50586 -10.5078 8.50586 -10.0098 L 8.50586 -7.7832 L 6.29883 -7.7832 C 5.78125 -7.7832 5.44922 -7.51953 5.44922 -7.04102 C 5.44922 -6.57227 5.80078 -6.31836 6.29883 -6.31836 L 8.50586 -6.31836 L 8.50586 -4.25781 C 8.50586 -3.75977 8.75977 -3.42773 9.22852 -3.42773 Z"/>
  </g>
  <g id="" transform="matrix(1 0 0 1 281.506 1933)">
   <path d="M 11.709 2.91016 C 17.1582 2.91016 21.6699 -1.60156 21.6699 -7.05078 C 21.6699 -12.4902 17.1484 -17.0117 11.6992 -17.0117 C 6.25977 -17.0117 1.74805 -12.4902 1.74805 -7.05078 C 1.74805 -1.60156 6.26953 2.91016 11.709 2.91016 Z M 11.709 1.25 C 7.09961 1.25 3.41797 -2.44141 3.41797 -7.05078 C 3.41797 -11.6504 7.08984 -15.3516 11.6992 -15.3516 C 16.3086 -15.3516 20 -11.6504 20.0098 -7.05078 C 20.0195 -2.44141 16.3184 1.25 11.709 1.25 Z M 11.6895 -2.41211 C 12.207 -2.41211 12.5195 -2.77344 12.5195 -3.33984 L 12.5195 -6.23047 L 15.5762 -6.23047 C 16.123 -6.23047 16.5039 -6.51367 16.5039 -7.03125 C 16.5039 -7.55859 16.1426 -7.86133 15.5762 -7.86133 L 12.5195 -7.86133 L 12.5195 -10.9277 C 12.5195 -11.5039 12.207 -11.8555 11.6895 -11.8555 C 11.1719 -11.8555 10.8789 -11.4844 10.8789 -10.9277 L 10.8789 -7.86133 L 7.83203 -7.86133 C 7.26562 -7.86133 6.89453 -7.55859 6.89453 -7.03125 C 6.89453 -6.51367 7.28516 -6.23047 7.83203 -6.23047 L 10.8789 -6.23047 L 10.8789 -3.33984 C 10.8789 -2.79297 11.1719 -2.41211 11.6895 -2.41211 Z"/>
  </g>
  <g id="" transform="matrix(1 0 0 1 304.924 1933)">
   <path d="M 14.9707 5.67383 C 21.9336 5.67383 27.6953 -0.078125 27.6953 -7.04102 C 27.6953 -14.0039 21.9238 -19.7559 14.9609 -19.7559 C 8.00781 -19.7559 2.25586 -14.0039 2.25586 -7.04102 C 2.25586 -0.078125 8.01758 5.67383 14.9707 5.67383 Z M 14.9707 3.85742 C 8.93555 3.85742 4.08203 -1.00586 4.08203 -7.04102 C 4.08203 -13.0762 8.92578 -17.9395 14.9609 -17.9395 C 21.0059 -17.9395 25.8594 -13.0762 25.8691 -7.04102 C 25.8789 -1.00586 21.0156 3.85742 14.9707 3.85742 Z M 14.9512 -1.06445 C 15.5176 -1.06445 15.8691 -1.45508 15.8691 -2.06055 L 15.8691 -6.13281 L 20.1074 -6.13281 C 20.6934 -6.13281 21.1133 -6.46484 21.1133 -7.02148 C 21.1133 -7.59766 20.7227 -7.93945 20.1074 -7.93945 L 15.8691 -7.93945 L 15.8691 -12.1875 C 15.8691 -12.8027 15.5176 -13.1934 14.9512 -13.1934 C 14.3848 -13.1934 14.0625 -12.7832 14.0625 -12.1875 L 14.0625 -7.93945 L 9.83398 -7.93945 C 9.21875 -7.93945 8.80859 -7.59766 8.80859 -7.02148 C 8.80859 -6.46484 9.23828 -6.13281 9.83398 -6.13281 L 14.0625 -6.13281 L 14.0625 -2.06055 C 14.0625 -1.47461 14.3848 -1.06445 14.9512 -1.06445 Z"/>
  </g>
  <text style="stroke:none;fill:black;font-family:-apple-system,&quot;SF Pro Display&quot;,&quot;SF Pro Text&quot;,Helvetica,sans-serif;font-weight:bold;" transform="matrix(1 0 0 1 263 1953)">Design Variations</text>
  <text style="stroke:none;fill:black;font-family:-apple-system,&quot;SF Pro Display&quot;,&quot;SF Pro Text&quot;,Helvetica,sans-serif;" transform="matrix(1 0 0 1 263 1971)">Symbols are supported in up to nine weights and three scales.</text>
  <text style="stroke:none;fill:black;font-family:-apple-system,&quot;SF Pro Display&quot;,&quot;SF Pro Text&quot;,Helvetica,sans-serif;" transform="matrix(1 0 0 1 263 1989)">For optimal layout with text and other symbols, vertically align</text>
  <text style="stroke:none;fill:black;font-family:-apple-system,&quot;SF Pro Display&quot;,&quot;SF Pro Text&quot;,Helvetica,sans-serif;" transform="matrix(1 0 0 1 263 2007)">symbols with the adjacent text.</text>
  <rect height="14" id="" style="fill:#00AEEF;stroke:none;opacity:0.4;" width="3" x="776" y="1919"/>
  <g id="" transform="matrix(1 0 0 1 779 1933)">
   <path d="M 10.5273 0 L 12.373 0 L 7.17773 -14.0918 L 5.43945 -14.0918 L 0.244141 0 L 2.08984 0 L 3.50586 -4.0332 L 9.11133 -4.0332 Z M 6.2793 -11.9531 L 6.33789 -11.9531 L 8.59375 -5.52734 L 4.02344 -5.52734 Z"/>
  </g>
  <rect height="14" id="" style="fill:#00AEEF;stroke:none;opacity:0.4;" width="3" x="791.617" y="1919"/>
  <text style="stroke:none;fill:black;font-family:-apple-system,&quot;SF Pro Display&quot;,&quot;SF Pro Text&quot;,Helvetica,sans-serif;font-weight:bold;" transform="matrix(1 0 0 1 776 1953)">Margins</text>
  <text style="stroke:none;fill:black;font-family:-apple-system,&quot;SF Pro Display&quot;,&quot;SF Pro Text&quot;,Helvetica,sans-serif;" transform="matrix(1 0 0 1 776 1971)">Leading and trailing margins on the left and right side of each symbol</text>
  <text style="stroke:none;fill:black;font-family:-apple-system,&quot;SF Pro Display&quot;,&quot;SF Pro Text&quot;,Helvetica,sans-serif;" transform="matrix(1 0 0 1 776 1989)">can be adjusted by modifying the width of the blue rectangles.</text>
  <text style="stroke:none;fill:black;font-family:-apple-system,&quot;SF Pro Display&quot;,&quot;SF Pro Text&quot;,Helvetica,sans-serif;" transform="matrix(1 0 0 1 776 2007)">Modifications are automatically applied proportionally to all</text>
  <text style="stroke:none;fill:black;font-family:-apple-system,&quot;SF Pro Display&quot;,&quot;SF Pro Text&quot;,Helvetica,sans-serif;" transform="matrix(1 0 0 1 776 2025)">scales and weights.</text>
  <g id="" transform="matrix(1 0 0 1 1289 1933)">
   <path d="M 2.83203 3.11523 L 4.375 4.6582 C 5.22461 5.48828 6.19141 5.41992 7.06055 4.46289 L 17.2754 -6.66016 C 17.7051 -6.36719 18.0957 -6.37695 18.5645 -6.47461 L 19.6094 -6.68945 L 20.3027 -5.99609 L 20.2539 -5.47852 C 20.1855 -4.95117 20.3516 -4.53125 20.8496 -4.0332 L 21.6602 -3.22266 C 22.168 -2.71484 22.8223 -2.68555 23.3008 -3.16406 L 26.5527 -6.41602 C 27.0312 -6.89453 27.0117 -7.54883 26.5039 -8.05664 L 25.6836 -8.87695 C 25.1855 -9.375 24.7754 -9.55078 24.2383 -9.47266 L 23.7109 -9.41406 L 23.0566 -10.0781 L 23.3398 -11.2207 C 23.4863 -11.7871 23.3398 -12.2559 22.7148 -12.8613 L 20.3027 -15.2539 C 16.7578 -18.7793 12.2266 -18.6719 9.11133 -15.5371 C 8.69141 -15.1074 8.64258 -14.5215 8.91602 -14.0918 C 9.15039 -13.7207 9.62891 -13.4961 10.2734 -13.6621 C 11.7871 -14.043 13.3008 -13.9258 14.7852 -12.9199 L 14.1602 -11.3379 C 13.9258 -10.752 13.9453 -10.2734 14.1797 -9.83398 L 3.01758 0.439453 C 2.08008 1.30859 1.97266 2.25586 2.83203 3.11523 Z M 10.6738 -15.1465 C 13.3398 -17.1387 16.6504 -16.8262 19.0527 -14.4141 L 21.6797 -11.8066 C 21.9141 -11.5723 21.9434 -11.3867 21.8848 -11.0938 L 21.5039 -9.53125 L 23.0762 -7.95898 L 24.043 -8.04688 C 24.3262 -8.07617 24.4141 -8.05664 24.6387 -7.83203 L 25.2637 -7.20703 L 22.5098 -4.46289 L 21.8848 -5.07812 C 21.6602 -5.30273 21.6406 -5.40039 21.6699 -5.68359 L 21.7578 -6.64062 L 20.1953 -8.20312 L 18.5742 -7.89062 C 18.291 -7.83203 18.1445 -7.83203 17.9102 -8.07617 L 15.7324 -10.2539 C 15.5078 -10.4883 15.4785 -10.625 15.6055 -10.9473 L 16.5527 -13.2227 C 14.9512 -14.7559 12.8418 -15.6055 10.8008 -14.9512 C 10.7129 -14.9219 10.6445 -14.9414 10.6152 -14.9805 C 10.5859 -15.0293 10.5859 -15.0781 10.6738 -15.1465 Z M 4.10156 2.41211 C 3.61328 1.91406 3.78906 1.61133 4.12109 1.30859 L 15.0781 -8.80859 L 16.3086 -7.57812 L 6.15234 3.34961 C 5.84961 3.68164 5.46875 3.7793 5.06836 3.37891 Z"/>
  </g>
  <text style="stroke:none;fill:black;font-family:-apple-system,&quot;SF Pro Display&quot;,&quot;SF Pro Text&quot;,Helvetica,sans-serif;font-weight:bold;" transform="matrix(1 0 0 1 1289 1953)">Exporting</text>
  <text style="stroke:none;fill:black;font-family:-apple-system,&quot;SF Pro Display&quot;,&quot;SF Pro Text&quot;,Helvetica,sans-serif;" transform="matrix(1 0 0 1 1289 1971)">Symbols should be outlined when exporting to ensure the</text>
  <text style="stroke:none;fill:black;font-family:-apple-system,&quot;SF Pro Display&quot;,&quot;SF Pro Text&quot;,Helvetica,sans-serif;" transform="matrix(1 0 0 1 1289 1989)">design is preserved when submitting to Xcode.</text>
  <text id="template-version" style="stroke:none;fill:black;font-family:-apple-system,&quot;SF Pro Display&quot;,&quot;SF Pro Text&quot;,Helvetica,sans-serif;text-anchor:end;" transform="matrix(1 0 0 1 3036 1933)">Template v.1.0</text>
  <text style="stroke:none;fill:black;font-family:-apple-system,&quot;SF Pro Display&quot;,&quot;SF Pro Text&quot;,Helvetica,sans-serif;text-anchor:end;" transform="matrix(1 0 0 1 3036 1951)">Generated from 21.circle.fill</text>
  <text style="stroke:none;fill:black;font-family:-apple-system,&quot;SF Pro Display&quot;,&quot;SF Pro Text&quot;,Helvetica,sans-serif;text-anchor:end;" transform="matrix(1 0 0 1 3036 1969)">Typeset at 100 points</text>
  <text style="stroke:none;fill:black;font-family:-apple-system,&quot;SF Pro Display&quot;,&quot;SF Pro Text&quot;,Helvetica,sans-serif;" transform="matrix(1 0 0 1 263 726)">Small</text>
  <text style="stroke:none;fill:black;font-family:-apple-system,&quot;SF Pro Display&quot;,&quot;SF Pro Text&quot;,Helvetica,sans-serif;" transform="matrix(1 0 0 1 263 1156)">Medium</text>
  <text style="stroke:none;fill:black;font-family:-apple-system,&quot;SF Pro Display&quot;,&quot;SF Pro Text&quot;,Helvetica,sans-serif;" transform="matrix(1 0 0 1 263 1586)">Large</text>
 </g>
 <g id="Guides">
  <g id="H-reference" style="fill:#27AAE1;stroke:none;" transform="matrix(1 0 0 1 339 696)">
   <path d="M 54.9316 0 L 57.666 0 L 30.5664 -70.459 L 28.0762 -70.459 L 0.976562 0 L 3.66211 0 L 12.9395 -24.4629 L 45.7031 -24.4629 Z M 29.1992 -67.0898 L 29.4434 -67.0898 L 44.8242 -26.709 L 13.8184 -26.709 Z"/>
  </g>
  <line id="Baseline-S" style="fill:none;stroke:#27AAE1;opacity:1;stroke-width:0.577;" x1="263" x2="3036" y1="696" y2="696"/>
  <line id="Capline-S" style="fill:none;stroke:#27AAE1;opacity:1;stroke-width:0.577;" x1="263" x2="3036" y1="625.541" y2="625.541"/>
  <g id="H-reference" style="fill:#27AAE1;stroke:none;" transform="matrix(1 0 0 1 339 1126)">
   <path d="M 54.9316 0 L 57.666 0 L 30.5664 -70.459 L 28.0762 -70.459 L 0.976562 0 L 3.66211 0 L 12.9395 -24.4629 L 45.7031 -24.4629 Z M 29.1992 -67.0898 L 29.4434 -67.0898 L 44.8242 -26.709 L 13.8184 -26.709 Z"/>
  </g>
  <line id="Baseline-M" style="fill:none;stroke:#27AAE1;opacity:1;stroke-width:0.577;" x1="263" x2="3036" y1="1126" y2="1126"/>
  <line id="Capline-M" style="fill:none;stroke:#27AAE1;opacity:1;stroke-width:0.577;" x1="263" x2="3036" y1="1055.54" y2="1055.54"/>
  <g id="H-reference" style="fill:#27AAE1;stroke:none;" transform="matrix(1 0 0 1 339 1556)">
   <path d="M 54.9316 0 L 57.666 0 L 30.5664 -70.459 L 28.0762 -70.459 L 0.976562 0 L 3.66211 0 L 12.9395 -24.4629 L 45.7031 -24.4629 Z M 29.1992 -67.0898 L 29.4434 -67.0898 L 44.8242 -26.709 L 13.8184 -26.709 Z"/>
  </g>
  <line id="Baseline-L" style="fill:none;stroke:#27AAE1;opacity:1;stroke-width:0.577;" x1="263" x2="3036" y1="1556" y2="1556"/>
  <line id="Capline-L" style="fill:none;stroke:#27AAE1;opacity:1;stroke-width:0.577;" x1="263" x2="3036" y1="1485.54" y2="1485.54"/>
  <rect height="119.336" id="left-margin" style="fill:#00AEEF;stroke:none;opacity:0.4;" width="8.74023" x="1391.3" y="1030.79"/>
  <rect height="119.336" id="right-margin" style="fill:#00AEEF;stroke:none;opacity:0.4;" width="8.74023" x="1499.65" y="1030.79"/>
 </g>
 <g id="Symbols">
  <g id="Black-L" transform="matrix(1 0 0 1 2854.05 1556)">
   <path d="M 79.3457 32.8613 C 116.748 32.8613 147.412 2.19727 147.412 -35.2051 C 147.412 -72.6074 116.748 -103.271 79.2969 -103.271 C 41.8945 -103.271 11.2793 -72.6074 11.2793 -35.2051 C 11.2793 2.19727 41.9434 32.8613 79.3457 32.8613 Z M 54.4922 -10.5469 C 51.123 -10.5469 48.584 -12.8418 48.584 -16.5527 C 48.584 -18.8965 49.3652 -20.8984 51.5625 -23.3398 L 62.8418 -36.6699 C 65.7227 -40.0391 68.1152 -42.4316 68.1152 -45.4102 C 68.1152 -47.8516 66.0645 -49.7559 63.3789 -49.7559 C 60.9863 -49.7559 59.1797 -48.3398 58.3008 -45.8008 C 57.4707 -43.5059 55.9082 -41.8945 52.9785 -41.8945 C 49.8047 -41.8945 47.7539 -44.0918 47.7539 -47.2168 C 47.7539 -48.3887 47.9492 -49.3164 48.1934 -50.3418 C 50 -56.7383 56.3965 -61.084 63.6719 -61.084 C 73.291 -61.084 79.1016 -55.0293 79.248 -46.5332 C 79.2969 -40.7227 76.5137 -36.2793 71.6797 -30.7129 L 64.8438 -22.7539 L 64.8438 -22.1191 L 74.8047 -22.1191 C 78.3691 -22.1191 80.7129 -20.0684 80.7129 -16.4551 C 80.7129 -12.7441 78.3691 -10.5469 74.8047 -10.5469 Z M 104.395 -9.66797 C 100.244 -9.66797 98.2422 -12.0605 98.2422 -16.8457 L 98.2422 -45.8008 L 97.9492 -45.8008 L 95.0195 -42.9199 C 93.3594 -41.1133 92.1875 -40.3809 90.1367 -40.3809 C 87.4023 -40.3809 85.1562 -42.7246 85.1562 -45.5566 C 85.1562 -47.998 86.1328 -49.707 88.4766 -51.8066 L 94.8242 -57.3242 C 98.0469 -60.2051 100.146 -60.9863 102.832 -60.9863 C 107.861 -60.9863 110.498 -57.959 110.498 -52.832 L 110.498 -16.8457 C 110.498 -12.0605 108.447 -9.66797 104.395 -9.66797 Z"/>
  </g>
  <g id="Heavy-L" transform="matrix(1 0 0 1 2558.39 1556)">
   <path d="M 78.2715 31.7871 C 115.088 31.7871 145.312 1.61133 145.312 -35.2051 C 145.312 -72.0215 115.039 -102.197 78.2715 -102.197 C 41.4551 -102.197 11.2793 -72.0215 11.2793 -35.2051 C 11.2793 1.61133 41.5039 31.7871 78.2715 31.7871 Z M 52.2461 -10.0586 C 49.1699 -10.0586 46.875 -12.1094 46.875 -15.4297 C 46.875 -17.4805 47.6074 -19.2871 49.4629 -21.3867 L 62.3535 -36.5234 C 65.3809 -40.0391 67.9199 -42.7246 67.9199 -46.0449 C 67.9199 -49.1699 65.5273 -51.416 62.0605 -51.416 C 59.0332 -51.416 56.7383 -49.6582 55.7129 -46.4844 C 54.9316 -44.2871 53.5156 -42.8223 50.8789 -42.8223 C 47.9492 -42.8223 46.0938 -44.873 46.0938 -47.7051 C 46.0938 -48.7793 46.2402 -49.6582 46.4844 -50.6348 C 48.2422 -57.1289 54.7852 -61.6699 62.2559 -61.6699 C 71.9727 -61.6699 78.0273 -55.6641 78.125 -47.0215 C 78.125 -41.1133 75.1953 -36.6211 70.3613 -30.957 L 61.8164 -21.0449 L 61.8164 -20.5078 L 74.3164 -20.5078 C 77.4414 -20.5078 79.541 -18.6035 79.541 -15.3809 C 79.541 -12.0117 77.4414 -10.0586 74.3164 -10.0586 Z M 103.955 -9.17969 C 100.293 -9.17969 98.4375 -11.377 98.4375 -15.5273 L 98.4375 -47.7051 L 98.0957 -47.7051 L 93.9453 -44.1406 C 92.3828 -42.5293 91.3574 -41.9922 89.5996 -41.9922 C 87.0605 -41.9922 85.0098 -44.1406 85.0098 -46.7285 C 85.0098 -48.9746 85.8887 -50.4883 87.9883 -52.3438 L 95.4102 -58.252 C 98.291 -60.791 100.195 -61.4746 102.686 -61.4746 C 107.08 -61.4746 109.521 -58.7402 109.521 -54.2969 L 109.521 -15.5273 C 109.521 -11.377 107.617 -9.17969 103.955 -9.17969 Z"/>
  </g>
  <g id="Bold-L" transform="matrix(1 0 0 1 2262.88 1556)">
   <path d="M 77.0996 30.6152 C 113.232 30.6152 142.92 0.878906 142.92 -35.2051 C 142.92 -71.3379 113.184 -101.025 77.0508 -101.025 C 40.9668 -101.025 11.2793 -71.3379 11.2793 -35.2051 C 11.2793 0.878906 41.0156 30.6152 77.0996 30.6152 Z M 49.7559 -9.47266 C 47.0215 -9.47266 45.0195 -11.2793 45.0195 -14.209 C 45.0195 -15.9668 45.6055 -17.4316 47.168 -19.1895 L 61.8164 -36.377 C 64.9902 -40.0879 67.7246 -43.1152 67.7246 -46.7285 C 67.7246 -50.5859 64.8926 -53.2715 60.5957 -53.2715 C 56.7871 -53.2715 54.0039 -51.123 52.832 -47.2656 C 52.0996 -45.2148 50.8789 -43.8965 48.4863 -43.8965 C 45.8984 -43.8965 44.2383 -45.7031 44.2383 -48.291 C 44.2383 -49.2676 44.3848 -50.0488 44.5801 -50.9766 C 46.2891 -57.6172 53.0273 -62.3047 60.6445 -62.3047 C 70.5566 -62.3047 76.8066 -56.3477 76.8555 -47.6074 C 76.8555 -41.5527 73.7793 -36.9629 68.7988 -31.25 L 58.4473 -19.1406 L 58.4473 -18.6523 L 73.7305 -18.6523 C 76.416 -18.6523 78.2715 -16.9922 78.2715 -14.1113 C 78.2715 -11.2305 76.416 -9.47266 73.7305 -9.47266 Z M 103.467 -8.69141 C 100.342 -8.69141 98.6328 -10.5957 98.6328 -14.1113 L 98.6328 -49.8535 L 98.291 -49.8535 L 92.7734 -45.5078 C 91.3086 -44.1406 90.4297 -43.75 88.9648 -43.75 C 86.7188 -43.75 84.8145 -45.7031 84.8145 -48.0469 C 84.8145 -50.0488 85.6445 -51.3672 87.4512 -52.8809 L 95.9961 -59.2773 C 98.584 -61.377 100.195 -62.0605 102.49 -62.0605 C 106.25 -62.0605 108.398 -59.668 108.398 -55.9082 L 108.398 -14.1113 C 108.398 -10.5957 106.641 -8.69141 103.467 -8.69141 Z"/>
  </g>
  <g id="Semibold-L" transform="matrix(1 0 0 1 1966.97 1556)">
   <path d="M 76.2695 29.7852 C 111.914 29.7852 141.309 0.439453 141.309 -35.2051 C 141.309 -70.8496 111.865 -100.244 76.2695 -100.244 C 40.625 -100.244 11.2793 -70.8496 11.2793 -35.2051 C 11.2793 0.439453 40.6738 29.7852 76.2695 29.7852 Z M 48.0469 -9.0332 C 45.5078 -9.0332 43.75 -10.7422 43.75 -13.3301 C 43.75 -14.8926 44.2871 -16.2109 45.5566 -17.627 L 61.4258 -36.2793 C 64.6973 -40.0879 67.5781 -43.3594 67.5781 -47.2168 C 67.5781 -51.6113 64.4531 -54.5898 59.5703 -54.5898 C 55.2246 -54.5898 52.0996 -52.1484 50.8789 -47.8027 C 50.0977 -45.8008 49.0234 -44.6289 46.875 -44.6289 C 44.4824 -44.6289 42.9688 -46.2891 42.9688 -48.6816 C 42.9688 -49.6094 43.1152 -50.3418 43.3105 -51.2207 C 44.9707 -57.9102 51.7578 -62.7441 59.5215 -62.7441 C 69.5312 -62.7441 75.9277 -56.8359 75.9766 -47.9492 C 75.9766 -41.8945 72.7539 -37.2559 67.7734 -31.3965 L 56.1035 -17.8223 L 56.1035 -17.3828 L 73.3398 -17.3828 C 75.7324 -17.3828 77.3926 -15.8691 77.3926 -13.2812 C 77.3926 -10.6934 75.7324 -9.0332 73.3398 -9.0332 Z M 103.174 -8.30078 C 100.391 -8.30078 98.7793 -10.0586 98.7793 -13.0859 L 98.7793 -51.3184 L 98.4375 -51.3184 L 91.9434 -46.4844 C 90.5273 -45.2637 89.7949 -44.9707 88.5254 -44.9707 C 86.4746 -44.9707 84.7168 -46.7773 84.7168 -48.9746 C 84.7168 -50.7812 85.4492 -52.002 87.0605 -53.2715 L 96.4355 -59.9609 C 98.7793 -61.8164 100.244 -62.4512 102.393 -62.4512 C 105.615 -62.4512 107.617 -60.3027 107.617 -57.0312 L 107.617 -13.0859 C 107.617 -10.0586 105.957 -8.30078 103.174 -8.30078 Z"/>
  </g>
  <g id="Medium-L" transform="matrix(1 0 0 1 1670.87 1556)">
   <path d="M 75.6836 29.1992 C 110.938 29.1992 140.088 0.0488281 140.088 -35.2051 C 140.088 -70.459 110.889 -99.6094 75.6348 -99.6094 C 40.3809 -99.6094 11.2793 -70.459 11.2793 -35.2051 C 11.2793 0.0488281 40.3809 29.1992 75.6836 29.1992 Z M 46.7285 -8.74023 C 44.3359 -8.74023 42.7734 -10.3027 42.7734 -12.6465 C 42.7734 -14.0625 43.2617 -15.2344 44.3359 -16.5039 L 61.1816 -36.1816 C 64.502 -40.0879 67.4805 -43.5547 67.4805 -47.6074 C 67.4805 -52.3438 64.1113 -55.5664 58.8379 -55.5664 C 54.1016 -55.5664 50.6348 -52.8809 49.3652 -48.1934 C 48.6328 -46.2891 47.6074 -45.166 45.6543 -45.166 C 43.4082 -45.166 41.9922 -46.7285 41.9922 -48.9746 C 41.9922 -49.8535 42.1387 -50.5371 42.2852 -51.416 C 43.9453 -58.1543 50.8301 -63.0859 58.6914 -63.0859 C 68.7988 -63.0859 75.293 -57.2266 75.3418 -48.2422 C 75.3418 -42.0898 72.0215 -37.4512 66.9922 -31.543 L 54.3457 -16.8457 L 54.3457 -16.4551 L 72.998 -16.4551 C 75.1953 -16.4551 76.709 -15.0391 76.709 -12.5977 C 76.709 -10.3027 75.1953 -8.74023 72.998 -8.74023 Z M 102.93 -8.00781 C 100.391 -8.00781 98.877 -9.61914 98.877 -12.3535 L 98.877 -52.4414 L 98.5352 -52.4414 L 91.3086 -47.2168 C 89.9414 -46.0938 89.3066 -45.8984 88.1836 -45.8984 C 86.3281 -45.8984 84.6191 -47.6074 84.6191 -49.6582 C 84.6191 -51.3184 85.3027 -52.4414 86.7676 -53.5645 L 96.7773 -60.5469 C 98.9746 -62.1582 100.244 -62.7441 102.295 -62.7441 C 105.176 -62.7441 107.031 -60.791 107.031 -57.8613 L 107.031 -12.3535 C 107.031 -9.61914 105.469 -8.00781 102.93 -8.00781 Z"/>
  </g>
  <g id="Regular-L" transform="matrix(1 0 0 1 1374.97 1556)">
   <path d="M 74.8535 28.3691 C 109.668 28.3691 138.477 -0.390625 138.477 -35.2051 C 138.477 -70.0195 109.619 -98.7793 74.8047 -98.7793 C 40.0391 -98.7793 11.2793 -70.0195 11.2793 -35.2051 C 11.2793 -0.390625 40.0879 28.3691 74.8535 28.3691 Z M 45.0195 -8.34961 C 42.8711 -8.34961 41.5039 -9.7168 41.5039 -11.8164 C 41.5039 -13.0371 41.8945 -14.0137 42.7734 -14.9902 L 60.791 -36.0352 C 64.2578 -40.0879 67.334 -43.7988 67.334 -48.0957 C 67.334 -53.3691 63.6719 -56.8359 57.8125 -56.8359 C 52.5879 -56.8359 48.7793 -53.9062 47.4121 -48.7305 C 46.6797 -46.9238 45.8008 -45.8984 44.043 -45.8984 C 41.9922 -45.8984 40.7227 -47.3145 40.7227 -49.4141 C 40.7227 -50.1465 40.8691 -50.7812 41.0156 -51.6113 C 42.5781 -58.4961 49.6582 -63.5254 57.5684 -63.5254 C 67.8223 -63.5254 74.4629 -57.666 74.4629 -48.6328 C 74.4629 -42.4316 71.0449 -37.6953 65.918 -31.7383 L 52.0508 -15.5273 L 52.0508 -15.1855 L 72.6074 -15.1855 C 74.4629 -15.1855 75.8301 -13.916 75.8301 -11.7676 C 75.8301 -9.76562 74.4629 -8.34961 72.6074 -8.34961 Z M 102.588 -7.66602 C 100.439 -7.66602 99.0234 -9.08203 99.0234 -11.377 L 99.0234 -53.9062 L 98.6328 -53.9062 L 90.5273 -48.1445 C 89.209 -47.168 88.6719 -47.1191 87.793 -47.1191 C 86.084 -47.1191 84.4727 -48.6328 84.4727 -50.5371 C 84.4727 -52.0996 85.1562 -53.0762 86.377 -53.9551 L 97.2168 -61.2305 C 99.1699 -62.5977 100.293 -63.1348 102.148 -63.1348 C 104.59 -63.1348 106.25 -61.4258 106.25 -58.9355 L 106.25 -11.377 C 106.25 -9.08203 104.834 -7.66602 102.588 -7.66602 Z"/>
  </g>
  <g id="Light-L" transform="matrix(1 0 0 1 1079.18 1556)">
   <path d="M 73.9258 27.4902 C 108.301 27.4902 136.621 -0.830078 136.621 -35.1562 C 136.621 -69.5312 108.252 -97.8516 73.9258 -97.8516 C 39.5508 -97.8516 11.2793 -69.5312 11.2793 -35.1562 C 11.2793 -0.830078 39.5996 27.4902 73.9258 27.4902 Z M 43.9941 -8.44727 C 42.1875 -8.44727 40.9668 -9.57031 40.9668 -11.377 C 40.9668 -12.4023 41.3086 -13.1836 42.041 -13.9648 L 60.8398 -35.8398 C 64.6484 -40.332 67.334 -43.9453 67.334 -48.291 C 67.334 -54.0039 63.2812 -57.7637 56.7871 -57.7637 C 50.8301 -57.7637 46.4355 -54.1992 45.459 -48.6816 C 44.9219 -47.1191 44.1406 -46.2402 42.627 -46.2402 C 40.9668 -46.2402 39.8926 -47.4609 39.8926 -49.1211 C 39.8926 -49.8047 39.9902 -50.3906 40.0879 -51.1719 C 41.5527 -58.1543 48.584 -63.2324 56.6406 -63.2324 C 66.6016 -63.2324 73.1445 -57.4707 73.1445 -48.584 C 73.1445 -42.8223 70.0684 -38.2324 64.5996 -31.8848 L 49.4629 -14.3066 L 49.4629 -14.0137 L 71.9238 -14.0137 C 73.5352 -14.0137 74.5605 -12.9395 74.5605 -11.2305 C 74.5605 -9.61914 73.5352 -8.44727 71.9238 -8.44727 Z M 101.562 -7.86133 C 99.8535 -7.86133 98.6816 -9.0332 98.6816 -10.8398 L 98.6816 -55.4199 L 98.3398 -55.4199 L 88.7207 -48.877 C 87.7441 -48.1934 87.4023 -48.1934 86.6699 -48.1934 C 85.2539 -48.1934 84.0332 -49.4141 84.0332 -50.8789 C 84.0332 -52.0996 84.5215 -52.8809 85.498 -53.5645 L 97.3145 -61.4258 C 98.7793 -62.4023 99.707 -62.793 101.172 -62.793 C 103.076 -62.793 104.492 -61.4746 104.492 -59.5215 L 104.492 -10.8398 C 104.492 -9.0332 103.32 -7.86133 101.562 -7.86133 Z"/>
  </g>
  <g id="Thin-L" transform="matrix(1 0 0 1 783.693 1556)">
   <path d="M 72.7051 26.3184 C 106.494 26.3184 134.18 -1.36719 134.18 -35.1074 C 134.18 -68.8965 106.494 -96.582 72.7051 -96.582 C 38.9648 -96.582 11.2793 -68.8965 11.2793 -35.1074 C 11.2793 -1.36719 38.9648 26.3184 72.7051 26.3184 Z M 42.627 -8.59375 C 41.2598 -8.59375 40.332 -9.42383 40.332 -10.7422 C 40.332 -11.6211 40.5273 -12.0605 41.0645 -12.6465 L 60.8887 -35.5957 C 65.1855 -40.6738 67.2852 -44.1895 67.2852 -48.5352 C 67.2852 -54.8828 62.793 -58.9844 55.4688 -58.9844 C 48.4863 -58.9844 43.3594 -54.6387 42.8711 -48.6328 C 42.627 -47.4121 41.9922 -46.7285 40.7227 -46.7285 C 39.5508 -46.7285 38.7695 -47.6074 38.7695 -48.7793 C 38.7695 -49.3652 38.8672 -49.8047 38.916 -50.5371 C 40.1855 -57.666 47.2168 -62.793 55.4199 -62.793 C 65.0391 -62.793 71.3867 -57.2266 71.3867 -48.5352 C 71.3867 -43.4082 68.7988 -38.9648 62.8906 -32.0801 L 46.0938 -12.6465 L 46.0938 -12.4512 L 71.0449 -12.4512 C 72.2656 -12.4512 72.9004 -11.6699 72.9004 -10.5469 C 72.9004 -9.47266 72.2656 -8.59375 71.0449 -8.59375 Z M 100.195 -8.1543 C 99.0723 -8.1543 98.2422 -8.93555 98.2422 -10.1074 L 98.2422 -57.4219 L 97.9004 -57.4219 L 86.2793 -49.8047 C 85.8398 -49.5605 85.6445 -49.5605 85.2539 -49.5605 C 84.1797 -49.5605 83.3984 -50.3906 83.3984 -51.3184 C 83.3984 -52.0996 83.6426 -52.6367 84.375 -53.0762 L 97.4609 -61.6699 C 98.3398 -62.207 98.9258 -62.4023 99.8535 -62.4023 C 101.123 -62.4023 102.148 -61.5234 102.148 -60.2539 L 102.148 -10.1074 C 102.148 -8.93555 101.367 -8.1543 100.195 -8.1543 Z"/>
  </g>
  <g id="Ultralight-L" transform="matrix(1 0 0 1 487.616 1556)">
   <path d="M 72.1191 25.7324 C 105.566 25.7324 132.91 -1.61133 132.91 -35.1074 C 132.91 -68.5547 105.566 -95.8984 72.1191 -95.8984 C 38.623 -95.8984 11.2793 -68.5547 11.2793 -35.1074 C 11.2793 -1.61133 38.623 25.7324 72.1191 25.7324 Z M 41.8945 -8.69141 C 40.8203 -8.69141 39.9902 -9.32617 39.9902 -10.4492 C 39.9902 -11.1816 40.1367 -11.5234 40.5273 -11.9141 L 60.8887 -35.4492 C 65.4785 -40.8203 67.2363 -44.3359 67.2363 -48.6816 C 67.2363 -55.3711 62.5488 -59.6191 54.7852 -59.6191 C 47.3145 -59.6191 41.7969 -54.834 41.5039 -48.584 C 41.4062 -47.5586 40.918 -46.9727 39.7461 -46.9727 C 38.8184 -46.9727 38.1836 -47.7051 38.1836 -48.6328 C 38.1836 -49.1699 38.2812 -49.5117 38.3301 -50.2441 C 39.502 -57.4219 46.4844 -62.5977 54.7852 -62.5977 C 64.209 -62.5977 70.5078 -57.0801 70.5078 -48.5352 C 70.5078 -43.7012 68.1641 -39.3066 62.0117 -32.1777 L 44.3848 -11.7676 L 44.3848 -11.6211 L 70.5566 -11.6211 C 71.582 -11.6211 72.0703 -10.9863 72.0703 -10.1562 C 72.0703 -9.42383 71.582 -8.69141 70.5566 -8.69141 Z M 99.4629 -8.30078 C 98.6816 -8.30078 98.0469 -8.88672 98.0469 -9.76562 L 98.0469 -58.4473 L 97.7051 -58.4473 L 85.0586 -50.293 C 84.8633 -50.2441 84.7656 -50.2441 84.5215 -50.2441 C 83.6426 -50.2441 83.1055 -50.8789 83.1055 -51.5625 C 83.1055 -52.0996 83.2031 -52.4902 83.7891 -52.832 L 97.5098 -61.7676 C 98.0957 -62.0605 98.4863 -62.207 99.1699 -62.207 C 100.146 -62.207 100.928 -61.5723 100.928 -60.6445 L 100.928 -9.76562 C 100.928 -8.88672 100.391 -8.30078 99.4629 -8.30078 Z"/>
  </g>
  <g id="Black-M" transform="matrix(1 0 0 1 2870.97 1126)">
   <path d="M 62.4023 18.457 C 91.9922 18.457 116.113 -5.61523 116.113 -35.2051 C 116.113 -64.7949 91.9922 -88.8672 62.4023 -88.8672 C 32.8125 -88.8672 8.74023 -64.7949 8.74023 -35.2051 C 8.74023 -5.61523 32.8125 18.457 62.4023 18.457 Z M 80.9082 -16.2109 C 77.3438 -16.2109 75.6836 -18.2129 75.6836 -22.4121 L 75.6836 -41.6504 L 75.5371 -41.6504 L 74.0723 -39.8926 C 72.9004 -38.3789 71.8262 -37.6465 70.0195 -37.6465 C 67.6758 -37.6465 65.9668 -39.5508 65.9668 -41.7969 C 65.9668 -43.7988 66.6992 -45.2637 68.7988 -47.2168 L 72.8027 -51.1719 C 75.4395 -53.7598 77.2461 -54.3457 79.3945 -54.3457 C 83.8379 -54.3457 86.0352 -51.7578 86.0352 -47.2168 L 86.0352 -22.4121 C 86.0352 -18.2129 84.4238 -16.2109 80.9082 -16.2109 Z M 44.7266 -16.8945 C 41.8945 -16.8945 39.6484 -18.7988 39.6484 -22.0215 C 39.6484 -24.1211 40.332 -25.8789 42.334 -28.125 L 49.3652 -36.4746 C 51.6113 -39.0625 53.0273 -40.4785 53.0273 -42.3828 C 53.0273 -43.6035 51.8066 -44.7266 50.3418 -44.7266 C 49.0234 -44.7266 47.9004 -43.7988 47.5586 -42.4805 C 47.0215 -40.6738 45.7031 -39.3066 43.1152 -39.3066 C 40.4785 -39.3066 38.8184 -41.1621 38.8184 -43.6523 C 38.8184 -44.6777 38.916 -45.4102 39.1602 -46.2891 C 40.5273 -51.1719 45.2637 -54.2969 50.7812 -54.2969 C 57.8613 -54.2969 62.1094 -49.6582 62.207 -43.3105 C 62.3047 -39.1602 60.498 -35.8887 56.6895 -31.4941 L 52.9785 -27.1484 L 52.9785 -26.6602 L 58.3008 -26.6602 C 61.4746 -26.6602 63.4277 -24.9023 63.4277 -21.875 C 63.4277 -18.7012 61.4746 -16.8945 58.3008 -16.8945 Z"/>
  </g>
  <g id="Heavy-M" transform="matrix(1 0 0 1 2575.19 1126)">
   <path d="M 61.5234 17.5781 C 90.5273 17.5781 114.258 -6.15234 114.258 -35.2051 C 114.258 -64.2578 90.5273 -87.9883 61.4746 -87.9883 C 32.4707 -87.9883 8.74023 -64.2578 8.74023 -35.2051 C 8.74023 -6.15234 32.4707 17.5781 61.5234 17.5781 Z M 42.5293 -16.2598 C 39.9414 -16.2598 37.9395 -18.0664 37.9395 -20.8984 C 37.9395 -22.7539 38.5254 -24.3164 40.2832 -26.2695 L 48.8281 -36.3281 C 51.123 -39.0137 52.832 -40.7715 52.832 -43.0176 C 52.832 -44.873 51.2695 -46.2891 49.1699 -46.2891 C 47.3145 -46.2891 45.8496 -45.166 45.2637 -43.2129 C 44.7266 -41.5039 43.5059 -40.2344 41.2109 -40.2344 C 38.7695 -40.2344 37.207 -41.9434 37.207 -44.2871 C 37.207 -45.2148 37.3535 -45.9473 37.5488 -46.7285 C 38.916 -51.709 43.7988 -55.0293 49.4629 -55.0293 C 56.7871 -55.0293 61.2305 -50.3906 61.3281 -43.8477 C 61.377 -39.502 59.3262 -36.084 55.5664 -31.7383 L 50.3418 -25.6348 L 50.3418 -25.1953 L 57.9102 -25.1953 C 60.6934 -25.1953 62.5 -23.584 62.5 -20.8496 C 62.5 -17.9688 60.6934 -16.2598 57.9102 -16.2598 Z M 80.7129 -15.625 C 77.5391 -15.625 75.9766 -17.4316 75.9766 -21.1426 L 75.9766 -43.3594 L 75.7812 -43.3594 L 73.3887 -41.0645 C 72.2168 -39.6973 71.2891 -39.1113 69.6777 -39.1113 C 67.5781 -39.1113 65.918 -40.918 65.918 -43.0176 C 65.918 -44.873 66.6016 -46.1914 68.457 -47.8516 L 73.3887 -52.1484 C 75.8301 -54.3945 77.4414 -54.9805 79.4922 -54.9805 C 83.3984 -54.9805 85.4004 -52.6367 85.4004 -48.6328 L 85.4004 -21.1426 C 85.4004 -17.4316 83.8867 -15.625 80.7129 -15.625 Z"/>
  </g>
  <g id="Bold-M" transform="matrix(1 0 0 1 2279.5 1126)">
   <path d="M 60.498 16.5039 C 88.8672 16.5039 112.207 -6.78711 112.207 -35.2051 C 112.207 -63.623 88.8672 -86.9629 60.4492 -86.9629 C 32.0312 -86.9629 8.74023 -63.623 8.74023 -35.2051 C 8.74023 -6.78711 32.0801 16.5039 60.498 16.5039 Z M 40.0879 -15.625 C 37.7441 -15.625 36.0352 -17.1875 36.0352 -19.6777 C 36.0352 -21.2402 36.5723 -22.5586 37.9395 -24.1211 L 48.2422 -36.2305 C 50.5859 -38.9648 52.5879 -41.1133 52.5879 -43.7012 C 52.5879 -46.2402 50.6836 -48.0957 47.8516 -48.0957 C 45.3613 -48.0957 43.5059 -46.6309 42.7246 -44.0918 C 42.0898 -42.3828 41.0645 -41.3086 39.0137 -41.3086 C 36.8164 -41.3086 35.4492 -42.8223 35.4492 -45.0195 C 35.4492 -45.8496 35.5469 -46.4844 35.7422 -47.2656 C 37.0605 -52.2949 42.1875 -55.8105 47.998 -55.8105 C 55.5664 -55.8105 60.2539 -51.1719 60.3516 -44.4824 C 60.3516 -39.8438 58.0566 -36.377 54.248 -31.9824 L 47.3633 -23.9258 L 47.3633 -23.5352 L 57.4707 -23.5352 C 59.8633 -23.5352 61.4258 -22.0703 61.4258 -19.6289 C 61.4258 -17.1387 59.8633 -15.625 57.4707 -15.625 Z M 80.5176 -14.9414 C 77.7344 -14.9414 76.3184 -16.6016 76.3184 -19.7266 L 76.3184 -45.2637 L 76.0742 -45.2637 L 72.6562 -42.3828 C 71.4355 -41.1621 70.6543 -40.7227 69.3359 -40.7227 C 67.4316 -40.7227 65.8691 -42.3828 65.8691 -44.3848 C 65.8691 -46.0449 66.5039 -47.2168 68.1152 -48.584 L 74.0234 -53.2227 C 76.2207 -55.127 77.6367 -55.6641 79.5898 -55.6641 C 82.8613 -55.6641 84.7168 -53.6133 84.7168 -50.2441 L 84.7168 -19.7266 C 84.7168 -16.6016 83.252 -14.9414 80.5176 -14.9414 Z"/>
  </g>
  <g id="Semibold-M" transform="matrix(1 0 0 1 1983.5 1126)">
   <path d="M 59.7656 15.8203 C 87.7441 15.8203 110.791 -7.22656 110.791 -35.2051 C 110.791 -63.1836 87.6953 -86.2793 59.7656 -86.2793 C 31.7871 -86.2793 8.74023 -63.1836 8.74023 -35.2051 C 8.74023 -7.22656 31.7871 15.8203 59.7656 15.8203 Z M 38.4277 -15.1367 C 36.2305 -15.1367 34.7168 -16.6016 34.7168 -18.8477 C 34.7168 -20.166 35.2051 -21.3379 36.377 -22.6562 L 47.8027 -36.1328 C 50.1953 -38.916 52.4902 -41.3574 52.4902 -44.1895 C 52.4902 -47.2168 50.2441 -49.3164 46.9727 -49.3164 C 44.043 -49.3164 41.9434 -47.7051 40.918 -44.6777 C 40.332 -43.0176 39.3555 -42.041 37.5488 -42.041 C 35.498 -42.041 34.1797 -43.457 34.1797 -45.5078 C 34.1797 -46.2402 34.3262 -46.875 34.4727 -47.6074 C 35.791 -52.7344 41.0645 -56.3965 46.9238 -56.3965 C 54.6875 -56.3965 59.6191 -51.7578 59.668 -44.9219 C 59.668 -40.1367 57.1777 -36.5234 53.3691 -32.1289 L 45.3125 -22.7539 L 45.3125 -22.3633 L 57.1777 -22.3633 C 59.2773 -22.3633 60.7422 -21.0449 60.7422 -18.7988 C 60.7422 -16.5527 59.2773 -15.1367 57.1777 -15.1367 Z M 80.3711 -14.502 C 77.8809 -14.502 76.5625 -16.0156 76.5625 -18.75 L 76.5625 -46.5332 L 76.2695 -46.5332 L 72.1191 -43.2617 C 70.8984 -42.1387 70.2148 -41.8945 69.0918 -41.8945 C 67.334 -41.8945 65.8203 -43.4082 65.8203 -45.3125 C 65.8203 -46.875 66.4551 -47.9004 67.8711 -49.0723 L 74.4629 -53.9551 C 76.5137 -55.6641 77.7832 -56.1523 79.6387 -56.1523 C 82.5195 -56.1523 84.2285 -54.2969 84.2285 -51.3672 L 84.2285 -18.75 C 84.2285 -16.0156 82.8125 -14.502 80.3711 -14.502 Z"/>
  </g>
  <g id="Medium-M" transform="matrix(1 0 0 1 1687.3 1126)">
   <path d="M 59.2285 15.2832 C 86.9141 15.2832 109.766 -7.56836 109.766 -35.2051 C 109.766 -62.8906 86.8652 -85.7422 59.1797 -85.7422 C 31.543 -85.7422 8.74023 -62.8906 8.74023 -35.2051 C 8.74023 -7.56836 31.5918 15.2832 59.2285 15.2832 Z M 37.1094 -14.7949 C 35.1074 -14.7949 33.7402 -16.1133 33.7402 -18.2129 C 33.7402 -19.3848 34.1309 -20.459 35.1562 -21.582 L 47.5098 -36.084 C 49.9023 -38.916 52.3438 -41.5039 52.3438 -44.5801 C 52.3438 -47.9492 49.9512 -50.2441 46.2891 -50.2441 C 43.0664 -50.2441 40.7227 -48.4863 39.5996 -45.1172 C 38.9648 -43.5059 38.0859 -42.5781 36.4258 -42.5781 C 34.4727 -42.5781 33.252 -43.8965 33.252 -45.8496 C 33.252 -46.582 33.3984 -47.168 33.4961 -47.8516 C 34.8633 -53.0273 40.1855 -56.7871 46.1426 -56.7871 C 54.0527 -56.7871 59.082 -52.1973 59.1309 -45.2148 C 59.1309 -40.2832 56.4941 -36.6699 52.7344 -32.2754 L 43.7988 -21.875 L 43.7988 -21.4844 L 56.9824 -21.4844 C 58.8379 -21.4844 60.2051 -20.3125 60.2051 -18.1641 C 60.2051 -16.1133 58.8379 -14.7949 56.9824 -14.7949 Z M 80.2246 -14.1602 C 78.0273 -14.1602 76.709 -15.5762 76.709 -18.0176 L 76.709 -47.5586 L 76.416 -47.5586 L 71.6797 -43.9453 C 70.459 -42.9199 69.9219 -42.7246 68.8965 -42.7246 C 67.2852 -42.7246 65.7715 -44.1895 65.7715 -45.9961 C 65.7715 -47.4609 66.4062 -48.4375 67.6758 -49.4629 L 74.8047 -54.541 C 76.7578 -56.0059 77.9297 -56.543 79.6875 -56.543 C 82.2266 -56.543 83.8379 -54.834 83.8379 -52.1973 L 83.8379 -18.0176 C 83.8379 -15.5762 82.5195 -14.1602 80.2246 -14.1602 Z"/>
  </g>
  <g id="Regular-M" transform="matrix(1 0 0 1 1391.3 1126)">
   <path d="M 58.5449 14.5508 C 85.791 14.5508 108.35 -8.00781 108.35 -35.2539 C 108.35 -62.4512 85.7422 -85.0586 58.4961 -85.0586 C 31.2988 -85.0586 8.74023 -62.4512 8.74023 -35.2539 C 8.74023 -8.00781 31.3477 14.5508 58.5449 14.5508 Z M 35.4492 -14.3555 C 33.5938 -14.3555 32.4219 -15.5273 32.4219 -17.334 C 32.4219 -18.3594 32.8125 -19.2383 33.5449 -20.1172 L 47.1191 -35.9863 C 49.5605 -38.8672 52.1973 -41.748 52.1973 -45.0684 C 52.1973 -48.877 49.5605 -51.4648 45.4102 -51.4648 C 41.748 -51.4648 39.1113 -49.5117 37.8418 -45.7031 C 37.207 -44.1406 36.4258 -43.3105 34.9121 -43.3105 C 33.1543 -43.3105 32.0312 -44.5312 32.0312 -46.3379 C 32.0312 -46.9727 32.1777 -47.5586 32.2754 -48.1934 C 33.5938 -53.4668 39.0625 -57.3242 45.166 -57.3242 C 53.2227 -57.3242 58.4473 -52.7344 58.4473 -45.6543 C 58.4473 -40.5762 55.5664 -36.8164 51.8555 -32.4219 L 41.7969 -20.7031 L 41.7969 -20.3613 L 56.6895 -20.3613 C 58.252 -20.3613 59.4727 -19.2871 59.4727 -17.334 C 59.4727 -15.5273 58.252 -14.3555 56.6895 -14.3555 Z M 80.0781 -13.7207 C 78.1738 -13.7207 76.9531 -14.9902 76.9531 -17.041 L 76.9531 -48.8281 L 76.6113 -48.8281 L 71.1914 -44.8242 C 69.9707 -43.8965 69.4824 -43.8477 68.6523 -43.8477 C 67.1875 -43.8477 65.7227 -45.2148 65.7227 -46.9238 C 65.7227 -48.291 66.3574 -49.1699 67.4316 -49.9512 L 75.2441 -55.2734 C 77.0508 -56.4941 78.0273 -57.0312 79.7363 -57.0312 C 81.8848 -57.0312 83.3496 -55.5176 83.3496 -53.3203 L 83.3496 -17.041 C 83.3496 -14.9902 82.0801 -13.7207 80.0781 -13.7207 Z"/>
  </g>
  <g id="Light-M" transform="matrix(1 0 0 1 1095.42 1126)">
   <path d="M 57.7148 13.7695 C 84.5215 13.7695 106.689 -8.39844 106.689 -35.2051 C 106.689 -62.0117 84.5215 -84.1797 57.666 -84.1797 C 30.8594 -84.1797 8.74023 -62.0117 8.74023 -35.2051 C 8.74023 -8.39844 30.9082 13.7695 57.7148 13.7695 Z M 34.5215 -14.4531 C 33.0078 -14.4531 31.9824 -15.4297 31.9824 -16.9434 C 31.9824 -17.8223 32.2754 -18.5059 32.9102 -19.1895 L 47.1191 -35.791 C 49.9023 -39.0625 52.1973 -41.8945 52.1973 -45.2637 C 52.1973 -49.5117 49.2188 -52.2949 44.4824 -52.2949 C 40.1367 -52.2949 37.0605 -49.8047 36.084 -45.6543 C 35.5957 -44.3359 34.9609 -43.6035 33.6426 -43.6035 C 32.2266 -43.6035 31.2988 -44.6289 31.2988 -46.1426 C 31.2988 -46.6797 31.3965 -47.168 31.4941 -47.8027 C 32.666 -53.125 38.1348 -57.0801 44.3359 -57.0801 C 52.1484 -57.0801 57.2754 -52.5879 57.2754 -45.6055 C 57.2754 -40.918 54.7363 -37.3047 50.6836 -32.5684 L 39.502 -19.5801 L 39.502 -19.3359 L 56.0547 -19.3359 C 57.4219 -19.3359 58.3496 -18.4082 58.3496 -16.8945 C 58.3496 -15.4297 57.4219 -14.4531 56.0547 -14.4531 Z M 79.1504 -13.916 C 77.6367 -13.916 76.6113 -14.9414 76.6113 -16.5527 L 76.6113 -50.1953 L 76.3672 -50.1953 L 69.5312 -45.459 C 68.6523 -44.8242 68.3105 -44.7754 67.6758 -44.7754 C 66.4551 -44.7754 65.332 -45.8984 65.332 -47.2168 C 65.332 -48.291 65.7715 -48.9746 66.6504 -49.6094 L 75.3418 -55.4199 C 76.709 -56.3477 77.5391 -56.7383 78.8574 -56.7383 C 80.5664 -56.7383 81.7383 -55.5664 81.7383 -53.8086 L 81.7383 -16.5527 C 81.7383 -14.9414 80.7617 -13.916 79.1504 -13.916 Z"/>
  </g>
  <g id="Thin-M" transform="matrix(1 0 0 1 799.806 1126)">
   <path d="M 56.6406 12.7441 C 82.9102 12.7441 104.492 -8.83789 104.492 -35.1562 C 104.492 -61.4746 82.9102 -83.0566 56.5918 -83.0566 C 30.3223 -83.0566 8.74023 -61.4746 8.74023 -35.1562 C 8.74023 -8.83789 30.3223 12.7441 56.6406 12.7441 Z M 33.3008 -14.5508 C 32.1777 -14.5508 31.3965 -15.2832 31.3965 -16.4062 C 31.3965 -17.0898 31.5918 -17.5293 32.0312 -18.0176 L 47.168 -35.5469 C 50.3906 -39.3555 52.1484 -42.1387 52.1484 -45.5078 C 52.1484 -50.293 48.7793 -53.3691 43.2617 -53.3691 C 38.0859 -53.3691 34.2773 -50.1465 33.7891 -45.6055 C 33.5449 -44.6289 33.0078 -44.043 31.9824 -44.043 C 30.957 -44.043 30.2734 -44.7754 30.2734 -45.8008 C 30.2734 -46.2891 30.3711 -46.6309 30.4199 -47.2168 C 31.4453 -52.7344 36.8652 -56.6895 43.2129 -56.6895 C 50.7324 -56.6895 55.7129 -52.3438 55.7129 -45.5566 C 55.7129 -41.4551 53.6133 -37.9395 49.1211 -32.7637 L 36.4746 -18.0664 L 36.4746 -17.9199 L 55.2246 -17.9199 C 56.25 -17.9199 56.8848 -17.2363 56.8848 -16.2598 C 56.8848 -15.332 56.25 -14.5508 55.2246 -14.5508 Z M 77.9297 -14.209 C 76.9531 -14.209 76.2207 -14.8438 76.2207 -15.918 L 76.2207 -52.002 L 75.9766 -52.002 L 67.3828 -46.3379 C 66.9434 -46.0449 66.748 -46.0449 66.3574 -46.0449 C 65.4785 -46.0449 64.7949 -46.7285 64.7949 -47.6074 C 64.7949 -48.291 64.9902 -48.7793 65.625 -49.1699 L 75.4883 -55.6641 C 76.3184 -56.1523 76.8066 -56.3965 77.6855 -56.3965 C 78.8086 -56.3965 79.6387 -55.6152 79.6387 -54.4434 L 79.6387 -15.918 C 79.6387 -14.8438 79.0039 -14.209 77.9297 -14.209 Z"/>
  </g>
  <g id="Ultralight-M" transform="matrix(1 0 0 1 503.656 1126)">
   <path d="M 56.0547 12.207 C 82.0801 12.207 103.369 -9.08203 103.369 -35.1562 C 103.369 -61.1816 82.0801 -82.4707 56.0547 -82.4707 C 30.0293 -82.4707 8.74023 -61.1816 8.74023 -35.1562 C 8.74023 -9.08203 30.0293 12.207 56.0547 12.207 Z M 32.666 -14.6484 C 31.7871 -14.6484 31.1035 -15.1855 31.1035 -16.1133 C 31.1035 -16.6992 31.2012 -17.041 31.5918 -17.3828 L 47.2168 -35.4492 C 50.6348 -39.502 52.0996 -42.2363 52.0996 -45.6055 C 52.0996 -50.6836 48.5352 -53.9551 42.6758 -53.9551 C 37.0117 -53.9551 32.8613 -50.3418 32.5684 -45.6055 C 32.4707 -44.7266 32.0312 -44.2383 31.1035 -44.2383 C 30.3223 -44.2383 29.7852 -44.873 29.7852 -45.6543 C 29.7852 -46.0938 29.834 -46.3867 29.8828 -46.9727 C 30.8105 -52.4902 36.2305 -56.4941 42.6758 -56.4941 C 50 -56.4941 54.9316 -52.1973 54.9316 -45.5566 C 54.9316 -41.6992 53.0273 -38.2812 48.291 -32.8613 L 34.9121 -17.334 L 34.9121 -17.1875 L 54.834 -17.1875 C 55.6641 -17.1875 56.1035 -16.6504 56.1035 -15.918 C 56.1035 -15.2344 55.6641 -14.6484 54.834 -14.6484 Z M 77.2949 -14.3066 C 76.5625 -14.3066 76.0254 -14.7949 76.0254 -15.625 L 76.0254 -52.9297 L 75.7812 -52.9297 L 66.3086 -46.7773 C 66.0645 -46.6309 65.9668 -46.6309 65.7227 -46.6309 C 64.9902 -46.6309 64.502 -47.2168 64.502 -47.8027 C 64.502 -48.291 64.5996 -48.6328 65.0879 -48.9746 L 75.5371 -55.7617 C 76.0742 -56.0547 76.4648 -56.2012 77.0508 -56.2012 C 77.9297 -56.2012 78.5645 -55.6641 78.5645 -54.7852 L 78.5645 -15.625 C 78.5645 -14.7949 78.0762 -14.3066 77.2949 -14.3066 Z"/>
  </g>
  <g id="Black-S" transform="matrix(1 0 0 1 2884.57 696)">
   <path d="M 48.8281 6.78711 C 71.9727 6.78711 90.8203 -12.0605 90.8203 -35.2051 C 90.8203 -58.3496 71.9727 -77.1973 48.8281 -77.1973 C 25.6836 -77.1973 6.83594 -58.3496 6.83594 -35.2051 C 6.83594 -12.0605 25.6836 6.78711 48.8281 6.78711 Z M 34.8633 -20.8008 C 32.666 -20.8008 30.9082 -22.3145 30.9082 -24.8047 C 30.9082 -26.416 31.4453 -27.7832 33.0078 -29.541 L 38.623 -36.1816 C 40.3809 -38.2324 41.5039 -39.3555 41.5039 -40.8691 C 41.5039 -41.8945 40.5273 -42.7734 39.3555 -42.7734 C 38.2812 -42.7734 37.4023 -42.041 37.1094 -40.9668 C 36.6699 -39.5508 35.6445 -38.4766 33.6426 -38.4766 C 31.5918 -38.4766 30.2734 -39.9414 30.2734 -41.8945 C 30.2734 -42.6758 30.3711 -43.2617 30.5664 -43.9453 C 31.6406 -47.7539 35.3516 -50.2441 39.6973 -50.2441 C 45.2637 -50.2441 48.584 -46.582 48.6816 -41.6016 C 48.7305 -38.3301 47.3145 -35.7422 44.3359 -32.3242 L 41.3086 -28.8086 L 41.3086 -28.418 L 45.6543 -28.418 C 48.0957 -28.418 49.6094 -27.0508 49.6094 -24.707 C 49.6094 -22.2168 48.0957 -20.8008 45.6543 -20.8008 Z M 63.3789 -20.2637 C 60.5957 -20.2637 59.3262 -21.8262 59.3262 -25.0977 L 59.3262 -40.3809 L 59.1797 -40.3809 L 58.0078 -38.9648 C 57.0801 -37.793 56.25 -37.207 54.834 -37.207 C 53.0273 -37.207 51.6602 -38.7207 51.6602 -40.4785 C 51.6602 -42.041 52.2461 -43.1641 53.8574 -44.6777 L 57.0801 -47.8027 C 59.1309 -49.8047 60.5469 -50.2441 62.207 -50.2441 C 65.6738 -50.2441 67.3828 -48.2422 67.3828 -44.7266 L 67.3828 -25.0977 C 67.3828 -21.8262 66.1133 -20.2637 63.3789 -20.2637 Z"/>
  </g>
  <g id="Heavy-S" transform="matrix(1 0 0 1 2588.47 696)">
   <path d="M 48.2422 6.15234 C 70.9961 6.15234 89.5996 -12.4512 89.5996 -35.2051 C 89.5996 -57.959 70.9961 -76.6113 48.1934 -76.6113 C 25.4395 -76.6113 6.83594 -57.959 6.83594 -35.2051 C 6.83594 -12.4512 25.4395 6.15234 48.2422 6.15234 Z M 33.3008 -20.3125 C 31.25 -20.3125 29.6387 -21.7285 29.6387 -24.0234 C 29.6387 -25.4395 30.127 -26.6602 31.4941 -28.1738 L 38.2324 -36.1328 C 39.9902 -38.1836 41.3574 -39.5508 41.3574 -41.3574 C 41.3574 -42.7734 40.1367 -43.8965 38.5742 -43.8965 C 37.1582 -43.8965 36.0352 -43.0664 35.5469 -41.5527 C 35.0586 -40.1367 34.1309 -39.1602 32.3242 -39.1602 C 30.3711 -39.1602 29.1504 -40.5273 29.1504 -42.3828 C 29.1504 -43.1152 29.248 -43.7012 29.3945 -44.3359 C 30.4688 -48.1934 34.3262 -50.8301 38.7695 -50.8301 C 44.5312 -50.8301 48.0469 -47.168 48.1445 -42.041 C 48.1445 -38.5254 46.5332 -35.8398 43.6035 -32.4707 L 39.5508 -27.7832 L 39.5508 -27.3926 L 45.4102 -27.3926 C 47.6074 -27.3926 49.0234 -26.123 49.0234 -23.9258 C 49.0234 -21.6797 47.6074 -20.3125 45.4102 -20.3125 Z M 63.3301 -19.7754 C 60.791 -19.7754 59.5703 -21.2402 59.5703 -24.1699 L 59.5703 -41.5039 L 59.4238 -41.5039 L 57.666 -39.7949 C 56.6895 -38.6719 55.957 -38.2324 54.6875 -38.2324 C 53.0273 -38.2324 51.6602 -39.6484 51.6602 -41.3574 C 51.6602 -42.8711 52.2461 -43.8965 53.7109 -45.2148 L 57.5195 -48.5352 C 59.4727 -50.3418 60.7422 -50.7812 62.3535 -50.7812 C 65.4785 -50.7812 67.0898 -48.9258 67.0898 -45.752 L 67.0898 -24.1699 C 67.0898 -21.2402 65.8203 -19.7754 63.3301 -19.7754 Z"/>
  </g>
  <g id="Bold-S" transform="matrix(1 0 0 1 2292.44 696)">
   <path d="M 47.5586 5.46875 C 69.873 5.46875 88.2324 -12.8906 88.2324 -35.2051 C 88.2324 -57.5684 69.873 -75.9277 47.5098 -75.9277 C 25.1953 -75.9277 6.83594 -57.5684 6.83594 -35.2051 C 6.83594 -12.8906 25.1953 5.46875 47.5586 5.46875 Z M 31.543 -19.8242 C 29.6387 -19.8242 28.2715 -21.0938 28.2715 -23.0957 C 28.2715 -24.3652 28.7109 -25.4395 29.7852 -26.709 L 37.7441 -36.0352 C 39.502 -38.0859 41.2109 -39.7949 41.2109 -41.8457 C 41.2109 -43.75 39.7461 -45.166 37.6953 -45.166 C 35.8887 -45.166 34.5215 -44.1406 33.7891 -42.1875 C 33.3008 -40.8203 32.4219 -39.9414 30.8105 -39.9414 C 29.0039 -39.9414 27.8809 -41.2109 27.8809 -42.9688 C 27.8809 -43.6523 27.9785 -44.1406 28.125 -44.7754 C 29.1992 -48.7305 33.2031 -51.4648 37.7441 -51.4648 C 43.75 -51.4648 47.4609 -47.8027 47.5098 -42.4805 C 47.5586 -38.7695 45.6543 -35.9863 42.7734 -32.666 L 37.5488 -26.6113 L 37.5488 -26.2695 L 45.166 -26.2695 C 47.0703 -26.2695 48.3887 -25.0977 48.3887 -23.0957 C 48.3887 -21.0449 47.0703 -19.8242 45.166 -19.8242 Z M 63.2812 -19.2871 C 61.0352 -19.2871 59.8633 -20.6055 59.8633 -23.1445 L 59.8633 -42.8223 L 59.668 -42.8223 L 57.2754 -40.7227 C 56.25 -39.6973 55.6152 -39.3555 54.541 -39.3555 C 52.9785 -39.3555 51.6602 -40.7227 51.6602 -42.334 C 51.6602 -43.75 52.2461 -44.6777 53.5156 -45.8008 L 58.0078 -49.3164 C 59.8145 -50.8789 60.9863 -51.3672 62.5488 -51.3672 C 65.2344 -51.3672 66.6992 -49.6582 66.6992 -46.9238 L 66.6992 -23.1445 C 66.6992 -20.6055 65.5273 -19.2871 63.2812 -19.2871 Z"/>
  </g>
  <g id="Semibold-S" transform="matrix(1 0 0 1 1996.2 696)">
   <path d="M 47.0703 4.98047 C 69.0918 4.98047 87.3047 -13.1836 87.3047 -35.2539 C 87.3047 -57.2754 69.0918 -75.4883 47.0215 -75.4883 C 25 -75.4883 6.83594 -57.2754 6.83594 -35.2539 C 6.83594 -13.1836 25.0488 4.98047 47.0703 4.98047 Z M 30.3223 -19.4336 C 28.5156 -19.4336 27.2949 -20.6543 27.2949 -22.5098 C 27.2949 -23.584 27.6855 -24.5605 28.6621 -25.6348 L 37.4512 -35.9863 C 39.209 -38.0371 41.1133 -39.9902 41.1133 -42.2363 C 41.1133 -44.4336 39.4531 -46.0449 37.0605 -46.0449 C 34.9609 -46.0449 33.4961 -44.9219 32.6172 -42.6758 C 32.0312 -41.3086 31.25 -40.4785 29.7852 -40.4785 C 28.0762 -40.4785 27.002 -41.6504 27.002 -43.3594 C 27.002 -43.9941 27.0996 -44.4824 27.1973 -45.0684 C 28.3203 -49.0723 32.4219 -51.9043 37.0117 -51.9043 C 43.1641 -51.9043 47.0703 -48.2422 47.0703 -42.8223 C 47.1191 -38.916 45.0195 -36.084 42.1875 -32.7637 L 36.1816 -25.7812 L 36.1816 -25.4883 L 44.9707 -25.4883 C 46.7285 -25.4883 47.9492 -24.4141 47.9492 -22.5098 C 47.9492 -20.6055 46.7285 -19.4336 44.9707 -19.4336 Z M 63.2324 -18.8965 C 61.1816 -18.8965 60.0586 -20.166 60.0586 -22.4609 L 60.0586 -43.7012 L 59.8633 -43.7012 L 56.9824 -41.3086 C 55.957 -40.3809 55.3711 -40.1855 54.4434 -40.1855 C 52.9785 -40.1855 51.6602 -41.4551 51.6602 -43.0176 C 51.6602 -44.3848 52.2461 -45.2637 53.418 -46.1914 L 58.3008 -49.9023 C 60.0586 -51.2695 61.1328 -51.7578 62.6953 -51.7578 C 65.0879 -51.7578 66.5039 -50.1953 66.5039 -47.7539 L 66.5039 -22.4609 C 66.5039 -20.166 65.2832 -18.8965 63.2324 -18.8965 Z"/>
  </g>
  <g id="Medium-S" transform="matrix(1 0 0 1 1699.83 696)">
   <path d="M 46.7285 4.63867 C 68.5547 4.63867 86.6211 -13.4277 86.6211 -35.2539 C 86.6211 -57.0312 68.5059 -75.1465 46.6797 -75.1465 C 24.8535 -75.1465 6.83594 -57.0312 6.83594 -35.2539 C 6.83594 -13.4277 24.9023 4.63867 46.7285 4.63867 Z M 29.4434 -19.1895 C 27.6855 -19.1895 26.5625 -20.3125 26.5625 -22.0215 C 26.5625 -23.0469 26.9531 -23.9258 27.7344 -24.8535 L 37.207 -35.9375 C 38.9648 -38.0371 41.0156 -40.0879 41.0156 -42.4805 C 41.0156 -44.9707 39.2578 -46.6797 36.6211 -46.6797 C 34.3262 -46.6797 32.7148 -45.5078 31.6895 -43.0176 C 31.1035 -41.6504 30.3711 -40.8691 29.0039 -40.8691 C 27.3438 -40.8691 26.3184 -41.9922 26.3184 -43.6523 C 26.3184 -44.2383 26.416 -44.7266 26.5625 -45.3125 C 27.6367 -49.3164 31.8359 -52.2461 36.4746 -52.2461 C 42.7734 -52.2461 46.7285 -48.584 46.7773 -43.0664 C 46.7773 -39.0625 44.5801 -36.1816 41.748 -32.8613 L 35.1562 -25.1953 L 35.1562 -24.9023 L 44.873 -24.9023 C 46.4355 -24.9023 47.6074 -23.877 47.6074 -22.0215 C 47.6074 -20.2637 46.4355 -19.1895 44.873 -19.1895 Z M 63.2324 -18.6523 C 61.3281 -18.6523 60.2051 -19.873 60.2051 -21.9238 L 60.2051 -44.3359 L 59.9609 -44.3359 L 56.7871 -41.7969 C 55.7129 -40.918 55.2246 -40.7715 54.3457 -40.7715 C 52.9785 -40.7715 51.709 -41.9922 51.709 -43.5547 C 51.709 -44.8242 52.2461 -45.6543 53.3203 -46.5332 L 58.5938 -50.293 C 60.2539 -51.6113 61.2305 -52.0508 62.793 -52.0508 C 64.9414 -52.0508 66.3086 -50.5859 66.3086 -48.3398 L 66.3086 -21.9238 C 66.3086 -19.873 65.1367 -18.6523 63.2324 -18.6523 Z"/>
  </g>
  <g id="Regular-S" transform="matrix(1 0 0 1 1403.58 696)">
   <path d="M 46.2402 4.15039 C 67.7734 4.15039 85.6934 -13.7207 85.6934 -35.2539 C 85.6934 -56.7871 67.7246 -74.6582 46.1914 -74.6582 C 24.707 -74.6582 6.83594 -56.7871 6.83594 -35.2539 C 6.83594 -13.7207 24.7559 4.15039 46.2402 4.15039 Z M 28.2227 -18.7988 C 26.6113 -18.7988 25.6348 -19.873 25.6348 -21.4355 C 25.6348 -22.2656 25.9277 -23.0957 26.6113 -23.8281 L 36.8652 -35.8887 C 38.623 -37.9883 40.918 -40.2832 40.918 -42.8711 C 40.918 -45.6543 38.9648 -47.5586 35.9863 -47.5586 C 33.4473 -47.5586 31.6406 -46.2891 30.4688 -43.457 C 29.8828 -42.1387 29.1992 -41.4062 27.9785 -41.4062 C 26.416 -41.4062 25.4883 -42.4316 25.4883 -44.043 C 25.4883 -44.5801 25.5859 -45.0684 25.6348 -45.6055 C 26.7578 -49.6582 31.0547 -52.6855 35.7422 -52.6855 C 42.2363 -52.6855 46.3379 -49.0234 46.3379 -43.4082 C 46.3379 -39.209 43.9453 -36.2793 41.1621 -32.959 L 33.8379 -24.3652 L 33.8379 -24.1211 L 44.6777 -24.1211 C 46.0449 -24.1211 47.1191 -23.1445 47.1191 -21.4355 C 47.1191 -19.873 46.0449 -18.7988 44.6777 -18.7988 Z M 63.1836 -18.3105 C 61.4746 -18.3105 60.4004 -19.4336 60.4004 -21.1914 L 60.4004 -45.2148 L 60.1562 -45.2148 L 56.543 -42.4316 C 55.4199 -41.6016 54.9805 -41.5527 54.248 -41.5527 C 52.9785 -41.5527 51.709 -42.7246 51.709 -44.2383 C 51.709 -45.459 52.2461 -46.1914 53.2227 -46.9238 L 58.8867 -50.8789 C 60.498 -52.002 61.377 -52.4414 62.8906 -52.4414 C 64.7949 -52.4414 66.0645 -51.0742 66.0645 -49.1699 L 66.0645 -21.1914 C 66.0645 -19.4336 64.9414 -18.3105 63.1836 -18.3105 Z"/>
  </g>
  <g id="Light-S" transform="matrix(1 0 0 1 1107.6 696)">
   <path d="M 45.5078 3.4668 C 66.6992 3.4668 84.2285 -14.0625 84.2285 -35.2051 C 84.2285 -56.3965 66.6504 -73.9258 45.5078 -73.9258 C 24.3164 -73.9258 6.83594 -56.3965 6.83594 -35.2051 C 6.83594 -14.0625 24.3652 3.4668 45.5078 3.4668 Z M 27.3926 -18.8965 C 26.0742 -18.8965 25.1953 -19.7754 25.1953 -21.0449 C 25.1953 -21.7773 25.4883 -22.4121 26.0254 -23.0469 L 36.9141 -35.7422 C 38.9648 -38.1836 40.8691 -40.4297 40.8691 -43.0176 C 40.8691 -46.1914 38.6719 -48.291 35.2051 -48.291 C 32.0312 -48.291 29.834 -46.5332 28.9551 -43.4082 C 28.4668 -42.2852 27.9297 -41.6992 26.8555 -41.6992 C 25.5859 -41.6992 24.8047 -42.5293 24.8047 -43.8477 C 24.8047 -44.3359 24.8535 -44.7266 24.9512 -45.2148 C 25.9277 -49.3652 30.2246 -52.4414 35.0098 -52.4414 C 41.2598 -52.4414 45.3125 -48.877 45.3125 -43.3594 C 45.3125 -39.5508 43.2129 -36.6699 40.1367 -33.1055 L 31.7871 -23.3887 L 31.7871 -23.1445 L 44.1406 -23.1445 C 45.3125 -23.1445 46.1426 -22.3633 46.1426 -21.0449 C 46.1426 -19.7754 45.3125 -18.8965 44.1406 -18.8965 Z M 62.3535 -18.457 C 61.0352 -18.457 60.1562 -19.3848 60.1562 -20.8008 L 60.1562 -46.4355 L 59.9121 -46.4355 L 55.0781 -43.0176 C 54.248 -42.3828 53.9551 -42.3828 53.3691 -42.3828 C 52.2949 -42.3828 51.3184 -43.3105 51.3184 -44.4824 C 51.3184 -45.459 51.7578 -46.0449 52.4902 -46.6309 L 58.9844 -51.0254 C 60.2051 -51.8555 60.9375 -52.1973 62.1094 -52.1973 C 63.623 -52.1973 64.6484 -51.123 64.6484 -49.6094 L 64.6484 -20.8008 C 64.6484 -19.3848 63.7695 -18.457 62.3535 -18.457 Z"/>
  </g>
  <g id="Thin-S" transform="matrix(1 0 0 1 811.867 696)">
   <path d="M 44.5801 2.53906 C 65.2832 2.53906 82.2754 -14.4531 82.2754 -35.2051 C 82.2754 -55.9082 65.2344 -72.9004 44.5312 -72.9004 C 23.8281 -72.9004 6.83594 -55.9082 6.83594 -35.2051 C 6.83594 -14.4531 23.877 2.53906 44.5801 2.53906 Z M 26.3184 -18.9941 C 25.3418 -18.9941 24.707 -19.6289 24.707 -20.5566 C 24.707 -21.1426 24.8535 -21.5332 25.2441 -21.9727 L 36.9141 -35.5469 C 39.3555 -38.4277 40.8691 -40.5762 40.8691 -43.2129 C 40.8691 -46.875 38.2812 -49.2188 34.1309 -49.2188 C 30.2246 -49.2188 27.3926 -46.875 26.9043 -43.4082 C 26.6602 -42.5293 26.2207 -42.041 25.3418 -42.041 C 24.4629 -42.041 23.9258 -42.6758 23.9258 -43.6035 C 23.9258 -43.9941 23.9746 -44.2871 24.0234 -44.7266 C 24.8535 -49.0234 29.1016 -52.0996 34.082 -52.0996 C 39.9902 -52.0996 43.9453 -48.6816 43.9453 -43.3594 C 43.9453 -39.9902 42.1875 -37.2559 38.7695 -33.252 L 29.1504 -22.0703 L 29.1504 -21.9238 L 43.4082 -21.9238 C 44.2871 -21.9238 44.8242 -21.3379 44.8242 -20.459 C 44.8242 -19.6777 44.2871 -18.9941 43.4082 -18.9941 Z M 61.2793 -18.7012 C 60.4004 -18.7012 59.8145 -19.2871 59.8145 -20.2148 L 59.8145 -47.998 L 59.5703 -47.998 L 53.2227 -43.75 C 52.7832 -43.457 52.5879 -43.457 52.2461 -43.457 C 51.4648 -43.457 50.8301 -44.0918 50.8301 -44.8242 C 50.8301 -45.459 51.0742 -45.8984 51.6113 -46.2402 L 59.082 -51.1719 C 59.8633 -51.6602 60.3027 -51.8555 61.084 -51.8555 C 62.0605 -51.8555 62.793 -51.1719 62.793 -50.1465 L 62.793 -20.2148 C 62.793 -19.2871 62.207 -18.7012 61.2793 -18.7012 Z"/>
  </g>
  <g id="Ultralight-S" transform="matrix(1 0 0 1 515.644 696)">
   <path d="M 44.043 2.05078 C 64.502 2.05078 81.2988 -14.6973 81.2988 -35.1562 C 81.2988 -55.6152 64.502 -72.3633 44.043 -72.3633 C 23.584 -72.3633 6.83594 -55.6152 6.83594 -35.1562 C 6.83594 -14.6973 23.584 2.05078 44.043 2.05078 Z M 25.7812 -19.0918 C 25 -19.0918 24.4141 -19.5312 24.4141 -20.3125 C 24.4141 -20.8496 24.5117 -21.0938 24.8535 -21.4355 L 36.9629 -35.4492 C 39.5996 -38.5254 40.8203 -40.7227 40.8203 -43.3105 C 40.8203 -47.2168 38.0859 -49.7559 33.5938 -49.7559 C 29.248 -49.7559 26.123 -47.0215 25.8301 -43.3594 C 25.6836 -42.627 25.3418 -42.2363 24.6094 -42.2363 C 23.9258 -42.2363 23.4375 -42.7734 23.4375 -43.457 C 23.4375 -43.7988 23.4863 -44.043 23.5352 -44.4824 C 24.3164 -48.8281 28.5645 -51.9531 33.5449 -51.9531 C 39.3555 -51.9531 43.2129 -48.584 43.2129 -43.3105 C 43.2129 -40.2344 41.6504 -37.5488 38.0371 -33.3496 L 27.7344 -21.3867 L 27.7344 -21.2891 L 43.0664 -21.2891 C 43.75 -21.2891 44.1406 -20.8008 44.1406 -20.166 C 44.1406 -19.5801 43.75 -19.0918 43.0664 -19.0918 Z M 60.7422 -18.7988 C 60.0586 -18.7988 59.6191 -19.2383 59.6191 -19.9219 L 59.6191 -48.8281 L 59.4238 -48.8281 L 52.2461 -44.1406 C 52.002 -43.9941 51.8555 -43.9941 51.6602 -43.9941 C 51.0254 -43.9941 50.5859 -44.4824 50.5859 -45.0195 C 50.5859 -45.459 50.7324 -45.752 51.123 -46.0449 L 59.1797 -51.3184 C 59.668 -51.5625 59.9609 -51.709 60.5469 -51.709 C 61.2793 -51.709 61.8164 -51.2207 61.8164 -50.4883 L 61.8164 -19.9219 C 61.8164 -19.2383 61.4258 -18.7988 60.7422 -18.7988 Z"/>
  </g>
 </g>
</svg>
