<?xml version="1.0" encoding="UTF-8"?>
<!--Generator: Apple Native CoreSVG 123-->
<!DOCTYPE svg
PUBLIC "-//W3C//DTD SVG 1.1//EN"
       "http://www.w3.org/Graphics/SVG/1.1/DTD/svg11.dtd">
<svg version="1.1" xmlns="http://www.w3.org/2000/svg" xmlns:xlink="http://www.w3.org/1999/xlink" width="3300" height="2200">
 <!--glyph: "uni100520.medium", point size: 100.000000, font version: "Version 15.0d7e11", template writer version: "5"-->
 <g id="Notes">
  <rect height="2200" id="artboard" style="fill:white;opacity:1" width="3300" x="0" y="0"/>
  <line id="" style="fill:none;stroke:black;opacity:1;stroke-width:0.5;" x1="263" x2="3036" y1="292" y2="292"/>
  <text style="stroke:none;fill:black;font-family:-apple-system,&quot;SF Pro Display&quot;,&quot;SF Pro Text&quot;,Helvetica,sans-serif;font-weight:bold;" transform="matrix(1 0 0 1 263 322)">Weight/Scale Variations</text>
  <text style="stroke:none;fill:black;font-family:-apple-system,&quot;SF Pro Display&quot;,&quot;SF Pro Text&quot;,Helvetica,sans-serif;text-anchor:middle;" transform="matrix(1 0 0 1 559.711 322)">Ultralight</text>
  <text style="stroke:none;fill:black;font-family:-apple-system,&quot;SF Pro Display&quot;,&quot;SF Pro Text&quot;,Helvetica,sans-serif;text-anchor:middle;" transform="matrix(1 0 0 1 856.422 322)">Thin</text>
  <text style="stroke:none;fill:black;font-family:-apple-system,&quot;SF Pro Display&quot;,&quot;SF Pro Text&quot;,Helvetica,sans-serif;text-anchor:middle;" transform="matrix(1 0 0 1 1153.13 322)">Light</text>
  <text style="stroke:none;fill:black;font-family:-apple-system,&quot;SF Pro Display&quot;,&quot;SF Pro Text&quot;,Helvetica,sans-serif;text-anchor:middle;" transform="matrix(1 0 0 1 1449.84 322)">Regular</text>
  <text style="stroke:none;fill:black;font-family:-apple-system,&quot;SF Pro Display&quot;,&quot;SF Pro Text&quot;,Helvetica,sans-serif;text-anchor:middle;" transform="matrix(1 0 0 1 1746.56 322)">Medium</text>
  <text style="stroke:none;fill:black;font-family:-apple-system,&quot;SF Pro Display&quot;,&quot;SF Pro Text&quot;,Helvetica,sans-serif;text-anchor:middle;" transform="matrix(1 0 0 1 2043.27 322)">Semibold</text>
  <text style="stroke:none;fill:black;font-family:-apple-system,&quot;SF Pro Display&quot;,&quot;SF Pro Text&quot;,Helvetica,sans-serif;text-anchor:middle;" transform="matrix(1 0 0 1 2339.98 322)">Bold</text>
  <text style="stroke:none;fill:black;font-family:-apple-system,&quot;SF Pro Display&quot;,&quot;SF Pro Text&quot;,Helvetica,sans-serif;text-anchor:middle;" transform="matrix(1 0 0 1 2636.69 322)">Heavy</text>
  <text style="stroke:none;fill:black;font-family:-apple-system,&quot;SF Pro Display&quot;,&quot;SF Pro Text&quot;,Helvetica,sans-serif;text-anchor:middle;" transform="matrix(1 0 0 1 2933.4 322)">Black</text>
  <line id="" style="fill:none;stroke:black;opacity:1;stroke-width:0.5;" x1="263" x2="3036" y1="1903" y2="1903"/>
  <g id="" transform="matrix(1 0 0 1 263 1933)">
   <path d="M 9.24805 0.830078 C 13.5547 0.830078 17.1387 -2.74414 17.1387 -7.05078 C 17.1387 -11.3574 13.5449 -14.9316 9.23828 -14.9316 C 4.94141 -14.9316 1.36719 -11.3574 1.36719 -7.05078 C 1.36719 -2.74414 4.95117 0.830078 9.24805 0.830078 Z M 9.24805 -0.654297 C 5.70312 -0.654297 2.87109 -3.49609 2.87109 -7.05078 C 2.87109 -10.6055 5.69336 -13.4473 9.23828 -13.4473 C 12.793 -13.4473 15.6348 -10.6055 15.6445 -7.05078 C 15.6543 -3.49609 12.8027 -0.654297 9.24805 -0.654297 Z M 9.22852 -3.42773 C 9.69727 -3.42773 9.9707 -3.74023 9.9707 -4.25781 L 9.9707 -6.31836 L 12.1973 -6.31836 C 12.6953 -6.31836 13.0371 -6.57227 13.0371 -7.04102 C 13.0371 -7.51953 12.7148 -7.7832 12.1973 -7.7832 L 9.9707 -7.7832 L 9.9707 -10.0098 C 9.9707 -10.5273 9.69727 -10.8496 9.22852 -10.8496 C 8.75977 -10.8496 8.50586 -10.5078 8.50586 -10.0098 L 8.50586 -7.7832 L 6.29883 -7.7832 C 5.78125 -7.7832 5.44922 -7.51953 5.44922 -7.04102 C 5.44922 -6.57227 5.80078 -6.31836 6.29883 -6.31836 L 8.50586 -6.31836 L 8.50586 -4.25781 C 8.50586 -3.75977 8.75977 -3.42773 9.22852 -3.42773 Z"/>
  </g>
  <g id="" transform="matrix(1 0 0 1 281.506 1933)">
   <path d="M 11.709 2.91016 C 17.1582 2.91016 21.6699 -1.60156 21.6699 -7.05078 C 21.6699 -12.4902 17.1484 -17.0117 11.6992 -17.0117 C 6.25977 -17.0117 1.74805 -12.4902 1.74805 -7.05078 C 1.74805 -1.60156 6.26953 2.91016 11.709 2.91016 Z M 11.709 1.25 C 7.09961 1.25 3.41797 -2.44141 3.41797 -7.05078 C 3.41797 -11.6504 7.08984 -15.3516 11.6992 -15.3516 C 16.3086 -15.3516 20 -11.6504 20.0098 -7.05078 C 20.0195 -2.44141 16.3184 1.25 11.709 1.25 Z M 11.6895 -2.41211 C 12.207 -2.41211 12.5195 -2.77344 12.5195 -3.33984 L 12.5195 -6.23047 L 15.5762 -6.23047 C 16.123 -6.23047 16.5039 -6.51367 16.5039 -7.03125 C 16.5039 -7.55859 16.1426 -7.86133 15.5762 -7.86133 L 12.5195 -7.86133 L 12.5195 -10.9277 C 12.5195 -11.5039 12.207 -11.8555 11.6895 -11.8555 C 11.1719 -11.8555 10.8789 -11.4844 10.8789 -10.9277 L 10.8789 -7.86133 L 7.83203 -7.86133 C 7.26562 -7.86133 6.89453 -7.55859 6.89453 -7.03125 C 6.89453 -6.51367 7.28516 -6.23047 7.83203 -6.23047 L 10.8789 -6.23047 L 10.8789 -3.33984 C 10.8789 -2.79297 11.1719 -2.41211 11.6895 -2.41211 Z"/>
  </g>
  <g id="" transform="matrix(1 0 0 1 304.924 1933)">
   <path d="M 14.9707 5.67383 C 21.9336 5.67383 27.6953 -0.078125 27.6953 -7.04102 C 27.6953 -14.0039 21.9238 -19.7559 14.9609 -19.7559 C 8.00781 -19.7559 2.25586 -14.0039 2.25586 -7.04102 C 2.25586 -0.078125 8.01758 5.67383 14.9707 5.67383 Z M 14.9707 3.85742 C 8.93555 3.85742 4.08203 -1.00586 4.08203 -7.04102 C 4.08203 -13.0762 8.92578 -17.9395 14.9609 -17.9395 C 21.0059 -17.9395 25.8594 -13.0762 25.8691 -7.04102 C 25.8789 -1.00586 21.0156 3.85742 14.9707 3.85742 Z M 14.9512 -1.06445 C 15.5176 -1.06445 15.8691 -1.45508 15.8691 -2.06055 L 15.8691 -6.13281 L 20.1074 -6.13281 C 20.6934 -6.13281 21.1133 -6.46484 21.1133 -7.02148 C 21.1133 -7.59766 20.7227 -7.93945 20.1074 -7.93945 L 15.8691 -7.93945 L 15.8691 -12.1875 C 15.8691 -12.8027 15.5176 -13.1934 14.9512 -13.1934 C 14.3848 -13.1934 14.0625 -12.7832 14.0625 -12.1875 L 14.0625 -7.93945 L 9.83398 -7.93945 C 9.21875 -7.93945 8.80859 -7.59766 8.80859 -7.02148 C 8.80859 -6.46484 9.23828 -6.13281 9.83398 -6.13281 L 14.0625 -6.13281 L 14.0625 -2.06055 C 14.0625 -1.47461 14.3848 -1.06445 14.9512 -1.06445 Z"/>
  </g>
  <text style="stroke:none;fill:black;font-family:-apple-system,&quot;SF Pro Display&quot;,&quot;SF Pro Text&quot;,Helvetica,sans-serif;font-weight:bold;" transform="matrix(1 0 0 1 263 1953)">Design Variations</text>
  <text style="stroke:none;fill:black;font-family:-apple-system,&quot;SF Pro Display&quot;,&quot;SF Pro Text&quot;,Helvetica,sans-serif;" transform="matrix(1 0 0 1 263 1971)">Symbols are supported in up to nine weights and three scales.</text>
  <text style="stroke:none;fill:black;font-family:-apple-system,&quot;SF Pro Display&quot;,&quot;SF Pro Text&quot;,Helvetica,sans-serif;" transform="matrix(1 0 0 1 263 1989)">For optimal layout with text and other symbols, vertically align</text>
  <text style="stroke:none;fill:black;font-family:-apple-system,&quot;SF Pro Display&quot;,&quot;SF Pro Text&quot;,Helvetica,sans-serif;" transform="matrix(1 0 0 1 263 2007)">symbols with the adjacent text.</text>
  <rect height="14" id="" style="fill:#00AEEF;stroke:none;opacity:0.4;" width="3" x="776" y="1919"/>
  <g id="" transform="matrix(1 0 0 1 779 1933)">
   <path d="M 10.5273 0 L 12.373 0 L 7.17773 -14.0918 L 5.43945 -14.0918 L 0.244141 0 L 2.08984 0 L 3.50586 -4.0332 L 9.11133 -4.0332 Z M 6.2793 -11.9531 L 6.33789 -11.9531 L 8.59375 -5.52734 L 4.02344 -5.52734 Z"/>
  </g>
  <rect height="14" id="" style="fill:#00AEEF;stroke:none;opacity:0.4;" width="3" x="791.617" y="1919"/>
  <text style="stroke:none;fill:black;font-family:-apple-system,&quot;SF Pro Display&quot;,&quot;SF Pro Text&quot;,Helvetica,sans-serif;font-weight:bold;" transform="matrix(1 0 0 1 776 1953)">Margins</text>
  <text style="stroke:none;fill:black;font-family:-apple-system,&quot;SF Pro Display&quot;,&quot;SF Pro Text&quot;,Helvetica,sans-serif;" transform="matrix(1 0 0 1 776 1971)">Leading and trailing margins on the left and right side of each symbol</text>
  <text style="stroke:none;fill:black;font-family:-apple-system,&quot;SF Pro Display&quot;,&quot;SF Pro Text&quot;,Helvetica,sans-serif;" transform="matrix(1 0 0 1 776 1989)">can be adjusted by modifying the width of the blue rectangles.</text>
  <text style="stroke:none;fill:black;font-family:-apple-system,&quot;SF Pro Display&quot;,&quot;SF Pro Text&quot;,Helvetica,sans-serif;" transform="matrix(1 0 0 1 776 2007)">Modifications are automatically applied proportionally to all</text>
  <text style="stroke:none;fill:black;font-family:-apple-system,&quot;SF Pro Display&quot;,&quot;SF Pro Text&quot;,Helvetica,sans-serif;" transform="matrix(1 0 0 1 776 2025)">scales and weights.</text>
  <g id="" transform="matrix(1 0 0 1 1289 1933)">
   <path d="M 2.83203 3.11523 L 4.375 4.6582 C 5.22461 5.48828 6.19141 5.41992 7.06055 4.46289 L 17.2754 -6.66016 C 17.7051 -6.36719 18.0957 -6.37695 18.5645 -6.47461 L 19.6094 -6.68945 L 20.3027 -5.99609 L 20.2539 -5.47852 C 20.1855 -4.95117 20.3516 -4.53125 20.8496 -4.0332 L 21.6602 -3.22266 C 22.168 -2.71484 22.8223 -2.68555 23.3008 -3.16406 L 26.5527 -6.41602 C 27.0312 -6.89453 27.0117 -7.54883 26.5039 -8.05664 L 25.6836 -8.87695 C 25.1855 -9.375 24.7754 -9.55078 24.2383 -9.47266 L 23.7109 -9.41406 L 23.0566 -10.0781 L 23.3398 -11.2207 C 23.4863 -11.7871 23.3398 -12.2559 22.7148 -12.8613 L 20.3027 -15.2539 C 16.7578 -18.7793 12.2266 -18.6719 9.11133 -15.5371 C 8.69141 -15.1074 8.64258 -14.5215 8.91602 -14.0918 C 9.15039 -13.7207 9.62891 -13.4961 10.2734 -13.6621 C 11.7871 -14.043 13.3008 -13.9258 14.7852 -12.9199 L 14.1602 -11.3379 C 13.9258 -10.752 13.9453 -10.2734 14.1797 -9.83398 L 3.01758 0.439453 C 2.08008 1.30859 1.97266 2.25586 2.83203 3.11523 Z M 10.6738 -15.1465 C 13.3398 -17.1387 16.6504 -16.8262 19.0527 -14.4141 L 21.6797 -11.8066 C 21.9141 -11.5723 21.9434 -11.3867 21.8848 -11.0938 L 21.5039 -9.53125 L 23.0762 -7.95898 L 24.043 -8.04688 C 24.3262 -8.07617 24.4141 -8.05664 24.6387 -7.83203 L 25.2637 -7.20703 L 22.5098 -4.46289 L 21.8848 -5.07812 C 21.6602 -5.30273 21.6406 -5.40039 21.6699 -5.68359 L 21.7578 -6.64062 L 20.1953 -8.20312 L 18.5742 -7.89062 C 18.291 -7.83203 18.1445 -7.83203 17.9102 -8.07617 L 15.7324 -10.2539 C 15.5078 -10.4883 15.4785 -10.625 15.6055 -10.9473 L 16.5527 -13.2227 C 14.9512 -14.7559 12.8418 -15.6055 10.8008 -14.9512 C 10.7129 -14.9219 10.6445 -14.9414 10.6152 -14.9805 C 10.5859 -15.0293 10.5859 -15.0781 10.6738 -15.1465 Z M 4.10156 2.41211 C 3.61328 1.91406 3.78906 1.61133 4.12109 1.30859 L 15.0781 -8.80859 L 16.3086 -7.57812 L 6.15234 3.34961 C 5.84961 3.68164 5.46875 3.7793 5.06836 3.37891 Z"/>
  </g>
  <text style="stroke:none;fill:black;font-family:-apple-system,&quot;SF Pro Display&quot;,&quot;SF Pro Text&quot;,Helvetica,sans-serif;font-weight:bold;" transform="matrix(1 0 0 1 1289 1953)">Exporting</text>
  <text style="stroke:none;fill:black;font-family:-apple-system,&quot;SF Pro Display&quot;,&quot;SF Pro Text&quot;,Helvetica,sans-serif;" transform="matrix(1 0 0 1 1289 1971)">Symbols should be outlined when exporting to ensure the</text>
  <text style="stroke:none;fill:black;font-family:-apple-system,&quot;SF Pro Display&quot;,&quot;SF Pro Text&quot;,Helvetica,sans-serif;" transform="matrix(1 0 0 1 1289 1989)">design is preserved when submitting to Xcode.</text>
  <text id="template-version" style="stroke:none;fill:black;font-family:-apple-system,&quot;SF Pro Display&quot;,&quot;SF Pro Text&quot;,Helvetica,sans-serif;text-anchor:end;" transform="matrix(1 0 0 1 3036 1933)">Template v.1.0</text>
  <text style="stroke:none;fill:black;font-family:-apple-system,&quot;SF Pro Display&quot;,&quot;SF Pro Text&quot;,Helvetica,sans-serif;text-anchor:end;" transform="matrix(1 0 0 1 3036 1951)">Generated from 22.circle.fill</text>
  <text style="stroke:none;fill:black;font-family:-apple-system,&quot;SF Pro Display&quot;,&quot;SF Pro Text&quot;,Helvetica,sans-serif;text-anchor:end;" transform="matrix(1 0 0 1 3036 1969)">Typeset at 100 points</text>
  <text style="stroke:none;fill:black;font-family:-apple-system,&quot;SF Pro Display&quot;,&quot;SF Pro Text&quot;,Helvetica,sans-serif;" transform="matrix(1 0 0 1 263 726)">Small</text>
  <text style="stroke:none;fill:black;font-family:-apple-system,&quot;SF Pro Display&quot;,&quot;SF Pro Text&quot;,Helvetica,sans-serif;" transform="matrix(1 0 0 1 263 1156)">Medium</text>
  <text style="stroke:none;fill:black;font-family:-apple-system,&quot;SF Pro Display&quot;,&quot;SF Pro Text&quot;,Helvetica,sans-serif;" transform="matrix(1 0 0 1 263 1586)">Large</text>
 </g>
 <g id="Guides">
  <g id="H-reference" style="fill:#27AAE1;stroke:none;" transform="matrix(1 0 0 1 339 696)">
   <path d="M 54.9316 0 L 57.666 0 L 30.5664 -70.459 L 28.0762 -70.459 L 0.976562 0 L 3.66211 0 L 12.9395 -24.4629 L 45.7031 -24.4629 Z M 29.1992 -67.0898 L 29.4434 -67.0898 L 44.8242 -26.709 L 13.8184 -26.709 Z"/>
  </g>
  <line id="Baseline-S" style="fill:none;stroke:#27AAE1;opacity:1;stroke-width:0.577;" x1="263" x2="3036" y1="696" y2="696"/>
  <line id="Capline-S" style="fill:none;stroke:#27AAE1;opacity:1;stroke-width:0.577;" x1="263" x2="3036" y1="625.541" y2="625.541"/>
  <g id="H-reference" style="fill:#27AAE1;stroke:none;" transform="matrix(1 0 0 1 339 1126)">
   <path d="M 54.9316 0 L 57.666 0 L 30.5664 -70.459 L 28.0762 -70.459 L 0.976562 0 L 3.66211 0 L 12.9395 -24.4629 L 45.7031 -24.4629 Z M 29.1992 -67.0898 L 29.4434 -67.0898 L 44.8242 -26.709 L 13.8184 -26.709 Z"/>
  </g>
  <line id="Baseline-M" style="fill:none;stroke:#27AAE1;opacity:1;stroke-width:0.577;" x1="263" x2="3036" y1="1126" y2="1126"/>
  <line id="Capline-M" style="fill:none;stroke:#27AAE1;opacity:1;stroke-width:0.577;" x1="263" x2="3036" y1="1055.54" y2="1055.54"/>
  <g id="H-reference" style="fill:#27AAE1;stroke:none;" transform="matrix(1 0 0 1 339 1556)">
   <path d="M 54.9316 0 L 57.666 0 L 30.5664 -70.459 L 28.0762 -70.459 L 0.976562 0 L 3.66211 0 L 12.9395 -24.4629 L 45.7031 -24.4629 Z M 29.1992 -67.0898 L 29.4434 -67.0898 L 44.8242 -26.709 L 13.8184 -26.709 Z"/>
  </g>
  <line id="Baseline-L" style="fill:none;stroke:#27AAE1;opacity:1;stroke-width:0.577;" x1="263" x2="3036" y1="1556" y2="1556"/>
  <line id="Capline-L" style="fill:none;stroke:#27AAE1;opacity:1;stroke-width:0.577;" x1="263" x2="3036" y1="1485.54" y2="1485.54"/>
  <rect height="119.336" id="left-margin" style="fill:#00AEEF;stroke:none;opacity:0.4;" width="8.74023" x="1391.3" y="1030.79"/>
  <rect height="119.336" id="right-margin" style="fill:#00AEEF;stroke:none;opacity:0.4;" width="8.74023" x="1499.65" y="1030.79"/>
 </g>
 <g id="Symbols">
  <g id="Black-L" transform="matrix(1 0 0 1 2854.05 1556)">
   <path d="M 79.3457 32.8613 C 116.748 32.8613 147.412 2.19727 147.412 -35.2051 C 147.412 -72.6074 116.748 -103.271 79.2969 -103.271 C 41.8945 -103.271 11.2793 -72.6074 11.2793 -35.2051 C 11.2793 2.19727 41.9434 32.8613 79.3457 32.8613 Z M 51.3672 -10.5469 C 47.998 -10.5469 45.3613 -12.8418 45.3613 -16.5527 C 45.3613 -18.8965 46.1914 -20.8496 48.3398 -23.3398 L 59.668 -36.6699 C 62.5488 -40.0391 64.9414 -42.3828 64.9414 -45.4102 C 64.9414 -47.8516 62.9395 -49.707 60.2539 -49.707 C 57.8613 -49.707 56.0547 -48.291 55.0781 -45.7031 C 54.2969 -43.5059 52.7832 -41.8457 49.8047 -41.8457 C 46.6309 -41.8457 44.6289 -44.043 44.6289 -47.2168 C 44.6289 -48.3887 44.7754 -49.3164 45.0684 -50.3418 C 46.875 -56.7383 53.2227 -61.0352 60.5469 -61.0352 C 70.0684 -61.0352 75.9766 -55.0293 76.0742 -46.5332 C 76.123 -40.6738 73.291 -36.2305 68.457 -30.7129 L 61.6699 -22.7051 L 61.6699 -22.1191 L 71.6797 -22.1191 C 75.2441 -22.1191 77.5391 -20.0684 77.5391 -16.4062 C 77.5391 -12.7441 75.2441 -10.5469 71.6797 -10.5469 Z M 89.9414 -10.5469 C 86.5723 -10.5469 83.9355 -12.8418 83.9355 -16.5527 C 83.9355 -18.8965 84.8145 -20.8496 86.9141 -23.3398 L 98.291 -36.6699 C 101.074 -40.0391 103.467 -42.3828 103.467 -45.4102 C 103.467 -47.8516 101.465 -49.707 98.7793 -49.707 C 96.3867 -49.707 94.5801 -48.291 93.6523 -45.7031 C 92.9199 -43.5059 91.3574 -41.8457 88.3789 -41.8457 C 85.2051 -41.8457 83.1543 -44.043 83.1543 -47.2168 C 83.1543 -48.3887 83.3008 -49.3164 83.6426 -50.3418 C 85.4492 -56.7383 91.748 -61.0352 99.1211 -61.0352 C 108.643 -61.0352 114.502 -55.0293 114.6 -46.5332 C 114.648 -40.6738 111.865 -36.2305 107.08 -30.7129 L 100.195 -22.7051 L 100.195 -22.1191 L 110.205 -22.1191 C 113.818 -22.1191 116.113 -20.0684 116.113 -16.4062 C 116.113 -12.7441 113.818 -10.5469 110.205 -10.5469 Z"/>
  </g>
  <g id="Heavy-L" transform="matrix(1 0 0 1 2558.39 1556)">
   <path d="M 78.2715 31.7871 C 115.088 31.7871 145.312 1.61133 145.312 -35.2051 C 145.312 -72.0215 115.039 -102.197 78.2715 -102.197 C 41.4551 -102.197 11.2793 -72.0215 11.2793 -35.2051 C 11.2793 1.61133 41.5039 31.7871 78.2715 31.7871 Z M 48.877 -10.0098 C 45.8496 -10.0098 43.5059 -12.1094 43.5059 -15.4297 C 43.5059 -17.4805 44.2383 -19.2383 46.0938 -21.3867 L 58.9844 -36.5234 C 62.0117 -40.0391 64.5508 -42.7246 64.5508 -46.0449 C 64.5508 -49.1699 62.1582 -51.416 58.7402 -51.416 C 55.6152 -51.416 53.3691 -49.6094 52.2949 -46.4355 C 51.5625 -44.2871 50.1465 -42.8223 47.4609 -42.8223 C 44.5801 -42.8223 42.7246 -44.7754 42.7246 -47.7051 C 42.7246 -48.7793 42.9199 -49.6582 43.1641 -50.6348 C 44.9219 -57.1289 51.416 -61.6211 58.8867 -61.6211 C 68.5547 -61.6211 74.6094 -55.6641 74.707 -47.0215 C 74.7559 -41.0645 71.7773 -36.5723 66.8945 -30.957 L 58.4473 -20.9961 L 58.4473 -20.5078 L 70.9473 -20.5078 C 74.1211 -20.5078 76.2207 -18.6035 76.2207 -15.332 C 76.2207 -12.0117 74.1211 -10.0098 70.9473 -10.0098 Z M 88.7207 -10.0098 C 85.6445 -10.0098 83.3496 -12.1094 83.3496 -15.4297 C 83.3496 -17.4805 84.082 -19.2383 85.8887 -21.3867 L 98.8281 -36.5234 C 101.807 -40.0391 104.346 -42.7246 104.346 -46.0449 C 104.346 -49.1699 101.953 -51.416 98.5352 -51.416 C 95.4102 -51.416 93.1641 -49.6094 92.1387 -46.4355 C 91.4062 -44.2871 89.9902 -42.8223 87.3535 -42.8223 C 84.4238 -42.8223 82.5195 -44.7754 82.5195 -47.7051 C 82.5195 -48.7793 82.666 -49.6582 83.0078 -50.6348 C 84.7656 -57.1289 91.2109 -61.6211 98.7305 -61.6211 C 108.398 -61.6211 114.453 -55.6641 114.502 -47.0215 C 114.551 -41.0645 111.621 -36.5723 106.738 -30.957 L 98.2422 -20.9961 L 98.2422 -20.5078 L 110.742 -20.5078 C 113.916 -20.5078 116.016 -18.6035 116.016 -15.332 C 116.016 -12.0117 113.916 -10.0098 110.742 -10.0098 Z"/>
  </g>
  <g id="Bold-L" transform="matrix(1 0 0 1 2262.88 1556)">
   <path d="M 77.0996 30.6152 C 113.232 30.6152 142.92 0.878906 142.92 -35.2051 C 142.92 -71.3379 113.184 -101.025 77.0508 -101.025 C 40.9668 -101.025 11.2793 -71.3379 11.2793 -35.2051 C 11.2793 0.878906 41.0156 30.6152 77.0996 30.6152 Z M 46.1426 -9.42383 C 43.4082 -9.42383 41.4062 -11.2793 41.4062 -14.209 C 41.4062 -15.9668 41.9922 -17.4316 43.5547 -19.1895 L 58.2031 -36.377 C 61.377 -40.0879 64.1113 -43.0664 64.1113 -46.7285 C 64.1113 -50.5859 61.2793 -53.2715 57.0312 -53.2715 C 53.1738 -53.2715 50.3906 -51.0742 49.1699 -47.2168 C 48.4863 -45.2148 47.2656 -43.8477 44.873 -43.8477 C 42.2852 -43.8477 40.625 -45.6543 40.625 -48.291 C 40.625 -49.2676 40.8203 -50.0488 41.0156 -50.9766 C 42.7246 -57.6172 49.4141 -62.2559 57.0312 -62.2559 C 66.8945 -62.2559 73.1445 -56.3477 73.1934 -47.5586 C 73.2422 -41.5039 70.1172 -36.9629 65.1367 -31.2012 L 54.834 -19.0918 L 54.834 -18.6523 L 70.1172 -18.6523 C 72.8516 -18.6523 74.707 -16.9922 74.707 -14.1113 C 74.707 -11.2305 72.8516 -9.42383 70.1172 -9.42383 Z M 87.4023 -9.42383 C 84.6191 -9.42383 82.6172 -11.2793 82.6172 -14.209 C 82.6172 -15.9668 83.252 -17.4316 84.7656 -19.1895 L 99.4629 -36.377 C 102.588 -40.0879 105.322 -43.0664 105.322 -46.7285 C 105.322 -50.5859 102.441 -53.2715 98.2422 -53.2715 C 94.3848 -53.2715 91.6016 -51.0742 90.4297 -47.2168 C 89.6973 -45.2148 88.4766 -43.8477 86.1328 -43.8477 C 83.4961 -43.8477 81.8359 -45.6543 81.8359 -48.291 C 81.8359 -49.2676 81.9824 -50.0488 82.2754 -50.9766 C 83.9844 -57.6172 90.625 -62.2559 98.291 -62.2559 C 108.154 -62.2559 114.355 -56.3477 114.453 -47.5586 C 114.453 -41.5039 111.377 -36.9629 106.396 -31.2012 L 96.0449 -19.0918 L 96.0449 -18.6523 L 111.328 -18.6523 C 114.062 -18.6523 115.918 -16.9922 115.918 -14.1113 C 115.918 -11.2305 114.062 -9.42383 111.328 -9.42383 Z"/>
  </g>
  <g id="Semibold-L" transform="matrix(1 0 0 1 1966.97 1556)">
   <path d="M 76.2695 29.7852 C 111.914 29.7852 141.309 0.439453 141.309 -35.2051 C 141.309 -70.8496 111.865 -100.244 76.2695 -100.244 C 40.625 -100.244 11.2793 -70.8496 11.2793 -35.2051 C 11.2793 0.439453 40.6738 29.7852 76.2695 29.7852 Z M 44.2383 -9.0332 C 41.748 -9.0332 39.9902 -10.6934 39.9902 -13.3301 C 39.9902 -14.8926 40.4785 -16.1621 41.7969 -17.627 L 57.666 -36.2793 C 60.9375 -40.0879 63.8184 -43.3105 63.8184 -47.2168 C 63.8184 -51.5625 60.6445 -54.541 55.8594 -54.541 C 51.4648 -54.541 48.3398 -52.0996 47.0215 -47.7539 C 46.3379 -45.8008 45.2148 -44.5801 43.1152 -44.5801 C 40.6738 -44.5801 39.209 -46.2402 39.209 -48.6816 C 39.209 -49.6094 39.3555 -50.3418 39.5508 -51.2207 C 41.2109 -57.9102 47.998 -62.7441 55.7617 -62.7441 C 65.7227 -62.7441 72.1191 -56.8359 72.168 -47.9492 C 72.2168 -41.8457 68.9453 -37.207 63.9648 -31.3965 L 52.3438 -17.8223 L 52.3438 -17.3828 L 69.5312 -17.3828 C 71.9727 -17.3828 73.6328 -15.8691 73.6328 -13.2324 C 73.6328 -10.6934 71.9727 -9.0332 69.5312 -9.0332 Z M 86.4258 -9.0332 C 83.9355 -9.0332 82.1777 -10.6934 82.1777 -13.3301 C 82.1777 -14.8926 82.7148 -16.1621 83.9355 -17.627 L 99.8535 -36.2793 C 103.125 -40.0879 106.006 -43.3105 106.006 -47.2168 C 106.006 -51.5625 102.832 -54.541 98.0469 -54.541 C 93.6523 -54.541 90.5273 -52.0996 89.2578 -47.7539 C 88.5742 -45.8008 87.4512 -44.5801 85.3027 -44.5801 C 82.9102 -44.5801 81.3965 -46.2402 81.3965 -48.6816 C 81.3965 -49.6094 81.543 -50.3418 81.7871 -51.2207 C 83.4473 -57.9102 90.1855 -62.7441 97.9492 -62.7441 C 107.959 -62.7441 114.355 -56.8359 114.355 -47.9492 C 114.404 -41.8457 111.182 -37.207 106.152 -31.3965 L 94.5312 -17.8223 L 94.5312 -17.3828 L 111.719 -17.3828 C 114.16 -17.3828 115.82 -15.8691 115.82 -13.2324 C 115.82 -10.6934 114.16 -9.0332 111.719 -9.0332 Z"/>
  </g>
  <g id="Medium-L" transform="matrix(1 0 0 1 1670.87 1556)">
   <path d="M 75.6836 29.1992 C 110.938 29.1992 140.088 0.0488281 140.088 -35.2051 C 140.088 -70.459 110.889 -99.6094 75.6348 -99.6094 C 40.3809 -99.6094 11.2793 -70.459 11.2793 -35.2051 C 11.2793 0.0488281 40.3809 29.1992 75.6836 29.1992 Z M 42.7734 -8.69141 C 40.4785 -8.69141 38.8672 -10.2539 38.8672 -12.6465 C 38.8672 -14.0625 39.3555 -15.2344 40.4297 -16.5039 L 57.2266 -36.1816 C 60.5957 -40.0879 63.5742 -43.5059 63.5742 -47.6074 C 63.5742 -52.3438 60.2051 -55.5176 54.9805 -55.5176 C 50.1465 -55.5176 46.7773 -52.8809 45.4102 -48.1445 C 44.7266 -46.2891 43.7012 -45.1172 41.748 -45.1172 C 39.4531 -45.1172 38.0859 -46.6797 38.0859 -48.9746 C 38.0859 -49.8535 38.2812 -50.5371 38.4277 -51.416 C 40.0879 -58.1543 46.9238 -63.0859 54.7852 -63.0859 C 64.8438 -63.0859 71.3867 -57.2266 71.3867 -48.1934 C 71.3867 -42.041 68.1152 -37.4023 63.0371 -31.4941 L 50.4395 -16.8457 L 50.4395 -16.4551 L 69.0918 -16.4551 C 71.3379 -16.4551 72.8516 -15.0391 72.8516 -12.5977 C 72.8516 -10.2539 71.3379 -8.69141 69.0918 -8.69141 Z M 85.7422 -8.69141 C 83.3496 -8.69141 81.7871 -10.2539 81.7871 -12.6465 C 81.7871 -14.0625 82.2754 -15.2344 83.3496 -16.5039 L 100.195 -36.1816 C 103.516 -40.0879 106.543 -43.5059 106.543 -47.6074 C 106.543 -52.3438 103.125 -55.5176 97.9004 -55.5176 C 93.1152 -55.5176 89.6973 -52.8809 88.3789 -48.1445 C 87.6953 -46.2891 86.6699 -45.1172 84.668 -45.1172 C 82.4219 -45.1172 81.0547 -46.6797 81.0547 -48.9746 C 81.0547 -49.8535 81.1523 -50.5371 81.3965 -51.416 C 83.0078 -58.1543 89.8926 -63.0859 97.7051 -63.0859 C 107.812 -63.0859 114.307 -57.2266 114.307 -48.1934 C 114.355 -42.041 111.035 -37.4023 106.006 -31.4941 L 93.3594 -16.8457 L 93.3594 -16.4551 L 112.061 -16.4551 C 114.209 -16.4551 115.771 -15.0391 115.771 -12.5977 C 115.771 -10.2539 114.209 -8.69141 112.061 -8.69141 Z"/>
  </g>
  <g id="Regular-L" transform="matrix(1 0 0 1 1374.97 1556)">
   <path d="M 74.8535 28.3691 C 109.668 28.3691 138.477 -0.390625 138.477 -35.2051 C 138.477 -70.0195 109.619 -98.7793 74.8047 -98.7793 C 40.0391 -98.7793 11.2793 -70.0195 11.2793 -35.2051 C 11.2793 -0.390625 40.0879 28.3691 74.8535 28.3691 Z M 40.918 -8.30078 C 38.8184 -8.30078 37.4512 -9.66797 37.4512 -11.8164 C 37.4512 -13.0371 37.8418 -14.0137 38.7207 -14.9902 L 56.6895 -36.0352 C 60.1562 -40.0879 63.2812 -43.75 63.2812 -48.0957 C 63.2812 -53.3203 59.6191 -56.7871 53.8086 -56.7871 C 48.4863 -56.7871 44.7266 -53.9062 43.3105 -48.6816 C 42.627 -46.9238 41.6992 -45.8496 39.9414 -45.8496 C 37.8906 -45.8496 36.6699 -47.2656 36.6699 -49.4141 C 36.6699 -50.1465 36.8652 -50.7812 36.9629 -51.6113 C 38.5742 -58.4961 45.5566 -63.5254 53.5156 -63.5254 C 63.7207 -63.5254 70.3613 -57.666 70.3613 -48.584 C 70.3613 -42.3828 66.9434 -37.6465 61.8164 -31.6895 L 47.9492 -15.5273 L 47.9492 -15.1855 L 68.5547 -15.1855 C 70.459 -15.1855 71.8262 -13.916 71.8262 -11.7676 C 71.8262 -9.7168 70.459 -8.30078 68.5547 -8.30078 Z M 84.8145 -8.30078 C 82.666 -8.30078 81.3477 -9.66797 81.3477 -11.8164 C 81.3477 -13.0371 81.7383 -14.0137 82.5684 -14.9902 L 100.586 -36.0352 C 104.053 -40.0879 107.178 -43.75 107.178 -48.0957 C 107.178 -53.3203 103.467 -56.7871 97.7051 -56.7871 C 92.3828 -56.7871 88.623 -53.9062 87.207 -48.6816 C 86.5234 -46.9238 85.6445 -45.8496 83.8867 -45.8496 C 81.7871 -45.8496 80.5664 -47.2656 80.5664 -49.4141 C 80.5664 -50.1465 80.7129 -50.7812 80.8594 -51.6113 C 82.4707 -58.4961 89.502 -63.5254 97.4121 -63.5254 C 107.617 -63.5254 114.258 -57.666 114.258 -48.584 C 114.258 -42.3828 110.889 -37.6465 105.762 -31.6895 L 91.8945 -15.5273 L 91.8945 -15.1855 L 112.451 -15.1855 C 114.307 -15.1855 115.723 -13.916 115.723 -11.7676 C 115.723 -9.7168 114.307 -8.30078 112.451 -8.30078 Z"/>
  </g>
  <g id="Light-L" transform="matrix(1 0 0 1 1079.18 1556)">
   <path d="M 73.9258 27.4902 C 108.301 27.4902 136.621 -0.830078 136.621 -35.1562 C 136.621 -69.5312 108.252 -97.8516 73.9258 -97.8516 C 39.5508 -97.8516 11.2793 -69.5312 11.2793 -35.1562 C 11.2793 -0.830078 39.5996 27.4902 73.9258 27.4902 Z M 40.1367 -8.44727 C 38.3301 -8.44727 37.207 -9.52148 37.207 -11.377 C 37.207 -12.4023 37.5 -13.1836 38.1836 -13.9648 L 56.9824 -35.8398 C 60.8398 -40.332 63.5254 -43.9453 63.5254 -48.291 C 63.5254 -53.9551 59.4727 -57.7148 53.0273 -57.7148 C 46.9238 -57.7148 42.627 -54.1992 41.6016 -48.6328 C 41.1133 -47.1191 40.332 -46.2402 38.8184 -46.2402 C 37.1094 -46.2402 36.084 -47.4121 36.084 -49.1211 C 36.084 -49.8047 36.2305 -50.3906 36.3281 -51.1719 C 37.793 -58.1543 44.7754 -63.2324 52.832 -63.2324 C 62.7441 -63.2324 69.2871 -57.4707 69.2871 -48.584 C 69.2871 -42.8223 66.2598 -38.1836 60.7422 -31.8359 L 45.6543 -14.3066 L 45.6543 -14.0137 L 68.1152 -14.0137 C 69.7266 -14.0137 70.8008 -12.9395 70.8008 -11.2305 C 70.8008 -9.57031 69.7266 -8.44727 68.1152 -8.44727 Z M 84.0332 -8.44727 C 82.2266 -8.44727 81.1035 -9.52148 81.1035 -11.377 C 81.1035 -12.4023 81.3965 -13.1836 82.0801 -13.9648 L 100.879 -35.8398 C 104.736 -40.332 107.422 -43.9453 107.422 -48.291 C 107.422 -53.9551 103.32 -57.7148 96.9238 -57.7148 C 90.8691 -57.7148 86.5234 -54.1992 85.498 -48.6328 C 85.0586 -47.1191 84.2773 -46.2402 82.7148 -46.2402 C 81.0059 -46.2402 79.9805 -47.4121 79.9805 -49.1211 C 79.9805 -49.8047 80.0781 -50.3906 80.2246 -51.1719 C 81.6895 -58.1543 88.6719 -63.2324 96.7773 -63.2324 C 106.641 -63.2324 113.184 -57.4707 113.184 -48.584 C 113.184 -42.8223 110.156 -38.1836 104.688 -31.8359 L 89.5996 -14.3066 L 89.5996 -14.0137 L 112.012 -14.0137 C 113.623 -14.0137 114.697 -12.9395 114.697 -11.2305 C 114.697 -9.57031 113.623 -8.44727 112.012 -8.44727 Z"/>
  </g>
  <g id="Thin-L" transform="matrix(1 0 0 1 783.693 1556)">
   <path d="M 72.7051 26.3184 C 106.494 26.3184 134.18 -1.36719 134.18 -35.1074 C 134.18 -68.8965 106.494 -96.582 72.7051 -96.582 C 38.9648 -96.582 11.2793 -68.8965 11.2793 -35.1074 C 11.2793 -1.36719 38.9648 26.3184 72.7051 26.3184 Z M 39.0625 -8.59375 C 37.7441 -8.59375 36.8652 -9.32617 36.8652 -10.7422 C 36.8652 -11.6211 37.0605 -12.0605 37.5 -12.6465 L 57.3242 -35.5957 C 61.7188 -40.6738 63.8184 -44.1895 63.8184 -48.5352 C 63.8184 -54.834 59.2773 -58.9844 52.002 -58.9844 C 44.9219 -58.9844 39.8438 -54.6387 39.3066 -48.6328 C 39.1602 -47.4121 38.5254 -46.7285 37.2559 -46.7285 C 36.0352 -46.7285 35.3027 -47.6074 35.3027 -48.7793 C 35.3027 -49.3652 35.4004 -49.8047 35.4492 -50.5371 C 36.7188 -57.666 43.75 -62.793 51.9531 -62.793 C 61.4746 -62.793 67.8711 -57.2266 67.8711 -48.5352 C 67.8711 -43.4082 65.332 -38.916 59.3262 -32.0801 L 42.627 -12.6465 L 42.627 -12.4512 L 67.5781 -12.4512 C 68.7988 -12.4512 69.4336 -11.6699 69.4336 -10.5469 C 69.4336 -9.42383 68.7988 -8.59375 67.5781 -8.59375 Z M 82.959 -8.59375 C 81.6406 -8.59375 80.7617 -9.32617 80.7617 -10.7422 C 80.7617 -11.6211 80.957 -12.0605 81.3965 -12.6465 L 101.27 -35.5957 C 105.615 -40.6738 107.715 -44.1895 107.715 -48.5352 C 107.715 -54.834 103.174 -58.9844 95.8984 -58.9844 C 88.8672 -58.9844 83.7402 -54.6387 83.2031 -48.6328 C 83.0566 -47.4121 82.4707 -46.7285 81.1523 -46.7285 C 79.9316 -46.7285 79.1992 -47.6074 79.1992 -48.7793 C 79.1992 -49.3652 79.2969 -49.8047 79.3945 -50.5371 C 80.6152 -57.666 87.6465 -62.793 95.8496 -62.793 C 105.371 -62.793 111.768 -57.2266 111.768 -48.5352 C 111.768 -43.4082 109.229 -38.916 103.271 -32.0801 L 86.5723 -12.6465 L 86.5723 -12.4512 L 111.475 -12.4512 C 112.695 -12.4512 113.379 -11.6699 113.379 -10.5469 C 113.379 -9.42383 112.695 -8.59375 111.475 -8.59375 Z"/>
  </g>
  <g id="Ultralight-L" transform="matrix(1 0 0 1 487.616 1556)">
   <path d="M 72.1191 25.7324 C 105.566 25.7324 132.91 -1.61133 132.91 -35.1074 C 132.91 -68.5547 105.566 -95.8984 72.1191 -95.8984 C 38.623 -95.8984 11.2793 -68.5547 11.2793 -35.1074 C 11.2793 -1.61133 38.623 25.7324 72.1191 25.7324 Z M 38.5254 -8.69141 C 37.4023 -8.69141 36.6699 -9.22852 36.6699 -10.4492 C 36.6699 -11.1816 36.8164 -11.5234 37.1582 -11.9141 L 57.5195 -35.4492 C 62.1582 -40.8203 63.9648 -44.3359 63.9648 -48.6816 C 63.9648 -55.2734 59.1797 -59.6191 51.4648 -59.6191 C 43.8965 -59.6191 38.4277 -54.834 38.1348 -48.6328 C 38.1348 -47.5586 37.5977 -46.9727 36.4746 -46.9727 C 35.4492 -46.9727 34.9121 -47.7051 34.9121 -48.6328 C 34.9121 -49.1699 34.9609 -49.5117 35.0098 -50.2441 C 36.1816 -57.4219 43.1641 -62.5977 51.5137 -62.5977 C 60.8398 -62.5977 67.1387 -57.0801 67.1387 -48.5352 C 67.1387 -43.7012 64.8438 -39.3066 58.5938 -32.1777 L 41.1133 -11.7676 L 41.1133 -11.6211 L 67.2852 -11.6211 C 68.3105 -11.6211 68.75 -10.9863 68.75 -10.1562 C 68.75 -9.32617 68.3105 -8.69141 67.2852 -8.69141 Z M 82.4219 -8.69141 C 81.3477 -8.69141 80.6152 -9.22852 80.6152 -10.4492 C 80.6152 -11.1816 80.7129 -11.5234 81.1035 -11.9141 L 101.416 -35.4492 C 106.055 -40.8203 107.861 -44.3359 107.861 -48.6816 C 107.861 -55.2734 103.076 -59.6191 95.4102 -59.6191 C 87.8418 -59.6191 82.3242 -54.834 82.0312 -48.6328 C 82.0312 -47.5586 81.543 -46.9727 80.3711 -46.9727 C 79.3945 -46.9727 78.8086 -47.7051 78.8086 -48.6328 C 78.8086 -49.1699 78.8574 -49.5117 78.9551 -50.2441 C 80.0781 -57.4219 87.1094 -62.5977 95.4102 -62.5977 C 104.736 -62.5977 111.035 -57.0801 111.035 -48.5352 C 111.035 -43.7012 108.74 -39.3066 102.539 -32.1777 L 85.0098 -11.7676 L 85.0098 -11.6211 L 111.182 -11.6211 C 112.207 -11.6211 112.695 -10.9863 112.695 -10.1562 C 112.695 -9.32617 112.207 -8.69141 111.182 -8.69141 Z"/>
  </g>
  <g id="Black-M" transform="matrix(1 0 0 1 2870.97 1126)">
   <path d="M 62.4023 18.457 C 91.9922 18.457 116.113 -5.61523 116.113 -35.2051 C 116.113 -64.7949 91.9922 -88.8672 62.4023 -88.8672 C 32.8125 -88.8672 8.74023 -64.7949 8.74023 -35.2051 C 8.74023 -5.61523 32.8125 18.457 62.4023 18.457 Z M 42.6758 -16.8945 C 39.8926 -16.8945 37.5488 -18.7988 37.5488 -22.0215 C 37.5488 -24.1211 38.2812 -25.7812 40.2344 -28.125 L 47.3633 -36.4746 C 49.6094 -39.0625 50.9766 -40.4785 50.9766 -42.3828 C 50.9766 -43.6035 49.7559 -44.7266 48.3398 -44.7266 C 47.0215 -44.7266 45.8984 -43.75 45.5078 -42.4316 C 45.0195 -40.6738 43.7012 -39.3066 41.1133 -39.3066 C 38.4766 -39.3066 36.7676 -41.1133 36.7676 -43.6523 C 36.7676 -44.6777 36.9141 -45.4102 37.1582 -46.2891 C 38.5254 -51.1719 43.2617 -54.248 48.7793 -54.248 C 55.8105 -54.248 60.0586 -49.6582 60.2051 -43.3105 C 60.2539 -39.1602 58.3984 -35.8887 54.5898 -31.4941 L 50.9277 -27.0996 L 50.9277 -26.6602 L 56.2988 -26.6602 C 59.4238 -26.6602 61.377 -24.9023 61.377 -21.8262 C 61.377 -18.7012 59.4238 -16.8945 56.2988 -16.8945 Z M 70.8984 -16.8945 C 68.1152 -16.8945 65.7715 -18.7988 65.7715 -22.0215 C 65.7715 -24.1211 66.5039 -25.7812 68.457 -28.125 L 75.5859 -36.4746 C 77.7344 -39.0625 79.1504 -40.4785 79.1504 -42.3828 C 79.1504 -43.6035 77.9297 -44.7266 76.4648 -44.7266 C 75.1465 -44.7266 74.0723 -43.75 73.7305 -42.4316 C 73.2422 -40.6738 71.9238 -39.3066 69.3359 -39.3066 C 66.6992 -39.3066 64.9414 -41.1133 64.9414 -43.6523 C 64.9414 -44.6777 65.0391 -45.4102 65.3809 -46.2891 C 66.748 -51.1719 71.3867 -54.248 77.002 -54.248 C 84.0332 -54.248 88.2324 -49.6582 88.3301 -43.3105 C 88.4277 -39.1602 86.6211 -35.8887 82.8125 -31.4941 L 79.1016 -27.0996 L 79.1016 -26.6602 L 84.4727 -26.6602 C 87.6465 -26.6602 89.5508 -24.9023 89.5508 -21.8262 C 89.5508 -18.7012 87.6465 -16.8945 84.4727 -16.8945 Z"/>
  </g>
  <g id="Heavy-M" transform="matrix(1 0 0 1 2575.19 1126)">
   <path d="M 61.5234 17.5781 C 90.5273 17.5781 114.258 -6.15234 114.258 -35.2051 C 114.258 -64.2578 90.5273 -87.9883 61.4746 -87.9883 C 32.4707 -87.9883 8.74023 -64.2578 8.74023 -35.2051 C 8.74023 -6.15234 32.4707 17.5781 61.5234 17.5781 Z M 40.1855 -16.2598 C 37.6465 -16.2598 35.5469 -18.0664 35.5469 -20.8984 C 35.5469 -22.7539 36.2305 -24.2676 37.8906 -26.2695 L 46.4844 -36.3281 C 48.7793 -39.0137 50.4883 -40.7715 50.4883 -43.0176 C 50.4883 -44.873 48.9258 -46.2891 46.875 -46.2891 C 44.9707 -46.2891 43.5547 -45.1172 42.9199 -43.1641 C 42.3828 -41.5039 41.2109 -40.2344 38.8672 -40.2344 C 36.4258 -40.2344 34.8633 -41.8945 34.8633 -44.2871 C 34.8633 -45.2148 35.0098 -45.9473 35.2539 -46.7285 C 36.5723 -51.709 41.5039 -54.9805 47.168 -54.9805 C 54.3945 -54.9805 58.8867 -50.3906 58.9844 -43.8477 C 59.0332 -39.502 56.9824 -36.084 53.1738 -31.6895 L 47.998 -25.5859 L 47.998 -25.1953 L 55.6152 -25.1953 C 58.3984 -25.1953 60.1562 -23.584 60.1562 -20.8008 C 60.1562 -17.9688 58.3984 -16.2598 55.6152 -16.2598 Z M 69.7754 -16.2598 C 67.1875 -16.2598 65.1367 -18.0664 65.1367 -20.8984 C 65.1367 -22.7539 65.8203 -24.2676 67.4805 -26.2695 L 76.0742 -36.3281 C 78.3203 -39.0137 80.0293 -40.7715 80.0293 -43.0176 C 80.0293 -44.873 78.4668 -46.2891 76.416 -46.2891 C 74.5117 -46.2891 73.0957 -45.1172 72.5098 -43.1641 C 71.9727 -41.5039 70.8008 -40.2344 68.457 -40.2344 C 66.0156 -40.2344 64.4043 -41.8945 64.4043 -44.2871 C 64.4043 -45.2148 64.5508 -45.9473 64.8438 -46.7285 C 66.1621 -51.709 71.0449 -54.9805 76.7578 -54.9805 C 83.9844 -54.9805 88.4277 -50.3906 88.5254 -43.8477 C 88.5742 -39.502 86.5723 -36.084 82.7637 -31.6895 L 77.5391 -25.5859 L 77.5391 -25.1953 L 85.1562 -25.1953 C 87.9883 -25.1953 89.6973 -23.584 89.6973 -20.8008 C 89.6973 -17.9688 87.9883 -16.2598 85.1562 -16.2598 Z"/>
  </g>
  <g id="Bold-M" transform="matrix(1 0 0 1 2279.5 1126)">
   <path d="M 60.498 16.5039 C 88.8672 16.5039 112.207 -6.78711 112.207 -35.2051 C 112.207 -63.623 88.8672 -86.9629 60.4492 -86.9629 C 32.0312 -86.9629 8.74023 -63.623 8.74023 -35.2051 C 8.74023 -6.78711 32.0801 16.5039 60.498 16.5039 Z M 37.4023 -15.5762 C 35.1074 -15.5762 33.3496 -17.1875 33.3496 -19.6777 C 33.3496 -21.2402 33.8867 -22.5098 35.2539 -24.1211 L 45.5566 -36.2305 C 47.9004 -38.9648 49.9512 -41.0645 49.9512 -43.7012 C 49.9512 -46.2402 47.998 -48.0469 45.2148 -48.0469 C 42.7246 -48.0469 40.8691 -46.6309 39.9902 -44.043 C 39.4531 -42.3828 38.3789 -41.2598 36.377 -41.2598 C 34.1309 -41.2598 32.7637 -42.7734 32.7637 -45.0195 C 32.7637 -45.8496 32.9102 -46.4844 33.1055 -47.2656 C 34.4238 -52.2949 39.502 -55.8105 45.3125 -55.8105 C 52.832 -55.8105 57.6172 -51.1719 57.666 -44.4336 C 57.7148 -39.8438 55.3711 -36.3281 51.5625 -31.9336 L 44.7266 -23.877 L 44.7266 -23.5352 L 54.834 -23.5352 C 57.2266 -23.5352 58.7891 -22.0703 58.7891 -19.5801 C 58.7891 -17.0898 57.2266 -15.5762 54.834 -15.5762 Z M 68.5547 -15.5762 C 66.2109 -15.5762 64.4531 -17.1875 64.4531 -19.6777 C 64.4531 -21.2402 65.0391 -22.5098 66.3574 -24.1211 L 76.709 -36.2305 C 79.0039 -38.9648 81.0547 -41.0645 81.0547 -43.7012 C 81.0547 -46.2402 79.1016 -48.0469 76.3184 -48.0469 C 73.7793 -48.0469 71.9727 -46.6309 71.1426 -44.043 C 70.5566 -42.3828 69.5312 -41.2598 67.4805 -41.2598 C 65.2832 -41.2598 63.8672 -42.7734 63.8672 -45.0195 C 63.8672 -45.8496 63.9648 -46.4844 64.209 -47.2656 C 65.5762 -52.2949 70.6055 -55.8105 76.416 -55.8105 C 83.9844 -55.8105 88.6719 -51.1719 88.7695 -44.4336 C 88.7695 -39.8438 86.4746 -36.3281 82.7148 -31.9336 L 75.7812 -23.877 L 75.7812 -23.5352 L 85.9375 -23.5352 C 88.3301 -23.5352 89.8926 -22.0703 89.8926 -19.5801 C 89.8926 -17.0898 88.3301 -15.5762 85.9375 -15.5762 Z"/>
  </g>
  <g id="Semibold-M" transform="matrix(1 0 0 1 1983.5 1126)">
   <path d="M 59.7656 15.8203 C 87.7441 15.8203 110.791 -7.22656 110.791 -35.2051 C 110.791 -63.1836 87.6953 -86.2793 59.7656 -86.2793 C 31.7871 -86.2793 8.74023 -63.1836 8.74023 -35.2051 C 8.74023 -7.22656 31.7871 15.8203 59.7656 15.8203 Z M 35.498 -15.1367 C 33.3496 -15.1367 31.8359 -16.5527 31.8359 -18.8477 C 31.8359 -20.166 32.2754 -21.3379 33.4473 -22.6562 L 44.9219 -36.1328 C 47.3145 -38.916 49.5605 -41.3086 49.5605 -44.1895 C 49.5605 -47.2168 47.3633 -49.2676 44.0918 -49.2676 C 41.1621 -49.2676 39.0625 -47.6562 38.0371 -44.6289 C 37.4023 -43.0176 36.4746 -41.9922 34.668 -41.9922 C 32.5684 -41.9922 31.2988 -43.4082 31.2988 -45.5078 C 31.2988 -46.2402 31.4453 -46.875 31.5918 -47.6074 C 32.959 -52.7344 38.1348 -56.3477 44.043 -56.3477 C 51.8066 -56.3477 56.6895 -51.7578 56.7383 -44.873 C 56.7871 -40.0879 54.248 -36.4746 50.4395 -32.1289 L 42.4316 -22.7539 L 42.4316 -22.3633 L 54.2969 -22.3633 C 56.4453 -22.3633 57.8613 -21.0449 57.8613 -18.7988 C 57.8613 -16.5527 56.4453 -15.1367 54.2969 -15.1367 Z M 67.6758 -15.1367 C 65.5273 -15.1367 63.9648 -16.5527 63.9648 -18.8477 C 63.9648 -20.166 64.502 -21.3379 65.625 -22.6562 L 77.0996 -36.1328 C 79.4922 -38.916 81.7383 -41.3086 81.7383 -44.1895 C 81.7383 -47.2168 79.4922 -49.2676 76.2695 -49.2676 C 73.291 -49.2676 71.2402 -47.6562 70.2148 -44.6289 C 69.5801 -43.0176 68.6523 -41.9922 66.8457 -41.9922 C 64.7461 -41.9922 63.4766 -43.4082 63.4766 -45.5078 C 63.4766 -46.2402 63.5742 -46.875 63.7695 -47.6074 C 65.1367 -52.7344 70.3125 -56.3477 76.2207 -56.3477 C 83.9844 -56.3477 88.8672 -51.7578 88.916 -44.873 C 88.916 -40.0879 86.4258 -36.4746 82.666 -32.1289 L 74.6094 -22.7539 L 74.6094 -22.3633 L 86.4746 -22.3633 C 88.5742 -22.3633 90.0391 -21.0449 90.0391 -18.7988 C 90.0391 -16.5527 88.5742 -15.1367 86.4746 -15.1367 Z"/>
  </g>
  <g id="Medium-M" transform="matrix(1 0 0 1 1687.3 1126)">
   <path d="M 59.2285 15.2832 C 86.9141 15.2832 109.766 -7.56836 109.766 -35.2051 C 109.766 -62.8906 86.8652 -85.7422 59.1797 -85.7422 C 31.543 -85.7422 8.74023 -62.8906 8.74023 -35.2051 C 8.74023 -7.56836 31.5918 15.2832 59.2285 15.2832 Z M 34.0332 -14.7461 C 32.0801 -14.7461 30.6641 -16.1133 30.6641 -18.2129 C 30.6641 -19.3848 31.1035 -20.459 32.0801 -21.582 L 44.4336 -36.084 C 46.8262 -38.916 49.2676 -41.5039 49.2676 -44.5801 C 49.2676 -47.9492 46.9238 -50.1953 43.2617 -50.1953 C 39.9414 -50.1953 37.6953 -48.4863 36.5234 -45.0684 C 35.8887 -43.5059 35.0098 -42.5293 33.3496 -42.5293 C 31.3965 -42.5293 30.1758 -43.8477 30.1758 -45.8496 C 30.1758 -46.582 30.3711 -47.168 30.4688 -47.8516 C 31.8359 -53.0273 37.1094 -56.7871 43.1152 -56.7871 C 50.9766 -56.7871 56.0059 -52.1973 56.0547 -45.166 C 56.0547 -40.2832 53.3691 -36.6211 49.6094 -32.2266 L 40.7227 -21.8262 L 40.7227 -21.4844 L 53.9062 -21.4844 C 55.8105 -21.4844 57.1777 -20.3125 57.1777 -18.1641 C 57.1777 -16.1133 55.8105 -14.7461 53.9062 -14.7461 Z M 67.041 -14.7461 C 64.9902 -14.7461 63.623 -16.1133 63.623 -18.2129 C 63.623 -19.3848 64.0625 -20.459 65.0391 -21.582 L 77.3926 -36.084 C 79.834 -38.916 82.2754 -41.5039 82.2754 -44.5801 C 82.2754 -47.9492 79.834 -50.1953 76.2207 -50.1953 C 72.9492 -50.1953 70.6543 -48.4863 69.4824 -45.0684 C 68.8477 -43.5059 67.9688 -42.5293 66.3086 -42.5293 C 64.3555 -42.5293 63.1836 -43.8477 63.1836 -45.8496 C 63.1836 -46.582 63.2812 -47.168 63.4766 -47.8516 C 64.7949 -53.0273 70.0684 -56.7871 76.0742 -56.7871 C 83.9355 -56.7871 89.0137 -52.1973 89.0137 -45.166 C 89.0137 -40.2832 86.377 -36.6211 82.6172 -32.2266 L 73.6816 -21.8262 L 73.6816 -21.4844 L 86.8652 -21.4844 C 88.7695 -21.4844 90.1367 -20.3125 90.1367 -18.1641 C 90.1367 -16.1133 88.7695 -14.7461 86.8652 -14.7461 Z"/>
  </g>
  <g id="Regular-M" transform="matrix(1 0 0 1 1391.3 1126)">
   <path d="M 58.5449 14.5508 C 85.791 14.5508 108.35 -8.00781 108.35 -35.2539 C 108.35 -62.4512 85.7422 -85.0586 58.4961 -85.0586 C 31.2988 -85.0586 8.74023 -62.4512 8.74023 -35.2539 C 8.74023 -8.00781 31.3477 14.5508 58.5449 14.5508 Z M 32.1777 -14.3066 C 30.3223 -14.3066 29.1992 -15.5273 29.1992 -17.334 C 29.1992 -18.3594 29.4922 -19.2383 30.3223 -20.1172 L 43.7988 -35.9863 C 46.2402 -38.8672 48.9258 -41.6992 48.9258 -45.0684 C 48.9258 -48.877 46.2891 -51.416 42.1387 -51.416 C 38.4277 -51.416 35.8887 -49.5117 34.5215 -45.6543 C 33.8867 -44.1406 33.1055 -43.2617 31.6406 -43.2617 C 29.834 -43.2617 28.7598 -44.4824 28.7598 -46.3379 C 28.7598 -46.9727 28.9062 -47.5586 29.0039 -48.1934 C 30.3223 -53.4668 35.791 -57.3242 41.8457 -57.3242 C 49.9023 -57.3242 55.127 -52.7344 55.127 -45.6055 C 55.127 -40.5273 52.2949 -36.7676 48.5352 -32.373 L 38.4766 -20.7031 L 38.4766 -20.3613 L 53.3691 -20.3613 C 55.0293 -20.3613 56.25 -19.2871 56.25 -17.334 C 56.25 -15.5273 55.0293 -14.3066 53.3691 -14.3066 Z M 66.1621 -14.3066 C 64.3066 -14.3066 63.1836 -15.5273 63.1836 -17.334 C 63.1836 -18.3594 63.5254 -19.2383 64.2578 -20.1172 L 77.832 -35.9863 C 80.2734 -38.8672 82.959 -41.6992 82.959 -45.0684 C 82.959 -48.877 80.2734 -51.416 76.1719 -51.416 C 72.4609 -51.416 69.873 -49.5117 68.5547 -45.6543 C 67.9199 -44.1406 67.1387 -43.2617 65.6738 -43.2617 C 63.8672 -43.2617 62.793 -44.4824 62.793 -46.3379 C 62.793 -46.9727 62.8906 -47.5586 63.0371 -48.1934 C 64.3555 -53.4668 69.7754 -57.3242 75.8789 -57.3242 C 83.9355 -57.3242 89.1602 -52.7344 89.1602 -45.6055 C 89.1602 -40.5273 86.3281 -36.7676 82.5684 -32.373 L 72.5098 -20.7031 L 72.5098 -20.3613 L 87.4023 -20.3613 C 89.0137 -20.3613 90.2832 -19.2871 90.2832 -17.334 C 90.2832 -15.5273 89.0137 -14.3066 87.4023 -14.3066 Z"/>
  </g>
  <g id="Light-M" transform="matrix(1 0 0 1 1095.42 1126)">
   <path d="M 57.7148 13.7695 C 84.5215 13.7695 106.689 -8.39844 106.689 -35.2051 C 106.689 -62.0117 84.5215 -84.1797 57.666 -84.1797 C 30.8594 -84.1797 8.74023 -62.0117 8.74023 -35.2051 C 8.74023 -8.39844 30.9082 13.7695 57.7148 13.7695 Z M 31.4453 -14.4043 C 29.9316 -14.4043 28.9551 -15.3809 28.9551 -16.9434 C 28.9551 -17.8223 29.1992 -18.5059 29.834 -19.1895 L 44.043 -35.791 C 46.8262 -39.0625 49.1211 -41.8945 49.1211 -45.2637 C 49.1211 -49.4629 46.1426 -52.2461 41.4551 -52.2461 C 37.0605 -52.2461 33.9844 -49.8047 33.0078 -45.6543 C 32.5195 -44.3359 31.8848 -43.6035 30.5664 -43.6035 C 29.1016 -43.6035 28.2227 -44.5801 28.2227 -46.1426 C 28.2227 -46.6797 28.3691 -47.168 28.418 -47.8027 C 29.6387 -53.125 35.0586 -57.0801 41.2598 -57.0801 C 49.0723 -57.0801 54.1504 -52.5879 54.1504 -45.5566 C 54.1504 -40.918 51.6602 -37.3047 47.5586 -32.5195 L 36.4258 -19.5801 L 36.4258 -19.3359 L 52.9785 -19.3359 C 54.3945 -19.3359 55.3223 -18.4082 55.3223 -16.8945 C 55.3223 -15.4297 54.3945 -14.4043 52.9785 -14.4043 Z M 65.4785 -14.4043 C 63.916 -14.4043 62.9395 -15.3809 62.9395 -16.9434 C 62.9395 -17.8223 63.2324 -18.5059 63.8184 -19.1895 L 78.0762 -35.791 C 80.8594 -39.0625 83.1543 -41.8945 83.1543 -45.2637 C 83.1543 -49.4629 80.127 -52.2461 75.4883 -52.2461 C 71.0938 -52.2461 68.0176 -49.8047 67.041 -45.6543 C 66.5527 -44.3359 65.918 -43.6035 64.5996 -43.6035 C 63.1348 -43.6035 62.2559 -44.5801 62.2559 -46.1426 C 62.2559 -46.6797 62.3535 -47.168 62.4512 -47.8027 C 63.6719 -53.125 69.0918 -57.0801 75.293 -57.0801 C 83.1055 -57.0801 88.1836 -52.5879 88.1836 -45.5566 C 88.1836 -40.918 85.6934 -37.3047 81.5918 -32.5195 L 70.459 -19.5801 L 70.459 -19.3359 L 87.0117 -19.3359 C 88.3789 -19.3359 89.3555 -18.4082 89.3555 -16.8945 C 89.3555 -15.4297 88.3789 -14.4043 87.0117 -14.4043 Z"/>
  </g>
  <g id="Thin-M" transform="matrix(1 0 0 1 799.806 1126)">
   <path d="M 56.6406 12.7441 C 82.9102 12.7441 104.492 -8.83789 104.492 -35.1562 C 104.492 -61.4746 82.9102 -83.0566 56.5918 -83.0566 C 30.3223 -83.0566 8.74023 -61.4746 8.74023 -35.1562 C 8.74023 -8.83789 30.3223 12.7441 56.6406 12.7441 Z M 30.5176 -14.5508 C 29.3945 -14.5508 28.6621 -15.2344 28.6621 -16.4062 C 28.6621 -17.0898 28.8086 -17.5293 29.1992 -18.0176 L 44.3359 -35.5469 C 47.6562 -39.3555 49.3652 -42.1387 49.3652 -45.5078 C 49.3652 -50.2441 45.9473 -53.3691 40.5273 -53.3691 C 35.2539 -53.3691 31.4941 -50.1465 30.957 -45.6055 C 30.7617 -44.6289 30.2734 -44.043 29.1992 -44.043 C 28.125 -44.043 27.5391 -44.7754 27.5391 -45.8008 C 27.5391 -46.2891 27.5879 -46.6309 27.6855 -47.2168 C 28.7109 -52.7344 34.1309 -56.6895 40.4785 -56.6895 C 47.9004 -56.6895 52.8809 -52.3438 52.8809 -45.5566 C 52.8809 -41.4551 50.8301 -37.9395 46.2891 -32.7148 L 33.6914 -18.0664 L 33.6914 -17.9199 L 52.4902 -17.9199 C 53.5156 -17.9199 54.1016 -17.2363 54.1016 -16.2598 C 54.1016 -15.2832 53.5156 -14.5508 52.4902 -14.5508 Z M 64.5508 -14.5508 C 63.3789 -14.5508 62.6465 -15.2344 62.6465 -16.4062 C 62.6465 -17.0898 62.8418 -17.5293 63.2324 -18.0176 L 78.3691 -35.5469 C 81.6406 -39.3555 83.3984 -42.1387 83.3984 -45.5078 C 83.3984 -50.2441 79.9805 -53.3691 74.5605 -53.3691 C 69.2871 -53.3691 65.5273 -50.1465 64.9902 -45.6055 C 64.7949 -44.6289 64.3066 -44.043 63.2324 -44.043 C 62.1582 -44.043 61.5234 -44.7754 61.5234 -45.8008 C 61.5234 -46.2891 61.6211 -46.6309 61.7188 -47.2168 C 62.7441 -52.7344 68.1641 -56.6895 74.5117 -56.6895 C 81.9336 -56.6895 86.9141 -52.3438 86.9141 -45.5566 C 86.9141 -41.4551 84.8633 -37.9395 80.3223 -32.7148 L 67.7246 -18.0664 L 67.7246 -17.9199 L 86.5234 -17.9199 C 87.5488 -17.9199 88.1348 -17.2363 88.1348 -16.2598 C 88.1348 -15.2832 87.5488 -14.5508 86.5234 -14.5508 Z"/>
  </g>
  <g id="Ultralight-M" transform="matrix(1 0 0 1 503.656 1126)">
   <path d="M 56.0547 12.207 C 82.0801 12.207 103.369 -9.08203 103.369 -35.1562 C 103.369 -61.1816 82.0801 -82.4707 56.0547 -82.4707 C 30.0293 -82.4707 8.74023 -61.1816 8.74023 -35.1562 C 8.74023 -9.08203 30.0293 12.207 56.0547 12.207 Z M 30.0293 -14.6484 C 29.1016 -14.6484 28.4668 -15.1367 28.4668 -16.1133 C 28.4668 -16.6992 28.6133 -17.041 28.9062 -17.3828 L 44.5312 -35.4492 C 48.0469 -39.502 49.5117 -42.2363 49.5117 -45.6055 C 49.5117 -50.6348 45.8984 -53.9551 40.0391 -53.9551 C 34.3262 -53.9551 30.2246 -50.3418 29.9316 -45.6055 C 29.834 -44.7266 29.4434 -44.2383 28.5156 -44.2383 C 27.6367 -44.2383 27.1484 -44.873 27.1484 -45.6543 C 27.1484 -46.0938 27.1973 -46.3867 27.2949 -46.9727 C 28.2227 -52.4902 33.6426 -56.4941 40.0391 -56.4941 C 47.3145 -56.4941 52.2461 -52.1973 52.2461 -45.5566 C 52.2461 -41.6992 50.3906 -38.2812 45.6543 -32.8613 L 32.3242 -17.334 L 32.3242 -17.1875 L 52.1973 -17.1875 C 53.0762 -17.1875 53.5156 -16.6504 53.5156 -15.918 C 53.5156 -15.1855 53.0762 -14.6484 52.1973 -14.6484 Z M 64.0625 -14.6484 C 63.1348 -14.6484 62.5 -15.1367 62.5 -16.1133 C 62.5 -16.6992 62.6465 -17.041 62.9395 -17.3828 L 78.5645 -35.4492 C 82.0801 -39.502 83.5449 -42.2363 83.5449 -45.6055 C 83.5449 -50.6348 79.9316 -53.9551 74.0723 -53.9551 C 68.3594 -53.9551 64.209 -50.3418 63.916 -45.6055 C 63.8672 -44.7266 63.4766 -44.2383 62.5488 -44.2383 C 61.6699 -44.2383 61.1816 -44.873 61.1816 -45.6543 C 61.1816 -46.0938 61.2305 -46.3867 61.3281 -46.9727 C 62.2559 -52.4902 67.6758 -56.4941 74.0723 -56.4941 C 81.3477 -56.4941 86.2793 -52.1973 86.2793 -45.5566 C 86.2793 -41.6992 84.4238 -38.2812 79.6875 -32.8613 L 66.3574 -17.334 L 66.3574 -17.1875 L 86.2305 -17.1875 C 87.1094 -17.1875 87.5488 -16.6504 87.5488 -15.918 C 87.5488 -15.1855 87.1094 -14.6484 86.2305 -14.6484 Z"/>
  </g>
  <g id="Black-S" transform="matrix(1 0 0 1 2884.57 696)">
   <path d="M 48.8281 6.78711 C 71.9727 6.78711 90.8203 -12.0605 90.8203 -35.2051 C 90.8203 -58.3496 71.9727 -77.1973 48.8281 -77.1973 C 25.6836 -77.1973 6.83594 -58.3496 6.83594 -35.2051 C 6.83594 -12.0605 25.6836 6.78711 48.8281 6.78711 Z M 33.252 -20.8008 C 31.0547 -20.8008 29.248 -22.3145 29.248 -24.8047 C 29.248 -26.416 29.834 -27.7344 31.3477 -29.541 L 37.0117 -36.1816 C 38.7695 -38.2324 39.8926 -39.3555 39.8926 -40.8691 C 39.8926 -41.8945 38.916 -42.7734 37.7441 -42.7734 C 36.6699 -42.7734 35.791 -41.9922 35.4492 -40.918 C 35.0586 -39.5508 34.0332 -38.4766 32.0312 -38.4766 C 29.9805 -38.4766 28.6621 -39.8926 28.6621 -41.8945 C 28.6621 -42.6758 28.7598 -43.2617 28.9551 -43.9453 C 30.0293 -47.7539 33.7402 -50.1953 38.0859 -50.1953 C 43.6035 -50.1953 46.9727 -46.582 47.0703 -41.6016 C 47.1191 -38.3301 45.6543 -35.7422 42.6758 -32.3242 L 39.6973 -28.7598 L 39.6973 -28.418 L 44.043 -28.418 C 46.4844 -28.418 47.998 -27.0508 47.998 -24.6582 C 47.998 -22.2168 46.4844 -20.8008 44.043 -20.8008 Z M 55.4688 -20.8008 C 53.2715 -20.8008 51.4648 -22.3145 51.4648 -24.8047 C 51.4648 -26.416 52.0508 -27.7344 53.5645 -29.541 L 59.2285 -36.1816 C 60.9375 -38.2324 62.0605 -39.3555 62.0605 -40.8691 C 62.0605 -41.8945 61.084 -42.7734 59.9121 -42.7734 C 58.8379 -42.7734 57.959 -41.9922 57.666 -40.918 C 57.2754 -39.5508 56.25 -38.4766 54.248 -38.4766 C 52.1973 -38.4766 50.8301 -39.8926 50.8301 -41.8945 C 50.8301 -42.6758 50.9277 -43.2617 51.1719 -43.9453 C 52.2461 -47.7539 55.9082 -50.1953 60.3027 -50.1953 C 65.8203 -50.1953 69.1406 -46.582 69.2383 -41.6016 C 69.2871 -38.3301 67.8711 -35.7422 64.8926 -32.3242 L 61.8652 -28.7598 L 61.8652 -28.418 L 66.2109 -28.418 C 68.7012 -28.418 70.166 -27.0508 70.166 -24.6582 C 70.166 -22.2168 68.7012 -20.8008 66.2109 -20.8008 Z"/>
  </g>
  <g id="Heavy-S" transform="matrix(1 0 0 1 2588.47 696)">
   <path d="M 48.2422 6.15234 C 70.9961 6.15234 89.5996 -12.4512 89.5996 -35.2051 C 89.5996 -57.959 70.9961 -76.6113 48.1934 -76.6113 C 25.4395 -76.6113 6.83594 -57.959 6.83594 -35.2051 C 6.83594 -12.4512 25.4395 6.15234 48.2422 6.15234 Z M 31.4453 -20.3125 C 29.3945 -20.3125 27.7832 -21.7285 27.7832 -24.0234 C 27.7832 -25.4395 28.2715 -26.6113 29.5898 -28.1738 L 36.3281 -36.1328 C 38.0859 -38.1836 39.502 -39.5508 39.502 -41.3574 C 39.502 -42.7734 38.2812 -43.8965 36.7188 -43.8965 C 35.2539 -43.8965 34.1797 -43.0176 33.6426 -41.5039 C 33.2031 -40.1367 32.2754 -39.1602 30.4199 -39.1602 C 28.5156 -39.1602 27.2949 -40.4785 27.2949 -42.3828 C 27.2949 -43.1152 27.3926 -43.7012 27.5391 -44.3359 C 28.6133 -48.1934 32.4707 -50.7812 36.9141 -50.7812 C 42.627 -50.7812 46.1914 -47.168 46.2402 -41.9922 C 46.2891 -38.5254 44.6289 -35.8398 41.6992 -32.4707 L 37.6953 -27.7344 L 37.6953 -27.3926 L 43.5547 -27.3926 C 45.752 -27.3926 47.168 -26.123 47.168 -23.9258 C 47.168 -21.6797 45.752 -20.3125 43.5547 -20.3125 Z M 54.6875 -20.3125 C 52.6367 -20.3125 51.0254 -21.7285 51.0254 -24.0234 C 51.0254 -25.4395 51.5625 -26.6113 52.8809 -28.1738 L 59.6191 -36.1328 C 61.3281 -38.1836 62.7441 -39.5508 62.7441 -41.3574 C 62.7441 -42.7734 61.5234 -43.8965 59.9121 -43.8965 C 58.4961 -43.8965 57.4219 -43.0176 56.8848 -41.5039 C 56.4453 -40.1367 55.5176 -39.1602 53.7109 -39.1602 C 51.7578 -39.1602 50.4883 -40.4785 50.4883 -42.3828 C 50.4883 -43.1152 50.5859 -43.7012 50.8301 -44.3359 C 51.9043 -48.1934 55.7129 -50.7812 60.1562 -50.7812 C 65.918 -50.7812 69.4336 -47.168 69.4824 -41.9922 C 69.5312 -38.5254 67.8711 -35.8398 64.9414 -32.4707 L 60.8887 -27.7344 L 60.8887 -27.3926 L 66.7969 -27.3926 C 68.9941 -27.3926 70.4102 -26.123 70.4102 -23.9258 C 70.4102 -21.6797 68.9941 -20.3125 66.7969 -20.3125 Z"/>
  </g>
  <g id="Bold-S" transform="matrix(1 0 0 1 2292.44 696)">
   <path d="M 47.5586 5.46875 C 69.873 5.46875 88.2324 -12.8906 88.2324 -35.2051 C 88.2324 -57.5684 69.873 -75.9277 47.5098 -75.9277 C 25.1953 -75.9277 6.83594 -57.5684 6.83594 -35.2051 C 6.83594 -12.8906 25.1953 5.46875 47.5586 5.46875 Z M 29.3945 -19.7754 C 27.4902 -19.7754 26.123 -21.0938 26.123 -23.0957 C 26.123 -24.3652 26.5625 -25.3906 27.6367 -26.709 L 35.5957 -36.0352 C 37.3535 -38.0859 39.0625 -39.7949 39.0625 -41.8457 C 39.0625 -43.75 37.5977 -45.1172 35.5469 -45.1172 C 33.6914 -45.1172 32.4219 -44.1406 31.6406 -42.1387 C 31.1035 -40.8203 30.2734 -39.9414 28.6621 -39.9414 C 26.8555 -39.9414 25.7324 -41.1621 25.7324 -42.9688 C 25.7324 -43.6523 25.8301 -44.1406 25.9766 -44.7754 C 27.0508 -48.7305 31.0547 -51.4648 35.5957 -51.4648 C 41.5527 -51.4648 45.3125 -47.8027 45.3613 -42.4805 C 45.3613 -38.7695 43.457 -35.9863 40.5762 -32.6172 L 35.4004 -26.5625 L 35.4004 -26.2695 L 43.0176 -26.2695 C 44.9219 -26.2695 46.2402 -25.0977 46.2402 -23.0469 C 46.2402 -21.0449 44.9219 -19.7754 43.0176 -19.7754 Z M 53.8086 -19.7754 C 51.9043 -19.7754 50.5371 -21.0938 50.5371 -23.0957 C 50.5371 -24.3652 50.9766 -25.3906 52.0508 -26.709 L 60.0098 -36.0352 C 61.7676 -38.0859 63.4766 -39.7949 63.4766 -41.8457 C 63.4766 -43.75 62.0117 -45.1172 59.9609 -45.1172 C 58.1055 -45.1172 56.8359 -44.1406 56.0547 -42.1387 C 55.5664 -40.8203 54.7363 -39.9414 53.0762 -39.9414 C 51.2695 -39.9414 50.1465 -41.1621 50.1465 -42.9688 C 50.1465 -43.6523 50.2441 -44.1406 50.4395 -44.7754 C 51.5137 -48.7305 55.4688 -51.4648 60.0098 -51.4648 C 66.0156 -51.4648 69.7266 -47.8027 69.7754 -42.4805 C 69.7754 -38.7695 67.9199 -35.9863 64.9902 -32.6172 L 59.8145 -26.5625 L 59.8145 -26.2695 L 67.4316 -26.2695 C 69.3848 -26.2695 70.6543 -25.0977 70.6543 -23.0469 C 70.6543 -21.0449 69.3848 -19.7754 67.4316 -19.7754 Z"/>
  </g>
  <g id="Semibold-S" transform="matrix(1 0 0 1 1996.2 696)">
   <path d="M 47.0703 4.98047 C 69.0918 4.98047 87.3047 -13.1836 87.3047 -35.2539 C 87.3047 -57.2754 69.0918 -75.4883 47.0215 -75.4883 C 25 -75.4883 6.83594 -57.2754 6.83594 -35.2539 C 6.83594 -13.1836 25.0488 4.98047 47.0703 4.98047 Z M 27.9785 -19.4336 C 26.2207 -19.4336 24.9512 -20.6543 24.9512 -22.5098 C 24.9512 -23.584 25.3418 -24.5605 26.3184 -25.6348 L 35.0586 -35.9863 C 36.8164 -38.0371 38.7695 -39.9414 38.7695 -42.2363 C 38.7695 -44.4336 37.1582 -45.9961 34.7168 -45.9961 C 32.6172 -45.9961 31.1523 -44.9219 30.2246 -42.627 C 29.6875 -41.3086 28.9062 -40.4297 27.4414 -40.4297 C 25.6836 -40.4297 24.6582 -41.6016 24.6582 -43.3594 C 24.6582 -43.9941 24.7559 -44.4824 24.9023 -45.0684 C 25.9766 -49.0723 30.0781 -51.9043 34.668 -51.9043 C 40.8203 -51.9043 44.7266 -48.2422 44.7266 -42.8223 C 44.7754 -38.916 42.6758 -36.084 39.7949 -32.7637 L 33.8379 -25.7812 L 33.8379 -25.4883 L 42.627 -25.4883 C 44.3848 -25.4883 45.6055 -24.4141 45.6055 -22.4609 C 45.6055 -20.6055 44.3848 -19.4336 42.627 -19.4336 Z M 53.2227 -19.4336 C 51.416 -19.4336 50.1953 -20.6543 50.1953 -22.5098 C 50.1953 -23.584 50.5859 -24.5605 51.5137 -25.6348 L 60.3027 -35.9863 C 62.0605 -38.0371 63.9648 -39.9414 63.9648 -42.2363 C 63.9648 -44.4336 62.3535 -45.9961 59.9609 -45.9961 C 57.8613 -45.9961 56.3965 -44.9219 55.4688 -42.627 C 54.9316 -41.3086 54.1504 -40.4297 52.6855 -40.4297 C 50.9766 -40.4297 49.8535 -41.6016 49.8535 -43.3594 C 49.8535 -43.9941 49.9512 -44.4824 50.1465 -45.0684 C 51.2207 -49.0723 55.3223 -51.9043 59.9121 -51.9043 C 66.0645 -51.9043 69.9219 -48.2422 69.9707 -42.8223 C 69.9707 -38.916 67.9199 -36.084 65.0391 -32.7637 L 59.082 -25.7812 L 59.082 -25.4883 L 67.8711 -25.4883 C 69.5801 -25.4883 70.8496 -24.4141 70.8496 -22.4609 C 70.8496 -20.6055 69.5801 -19.4336 67.8711 -19.4336 Z"/>
  </g>
  <g id="Medium-S" transform="matrix(1 0 0 1 1699.83 696)">
   <path d="M 46.7285 4.63867 C 68.5547 4.63867 86.6211 -13.4277 86.6211 -35.2539 C 86.6211 -57.0312 68.5059 -75.1465 46.6797 -75.1465 C 24.8535 -75.1465 6.83594 -57.0312 6.83594 -35.2539 C 6.83594 -13.4277 24.9023 4.63867 46.7285 4.63867 Z M 26.9043 -19.1406 C 25.2441 -19.1406 24.0723 -20.3125 24.0723 -22.0215 C 24.0723 -23.0469 24.4141 -23.9258 25.293 -24.8535 L 34.668 -35.9375 C 36.4258 -38.0371 38.5254 -40.0391 38.5254 -42.4805 C 38.5254 -44.9707 36.7676 -46.6309 34.1309 -46.6309 C 31.8359 -46.6309 30.2246 -45.5078 29.1504 -42.9688 C 28.6133 -41.6504 27.8809 -40.8203 26.5137 -40.8203 C 24.8535 -40.8203 23.8281 -41.9434 23.8281 -43.6523 C 23.8281 -44.2383 23.9746 -44.7266 24.0723 -45.3125 C 25.1953 -49.3164 29.3457 -52.2461 33.9844 -52.2461 C 40.2344 -52.2461 44.2383 -48.584 44.2871 -43.0176 C 44.2871 -39.0137 42.041 -36.1328 39.209 -32.8125 L 32.666 -25.1953 L 32.666 -24.9023 L 42.334 -24.9023 C 43.9453 -24.9023 45.1172 -23.877 45.1172 -22.0215 C 45.1172 -20.2637 43.9453 -19.1406 42.334 -19.1406 Z M 52.7832 -19.1406 C 51.0742 -19.1406 49.9023 -20.3125 49.9023 -22.0215 C 49.9023 -23.0469 50.293 -23.9258 51.123 -24.8535 L 60.5469 -35.9375 C 62.3047 -38.0371 64.3555 -40.0391 64.3555 -42.4805 C 64.3555 -44.9707 62.5977 -46.6309 59.9609 -46.6309 C 57.666 -46.6309 56.0547 -45.5078 55.0293 -42.9688 C 54.4434 -41.6504 53.7109 -40.8203 52.3438 -40.8203 C 50.6836 -40.8203 49.6582 -41.9434 49.6582 -43.6523 C 49.6582 -44.2383 49.7559 -44.7266 49.9512 -45.3125 C 51.0254 -49.3164 55.1758 -52.2461 59.8145 -52.2461 C 66.1133 -52.2461 70.1172 -48.584 70.1172 -43.0176 C 70.1172 -39.0137 67.9199 -36.1328 65.0879 -32.8125 L 58.5449 -25.1953 L 58.5449 -24.9023 L 68.2129 -24.9023 C 69.7754 -24.9023 70.9473 -23.877 70.9473 -22.0215 C 70.9473 -20.2637 69.7754 -19.1406 68.2129 -19.1406 Z"/>
  </g>
  <g id="Regular-S" transform="matrix(1 0 0 1 1403.58 696)">
   <path d="M 46.2402 4.15039 C 67.7734 4.15039 85.6934 -13.7207 85.6934 -35.2539 C 85.6934 -56.7871 67.7246 -74.6582 46.1914 -74.6582 C 24.707 -74.6582 6.83594 -56.7871 6.83594 -35.2539 C 6.83594 -13.7207 24.7559 4.15039 46.2402 4.15039 Z M 25.5371 -18.75 C 23.9746 -18.75 22.9492 -19.873 22.9492 -21.4355 C 22.9492 -22.2656 23.2422 -23.0957 23.9746 -23.8281 L 34.1797 -35.8887 C 35.9375 -37.9883 38.2324 -40.2344 38.2324 -42.8711 C 38.2324 -45.6543 36.3281 -47.5098 33.3496 -47.5098 C 30.7617 -47.5098 29.0039 -46.2891 27.7832 -43.4082 C 27.1973 -42.1387 26.5137 -41.3574 25.293 -41.3574 C 23.7305 -41.3574 22.7539 -42.3828 22.7539 -44.043 C 22.7539 -44.5801 22.9004 -45.0684 22.998 -45.6055 C 24.1211 -49.6582 28.3691 -52.6855 33.0566 -52.6855 C 39.502 -52.6855 43.6523 -49.0234 43.6523 -43.3594 C 43.6523 -39.1602 41.2598 -36.2305 38.4766 -32.9102 L 31.1035 -24.3652 L 31.1035 -24.1211 L 41.9922 -24.1211 C 43.4082 -24.1211 44.4824 -23.1445 44.4824 -21.4355 C 44.4824 -19.873 43.4082 -18.75 41.9922 -18.75 Z M 52.1973 -18.75 C 50.5859 -18.75 49.5605 -19.873 49.5605 -21.4355 C 49.5605 -22.2656 49.9023 -23.0957 50.5859 -23.8281 L 60.8398 -35.8887 C 62.5977 -37.9883 64.8926 -40.2344 64.8926 -42.8711 C 64.8926 -45.6543 62.9395 -47.5098 60.0098 -47.5098 C 57.4219 -47.5098 55.6641 -46.2891 54.4434 -43.4082 C 53.8574 -42.1387 53.1738 -41.3574 51.9531 -41.3574 C 50.3906 -41.3574 49.4141 -42.3828 49.4141 -44.043 C 49.4141 -44.5801 49.5117 -45.0684 49.6582 -45.6055 C 50.7812 -49.6582 55.0293 -52.6855 59.7168 -52.6855 C 66.1621 -52.6855 70.3125 -49.0234 70.3125 -43.3594 C 70.3125 -39.1602 67.9199 -36.2305 65.1367 -32.9102 L 57.7637 -24.3652 L 57.7637 -24.1211 L 68.6523 -24.1211 C 70.0195 -24.1211 71.1426 -23.1445 71.1426 -21.4355 C 71.1426 -19.873 70.0195 -18.75 68.6523 -18.75 Z"/>
  </g>
  <g id="Light-S" transform="matrix(1 0 0 1 1107.6 696)">
   <path d="M 45.5078 3.4668 C 66.6992 3.4668 84.2285 -14.0625 84.2285 -35.2051 C 84.2285 -56.3965 66.6504 -73.9258 45.5078 -73.9258 C 24.3164 -73.9258 6.83594 -56.3965 6.83594 -35.2051 C 6.83594 -14.0625 24.3652 3.4668 45.5078 3.4668 Z M 24.9023 -18.8477 C 23.584 -18.8477 22.7539 -19.7266 22.7539 -21.0449 C 22.7539 -21.7773 22.998 -22.4121 23.5352 -23.0469 L 34.375 -35.7422 C 36.4746 -38.1836 38.3789 -40.3809 38.3789 -43.0176 C 38.3789 -46.1426 36.1816 -48.2422 32.7148 -48.2422 C 29.541 -48.2422 27.3438 -46.5332 26.416 -43.4082 C 25.9766 -42.2852 25.4395 -41.6504 24.3652 -41.6504 C 23.0469 -41.6504 22.3145 -42.5293 22.3145 -43.8477 C 22.3145 -44.3359 22.4121 -44.7266 22.5098 -45.2148 C 23.4863 -49.3652 27.7344 -52.4414 32.5195 -52.4414 C 38.7695 -52.4414 42.8223 -48.877 42.8223 -43.3594 C 42.8223 -39.502 40.7227 -36.6699 37.6465 -33.0566 L 29.2969 -23.3887 L 29.2969 -23.1445 L 41.6504 -23.1445 C 42.8223 -23.1445 43.7012 -22.3633 43.7012 -21.0449 C 43.7012 -19.7754 42.8223 -18.8477 41.6504 -18.8477 Z M 51.5625 -18.8477 C 50.2441 -18.8477 49.3652 -19.7266 49.3652 -21.0449 C 49.3652 -21.7773 49.6582 -22.4121 50.1465 -23.0469 L 61.0352 -35.7422 C 63.1348 -38.1836 65.0391 -40.3809 65.0391 -43.0176 C 65.0391 -46.1426 62.8418 -48.2422 59.375 -48.2422 C 56.2012 -48.2422 54.0039 -46.5332 53.0762 -43.4082 C 52.6367 -42.2852 52.0996 -41.6504 51.0254 -41.6504 C 49.707 -41.6504 48.9746 -42.5293 48.9746 -43.8477 C 48.9746 -44.3359 49.0234 -44.7266 49.1699 -45.2148 C 50.1465 -49.3652 54.3945 -52.4414 59.1797 -52.4414 C 65.4297 -52.4414 69.4824 -48.877 69.4824 -43.3594 C 69.4824 -39.502 67.3828 -36.6699 64.3066 -33.0566 L 55.957 -23.3887 L 55.957 -23.1445 L 68.3105 -23.1445 C 69.4824 -23.1445 70.3613 -22.3633 70.3613 -21.0449 C 70.3613 -19.7754 69.4824 -18.8477 68.3105 -18.8477 Z"/>
  </g>
  <g id="Thin-S" transform="matrix(1 0 0 1 811.867 696)">
   <path d="M 44.5801 2.53906 C 65.2832 2.53906 82.2754 -14.4531 82.2754 -35.2051 C 82.2754 -55.9082 65.2344 -72.9004 44.5312 -72.9004 C 23.8281 -72.9004 6.83594 -55.9082 6.83594 -35.2051 C 6.83594 -14.4531 23.877 2.53906 44.5801 2.53906 Z M 24.0723 -18.9941 C 23.0957 -18.9941 22.5098 -19.5801 22.5098 -20.5566 C 22.5098 -21.1426 22.6562 -21.5332 22.998 -21.9727 L 34.668 -35.5469 C 37.1582 -38.4277 38.623 -40.5762 38.623 -43.2129 C 38.623 -46.8262 36.0352 -49.2188 31.9336 -49.2188 C 27.9785 -49.2188 25.1465 -46.875 24.6094 -43.3594 C 24.4141 -42.5293 24.0234 -42.041 23.1445 -42.041 C 22.2168 -42.041 21.6797 -42.6758 21.6797 -43.6035 C 21.6797 -43.9941 21.7773 -44.2871 21.8262 -44.7266 C 22.6562 -49.0234 26.9043 -52.0996 31.8359 -52.0996 C 37.7441 -52.0996 41.6992 -48.6816 41.6992 -43.3105 C 41.6992 -39.9902 39.9902 -37.207 36.5234 -33.252 L 26.9043 -22.0703 L 26.9043 -21.9238 L 41.2109 -21.9238 C 42.0898 -21.9238 42.627 -21.3379 42.627 -20.459 C 42.627 -19.6289 42.0898 -18.9941 41.2109 -18.9941 Z M 50.7324 -18.9941 C 49.7559 -18.9941 49.1211 -19.5801 49.1211 -20.5566 C 49.1211 -21.1426 49.3164 -21.5332 49.6582 -21.9727 L 61.3281 -35.5469 C 63.8184 -38.4277 65.2832 -40.5762 65.2832 -43.2129 C 65.2832 -46.8262 62.6953 -49.2188 58.5938 -49.2188 C 54.6387 -49.2188 51.8066 -46.875 51.2695 -43.3594 C 51.0742 -42.5293 50.6836 -42.041 49.8047 -42.041 C 48.877 -42.041 48.3398 -42.6758 48.3398 -43.6035 C 48.3398 -43.9941 48.3887 -44.2871 48.4863 -44.7266 C 49.3164 -49.0234 53.5645 -52.0996 58.4961 -52.0996 C 64.4043 -52.0996 68.3594 -48.6816 68.3594 -43.3105 C 68.3594 -39.9902 66.6504 -37.207 63.1836 -33.252 L 53.5645 -22.0703 L 53.5645 -21.9238 L 67.8711 -21.9238 C 68.75 -21.9238 69.2871 -21.3379 69.2871 -20.459 C 69.2871 -19.6289 68.75 -18.9941 67.8711 -18.9941 Z"/>
  </g>
  <g id="Ultralight-S" transform="matrix(1 0 0 1 515.644 696)">
   <path d="M 44.043 2.05078 C 64.502 2.05078 81.2988 -14.6973 81.2988 -35.1562 C 81.2988 -55.6152 64.502 -72.3633 44.043 -72.3633 C 23.584 -72.3633 6.83594 -55.6152 6.83594 -35.1562 C 6.83594 -14.6973 23.584 2.05078 44.043 2.05078 Z M 23.6328 -19.0918 C 22.8516 -19.0918 22.3633 -19.4824 22.3633 -20.3125 C 22.3633 -20.8496 22.4609 -21.0938 22.7051 -21.4355 L 34.8145 -35.4492 C 37.5 -38.5254 38.7207 -40.6738 38.7207 -43.3105 C 38.7207 -47.168 35.9375 -49.7559 31.4941 -49.7559 C 27.1484 -49.7559 23.9746 -47.0215 23.6816 -43.3594 C 23.6328 -42.627 23.2422 -42.2363 22.5098 -42.2363 C 21.7773 -42.2363 21.3379 -42.7734 21.3379 -43.457 C 21.3379 -43.7988 21.4355 -44.043 21.4844 -44.4824 C 22.2168 -48.8281 26.4648 -51.9531 31.4941 -51.9531 C 37.207 -51.9531 41.1133 -48.584 41.1133 -43.3105 C 41.1133 -40.2344 39.5996 -37.5488 35.9375 -33.3496 L 25.6836 -21.3867 L 25.6836 -21.2891 L 40.9668 -21.2891 C 41.6992 -21.2891 42.0898 -20.8008 42.0898 -20.166 C 42.0898 -19.5312 41.6992 -19.0918 40.9668 -19.0918 Z M 50.293 -19.0918 C 49.5117 -19.0918 49.0234 -19.4824 49.0234 -20.3125 C 49.0234 -20.8496 49.1211 -21.0938 49.3652 -21.4355 L 61.4746 -35.4492 C 64.1602 -38.5254 65.3809 -40.6738 65.3809 -43.3105 C 65.3809 -47.168 62.5977 -49.7559 58.1543 -49.7559 C 53.8086 -49.7559 50.6348 -47.0215 50.3418 -43.3594 C 50.293 -42.627 49.9023 -42.2363 49.1699 -42.2363 C 48.4375 -42.2363 47.998 -42.7734 47.998 -43.457 C 47.998 -43.7988 48.0957 -44.043 48.1445 -44.4824 C 48.877 -48.8281 53.125 -51.9531 58.1543 -51.9531 C 63.8672 -51.9531 67.7734 -48.584 67.7734 -43.3105 C 67.7734 -40.2344 66.2598 -37.5488 62.5977 -33.3496 L 52.3438 -21.3867 L 52.3438 -21.2891 L 67.627 -21.2891 C 68.3594 -21.2891 68.75 -20.8008 68.75 -20.166 C 68.75 -19.5312 68.3594 -19.0918 67.627 -19.0918 Z"/>
  </g>
 </g>
</svg>
