<?xml version="1.0" encoding="UTF-8"?>
<!--Generator: Apple Native CoreSVG 123-->
<!DOCTYPE svg
PUBLIC "-//W3C//DTD SVG 1.1//EN"
       "http://www.w3.org/Graphics/SVG/1.1/DTD/svg11.dtd">
<svg version="1.1" xmlns="http://www.w3.org/2000/svg" xmlns:xlink="http://www.w3.org/1999/xlink" width="3300" height="2200">
 <!--glyph: "uni100521.medium", point size: 100.000000, font version: "Version 15.0d7e11", template writer version: "5"-->
 <g id="Notes">
  <rect height="2200" id="artboard" style="fill:white;opacity:1" width="3300" x="0" y="0"/>
  <line id="" style="fill:none;stroke:black;opacity:1;stroke-width:0.5;" x1="263" x2="3036" y1="292" y2="292"/>
  <text style="stroke:none;fill:black;font-family:-apple-system,&quot;SF Pro Display&quot;,&quot;SF Pro Text&quot;,Helvetica,sans-serif;font-weight:bold;" transform="matrix(1 0 0 1 263 322)">Weight/Scale Variations</text>
  <text style="stroke:none;fill:black;font-family:-apple-system,&quot;SF Pro Display&quot;,&quot;SF Pro Text&quot;,Helvetica,sans-serif;text-anchor:middle;" transform="matrix(1 0 0 1 559.711 322)">Ultralight</text>
  <text style="stroke:none;fill:black;font-family:-apple-system,&quot;SF Pro Display&quot;,&quot;SF Pro Text&quot;,Helvetica,sans-serif;text-anchor:middle;" transform="matrix(1 0 0 1 856.422 322)">Thin</text>
  <text style="stroke:none;fill:black;font-family:-apple-system,&quot;SF Pro Display&quot;,&quot;SF Pro Text&quot;,Helvetica,sans-serif;text-anchor:middle;" transform="matrix(1 0 0 1 1153.13 322)">Light</text>
  <text style="stroke:none;fill:black;font-family:-apple-system,&quot;SF Pro Display&quot;,&quot;SF Pro Text&quot;,Helvetica,sans-serif;text-anchor:middle;" transform="matrix(1 0 0 1 1449.84 322)">Regular</text>
  <text style="stroke:none;fill:black;font-family:-apple-system,&quot;SF Pro Display&quot;,&quot;SF Pro Text&quot;,Helvetica,sans-serif;text-anchor:middle;" transform="matrix(1 0 0 1 1746.56 322)">Medium</text>
  <text style="stroke:none;fill:black;font-family:-apple-system,&quot;SF Pro Display&quot;,&quot;SF Pro Text&quot;,Helvetica,sans-serif;text-anchor:middle;" transform="matrix(1 0 0 1 2043.27 322)">Semibold</text>
  <text style="stroke:none;fill:black;font-family:-apple-system,&quot;SF Pro Display&quot;,&quot;SF Pro Text&quot;,Helvetica,sans-serif;text-anchor:middle;" transform="matrix(1 0 0 1 2339.98 322)">Bold</text>
  <text style="stroke:none;fill:black;font-family:-apple-system,&quot;SF Pro Display&quot;,&quot;SF Pro Text&quot;,Helvetica,sans-serif;text-anchor:middle;" transform="matrix(1 0 0 1 2636.69 322)">Heavy</text>
  <text style="stroke:none;fill:black;font-family:-apple-system,&quot;SF Pro Display&quot;,&quot;SF Pro Text&quot;,Helvetica,sans-serif;text-anchor:middle;" transform="matrix(1 0 0 1 2933.4 322)">Black</text>
  <line id="" style="fill:none;stroke:black;opacity:1;stroke-width:0.5;" x1="263" x2="3036" y1="1903" y2="1903"/>
  <g id="" transform="matrix(1 0 0 1 263 1933)">
   <path d="M 9.24805 0.830078 C 13.5547 0.830078 17.1387 -2.74414 17.1387 -7.05078 C 17.1387 -11.3574 13.5449 -14.9316 9.23828 -14.9316 C 4.94141 -14.9316 1.36719 -11.3574 1.36719 -7.05078 C 1.36719 -2.74414 4.95117 0.830078 9.24805 0.830078 Z M 9.24805 -0.654297 C 5.70312 -0.654297 2.87109 -3.49609 2.87109 -7.05078 C 2.87109 -10.6055 5.69336 -13.4473 9.23828 -13.4473 C 12.793 -13.4473 15.6348 -10.6055 15.6445 -7.05078 C 15.6543 -3.49609 12.8027 -0.654297 9.24805 -0.654297 Z M 9.22852 -3.42773 C 9.69727 -3.42773 9.9707 -3.74023 9.9707 -4.25781 L 9.9707 -6.31836 L 12.1973 -6.31836 C 12.6953 -6.31836 13.0371 -6.57227 13.0371 -7.04102 C 13.0371 -7.51953 12.7148 -7.7832 12.1973 -7.7832 L 9.9707 -7.7832 L 9.9707 -10.0098 C 9.9707 -10.5273 9.69727 -10.8496 9.22852 -10.8496 C 8.75977 -10.8496 8.50586 -10.5078 8.50586 -10.0098 L 8.50586 -7.7832 L 6.29883 -7.7832 C 5.78125 -7.7832 5.44922 -7.51953 5.44922 -7.04102 C 5.44922 -6.57227 5.80078 -6.31836 6.29883 -6.31836 L 8.50586 -6.31836 L 8.50586 -4.25781 C 8.50586 -3.75977 8.75977 -3.42773 9.22852 -3.42773 Z"/>
  </g>
  <g id="" transform="matrix(1 0 0 1 281.506 1933)">
   <path d="M 11.709 2.91016 C 17.1582 2.91016 21.6699 -1.60156 21.6699 -7.05078 C 21.6699 -12.4902 17.1484 -17.0117 11.6992 -17.0117 C 6.25977 -17.0117 1.74805 -12.4902 1.74805 -7.05078 C 1.74805 -1.60156 6.26953 2.91016 11.709 2.91016 Z M 11.709 1.25 C 7.09961 1.25 3.41797 -2.44141 3.41797 -7.05078 C 3.41797 -11.6504 7.08984 -15.3516 11.6992 -15.3516 C 16.3086 -15.3516 20 -11.6504 20.0098 -7.05078 C 20.0195 -2.44141 16.3184 1.25 11.709 1.25 Z M 11.6895 -2.41211 C 12.207 -2.41211 12.5195 -2.77344 12.5195 -3.33984 L 12.5195 -6.23047 L 15.5762 -6.23047 C 16.123 -6.23047 16.5039 -6.51367 16.5039 -7.03125 C 16.5039 -7.55859 16.1426 -7.86133 15.5762 -7.86133 L 12.5195 -7.86133 L 12.5195 -10.9277 C 12.5195 -11.5039 12.207 -11.8555 11.6895 -11.8555 C 11.1719 -11.8555 10.8789 -11.4844 10.8789 -10.9277 L 10.8789 -7.86133 L 7.83203 -7.86133 C 7.26562 -7.86133 6.89453 -7.55859 6.89453 -7.03125 C 6.89453 -6.51367 7.28516 -6.23047 7.83203 -6.23047 L 10.8789 -6.23047 L 10.8789 -3.33984 C 10.8789 -2.79297 11.1719 -2.41211 11.6895 -2.41211 Z"/>
  </g>
  <g id="" transform="matrix(1 0 0 1 304.924 1933)">
   <path d="M 14.9707 5.67383 C 21.9336 5.67383 27.6953 -0.078125 27.6953 -7.04102 C 27.6953 -14.0039 21.9238 -19.7559 14.9609 -19.7559 C 8.00781 -19.7559 2.25586 -14.0039 2.25586 -7.04102 C 2.25586 -0.078125 8.01758 5.67383 14.9707 5.67383 Z M 14.9707 3.85742 C 8.93555 3.85742 4.08203 -1.00586 4.08203 -7.04102 C 4.08203 -13.0762 8.92578 -17.9395 14.9609 -17.9395 C 21.0059 -17.9395 25.8594 -13.0762 25.8691 -7.04102 C 25.8789 -1.00586 21.0156 3.85742 14.9707 3.85742 Z M 14.9512 -1.06445 C 15.5176 -1.06445 15.8691 -1.45508 15.8691 -2.06055 L 15.8691 -6.13281 L 20.1074 -6.13281 C 20.6934 -6.13281 21.1133 -6.46484 21.1133 -7.02148 C 21.1133 -7.59766 20.7227 -7.93945 20.1074 -7.93945 L 15.8691 -7.93945 L 15.8691 -12.1875 C 15.8691 -12.8027 15.5176 -13.1934 14.9512 -13.1934 C 14.3848 -13.1934 14.0625 -12.7832 14.0625 -12.1875 L 14.0625 -7.93945 L 9.83398 -7.93945 C 9.21875 -7.93945 8.80859 -7.59766 8.80859 -7.02148 C 8.80859 -6.46484 9.23828 -6.13281 9.83398 -6.13281 L 14.0625 -6.13281 L 14.0625 -2.06055 C 14.0625 -1.47461 14.3848 -1.06445 14.9512 -1.06445 Z"/>
  </g>
  <text style="stroke:none;fill:black;font-family:-apple-system,&quot;SF Pro Display&quot;,&quot;SF Pro Text&quot;,Helvetica,sans-serif;font-weight:bold;" transform="matrix(1 0 0 1 263 1953)">Design Variations</text>
  <text style="stroke:none;fill:black;font-family:-apple-system,&quot;SF Pro Display&quot;,&quot;SF Pro Text&quot;,Helvetica,sans-serif;" transform="matrix(1 0 0 1 263 1971)">Symbols are supported in up to nine weights and three scales.</text>
  <text style="stroke:none;fill:black;font-family:-apple-system,&quot;SF Pro Display&quot;,&quot;SF Pro Text&quot;,Helvetica,sans-serif;" transform="matrix(1 0 0 1 263 1989)">For optimal layout with text and other symbols, vertically align</text>
  <text style="stroke:none;fill:black;font-family:-apple-system,&quot;SF Pro Display&quot;,&quot;SF Pro Text&quot;,Helvetica,sans-serif;" transform="matrix(1 0 0 1 263 2007)">symbols with the adjacent text.</text>
  <rect height="14" id="" style="fill:#00AEEF;stroke:none;opacity:0.4;" width="3" x="776" y="1919"/>
  <g id="" transform="matrix(1 0 0 1 779 1933)">
   <path d="M 10.5273 0 L 12.373 0 L 7.17773 -14.0918 L 5.43945 -14.0918 L 0.244141 0 L 2.08984 0 L 3.50586 -4.0332 L 9.11133 -4.0332 Z M 6.2793 -11.9531 L 6.33789 -11.9531 L 8.59375 -5.52734 L 4.02344 -5.52734 Z"/>
  </g>
  <rect height="14" id="" style="fill:#00AEEF;stroke:none;opacity:0.4;" width="3" x="791.617" y="1919"/>
  <text style="stroke:none;fill:black;font-family:-apple-system,&quot;SF Pro Display&quot;,&quot;SF Pro Text&quot;,Helvetica,sans-serif;font-weight:bold;" transform="matrix(1 0 0 1 776 1953)">Margins</text>
  <text style="stroke:none;fill:black;font-family:-apple-system,&quot;SF Pro Display&quot;,&quot;SF Pro Text&quot;,Helvetica,sans-serif;" transform="matrix(1 0 0 1 776 1971)">Leading and trailing margins on the left and right side of each symbol</text>
  <text style="stroke:none;fill:black;font-family:-apple-system,&quot;SF Pro Display&quot;,&quot;SF Pro Text&quot;,Helvetica,sans-serif;" transform="matrix(1 0 0 1 776 1989)">can be adjusted by modifying the width of the blue rectangles.</text>
  <text style="stroke:none;fill:black;font-family:-apple-system,&quot;SF Pro Display&quot;,&quot;SF Pro Text&quot;,Helvetica,sans-serif;" transform="matrix(1 0 0 1 776 2007)">Modifications are automatically applied proportionally to all</text>
  <text style="stroke:none;fill:black;font-family:-apple-system,&quot;SF Pro Display&quot;,&quot;SF Pro Text&quot;,Helvetica,sans-serif;" transform="matrix(1 0 0 1 776 2025)">scales and weights.</text>
  <g id="" transform="matrix(1 0 0 1 1289 1933)">
   <path d="M 2.83203 3.11523 L 4.375 4.6582 C 5.22461 5.48828 6.19141 5.41992 7.06055 4.46289 L 17.2754 -6.66016 C 17.7051 -6.36719 18.0957 -6.37695 18.5645 -6.47461 L 19.6094 -6.68945 L 20.3027 -5.99609 L 20.2539 -5.47852 C 20.1855 -4.95117 20.3516 -4.53125 20.8496 -4.0332 L 21.6602 -3.22266 C 22.168 -2.71484 22.8223 -2.68555 23.3008 -3.16406 L 26.5527 -6.41602 C 27.0312 -6.89453 27.0117 -7.54883 26.5039 -8.05664 L 25.6836 -8.87695 C 25.1855 -9.375 24.7754 -9.55078 24.2383 -9.47266 L 23.7109 -9.41406 L 23.0566 -10.0781 L 23.3398 -11.2207 C 23.4863 -11.7871 23.3398 -12.2559 22.7148 -12.8613 L 20.3027 -15.2539 C 16.7578 -18.7793 12.2266 -18.6719 9.11133 -15.5371 C 8.69141 -15.1074 8.64258 -14.5215 8.91602 -14.0918 C 9.15039 -13.7207 9.62891 -13.4961 10.2734 -13.6621 C 11.7871 -14.043 13.3008 -13.9258 14.7852 -12.9199 L 14.1602 -11.3379 C 13.9258 -10.752 13.9453 -10.2734 14.1797 -9.83398 L 3.01758 0.439453 C 2.08008 1.30859 1.97266 2.25586 2.83203 3.11523 Z M 10.6738 -15.1465 C 13.3398 -17.1387 16.6504 -16.8262 19.0527 -14.4141 L 21.6797 -11.8066 C 21.9141 -11.5723 21.9434 -11.3867 21.8848 -11.0938 L 21.5039 -9.53125 L 23.0762 -7.95898 L 24.043 -8.04688 C 24.3262 -8.07617 24.4141 -8.05664 24.6387 -7.83203 L 25.2637 -7.20703 L 22.5098 -4.46289 L 21.8848 -5.07812 C 21.6602 -5.30273 21.6406 -5.40039 21.6699 -5.68359 L 21.7578 -6.64062 L 20.1953 -8.20312 L 18.5742 -7.89062 C 18.291 -7.83203 18.1445 -7.83203 17.9102 -8.07617 L 15.7324 -10.2539 C 15.5078 -10.4883 15.4785 -10.625 15.6055 -10.9473 L 16.5527 -13.2227 C 14.9512 -14.7559 12.8418 -15.6055 10.8008 -14.9512 C 10.7129 -14.9219 10.6445 -14.9414 10.6152 -14.9805 C 10.5859 -15.0293 10.5859 -15.0781 10.6738 -15.1465 Z M 4.10156 2.41211 C 3.61328 1.91406 3.78906 1.61133 4.12109 1.30859 L 15.0781 -8.80859 L 16.3086 -7.57812 L 6.15234 3.34961 C 5.84961 3.68164 5.46875 3.7793 5.06836 3.37891 Z"/>
  </g>
  <text style="stroke:none;fill:black;font-family:-apple-system,&quot;SF Pro Display&quot;,&quot;SF Pro Text&quot;,Helvetica,sans-serif;font-weight:bold;" transform="matrix(1 0 0 1 1289 1953)">Exporting</text>
  <text style="stroke:none;fill:black;font-family:-apple-system,&quot;SF Pro Display&quot;,&quot;SF Pro Text&quot;,Helvetica,sans-serif;" transform="matrix(1 0 0 1 1289 1971)">Symbols should be outlined when exporting to ensure the</text>
  <text style="stroke:none;fill:black;font-family:-apple-system,&quot;SF Pro Display&quot;,&quot;SF Pro Text&quot;,Helvetica,sans-serif;" transform="matrix(1 0 0 1 1289 1989)">design is preserved when submitting to Xcode.</text>
  <text id="template-version" style="stroke:none;fill:black;font-family:-apple-system,&quot;SF Pro Display&quot;,&quot;SF Pro Text&quot;,Helvetica,sans-serif;text-anchor:end;" transform="matrix(1 0 0 1 3036 1933)">Template v.1.0</text>
  <text style="stroke:none;fill:black;font-family:-apple-system,&quot;SF Pro Display&quot;,&quot;SF Pro Text&quot;,Helvetica,sans-serif;text-anchor:end;" transform="matrix(1 0 0 1 3036 1951)">Generated from 23.circle.fill</text>
  <text style="stroke:none;fill:black;font-family:-apple-system,&quot;SF Pro Display&quot;,&quot;SF Pro Text&quot;,Helvetica,sans-serif;text-anchor:end;" transform="matrix(1 0 0 1 3036 1969)">Typeset at 100 points</text>
  <text style="stroke:none;fill:black;font-family:-apple-system,&quot;SF Pro Display&quot;,&quot;SF Pro Text&quot;,Helvetica,sans-serif;" transform="matrix(1 0 0 1 263 726)">Small</text>
  <text style="stroke:none;fill:black;font-family:-apple-system,&quot;SF Pro Display&quot;,&quot;SF Pro Text&quot;,Helvetica,sans-serif;" transform="matrix(1 0 0 1 263 1156)">Medium</text>
  <text style="stroke:none;fill:black;font-family:-apple-system,&quot;SF Pro Display&quot;,&quot;SF Pro Text&quot;,Helvetica,sans-serif;" transform="matrix(1 0 0 1 263 1586)">Large</text>
 </g>
 <g id="Guides">
  <g id="H-reference" style="fill:#27AAE1;stroke:none;" transform="matrix(1 0 0 1 339 696)">
   <path d="M 54.9316 0 L 57.666 0 L 30.5664 -70.459 L 28.0762 -70.459 L 0.976562 0 L 3.66211 0 L 12.9395 -24.4629 L 45.7031 -24.4629 Z M 29.1992 -67.0898 L 29.4434 -67.0898 L 44.8242 -26.709 L 13.8184 -26.709 Z"/>
  </g>
  <line id="Baseline-S" style="fill:none;stroke:#27AAE1;opacity:1;stroke-width:0.577;" x1="263" x2="3036" y1="696" y2="696"/>
  <line id="Capline-S" style="fill:none;stroke:#27AAE1;opacity:1;stroke-width:0.577;" x1="263" x2="3036" y1="625.541" y2="625.541"/>
  <g id="H-reference" style="fill:#27AAE1;stroke:none;" transform="matrix(1 0 0 1 339 1126)">
   <path d="M 54.9316 0 L 57.666 0 L 30.5664 -70.459 L 28.0762 -70.459 L 0.976562 0 L 3.66211 0 L 12.9395 -24.4629 L 45.7031 -24.4629 Z M 29.1992 -67.0898 L 29.4434 -67.0898 L 44.8242 -26.709 L 13.8184 -26.709 Z"/>
  </g>
  <line id="Baseline-M" style="fill:none;stroke:#27AAE1;opacity:1;stroke-width:0.577;" x1="263" x2="3036" y1="1126" y2="1126"/>
  <line id="Capline-M" style="fill:none;stroke:#27AAE1;opacity:1;stroke-width:0.577;" x1="263" x2="3036" y1="1055.54" y2="1055.54"/>
  <g id="H-reference" style="fill:#27AAE1;stroke:none;" transform="matrix(1 0 0 1 339 1556)">
   <path d="M 54.9316 0 L 57.666 0 L 30.5664 -70.459 L 28.0762 -70.459 L 0.976562 0 L 3.66211 0 L 12.9395 -24.4629 L 45.7031 -24.4629 Z M 29.1992 -67.0898 L 29.4434 -67.0898 L 44.8242 -26.709 L 13.8184 -26.709 Z"/>
  </g>
  <line id="Baseline-L" style="fill:none;stroke:#27AAE1;opacity:1;stroke-width:0.577;" x1="263" x2="3036" y1="1556" y2="1556"/>
  <line id="Capline-L" style="fill:none;stroke:#27AAE1;opacity:1;stroke-width:0.577;" x1="263" x2="3036" y1="1485.54" y2="1485.54"/>
  <rect height="119.336" id="left-margin" style="fill:#00AEEF;stroke:none;opacity:0.4;" width="8.74023" x="1391.3" y="1030.79"/>
  <rect height="119.336" id="right-margin" style="fill:#00AEEF;stroke:none;opacity:0.4;" width="8.74023" x="1499.65" y="1030.79"/>
 </g>
 <g id="Symbols">
  <g id="Black-L" transform="matrix(1 0 0 1 2854.05 1556)">
   <path d="M 79.3457 32.8613 C 116.748 32.8613 147.412 2.19727 147.412 -35.2051 C 147.412 -72.6074 116.748 -103.271 79.2969 -103.271 C 41.8945 -103.271 11.2793 -72.6074 11.2793 -35.2051 C 11.2793 2.19727 41.9434 32.8613 79.3457 32.8613 Z M 51.0742 -10.5469 C 47.7051 -10.5469 45.0684 -12.8418 45.0684 -16.6016 C 45.0684 -18.8965 45.8984 -20.8984 48.0469 -23.3398 L 59.4238 -36.7188 C 62.207 -40.0879 64.6973 -42.4316 64.6973 -45.4102 C 64.6973 -47.8516 62.6465 -49.7559 59.9121 -49.7559 C 57.5195 -49.7559 55.7617 -48.3398 54.7852 -45.8008 C 54.0039 -43.5059 52.4902 -41.8945 49.5117 -41.8945 C 46.3379 -41.8945 44.3359 -44.0918 44.3359 -47.2168 C 44.3359 -48.3887 44.4824 -49.3164 44.7754 -50.3418 C 46.582 -56.7383 52.9297 -61.084 60.2539 -61.084 C 69.7754 -61.084 75.5859 -55.0293 75.7812 -46.5332 C 75.8301 -40.7227 72.998 -36.2793 68.1641 -30.7129 L 61.3281 -22.7539 L 61.3281 -22.1191 L 71.3867 -22.1191 C 74.9512 -22.1191 77.1973 -20.0684 77.1973 -16.5039 C 77.1973 -12.7441 74.9512 -10.5469 71.3867 -10.5469 Z M 98.7305 -9.47266 C 91.0156 -9.47266 84.2773 -14.2578 82.7637 -19.4336 C 82.4707 -20.5078 82.2754 -21.4355 82.2754 -22.5098 C 82.2754 -25.9277 84.9121 -27.832 87.4023 -27.832 C 89.7949 -27.832 91.4551 -26.8555 92.5781 -24.9023 C 94.0918 -22.168 96.3379 -20.8984 98.9258 -20.8984 C 101.855 -20.8984 103.809 -22.9492 103.809 -25.3418 C 103.809 -28.125 102.002 -29.8828 98.7793 -29.8828 L 97.8027 -29.8828 C 93.9941 -29.8828 92.1387 -32.2754 92.1387 -35.5957 C 92.1387 -38.9648 94.2871 -41.3574 97.8027 -41.3574 L 98.7305 -41.3574 C 101.611 -41.3574 103.076 -43.4082 103.076 -45.7031 C 103.076 -48.3887 101.221 -50.0977 98.7305 -50.0977 C 96.1426 -50.0977 94.4336 -48.7793 92.9199 -46.0938 C 91.9434 -44.2383 90.3809 -43.0176 87.8906 -43.0176 C 84.9609 -43.0176 82.9102 -45.0195 82.9102 -48.3398 C 82.9102 -49.5117 83.0566 -50.5371 83.6426 -51.9043 C 85.2539 -56.1523 90.7715 -61.084 98.9258 -61.084 C 108.887 -61.084 115.381 -55.7129 115.381 -47.5098 C 115.381 -42.4316 111.865 -37.6953 107.275 -36.9141 L 107.275 -36.377 C 112.744 -35.9375 116.504 -30.8105 116.504 -24.5605 C 116.504 -15.4297 109.521 -9.47266 98.7305 -9.47266 Z"/>
  </g>
  <g id="Heavy-L" transform="matrix(1 0 0 1 2558.39 1556)">
   <path d="M 78.2715 31.7871 C 115.088 31.7871 145.312 1.61133 145.312 -35.2051 C 145.312 -72.0215 115.039 -102.197 78.2715 -102.197 C 41.4551 -102.197 11.2793 -72.0215 11.2793 -35.2051 C 11.2793 1.61133 41.5039 31.7871 78.2715 31.7871 Z M 48.6328 -10.0586 C 45.5566 -10.0586 43.2617 -12.1094 43.2617 -15.4785 C 43.2617 -17.4805 43.9453 -19.2871 45.8008 -21.3867 L 58.7402 -36.5723 C 61.7188 -40.0879 64.3066 -42.7246 64.3066 -46.0449 C 64.3066 -49.1699 61.9141 -51.416 58.3984 -51.416 C 55.3711 -51.416 53.125 -49.707 52.0508 -46.4844 C 51.2695 -44.3359 49.9023 -42.8223 47.2656 -42.8223 C 44.3359 -42.8223 42.4805 -44.873 42.4805 -47.7539 C 42.4805 -48.7793 42.627 -49.707 42.8711 -50.6348 C 44.6289 -57.1289 51.123 -61.6699 58.6426 -61.6699 C 68.3105 -61.6699 74.3164 -55.6641 74.4629 -47.0215 C 74.5117 -41.1133 71.5332 -36.6211 66.6504 -30.957 L 58.1543 -21.0938 L 58.1543 -20.5078 L 70.7031 -20.5078 C 73.8281 -20.5078 75.8789 -18.6035 75.8789 -15.3809 C 75.8789 -12.0117 73.8281 -10.0586 70.7031 -10.0586 Z M 98.5352 -8.88672 C 90.5762 -8.88672 83.7891 -13.8184 82.1777 -19.1895 C 81.9336 -20.166 81.7383 -21.0449 81.7383 -22.0703 C 81.7383 -25.1953 84.082 -27.002 86.4746 -27.002 C 88.6719 -27.002 90.1855 -25.9766 91.2109 -24.0723 C 92.8223 -20.8496 95.459 -19.1895 98.7305 -19.1895 C 102.539 -19.1895 105.176 -21.7285 105.176 -24.8535 C 105.176 -28.3203 102.734 -30.5664 98.7305 -30.5664 L 96.9727 -30.5664 C 93.5547 -30.5664 91.8457 -32.7148 91.8457 -35.7422 C 91.8457 -38.8184 93.7988 -40.918 96.9727 -40.918 L 98.584 -40.918 C 102.1 -40.918 104.199 -43.4082 104.199 -46.3867 C 104.199 -49.5605 101.807 -51.709 98.584 -51.709 C 95.3125 -51.709 93.1641 -50.0488 91.6992 -46.8262 C 90.8203 -44.9219 89.4043 -43.7988 87.0605 -43.7988 C 84.375 -43.7988 82.4707 -45.6543 82.4707 -48.7305 C 82.4707 -49.8047 82.6172 -50.7324 83.1055 -51.9531 C 84.7168 -56.7383 90.5273 -61.6699 98.7793 -61.6699 C 108.691 -61.6699 115.283 -56.1523 115.283 -47.9492 C 115.283 -42.627 111.572 -37.6465 106.738 -36.8652 L 106.738 -36.377 C 112.5 -35.8887 116.553 -30.6152 116.553 -24.2188 C 116.553 -14.9902 109.375 -8.88672 98.5352 -8.88672 Z"/>
  </g>
  <g id="Bold-L" transform="matrix(1 0 0 1 2262.88 1556)">
   <path d="M 77.0996 30.6152 C 113.232 30.6152 142.92 0.878906 142.92 -35.2051 C 142.92 -71.3379 113.184 -101.025 77.0508 -101.025 C 40.9668 -101.025 11.2793 -71.3379 11.2793 -35.2051 C 11.2793 0.878906 41.0156 30.6152 77.0996 30.6152 Z M 45.9473 -9.47266 C 43.1641 -9.47266 41.2109 -11.2793 41.2109 -14.209 C 41.2109 -15.9668 41.7969 -17.4316 43.3105 -19.1895 L 58.0078 -36.4258 C 61.1328 -40.0879 63.916 -43.1152 63.916 -46.7285 C 63.916 -50.5859 61.0352 -53.2715 56.7383 -53.2715 C 52.9297 -53.2715 50.1465 -51.1719 48.9746 -47.2656 C 48.2422 -45.2148 47.0215 -43.8965 44.6777 -43.8965 C 42.0898 -43.8965 40.4297 -45.7031 40.4297 -48.3398 C 40.4297 -49.2676 40.5762 -50.0977 40.8203 -50.9766 C 42.4805 -57.6172 49.1699 -62.3047 56.8359 -62.3047 C 66.6504 -62.3047 72.9004 -56.3477 72.998 -47.6074 C 72.998 -41.5527 69.9219 -36.9629 64.9414 -31.25 L 54.5898 -19.1895 L 54.5898 -18.6523 L 69.9219 -18.6523 C 72.6074 -18.6523 74.4141 -16.9922 74.4141 -14.1602 C 74.4141 -11.2305 72.6074 -9.47266 69.9219 -9.47266 Z M 98.3398 -8.25195 C 90.0391 -8.25195 83.2031 -13.3301 81.5918 -18.8965 C 81.2988 -19.8242 81.1523 -20.6055 81.1523 -21.582 C 81.1523 -24.3164 83.2031 -26.0254 85.4004 -26.0254 C 87.4512 -26.0254 88.7695 -25.0488 89.6973 -23.0957 C 91.3574 -19.3359 94.4824 -17.2852 98.4863 -17.2852 C 103.32 -17.2852 106.641 -20.3613 106.641 -24.3652 C 106.641 -28.5645 103.516 -31.3477 98.6328 -31.3477 L 96.0449 -31.3477 C 93.1152 -31.3477 91.5527 -33.252 91.5527 -35.8887 C 91.5527 -38.623 93.2617 -40.4297 96.0449 -40.4297 L 98.4375 -40.4297 C 102.686 -40.4297 105.42 -43.3594 105.42 -47.1191 C 105.42 -50.9277 102.49 -53.4668 98.4375 -53.4668 C 94.3848 -53.4668 91.748 -51.416 90.332 -47.6562 C 89.5508 -45.7031 88.2812 -44.6777 86.1816 -44.6777 C 83.6914 -44.6777 81.9824 -46.3867 81.9824 -49.1211 C 81.9824 -50.0977 82.0801 -50.9277 82.4707 -52.0508 C 84.082 -57.4219 90.1855 -62.3047 98.584 -62.3047 C 108.447 -62.3047 115.137 -56.6895 115.137 -48.4375 C 115.137 -42.8223 111.23 -37.6465 106.152 -36.8164 L 106.152 -36.377 C 112.256 -35.791 116.602 -30.4199 116.602 -23.8281 C 116.602 -14.5508 109.229 -8.25195 98.3398 -8.25195 Z"/>
  </g>
  <g id="Semibold-L" transform="matrix(1 0 0 1 1966.97 1556)">
   <path d="M 76.2695 29.7852 C 111.914 29.7852 141.309 0.439453 141.309 -35.2051 C 141.309 -70.8496 111.865 -100.244 76.2695 -100.244 C 40.625 -100.244 11.2793 -70.8496 11.2793 -35.2051 C 11.2793 0.439453 40.6738 29.7852 76.2695 29.7852 Z M 44.0918 -9.0332 C 41.5527 -9.0332 39.7949 -10.7422 39.7949 -13.3789 C 39.7949 -14.8926 40.2832 -16.2109 41.6016 -17.627 L 57.4707 -36.2793 C 60.7422 -40.1367 63.6719 -43.3594 63.6719 -47.2168 C 63.6719 -51.6113 60.4492 -54.5898 55.6152 -54.5898 C 51.2695 -54.5898 48.1445 -52.1973 46.875 -47.8027 C 46.1426 -45.8496 45.0684 -44.6289 42.9199 -44.6289 C 40.5273 -44.6289 39.0137 -46.2891 39.0137 -48.7305 C 39.0137 -49.6094 39.1602 -50.3906 39.3555 -51.2207 C 41.0156 -57.9102 47.8027 -62.7441 55.5664 -62.7441 C 65.5273 -62.7441 71.9238 -56.8359 71.9727 -47.9492 C 71.9727 -41.8945 68.7988 -37.2559 63.7695 -31.3965 L 52.0996 -17.8711 L 52.0996 -17.3828 L 69.3848 -17.3828 C 71.7773 -17.3828 73.4375 -15.8691 73.4375 -13.3301 C 73.4375 -10.6934 71.7773 -9.0332 69.3848 -9.0332 Z M 98.1934 -7.76367 C 89.6973 -7.76367 82.8125 -12.9883 81.1523 -18.7012 C 80.9082 -19.5801 80.7617 -20.3125 80.7617 -21.2891 C 80.7617 -23.7305 82.5684 -25.3418 84.668 -25.3418 C 86.5723 -25.3418 87.793 -24.4141 88.623 -22.4609 C 90.332 -18.3105 93.7988 -15.9668 98.3398 -15.9668 C 103.857 -15.9668 107.666 -19.4336 107.666 -23.9746 C 107.666 -28.7109 104.102 -31.8848 98.584 -31.8848 L 95.3613 -31.8848 C 92.8223 -31.8848 91.3574 -33.5938 91.3574 -35.9863 C 91.3574 -38.4766 92.9199 -40.1367 95.3613 -40.1367 L 98.3398 -40.1367 C 103.076 -40.1367 106.299 -43.3594 106.299 -47.6074 C 106.299 -51.8555 102.979 -54.6875 98.3398 -54.6875 C 93.75 -54.6875 90.7715 -52.3926 89.4043 -48.2422 C 88.7207 -46.2891 87.5488 -45.3125 85.5469 -45.3125 C 83.2031 -45.3125 81.6895 -46.9238 81.6895 -49.4141 C 81.6895 -50.3418 81.7383 -51.0742 82.0312 -52.0996 C 83.6914 -57.8613 89.9902 -62.7441 98.4863 -62.7441 C 108.301 -62.7441 115.088 -57.0312 115.088 -48.7793 C 115.088 -42.9688 110.986 -37.6465 105.713 -36.7676 L 105.713 -36.377 C 112.061 -35.7422 116.65 -30.2734 116.65 -23.5352 C 116.65 -14.2578 109.131 -7.76367 98.1934 -7.76367 Z"/>
  </g>
  <g id="Medium-L" transform="matrix(1 0 0 1 1670.87 1556)">
   <path d="M 75.6836 29.1992 C 110.938 29.1992 140.088 0.0488281 140.088 -35.2051 C 140.088 -70.459 110.889 -99.6094 75.6348 -99.6094 C 40.3809 -99.6094 11.2793 -70.459 11.2793 -35.2051 C 11.2793 0.0488281 40.3809 29.1992 75.6836 29.1992 Z M 42.6758 -8.74023 C 40.2832 -8.74023 38.7207 -10.3027 38.7207 -12.6953 C 38.7207 -14.0625 39.1602 -15.2344 40.2832 -16.5039 L 57.1289 -36.2305 C 60.4492 -40.1367 63.4277 -43.5547 63.4277 -47.6074 C 63.4277 -52.3438 60.0098 -55.5664 54.7363 -55.5664 C 50 -55.5664 46.582 -52.9785 45.2637 -48.1934 C 44.5312 -46.3379 43.5547 -45.166 41.6016 -45.166 C 39.3555 -45.166 37.9395 -46.7285 37.9395 -49.0234 C 37.9395 -49.8535 38.0859 -50.5859 38.2324 -51.416 C 39.8438 -58.1543 46.7773 -63.0859 54.6387 -63.0859 C 64.6973 -63.0859 71.1914 -57.2266 71.1914 -48.2422 C 71.2402 -42.0898 67.9199 -37.4512 62.8418 -31.543 L 50.2441 -16.8945 L 50.2441 -16.4551 L 68.9941 -16.4551 C 71.1426 -16.4551 72.6562 -15.0391 72.6562 -12.6465 C 72.6562 -10.3027 71.1426 -8.74023 68.9941 -8.74023 Z M 98.0957 -7.4707 C 89.4043 -7.4707 82.5195 -12.6953 80.8105 -18.5547 C 80.5664 -19.4336 80.4688 -20.0684 80.4688 -20.9961 C 80.4688 -23.291 82.0801 -24.8047 84.1309 -24.8047 C 85.9375 -24.8047 87.0605 -23.877 87.8418 -21.9727 C 89.5508 -17.5293 93.2617 -14.9902 98.1934 -14.9902 C 104.297 -14.9902 108.447 -18.75 108.447 -23.7305 C 108.447 -28.8086 104.541 -32.2754 98.584 -32.2754 L 94.873 -32.2754 C 92.5781 -32.2754 91.2109 -33.8867 91.2109 -36.0352 C 91.2109 -38.3789 92.627 -39.8926 94.873 -39.8926 L 98.291 -39.8926 C 103.369 -39.8926 106.934 -43.3594 106.934 -47.998 C 106.934 -52.5391 103.369 -55.6152 98.2422 -55.6152 C 93.2617 -55.6152 90.0391 -53.125 88.6719 -48.6328 C 88.0371 -46.6797 86.9629 -45.752 85.1074 -45.752 C 82.8613 -45.752 81.4453 -47.3145 81.4453 -49.6094 C 81.4453 -50.4883 81.4941 -51.2207 81.7383 -52.1484 C 83.3984 -58.2031 89.8438 -63.0859 98.3887 -63.0859 C 108.203 -63.0859 115.039 -57.3242 115.039 -49.0234 C 115.039 -43.0664 110.84 -37.6465 105.42 -36.7676 L 105.42 -36.377 C 111.914 -35.7422 116.699 -30.1758 116.699 -23.3398 C 116.699 -14.0137 109.082 -7.4707 98.0957 -7.4707 Z"/>
  </g>
  <g id="Regular-L" transform="matrix(1 0 0 1 1374.97 1556)">
   <path d="M 74.8535 28.3691 C 109.668 28.3691 138.477 -0.390625 138.477 -35.2051 C 138.477 -70.0195 109.619 -98.7793 74.8047 -98.7793 C 40.0391 -98.7793 11.2793 -70.0195 11.2793 -35.2051 C 11.2793 -0.390625 40.0879 28.3691 74.8535 28.3691 Z M 40.8203 -8.34961 C 38.6719 -8.34961 37.3047 -9.7168 37.3047 -11.8652 C 37.3047 -13.0371 37.6953 -14.0137 38.5742 -14.9902 L 56.5918 -36.084 C 60.0586 -40.1367 63.1836 -43.7988 63.1836 -48.0957 C 63.1836 -53.3691 59.4727 -56.8359 53.6133 -56.8359 C 48.3887 -56.8359 44.5801 -53.9551 43.2129 -48.7305 C 42.4805 -46.9727 41.6016 -45.8984 39.8438 -45.8984 C 37.793 -45.8984 36.5723 -47.3145 36.5723 -49.4629 C 36.5723 -50.1465 36.7188 -50.8789 36.8164 -51.6113 C 38.3789 -58.4961 45.4102 -63.5254 53.3691 -63.5254 C 63.5742 -63.5254 70.2148 -57.666 70.2148 -48.6328 C 70.2148 -42.4316 66.8457 -37.6953 61.6699 -31.7383 L 47.8027 -15.5762 L 47.8027 -15.1855 L 68.457 -15.1855 C 70.2637 -15.1855 71.6797 -13.916 71.6797 -11.8164 C 71.6797 -9.76562 70.2637 -8.34961 68.457 -8.34961 Z M 97.9492 -6.98242 C 89.0625 -6.98242 82.1777 -12.3535 80.3711 -18.4082 C 80.1758 -19.1895 80.0781 -19.7754 80.0781 -20.6543 C 80.0781 -22.7051 81.4453 -24.1699 83.3984 -24.1699 C 85.0586 -24.1699 86.084 -23.2422 86.8164 -21.3379 C 88.5742 -16.5039 92.5781 -13.6719 98.0469 -13.6719 C 104.834 -13.6719 109.473 -17.8223 109.473 -23.3887 C 109.473 -28.9551 105.078 -32.8125 98.4863 -32.8125 L 94.2383 -32.8125 C 92.2852 -32.8125 91.0156 -34.2285 91.0156 -36.1328 C 91.0156 -38.2324 92.2852 -39.5508 94.2383 -39.5508 L 98.1934 -39.5508 C 103.76 -39.5508 107.764 -43.3594 107.764 -48.4863 C 107.764 -53.4668 103.809 -56.8359 98.1445 -56.8359 C 92.6758 -56.8359 89.1113 -54.0527 87.7441 -49.2188 C 87.207 -47.2168 86.2305 -46.3379 84.4727 -46.3379 C 82.4219 -46.3379 81.1035 -47.8027 81.1035 -49.9023 C 81.1035 -50.7324 81.1523 -51.3672 81.2988 -52.1973 C 82.959 -58.6914 89.6484 -63.5254 98.291 -63.5254 C 108.057 -63.5254 114.941 -57.666 114.941 -49.3652 C 114.941 -43.2129 110.596 -37.5977 104.98 -36.7188 L 104.98 -36.377 C 111.768 -35.6934 116.748 -30.0293 116.748 -23.0957 C 116.748 -13.6719 108.984 -6.98242 97.9492 -6.98242 Z"/>
  </g>
  <g id="Light-L" transform="matrix(1 0 0 1 1079.18 1556)">
   <path d="M 73.9258 27.4902 C 108.301 27.4902 136.621 -0.830078 136.621 -35.1562 C 136.621 -69.5312 108.252 -97.8516 73.9258 -97.8516 C 39.5508 -97.8516 11.2793 -69.5312 11.2793 -35.1562 C 11.2793 -0.830078 39.5996 27.4902 73.9258 27.4902 Z M 40.0391 -8.44727 C 38.2812 -8.44727 37.1094 -9.57031 37.1094 -11.377 C 37.1094 -12.4023 37.4023 -13.1836 38.0859 -13.9648 L 56.9336 -35.8887 C 60.791 -40.3809 63.4277 -43.9453 63.4277 -48.291 C 63.4277 -54.0039 59.375 -57.7637 52.8809 -57.7637 C 46.875 -57.7637 42.5293 -54.2969 41.5039 -48.6816 C 41.0156 -47.168 40.2344 -46.2402 38.7207 -46.2402 C 37.0117 -46.2402 36.0352 -47.4609 36.0352 -49.1699 C 36.0352 -49.8047 36.1328 -50.4395 36.2305 -51.1719 C 37.6465 -58.1543 44.6777 -63.2324 52.7344 -63.2324 C 62.6465 -63.2324 69.1895 -57.4707 69.1895 -48.584 C 69.1895 -42.8223 66.1621 -38.2324 60.6934 -31.8848 L 45.5566 -14.3066 L 45.5566 -14.0137 L 68.0664 -14.0137 C 69.5801 -14.0137 70.7031 -12.9395 70.7031 -11.2793 C 70.7031 -9.61914 69.5801 -8.44727 68.0664 -8.44727 Z M 97.2656 -7.32422 C 88.623 -7.32422 81.8359 -12.5 80.0293 -18.457 C 79.834 -19.1406 79.6875 -19.7266 79.6875 -20.5078 C 79.6875 -22.168 80.8105 -23.3887 82.4707 -23.3887 C 83.8379 -23.3887 84.668 -22.6074 85.2539 -20.9961 C 87.0117 -15.8691 91.6016 -12.793 97.3633 -12.793 C 104.785 -12.793 109.814 -17.1875 109.814 -23.291 C 109.814 -29.1992 104.932 -33.4473 97.9004 -33.4473 L 93.1152 -33.4473 C 91.4551 -33.4473 90.4785 -34.6191 90.4785 -36.1816 C 90.4785 -37.8906 91.5039 -38.9648 93.1152 -38.9648 L 97.5098 -38.9648 C 103.613 -38.9648 108.057 -43.1152 108.057 -48.6816 C 108.057 -54.1016 103.711 -57.7637 97.4121 -57.7637 C 91.4551 -57.7637 87.4512 -54.5898 86.2305 -49.5605 C 85.8398 -47.8516 85.0098 -47.1191 83.5449 -47.1191 C 81.7871 -47.1191 80.7129 -48.3398 80.7129 -50.0977 C 80.7129 -50.7812 80.8105 -51.416 80.957 -52.1484 C 82.5684 -58.6914 89.2578 -63.2324 97.4609 -63.2324 C 107.031 -63.2324 113.867 -57.4707 113.867 -49.3164 C 113.867 -43.2129 109.473 -37.5977 103.711 -36.6211 L 103.711 -36.377 C 110.547 -35.6445 115.723 -29.9805 115.723 -23.0957 C 115.723 -13.916 108.057 -7.32422 97.2656 -7.32422 Z"/>
  </g>
  <g id="Thin-L" transform="matrix(1 0 0 1 783.693 1556)">
   <path d="M 72.7051 26.3184 C 106.494 26.3184 134.18 -1.36719 134.18 -35.1074 C 134.18 -68.8965 106.494 -96.582 72.7051 -96.582 C 38.9648 -96.582 11.2793 -68.8965 11.2793 -35.1074 C 11.2793 -1.36719 38.9648 26.3184 72.7051 26.3184 Z M 39.0625 -8.59375 C 37.6953 -8.59375 36.8652 -9.42383 36.8652 -10.7422 C 36.8652 -11.6211 37.0117 -12.0605 37.5 -12.6465 L 57.3242 -35.5957 C 61.7188 -40.6738 63.7695 -44.1895 63.7695 -48.5352 C 63.7695 -54.8828 59.2285 -58.9844 51.9043 -58.9844 C 44.9219 -58.9844 39.8438 -54.6875 39.3066 -48.6328 C 39.1113 -47.4121 38.4277 -46.7285 37.2559 -46.7285 C 35.9863 -46.7285 35.2539 -47.6074 35.2539 -48.7793 C 35.2539 -49.3652 35.3516 -49.9023 35.4492 -50.5371 C 36.6211 -57.666 43.7012 -62.793 51.8555 -62.793 C 61.4746 -62.793 67.8711 -57.2266 67.8711 -48.5352 C 67.8711 -43.4082 65.2344 -38.9648 59.3262 -32.0801 L 42.627 -12.6465 L 42.627 -12.4512 L 67.5293 -12.4512 C 68.7012 -12.4512 69.4336 -11.6699 69.4336 -10.5469 C 69.4336 -9.47266 68.7012 -8.59375 67.5293 -8.59375 Z M 96.4355 -7.71484 C 87.9883 -7.71484 81.4453 -12.6953 79.541 -18.5059 C 79.3457 -19.043 79.1992 -19.6289 79.1992 -20.3125 C 79.1992 -21.4844 79.9316 -22.3633 81.2012 -22.3633 C 82.2266 -22.3633 82.8613 -21.7285 83.252 -20.5078 C 85.0098 -14.9902 90.332 -11.5723 96.4355 -11.5723 C 104.736 -11.5723 110.254 -16.3574 110.254 -23.1445 C 110.254 -29.4922 104.688 -34.3262 97.1191 -34.3262 L 91.6016 -34.3262 C 90.3809 -34.3262 89.7461 -35.0586 89.7461 -36.2305 C 89.7461 -37.4023 90.4297 -38.1348 91.6016 -38.1348 L 96.6797 -38.1348 C 103.418 -38.1348 108.398 -42.8223 108.398 -48.877 C 108.398 -54.9316 103.564 -58.9844 96.3867 -58.9844 C 89.8926 -58.9844 85.3027 -55.3223 84.2773 -50 C 83.9844 -48.6328 83.3496 -48.0957 82.2754 -48.0957 C 80.9082 -48.0957 80.2246 -49.0234 80.2246 -50.3418 C 80.2246 -50.8301 80.3223 -51.5137 80.4688 -52.0996 C 82.0312 -58.6914 88.7695 -62.793 96.3867 -62.793 C 105.713 -62.793 112.5 -57.2266 112.5 -49.2676 C 112.5 -43.2129 108.008 -37.5488 102.051 -36.5234 L 102.051 -36.377 C 108.984 -35.5957 114.355 -29.8828 114.355 -23.0957 C 114.355 -14.209 106.836 -7.71484 96.4355 -7.71484 Z"/>
  </g>
  <g id="Ultralight-L" transform="matrix(1 0 0 1 487.616 1556)">
   <path d="M 72.1191 25.7324 C 105.566 25.7324 132.91 -1.61133 132.91 -35.1074 C 132.91 -68.5547 105.566 -95.8984 72.1191 -95.8984 C 38.623 -95.8984 11.2793 -68.5547 11.2793 -35.1074 C 11.2793 -1.61133 38.623 25.7324 72.1191 25.7324 Z M 38.5254 -8.69141 C 37.4512 -8.69141 36.7188 -9.32617 36.7188 -10.4004 C 36.7188 -11.1816 36.8652 -11.5234 37.207 -11.9141 L 57.5195 -35.4492 C 62.1582 -40.8203 63.9648 -44.3359 63.9648 -48.6816 C 63.9648 -55.3711 59.1797 -59.6191 51.416 -59.6191 C 43.9453 -59.6191 38.4277 -54.9316 38.1348 -48.584 C 38.1348 -47.5586 37.5488 -46.9727 36.4746 -46.9727 C 35.4492 -46.9727 34.9121 -47.7051 34.9121 -48.6328 C 34.9121 -49.1699 34.9609 -49.6094 35.0586 -50.2441 C 36.1328 -57.4219 43.2129 -62.5977 51.416 -62.5977 C 60.8398 -62.5977 67.1387 -57.0801 67.1387 -48.5352 C 67.1387 -43.7012 64.7949 -39.3066 58.6426 -32.1777 L 41.1133 -11.7676 L 41.1133 -11.6211 L 67.2852 -11.6211 C 68.2129 -11.6211 68.7988 -10.9863 68.7988 -10.1562 C 68.7988 -9.42383 68.2129 -8.69141 67.2852 -8.69141 Z M 95.9961 -7.95898 C 87.6953 -7.95898 81.2012 -12.793 79.2969 -18.5547 C 79.1016 -18.9941 78.9551 -19.5801 78.9551 -20.166 C 78.9551 -21.0938 79.4922 -21.8262 80.5176 -21.8262 C 81.3965 -21.8262 81.9336 -21.2891 82.1777 -20.2637 C 83.9355 -14.5508 89.6973 -10.9375 95.9961 -10.9375 C 104.736 -10.9375 110.449 -15.918 110.449 -23.0957 C 110.449 -29.6387 104.59 -34.7656 96.7285 -34.7656 L 90.8691 -34.7656 C 89.8438 -34.7656 89.3555 -35.3027 89.3555 -36.2305 C 89.3555 -37.1582 89.8926 -37.7441 90.8691 -37.7441 L 96.2402 -37.7441 C 103.32 -37.7441 108.594 -42.6758 108.594 -48.9746 C 108.594 -55.3223 103.467 -59.6191 95.8984 -59.6191 C 89.0625 -59.6191 84.1797 -55.7129 83.252 -50.2441 C 83.0566 -49.0723 82.5195 -48.6328 81.6406 -48.6328 C 80.4688 -48.6328 79.9805 -49.3652 79.9805 -50.4395 C 79.9805 -50.8789 80.0781 -51.5137 80.2246 -52.0508 C 81.7383 -58.6914 88.5254 -62.5977 95.8496 -62.5977 C 105.029 -62.5977 111.768 -57.0801 111.768 -49.2676 C 111.768 -43.2129 107.275 -37.5 101.172 -36.4258 L 101.172 -36.377 C 108.203 -35.5957 113.623 -29.8828 113.623 -23.1445 C 113.623 -14.3555 106.201 -7.95898 95.9961 -7.95898 Z"/>
  </g>
  <g id="Black-M" transform="matrix(1 0 0 1 2870.97 1126)">
   <path d="M 62.4023 18.457 C 91.9922 18.457 116.113 -5.61523 116.113 -35.2051 C 116.113 -64.7949 91.9922 -88.8672 62.4023 -88.8672 C 32.8125 -88.8672 8.74023 -64.7949 8.74023 -35.2051 C 8.74023 -5.61523 32.8125 18.457 62.4023 18.457 Z M 42.4316 -16.8945 C 39.5996 -16.8945 37.3047 -18.7988 37.3047 -22.0215 C 37.3047 -24.1211 38.0371 -25.8789 39.9902 -28.125 L 47.0703 -36.4746 C 49.2676 -39.0625 50.7324 -40.4785 50.7324 -42.3828 C 50.7324 -43.6035 49.5117 -44.7266 47.998 -44.7266 C 46.6797 -44.7266 45.6543 -43.7988 45.2637 -42.4805 C 44.7754 -40.6738 43.4082 -39.3066 40.8691 -39.3066 C 38.2324 -39.3066 36.5234 -41.1621 36.5234 -43.6523 C 36.5234 -44.6777 36.6699 -45.4102 36.9141 -46.2891 C 38.2812 -51.1719 43.0176 -54.2969 48.5352 -54.2969 C 55.5664 -54.2969 59.7656 -49.6582 59.9609 -43.3105 C 60.0098 -39.1602 58.1543 -35.8887 54.3457 -31.4941 L 50.6348 -27.1484 L 50.6348 -26.6602 L 56.0547 -26.6602 C 59.1797 -26.6602 61.084 -24.9023 61.084 -21.875 C 61.084 -18.7012 59.1797 -16.8945 56.0547 -16.8945 Z M 76.416 -16.2109 C 70.8984 -16.2109 65.8203 -19.6777 64.6973 -23.3398 C 64.4531 -24.2188 64.2578 -25 64.2578 -25.8789 C 64.2578 -28.7598 66.6016 -30.2734 68.5059 -30.2734 C 70.459 -30.2734 71.8262 -29.541 72.7539 -28.1738 C 73.877 -26.6113 75.3418 -25.9277 76.6113 -25.9277 C 77.9785 -25.9277 78.8574 -27.002 78.8574 -28.125 C 78.8574 -29.5898 77.9785 -30.4688 76.3672 -30.4688 C 72.9492 -30.4688 71.4355 -32.4707 71.4355 -35.3516 C 71.4355 -38.1836 73.2422 -40.1855 76.3672 -40.1855 C 77.9785 -40.1855 78.5645 -41.5039 78.5645 -42.5293 C 78.5645 -44.1406 77.5391 -45.1172 76.2695 -45.1172 C 74.9512 -45.1172 73.9746 -44.3848 72.9004 -42.8711 C 72.0215 -41.5527 70.7031 -40.625 68.7012 -40.625 C 66.3086 -40.625 64.5996 -42.1875 64.5996 -45.0195 C 64.5996 -45.9473 64.7949 -46.8262 65.3809 -48.0469 C 66.5527 -50.6348 70.5078 -54.2969 76.416 -54.2969 C 84.1309 -54.2969 88.9648 -50.3418 88.9648 -44.1406 C 88.9648 -40.5273 86.5234 -37.1094 83.1543 -36.5723 L 83.1543 -36.1328 C 87.0605 -35.8398 89.6484 -32.0312 89.6484 -27.4414 C 89.6484 -20.5566 84.5703 -16.2109 76.416 -16.2109 Z"/>
  </g>
  <g id="Heavy-M" transform="matrix(1 0 0 1 2575.19 1126)">
   <path d="M 61.5234 17.5781 C 90.5273 17.5781 114.258 -6.15234 114.258 -35.2051 C 114.258 -64.2578 90.5273 -87.9883 61.4746 -87.9883 C 32.4707 -87.9883 8.74023 -64.2578 8.74023 -35.2051 C 8.74023 -6.15234 32.4707 17.5781 61.5234 17.5781 Z M 39.9902 -16.2598 C 37.4023 -16.2598 35.3516 -18.0664 35.3516 -20.9473 C 35.3516 -22.7539 35.9863 -24.3164 37.6953 -26.2695 L 46.2891 -36.3281 C 48.5352 -39.0137 50.293 -40.7715 50.293 -43.0176 C 50.293 -44.873 48.7305 -46.2891 46.582 -46.2891 C 44.7266 -46.2891 43.3105 -45.166 42.6758 -43.2129 C 42.1387 -41.5039 40.9668 -40.2344 38.6719 -40.2344 C 36.2305 -40.2344 34.668 -41.9434 34.668 -44.3359 C 34.668 -45.2148 34.8145 -45.9473 35.0098 -46.7285 C 36.377 -51.709 41.2598 -55.0293 46.9238 -55.0293 C 54.1992 -55.0293 58.6426 -50.3906 58.7891 -43.8477 C 58.8379 -39.502 56.7383 -36.084 52.9297 -31.7383 L 47.7051 -25.6348 L 47.7051 -25.1953 L 55.3711 -25.1953 C 58.1543 -25.1953 59.9121 -23.584 59.9121 -20.8496 C 59.9121 -17.9688 58.1543 -16.2598 55.3711 -16.2598 Z M 76.3672 -15.4785 C 70.5078 -15.4785 65.332 -19.1406 64.1602 -23.0469 C 63.9648 -23.877 63.7695 -24.6094 63.7695 -25.4395 C 63.7695 -28.0762 65.8691 -29.541 67.7246 -29.541 C 69.5312 -29.541 70.8008 -28.7598 71.6797 -27.3438 C 72.8516 -25.293 74.6582 -24.3164 76.5625 -24.3164 C 78.7598 -24.3164 80.2246 -25.8301 80.2246 -27.6367 C 80.2246 -29.7363 78.8086 -31.0547 76.416 -31.0547 L 75.7324 -31.0547 C 72.7051 -31.0547 71.2891 -32.9102 71.2891 -35.498 C 71.2891 -38.0859 72.9492 -39.8926 75.7324 -39.8926 L 76.3672 -39.8926 C 78.5645 -39.8926 79.6875 -41.5039 79.6875 -43.2129 C 79.6875 -45.2637 78.2227 -46.582 76.3184 -46.582 C 74.3652 -46.582 73.0469 -45.6055 71.9238 -43.5547 C 71.1426 -42.1875 69.9219 -41.3086 68.0664 -41.3086 C 65.8203 -41.3086 64.2578 -42.7734 64.2578 -45.3613 C 64.2578 -46.2402 64.4043 -47.0215 64.8438 -48.0957 C 66.0645 -51.3184 70.3125 -55.0293 76.4648 -55.0293 C 84.1797 -55.0293 89.1602 -50.9277 89.1602 -44.6289 C 89.1602 -40.7715 86.4746 -37.1094 82.9102 -36.5234 L 82.9102 -36.1328 C 87.1094 -35.791 89.9902 -31.8359 89.9902 -27.0508 C 89.9902 -20.0195 84.668 -15.4785 76.3672 -15.4785 Z"/>
  </g>
  <g id="Bold-M" transform="matrix(1 0 0 1 2279.5 1126)">
   <path d="M 60.498 16.5039 C 88.8672 16.5039 112.207 -6.78711 112.207 -35.2051 C 112.207 -63.623 88.8672 -86.9629 60.4492 -86.9629 C 32.0312 -86.9629 8.74023 -63.623 8.74023 -35.2051 C 8.74023 -6.78711 32.0801 16.5039 60.498 16.5039 Z M 37.2559 -15.625 C 34.9121 -15.625 33.1543 -17.1875 33.1543 -19.7266 C 33.1543 -21.2402 33.6914 -22.5586 35.0586 -24.1211 L 45.4102 -36.2305 C 47.7051 -39.0137 49.7559 -41.1133 49.7559 -43.7012 C 49.7559 -46.2402 47.8027 -48.0957 44.9707 -48.0957 C 42.4805 -48.0957 40.6738 -46.6797 39.8438 -44.0918 C 39.2578 -42.4316 38.2324 -41.3086 36.1816 -41.3086 C 33.9844 -41.3086 32.5684 -42.8223 32.5684 -45.0195 C 32.5684 -45.8496 32.7148 -46.5332 32.9102 -47.2656 C 34.2285 -52.2949 39.3066 -55.8105 45.1172 -55.8105 C 52.6367 -55.8105 57.373 -51.1719 57.4707 -44.4824 C 57.5195 -39.8438 55.1758 -36.377 51.3672 -31.9824 L 44.4824 -23.9746 L 44.4824 -23.5352 L 54.6387 -23.5352 C 57.0312 -23.5352 58.5938 -22.0703 58.5938 -19.6289 C 58.5938 -17.1387 57.0312 -15.625 54.6387 -15.625 Z M 76.3184 -14.6973 C 70.1172 -14.6973 64.8438 -18.5547 63.5742 -22.7539 C 63.3789 -23.4863 63.2324 -24.1699 63.2324 -24.9512 C 63.2324 -27.2949 65.0391 -28.6621 66.8457 -28.6621 C 68.5547 -28.6621 69.6777 -27.9297 70.459 -26.416 C 71.6797 -23.8281 73.8281 -22.5098 76.4648 -22.5098 C 79.5898 -22.5098 81.7383 -24.5605 81.7383 -27.0996 C 81.7383 -29.9316 79.7363 -31.7383 76.5137 -31.7383 L 75 -31.7383 C 72.4609 -31.7383 71.1426 -33.3984 71.1426 -35.6445 C 71.1426 -37.9883 72.6074 -39.5508 75 -39.5508 L 76.416 -39.5508 C 79.248 -39.5508 80.957 -41.5527 80.957 -43.9941 C 80.957 -46.582 79.0039 -48.291 76.3672 -48.291 C 73.7305 -48.291 71.9727 -46.9238 70.8496 -44.3848 C 70.166 -42.8711 69.0918 -42.041 67.334 -42.041 C 65.2832 -42.041 63.8184 -43.457 63.8184 -45.752 C 63.8184 -46.582 63.9648 -47.2656 64.3066 -48.1934 C 65.5273 -52.002 70.1172 -55.8105 76.5137 -55.8105 C 84.2285 -55.8105 89.3066 -51.5625 89.3066 -45.166 C 89.3066 -40.9668 86.4258 -37.1094 82.6172 -36.5234 L 82.6172 -36.1328 C 87.1582 -35.6934 90.332 -31.6406 90.332 -26.6113 C 90.332 -19.4824 84.7656 -14.6973 76.3184 -14.6973 Z"/>
  </g>
  <g id="Semibold-M" transform="matrix(1 0 0 1 1983.5 1126)">
   <path d="M 59.7656 15.8203 C 87.7441 15.8203 110.791 -7.22656 110.791 -35.2051 C 110.791 -63.1836 87.6953 -86.2793 59.7656 -86.2793 C 31.7871 -86.2793 8.74023 -63.1836 8.74023 -35.2051 C 8.74023 -7.22656 31.7871 15.8203 59.7656 15.8203 Z M 35.3516 -15.1367 C 33.2031 -15.1367 31.6406 -16.6016 31.6406 -18.8477 C 31.6406 -20.166 32.1289 -21.3379 33.3008 -22.6562 L 44.7754 -36.1816 C 47.168 -38.9648 49.4141 -41.3574 49.4141 -44.1895 C 49.4141 -47.2168 47.2168 -49.3164 43.8965 -49.3164 C 40.9668 -49.3164 38.8672 -47.7539 37.8906 -44.6777 C 37.2559 -43.0664 36.3281 -42.041 34.5215 -42.041 C 32.4219 -42.041 31.1523 -43.457 31.1523 -45.5078 C 31.1523 -46.2402 31.25 -46.9238 31.4453 -47.6074 C 32.7637 -52.7344 37.9883 -56.3965 43.8965 -56.3965 C 51.6113 -56.3965 56.4941 -51.7578 56.543 -44.9219 C 56.5918 -40.1367 54.1016 -36.5234 50.293 -32.1289 L 42.2363 -22.8027 L 42.2363 -22.3633 L 54.1504 -22.3633 C 56.25 -22.3633 57.666 -21.0449 57.666 -18.8477 C 57.666 -16.5527 56.25 -15.1367 54.1504 -15.1367 Z M 76.3184 -14.1602 C 69.8242 -14.1602 64.4531 -18.1152 63.1836 -22.5098 C 62.9883 -23.2422 62.8906 -23.8281 62.8906 -24.6094 C 62.8906 -26.7578 64.4531 -28.125 66.2598 -28.125 C 67.8223 -28.125 68.8965 -27.3438 69.6289 -25.7812 C 70.8984 -22.8516 73.291 -21.2402 76.416 -21.2402 C 80.2246 -21.2402 82.8125 -23.6328 82.8125 -26.7578 C 82.8125 -30.0293 80.4199 -32.1777 76.5625 -32.1777 L 74.5117 -32.1777 C 72.2656 -32.1777 71.0449 -33.6914 71.0449 -35.7422 C 71.0449 -37.8906 72.3633 -39.3555 74.5117 -39.3555 L 76.416 -39.3555 C 79.6875 -39.3555 81.8359 -41.6016 81.8359 -44.4824 C 81.8359 -47.4609 79.5898 -49.4141 76.416 -49.4141 C 73.291 -49.4141 71.2402 -47.8516 70.1172 -44.9219 C 69.5312 -43.3594 68.5547 -42.5293 66.8457 -42.5293 C 64.8926 -42.5293 63.5742 -43.8965 63.5742 -45.9961 C 63.5742 -46.8262 63.623 -47.4121 63.916 -48.291 C 65.1855 -52.5391 69.9219 -56.3965 76.5625 -56.3965 C 84.2285 -56.3965 89.4531 -52.002 89.4531 -45.5566 C 89.4531 -41.1621 86.377 -37.1094 82.4219 -36.4746 L 82.4219 -36.1328 C 87.207 -35.6934 90.625 -31.4941 90.625 -26.3184 C 90.625 -19.0918 84.8633 -14.1602 76.3184 -14.1602 Z"/>
  </g>
  <g id="Medium-M" transform="matrix(1 0 0 1 1687.3 1126)">
   <path d="M 59.2285 15.2832 C 86.9141 15.2832 109.766 -7.56836 109.766 -35.2051 C 109.766 -62.8906 86.8652 -85.7422 59.1797 -85.7422 C 31.543 -85.7422 8.74023 -62.8906 8.74023 -35.2051 C 8.74023 -7.56836 31.5918 15.2832 59.2285 15.2832 Z M 33.9355 -14.7949 C 31.8848 -14.7949 30.5176 -16.1133 30.5176 -18.2129 C 30.5176 -19.3848 30.9082 -20.459 31.9336 -21.582 L 44.2871 -36.1328 C 46.7285 -38.9648 49.1699 -41.5039 49.1699 -44.5801 C 49.1699 -47.9492 46.7285 -50.2441 43.0664 -50.2441 C 39.8438 -50.2441 37.5 -48.5352 36.377 -45.1172 C 35.7422 -43.5547 34.8633 -42.5781 33.2031 -42.5781 C 31.25 -42.5781 30.0781 -43.8965 30.0781 -45.8984 C 30.0781 -46.582 30.1758 -47.2168 30.3223 -47.8516 C 31.6406 -53.0273 36.9629 -56.7871 42.9688 -56.7871 C 50.8301 -56.7871 55.8594 -52.1973 55.8594 -45.2148 C 55.9082 -40.2832 53.2715 -36.6699 49.4629 -32.2754 L 40.5273 -21.875 L 40.5273 -21.4844 L 53.7598 -21.4844 C 55.6152 -21.4844 56.9824 -20.3125 56.9824 -18.2129 C 56.9824 -16.1133 55.6152 -14.7949 53.7598 -14.7949 Z M 76.2695 -13.7207 C 69.5801 -13.7207 64.209 -17.8223 62.8906 -22.3633 C 62.6953 -23.0469 62.5977 -23.6328 62.5977 -24.3652 C 62.5977 -26.3672 64.0625 -27.6855 65.7715 -27.6855 C 67.2852 -27.6855 68.2617 -26.9043 68.9453 -25.293 C 70.3125 -22.0703 72.8516 -20.3125 76.416 -20.3125 C 80.6641 -20.3125 83.5938 -22.998 83.5938 -26.4648 C 83.5938 -30.127 80.9082 -32.5195 76.6113 -32.5195 L 74.1699 -32.5195 C 72.1191 -32.5195 70.9473 -33.9355 70.9473 -35.791 C 70.9473 -37.8418 72.2168 -39.1602 74.1699 -39.1602 L 76.416 -39.1602 C 80.0293 -39.1602 82.4707 -41.6016 82.4707 -44.9219 C 82.4707 -48.0957 79.9805 -50.293 76.4648 -50.293 C 72.9492 -50.293 70.7031 -48.584 69.5801 -45.3125 C 69.043 -43.7012 68.1152 -42.9199 66.5039 -42.9199 C 64.5996 -42.9199 63.3301 -44.2383 63.3301 -46.2402 C 63.3301 -46.9727 63.3789 -47.5586 63.5742 -48.3398 C 64.8926 -52.8809 69.8242 -56.7871 76.6113 -56.7871 C 84.2773 -56.7871 89.5508 -52.2949 89.5508 -45.8496 C 89.5508 -41.2598 86.377 -37.1094 82.2754 -36.4746 L 82.2754 -36.1328 C 87.2559 -35.6445 90.8203 -31.3965 90.8203 -26.0742 C 90.8203 -18.7988 84.9121 -13.7207 76.2695 -13.7207 Z"/>
  </g>
  <g id="Regular-M" transform="matrix(1 0 0 1 1391.3 1126)">
   <path d="M 58.5449 14.5508 C 85.791 14.5508 108.35 -8.00781 108.35 -35.2539 C 108.35 -62.4512 85.7422 -85.0586 58.4961 -85.0586 C 31.2988 -85.0586 8.74023 -62.4512 8.74023 -35.2539 C 8.74023 -8.00781 31.3477 14.5508 58.5449 14.5508 Z M 32.0801 -14.3555 C 30.1758 -14.3555 29.0527 -15.5273 29.0527 -17.3828 C 29.0527 -18.3594 29.3457 -19.2383 30.1758 -20.1172 L 43.7012 -36.0352 C 46.1426 -38.916 48.8281 -41.748 48.8281 -45.0684 C 48.8281 -48.877 46.1426 -51.4648 41.9922 -51.4648 C 38.3301 -51.4648 35.7422 -49.5605 34.4238 -45.7031 C 33.7402 -44.1895 33.0078 -43.3105 31.543 -43.3105 C 29.7363 -43.3105 28.6621 -44.5312 28.6621 -46.3867 C 28.6621 -46.9727 28.7598 -47.6074 28.8574 -48.1934 C 30.1758 -53.4668 35.6445 -57.3242 41.748 -57.3242 C 49.7559 -57.3242 54.9805 -52.7344 54.9805 -45.6543 C 54.9805 -40.5762 52.1973 -36.8164 48.3887 -32.4219 L 38.3301 -20.752 L 38.3301 -20.3613 L 53.2715 -20.3613 C 54.834 -20.3613 56.1035 -19.2871 56.1035 -17.3828 C 56.1035 -15.5273 54.834 -14.3555 53.2715 -14.3555 Z M 76.2695 -13.1836 C 69.2871 -13.1836 63.8672 -17.4316 62.5 -22.168 C 62.3535 -22.8027 62.2559 -23.291 62.2559 -24.0234 C 62.2559 -25.8301 63.4766 -27.0996 65.1855 -27.0996 C 66.6016 -27.0996 67.4805 -26.3184 68.1152 -24.6582 C 69.4824 -21.0938 72.3145 -19.043 76.3672 -19.043 C 81.25 -19.043 84.668 -22.0703 84.668 -26.0742 C 84.668 -30.2734 81.543 -33.0078 76.6602 -33.0078 L 73.6816 -33.0078 C 71.9727 -33.0078 70.8496 -34.2773 70.8496 -35.8887 C 70.8496 -37.7441 71.9727 -38.916 73.6816 -38.916 L 76.4648 -38.916 C 80.4688 -38.916 83.3496 -41.6504 83.3496 -45.4102 C 83.3496 -48.9746 80.5176 -51.4648 76.5137 -51.4648 C 72.5098 -51.4648 69.9707 -49.5117 68.8477 -45.8496 C 68.3594 -44.1895 67.5293 -43.4082 66.0156 -43.4082 C 64.2578 -43.4082 63.0859 -44.6777 63.0859 -46.4844 C 63.0859 -47.2168 63.0859 -47.7051 63.1836 -48.3887 C 64.5508 -53.418 69.6777 -57.3242 76.6602 -57.3242 C 84.2773 -57.3242 89.6973 -52.7344 89.6973 -46.1914 C 89.6973 -41.4551 86.3281 -37.1094 82.0801 -36.4258 L 82.0801 -36.1328 C 87.2559 -35.5957 91.0645 -31.25 91.0645 -25.7812 C 91.0645 -18.4082 84.9609 -13.1836 76.2695 -13.1836 Z"/>
  </g>
  <g id="Light-M" transform="matrix(1 0 0 1 1095.42 1126)">
   <path d="M 57.7148 13.7695 C 84.5215 13.7695 106.689 -8.39844 106.689 -35.2051 C 106.689 -62.0117 84.5215 -84.1797 57.666 -84.1797 C 30.8594 -84.1797 8.74023 -62.0117 8.74023 -35.2051 C 8.74023 -8.39844 30.9082 13.7695 57.7148 13.7695 Z M 31.3965 -14.4531 C 29.834 -14.4531 28.8574 -15.4297 28.8574 -16.9434 C 28.8574 -17.8223 29.1016 -18.5059 29.7363 -19.1895 L 43.9453 -35.8398 C 46.7773 -39.1113 49.0723 -41.8945 49.0723 -45.2637 C 49.0723 -49.5117 46.0449 -52.2949 41.3086 -52.2949 C 37.0117 -52.2949 33.8867 -49.8535 32.9102 -45.6543 C 32.4219 -44.3848 31.7871 -43.6035 30.5176 -43.6035 C 29.0527 -43.6035 28.1738 -44.6289 28.1738 -46.1426 C 28.1738 -46.6797 28.2715 -47.2168 28.3203 -47.8027 C 29.4922 -53.125 34.9609 -57.0801 41.1621 -57.0801 C 48.9746 -57.0801 54.1016 -52.5879 54.1016 -45.6055 C 54.1016 -40.918 51.5625 -37.3047 47.4609 -32.5684 L 36.3281 -19.5801 L 36.3281 -19.3359 L 52.9297 -19.3359 C 54.248 -19.3359 55.2246 -18.4082 55.2246 -16.8945 C 55.2246 -15.4297 54.248 -14.4531 52.9297 -14.4531 Z M 75.6836 -13.4766 C 68.8965 -13.4766 63.5742 -17.5293 62.1582 -22.2168 C 62.0117 -22.7539 61.9141 -23.2422 61.9141 -23.877 C 61.9141 -25.3418 62.8906 -26.416 64.3066 -26.416 C 65.5273 -26.416 66.2598 -25.7324 66.748 -24.3652 C 68.1152 -20.5078 71.4355 -18.2129 75.7324 -18.2129 C 81.2012 -18.2129 84.9609 -21.5332 84.9609 -26.0254 C 84.9609 -30.4688 81.3965 -33.5938 76.123 -33.5938 L 72.6562 -33.5938 C 71.2402 -33.5938 70.3613 -34.5703 70.3613 -35.9375 C 70.3613 -37.4512 71.2891 -38.3789 72.6562 -38.3789 L 75.8789 -38.3789 C 80.3711 -38.3789 83.5938 -41.4551 83.5938 -45.5566 C 83.5938 -49.5605 80.4199 -52.2949 75.8301 -52.2949 C 71.4355 -52.2949 68.5059 -50 67.4805 -46.1914 C 67.1387 -44.7266 66.4062 -44.0918 65.1855 -44.0918 C 63.6719 -44.0918 62.7441 -45.1172 62.7441 -46.6797 C 62.7441 -47.2656 62.7441 -47.7539 62.8906 -48.3398 C 64.1602 -53.418 69.3359 -57.0801 75.9277 -57.0801 C 83.3984 -57.0801 88.7207 -52.5879 88.7207 -46.1914 C 88.7207 -41.4551 85.3516 -37.0605 80.957 -36.377 L 80.957 -36.1328 C 86.2305 -35.5957 90.1367 -31.2012 90.1367 -25.8301 C 90.1367 -18.6035 84.1309 -13.4766 75.6836 -13.4766 Z"/>
  </g>
  <g id="Thin-M" transform="matrix(1 0 0 1 799.806 1126)">
   <path d="M 56.6406 12.7441 C 82.9102 12.7441 104.492 -8.83789 104.492 -35.1562 C 104.492 -61.4746 82.9102 -83.0566 56.5918 -83.0566 C 30.3223 -83.0566 8.74023 -61.4746 8.74023 -35.1562 C 8.74023 -8.83789 30.3223 12.7441 56.6406 12.7441 Z M 30.4688 -14.5508 C 29.3457 -14.5508 28.6133 -15.2832 28.6133 -16.4062 C 28.6133 -17.0898 28.7598 -17.5293 29.1992 -18.0176 L 44.3359 -35.5957 C 47.6074 -39.3555 49.3652 -42.1387 49.3652 -45.5078 C 49.3652 -50.293 45.9473 -53.3691 40.4297 -53.3691 C 35.2539 -53.3691 31.4453 -50.2441 30.9082 -45.6055 C 30.7129 -44.6289 30.1758 -44.043 29.1992 -44.043 C 28.125 -44.043 27.4902 -44.7754 27.4902 -45.8008 C 27.4902 -46.2891 27.5879 -46.7285 27.6367 -47.2168 C 28.6133 -52.7344 34.082 -56.6895 40.3809 -56.6895 C 47.9004 -56.6895 52.8809 -52.3438 52.8809 -45.5566 C 52.8809 -41.4551 50.7324 -37.9395 46.2891 -32.7637 L 33.6914 -18.0664 L 33.6914 -17.9199 L 52.4414 -17.9199 C 53.418 -17.9199 54.1016 -17.2363 54.1016 -16.2598 C 54.1016 -15.332 53.418 -14.5508 52.4414 -14.5508 Z M 74.9023 -13.8184 C 68.3105 -13.8184 63.1836 -17.7246 61.7188 -22.2656 C 61.6211 -22.7051 61.4746 -23.1445 61.4746 -23.6816 C 61.4746 -24.707 62.1582 -25.4883 63.1836 -25.4883 C 64.0625 -25.4883 64.5996 -24.9512 64.9414 -23.9258 C 66.3086 -19.7266 70.3125 -17.1387 74.9512 -17.1387 C 81.2012 -17.1387 85.3516 -20.8008 85.3516 -25.8789 C 85.3516 -30.7129 81.2012 -34.3262 75.4395 -34.3262 L 71.3379 -34.3262 C 70.2637 -34.3262 69.6777 -35.0098 69.6777 -35.9863 C 69.6777 -37.0117 70.3125 -37.6465 71.3379 -37.6465 L 75.0977 -37.6465 C 80.1758 -37.6465 83.9355 -41.1621 83.9355 -45.752 C 83.9355 -50.293 80.2734 -53.3691 74.9023 -53.3691 C 69.9707 -53.3691 66.5527 -50.6348 65.7227 -46.582 C 65.4785 -45.459 64.9414 -45.0195 64.0625 -45.0195 C 62.8906 -45.0195 62.3047 -45.752 62.3047 -46.875 C 62.3047 -47.3145 62.3535 -47.8027 62.4512 -48.291 C 63.6719 -53.418 68.8965 -56.6895 74.9512 -56.6895 C 82.2266 -56.6895 87.5 -52.3438 87.5 -46.1426 C 87.5 -41.4551 84.0332 -37.0117 79.4434 -36.2305 L 79.4434 -36.1328 C 84.8145 -35.5469 88.916 -31.1035 88.916 -25.8301 C 88.916 -18.8477 83.0566 -13.8184 74.9023 -13.8184 Z"/>
  </g>
  <g id="Ultralight-M" transform="matrix(1 0 0 1 503.656 1126)">
   <path d="M 56.0547 12.207 C 82.0801 12.207 103.369 -9.08203 103.369 -35.1562 C 103.369 -61.1816 82.0801 -82.4707 56.0547 -82.4707 C 30.0293 -82.4707 8.74023 -61.1816 8.74023 -35.1562 C 8.74023 -9.08203 30.0293 12.207 56.0547 12.207 Z M 30.0293 -14.6484 C 29.1016 -14.6484 28.4668 -15.1855 28.4668 -16.1133 C 28.4668 -16.6992 28.6133 -17.041 28.9062 -17.3828 L 44.5312 -35.4492 C 48.0469 -39.502 49.5117 -42.2363 49.5117 -45.6055 C 49.5117 -50.6836 45.8984 -53.9551 39.9902 -53.9551 C 34.3262 -53.9551 30.2246 -50.4395 29.9316 -45.6055 C 29.8828 -44.7266 29.3457 -44.2383 28.5156 -44.2383 C 27.6367 -44.2383 27.1484 -44.873 27.1484 -45.6543 C 27.1484 -46.0938 27.2461 -46.4355 27.2949 -46.9727 C 28.125 -52.4902 33.6426 -56.4941 39.9902 -56.4941 C 47.3145 -56.4941 52.2461 -52.1973 52.2461 -45.5566 C 52.2461 -41.6992 50.3418 -38.2812 45.6543 -32.8613 L 32.3242 -17.334 L 32.3242 -17.1875 L 52.2461 -17.1875 C 53.0273 -17.1875 53.5156 -16.6504 53.5156 -15.918 C 53.5156 -15.2344 53.0273 -14.6484 52.2461 -14.6484 Z M 74.5117 -14.0137 C 68.0664 -14.0137 62.9883 -17.8223 61.5234 -22.3145 C 61.377 -22.6562 61.2793 -23.0957 61.2793 -23.584 C 61.2793 -24.4141 61.7676 -25 62.5977 -25 C 63.3301 -25 63.7695 -24.5605 64.0137 -23.7305 C 65.3809 -19.3359 69.7266 -16.6016 74.5117 -16.6016 C 81.1523 -16.6016 85.5469 -20.4102 85.5469 -25.8301 C 85.5469 -30.8594 81.1035 -34.7168 75.0977 -34.7168 L 70.6543 -34.7168 C 69.7754 -34.7168 69.3359 -35.2051 69.3359 -35.9863 C 69.3359 -36.8164 69.8242 -37.3047 70.6543 -37.3047 L 74.707 -37.3047 C 80.0781 -37.3047 84.082 -41.0645 84.082 -45.8496 C 84.082 -50.6836 80.2246 -53.9551 74.4629 -53.9551 C 69.2383 -53.9551 65.5762 -50.9766 64.8438 -46.8262 C 64.6484 -45.8008 64.209 -45.459 63.4766 -45.459 C 62.5 -45.459 62.0605 -46.0449 62.0605 -46.9727 C 62.0605 -47.3633 62.1582 -47.8516 62.2559 -48.291 C 63.4277 -53.418 68.7012 -56.4941 74.4629 -56.4941 C 81.5918 -56.4941 86.8652 -52.1973 86.8652 -46.0938 C 86.8652 -41.4551 83.3496 -37.0117 78.6621 -36.1816 L 78.6621 -36.1328 C 84.082 -35.498 88.2812 -31.1035 88.2812 -25.8301 C 88.2812 -18.9941 82.4707 -14.0137 74.5117 -14.0137 Z"/>
  </g>
  <g id="Black-S" transform="matrix(1 0 0 1 2884.57 696)">
   <path d="M 48.8281 6.78711 C 71.9727 6.78711 90.8203 -12.0605 90.8203 -35.2051 C 90.8203 -58.3496 71.9727 -77.1973 48.8281 -77.1973 C 25.6836 -77.1973 6.83594 -58.3496 6.83594 -35.2051 C 6.83594 -12.0605 25.6836 6.78711 48.8281 6.78711 Z M 33.0566 -20.8008 C 30.8594 -20.8008 29.0527 -22.3145 29.0527 -24.8047 C 29.0527 -26.416 29.6387 -27.7832 31.1523 -29.541 L 36.8164 -36.1816 C 38.5254 -38.2324 39.6973 -39.3555 39.6973 -40.8691 C 39.6973 -41.8945 38.7207 -42.7734 37.5 -42.7734 C 36.4258 -42.7734 35.5957 -42.041 35.2539 -40.9668 C 34.8633 -39.5508 33.8379 -38.4766 31.8359 -38.4766 C 29.7852 -38.4766 28.4668 -39.9414 28.4668 -41.8945 C 28.4668 -42.6758 28.5645 -43.2617 28.7598 -43.9453 C 29.834 -47.7539 33.5449 -50.2441 37.8906 -50.2441 C 43.4082 -50.2441 46.7285 -46.582 46.875 -41.6016 C 46.9238 -38.3301 45.459 -35.7422 42.4805 -32.3242 L 39.4531 -28.8086 L 39.4531 -28.418 L 43.8477 -28.418 C 46.2891 -28.418 47.7539 -27.0508 47.7539 -24.707 C 47.7539 -22.2168 46.2891 -20.8008 43.8477 -20.8008 Z M 59.8633 -20.2637 C 55.5176 -20.2637 51.5137 -22.998 50.6348 -25.8789 C 50.4395 -26.5625 50.293 -27.1973 50.293 -27.8809 C 50.293 -30.127 52.0996 -31.2988 53.6133 -31.2988 C 55.127 -31.2988 56.2012 -30.7129 56.9336 -29.6387 C 57.8125 -28.3691 58.9844 -27.832 60.0098 -27.832 C 61.1328 -27.832 61.8652 -28.7109 61.8652 -29.6387 C 61.8652 -30.8105 61.1328 -31.543 59.8145 -31.543 L 59.7656 -31.543 C 57.1289 -31.543 55.957 -33.1055 55.957 -35.3516 C 55.957 -37.5488 57.373 -39.1113 59.7656 -39.1113 L 59.8145 -39.1113 C 61.1328 -39.1113 61.6211 -40.1367 61.6211 -41.0156 C 61.6211 -42.2852 60.791 -43.0664 59.7656 -43.0664 C 58.6914 -43.0664 57.9102 -42.4805 57.0312 -41.2598 C 56.3477 -40.2344 55.3223 -39.502 53.7598 -39.502 C 51.9043 -39.502 50.5859 -40.7227 50.5859 -42.9199 C 50.5859 -43.6523 50.7324 -44.3359 51.1719 -45.2637 C 52.0996 -47.3633 55.2246 -50.2441 59.8633 -50.2441 C 65.918 -50.2441 69.7266 -47.1191 69.7266 -42.2363 C 69.7266 -39.4043 67.7734 -36.7188 65.1367 -36.2793 L 65.1367 -35.9375 C 68.2129 -35.6934 70.2637 -32.7148 70.2637 -29.1016 C 70.2637 -23.6816 66.2598 -20.2637 59.8633 -20.2637 Z"/>
  </g>
  <g id="Heavy-S" transform="matrix(1 0 0 1 2588.47 696)">
   <path d="M 48.2422 6.15234 C 70.9961 6.15234 89.5996 -12.4512 89.5996 -35.2051 C 89.5996 -57.959 70.9961 -76.6113 48.1934 -76.6113 C 25.4395 -76.6113 6.83594 -57.959 6.83594 -35.2051 C 6.83594 -12.4512 25.4395 6.15234 48.2422 6.15234 Z M 31.25 -20.3125 C 29.1992 -20.3125 27.5879 -21.7285 27.5879 -24.0234 C 27.5879 -25.4395 28.0762 -26.6602 29.4434 -28.1738 L 36.1816 -36.1328 C 37.8906 -38.1836 39.3066 -39.5508 39.3066 -41.3574 C 39.3066 -42.7734 38.1348 -43.8965 36.4746 -43.8965 C 35.0586 -43.8965 33.9844 -43.0664 33.4473 -41.5527 C 33.0078 -40.1855 32.0801 -39.1602 30.2734 -39.1602 C 28.3203 -39.1602 27.0996 -40.5273 27.0996 -42.4316 C 27.0996 -43.1152 27.1973 -43.7012 27.3926 -44.3359 C 28.4668 -48.1934 32.2754 -50.8301 36.7188 -50.8301 C 42.4805 -50.8301 45.9473 -47.168 46.0938 -42.041 C 46.1426 -38.5254 44.4336 -35.8398 41.5039 -32.4707 L 37.4512 -27.7832 L 37.4512 -27.3926 L 43.4082 -27.3926 C 45.5566 -27.3926 46.9727 -26.123 46.9727 -23.9746 C 46.9727 -21.6797 45.5566 -20.3125 43.4082 -20.3125 Z M 59.9121 -19.6777 C 55.2734 -19.6777 51.1719 -22.5586 50.293 -25.6836 C 50.0977 -26.3184 49.9512 -26.9043 49.9512 -27.5879 C 49.9512 -29.6387 51.6113 -30.8105 53.125 -30.8105 C 54.541 -30.8105 55.5664 -30.1758 56.25 -29.0527 C 57.1777 -27.4414 58.5449 -26.6602 60.0098 -26.6602 C 61.7188 -26.6602 62.8906 -27.8809 62.8906 -29.2969 C 62.8906 -30.9082 61.8164 -31.9336 59.9121 -31.9336 L 59.375 -31.9336 C 57.0312 -31.9336 55.9082 -33.3984 55.9082 -35.4492 C 55.9082 -37.5 57.2266 -38.9648 59.375 -38.9648 L 59.9121 -38.9648 C 61.6211 -38.9648 62.4512 -40.1855 62.4512 -41.5039 C 62.4512 -43.1152 61.3281 -44.1406 59.8633 -44.1406 C 58.3496 -44.1406 57.373 -43.3594 56.4453 -41.748 C 55.8105 -40.625 54.8828 -39.9414 53.3691 -39.9414 C 51.6113 -39.9414 50.3418 -41.1133 50.3418 -43.1641 C 50.3418 -43.8965 50.4395 -44.4824 50.8301 -45.3125 C 51.7578 -47.8516 55.127 -50.8301 60.0098 -50.8301 C 66.0645 -50.8301 69.9707 -47.5586 69.9707 -42.627 C 69.9707 -39.5508 67.8711 -36.7188 65.0879 -36.2793 L 65.0879 -35.9375 C 68.3594 -35.6445 70.6055 -32.5684 70.6055 -28.8086 C 70.6055 -23.291 66.4062 -19.6777 59.9121 -19.6777 Z"/>
  </g>
  <g id="Bold-S" transform="matrix(1 0 0 1 2292.44 696)">
   <path d="M 47.5586 5.46875 C 69.873 5.46875 88.2324 -12.8906 88.2324 -35.2051 C 88.2324 -57.5684 69.873 -75.9277 47.5098 -75.9277 C 25.1953 -75.9277 6.83594 -57.5684 6.83594 -35.2051 C 6.83594 -12.8906 25.1953 5.46875 47.5586 5.46875 Z M 29.248 -19.8242 C 27.3438 -19.8242 25.9277 -21.0938 25.9277 -23.1445 C 25.9277 -24.3652 26.3672 -25.4395 27.4902 -26.709 L 35.4492 -36.084 C 37.207 -38.1348 38.916 -39.7949 38.916 -41.8457 C 38.916 -43.75 37.4512 -45.166 35.3516 -45.166 C 33.5449 -45.166 32.2266 -44.1895 31.4941 -42.1875 C 30.957 -40.8691 30.127 -39.9414 28.5156 -39.9414 C 26.709 -39.9414 25.5859 -41.2109 25.5859 -43.0176 C 25.5859 -43.6523 25.6836 -44.1895 25.8301 -44.7754 C 26.9043 -48.7305 30.8594 -51.4648 35.4492 -51.4648 C 41.4062 -51.4648 45.1172 -47.8027 45.2148 -42.4805 C 45.2148 -38.7695 43.3105 -35.9863 40.4297 -32.666 L 35.2051 -26.6113 L 35.2051 -26.2695 L 42.8711 -26.2695 C 44.7754 -26.2695 46.0449 -25.0977 46.0449 -23.0957 C 46.0449 -21.0449 44.7754 -19.8242 42.8711 -19.8242 Z M 59.9609 -19.043 C 54.9805 -19.043 50.8301 -22.1191 49.8535 -25.4395 C 49.707 -26.0254 49.6094 -26.5625 49.6094 -27.1973 C 49.6094 -29.1016 51.0742 -30.2246 52.5391 -30.2246 C 53.9062 -30.2246 54.834 -29.6387 55.4688 -28.3691 C 56.4453 -26.416 58.0078 -25.3906 60.0586 -25.3906 C 62.4023 -25.3906 64.0137 -26.9531 64.0137 -28.8574 C 64.0137 -31.0059 62.5488 -32.373 60.0586 -32.373 L 58.9844 -32.373 C 56.9336 -32.373 55.8594 -33.7402 55.8594 -35.5469 C 55.8594 -37.4512 57.0312 -38.7695 58.9844 -38.7695 L 60.0098 -38.7695 C 62.1094 -38.7695 63.3789 -40.2344 63.3789 -42.0898 C 63.3789 -43.9941 61.9629 -45.3125 60.0098 -45.3125 C 58.0078 -45.3125 56.7383 -44.3359 55.8105 -42.334 C 55.2734 -41.1133 54.3945 -40.4297 52.9297 -40.4297 C 51.2695 -40.4297 50.0488 -41.5527 50.0488 -43.457 C 50.0488 -44.1406 50.1465 -44.6777 50.4395 -45.4102 C 51.416 -48.4375 54.9805 -51.4648 60.1074 -51.4648 C 66.2109 -51.4648 70.2148 -48.0957 70.2148 -43.0176 C 70.2148 -39.7461 67.9199 -36.7188 64.9902 -36.2305 L 64.9902 -35.9375 C 68.5547 -35.5957 71.0449 -32.4219 71.0449 -28.4668 C 71.0449 -22.8027 66.6016 -19.043 59.9609 -19.043 Z"/>
  </g>
  <g id="Semibold-S" transform="matrix(1 0 0 1 1996.2 696)">
   <path d="M 47.0703 4.98047 C 69.0918 4.98047 87.3047 -13.1836 87.3047 -35.2539 C 87.3047 -57.2754 69.0918 -75.4883 47.0215 -75.4883 C 25 -75.4883 6.83594 -57.2754 6.83594 -35.2539 C 6.83594 -13.1836 25.0488 4.98047 47.0703 4.98047 Z M 27.8809 -19.4336 C 26.0742 -19.4336 24.8047 -20.6543 24.8047 -22.5098 C 24.8047 -23.584 25.1953 -24.5605 26.123 -25.6348 L 34.9609 -36.0352 C 36.6699 -38.0859 38.623 -39.9902 38.623 -42.2363 C 38.623 -44.4336 36.9629 -46.0449 34.5703 -46.0449 C 32.4707 -46.0449 31.0059 -44.9707 30.0781 -42.6758 C 29.541 -41.3574 28.7598 -40.4785 27.2949 -40.4785 C 25.5859 -40.4785 24.5117 -41.6504 24.5117 -43.4082 C 24.5117 -43.9941 24.6094 -44.5312 24.7559 -45.0684 C 25.8301 -49.0723 29.9316 -51.9043 34.5215 -51.9043 C 40.6738 -51.9043 44.5312 -48.2422 44.5801 -42.8223 C 44.5801 -38.916 42.5293 -36.084 39.6484 -32.7637 L 33.6914 -25.8301 L 33.6914 -25.4883 L 42.5293 -25.4883 C 44.2383 -25.4883 45.4102 -24.4141 45.4102 -22.5098 C 45.4102 -20.6055 44.2383 -19.4336 42.5293 -19.4336 Z M 59.9609 -18.6035 C 54.7852 -18.6035 50.5859 -21.7773 49.6094 -25.2441 C 49.4629 -25.8789 49.3652 -26.3184 49.3652 -26.9531 C 49.3652 -28.7598 50.6836 -29.8828 52.1484 -29.8828 C 53.4668 -29.8828 54.3457 -29.1992 54.9805 -27.9297 C 55.957 -25.6836 57.666 -24.5117 60.0586 -24.5117 C 62.8418 -24.5117 64.7949 -26.3184 64.7949 -28.6133 C 64.7949 -31.1035 63.0371 -32.666 60.1562 -32.666 L 58.6914 -32.666 C 56.8359 -32.666 55.8105 -33.9355 55.8105 -35.6445 C 55.8105 -37.4023 56.9336 -38.623 58.6914 -38.623 L 60.0586 -38.623 C 62.5 -38.623 64.0625 -40.2832 64.0625 -42.4805 C 64.0625 -44.6289 62.4023 -46.0938 60.1074 -46.0938 C 57.7637 -46.0938 56.2988 -45.0195 55.3711 -42.7246 C 54.834 -41.4062 54.0527 -40.7227 52.6367 -40.7227 C 51.0254 -40.7227 49.9023 -41.8945 49.9023 -43.6523 C 49.9023 -44.2871 49.9512 -44.7754 50.1465 -45.459 C 51.1719 -48.7793 54.8828 -51.9043 60.2051 -51.9043 C 66.3086 -51.9043 70.4102 -48.4375 70.4102 -43.3105 C 70.4102 -39.8926 68.0176 -36.7188 64.9414 -36.2305 L 64.9414 -35.9375 C 68.6523 -35.5957 71.2891 -32.3242 71.2891 -28.2227 C 71.2891 -22.5098 66.748 -18.6035 59.9609 -18.6035 Z"/>
  </g>
  <g id="Medium-S" transform="matrix(1 0 0 1 1699.83 696)">
   <path d="M 46.7285 4.63867 C 68.5547 4.63867 86.6211 -13.4277 86.6211 -35.2539 C 86.6211 -57.0312 68.5059 -75.1465 46.6797 -75.1465 C 24.8535 -75.1465 6.83594 -57.0312 6.83594 -35.2539 C 6.83594 -13.4277 24.9023 4.63867 46.7285 4.63867 Z M 26.8066 -19.1895 C 25.0977 -19.1895 23.9258 -20.3125 23.9258 -22.0703 C 23.9258 -23.0469 24.2676 -23.9258 25.1465 -24.8535 L 34.5703 -35.9863 C 36.3281 -38.0371 38.4277 -40.0879 38.4277 -42.4805 C 38.4277 -44.9707 36.6211 -46.6797 33.9844 -46.6797 C 31.6895 -46.6797 30.0781 -45.5566 29.0527 -43.0176 C 28.4668 -41.6992 27.7344 -40.8691 26.3672 -40.8691 C 24.7559 -40.8691 23.7305 -41.9922 23.7305 -43.7012 C 23.7305 -44.2383 23.8281 -44.7754 23.9258 -45.3125 C 25 -49.3164 29.1992 -52.2461 33.8379 -52.2461 C 40.0879 -52.2461 44.0918 -48.584 44.1406 -43.0664 C 44.1406 -39.0625 41.9434 -36.1816 39.0625 -32.8613 L 32.5195 -25.2441 L 32.5195 -24.9023 L 42.2363 -24.9023 C 43.7988 -24.9023 44.9707 -23.877 44.9707 -22.0703 C 44.9707 -20.2637 43.7988 -19.1895 42.2363 -19.1895 Z M 60.0098 -18.2617 C 54.6875 -18.2617 50.3906 -21.5332 49.4141 -25.1465 C 49.2188 -25.7324 49.1699 -26.1719 49.1699 -26.7578 C 49.1699 -28.4668 50.3906 -29.5898 51.8555 -29.5898 C 53.125 -29.5898 53.9551 -28.9062 54.541 -27.5391 C 55.6152 -25.1465 57.373 -23.8281 60.1074 -23.8281 C 63.2324 -23.8281 65.3809 -25.8301 65.3809 -28.3691 C 65.3809 -31.1523 63.4277 -32.9102 60.2051 -32.9102 L 58.4961 -32.9102 C 56.7871 -32.9102 55.7617 -34.1309 55.7617 -35.6934 C 55.7617 -37.4023 56.8359 -38.5254 58.4961 -38.5254 L 60.1074 -38.5254 C 62.7441 -38.5254 64.5508 -40.332 64.5508 -42.7734 C 64.5508 -45.1172 62.6953 -46.7285 60.1562 -46.7285 C 57.5684 -46.7285 55.957 -45.5078 55.0293 -43.0176 C 54.541 -41.6504 53.7598 -40.9668 52.3926 -40.9668 C 50.8301 -40.9668 49.7559 -42.0898 49.7559 -43.7988 C 49.7559 -44.4336 49.7559 -44.873 49.9512 -45.5078 C 50.9766 -49.0723 54.834 -52.2461 60.3027 -52.2461 C 66.3574 -52.2461 70.5078 -48.6816 70.5078 -43.5547 C 70.5078 -39.9414 68.0664 -36.7188 64.8926 -36.2305 L 64.8926 -35.9375 C 68.75 -35.5469 71.4844 -32.2266 71.4844 -28.0762 C 71.4844 -22.2656 66.8457 -18.2617 60.0098 -18.2617 Z"/>
  </g>
  <g id="Regular-S" transform="matrix(1 0 0 1 1403.58 696)">
   <path d="M 46.2402 4.15039 C 67.7734 4.15039 85.6934 -13.7207 85.6934 -35.2539 C 85.6934 -56.7871 67.7246 -74.6582 46.1914 -74.6582 C 24.707 -74.6582 6.83594 -56.7871 6.83594 -35.2539 C 6.83594 -13.7207 24.7559 4.15039 46.2402 4.15039 Z M 25.4395 -18.7988 C 23.8281 -18.7988 22.8027 -19.873 22.8027 -21.4844 C 22.8027 -22.2656 23.0957 -23.0957 23.8281 -23.8281 L 34.082 -35.9375 C 35.8398 -38.0371 38.1348 -40.2832 38.1348 -42.8711 C 38.1348 -45.6543 36.1816 -47.5586 33.2031 -47.5586 C 30.6641 -47.5586 28.8574 -46.3379 27.6855 -43.457 C 27.0508 -42.1875 26.416 -41.4062 25.1953 -41.4062 C 23.6328 -41.4062 22.6562 -42.4316 22.6562 -44.0918 C 22.6562 -44.5801 22.7539 -45.1172 22.8516 -45.6055 C 23.9746 -49.6582 28.2227 -52.6855 32.959 -52.6855 C 39.3555 -52.6855 43.5059 -49.0234 43.5059 -43.4082 C 43.5059 -39.209 41.1621 -36.2793 38.3301 -32.959 L 31.0059 -24.4141 L 31.0059 -24.1211 L 41.8945 -24.1211 C 43.2617 -24.1211 44.3359 -23.1445 44.3359 -21.4844 C 44.3359 -19.873 43.2617 -18.7988 41.8945 -18.7988 Z M 60.0098 -17.8223 C 54.4922 -17.8223 50.1465 -21.1914 49.1211 -24.9512 C 48.9746 -25.5371 48.9258 -25.9277 48.9258 -26.5625 C 48.9258 -28.0762 50 -29.1992 51.4648 -29.1992 C 52.7344 -29.1992 53.4668 -28.5156 54.0527 -27.0996 C 55.127 -24.4141 57.0312 -22.9492 60.1074 -22.9492 C 63.6719 -22.9492 66.1621 -25.1953 66.1621 -28.125 C 66.1621 -31.25 63.9648 -33.2031 60.3027 -33.2031 L 58.2031 -33.2031 C 56.7383 -33.2031 55.7129 -34.3262 55.7129 -35.7422 C 55.7129 -37.3535 56.7383 -38.3789 58.2031 -38.3789 L 60.1562 -38.3789 C 63.1348 -38.3789 65.1855 -40.332 65.1855 -43.1152 C 65.1855 -45.752 63.1348 -47.5586 60.2539 -47.5586 C 57.3242 -47.5586 55.5176 -46.1914 54.5898 -43.4082 C 54.1504 -41.9922 53.418 -41.3086 52.0996 -41.3086 C 50.5859 -41.3086 49.5605 -42.3828 49.5605 -43.9941 C 49.5605 -44.5801 49.5605 -44.9707 49.6582 -45.5566 C 50.7324 -49.4629 54.7363 -52.6855 60.4004 -52.6855 C 66.4551 -52.6855 70.7031 -49.0234 70.7031 -43.8477 C 70.7031 -40.0879 68.1152 -36.7188 64.8438 -36.2305 L 64.8438 -35.9375 C 68.8965 -35.5469 71.7773 -32.1289 71.7773 -27.832 C 71.7773 -21.9727 66.9434 -17.8223 60.0098 -17.8223 Z"/>
  </g>
  <g id="Light-S" transform="matrix(1 0 0 1 1107.6 696)">
   <path d="M 45.5078 3.4668 C 66.6992 3.4668 84.2285 -14.0625 84.2285 -35.2051 C 84.2285 -56.3965 66.6504 -73.9258 45.5078 -73.9258 C 24.3164 -73.9258 6.83594 -56.3965 6.83594 -35.2051 C 6.83594 -14.0625 24.3652 3.4668 45.5078 3.4668 Z M 24.8535 -18.8965 C 23.4863 -18.8965 22.6562 -19.7754 22.6562 -21.0938 C 22.6562 -21.7773 22.9004 -22.4121 23.4375 -23.0469 L 34.3262 -35.791 C 36.377 -38.1836 38.3301 -40.4297 38.3301 -43.0176 C 38.3301 -46.1914 36.084 -48.291 32.6172 -48.291 C 29.4922 -48.291 27.2461 -46.582 26.3672 -43.4082 C 25.8789 -42.334 25.3418 -41.6992 24.2676 -41.6992 C 22.998 -41.6992 22.2168 -42.5293 22.2168 -43.8965 C 22.2168 -44.3359 22.3145 -44.7754 22.4121 -45.2148 C 23.3887 -49.3652 27.6367 -52.4414 32.4707 -52.4414 C 38.6719 -52.4414 42.7246 -48.877 42.7246 -43.3594 C 42.7246 -39.5508 40.625 -36.6699 37.5488 -33.1055 L 29.1992 -23.4375 L 29.1992 -23.1445 L 41.6016 -23.1445 C 42.7246 -23.1445 43.6035 -22.3633 43.6035 -21.0449 C 43.6035 -19.7754 42.7246 -18.8965 41.6016 -18.8965 Z M 59.5215 -18.0664 C 54.1016 -18.0664 49.9023 -21.3379 48.8281 -25 C 48.6816 -25.4883 48.6328 -25.8789 48.6328 -26.416 C 48.6328 -27.6855 49.5117 -28.5645 50.7324 -28.5645 C 51.7578 -28.5645 52.3926 -28.0273 52.832 -26.8066 C 53.9062 -23.9258 56.2988 -22.2168 59.5703 -22.2168 C 63.623 -22.2168 66.4062 -24.707 66.4062 -28.0273 C 66.4062 -31.3965 63.8184 -33.6914 59.8633 -33.6914 L 57.2754 -33.6914 C 56.0547 -33.6914 55.2734 -34.6191 55.2734 -35.791 C 55.2734 -37.0605 56.1035 -37.8906 57.2754 -37.8906 L 59.668 -37.8906 C 62.9883 -37.8906 65.3809 -40.1855 65.3809 -43.2617 C 65.3809 -46.2402 63.0371 -48.291 59.668 -48.291 C 56.3477 -48.291 54.248 -46.6309 53.3691 -43.7012 C 53.0762 -42.4805 52.4414 -41.8945 51.3672 -41.8945 C 50.0977 -41.8945 49.2676 -42.8223 49.2676 -44.1406 C 49.2676 -44.6289 49.2676 -45.0195 49.3652 -45.5078 C 50.3906 -49.4629 54.4434 -52.4414 59.7168 -52.4414 C 65.6738 -52.4414 69.873 -48.877 69.873 -43.7988 C 69.873 -40.0879 67.2363 -36.6699 63.8672 -36.1328 L 63.8672 -35.9375 C 67.9199 -35.498 70.9473 -32.0801 70.9473 -27.832 C 70.9473 -22.1191 66.2109 -18.0664 59.5215 -18.0664 Z"/>
  </g>
  <g id="Thin-S" transform="matrix(1 0 0 1 811.867 696)">
   <path d="M 44.5801 2.53906 C 65.2832 2.53906 82.2754 -14.4531 82.2754 -35.2051 C 82.2754 -55.9082 65.2344 -72.9004 44.5312 -72.9004 C 23.8281 -72.9004 6.83594 -55.9082 6.83594 -35.2051 C 6.83594 -14.4531 23.877 2.53906 44.5801 2.53906 Z M 24.0234 -18.9941 C 23.0957 -18.9941 22.4609 -19.6289 22.4609 -20.6055 C 22.4609 -21.1426 22.6074 -21.5332 22.9492 -21.9727 L 34.668 -35.5469 C 37.1094 -38.4277 38.5742 -40.5762 38.5742 -43.2129 C 38.5742 -46.875 35.9863 -49.2188 31.8359 -49.2188 C 27.9297 -49.2188 25.0977 -46.9238 24.6094 -43.4082 C 24.4141 -42.5293 23.9258 -42.041 23.0957 -42.041 C 22.2168 -42.041 21.6797 -42.6758 21.6797 -43.6035 C 21.6797 -43.9941 21.7285 -44.3359 21.7773 -44.7266 C 22.5586 -49.0234 26.8555 -52.0996 31.7871 -52.0996 C 37.6953 -52.0996 41.6504 -48.6816 41.6504 -43.3594 C 41.6504 -39.9902 39.8926 -37.2559 36.4746 -33.252 L 26.8555 -22.0703 L 26.8555 -21.9238 L 41.1621 -21.9238 C 41.9922 -21.9238 42.5781 -21.3379 42.5781 -20.5078 C 42.5781 -19.6777 41.9922 -18.9941 41.1621 -18.9941 Z M 58.8379 -18.4082 C 53.6133 -18.4082 49.5605 -21.4844 48.4375 -25.0488 C 48.3398 -25.4395 48.2422 -25.7812 48.2422 -26.2207 C 48.2422 -27.0996 48.8281 -27.7832 49.707 -27.7832 C 50.4883 -27.7832 50.9277 -27.3438 51.2207 -26.4648 C 52.2949 -23.2422 55.2734 -21.2891 58.8379 -21.2891 C 63.623 -21.2891 66.748 -24.0723 66.748 -27.9297 C 66.748 -31.6406 63.623 -34.375 59.2285 -34.375 L 56.1035 -34.375 C 55.2246 -34.375 54.7363 -34.9609 54.7363 -35.791 C 54.7363 -36.7188 55.2734 -37.2559 56.1035 -37.2559 L 58.9844 -37.2559 C 62.8418 -37.2559 65.6738 -39.9414 65.6738 -43.457 C 65.6738 -46.875 62.9395 -49.2188 58.8379 -49.2188 C 55.0781 -49.2188 52.4902 -47.168 51.8066 -44.043 C 51.6113 -43.1152 51.1719 -42.7246 50.3906 -42.7246 C 49.4141 -42.7246 48.877 -43.3594 48.877 -44.2871 C 48.877 -44.6777 48.9258 -45.0684 49.0234 -45.5078 C 50 -49.4629 54.0527 -52.0996 58.8867 -52.0996 C 64.6484 -52.0996 68.75 -48.6816 68.75 -43.7988 C 68.75 -40.0879 66.0645 -36.6699 62.5 -36.0352 L 62.5 -35.9375 C 66.6992 -35.498 69.873 -32.0312 69.873 -27.8809 C 69.873 -22.3633 65.2832 -18.4082 58.8379 -18.4082 Z"/>
  </g>
  <g id="Ultralight-S" transform="matrix(1 0 0 1 515.644 696)">
   <path d="M 44.043 2.05078 C 64.502 2.05078 81.2988 -14.6973 81.2988 -35.1562 C 81.2988 -55.6152 64.502 -72.3633 44.043 -72.3633 C 23.584 -72.3633 6.83594 -55.6152 6.83594 -35.1562 C 6.83594 -14.6973 23.584 2.05078 44.043 2.05078 Z M 23.6328 -19.0918 C 22.8516 -19.0918 22.3633 -19.5312 22.3633 -20.3125 C 22.3633 -20.8496 22.4609 -21.0938 22.7051 -21.4355 L 34.8145 -35.4492 C 37.5 -38.5254 38.7207 -40.7227 38.7207 -43.3105 C 38.7207 -47.2168 35.9375 -49.7559 31.4453 -49.7559 C 27.1484 -49.7559 23.9746 -47.0703 23.6816 -43.3594 C 23.6328 -42.627 23.1934 -42.2363 22.5098 -42.2363 C 21.7773 -42.2363 21.3379 -42.7734 21.3379 -43.457 C 21.3379 -43.7988 21.3867 -44.0918 21.4355 -44.4824 C 22.168 -48.8281 26.4648 -51.9531 31.4453 -51.9531 C 37.207 -51.9531 41.1133 -48.584 41.1133 -43.3105 C 41.1133 -40.2344 39.5508 -37.5488 35.9375 -33.3496 L 25.6836 -21.3867 L 25.6836 -21.2891 L 40.9668 -21.2891 C 41.6504 -21.2891 42.041 -20.8008 42.041 -20.166 C 42.041 -19.5801 41.6504 -19.0918 40.9668 -19.0918 Z M 58.4961 -18.5547 C 53.3691 -18.5547 49.4141 -21.582 48.2422 -25.0977 C 48.1445 -25.3906 48.0469 -25.7324 48.0469 -26.123 C 48.0469 -26.8066 48.4863 -27.3438 49.1699 -27.3438 C 49.8047 -27.3438 50.1953 -27.002 50.3906 -26.2695 C 51.4648 -22.9004 54.7363 -20.752 58.4961 -20.752 C 63.5742 -20.752 66.9434 -23.7305 66.9434 -27.8809 C 66.9434 -31.7383 63.5254 -34.7168 58.8867 -34.7168 L 55.5176 -34.7168 C 54.7852 -34.7168 54.3945 -35.1562 54.3945 -35.8398 C 54.3945 -36.5234 54.834 -36.9629 55.5176 -36.9629 L 58.6426 -36.9629 C 62.7441 -36.9629 65.8203 -39.8438 65.8203 -43.5547 C 65.8203 -47.2168 62.8418 -49.7559 58.4473 -49.7559 C 54.4434 -49.7559 51.6113 -47.5098 51.0254 -44.2383 C 50.8789 -43.4082 50.4883 -43.1152 49.8535 -43.1152 C 49.0723 -43.1152 48.6816 -43.6523 48.6816 -44.4336 C 48.6816 -44.7266 48.7305 -45.1172 48.8281 -45.459 C 49.7559 -49.4629 53.8574 -51.9531 58.4473 -51.9531 C 64.1113 -51.9531 68.2129 -48.584 68.2129 -43.75 C 68.2129 -40.0879 65.4785 -36.6211 61.8164 -35.9863 L 61.8164 -35.9375 C 66.0645 -35.4492 69.3359 -31.9824 69.3359 -27.8809 C 69.3359 -22.4609 64.7461 -18.5547 58.4961 -18.5547 Z"/>
  </g>
 </g>
</svg>
