<?xml version="1.0" encoding="UTF-8"?>
<!--Generator: Apple Native CoreSVG 123-->
<!DOCTYPE svg
PUBLIC "-//W3C//DTD SVG 1.1//EN"
       "http://www.w3.org/Graphics/SVG/1.1/DTD/svg11.dtd">
<svg version="1.1" xmlns="http://www.w3.org/2000/svg" xmlns:xlink="http://www.w3.org/1999/xlink" width="3300" height="2200">
 <!--glyph: "uni100522.medium", point size: 100.000000, font version: "Version 15.0d7e11", template writer version: "5"-->
 <g id="Notes">
  <rect height="2200" id="artboard" style="fill:white;opacity:1" width="3300" x="0" y="0"/>
  <line id="" style="fill:none;stroke:black;opacity:1;stroke-width:0.5;" x1="263" x2="3036" y1="292" y2="292"/>
  <text style="stroke:none;fill:black;font-family:-apple-system,&quot;SF Pro Display&quot;,&quot;SF Pro Text&quot;,Helvetica,sans-serif;font-weight:bold;" transform="matrix(1 0 0 1 263 322)">Weight/Scale Variations</text>
  <text style="stroke:none;fill:black;font-family:-apple-system,&quot;SF Pro Display&quot;,&quot;SF Pro Text&quot;,Helvetica,sans-serif;text-anchor:middle;" transform="matrix(1 0 0 1 559.711 322)">Ultralight</text>
  <text style="stroke:none;fill:black;font-family:-apple-system,&quot;SF Pro Display&quot;,&quot;SF Pro Text&quot;,Helvetica,sans-serif;text-anchor:middle;" transform="matrix(1 0 0 1 856.422 322)">Thin</text>
  <text style="stroke:none;fill:black;font-family:-apple-system,&quot;SF Pro Display&quot;,&quot;SF Pro Text&quot;,Helvetica,sans-serif;text-anchor:middle;" transform="matrix(1 0 0 1 1153.13 322)">Light</text>
  <text style="stroke:none;fill:black;font-family:-apple-system,&quot;SF Pro Display&quot;,&quot;SF Pro Text&quot;,Helvetica,sans-serif;text-anchor:middle;" transform="matrix(1 0 0 1 1449.84 322)">Regular</text>
  <text style="stroke:none;fill:black;font-family:-apple-system,&quot;SF Pro Display&quot;,&quot;SF Pro Text&quot;,Helvetica,sans-serif;text-anchor:middle;" transform="matrix(1 0 0 1 1746.56 322)">Medium</text>
  <text style="stroke:none;fill:black;font-family:-apple-system,&quot;SF Pro Display&quot;,&quot;SF Pro Text&quot;,Helvetica,sans-serif;text-anchor:middle;" transform="matrix(1 0 0 1 2043.27 322)">Semibold</text>
  <text style="stroke:none;fill:black;font-family:-apple-system,&quot;SF Pro Display&quot;,&quot;SF Pro Text&quot;,Helvetica,sans-serif;text-anchor:middle;" transform="matrix(1 0 0 1 2339.98 322)">Bold</text>
  <text style="stroke:none;fill:black;font-family:-apple-system,&quot;SF Pro Display&quot;,&quot;SF Pro Text&quot;,Helvetica,sans-serif;text-anchor:middle;" transform="matrix(1 0 0 1 2636.69 322)">Heavy</text>
  <text style="stroke:none;fill:black;font-family:-apple-system,&quot;SF Pro Display&quot;,&quot;SF Pro Text&quot;,Helvetica,sans-serif;text-anchor:middle;" transform="matrix(1 0 0 1 2933.4 322)">Black</text>
  <line id="" style="fill:none;stroke:black;opacity:1;stroke-width:0.5;" x1="263" x2="3036" y1="1903" y2="1903"/>
  <g id="" transform="matrix(1 0 0 1 263 1933)">
   <path d="M 9.24805 0.830078 C 13.5547 0.830078 17.1387 -2.74414 17.1387 -7.05078 C 17.1387 -11.3574 13.5449 -14.9316 9.23828 -14.9316 C 4.94141 -14.9316 1.36719 -11.3574 1.36719 -7.05078 C 1.36719 -2.74414 4.95117 0.830078 9.24805 0.830078 Z M 9.24805 -0.654297 C 5.70312 -0.654297 2.87109 -3.49609 2.87109 -7.05078 C 2.87109 -10.6055 5.69336 -13.4473 9.23828 -13.4473 C 12.793 -13.4473 15.6348 -10.6055 15.6445 -7.05078 C 15.6543 -3.49609 12.8027 -0.654297 9.24805 -0.654297 Z M 9.22852 -3.42773 C 9.69727 -3.42773 9.9707 -3.74023 9.9707 -4.25781 L 9.9707 -6.31836 L 12.1973 -6.31836 C 12.6953 -6.31836 13.0371 -6.57227 13.0371 -7.04102 C 13.0371 -7.51953 12.7148 -7.7832 12.1973 -7.7832 L 9.9707 -7.7832 L 9.9707 -10.0098 C 9.9707 -10.5273 9.69727 -10.8496 9.22852 -10.8496 C 8.75977 -10.8496 8.50586 -10.5078 8.50586 -10.0098 L 8.50586 -7.7832 L 6.29883 -7.7832 C 5.78125 -7.7832 5.44922 -7.51953 5.44922 -7.04102 C 5.44922 -6.57227 5.80078 -6.31836 6.29883 -6.31836 L 8.50586 -6.31836 L 8.50586 -4.25781 C 8.50586 -3.75977 8.75977 -3.42773 9.22852 -3.42773 Z"/>
  </g>
  <g id="" transform="matrix(1 0 0 1 281.506 1933)">
   <path d="M 11.709 2.91016 C 17.1582 2.91016 21.6699 -1.60156 21.6699 -7.05078 C 21.6699 -12.4902 17.1484 -17.0117 11.6992 -17.0117 C 6.25977 -17.0117 1.74805 -12.4902 1.74805 -7.05078 C 1.74805 -1.60156 6.26953 2.91016 11.709 2.91016 Z M 11.709 1.25 C 7.09961 1.25 3.41797 -2.44141 3.41797 -7.05078 C 3.41797 -11.6504 7.08984 -15.3516 11.6992 -15.3516 C 16.3086 -15.3516 20 -11.6504 20.0098 -7.05078 C 20.0195 -2.44141 16.3184 1.25 11.709 1.25 Z M 11.6895 -2.41211 C 12.207 -2.41211 12.5195 -2.77344 12.5195 -3.33984 L 12.5195 -6.23047 L 15.5762 -6.23047 C 16.123 -6.23047 16.5039 -6.51367 16.5039 -7.03125 C 16.5039 -7.55859 16.1426 -7.86133 15.5762 -7.86133 L 12.5195 -7.86133 L 12.5195 -10.9277 C 12.5195 -11.5039 12.207 -11.8555 11.6895 -11.8555 C 11.1719 -11.8555 10.8789 -11.4844 10.8789 -10.9277 L 10.8789 -7.86133 L 7.83203 -7.86133 C 7.26562 -7.86133 6.89453 -7.55859 6.89453 -7.03125 C 6.89453 -6.51367 7.28516 -6.23047 7.83203 -6.23047 L 10.8789 -6.23047 L 10.8789 -3.33984 C 10.8789 -2.79297 11.1719 -2.41211 11.6895 -2.41211 Z"/>
  </g>
  <g id="" transform="matrix(1 0 0 1 304.924 1933)">
   <path d="M 14.9707 5.67383 C 21.9336 5.67383 27.6953 -0.078125 27.6953 -7.04102 C 27.6953 -14.0039 21.9238 -19.7559 14.9609 -19.7559 C 8.00781 -19.7559 2.25586 -14.0039 2.25586 -7.04102 C 2.25586 -0.078125 8.01758 5.67383 14.9707 5.67383 Z M 14.9707 3.85742 C 8.93555 3.85742 4.08203 -1.00586 4.08203 -7.04102 C 4.08203 -13.0762 8.92578 -17.9395 14.9609 -17.9395 C 21.0059 -17.9395 25.8594 -13.0762 25.8691 -7.04102 C 25.8789 -1.00586 21.0156 3.85742 14.9707 3.85742 Z M 14.9512 -1.06445 C 15.5176 -1.06445 15.8691 -1.45508 15.8691 -2.06055 L 15.8691 -6.13281 L 20.1074 -6.13281 C 20.6934 -6.13281 21.1133 -6.46484 21.1133 -7.02148 C 21.1133 -7.59766 20.7227 -7.93945 20.1074 -7.93945 L 15.8691 -7.93945 L 15.8691 -12.1875 C 15.8691 -12.8027 15.5176 -13.1934 14.9512 -13.1934 C 14.3848 -13.1934 14.0625 -12.7832 14.0625 -12.1875 L 14.0625 -7.93945 L 9.83398 -7.93945 C 9.21875 -7.93945 8.80859 -7.59766 8.80859 -7.02148 C 8.80859 -6.46484 9.23828 -6.13281 9.83398 -6.13281 L 14.0625 -6.13281 L 14.0625 -2.06055 C 14.0625 -1.47461 14.3848 -1.06445 14.9512 -1.06445 Z"/>
  </g>
  <text style="stroke:none;fill:black;font-family:-apple-system,&quot;SF Pro Display&quot;,&quot;SF Pro Text&quot;,Helvetica,sans-serif;font-weight:bold;" transform="matrix(1 0 0 1 263 1953)">Design Variations</text>
  <text style="stroke:none;fill:black;font-family:-apple-system,&quot;SF Pro Display&quot;,&quot;SF Pro Text&quot;,Helvetica,sans-serif;" transform="matrix(1 0 0 1 263 1971)">Symbols are supported in up to nine weights and three scales.</text>
  <text style="stroke:none;fill:black;font-family:-apple-system,&quot;SF Pro Display&quot;,&quot;SF Pro Text&quot;,Helvetica,sans-serif;" transform="matrix(1 0 0 1 263 1989)">For optimal layout with text and other symbols, vertically align</text>
  <text style="stroke:none;fill:black;font-family:-apple-system,&quot;SF Pro Display&quot;,&quot;SF Pro Text&quot;,Helvetica,sans-serif;" transform="matrix(1 0 0 1 263 2007)">symbols with the adjacent text.</text>
  <rect height="14" id="" style="fill:#00AEEF;stroke:none;opacity:0.4;" width="3" x="776" y="1919"/>
  <g id="" transform="matrix(1 0 0 1 779 1933)">
   <path d="M 10.5273 0 L 12.373 0 L 7.17773 -14.0918 L 5.43945 -14.0918 L 0.244141 0 L 2.08984 0 L 3.50586 -4.0332 L 9.11133 -4.0332 Z M 6.2793 -11.9531 L 6.33789 -11.9531 L 8.59375 -5.52734 L 4.02344 -5.52734 Z"/>
  </g>
  <rect height="14" id="" style="fill:#00AEEF;stroke:none;opacity:0.4;" width="3" x="791.617" y="1919"/>
  <text style="stroke:none;fill:black;font-family:-apple-system,&quot;SF Pro Display&quot;,&quot;SF Pro Text&quot;,Helvetica,sans-serif;font-weight:bold;" transform="matrix(1 0 0 1 776 1953)">Margins</text>
  <text style="stroke:none;fill:black;font-family:-apple-system,&quot;SF Pro Display&quot;,&quot;SF Pro Text&quot;,Helvetica,sans-serif;" transform="matrix(1 0 0 1 776 1971)">Leading and trailing margins on the left and right side of each symbol</text>
  <text style="stroke:none;fill:black;font-family:-apple-system,&quot;SF Pro Display&quot;,&quot;SF Pro Text&quot;,Helvetica,sans-serif;" transform="matrix(1 0 0 1 776 1989)">can be adjusted by modifying the width of the blue rectangles.</text>
  <text style="stroke:none;fill:black;font-family:-apple-system,&quot;SF Pro Display&quot;,&quot;SF Pro Text&quot;,Helvetica,sans-serif;" transform="matrix(1 0 0 1 776 2007)">Modifications are automatically applied proportionally to all</text>
  <text style="stroke:none;fill:black;font-family:-apple-system,&quot;SF Pro Display&quot;,&quot;SF Pro Text&quot;,Helvetica,sans-serif;" transform="matrix(1 0 0 1 776 2025)">scales and weights.</text>
  <g id="" transform="matrix(1 0 0 1 1289 1933)">
   <path d="M 2.83203 3.11523 L 4.375 4.6582 C 5.22461 5.48828 6.19141 5.41992 7.06055 4.46289 L 17.2754 -6.66016 C 17.7051 -6.36719 18.0957 -6.37695 18.5645 -6.47461 L 19.6094 -6.68945 L 20.3027 -5.99609 L 20.2539 -5.47852 C 20.1855 -4.95117 20.3516 -4.53125 20.8496 -4.0332 L 21.6602 -3.22266 C 22.168 -2.71484 22.8223 -2.68555 23.3008 -3.16406 L 26.5527 -6.41602 C 27.0312 -6.89453 27.0117 -7.54883 26.5039 -8.05664 L 25.6836 -8.87695 C 25.1855 -9.375 24.7754 -9.55078 24.2383 -9.47266 L 23.7109 -9.41406 L 23.0566 -10.0781 L 23.3398 -11.2207 C 23.4863 -11.7871 23.3398 -12.2559 22.7148 -12.8613 L 20.3027 -15.2539 C 16.7578 -18.7793 12.2266 -18.6719 9.11133 -15.5371 C 8.69141 -15.1074 8.64258 -14.5215 8.91602 -14.0918 C 9.15039 -13.7207 9.62891 -13.4961 10.2734 -13.6621 C 11.7871 -14.043 13.3008 -13.9258 14.7852 -12.9199 L 14.1602 -11.3379 C 13.9258 -10.752 13.9453 -10.2734 14.1797 -9.83398 L 3.01758 0.439453 C 2.08008 1.30859 1.97266 2.25586 2.83203 3.11523 Z M 10.6738 -15.1465 C 13.3398 -17.1387 16.6504 -16.8262 19.0527 -14.4141 L 21.6797 -11.8066 C 21.9141 -11.5723 21.9434 -11.3867 21.8848 -11.0938 L 21.5039 -9.53125 L 23.0762 -7.95898 L 24.043 -8.04688 C 24.3262 -8.07617 24.4141 -8.05664 24.6387 -7.83203 L 25.2637 -7.20703 L 22.5098 -4.46289 L 21.8848 -5.07812 C 21.6602 -5.30273 21.6406 -5.40039 21.6699 -5.68359 L 21.7578 -6.64062 L 20.1953 -8.20312 L 18.5742 -7.89062 C 18.291 -7.83203 18.1445 -7.83203 17.9102 -8.07617 L 15.7324 -10.2539 C 15.5078 -10.4883 15.4785 -10.625 15.6055 -10.9473 L 16.5527 -13.2227 C 14.9512 -14.7559 12.8418 -15.6055 10.8008 -14.9512 C 10.7129 -14.9219 10.6445 -14.9414 10.6152 -14.9805 C 10.5859 -15.0293 10.5859 -15.0781 10.6738 -15.1465 Z M 4.10156 2.41211 C 3.61328 1.91406 3.78906 1.61133 4.12109 1.30859 L 15.0781 -8.80859 L 16.3086 -7.57812 L 6.15234 3.34961 C 5.84961 3.68164 5.46875 3.7793 5.06836 3.37891 Z"/>
  </g>
  <text style="stroke:none;fill:black;font-family:-apple-system,&quot;SF Pro Display&quot;,&quot;SF Pro Text&quot;,Helvetica,sans-serif;font-weight:bold;" transform="matrix(1 0 0 1 1289 1953)">Exporting</text>
  <text style="stroke:none;fill:black;font-family:-apple-system,&quot;SF Pro Display&quot;,&quot;SF Pro Text&quot;,Helvetica,sans-serif;" transform="matrix(1 0 0 1 1289 1971)">Symbols should be outlined when exporting to ensure the</text>
  <text style="stroke:none;fill:black;font-family:-apple-system,&quot;SF Pro Display&quot;,&quot;SF Pro Text&quot;,Helvetica,sans-serif;" transform="matrix(1 0 0 1 1289 1989)">design is preserved when submitting to Xcode.</text>
  <text id="template-version" style="stroke:none;fill:black;font-family:-apple-system,&quot;SF Pro Display&quot;,&quot;SF Pro Text&quot;,Helvetica,sans-serif;text-anchor:end;" transform="matrix(1 0 0 1 3036 1933)">Template v.1.0</text>
  <text style="stroke:none;fill:black;font-family:-apple-system,&quot;SF Pro Display&quot;,&quot;SF Pro Text&quot;,Helvetica,sans-serif;text-anchor:end;" transform="matrix(1 0 0 1 3036 1951)">Generated from 24.circle.fill</text>
  <text style="stroke:none;fill:black;font-family:-apple-system,&quot;SF Pro Display&quot;,&quot;SF Pro Text&quot;,Helvetica,sans-serif;text-anchor:end;" transform="matrix(1 0 0 1 3036 1969)">Typeset at 100 points</text>
  <text style="stroke:none;fill:black;font-family:-apple-system,&quot;SF Pro Display&quot;,&quot;SF Pro Text&quot;,Helvetica,sans-serif;" transform="matrix(1 0 0 1 263 726)">Small</text>
  <text style="stroke:none;fill:black;font-family:-apple-system,&quot;SF Pro Display&quot;,&quot;SF Pro Text&quot;,Helvetica,sans-serif;" transform="matrix(1 0 0 1 263 1156)">Medium</text>
  <text style="stroke:none;fill:black;font-family:-apple-system,&quot;SF Pro Display&quot;,&quot;SF Pro Text&quot;,Helvetica,sans-serif;" transform="matrix(1 0 0 1 263 1586)">Large</text>
 </g>
 <g id="Guides">
  <g id="H-reference" style="fill:#27AAE1;stroke:none;" transform="matrix(1 0 0 1 339 696)">
   <path d="M 54.9316 0 L 57.666 0 L 30.5664 -70.459 L 28.0762 -70.459 L 0.976562 0 L 3.66211 0 L 12.9395 -24.4629 L 45.7031 -24.4629 Z M 29.1992 -67.0898 L 29.4434 -67.0898 L 44.8242 -26.709 L 13.8184 -26.709 Z"/>
  </g>
  <line id="Baseline-S" style="fill:none;stroke:#27AAE1;opacity:1;stroke-width:0.577;" x1="263" x2="3036" y1="696" y2="696"/>
  <line id="Capline-S" style="fill:none;stroke:#27AAE1;opacity:1;stroke-width:0.577;" x1="263" x2="3036" y1="625.541" y2="625.541"/>
  <g id="H-reference" style="fill:#27AAE1;stroke:none;" transform="matrix(1 0 0 1 339 1126)">
   <path d="M 54.9316 0 L 57.666 0 L 30.5664 -70.459 L 28.0762 -70.459 L 0.976562 0 L 3.66211 0 L 12.9395 -24.4629 L 45.7031 -24.4629 Z M 29.1992 -67.0898 L 29.4434 -67.0898 L 44.8242 -26.709 L 13.8184 -26.709 Z"/>
  </g>
  <line id="Baseline-M" style="fill:none;stroke:#27AAE1;opacity:1;stroke-width:0.577;" x1="263" x2="3036" y1="1126" y2="1126"/>
  <line id="Capline-M" style="fill:none;stroke:#27AAE1;opacity:1;stroke-width:0.577;" x1="263" x2="3036" y1="1055.54" y2="1055.54"/>
  <g id="H-reference" style="fill:#27AAE1;stroke:none;" transform="matrix(1 0 0 1 339 1556)">
   <path d="M 54.9316 0 L 57.666 0 L 30.5664 -70.459 L 28.0762 -70.459 L 0.976562 0 L 3.66211 0 L 12.9395 -24.4629 L 45.7031 -24.4629 Z M 29.1992 -67.0898 L 29.4434 -67.0898 L 44.8242 -26.709 L 13.8184 -26.709 Z"/>
  </g>
  <line id="Baseline-L" style="fill:none;stroke:#27AAE1;opacity:1;stroke-width:0.577;" x1="263" x2="3036" y1="1556" y2="1556"/>
  <line id="Capline-L" style="fill:none;stroke:#27AAE1;opacity:1;stroke-width:0.577;" x1="263" x2="3036" y1="1485.54" y2="1485.54"/>
  <rect height="119.336" id="left-margin" style="fill:#00AEEF;stroke:none;opacity:0.4;" width="8.74023" x="1391.3" y="1030.79"/>
  <rect height="119.336" id="right-margin" style="fill:#00AEEF;stroke:none;opacity:0.4;" width="8.74023" x="1499.65" y="1030.79"/>
 </g>
 <g id="Symbols">
  <g id="Black-L" transform="matrix(1 0 0 1 2854.05 1556)">
   <path d="M 79.3457 32.8613 C 116.748 32.8613 147.412 2.19727 147.412 -35.2051 C 147.412 -72.6074 116.748 -103.271 79.2969 -103.271 C 41.8945 -103.271 11.2793 -72.6074 11.2793 -35.2051 C 11.2793 2.19727 41.9434 32.8613 79.3457 32.8613 Z M 50.8789 -10.5469 C 47.5098 -10.5469 44.873 -12.8418 44.873 -16.6016 C 44.873 -18.8965 45.6543 -20.8984 47.8516 -23.3398 L 59.1309 -36.7188 C 62.0117 -40.0879 64.4043 -42.4316 64.4043 -45.4102 C 64.4043 -47.8516 62.4023 -49.7559 59.7168 -49.7559 C 57.3242 -49.7559 55.4688 -48.3398 54.5898 -45.8008 C 53.7598 -43.5059 52.2461 -41.8945 49.2676 -41.8945 C 46.0938 -41.8945 44.0918 -44.0918 44.0918 -47.2168 C 44.0918 -48.3887 44.2383 -49.3164 44.5312 -50.3418 C 46.3867 -56.7383 52.6855 -61.084 60.0098 -61.084 C 69.5801 -61.084 75.3906 -55.0293 75.5371 -46.5332 C 75.5859 -40.7227 72.8027 -36.2793 67.9688 -30.7129 L 61.1328 -22.7539 L 61.1328 -22.1191 L 71.1426 -22.1191 C 74.7559 -22.1191 77.002 -20.0684 77.002 -16.5039 C 77.002 -12.7441 74.7559 -10.5469 71.1426 -10.5469 Z M 105.762 -9.47266 C 102.441 -9.47266 100.244 -11.7676 100.244 -15.0391 L 100.244 -19.1406 L 87.8906 -19.1406 C 82.959 -19.1406 80.3711 -21.9238 80.3711 -26.6602 C 80.3711 -29.4922 81.0547 -32.0312 82.0312 -34.5703 C 84.082 -39.7949 87.5488 -47.6562 90.8203 -53.8574 C 93.3105 -58.7891 96.582 -61.084 102.148 -61.084 C 108.252 -61.084 111.328 -57.4219 111.328 -51.5137 L 111.328 -29.7852 L 112.5 -29.7852 C 115.674 -29.7852 117.48 -27.6367 117.48 -24.4141 C 117.48 -21.1914 115.674 -19.2383 112.5 -19.2383 L 111.328 -19.2383 L 111.328 -15.0391 C 111.328 -11.7676 109.229 -9.47266 105.762 -9.47266 Z M 100.244 -29.6387 L 100.244 -49.3164 L 100.049 -49.3164 C 97.3145 -43.3105 94.1406 -34.8633 92.1387 -29.9316 L 92.1387 -29.6387 Z"/>
  </g>
  <g id="Heavy-L" transform="matrix(1 0 0 1 2558.39 1556)">
   <path d="M 78.2715 31.7871 C 115.088 31.7871 145.312 1.61133 145.312 -35.2051 C 145.312 -72.0215 115.039 -102.197 78.2715 -102.197 C 41.4551 -102.197 11.2793 -72.0215 11.2793 -35.2051 C 11.2793 1.61133 41.5039 31.7871 78.2715 31.7871 Z M 48.5352 -10.0586 C 45.4102 -10.0586 43.1152 -12.1094 43.1152 -15.4785 C 43.1152 -17.4805 43.7988 -19.2871 45.6543 -21.3867 L 58.5449 -36.5723 C 61.5723 -40.0879 64.1602 -42.7246 64.1602 -46.0449 C 64.1602 -49.1699 61.7188 -51.416 58.252 -51.416 C 55.2246 -51.416 52.9297 -49.6582 51.9043 -46.4844 C 51.123 -44.3359 49.7559 -42.8223 47.0215 -42.8223 C 44.1406 -42.8223 42.334 -44.873 42.334 -47.7539 C 42.334 -48.7793 42.4805 -49.6582 42.7246 -50.6348 C 44.4824 -57.1289 50.9766 -61.6699 58.4473 -61.6699 C 68.1641 -61.6699 74.1699 -55.6641 74.2676 -47.0215 C 74.3164 -41.1133 71.3867 -36.6211 66.5039 -30.957 L 58.0078 -21.0938 L 58.0078 -20.5078 L 70.5078 -20.5078 C 73.6816 -20.5078 75.7324 -18.6035 75.7324 -15.3809 C 75.7324 -12.0117 73.6816 -10.0586 70.5078 -10.0586 Z M 105.811 -8.93555 C 102.734 -8.93555 100.781 -11.084 100.781 -14.1113 L 100.781 -19.2871 L 86.5723 -19.2871 C 82.0801 -19.2871 79.5898 -21.8262 79.5898 -26.1719 C 79.5898 -28.7109 80.2246 -30.957 81.2012 -33.3496 C 83.8379 -39.1602 88.3301 -48.2422 92.1387 -55.127 C 94.5312 -59.6191 97.5098 -61.6699 102.49 -61.6699 C 107.959 -61.6699 110.889 -58.3496 110.889 -53.0762 L 110.889 -28.9062 L 112.793 -28.9062 C 115.723 -28.9062 117.383 -27.002 117.383 -24.0723 C 117.383 -21.0938 115.723 -19.3359 112.793 -19.3359 L 110.889 -19.3359 L 110.889 -14.1113 C 110.889 -11.0352 108.984 -8.93555 105.811 -8.93555 Z M 100.781 -28.8574 L 100.781 -50.8301 L 100.537 -50.8301 C 97.2168 -44.2871 92.8223 -34.5703 90.3809 -29.1016 L 90.3809 -28.8574 Z"/>
  </g>
  <g id="Bold-L" transform="matrix(1 0 0 1 2262.88 1556)">
   <path d="M 77.0996 30.6152 C 113.232 30.6152 142.92 0.878906 142.92 -35.2051 C 142.92 -71.3379 113.184 -101.025 77.0508 -101.025 C 40.9668 -101.025 11.2793 -71.3379 11.2793 -35.2051 C 11.2793 0.878906 41.0156 30.6152 77.0996 30.6152 Z M 45.8496 -9.47266 C 43.1152 -9.47266 41.1133 -11.2793 41.1133 -14.209 C 41.1133 -15.9668 41.6992 -17.4316 43.2129 -19.1895 L 57.9102 -36.4258 C 61.0352 -40.0879 63.8184 -43.1152 63.8184 -46.7285 C 63.8184 -50.5859 60.9375 -53.2715 56.6895 -53.2715 C 52.8809 -53.2715 50.0488 -51.1719 48.9258 -47.2656 C 48.1445 -45.2148 46.9238 -43.8965 44.5312 -43.8965 C 41.9922 -43.8965 40.332 -45.7031 40.332 -48.3398 C 40.332 -49.2676 40.4785 -50.0977 40.6738 -50.9766 C 42.3828 -57.6172 49.0234 -62.3047 56.6895 -62.3047 C 66.6016 -62.3047 72.8027 -56.3477 72.9004 -47.6074 C 72.9004 -41.5527 69.8242 -36.9629 64.8438 -31.25 L 54.4922 -19.1895 L 54.4922 -18.6523 L 69.8242 -18.6523 C 72.5586 -18.6523 74.3652 -16.9922 74.3652 -14.1602 C 74.3652 -11.2305 72.5586 -9.47266 69.8242 -9.47266 Z M 105.811 -8.30078 C 103.027 -8.30078 101.318 -10.3027 101.318 -13.0371 L 101.318 -19.4336 L 85.0586 -19.4336 C 81.0547 -19.4336 78.7109 -21.6797 78.7109 -25.6348 C 78.7109 -27.832 79.248 -29.7852 80.2246 -31.9336 C 83.5449 -38.4277 89.209 -48.877 93.6035 -56.4941 C 95.8008 -60.5469 98.4863 -62.3047 102.93 -62.3047 C 107.666 -62.3047 110.4 -59.4238 110.4 -54.7852 L 110.4 -27.9785 L 113.184 -27.9785 C 115.723 -27.9785 117.285 -26.3184 117.285 -23.6816 C 117.285 -21.0449 115.771 -19.4824 113.184 -19.4824 L 110.4 -19.4824 L 110.4 -13.0371 C 110.4 -10.2539 108.691 -8.30078 105.811 -8.30078 Z M 101.318 -27.9297 L 101.318 -52.4902 L 101.074 -52.4902 C 97.168 -45.3613 91.3574 -34.2285 88.4277 -28.1738 L 88.4277 -27.9297 Z"/>
  </g>
  <g id="Semibold-L" transform="matrix(1 0 0 1 1966.97 1556)">
   <path d="M 76.2695 29.7852 C 111.914 29.7852 141.309 0.439453 141.309 -35.2051 C 141.309 -70.8496 111.865 -100.244 76.2695 -100.244 C 40.625 -100.244 11.2793 -70.8496 11.2793 -35.2051 C 11.2793 0.439453 40.6738 29.7852 76.2695 29.7852 Z M 44.043 -9.0332 C 41.5039 -9.0332 39.7461 -10.7422 39.7461 -13.3789 C 39.7461 -14.8926 40.2344 -16.2109 41.5527 -17.627 L 57.4219 -36.2793 C 60.6934 -40.1367 63.623 -43.3594 63.623 -47.2168 C 63.623 -51.6113 60.4004 -54.5898 55.5664 -54.5898 C 51.2207 -54.5898 48.0957 -52.1484 46.8262 -47.8027 C 46.0938 -45.8496 45.0195 -44.6289 42.8223 -44.6289 C 40.4785 -44.6289 38.9648 -46.2891 38.9648 -48.7305 C 38.9648 -49.6094 39.1113 -50.3418 39.3066 -51.2207 C 40.9668 -57.9102 47.7539 -62.7441 55.5176 -62.7441 C 65.4785 -62.7441 71.875 -56.8359 71.9238 -47.9492 C 71.9238 -41.8945 68.75 -37.2559 63.7207 -31.3965 L 52.0996 -17.8711 L 52.0996 -17.3828 L 69.3359 -17.3828 C 71.7285 -17.3828 73.3887 -15.8691 73.3887 -13.3301 C 73.3887 -10.6934 71.7285 -9.0332 69.3359 -9.0332 Z M 105.811 -7.91016 C 103.223 -7.91016 101.709 -9.7168 101.709 -12.3047 L 101.709 -19.5312 L 84.0332 -19.5312 C 80.3711 -19.5312 78.125 -21.6309 78.125 -25.293 C 78.125 -27.2461 78.6133 -28.9551 79.541 -30.957 C 83.3008 -37.9395 89.8438 -49.3164 94.6289 -57.4707 C 96.7285 -61.1816 99.1699 -62.7441 103.174 -62.7441 C 107.422 -62.7441 110.01 -60.1074 110.01 -56.0059 L 110.01 -27.3438 L 113.379 -27.3438 C 115.771 -27.3438 117.188 -25.8301 117.188 -23.3887 C 117.188 -20.9961 115.771 -19.5312 113.379 -19.5312 L 110.01 -19.5312 L 110.01 -12.3047 C 110.01 -9.7168 108.545 -7.91016 105.811 -7.91016 Z M 101.709 -27.2949 L 101.709 -53.6621 L 101.416 -53.6621 C 97.168 -46.0938 90.332 -33.9844 87.1094 -27.5391 L 87.1094 -27.2949 Z"/>
  </g>
  <g id="Medium-L" transform="matrix(1 0 0 1 1670.87 1556)">
   <path d="M 75.6836 29.1992 C 110.938 29.1992 140.088 0.0488281 140.088 -35.2051 C 140.088 -70.459 110.889 -99.6094 75.6348 -99.6094 C 40.3809 -99.6094 11.2793 -70.459 11.2793 -35.2051 C 11.2793 0.0488281 40.3809 29.1992 75.6836 29.1992 Z M 42.6758 -8.74023 C 40.2832 -8.74023 38.7207 -10.3027 38.7207 -12.6953 C 38.7207 -14.0625 39.1602 -15.2344 40.2832 -16.5039 L 57.0801 -36.2305 C 60.4004 -40.1367 63.4277 -43.5547 63.4277 -47.6074 C 63.4277 -52.3438 60.0098 -55.5664 54.7363 -55.5664 C 50 -55.5664 46.582 -52.9297 45.2637 -48.1934 C 44.5312 -46.3379 43.5547 -45.166 41.5527 -45.166 C 39.3066 -45.166 37.9395 -46.7285 37.9395 -49.0234 C 37.9395 -49.8535 38.0859 -50.5859 38.2324 -51.416 C 39.8438 -58.1543 46.7285 -63.0859 54.5898 -63.0859 C 64.6484 -63.0859 71.1914 -57.2266 71.1914 -48.2422 C 71.1914 -42.0898 67.9199 -37.4512 62.8418 -31.543 L 50.2441 -16.8945 L 50.2441 -16.4551 L 68.9453 -16.4551 C 71.1426 -16.4551 72.6562 -15.0391 72.6562 -12.6465 C 72.6562 -10.3027 71.1426 -8.74023 68.9453 -8.74023 Z M 105.811 -7.56836 C 103.418 -7.56836 102.002 -9.32617 102.002 -11.7676 L 102.002 -19.5801 L 83.2031 -19.5801 C 79.834 -19.5801 77.6855 -21.5332 77.6855 -25 C 77.6855 -26.8066 78.125 -28.3203 79.0527 -30.2246 C 83.1543 -37.5977 90.2832 -49.707 95.3613 -58.1543 C 97.4121 -61.6699 99.707 -63.0859 103.418 -63.0859 C 107.275 -63.0859 109.766 -60.6934 109.766 -56.8848 L 109.766 -26.8555 L 113.574 -26.8555 C 115.771 -26.8555 117.139 -25.4395 117.139 -23.1934 C 117.139 -20.9473 115.82 -19.6289 113.574 -19.6289 L 109.766 -19.6289 L 109.766 -11.7676 C 109.766 -9.27734 108.398 -7.56836 105.811 -7.56836 Z M 102.002 -26.8066 L 102.002 -54.541 L 101.709 -54.541 C 97.1191 -46.6309 89.5508 -33.8379 86.084 -27.0996 L 86.084 -26.8066 Z"/>
  </g>
  <g id="Regular-L" transform="matrix(1 0 0 1 1374.97 1556)">
   <path d="M 74.8535 28.3691 C 109.668 28.3691 138.477 -0.390625 138.477 -35.2051 C 138.477 -70.0195 109.619 -98.7793 74.8047 -98.7793 C 40.0391 -98.7793 11.2793 -70.0195 11.2793 -35.2051 C 11.2793 -0.390625 40.0879 28.3691 74.8535 28.3691 Z M 40.8691 -8.34961 C 38.7207 -8.34961 37.3535 -9.7168 37.3535 -11.8652 C 37.3535 -13.0371 37.6953 -14.0137 38.623 -14.9902 L 56.6406 -36.084 C 60.0586 -40.1367 63.2324 -43.7988 63.2324 -48.0957 C 63.2324 -53.3691 59.4727 -56.8359 53.6621 -56.8359 C 48.3887 -56.8359 44.6289 -53.9551 43.2129 -48.7305 C 42.5293 -46.9727 41.6016 -45.8984 39.8438 -45.8984 C 37.8418 -45.8984 36.6211 -47.3145 36.6211 -49.4629 C 36.6211 -50.1465 36.7188 -50.8301 36.8652 -51.6113 C 38.4277 -58.4961 45.4102 -63.5254 53.418 -63.5254 C 63.5742 -63.5254 70.2637 -57.666 70.2637 -48.6328 C 70.2637 -42.4316 66.8457 -37.6953 61.7188 -31.7383 L 47.8516 -15.5762 L 47.8516 -15.1855 L 68.5059 -15.1855 C 70.3125 -15.1855 71.7285 -13.916 71.7285 -11.8164 C 71.7285 -9.76562 70.3125 -8.34961 68.5059 -8.34961 Z M 105.859 -7.17773 C 103.613 -7.17773 102.393 -8.78906 102.393 -11.0352 L 102.393 -19.6777 L 82.2266 -19.6777 C 79.1504 -19.6777 77.0996 -21.4844 77.0996 -24.6582 C 77.0996 -26.2207 77.4902 -27.4902 78.3691 -29.248 C 82.959 -37.1094 90.8691 -50.1465 96.3867 -59.1309 C 98.291 -62.3047 100.391 -63.5254 103.711 -63.5254 C 107.031 -63.5254 109.424 -61.377 109.424 -58.1055 L 109.424 -26.1719 L 113.818 -26.1719 C 115.82 -26.1719 117.09 -24.9512 117.09 -22.9004 C 117.09 -20.8496 115.82 -19.6777 113.818 -19.6777 L 109.424 -19.6777 L 109.424 -11.0352 C 109.424 -8.74023 108.203 -7.17773 105.859 -7.17773 Z M 102.393 -26.1719 L 102.393 -55.7129 L 102.051 -55.7129 C 97.0703 -47.3633 88.5742 -33.5938 84.7656 -26.4648 L 84.7656 -26.1719 Z"/>
  </g>
  <g id="Light-L" transform="matrix(1 0 0 1 1079.18 1556)">
   <path d="M 73.9258 27.4902 C 108.301 27.4902 136.621 -0.830078 136.621 -35.1562 C 136.621 -69.5312 108.252 -97.8516 73.9258 -97.8516 C 39.5508 -97.8516 11.2793 -69.5312 11.2793 -35.1562 C 11.2793 -0.830078 39.5996 27.4902 73.9258 27.4902 Z M 39.9902 -8.44727 C 38.2324 -8.44727 37.0605 -9.57031 37.0605 -11.377 C 37.0605 -12.4023 37.3535 -13.1836 38.0859 -13.9648 L 56.8848 -35.8887 C 60.6934 -40.3809 63.4277 -43.9453 63.4277 -48.291 C 63.4277 -54.0039 59.3262 -57.7637 52.832 -57.7637 C 46.8262 -57.7637 42.4805 -54.248 41.4551 -48.6816 C 41.0156 -47.168 40.1855 -46.2402 38.6719 -46.2402 C 37.0117 -46.2402 35.9863 -47.4609 35.9863 -49.1699 C 35.9863 -49.8047 36.084 -50.3906 36.1816 -51.1719 C 37.5977 -58.1543 44.5801 -63.2324 52.6855 -63.2324 C 62.5977 -63.2324 69.1406 -57.4707 69.1406 -48.584 C 69.1406 -42.8223 66.1133 -38.2324 60.6445 -31.8848 L 45.5566 -14.3066 L 45.5566 -14.0137 L 68.0176 -14.0137 C 69.5801 -14.0137 70.6543 -12.9395 70.6543 -11.2793 C 70.6543 -9.61914 69.5801 -8.44727 68.0176 -8.44727 Z M 104.98 -7.56836 C 103.271 -7.56836 102.148 -8.83789 102.148 -10.5957 L 102.148 -20.459 L 80.7617 -20.459 C 78.1738 -20.459 76.4648 -21.875 76.4648 -24.5117 C 76.4648 -25.7324 76.8066 -26.8555 77.4902 -28.1738 C 82.2754 -35.8887 91.8945 -51.123 97.3145 -59.668 C 98.9258 -62.2559 100.635 -63.2324 103.271 -63.2324 C 105.957 -63.2324 107.861 -61.5234 107.861 -58.8379 L 107.861 -25.7812 L 113.379 -25.7812 C 114.941 -25.7812 116.016 -24.707 116.016 -23.0957 C 116.016 -21.4355 114.99 -20.459 113.379 -20.459 L 107.861 -20.459 L 107.861 -10.5957 C 107.861 -8.78906 106.885 -7.56836 104.98 -7.56836 Z M 102.148 -25.7812 L 102.148 -56.8359 L 101.904 -56.8359 C 97.2656 -49.4141 86.4746 -32.666 82.7148 -25.9766 L 82.7148 -25.7812 Z"/>
  </g>
  <g id="Thin-L" transform="matrix(1 0 0 1 783.693 1556)">
   <path d="M 72.7051 26.3184 C 106.494 26.3184 134.18 -1.36719 134.18 -35.1074 C 134.18 -68.8965 106.494 -96.582 72.7051 -96.582 C 38.9648 -96.582 11.2793 -68.8965 11.2793 -35.1074 C 11.2793 -1.36719 38.9648 26.3184 72.7051 26.3184 Z M 38.916 -8.59375 C 37.5977 -8.59375 36.7188 -9.42383 36.7188 -10.7422 C 36.7188 -11.6211 36.9141 -12.0605 37.3535 -12.6465 L 57.1777 -35.5957 C 61.4746 -40.6738 63.6719 -44.1895 63.6719 -48.5352 C 63.6719 -54.8828 59.1309 -58.9844 51.7578 -58.9844 C 44.7754 -58.9844 39.6973 -54.6387 39.1602 -48.6328 C 39.0137 -47.4121 38.3301 -46.7285 37.1094 -46.7285 C 35.8398 -46.7285 35.1562 -47.6074 35.1562 -48.7793 C 35.1562 -49.3652 35.2539 -49.8047 35.3027 -50.5371 C 36.5234 -57.666 43.5059 -62.793 51.7578 -62.793 C 61.3281 -62.793 67.7246 -57.2266 67.7246 -48.5352 C 67.7246 -43.4082 65.0879 -38.9648 59.1797 -32.0801 L 42.4805 -12.6465 L 42.4805 -12.4512 L 67.4316 -12.4512 C 68.5547 -12.4512 69.2871 -11.6699 69.2871 -10.5469 C 69.2871 -9.47266 68.5547 -8.59375 67.4316 -8.59375 Z M 103.809 -8.10547 C 102.783 -8.10547 101.904 -8.88672 101.904 -10.0586 L 101.904 -21.4844 L 78.8574 -21.4844 C 76.9043 -21.4844 75.5859 -22.4121 75.5859 -24.3164 C 75.5859 -25.1465 75.9277 -26.0254 76.3184 -26.709 C 81.3477 -34.3262 93.2129 -52.4414 98.5352 -60.4004 C 99.7559 -62.207 100.928 -62.793 102.686 -62.793 C 104.492 -62.793 105.762 -61.6699 105.762 -59.8633 L 105.762 -25.1953 L 112.842 -25.1953 C 113.867 -25.1953 114.6 -24.3652 114.6 -23.291 C 114.6 -22.2168 113.916 -21.4844 112.842 -21.4844 L 105.762 -21.4844 L 105.762 -10.0586 C 105.762 -8.88672 105.127 -8.10547 103.809 -8.10547 Z M 101.904 -25.1953 L 101.904 -58.3496 L 101.709 -58.3496 C 97.5098 -52.0996 83.6914 -31.4941 80.0293 -25.3906 L 80.0293 -25.1953 Z"/>
  </g>
  <g id="Ultralight-L" transform="matrix(1 0 0 1 487.616 1556)">
   <path d="M 72.1191 25.7324 C 105.566 25.7324 132.91 -1.61133 132.91 -35.1074 C 132.91 -68.5547 105.566 -95.8984 72.1191 -95.8984 C 38.623 -95.8984 11.2793 -68.5547 11.2793 -35.1074 C 11.2793 -1.61133 38.623 25.7324 72.1191 25.7324 Z M 38.3301 -8.69141 C 37.2559 -8.69141 36.5234 -9.32617 36.5234 -10.4004 C 36.5234 -11.1816 36.6699 -11.5234 37.0117 -11.9141 L 57.373 -35.4492 C 61.9141 -40.8203 63.7695 -44.3359 63.7695 -48.6816 C 63.7695 -55.3711 58.9844 -59.6191 51.2207 -59.6191 C 43.75 -59.6191 38.2324 -54.834 37.9883 -48.584 C 37.9883 -47.5586 37.3535 -46.9727 36.3281 -46.9727 C 35.3027 -46.9727 34.7168 -47.7051 34.7168 -48.6328 C 34.7168 -49.1699 34.8145 -49.5117 34.8633 -50.2441 C 35.9375 -57.4219 42.9199 -62.5977 51.2695 -62.5977 C 60.6445 -62.5977 66.9922 -57.0801 66.9922 -48.5352 C 66.9922 -43.7012 64.5996 -39.3066 58.4473 -32.1777 L 40.918 -11.7676 L 40.918 -11.6211 L 67.0898 -11.6211 C 68.0664 -11.6211 68.6035 -10.9863 68.6035 -10.1562 C 68.6035 -9.42383 68.0664 -8.69141 67.0898 -8.69141 Z M 103.223 -8.39844 C 102.539 -8.39844 101.758 -8.88672 101.758 -9.81445 L 101.758 -22.0215 L 77.8809 -22.0215 C 76.2695 -22.0215 75.1465 -22.7051 75.1465 -24.2188 C 75.1465 -24.8047 75.4883 -25.5859 75.7324 -25.9766 C 80.8594 -33.4961 93.8965 -53.125 99.1699 -60.791 C 100.195 -62.207 101.123 -62.5977 102.393 -62.5977 C 103.711 -62.5977 104.688 -61.7676 104.688 -60.3516 L 104.688 -24.9023 L 112.549 -24.9023 C 113.281 -24.9023 113.867 -24.1699 113.867 -23.4375 C 113.867 -22.6074 113.379 -22.0215 112.549 -22.0215 L 104.688 -22.0215 L 104.688 -9.81445 C 104.688 -8.88672 104.199 -8.39844 103.223 -8.39844 Z M 101.758 -24.9023 L 101.758 -59.1309 L 101.611 -59.1309 C 97.6074 -53.4668 82.2266 -30.8594 78.6621 -25.0488 L 78.6621 -24.9023 Z"/>
  </g>
  <g id="Black-M" transform="matrix(1 0 0 1 2870.97 1126)">
   <path d="M 62.4023 18.457 C 91.9922 18.457 116.113 -5.61523 116.113 -35.2051 C 116.113 -64.7949 91.9922 -88.8672 62.4023 -88.8672 C 32.8125 -88.8672 8.74023 -64.7949 8.74023 -35.2051 C 8.74023 -5.61523 32.8125 18.457 62.4023 18.457 Z M 42.1875 -16.8945 C 39.3555 -16.8945 37.0117 -18.7988 37.0117 -22.0215 C 37.0117 -24.1211 37.7441 -25.8789 39.7461 -28.125 L 46.7773 -36.4746 C 49.0234 -39.0625 50.3906 -40.4785 50.3906 -42.3828 C 50.3906 -43.6035 49.2188 -44.7266 47.7539 -44.7266 C 46.4355 -44.7266 45.3125 -43.7988 44.9707 -42.4805 C 44.4336 -40.6738 43.1152 -39.3066 40.5273 -39.3066 C 37.8906 -39.3066 36.1816 -41.1621 36.1816 -43.6523 C 36.1816 -44.6777 36.3281 -45.4102 36.5723 -46.2891 C 38.0371 -51.1719 42.6758 -54.2969 48.1934 -54.2969 C 55.2734 -54.2969 59.4727 -49.6582 59.6191 -43.3105 C 59.668 -39.1602 57.9102 -35.8887 54.1016 -31.4941 L 50.3906 -27.1484 L 50.3906 -26.6602 L 55.7129 -26.6602 C 58.9355 -26.6602 60.791 -24.9023 60.791 -21.875 C 60.791 -18.7012 58.9355 -16.8945 55.7129 -16.8945 Z M 81.4941 -16.2109 C 78.8086 -16.2109 76.9043 -18.0176 76.9043 -20.6543 L 76.9043 -22.998 L 69.1406 -22.998 C 64.9902 -22.998 62.9395 -25.2441 62.9395 -29.1504 C 62.9395 -31.5918 63.5742 -33.8379 64.2578 -35.8398 C 65.1367 -38.9648 67.334 -44.5801 69.0918 -48.291 C 71.0938 -52.3926 73.7793 -54.2969 78.418 -54.2969 C 83.6914 -54.2969 86.084 -51.2207 86.084 -46.1426 L 86.084 -31.8848 L 86.5234 -31.8848 C 89.1602 -31.8848 90.5762 -30.0781 90.5762 -27.3926 C 90.5762 -24.7559 89.1602 -23.1445 86.5234 -23.1445 L 86.084 -23.1445 L 86.084 -20.6543 C 86.084 -18.0176 84.2285 -16.2109 81.4941 -16.2109 Z M 76.9043 -31.7871 L 76.9043 -44.7266 L 76.8066 -44.7266 C 75.5859 -41.3086 73.6328 -34.8633 72.6562 -31.9824 L 72.6562 -31.7871 Z"/>
  </g>
  <g id="Heavy-M" transform="matrix(1 0 0 1 2575.19 1126)">
   <path d="M 61.5234 17.5781 C 90.5273 17.5781 114.258 -6.15234 114.258 -35.2051 C 114.258 -64.2578 90.5273 -87.9883 61.4746 -87.9883 C 32.4707 -87.9883 8.74023 -64.2578 8.74023 -35.2051 C 8.74023 -6.15234 32.4707 17.5781 61.5234 17.5781 Z M 39.7949 -16.2598 C 37.207 -16.2598 35.1562 -18.0664 35.1562 -20.9473 C 35.1562 -22.7539 35.791 -24.3164 37.5 -26.2695 L 46.0449 -36.3281 C 48.3398 -39.0137 50.0488 -40.7715 50.0488 -43.0176 C 50.0488 -44.873 48.4863 -46.2891 46.3867 -46.2891 C 44.5312 -46.2891 43.0664 -45.166 42.5293 -43.2129 C 41.9434 -41.5039 40.7227 -40.2344 38.4277 -40.2344 C 35.9863 -40.2344 34.4238 -41.9434 34.4238 -44.3359 C 34.4238 -45.2148 34.5703 -45.9473 34.7656 -46.7285 C 36.1816 -51.709 41.0156 -55.0293 46.6797 -55.0293 C 54.0039 -55.0293 58.4473 -50.3906 58.5449 -43.8477 C 58.5938 -39.502 56.5918 -36.084 52.7832 -31.7383 L 47.5586 -25.6348 L 47.5586 -25.1953 L 55.1758 -25.1953 C 58.0078 -25.1953 59.7168 -23.584 59.7168 -20.8496 C 59.7168 -17.9688 58.0078 -16.2598 55.1758 -16.2598 Z M 81.7383 -15.5273 C 79.1992 -15.5273 77.5391 -17.2363 77.5391 -19.7266 L 77.5391 -22.9492 L 68.0664 -22.9492 C 64.2578 -22.9492 62.3047 -25.0488 62.3047 -28.6621 C 62.3047 -30.8594 62.8418 -32.8613 63.5742 -34.7656 C 65.0391 -38.5742 67.9199 -44.9707 70.3125 -49.5117 C 72.2168 -53.2715 74.707 -55.0293 78.9551 -55.0293 C 83.6914 -55.0293 85.9863 -52.2461 85.9863 -47.6562 L 85.9863 -31.1035 L 86.9629 -31.1035 C 89.4043 -31.1035 90.7715 -29.4434 90.7715 -26.9531 C 90.7715 -24.5117 89.4043 -23.0469 86.9629 -23.0469 L 85.9863 -23.0469 L 85.9863 -19.7266 C 85.9863 -17.2363 84.3262 -15.5273 81.7383 -15.5273 Z M 77.5391 -31.0059 L 77.5391 -46.0938 L 77.3438 -46.0938 C 75.4395 -41.7969 72.7051 -34.7656 71.2891 -31.2012 L 71.2891 -31.0059 Z"/>
  </g>
  <g id="Bold-M" transform="matrix(1 0 0 1 2279.5 1126)">
   <path d="M 60.498 16.5039 C 88.8672 16.5039 112.207 -6.78711 112.207 -35.2051 C 112.207 -63.623 88.8672 -86.9629 60.4492 -86.9629 C 32.0312 -86.9629 8.74023 -63.623 8.74023 -35.2051 C 8.74023 -6.78711 32.0801 16.5039 60.498 16.5039 Z M 37.1582 -15.625 C 34.8145 -15.625 33.0566 -17.1875 33.0566 -19.7266 C 33.0566 -21.2402 33.5938 -22.5586 34.9609 -24.1211 L 45.2637 -36.2305 C 47.6074 -39.0137 49.6582 -41.1133 49.6582 -43.7012 C 49.6582 -46.2402 47.7051 -48.0957 44.9219 -48.0957 C 42.4316 -48.0957 40.5762 -46.6797 39.7461 -44.0918 C 39.1113 -42.4316 38.0859 -41.3086 36.0352 -41.3086 C 33.8379 -41.3086 32.4707 -42.8223 32.4707 -45.0195 C 32.4707 -45.8496 32.5684 -46.4844 32.7637 -47.2656 C 34.1309 -52.2949 39.1602 -55.8105 45.0195 -55.8105 C 52.5879 -55.8105 57.2754 -51.1719 57.3242 -44.4824 C 57.373 -39.8438 55.0781 -36.377 51.2695 -31.9824 L 44.3848 -23.9746 L 44.3848 -23.5352 L 54.541 -23.5352 C 56.9336 -23.5352 58.4961 -22.0703 58.4961 -19.6289 C 58.4961 -17.1387 56.9336 -15.625 54.541 -15.625 Z M 82.0312 -14.7461 C 79.6387 -14.7461 78.1738 -16.3574 78.1738 -18.6523 L 78.1738 -22.8516 L 66.8457 -22.8516 C 63.4277 -22.8516 61.5234 -24.8047 61.5234 -28.125 C 61.5234 -30.0293 62.0117 -31.7383 62.7441 -33.5449 C 64.9414 -38.1836 68.6035 -45.4102 71.6309 -50.8789 C 73.4375 -54.2969 75.7324 -55.8105 79.4922 -55.8105 C 83.6426 -55.8105 85.8887 -53.3203 85.8887 -49.3164 L 85.8887 -30.1758 L 87.5 -30.1758 C 89.6973 -30.1758 90.9668 -28.7598 90.9668 -26.5137 C 90.9668 -24.2676 89.6973 -22.9492 87.5 -22.9492 L 85.8887 -22.9492 L 85.8887 -18.6523 C 85.8887 -16.3574 84.4238 -14.7461 82.0312 -14.7461 Z M 78.1738 -30.127 L 78.1738 -47.6074 L 77.9785 -47.6074 C 75.3418 -42.3828 71.7285 -34.668 69.7266 -30.3223 L 69.7266 -30.127 Z"/>
  </g>
  <g id="Semibold-M" transform="matrix(1 0 0 1 1983.5 1126)">
   <path d="M 59.7656 15.8203 C 87.7441 15.8203 110.791 -7.22656 110.791 -35.2051 C 110.791 -63.1836 87.6953 -86.2793 59.7656 -86.2793 C 31.7871 -86.2793 8.74023 -63.1836 8.74023 -35.2051 C 8.74023 -7.22656 31.7871 15.8203 59.7656 15.8203 Z M 35.3027 -15.1367 C 33.1543 -15.1367 31.6406 -16.6016 31.6406 -18.8477 C 31.6406 -20.166 32.0801 -21.3379 33.252 -22.6562 L 44.7266 -36.1816 C 47.1191 -38.9648 49.3652 -41.3574 49.3652 -44.1895 C 49.3652 -47.2168 47.168 -49.3164 43.8477 -49.3164 C 40.9668 -49.3164 38.8184 -47.7051 37.8418 -44.6777 C 37.207 -43.0664 36.2793 -42.041 34.4238 -42.041 C 32.373 -42.041 31.1035 -43.457 31.1035 -45.5078 C 31.1035 -46.2402 31.2012 -46.875 31.3965 -47.6074 C 32.7148 -52.7344 37.8906 -56.3965 43.8477 -56.3965 C 51.5625 -56.3965 56.4941 -51.7578 56.4941 -44.9219 C 56.543 -40.1367 54.0527 -36.5234 50.2441 -32.1289 L 42.1875 -22.8027 L 42.1875 -22.3633 L 54.1016 -22.3633 C 56.2012 -22.3633 57.6172 -21.0449 57.6172 -18.8477 C 57.6172 -16.5527 56.2012 -15.1367 54.1016 -15.1367 Z M 82.1777 -14.209 C 79.9805 -14.209 78.6621 -15.7715 78.6621 -17.9688 L 78.6621 -22.8027 L 66.0156 -22.8027 C 62.8906 -22.8027 61.0352 -24.6094 61.0352 -27.7344 C 61.0352 -29.4922 61.4258 -30.957 62.207 -32.7148 C 64.8438 -37.8906 69.043 -45.7031 72.5586 -51.8066 C 74.3164 -55.0293 76.416 -56.3965 79.9316 -56.3965 C 83.6426 -56.3965 85.791 -54.1016 85.791 -50.4883 L 85.791 -29.541 L 87.8418 -29.541 C 89.8926 -29.541 91.1133 -28.2715 91.1133 -26.1719 C 91.1133 -24.0723 89.8926 -22.8516 87.8418 -22.8516 L 85.791 -22.8516 L 85.791 -17.9688 C 85.791 -15.7227 84.4727 -14.209 82.1777 -14.209 Z M 78.6621 -29.541 L 78.6621 -48.6328 L 78.418 -48.6328 C 75.2441 -42.7734 71.0449 -34.6191 68.7012 -29.7363 L 68.7012 -29.541 Z"/>
  </g>
  <g id="Medium-M" transform="matrix(1 0 0 1 1687.3 1126)">
   <path d="M 59.2285 15.2832 C 86.9141 15.2832 109.766 -7.56836 109.766 -35.2051 C 109.766 -62.8906 86.8652 -85.7422 59.1797 -85.7422 C 31.543 -85.7422 8.74023 -62.8906 8.74023 -35.2051 C 8.74023 -7.56836 31.5918 15.2832 59.2285 15.2832 Z M 33.9355 -14.7949 C 31.8848 -14.7949 30.5176 -16.1133 30.5176 -18.2129 C 30.5176 -19.3848 30.9082 -20.459 31.9336 -21.582 L 44.2871 -36.1328 C 46.7285 -38.9648 49.1699 -41.5039 49.1699 -44.5801 C 49.1699 -47.9492 46.7285 -50.2441 43.0664 -50.2441 C 39.8438 -50.2441 37.5 -48.5352 36.377 -45.1172 C 35.7422 -43.5547 34.8633 -42.5781 33.1543 -42.5781 C 31.25 -42.5781 30.0781 -43.8965 30.0781 -45.8984 C 30.0781 -46.582 30.1758 -47.2168 30.3223 -47.8516 C 31.6406 -53.0273 36.9141 -56.7871 42.9688 -56.7871 C 50.8301 -56.7871 55.8594 -52.1973 55.8594 -45.2148 C 55.9082 -40.2832 53.2715 -36.6699 49.4629 -32.2754 L 40.5762 -21.875 L 40.5762 -21.4844 L 53.7598 -21.4844 C 55.6641 -21.4844 56.9824 -20.3125 56.9824 -18.2129 C 56.9824 -16.1133 55.6641 -14.7949 53.7598 -14.7949 Z M 82.3242 -13.7695 C 80.2246 -13.7695 79.0039 -15.332 79.0039 -17.4316 L 79.0039 -22.8027 L 65.3809 -22.8027 C 62.4512 -22.8027 60.6445 -24.5117 60.6445 -27.4902 C 60.6445 -29.0527 60.9863 -30.3711 61.8164 -32.0312 C 64.7949 -37.6465 69.4336 -45.8984 73.2422 -52.4902 C 74.9512 -55.5176 76.9531 -56.7871 80.2246 -56.7871 C 83.5938 -56.7871 85.7422 -54.6875 85.7422 -51.3672 L 85.7422 -29.1016 L 88.0859 -29.1016 C 90.0391 -29.1016 91.2109 -27.8809 91.2109 -25.9277 C 91.2109 -23.9746 90.0391 -22.8027 88.0859 -22.8027 L 85.7422 -22.8027 L 85.7422 -17.4316 C 85.7422 -15.2832 84.5703 -13.7695 82.3242 -13.7695 Z M 79.0039 -29.0527 L 79.0039 -49.4141 L 78.7598 -49.4141 C 75.1953 -43.0664 70.5078 -34.5703 67.8711 -29.2969 L 67.8711 -29.0527 Z"/>
  </g>
  <g id="Regular-M" transform="matrix(1 0 0 1 1391.3 1126)">
   <path d="M 58.5449 14.5508 C 85.791 14.5508 108.35 -8.00781 108.35 -35.2539 C 108.35 -62.4512 85.7422 -85.0586 58.4961 -85.0586 C 31.2988 -85.0586 8.74023 -62.4512 8.74023 -35.2539 C 8.74023 -8.00781 31.3477 14.5508 58.5449 14.5508 Z M 32.1289 -14.3555 C 30.2734 -14.3555 29.1016 -15.5273 29.1016 -17.3828 C 29.1016 -18.3594 29.4434 -19.2383 30.2246 -20.1172 L 43.75 -36.0352 C 46.1914 -38.916 48.877 -41.748 48.877 -45.0684 C 48.877 -48.877 46.1914 -51.4648 42.041 -51.4648 C 38.3789 -51.4648 35.791 -49.5605 34.5215 -45.7031 C 33.7891 -44.1895 33.0566 -43.3105 31.543 -43.3105 C 29.7852 -43.3105 28.7109 -44.5312 28.7109 -46.3867 C 28.7109 -46.9727 28.8574 -47.6074 28.9551 -48.1934 C 30.2734 -53.4668 35.6934 -57.3242 41.7969 -57.3242 C 49.8535 -57.3242 55.0781 -52.7344 55.0781 -45.6543 C 55.0781 -40.5762 52.2461 -36.8164 48.4375 -32.4219 L 38.3789 -20.752 L 38.3789 -20.3613 L 53.3203 -20.3613 C 54.9316 -20.3613 56.1523 -19.2871 56.1523 -17.3828 C 56.1523 -15.5273 54.9316 -14.3555 53.3203 -14.3555 Z M 82.5195 -13.2324 C 80.5176 -13.2324 79.4434 -14.6973 79.4434 -16.6992 L 79.4434 -22.7539 L 64.502 -22.7539 C 61.8652 -22.7539 60.1074 -24.3164 60.1074 -27.0996 C 60.1074 -28.5156 60.4004 -29.6387 61.2305 -31.2012 C 64.6973 -37.3535 69.873 -46.1914 74.1699 -53.418 C 75.8301 -56.25 77.6367 -57.3242 80.6152 -57.3242 C 83.5938 -57.3242 85.6934 -55.4199 85.6934 -52.5391 L 85.6934 -28.4668 L 88.4766 -28.4668 C 90.2344 -28.4668 91.3574 -27.3926 91.3574 -25.5859 C 91.3574 -23.7793 90.2344 -22.7539 88.4766 -22.7539 L 85.6934 -22.7539 L 85.6934 -16.6992 C 85.6934 -14.6484 84.6191 -13.2324 82.5195 -13.2324 Z M 79.4434 -28.4668 L 79.4434 -50.4395 L 79.1992 -50.4395 C 75.1465 -43.457 69.8242 -34.4727 66.8457 -28.7109 L 66.8457 -28.4668 Z"/>
  </g>
  <g id="Light-M" transform="matrix(1 0 0 1 1095.42 1126)">
   <path d="M 57.7148 13.7695 C 84.5215 13.7695 106.689 -8.39844 106.689 -35.2051 C 106.689 -62.0117 84.5215 -84.1797 57.666 -84.1797 C 30.8594 -84.1797 8.74023 -62.0117 8.74023 -35.2051 C 8.74023 -8.39844 30.9082 13.7695 57.7148 13.7695 Z M 31.3965 -14.4531 C 29.834 -14.4531 28.8574 -15.4297 28.8574 -16.9434 C 28.8574 -17.8223 29.1016 -18.5059 29.7363 -19.1895 L 43.9941 -35.8398 C 46.7773 -39.1113 49.0723 -41.8945 49.0723 -45.2637 C 49.0723 -49.5117 46.0449 -52.2949 41.3086 -52.2949 C 37.0117 -52.2949 33.8867 -49.8047 32.9102 -45.6543 C 32.4707 -44.3848 31.7871 -43.6035 30.5176 -43.6035 C 29.0527 -43.6035 28.1738 -44.6289 28.1738 -46.1426 C 28.1738 -46.6797 28.2715 -47.168 28.3691 -47.8027 C 29.4922 -53.125 34.9121 -57.0801 41.1621 -57.0801 C 48.9746 -57.0801 54.1016 -52.5879 54.1016 -45.6055 C 54.1016 -40.918 51.5625 -37.3047 47.4609 -32.5684 L 36.3281 -19.5801 L 36.3281 -19.3359 L 52.9297 -19.3359 C 54.248 -19.3359 55.2246 -18.4082 55.2246 -16.8945 C 55.2246 -15.4297 54.248 -14.4531 52.9297 -14.4531 Z M 81.7383 -13.623 C 80.1758 -13.623 79.248 -14.7461 79.248 -16.3574 L 79.248 -23.4375 L 63.2324 -23.4375 C 61.0352 -23.4375 59.5215 -24.707 59.5215 -27.002 C 59.5215 -28.0762 59.8145 -29.0527 60.4492 -30.2246 C 64.0625 -36.2793 70.752 -47.1191 75 -53.9062 C 76.3672 -56.2012 77.8809 -57.0801 80.2246 -57.0801 C 82.6172 -57.0801 84.2773 -55.5176 84.2773 -53.1738 L 84.2773 -28.0762 L 88.0859 -28.0762 C 89.4531 -28.0762 90.3809 -27.1973 90.3809 -25.7324 C 90.3809 -24.2676 89.502 -23.4375 88.0859 -23.4375 L 84.2773 -23.4375 L 84.2773 -16.3574 C 84.2773 -14.6973 83.3984 -13.623 81.7383 -13.623 Z M 79.248 -28.0762 L 79.248 -51.4648 L 79.0527 -51.4648 C 75.293 -45.3125 67.9688 -33.6426 64.9902 -28.2715 L 64.9902 -28.0762 Z"/>
  </g>
  <g id="Thin-M" transform="matrix(1 0 0 1 799.806 1126)">
   <path d="M 56.6406 12.7441 C 82.9102 12.7441 104.492 -8.83789 104.492 -35.1562 C 104.492 -61.4746 82.9102 -83.0566 56.5918 -83.0566 C 30.3223 -83.0566 8.74023 -61.4746 8.74023 -35.1562 C 8.74023 -8.83789 30.3223 12.7441 56.6406 12.7441 Z M 30.3711 -14.5508 C 29.248 -14.5508 28.5156 -15.2832 28.5156 -16.4062 C 28.5156 -17.0898 28.7109 -17.5293 29.1016 -18.0176 L 44.2383 -35.5957 C 47.4609 -39.3555 49.2676 -42.1387 49.2676 -45.5078 C 49.2676 -50.293 45.8496 -53.3691 40.332 -53.3691 C 35.1562 -53.3691 31.3477 -50.1953 30.8594 -45.6055 C 30.6641 -44.6289 30.0781 -44.043 29.1016 -44.043 C 28.0273 -44.043 27.3926 -44.7754 27.3926 -45.8008 C 27.3926 -46.2891 27.4902 -46.6797 27.5391 -47.2168 C 28.5156 -52.7344 33.9355 -56.6895 40.2832 -56.6895 C 47.8027 -56.6895 52.7832 -52.3438 52.7832 -45.5566 C 52.7832 -41.4551 50.6836 -37.9395 46.1914 -32.7637 L 33.5938 -18.0664 L 33.5938 -17.9199 L 52.3926 -17.9199 C 53.3691 -17.9199 54.0039 -17.2363 54.0039 -16.2598 C 54.0039 -15.332 53.3691 -14.5508 52.3926 -14.5508 Z M 80.7129 -14.1113 C 79.7363 -14.1113 79.0527 -14.7949 79.0527 -15.8691 L 79.0527 -24.3652 L 61.5234 -24.3652 C 59.8633 -24.3652 58.7891 -25.1953 58.7891 -26.8066 C 58.7891 -27.5391 59.0332 -28.2715 59.4238 -28.9551 C 63.2324 -34.8633 71.9238 -48.291 76.0742 -54.5898 C 77.1484 -56.1523 78.1738 -56.6895 79.7363 -56.6895 C 81.2988 -56.6895 82.4219 -55.7129 82.4219 -54.1016 L 82.4219 -27.5879 L 87.5488 -27.5879 C 88.4766 -27.5879 89.1113 -26.8555 89.1113 -25.9277 C 89.1113 -24.9512 88.5254 -24.3652 87.5488 -24.3652 L 82.4219 -24.3652 L 82.4219 -15.8691 C 82.4219 -14.7949 81.8359 -14.1113 80.7129 -14.1113 Z M 79.0527 -27.5879 L 79.0527 -52.832 L 78.8574 -52.832 C 75.4883 -47.7051 65.4297 -32.5684 62.5977 -27.7344 L 62.5977 -27.5879 Z"/>
  </g>
  <g id="Ultralight-M" transform="matrix(1 0 0 1 503.656 1126)">
   <path d="M 56.0547 12.207 C 82.0801 12.207 103.369 -9.08203 103.369 -35.1562 C 103.369 -61.1816 82.0801 -82.4707 56.0547 -82.4707 C 30.0293 -82.4707 8.74023 -61.1816 8.74023 -35.1562 C 8.74023 -9.08203 30.0293 12.207 56.0547 12.207 Z M 29.8828 -14.6484 C 28.9551 -14.6484 28.3691 -15.1855 28.3691 -16.1133 C 28.3691 -16.6992 28.4668 -17.041 28.7598 -17.3828 L 44.3848 -35.4492 C 47.8516 -39.502 49.3652 -42.2363 49.3652 -45.6055 C 49.3652 -50.6836 45.752 -53.9551 39.8438 -53.9551 C 34.2285 -53.9551 30.0781 -50.3418 29.7852 -45.6055 C 29.7363 -44.7266 29.248 -44.2383 28.3691 -44.2383 C 27.5391 -44.2383 27.0508 -44.873 27.0508 -45.6543 C 27.0508 -46.0938 27.0996 -46.3867 27.1484 -46.9727 C 28.0273 -52.4902 33.4473 -56.4941 39.8438 -56.4941 C 47.2168 -56.4941 52.1484 -52.1973 52.1484 -45.5566 C 52.1484 -41.6992 50.1953 -38.2812 45.5078 -32.8613 L 32.1777 -17.334 L 32.1777 -17.1875 L 52.0996 -17.1875 C 52.8809 -17.1875 53.3691 -16.6504 53.3691 -15.918 C 53.3691 -15.2344 52.8809 -14.6484 52.0996 -14.6484 Z M 80.1758 -14.3555 C 79.541 -14.3555 78.9062 -14.8438 78.9062 -15.625 L 78.9062 -24.8047 L 60.6445 -24.8047 C 59.2773 -24.8047 58.3984 -25.4395 58.3984 -26.709 C 58.3984 -27.2461 58.6426 -27.8809 58.8867 -28.2715 C 62.793 -34.1309 72.5586 -48.877 76.6602 -54.9316 C 77.5391 -56.1523 78.3203 -56.4941 79.4434 -56.4941 C 80.6152 -56.4941 81.4453 -55.7617 81.4453 -54.541 L 81.4453 -27.3438 L 87.3047 -27.3438 C 87.9883 -27.3438 88.4766 -26.709 88.4766 -26.0254 C 88.4766 -25.293 88.0371 -24.8047 87.3047 -24.8047 L 81.4453 -24.8047 L 81.4453 -15.625 C 81.4453 -14.8438 81.0547 -14.3555 80.1758 -14.3555 Z M 78.9062 -27.3438 L 78.9062 -53.5156 L 78.8086 -53.5156 C 75.6348 -48.9258 64.1602 -32.0312 61.377 -27.4414 L 61.377 -27.3438 Z"/>
  </g>
  <g id="Black-S" transform="matrix(1 0 0 1 2884.57 696)">
   <path d="M 48.8281 6.78711 C 71.9727 6.78711 90.8203 -12.0605 90.8203 -35.2051 C 90.8203 -58.3496 71.9727 -77.1973 48.8281 -77.1973 C 25.6836 -77.1973 6.83594 -58.3496 6.83594 -35.2051 C 6.83594 -12.0605 25.6836 6.78711 48.8281 6.78711 Z M 32.8613 -20.8008 C 30.6641 -20.8008 28.8574 -22.3145 28.8574 -24.8047 C 28.8574 -26.416 29.3945 -27.7832 30.957 -29.541 L 36.5723 -36.1816 C 38.3301 -38.2324 39.4531 -39.3555 39.4531 -40.8691 C 39.4531 -41.8945 38.4766 -42.7734 37.3047 -42.7734 C 36.2305 -42.7734 35.3516 -42.041 35.0586 -40.9668 C 34.6191 -39.5508 33.5938 -38.4766 31.5918 -38.4766 C 29.541 -38.4766 28.2227 -39.9414 28.2227 -41.8945 C 28.2227 -42.6758 28.3203 -43.2617 28.5156 -43.9453 C 29.6387 -47.7539 33.3008 -50.2441 37.6465 -50.2441 C 43.2129 -50.2441 46.5332 -46.582 46.6309 -41.6016 C 46.6797 -38.3301 45.2637 -35.7422 42.2852 -32.3242 L 39.2578 -28.8086 L 39.2578 -28.418 L 43.6035 -28.418 C 46.0938 -28.418 47.5586 -27.0508 47.5586 -24.707 C 47.5586 -22.2168 46.0938 -20.8008 43.6035 -20.8008 Z M 63.8672 -20.2637 C 61.7676 -20.2637 60.3027 -21.6797 60.3027 -23.7305 L 60.3027 -25.6348 L 54.1016 -25.6348 C 50.8789 -25.6348 49.2676 -27.3926 49.2676 -30.4199 C 49.2676 -32.3242 49.7559 -34.082 50.293 -35.6445 C 51.0254 -38.1348 52.7832 -42.5781 54.1992 -45.5566 C 55.7617 -48.7305 57.8613 -50.2441 61.4746 -50.2441 C 65.5762 -50.2441 67.4316 -47.8516 67.4316 -43.8965 L 67.4316 -32.5684 L 67.8223 -32.5684 C 69.873 -32.5684 70.9961 -31.1523 70.9961 -29.0527 C 70.9961 -27.002 69.873 -25.7324 67.8223 -25.7324 L 67.4316 -25.7324 L 67.4316 -23.7305 C 67.4316 -21.6797 66.0156 -20.2637 63.8672 -20.2637 Z M 60.3027 -32.4707 L 60.3027 -42.7734 L 60.2051 -42.7734 C 59.1797 -39.9902 57.6172 -34.9609 56.8359 -32.6172 L 56.8359 -32.4707 Z"/>
  </g>
  <g id="Heavy-S" transform="matrix(1 0 0 1 2588.47 696)">
   <path d="M 48.2422 6.15234 C 70.9961 6.15234 89.5996 -12.4512 89.5996 -35.2051 C 89.5996 -57.959 70.9961 -76.6113 48.1934 -76.6113 C 25.4395 -76.6113 6.83594 -57.959 6.83594 -35.2051 C 6.83594 -12.4512 25.4395 6.15234 48.2422 6.15234 Z M 31.1523 -20.3125 C 29.0527 -20.3125 27.4414 -21.7285 27.4414 -24.0234 C 27.4414 -25.4395 27.9297 -26.6602 29.2969 -28.1738 L 35.9863 -36.1328 C 37.7441 -38.1836 39.1602 -39.5508 39.1602 -41.3574 C 39.1602 -42.7734 37.9395 -43.8965 36.377 -43.8965 C 34.9121 -43.8965 33.8379 -43.0664 33.3496 -41.5527 C 32.8613 -40.1855 31.9336 -39.1602 30.0781 -39.1602 C 28.1738 -39.1602 26.9531 -40.5273 26.9531 -42.4316 C 26.9531 -43.1152 27.0508 -43.7012 27.1973 -44.3359 C 28.3203 -48.1934 32.1289 -50.8301 36.5723 -50.8301 C 42.334 -50.8301 45.8496 -47.168 45.8984 -42.041 C 45.9473 -38.5254 44.3359 -35.8398 41.3574 -32.4707 L 37.3047 -27.7832 L 37.3047 -27.3926 L 43.2129 -27.3926 C 45.459 -27.3926 46.8262 -26.123 46.8262 -23.9746 C 46.8262 -21.6797 45.459 -20.3125 43.2129 -20.3125 Z M 64.1602 -19.6777 C 62.1094 -19.6777 60.791 -21.0938 60.791 -23.0469 L 60.791 -25.4883 L 53.418 -25.4883 C 50.3906 -25.4883 48.8281 -27.1973 48.8281 -30.0781 C 48.8281 -31.8359 49.2676 -33.3984 49.8535 -34.9121 C 51.0254 -37.9883 53.125 -42.7734 55.0293 -46.4355 C 56.543 -49.4141 58.5449 -50.8301 61.9141 -50.8301 C 65.6738 -50.8301 67.5293 -48.584 67.5293 -44.9707 L 67.5293 -31.9824 L 68.2129 -31.9824 C 70.166 -31.9824 71.2402 -30.7129 71.2402 -28.7109 C 71.2402 -26.7578 70.166 -25.5859 68.2129 -25.5859 L 67.5293 -25.5859 L 67.5293 -23.0469 C 67.5293 -21.0938 66.2109 -19.6777 64.1602 -19.6777 Z M 60.791 -31.9336 L 60.791 -43.7012 L 60.6445 -43.7012 C 59.082 -40.1855 57.1289 -34.9609 56.0059 -32.0801 L 56.0059 -31.9336 Z"/>
  </g>
  <g id="Bold-S" transform="matrix(1 0 0 1 2292.44 696)">
   <path d="M 47.5586 5.46875 C 69.873 5.46875 88.2324 -12.8906 88.2324 -35.2051 C 88.2324 -57.5684 69.873 -75.9277 47.5098 -75.9277 C 25.1953 -75.9277 6.83594 -57.5684 6.83594 -35.2051 C 6.83594 -12.8906 25.1953 5.46875 47.5586 5.46875 Z M 29.1992 -19.8242 C 27.2949 -19.8242 25.8789 -21.0938 25.8789 -23.1445 C 25.8789 -24.3652 26.3184 -25.4395 27.4414 -26.709 L 35.3516 -36.084 C 37.1094 -38.1348 38.8184 -39.7949 38.8184 -41.8457 C 38.8184 -43.75 37.3535 -45.166 35.3027 -45.166 C 33.4961 -45.166 32.1289 -44.1895 31.4453 -42.1875 C 30.8594 -40.8691 30.0293 -39.9414 28.418 -39.9414 C 26.6113 -39.9414 25.4883 -41.2109 25.4883 -43.0176 C 25.4883 -43.6523 25.5859 -44.1895 25.7324 -44.7754 C 26.8555 -48.7305 30.8105 -51.4648 35.3516 -51.4648 C 41.3574 -51.4648 45.0684 -47.8027 45.1172 -42.4805 C 45.1172 -38.7695 43.2617 -35.9863 40.332 -32.666 L 35.1562 -26.6113 L 35.1562 -26.2695 L 42.7734 -26.2695 C 44.7266 -26.2695 45.9961 -25.0977 45.9961 -23.0957 C 45.9961 -21.0449 44.7266 -19.8242 42.7734 -19.8242 Z M 64.4531 -19.043 C 62.5 -19.043 61.3281 -20.4102 61.3281 -22.3145 L 61.3281 -25.3906 L 52.6367 -25.3906 C 49.9023 -25.3906 48.3398 -26.9531 48.3398 -29.6875 C 48.3398 -31.25 48.6816 -32.6172 49.3164 -34.082 C 51.0254 -37.793 53.5156 -42.9688 55.957 -47.4121 C 57.4219 -50.1953 59.2773 -51.4648 62.4023 -51.4648 C 65.7715 -51.4648 67.627 -49.4141 67.627 -46.1914 L 67.627 -31.3477 L 68.6523 -31.3477 C 70.459 -31.3477 71.4844 -30.1758 71.4844 -28.3203 C 71.4844 -26.5137 70.459 -25.4395 68.6523 -25.4395 L 67.627 -25.4395 L 67.627 -22.3145 C 67.627 -20.4102 66.4551 -19.043 64.4531 -19.043 Z M 61.3281 -31.2988 L 61.3281 -44.7266 L 61.1328 -44.7266 C 58.9844 -40.3809 56.6406 -35.0098 55.0293 -31.4453 L 55.0293 -31.2988 Z"/>
  </g>
  <g id="Semibold-S" transform="matrix(1 0 0 1 1996.2 696)">
   <path d="M 47.0703 4.98047 C 69.0918 4.98047 87.3047 -13.1836 87.3047 -35.2539 C 87.3047 -57.2754 69.0918 -75.4883 47.0215 -75.4883 C 25 -75.4883 6.83594 -57.2754 6.83594 -35.2539 C 6.83594 -13.1836 25.0488 4.98047 47.0703 4.98047 Z M 27.832 -19.4336 C 26.0742 -19.4336 24.8047 -20.6543 24.8047 -22.5098 C 24.8047 -23.584 25.1465 -24.5605 26.123 -25.6348 L 34.9121 -36.0352 C 36.6699 -38.0859 38.623 -39.9902 38.623 -42.2363 C 38.623 -44.4336 36.9629 -46.0449 34.5703 -46.0449 C 32.4707 -46.0449 31.0059 -44.9707 30.0781 -42.6758 C 29.4922 -41.3574 28.7598 -40.4785 27.2461 -40.4785 C 25.5859 -40.4785 24.5117 -41.6504 24.5117 -43.4082 C 24.5117 -43.9941 24.6094 -44.5312 24.707 -45.0684 C 25.8301 -49.0723 29.8828 -51.9043 34.5215 -51.9043 C 40.6738 -51.9043 44.5312 -48.2422 44.5801 -42.8223 C 44.5801 -38.916 42.5293 -36.084 39.6484 -32.7637 L 33.6914 -25.8301 L 33.6914 -25.4883 L 42.4805 -25.4883 C 44.2383 -25.4883 45.4102 -24.4141 45.4102 -22.5098 C 45.4102 -20.6055 44.2383 -19.4336 42.4805 -19.4336 Z M 64.6484 -18.6035 C 62.7441 -18.6035 61.6699 -19.9707 61.6699 -21.7773 L 61.6699 -25.293 L 52.0996 -25.293 C 49.5117 -25.293 47.998 -26.8066 47.998 -29.3945 C 47.998 -30.8594 48.291 -32.0801 48.9746 -33.5449 C 50.9766 -37.6465 53.8086 -43.1152 56.5918 -48.0957 C 58.0566 -50.7812 59.8145 -51.9043 62.7441 -51.9043 C 65.8203 -51.9043 67.6758 -50 67.6758 -47.0215 L 67.6758 -30.9082 L 68.9453 -30.9082 C 70.6543 -30.9082 71.6797 -29.834 71.6797 -28.0762 C 71.6797 -26.3184 70.6543 -25.293 68.9453 -25.293 L 67.6758 -25.293 L 67.6758 -21.7773 C 67.6758 -19.9219 66.6016 -18.6035 64.6484 -18.6035 Z M 61.6699 -30.8594 L 61.6699 -45.4102 L 61.4746 -45.4102 C 58.8867 -40.5273 56.25 -35.0098 54.3945 -31.0547 L 54.3945 -30.8594 Z"/>
  </g>
  <g id="Medium-S" transform="matrix(1 0 0 1 1699.83 696)">
   <path d="M 46.7285 4.63867 C 68.5547 4.63867 86.6211 -13.4277 86.6211 -35.2539 C 86.6211 -57.0312 68.5059 -75.1465 46.6797 -75.1465 C 24.8535 -75.1465 6.83594 -57.0312 6.83594 -35.2539 C 6.83594 -13.4277 24.9023 4.63867 46.7285 4.63867 Z M 26.8555 -19.1895 C 25.1465 -19.1895 23.9746 -20.3125 23.9746 -22.0703 C 23.9746 -23.0469 24.3164 -23.9258 25.1465 -24.8535 L 34.6191 -35.9863 C 36.377 -38.0371 38.4277 -40.0879 38.4277 -42.4805 C 38.4277 -44.9707 36.6699 -46.6797 34.0332 -46.6797 C 31.7383 -46.6797 30.127 -45.5566 29.1016 -43.0176 C 28.4668 -41.6992 27.7832 -40.8691 26.3672 -40.8691 C 24.7559 -40.8691 23.7305 -41.9922 23.7305 -43.7012 C 23.7305 -44.2383 23.8281 -44.7754 23.9746 -45.3125 C 25.0488 -49.3164 29.1992 -52.2461 33.8867 -52.2461 C 40.1367 -52.2461 44.1406 -48.584 44.1406 -43.0664 C 44.1406 -39.0625 41.9922 -36.1816 39.1113 -32.8613 L 32.5684 -25.2441 L 32.5684 -24.9023 L 42.2852 -24.9023 C 43.8477 -24.9023 45.0195 -23.877 45.0195 -22.0703 C 45.0195 -20.2637 43.8477 -19.1895 42.2852 -19.1895 Z M 64.7949 -18.2617 C 62.9883 -18.2617 61.9629 -19.5801 61.9629 -21.3867 L 61.9629 -25.1953 L 51.709 -25.1953 C 49.2676 -25.1953 47.7051 -26.6602 47.7051 -29.1992 C 47.7051 -30.5664 47.998 -31.6406 48.7305 -33.1055 C 50.9766 -37.5488 54.0039 -43.2617 57.0801 -48.584 C 58.4961 -51.1719 60.2051 -52.2461 62.9883 -52.2461 C 65.8691 -52.2461 67.7246 -50.4395 67.7246 -47.6074 L 67.7246 -30.5664 L 69.1895 -30.5664 C 70.8008 -30.5664 71.8262 -29.541 71.8262 -27.8809 C 71.8262 -26.1719 70.8008 -25.2441 69.1895 -25.2441 L 67.7246 -25.2441 L 67.7246 -21.3867 C 67.7246 -19.5801 66.6992 -18.2617 64.7949 -18.2617 Z M 61.9629 -30.5176 L 61.9629 -45.9473 L 61.7676 -45.9473 C 58.8379 -40.6738 55.957 -35.0098 53.8574 -30.7129 L 53.8574 -30.5176 Z"/>
  </g>
  <g id="Regular-S" transform="matrix(1 0 0 1 1403.58 696)">
   <path d="M 46.2402 4.15039 C 67.7734 4.15039 85.6934 -13.7207 85.6934 -35.2539 C 85.6934 -56.7871 67.7246 -74.6582 46.1914 -74.6582 C 24.707 -74.6582 6.83594 -56.7871 6.83594 -35.2539 C 6.83594 -13.7207 24.7559 4.15039 46.2402 4.15039 Z M 25.5371 -18.7988 C 23.9258 -18.7988 22.9004 -19.873 22.9004 -21.4844 C 22.9004 -22.2656 23.1934 -23.0957 23.877 -23.8281 L 34.1797 -35.9375 C 35.9375 -38.0371 38.2324 -40.2832 38.2324 -42.8711 C 38.2324 -45.6543 36.2793 -47.5586 33.3008 -47.5586 C 30.7617 -47.5586 28.9551 -46.3379 27.7832 -43.457 C 27.1484 -42.1875 26.5137 -41.4062 25.2441 -41.4062 C 23.7305 -41.4062 22.7539 -42.4316 22.7539 -44.0918 C 22.7539 -44.5801 22.8516 -45.1172 22.9492 -45.6055 C 24.0723 -49.6582 28.3203 -52.6855 33.0566 -52.6855 C 39.4531 -52.6855 43.6035 -49.0234 43.6035 -43.4082 C 43.6035 -39.209 41.2598 -36.2793 38.4277 -32.959 L 31.0547 -24.4141 L 31.0547 -24.1211 L 41.9922 -24.1211 C 43.3594 -24.1211 44.4336 -23.1445 44.4336 -21.4844 C 44.4336 -19.873 43.3594 -18.7988 41.9922 -18.7988 Z M 65.0391 -17.8223 C 63.2324 -17.8223 62.3047 -19.1406 62.3047 -20.8984 L 62.3047 -25.0977 L 51.1719 -25.0977 C 48.877 -25.0977 47.3633 -26.5137 47.3633 -28.9551 C 47.3633 -30.1758 47.6074 -31.1035 48.3398 -32.5684 C 50.9766 -37.4512 54.2969 -43.4082 57.7148 -49.2676 C 59.1309 -51.709 60.7422 -52.6855 63.3301 -52.6855 C 65.9668 -52.6855 67.8223 -50.9766 67.8223 -48.4375 L 67.8223 -30.127 L 69.4824 -30.127 C 71.0449 -30.127 72.0215 -29.1992 72.0215 -27.5879 C 72.0215 -26.0254 71.0449 -25.0977 69.4824 -25.0977 L 67.8223 -25.0977 L 67.8223 -20.8984 C 67.8223 -19.0918 66.8457 -17.8223 65.0391 -17.8223 Z M 62.3047 -30.127 L 62.3047 -46.6309 L 62.1094 -46.6309 C 58.7891 -40.8203 55.6152 -35.0098 53.2227 -30.3223 L 53.2227 -30.127 Z"/>
  </g>
  <g id="Light-S" transform="matrix(1 0 0 1 1107.6 696)">
   <path d="M 45.5078 3.4668 C 66.6992 3.4668 84.2285 -14.0625 84.2285 -35.2051 C 84.2285 -56.3965 66.6504 -73.9258 45.5078 -73.9258 C 24.3164 -73.9258 6.83594 -56.3965 6.83594 -35.2051 C 6.83594 -14.0625 24.3652 3.4668 45.5078 3.4668 Z M 24.8535 -18.8965 C 23.5352 -18.8965 22.7051 -19.7754 22.7051 -21.0938 C 22.7051 -21.7773 22.9004 -22.4121 23.4863 -23.0469 L 34.375 -35.791 C 36.4258 -38.1836 38.3789 -40.4297 38.3789 -43.0176 C 38.3789 -46.1914 36.1328 -48.291 32.6172 -48.291 C 29.4922 -48.291 27.2461 -46.582 26.3672 -43.4082 C 25.9277 -42.334 25.3906 -41.6992 24.2676 -41.6992 C 23.0469 -41.6992 22.2656 -42.5293 22.2656 -43.8965 C 22.2656 -44.3359 22.3633 -44.7754 22.4121 -45.2148 C 23.3887 -49.3652 27.6367 -52.4414 32.4707 -52.4414 C 38.6719 -52.4414 42.7246 -48.877 42.7246 -43.3594 C 42.7246 -39.5508 40.6738 -36.6699 37.5488 -33.1055 L 29.248 -23.4375 L 29.248 -23.1445 L 41.6016 -23.1445 C 42.7734 -23.1445 43.6035 -22.3633 43.6035 -21.0449 C 43.6035 -19.7754 42.7734 -18.8965 41.6016 -18.8965 Z M 64.3066 -18.1641 C 62.9395 -18.1641 62.1582 -19.1895 62.1582 -20.5566 L 62.1582 -25.7324 L 50 -25.7324 C 48.1445 -25.7324 46.875 -26.8555 46.875 -28.8086 C 46.875 -29.7852 47.0703 -30.6152 47.6562 -31.6895 C 50.4395 -36.4746 55.0781 -44.1895 58.4473 -49.707 C 59.6191 -51.6602 60.9375 -52.4414 62.9883 -52.4414 C 65.0879 -52.4414 66.5527 -51.0742 66.5527 -49.0234 L 66.5527 -29.7852 L 69.1406 -29.7852 C 70.3613 -29.7852 71.1914 -29.0039 71.1914 -27.7344 C 71.1914 -26.4648 70.3613 -25.7324 69.1406 -25.7324 L 66.5527 -25.7324 L 66.5527 -20.5566 C 66.5527 -19.1406 65.8203 -18.1641 64.3066 -18.1641 Z M 62.1582 -29.7852 L 62.1582 -47.5586 L 61.9629 -47.5586 C 58.9355 -42.4316 53.9551 -34.3262 51.6113 -29.9316 L 51.6113 -29.7852 Z"/>
  </g>
  <g id="Thin-S" transform="matrix(1 0 0 1 811.867 696)">
   <path d="M 44.5801 2.53906 C 65.2832 2.53906 82.2754 -14.4531 82.2754 -35.2051 C 82.2754 -55.9082 65.2344 -72.9004 44.5312 -72.9004 C 23.8281 -72.9004 6.83594 -55.9082 6.83594 -35.2051 C 6.83594 -14.4531 23.877 2.53906 44.5801 2.53906 Z M 23.9746 -18.9941 C 23.0469 -18.9941 22.4121 -19.6289 22.4121 -20.6055 C 22.4121 -21.1426 22.5586 -21.5332 22.9004 -21.9727 L 34.6191 -35.5469 C 37.0605 -38.4277 38.5254 -40.5762 38.5254 -43.2129 C 38.5254 -46.875 35.9375 -49.2188 31.7871 -49.2188 C 27.8809 -49.2188 25.0488 -46.875 24.5605 -43.4082 C 24.3652 -42.5293 23.877 -42.041 23.0469 -42.041 C 22.168 -42.041 21.6309 -42.6758 21.6309 -43.6035 C 21.6309 -43.9941 21.6797 -44.2871 21.7285 -44.7266 C 22.5098 -49.0234 26.7578 -52.0996 31.7383 -52.0996 C 37.6465 -52.0996 41.6016 -48.6816 41.6016 -43.3594 C 41.6016 -39.9902 39.8438 -37.2559 36.4258 -33.252 L 26.8066 -22.0703 L 26.8066 -21.9238 L 41.1133 -21.9238 C 41.9434 -21.9238 42.5293 -21.3379 42.5293 -20.5078 C 42.5293 -19.6777 41.9434 -18.9941 41.1133 -18.9941 Z M 63.4277 -18.5547 C 62.5488 -18.5547 61.9629 -19.1895 61.9629 -20.166 L 61.9629 -26.5137 L 48.5352 -26.5137 C 47.1191 -26.5137 46.1914 -27.2461 46.1914 -28.6621 C 46.1914 -29.2969 46.3867 -29.9316 46.7285 -30.5664 C 49.707 -35.2051 56.1035 -45.2148 59.375 -50.2441 C 60.2539 -51.6602 61.1816 -52.0996 62.5488 -52.0996 C 63.916 -52.0996 64.8926 -51.2207 64.8926 -49.8535 L 64.8926 -29.3457 L 68.7012 -29.3457 C 69.4824 -29.3457 70.0684 -28.7598 70.0684 -27.9297 C 70.0684 -27.0508 69.5312 -26.5137 68.7012 -26.5137 L 64.8926 -26.5137 L 64.8926 -20.166 C 64.8926 -19.1895 64.4043 -18.5547 63.4277 -18.5547 Z M 61.9629 -29.3457 L 61.9629 -48.7305 L 61.8164 -48.7305 C 59.082 -44.5312 51.7578 -33.3496 49.5117 -29.4434 L 49.5117 -29.3457 Z"/>
  </g>
  <g id="Ultralight-S" transform="matrix(1 0 0 1 515.644 696)">
   <path d="M 44.043 2.05078 C 64.502 2.05078 81.2988 -14.6973 81.2988 -35.1562 C 81.2988 -55.6152 64.502 -72.3633 44.043 -72.3633 C 23.584 -72.3633 6.83594 -55.6152 6.83594 -35.1562 C 6.83594 -14.6973 23.584 2.05078 44.043 2.05078 Z M 23.5352 -19.0918 C 22.7539 -19.0918 22.2656 -19.5312 22.2656 -20.3125 C 22.2656 -20.8496 22.3633 -21.0938 22.6074 -21.4355 L 34.7168 -35.4492 C 37.3535 -38.5254 38.6719 -40.7227 38.6719 -43.3105 C 38.6719 -47.2168 35.8398 -49.7559 31.3477 -49.7559 C 27.0508 -49.7559 23.877 -47.0215 23.584 -43.3594 C 23.5352 -42.627 23.1445 -42.2363 22.4121 -42.2363 C 21.6797 -42.2363 21.2891 -42.7734 21.2891 -43.457 C 21.2891 -43.7988 21.3379 -44.043 21.3867 -44.4824 C 22.0703 -48.8281 26.3184 -51.9531 31.3477 -51.9531 C 37.1094 -51.9531 41.0156 -48.584 41.0156 -43.3105 C 41.0156 -40.2344 39.4531 -37.5488 35.8398 -33.3496 L 25.5859 -21.3867 L 25.5859 -21.2891 L 40.8691 -21.2891 C 41.5527 -21.2891 41.9922 -20.8008 41.9922 -20.166 C 41.9922 -19.5801 41.5527 -19.0918 40.8691 -19.0918 Z M 62.9395 -18.7988 C 62.3535 -18.7988 61.8652 -19.2383 61.8652 -19.9219 L 61.8652 -26.9531 L 47.7539 -26.9531 C 46.582 -26.9531 45.8496 -27.4902 45.8496 -28.5645 C 45.8496 -29.0527 46.0449 -29.5898 46.2402 -29.9805 C 49.3164 -34.5703 56.6406 -45.752 59.9121 -50.5859 C 60.5957 -51.6113 61.2793 -51.9531 62.3047 -51.9531 C 63.3301 -51.9531 64.0625 -51.3184 64.0625 -50.2441 L 64.0625 -29.1016 L 68.457 -29.1016 C 69.043 -29.1016 69.4824 -28.6133 69.4824 -28.0273 C 69.4824 -27.3926 69.0918 -26.9531 68.457 -26.9531 L 64.0625 -26.9531 L 64.0625 -19.9219 C 64.0625 -19.2383 63.6719 -18.7988 62.9395 -18.7988 Z M 61.8652 -29.1016 L 61.8652 -49.3652 L 61.7188 -49.3652 C 59.2285 -45.6543 50.5859 -32.8613 48.3887 -29.1992 L 48.3887 -29.1016 Z"/>
  </g>
 </g>
</svg>
