<?xml version="1.0" encoding="UTF-8"?>
<!--Generator: Apple Native CoreSVG 123-->
<!DOCTYPE svg
PUBLIC "-//W3C//DTD SVG 1.1//EN"
       "http://www.w3.org/Graphics/SVG/1.1/DTD/svg11.dtd">
<svg version="1.1" xmlns="http://www.w3.org/2000/svg" xmlns:xlink="http://www.w3.org/1999/xlink" width="3300" height="2200">
 <!--glyph: "uni100523.medium", point size: 100.000000, font version: "Version 15.0d7e11", template writer version: "5"-->
 <g id="Notes">
  <rect height="2200" id="artboard" style="fill:white;opacity:1" width="3300" x="0" y="0"/>
  <line id="" style="fill:none;stroke:black;opacity:1;stroke-width:0.5;" x1="263" x2="3036" y1="292" y2="292"/>
  <text style="stroke:none;fill:black;font-family:-apple-system,&quot;SF Pro Display&quot;,&quot;SF Pro Text&quot;,Helvetica,sans-serif;font-weight:bold;" transform="matrix(1 0 0 1 263 322)">Weight/Scale Variations</text>
  <text style="stroke:none;fill:black;font-family:-apple-system,&quot;SF Pro Display&quot;,&quot;SF Pro Text&quot;,Helvetica,sans-serif;text-anchor:middle;" transform="matrix(1 0 0 1 559.711 322)">Ultralight</text>
  <text style="stroke:none;fill:black;font-family:-apple-system,&quot;SF Pro Display&quot;,&quot;SF Pro Text&quot;,Helvetica,sans-serif;text-anchor:middle;" transform="matrix(1 0 0 1 856.422 322)">Thin</text>
  <text style="stroke:none;fill:black;font-family:-apple-system,&quot;SF Pro Display&quot;,&quot;SF Pro Text&quot;,Helvetica,sans-serif;text-anchor:middle;" transform="matrix(1 0 0 1 1153.13 322)">Light</text>
  <text style="stroke:none;fill:black;font-family:-apple-system,&quot;SF Pro Display&quot;,&quot;SF Pro Text&quot;,Helvetica,sans-serif;text-anchor:middle;" transform="matrix(1 0 0 1 1449.84 322)">Regular</text>
  <text style="stroke:none;fill:black;font-family:-apple-system,&quot;SF Pro Display&quot;,&quot;SF Pro Text&quot;,Helvetica,sans-serif;text-anchor:middle;" transform="matrix(1 0 0 1 1746.56 322)">Medium</text>
  <text style="stroke:none;fill:black;font-family:-apple-system,&quot;SF Pro Display&quot;,&quot;SF Pro Text&quot;,Helvetica,sans-serif;text-anchor:middle;" transform="matrix(1 0 0 1 2043.27 322)">Semibold</text>
  <text style="stroke:none;fill:black;font-family:-apple-system,&quot;SF Pro Display&quot;,&quot;SF Pro Text&quot;,Helvetica,sans-serif;text-anchor:middle;" transform="matrix(1 0 0 1 2339.98 322)">Bold</text>
  <text style="stroke:none;fill:black;font-family:-apple-system,&quot;SF Pro Display&quot;,&quot;SF Pro Text&quot;,Helvetica,sans-serif;text-anchor:middle;" transform="matrix(1 0 0 1 2636.69 322)">Heavy</text>
  <text style="stroke:none;fill:black;font-family:-apple-system,&quot;SF Pro Display&quot;,&quot;SF Pro Text&quot;,Helvetica,sans-serif;text-anchor:middle;" transform="matrix(1 0 0 1 2933.4 322)">Black</text>
  <line id="" style="fill:none;stroke:black;opacity:1;stroke-width:0.5;" x1="263" x2="3036" y1="1903" y2="1903"/>
  <g id="" transform="matrix(1 0 0 1 263 1933)">
   <path d="M 9.24805 0.830078 C 13.5547 0.830078 17.1387 -2.74414 17.1387 -7.05078 C 17.1387 -11.3574 13.5449 -14.9316 9.23828 -14.9316 C 4.94141 -14.9316 1.36719 -11.3574 1.36719 -7.05078 C 1.36719 -2.74414 4.95117 0.830078 9.24805 0.830078 Z M 9.24805 -0.654297 C 5.70312 -0.654297 2.87109 -3.49609 2.87109 -7.05078 C 2.87109 -10.6055 5.69336 -13.4473 9.23828 -13.4473 C 12.793 -13.4473 15.6348 -10.6055 15.6445 -7.05078 C 15.6543 -3.49609 12.8027 -0.654297 9.24805 -0.654297 Z M 9.22852 -3.42773 C 9.69727 -3.42773 9.9707 -3.74023 9.9707 -4.25781 L 9.9707 -6.31836 L 12.1973 -6.31836 C 12.6953 -6.31836 13.0371 -6.57227 13.0371 -7.04102 C 13.0371 -7.51953 12.7148 -7.7832 12.1973 -7.7832 L 9.9707 -7.7832 L 9.9707 -10.0098 C 9.9707 -10.5273 9.69727 -10.8496 9.22852 -10.8496 C 8.75977 -10.8496 8.50586 -10.5078 8.50586 -10.0098 L 8.50586 -7.7832 L 6.29883 -7.7832 C 5.78125 -7.7832 5.44922 -7.51953 5.44922 -7.04102 C 5.44922 -6.57227 5.80078 -6.31836 6.29883 -6.31836 L 8.50586 -6.31836 L 8.50586 -4.25781 C 8.50586 -3.75977 8.75977 -3.42773 9.22852 -3.42773 Z"/>
  </g>
  <g id="" transform="matrix(1 0 0 1 281.506 1933)">
   <path d="M 11.709 2.91016 C 17.1582 2.91016 21.6699 -1.60156 21.6699 -7.05078 C 21.6699 -12.4902 17.1484 -17.0117 11.6992 -17.0117 C 6.25977 -17.0117 1.74805 -12.4902 1.74805 -7.05078 C 1.74805 -1.60156 6.26953 2.91016 11.709 2.91016 Z M 11.709 1.25 C 7.09961 1.25 3.41797 -2.44141 3.41797 -7.05078 C 3.41797 -11.6504 7.08984 -15.3516 11.6992 -15.3516 C 16.3086 -15.3516 20 -11.6504 20.0098 -7.05078 C 20.0195 -2.44141 16.3184 1.25 11.709 1.25 Z M 11.6895 -2.41211 C 12.207 -2.41211 12.5195 -2.77344 12.5195 -3.33984 L 12.5195 -6.23047 L 15.5762 -6.23047 C 16.123 -6.23047 16.5039 -6.51367 16.5039 -7.03125 C 16.5039 -7.55859 16.1426 -7.86133 15.5762 -7.86133 L 12.5195 -7.86133 L 12.5195 -10.9277 C 12.5195 -11.5039 12.207 -11.8555 11.6895 -11.8555 C 11.1719 -11.8555 10.8789 -11.4844 10.8789 -10.9277 L 10.8789 -7.86133 L 7.83203 -7.86133 C 7.26562 -7.86133 6.89453 -7.55859 6.89453 -7.03125 C 6.89453 -6.51367 7.28516 -6.23047 7.83203 -6.23047 L 10.8789 -6.23047 L 10.8789 -3.33984 C 10.8789 -2.79297 11.1719 -2.41211 11.6895 -2.41211 Z"/>
  </g>
  <g id="" transform="matrix(1 0 0 1 304.924 1933)">
   <path d="M 14.9707 5.67383 C 21.9336 5.67383 27.6953 -0.078125 27.6953 -7.04102 C 27.6953 -14.0039 21.9238 -19.7559 14.9609 -19.7559 C 8.00781 -19.7559 2.25586 -14.0039 2.25586 -7.04102 C 2.25586 -0.078125 8.01758 5.67383 14.9707 5.67383 Z M 14.9707 3.85742 C 8.93555 3.85742 4.08203 -1.00586 4.08203 -7.04102 C 4.08203 -13.0762 8.92578 -17.9395 14.9609 -17.9395 C 21.0059 -17.9395 25.8594 -13.0762 25.8691 -7.04102 C 25.8789 -1.00586 21.0156 3.85742 14.9707 3.85742 Z M 14.9512 -1.06445 C 15.5176 -1.06445 15.8691 -1.45508 15.8691 -2.06055 L 15.8691 -6.13281 L 20.1074 -6.13281 C 20.6934 -6.13281 21.1133 -6.46484 21.1133 -7.02148 C 21.1133 -7.59766 20.7227 -7.93945 20.1074 -7.93945 L 15.8691 -7.93945 L 15.8691 -12.1875 C 15.8691 -12.8027 15.5176 -13.1934 14.9512 -13.1934 C 14.3848 -13.1934 14.0625 -12.7832 14.0625 -12.1875 L 14.0625 -7.93945 L 9.83398 -7.93945 C 9.21875 -7.93945 8.80859 -7.59766 8.80859 -7.02148 C 8.80859 -6.46484 9.23828 -6.13281 9.83398 -6.13281 L 14.0625 -6.13281 L 14.0625 -2.06055 C 14.0625 -1.47461 14.3848 -1.06445 14.9512 -1.06445 Z"/>
  </g>
  <text style="stroke:none;fill:black;font-family:-apple-system,&quot;SF Pro Display&quot;,&quot;SF Pro Text&quot;,Helvetica,sans-serif;font-weight:bold;" transform="matrix(1 0 0 1 263 1953)">Design Variations</text>
  <text style="stroke:none;fill:black;font-family:-apple-system,&quot;SF Pro Display&quot;,&quot;SF Pro Text&quot;,Helvetica,sans-serif;" transform="matrix(1 0 0 1 263 1971)">Symbols are supported in up to nine weights and three scales.</text>
  <text style="stroke:none;fill:black;font-family:-apple-system,&quot;SF Pro Display&quot;,&quot;SF Pro Text&quot;,Helvetica,sans-serif;" transform="matrix(1 0 0 1 263 1989)">For optimal layout with text and other symbols, vertically align</text>
  <text style="stroke:none;fill:black;font-family:-apple-system,&quot;SF Pro Display&quot;,&quot;SF Pro Text&quot;,Helvetica,sans-serif;" transform="matrix(1 0 0 1 263 2007)">symbols with the adjacent text.</text>
  <rect height="14" id="" style="fill:#00AEEF;stroke:none;opacity:0.4;" width="3" x="776" y="1919"/>
  <g id="" transform="matrix(1 0 0 1 779 1933)">
   <path d="M 10.5273 0 L 12.373 0 L 7.17773 -14.0918 L 5.43945 -14.0918 L 0.244141 0 L 2.08984 0 L 3.50586 -4.0332 L 9.11133 -4.0332 Z M 6.2793 -11.9531 L 6.33789 -11.9531 L 8.59375 -5.52734 L 4.02344 -5.52734 Z"/>
  </g>
  <rect height="14" id="" style="fill:#00AEEF;stroke:none;opacity:0.4;" width="3" x="791.617" y="1919"/>
  <text style="stroke:none;fill:black;font-family:-apple-system,&quot;SF Pro Display&quot;,&quot;SF Pro Text&quot;,Helvetica,sans-serif;font-weight:bold;" transform="matrix(1 0 0 1 776 1953)">Margins</text>
  <text style="stroke:none;fill:black;font-family:-apple-system,&quot;SF Pro Display&quot;,&quot;SF Pro Text&quot;,Helvetica,sans-serif;" transform="matrix(1 0 0 1 776 1971)">Leading and trailing margins on the left and right side of each symbol</text>
  <text style="stroke:none;fill:black;font-family:-apple-system,&quot;SF Pro Display&quot;,&quot;SF Pro Text&quot;,Helvetica,sans-serif;" transform="matrix(1 0 0 1 776 1989)">can be adjusted by modifying the width of the blue rectangles.</text>
  <text style="stroke:none;fill:black;font-family:-apple-system,&quot;SF Pro Display&quot;,&quot;SF Pro Text&quot;,Helvetica,sans-serif;" transform="matrix(1 0 0 1 776 2007)">Modifications are automatically applied proportionally to all</text>
  <text style="stroke:none;fill:black;font-family:-apple-system,&quot;SF Pro Display&quot;,&quot;SF Pro Text&quot;,Helvetica,sans-serif;" transform="matrix(1 0 0 1 776 2025)">scales and weights.</text>
  <g id="" transform="matrix(1 0 0 1 1289 1933)">
   <path d="M 2.83203 3.11523 L 4.375 4.6582 C 5.22461 5.48828 6.19141 5.41992 7.06055 4.46289 L 17.2754 -6.66016 C 17.7051 -6.36719 18.0957 -6.37695 18.5645 -6.47461 L 19.6094 -6.68945 L 20.3027 -5.99609 L 20.2539 -5.47852 C 20.1855 -4.95117 20.3516 -4.53125 20.8496 -4.0332 L 21.6602 -3.22266 C 22.168 -2.71484 22.8223 -2.68555 23.3008 -3.16406 L 26.5527 -6.41602 C 27.0312 -6.89453 27.0117 -7.54883 26.5039 -8.05664 L 25.6836 -8.87695 C 25.1855 -9.375 24.7754 -9.55078 24.2383 -9.47266 L 23.7109 -9.41406 L 23.0566 -10.0781 L 23.3398 -11.2207 C 23.4863 -11.7871 23.3398 -12.2559 22.7148 -12.8613 L 20.3027 -15.2539 C 16.7578 -18.7793 12.2266 -18.6719 9.11133 -15.5371 C 8.69141 -15.1074 8.64258 -14.5215 8.91602 -14.0918 C 9.15039 -13.7207 9.62891 -13.4961 10.2734 -13.6621 C 11.7871 -14.043 13.3008 -13.9258 14.7852 -12.9199 L 14.1602 -11.3379 C 13.9258 -10.752 13.9453 -10.2734 14.1797 -9.83398 L 3.01758 0.439453 C 2.08008 1.30859 1.97266 2.25586 2.83203 3.11523 Z M 10.6738 -15.1465 C 13.3398 -17.1387 16.6504 -16.8262 19.0527 -14.4141 L 21.6797 -11.8066 C 21.9141 -11.5723 21.9434 -11.3867 21.8848 -11.0938 L 21.5039 -9.53125 L 23.0762 -7.95898 L 24.043 -8.04688 C 24.3262 -8.07617 24.4141 -8.05664 24.6387 -7.83203 L 25.2637 -7.20703 L 22.5098 -4.46289 L 21.8848 -5.07812 C 21.6602 -5.30273 21.6406 -5.40039 21.6699 -5.68359 L 21.7578 -6.64062 L 20.1953 -8.20312 L 18.5742 -7.89062 C 18.291 -7.83203 18.1445 -7.83203 17.9102 -8.07617 L 15.7324 -10.2539 C 15.5078 -10.4883 15.4785 -10.625 15.6055 -10.9473 L 16.5527 -13.2227 C 14.9512 -14.7559 12.8418 -15.6055 10.8008 -14.9512 C 10.7129 -14.9219 10.6445 -14.9414 10.6152 -14.9805 C 10.5859 -15.0293 10.5859 -15.0781 10.6738 -15.1465 Z M 4.10156 2.41211 C 3.61328 1.91406 3.78906 1.61133 4.12109 1.30859 L 15.0781 -8.80859 L 16.3086 -7.57812 L 6.15234 3.34961 C 5.84961 3.68164 5.46875 3.7793 5.06836 3.37891 Z"/>
  </g>
  <text style="stroke:none;fill:black;font-family:-apple-system,&quot;SF Pro Display&quot;,&quot;SF Pro Text&quot;,Helvetica,sans-serif;font-weight:bold;" transform="matrix(1 0 0 1 1289 1953)">Exporting</text>
  <text style="stroke:none;fill:black;font-family:-apple-system,&quot;SF Pro Display&quot;,&quot;SF Pro Text&quot;,Helvetica,sans-serif;" transform="matrix(1 0 0 1 1289 1971)">Symbols should be outlined when exporting to ensure the</text>
  <text style="stroke:none;fill:black;font-family:-apple-system,&quot;SF Pro Display&quot;,&quot;SF Pro Text&quot;,Helvetica,sans-serif;" transform="matrix(1 0 0 1 1289 1989)">design is preserved when submitting to Xcode.</text>
  <text id="template-version" style="stroke:none;fill:black;font-family:-apple-system,&quot;SF Pro Display&quot;,&quot;SF Pro Text&quot;,Helvetica,sans-serif;text-anchor:end;" transform="matrix(1 0 0 1 3036 1933)">Template v.1.0</text>
  <text style="stroke:none;fill:black;font-family:-apple-system,&quot;SF Pro Display&quot;,&quot;SF Pro Text&quot;,Helvetica,sans-serif;text-anchor:end;" transform="matrix(1 0 0 1 3036 1951)">Generated from 25.circle.fill</text>
  <text style="stroke:none;fill:black;font-family:-apple-system,&quot;SF Pro Display&quot;,&quot;SF Pro Text&quot;,Helvetica,sans-serif;text-anchor:end;" transform="matrix(1 0 0 1 3036 1969)">Typeset at 100 points</text>
  <text style="stroke:none;fill:black;font-family:-apple-system,&quot;SF Pro Display&quot;,&quot;SF Pro Text&quot;,Helvetica,sans-serif;" transform="matrix(1 0 0 1 263 726)">Small</text>
  <text style="stroke:none;fill:black;font-family:-apple-system,&quot;SF Pro Display&quot;,&quot;SF Pro Text&quot;,Helvetica,sans-serif;" transform="matrix(1 0 0 1 263 1156)">Medium</text>
  <text style="stroke:none;fill:black;font-family:-apple-system,&quot;SF Pro Display&quot;,&quot;SF Pro Text&quot;,Helvetica,sans-serif;" transform="matrix(1 0 0 1 263 1586)">Large</text>
 </g>
 <g id="Guides">
  <g id="H-reference" style="fill:#27AAE1;stroke:none;" transform="matrix(1 0 0 1 339 696)">
   <path d="M 54.9316 0 L 57.666 0 L 30.5664 -70.459 L 28.0762 -70.459 L 0.976562 0 L 3.66211 0 L 12.9395 -24.4629 L 45.7031 -24.4629 Z M 29.1992 -67.0898 L 29.4434 -67.0898 L 44.8242 -26.709 L 13.8184 -26.709 Z"/>
  </g>
  <line id="Baseline-S" style="fill:none;stroke:#27AAE1;opacity:1;stroke-width:0.577;" x1="263" x2="3036" y1="696" y2="696"/>
  <line id="Capline-S" style="fill:none;stroke:#27AAE1;opacity:1;stroke-width:0.577;" x1="263" x2="3036" y1="625.541" y2="625.541"/>
  <g id="H-reference" style="fill:#27AAE1;stroke:none;" transform="matrix(1 0 0 1 339 1126)">
   <path d="M 54.9316 0 L 57.666 0 L 30.5664 -70.459 L 28.0762 -70.459 L 0.976562 0 L 3.66211 0 L 12.9395 -24.4629 L 45.7031 -24.4629 Z M 29.1992 -67.0898 L 29.4434 -67.0898 L 44.8242 -26.709 L 13.8184 -26.709 Z"/>
  </g>
  <line id="Baseline-M" style="fill:none;stroke:#27AAE1;opacity:1;stroke-width:0.577;" x1="263" x2="3036" y1="1126" y2="1126"/>
  <line id="Capline-M" style="fill:none;stroke:#27AAE1;opacity:1;stroke-width:0.577;" x1="263" x2="3036" y1="1055.54" y2="1055.54"/>
  <g id="H-reference" style="fill:#27AAE1;stroke:none;" transform="matrix(1 0 0 1 339 1556)">
   <path d="M 54.9316 0 L 57.666 0 L 30.5664 -70.459 L 28.0762 -70.459 L 0.976562 0 L 3.66211 0 L 12.9395 -24.4629 L 45.7031 -24.4629 Z M 29.1992 -67.0898 L 29.4434 -67.0898 L 44.8242 -26.709 L 13.8184 -26.709 Z"/>
  </g>
  <line id="Baseline-L" style="fill:none;stroke:#27AAE1;opacity:1;stroke-width:0.577;" x1="263" x2="3036" y1="1556" y2="1556"/>
  <line id="Capline-L" style="fill:none;stroke:#27AAE1;opacity:1;stroke-width:0.577;" x1="263" x2="3036" y1="1485.54" y2="1485.54"/>
  <rect height="119.336" id="left-margin" style="fill:#00AEEF;stroke:none;opacity:0.4;" width="8.74023" x="1391.3" y="1030.79"/>
  <rect height="119.336" id="right-margin" style="fill:#00AEEF;stroke:none;opacity:0.4;" width="8.74023" x="1499.65" y="1030.79"/>
 </g>
 <g id="Symbols">
  <g id="Black-L" transform="matrix(1 0 0 1 2854.05 1556)">
   <path d="M 79.3457 32.8613 C 116.748 32.8613 147.412 2.19727 147.412 -35.2051 C 147.412 -72.6074 116.748 -103.271 79.2969 -103.271 C 41.8945 -103.271 11.2793 -72.6074 11.2793 -35.2051 C 11.2793 2.19727 41.9434 32.8613 79.3457 32.8613 Z M 51.3672 -10.5469 C 47.998 -10.5469 45.4102 -12.8418 45.4102 -16.6016 C 45.4102 -18.8965 46.2402 -20.8984 48.3398 -23.3398 L 59.7168 -36.7188 C 62.5977 -40.0879 64.9902 -42.4316 64.9902 -45.4102 C 64.9902 -47.8516 62.9395 -49.7559 60.3027 -49.7559 C 57.8125 -49.7559 56.0547 -48.3398 55.0781 -45.8008 C 54.3457 -43.5059 52.7832 -41.8945 49.8535 -41.8945 C 46.6797 -41.8945 44.6289 -44.0918 44.6289 -47.2168 C 44.6289 -48.3887 44.8242 -49.3164 45.0684 -50.3418 C 46.875 -56.7383 53.2715 -61.084 60.5469 -61.084 C 70.0684 -61.084 75.9766 -55.0293 76.123 -46.5332 C 76.1719 -40.7227 73.291 -36.2793 68.5059 -30.7129 L 61.6699 -22.7539 L 61.6699 -22.1191 L 71.6797 -22.1191 C 75.2441 -22.1191 77.5879 -20.0684 77.5879 -16.5039 C 77.5879 -12.7441 75.2441 -10.5469 71.6797 -10.5469 Z M 98.291 -9.47266 C 90.7715 -9.47266 85.3516 -13.7207 83.6426 -17.4316 C 83.0078 -18.7012 82.8613 -19.7754 82.8613 -20.9473 C 82.8613 -24.1211 85.2539 -26.3672 88.1348 -26.3672 C 90.625 -26.3672 91.748 -24.8535 92.9688 -23.6328 C 94.5312 -21.875 96.1914 -20.2148 98.9258 -20.2148 C 102.539 -20.2148 104.98 -22.9492 104.98 -26.9531 C 104.98 -30.4199 102.686 -33.2031 99.5605 -33.2031 C 97.6562 -33.2031 96.4844 -32.5684 94.7266 -31.3477 C 93.2129 -30.2734 91.748 -29.541 88.8184 -29.541 C 85.0586 -29.541 82.666 -32.0312 82.8613 -36.1328 L 83.7891 -52.7832 C 84.082 -57.3242 86.4258 -59.9609 90.4785 -59.9609 L 109.424 -59.9609 C 112.842 -59.9609 114.795 -58.1543 114.795 -54.7363 C 114.795 -51.3672 112.744 -49.3652 109.424 -49.3652 L 94.1406 -49.3652 L 93.3594 -38.3301 L 93.5547 -38.3301 C 95.3613 -41.0645 98.9258 -42.7734 102.588 -42.7734 C 110.156 -42.7734 116.455 -37.1094 116.455 -27.5391 C 116.455 -16.4551 109.668 -9.47266 98.291 -9.47266 Z"/>
  </g>
  <g id="Heavy-L" transform="matrix(1 0 0 1 2558.39 1556)">
   <path d="M 78.2715 31.7871 C 115.088 31.7871 145.312 1.61133 145.312 -35.2051 C 145.312 -72.0215 115.039 -102.197 78.2715 -102.197 C 41.4551 -102.197 11.2793 -72.0215 11.2793 -35.2051 C 11.2793 1.61133 41.5039 31.7871 78.2715 31.7871 Z M 48.6816 -10.0586 C 45.5566 -10.0586 43.2617 -12.1094 43.2617 -15.4785 C 43.2617 -17.4805 43.9941 -19.2871 45.8008 -21.3867 L 58.7402 -36.5723 C 61.7676 -40.0879 64.3066 -42.7246 64.3066 -46.0449 C 64.3066 -49.1699 61.9141 -51.416 58.4961 -51.416 C 55.3711 -51.416 53.125 -49.707 52.0508 -46.4844 C 51.3184 -44.3359 49.9512 -42.8223 47.2656 -42.8223 C 44.3359 -42.8223 42.4805 -44.873 42.4805 -47.7539 C 42.4805 -48.7793 42.6758 -49.707 42.9199 -50.6348 C 44.6777 -57.1289 51.1719 -61.6699 58.6426 -61.6699 C 68.3105 -61.6699 74.4141 -55.6641 74.5117 -47.0215 C 74.5605 -41.1133 71.5332 -36.6211 66.6992 -30.957 L 58.1543 -21.0938 L 58.1543 -20.5078 L 70.7031 -20.5078 C 73.8281 -20.5078 75.9277 -18.6035 75.9277 -15.3809 C 75.9277 -12.0117 73.8281 -10.0586 70.7031 -10.0586 Z M 97.9004 -8.88672 C 90.1367 -8.88672 84.5215 -13.1836 82.7637 -17.3828 C 82.1777 -18.5059 82.0801 -19.5312 82.0801 -20.6543 C 82.0801 -23.5352 84.1797 -25.5859 86.8164 -25.5859 C 89.0625 -25.5859 90.1855 -24.2188 91.3086 -22.9004 C 92.9199 -20.5566 95.2148 -18.6523 98.4863 -18.6523 C 102.881 -18.6523 105.811 -21.8262 105.811 -26.5625 C 105.811 -30.7617 103.027 -34.082 99.1699 -34.082 C 96.9727 -34.082 95.459 -33.3008 93.3594 -31.6895 C 91.8457 -30.5176 90.4785 -29.834 87.793 -29.834 C 84.2773 -29.834 82.0801 -32.2266 82.2754 -36.084 L 83.3984 -53.8574 C 83.6426 -58.0566 85.8887 -60.5469 89.7461 -60.5469 L 109.717 -60.5469 C 112.744 -60.5469 114.502 -58.8379 114.502 -55.7617 C 114.502 -52.7344 112.598 -50.8789 109.717 -50.8789 L 92.7246 -50.8789 L 91.7969 -38.1836 L 92.041 -38.1836 C 93.9453 -41.0156 97.7539 -42.8223 101.66 -42.8223 C 109.814 -42.8223 116.309 -36.7676 116.309 -27.0996 C 116.309 -15.918 109.277 -8.88672 97.9004 -8.88672 Z"/>
  </g>
  <g id="Bold-L" transform="matrix(1 0 0 1 2262.88 1556)">
   <path d="M 77.0996 30.6152 C 113.232 30.6152 142.92 0.878906 142.92 -35.2051 C 142.92 -71.3379 113.184 -101.025 77.0508 -101.025 C 40.9668 -101.025 11.2793 -71.3379 11.2793 -35.2051 C 11.2793 0.878906 41.0156 30.6152 77.0996 30.6152 Z M 45.6055 -9.47266 C 42.8711 -9.47266 40.8691 -11.2793 40.8691 -14.209 C 40.8691 -15.9668 41.5039 -17.4316 42.9688 -19.1895 L 57.666 -36.4258 C 60.8398 -40.0879 63.5742 -43.1152 63.5742 -46.7285 C 63.5742 -50.5859 60.7422 -53.2715 56.4941 -53.2715 C 52.5879 -53.2715 49.8535 -51.1719 48.6328 -47.2656 C 47.9492 -45.2148 46.7285 -43.8965 44.3359 -43.8965 C 41.748 -43.8965 40.0879 -45.7031 40.0879 -48.3398 C 40.0879 -49.2676 40.2344 -50.0977 40.4297 -50.9766 C 42.1875 -57.6172 48.877 -62.3047 56.4941 -62.3047 C 66.3574 -62.3047 72.6562 -56.3477 72.7051 -47.6074 C 72.7051 -41.5527 69.5801 -36.9629 64.5996 -31.25 L 54.248 -19.1895 L 54.248 -18.6523 L 69.5801 -18.6523 C 72.2656 -18.6523 74.1211 -16.9922 74.1211 -14.1602 C 74.1211 -11.2305 72.2656 -9.47266 69.5801 -9.47266 Z M 97.4609 -8.25195 C 89.502 -8.25195 83.5938 -12.5488 81.7383 -17.2852 C 81.2988 -18.3105 81.1523 -19.2871 81.1523 -20.3125 C 81.1523 -22.8516 83.0078 -24.707 85.4004 -24.707 C 87.3535 -24.707 88.4766 -23.5352 89.502 -22.0215 C 91.1621 -19.043 94.0918 -16.8945 97.998 -16.8945 C 103.174 -16.8945 106.787 -20.5566 106.787 -26.1719 C 106.787 -31.1523 103.418 -35.0098 98.7305 -35.0098 C 96.1426 -35.0098 94.2871 -34.1309 91.8945 -32.0801 C 90.2832 -30.7617 89.0137 -30.1758 86.6211 -30.1758 C 83.4473 -30.1758 81.4453 -32.4219 81.6406 -35.9863 L 82.959 -55.0781 C 83.2031 -58.8867 85.3516 -61.1816 88.916 -61.1816 L 110.01 -61.1816 C 112.598 -61.1816 114.16 -59.5703 114.16 -56.9336 C 114.16 -54.2969 112.5 -52.5879 110.01 -52.5879 L 91.1621 -52.5879 L 90.0879 -37.9883 L 90.2832 -37.9883 C 92.334 -40.9668 96.4844 -42.9199 100.635 -42.9199 C 109.473 -42.9199 116.113 -36.377 116.113 -26.5625 C 116.113 -15.2832 108.887 -8.25195 97.4609 -8.25195 Z"/>
  </g>
  <g id="Semibold-L" transform="matrix(1 0 0 1 1966.97 1556)">
   <path d="M 76.2695 29.7852 C 111.914 29.7852 141.309 0.439453 141.309 -35.2051 C 141.309 -70.8496 111.865 -100.244 76.2695 -100.244 C 40.625 -100.244 11.2793 -70.8496 11.2793 -35.2051 C 11.2793 0.439453 40.6738 29.7852 76.2695 29.7852 Z M 43.5059 -9.0332 C 40.9668 -9.0332 39.209 -10.7422 39.209 -13.3789 C 39.209 -14.8926 39.7461 -16.2109 41.0156 -17.627 L 56.9336 -36.2793 C 60.2051 -40.1367 63.0859 -43.3594 63.0859 -47.2168 C 63.0859 -51.6113 59.9121 -54.5898 55.127 -54.5898 C 50.6836 -54.5898 47.5586 -52.1973 46.2891 -47.8027 C 45.6055 -45.8496 44.4824 -44.6289 42.334 -44.6289 C 39.9414 -44.6289 38.4277 -46.2891 38.4277 -48.7305 C 38.4277 -49.6094 38.5742 -50.3906 38.7695 -51.2207 C 40.4785 -57.9102 47.2656 -62.7441 54.9805 -62.7441 C 64.9902 -62.7441 71.4355 -56.8359 71.4355 -47.9492 C 71.4844 -41.8945 68.2129 -37.2559 63.1836 -31.3965 L 51.5625 -17.8711 L 51.5625 -17.3828 L 68.7988 -17.3828 C 71.1914 -17.3828 72.8516 -15.8691 72.8516 -13.3301 C 72.8516 -10.6934 71.1914 -9.0332 68.7988 -9.0332 Z M 97.168 -7.76367 C 89.0137 -7.76367 82.959 -12.1582 81.0547 -17.1875 C 80.6641 -18.1641 80.5176 -19.0918 80.5176 -20.1172 C 80.5176 -22.4121 82.1777 -24.1211 84.375 -24.1211 C 86.1328 -24.1211 87.2559 -23.0469 88.2324 -21.4355 C 89.9414 -18.0176 93.3594 -15.7227 97.6074 -15.7227 C 103.418 -15.7227 107.422 -19.6777 107.422 -25.8789 C 107.422 -31.4453 103.711 -35.6934 98.4375 -35.6934 C 95.6055 -35.6934 93.5059 -34.668 90.8691 -32.3242 C 89.209 -30.957 87.9883 -30.4199 85.8398 -30.4199 C 82.8125 -30.4199 81.0059 -32.5195 81.1523 -35.9375 L 82.6172 -55.957 C 82.8613 -59.4727 84.9609 -61.5723 88.3301 -61.5723 L 110.205 -61.5723 C 112.5 -61.5723 113.965 -60.1074 113.965 -57.7637 C 113.965 -55.3223 112.402 -53.8086 110.205 -53.8086 L 90.0879 -53.8086 L 88.8672 -37.8906 L 89.1113 -37.8906 C 91.2109 -40.918 95.6055 -42.9688 99.9023 -42.9688 C 109.229 -42.9688 116.016 -36.1328 116.016 -26.1719 C 116.016 -14.8438 108.594 -7.76367 97.168 -7.76367 Z"/>
  </g>
  <g id="Medium-L" transform="matrix(1 0 0 1 1670.87 1556)">
   <path d="M 75.6836 29.1992 C 110.938 29.1992 140.088 0.0488281 140.088 -35.2051 C 140.088 -70.459 110.889 -99.6094 75.6348 -99.6094 C 40.3809 -99.6094 11.2793 -70.459 11.2793 -35.2051 C 11.2793 0.0488281 40.3809 29.1992 75.6836 29.1992 Z M 41.8945 -8.74023 C 39.5508 -8.74023 37.9395 -10.3027 37.9395 -12.6953 C 37.9395 -14.0625 38.4277 -15.2344 39.5508 -16.5039 L 56.3477 -36.2305 C 59.7168 -40.1367 62.6953 -43.5547 62.6953 -47.6074 C 62.6953 -52.3438 59.2773 -55.5664 54.0527 -55.5664 C 49.2676 -55.5664 45.8496 -52.9785 44.5312 -48.1934 C 43.8477 -46.3379 42.8223 -45.166 40.8203 -45.166 C 38.5742 -45.166 37.207 -46.7285 37.207 -49.0234 C 37.207 -49.8535 37.3535 -50.5859 37.5 -51.416 C 39.1602 -58.1543 46.0449 -63.0859 53.8574 -63.0859 C 63.9648 -63.0859 70.5078 -57.2266 70.5078 -48.2422 C 70.5078 -42.0898 67.1875 -37.4512 62.1094 -31.543 L 49.5117 -16.8945 L 49.5117 -16.4551 L 68.2129 -16.4551 C 70.3613 -16.4551 71.9238 -15.0391 71.9238 -12.6465 C 71.9238 -10.3027 70.3613 -8.74023 68.2129 -8.74023 Z M 96.9238 -7.4707 C 88.6719 -7.4707 82.4707 -11.8652 80.5664 -17.1387 C 80.1758 -18.0176 80.0293 -18.9453 80.0293 -19.9219 C 80.0293 -22.0703 81.543 -23.6328 83.6426 -23.6328 C 85.2051 -23.6328 86.3281 -22.6562 87.2559 -20.9961 C 89.0137 -17.2363 92.7734 -14.7949 97.3633 -14.7949 C 103.613 -14.7949 107.959 -18.9941 107.959 -25.6836 C 107.959 -31.6406 103.906 -36.1816 98.1934 -36.1816 C 95.166 -36.1816 92.9199 -35.1074 90.0879 -32.5195 C 88.3789 -31.1035 87.207 -30.6152 85.2539 -30.6152 C 82.373 -30.6152 80.6641 -32.6172 80.8105 -35.8887 L 82.4219 -56.5918 C 82.6172 -59.9121 84.668 -61.9141 87.8906 -61.9141 L 110.352 -61.9141 C 112.402 -61.9141 113.77 -60.498 113.77 -58.3496 C 113.77 -56.1523 112.354 -54.6875 110.352 -54.6875 L 89.2578 -54.6875 L 87.9883 -37.793 L 88.2324 -37.793 C 90.332 -40.8691 94.9219 -43.0176 99.3652 -43.0176 C 109.033 -43.0176 115.918 -35.9375 115.918 -25.8789 C 115.918 -14.5508 108.35 -7.4707 96.9238 -7.4707 Z"/>
  </g>
  <g id="Regular-L" transform="matrix(1 0 0 1 1374.97 1556)">
   <path d="M 74.8535 28.3691 C 109.668 28.3691 138.477 -0.390625 138.477 -35.2051 C 138.477 -70.0195 109.619 -98.7793 74.8047 -98.7793 C 40.0391 -98.7793 11.2793 -70.0195 11.2793 -35.2051 C 11.2793 -0.390625 40.0879 28.3691 74.8535 28.3691 Z M 39.8438 -8.34961 C 37.6953 -8.34961 36.3281 -9.7168 36.3281 -11.8652 C 36.3281 -13.0371 36.7188 -14.0137 37.5977 -14.9902 L 55.6152 -36.084 C 59.082 -40.1367 62.1582 -43.7988 62.1582 -48.0957 C 62.1582 -53.3691 58.4961 -56.8359 52.6855 -56.8359 C 47.4121 -56.8359 43.6035 -53.9551 42.1875 -48.7305 C 41.5039 -46.9727 40.625 -45.8984 38.8672 -45.8984 C 36.8164 -45.8984 35.5469 -47.3145 35.5469 -49.4629 C 35.5469 -50.1465 35.6934 -50.8789 35.8398 -51.6113 C 37.4512 -58.4961 44.4824 -63.5254 52.3926 -63.5254 C 62.6465 -63.5254 69.2871 -57.666 69.2871 -48.6328 C 69.2871 -42.4316 65.8691 -37.6953 60.7422 -31.7383 L 46.875 -15.5762 L 46.875 -15.1855 L 67.4316 -15.1855 C 69.3359 -15.1855 70.6543 -13.916 70.6543 -11.8164 C 70.6543 -9.76562 69.3359 -8.34961 67.4316 -8.34961 Z M 96.6309 -6.98242 C 88.2324 -6.98242 81.8359 -11.4258 79.8828 -17.0898 C 79.5898 -17.8711 79.3945 -18.75 79.3945 -19.6777 C 79.3945 -21.6309 80.7129 -23.0469 82.6172 -23.0469 C 84.0332 -23.0469 85.1562 -22.168 85.9863 -20.4102 C 87.793 -16.2109 92.041 -13.5742 97.0215 -13.5742 C 103.857 -13.5742 108.594 -18.1641 108.594 -25.3906 C 108.594 -31.9336 104.199 -36.8164 97.9004 -36.8164 C 94.6289 -36.8164 92.1387 -35.6445 89.1113 -32.8125 C 87.3535 -31.2988 86.2305 -30.8594 84.4238 -30.8594 C 81.7871 -30.8594 80.2246 -32.7637 80.3711 -35.791 L 82.0801 -57.4219 C 82.2754 -60.498 84.2773 -62.3535 87.3047 -62.3535 L 110.596 -62.3535 C 112.354 -62.3535 113.525 -60.9863 113.525 -59.1309 C 113.525 -57.1777 112.305 -55.8594 110.596 -55.8594 L 88.1836 -55.8594 L 86.8164 -37.6465 L 87.0605 -37.6465 C 89.2578 -40.8203 94.0918 -43.0664 98.6816 -43.0664 C 108.838 -43.0664 115.771 -35.6445 115.771 -25.5371 C 115.771 -14.1113 108.057 -6.98242 96.6309 -6.98242 Z"/>
  </g>
  <g id="Light-L" transform="matrix(1 0 0 1 1079.18 1556)">
   <path d="M 73.9258 27.4902 C 108.301 27.4902 136.621 -0.830078 136.621 -35.1562 C 136.621 -69.5312 108.252 -97.8516 73.9258 -97.8516 C 39.5508 -97.8516 11.2793 -69.5312 11.2793 -35.1562 C 11.2793 -0.830078 39.5996 27.4902 73.9258 27.4902 Z M 38.4277 -8.44727 C 36.6699 -8.44727 35.4492 -9.57031 35.4492 -11.377 C 35.4492 -12.4023 35.791 -13.1836 36.5234 -13.9648 L 55.3223 -35.8887 C 59.1309 -40.3809 61.7676 -43.9453 61.7676 -48.291 C 61.7676 -54.0039 57.7637 -57.7637 51.3184 -57.7637 C 45.2637 -57.7637 40.918 -54.2969 39.8438 -48.6816 C 39.4043 -47.168 38.623 -46.2402 37.1094 -46.2402 C 35.4004 -46.2402 34.375 -47.4609 34.375 -49.1699 C 34.375 -49.8047 34.4727 -50.4395 34.5703 -51.1719 C 36.084 -58.1543 43.0664 -63.2324 51.123 -63.2324 C 61.084 -63.2324 67.627 -57.4707 67.627 -48.584 C 67.627 -42.8223 64.5508 -38.2324 59.0332 -31.8848 L 43.9453 -14.3066 L 43.9453 -14.0137 L 66.4062 -14.0137 C 68.0176 -14.0137 69.043 -12.9395 69.043 -11.2793 C 69.043 -9.61914 68.0176 -8.44727 66.4062 -8.44727 Z M 95.7031 -7.32422 C 87.207 -7.32422 81.0547 -11.9141 79.0527 -17.6758 C 78.8086 -18.4082 78.6621 -19.043 78.6621 -19.8242 C 78.6621 -21.3867 79.7852 -22.5098 81.2988 -22.5098 C 82.5195 -22.5098 83.4473 -21.7285 84.0332 -20.2637 C 85.6934 -15.7227 90.4785 -12.6953 96.0938 -12.6953 C 103.467 -12.6953 108.74 -17.8223 108.74 -25.4395 C 108.74 -32.6172 103.809 -37.8906 96.7773 -37.8906 C 93.0176 -37.8906 89.9902 -36.5234 86.5723 -33.0078 C 85.2539 -31.7871 84.375 -31.3965 82.959 -31.3965 C 80.8594 -31.3965 79.541 -32.959 79.6875 -35.3516 L 81.4941 -58.3984 C 81.6406 -60.791 83.2031 -62.3047 85.6445 -62.3047 L 109.668 -62.3047 C 111.133 -62.3047 112.158 -61.2305 112.158 -59.7168 C 112.158 -58.1543 111.084 -57.0801 109.668 -57.0801 L 86.5234 -57.0801 L 85.0098 -37.207 L 85.1562 -37.207 C 87.6953 -40.7227 92.627 -42.9688 97.4121 -42.9688 C 107.471 -42.9688 114.502 -35.5957 114.502 -25.5371 C 114.502 -14.4531 106.885 -7.32422 95.7031 -7.32422 Z"/>
  </g>
  <g id="Thin-L" transform="matrix(1 0 0 1 783.693 1556)">
   <path d="M 72.7051 26.3184 C 106.494 26.3184 134.18 -1.36719 134.18 -35.1074 C 134.18 -68.8965 106.494 -96.582 72.7051 -96.582 C 38.9648 -96.582 11.2793 -68.8965 11.2793 -35.1074 C 11.2793 -1.36719 38.9648 26.3184 72.7051 26.3184 Z M 36.6211 -8.59375 C 35.3027 -8.59375 34.3262 -9.42383 34.3262 -10.7422 C 34.3262 -11.6211 34.5215 -12.0605 35.0586 -12.6465 L 54.8828 -35.5957 C 59.1797 -40.6738 61.2793 -44.1895 61.2793 -48.5352 C 61.2793 -54.8828 56.7871 -58.9844 49.4629 -58.9844 C 42.4805 -58.9844 37.4023 -54.6875 36.7676 -48.6328 C 36.6211 -47.4121 36.0352 -46.7285 34.7168 -46.7285 C 33.5449 -46.7285 32.7637 -47.6074 32.7637 -48.7793 C 32.7637 -49.3652 32.8613 -49.9023 32.959 -50.5371 C 34.2285 -57.666 41.2109 -62.793 49.4629 -62.793 C 59.0332 -62.793 65.4297 -57.2266 65.4297 -48.5352 C 65.4297 -43.4082 62.793 -38.9648 56.8359 -32.0801 L 40.1367 -12.6465 L 40.1367 -12.4512 L 65.0391 -12.4512 C 66.2598 -12.4512 66.9434 -11.6699 66.9434 -10.5469 C 66.9434 -9.47266 66.2598 -8.59375 65.0391 -8.59375 Z M 94.5312 -7.71484 C 85.8398 -7.71484 79.9805 -12.5 77.9785 -18.5059 C 77.832 -19.0918 77.7344 -19.4824 77.7344 -19.9707 C 77.7344 -21.0938 78.5156 -21.7773 79.541 -21.7773 C 80.5664 -21.7773 81.1523 -21.0938 81.4453 -20.0684 C 82.959 -15.0391 88.3789 -11.5234 94.9219 -11.5234 C 102.93 -11.5234 108.936 -17.3828 108.936 -25.5371 C 108.936 -33.4961 103.271 -39.3066 95.3125 -39.3066 C 90.918 -39.3066 87.1582 -37.6465 83.252 -33.252 C 82.5195 -32.4219 81.8848 -32.1777 80.957 -32.1777 C 79.5898 -32.1777 78.6621 -33.2031 78.7598 -34.7656 L 80.7129 -59.6191 C 80.8105 -61.2305 81.7871 -62.3047 83.4473 -62.3047 L 108.447 -62.3047 C 109.521 -62.3047 110.303 -61.5723 110.303 -60.498 C 110.303 -59.375 109.473 -58.6426 108.447 -58.6426 L 84.3262 -58.6426 L 82.6172 -36.6211 L 82.7148 -36.6211 C 85.6445 -40.5273 90.6738 -42.8711 95.752 -42.8711 C 105.664 -42.8711 112.793 -35.5469 112.793 -25.5859 C 112.793 -14.8926 105.322 -7.71484 94.5312 -7.71484 Z"/>
  </g>
  <g id="Ultralight-L" transform="matrix(1 0 0 1 487.616 1556)">
   <path d="M 72.1191 25.7324 C 105.566 25.7324 132.91 -1.61133 132.91 -35.1074 C 132.91 -68.5547 105.566 -95.8984 72.1191 -95.8984 C 38.623 -95.8984 11.2793 -68.5547 11.2793 -35.1074 C 11.2793 -1.61133 38.623 25.7324 72.1191 25.7324 Z M 35.6934 -8.69141 C 34.5703 -8.69141 33.7402 -9.32617 33.7402 -10.4004 C 33.7402 -11.1816 33.8867 -11.5234 34.3262 -11.9141 L 54.6875 -35.4492 C 59.2285 -40.8203 61.0352 -44.3359 61.0352 -48.6816 C 61.0352 -55.3711 56.2988 -59.6191 48.5352 -59.6191 C 41.0645 -59.6191 35.5957 -54.9316 35.2051 -48.584 C 35.2051 -47.5586 34.668 -46.9727 33.5449 -46.9727 C 32.6172 -46.9727 31.9336 -47.7051 31.9336 -48.6328 C 31.9336 -49.1699 32.0312 -49.6094 32.1289 -50.2441 C 33.252 -57.4219 40.2344 -62.5977 48.584 -62.5977 C 57.959 -62.5977 64.3066 -57.0801 64.3066 -48.5352 C 64.3066 -43.7012 61.9141 -39.3066 55.6641 -32.1777 L 38.1348 -11.7676 L 38.1348 -11.6211 L 64.3555 -11.6211 C 65.3809 -11.6211 65.8203 -10.9863 65.8203 -10.1562 C 65.8203 -9.42383 65.3809 -8.69141 64.3555 -8.69141 Z M 93.8965 -7.95898 C 85.1562 -7.95898 79.4434 -12.8418 77.4414 -18.8965 C 77.2949 -19.4336 77.2461 -19.6777 77.2461 -20.0195 C 77.2461 -20.9473 77.8809 -21.4355 78.6621 -21.4355 C 79.541 -21.4355 79.9316 -20.8008 80.127 -19.9219 C 81.543 -14.6973 87.3047 -10.9375 94.2871 -10.9375 C 102.686 -10.9375 109.033 -17.1387 109.033 -25.5371 C 109.033 -33.9844 102.979 -40.0391 94.5312 -40.0391 C 89.7949 -40.0391 85.6934 -38.1836 81.543 -33.3984 C 81.1523 -32.7637 80.6152 -32.5684 79.9316 -32.5684 C 78.9062 -32.5684 78.2227 -33.3008 78.2715 -34.4727 L 80.3223 -60.2539 C 80.4199 -61.4258 81.0547 -62.3047 82.3242 -62.3047 L 107.812 -62.3047 C 108.691 -62.3047 109.326 -61.7188 109.326 -60.8887 C 109.326 -60.0098 108.691 -59.4727 107.812 -59.4727 L 83.2031 -59.4727 L 81.3965 -36.3281 L 81.4453 -36.3281 C 84.6191 -40.4785 89.6973 -42.8223 94.9219 -42.8223 C 104.785 -42.8223 111.963 -35.498 111.963 -25.6348 C 111.963 -15.1367 104.492 -7.95898 93.8965 -7.95898 Z"/>
  </g>
  <g id="Black-M" transform="matrix(1 0 0 1 2870.97 1126)">
   <path d="M 62.4023 18.457 C 91.9922 18.457 116.113 -5.61523 116.113 -35.2051 C 116.113 -64.7949 91.9922 -88.8672 62.4023 -88.8672 C 32.8125 -88.8672 8.74023 -64.7949 8.74023 -35.2051 C 8.74023 -5.61523 32.8125 18.457 62.4023 18.457 Z M 42.7734 -16.8945 C 39.9414 -16.8945 37.5977 -18.7988 37.5977 -22.0215 C 37.5977 -24.1211 38.3789 -25.8789 40.332 -28.125 L 47.4121 -36.4746 C 49.6582 -39.0625 51.0742 -40.4785 51.0742 -42.3828 C 51.0742 -43.6035 49.8535 -44.7266 48.3887 -44.7266 C 47.0215 -44.7266 45.9473 -43.7988 45.5566 -42.4805 C 45.0684 -40.6738 43.75 -39.3066 41.1621 -39.3066 C 38.5254 -39.3066 36.8652 -41.1621 36.8652 -43.6523 C 36.8652 -44.6777 36.9629 -45.4102 37.207 -46.2891 C 38.5742 -51.1719 43.3105 -54.2969 48.8281 -54.2969 C 55.8594 -54.2969 60.1562 -49.6582 60.2539 -43.3105 C 60.3027 -39.1602 58.4961 -35.8887 54.6875 -31.4941 L 50.9277 -27.1484 L 50.9277 -26.6602 L 56.3477 -26.6602 C 59.5215 -26.6602 61.4746 -24.9023 61.4746 -21.875 C 61.4746 -18.7012 59.5215 -16.8945 56.3477 -16.8945 Z M 76.2207 -16.2109 C 70.6055 -16.2109 66.7969 -19.5312 65.5762 -21.875 C 64.9902 -22.9492 64.9414 -23.7793 64.9414 -24.6582 C 64.9414 -27.2949 67.041 -29.1504 69.3359 -29.1504 C 71.5332 -29.1504 72.2656 -27.7832 73.1934 -27.1484 C 74.2676 -26.416 75.0488 -25.2441 76.8066 -25.2441 C 78.8574 -25.2441 80.2734 -27.0996 80.2734 -29.2969 C 80.2734 -31.3965 78.8574 -33.1055 77.0996 -33.1055 C 75.8301 -33.1055 75 -32.666 73.8281 -31.8848 C 72.998 -31.3477 71.875 -30.7129 69.4336 -30.7129 C 66.4551 -30.7129 64.502 -32.6172 64.5996 -35.791 L 65.1855 -47.8516 C 65.4297 -51.5137 67.0898 -53.6621 70.2637 -53.6621 L 83.9355 -53.6621 C 86.9629 -53.6621 88.623 -52.1973 88.623 -49.2676 C 88.623 -46.3867 86.8652 -44.7266 83.9355 -44.7266 L 73.9746 -44.7266 L 73.4863 -37.6465 L 73.584 -37.6465 C 75 -39.7461 77.4414 -40.918 80.0781 -40.918 C 85.0586 -40.918 89.7949 -37.1094 89.7949 -29.9316 C 89.7949 -21.6309 84.9121 -16.2109 76.2207 -16.2109 Z"/>
  </g>
  <g id="Heavy-M" transform="matrix(1 0 0 1 2575.19 1126)">
   <path d="M 61.5234 17.5781 C 90.5273 17.5781 114.258 -6.15234 114.258 -35.2051 C 114.258 -64.2578 90.5273 -87.9883 61.4746 -87.9883 C 32.4707 -87.9883 8.74023 -64.2578 8.74023 -35.2051 C 8.74023 -6.15234 32.4707 17.5781 61.5234 17.5781 Z M 40.1367 -16.2598 C 37.5488 -16.2598 35.498 -18.0664 35.498 -20.9473 C 35.498 -22.7539 36.1328 -24.3164 37.8418 -26.2695 L 46.4355 -36.3281 C 48.7305 -39.0137 50.4395 -40.7715 50.4395 -43.0176 C 50.4395 -44.873 48.877 -46.2891 46.7773 -46.2891 C 44.873 -46.2891 43.457 -45.166 42.8223 -43.2129 C 42.2852 -41.5039 41.1133 -40.2344 38.8184 -40.2344 C 36.377 -40.2344 34.8145 -41.9434 34.8145 -44.3359 C 34.8145 -45.2148 34.9609 -45.9473 35.1562 -46.7285 C 36.5234 -51.709 41.4062 -55.0293 47.0703 -55.0293 C 54.3457 -55.0293 58.8379 -50.3906 58.9355 -43.8477 C 58.9844 -39.502 56.8848 -36.084 53.125 -31.7383 L 47.9004 -25.6348 L 47.9004 -25.1953 L 55.5176 -25.1953 C 58.3008 -25.1953 60.1074 -23.584 60.1074 -20.8496 C 60.1074 -17.9688 58.3008 -16.2598 55.5176 -16.2598 Z M 76.0254 -15.4785 C 70.2148 -15.4785 66.1133 -18.7988 64.8438 -21.6309 C 64.3066 -22.6074 64.2578 -23.4375 64.2578 -24.2676 C 64.2578 -26.709 66.1133 -28.418 68.2617 -28.418 C 70.2148 -28.418 71.0449 -27.1973 71.9238 -26.3672 C 73.0957 -25.0977 74.3652 -23.7793 76.5625 -23.7793 C 79.2969 -23.7793 81.1523 -25.9277 81.1523 -28.9062 C 81.1523 -31.5918 79.3457 -33.7402 76.9531 -33.7402 C 75.4395 -33.7402 74.4629 -33.252 73.0469 -32.1777 C 72.0215 -31.4453 70.9473 -30.9082 68.7012 -30.9082 C 65.8691 -30.9082 64.0137 -32.7637 64.1602 -35.8398 L 64.8926 -48.7793 C 65.0879 -52.2461 66.7969 -54.248 69.873 -54.248 L 84.4727 -54.248 C 87.1582 -54.248 88.6719 -52.8809 88.6719 -50.2441 C 88.6719 -47.6074 87.0605 -46.0938 84.4727 -46.0938 L 72.8516 -46.0938 L 72.2656 -37.5488 L 72.3633 -37.5488 C 73.8281 -39.7461 76.5625 -41.0156 79.3945 -41.0156 C 85.0586 -41.0156 89.9414 -36.7676 89.9414 -29.4434 C 89.9414 -20.9473 84.7656 -15.4785 76.0254 -15.4785 Z"/>
  </g>
  <g id="Bold-M" transform="matrix(1 0 0 1 2279.5 1126)">
   <path d="M 60.498 16.5039 C 88.8672 16.5039 112.207 -6.78711 112.207 -35.2051 C 112.207 -63.623 88.8672 -86.9629 60.4492 -86.9629 C 32.0312 -86.9629 8.74023 -63.623 8.74023 -35.2051 C 8.74023 -6.78711 32.0801 16.5039 60.498 16.5039 Z M 37.207 -15.625 C 34.8633 -15.625 33.1055 -17.1875 33.1055 -19.7266 C 33.1055 -21.2402 33.6914 -22.5586 35.0586 -24.1211 L 45.3613 -36.2305 C 47.7051 -39.0137 49.707 -41.1133 49.707 -43.7012 C 49.707 -46.2402 47.8027 -48.0957 45.0195 -48.0957 C 42.4805 -48.0957 40.625 -46.6797 39.7949 -44.0918 C 39.209 -42.4316 38.1836 -41.3086 36.1328 -41.3086 C 33.9355 -41.3086 32.5195 -42.8223 32.5195 -45.0195 C 32.5195 -45.8496 32.666 -46.5332 32.8613 -47.2656 C 34.2285 -52.2949 39.3066 -55.8105 45.0684 -55.8105 C 52.6367 -55.8105 57.373 -51.1719 57.4707 -44.4824 C 57.4707 -39.8438 55.127 -36.377 51.3672 -31.9824 L 44.4336 -23.9746 L 44.4336 -23.5352 L 54.5898 -23.5352 C 56.9824 -23.5352 58.5449 -22.0703 58.5449 -19.6289 C 58.5449 -17.1387 56.9824 -15.625 54.5898 -15.625 Z M 75.8301 -14.6973 C 69.7754 -14.6973 65.332 -18.0176 63.9648 -21.3379 C 63.5742 -22.2168 63.4277 -23.0469 63.4277 -23.877 C 63.4277 -26.0254 65.0391 -27.6367 67.0898 -27.6367 C 68.75 -27.6367 69.6289 -26.5625 70.5078 -25.5371 C 71.7285 -23.584 73.6328 -22.1191 76.2695 -22.1191 C 79.7852 -22.1191 82.1777 -24.6094 82.1777 -28.4668 C 82.1777 -31.8359 79.9316 -34.4727 76.8066 -34.4727 C 75.0488 -34.4727 73.8281 -33.8867 72.168 -32.5684 C 70.9473 -31.5918 69.873 -31.1035 67.8711 -31.1035 C 65.1855 -31.1035 63.5254 -32.9102 63.6719 -35.8887 L 64.5508 -49.8535 C 64.7461 -53.0762 66.5039 -54.9316 69.4336 -54.9316 L 85.1074 -54.9316 C 87.3535 -54.9316 88.7207 -53.6621 88.7207 -51.3672 C 88.7207 -49.0234 87.2559 -47.6562 85.1074 -47.6562 L 71.6309 -47.6562 L 70.8984 -37.5 L 71.0449 -37.5 C 72.5586 -39.6973 75.5859 -41.1621 78.6133 -41.1621 C 85.0586 -41.1621 90.1367 -36.3281 90.1367 -28.8086 C 90.1367 -20.166 84.668 -14.6973 75.8301 -14.6973 Z"/>
  </g>
  <g id="Semibold-M" transform="matrix(1 0 0 1 1983.5 1126)">
   <path d="M 59.7656 15.8203 C 87.7441 15.8203 110.791 -7.22656 110.791 -35.2051 C 110.791 -63.1836 87.6953 -86.2793 59.7656 -86.2793 C 31.7871 -86.2793 8.74023 -63.1836 8.74023 -35.2051 C 8.74023 -7.22656 31.7871 15.8203 59.7656 15.8203 Z M 35.2051 -15.1367 C 33.0078 -15.1367 31.4941 -16.6016 31.4941 -18.8477 C 31.4941 -20.166 31.9824 -21.3379 33.1055 -22.6562 L 44.5801 -36.1816 C 46.9727 -38.9648 49.2676 -41.3574 49.2676 -44.1895 C 49.2676 -47.2168 47.0215 -49.3164 43.7988 -49.3164 C 40.8203 -49.3164 38.7207 -47.7539 37.6953 -44.6777 C 37.1094 -43.0664 36.1328 -42.041 34.3262 -42.041 C 32.2754 -42.041 30.957 -43.457 30.957 -45.5078 C 30.957 -46.2402 31.1035 -46.9238 31.25 -47.6074 C 32.6172 -52.7344 37.8418 -56.3965 43.7012 -56.3965 C 51.4648 -56.3965 56.3965 -51.7578 56.4453 -44.9219 C 56.4453 -40.1367 53.9062 -36.5234 50.1465 -32.1289 L 42.0898 -22.8027 L 42.0898 -22.3633 L 53.9551 -22.3633 C 56.0547 -22.3633 57.5195 -21.0449 57.5195 -18.8477 C 57.5195 -16.5527 56.0547 -15.1367 53.9551 -15.1367 Z M 75.6836 -14.1602 C 69.4824 -14.1602 64.7949 -17.4805 63.3789 -21.1426 C 63.0371 -21.9727 62.8906 -22.7539 62.8906 -23.584 C 62.8906 -25.5859 64.3555 -27.0508 66.2598 -27.0508 C 67.7734 -27.0508 68.6523 -26.123 69.4824 -24.9023 C 70.8496 -22.5586 73.0957 -20.9473 76.0742 -20.9473 C 80.127 -20.9473 82.8613 -23.7305 82.8613 -28.125 C 82.8613 -31.9824 80.3223 -34.9609 76.6602 -34.9609 C 74.7559 -34.9609 73.3887 -34.3262 71.5332 -32.8125 C 70.166 -31.6895 69.1406 -31.25 67.2852 -31.25 C 64.7461 -31.25 63.1836 -33.0078 63.3301 -35.8887 L 64.3555 -50.5859 C 64.5508 -53.6133 66.3086 -55.4199 69.1406 -55.4199 L 85.498 -55.4199 C 87.5 -55.4199 88.7207 -54.1504 88.7207 -52.0996 C 88.7207 -50 87.4512 -48.6816 85.498 -48.6816 L 70.752 -48.6816 L 69.9219 -37.4512 L 70.1172 -37.4512 C 71.6309 -39.6973 74.9023 -41.2109 78.125 -41.2109 C 85.1074 -41.2109 90.2344 -36.084 90.2344 -28.418 C 90.2344 -19.6289 84.5703 -14.1602 75.6836 -14.1602 Z"/>
  </g>
  <g id="Medium-M" transform="matrix(1 0 0 1 1687.3 1126)">
   <path d="M 59.2285 15.2832 C 86.9141 15.2832 109.766 -7.56836 109.766 -35.2051 C 109.766 -62.8906 86.8652 -85.7422 59.1797 -85.7422 C 31.543 -85.7422 8.74023 -62.8906 8.74023 -35.2051 C 8.74023 -7.56836 31.5918 15.2832 59.2285 15.2832 Z M 33.6426 -14.7949 C 31.6406 -14.7949 30.2246 -16.1133 30.2246 -18.2129 C 30.2246 -19.3848 30.6641 -20.459 31.6406 -21.582 L 44.043 -36.1328 C 46.4355 -38.9648 48.877 -41.5039 48.877 -44.5801 C 48.877 -47.9492 46.4844 -50.2441 42.8711 -50.2441 C 39.5508 -50.2441 37.2559 -48.5352 36.084 -45.1172 C 35.498 -43.5547 34.6191 -42.5781 32.9102 -42.5781 C 31.0059 -42.5781 29.7852 -43.8965 29.7852 -45.8984 C 29.7852 -46.582 29.8828 -47.2168 30.0293 -47.8516 C 31.3965 -53.0273 36.7188 -56.7871 42.6758 -56.7871 C 50.5859 -56.7871 55.6152 -52.1973 55.6641 -45.2148 C 55.6641 -40.2832 52.9785 -36.6699 49.2188 -32.2754 L 40.2832 -21.875 L 40.2832 -21.4844 L 53.4668 -21.4844 C 55.3711 -21.4844 56.7383 -20.3125 56.7383 -18.2129 C 56.7383 -16.1133 55.3711 -14.7949 53.4668 -14.7949 Z M 75.5371 -13.7207 C 69.2383 -13.7207 64.4043 -17.041 62.9395 -20.9961 C 62.5977 -21.7773 62.5 -22.5586 62.5 -23.3887 C 62.5 -25.2441 63.7695 -26.6113 65.625 -26.6113 C 66.9922 -26.6113 67.9199 -25.8301 68.75 -24.4629 C 70.1172 -21.8262 72.7051 -20.1172 75.8789 -20.1172 C 80.3711 -20.1172 83.3984 -23.0469 83.3984 -27.8809 C 83.3984 -32.1289 80.6152 -35.3516 76.6113 -35.3516 C 74.5117 -35.3516 73.0469 -34.6191 71.0938 -32.959 C 69.6289 -31.7871 68.6035 -31.3477 66.8457 -31.3477 C 64.4043 -31.3477 62.8906 -33.1055 63.0371 -35.8887 L 64.1602 -51.1719 C 64.3555 -54.0527 66.1133 -55.7617 68.8965 -55.7617 L 85.791 -55.7617 C 87.5977 -55.7617 88.7695 -54.541 88.7695 -52.6855 C 88.7695 -50.7324 87.5488 -49.5117 85.791 -49.5117 L 70.1172 -49.5117 L 69.2383 -37.4023 L 69.4336 -37.4023 C 70.9473 -39.6484 74.4141 -41.2598 77.6855 -41.2598 C 85.1074 -41.2598 90.332 -35.8887 90.332 -28.0762 C 90.332 -19.1895 84.4727 -13.7207 75.5371 -13.7207 Z"/>
  </g>
  <g id="Regular-M" transform="matrix(1 0 0 1 1391.3 1126)">
   <path d="M 58.5449 14.5508 C 85.791 14.5508 108.35 -8.00781 108.35 -35.2539 C 108.35 -62.4512 85.7422 -85.0586 58.4961 -85.0586 C 31.2988 -85.0586 8.74023 -62.4512 8.74023 -35.2539 C 8.74023 -8.00781 31.3477 14.5508 58.5449 14.5508 Z M 31.6406 -14.3555 C 29.7852 -14.3555 28.6133 -15.5273 28.6133 -17.3828 C 28.6133 -18.3594 29.0039 -19.2383 29.7363 -20.1172 L 43.3105 -36.0352 C 45.752 -38.916 48.3887 -41.748 48.3887 -45.0684 C 48.3887 -48.877 45.752 -51.4648 41.6504 -51.4648 C 37.9395 -51.4648 35.3027 -49.5605 34.0332 -45.7031 C 33.3984 -44.1895 32.6172 -43.3105 31.1035 -43.3105 C 29.3457 -43.3105 28.2227 -44.5312 28.2227 -46.3867 C 28.2227 -46.9727 28.3691 -47.6074 28.4668 -48.1934 C 29.834 -53.4668 35.2539 -57.3242 41.3574 -57.3242 C 49.4141 -57.3242 54.6387 -52.7344 54.6387 -45.6543 C 54.6387 -40.5762 51.7578 -36.8164 47.998 -32.4219 L 37.9883 -20.752 L 37.9883 -20.3613 L 52.832 -20.3613 C 54.4434 -20.3613 55.6641 -19.2871 55.6641 -17.3828 C 55.6641 -15.5273 54.4434 -14.3555 52.832 -14.3555 Z M 75.3906 -13.1836 C 68.9453 -13.1836 63.8672 -16.5039 62.3535 -20.8008 C 62.1094 -21.4844 61.9141 -22.2656 61.9141 -23.1445 C 61.9141 -24.8047 63.0859 -26.0742 64.7949 -26.0742 C 65.9668 -26.0742 66.9922 -25.3906 67.7734 -23.877 C 69.2383 -20.8008 72.2168 -18.9453 75.6836 -18.9453 C 80.7129 -18.9453 84.082 -22.168 84.082 -27.5879 C 84.082 -32.2754 81.0059 -35.8398 76.4648 -35.8398 C 74.2676 -35.8398 72.6074 -35.0586 70.459 -33.252 C 68.8477 -31.8848 67.8711 -31.4941 66.3086 -31.4941 C 63.9648 -31.4941 62.5488 -33.2031 62.6953 -35.9375 L 63.9648 -51.9043 C 64.1113 -54.6387 65.918 -56.25 68.6035 -56.25 L 86.2305 -56.25 C 87.7441 -56.25 88.8184 -55.0781 88.8184 -53.418 C 88.8184 -51.709 87.6953 -50.5371 86.2305 -50.5371 L 69.2871 -50.5371 L 68.3105 -37.3535 L 68.5059 -37.3535 C 70.0684 -39.6484 73.7305 -41.3574 77.1973 -41.3574 C 85.1074 -41.3574 90.4297 -35.5957 90.4297 -27.6855 C 90.4297 -18.6523 84.4238 -13.1836 75.3906 -13.1836 Z"/>
  </g>
  <g id="Light-M" transform="matrix(1 0 0 1 1095.42 1126)">
   <path d="M 57.7148 13.7695 C 84.5215 13.7695 106.689 -8.39844 106.689 -35.2051 C 106.689 -62.0117 84.5215 -84.1797 57.666 -84.1797 C 30.8594 -84.1797 8.74023 -62.0117 8.74023 -35.2051 C 8.74023 -8.39844 30.9082 13.7695 57.7148 13.7695 Z M 30.4199 -14.4531 C 28.8574 -14.4531 27.8809 -15.4297 27.8809 -16.9434 C 27.8809 -17.8223 28.125 -18.5059 28.7598 -19.1895 L 43.0176 -35.8398 C 45.8008 -39.1113 48.0469 -41.8945 48.0469 -45.2637 C 48.0469 -49.5117 45.0684 -52.2949 40.3809 -52.2949 C 36.0352 -52.2949 32.9102 -49.8535 31.9336 -45.6543 C 31.4941 -44.3848 30.8105 -43.6035 29.541 -43.6035 C 28.0762 -43.6035 27.1484 -44.6289 27.1484 -46.1426 C 27.1484 -46.6797 27.2461 -47.2168 27.3438 -47.8027 C 28.5645 -53.125 33.9844 -57.0801 40.1855 -57.0801 C 48.0469 -57.0801 53.125 -52.5879 53.125 -45.6055 C 53.125 -40.918 50.5859 -37.3047 46.5332 -32.5684 L 35.3516 -19.5801 L 35.3516 -19.3359 L 51.9043 -19.3359 C 53.2715 -19.3359 54.248 -18.4082 54.248 -16.8945 C 54.248 -15.4297 53.2715 -14.4531 51.9043 -14.4531 Z M 74.5605 -13.4766 C 68.0176 -13.4766 63.1836 -16.9434 61.6211 -21.3379 C 61.4258 -21.9727 61.2793 -22.5586 61.2793 -23.2422 C 61.2793 -24.6094 62.2559 -25.5859 63.623 -25.5859 C 64.6484 -25.5859 65.4297 -24.9512 66.0156 -23.7305 C 67.334 -20.3125 70.8008 -18.1641 74.9023 -18.1641 C 80.3223 -18.1641 84.2285 -21.875 84.2285 -27.6367 C 84.2285 -32.8613 80.6152 -36.8164 75.4883 -36.8164 C 72.8027 -36.8164 70.7031 -35.8398 68.2129 -33.3984 C 66.9922 -32.3242 66.2109 -32.0312 64.9414 -32.0312 C 63.0859 -32.0312 61.9629 -33.3984 62.0605 -35.5469 L 63.4277 -52.7344 C 63.5742 -54.8828 64.9414 -56.25 67.0898 -56.25 L 85.4004 -56.25 C 86.6699 -56.25 87.5488 -55.2734 87.5488 -53.9551 C 87.5488 -52.5879 86.6211 -51.6113 85.4004 -51.6113 L 67.7734 -51.6113 L 66.6992 -36.9629 L 66.8457 -36.9629 C 68.6523 -39.5508 72.4121 -41.2598 76.0742 -41.2598 C 83.8867 -41.2598 89.3066 -35.5469 89.3066 -27.7344 C 89.3066 -18.9941 83.3496 -13.4766 74.5605 -13.4766 Z"/>
  </g>
  <g id="Thin-M" transform="matrix(1 0 0 1 799.806 1126)">
   <path d="M 56.6406 12.7441 C 82.9102 12.7441 104.492 -8.83789 104.492 -35.1562 C 104.492 -61.4746 82.9102 -83.0566 56.5918 -83.0566 C 30.3223 -83.0566 8.74023 -61.4746 8.74023 -35.1562 C 8.74023 -8.83789 30.3223 12.7441 56.6406 12.7441 Z M 28.7598 -14.5508 C 27.6367 -14.5508 26.8555 -15.2832 26.8555 -16.4062 C 26.8555 -17.0898 27.0508 -17.5293 27.4902 -18.0176 L 42.627 -35.5957 C 45.8496 -39.3555 47.6074 -42.1387 47.6074 -45.5078 C 47.6074 -50.293 44.2383 -53.3691 38.7207 -53.3691 C 33.5449 -53.3691 29.7363 -50.2441 29.1504 -45.6055 C 29.0039 -44.6289 28.4668 -44.043 27.4414 -44.043 C 26.416 -44.043 25.7324 -44.7754 25.7324 -45.8008 C 25.7324 -46.2891 25.8301 -46.7285 25.8789 -47.2168 C 26.9043 -52.7344 32.3242 -56.6895 38.6719 -56.6895 C 46.1914 -56.6895 51.1719 -52.3438 51.1719 -45.5566 C 51.1719 -41.4551 49.0723 -37.9395 44.5312 -32.7637 L 31.9336 -18.0664 L 31.9336 -17.9199 L 50.6836 -17.9199 C 51.709 -17.9199 52.3438 -17.2363 52.3438 -16.2598 C 52.3438 -15.332 51.709 -14.5508 50.6836 -14.5508 Z M 73.4863 -13.8184 C 66.8457 -13.8184 62.207 -17.4805 60.6934 -22.0703 C 60.498 -22.5586 60.4492 -22.9492 60.4492 -23.3398 C 60.4492 -24.3652 61.1328 -24.9512 62.0117 -24.9512 C 62.8418 -24.9512 63.3789 -24.4141 63.6719 -23.5352 C 64.8926 -19.7266 68.9453 -17.1387 73.8281 -17.1387 C 79.8828 -17.1387 84.375 -21.4844 84.375 -27.6855 C 84.375 -33.6914 80.127 -38.0859 74.1699 -38.0859 C 70.8984 -38.0859 68.1641 -36.8652 65.2344 -33.6426 C 64.5508 -32.9102 64.0137 -32.7148 63.1836 -32.7148 C 61.9629 -32.7148 61.1328 -33.5938 61.2305 -35.0098 L 62.7441 -53.8574 C 62.793 -55.2734 63.6719 -56.2012 65.1367 -56.2012 L 84.2773 -56.2012 C 85.2051 -56.2012 85.8887 -55.5664 85.8887 -54.6387 C 85.8887 -53.6621 85.2051 -53.0273 84.2773 -53.0273 L 65.8203 -53.0273 L 64.5508 -36.4258 L 64.6484 -36.4258 C 66.7969 -39.4043 70.7031 -41.1621 74.5605 -41.1621 C 82.2754 -41.1621 87.793 -35.498 87.793 -27.7832 C 87.793 -19.3848 81.9336 -13.8184 73.4863 -13.8184 Z"/>
  </g>
  <g id="Ultralight-M" transform="matrix(1 0 0 1 503.656 1126)">
   <path d="M 56.0547 12.207 C 82.0801 12.207 103.369 -9.08203 103.369 -35.1562 C 103.369 -61.1816 82.0801 -82.4707 56.0547 -82.4707 C 30.0293 -82.4707 8.74023 -61.1816 8.74023 -35.1562 C 8.74023 -9.08203 30.0293 12.207 56.0547 12.207 Z M 27.9297 -14.6484 C 27.002 -14.6484 26.3184 -15.1855 26.3184 -16.1133 C 26.3184 -16.6992 26.4648 -17.041 26.8066 -17.3828 L 42.4316 -35.4492 C 45.8984 -39.502 47.3633 -42.2363 47.3633 -45.6055 C 47.3633 -50.6836 43.7988 -53.9551 37.8906 -53.9551 C 32.2754 -53.9551 28.125 -50.4395 27.7344 -45.6055 C 27.6855 -44.7266 27.2949 -44.2383 26.3672 -44.2383 C 25.5371 -44.2383 25 -44.873 25 -45.6543 C 25 -46.0938 25.0488 -46.4355 25.1465 -46.9727 C 26.0742 -52.4902 31.4941 -56.4941 37.8906 -56.4941 C 45.2637 -56.4941 50.1465 -52.1973 50.1465 -45.5566 C 50.1465 -41.6992 48.2422 -38.2812 43.5059 -32.8613 L 30.1758 -17.334 L 30.1758 -17.1875 L 50.0488 -17.1875 C 50.9277 -17.1875 51.3672 -16.6504 51.3672 -15.918 C 51.3672 -15.2344 50.9277 -14.6484 50.0488 -14.6484 Z M 72.9492 -14.0137 C 66.2109 -14.0137 61.7188 -17.7734 60.1562 -22.4609 C 60.0586 -22.9004 60.0098 -23.1445 60.0098 -23.4375 C 60.0098 -24.2188 60.5469 -24.6582 61.2305 -24.6582 C 61.9629 -24.6582 62.3047 -24.1211 62.5 -23.3887 C 63.623 -19.3848 68.0176 -16.6016 73.2422 -16.6016 C 79.6387 -16.6016 84.4727 -21.2891 84.4727 -27.7344 C 84.4727 -34.1309 79.8828 -38.7207 73.4863 -38.7207 C 69.9219 -38.7207 66.8457 -37.3535 63.7207 -33.7891 C 63.2812 -33.252 62.8906 -33.0566 62.2559 -33.0566 C 61.377 -33.0566 60.7422 -33.6914 60.791 -34.7168 L 62.3535 -54.4434 C 62.4512 -55.4688 63.0371 -56.2012 64.1113 -56.2012 L 83.7402 -56.2012 C 84.4727 -56.2012 85.0098 -55.7129 85.0098 -54.9805 C 85.0098 -54.248 84.4727 -53.7598 83.7402 -53.7598 L 64.7949 -53.7598 L 63.4277 -36.1816 L 63.4766 -36.1816 C 65.8691 -39.3066 69.8242 -41.1133 73.8281 -41.1133 C 81.4453 -41.1133 87.0117 -35.4492 87.0117 -27.7832 C 87.0117 -19.5801 81.25 -14.0137 72.9492 -14.0137 Z"/>
  </g>
  <g id="Black-S" transform="matrix(1 0 0 1 2884.57 696)">
   <path d="M 48.8281 6.78711 C 71.9727 6.78711 90.8203 -12.0605 90.8203 -35.2051 C 90.8203 -58.3496 71.9727 -77.1973 48.8281 -77.1973 C 25.6836 -77.1973 6.83594 -58.3496 6.83594 -35.2051 C 6.83594 -12.0605 25.6836 6.78711 48.8281 6.78711 Z M 33.3008 -20.8008 C 31.1035 -20.8008 29.2969 -22.3145 29.2969 -24.8047 C 29.2969 -26.416 29.8828 -27.7832 31.3965 -29.541 L 37.0605 -36.1816 C 38.8184 -38.2324 39.9414 -39.3555 39.9414 -40.8691 C 39.9414 -41.8945 38.9648 -42.7734 37.793 -42.7734 C 36.6699 -42.7734 35.8398 -42.041 35.498 -40.9668 C 35.1074 -39.5508 34.082 -38.4766 32.0801 -38.4766 C 30.0293 -38.4766 28.7109 -39.9414 28.7109 -41.8945 C 28.7109 -42.6758 28.8086 -43.2617 29.0039 -43.9453 C 30.0781 -47.7539 33.7891 -50.2441 38.1348 -50.2441 C 43.6523 -50.2441 47.0215 -46.582 47.1191 -41.6016 C 47.168 -38.3301 45.7031 -35.7422 42.7246 -32.3242 L 39.6973 -28.8086 L 39.6973 -28.418 L 44.0918 -28.418 C 46.5332 -28.418 48.0469 -27.0508 48.0469 -24.707 C 48.0469 -22.2168 46.5332 -20.8008 44.0918 -20.8008 Z M 59.7168 -20.2637 C 55.2734 -20.2637 52.2949 -22.8516 51.3184 -24.7559 C 50.8789 -25.5859 50.8301 -26.2207 50.8301 -26.9043 C 50.8301 -28.9551 52.4414 -30.4199 54.248 -30.4199 C 55.957 -30.4199 56.543 -29.3457 57.2754 -28.8574 C 58.1055 -28.2227 58.7402 -27.2949 60.1562 -27.2949 C 61.8164 -27.2949 62.9395 -28.7598 62.9395 -30.5664 C 62.9395 -32.2266 61.8164 -33.5938 60.4004 -33.5938 C 59.375 -33.5938 58.7402 -33.252 57.8125 -32.6172 C 57.1289 -32.1777 56.25 -31.6895 54.3457 -31.6895 C 52.002 -31.6895 50.4883 -33.2031 50.5859 -35.6934 L 51.0254 -45.166 C 51.2207 -48.0469 52.5391 -49.707 55.0293 -49.707 L 65.8203 -49.707 C 68.1641 -49.707 69.4336 -48.584 69.4336 -46.2891 C 69.4336 -44.043 68.0664 -42.7734 65.8203 -42.7734 L 57.8613 -42.7734 L 57.4707 -37.1094 L 57.5684 -37.1094 C 58.6914 -38.7695 60.5957 -39.6973 62.6953 -39.6973 C 66.6504 -39.6973 70.3613 -36.6699 70.3613 -31.0547 C 70.3613 -24.5117 66.5039 -20.2637 59.7168 -20.2637 Z"/>
  </g>
  <g id="Heavy-S" transform="matrix(1 0 0 1 2588.47 696)">
   <path d="M 48.2422 6.15234 C 70.9961 6.15234 89.5996 -12.4512 89.5996 -35.2051 C 89.5996 -57.959 70.9961 -76.6113 48.1934 -76.6113 C 25.4395 -76.6113 6.83594 -57.959 6.83594 -35.2051 C 6.83594 -12.4512 25.4395 6.15234 48.2422 6.15234 Z M 31.4453 -20.3125 C 29.3945 -20.3125 27.7832 -21.7285 27.7832 -24.0234 C 27.7832 -25.4395 28.2715 -26.6602 29.5898 -28.1738 L 36.3281 -36.1328 C 38.0859 -38.1836 39.502 -39.5508 39.502 -41.3574 C 39.502 -42.7734 38.2812 -43.8965 36.7188 -43.8965 C 35.2539 -43.8965 34.1797 -43.0664 33.6426 -41.5527 C 33.2031 -40.1855 32.2754 -39.1602 30.4199 -39.1602 C 28.5156 -39.1602 27.2949 -40.5273 27.2949 -42.4316 C 27.2949 -43.1152 27.3926 -43.7012 27.5391 -44.3359 C 28.6621 -48.1934 32.4707 -50.8301 36.9141 -50.8301 C 42.627 -50.8301 46.1914 -47.168 46.2891 -42.041 C 46.2891 -38.5254 44.6289 -35.8398 41.6992 -32.4707 L 37.6465 -27.7832 L 37.6465 -27.3926 L 43.5547 -27.3926 C 45.752 -27.3926 47.168 -26.123 47.168 -23.9746 C 47.168 -21.6797 45.752 -20.3125 43.5547 -20.3125 Z M 59.668 -19.6777 C 55.0781 -19.6777 51.8555 -22.2656 50.8301 -24.5117 C 50.4395 -25.293 50.3418 -25.9277 50.3418 -26.6113 C 50.3418 -28.5156 51.8066 -29.9316 53.5645 -29.9316 C 55.0781 -29.9316 55.7617 -28.9551 56.4941 -28.2715 C 57.4219 -27.2461 58.3984 -26.2695 60.0586 -26.2695 C 62.207 -26.2695 63.623 -27.9297 63.623 -30.2246 C 63.623 -32.3242 62.2559 -33.9844 60.4004 -33.9844 C 59.2773 -33.9844 58.4961 -33.5938 57.4707 -32.8613 C 56.5918 -32.2266 55.7129 -31.7871 53.9062 -31.7871 C 51.6602 -31.7871 50.1953 -33.3008 50.293 -35.7422 L 50.8789 -45.8008 C 51.0742 -48.584 52.4414 -50.1953 54.8828 -50.1953 L 66.3086 -50.1953 C 68.4082 -50.1953 69.6289 -49.0723 69.6289 -46.9727 C 69.6289 -44.9219 68.3594 -43.7012 66.3086 -43.7012 L 57.1777 -43.7012 L 56.7383 -37.1094 L 56.8359 -37.1094 C 57.959 -38.7695 60.0586 -39.7949 62.3047 -39.7949 C 66.7969 -39.7949 70.6055 -36.4258 70.6055 -30.6641 C 70.6055 -23.9258 66.5527 -19.6777 59.668 -19.6777 Z"/>
  </g>
  <g id="Bold-S" transform="matrix(1 0 0 1 2292.44 696)">
   <path d="M 47.5586 5.46875 C 69.873 5.46875 88.2324 -12.8906 88.2324 -35.2051 C 88.2324 -57.5684 69.873 -75.9277 47.5098 -75.9277 C 25.1953 -75.9277 6.83594 -57.5684 6.83594 -35.2051 C 6.83594 -12.8906 25.1953 5.46875 47.5586 5.46875 Z M 29.3457 -19.8242 C 27.4414 -19.8242 26.0254 -21.0938 26.0254 -23.1445 C 26.0254 -24.3652 26.5137 -25.4395 27.5879 -26.709 L 35.5469 -36.084 C 37.3047 -38.1348 39.0137 -39.7949 39.0137 -41.8457 C 39.0137 -43.75 37.5488 -45.166 35.498 -45.166 C 33.6426 -45.166 32.3242 -44.1895 31.5918 -42.1875 C 31.1035 -40.8691 30.2246 -39.9414 28.6133 -39.9414 C 26.8066 -39.9414 25.6836 -41.2109 25.6836 -43.0176 C 25.6836 -43.6523 25.7812 -44.1895 25.9277 -44.7754 C 27.0508 -48.7305 31.0059 -51.4648 35.5469 -51.4648 C 41.5039 -51.4648 45.2637 -47.8027 45.3125 -42.4805 C 45.3613 -38.7695 43.4082 -35.9863 40.5273 -32.666 L 35.3516 -26.6113 L 35.3516 -26.2695 L 42.9688 -26.2695 C 44.873 -26.2695 46.1914 -25.0977 46.1914 -23.0957 C 46.1914 -21.0449 44.873 -19.8242 42.9688 -19.8242 Z M 59.5703 -19.043 C 54.8828 -19.043 51.3184 -21.6309 50.2441 -24.2188 C 49.9023 -24.9023 49.8047 -25.5859 49.8047 -26.3184 C 49.8047 -28.0762 51.123 -29.3457 52.7832 -29.3457 C 54.1504 -29.3457 54.8828 -28.5156 55.6152 -27.6367 C 56.6406 -26.1719 58.0078 -25.0977 59.9121 -25.0977 C 62.5977 -25.0977 64.3555 -26.9531 64.3555 -29.8828 C 64.3555 -32.4219 62.6953 -34.4238 60.4004 -34.4238 C 59.1309 -34.4238 58.252 -33.9844 57.0312 -33.1055 C 56.0059 -32.2754 55.127 -31.8848 53.4668 -31.8848 C 51.2695 -31.8848 49.9023 -33.3984 50 -35.8398 L 50.6836 -46.5332 C 50.8789 -49.1699 52.2949 -50.6836 54.7363 -50.6836 L 66.8945 -50.6836 C 68.7012 -50.6836 69.8242 -49.6094 69.8242 -47.7539 C 69.8242 -45.8984 68.6523 -44.7266 66.8945 -44.7266 L 56.4453 -44.7266 L 55.8594 -37.1094 L 56.0059 -37.1094 C 57.1289 -38.7695 59.4727 -39.8926 61.8652 -39.8926 C 66.9434 -39.8926 70.8984 -36.084 70.8984 -30.1758 C 70.8984 -23.291 66.5527 -19.043 59.5703 -19.043 Z"/>
  </g>
  <g id="Semibold-S" transform="matrix(1 0 0 1 1996.2 696)">
   <path d="M 47.0703 4.98047 C 69.0918 4.98047 87.3047 -13.1836 87.3047 -35.2539 C 87.3047 -57.2754 69.0918 -75.4883 47.0215 -75.4883 C 25 -75.4883 6.83594 -57.2754 6.83594 -35.2539 C 6.83594 -13.1836 25.0488 4.98047 47.0703 4.98047 Z M 27.9297 -19.4336 C 26.123 -19.4336 24.8535 -20.6543 24.8535 -22.5098 C 24.8535 -23.584 25.2441 -24.5605 26.2207 -25.6348 L 35.0098 -36.0352 C 36.7676 -38.0859 38.6719 -39.9902 38.6719 -42.2363 C 38.6719 -44.4336 37.0117 -46.0449 34.668 -46.0449 C 32.5195 -46.0449 31.0547 -44.9707 30.127 -42.6758 C 29.5898 -41.3574 28.8086 -40.4785 27.3438 -40.4785 C 25.6348 -40.4785 24.5605 -41.6504 24.5605 -43.4082 C 24.5605 -43.9941 24.6582 -44.5312 24.8047 -45.0684 C 25.9277 -49.0723 29.9805 -51.9043 34.5703 -51.9043 C 40.7227 -51.9043 44.6289 -48.2422 44.6777 -42.8223 C 44.6777 -38.916 42.5781 -36.084 39.7461 -32.7637 L 33.7402 -25.8301 L 33.7402 -25.4883 L 42.5781 -25.4883 C 44.2871 -25.4883 45.5078 -24.4141 45.5078 -22.5098 C 45.5078 -20.6055 44.2871 -19.4336 42.5781 -19.4336 Z M 59.5215 -18.6035 C 54.6875 -18.6035 50.9766 -21.1426 49.8535 -24.0234 C 49.5605 -24.6582 49.4629 -25.3418 49.4629 -26.0742 C 49.4629 -27.7344 50.6348 -28.9551 52.2461 -28.9551 C 53.4668 -28.9551 54.2969 -28.2227 54.9805 -27.1973 C 56.0547 -25.4395 57.7148 -24.2676 59.8145 -24.2676 C 62.8906 -24.2676 64.8926 -26.3184 64.8926 -29.6387 C 64.8926 -32.4707 63.0371 -34.7168 60.4004 -34.7168 C 59.0332 -34.7168 58.1055 -34.2773 56.7871 -33.252 C 55.5664 -32.3242 54.6875 -31.9336 53.125 -31.9336 C 50.9766 -31.9336 49.6582 -33.4473 49.8047 -35.8887 L 50.5859 -47.0215 C 50.7324 -49.5605 52.2461 -51.0742 54.6387 -51.0742 L 67.2852 -51.0742 C 68.8965 -51.0742 69.9219 -50 69.9219 -48.291 C 69.9219 -46.582 68.8477 -45.459 67.2852 -45.459 L 55.9082 -45.459 L 55.3223 -37.1094 L 55.4688 -37.1094 C 56.543 -38.7695 59.082 -39.9414 61.5234 -39.9414 C 67.041 -39.9414 71.0938 -35.8887 71.0938 -29.8828 C 71.0938 -22.9004 66.6016 -18.6035 59.5215 -18.6035 Z"/>
  </g>
  <g id="Medium-S" transform="matrix(1 0 0 1 1699.83 696)">
   <path d="M 46.7285 4.63867 C 68.5547 4.63867 86.6211 -13.4277 86.6211 -35.2539 C 86.6211 -57.0312 68.5059 -75.1465 46.6797 -75.1465 C 24.8535 -75.1465 6.83594 -57.0312 6.83594 -35.2539 C 6.83594 -13.4277 24.9023 4.63867 46.7285 4.63867 Z M 26.8066 -19.1895 C 25.0977 -19.1895 23.9746 -20.3125 23.9746 -22.0703 C 23.9746 -23.0469 24.3164 -23.9258 25.1465 -24.8535 L 34.5703 -35.9863 C 36.3281 -38.0371 38.4277 -40.0879 38.4277 -42.4805 C 38.4277 -44.9707 36.6211 -46.6797 34.0332 -46.6797 C 31.6895 -46.6797 30.0781 -45.5566 29.0527 -43.0176 C 28.5156 -41.6992 27.7832 -40.8691 26.416 -40.8691 C 24.7559 -40.8691 23.7305 -41.9922 23.7305 -43.7012 C 23.7305 -44.2383 23.8281 -44.7754 23.9258 -45.3125 C 25.0977 -49.3164 29.248 -52.2461 33.8867 -52.2461 C 40.1367 -52.2461 44.1406 -48.584 44.1895 -43.0664 C 44.1895 -39.0625 41.9434 -36.1816 39.1113 -32.8613 L 32.5684 -25.2441 L 32.5684 -24.9023 L 42.2363 -24.9023 C 43.7988 -24.9023 44.9707 -23.877 44.9707 -22.0703 C 44.9707 -20.2637 43.7988 -19.1895 42.2363 -19.1895 Z M 59.4727 -18.2617 C 54.5898 -18.2617 50.7324 -20.8008 49.5605 -23.877 C 49.3164 -24.4629 49.1699 -25.1953 49.1699 -25.9277 C 49.1699 -27.4902 50.293 -28.6621 51.8555 -28.6621 C 52.9785 -28.6621 53.8086 -28.0273 54.541 -26.8555 C 55.6641 -24.9023 57.5195 -23.6816 59.7656 -23.6816 C 63.0859 -23.6816 65.2832 -25.7812 65.2832 -29.4434 C 65.2832 -32.5684 63.2812 -34.9609 60.4004 -34.9609 C 58.9355 -34.9609 57.959 -34.4727 56.543 -33.3984 C 55.2734 -32.373 54.3945 -31.9824 52.8809 -31.9824 C 50.7812 -31.9824 49.5117 -33.4961 49.6094 -35.9375 L 50.4883 -47.4121 C 50.6348 -49.9023 52.1973 -51.3672 54.541 -51.3672 L 67.5781 -51.3672 C 69.043 -51.3672 70.0195 -50.293 70.0195 -48.7305 C 70.0195 -47.0703 68.9941 -45.9961 67.5781 -45.9961 L 55.5176 -45.9961 L 54.8828 -37.1094 L 55.0293 -37.1094 C 56.1035 -38.7695 58.7891 -39.9902 61.3281 -39.9902 C 67.1387 -39.9902 71.2402 -35.7422 71.2402 -29.6387 C 71.2402 -22.5586 66.6016 -18.2617 59.4727 -18.2617 Z"/>
  </g>
  <g id="Regular-S" transform="matrix(1 0 0 1 1403.58 696)">
   <path d="M 46.2402 4.15039 C 67.7734 4.15039 85.6934 -13.7207 85.6934 -35.2539 C 85.6934 -56.7871 67.7246 -74.6582 46.1914 -74.6582 C 24.707 -74.6582 6.83594 -56.7871 6.83594 -35.2539 C 6.83594 -13.7207 24.7559 4.15039 46.2402 4.15039 Z M 25.3906 -18.7988 C 23.7793 -18.7988 22.8027 -19.873 22.8027 -21.4844 C 22.8027 -22.2656 23.0957 -23.0957 23.7793 -23.8281 L 34.0332 -35.9375 C 35.791 -38.0371 38.0859 -40.2832 38.0859 -42.8711 C 38.0859 -45.6543 36.1328 -47.5586 33.2031 -47.5586 C 30.6152 -47.5586 28.8086 -46.3379 27.6367 -43.457 C 27.0508 -42.1875 26.3672 -41.4062 25.1465 -41.4062 C 23.584 -41.4062 22.6562 -42.4316 22.6562 -44.0918 C 22.6562 -44.5801 22.7539 -45.1172 22.8027 -45.6055 C 23.9746 -49.6582 28.2227 -52.6855 32.9102 -52.6855 C 39.4043 -52.6855 43.5059 -49.0234 43.5059 -43.4082 C 43.5059 -39.209 41.1133 -36.2793 38.3301 -32.959 L 31.0059 -24.4141 L 31.0059 -24.1211 L 41.8457 -24.1211 C 43.2129 -24.1211 44.2871 -23.1445 44.2871 -21.4844 C 44.2871 -19.873 43.2129 -18.7988 41.8457 -18.7988 Z M 59.4238 -17.8223 C 54.4434 -17.8223 50.3906 -20.3613 49.2188 -23.6816 C 48.9746 -24.2188 48.8281 -24.9512 48.8281 -25.6836 C 48.8281 -27.1484 49.8047 -28.2715 51.3184 -28.2715 C 52.3438 -28.2715 53.2227 -27.7344 53.9062 -26.416 C 55.127 -24.1699 57.2754 -22.8516 59.668 -22.8516 C 63.3789 -22.8516 65.7715 -25.1465 65.7715 -29.1992 C 65.7715 -32.6172 63.623 -35.2539 60.4004 -35.2539 C 58.8379 -35.2539 57.8125 -34.7168 56.2988 -33.5938 C 54.834 -32.373 54.0039 -32.0801 52.5879 -32.0801 C 50.4883 -32.0801 49.2676 -33.5938 49.4141 -35.9863 L 50.3418 -47.9004 C 50.4883 -50.293 52.0996 -51.709 54.4434 -51.709 L 67.9199 -51.709 C 69.2871 -51.709 70.166 -50.6836 70.166 -49.2676 C 70.166 -47.7539 69.2383 -46.6797 67.9199 -46.6797 L 54.9805 -46.6797 L 54.2969 -37.1094 L 54.4922 -37.1094 C 55.5664 -38.7695 58.3984 -40.0879 60.9863 -40.0879 C 67.2363 -40.0879 71.3867 -35.5469 71.3867 -29.2969 C 71.3867 -22.1191 66.6504 -17.8223 59.4238 -17.8223 Z"/>
  </g>
  <g id="Light-S" transform="matrix(1 0 0 1 1107.6 696)">
   <path d="M 45.5078 3.4668 C 66.6992 3.4668 84.2285 -14.0625 84.2285 -35.2051 C 84.2285 -56.3965 66.6504 -73.9258 45.5078 -73.9258 C 24.3164 -73.9258 6.83594 -56.3965 6.83594 -35.2051 C 6.83594 -14.0625 24.3652 3.4668 45.5078 3.4668 Z M 24.3164 -18.8965 C 22.9492 -18.8965 22.1191 -19.7754 22.1191 -21.0938 C 22.1191 -21.7773 22.3633 -22.4121 22.9004 -23.0469 L 33.7891 -35.791 C 35.8398 -38.1836 37.793 -40.4297 37.793 -43.0176 C 37.793 -46.1914 35.5469 -48.291 32.1289 -48.291 C 28.9551 -48.291 26.709 -46.582 25.8301 -43.4082 C 25.3906 -42.334 24.8047 -41.6992 23.7305 -41.6992 C 22.4609 -41.6992 21.6797 -42.5293 21.6797 -43.8965 C 21.6797 -44.3359 21.7773 -44.7754 21.8262 -45.2148 C 22.8516 -49.3652 27.0996 -52.4414 31.9336 -52.4414 C 38.1348 -52.4414 42.1875 -48.877 42.1875 -43.3594 C 42.1875 -39.5508 40.0879 -36.6699 37.0117 -33.1055 L 28.7109 -23.4375 L 28.7109 -23.1445 L 41.0156 -23.1445 C 42.1875 -23.1445 43.0176 -22.3633 43.0176 -21.0449 C 43.0176 -19.7754 42.1875 -18.8965 41.0156 -18.8965 Z M 58.7402 -18.0664 C 53.6621 -18.0664 49.7559 -20.752 48.5352 -24.1699 C 48.3887 -24.6582 48.2422 -25.1953 48.2422 -25.7812 C 48.2422 -27.002 49.0723 -27.8809 50.293 -27.8809 C 51.123 -27.8809 51.8555 -27.3438 52.3926 -26.2695 C 53.4668 -23.7305 56.0059 -22.168 58.9844 -22.168 C 63.0859 -22.168 65.918 -24.9023 65.918 -29.248 C 65.918 -33.1543 63.2812 -36.084 59.5215 -36.084 C 57.5684 -36.084 56.1035 -35.4004 54.2969 -33.7402 C 53.1738 -32.8125 52.4902 -32.5195 51.3672 -32.5195 C 49.7559 -32.5195 48.7305 -33.7402 48.877 -35.6445 L 49.9023 -48.6328 C 50 -50.5371 51.2695 -51.709 53.125 -51.709 L 67.1875 -51.709 C 68.3105 -51.709 69.043 -50.8789 69.043 -49.707 C 69.043 -48.4863 68.2617 -47.6562 67.1875 -47.6562 L 53.6621 -47.6562 L 52.832 -36.7676 L 52.9785 -36.7676 C 54.2969 -38.6719 57.2266 -39.9902 60.0098 -39.9902 C 66.1621 -39.9902 70.4102 -35.498 70.4102 -29.3457 C 70.4102 -22.3633 65.6738 -18.0664 58.7402 -18.0664 Z"/>
  </g>
  <g id="Thin-S" transform="matrix(1 0 0 1 811.867 696)">
   <path d="M 44.5801 2.53906 C 65.2832 2.53906 82.2754 -14.4531 82.2754 -35.2051 C 82.2754 -55.9082 65.2344 -72.9004 44.5312 -72.9004 C 23.8281 -72.9004 6.83594 -55.9082 6.83594 -35.2051 C 6.83594 -14.4531 23.877 2.53906 44.5801 2.53906 Z M 22.8516 -18.9941 C 21.875 -18.9941 21.2402 -19.6289 21.2402 -20.6055 C 21.2402 -21.1426 21.3867 -21.5332 21.7773 -21.9727 L 33.4473 -35.5469 C 35.8887 -38.4277 37.3535 -40.5762 37.3535 -43.2129 C 37.3535 -46.875 34.8145 -49.2188 30.6641 -49.2188 C 26.7578 -49.2188 23.877 -46.9238 23.3887 -43.4082 C 23.1934 -42.5293 22.7539 -42.041 21.875 -42.041 C 20.9961 -42.041 20.4102 -42.6758 20.4102 -43.6035 C 20.4102 -43.9941 20.5078 -44.3359 20.5566 -44.7266 C 21.3867 -49.0234 25.6348 -52.0996 30.5664 -52.0996 C 36.5234 -52.0996 40.4785 -48.6816 40.4785 -43.3594 C 40.4785 -39.9902 38.7207 -37.2559 35.2539 -33.252 L 25.6348 -22.0703 L 25.6348 -21.9238 L 39.9414 -21.9238 C 40.8203 -21.9238 41.3574 -21.3379 41.3574 -20.5078 C 41.3574 -19.6777 40.8203 -18.9941 39.9414 -18.9941 Z M 57.7637 -18.4082 C 52.5879 -18.4082 48.9258 -21.2402 47.7051 -24.8047 C 47.5586 -25.1953 47.5098 -25.5371 47.5098 -25.8789 C 47.5098 -26.7578 48.0957 -27.2949 48.877 -27.2949 C 49.5605 -27.2949 50.0488 -26.8555 50.3418 -26.0742 C 51.2695 -23.1934 54.3457 -21.2402 58.0078 -21.2402 C 62.6465 -21.2402 66.0645 -24.5605 66.0645 -29.2969 C 66.0645 -33.8867 62.8906 -37.207 58.3496 -37.207 C 55.9082 -37.207 53.8574 -36.2793 51.6602 -33.9355 C 51.0254 -33.3008 50.5371 -33.1055 49.8047 -33.1055 C 48.7305 -33.1055 48.0469 -33.8867 48.1445 -35.1562 L 49.2676 -49.6094 C 49.3652 -50.8789 50.1465 -51.6602 51.416 -51.6602 L 66.2598 -51.6602 C 67.041 -51.6602 67.5781 -51.123 67.5781 -50.293 C 67.5781 -49.4629 66.9922 -48.9258 66.2598 -48.9258 L 51.9531 -48.9258 L 50.9766 -36.2793 L 51.0254 -36.2793 C 52.6855 -38.5254 55.7129 -39.8926 58.6914 -39.8926 C 64.7461 -39.8926 69.043 -35.4492 69.043 -29.3457 C 69.043 -22.7051 64.4531 -18.4082 57.7637 -18.4082 Z"/>
  </g>
  <g id="Ultralight-S" transform="matrix(1 0 0 1 515.644 696)">
   <path d="M 44.043 2.05078 C 64.502 2.05078 81.2988 -14.6973 81.2988 -35.1562 C 81.2988 -55.6152 64.502 -72.3633 44.043 -72.3633 C 23.584 -72.3633 6.83594 -55.6152 6.83594 -35.1562 C 6.83594 -14.6973 23.584 2.05078 44.043 2.05078 Z M 22.1191 -19.0918 C 21.3379 -19.0918 20.752 -19.5312 20.752 -20.3125 C 20.752 -20.8496 20.8496 -21.0938 21.1914 -21.4355 L 33.3008 -35.4492 C 35.9375 -38.5254 37.1582 -40.7227 37.1582 -43.3105 C 37.1582 -47.2168 34.4238 -49.7559 29.9316 -49.7559 C 25.5859 -49.7559 22.4609 -47.0703 22.1191 -43.3594 C 22.0215 -42.627 21.6797 -42.2363 20.8984 -42.2363 C 20.2637 -42.2363 19.7754 -42.7734 19.7754 -43.457 C 19.7754 -43.7988 19.8242 -44.0918 19.873 -44.4824 C 20.6543 -48.8281 24.9023 -51.9531 29.8828 -51.9531 C 35.6934 -51.9531 39.5508 -48.584 39.5508 -43.3105 C 39.5508 -40.2344 37.9883 -37.5488 34.3262 -33.3496 L 24.0723 -21.3867 L 24.0723 -21.2891 L 39.4043 -21.2891 C 40.0879 -21.2891 40.4785 -20.8008 40.4785 -20.166 C 40.4785 -19.5801 40.0879 -19.0918 39.4043 -19.0918 Z M 57.2754 -18.5547 C 52.0508 -18.5547 48.4863 -21.4844 47.2656 -25.0977 C 47.168 -25.4883 47.1191 -25.6836 47.1191 -25.9766 C 47.1191 -26.6602 47.5586 -27.002 48.1445 -27.002 C 48.7793 -27.002 49.0723 -26.6113 49.2676 -25.9766 C 50.1465 -22.9004 53.5156 -20.752 57.5195 -20.752 C 62.4512 -20.752 66.1621 -24.3652 66.1621 -29.3457 C 66.1621 -34.2285 62.6465 -37.793 57.7637 -37.793 C 55.0293 -37.793 52.6855 -36.7676 50.293 -34.0332 C 49.9023 -33.5938 49.5605 -33.4473 49.0234 -33.4473 C 48.1934 -33.4473 47.7051 -34.0332 47.7539 -34.9121 L 48.9258 -50.1465 C 49.0234 -51.0254 49.5605 -51.6602 50.4883 -51.6602 L 65.7227 -51.6602 C 66.3574 -51.6602 66.8457 -51.2207 66.8457 -50.6348 C 66.8457 -50 66.3574 -49.5605 65.7227 -49.5605 L 51.0254 -49.5605 L 50 -36.0352 L 50.0488 -36.0352 C 51.8555 -38.4277 54.9316 -39.8438 58.0078 -39.8438 C 64.0137 -39.8438 68.3594 -35.4004 68.3594 -29.3945 C 68.3594 -22.9004 63.8184 -18.5547 57.2754 -18.5547 Z"/>
  </g>
 </g>
</svg>
