<?xml version="1.0" encoding="UTF-8"?>
<!--Generator: Apple Native CoreSVG 123-->
<!DOCTYPE svg
PUBLIC "-//W3C//DTD SVG 1.1//EN"
       "http://www.w3.org/Graphics/SVG/1.1/DTD/svg11.dtd">
<svg version="1.1" xmlns="http://www.w3.org/2000/svg" xmlns:xlink="http://www.w3.org/1999/xlink" width="3300" height="2200">
 <!--glyph: "uni100524.medium", point size: 100.000000, font version: "Version 15.0d7e11", template writer version: "5"-->
 <g id="Notes">
  <rect height="2200" id="artboard" style="fill:white;opacity:1" width="3300" x="0" y="0"/>
  <line id="" style="fill:none;stroke:black;opacity:1;stroke-width:0.5;" x1="263" x2="3036" y1="292" y2="292"/>
  <text style="stroke:none;fill:black;font-family:-apple-system,&quot;SF Pro Display&quot;,&quot;SF Pro Text&quot;,Helvetica,sans-serif;font-weight:bold;" transform="matrix(1 0 0 1 263 322)">Weight/Scale Variations</text>
  <text style="stroke:none;fill:black;font-family:-apple-system,&quot;SF Pro Display&quot;,&quot;SF Pro Text&quot;,Helvetica,sans-serif;text-anchor:middle;" transform="matrix(1 0 0 1 559.711 322)">Ultralight</text>
  <text style="stroke:none;fill:black;font-family:-apple-system,&quot;SF Pro Display&quot;,&quot;SF Pro Text&quot;,Helvetica,sans-serif;text-anchor:middle;" transform="matrix(1 0 0 1 856.422 322)">Thin</text>
  <text style="stroke:none;fill:black;font-family:-apple-system,&quot;SF Pro Display&quot;,&quot;SF Pro Text&quot;,Helvetica,sans-serif;text-anchor:middle;" transform="matrix(1 0 0 1 1153.13 322)">Light</text>
  <text style="stroke:none;fill:black;font-family:-apple-system,&quot;SF Pro Display&quot;,&quot;SF Pro Text&quot;,Helvetica,sans-serif;text-anchor:middle;" transform="matrix(1 0 0 1 1449.84 322)">Regular</text>
  <text style="stroke:none;fill:black;font-family:-apple-system,&quot;SF Pro Display&quot;,&quot;SF Pro Text&quot;,Helvetica,sans-serif;text-anchor:middle;" transform="matrix(1 0 0 1 1746.56 322)">Medium</text>
  <text style="stroke:none;fill:black;font-family:-apple-system,&quot;SF Pro Display&quot;,&quot;SF Pro Text&quot;,Helvetica,sans-serif;text-anchor:middle;" transform="matrix(1 0 0 1 2043.27 322)">Semibold</text>
  <text style="stroke:none;fill:black;font-family:-apple-system,&quot;SF Pro Display&quot;,&quot;SF Pro Text&quot;,Helvetica,sans-serif;text-anchor:middle;" transform="matrix(1 0 0 1 2339.98 322)">Bold</text>
  <text style="stroke:none;fill:black;font-family:-apple-system,&quot;SF Pro Display&quot;,&quot;SF Pro Text&quot;,Helvetica,sans-serif;text-anchor:middle;" transform="matrix(1 0 0 1 2636.69 322)">Heavy</text>
  <text style="stroke:none;fill:black;font-family:-apple-system,&quot;SF Pro Display&quot;,&quot;SF Pro Text&quot;,Helvetica,sans-serif;text-anchor:middle;" transform="matrix(1 0 0 1 2933.4 322)">Black</text>
  <line id="" style="fill:none;stroke:black;opacity:1;stroke-width:0.5;" x1="263" x2="3036" y1="1903" y2="1903"/>
  <g id="" transform="matrix(1 0 0 1 263 1933)">
   <path d="M 9.24805 0.830078 C 13.5547 0.830078 17.1387 -2.74414 17.1387 -7.05078 C 17.1387 -11.3574 13.5449 -14.9316 9.23828 -14.9316 C 4.94141 -14.9316 1.36719 -11.3574 1.36719 -7.05078 C 1.36719 -2.74414 4.95117 0.830078 9.24805 0.830078 Z M 9.24805 -0.654297 C 5.70312 -0.654297 2.87109 -3.49609 2.87109 -7.05078 C 2.87109 -10.6055 5.69336 -13.4473 9.23828 -13.4473 C 12.793 -13.4473 15.6348 -10.6055 15.6445 -7.05078 C 15.6543 -3.49609 12.8027 -0.654297 9.24805 -0.654297 Z M 9.22852 -3.42773 C 9.69727 -3.42773 9.9707 -3.74023 9.9707 -4.25781 L 9.9707 -6.31836 L 12.1973 -6.31836 C 12.6953 -6.31836 13.0371 -6.57227 13.0371 -7.04102 C 13.0371 -7.51953 12.7148 -7.7832 12.1973 -7.7832 L 9.9707 -7.7832 L 9.9707 -10.0098 C 9.9707 -10.5273 9.69727 -10.8496 9.22852 -10.8496 C 8.75977 -10.8496 8.50586 -10.5078 8.50586 -10.0098 L 8.50586 -7.7832 L 6.29883 -7.7832 C 5.78125 -7.7832 5.44922 -7.51953 5.44922 -7.04102 C 5.44922 -6.57227 5.80078 -6.31836 6.29883 -6.31836 L 8.50586 -6.31836 L 8.50586 -4.25781 C 8.50586 -3.75977 8.75977 -3.42773 9.22852 -3.42773 Z"/>
  </g>
  <g id="" transform="matrix(1 0 0 1 281.506 1933)">
   <path d="M 11.709 2.91016 C 17.1582 2.91016 21.6699 -1.60156 21.6699 -7.05078 C 21.6699 -12.4902 17.1484 -17.0117 11.6992 -17.0117 C 6.25977 -17.0117 1.74805 -12.4902 1.74805 -7.05078 C 1.74805 -1.60156 6.26953 2.91016 11.709 2.91016 Z M 11.709 1.25 C 7.09961 1.25 3.41797 -2.44141 3.41797 -7.05078 C 3.41797 -11.6504 7.08984 -15.3516 11.6992 -15.3516 C 16.3086 -15.3516 20 -11.6504 20.0098 -7.05078 C 20.0195 -2.44141 16.3184 1.25 11.709 1.25 Z M 11.6895 -2.41211 C 12.207 -2.41211 12.5195 -2.77344 12.5195 -3.33984 L 12.5195 -6.23047 L 15.5762 -6.23047 C 16.123 -6.23047 16.5039 -6.51367 16.5039 -7.03125 C 16.5039 -7.55859 16.1426 -7.86133 15.5762 -7.86133 L 12.5195 -7.86133 L 12.5195 -10.9277 C 12.5195 -11.5039 12.207 -11.8555 11.6895 -11.8555 C 11.1719 -11.8555 10.8789 -11.4844 10.8789 -10.9277 L 10.8789 -7.86133 L 7.83203 -7.86133 C 7.26562 -7.86133 6.89453 -7.55859 6.89453 -7.03125 C 6.89453 -6.51367 7.28516 -6.23047 7.83203 -6.23047 L 10.8789 -6.23047 L 10.8789 -3.33984 C 10.8789 -2.79297 11.1719 -2.41211 11.6895 -2.41211 Z"/>
  </g>
  <g id="" transform="matrix(1 0 0 1 304.924 1933)">
   <path d="M 14.9707 5.67383 C 21.9336 5.67383 27.6953 -0.078125 27.6953 -7.04102 C 27.6953 -14.0039 21.9238 -19.7559 14.9609 -19.7559 C 8.00781 -19.7559 2.25586 -14.0039 2.25586 -7.04102 C 2.25586 -0.078125 8.01758 5.67383 14.9707 5.67383 Z M 14.9707 3.85742 C 8.93555 3.85742 4.08203 -1.00586 4.08203 -7.04102 C 4.08203 -13.0762 8.92578 -17.9395 14.9609 -17.9395 C 21.0059 -17.9395 25.8594 -13.0762 25.8691 -7.04102 C 25.8789 -1.00586 21.0156 3.85742 14.9707 3.85742 Z M 14.9512 -1.06445 C 15.5176 -1.06445 15.8691 -1.45508 15.8691 -2.06055 L 15.8691 -6.13281 L 20.1074 -6.13281 C 20.6934 -6.13281 21.1133 -6.46484 21.1133 -7.02148 C 21.1133 -7.59766 20.7227 -7.93945 20.1074 -7.93945 L 15.8691 -7.93945 L 15.8691 -12.1875 C 15.8691 -12.8027 15.5176 -13.1934 14.9512 -13.1934 C 14.3848 -13.1934 14.0625 -12.7832 14.0625 -12.1875 L 14.0625 -7.93945 L 9.83398 -7.93945 C 9.21875 -7.93945 8.80859 -7.59766 8.80859 -7.02148 C 8.80859 -6.46484 9.23828 -6.13281 9.83398 -6.13281 L 14.0625 -6.13281 L 14.0625 -2.06055 C 14.0625 -1.47461 14.3848 -1.06445 14.9512 -1.06445 Z"/>
  </g>
  <text style="stroke:none;fill:black;font-family:-apple-system,&quot;SF Pro Display&quot;,&quot;SF Pro Text&quot;,Helvetica,sans-serif;font-weight:bold;" transform="matrix(1 0 0 1 263 1953)">Design Variations</text>
  <text style="stroke:none;fill:black;font-family:-apple-system,&quot;SF Pro Display&quot;,&quot;SF Pro Text&quot;,Helvetica,sans-serif;" transform="matrix(1 0 0 1 263 1971)">Symbols are supported in up to nine weights and three scales.</text>
  <text style="stroke:none;fill:black;font-family:-apple-system,&quot;SF Pro Display&quot;,&quot;SF Pro Text&quot;,Helvetica,sans-serif;" transform="matrix(1 0 0 1 263 1989)">For optimal layout with text and other symbols, vertically align</text>
  <text style="stroke:none;fill:black;font-family:-apple-system,&quot;SF Pro Display&quot;,&quot;SF Pro Text&quot;,Helvetica,sans-serif;" transform="matrix(1 0 0 1 263 2007)">symbols with the adjacent text.</text>
  <rect height="14" id="" style="fill:#00AEEF;stroke:none;opacity:0.4;" width="3" x="776" y="1919"/>
  <g id="" transform="matrix(1 0 0 1 779 1933)">
   <path d="M 10.5273 0 L 12.373 0 L 7.17773 -14.0918 L 5.43945 -14.0918 L 0.244141 0 L 2.08984 0 L 3.50586 -4.0332 L 9.11133 -4.0332 Z M 6.2793 -11.9531 L 6.33789 -11.9531 L 8.59375 -5.52734 L 4.02344 -5.52734 Z"/>
  </g>
  <rect height="14" id="" style="fill:#00AEEF;stroke:none;opacity:0.4;" width="3" x="791.617" y="1919"/>
  <text style="stroke:none;fill:black;font-family:-apple-system,&quot;SF Pro Display&quot;,&quot;SF Pro Text&quot;,Helvetica,sans-serif;font-weight:bold;" transform="matrix(1 0 0 1 776 1953)">Margins</text>
  <text style="stroke:none;fill:black;font-family:-apple-system,&quot;SF Pro Display&quot;,&quot;SF Pro Text&quot;,Helvetica,sans-serif;" transform="matrix(1 0 0 1 776 1971)">Leading and trailing margins on the left and right side of each symbol</text>
  <text style="stroke:none;fill:black;font-family:-apple-system,&quot;SF Pro Display&quot;,&quot;SF Pro Text&quot;,Helvetica,sans-serif;" transform="matrix(1 0 0 1 776 1989)">can be adjusted by modifying the width of the blue rectangles.</text>
  <text style="stroke:none;fill:black;font-family:-apple-system,&quot;SF Pro Display&quot;,&quot;SF Pro Text&quot;,Helvetica,sans-serif;" transform="matrix(1 0 0 1 776 2007)">Modifications are automatically applied proportionally to all</text>
  <text style="stroke:none;fill:black;font-family:-apple-system,&quot;SF Pro Display&quot;,&quot;SF Pro Text&quot;,Helvetica,sans-serif;" transform="matrix(1 0 0 1 776 2025)">scales and weights.</text>
  <g id="" transform="matrix(1 0 0 1 1289 1933)">
   <path d="M 2.83203 3.11523 L 4.375 4.6582 C 5.22461 5.48828 6.19141 5.41992 7.06055 4.46289 L 17.2754 -6.66016 C 17.7051 -6.36719 18.0957 -6.37695 18.5645 -6.47461 L 19.6094 -6.68945 L 20.3027 -5.99609 L 20.2539 -5.47852 C 20.1855 -4.95117 20.3516 -4.53125 20.8496 -4.0332 L 21.6602 -3.22266 C 22.168 -2.71484 22.8223 -2.68555 23.3008 -3.16406 L 26.5527 -6.41602 C 27.0312 -6.89453 27.0117 -7.54883 26.5039 -8.05664 L 25.6836 -8.87695 C 25.1855 -9.375 24.7754 -9.55078 24.2383 -9.47266 L 23.7109 -9.41406 L 23.0566 -10.0781 L 23.3398 -11.2207 C 23.4863 -11.7871 23.3398 -12.2559 22.7148 -12.8613 L 20.3027 -15.2539 C 16.7578 -18.7793 12.2266 -18.6719 9.11133 -15.5371 C 8.69141 -15.1074 8.64258 -14.5215 8.91602 -14.0918 C 9.15039 -13.7207 9.62891 -13.4961 10.2734 -13.6621 C 11.7871 -14.043 13.3008 -13.9258 14.7852 -12.9199 L 14.1602 -11.3379 C 13.9258 -10.752 13.9453 -10.2734 14.1797 -9.83398 L 3.01758 0.439453 C 2.08008 1.30859 1.97266 2.25586 2.83203 3.11523 Z M 10.6738 -15.1465 C 13.3398 -17.1387 16.6504 -16.8262 19.0527 -14.4141 L 21.6797 -11.8066 C 21.9141 -11.5723 21.9434 -11.3867 21.8848 -11.0938 L 21.5039 -9.53125 L 23.0762 -7.95898 L 24.043 -8.04688 C 24.3262 -8.07617 24.4141 -8.05664 24.6387 -7.83203 L 25.2637 -7.20703 L 22.5098 -4.46289 L 21.8848 -5.07812 C 21.6602 -5.30273 21.6406 -5.40039 21.6699 -5.68359 L 21.7578 -6.64062 L 20.1953 -8.20312 L 18.5742 -7.89062 C 18.291 -7.83203 18.1445 -7.83203 17.9102 -8.07617 L 15.7324 -10.2539 C 15.5078 -10.4883 15.4785 -10.625 15.6055 -10.9473 L 16.5527 -13.2227 C 14.9512 -14.7559 12.8418 -15.6055 10.8008 -14.9512 C 10.7129 -14.9219 10.6445 -14.9414 10.6152 -14.9805 C 10.5859 -15.0293 10.5859 -15.0781 10.6738 -15.1465 Z M 4.10156 2.41211 C 3.61328 1.91406 3.78906 1.61133 4.12109 1.30859 L 15.0781 -8.80859 L 16.3086 -7.57812 L 6.15234 3.34961 C 5.84961 3.68164 5.46875 3.7793 5.06836 3.37891 Z"/>
  </g>
  <text style="stroke:none;fill:black;font-family:-apple-system,&quot;SF Pro Display&quot;,&quot;SF Pro Text&quot;,Helvetica,sans-serif;font-weight:bold;" transform="matrix(1 0 0 1 1289 1953)">Exporting</text>
  <text style="stroke:none;fill:black;font-family:-apple-system,&quot;SF Pro Display&quot;,&quot;SF Pro Text&quot;,Helvetica,sans-serif;" transform="matrix(1 0 0 1 1289 1971)">Symbols should be outlined when exporting to ensure the</text>
  <text style="stroke:none;fill:black;font-family:-apple-system,&quot;SF Pro Display&quot;,&quot;SF Pro Text&quot;,Helvetica,sans-serif;" transform="matrix(1 0 0 1 1289 1989)">design is preserved when submitting to Xcode.</text>
  <text id="template-version" style="stroke:none;fill:black;font-family:-apple-system,&quot;SF Pro Display&quot;,&quot;SF Pro Text&quot;,Helvetica,sans-serif;text-anchor:end;" transform="matrix(1 0 0 1 3036 1933)">Template v.1.0</text>
  <text style="stroke:none;fill:black;font-family:-apple-system,&quot;SF Pro Display&quot;,&quot;SF Pro Text&quot;,Helvetica,sans-serif;text-anchor:end;" transform="matrix(1 0 0 1 3036 1951)">Generated from 26.circle.fill</text>
  <text style="stroke:none;fill:black;font-family:-apple-system,&quot;SF Pro Display&quot;,&quot;SF Pro Text&quot;,Helvetica,sans-serif;text-anchor:end;" transform="matrix(1 0 0 1 3036 1969)">Typeset at 100 points</text>
  <text style="stroke:none;fill:black;font-family:-apple-system,&quot;SF Pro Display&quot;,&quot;SF Pro Text&quot;,Helvetica,sans-serif;" transform="matrix(1 0 0 1 263 726)">Small</text>
  <text style="stroke:none;fill:black;font-family:-apple-system,&quot;SF Pro Display&quot;,&quot;SF Pro Text&quot;,Helvetica,sans-serif;" transform="matrix(1 0 0 1 263 1156)">Medium</text>
  <text style="stroke:none;fill:black;font-family:-apple-system,&quot;SF Pro Display&quot;,&quot;SF Pro Text&quot;,Helvetica,sans-serif;" transform="matrix(1 0 0 1 263 1586)">Large</text>
 </g>
 <g id="Guides">
  <g id="H-reference" style="fill:#27AAE1;stroke:none;" transform="matrix(1 0 0 1 339 696)">
   <path d="M 54.9316 0 L 57.666 0 L 30.5664 -70.459 L 28.0762 -70.459 L 0.976562 0 L 3.66211 0 L 12.9395 -24.4629 L 45.7031 -24.4629 Z M 29.1992 -67.0898 L 29.4434 -67.0898 L 44.8242 -26.709 L 13.8184 -26.709 Z"/>
  </g>
  <line id="Baseline-S" style="fill:none;stroke:#27AAE1;opacity:1;stroke-width:0.577;" x1="263" x2="3036" y1="696" y2="696"/>
  <line id="Capline-S" style="fill:none;stroke:#27AAE1;opacity:1;stroke-width:0.577;" x1="263" x2="3036" y1="625.541" y2="625.541"/>
  <g id="H-reference" style="fill:#27AAE1;stroke:none;" transform="matrix(1 0 0 1 339 1126)">
   <path d="M 54.9316 0 L 57.666 0 L 30.5664 -70.459 L 28.0762 -70.459 L 0.976562 0 L 3.66211 0 L 12.9395 -24.4629 L 45.7031 -24.4629 Z M 29.1992 -67.0898 L 29.4434 -67.0898 L 44.8242 -26.709 L 13.8184 -26.709 Z"/>
  </g>
  <line id="Baseline-M" style="fill:none;stroke:#27AAE1;opacity:1;stroke-width:0.577;" x1="263" x2="3036" y1="1126" y2="1126"/>
  <line id="Capline-M" style="fill:none;stroke:#27AAE1;opacity:1;stroke-width:0.577;" x1="263" x2="3036" y1="1055.54" y2="1055.54"/>
  <g id="H-reference" style="fill:#27AAE1;stroke:none;" transform="matrix(1 0 0 1 339 1556)">
   <path d="M 54.9316 0 L 57.666 0 L 30.5664 -70.459 L 28.0762 -70.459 L 0.976562 0 L 3.66211 0 L 12.9395 -24.4629 L 45.7031 -24.4629 Z M 29.1992 -67.0898 L 29.4434 -67.0898 L 44.8242 -26.709 L 13.8184 -26.709 Z"/>
  </g>
  <line id="Baseline-L" style="fill:none;stroke:#27AAE1;opacity:1;stroke-width:0.577;" x1="263" x2="3036" y1="1556" y2="1556"/>
  <line id="Capline-L" style="fill:none;stroke:#27AAE1;opacity:1;stroke-width:0.577;" x1="263" x2="3036" y1="1485.54" y2="1485.54"/>
  <rect height="119.336" id="left-margin" style="fill:#00AEEF;stroke:none;opacity:0.4;" width="8.74023" x="1391.3" y="1030.79"/>
  <rect height="119.336" id="right-margin" style="fill:#00AEEF;stroke:none;opacity:0.4;" width="8.74023" x="1499.65" y="1030.79"/>
 </g>
 <g id="Symbols">
  <g id="Black-L" transform="matrix(1 0 0 1 2854.05 1556)">
   <path d="M 79.3457 32.8613 C 116.748 32.8613 147.412 2.19727 147.412 -35.2051 C 147.412 -72.6074 116.748 -103.271 79.2969 -103.271 C 41.8945 -103.271 11.2793 -72.6074 11.2793 -35.2051 C 11.2793 2.19727 41.9434 32.8613 79.3457 32.8613 Z M 50.4883 -10.5469 C 47.1191 -10.5469 44.4824 -12.8418 44.4824 -16.6016 C 44.4824 -18.8965 45.3125 -20.8984 47.4609 -23.3398 L 58.8379 -36.7188 C 61.6211 -40.0879 64.0625 -42.4316 64.0625 -45.4102 C 64.0625 -47.8516 62.0117 -49.7559 59.3262 -49.7559 C 56.9336 -49.7559 55.127 -48.3398 54.1992 -45.8008 C 53.418 -43.5059 51.9043 -41.8945 48.9258 -41.8945 C 45.752 -41.8945 43.7012 -44.0918 43.7012 -47.2168 C 43.7012 -48.3887 43.8965 -49.3164 44.1895 -50.3418 C 45.9961 -56.7383 52.2949 -61.084 59.668 -61.084 C 69.1895 -61.084 75 -55.0781 75.1465 -46.5332 C 75.1953 -40.7227 72.4121 -36.2793 67.627 -30.7129 L 60.7422 -22.7539 L 60.7422 -22.1191 L 70.752 -22.1191 C 74.3652 -22.1191 76.6113 -20.0684 76.6113 -16.5039 C 76.6113 -12.7441 74.3652 -10.5469 70.752 -10.5469 Z M 99.7559 -9.42383 C 93.0176 -9.42383 87.4023 -12.3535 84.375 -18.8965 C 82.4707 -23.1445 81.3965 -28.6133 81.3965 -34.9121 C 81.3965 -52.0508 89.6484 -61.084 100.83 -61.084 C 107.422 -61.084 112.061 -58.0566 113.77 -54.4434 C 114.502 -53.125 114.795 -52.002 114.795 -50.5371 C 114.795 -47.6074 112.305 -45.8008 109.863 -45.8008 C 107.617 -45.8008 106.299 -46.6309 105.322 -47.9004 C 104.053 -49.1699 102.783 -50.3906 100.391 -50.3906 C 96.2891 -50.3906 93.0176 -45.9473 93.0176 -39.4043 C 93.0176 -38.2324 93.0664 -37.5488 93.1152 -36.8652 L 93.5059 -36.8652 C 95.0195 -40.0391 97.998 -42.8223 103.174 -42.8223 C 110.107 -42.8223 116.406 -37.3047 116.406 -27.6367 C 116.406 -16.5039 109.668 -9.42383 99.7559 -9.42383 Z M 99.1211 -19.7754 C 102.344 -19.7754 104.59 -22.4609 104.59 -26.4648 C 104.59 -30.3711 102.295 -33.0566 99.1211 -33.0566 C 95.8008 -33.0566 93.5059 -30.3711 93.5059 -26.5137 C 93.5059 -22.4609 95.8008 -19.7754 99.1211 -19.7754 Z"/>
  </g>
  <g id="Heavy-L" transform="matrix(1 0 0 1 2558.39 1556)">
   <path d="M 78.2715 31.7871 C 115.088 31.7871 145.312 1.61133 145.312 -35.2051 C 145.312 -72.0215 115.039 -102.197 78.2715 -102.197 C 41.4551 -102.197 11.2793 -72.0215 11.2793 -35.2051 C 11.2793 1.61133 41.5039 31.7871 78.2715 31.7871 Z M 47.998 -10.0586 C 44.873 -10.0586 42.5781 -12.1094 42.5781 -15.4785 C 42.5781 -17.4805 43.3105 -19.2871 45.1172 -21.3867 L 58.0566 -36.5723 C 61.0352 -40.0879 63.623 -42.7246 63.623 -46.0449 C 63.623 -49.1699 61.1816 -51.416 57.7148 -51.416 C 54.6875 -51.416 52.3926 -49.707 51.3672 -46.4844 C 50.6348 -44.3359 49.2676 -42.8223 46.582 -42.8223 C 43.6523 -42.8223 41.7969 -44.873 41.7969 -47.7539 C 41.7969 -48.7793 41.9922 -49.707 42.2363 -50.6348 C 43.9453 -57.1289 50.4395 -61.6699 57.959 -61.6699 C 67.627 -61.6699 73.6328 -55.7129 73.7305 -47.0215 C 73.7793 -41.1133 70.8496 -36.6211 65.9668 -30.957 L 57.4707 -21.0938 L 57.4707 -20.5078 L 69.9707 -20.5078 C 73.1445 -20.5078 75.1953 -18.6035 75.1953 -15.3809 C 75.1953 -12.0117 73.1445 -10.0586 69.9707 -10.0586 Z M 99.2188 -8.83789 C 92.4316 -8.83789 86.8164 -11.7188 83.7402 -18.2129 C 81.7871 -22.4609 80.6641 -27.9785 80.6641 -34.6191 C 80.6641 -52.3926 88.7695 -61.6699 100.342 -61.6699 C 107.178 -61.6699 112.012 -58.3496 113.672 -54.541 C 114.307 -53.3691 114.551 -52.3926 114.551 -51.0742 C 114.551 -48.3887 112.402 -46.7285 110.107 -46.7285 C 108.008 -46.7285 106.787 -47.5098 105.811 -48.8281 C 104.443 -50.5371 102.783 -51.9043 99.9512 -51.9043 C 94.9219 -51.9043 91.1621 -46.582 91.1621 -38.4277 C 91.1621 -37.5 91.2109 -36.9141 91.2598 -36.3281 L 91.6504 -36.3281 C 93.2129 -39.8438 96.6309 -42.9199 102.246 -42.9199 C 109.668 -42.9199 116.309 -37.207 116.309 -27.2461 C 116.309 -15.918 109.326 -8.83789 99.2188 -8.83789 Z M 98.6816 -18.2617 C 102.783 -18.2617 105.518 -21.4355 105.518 -26.2207 C 105.518 -30.8594 102.686 -34.0332 98.6816 -34.0332 C 94.5312 -34.0332 91.6992 -30.8594 91.6992 -26.2695 C 91.6992 -21.5332 94.5801 -18.2617 98.6816 -18.2617 Z"/>
  </g>
  <g id="Bold-L" transform="matrix(1 0 0 1 2262.88 1556)">
   <path d="M 77.0996 30.6152 C 113.232 30.6152 142.92 0.878906 142.92 -35.2051 C 142.92 -71.3379 113.184 -101.025 77.0508 -101.025 C 40.9668 -101.025 11.2793 -71.3379 11.2793 -35.2051 C 11.2793 0.878906 41.0156 30.6152 77.0996 30.6152 Z M 45.166 -9.47266 C 42.3828 -9.47266 40.4297 -11.2793 40.4297 -14.209 C 40.4297 -15.9668 41.0156 -17.4316 42.5293 -19.1895 L 57.2266 -36.4258 C 60.3516 -40.0879 63.1348 -43.1152 63.1348 -46.7285 C 63.1348 -50.5859 60.2539 -53.2715 55.957 -53.2715 C 52.1484 -53.2715 49.3652 -51.1719 48.1934 -47.2656 C 47.4609 -45.2148 46.2402 -43.8965 43.8965 -43.8965 C 41.3086 -43.8965 39.6484 -45.7031 39.6484 -48.3398 C 39.6484 -49.2676 39.7949 -50.0977 40.0391 -50.9766 C 41.6992 -57.6172 48.3887 -62.3047 56.0547 -62.3047 C 65.8691 -62.3047 72.1191 -56.3965 72.168 -47.6074 C 72.2168 -41.5527 69.1406 -36.9629 64.1602 -31.25 L 53.8086 -19.1895 L 53.8086 -18.6523 L 69.0918 -18.6523 C 71.8262 -18.6523 73.6328 -16.9922 73.6328 -14.1602 C 73.6328 -11.2305 71.8262 -9.47266 69.0918 -9.47266 Z M 98.6328 -8.20312 C 91.7969 -8.20312 86.1816 -10.9863 83.0566 -17.3828 C 81.0059 -21.6309 79.8828 -27.2949 79.8828 -34.3262 C 79.8828 -52.7344 87.8418 -62.3047 99.7559 -62.3047 C 106.934 -62.3047 111.914 -58.6914 113.574 -54.6875 C 114.111 -53.7109 114.307 -52.7832 114.307 -51.6602 C 114.307 -49.2676 112.451 -47.7539 110.4 -47.7539 C 108.496 -47.7539 107.373 -48.5352 106.396 -49.8535 C 104.883 -52.002 102.734 -53.6133 99.4629 -53.6133 C 93.3594 -53.6133 89.0625 -47.2656 89.0625 -37.3047 C 89.0625 -36.6211 89.1113 -36.1816 89.1602 -35.6934 L 89.502 -35.6934 C 91.1621 -39.6973 95.1172 -43.0176 101.221 -43.0176 C 109.131 -43.0176 116.162 -37.0605 116.162 -26.7578 C 116.162 -15.2344 108.984 -8.20312 98.6328 -8.20312 Z M 98.1934 -16.6016 C 103.223 -16.6016 106.592 -20.2637 106.592 -25.9766 C 106.592 -31.4453 103.174 -35.1562 98.2422 -35.1562 C 93.1641 -35.1562 89.6973 -31.3965 89.6973 -26.0254 C 89.6973 -20.459 93.2129 -16.6016 98.1934 -16.6016 Z"/>
  </g>
  <g id="Semibold-L" transform="matrix(1 0 0 1 1966.97 1556)">
   <path d="M 76.2695 29.7852 C 111.914 29.7852 141.309 0.439453 141.309 -35.2051 C 141.309 -70.8496 111.865 -100.244 76.2695 -100.244 C 40.625 -100.244 11.2793 -70.8496 11.2793 -35.2051 C 11.2793 0.439453 40.6738 29.7852 76.2695 29.7852 Z M 43.2129 -9.0332 C 40.6738 -9.0332 38.916 -10.7422 38.916 -13.3789 C 38.916 -14.8926 39.4531 -16.2109 40.7227 -17.627 L 56.6406 -36.2793 C 59.8633 -40.1367 62.793 -43.3594 62.793 -47.2168 C 62.793 -51.6113 59.6191 -54.5898 54.7852 -54.5898 C 50.4395 -54.5898 47.2656 -52.1973 46.0449 -47.8027 C 45.2637 -45.8496 44.1895 -44.6289 42.0898 -44.6289 C 39.6484 -44.6289 38.1836 -46.2891 38.1836 -48.7305 C 38.1836 -49.6094 38.3301 -50.3906 38.4766 -51.2207 C 40.1367 -57.9102 46.9727 -62.7441 54.6875 -62.7441 C 64.6973 -62.7441 71.0449 -56.8848 71.0938 -47.9492 C 71.1426 -41.8945 67.9199 -37.2559 62.8906 -31.3965 L 51.2695 -17.8711 L 51.2695 -17.3828 L 68.5059 -17.3828 C 70.8984 -17.3828 72.5586 -15.8691 72.5586 -13.3301 C 72.5586 -10.6934 70.8984 -9.0332 68.5059 -9.0332 Z M 98.2422 -7.76367 C 91.3086 -7.76367 85.791 -10.498 82.6172 -16.8457 C 80.4688 -21.0938 79.2969 -26.8066 79.2969 -34.082 C 79.2969 -52.9785 87.207 -62.7441 99.4141 -62.7441 C 106.787 -62.7441 111.914 -58.8867 113.525 -54.7852 C 113.965 -53.9062 114.16 -53.0762 114.16 -52.0996 C 114.16 -49.8535 112.549 -48.4375 110.596 -48.4375 C 108.789 -48.4375 107.764 -49.2188 106.836 -50.5859 C 105.176 -53.0273 102.686 -54.7852 99.1211 -54.7852 C 92.2852 -54.7852 87.6465 -47.7539 87.6465 -36.5723 C 87.6465 -36.0352 87.6465 -35.6934 87.6953 -35.3027 L 88.0859 -35.3027 C 89.7461 -39.5508 94.043 -43.1152 100.488 -43.1152 C 108.789 -43.1152 116.064 -37.0117 116.064 -26.416 C 116.064 -14.7949 108.74 -7.76367 98.2422 -7.76367 Z M 97.8516 -15.4297 C 103.564 -15.4297 107.324 -19.4824 107.324 -25.7812 C 107.324 -31.8359 103.467 -35.8887 97.9004 -35.8887 C 92.2363 -35.8887 88.3301 -31.7383 88.3301 -25.8301 C 88.3301 -19.7266 92.2363 -15.4297 97.8516 -15.4297 Z"/>
  </g>
  <g id="Medium-L" transform="matrix(1 0 0 1 1670.87 1556)">
   <path d="M 75.6836 29.1992 C 110.938 29.1992 140.088 0.0488281 140.088 -35.2051 C 140.088 -70.459 110.889 -99.6094 75.6348 -99.6094 C 40.3809 -99.6094 11.2793 -70.459 11.2793 -35.2051 C 11.2793 0.0488281 40.3809 29.1992 75.6836 29.1992 Z M 41.748 -8.74023 C 39.3555 -8.74023 37.793 -10.3027 37.793 -12.6953 C 37.793 -14.0625 38.2324 -15.2344 39.3555 -16.5039 L 56.2012 -36.2305 C 59.5215 -40.1367 62.5488 -43.5547 62.5488 -47.6074 C 62.5488 -52.3438 59.1309 -55.5664 53.8574 -55.5664 C 49.1211 -55.5664 45.6543 -52.9785 44.3848 -48.1934 C 43.6523 -46.3379 42.627 -45.166 40.6738 -45.166 C 38.4277 -45.166 37.0605 -46.7285 37.0605 -49.0234 C 37.0605 -49.8535 37.207 -50.5859 37.3535 -51.416 C 38.9648 -58.1543 45.8496 -63.0859 53.7109 -63.0859 C 63.7695 -63.0859 70.2637 -57.2754 70.3125 -48.2422 C 70.3125 -42.0898 67.041 -37.4512 61.9629 -31.543 L 49.3164 -16.8945 L 49.3164 -16.4551 L 68.0664 -16.4551 C 70.2148 -16.4551 71.7773 -15.0391 71.7773 -12.6465 C 71.7773 -10.3027 70.2148 -8.74023 68.0664 -8.74023 Z M 97.9492 -7.42188 C 90.9668 -7.42188 85.4492 -10.1562 82.2266 -16.4551 C 80.0293 -20.7031 78.8574 -26.4648 78.8574 -33.9355 C 78.8574 -53.1738 86.7188 -63.0859 99.1211 -63.0859 C 106.641 -63.0859 111.865 -59.082 113.477 -54.8828 C 113.867 -54.0527 114.014 -53.2715 114.014 -52.3926 C 114.014 -50.3418 112.549 -48.9258 110.742 -48.9258 C 109.033 -48.9258 108.057 -49.707 107.129 -51.123 C 105.42 -53.8086 102.686 -55.6641 98.8281 -55.6641 C 91.4551 -55.6641 86.5723 -48.0957 86.5723 -35.9863 C 86.5723 -35.5957 86.5723 -35.3516 86.5723 -35.0098 L 86.9629 -35.0098 C 88.7207 -39.4531 93.2617 -43.1641 99.9512 -43.1641 C 108.545 -43.1641 115.967 -36.9141 115.967 -26.1719 C 115.967 -14.4531 108.545 -7.42188 97.9492 -7.42188 Z M 97.6074 -14.5508 C 103.809 -14.5508 107.861 -18.8477 107.861 -25.6348 C 107.861 -32.0801 103.711 -36.4746 97.6562 -36.4746 C 91.5039 -36.4746 87.2559 -32.0312 87.2559 -25.6836 C 87.2559 -19.1406 91.5527 -14.5508 97.6074 -14.5508 Z"/>
  </g>
  <g id="Regular-L" transform="matrix(1 0 0 1 1374.97 1556)">
   <path d="M 74.8535 28.3691 C 109.668 28.3691 138.477 -0.390625 138.477 -35.2051 C 138.477 -70.0195 109.619 -98.7793 74.8047 -98.7793 C 40.0391 -98.7793 11.2793 -70.0195 11.2793 -35.2051 C 11.2793 -0.390625 40.0879 28.3691 74.8535 28.3691 Z M 39.8438 -8.34961 C 37.6953 -8.34961 36.3281 -9.7168 36.3281 -11.8652 C 36.3281 -13.0371 36.6699 -14.0137 37.5977 -14.9902 L 55.6152 -36.084 C 59.0332 -40.1367 62.207 -43.7988 62.207 -48.0957 C 62.207 -53.3691 58.4961 -56.8359 52.6367 -56.8359 C 47.3633 -56.8359 43.6035 -53.9551 42.2363 -48.7305 C 41.5039 -46.9727 40.625 -45.8984 38.8672 -45.8984 C 36.8164 -45.8984 35.5957 -47.3145 35.5957 -49.4629 C 35.5957 -50.1465 35.6934 -50.8789 35.8398 -51.6113 C 37.4023 -58.4961 44.4824 -63.5254 52.3926 -63.5254 C 62.5977 -63.5254 69.2383 -57.7148 69.2383 -48.6328 C 69.2383 -42.4316 65.8203 -37.6953 60.6934 -31.7383 L 46.8262 -15.5762 L 46.8262 -15.1855 L 67.4805 -15.1855 C 69.2871 -15.1855 70.7031 -13.916 70.7031 -11.8164 C 70.7031 -9.76562 69.2871 -8.34961 67.4805 -8.34961 Z M 97.5586 -6.93359 C 90.5273 -6.93359 85.0098 -9.66797 81.7383 -15.918 C 79.541 -20.166 78.3203 -25.9766 78.3203 -33.6914 C 78.3203 -53.418 86.0352 -63.5254 98.7305 -63.5254 C 106.445 -63.5254 111.816 -59.2773 113.379 -54.9805 C 113.721 -54.2969 113.867 -53.5645 113.867 -52.832 C 113.867 -50.9277 112.646 -49.6582 110.889 -49.6582 C 109.326 -49.6582 108.447 -50.3906 107.52 -51.8066 C 105.713 -54.7852 102.686 -56.8359 98.4863 -56.8359 C 90.4297 -56.8359 85.1562 -48.584 85.1562 -35.2051 L 85.1562 -34.5703 L 85.498 -34.5703 C 87.3047 -39.3066 92.2363 -43.2617 99.2676 -43.2617 C 108.203 -43.2617 115.869 -36.8652 115.869 -25.8301 C 115.869 -14.0137 108.301 -6.93359 97.5586 -6.93359 Z M 97.2656 -13.3789 C 104.15 -13.3789 108.594 -18.0664 108.594 -25.4395 C 108.594 -32.4707 104.004 -37.207 97.3145 -37.207 C 90.5762 -37.207 85.8887 -32.373 85.8887 -25.5371 C 85.8887 -18.4082 90.5762 -13.3789 97.2656 -13.3789 Z"/>
  </g>
  <g id="Light-L" transform="matrix(1 0 0 1 1079.18 1556)">
   <path d="M 73.9258 27.4902 C 108.301 27.4902 136.621 -0.830078 136.621 -35.1562 C 136.621 -69.5312 108.252 -97.8516 73.9258 -97.8516 C 39.5508 -97.8516 11.2793 -69.5312 11.2793 -35.1562 C 11.2793 -0.830078 39.5996 27.4902 73.9258 27.4902 Z M 39.1113 -8.44727 C 37.3047 -8.44727 36.1816 -9.57031 36.1816 -11.377 C 36.1816 -12.4023 36.4746 -13.1836 37.1582 -13.9648 L 55.957 -35.8887 C 59.7656 -40.3809 62.5 -43.9453 62.5 -48.291 C 62.5 -54.0039 58.3984 -57.7637 51.9531 -57.7637 C 45.9473 -57.7637 41.6016 -54.2969 40.5762 -48.6816 C 40.0879 -47.168 39.3066 -46.2402 37.793 -46.2402 C 36.084 -46.2402 35.0586 -47.4609 35.0586 -49.1699 C 35.0586 -49.8047 35.1562 -50.4395 35.3027 -51.1719 C 36.6699 -58.1543 43.7012 -63.2324 51.8066 -63.2324 C 61.7188 -63.2324 68.2617 -57.5195 68.2617 -48.584 C 68.2617 -42.8223 65.1855 -38.2324 59.7168 -31.8848 L 44.6289 -14.3066 L 44.6289 -14.0137 L 67.1387 -14.0137 C 68.6523 -14.0137 69.7754 -12.9395 69.7754 -11.2793 C 69.7754 -9.61914 68.6523 -8.44727 67.1387 -8.44727 Z M 96.7773 -7.27539 C 89.3555 -7.27539 84.082 -10.3027 80.957 -16.3574 C 78.7598 -20.6543 77.7344 -26.3672 77.7344 -33.6426 C 77.7344 -52.832 85.2539 -63.2324 97.8516 -63.2324 C 105.859 -63.2324 111.279 -58.4473 112.695 -54.3945 C 112.939 -53.9062 113.037 -53.2715 113.037 -52.6855 C 113.037 -51.2207 112.109 -50.0977 110.596 -50.0977 C 109.375 -50.0977 108.643 -50.7812 107.959 -51.9043 C 106.006 -55.4688 102.344 -57.7637 97.7051 -57.7637 C 88.7695 -57.7637 83.2031 -48.9746 83.2031 -34.4238 L 83.2031 -33.7891 L 83.4473 -33.7891 C 85.5469 -39.0137 91.0645 -42.9688 98.0957 -42.9688 C 107.52 -42.9688 114.99 -36.2793 114.99 -25.7324 C 114.99 -14.4043 107.52 -7.27539 96.7773 -7.27539 Z M 96.6309 -12.5977 C 104.199 -12.5977 109.18 -17.5781 109.18 -25.3906 C 109.18 -32.9102 104.053 -37.9395 96.6797 -37.9395 C 89.2578 -37.9395 84.0332 -32.7637 84.0332 -25.4883 C 84.0332 -17.9199 89.2578 -12.5977 96.6309 -12.5977 Z"/>
  </g>
  <g id="Thin-L" transform="matrix(1 0 0 1 783.693 1556)">
   <path d="M 72.7051 26.3184 C 106.494 26.3184 134.18 -1.36719 134.18 -35.1074 C 134.18 -68.8965 106.494 -96.582 72.7051 -96.582 C 38.9648 -96.582 11.2793 -68.8965 11.2793 -35.1074 C 11.2793 -1.36719 38.9648 26.3184 72.7051 26.3184 Z M 38.1348 -8.59375 C 36.8164 -8.59375 35.9375 -9.42383 35.9375 -10.7422 C 35.9375 -11.6211 36.1328 -12.0605 36.6211 -12.6465 L 56.4453 -35.5957 C 60.7422 -40.6738 62.8906 -44.1895 62.8906 -48.5352 C 62.8906 -54.8828 58.3496 -58.9844 51.0254 -58.9844 C 44.043 -58.9844 38.916 -54.6875 38.3789 -48.6328 C 38.2324 -47.4121 37.5488 -46.7285 36.3281 -46.7285 C 35.1074 -46.7285 34.375 -47.6074 34.375 -48.7793 C 34.375 -49.3652 34.4727 -49.9023 34.5703 -50.5371 C 35.7422 -57.666 42.7246 -62.793 50.9766 -62.793 C 60.5469 -62.793 66.9434 -57.2266 66.9434 -48.5352 C 66.9434 -43.4082 64.3555 -38.9648 58.4473 -32.0801 L 41.748 -12.6465 L 41.748 -12.4512 L 66.6504 -12.4512 C 67.8223 -12.4512 68.5547 -11.6699 68.5547 -10.5469 C 68.5547 -9.47266 67.8223 -8.59375 66.6504 -8.59375 Z M 95.752 -7.71484 C 87.793 -7.71484 82.7637 -11.084 79.9316 -16.9434 C 77.7832 -21.2891 76.9531 -26.9043 76.9531 -33.5449 C 76.9531 -52.0508 84.2285 -62.793 96.6797 -62.793 C 105.078 -62.793 110.596 -57.373 111.816 -53.6621 C 111.914 -53.3691 112.012 -52.8809 112.012 -52.5391 C 112.012 -51.5625 111.426 -50.7324 110.205 -50.7324 C 109.375 -50.7324 108.936 -51.3184 108.496 -52.0508 C 106.348 -56.3477 101.953 -58.9844 96.6309 -58.9844 C 86.6211 -58.9844 80.6152 -49.4629 80.6152 -33.3984 L 80.6152 -32.7148 L 80.7617 -32.7148 C 83.1543 -38.5742 89.5508 -42.5293 96.582 -42.5293 C 106.592 -42.5293 113.818 -35.498 113.818 -25.5859 C 113.818 -14.8926 106.543 -7.71484 95.752 -7.71484 Z M 95.8008 -11.5234 C 104.248 -11.5234 109.912 -16.8945 109.912 -25.293 C 109.912 -33.4961 104.15 -38.8672 95.8496 -38.8672 C 87.5488 -38.8672 81.5918 -33.3008 81.5918 -25.3906 C 81.5918 -17.2852 87.5 -11.5234 95.8008 -11.5234 Z"/>
  </g>
  <g id="Ultralight-L" transform="matrix(1 0 0 1 487.616 1556)">
   <path d="M 72.1191 25.7324 C 105.566 25.7324 132.91 -1.61133 132.91 -35.1074 C 132.91 -68.5547 105.566 -95.8984 72.1191 -95.8984 C 38.623 -95.8984 11.2793 -68.5547 11.2793 -35.1074 C 11.2793 -1.61133 38.623 25.7324 72.1191 25.7324 Z M 37.6465 -8.69141 C 36.5723 -8.69141 35.8398 -9.32617 35.8398 -10.4004 C 35.8398 -11.1816 35.9863 -11.5234 36.3281 -11.9141 L 56.6895 -35.4492 C 61.2305 -40.8203 63.0859 -44.3359 63.0859 -48.6816 C 63.0859 -55.3711 58.3008 -59.6191 50.5371 -59.6191 C 43.0664 -59.6191 37.5488 -54.9316 37.2559 -48.584 C 37.2559 -47.5586 36.6699 -46.9727 35.5957 -46.9727 C 34.6191 -46.9727 34.0332 -47.7051 34.0332 -48.6328 C 34.0332 -49.1699 34.082 -49.6094 34.1797 -50.2441 C 35.2539 -57.4219 42.2363 -62.5977 50.5859 -62.5977 C 59.9609 -62.5977 66.3086 -57.0801 66.3086 -48.5352 C 66.3086 -43.7012 63.916 -39.3066 57.7637 -32.1777 L 40.2344 -11.7676 L 40.2344 -11.6211 L 66.4062 -11.6211 C 67.3828 -11.6211 67.9199 -10.9863 67.9199 -10.1562 C 67.9199 -9.42383 67.3828 -8.69141 66.4062 -8.69141 Z M 95.2148 -7.95898 C 86.9629 -7.95898 82.1289 -11.5234 79.3945 -17.2363 C 77.2949 -21.582 76.5625 -27.1973 76.5625 -33.4961 C 76.5625 -51.6602 83.7402 -62.5977 96.0938 -62.5977 C 104.688 -62.5977 110.254 -56.7871 111.328 -53.2715 C 111.377 -53.0762 111.475 -52.7344 111.475 -52.4414 C 111.475 -51.7578 111.084 -51.0254 110.01 -51.0254 C 109.375 -51.0254 109.033 -51.5625 108.789 -52.0996 C 106.494 -56.7871 101.709 -59.6191 96.0938 -59.6191 C 85.5469 -59.6191 79.3457 -49.707 79.3457 -32.8613 L 79.3457 -32.1777 C 81.9336 -38.3789 88.7207 -42.334 95.8496 -42.334 C 106.104 -42.334 113.184 -35.0586 113.184 -25.4883 C 113.184 -15.1367 106.006 -7.95898 95.2148 -7.95898 Z M 95.3613 -10.9375 C 104.248 -10.9375 110.303 -16.5039 110.303 -25.293 C 110.303 -33.7891 104.199 -39.3555 95.4102 -39.3555 C 86.6699 -39.3555 80.3223 -33.5449 80.3223 -25.3418 C 80.3223 -16.9434 86.6211 -10.9375 95.3613 -10.9375 Z"/>
  </g>
  <g id="Black-M" transform="matrix(1 0 0 1 2870.97 1126)">
   <path d="M 62.4023 18.457 C 91.9922 18.457 116.113 -5.61523 116.113 -35.2051 C 116.113 -64.7949 91.9922 -88.8672 62.4023 -88.8672 C 32.8125 -88.8672 8.74023 -64.7949 8.74023 -35.2051 C 8.74023 -5.61523 32.8125 18.457 62.4023 18.457 Z M 42.1387 -16.8945 C 39.3066 -16.8945 37.0117 -18.7988 37.0117 -22.0215 C 37.0117 -24.1211 37.7441 -25.8789 39.6973 -28.125 L 46.7773 -36.4746 C 48.9746 -39.0625 50.3906 -40.4785 50.3906 -42.3828 C 50.3906 -43.6035 49.1699 -44.7266 47.7051 -44.7266 C 46.3867 -44.7266 45.2637 -43.7988 44.9219 -42.4805 C 44.4336 -40.6738 43.1152 -39.3066 40.5762 -39.3066 C 37.9395 -39.3066 36.1816 -41.1621 36.1816 -43.6523 C 36.1816 -44.6777 36.377 -45.4102 36.6211 -46.2891 C 37.9883 -51.1719 42.627 -54.2969 48.2422 -54.2969 C 55.2246 -54.2969 59.4727 -49.6582 59.5703 -43.3105 C 59.668 -39.1602 57.8613 -35.8887 54.0527 -31.4941 L 50.3418 -27.1484 L 50.3418 -26.6602 L 55.6641 -26.6602 C 58.8867 -26.6602 60.791 -24.9023 60.791 -21.875 C 60.791 -18.7012 58.8867 -16.8945 55.6641 -16.8945 Z M 77.5879 -16.2109 C 72.2656 -16.2109 67.9688 -18.6523 65.8203 -23.7793 C 64.4531 -27.0508 63.7695 -31.1523 63.7695 -35.3516 C 63.7695 -47.5586 70.166 -54.2969 78.3203 -54.2969 C 83.2031 -54.2969 86.6211 -52.0996 87.9395 -49.6094 C 88.5742 -48.4863 88.8184 -47.6074 88.8184 -46.2891 C 88.8184 -43.8965 86.6699 -42.4805 84.668 -42.4805 C 82.8613 -42.4805 81.7871 -43.1152 81.1035 -43.8477 C 80.2734 -44.6289 79.541 -45.4102 77.9785 -45.4102 C 75.6348 -45.4102 73.5352 -42.8711 73.5352 -39.4043 C 73.5352 -38.1836 73.6328 -37.5 73.6816 -36.7676 L 73.9258 -36.7676 C 75.0977 -39.0137 77.1484 -40.7715 80.5664 -40.7715 C 85.5469 -40.7715 89.9414 -36.6699 89.9414 -29.8828 C 89.9414 -21.6797 85.0098 -16.2109 77.5879 -16.2109 Z M 77.0508 -24.8535 C 78.7598 -24.8535 80.0781 -26.416 80.0781 -28.7598 C 80.0781 -31.0547 78.7598 -32.6172 77.0508 -32.6172 C 75.1953 -32.6172 73.877 -31.0547 73.877 -28.7598 C 73.877 -26.3672 75.1953 -24.8535 77.0508 -24.8535 Z"/>
  </g>
  <g id="Heavy-M" transform="matrix(1 0 0 1 2575.19 1126)">
   <path d="M 61.5234 17.5781 C 90.5273 17.5781 114.258 -6.15234 114.258 -35.2051 C 114.258 -64.2578 90.5273 -87.9883 61.4746 -87.9883 C 32.4707 -87.9883 8.74023 -64.2578 8.74023 -35.2051 C 8.74023 -6.15234 32.4707 17.5781 61.5234 17.5781 Z M 39.5996 -16.2598 C 36.9629 -16.2598 34.9121 -18.0664 34.9121 -20.9473 C 34.9121 -22.7539 35.5957 -24.3164 37.2559 -26.2695 L 45.8984 -36.3281 C 48.1445 -39.0137 49.8047 -40.7715 49.8047 -43.0176 C 49.8047 -44.873 48.2422 -46.2891 46.1914 -46.2891 C 44.2871 -46.2891 42.8223 -45.166 42.2852 -43.2129 C 41.748 -41.5039 40.5762 -40.2344 38.2324 -40.2344 C 35.791 -40.2344 34.2285 -41.9434 34.2285 -44.3359 C 34.2285 -45.2148 34.375 -45.9473 34.6191 -46.7285 C 35.9375 -51.709 40.8203 -55.0293 46.5332 -55.0293 C 53.7598 -55.0293 58.2031 -50.3906 58.3008 -43.8477 C 58.3496 -39.502 56.3477 -36.084 52.5391 -31.7383 L 47.3145 -25.6348 L 47.3145 -25.1953 L 54.9316 -25.1953 C 57.7637 -25.1953 59.4727 -23.584 59.4727 -20.8496 C 59.4727 -17.9688 57.7637 -16.2598 54.9316 -16.2598 Z M 77.1973 -15.4785 C 71.9238 -15.4785 67.627 -17.8223 65.332 -22.9004 C 63.8672 -26.1719 63.1348 -30.3711 63.1348 -35.0586 C 63.1348 -48.0469 69.4824 -55.0293 78.0273 -55.0293 C 83.1055 -55.0293 86.7188 -52.6367 87.9883 -49.9023 C 88.5742 -48.877 88.7695 -48.0957 88.7695 -46.9238 C 88.7695 -44.6777 86.8652 -43.3594 85.0098 -43.3594 C 83.3008 -43.3594 82.3242 -43.9453 81.5918 -44.8242 C 80.6152 -45.8984 79.5898 -46.8262 77.6855 -46.8262 C 74.5605 -46.8262 72.0215 -43.457 72.0215 -38.5254 C 72.0215 -37.5488 72.0703 -36.9629 72.1191 -36.4258 L 72.4121 -36.4258 C 73.584 -38.916 75.9766 -40.9668 79.8828 -40.9668 C 85.2539 -40.9668 89.9902 -36.7188 89.9902 -29.4434 C 89.9902 -20.9473 84.8633 -15.4785 77.1973 -15.4785 Z M 76.7578 -23.4375 C 79.1992 -23.4375 80.957 -25.4395 80.957 -28.4668 C 80.957 -31.4941 79.1992 -33.4961 76.7578 -33.4961 C 74.1699 -33.4961 72.4121 -31.4453 72.4121 -28.5156 C 72.4121 -25.4395 74.2188 -23.4375 76.7578 -23.4375 Z"/>
  </g>
  <g id="Bold-M" transform="matrix(1 0 0 1 2279.5 1126)">
   <path d="M 60.498 16.5039 C 88.8672 16.5039 112.207 -6.78711 112.207 -35.2051 C 112.207 -63.623 88.8672 -86.9629 60.4492 -86.9629 C 32.0312 -86.9629 8.74023 -63.623 8.74023 -35.2051 C 8.74023 -6.78711 32.0801 16.5039 60.498 16.5039 Z M 36.7188 -15.625 C 34.375 -15.625 32.6172 -17.1875 32.6172 -19.7266 C 32.6172 -21.2402 33.1543 -22.5586 34.5215 -24.1211 L 44.8242 -36.2305 C 47.168 -39.0137 49.2188 -41.1133 49.2188 -43.7012 C 49.2188 -46.2402 47.2656 -48.0957 44.4336 -48.0957 C 41.9434 -48.0957 40.1367 -46.6797 39.3066 -44.0918 C 38.7207 -42.4316 37.6953 -41.3086 35.6445 -41.3086 C 33.4473 -41.3086 32.0312 -42.8223 32.0312 -45.0195 C 32.0312 -45.8496 32.1777 -46.5332 32.3242 -47.2656 C 33.6914 -52.2949 38.7695 -55.8105 44.5801 -55.8105 C 52.0996 -55.8105 56.8359 -51.2207 56.8848 -44.4824 C 56.9336 -39.8438 54.6387 -36.377 50.8301 -31.9824 L 43.9453 -23.9746 L 43.9453 -23.5352 L 54.1016 -23.5352 C 56.4941 -23.5352 58.0566 -22.0703 58.0566 -19.6289 C 58.0566 -17.1387 56.4941 -15.625 54.1016 -15.625 Z M 76.8066 -14.6484 C 71.5332 -14.6484 67.1875 -16.8457 64.7949 -21.875 C 63.2324 -25.1953 62.4023 -29.4922 62.4023 -34.7168 C 62.4023 -48.584 68.6523 -55.8105 77.6855 -55.8105 C 83.0078 -55.8105 86.7676 -53.2227 88.0859 -50.2441 C 88.5742 -49.3652 88.7695 -48.584 88.7695 -47.6074 C 88.7695 -45.5566 87.1094 -44.2871 85.4004 -44.2871 C 83.7891 -44.2871 82.8613 -44.9219 82.1289 -45.9473 C 81.0059 -47.3145 79.6387 -48.4375 77.3926 -48.4375 C 73.291 -48.4375 70.3125 -44.1406 70.3125 -37.5488 C 70.3125 -36.8164 70.3613 -36.4258 70.3613 -35.9863 L 70.7031 -35.9863 C 71.9238 -38.8184 74.6582 -41.2109 79.1016 -41.2109 C 84.9121 -41.2109 90.0879 -36.7676 90.0879 -28.9551 C 90.0879 -20.1172 84.668 -14.6484 76.8066 -14.6484 Z M 76.416 -21.8262 C 79.7363 -21.8262 81.9336 -24.3164 81.9336 -28.2227 C 81.9336 -31.9336 79.6875 -34.4727 76.416 -34.4727 C 73.0469 -34.4727 70.752 -31.9336 70.752 -28.2227 C 70.752 -24.4141 73.0957 -21.8262 76.416 -21.8262 Z"/>
  </g>
  <g id="Semibold-M" transform="matrix(1 0 0 1 1983.5 1126)">
   <path d="M 59.7656 15.8203 C 87.7441 15.8203 110.791 -7.22656 110.791 -35.2051 C 110.791 -63.1836 87.6953 -86.2793 59.7656 -86.2793 C 31.7871 -86.2793 8.74023 -63.1836 8.74023 -35.2051 C 8.74023 -7.22656 31.7871 15.8203 59.7656 15.8203 Z M 34.7168 -15.1367 C 32.5684 -15.1367 31.0547 -16.6016 31.0547 -18.8477 C 31.0547 -20.166 31.4941 -21.3379 32.666 -22.6562 L 44.1406 -36.1816 C 46.4844 -38.9648 48.7793 -41.3574 48.7793 -44.1895 C 48.7793 -47.2168 46.5332 -49.3164 43.2617 -49.3164 C 40.332 -49.3164 38.2324 -47.7539 37.2559 -44.6777 C 36.6211 -43.0664 35.6934 -42.041 33.8867 -42.041 C 31.7871 -42.041 30.5176 -43.457 30.5176 -45.5078 C 30.5176 -46.2402 30.6641 -46.9238 30.8105 -47.6074 C 32.1289 -52.7344 37.3535 -56.3965 43.2617 -56.3965 C 50.9766 -56.3965 55.8594 -51.8066 55.9082 -44.9219 C 55.957 -40.1367 53.4668 -36.5234 49.6582 -32.1289 L 41.6016 -22.8027 L 41.6016 -22.3633 L 53.5156 -22.3633 C 55.6152 -22.3633 57.0312 -21.0449 57.0312 -18.8477 C 57.0312 -16.5527 55.6152 -15.1367 53.5156 -15.1367 Z M 76.5137 -14.1113 C 71.2891 -14.1113 66.9434 -16.2109 64.4531 -21.1914 C 62.793 -24.4629 61.9141 -28.9062 61.9141 -34.4727 C 61.9141 -48.9746 68.1152 -56.3965 77.4414 -56.3965 C 82.959 -56.3965 86.8652 -53.6133 88.1836 -50.4883 C 88.5742 -49.6582 88.7207 -48.9746 88.7207 -48.0957 C 88.7207 -46.1914 87.3047 -44.9707 85.6445 -44.9707 C 84.1309 -44.9707 83.252 -45.6055 82.4707 -46.6797 C 81.2988 -48.291 79.6875 -49.5117 77.1484 -49.5117 C 72.4609 -49.5117 69.1406 -44.5801 69.1406 -36.8652 C 69.1406 -36.377 69.1406 -36.0352 69.1895 -35.6934 L 69.4824 -35.6934 C 70.752 -38.7207 73.7305 -41.3574 78.5156 -41.3574 C 84.668 -41.3574 90.1855 -36.7676 90.1855 -28.6133 C 90.1855 -19.5801 84.5703 -14.1113 76.5137 -14.1113 Z M 76.1719 -20.7031 C 80.0781 -20.7031 82.6172 -23.584 82.6172 -28.0273 C 82.6172 -32.2754 79.9805 -35.1562 76.1719 -35.1562 C 72.2656 -35.1562 69.6289 -32.2266 69.6289 -28.0762 C 69.6289 -23.7305 72.3145 -20.7031 76.1719 -20.7031 Z"/>
  </g>
  <g id="Medium-M" transform="matrix(1 0 0 1 1687.3 1126)">
   <path d="M 59.2285 15.2832 C 86.9141 15.2832 109.766 -7.56836 109.766 -35.2051 C 109.766 -62.8906 86.8652 -85.7422 59.1797 -85.7422 C 31.543 -85.7422 8.74023 -62.8906 8.74023 -35.2051 C 8.74023 -7.56836 31.5918 15.2832 59.2285 15.2832 Z M 33.252 -14.7949 C 31.2012 -14.7949 29.834 -16.1133 29.834 -18.2129 C 29.834 -19.3848 30.2246 -20.459 31.25 -21.582 L 43.6035 -36.1328 C 45.9961 -38.9648 48.4375 -41.5039 48.4375 -44.5801 C 48.4375 -47.9492 46.0449 -50.2441 42.3828 -50.2441 C 39.1113 -50.2441 36.8164 -48.5352 35.6934 -45.1172 C 35.0098 -43.5547 34.1797 -42.5781 32.5195 -42.5781 C 30.5664 -42.5781 29.3457 -43.8965 29.3457 -45.8984 C 29.3457 -46.582 29.4922 -47.2168 29.6387 -47.8516 C 30.957 -53.0273 36.2793 -56.7871 42.2852 -56.7871 C 50.0977 -56.7871 55.127 -52.2461 55.1758 -45.2148 C 55.1758 -40.2832 52.5391 -36.6699 48.7793 -32.2754 L 39.8438 -21.875 L 39.8438 -21.4844 L 53.0762 -21.4844 C 54.9316 -21.4844 56.2988 -20.3125 56.2988 -18.2129 C 56.2988 -16.1133 54.9316 -14.7949 53.0762 -14.7949 Z M 76.3184 -13.6719 C 71.0938 -13.6719 66.6992 -15.7227 64.1602 -20.7031 C 62.5 -23.9746 61.5234 -28.418 61.5234 -34.3262 C 61.5234 -49.2676 67.6758 -56.7871 77.2461 -56.7871 C 82.9102 -56.7871 86.9141 -53.9551 88.1836 -50.6348 C 88.5742 -49.9023 88.7207 -49.2188 88.7207 -48.4863 C 88.7207 -46.6309 87.4023 -45.459 85.8398 -45.459 C 84.375 -45.459 83.5449 -46.0938 82.7148 -47.2656 C 81.4941 -49.0234 79.6875 -50.3906 77.002 -50.3906 C 71.8262 -50.3906 68.2617 -44.9219 68.2617 -36.3281 C 68.2617 -35.9863 68.2617 -35.7422 68.2617 -35.4492 L 68.6035 -35.4492 C 69.8242 -38.6719 73.0469 -41.5039 78.125 -41.5039 C 84.4727 -41.5039 90.2344 -36.8164 90.2344 -28.3691 C 90.2344 -19.1406 84.4727 -13.6719 76.3184 -13.6719 Z M 75.9766 -19.873 C 80.3223 -19.873 83.1543 -22.998 83.1543 -27.8809 C 83.1543 -32.5195 80.2734 -35.6934 76.0254 -35.6934 C 71.6797 -35.6934 68.75 -32.4707 68.75 -27.9297 C 68.75 -23.1934 71.7285 -19.873 75.9766 -19.873 Z"/>
  </g>
  <g id="Regular-M" transform="matrix(1 0 0 1 1391.3 1126)">
   <path d="M 58.5449 14.5508 C 85.791 14.5508 108.35 -8.00781 108.35 -35.2539 C 108.35 -62.4512 85.7422 -85.0586 58.4961 -85.0586 C 31.2988 -85.0586 8.74023 -62.4512 8.74023 -35.2539 C 8.74023 -8.00781 31.3477 14.5508 58.5449 14.5508 Z M 31.25 -14.3555 C 29.3945 -14.3555 28.2715 -15.5273 28.2715 -17.3828 C 28.2715 -18.3594 28.5645 -19.2383 29.3457 -20.1172 L 42.9199 -36.0352 C 45.3613 -38.916 48.0469 -41.748 48.0469 -45.0684 C 48.0469 -48.877 45.3613 -51.4648 41.2109 -51.4648 C 37.5488 -51.4648 34.9609 -49.5605 33.6426 -45.7031 C 32.959 -44.1895 32.2266 -43.3105 30.7617 -43.3105 C 28.9551 -43.3105 27.8809 -44.5312 27.8809 -46.3867 C 27.8809 -46.9727 27.9785 -47.6074 28.0762 -48.1934 C 29.3945 -53.4668 34.8633 -57.3242 40.9668 -57.3242 C 48.9746 -57.3242 54.1992 -52.7832 54.1992 -45.6543 C 54.1992 -40.5762 51.416 -36.8164 47.6074 -32.4219 L 37.5488 -20.752 L 37.5488 -20.3613 L 52.4902 -20.3613 C 54.0527 -20.3613 55.3223 -19.2871 55.3223 -17.3828 C 55.3223 -15.5273 54.0527 -14.3555 52.4902 -14.3555 Z M 76.0254 -13.1348 C 70.8008 -13.1348 66.4551 -15.0879 63.8184 -20.0195 C 62.0605 -23.291 61.0352 -27.832 61.0352 -34.082 C 61.0352 -49.6582 67.1387 -57.3242 77.002 -57.3242 C 82.8613 -57.3242 86.9629 -54.3457 88.2812 -50.8789 C 88.5742 -50.2441 88.6719 -49.5605 88.6719 -48.9258 C 88.6719 -47.2656 87.5977 -46.1426 86.1328 -46.1426 C 84.7168 -46.1426 83.9355 -46.7773 83.1055 -48.0469 C 81.7871 -50 79.7363 -51.4648 76.7578 -51.4648 C 70.9961 -51.4648 67.0898 -45.3613 67.0898 -35.6934 L 67.0898 -35.1562 L 67.4316 -35.1562 C 68.7012 -38.5742 72.168 -41.6504 77.5879 -41.6504 C 84.2773 -41.6504 90.2832 -36.8164 90.2832 -28.0273 C 90.2832 -18.5547 84.3262 -13.1348 76.0254 -13.1348 Z M 75.7812 -18.75 C 80.7129 -18.75 83.8379 -22.2168 83.8379 -27.6855 C 83.8379 -32.8613 80.5664 -36.3281 75.7812 -36.3281 C 70.9473 -36.3281 67.627 -32.8125 67.627 -27.7344 C 67.627 -22.5098 70.9473 -18.75 75.7812 -18.75 Z"/>
  </g>
  <g id="Light-M" transform="matrix(1 0 0 1 1095.42 1126)">
   <path d="M 57.7148 13.7695 C 84.5215 13.7695 106.689 -8.39844 106.689 -35.2051 C 106.689 -62.0117 84.5215 -84.1797 57.666 -84.1797 C 30.8594 -84.1797 8.74023 -62.0117 8.74023 -35.2051 C 8.74023 -8.39844 30.9082 13.7695 57.7148 13.7695 Z M 30.6152 -14.4531 C 29.1016 -14.4531 28.125 -15.4297 28.125 -16.9434 C 28.125 -17.8223 28.3691 -18.5059 29.0039 -19.1895 L 43.2129 -35.8398 C 45.9961 -39.1113 48.291 -41.8945 48.291 -45.2637 C 48.291 -49.5117 45.3125 -52.2949 40.5762 -52.2949 C 36.2305 -52.2949 33.1543 -49.8535 32.1777 -45.6543 C 31.6895 -44.3848 31.0547 -43.6035 29.7852 -43.6035 C 28.2715 -43.6035 27.3926 -44.6289 27.3926 -46.1426 C 27.3926 -46.6797 27.4902 -47.2168 27.5879 -47.8027 C 28.7598 -53.125 34.2285 -57.0801 40.3809 -57.0801 C 48.1934 -57.0801 53.3203 -52.5879 53.3203 -45.6055 C 53.3203 -40.918 50.8301 -37.3047 46.7285 -32.5684 L 35.5957 -19.5801 L 35.5957 -19.3359 L 52.1484 -19.3359 C 53.5156 -19.3359 54.4922 -18.4082 54.4922 -16.8945 C 54.4922 -15.4297 53.5156 -14.4531 52.1484 -14.4531 Z M 75.3418 -13.4277 C 69.7754 -13.4277 65.5762 -15.625 63.0859 -20.4102 C 61.377 -23.6816 60.498 -28.1738 60.498 -34.0332 C 60.498 -49.1211 66.4551 -57.0801 76.2207 -57.0801 C 82.3242 -57.0801 86.4746 -53.6133 87.6465 -50.3418 C 87.8906 -49.8535 87.9883 -49.3164 87.9883 -48.8281 C 87.9883 -47.5098 87.1094 -46.5332 85.8398 -46.5332 C 84.7656 -46.5332 84.1309 -47.1191 83.4961 -48.1445 C 82.0312 -50.6348 79.4434 -52.2949 76.0742 -52.2949 C 69.5312 -52.2949 65.332 -45.7031 65.332 -34.9609 L 65.332 -34.4727 L 65.625 -34.4727 C 67.0898 -38.2812 71.0938 -41.3574 76.5625 -41.3574 C 83.6426 -41.3574 89.502 -36.2793 89.502 -27.9297 C 89.502 -18.8965 83.6426 -13.4277 75.3418 -13.4277 Z M 75.1953 -18.0664 C 80.7129 -18.0664 84.3262 -21.7773 84.3262 -27.6367 C 84.3262 -33.252 80.6152 -37.0117 75.1953 -37.0117 C 69.7754 -37.0117 65.9668 -33.1543 65.9668 -27.6855 C 65.9668 -22.0215 69.7754 -18.0664 75.1953 -18.0664 Z"/>
  </g>
  <g id="Thin-M" transform="matrix(1 0 0 1 799.806 1126)">
   <path d="M 56.6406 12.7441 C 82.9102 12.7441 104.492 -8.83789 104.492 -35.1562 C 104.492 -61.4746 82.9102 -83.0566 56.5918 -83.0566 C 30.3223 -83.0566 8.74023 -61.4746 8.74023 -35.1562 C 8.74023 -8.83789 30.3223 12.7441 56.6406 12.7441 Z M 29.7852 -14.5508 C 28.6621 -14.5508 27.8809 -15.2832 27.8809 -16.4062 C 27.8809 -17.0898 28.0762 -17.5293 28.4668 -18.0176 L 43.6523 -35.5957 C 46.875 -39.3555 48.6328 -42.1387 48.6328 -45.5078 C 48.6328 -50.293 45.2148 -53.3691 39.7461 -53.3691 C 34.5215 -53.3691 30.7617 -50.2441 30.2246 -45.6055 C 30.0293 -44.6289 29.4922 -44.043 28.4668 -44.043 C 27.3926 -44.043 26.8066 -44.7754 26.8066 -45.8008 C 26.8066 -46.2891 26.8555 -46.7285 26.9531 -47.2168 C 27.8809 -52.7344 33.3496 -56.6895 39.6973 -56.6895 C 47.168 -56.6895 52.1484 -52.3438 52.1484 -45.5566 C 52.1484 -41.4551 50.0488 -37.9395 45.5566 -32.7637 L 32.959 -18.0664 L 32.959 -17.9199 L 51.7578 -17.9199 C 52.7344 -17.9199 53.3691 -17.2363 53.3691 -16.2598 C 53.3691 -15.332 52.7344 -14.5508 51.7578 -14.5508 Z M 74.4141 -13.8184 C 68.3594 -13.8184 64.4531 -16.3574 62.1582 -20.9473 C 60.498 -24.2676 59.8145 -28.6621 59.8145 -33.9355 C 59.8145 -48.4375 65.5273 -56.6895 75.1953 -56.6895 C 81.5918 -56.6895 85.8887 -52.6367 86.8164 -49.6582 C 86.9629 -49.3652 87.0117 -49.0234 87.0117 -48.6816 C 87.0117 -47.8027 86.4746 -47.0703 85.498 -47.0703 C 84.7656 -47.0703 84.375 -47.5586 83.9844 -48.2422 C 82.3242 -51.416 79.1016 -53.3691 75.1465 -53.3691 C 67.627 -53.3691 63.0371 -46.1426 63.0371 -34.0332 L 63.0371 -33.5449 L 63.1836 -33.5449 C 64.9414 -37.9395 69.7266 -40.9668 75.1953 -40.9668 C 82.8125 -40.9668 88.4277 -35.5957 88.4277 -27.7832 C 88.4277 -19.3359 82.7637 -13.8184 74.4141 -13.8184 Z M 74.4141 -17.0898 C 80.7617 -17.0898 85.0098 -21.1426 85.0098 -27.5391 C 85.0098 -33.7891 80.7129 -37.8418 74.4629 -37.8418 C 68.2129 -37.8418 63.7695 -33.5938 63.7695 -27.6367 C 63.7695 -21.4355 68.2129 -17.0898 74.4141 -17.0898 Z"/>
  </g>
  <g id="Ultralight-M" transform="matrix(1 0 0 1 503.656 1126)">
   <path d="M 56.0547 12.207 C 82.0801 12.207 103.369 -9.08203 103.369 -35.1562 C 103.369 -61.1816 82.0801 -82.4707 56.0547 -82.4707 C 30.0293 -82.4707 8.74023 -61.1816 8.74023 -35.1562 C 8.74023 -9.08203 30.0293 12.207 56.0547 12.207 Z M 29.3457 -14.6484 C 28.418 -14.6484 27.7832 -15.1855 27.7832 -16.1133 C 27.7832 -16.6992 27.9297 -17.041 28.2227 -17.3828 L 43.8477 -35.4492 C 47.3145 -39.502 48.8281 -42.2363 48.8281 -45.6055 C 48.8281 -50.6836 45.2148 -53.9551 39.3066 -53.9551 C 33.6426 -53.9551 29.541 -50.4395 29.248 -45.6055 C 29.1992 -44.7266 28.6621 -44.2383 27.832 -44.2383 C 26.9531 -44.2383 26.4648 -44.873 26.4648 -45.6543 C 26.4648 -46.0938 26.5625 -46.4355 26.6113 -46.9727 C 27.4414 -52.4902 32.8613 -56.4941 39.3066 -56.4941 C 46.6309 -56.4941 51.5625 -52.1973 51.5625 -45.5566 C 51.5625 -41.6992 49.6582 -38.2812 44.9707 -32.8613 L 31.6406 -17.334 L 31.6406 -17.1875 L 51.5625 -17.1875 C 52.3438 -17.1875 52.832 -16.6504 52.832 -15.918 C 52.832 -15.2344 52.3438 -14.6484 51.5625 -14.6484 Z M 73.9746 -14.0137 C 67.627 -14.0137 63.8672 -16.6992 61.6699 -21.1914 C 60.0586 -24.5605 59.4238 -28.9062 59.4238 -33.8867 C 59.4238 -48.0469 65.0391 -56.4941 74.6582 -56.4941 C 81.25 -56.4941 85.5469 -52.0996 86.4258 -49.3164 C 86.4746 -49.1211 86.5234 -48.8281 86.5234 -48.584 C 86.5234 -47.998 86.1816 -47.3633 85.3027 -47.3633 C 84.7656 -47.3633 84.4727 -47.8027 84.2285 -48.291 C 82.4707 -51.8066 78.9062 -53.9551 74.6582 -53.9551 C 66.6016 -53.9551 61.8652 -46.3867 61.8652 -33.5449 L 61.8652 -33.0566 L 61.9141 -33.0566 C 63.8672 -37.7441 68.9941 -40.7715 74.5117 -40.7715 C 82.373 -40.7715 87.8906 -35.2539 87.8906 -27.7344 C 87.8906 -19.5801 82.3242 -14.0137 73.9746 -14.0137 Z M 74.0234 -16.6016 C 80.8105 -16.6016 85.3516 -20.8496 85.3516 -27.5391 C 85.3516 -34.0332 80.7129 -38.2812 74.0723 -38.2812 C 67.4316 -38.2812 62.5977 -33.8379 62.5977 -27.5879 C 62.5977 -21.1426 67.3828 -16.6016 74.0234 -16.6016 Z"/>
  </g>
  <g id="Black-S" transform="matrix(1 0 0 1 2884.57 696)">
   <path d="M 48.8281 6.78711 C 71.9727 6.78711 90.8203 -12.0605 90.8203 -35.2051 C 90.8203 -58.3496 71.9727 -77.1973 48.8281 -77.1973 C 25.6836 -77.1973 6.83594 -58.3496 6.83594 -35.2051 C 6.83594 -12.0605 25.6836 6.78711 48.8281 6.78711 Z M 32.8125 -20.8008 C 30.6152 -20.8008 28.8086 -22.3145 28.8086 -24.8047 C 28.8086 -26.416 29.3945 -27.7832 30.9082 -29.541 L 36.5723 -36.1816 C 38.2812 -38.2324 39.4043 -39.3555 39.4043 -40.8691 C 39.4043 -41.8945 38.4277 -42.7734 37.2559 -42.7734 C 36.1816 -42.7734 35.3027 -42.041 35.0098 -40.9668 C 34.6191 -39.5508 33.5938 -38.4766 31.5918 -38.4766 C 29.541 -38.4766 28.1738 -39.9414 28.1738 -41.8945 C 28.1738 -42.6758 28.3203 -43.2617 28.5156 -43.9453 C 29.5898 -47.7539 33.252 -50.2441 37.6465 -50.2441 C 43.1641 -50.2441 46.4844 -46.582 46.582 -41.6016 C 46.6309 -38.3301 45.2148 -35.7422 42.2363 -32.3242 L 39.209 -28.8086 L 39.209 -28.418 L 43.5547 -28.418 C 46.0449 -28.418 47.5098 -27.0508 47.5098 -24.707 C 47.5098 -22.2168 46.0449 -20.8008 43.5547 -20.8008 Z M 60.7422 -20.2637 C 56.5918 -20.2637 53.2227 -22.168 51.5137 -26.1719 C 50.4395 -28.7598 49.9023 -31.9824 49.9023 -35.3027 C 49.9023 -44.9219 54.9316 -50.2441 61.3281 -50.2441 C 65.1855 -50.2441 67.8711 -48.4863 68.8965 -46.5332 C 69.3848 -45.6543 69.5801 -44.9707 69.5801 -43.9453 C 69.5801 -42.0898 67.9199 -40.9668 66.3574 -40.9668 C 64.9414 -40.9668 64.1113 -41.4551 63.5742 -42.041 C 62.8906 -42.6758 62.3047 -43.3105 61.084 -43.3105 C 59.1797 -43.3105 57.5195 -41.2598 57.5195 -38.4277 C 57.5195 -37.5 57.5684 -36.9629 57.6172 -36.4258 L 57.8125 -36.4258 C 58.7402 -38.1836 60.3516 -39.5996 63.0859 -39.5996 C 66.9922 -39.5996 70.459 -36.377 70.459 -31.0059 C 70.459 -24.5605 66.6016 -20.2637 60.7422 -20.2637 Z M 60.3516 -27.002 C 61.7188 -27.002 62.793 -28.2715 62.793 -30.127 C 62.793 -31.9824 61.7188 -33.252 60.3516 -33.252 C 58.8379 -33.252 57.7637 -31.9824 57.7637 -30.127 C 57.7637 -28.2227 58.8379 -27.002 60.3516 -27.002 Z"/>
  </g>
  <g id="Heavy-S" transform="matrix(1 0 0 1 2588.47 696)">
   <path d="M 48.2422 6.15234 C 70.9961 6.15234 89.5996 -12.4512 89.5996 -35.2051 C 89.5996 -57.959 70.9961 -76.6113 48.1934 -76.6113 C 25.4395 -76.6113 6.83594 -57.959 6.83594 -35.2051 C 6.83594 -12.4512 25.4395 6.15234 48.2422 6.15234 Z M 30.9082 -20.3125 C 28.8574 -20.3125 27.2461 -21.7285 27.2461 -24.0234 C 27.2461 -25.4395 27.7832 -26.6602 29.1016 -28.1738 L 35.8398 -36.1328 C 37.5488 -38.1836 38.9648 -39.5508 38.9648 -41.3574 C 38.9648 -42.7734 37.7441 -43.8965 36.1328 -43.8965 C 34.7168 -43.8965 33.6426 -43.0664 33.1543 -41.5527 C 32.666 -40.1855 31.7383 -39.1602 29.9316 -39.1602 C 27.9785 -39.1602 26.709 -40.5273 26.709 -42.4316 C 26.709 -43.1152 26.8555 -43.7012 27.0508 -44.3359 C 28.125 -48.1934 31.9336 -50.8301 36.377 -50.8301 C 42.1387 -50.8301 45.6543 -47.168 45.7031 -42.041 C 45.752 -38.5254 44.0918 -35.8398 41.1621 -32.4707 L 37.1094 -27.7832 L 37.1094 -27.3926 L 43.0176 -27.3926 C 45.2637 -27.3926 46.6309 -26.123 46.6309 -23.9746 C 46.6309 -21.6797 45.2637 -20.3125 43.0176 -20.3125 Z M 60.5469 -19.6777 C 56.4453 -19.6777 53.0273 -21.4844 51.2207 -25.4395 C 50.0977 -28.0273 49.4629 -31.3477 49.4629 -35.0586 C 49.4629 -45.3613 54.4434 -50.8301 61.1816 -50.8301 C 65.1855 -50.8301 67.9688 -48.9746 69.043 -46.8262 C 69.4824 -45.9961 69.6289 -45.3613 69.6289 -44.4336 C 69.6289 -42.6758 68.1152 -41.6016 66.6504 -41.6016 C 65.2832 -41.6016 64.4531 -42.0898 63.8672 -42.7734 C 63.1348 -43.6035 62.3535 -44.2871 60.9375 -44.2871 C 58.4961 -44.2871 56.543 -41.6992 56.543 -37.8418 C 56.543 -37.1094 56.5918 -36.6699 56.6406 -36.2305 L 56.8359 -36.2305 C 57.7637 -38.1348 59.5703 -39.7949 62.6465 -39.7949 C 66.8457 -39.7949 70.6055 -36.4746 70.6055 -30.6641 C 70.6055 -23.9746 66.5527 -19.6777 60.5469 -19.6777 Z M 60.1562 -25.9766 C 62.0605 -25.9766 63.4277 -27.5391 63.4277 -29.9316 C 63.4277 -32.2754 62.0605 -33.8379 60.2051 -33.8379 C 58.2031 -33.8379 56.8359 -32.2754 56.8359 -29.9316 C 56.8359 -27.5879 58.2031 -25.9766 60.1562 -25.9766 Z"/>
  </g>
  <g id="Bold-S" transform="matrix(1 0 0 1 2292.44 696)">
   <path d="M 47.5586 5.46875 C 69.873 5.46875 88.2324 -12.8906 88.2324 -35.2051 C 88.2324 -57.5684 69.873 -75.9277 47.5098 -75.9277 C 25.1953 -75.9277 6.83594 -57.5684 6.83594 -35.2051 C 6.83594 -12.8906 25.1953 5.46875 47.5586 5.46875 Z M 28.8086 -19.8242 C 26.9043 -19.8242 25.4883 -21.0938 25.4883 -23.1445 C 25.4883 -24.3652 25.9277 -25.4395 27.0508 -26.709 L 35.0098 -36.084 C 36.7676 -38.1348 38.4277 -39.7949 38.4277 -41.8457 C 38.4277 -43.75 36.9629 -45.166 34.9121 -45.166 C 33.1055 -45.166 31.7871 -44.1895 31.0547 -42.1875 C 30.5176 -40.8691 29.6875 -39.9414 28.0762 -39.9414 C 26.2695 -39.9414 25.0977 -41.2109 25.0977 -43.0176 C 25.0977 -43.6523 25.2441 -44.1895 25.3906 -44.7754 C 26.4648 -48.7305 30.4199 -51.4648 35.0098 -51.4648 C 40.9668 -51.4648 44.6777 -47.8516 44.7266 -42.4805 C 44.7754 -38.7695 42.8711 -35.9863 39.9902 -32.666 L 34.7656 -26.6113 L 34.7656 -26.2695 L 42.4316 -26.2695 C 44.3359 -26.2695 45.6055 -25.0977 45.6055 -23.0957 C 45.6055 -21.0449 44.3359 -19.8242 42.4316 -19.8242 Z M 60.3027 -18.9941 C 56.2988 -18.9941 52.832 -20.6543 50.9277 -24.6582 C 49.6582 -27.1973 48.9746 -30.6152 48.9746 -34.8145 C 48.9746 -45.8496 53.9062 -51.4648 61.0352 -51.4648 C 65.1855 -51.4648 68.1152 -49.5117 69.1895 -47.1191 C 69.5312 -46.3867 69.6777 -45.8008 69.6777 -44.9707 C 69.6777 -43.3105 68.3594 -42.2852 66.9922 -42.2852 C 65.6738 -42.2852 64.8926 -42.7734 64.2578 -43.6523 C 63.4277 -44.5801 62.4512 -45.4102 60.791 -45.4102 C 57.7637 -45.4102 55.4688 -42.1387 55.4688 -37.1582 C 55.4688 -36.6211 55.4688 -36.3281 55.5176 -35.9863 L 55.7617 -35.9863 C 56.6406 -38.0859 58.6914 -39.9902 62.1582 -39.9902 C 66.6504 -39.9902 70.8008 -36.5723 70.8008 -30.3223 C 70.8008 -23.291 66.5039 -18.9941 60.3027 -18.9941 Z M 60.0098 -24.8535 C 62.4512 -24.8535 64.1113 -26.7578 64.1113 -29.7363 C 64.1113 -32.5684 62.4023 -34.5215 60.0098 -34.5215 C 57.4707 -34.5215 55.7617 -32.5684 55.7617 -29.7363 C 55.7617 -26.8555 57.5195 -24.8535 60.0098 -24.8535 Z"/>
  </g>
  <g id="Semibold-S" transform="matrix(1 0 0 1 1996.2 696)">
   <path d="M 47.0703 4.98047 C 69.0918 4.98047 87.3047 -13.1836 87.3047 -35.2539 C 87.3047 -57.2754 69.0918 -75.4883 47.0215 -75.4883 C 25 -75.4883 6.83594 -57.2754 6.83594 -35.2539 C 6.83594 -13.1836 25.0488 4.98047 47.0703 4.98047 Z M 27.3438 -19.4336 C 25.5371 -19.4336 24.3164 -20.6543 24.3164 -22.5098 C 24.3164 -23.584 24.6582 -24.5605 25.6348 -25.6348 L 34.4238 -36.0352 C 36.1816 -38.0859 38.0859 -39.9902 38.0859 -42.2363 C 38.0859 -44.4336 36.4746 -46.0449 34.082 -46.0449 C 31.9824 -46.0449 30.4688 -44.9707 29.5898 -42.6758 C 29.0039 -41.3574 28.2715 -40.4785 26.8066 -40.4785 C 25.0977 -40.4785 23.9746 -41.6504 23.9746 -43.4082 C 23.9746 -43.9941 24.1211 -44.5312 24.2188 -45.0684 C 25.3418 -49.0723 29.3945 -51.9043 34.0332 -51.9043 C 40.1367 -51.9043 44.043 -48.291 44.043 -42.8223 C 44.0918 -38.916 42.041 -36.084 39.1602 -32.7637 L 33.1543 -25.8301 L 33.1543 -25.4883 L 41.9922 -25.4883 C 43.7012 -25.4883 44.9219 -24.4141 44.9219 -22.5098 C 44.9219 -20.6055 43.7012 -19.4336 41.9922 -19.4336 Z M 60.1562 -18.5547 C 56.2012 -18.5547 52.6855 -20.1172 50.6836 -24.0723 C 49.4141 -26.6602 48.6328 -30.127 48.6328 -34.668 C 48.6328 -46.1914 53.5645 -51.9043 60.8887 -51.9043 C 65.1855 -51.9043 68.1641 -49.9023 69.2871 -47.3633 C 69.6289 -46.6797 69.7266 -46.0938 69.7266 -45.3613 C 69.7266 -43.75 68.5547 -42.7246 67.1875 -42.7246 C 65.918 -42.7246 65.1855 -43.2617 64.502 -44.2383 C 63.623 -45.3125 62.5 -46.1914 60.6934 -46.1914 C 57.2266 -46.1914 54.6875 -42.4805 54.6875 -36.7188 C 54.6875 -36.3281 54.7363 -36.084 54.7363 -35.8398 L 55.0293 -35.8398 C 55.9082 -38.0371 58.0566 -40.1367 61.8652 -40.1367 C 66.5039 -40.1367 70.8984 -36.6211 70.8984 -30.0781 C 70.8984 -22.8516 66.4551 -18.5547 60.1562 -18.5547 Z M 59.8633 -24.0723 C 62.7441 -24.0723 64.5996 -26.2207 64.5996 -29.5898 C 64.5996 -32.8125 62.6465 -34.9609 59.8633 -34.9609 C 56.9824 -34.9609 55.0781 -32.7637 55.0781 -29.6387 C 55.0781 -26.3672 57.0312 -24.0723 59.8633 -24.0723 Z"/>
  </g>
  <g id="Medium-S" transform="matrix(1 0 0 1 1699.83 696)">
   <path d="M 46.7285 4.63867 C 68.5547 4.63867 86.6211 -13.4277 86.6211 -35.2539 C 86.6211 -57.0312 68.5059 -75.1465 46.6797 -75.1465 C 24.8535 -75.1465 6.83594 -57.0312 6.83594 -35.2539 C 6.83594 -13.4277 24.9023 4.63867 46.7285 4.63867 Z M 26.2207 -19.1895 C 24.5117 -19.1895 23.3887 -20.3125 23.3887 -22.0703 C 23.3887 -23.0469 23.7305 -23.9258 24.5605 -24.8535 L 34.0332 -35.9863 C 35.7422 -38.0371 37.8418 -40.0879 37.8418 -42.4805 C 37.8418 -44.9707 36.0352 -46.6797 33.3984 -46.6797 C 31.1523 -46.6797 29.4922 -45.5566 28.5156 -43.0176 C 27.8809 -41.6992 27.1973 -40.8691 25.8301 -40.8691 C 24.1699 -40.8691 23.1445 -41.9922 23.1445 -43.7012 C 23.1445 -44.2383 23.2422 -44.7754 23.3887 -45.3125 C 24.4629 -49.3164 28.6621 -52.2461 33.3008 -52.2461 C 39.5508 -52.2461 43.5059 -48.6328 43.5547 -43.0664 C 43.5547 -39.0625 41.3574 -36.1816 38.5254 -32.8613 L 31.9336 -25.2441 L 31.9336 -24.9023 L 41.6504 -24.9023 C 43.2617 -24.9023 44.3848 -23.877 44.3848 -22.0703 C 44.3848 -20.2637 43.2617 -19.1895 41.6504 -19.1895 Z M 60.0586 -18.2129 C 56.1035 -18.2129 52.5879 -19.7266 50.5371 -23.6816 C 49.1699 -26.2207 48.3887 -29.7363 48.3887 -34.5215 C 48.3887 -46.4355 53.2715 -52.2461 60.8398 -52.2461 C 65.1367 -52.2461 68.2617 -50.1953 69.3359 -47.5098 C 69.6777 -46.875 69.7754 -46.2891 69.7754 -45.6543 C 69.7754 -44.0918 68.6523 -43.1152 67.3828 -43.1152 C 66.1133 -43.1152 65.3809 -43.6035 64.6484 -44.6777 C 63.7695 -45.8496 62.5488 -46.7773 60.5957 -46.7773 C 56.8359 -46.7773 54.1504 -42.7246 54.1504 -36.377 C 54.1504 -36.084 54.1504 -35.9375 54.1504 -35.6934 L 54.4434 -35.6934 C 55.3223 -38.0371 57.6172 -40.2344 61.5723 -40.2344 C 66.4551 -40.2344 70.9961 -36.6699 70.9961 -29.8828 C 70.9961 -22.4609 66.4551 -18.2129 60.0586 -18.2129 Z M 59.7656 -23.4863 C 62.9395 -23.4863 64.9414 -25.8301 64.9414 -29.4922 C 64.9414 -32.959 62.8418 -35.3516 59.7656 -35.3516 C 56.5918 -35.3516 54.4922 -32.959 54.4922 -29.541 C 54.4922 -25.9766 56.6406 -23.4863 59.7656 -23.4863 Z"/>
  </g>
  <g id="Regular-S" transform="matrix(1 0 0 1 1403.58 696)">
   <path d="M 46.2402 4.15039 C 67.7734 4.15039 85.6934 -13.7207 85.6934 -35.2539 C 85.6934 -56.7871 67.7246 -74.6582 46.1914 -74.6582 C 24.707 -74.6582 6.83594 -56.7871 6.83594 -35.2539 C 6.83594 -13.7207 24.7559 4.15039 46.2402 4.15039 Z M 24.8047 -18.7988 C 23.1934 -18.7988 22.2168 -19.873 22.2168 -21.4844 C 22.2168 -22.2656 22.4609 -23.0957 23.1934 -23.8281 L 33.4473 -35.9375 C 35.2051 -38.0371 37.5 -40.2832 37.5 -42.8711 C 37.5 -45.6543 35.5469 -47.5586 32.5684 -47.5586 C 30.0293 -47.5586 28.2227 -46.3379 27.0508 -43.457 C 26.416 -42.1875 25.7812 -41.4062 24.5605 -41.4062 C 22.998 -41.4062 22.0703 -42.4316 22.0703 -44.0918 C 22.0703 -44.5801 22.1191 -45.1172 22.2168 -45.6055 C 23.3398 -49.6582 27.6367 -52.6855 32.3242 -52.6855 C 38.7695 -52.6855 42.8711 -49.0723 42.8711 -43.4082 C 42.8711 -39.209 40.5273 -36.2793 37.6953 -32.959 L 30.3711 -24.4141 L 30.3711 -24.1211 L 41.2598 -24.1211 C 42.627 -24.1211 43.7012 -23.1445 43.7012 -21.4844 C 43.7012 -19.873 42.627 -18.7988 41.2598 -18.7988 Z M 59.9121 -17.7734 C 56.0059 -17.7734 52.4414 -19.1895 50.3418 -23.0957 C 48.9258 -25.6348 48.0469 -29.248 48.0469 -34.375 C 48.0469 -46.7773 52.9297 -52.6855 60.6934 -52.6855 C 65.1367 -52.6855 68.3594 -50.5859 69.4336 -47.7051 C 69.7266 -47.168 69.8242 -46.582 69.8242 -46.0449 C 69.8242 -44.5312 68.8477 -43.5547 67.5781 -43.5547 C 66.3574 -43.5547 65.6738 -44.0918 64.8926 -45.2148 C 63.9648 -46.5332 62.5977 -47.5586 60.498 -47.5586 C 56.2988 -47.5586 53.3691 -43.0176 53.3691 -35.9375 L 53.3691 -35.5469 L 53.7109 -35.5469 C 54.5898 -37.9883 57.0312 -40.3809 61.2793 -40.3809 C 66.3086 -40.3809 71.0938 -36.7188 71.0938 -29.6387 C 71.0938 -22.0215 66.4062 -17.7734 59.9121 -17.7734 Z M 59.6191 -22.7051 C 63.1836 -22.7051 65.4297 -25.293 65.4297 -29.3457 C 65.4297 -33.1543 63.0859 -35.791 59.6191 -35.791 C 56.1035 -35.791 53.8086 -33.1543 53.8086 -29.3945 C 53.8086 -25.4883 56.1523 -22.7051 59.6191 -22.7051 Z"/>
  </g>
  <g id="Light-S" transform="matrix(1 0 0 1 1107.6 696)">
   <path d="M 45.5078 3.4668 C 66.6992 3.4668 84.2285 -14.0625 84.2285 -35.2051 C 84.2285 -56.3965 66.6504 -73.9258 45.5078 -73.9258 C 24.3164 -73.9258 6.83594 -56.3965 6.83594 -35.2051 C 6.83594 -14.0625 24.3652 3.4668 45.5078 3.4668 Z M 24.2188 -18.8965 C 22.9004 -18.8965 22.0703 -19.7754 22.0703 -21.0938 C 22.0703 -21.7773 22.2656 -22.4121 22.8516 -23.0469 L 33.7402 -35.791 C 35.791 -38.1836 37.7441 -40.4297 37.7441 -43.0176 C 37.7441 -46.1914 35.498 -48.291 32.0312 -48.291 C 28.8574 -48.291 26.6602 -46.582 25.7812 -43.4082 C 25.293 -42.334 24.7559 -41.6992 23.6816 -41.6992 C 22.4121 -41.6992 21.6309 -42.5293 21.6309 -43.8965 C 21.6309 -44.3359 21.7285 -44.7754 21.7773 -45.2148 C 22.7539 -49.3652 27.0508 -52.4414 31.8359 -52.4414 C 38.0371 -52.4414 42.0898 -48.9258 42.0898 -43.3594 C 42.0898 -39.5508 40.0391 -36.6699 36.9141 -33.1055 L 28.6133 -23.4375 L 28.6133 -23.1445 L 40.9668 -23.1445 C 42.1387 -23.1445 42.9688 -22.3633 42.9688 -21.0449 C 42.9688 -19.7754 42.1387 -18.8965 40.9668 -18.8965 Z M 59.2773 -18.0176 C 55.0293 -18.0176 51.709 -19.6777 49.707 -23.4375 C 48.3398 -26.0254 47.6074 -29.5898 47.6074 -34.3262 C 47.6074 -46.3379 52.2949 -52.4414 60.0098 -52.4414 C 64.6973 -52.4414 67.9199 -49.9023 68.8965 -47.2656 C 69.0918 -46.8262 69.1895 -46.3867 69.1895 -45.9473 C 69.1895 -44.7266 68.4082 -43.9453 67.334 -43.9453 C 66.3574 -43.9453 65.8203 -44.3848 65.2344 -45.3125 C 64.1602 -47.0703 62.3535 -48.291 59.8633 -48.291 C 55.0293 -48.291 51.8555 -43.3105 51.8555 -35.3027 L 51.8555 -34.9121 L 52.0996 -34.9121 C 53.1738 -37.7441 56.1035 -40.1367 60.3516 -40.1367 C 65.7715 -40.1367 70.4102 -36.2793 70.4102 -29.541 C 70.4102 -22.3145 65.8203 -18.0176 59.2773 -18.0176 Z M 59.1309 -22.0215 C 63.2324 -22.0215 65.8691 -24.8535 65.8691 -29.2969 C 65.8691 -33.4961 63.1348 -36.377 59.1309 -36.377 C 55.0781 -36.377 52.2949 -33.4473 52.2949 -29.3457 C 52.2949 -25.0488 55.127 -22.0215 59.1309 -22.0215 Z"/>
  </g>
  <g id="Thin-S" transform="matrix(1 0 0 1 811.867 696)">
   <path d="M 44.5801 2.53906 C 65.2832 2.53906 82.2754 -14.4531 82.2754 -35.2051 C 82.2754 -55.9082 65.2344 -72.9004 44.5312 -72.9004 C 23.8281 -72.9004 6.83594 -55.9082 6.83594 -35.2051 C 6.83594 -14.4531 23.877 2.53906 44.5801 2.53906 Z M 23.4863 -18.9941 C 22.5098 -18.9941 21.875 -19.6289 21.875 -20.6055 C 21.875 -21.1426 22.0215 -21.5332 22.4121 -21.9727 L 34.082 -35.5469 C 36.5234 -38.4277 38.0371 -40.5762 38.0371 -43.2129 C 38.0371 -46.875 35.4492 -49.2188 31.2988 -49.2188 C 27.3926 -49.2188 24.5117 -46.9238 24.0234 -43.4082 C 23.8281 -42.5293 23.3887 -42.041 22.5586 -42.041 C 21.6309 -42.041 21.0938 -42.6758 21.0938 -43.6035 C 21.0938 -43.9941 21.1426 -44.3359 21.2402 -44.7266 C 22.0215 -49.0234 26.2695 -52.0996 31.2012 -52.0996 C 37.1582 -52.0996 41.0645 -48.6816 41.0645 -43.3594 C 41.0645 -39.9902 39.3555 -37.2559 35.8887 -33.252 L 26.3184 -22.0703 L 26.3184 -21.9238 L 40.625 -21.9238 C 41.4551 -21.9238 42.041 -21.3379 42.041 -20.5078 C 42.041 -19.6777 41.4551 -18.9941 40.625 -18.9941 Z M 58.4961 -18.3594 C 53.8086 -18.3594 50.6836 -20.3125 48.877 -23.9258 C 47.5586 -26.5137 46.9727 -29.9805 46.9727 -34.2285 C 46.9727 -45.7031 51.5137 -52.0996 59.082 -52.0996 C 64.0625 -52.0996 67.3828 -49.0234 68.1641 -46.6797 C 68.3105 -46.4355 68.3594 -46.0938 68.3594 -45.8008 C 68.3594 -45.0195 67.8711 -44.4336 67.041 -44.4336 C 66.4062 -44.4336 66.0156 -44.8242 65.6738 -45.4102 C 64.4043 -47.7539 62.0117 -49.2188 59.0332 -49.2188 C 53.3203 -49.2188 49.8047 -43.7012 49.8047 -34.4727 L 49.8047 -34.082 L 49.9512 -34.082 C 51.2695 -37.4023 54.8828 -39.7949 59.1797 -39.7949 C 65.0391 -39.7949 69.4824 -35.6445 69.4824 -29.4434 C 69.4824 -22.7051 64.9902 -18.3594 58.4961 -18.3594 Z M 58.4473 -21.1914 C 63.2324 -21.1914 66.4551 -24.3164 66.4551 -29.248 C 66.4551 -33.9844 63.1836 -37.1094 58.4961 -37.1094 C 53.7598 -37.1094 50.3418 -33.8867 50.3418 -29.2969 C 50.3418 -24.5605 53.7109 -21.1914 58.4473 -21.1914 Z"/>
  </g>
  <g id="Ultralight-S" transform="matrix(1 0 0 1 515.644 696)">
   <path d="M 44.043 2.05078 C 64.502 2.05078 81.2988 -14.6973 81.2988 -35.1562 C 81.2988 -55.6152 64.502 -72.3633 44.043 -72.3633 C 23.584 -72.3633 6.83594 -55.6152 6.83594 -35.1562 C 6.83594 -14.6973 23.584 2.05078 44.043 2.05078 Z M 23.0957 -19.0918 C 22.3145 -19.0918 21.7773 -19.5312 21.7773 -20.3125 C 21.7773 -20.8496 21.9238 -21.0938 22.168 -21.4355 L 34.2773 -35.4492 C 36.9141 -38.5254 38.1836 -40.7227 38.1836 -43.3105 C 38.1836 -47.2168 35.4004 -49.7559 30.9082 -49.7559 C 26.6113 -49.7559 23.4375 -47.0703 23.1445 -43.3594 C 23.0957 -42.627 22.6562 -42.2363 21.9727 -42.2363 C 21.2402 -42.2363 20.8008 -42.7734 20.8008 -43.457 C 20.8008 -43.7988 20.8496 -44.0918 20.8984 -44.4824 C 21.6309 -48.8281 25.8789 -51.9531 30.9082 -51.9531 C 36.6699 -51.9531 40.5273 -48.584 40.5273 -43.3105 C 40.5273 -40.2344 39.0137 -37.5488 35.3516 -33.3496 L 25.1465 -21.3867 L 25.1465 -21.2891 L 40.4297 -21.2891 C 41.1133 -21.2891 41.5039 -20.8008 41.5039 -20.166 C 41.5039 -19.5801 41.1133 -19.0918 40.4297 -19.0918 Z M 58.0566 -18.5547 C 53.1738 -18.5547 50.1465 -20.6055 48.4375 -24.1699 C 47.168 -26.8066 46.6309 -30.2246 46.6309 -34.1797 C 46.6309 -45.3613 51.0742 -51.9531 58.5938 -51.9531 C 63.7207 -51.9531 67.0898 -48.584 67.8223 -46.3379 C 67.8711 -46.1914 67.9199 -45.9473 67.9199 -45.7031 C 67.9199 -45.166 67.5781 -44.6777 66.8945 -44.6777 C 66.4062 -44.6777 66.1133 -45.0195 65.918 -45.459 C 64.5508 -48.0957 61.8652 -49.7559 58.5938 -49.7559 C 52.4414 -49.7559 48.7793 -43.8965 48.7793 -34.0332 L 48.7793 -33.6426 L 48.8281 -33.6426 C 50.3418 -37.2559 54.248 -39.6484 58.5449 -39.6484 C 64.6484 -39.6484 68.9941 -35.3027 68.9941 -29.3457 C 68.9941 -22.9004 64.5996 -18.5547 58.0566 -18.5547 Z M 58.1055 -20.752 C 63.2812 -20.752 66.7969 -24.0234 66.7969 -29.1992 C 66.7969 -34.2285 63.2324 -37.5 58.1543 -37.5 C 53.0273 -37.5 49.3652 -34.082 49.3652 -29.248 C 49.3652 -24.2676 52.9785 -20.752 58.1055 -20.752 Z"/>
  </g>
 </g>
</svg>
