<?xml version="1.0" encoding="UTF-8"?>
<!--Generator: Apple Native CoreSVG 123-->
<!DOCTYPE svg
PUBLIC "-//W3C//DTD SVG 1.1//EN"
       "http://www.w3.org/Graphics/SVG/1.1/DTD/svg11.dtd">
<svg version="1.1" xmlns="http://www.w3.org/2000/svg" xmlns:xlink="http://www.w3.org/1999/xlink" width="3300" height="2200">
 <!--glyph: "uni100525.medium", point size: 100.000000, font version: "Version 15.0d7e11", template writer version: "5"-->
 <g id="Notes">
  <rect height="2200" id="artboard" style="fill:white;opacity:1" width="3300" x="0" y="0"/>
  <line id="" style="fill:none;stroke:black;opacity:1;stroke-width:0.5;" x1="263" x2="3036" y1="292" y2="292"/>
  <text style="stroke:none;fill:black;font-family:-apple-system,&quot;SF Pro Display&quot;,&quot;SF Pro Text&quot;,Helvetica,sans-serif;font-weight:bold;" transform="matrix(1 0 0 1 263 322)">Weight/Scale Variations</text>
  <text style="stroke:none;fill:black;font-family:-apple-system,&quot;SF Pro Display&quot;,&quot;SF Pro Text&quot;,Helvetica,sans-serif;text-anchor:middle;" transform="matrix(1 0 0 1 559.711 322)">Ultralight</text>
  <text style="stroke:none;fill:black;font-family:-apple-system,&quot;SF Pro Display&quot;,&quot;SF Pro Text&quot;,Helvetica,sans-serif;text-anchor:middle;" transform="matrix(1 0 0 1 856.422 322)">Thin</text>
  <text style="stroke:none;fill:black;font-family:-apple-system,&quot;SF Pro Display&quot;,&quot;SF Pro Text&quot;,Helvetica,sans-serif;text-anchor:middle;" transform="matrix(1 0 0 1 1153.13 322)">Light</text>
  <text style="stroke:none;fill:black;font-family:-apple-system,&quot;SF Pro Display&quot;,&quot;SF Pro Text&quot;,Helvetica,sans-serif;text-anchor:middle;" transform="matrix(1 0 0 1 1449.84 322)">Regular</text>
  <text style="stroke:none;fill:black;font-family:-apple-system,&quot;SF Pro Display&quot;,&quot;SF Pro Text&quot;,Helvetica,sans-serif;text-anchor:middle;" transform="matrix(1 0 0 1 1746.56 322)">Medium</text>
  <text style="stroke:none;fill:black;font-family:-apple-system,&quot;SF Pro Display&quot;,&quot;SF Pro Text&quot;,Helvetica,sans-serif;text-anchor:middle;" transform="matrix(1 0 0 1 2043.27 322)">Semibold</text>
  <text style="stroke:none;fill:black;font-family:-apple-system,&quot;SF Pro Display&quot;,&quot;SF Pro Text&quot;,Helvetica,sans-serif;text-anchor:middle;" transform="matrix(1 0 0 1 2339.98 322)">Bold</text>
  <text style="stroke:none;fill:black;font-family:-apple-system,&quot;SF Pro Display&quot;,&quot;SF Pro Text&quot;,Helvetica,sans-serif;text-anchor:middle;" transform="matrix(1 0 0 1 2636.69 322)">Heavy</text>
  <text style="stroke:none;fill:black;font-family:-apple-system,&quot;SF Pro Display&quot;,&quot;SF Pro Text&quot;,Helvetica,sans-serif;text-anchor:middle;" transform="matrix(1 0 0 1 2933.4 322)">Black</text>
  <line id="" style="fill:none;stroke:black;opacity:1;stroke-width:0.5;" x1="263" x2="3036" y1="1903" y2="1903"/>
  <g id="" transform="matrix(1 0 0 1 263 1933)">
   <path d="M 9.24805 0.830078 C 13.5547 0.830078 17.1387 -2.74414 17.1387 -7.05078 C 17.1387 -11.3574 13.5449 -14.9316 9.23828 -14.9316 C 4.94141 -14.9316 1.36719 -11.3574 1.36719 -7.05078 C 1.36719 -2.74414 4.95117 0.830078 9.24805 0.830078 Z M 9.24805 -0.654297 C 5.70312 -0.654297 2.87109 -3.49609 2.87109 -7.05078 C 2.87109 -10.6055 5.69336 -13.4473 9.23828 -13.4473 C 12.793 -13.4473 15.6348 -10.6055 15.6445 -7.05078 C 15.6543 -3.49609 12.8027 -0.654297 9.24805 -0.654297 Z M 9.22852 -3.42773 C 9.69727 -3.42773 9.9707 -3.74023 9.9707 -4.25781 L 9.9707 -6.31836 L 12.1973 -6.31836 C 12.6953 -6.31836 13.0371 -6.57227 13.0371 -7.04102 C 13.0371 -7.51953 12.7148 -7.7832 12.1973 -7.7832 L 9.9707 -7.7832 L 9.9707 -10.0098 C 9.9707 -10.5273 9.69727 -10.8496 9.22852 -10.8496 C 8.75977 -10.8496 8.50586 -10.5078 8.50586 -10.0098 L 8.50586 -7.7832 L 6.29883 -7.7832 C 5.78125 -7.7832 5.44922 -7.51953 5.44922 -7.04102 C 5.44922 -6.57227 5.80078 -6.31836 6.29883 -6.31836 L 8.50586 -6.31836 L 8.50586 -4.25781 C 8.50586 -3.75977 8.75977 -3.42773 9.22852 -3.42773 Z"/>
  </g>
  <g id="" transform="matrix(1 0 0 1 281.506 1933)">
   <path d="M 11.709 2.91016 C 17.1582 2.91016 21.6699 -1.60156 21.6699 -7.05078 C 21.6699 -12.4902 17.1484 -17.0117 11.6992 -17.0117 C 6.25977 -17.0117 1.74805 -12.4902 1.74805 -7.05078 C 1.74805 -1.60156 6.26953 2.91016 11.709 2.91016 Z M 11.709 1.25 C 7.09961 1.25 3.41797 -2.44141 3.41797 -7.05078 C 3.41797 -11.6504 7.08984 -15.3516 11.6992 -15.3516 C 16.3086 -15.3516 20 -11.6504 20.0098 -7.05078 C 20.0195 -2.44141 16.3184 1.25 11.709 1.25 Z M 11.6895 -2.41211 C 12.207 -2.41211 12.5195 -2.77344 12.5195 -3.33984 L 12.5195 -6.23047 L 15.5762 -6.23047 C 16.123 -6.23047 16.5039 -6.51367 16.5039 -7.03125 C 16.5039 -7.55859 16.1426 -7.86133 15.5762 -7.86133 L 12.5195 -7.86133 L 12.5195 -10.9277 C 12.5195 -11.5039 12.207 -11.8555 11.6895 -11.8555 C 11.1719 -11.8555 10.8789 -11.4844 10.8789 -10.9277 L 10.8789 -7.86133 L 7.83203 -7.86133 C 7.26562 -7.86133 6.89453 -7.55859 6.89453 -7.03125 C 6.89453 -6.51367 7.28516 -6.23047 7.83203 -6.23047 L 10.8789 -6.23047 L 10.8789 -3.33984 C 10.8789 -2.79297 11.1719 -2.41211 11.6895 -2.41211 Z"/>
  </g>
  <g id="" transform="matrix(1 0 0 1 304.924 1933)">
   <path d="M 14.9707 5.67383 C 21.9336 5.67383 27.6953 -0.078125 27.6953 -7.04102 C 27.6953 -14.0039 21.9238 -19.7559 14.9609 -19.7559 C 8.00781 -19.7559 2.25586 -14.0039 2.25586 -7.04102 C 2.25586 -0.078125 8.01758 5.67383 14.9707 5.67383 Z M 14.9707 3.85742 C 8.93555 3.85742 4.08203 -1.00586 4.08203 -7.04102 C 4.08203 -13.0762 8.92578 -17.9395 14.9609 -17.9395 C 21.0059 -17.9395 25.8594 -13.0762 25.8691 -7.04102 C 25.8789 -1.00586 21.0156 3.85742 14.9707 3.85742 Z M 14.9512 -1.06445 C 15.5176 -1.06445 15.8691 -1.45508 15.8691 -2.06055 L 15.8691 -6.13281 L 20.1074 -6.13281 C 20.6934 -6.13281 21.1133 -6.46484 21.1133 -7.02148 C 21.1133 -7.59766 20.7227 -7.93945 20.1074 -7.93945 L 15.8691 -7.93945 L 15.8691 -12.1875 C 15.8691 -12.8027 15.5176 -13.1934 14.9512 -13.1934 C 14.3848 -13.1934 14.0625 -12.7832 14.0625 -12.1875 L 14.0625 -7.93945 L 9.83398 -7.93945 C 9.21875 -7.93945 8.80859 -7.59766 8.80859 -7.02148 C 8.80859 -6.46484 9.23828 -6.13281 9.83398 -6.13281 L 14.0625 -6.13281 L 14.0625 -2.06055 C 14.0625 -1.47461 14.3848 -1.06445 14.9512 -1.06445 Z"/>
  </g>
  <text style="stroke:none;fill:black;font-family:-apple-system,&quot;SF Pro Display&quot;,&quot;SF Pro Text&quot;,Helvetica,sans-serif;font-weight:bold;" transform="matrix(1 0 0 1 263 1953)">Design Variations</text>
  <text style="stroke:none;fill:black;font-family:-apple-system,&quot;SF Pro Display&quot;,&quot;SF Pro Text&quot;,Helvetica,sans-serif;" transform="matrix(1 0 0 1 263 1971)">Symbols are supported in up to nine weights and three scales.</text>
  <text style="stroke:none;fill:black;font-family:-apple-system,&quot;SF Pro Display&quot;,&quot;SF Pro Text&quot;,Helvetica,sans-serif;" transform="matrix(1 0 0 1 263 1989)">For optimal layout with text and other symbols, vertically align</text>
  <text style="stroke:none;fill:black;font-family:-apple-system,&quot;SF Pro Display&quot;,&quot;SF Pro Text&quot;,Helvetica,sans-serif;" transform="matrix(1 0 0 1 263 2007)">symbols with the adjacent text.</text>
  <rect height="14" id="" style="fill:#00AEEF;stroke:none;opacity:0.4;" width="3" x="776" y="1919"/>
  <g id="" transform="matrix(1 0 0 1 779 1933)">
   <path d="M 10.5273 0 L 12.373 0 L 7.17773 -14.0918 L 5.43945 -14.0918 L 0.244141 0 L 2.08984 0 L 3.50586 -4.0332 L 9.11133 -4.0332 Z M 6.2793 -11.9531 L 6.33789 -11.9531 L 8.59375 -5.52734 L 4.02344 -5.52734 Z"/>
  </g>
  <rect height="14" id="" style="fill:#00AEEF;stroke:none;opacity:0.4;" width="3" x="791.617" y="1919"/>
  <text style="stroke:none;fill:black;font-family:-apple-system,&quot;SF Pro Display&quot;,&quot;SF Pro Text&quot;,Helvetica,sans-serif;font-weight:bold;" transform="matrix(1 0 0 1 776 1953)">Margins</text>
  <text style="stroke:none;fill:black;font-family:-apple-system,&quot;SF Pro Display&quot;,&quot;SF Pro Text&quot;,Helvetica,sans-serif;" transform="matrix(1 0 0 1 776 1971)">Leading and trailing margins on the left and right side of each symbol</text>
  <text style="stroke:none;fill:black;font-family:-apple-system,&quot;SF Pro Display&quot;,&quot;SF Pro Text&quot;,Helvetica,sans-serif;" transform="matrix(1 0 0 1 776 1989)">can be adjusted by modifying the width of the blue rectangles.</text>
  <text style="stroke:none;fill:black;font-family:-apple-system,&quot;SF Pro Display&quot;,&quot;SF Pro Text&quot;,Helvetica,sans-serif;" transform="matrix(1 0 0 1 776 2007)">Modifications are automatically applied proportionally to all</text>
  <text style="stroke:none;fill:black;font-family:-apple-system,&quot;SF Pro Display&quot;,&quot;SF Pro Text&quot;,Helvetica,sans-serif;" transform="matrix(1 0 0 1 776 2025)">scales and weights.</text>
  <g id="" transform="matrix(1 0 0 1 1289 1933)">
   <path d="M 2.83203 3.11523 L 4.375 4.6582 C 5.22461 5.48828 6.19141 5.41992 7.06055 4.46289 L 17.2754 -6.66016 C 17.7051 -6.36719 18.0957 -6.37695 18.5645 -6.47461 L 19.6094 -6.68945 L 20.3027 -5.99609 L 20.2539 -5.47852 C 20.1855 -4.95117 20.3516 -4.53125 20.8496 -4.0332 L 21.6602 -3.22266 C 22.168 -2.71484 22.8223 -2.68555 23.3008 -3.16406 L 26.5527 -6.41602 C 27.0312 -6.89453 27.0117 -7.54883 26.5039 -8.05664 L 25.6836 -8.87695 C 25.1855 -9.375 24.7754 -9.55078 24.2383 -9.47266 L 23.7109 -9.41406 L 23.0566 -10.0781 L 23.3398 -11.2207 C 23.4863 -11.7871 23.3398 -12.2559 22.7148 -12.8613 L 20.3027 -15.2539 C 16.7578 -18.7793 12.2266 -18.6719 9.11133 -15.5371 C 8.69141 -15.1074 8.64258 -14.5215 8.91602 -14.0918 C 9.15039 -13.7207 9.62891 -13.4961 10.2734 -13.6621 C 11.7871 -14.043 13.3008 -13.9258 14.7852 -12.9199 L 14.1602 -11.3379 C 13.9258 -10.752 13.9453 -10.2734 14.1797 -9.83398 L 3.01758 0.439453 C 2.08008 1.30859 1.97266 2.25586 2.83203 3.11523 Z M 10.6738 -15.1465 C 13.3398 -17.1387 16.6504 -16.8262 19.0527 -14.4141 L 21.6797 -11.8066 C 21.9141 -11.5723 21.9434 -11.3867 21.8848 -11.0938 L 21.5039 -9.53125 L 23.0762 -7.95898 L 24.043 -8.04688 C 24.3262 -8.07617 24.4141 -8.05664 24.6387 -7.83203 L 25.2637 -7.20703 L 22.5098 -4.46289 L 21.8848 -5.07812 C 21.6602 -5.30273 21.6406 -5.40039 21.6699 -5.68359 L 21.7578 -6.64062 L 20.1953 -8.20312 L 18.5742 -7.89062 C 18.291 -7.83203 18.1445 -7.83203 17.9102 -8.07617 L 15.7324 -10.2539 C 15.5078 -10.4883 15.4785 -10.625 15.6055 -10.9473 L 16.5527 -13.2227 C 14.9512 -14.7559 12.8418 -15.6055 10.8008 -14.9512 C 10.7129 -14.9219 10.6445 -14.9414 10.6152 -14.9805 C 10.5859 -15.0293 10.5859 -15.0781 10.6738 -15.1465 Z M 4.10156 2.41211 C 3.61328 1.91406 3.78906 1.61133 4.12109 1.30859 L 15.0781 -8.80859 L 16.3086 -7.57812 L 6.15234 3.34961 C 5.84961 3.68164 5.46875 3.7793 5.06836 3.37891 Z"/>
  </g>
  <text style="stroke:none;fill:black;font-family:-apple-system,&quot;SF Pro Display&quot;,&quot;SF Pro Text&quot;,Helvetica,sans-serif;font-weight:bold;" transform="matrix(1 0 0 1 1289 1953)">Exporting</text>
  <text style="stroke:none;fill:black;font-family:-apple-system,&quot;SF Pro Display&quot;,&quot;SF Pro Text&quot;,Helvetica,sans-serif;" transform="matrix(1 0 0 1 1289 1971)">Symbols should be outlined when exporting to ensure the</text>
  <text style="stroke:none;fill:black;font-family:-apple-system,&quot;SF Pro Display&quot;,&quot;SF Pro Text&quot;,Helvetica,sans-serif;" transform="matrix(1 0 0 1 1289 1989)">design is preserved when submitting to Xcode.</text>
  <text id="template-version" style="stroke:none;fill:black;font-family:-apple-system,&quot;SF Pro Display&quot;,&quot;SF Pro Text&quot;,Helvetica,sans-serif;text-anchor:end;" transform="matrix(1 0 0 1 3036 1933)">Template v.1.0</text>
  <text style="stroke:none;fill:black;font-family:-apple-system,&quot;SF Pro Display&quot;,&quot;SF Pro Text&quot;,Helvetica,sans-serif;text-anchor:end;" transform="matrix(1 0 0 1 3036 1951)">Generated from 27.circle.fill</text>
  <text style="stroke:none;fill:black;font-family:-apple-system,&quot;SF Pro Display&quot;,&quot;SF Pro Text&quot;,Helvetica,sans-serif;text-anchor:end;" transform="matrix(1 0 0 1 3036 1969)">Typeset at 100 points</text>
  <text style="stroke:none;fill:black;font-family:-apple-system,&quot;SF Pro Display&quot;,&quot;SF Pro Text&quot;,Helvetica,sans-serif;" transform="matrix(1 0 0 1 263 726)">Small</text>
  <text style="stroke:none;fill:black;font-family:-apple-system,&quot;SF Pro Display&quot;,&quot;SF Pro Text&quot;,Helvetica,sans-serif;" transform="matrix(1 0 0 1 263 1156)">Medium</text>
  <text style="stroke:none;fill:black;font-family:-apple-system,&quot;SF Pro Display&quot;,&quot;SF Pro Text&quot;,Helvetica,sans-serif;" transform="matrix(1 0 0 1 263 1586)">Large</text>
 </g>
 <g id="Guides">
  <g id="H-reference" style="fill:#27AAE1;stroke:none;" transform="matrix(1 0 0 1 339 696)">
   <path d="M 54.9316 0 L 57.666 0 L 30.5664 -70.459 L 28.0762 -70.459 L 0.976562 0 L 3.66211 0 L 12.9395 -24.4629 L 45.7031 -24.4629 Z M 29.1992 -67.0898 L 29.4434 -67.0898 L 44.8242 -26.709 L 13.8184 -26.709 Z"/>
  </g>
  <line id="Baseline-S" style="fill:none;stroke:#27AAE1;opacity:1;stroke-width:0.577;" x1="263" x2="3036" y1="696" y2="696"/>
  <line id="Capline-S" style="fill:none;stroke:#27AAE1;opacity:1;stroke-width:0.577;" x1="263" x2="3036" y1="625.541" y2="625.541"/>
  <g id="H-reference" style="fill:#27AAE1;stroke:none;" transform="matrix(1 0 0 1 339 1126)">
   <path d="M 54.9316 0 L 57.666 0 L 30.5664 -70.459 L 28.0762 -70.459 L 0.976562 0 L 3.66211 0 L 12.9395 -24.4629 L 45.7031 -24.4629 Z M 29.1992 -67.0898 L 29.4434 -67.0898 L 44.8242 -26.709 L 13.8184 -26.709 Z"/>
  </g>
  <line id="Baseline-M" style="fill:none;stroke:#27AAE1;opacity:1;stroke-width:0.577;" x1="263" x2="3036" y1="1126" y2="1126"/>
  <line id="Capline-M" style="fill:none;stroke:#27AAE1;opacity:1;stroke-width:0.577;" x1="263" x2="3036" y1="1055.54" y2="1055.54"/>
  <g id="H-reference" style="fill:#27AAE1;stroke:none;" transform="matrix(1 0 0 1 339 1556)">
   <path d="M 54.9316 0 L 57.666 0 L 30.5664 -70.459 L 28.0762 -70.459 L 0.976562 0 L 3.66211 0 L 12.9395 -24.4629 L 45.7031 -24.4629 Z M 29.1992 -67.0898 L 29.4434 -67.0898 L 44.8242 -26.709 L 13.8184 -26.709 Z"/>
  </g>
  <line id="Baseline-L" style="fill:none;stroke:#27AAE1;opacity:1;stroke-width:0.577;" x1="263" x2="3036" y1="1556" y2="1556"/>
  <line id="Capline-L" style="fill:none;stroke:#27AAE1;opacity:1;stroke-width:0.577;" x1="263" x2="3036" y1="1485.54" y2="1485.54"/>
  <rect height="119.336" id="left-margin" style="fill:#00AEEF;stroke:none;opacity:0.4;" width="8.74023" x="1391.3" y="1030.79"/>
  <rect height="119.336" id="right-margin" style="fill:#00AEEF;stroke:none;opacity:0.4;" width="8.74023" x="1499.65" y="1030.79"/>
 </g>
 <g id="Symbols">
  <g id="Black-L" transform="matrix(1 0 0 1 2854.05 1556)">
   <path d="M 79.3457 32.4219 C 116.748 32.4219 147.412 1.80664 147.412 -35.6445 C 147.412 -73.0469 116.748 -103.662 79.2969 -103.662 C 41.8945 -103.662 11.2793 -73.0469 11.2793 -35.6445 C 11.2793 1.80664 41.9434 32.4219 79.3457 32.4219 Z M 52.0996 -10.9863 C 48.7793 -10.9863 46.1914 -13.2812 46.1914 -16.9922 C 46.1914 -19.2871 46.9727 -21.2891 49.1699 -23.7793 L 60.4492 -37.1094 C 63.3301 -40.4297 65.7227 -42.8223 65.7227 -45.8008 C 65.7227 -48.291 63.7207 -50.1465 60.9863 -50.1465 C 58.5938 -50.1465 56.7871 -48.7793 55.9082 -46.1914 C 55.0781 -43.8965 53.5156 -42.2852 50.5859 -42.2852 C 47.4121 -42.2852 45.4102 -44.5312 45.4102 -47.6074 C 45.4102 -48.7793 45.5566 -49.707 45.8496 -50.7812 C 47.6074 -57.1289 53.9551 -61.4746 61.3281 -61.4746 C 70.8496 -61.4746 76.709 -55.4688 76.8066 -46.9238 C 76.9043 -41.1133 74.1211 -36.6699 69.2871 -31.1523 L 62.4512 -23.1445 L 62.4512 -22.5586 L 72.4121 -22.5586 C 75.9766 -22.5586 78.3203 -20.459 78.3203 -16.8945 C 78.3203 -13.1348 75.9766 -10.9863 72.4121 -10.9863 Z M 94.1406 -10.0586 C 90.332 -10.0586 87.5 -12.6953 87.5 -16.6992 C 87.5 -18.457 87.793 -19.6289 88.5742 -21.1914 L 102.295 -48.4375 L 102.295 -48.9258 L 88.3789 -48.9258 C 84.9609 -48.9258 81.9336 -50.8789 81.9336 -54.5898 C 81.9336 -58.3496 84.7656 -60.4004 88.3789 -60.4004 L 107.666 -60.4004 C 113.525 -60.4004 116.162 -56.7871 116.162 -52.5879 C 116.162 -50.8789 115.82 -49.1211 114.99 -47.2168 L 100.732 -15.3809 C 99.2188 -11.8652 97.6074 -10.0586 94.1406 -10.0586 Z"/>
  </g>
  <g id="Heavy-L" transform="matrix(1 0 0 1 2558.39 1556)">
   <path d="M 78.2715 31.4941 C 115.088 31.4941 145.312 1.26953 145.312 -35.5469 C 145.312 -72.3145 115.039 -102.539 78.2715 -102.539 C 41.4551 -102.539 11.2793 -72.3145 11.2793 -35.5469 C 11.2793 1.26953 41.5039 31.4941 78.2715 31.4941 Z M 49.6582 -10.3516 C 46.582 -10.3516 44.2871 -12.4512 44.2871 -15.7715 C 44.2871 -17.8223 44.9707 -19.5801 46.875 -21.6797 L 59.7656 -36.8652 C 62.7441 -40.3809 65.332 -43.0664 65.332 -46.3379 C 65.332 -49.4629 62.8906 -51.7578 59.4727 -51.7578 C 56.3965 -51.7578 54.1504 -50 53.125 -46.8262 C 52.2949 -44.6289 50.9277 -43.1641 48.2422 -43.1641 C 45.3613 -43.1641 43.5059 -45.166 43.5059 -48.0469 C 43.5059 -49.1211 43.6523 -49.9512 43.8965 -50.9766 C 45.6543 -57.4707 52.1484 -61.9629 59.668 -61.9629 C 69.3359 -61.9629 75.3906 -56.0059 75.4883 -47.3633 C 75.5371 -41.4062 72.6074 -36.9141 67.7246 -31.2988 L 59.1797 -21.3379 L 59.1797 -20.8008 L 71.6797 -20.8008 C 74.8535 -20.8008 76.9531 -18.9453 76.9531 -15.6738 C 76.9531 -12.3535 74.8535 -10.3516 71.6797 -10.3516 Z M 93.0176 -9.47266 C 89.5508 -9.47266 87.0117 -11.8652 87.0117 -15.4297 C 87.0117 -17.041 87.3047 -18.1152 87.9883 -19.4824 L 103.467 -50.0488 L 103.467 -50.5371 L 87.1094 -50.5371 C 83.9844 -50.5371 81.3965 -52.3438 81.3965 -55.6641 C 81.3965 -58.9844 83.8867 -60.8887 87.1094 -60.8887 L 108.301 -60.8887 C 113.525 -60.8887 116.016 -57.5684 116.016 -53.7109 C 116.016 -52.0996 115.674 -50.5371 114.844 -48.6328 L 98.9258 -14.209 C 97.5098 -11.0352 96.0449 -9.47266 93.0176 -9.47266 Z"/>
  </g>
  <g id="Bold-L" transform="matrix(1 0 0 1 2262.88 1556)">
   <path d="M 77.0996 30.4199 C 113.232 30.4199 142.92 0.683594 142.92 -35.4004 C 142.92 -71.5332 113.184 -101.221 77.0508 -101.221 C 40.9668 -101.221 11.2793 -71.5332 11.2793 -35.4004 C 11.2793 0.683594 41.0156 30.4199 77.0996 30.4199 Z M 46.875 -9.66797 C 44.1406 -9.66797 42.1875 -11.4746 42.1875 -14.4043 C 42.1875 -16.1621 42.7246 -17.6758 44.2871 -19.3848 L 58.9844 -36.5723 C 62.1094 -40.2832 64.8926 -43.3105 64.8926 -46.9238 C 64.8926 -50.8301 62.0117 -53.5156 57.7637 -53.5156 C 53.9062 -53.5156 51.123 -51.3672 50 -47.4609 C 49.2188 -45.4102 47.998 -44.0918 45.6055 -44.0918 C 43.0664 -44.0918 41.4062 -45.8984 41.4062 -48.4863 C 41.4062 -49.4629 41.5527 -50.2441 41.748 -51.1719 C 43.457 -57.8125 50.1465 -62.5 57.7637 -62.5 C 67.6758 -62.5 73.9258 -56.5918 73.9746 -47.8027 C 73.9746 -41.748 70.8984 -37.207 65.918 -31.4453 L 55.5664 -19.3359 L 55.5664 -18.8477 L 70.8496 -18.8477 C 73.584 -18.8477 75.4395 -17.1875 75.4395 -14.3066 C 75.4395 -11.4746 73.584 -9.66797 70.8496 -9.66797 Z M 91.748 -8.83789 C 88.7207 -8.83789 86.5234 -10.9375 86.5234 -14.0625 C 86.5234 -15.4297 86.7188 -16.4062 87.3535 -17.5781 L 104.834 -51.9043 L 104.834 -52.3926 L 85.6934 -52.3926 C 82.959 -52.3926 80.7617 -54.0039 80.7617 -56.8359 C 80.7617 -59.7168 82.8613 -61.377 85.6934 -61.377 L 108.984 -61.377 C 113.477 -61.377 115.869 -58.4961 115.869 -54.9316 C 115.869 -53.5156 115.576 -52.0996 114.697 -50.2441 L 96.9238 -12.8906 C 95.6543 -10.1562 94.2871 -8.83789 91.748 -8.83789 Z"/>
  </g>
  <g id="Semibold-L" transform="matrix(1 0 0 1 1966.97 1556)">
   <path d="M 76.2695 29.6875 C 111.914 29.6875 141.309 0.292969 141.309 -35.3516 C 141.309 -70.9473 111.865 -100.342 76.2695 -100.342 C 40.625 -100.342 11.2793 -70.9473 11.2793 -35.3516 C 11.2793 0.292969 40.6738 29.6875 76.2695 29.6875 Z M 44.9707 -9.17969 C 42.4805 -9.17969 40.7227 -10.8398 40.7227 -13.4766 C 40.7227 -14.9902 41.2109 -16.3086 42.5293 -17.7734 L 58.4473 -36.377 C 61.6699 -40.1855 64.5996 -43.457 64.5996 -47.3633 C 64.5996 -51.7578 61.4258 -54.7363 56.5918 -54.7363 C 52.1973 -54.7363 49.0723 -52.2949 47.8516 -47.9004 C 47.0703 -45.9473 45.9473 -44.7754 43.7988 -44.7754 C 41.4551 -44.7754 39.9414 -46.4355 39.9414 -48.8281 C 39.9414 -49.707 40.0879 -50.4395 40.2832 -51.3672 C 41.9434 -58.0566 48.7305 -62.8906 56.4941 -62.8906 C 66.5039 -62.8906 72.9004 -56.9824 72.9004 -48.0957 C 72.9492 -41.9922 69.7266 -37.3535 64.6973 -31.543 L 53.0273 -17.9688 L 53.0273 -17.5293 L 70.2637 -17.5293 C 72.7051 -17.5293 74.3652 -16.0156 74.3652 -13.3789 C 74.3652 -10.8398 72.7051 -9.17969 70.2637 -9.17969 Z M 90.918 -8.39844 C 88.1348 -8.39844 86.1328 -10.3027 86.1328 -13.0859 C 86.1328 -14.3555 86.3281 -15.1855 86.9141 -16.2598 L 105.762 -53.1738 L 105.762 -53.6621 L 84.668 -53.6621 C 82.2266 -53.6621 80.3711 -55.127 80.3711 -57.666 C 80.3711 -60.2051 82.1777 -61.7676 84.668 -61.7676 L 109.424 -61.7676 C 113.477 -61.7676 115.723 -59.1309 115.723 -55.8105 C 115.723 -54.4434 115.479 -53.1738 114.6 -51.3184 L 95.5078 -11.9629 C 94.3359 -9.57031 93.0664 -8.39844 90.918 -8.39844 Z"/>
  </g>
  <g id="Medium-L" transform="matrix(1 0 0 1 1670.87 1556)">
   <path d="M 75.6836 29.1016 C 110.938 29.1016 140.088 0 140.088 -35.3027 C 140.088 -70.5566 110.889 -99.6582 75.6348 -99.6582 C 40.3809 -99.6582 11.2793 -70.5566 11.2793 -35.3027 C 11.2793 0 40.3809 29.1016 75.6836 29.1016 Z M 43.5059 -8.83789 C 41.2109 -8.83789 39.5996 -10.3516 39.5996 -12.7441 C 39.5996 -14.1602 40.0391 -15.332 41.2109 -16.5527 L 58.0078 -36.2305 C 61.3281 -40.1367 64.3555 -43.6035 64.3555 -47.6562 C 64.3555 -52.4414 60.9375 -55.6641 55.6641 -55.6641 C 50.8789 -55.6641 47.5098 -53.0273 46.1914 -48.291 C 45.459 -46.3379 44.4336 -45.2637 42.4316 -45.2637 C 40.2344 -45.2637 38.8672 -46.8262 38.8672 -49.0723 C 38.8672 -49.9023 39.0137 -50.5859 39.1602 -51.4648 C 40.7715 -58.252 47.6562 -63.1836 55.5176 -63.1836 C 65.625 -63.1836 72.1191 -57.2754 72.1191 -48.3398 C 72.1191 -42.1875 68.8477 -37.5 63.7695 -31.6406 L 51.1719 -16.8945 L 51.1719 -16.5039 L 69.873 -16.5039 C 72.0215 -16.5039 73.584 -15.0879 73.584 -12.6953 C 73.584 -10.3516 72.0215 -8.83789 69.873 -8.83789 Z M 90.2344 -8.05664 C 87.6953 -8.05664 85.8887 -9.81445 85.8887 -12.3535 C 85.8887 -13.4766 86.0352 -14.3066 86.5723 -15.2832 L 106.494 -54.1016 L 106.494 -54.5898 L 83.9355 -54.5898 C 81.6895 -54.5898 80.0293 -56.0059 80.0293 -58.252 C 80.0293 -60.5957 81.6406 -62.0117 83.9355 -62.0117 L 109.766 -62.0117 C 113.477 -62.0117 115.625 -59.5703 115.625 -56.4941 C 115.625 -55.1758 115.43 -54.0039 114.551 -52.1484 L 94.4336 -11.2793 C 93.3594 -9.08203 92.1387 -8.05664 90.2344 -8.05664 Z"/>
  </g>
  <g id="Regular-L" transform="matrix(1 0 0 1 1374.97 1556)">
   <path d="M 74.8535 28.3691 C 109.668 28.3691 138.477 -0.390625 138.477 -35.2051 C 138.477 -70.0195 109.619 -98.7793 74.8047 -98.7793 C 40.0391 -98.7793 11.2793 -70.0195 11.2793 -35.2051 C 11.2793 -0.390625 40.0879 28.3691 74.8535 28.3691 Z M 41.6504 -8.34961 C 39.5508 -8.34961 38.1836 -9.7168 38.1836 -11.8164 C 38.1836 -13.0371 38.5254 -14.0137 39.4531 -14.9902 L 57.4707 -36.0352 C 60.8887 -40.0879 64.0137 -43.7988 64.0137 -48.0957 C 64.0137 -53.3691 60.3516 -56.8359 54.4922 -56.8359 C 49.2188 -56.8359 45.459 -53.9551 44.0918 -48.7305 C 43.3105 -46.9238 42.4316 -45.8984 40.6738 -45.8984 C 38.6719 -45.8984 37.4023 -47.3145 37.4023 -49.4141 C 37.4023 -50.1465 37.5488 -50.7812 37.6953 -51.6113 C 39.2578 -58.4961 46.2891 -63.5254 54.248 -63.5254 C 64.4531 -63.5254 71.0938 -57.666 71.0938 -48.6328 C 71.0938 -42.4316 67.7246 -37.6953 62.5488 -31.7383 L 48.6816 -15.5273 L 48.6816 -15.1855 L 69.2871 -15.1855 C 71.1914 -15.1855 72.5586 -13.916 72.5586 -11.7676 C 72.5586 -9.76562 71.1914 -8.34961 69.2871 -8.34961 Z M 89.3555 -7.61719 C 87.1582 -7.61719 85.5469 -9.17969 85.5469 -11.377 C 85.5469 -12.4023 85.6445 -13.1348 86.1328 -13.9648 L 107.422 -55.3711 L 107.422 -55.8594 L 82.959 -55.8594 C 80.957 -55.8594 79.5898 -57.1289 79.5898 -59.082 C 79.5898 -61.084 80.957 -62.4023 82.959 -62.4023 L 110.254 -62.4023 C 113.428 -62.4023 115.527 -60.2051 115.527 -57.3242 C 115.527 -56.1523 115.332 -55.0781 114.453 -53.2227 L 93.0664 -10.4004 C 92.0898 -8.44727 90.9668 -7.61719 89.3555 -7.61719 Z"/>
  </g>
  <g id="Light-L" transform="matrix(1 0 0 1 1079.18 1556)">
   <path d="M 73.9258 27.4902 C 108.301 27.4902 136.621 -0.830078 136.621 -35.1562 C 136.621 -69.5312 108.252 -97.8516 73.9258 -97.8516 C 39.5508 -97.8516 11.2793 -69.5312 11.2793 -35.1562 C 11.2793 -0.830078 39.5996 27.4902 73.9258 27.4902 Z M 40.918 -8.44727 C 39.1602 -8.44727 37.9395 -9.57031 37.9395 -11.377 C 37.9395 -12.4023 38.2324 -13.1836 39.0137 -13.9648 L 57.8125 -35.8398 C 61.5723 -40.332 64.2578 -43.9453 64.2578 -48.291 C 64.2578 -54.0039 60.2539 -57.7637 53.7598 -57.7637 C 47.7539 -57.7637 43.4082 -54.248 42.3828 -48.6816 C 41.8457 -47.1191 41.1133 -46.2402 39.5508 -46.2402 C 37.8906 -46.2402 36.8652 -47.4609 36.8652 -49.1211 C 36.8652 -49.8047 36.9629 -50.3906 37.0605 -51.1719 C 38.5254 -58.1543 45.5078 -63.2324 53.6133 -63.2324 C 63.5254 -63.2324 70.0684 -57.4707 70.0684 -48.584 C 70.0684 -42.8223 67.041 -38.2324 61.5723 -31.8848 L 46.4355 -14.3066 L 46.4355 -14.0137 L 68.8965 -14.0137 C 70.5078 -14.0137 71.582 -12.9395 71.582 -11.2305 C 71.582 -9.61914 70.5078 -8.44727 68.8965 -8.44727 Z M 88.1348 -7.86133 C 86.2793 -7.86133 85.0586 -9.13086 85.0586 -10.8398 C 85.0586 -11.6211 85.2051 -12.207 85.5469 -12.8906 L 107.861 -56.5918 L 107.861 -56.9824 L 81.7871 -56.9824 C 80.127 -56.9824 79.0039 -58.0566 79.0039 -59.6191 C 79.0039 -61.2793 80.127 -62.3535 81.7871 -62.3535 L 109.912 -62.3535 C 112.549 -62.3535 114.355 -60.5957 114.355 -58.252 C 114.355 -57.2754 114.16 -56.4453 113.428 -54.9316 L 91.1133 -10.0586 C 90.332 -8.49609 89.4531 -7.86133 88.1348 -7.86133 Z"/>
  </g>
  <g id="Thin-L" transform="matrix(1 0 0 1 783.693 1556)">
   <path d="M 72.7051 26.3184 C 106.494 26.3184 134.18 -1.36719 134.18 -35.1074 C 134.18 -68.8965 106.494 -96.582 72.7051 -96.582 C 38.9648 -96.582 11.2793 -68.8965 11.2793 -35.1074 C 11.2793 -1.36719 38.9648 26.3184 72.7051 26.3184 Z M 39.9414 -8.59375 C 38.623 -8.59375 37.6465 -9.42383 37.6465 -10.7422 C 37.6465 -11.6211 37.8418 -12.0605 38.3789 -12.6465 L 58.2031 -35.5957 C 62.5 -40.6738 64.5996 -44.1895 64.5996 -48.5352 C 64.5996 -54.8828 60.1074 -58.9844 52.7832 -58.9844 C 45.8008 -58.9844 40.7227 -54.6387 40.1855 -48.6328 C 39.9414 -47.4121 39.3066 -46.7285 38.0371 -46.7285 C 36.8652 -46.7285 36.084 -47.6074 36.084 -48.7793 C 36.084 -49.3652 36.1816 -49.8047 36.2793 -50.5371 C 37.5 -57.666 44.5312 -62.793 52.7832 -62.793 C 62.3535 -62.793 68.75 -57.2266 68.75 -48.5352 C 68.75 -43.4082 66.1133 -38.9648 60.2051 -32.0801 L 43.457 -12.6465 L 43.457 -12.4512 L 68.4082 -12.4512 C 69.5801 -12.4512 70.3125 -11.6699 70.3125 -10.5469 C 70.3125 -9.47266 69.5801 -8.59375 68.4082 -8.59375 Z M 86.5234 -8.1543 C 85.1562 -8.1543 84.4727 -9.08203 84.4727 -10.1074 C 84.4727 -10.5957 84.5703 -10.9863 84.7656 -11.4258 L 108.447 -58.252 L 108.447 -58.4961 L 80.2246 -58.4961 C 79.0527 -58.4961 78.2227 -59.2285 78.2227 -60.4004 C 78.2227 -61.5234 79.0527 -62.3047 80.2246 -62.3047 L 109.424 -62.3047 C 111.377 -62.3047 112.793 -61.1816 112.793 -59.4727 C 112.793 -58.7402 112.598 -58.252 112.061 -57.1777 L 88.5254 -9.57031 C 88.0371 -8.54492 87.5 -8.1543 86.5234 -8.1543 Z"/>
  </g>
  <g id="Ultralight-L" transform="matrix(1 0 0 1 487.616 1556)">
   <path d="M 72.1191 25.7324 C 105.566 25.7324 132.91 -1.61133 132.91 -35.1074 C 132.91 -68.5547 105.566 -95.8984 72.1191 -95.8984 C 38.623 -95.8984 11.2793 -68.5547 11.2793 -35.1074 C 11.2793 -1.61133 38.623 25.7324 72.1191 25.7324 Z M 39.4043 -8.69141 C 38.3301 -8.69141 37.5 -9.32617 37.5 -10.4492 C 37.5 -11.1816 37.6465 -11.5234 38.0859 -11.9141 L 58.4473 -35.4492 C 62.9883 -40.8203 64.7461 -44.3359 64.7461 -48.6816 C 64.7461 -55.3711 60.0586 -59.6191 52.2949 -59.6191 C 44.8242 -59.6191 39.3066 -54.834 39.0137 -48.584 C 38.9648 -47.5586 38.4277 -46.9727 37.3047 -46.9727 C 36.377 -46.9727 35.6934 -47.7051 35.6934 -48.6328 C 35.6934 -49.1699 35.791 -49.5117 35.8398 -50.2441 C 37.0117 -57.4219 43.9941 -62.5977 52.3438 -62.5977 C 61.7188 -62.5977 68.0664 -57.0801 68.0664 -48.5352 C 68.0664 -43.7012 65.6738 -39.3066 59.5215 -32.1777 L 41.8945 -11.7676 L 41.8945 -11.6211 L 68.1641 -11.6211 C 69.1406 -11.6211 69.6777 -10.9863 69.6777 -10.1562 C 69.6777 -9.42383 69.1406 -8.69141 68.1641 -8.69141 Z M 85.6445 -8.34961 C 84.5703 -8.34961 84.1309 -9.0332 84.1309 -9.76562 C 84.1309 -10.1074 84.2285 -10.3516 84.3262 -10.6934 L 108.74 -59.082 L 108.74 -59.2773 L 79.3945 -59.2773 C 78.4668 -59.2773 77.832 -59.8633 77.832 -60.791 C 77.832 -61.6211 78.4668 -62.2559 79.3945 -62.2559 L 109.18 -62.2559 C 110.791 -62.2559 111.963 -61.4746 111.963 -60.1074 C 111.963 -59.5215 111.816 -59.1797 111.377 -58.3496 L 87.207 -9.32617 C 86.8652 -8.59375 86.4746 -8.34961 85.6445 -8.34961 Z"/>
  </g>
  <g id="Black-M" transform="matrix(1 0 0 1 2870.97 1126)">
   <path d="M 62.4023 18.0176 C 91.9922 18.0176 116.113 -6.05469 116.113 -35.6445 C 116.113 -65.2344 91.9922 -89.3066 62.4023 -89.3066 C 32.8125 -89.3066 8.74023 -65.2344 8.74023 -35.6445 C 8.74023 -6.05469 32.8125 18.0176 62.4023 18.0176 Z M 43.3105 -17.334 C 40.4785 -17.334 38.2324 -19.2871 38.2324 -22.4609 C 38.2324 -24.5605 38.916 -26.3184 40.9668 -28.6133 L 47.9492 -36.9141 C 50.1953 -39.502 51.6113 -40.918 51.6113 -42.8223 C 51.6113 -44.0918 50.3906 -45.166 48.9746 -45.166 C 47.6074 -45.166 46.5332 -44.2383 46.1914 -42.9199 C 45.6055 -41.1133 44.2871 -39.7461 41.748 -39.7461 C 39.1113 -39.7461 37.4023 -41.6016 37.4023 -44.0918 C 37.4023 -45.1172 37.5488 -45.8496 37.793 -46.7285 C 39.1602 -51.6113 43.8477 -54.7852 49.4141 -54.7852 C 56.4941 -54.7852 60.6934 -50.0977 60.8398 -43.75 C 60.8887 -39.5996 59.1309 -36.3281 55.3223 -31.9336 L 51.5625 -27.6367 L 51.5625 -27.0996 L 56.9336 -27.0996 C 60.0586 -27.0996 62.0117 -25.3418 62.0117 -22.3633 C 62.0117 -19.1406 60.0586 -17.334 56.9336 -17.334 Z M 73.8281 -16.6504 C 70.5566 -16.6504 68.1641 -18.8477 68.1641 -22.2656 C 68.1641 -23.7305 68.5059 -24.7559 69.0918 -26.0742 L 77.8809 -43.9453 L 77.8809 -44.2383 L 69.5801 -44.2383 C 66.6504 -44.2383 63.916 -45.8496 63.916 -49.1211 C 63.916 -52.3926 66.4551 -54.1016 69.5801 -54.1016 L 82.4707 -54.1016 C 87.5488 -54.1016 89.5996 -51.0742 89.5996 -47.6562 C 89.5996 -46.2891 89.3066 -44.8242 88.7207 -43.5059 L 79.4922 -21.2402 C 78.2227 -18.2129 76.9531 -16.6504 73.8281 -16.6504 Z"/>
  </g>
  <g id="Heavy-M" transform="matrix(1 0 0 1 2575.19 1126)">
   <path d="M 61.5234 17.2363 C 90.5273 17.2363 114.258 -6.49414 114.258 -35.5469 C 114.258 -64.5996 90.5273 -88.3301 61.4746 -88.3301 C 32.4707 -88.3301 8.74023 -64.5996 8.74023 -35.5469 C 8.74023 -6.49414 32.4707 17.2363 61.5234 17.2363 Z M 40.8203 -16.6016 C 38.2324 -16.6016 36.2305 -18.4082 36.2305 -21.2402 C 36.2305 -23.0957 36.8164 -24.6582 38.5742 -26.6113 L 47.1191 -36.6699 C 49.4141 -39.3555 51.123 -41.1133 51.123 -43.3594 C 51.123 -45.2148 49.5605 -46.6309 47.4609 -46.6309 C 45.5566 -46.6309 44.1406 -45.5078 43.5547 -43.5547 C 42.9688 -41.8457 41.7969 -40.5762 39.4531 -40.5762 C 37.0605 -40.5762 35.498 -42.2852 35.498 -44.6289 C 35.498 -45.5566 35.5957 -46.2402 35.8398 -47.0703 C 37.207 -52.0508 42.0898 -55.3711 47.7539 -55.3711 C 55.0781 -55.3711 59.5215 -50.7324 59.6191 -44.1895 C 59.668 -39.8438 57.6172 -36.4258 53.8086 -32.0801 L 48.584 -25.9766 L 48.584 -25.5371 L 56.2012 -25.5371 C 58.9844 -25.5371 60.791 -23.9258 60.791 -21.1914 C 60.791 -18.3105 58.9844 -16.6016 56.2012 -16.6016 Z M 72.9004 -15.918 C 69.9707 -15.918 67.7734 -17.9688 67.7734 -21.0449 C 67.7734 -22.3633 68.0664 -23.291 68.6523 -24.4629 L 79.0527 -45.4102 L 79.0527 -45.7031 L 68.5059 -45.7031 C 65.8203 -45.7031 63.4766 -47.2168 63.4766 -50.1465 C 63.4766 -53.0273 65.6738 -54.5898 68.5059 -54.5898 L 83.2031 -54.5898 C 87.7441 -54.5898 89.7461 -51.8555 89.7461 -48.6328 C 89.7461 -47.3145 89.4531 -45.9961 88.8672 -44.6289 L 77.9785 -20.0195 C 76.8555 -17.334 75.6348 -15.918 72.9004 -15.918 Z"/>
  </g>
  <g id="Bold-M" transform="matrix(1 0 0 1 2279.5 1126)">
   <path d="M 60.498 16.3086 C 88.8672 16.3086 112.207 -7.03125 112.207 -35.4492 C 112.207 -63.8672 88.8672 -87.1582 60.4492 -87.1582 C 32.0312 -87.1582 8.74023 -63.8672 8.74023 -35.4492 C 8.74023 -7.03125 32.0801 16.3086 60.498 16.3086 Z M 37.9883 -15.8203 C 35.6934 -15.8203 33.9844 -17.3828 33.9844 -19.9219 C 33.9844 -21.4355 34.4727 -22.8027 35.8887 -24.3652 L 46.1914 -36.4258 C 48.4863 -39.209 50.5371 -41.3574 50.5371 -43.9453 C 50.5371 -46.4844 48.584 -48.291 45.8008 -48.291 C 43.3105 -48.291 41.4551 -46.9238 40.6738 -44.3359 C 40.0391 -42.627 38.9648 -41.5039 36.9629 -41.5039 C 34.7656 -41.5039 33.3496 -43.0664 33.3496 -45.2148 C 33.3496 -46.0449 33.4961 -46.7285 33.6426 -47.4609 C 35.0098 -52.5391 40.0879 -56.0547 45.8984 -56.0547 C 53.4668 -56.0547 58.2031 -51.416 58.252 -44.6777 C 58.3008 -40.0879 56.0059 -36.5723 52.1973 -32.1777 L 45.2637 -24.1699 L 45.2637 -23.7305 L 55.4199 -23.7305 C 57.8125 -23.7305 59.375 -22.3145 59.375 -19.873 C 59.375 -17.334 57.8125 -15.8203 55.4199 -15.8203 Z M 71.875 -15.1855 C 69.2871 -15.1855 67.334 -16.9434 67.334 -19.6777 C 67.334 -20.8496 67.5781 -21.6797 68.1152 -22.7051 L 80.4199 -47.0215 L 80.4199 -47.4121 L 67.2852 -47.4121 C 64.9414 -47.4121 62.9883 -48.7793 62.9883 -51.2695 C 62.9883 -53.7598 64.8438 -55.1758 67.2852 -55.1758 L 84.0332 -55.1758 C 87.9883 -55.1758 89.8926 -52.6855 89.8926 -49.7559 C 89.8926 -48.5352 89.6484 -47.3145 89.0137 -45.8984 L 76.3672 -18.7012 C 75.293 -16.3574 74.1699 -15.1855 71.875 -15.1855 Z"/>
  </g>
  <g id="Semibold-M" transform="matrix(1 0 0 1 1983.5 1126)">
   <path d="M 59.7656 15.6738 C 87.7441 15.6738 110.791 -7.37305 110.791 -35.3516 C 110.791 -63.3301 87.6953 -86.377 59.7656 -86.377 C 31.7871 -86.377 8.74023 -63.3301 8.74023 -35.3516 C 8.74023 -7.37305 31.7871 15.6738 59.7656 15.6738 Z M 36.084 -15.2832 C 33.9355 -15.2832 32.4219 -16.6992 32.4219 -18.9941 C 32.4219 -20.3125 32.8613 -21.4844 34.0332 -22.8027 L 45.5078 -36.2793 C 47.8516 -39.0625 50.1465 -41.5039 50.1465 -44.3359 C 50.1465 -47.3633 47.9492 -49.4629 44.6777 -49.4629 C 41.6992 -49.4629 39.6484 -47.8516 38.623 -44.8242 C 37.9883 -43.1641 37.0117 -42.1875 35.2051 -42.1875 C 33.2031 -42.1875 31.8848 -43.6035 31.8848 -45.6543 C 31.8848 -46.3867 32.0312 -47.0215 32.1777 -47.7539 C 33.4961 -52.8809 38.7207 -56.543 44.6289 -56.543 C 52.3926 -56.543 57.2754 -51.9043 57.3242 -45.0195 C 57.3242 -40.2344 54.834 -36.6699 51.0742 -32.2754 L 43.0176 -22.9004 L 43.0176 -22.5098 L 54.8828 -22.5098 C 56.9824 -22.5098 58.4473 -21.1914 58.4473 -18.9453 C 58.4473 -16.6992 56.9824 -15.2832 54.8828 -15.2832 Z M 71.1914 -14.6484 C 68.7988 -14.6484 67.041 -16.2598 67.041 -18.7012 C 67.041 -19.8242 67.2363 -20.5566 67.7246 -21.4844 L 81.3477 -48.1445 L 81.3477 -48.5352 L 66.4551 -48.5352 C 64.3066 -48.5352 62.6465 -49.8535 62.6465 -52.0508 C 62.6465 -54.2969 64.2578 -55.6152 66.4551 -55.6152 L 84.6191 -55.6152 C 88.1348 -55.6152 89.9902 -53.3203 89.9902 -50.4883 C 89.9902 -49.3652 89.7949 -48.2422 89.1113 -46.7285 L 75.2441 -17.7734 C 74.2188 -15.6738 73.1445 -14.6484 71.1914 -14.6484 Z"/>
  </g>
  <g id="Medium-M" transform="matrix(1 0 0 1 1687.3 1126)">
   <path d="M 59.2285 15.1855 C 86.9141 15.1855 109.766 -7.66602 109.766 -35.3027 C 109.766 -62.9395 86.8652 -85.791 59.1797 -85.791 C 31.543 -85.791 8.74023 -62.9395 8.74023 -35.3027 C 8.74023 -7.66602 31.5918 15.1855 59.2285 15.1855 Z M 34.6191 -14.8926 C 32.6172 -14.8926 31.25 -16.2109 31.25 -18.2617 C 31.25 -19.4824 31.6406 -20.5078 32.666 -21.6309 L 45.0195 -36.1328 C 47.4121 -38.9648 49.8535 -41.6016 49.8535 -44.6777 C 49.8535 -48.0469 47.4609 -50.3418 43.7988 -50.3418 C 40.5273 -50.3418 38.2324 -48.584 37.1094 -45.2148 C 36.4258 -43.6035 35.5469 -42.6758 33.8867 -42.6758 C 31.9824 -42.6758 30.7617 -43.9941 30.7617 -45.9473 C 30.7617 -46.6309 30.9082 -47.2168 31.0059 -47.9492 C 32.373 -53.125 37.6465 -56.8848 43.7012 -56.8848 C 51.5625 -56.8848 56.5918 -52.2949 56.5918 -45.3125 C 56.5918 -40.3809 54.0039 -36.7676 50.1953 -32.373 L 41.2598 -21.9238 L 41.2598 -21.582 L 54.4434 -21.582 C 56.3477 -21.582 57.7148 -20.3613 57.7148 -18.2617 C 57.7148 -16.2109 56.3477 -14.8926 54.4434 -14.8926 Z M 70.6543 -14.209 C 68.457 -14.209 66.8457 -15.7715 66.8457 -17.9688 C 66.8457 -19.043 66.9922 -19.7266 67.4316 -20.6055 L 82.0801 -49.0234 L 82.0801 -49.4141 L 65.8203 -49.4141 C 63.8184 -49.4141 62.3535 -50.6348 62.3535 -52.6367 C 62.3535 -54.6387 63.8184 -55.9082 65.8203 -55.9082 L 85.0586 -55.9082 C 88.2812 -55.9082 90.0879 -53.7598 90.0879 -51.0742 C 90.0879 -50 89.8926 -48.9258 89.1602 -47.3633 L 74.3652 -17.0898 C 73.3887 -15.1367 72.3633 -14.209 70.6543 -14.209 Z"/>
  </g>
  <g id="Regular-M" transform="matrix(1 0 0 1 1391.3 1126)">
   <path d="M 58.5449 14.5508 C 85.791 14.5508 108.35 -8.00781 108.35 -35.2539 C 108.35 -62.4512 85.7422 -85.0586 58.4961 -85.0586 C 31.2988 -85.0586 8.74023 -62.4512 8.74023 -35.2539 C 8.74023 -8.00781 31.3477 14.5508 58.5449 14.5508 Z M 32.7148 -14.3555 C 30.8594 -14.3555 29.6875 -15.5273 29.6875 -17.334 C 29.6875 -18.3594 30.0293 -19.2383 30.8594 -20.1172 L 44.3848 -35.9863 C 46.7773 -38.8672 49.5117 -41.748 49.5117 -45.0684 C 49.5117 -48.877 46.8262 -51.4648 42.6758 -51.4648 C 38.9648 -51.4648 36.4258 -49.5605 35.1074 -45.7031 C 34.4238 -44.1406 33.6426 -43.3105 32.1777 -43.3105 C 30.4199 -43.3105 29.3457 -44.5312 29.3457 -46.3379 C 29.3457 -46.9727 29.4434 -47.5586 29.541 -48.1934 C 30.8594 -53.4668 36.2793 -57.3242 42.4316 -57.3242 C 50.4395 -57.3242 55.6641 -52.7344 55.6641 -45.6543 C 55.6641 -40.5762 52.8809 -36.8164 49.0723 -32.4219 L 39.0137 -20.7031 L 39.0137 -20.3613 L 53.9062 -20.3613 C 55.5664 -20.3613 56.7871 -19.2871 56.7871 -17.334 C 56.7871 -15.5273 55.5664 -14.3555 53.9062 -14.3555 Z M 69.9707 -13.6719 C 68.0176 -13.6719 66.5527 -15.0879 66.5527 -17.041 C 66.5527 -17.9688 66.6504 -18.6523 67.0898 -19.3848 L 82.959 -50.1465 L 82.959 -50.5371 L 64.9414 -50.5371 C 63.2324 -50.5371 62.0117 -51.709 62.0117 -53.3691 C 62.0117 -55.1758 63.2324 -56.2988 64.9414 -56.2988 L 85.6445 -56.2988 C 88.4277 -56.2988 90.1855 -54.3457 90.1855 -51.8066 C 90.1855 -50.7812 90.0391 -49.8535 89.2578 -48.2422 L 73.2422 -16.1621 C 72.3633 -14.4531 71.3379 -13.6719 69.9707 -13.6719 Z"/>
  </g>
  <g id="Light-M" transform="matrix(1 0 0 1 1095.42 1126)">
   <path d="M 57.7148 13.7695 C 84.5215 13.7695 106.689 -8.39844 106.689 -35.2051 C 106.689 -62.0117 84.5215 -84.1797 57.666 -84.1797 C 30.8594 -84.1797 8.74023 -62.0117 8.74023 -35.2051 C 8.74023 -8.39844 30.9082 13.7695 57.7148 13.7695 Z M 32.0312 -14.4531 C 30.5176 -14.4531 29.4922 -15.4297 29.4922 -16.9434 C 29.4922 -17.8223 29.7363 -18.5059 30.4199 -19.1895 L 44.6289 -35.791 C 47.4121 -39.0625 49.707 -41.8945 49.707 -45.2637 C 49.707 -49.5117 46.7285 -52.2949 41.9922 -52.2949 C 37.6465 -52.2949 34.5703 -49.8047 33.5938 -45.6543 C 33.1055 -44.3359 32.4219 -43.6035 31.1523 -43.6035 C 29.7363 -43.6035 28.8086 -44.6289 28.8086 -46.1426 C 28.8086 -46.6797 28.9062 -47.168 29.0039 -47.8027 C 30.1758 -53.125 35.5957 -57.0801 41.8457 -57.0801 C 49.6582 -57.0801 54.7852 -52.5879 54.7852 -45.6055 C 54.7852 -40.918 52.2461 -37.3047 48.1445 -32.5684 L 36.9629 -19.5801 L 36.9629 -19.3359 L 53.5645 -19.3359 C 54.9316 -19.3359 55.9082 -18.4082 55.9082 -16.8945 C 55.9082 -15.4297 54.9316 -14.4531 53.5645 -14.4531 Z M 68.8477 -13.916 C 67.2363 -13.916 66.1133 -15.0391 66.1133 -16.5527 C 66.1133 -17.2852 66.2109 -17.8223 66.5527 -18.4082 L 83.3984 -51.2207 L 83.3984 -51.5625 L 63.916 -51.5625 C 62.5 -51.5625 61.5234 -52.4902 61.5234 -53.9062 C 61.5234 -55.3223 62.5 -56.25 63.916 -56.25 L 85.3027 -56.25 C 87.6465 -56.25 89.1602 -54.7363 89.1602 -52.6367 C 89.1602 -51.8066 88.9648 -51.0742 88.3789 -49.7559 L 71.4844 -15.8691 C 70.8008 -14.502 70.0195 -13.916 68.8477 -13.916 Z"/>
  </g>
  <g id="Thin-M" transform="matrix(1 0 0 1 799.806 1126)">
   <path d="M 56.6406 12.7441 C 82.9102 12.7441 104.492 -8.83789 104.492 -35.1562 C 104.492 -61.4746 82.9102 -83.0566 56.5918 -83.0566 C 30.3223 -83.0566 8.74023 -61.4746 8.74023 -35.1562 C 8.74023 -8.83789 30.3223 12.7441 56.6406 12.7441 Z M 31.1523 -14.5508 C 30.0293 -14.5508 29.248 -15.2832 29.248 -16.4062 C 29.248 -17.0898 29.3945 -17.5293 29.8828 -18.0176 L 45.0195 -35.5469 C 48.2422 -39.3555 50 -42.1387 50 -45.5078 C 50 -50.293 46.6309 -53.3691 41.1133 -53.3691 C 35.9375 -53.3691 32.1289 -50.1953 31.6406 -45.6055 C 31.3477 -44.6289 30.8594 -44.043 29.834 -44.043 C 28.8086 -44.043 28.125 -44.7754 28.125 -45.8008 C 28.125 -46.2891 28.2227 -46.6309 28.2715 -47.2168 C 29.2969 -52.7344 34.7168 -56.6895 41.0645 -56.6895 C 48.584 -56.6895 53.5645 -52.3438 53.5645 -45.5566 C 53.5645 -41.4551 51.416 -37.9395 46.9727 -32.7637 L 34.3262 -18.0664 L 34.3262 -17.9199 L 53.125 -17.9199 C 54.1016 -17.9199 54.7852 -17.2363 54.7852 -16.2598 C 54.7852 -15.332 54.1016 -14.5508 53.125 -14.5508 Z M 67.3828 -14.209 C 66.2598 -14.209 65.5762 -14.9902 65.5762 -15.918 C 65.5762 -16.3574 65.6738 -16.6992 65.8691 -17.0898 L 83.8867 -52.6855 L 83.8867 -52.9297 L 62.5 -52.9297 C 61.4746 -52.9297 60.791 -53.5645 60.791 -54.5898 C 60.791 -55.5176 61.4746 -56.2012 62.5 -56.2012 L 84.9121 -56.2012 C 86.5723 -56.2012 87.7441 -55.2246 87.7441 -53.7598 C 87.7441 -53.125 87.5977 -52.6855 87.1582 -51.7578 L 69.1895 -15.4297 C 68.75 -14.5508 68.2129 -14.209 67.3828 -14.209 Z"/>
  </g>
  <g id="Ultralight-M" transform="matrix(1 0 0 1 503.656 1126)">
   <path d="M 56.0547 12.207 C 82.0801 12.207 103.369 -9.08203 103.369 -35.1562 C 103.369 -61.1816 82.0801 -82.4707 56.0547 -82.4707 C 30.0293 -82.4707 8.74023 -61.1816 8.74023 -35.1562 C 8.74023 -9.08203 30.0293 12.207 56.0547 12.207 Z M 30.7129 -14.6484 C 29.7852 -14.6484 29.1016 -15.1855 29.1016 -16.1133 C 29.1016 -16.6992 29.248 -17.041 29.5898 -17.3828 L 45.2148 -35.4492 C 48.6816 -39.502 50.1465 -42.2363 50.1465 -45.6055 C 50.1465 -50.6836 46.582 -53.9551 40.6738 -53.9551 C 35.0098 -53.9551 30.9082 -50.3418 30.6152 -45.6055 C 30.4688 -44.7266 30.0293 -44.2383 29.1504 -44.2383 C 28.3203 -44.2383 27.7832 -44.873 27.7832 -45.6543 C 27.7832 -46.0938 27.832 -46.3867 27.9297 -46.9727 C 28.8574 -52.4902 34.2773 -56.4941 40.6738 -56.4941 C 47.998 -56.4941 52.9297 -52.1973 52.9297 -45.5566 C 52.9297 -41.6992 51.0254 -38.2812 46.3379 -32.8613 L 32.959 -17.334 L 32.959 -17.1875 L 52.9297 -17.1875 C 53.7109 -17.1875 54.1992 -16.6504 54.1992 -15.918 C 54.1992 -15.2344 53.7109 -14.6484 52.9297 -14.6484 Z M 66.6504 -14.3555 C 65.7227 -14.3555 65.332 -14.9414 65.332 -15.625 C 65.332 -15.918 65.3809 -16.1621 65.4785 -16.4551 L 84.1797 -53.4668 L 84.1797 -53.6621 L 61.7676 -53.6621 C 60.9863 -53.6621 60.4492 -54.1504 60.4492 -54.9316 C 60.4492 -55.6641 60.9863 -56.2012 61.7676 -56.2012 L 84.7168 -56.2012 C 86.0352 -56.2012 87.0117 -55.4688 87.0117 -54.2969 C 87.0117 -53.8086 86.9141 -53.5156 86.5234 -52.7832 L 67.9688 -15.2344 C 67.6758 -14.5508 67.334 -14.3555 66.6504 -14.3555 Z"/>
  </g>
  <g id="Black-S" transform="matrix(1 0 0 1 2884.57 696)">
   <path d="M 48.8281 6.44531 C 71.9727 6.44531 90.8203 -12.4023 90.8203 -35.5469 C 90.8203 -58.6914 71.9727 -77.5391 48.8281 -77.5391 C 25.6836 -77.5391 6.83594 -58.6914 6.83594 -35.5469 C 6.83594 -12.4023 25.6836 6.44531 48.8281 6.44531 Z M 33.7402 -21.1426 C 31.543 -21.1426 29.7852 -22.6562 29.7852 -25.1465 C 29.7852 -26.7578 30.3223 -28.125 31.8848 -29.8828 L 37.5 -36.5234 C 39.2578 -38.5742 40.3809 -39.6973 40.3809 -41.2109 C 40.3809 -42.2363 39.4043 -43.1152 38.2324 -43.1152 C 37.1582 -43.1152 36.2793 -42.3828 35.9863 -41.3086 C 35.5469 -39.8926 34.5215 -38.8184 32.5195 -38.8184 C 30.4688 -38.8184 29.1504 -40.2832 29.1504 -42.2363 C 29.1504 -43.0176 29.248 -43.6035 29.4434 -44.2871 C 30.5176 -48.0957 34.2285 -50.5859 38.5742 -50.5859 C 44.1406 -50.5859 47.4609 -46.9238 47.5586 -41.9434 C 47.6074 -38.6719 46.1914 -36.084 43.2129 -32.666 L 40.1855 -29.1504 L 40.1855 -28.7598 L 44.5312 -28.7598 C 46.9727 -28.7598 48.4863 -27.3926 48.4863 -25.0488 C 48.4863 -22.5586 46.9727 -21.1426 44.5312 -21.1426 Z M 57.7637 -20.6055 C 55.2246 -20.6055 53.3691 -22.3145 53.3691 -25 C 53.3691 -26.123 53.6133 -26.9043 54.1016 -27.9297 L 61.084 -42.1387 L 61.084 -42.3828 L 54.4434 -42.3828 C 52.1484 -42.3828 50.0488 -43.6523 50.0488 -46.1914 C 50.0488 -48.7305 52.002 -50.0488 54.4434 -50.0488 L 64.6484 -50.0488 C 68.6035 -50.0488 70.2148 -47.7051 70.2148 -45.0195 C 70.2148 -43.9453 69.9707 -42.8223 69.5312 -41.7969 L 62.1582 -24.1699 C 61.1816 -21.8262 60.2051 -20.6055 57.7637 -20.6055 Z"/>
  </g>
  <g id="Heavy-S" transform="matrix(1 0 0 1 2588.47 696)">
   <path d="M 48.2422 5.9082 C 70.9961 5.9082 89.5996 -12.6953 89.5996 -35.498 C 89.5996 -58.252 70.9961 -76.8555 48.1934 -76.8555 C 25.4395 -76.8555 6.83594 -58.252 6.83594 -35.498 C 6.83594 -12.6953 25.4395 5.9082 48.2422 5.9082 Z M 31.8848 -20.6055 C 29.834 -20.6055 28.2715 -21.9727 28.2715 -24.2676 C 28.2715 -25.6836 28.7598 -26.9531 30.127 -28.4668 L 36.8164 -36.377 C 38.5742 -38.4277 39.9902 -39.8438 39.9902 -41.6016 C 39.9902 -43.0176 38.7695 -44.1406 37.1582 -44.1406 C 35.7422 -44.1406 34.668 -43.3105 34.1797 -41.7969 C 33.6426 -40.4297 32.7148 -39.4531 30.9082 -39.4531 C 29.0039 -39.4531 27.7344 -40.7715 27.7344 -42.6758 C 27.7344 -43.4082 27.832 -43.9453 28.0273 -44.5801 C 29.1016 -48.4863 32.959 -51.0742 37.3535 -51.0742 C 43.1641 -51.0742 46.6797 -47.4121 46.7285 -42.2852 C 46.7773 -38.8184 45.1172 -36.1328 42.1875 -32.7637 L 38.1348 -28.0273 L 38.1348 -27.6367 L 44.043 -27.6367 C 46.2402 -27.6367 47.6562 -26.416 47.6562 -24.2188 C 47.6562 -21.9238 46.2402 -20.6055 44.043 -20.6055 Z M 57.1777 -20.0684 C 54.834 -20.0684 53.125 -21.6309 53.125 -24.1211 C 53.125 -25.1465 53.3203 -25.8789 53.8086 -26.8555 L 61.9629 -43.1152 L 61.9629 -43.4082 L 53.7109 -43.4082 C 51.6113 -43.4082 49.7559 -44.6289 49.7559 -46.9238 C 49.7559 -49.2188 51.5137 -50.4395 53.7109 -50.4395 L 65.2832 -50.4395 C 68.8477 -50.4395 70.459 -48.2422 70.459 -45.7031 C 70.459 -44.6289 70.2148 -43.6035 69.7266 -42.4805 L 61.2305 -23.291 C 60.3027 -21.1426 59.3262 -20.0684 57.1777 -20.0684 Z"/>
  </g>
  <g id="Bold-S" transform="matrix(1 0 0 1 2292.44 696)">
   <path d="M 47.5586 5.32227 C 69.873 5.32227 88.2324 -13.0859 88.2324 -35.4004 C 88.2324 -57.7148 69.873 -76.123 47.5098 -76.123 C 25.1953 -76.123 6.83594 -57.7148 6.83594 -35.4004 C 6.83594 -13.0859 25.1953 5.32227 47.5586 5.32227 Z M 29.834 -19.9707 C 27.9297 -19.9707 26.5625 -21.2402 26.5625 -23.291 C 26.5625 -24.5117 27.002 -25.5859 28.125 -26.8555 L 36.0352 -36.2305 C 37.793 -38.2812 39.502 -39.9902 39.502 -42.041 C 39.502 -43.9453 38.0371 -45.3125 35.9863 -45.3125 C 34.1309 -45.3125 32.8613 -44.3359 32.1289 -42.3828 C 31.543 -41.0156 30.7129 -40.1367 29.1016 -40.1367 C 27.2949 -40.1367 26.1719 -41.3574 26.1719 -43.1641 C 26.1719 -43.7988 26.2695 -44.3359 26.416 -44.9219 C 27.4902 -48.877 31.4941 -51.6602 36.0352 -51.6602 C 42.041 -51.6602 45.752 -47.998 45.8008 -42.6758 C 45.8496 -38.9648 43.9453 -36.1816 41.0645 -32.8125 L 35.8398 -26.7578 L 35.8398 -26.416 L 43.457 -26.416 C 45.4102 -26.416 46.6797 -25.293 46.6797 -23.2422 C 46.6797 -21.1914 45.4102 -19.9707 43.457 -19.9707 Z M 56.543 -19.4336 C 54.4434 -19.4336 52.832 -20.8984 52.832 -23.0957 C 52.832 -24.0723 53.0273 -24.7559 53.4668 -25.5859 L 62.9395 -44.2383 L 62.9395 -44.5801 L 52.9297 -44.5801 C 51.0254 -44.5801 49.4629 -45.7031 49.4629 -47.7051 C 49.4629 -49.7559 50.9277 -50.8789 52.9297 -50.8789 L 65.9668 -50.8789 C 69.1406 -50.8789 70.7031 -48.877 70.7031 -46.4355 C 70.7031 -45.459 70.5078 -44.4336 69.9707 -43.2129 L 60.2051 -22.3145 C 59.3262 -20.4102 58.3496 -19.4336 56.543 -19.4336 Z"/>
  </g>
  <g id="Semibold-S" transform="matrix(1 0 0 1 1996.2 696)">
   <path d="M 47.0703 4.88281 C 69.0918 4.88281 87.3047 -13.3301 87.3047 -35.3516 C 87.3047 -57.373 69.0918 -75.5859 47.0215 -75.5859 C 25 -75.5859 6.83594 -57.373 6.83594 -35.3516 C 6.83594 -13.3301 25.0488 4.88281 47.0703 4.88281 Z M 28.418 -19.5312 C 26.6602 -19.5312 25.3906 -20.752 25.3906 -22.6074 C 25.3906 -23.6816 25.7812 -24.707 26.7578 -25.7812 L 35.5469 -36.084 C 37.2559 -38.1836 39.209 -40.0879 39.209 -42.334 C 39.209 -44.5801 37.5488 -46.1426 35.1562 -46.1426 C 33.0566 -46.1426 31.5918 -45.0684 30.7129 -42.7734 C 30.127 -41.4062 29.3457 -40.5762 27.832 -40.5762 C 26.1719 -40.5762 25.0977 -41.748 25.0977 -43.457 C 25.0977 -44.0918 25.1953 -44.5801 25.3418 -45.166 C 26.416 -49.1699 30.5176 -52.002 35.1074 -52.002 C 41.2598 -52.002 45.1172 -48.3887 45.166 -42.9199 C 45.166 -39.0625 43.1152 -36.1816 40.2344 -32.8613 L 34.2773 -25.8789 L 34.2773 -25.5859 L 43.0664 -25.5859 C 44.8242 -25.5859 46.0449 -24.5117 46.0449 -22.6074 C 46.0449 -20.7031 44.8242 -19.5312 43.0664 -19.5312 Z M 56.1035 -18.9941 C 54.1504 -18.9941 52.6367 -20.3613 52.6367 -22.4121 C 52.6367 -23.3398 52.7832 -23.9746 53.2227 -24.7559 L 63.623 -45.0195 L 63.623 -45.3613 L 52.3438 -45.3613 C 50.5859 -45.3613 49.2188 -46.4355 49.2188 -48.2422 C 49.2188 -50.0977 50.5371 -51.2207 52.3438 -51.2207 L 66.4062 -51.2207 C 69.3359 -51.2207 70.8496 -49.2676 70.8496 -46.9238 C 70.8496 -45.9961 70.7031 -45.0684 70.1172 -43.75 L 59.4727 -21.6309 C 58.6426 -19.873 57.7148 -18.9941 56.1035 -18.9941 Z"/>
  </g>
  <g id="Medium-S" transform="matrix(1 0 0 1 1699.83 696)">
   <path d="M 46.7285 4.58984 C 68.5547 4.58984 86.6211 -13.4766 86.6211 -35.3027 C 86.6211 -57.1289 68.5059 -75.1953 46.6797 -75.1953 C 24.8535 -75.1953 6.83594 -57.1289 6.83594 -35.3027 C 6.83594 -13.4766 24.9023 4.58984 46.7285 4.58984 Z M 27.3438 -19.2383 C 25.6348 -19.2383 24.5117 -20.3613 24.5117 -22.0703 C 24.5117 -23.0957 24.8535 -23.9746 25.6836 -24.9023 L 35.1562 -36.0352 C 36.8652 -38.0859 38.9648 -40.1367 38.9648 -42.5781 C 38.9648 -45.0195 37.207 -46.7285 34.5215 -46.7285 C 32.2266 -46.7285 30.6641 -45.6055 29.6387 -43.0664 C 29.0039 -41.6992 28.2715 -40.918 26.9043 -40.918 C 25.293 -40.918 24.2676 -42.041 24.2676 -43.75 C 24.2676 -44.2871 24.3652 -44.7754 24.5117 -45.3613 C 25.5859 -49.3652 29.7363 -52.2949 34.4238 -52.2949 C 40.6738 -52.2949 44.6777 -48.6816 44.6777 -43.1641 C 44.6777 -39.1113 42.5293 -36.2305 39.6484 -32.9102 L 33.1055 -25.2441 L 33.1055 -24.9512 L 42.7734 -24.9512 C 44.3848 -24.9512 45.5566 -23.9258 45.5566 -22.1191 C 45.5566 -20.3613 44.3848 -19.2383 42.7734 -19.2383 Z M 55.7617 -18.6523 C 53.9062 -18.6523 52.5391 -19.9707 52.5391 -21.875 C 52.5391 -22.8027 52.6367 -23.3887 53.0273 -24.1211 L 64.1602 -45.6055 L 64.1602 -45.9473 L 51.9531 -45.9473 C 50.293 -45.9473 49.0723 -47.0215 49.0723 -48.6816 C 49.0723 -50.3906 50.2441 -51.4648 51.9531 -51.4648 L 66.748 -51.4648 C 69.4824 -51.4648 70.9961 -49.6094 70.9961 -47.3145 C 70.9961 -46.3867 70.8496 -45.5078 70.2148 -44.1406 L 58.9355 -21.1426 C 58.1055 -19.4824 57.1777 -18.6523 55.7617 -18.6523 Z"/>
  </g>
  <g id="Regular-S" transform="matrix(1 0 0 1 1403.58 696)">
   <path d="M 46.2402 4.15039 C 67.7734 4.15039 85.6934 -13.7207 85.6934 -35.2539 C 85.6934 -56.7871 67.7246 -74.6582 46.1914 -74.6582 C 24.707 -74.6582 6.83594 -56.7871 6.83594 -35.2539 C 6.83594 -13.7207 24.7559 4.15039 46.2402 4.15039 Z M 25.9277 -18.7988 C 24.3652 -18.7988 23.3398 -19.873 23.3398 -21.4355 C 23.3398 -22.2656 23.6328 -23.0957 24.3652 -23.8281 L 34.6191 -35.8887 C 36.3281 -37.9883 38.6719 -40.2832 38.6719 -42.8711 C 38.6719 -45.6543 36.7188 -47.5586 33.7402 -47.5586 C 31.1523 -47.5586 29.3945 -46.3379 28.2227 -43.457 C 27.5879 -42.1387 26.9043 -41.4062 25.6836 -41.4062 C 24.1699 -41.4062 23.1934 -42.4316 23.1934 -44.043 C 23.1934 -44.5801 23.291 -45.0684 23.3887 -45.6055 C 24.5117 -49.6582 28.7598 -52.6855 33.4961 -52.6855 C 39.8926 -52.6855 44.043 -49.0234 44.043 -43.4082 C 44.043 -39.209 41.6992 -36.2793 38.8672 -32.959 L 31.543 -24.3652 L 31.543 -24.1211 L 42.3828 -24.1211 C 43.7988 -24.1211 44.873 -23.1445 44.873 -21.4355 C 44.873 -19.873 43.7988 -18.7988 42.3828 -18.7988 Z M 55.3223 -18.2617 C 53.6621 -18.2617 52.3438 -19.4824 52.3438 -21.1914 C 52.3438 -22.0703 52.4414 -22.6074 52.7832 -23.291 L 64.7949 -46.3867 L 64.7949 -46.7285 L 51.416 -46.7285 C 49.9023 -46.7285 48.8281 -47.7539 48.8281 -49.2188 C 48.8281 -50.7812 49.9023 -51.7578 51.416 -51.7578 L 67.2363 -51.7578 C 69.6289 -51.7578 71.1914 -50 71.1914 -47.8516 C 71.1914 -46.9238 71.0449 -46.0938 70.3613 -44.6777 L 58.2031 -20.459 C 57.4219 -18.9453 56.543 -18.2617 55.3223 -18.2617 Z"/>
  </g>
  <g id="Light-S" transform="matrix(1 0 0 1 1107.6 696)">
   <path d="M 45.5078 3.4668 C 66.6992 3.4668 84.2285 -14.0625 84.2285 -35.2051 C 84.2285 -56.3965 66.6504 -73.9258 45.5078 -73.9258 C 24.3164 -73.9258 6.83594 -56.3965 6.83594 -35.2051 C 6.83594 -14.0625 24.3652 3.4668 45.5078 3.4668 Z M 25.3418 -18.8965 C 24.0234 -18.8965 23.1934 -19.7754 23.1934 -21.0449 C 23.1934 -21.7773 23.3887 -22.4121 23.9746 -23.0469 L 34.8633 -35.7422 C 36.8652 -38.1836 38.8672 -40.4297 38.8672 -43.0176 C 38.8672 -46.1914 36.6211 -48.291 33.1543 -48.291 C 29.9805 -48.291 27.7832 -46.582 26.9043 -43.4082 C 26.416 -42.2852 25.8789 -41.6992 24.7559 -41.6992 C 23.5352 -41.6992 22.7539 -42.5293 22.7539 -43.8477 C 22.7539 -44.3359 22.8516 -44.7266 22.9004 -45.2148 C 23.9258 -49.3652 28.1738 -52.4414 33.0078 -52.4414 C 39.209 -52.4414 43.2617 -48.877 43.2617 -43.3594 C 43.2617 -39.5508 41.1621 -36.6699 38.0859 -33.1055 L 29.7363 -23.3887 L 29.7363 -23.1445 L 42.0898 -23.1445 C 43.2617 -23.1445 44.1406 -22.3633 44.1406 -21.0449 C 44.1406 -19.7754 43.2617 -18.8965 42.0898 -18.8965 Z M 54.3457 -18.457 C 52.9785 -18.457 51.9531 -19.4336 51.9531 -20.8008 C 51.9531 -21.4355 52.0508 -21.875 52.3438 -22.4121 L 65.1367 -47.3633 L 65.1367 -47.6562 L 50.4395 -47.6562 C 49.2188 -47.6562 48.3887 -48.4375 48.3887 -49.6582 C 48.3887 -50.9277 49.2188 -51.709 50.4395 -51.709 L 66.9434 -51.709 C 68.9453 -51.709 70.2148 -50.3418 70.2148 -48.584 C 70.2148 -47.8516 70.1172 -47.168 69.5801 -45.9961 L 56.6895 -20.166 C 56.0547 -18.9941 55.3223 -18.457 54.3457 -18.457 Z"/>
  </g>
  <g id="Thin-S" transform="matrix(1 0 0 1 811.867 696)">
   <path d="M 44.5801 2.53906 C 65.2832 2.53906 82.2754 -14.4531 82.2754 -35.2051 C 82.2754 -55.9082 65.2344 -72.9004 44.5312 -72.9004 C 23.8281 -72.9004 6.83594 -55.9082 6.83594 -35.2051 C 6.83594 -14.4531 23.877 2.53906 44.5801 2.53906 Z M 24.5605 -18.9941 C 23.6328 -18.9941 22.9492 -19.6289 22.9492 -20.5566 C 22.9492 -21.1426 23.0957 -21.5332 23.4863 -21.9727 L 35.2051 -35.5469 C 37.5977 -38.4277 39.1113 -40.5762 39.1113 -43.2129 C 39.1113 -46.875 36.5234 -49.2188 32.373 -49.2188 C 28.4668 -49.2188 25.6348 -46.875 25.1465 -43.4082 C 24.9023 -42.5293 24.4629 -42.041 23.584 -42.041 C 22.7539 -42.041 22.168 -42.6758 22.168 -43.6035 C 22.168 -43.9941 22.2168 -44.2871 22.2656 -44.7266 C 23.0957 -49.0234 27.3438 -52.0996 32.3242 -52.0996 C 38.2324 -52.0996 42.1875 -48.6816 42.1875 -43.3594 C 42.1875 -39.9902 40.4297 -37.2559 37.0117 -33.252 L 27.3926 -22.0703 L 27.3926 -21.9238 L 41.6992 -21.9238 C 42.5293 -21.9238 43.1152 -21.3379 43.1152 -20.459 C 43.1152 -19.6777 42.5293 -18.9941 41.6992 -18.9941 Z M 53.0762 -18.7012 C 52.0996 -18.7012 51.4648 -19.3848 51.4648 -20.2148 C 51.4648 -20.6543 51.5625 -20.9473 51.709 -21.2891 L 65.625 -48.6328 L 65.625 -48.8281 L 49.2188 -48.8281 C 48.3398 -48.8281 47.7539 -49.4141 47.7539 -50.2441 C 47.7539 -51.0742 48.3398 -51.709 49.2188 -51.709 L 66.6016 -51.709 C 68.0176 -51.709 68.9941 -50.7812 68.9941 -49.5117 C 68.9941 -49.0234 68.8965 -48.584 68.5059 -47.8027 L 54.6387 -19.8242 C 54.248 -18.9941 53.7598 -18.7012 53.0762 -18.7012 Z"/>
  </g>
  <g id="Ultralight-S" transform="matrix(1 0 0 1 515.644 696)">
   <path d="M 44.043 2.05078 C 64.502 2.05078 81.2988 -14.6973 81.2988 -35.1562 C 81.2988 -55.6152 64.502 -72.3633 44.043 -72.3633 C 23.584 -72.3633 6.83594 -55.6152 6.83594 -35.1562 C 6.83594 -14.6973 23.584 2.05078 44.043 2.05078 Z M 24.1699 -19.0918 C 23.3887 -19.0918 22.8516 -19.5312 22.8516 -20.3125 C 22.8516 -20.8496 22.9492 -21.0938 23.2422 -21.4355 L 35.3516 -35.4492 C 37.9883 -38.5254 39.209 -40.7227 39.209 -43.3105 C 39.209 -47.2168 36.4746 -49.7559 31.9824 -49.7559 C 27.6855 -49.7559 24.5117 -47.0215 24.2188 -43.3594 C 24.1211 -42.627 23.7305 -42.2363 22.998 -42.2363 C 22.3145 -42.2363 21.8262 -42.7734 21.8262 -43.457 C 21.8262 -43.7988 21.875 -44.043 21.9727 -44.4824 C 22.7051 -48.8281 26.9531 -51.9531 31.9824 -51.9531 C 37.7441 -51.9531 41.6504 -48.584 41.6504 -43.3105 C 41.6504 -40.2344 40.0879 -37.5488 36.4746 -33.3496 L 26.1719 -21.3867 L 26.1719 -21.2891 L 41.5039 -21.2891 C 42.1875 -21.2891 42.5781 -20.8008 42.5781 -20.166 C 42.5781 -19.5801 42.1875 -19.0918 41.5039 -19.0918 Z M 52.3926 -18.7988 C 51.6113 -18.7988 51.2207 -19.3359 51.2207 -19.9219 C 51.2207 -20.2148 51.2695 -20.4102 51.3672 -20.7031 L 65.8691 -49.3164 L 65.8691 -49.4629 L 48.584 -49.4629 C 47.9004 -49.4629 47.4121 -49.9023 47.4121 -50.5859 C 47.4121 -51.2207 47.9004 -51.6602 48.584 -51.6602 L 66.4062 -51.6602 C 67.5293 -51.6602 68.3594 -51.0254 68.3594 -50.0488 C 68.3594 -49.6094 68.2617 -49.3652 67.9688 -48.7305 L 53.5645 -19.6289 C 53.2715 -19.043 52.9785 -18.7988 52.3926 -18.7988 Z"/>
  </g>
 </g>
</svg>
