<?xml version="1.0" encoding="UTF-8"?>
<!--Generator: Apple Native CoreSVG 123-->
<!DOCTYPE svg
PUBLIC "-//W3C//DTD SVG 1.1//EN"
       "http://www.w3.org/Graphics/SVG/1.1/DTD/svg11.dtd">
<svg version="1.1" xmlns="http://www.w3.org/2000/svg" xmlns:xlink="http://www.w3.org/1999/xlink" width="3300" height="2200">
 <!--glyph: "uni100526.medium", point size: 100.000000, font version: "Version 15.0d7e11", template writer version: "5"-->
 <g id="Notes">
  <rect height="2200" id="artboard" style="fill:white;opacity:1" width="3300" x="0" y="0"/>
  <line id="" style="fill:none;stroke:black;opacity:1;stroke-width:0.5;" x1="263" x2="3036" y1="292" y2="292"/>
  <text style="stroke:none;fill:black;font-family:-apple-system,&quot;SF Pro Display&quot;,&quot;SF Pro Text&quot;,Helvetica,sans-serif;font-weight:bold;" transform="matrix(1 0 0 1 263 322)">Weight/Scale Variations</text>
  <text style="stroke:none;fill:black;font-family:-apple-system,&quot;SF Pro Display&quot;,&quot;SF Pro Text&quot;,Helvetica,sans-serif;text-anchor:middle;" transform="matrix(1 0 0 1 559.711 322)">Ultralight</text>
  <text style="stroke:none;fill:black;font-family:-apple-system,&quot;SF Pro Display&quot;,&quot;SF Pro Text&quot;,Helvetica,sans-serif;text-anchor:middle;" transform="matrix(1 0 0 1 856.422 322)">Thin</text>
  <text style="stroke:none;fill:black;font-family:-apple-system,&quot;SF Pro Display&quot;,&quot;SF Pro Text&quot;,Helvetica,sans-serif;text-anchor:middle;" transform="matrix(1 0 0 1 1153.13 322)">Light</text>
  <text style="stroke:none;fill:black;font-family:-apple-system,&quot;SF Pro Display&quot;,&quot;SF Pro Text&quot;,Helvetica,sans-serif;text-anchor:middle;" transform="matrix(1 0 0 1 1449.84 322)">Regular</text>
  <text style="stroke:none;fill:black;font-family:-apple-system,&quot;SF Pro Display&quot;,&quot;SF Pro Text&quot;,Helvetica,sans-serif;text-anchor:middle;" transform="matrix(1 0 0 1 1746.56 322)">Medium</text>
  <text style="stroke:none;fill:black;font-family:-apple-system,&quot;SF Pro Display&quot;,&quot;SF Pro Text&quot;,Helvetica,sans-serif;text-anchor:middle;" transform="matrix(1 0 0 1 2043.27 322)">Semibold</text>
  <text style="stroke:none;fill:black;font-family:-apple-system,&quot;SF Pro Display&quot;,&quot;SF Pro Text&quot;,Helvetica,sans-serif;text-anchor:middle;" transform="matrix(1 0 0 1 2339.98 322)">Bold</text>
  <text style="stroke:none;fill:black;font-family:-apple-system,&quot;SF Pro Display&quot;,&quot;SF Pro Text&quot;,Helvetica,sans-serif;text-anchor:middle;" transform="matrix(1 0 0 1 2636.69 322)">Heavy</text>
  <text style="stroke:none;fill:black;font-family:-apple-system,&quot;SF Pro Display&quot;,&quot;SF Pro Text&quot;,Helvetica,sans-serif;text-anchor:middle;" transform="matrix(1 0 0 1 2933.4 322)">Black</text>
  <line id="" style="fill:none;stroke:black;opacity:1;stroke-width:0.5;" x1="263" x2="3036" y1="1903" y2="1903"/>
  <g id="" transform="matrix(1 0 0 1 263 1933)">
   <path d="M 9.24805 0.830078 C 13.5547 0.830078 17.1387 -2.74414 17.1387 -7.05078 C 17.1387 -11.3574 13.5449 -14.9316 9.23828 -14.9316 C 4.94141 -14.9316 1.36719 -11.3574 1.36719 -7.05078 C 1.36719 -2.74414 4.95117 0.830078 9.24805 0.830078 Z M 9.24805 -0.654297 C 5.70312 -0.654297 2.87109 -3.49609 2.87109 -7.05078 C 2.87109 -10.6055 5.69336 -13.4473 9.23828 -13.4473 C 12.793 -13.4473 15.6348 -10.6055 15.6445 -7.05078 C 15.6543 -3.49609 12.8027 -0.654297 9.24805 -0.654297 Z M 9.22852 -3.42773 C 9.69727 -3.42773 9.9707 -3.74023 9.9707 -4.25781 L 9.9707 -6.31836 L 12.1973 -6.31836 C 12.6953 -6.31836 13.0371 -6.57227 13.0371 -7.04102 C 13.0371 -7.51953 12.7148 -7.7832 12.1973 -7.7832 L 9.9707 -7.7832 L 9.9707 -10.0098 C 9.9707 -10.5273 9.69727 -10.8496 9.22852 -10.8496 C 8.75977 -10.8496 8.50586 -10.5078 8.50586 -10.0098 L 8.50586 -7.7832 L 6.29883 -7.7832 C 5.78125 -7.7832 5.44922 -7.51953 5.44922 -7.04102 C 5.44922 -6.57227 5.80078 -6.31836 6.29883 -6.31836 L 8.50586 -6.31836 L 8.50586 -4.25781 C 8.50586 -3.75977 8.75977 -3.42773 9.22852 -3.42773 Z"/>
  </g>
  <g id="" transform="matrix(1 0 0 1 281.506 1933)">
   <path d="M 11.709 2.91016 C 17.1582 2.91016 21.6699 -1.60156 21.6699 -7.05078 C 21.6699 -12.4902 17.1484 -17.0117 11.6992 -17.0117 C 6.25977 -17.0117 1.74805 -12.4902 1.74805 -7.05078 C 1.74805 -1.60156 6.26953 2.91016 11.709 2.91016 Z M 11.709 1.25 C 7.09961 1.25 3.41797 -2.44141 3.41797 -7.05078 C 3.41797 -11.6504 7.08984 -15.3516 11.6992 -15.3516 C 16.3086 -15.3516 20 -11.6504 20.0098 -7.05078 C 20.0195 -2.44141 16.3184 1.25 11.709 1.25 Z M 11.6895 -2.41211 C 12.207 -2.41211 12.5195 -2.77344 12.5195 -3.33984 L 12.5195 -6.23047 L 15.5762 -6.23047 C 16.123 -6.23047 16.5039 -6.51367 16.5039 -7.03125 C 16.5039 -7.55859 16.1426 -7.86133 15.5762 -7.86133 L 12.5195 -7.86133 L 12.5195 -10.9277 C 12.5195 -11.5039 12.207 -11.8555 11.6895 -11.8555 C 11.1719 -11.8555 10.8789 -11.4844 10.8789 -10.9277 L 10.8789 -7.86133 L 7.83203 -7.86133 C 7.26562 -7.86133 6.89453 -7.55859 6.89453 -7.03125 C 6.89453 -6.51367 7.28516 -6.23047 7.83203 -6.23047 L 10.8789 -6.23047 L 10.8789 -3.33984 C 10.8789 -2.79297 11.1719 -2.41211 11.6895 -2.41211 Z"/>
  </g>
  <g id="" transform="matrix(1 0 0 1 304.924 1933)">
   <path d="M 14.9707 5.67383 C 21.9336 5.67383 27.6953 -0.078125 27.6953 -7.04102 C 27.6953 -14.0039 21.9238 -19.7559 14.9609 -19.7559 C 8.00781 -19.7559 2.25586 -14.0039 2.25586 -7.04102 C 2.25586 -0.078125 8.01758 5.67383 14.9707 5.67383 Z M 14.9707 3.85742 C 8.93555 3.85742 4.08203 -1.00586 4.08203 -7.04102 C 4.08203 -13.0762 8.92578 -17.9395 14.9609 -17.9395 C 21.0059 -17.9395 25.8594 -13.0762 25.8691 -7.04102 C 25.8789 -1.00586 21.0156 3.85742 14.9707 3.85742 Z M 14.9512 -1.06445 C 15.5176 -1.06445 15.8691 -1.45508 15.8691 -2.06055 L 15.8691 -6.13281 L 20.1074 -6.13281 C 20.6934 -6.13281 21.1133 -6.46484 21.1133 -7.02148 C 21.1133 -7.59766 20.7227 -7.93945 20.1074 -7.93945 L 15.8691 -7.93945 L 15.8691 -12.1875 C 15.8691 -12.8027 15.5176 -13.1934 14.9512 -13.1934 C 14.3848 -13.1934 14.0625 -12.7832 14.0625 -12.1875 L 14.0625 -7.93945 L 9.83398 -7.93945 C 9.21875 -7.93945 8.80859 -7.59766 8.80859 -7.02148 C 8.80859 -6.46484 9.23828 -6.13281 9.83398 -6.13281 L 14.0625 -6.13281 L 14.0625 -2.06055 C 14.0625 -1.47461 14.3848 -1.06445 14.9512 -1.06445 Z"/>
  </g>
  <text style="stroke:none;fill:black;font-family:-apple-system,&quot;SF Pro Display&quot;,&quot;SF Pro Text&quot;,Helvetica,sans-serif;font-weight:bold;" transform="matrix(1 0 0 1 263 1953)">Design Variations</text>
  <text style="stroke:none;fill:black;font-family:-apple-system,&quot;SF Pro Display&quot;,&quot;SF Pro Text&quot;,Helvetica,sans-serif;" transform="matrix(1 0 0 1 263 1971)">Symbols are supported in up to nine weights and three scales.</text>
  <text style="stroke:none;fill:black;font-family:-apple-system,&quot;SF Pro Display&quot;,&quot;SF Pro Text&quot;,Helvetica,sans-serif;" transform="matrix(1 0 0 1 263 1989)">For optimal layout with text and other symbols, vertically align</text>
  <text style="stroke:none;fill:black;font-family:-apple-system,&quot;SF Pro Display&quot;,&quot;SF Pro Text&quot;,Helvetica,sans-serif;" transform="matrix(1 0 0 1 263 2007)">symbols with the adjacent text.</text>
  <rect height="14" id="" style="fill:#00AEEF;stroke:none;opacity:0.4;" width="3" x="776" y="1919"/>
  <g id="" transform="matrix(1 0 0 1 779 1933)">
   <path d="M 10.5273 0 L 12.373 0 L 7.17773 -14.0918 L 5.43945 -14.0918 L 0.244141 0 L 2.08984 0 L 3.50586 -4.0332 L 9.11133 -4.0332 Z M 6.2793 -11.9531 L 6.33789 -11.9531 L 8.59375 -5.52734 L 4.02344 -5.52734 Z"/>
  </g>
  <rect height="14" id="" style="fill:#00AEEF;stroke:none;opacity:0.4;" width="3" x="791.617" y="1919"/>
  <text style="stroke:none;fill:black;font-family:-apple-system,&quot;SF Pro Display&quot;,&quot;SF Pro Text&quot;,Helvetica,sans-serif;font-weight:bold;" transform="matrix(1 0 0 1 776 1953)">Margins</text>
  <text style="stroke:none;fill:black;font-family:-apple-system,&quot;SF Pro Display&quot;,&quot;SF Pro Text&quot;,Helvetica,sans-serif;" transform="matrix(1 0 0 1 776 1971)">Leading and trailing margins on the left and right side of each symbol</text>
  <text style="stroke:none;fill:black;font-family:-apple-system,&quot;SF Pro Display&quot;,&quot;SF Pro Text&quot;,Helvetica,sans-serif;" transform="matrix(1 0 0 1 776 1989)">can be adjusted by modifying the width of the blue rectangles.</text>
  <text style="stroke:none;fill:black;font-family:-apple-system,&quot;SF Pro Display&quot;,&quot;SF Pro Text&quot;,Helvetica,sans-serif;" transform="matrix(1 0 0 1 776 2007)">Modifications are automatically applied proportionally to all</text>
  <text style="stroke:none;fill:black;font-family:-apple-system,&quot;SF Pro Display&quot;,&quot;SF Pro Text&quot;,Helvetica,sans-serif;" transform="matrix(1 0 0 1 776 2025)">scales and weights.</text>
  <g id="" transform="matrix(1 0 0 1 1289 1933)">
   <path d="M 2.83203 3.11523 L 4.375 4.6582 C 5.22461 5.48828 6.19141 5.41992 7.06055 4.46289 L 17.2754 -6.66016 C 17.7051 -6.36719 18.0957 -6.37695 18.5645 -6.47461 L 19.6094 -6.68945 L 20.3027 -5.99609 L 20.2539 -5.47852 C 20.1855 -4.95117 20.3516 -4.53125 20.8496 -4.0332 L 21.6602 -3.22266 C 22.168 -2.71484 22.8223 -2.68555 23.3008 -3.16406 L 26.5527 -6.41602 C 27.0312 -6.89453 27.0117 -7.54883 26.5039 -8.05664 L 25.6836 -8.87695 C 25.1855 -9.375 24.7754 -9.55078 24.2383 -9.47266 L 23.7109 -9.41406 L 23.0566 -10.0781 L 23.3398 -11.2207 C 23.4863 -11.7871 23.3398 -12.2559 22.7148 -12.8613 L 20.3027 -15.2539 C 16.7578 -18.7793 12.2266 -18.6719 9.11133 -15.5371 C 8.69141 -15.1074 8.64258 -14.5215 8.91602 -14.0918 C 9.15039 -13.7207 9.62891 -13.4961 10.2734 -13.6621 C 11.7871 -14.043 13.3008 -13.9258 14.7852 -12.9199 L 14.1602 -11.3379 C 13.9258 -10.752 13.9453 -10.2734 14.1797 -9.83398 L 3.01758 0.439453 C 2.08008 1.30859 1.97266 2.25586 2.83203 3.11523 Z M 10.6738 -15.1465 C 13.3398 -17.1387 16.6504 -16.8262 19.0527 -14.4141 L 21.6797 -11.8066 C 21.9141 -11.5723 21.9434 -11.3867 21.8848 -11.0938 L 21.5039 -9.53125 L 23.0762 -7.95898 L 24.043 -8.04688 C 24.3262 -8.07617 24.4141 -8.05664 24.6387 -7.83203 L 25.2637 -7.20703 L 22.5098 -4.46289 L 21.8848 -5.07812 C 21.6602 -5.30273 21.6406 -5.40039 21.6699 -5.68359 L 21.7578 -6.64062 L 20.1953 -8.20312 L 18.5742 -7.89062 C 18.291 -7.83203 18.1445 -7.83203 17.9102 -8.07617 L 15.7324 -10.2539 C 15.5078 -10.4883 15.4785 -10.625 15.6055 -10.9473 L 16.5527 -13.2227 C 14.9512 -14.7559 12.8418 -15.6055 10.8008 -14.9512 C 10.7129 -14.9219 10.6445 -14.9414 10.6152 -14.9805 C 10.5859 -15.0293 10.5859 -15.0781 10.6738 -15.1465 Z M 4.10156 2.41211 C 3.61328 1.91406 3.78906 1.61133 4.12109 1.30859 L 15.0781 -8.80859 L 16.3086 -7.57812 L 6.15234 3.34961 C 5.84961 3.68164 5.46875 3.7793 5.06836 3.37891 Z"/>
  </g>
  <text style="stroke:none;fill:black;font-family:-apple-system,&quot;SF Pro Display&quot;,&quot;SF Pro Text&quot;,Helvetica,sans-serif;font-weight:bold;" transform="matrix(1 0 0 1 1289 1953)">Exporting</text>
  <text style="stroke:none;fill:black;font-family:-apple-system,&quot;SF Pro Display&quot;,&quot;SF Pro Text&quot;,Helvetica,sans-serif;" transform="matrix(1 0 0 1 1289 1971)">Symbols should be outlined when exporting to ensure the</text>
  <text style="stroke:none;fill:black;font-family:-apple-system,&quot;SF Pro Display&quot;,&quot;SF Pro Text&quot;,Helvetica,sans-serif;" transform="matrix(1 0 0 1 1289 1989)">design is preserved when submitting to Xcode.</text>
  <text id="template-version" style="stroke:none;fill:black;font-family:-apple-system,&quot;SF Pro Display&quot;,&quot;SF Pro Text&quot;,Helvetica,sans-serif;text-anchor:end;" transform="matrix(1 0 0 1 3036 1933)">Template v.1.0</text>
  <text style="stroke:none;fill:black;font-family:-apple-system,&quot;SF Pro Display&quot;,&quot;SF Pro Text&quot;,Helvetica,sans-serif;text-anchor:end;" transform="matrix(1 0 0 1 3036 1951)">Generated from 28.circle.fill</text>
  <text style="stroke:none;fill:black;font-family:-apple-system,&quot;SF Pro Display&quot;,&quot;SF Pro Text&quot;,Helvetica,sans-serif;text-anchor:end;" transform="matrix(1 0 0 1 3036 1969)">Typeset at 100 points</text>
  <text style="stroke:none;fill:black;font-family:-apple-system,&quot;SF Pro Display&quot;,&quot;SF Pro Text&quot;,Helvetica,sans-serif;" transform="matrix(1 0 0 1 263 726)">Small</text>
  <text style="stroke:none;fill:black;font-family:-apple-system,&quot;SF Pro Display&quot;,&quot;SF Pro Text&quot;,Helvetica,sans-serif;" transform="matrix(1 0 0 1 263 1156)">Medium</text>
  <text style="stroke:none;fill:black;font-family:-apple-system,&quot;SF Pro Display&quot;,&quot;SF Pro Text&quot;,Helvetica,sans-serif;" transform="matrix(1 0 0 1 263 1586)">Large</text>
 </g>
 <g id="Guides">
  <g id="H-reference" style="fill:#27AAE1;stroke:none;" transform="matrix(1 0 0 1 339 696)">
   <path d="M 54.9316 0 L 57.666 0 L 30.5664 -70.459 L 28.0762 -70.459 L 0.976562 0 L 3.66211 0 L 12.9395 -24.4629 L 45.7031 -24.4629 Z M 29.1992 -67.0898 L 29.4434 -67.0898 L 44.8242 -26.709 L 13.8184 -26.709 Z"/>
  </g>
  <line id="Baseline-S" style="fill:none;stroke:#27AAE1;opacity:1;stroke-width:0.577;" x1="263" x2="3036" y1="696" y2="696"/>
  <line id="Capline-S" style="fill:none;stroke:#27AAE1;opacity:1;stroke-width:0.577;" x1="263" x2="3036" y1="625.541" y2="625.541"/>
  <g id="H-reference" style="fill:#27AAE1;stroke:none;" transform="matrix(1 0 0 1 339 1126)">
   <path d="M 54.9316 0 L 57.666 0 L 30.5664 -70.459 L 28.0762 -70.459 L 0.976562 0 L 3.66211 0 L 12.9395 -24.4629 L 45.7031 -24.4629 Z M 29.1992 -67.0898 L 29.4434 -67.0898 L 44.8242 -26.709 L 13.8184 -26.709 Z"/>
  </g>
  <line id="Baseline-M" style="fill:none;stroke:#27AAE1;opacity:1;stroke-width:0.577;" x1="263" x2="3036" y1="1126" y2="1126"/>
  <line id="Capline-M" style="fill:none;stroke:#27AAE1;opacity:1;stroke-width:0.577;" x1="263" x2="3036" y1="1055.54" y2="1055.54"/>
  <g id="H-reference" style="fill:#27AAE1;stroke:none;" transform="matrix(1 0 0 1 339 1556)">
   <path d="M 54.9316 0 L 57.666 0 L 30.5664 -70.459 L 28.0762 -70.459 L 0.976562 0 L 3.66211 0 L 12.9395 -24.4629 L 45.7031 -24.4629 Z M 29.1992 -67.0898 L 29.4434 -67.0898 L 44.8242 -26.709 L 13.8184 -26.709 Z"/>
  </g>
  <line id="Baseline-L" style="fill:none;stroke:#27AAE1;opacity:1;stroke-width:0.577;" x1="263" x2="3036" y1="1556" y2="1556"/>
  <line id="Capline-L" style="fill:none;stroke:#27AAE1;opacity:1;stroke-width:0.577;" x1="263" x2="3036" y1="1485.54" y2="1485.54"/>
  <rect height="119.336" id="left-margin" style="fill:#00AEEF;stroke:none;opacity:0.4;" width="8.74023" x="1391.3" y="1030.79"/>
  <rect height="119.336" id="right-margin" style="fill:#00AEEF;stroke:none;opacity:0.4;" width="8.74023" x="1499.65" y="1030.79"/>
 </g>
 <g id="Symbols">
  <g id="Black-L" transform="matrix(1 0 0 1 2854.05 1556)">
   <path d="M 79.3457 32.8613 C 116.748 32.8613 147.412 2.19727 147.412 -35.2051 C 147.412 -72.6074 116.748 -103.271 79.2969 -103.271 C 41.8945 -103.271 11.2793 -72.6074 11.2793 -35.2051 C 11.2793 2.19727 41.9434 32.8613 79.3457 32.8613 Z M 50.0488 -10.5469 C 46.6797 -10.5469 44.043 -12.8418 44.043 -16.6016 C 44.043 -18.8965 44.873 -20.8984 47.0703 -23.3398 L 58.3984 -36.7188 C 61.2793 -40.0879 63.6719 -42.4316 63.6719 -45.4102 C 63.6719 -47.8516 61.6211 -49.7559 58.9355 -49.7559 C 56.543 -49.7559 54.7363 -48.3398 53.8086 -45.8008 C 52.9785 -43.5059 51.4648 -41.8945 48.4863 -41.8945 C 45.3125 -41.8945 43.3105 -44.0918 43.3105 -47.2168 C 43.3105 -48.3887 43.457 -49.3164 43.75 -50.3418 C 45.5566 -56.7383 51.9043 -61.084 59.2285 -61.084 C 68.75 -61.084 74.6582 -55.0293 74.7559 -46.5332 C 74.8047 -40.7227 71.9727 -36.2793 67.2363 -30.7129 L 60.3516 -22.7539 L 60.3516 -22.1191 L 70.3613 -22.1191 C 73.9258 -22.1191 76.2207 -20.0684 76.2207 -16.5039 C 76.2207 -12.7441 73.9258 -10.5469 70.3613 -10.5469 Z M 99.3652 -9.47266 C 88.623 -9.47266 81.3965 -15.332 81.3965 -24.1699 C 81.3965 -30.5664 85.3027 -34.9609 90.9668 -36.4258 L 90.9668 -36.9141 C 86.5723 -38.0859 83.2031 -42.1875 83.2031 -47.6562 C 83.2031 -55.7129 89.7461 -61.084 99.4629 -61.084 C 109.082 -61.084 115.625 -55.7129 115.625 -47.6562 C 115.625 -42.1875 112.256 -38.0371 107.91 -36.9141 L 107.91 -36.4258 C 113.574 -34.9609 117.432 -30.6152 117.432 -24.1699 C 117.432 -15.332 110.205 -9.47266 99.3652 -9.47266 Z M 99.4629 -41.5039 C 102.295 -41.5039 104.15 -43.5547 104.15 -46.3867 C 104.15 -49.1699 102.246 -51.2207 99.4629 -51.2207 C 96.582 -51.2207 94.7266 -49.1699 94.7266 -46.3867 C 94.7266 -43.5547 96.5332 -41.5039 99.4629 -41.5039 Z M 99.4629 -19.4336 C 102.783 -19.4336 105.127 -21.875 105.127 -25.1465 C 105.127 -28.5156 102.832 -31.0059 99.4629 -31.0059 C 96.0449 -31.0059 93.75 -28.5156 93.75 -25.1465 C 93.75 -21.875 96.0449 -19.4336 99.4629 -19.4336 Z"/>
  </g>
  <g id="Heavy-L" transform="matrix(1 0 0 1 2558.39 1556)">
   <path d="M 78.2715 31.7871 C 115.088 31.7871 145.312 1.61133 145.312 -35.2051 C 145.312 -72.0215 115.039 -102.197 78.2715 -102.197 C 41.4551 -102.197 11.2793 -72.0215 11.2793 -35.2051 C 11.2793 1.61133 41.5039 31.7871 78.2715 31.7871 Z M 47.6074 -10.0586 C 44.5312 -10.0586 42.2363 -12.1094 42.2363 -15.4785 C 42.2363 -17.4805 42.9688 -19.2871 44.8242 -21.3867 L 57.7148 -36.5723 C 60.7422 -40.0879 63.2812 -42.7246 63.2812 -46.0449 C 63.2812 -49.1699 60.8887 -51.416 57.4219 -51.416 C 54.3945 -51.416 52.0996 -49.707 51.0742 -46.4844 C 50.2441 -44.3359 48.877 -42.8223 46.1914 -42.8223 C 43.3105 -42.8223 41.4551 -44.873 41.4551 -47.7539 C 41.4551 -48.7793 41.6504 -49.707 41.8945 -50.6348 C 43.6035 -57.1289 50.0977 -61.6699 57.6172 -61.6699 C 67.2852 -61.6699 73.3398 -55.6641 73.4375 -47.0215 C 73.4863 -41.1133 70.5078 -36.6211 65.6738 -30.957 L 57.1777 -21.0938 L 57.1777 -20.5078 L 69.6777 -20.5078 C 72.8027 -20.5078 74.9023 -18.6035 74.9023 -15.3809 C 74.9023 -12.0117 72.8027 -10.0586 69.6777 -10.0586 Z M 98.7793 -8.88672 C 87.8906 -8.88672 80.5664 -14.8926 80.5664 -23.877 C 80.5664 -30.3711 84.5703 -35.0098 90.5273 -36.4746 L 90.5273 -36.9629 C 85.791 -38.2324 82.4219 -42.4805 82.4219 -47.998 C 82.4219 -56.1523 89.0625 -61.6699 98.877 -61.6699 C 108.594 -61.6699 115.234 -56.1523 115.234 -47.998 C 115.234 -42.4805 111.914 -38.1836 107.178 -36.9629 L 107.178 -36.4746 C 113.135 -35.0098 117.09 -30.4199 117.09 -23.9258 C 117.09 -14.9414 109.717 -8.88672 98.7793 -8.88672 Z M 98.877 -41.0156 C 102.393 -41.0156 104.785 -43.457 104.785 -46.875 C 104.785 -50.2441 102.344 -52.6855 98.877 -52.6855 C 95.3125 -52.6855 92.9688 -50.2441 92.9688 -46.875 C 92.9688 -43.457 95.2637 -41.0156 98.877 -41.0156 Z M 98.877 -17.9199 C 103.027 -17.9199 105.957 -20.8008 105.957 -24.7559 C 105.957 -28.7598 103.076 -31.6406 98.877 -31.6406 C 94.6777 -31.6406 91.6992 -28.7109 91.6992 -24.7559 C 91.6992 -20.8008 94.6777 -17.9199 98.877 -17.9199 Z"/>
  </g>
  <g id="Bold-L" transform="matrix(1 0 0 1 2262.88 1556)">
   <path d="M 77.0996 30.6152 C 113.232 30.6152 142.92 0.878906 142.92 -35.2051 C 142.92 -71.3379 113.184 -101.025 77.0508 -101.025 C 40.9668 -101.025 11.2793 -71.3379 11.2793 -35.2051 C 11.2793 0.878906 41.0156 30.6152 77.0996 30.6152 Z M 44.9219 -9.47266 C 42.1387 -9.47266 40.1855 -11.2793 40.1855 -14.209 C 40.1855 -15.9668 40.7715 -17.4316 42.334 -19.1895 L 56.9824 -36.4258 C 60.1074 -40.0879 62.8906 -43.1152 62.8906 -46.7285 C 62.8906 -50.5859 60.0098 -53.2715 55.7617 -53.2715 C 51.9531 -53.2715 49.1211 -51.1719 47.998 -47.2656 C 47.2168 -45.2148 45.9961 -43.8965 43.6523 -43.8965 C 41.0645 -43.8965 39.4043 -45.7031 39.4043 -48.3398 C 39.4043 -49.2676 39.5508 -50.0977 39.7949 -50.9766 C 41.4551 -57.6172 48.1445 -62.3047 55.8105 -62.3047 C 65.625 -62.3047 71.9238 -56.3477 71.9727 -47.6074 C 71.9727 -41.5527 68.8965 -36.9629 63.916 -31.25 L 53.5645 -19.1895 L 53.5645 -18.6523 L 68.8965 -18.6523 C 71.582 -18.6523 73.4375 -16.9922 73.4375 -14.1602 C 73.4375 -11.2305 71.582 -9.47266 68.8965 -9.47266 Z M 98.0957 -8.25195 C 87.1094 -8.25195 79.6387 -14.4043 79.6387 -23.584 C 79.6387 -30.127 83.6914 -35.1074 90.0391 -36.5234 L 90.0391 -36.9629 C 84.8633 -38.4277 81.543 -42.8223 81.543 -48.3887 C 81.543 -56.6406 88.3301 -62.3047 98.1934 -62.3047 C 108.057 -62.3047 114.844 -56.6406 114.844 -48.3887 C 114.844 -42.8223 111.475 -38.3301 106.348 -36.9629 L 106.348 -36.5234 C 112.646 -35.1074 116.748 -30.1758 116.748 -23.6328 C 116.748 -14.4531 109.18 -8.25195 98.0957 -8.25195 Z M 98.1934 -40.4785 C 102.49 -40.4785 105.42 -43.4082 105.42 -47.4609 C 105.42 -51.4648 102.441 -54.3457 98.1934 -54.3457 C 93.8965 -54.3457 90.9668 -51.4648 90.9668 -47.4609 C 90.9668 -43.4082 93.8965 -40.4785 98.1934 -40.4785 Z M 98.2422 -16.2598 C 103.32 -16.2598 106.934 -19.5801 106.934 -24.3164 C 106.934 -29.0039 103.369 -32.373 98.2422 -32.373 C 93.0664 -32.373 89.4531 -28.9551 89.4531 -24.3164 C 89.4531 -19.5801 93.0664 -16.2598 98.2422 -16.2598 Z"/>
  </g>
  <g id="Semibold-L" transform="matrix(1 0 0 1 1966.97 1556)">
   <path d="M 76.2695 29.7852 C 111.914 29.7852 141.309 0.439453 141.309 -35.2051 C 141.309 -70.8496 111.865 -100.244 76.2695 -100.244 C 40.625 -100.244 11.2793 -70.8496 11.2793 -35.2051 C 11.2793 0.439453 40.6738 29.7852 76.2695 29.7852 Z M 43.0664 -9.0332 C 40.5273 -9.0332 38.7695 -10.7422 38.7695 -13.3789 C 38.7695 -14.8926 39.2578 -16.2109 40.5762 -17.627 L 56.4453 -36.2793 C 59.7168 -40.1367 62.6465 -43.3594 62.6465 -47.2168 C 62.6465 -51.6113 59.4238 -54.5898 54.5898 -54.5898 C 50.2441 -54.5898 47.1191 -52.1973 45.8496 -47.8027 C 45.1172 -45.8496 44.043 -44.6289 41.8457 -44.6289 C 39.502 -44.6289 37.9883 -46.2891 37.9883 -48.7305 C 37.9883 -49.6094 38.1348 -50.3906 38.3301 -51.2207 C 39.9414 -57.9102 46.7773 -62.7441 54.541 -62.7441 C 64.502 -62.7441 70.8984 -56.8359 70.9473 -47.9492 C 70.9473 -41.8945 67.7734 -37.2559 62.7441 -31.3965 L 51.123 -17.8711 L 51.123 -17.3828 L 68.3594 -17.3828 C 70.752 -17.3828 72.4121 -15.8691 72.4121 -13.3301 C 72.4121 -10.6934 70.752 -9.0332 68.3594 -9.0332 Z M 97.6074 -7.76367 C 86.5234 -7.76367 78.9551 -14.0625 78.9551 -23.3887 C 78.9551 -29.9805 83.1055 -35.1562 89.6973 -36.5723 L 89.6973 -36.9629 C 84.2285 -38.5742 80.9082 -43.0664 80.9082 -48.6328 C 80.9082 -57.0312 87.793 -62.7441 97.7539 -62.7441 C 107.666 -62.7441 114.551 -57.0312 114.551 -48.6328 C 114.551 -43.0664 111.182 -38.4277 105.762 -36.9629 L 105.762 -36.5723 C 112.354 -35.1562 116.455 -30.0293 116.455 -23.4375 C 116.455 -14.1602 108.789 -7.76367 97.6074 -7.76367 Z M 97.7539 -40.0879 C 102.539 -40.0879 105.859 -43.3594 105.859 -47.8516 C 105.859 -52.3438 102.539 -55.4688 97.7539 -55.4688 C 92.9199 -55.4688 89.5996 -52.3438 89.5996 -47.8516 C 89.5996 -43.3594 92.9199 -40.0879 97.7539 -40.0879 Z M 97.8027 -15.0879 C 103.516 -15.0879 107.617 -18.7988 107.617 -23.9746 C 107.617 -29.1504 103.564 -32.8613 97.8027 -32.8613 C 91.9922 -32.8613 87.8906 -29.1016 87.8906 -23.9746 C 87.8906 -18.7988 91.9922 -15.0879 97.8027 -15.0879 Z"/>
  </g>
  <g id="Medium-L" transform="matrix(1 0 0 1 1670.87 1556)">
   <path d="M 75.6836 29.1992 C 110.938 29.1992 140.088 0.0488281 140.088 -35.2051 C 140.088 -70.459 110.889 -99.6094 75.6348 -99.6094 C 40.3809 -99.6094 11.2793 -70.459 11.2793 -35.2051 C 11.2793 0.0488281 40.3809 29.1992 75.6836 29.1992 Z M 41.6016 -8.74023 C 39.2578 -8.74023 37.6953 -10.3027 37.6953 -12.6953 C 37.6953 -14.0625 38.1348 -15.2344 39.2578 -16.5039 L 56.0547 -36.2305 C 59.4238 -40.1367 62.4023 -43.5547 62.4023 -47.6074 C 62.4023 -52.3438 58.9844 -55.5664 53.7109 -55.5664 C 48.9746 -55.5664 45.5566 -52.9785 44.2871 -48.1934 C 43.5059 -46.3379 42.5293 -45.166 40.5273 -45.166 C 38.3301 -45.166 36.9141 -46.7285 36.9141 -49.0234 C 36.9141 -49.8535 37.0605 -50.5859 37.207 -51.416 C 38.8184 -58.1543 45.7031 -63.0859 53.5645 -63.0859 C 63.623 -63.0859 70.166 -57.2266 70.166 -48.2422 C 70.2148 -42.0898 66.8945 -37.4512 61.8164 -31.543 L 49.2188 -16.8945 L 49.2188 -16.4551 L 67.9688 -16.4551 C 70.0684 -16.4551 71.6309 -15.0391 71.6309 -12.6465 C 71.6309 -10.3027 70.0684 -8.74023 67.9688 -8.74023 Z M 97.2656 -7.4707 C 86.1328 -7.4707 78.4668 -13.8184 78.4668 -23.2422 C 78.4668 -29.8828 82.666 -35.2051 89.4531 -36.5723 L 89.4531 -37.0117 C 83.7402 -38.6719 80.4199 -43.2129 80.4199 -48.877 C 80.4199 -57.2754 87.4512 -63.0859 97.4121 -63.0859 C 107.373 -63.0859 114.355 -57.2754 114.355 -48.877 C 114.355 -43.2129 110.986 -38.5254 105.322 -37.0117 L 105.322 -36.5723 C 112.109 -35.2051 116.26 -29.8828 116.26 -23.291 C 116.26 -13.8672 108.496 -7.4707 97.2656 -7.4707 Z M 97.4121 -39.7949 C 102.588 -39.7949 106.25 -43.3105 106.25 -48.1445 C 106.25 -52.9785 102.588 -56.3477 97.4121 -56.3477 C 92.1875 -56.3477 88.5742 -52.9785 88.5742 -48.1445 C 88.5742 -43.3105 92.1875 -39.7949 97.4121 -39.7949 Z M 97.4609 -14.209 C 103.662 -14.209 108.154 -18.1641 108.154 -23.7305 C 108.154 -29.248 103.76 -33.252 97.4609 -33.252 C 91.1621 -33.252 86.7188 -29.248 86.7188 -23.7305 C 86.7188 -18.1641 91.1621 -14.209 97.4609 -14.209 Z"/>
  </g>
  <g id="Regular-L" transform="matrix(1 0 0 1 1374.97 1556)">
   <path d="M 74.8535 28.3691 C 109.668 28.3691 138.477 -0.390625 138.477 -35.2051 C 138.477 -70.0195 109.619 -98.7793 74.8047 -98.7793 C 40.0391 -98.7793 11.2793 -70.0195 11.2793 -35.2051 C 11.2793 -0.390625 40.0879 28.3691 74.8535 28.3691 Z M 39.7949 -8.34961 C 37.6465 -8.34961 36.2793 -9.7168 36.2793 -11.8652 C 36.2793 -13.0371 36.6211 -14.0137 37.5488 -14.9902 L 55.5664 -36.084 C 58.9844 -40.1367 62.1582 -43.7988 62.1582 -48.0957 C 62.1582 -53.3691 58.3984 -56.8359 52.5879 -56.8359 C 47.3145 -56.8359 43.5547 -53.9551 42.1875 -48.7305 C 41.4551 -46.9727 40.5273 -45.8984 38.7695 -45.8984 C 36.7676 -45.8984 35.5469 -47.3145 35.5469 -49.4629 C 35.5469 -50.1465 35.6445 -50.8789 35.791 -51.6113 C 37.3535 -58.4961 44.3359 -63.5254 52.3438 -63.5254 C 62.5488 -63.5254 69.1895 -57.666 69.1895 -48.6328 C 69.1895 -42.4316 65.7715 -37.6953 60.6445 -31.7383 L 46.7773 -15.5762 L 46.7773 -15.1855 L 67.4316 -15.1855 C 69.2383 -15.1855 70.6543 -13.916 70.6543 -11.8164 C 70.6543 -9.76562 69.2383 -8.34961 67.4316 -8.34961 Z M 96.8262 -6.98242 C 85.5957 -6.98242 77.832 -13.4766 77.832 -22.998 C 77.832 -29.6875 82.0801 -35.2539 89.1113 -36.6211 L 89.1113 -37.0117 C 83.1055 -38.8184 79.834 -43.457 79.834 -49.1211 C 79.834 -57.6172 86.9141 -63.5254 96.9727 -63.5254 C 106.982 -63.5254 114.062 -57.6172 114.062 -49.1211 C 114.062 -43.457 110.693 -38.623 104.785 -37.0117 L 104.785 -36.6211 C 111.768 -35.2539 116.016 -29.7363 116.016 -23.0469 C 116.016 -13.5742 108.154 -6.98242 96.8262 -6.98242 Z M 96.9727 -39.4043 C 102.637 -39.4043 106.689 -43.2617 106.689 -48.5352 C 106.689 -53.8086 102.686 -57.4707 96.9727 -57.4707 C 91.2109 -57.4707 87.207 -53.8086 87.207 -48.5352 C 87.207 -43.2617 91.2598 -39.4043 96.9727 -39.4043 Z M 97.0215 -13.0859 C 103.857 -13.0859 108.789 -17.334 108.789 -23.4375 C 108.789 -29.4434 103.955 -33.7402 97.0215 -33.7402 C 90.0879 -33.7402 85.1562 -29.3945 85.1562 -23.4375 C 85.1562 -17.334 90.0879 -13.0859 97.0215 -13.0859 Z"/>
  </g>
  <g id="Light-L" transform="matrix(1 0 0 1 1079.18 1556)">
   <path d="M 73.9258 27.4902 C 108.301 27.4902 136.621 -0.830078 136.621 -35.1562 C 136.621 -69.5312 108.252 -97.8516 73.9258 -97.8516 C 39.5508 -97.8516 11.2793 -69.5312 11.2793 -35.1562 C 11.2793 -0.830078 39.5996 27.4902 73.9258 27.4902 Z M 38.8184 -8.44727 C 37.0605 -8.44727 35.8887 -9.57031 35.8887 -11.377 C 35.8887 -12.4023 36.1816 -13.1836 36.8652 -13.9648 L 55.7129 -35.8887 C 59.5215 -40.3809 62.207 -43.9453 62.207 -48.291 C 62.207 -54.0039 58.1543 -57.7637 51.6602 -57.7637 C 45.6543 -57.7637 41.3086 -54.2969 40.2832 -48.6816 C 39.7949 -47.168 39.0137 -46.2402 37.5 -46.2402 C 35.791 -46.2402 34.8145 -47.4609 34.8145 -49.1699 C 34.8145 -49.8047 34.9121 -50.4395 35.0098 -51.1719 C 36.4258 -58.1543 43.4082 -63.2324 51.5137 -63.2324 C 61.4258 -63.2324 67.9688 -57.4707 67.9688 -48.584 C 67.9688 -42.8223 64.9414 -38.2324 59.4727 -31.8848 L 44.3848 -14.3066 L 44.3848 -14.0137 L 66.8457 -14.0137 C 68.3594 -14.0137 69.4824 -12.9395 69.4824 -11.2793 C 69.4824 -9.61914 68.3594 -8.44727 66.8457 -8.44727 Z M 95.8496 -7.32422 C 84.8145 -7.32422 77.002 -13.7695 77.002 -23.1445 C 77.002 -29.7363 81.4453 -35.3027 88.3301 -36.6211 L 88.3301 -37.0117 C 82.5195 -38.7207 79.0527 -43.4082 79.0527 -48.9746 C 79.0527 -57.373 86.084 -63.2324 95.9473 -63.2324 C 105.762 -63.2324 112.842 -57.373 112.842 -48.9746 C 112.842 -43.4082 109.277 -38.5742 103.564 -37.0117 L 103.564 -36.6211 C 110.352 -35.3027 114.795 -29.7852 114.795 -23.1934 C 114.795 -13.8672 106.934 -7.32422 95.8496 -7.32422 Z M 95.9473 -39.0137 C 102.393 -39.0137 106.885 -43.0664 106.885 -48.6328 C 106.885 -54.2969 102.441 -58.2031 95.9473 -58.2031 C 89.4531 -58.2031 85.0098 -54.2969 85.0098 -48.6328 C 85.0098 -43.0664 89.502 -39.0137 95.9473 -39.0137 Z M 95.9473 -12.3535 C 103.613 -12.3535 109.131 -16.9434 109.131 -23.3887 C 109.131 -29.6875 103.662 -34.2285 95.9473 -34.2285 C 88.2812 -34.2285 82.8125 -29.6387 82.8125 -23.3887 C 82.8125 -16.9434 88.2812 -12.3535 95.9473 -12.3535 Z"/>
  </g>
  <g id="Thin-L" transform="matrix(1 0 0 1 783.693 1556)">
   <path d="M 72.7051 26.3184 C 106.494 26.3184 134.18 -1.36719 134.18 -35.1074 C 134.18 -68.8965 106.494 -96.582 72.7051 -96.582 C 38.9648 -96.582 11.2793 -68.8965 11.2793 -35.1074 C 11.2793 -1.36719 38.9648 26.3184 72.7051 26.3184 Z M 37.5977 -8.59375 C 36.2793 -8.59375 35.4004 -9.42383 35.4004 -10.7422 C 35.4004 -11.6211 35.5469 -12.0605 36.0352 -12.6465 L 55.8594 -35.5957 C 60.1562 -40.6738 62.3047 -44.1895 62.3047 -48.5352 C 62.3047 -54.8828 57.7637 -58.9844 50.4395 -58.9844 C 43.457 -58.9844 38.3789 -54.6875 37.8418 -48.6328 C 37.6465 -47.4121 37.0117 -46.7285 35.791 -46.7285 C 34.5215 -46.7285 33.8379 -47.6074 33.8379 -48.7793 C 33.8379 -49.3652 33.8867 -49.9023 33.9844 -50.5371 C 35.1562 -57.666 42.1875 -62.793 50.3906 -62.793 C 60.0098 -62.793 66.4062 -57.2266 66.4062 -48.5352 C 66.4062 -43.4082 63.7695 -38.9648 57.8613 -32.0801 L 41.1621 -12.6465 L 41.1621 -12.4512 L 66.0645 -12.4512 C 67.2363 -12.4512 67.9688 -11.6699 67.9688 -10.5469 C 67.9688 -9.47266 67.2363 -8.59375 66.0645 -8.59375 Z M 94.5312 -7.71484 C 83.7891 -7.71484 75.9277 -14.1602 75.9277 -23.3398 C 75.9277 -29.7852 80.6641 -35.3516 87.2559 -36.6211 L 87.2559 -36.9629 C 81.6895 -38.6719 77.9785 -43.4082 77.9785 -48.8281 C 77.9785 -57.0801 85.0098 -62.793 94.5312 -62.793 C 104.199 -62.793 111.182 -57.0801 111.182 -48.8281 C 111.182 -43.4082 107.373 -38.5254 101.953 -36.9629 L 101.953 -36.6211 C 108.496 -35.3516 113.184 -29.7852 113.184 -23.3398 C 113.184 -14.2578 105.322 -7.71484 94.5312 -7.71484 Z M 94.5312 -38.4766 C 102.002 -38.4766 107.129 -42.8223 107.129 -48.8281 C 107.129 -54.9805 102.1 -59.2285 94.5312 -59.2285 C 87.1094 -59.2285 82.0312 -54.9805 82.0312 -48.8281 C 82.0312 -42.8223 87.1582 -38.4766 94.5312 -38.4766 Z M 94.5801 -11.3281 C 103.271 -11.3281 109.521 -16.3574 109.521 -23.291 C 109.521 -30.0293 103.32 -34.9121 94.5801 -34.9121 C 85.8887 -34.9121 79.6387 -30.0293 79.6387 -23.291 C 79.6387 -16.3574 85.8887 -11.3281 94.5801 -11.3281 Z"/>
  </g>
  <g id="Ultralight-L" transform="matrix(1 0 0 1 487.616 1556)">
   <path d="M 72.1191 25.7324 C 105.566 25.7324 132.91 -1.61133 132.91 -35.1074 C 132.91 -68.5547 105.566 -95.8984 72.1191 -95.8984 C 38.623 -95.8984 11.2793 -68.5547 11.2793 -35.1074 C 11.2793 -1.61133 38.623 25.7324 72.1191 25.7324 Z M 36.9629 -8.69141 C 35.8398 -8.69141 35.1074 -9.32617 35.1074 -10.4004 C 35.1074 -11.1816 35.2539 -11.5234 35.5957 -11.9141 L 55.957 -35.4492 C 60.498 -40.8203 62.3535 -44.3359 62.3535 -48.6816 C 62.3535 -55.3711 57.5684 -59.6191 49.8047 -59.6191 C 42.334 -59.6191 36.8652 -54.9316 36.5723 -48.584 C 36.5723 -47.5586 35.9375 -46.9727 34.9121 -46.9727 C 33.8867 -46.9727 33.3008 -47.7051 33.3008 -48.6328 C 33.3008 -49.1699 33.3984 -49.6094 33.4473 -50.2441 C 34.5215 -57.4219 41.5527 -62.5977 49.8535 -62.5977 C 59.2773 -62.5977 65.5762 -57.0801 65.5762 -48.5352 C 65.5762 -43.7012 63.1836 -39.3066 57.0312 -32.1777 L 39.502 -11.7676 L 39.502 -11.6211 L 65.6738 -11.6211 C 66.6504 -11.6211 67.1875 -10.9863 67.1875 -10.1562 C 67.1875 -9.42383 66.6504 -8.69141 65.6738 -8.69141 Z M 93.8477 -7.95898 C 83.252 -7.95898 75.3418 -14.3555 75.3418 -23.3887 C 75.3418 -29.834 80.2246 -35.3516 86.6699 -36.6211 L 86.6699 -36.9629 C 81.2988 -38.623 77.4414 -43.4082 77.4414 -48.7305 C 77.4414 -56.8848 84.4238 -62.5977 93.8477 -62.5977 C 103.369 -62.5977 110.352 -56.8848 110.352 -48.7305 C 110.352 -43.4082 106.445 -38.4766 101.123 -36.9629 L 101.123 -36.6211 C 107.568 -35.3516 112.354 -29.7852 112.354 -23.3887 C 112.354 -14.4531 104.492 -7.95898 93.8477 -7.95898 Z M 93.8477 -38.1836 C 101.807 -38.1836 107.275 -42.6758 107.275 -48.9258 C 107.275 -55.2734 101.904 -59.7168 93.8477 -59.7168 C 85.8887 -59.7168 80.5176 -55.2734 80.5176 -48.9258 C 80.5176 -42.6758 85.9863 -38.1836 93.8477 -38.1836 Z M 93.8477 -10.8398 C 103.125 -10.8398 109.717 -16.0645 109.717 -23.291 C 109.717 -30.2246 103.125 -35.2539 93.8477 -35.2539 C 84.668 -35.2539 78.0762 -30.2246 78.0762 -23.291 C 78.0762 -16.0645 84.668 -10.8398 93.8477 -10.8398 Z"/>
  </g>
  <g id="Black-M" transform="matrix(1 0 0 1 2870.97 1126)">
   <path d="M 62.4023 18.457 C 91.9922 18.457 116.113 -5.61523 116.113 -35.2051 C 116.113 -64.7949 91.9922 -88.8672 62.4023 -88.8672 C 32.8125 -88.8672 8.74023 -64.7949 8.74023 -35.2051 C 8.74023 -5.61523 32.8125 18.457 62.4023 18.457 Z M 41.5527 -16.8945 C 38.7207 -16.8945 36.4258 -18.7988 36.4258 -22.0215 C 36.4258 -24.1211 37.1582 -25.8789 39.209 -28.125 L 46.1914 -36.4746 C 48.4375 -39.0625 49.8535 -40.4785 49.8535 -42.3828 C 49.8535 -43.6035 48.6328 -44.7266 47.2168 -44.7266 C 45.8496 -44.7266 44.7754 -43.7988 44.4336 -42.4805 C 43.8477 -40.6738 42.5293 -39.3066 39.9902 -39.3066 C 37.3535 -39.3066 35.6445 -41.1621 35.6445 -43.6523 C 35.6445 -44.6777 35.791 -45.4102 36.0352 -46.2891 C 37.4023 -51.1719 42.1387 -54.2969 47.6562 -54.2969 C 54.6387 -54.2969 58.9355 -49.6582 59.082 -43.3105 C 59.1309 -39.1602 57.2754 -35.8887 53.5645 -31.4941 L 49.8047 -27.1484 L 49.8047 -26.6602 L 55.1758 -26.6602 C 58.3008 -26.6602 60.2539 -24.9023 60.2539 -21.875 C 60.2539 -18.7012 58.3008 -16.8945 55.1758 -16.8945 Z M 77.3438 -16.2109 C 69.2383 -16.2109 63.7695 -20.5566 63.7695 -27.0508 C 63.7695 -31.9336 66.8457 -34.9609 70.6543 -36.084 L 70.6543 -36.5234 C 67.8711 -37.1582 65.1367 -40.2344 65.1367 -44.3359 C 65.1367 -50.3418 69.9707 -54.2969 77.2949 -54.2969 C 84.5703 -54.2969 89.4531 -50.3418 89.4531 -44.3359 C 89.4531 -40.2344 86.7676 -37.1582 83.9844 -36.5234 L 83.9844 -36.084 C 87.793 -34.9609 90.8203 -31.9336 90.8203 -27.0508 C 90.8203 -20.5566 85.4004 -16.2109 77.3438 -16.2109 Z M 77.2949 -40.5273 C 79.0039 -40.5273 80.0293 -41.6992 80.0293 -43.2617 C 80.0293 -44.8242 78.9551 -46.0449 77.2949 -46.0449 C 75.6348 -46.0449 74.6094 -44.8242 74.6094 -43.2617 C 74.6094 -41.6992 75.5371 -40.5273 77.2949 -40.5273 Z M 77.2949 -24.6094 C 79.1992 -24.6094 80.4688 -26.0742 80.4688 -27.9297 C 80.4688 -29.8828 79.1992 -31.3477 77.2949 -31.3477 C 75.3906 -31.3477 74.1211 -29.8828 74.1211 -27.9297 C 74.1211 -26.0742 75.3906 -24.6094 77.2949 -24.6094 Z"/>
  </g>
  <g id="Heavy-M" transform="matrix(1 0 0 1 2575.19 1126)">
   <path d="M 61.5234 17.5781 C 90.5273 17.5781 114.258 -6.15234 114.258 -35.2051 C 114.258 -64.2578 90.5273 -87.9883 61.4746 -87.9883 C 32.4707 -87.9883 8.74023 -64.2578 8.74023 -35.2051 C 8.74023 -6.15234 32.4707 17.5781 61.5234 17.5781 Z M 39.1602 -16.2598 C 36.5723 -16.2598 34.5215 -18.0664 34.5215 -20.9473 C 34.5215 -22.7539 35.1562 -24.3164 36.9141 -26.2695 L 45.459 -36.3281 C 47.7539 -39.0137 49.4629 -40.7715 49.4629 -43.0176 C 49.4629 -44.873 47.9004 -46.2891 45.8008 -46.2891 C 43.9453 -46.2891 42.4805 -45.166 41.8945 -43.2129 C 41.3086 -41.5039 40.1367 -40.2344 37.793 -40.2344 C 35.4004 -40.2344 33.8379 -41.9434 33.8379 -44.3359 C 33.8379 -45.2148 33.9355 -45.9473 34.1797 -46.7285 C 35.5469 -51.709 40.4297 -55.0293 46.0938 -55.0293 C 53.3203 -55.0293 57.8613 -50.3906 57.959 -43.8477 C 58.0078 -39.502 55.9082 -36.084 52.1484 -31.7383 L 46.9238 -25.6348 L 46.9238 -25.1953 L 54.541 -25.1953 C 57.3242 -25.1953 59.1309 -23.584 59.1309 -20.8496 C 59.1309 -17.9688 57.3242 -16.2598 54.541 -16.2598 Z M 76.9043 -15.4785 C 68.6523 -15.4785 63.0859 -20.0195 63.0859 -26.7578 C 63.0859 -31.6895 66.1621 -35.0098 70.3613 -36.1328 L 70.3613 -36.5234 C 67.1387 -37.3535 64.4531 -40.5273 64.4531 -44.7266 C 64.4531 -50.9277 69.4824 -55.0293 76.9531 -55.0293 C 84.375 -55.0293 89.3555 -50.9277 89.3555 -44.7266 C 89.3555 -40.5273 86.7188 -37.3535 83.4961 -36.5234 L 83.4961 -36.1328 C 87.7441 -35.0098 90.7715 -31.6895 90.7715 -26.7578 C 90.7715 -20.0195 85.2051 -15.4785 76.9043 -15.4785 Z M 76.9531 -40.0879 C 79.1992 -40.0879 80.6152 -41.6504 80.6152 -43.75 C 80.6152 -45.8984 79.1504 -47.4609 76.9531 -47.4609 C 74.707 -47.4609 73.2422 -45.8984 73.2422 -43.75 C 73.2422 -41.6504 74.6582 -40.0879 76.9531 -40.0879 Z M 76.9531 -23.1934 C 79.541 -23.1934 81.3477 -25 81.3477 -27.5391 C 81.3477 -30.0781 79.541 -31.9336 76.9531 -31.9336 C 74.3164 -31.9336 72.5098 -30.0293 72.5098 -27.5391 C 72.5098 -25 74.3164 -23.1934 76.9531 -23.1934 Z"/>
  </g>
  <g id="Bold-M" transform="matrix(1 0 0 1 2279.5 1126)">
   <path d="M 60.498 16.5039 C 88.8672 16.5039 112.207 -6.78711 112.207 -35.2051 C 112.207 -63.623 88.8672 -86.9629 60.4492 -86.9629 C 32.0312 -86.9629 8.74023 -63.623 8.74023 -35.2051 C 8.74023 -6.78711 32.0801 16.5039 60.498 16.5039 Z M 36.4746 -15.625 C 34.1309 -15.625 32.373 -17.1875 32.373 -19.7266 C 32.373 -21.2402 32.9102 -22.5586 34.3262 -24.1211 L 44.5801 -36.2305 C 46.9727 -39.0137 48.9746 -41.1133 48.9746 -43.7012 C 48.9746 -46.2402 47.0215 -48.0957 44.2383 -48.0957 C 41.748 -48.0957 39.8926 -46.6797 39.0625 -44.0918 C 38.4766 -42.4316 37.4023 -41.3086 35.4004 -41.3086 C 33.2031 -41.3086 31.7871 -42.8223 31.7871 -45.0195 C 31.7871 -45.8496 31.9336 -46.5332 32.0801 -47.2656 C 33.4473 -52.2949 38.5254 -55.8105 44.3359 -55.8105 C 51.8555 -55.8105 56.5918 -51.1719 56.6895 -44.4824 C 56.6895 -39.8438 54.3945 -36.377 50.6348 -31.9824 L 43.7012 -23.9746 L 43.7012 -23.5352 L 53.8574 -23.5352 C 56.25 -23.5352 57.8125 -22.0703 57.8125 -19.6289 C 57.8125 -17.1387 56.25 -15.625 53.8574 -15.625 Z M 76.4648 -14.6973 C 68.0176 -14.6973 62.3047 -19.3848 62.3047 -26.3672 C 62.3047 -31.4453 65.3809 -35.1074 70.0684 -36.1816 L 70.0684 -36.5723 C 66.3086 -37.5977 63.7207 -40.918 63.7207 -45.2148 C 63.7207 -51.5137 68.8965 -55.8105 76.5137 -55.8105 C 84.082 -55.8105 89.2578 -51.5137 89.2578 -45.2148 C 89.2578 -40.918 86.6699 -37.5488 82.959 -36.5723 L 82.959 -36.1816 C 87.5977 -35.1074 90.7227 -31.4453 90.7227 -26.416 C 90.7227 -19.4336 84.9609 -14.6973 76.4648 -14.6973 Z M 76.5137 -39.5996 C 79.3457 -39.5996 81.2988 -41.6016 81.2988 -44.3359 C 81.2988 -47.0703 79.3457 -49.0234 76.5137 -49.0234 C 73.6328 -49.0234 71.7285 -47.0703 71.7285 -44.3359 C 71.7285 -41.6016 73.6328 -39.5996 76.5137 -39.5996 Z M 76.5625 -21.5332 C 79.8828 -21.5332 82.2754 -23.8281 82.2754 -27.0508 C 82.2754 -30.2246 79.9316 -32.5684 76.5625 -32.5684 C 73.0957 -32.5684 70.7031 -30.2246 70.7031 -27.0508 C 70.7031 -23.8281 73.0957 -21.5332 76.5625 -21.5332 Z"/>
  </g>
  <g id="Semibold-M" transform="matrix(1 0 0 1 1983.5 1126)">
   <path d="M 59.7656 15.8203 C 87.7441 15.8203 110.791 -7.22656 110.791 -35.2051 C 110.791 -63.1836 87.6953 -86.2793 59.7656 -86.2793 C 31.7871 -86.2793 8.74023 -63.1836 8.74023 -35.2051 C 8.74023 -7.22656 31.7871 15.8203 59.7656 15.8203 Z M 34.6191 -15.1367 C 32.4219 -15.1367 30.9082 -16.6016 30.9082 -18.8477 C 30.9082 -20.166 31.3477 -21.3379 32.5684 -22.6562 L 43.9941 -36.1816 C 46.3867 -38.9648 48.6816 -41.3574 48.6816 -44.1895 C 48.6816 -47.2168 46.4355 -49.3164 43.1641 -49.3164 C 40.2344 -49.3164 38.1348 -47.7539 37.1582 -44.6777 C 36.4746 -43.0664 35.5469 -42.041 33.6914 -42.041 C 31.6895 -42.041 30.4199 -43.457 30.4199 -45.5078 C 30.4199 -46.2402 30.5176 -46.9238 30.6641 -47.6074 C 31.9824 -52.7344 37.207 -56.3965 43.1641 -56.3965 C 50.8301 -56.3965 55.7617 -51.7578 55.8105 -44.9219 C 55.8105 -40.1367 53.3203 -36.5234 49.5605 -32.1289 L 41.5039 -22.8027 L 41.5039 -22.3633 L 53.418 -22.3633 C 55.4688 -22.3633 56.9336 -21.0449 56.9336 -18.8477 C 56.9336 -16.5527 55.4688 -15.1367 53.418 -15.1367 Z M 76.123 -14.1602 C 67.5293 -14.1602 61.7188 -18.9453 61.7188 -26.123 C 61.7188 -31.25 64.8438 -35.1562 69.873 -36.2305 L 69.873 -36.5723 C 65.7715 -37.7441 63.2324 -41.1621 63.2324 -45.5078 C 63.2324 -51.9531 68.5059 -56.3965 76.2207 -56.3965 C 83.8867 -56.3965 89.209 -51.9531 89.209 -45.5078 C 89.209 -41.1621 86.6699 -37.6465 82.5684 -36.5723 L 82.5684 -36.2305 C 87.5488 -35.1562 90.6738 -31.25 90.6738 -26.1719 C 90.6738 -18.9941 84.8145 -14.1602 76.123 -14.1602 Z M 76.2207 -39.3066 C 79.4922 -39.3066 81.7383 -41.6016 81.7383 -44.7754 C 81.7383 -47.9004 79.4922 -50.0977 76.2207 -50.0977 C 72.9492 -50.0977 70.7031 -47.9004 70.7031 -44.7754 C 70.7031 -41.6016 72.9492 -39.3066 76.2207 -39.3066 Z M 76.2695 -20.459 C 80.1758 -20.459 82.959 -23.0469 82.959 -26.709 C 82.959 -30.3711 80.2246 -33.0078 76.2695 -33.0078 C 72.3145 -33.0078 69.4824 -30.3223 69.4824 -26.709 C 69.4824 -23.0469 72.3145 -20.459 76.2695 -20.459 Z"/>
  </g>
  <g id="Medium-M" transform="matrix(1 0 0 1 1687.3 1126)">
   <path d="M 59.2285 15.2832 C 86.9141 15.2832 109.766 -7.56836 109.766 -35.2051 C 109.766 -62.8906 86.8652 -85.7422 59.1797 -85.7422 C 31.543 -85.7422 8.74023 -62.8906 8.74023 -35.2051 C 8.74023 -7.56836 31.5918 15.2832 59.2285 15.2832 Z M 33.2031 -14.7949 C 31.1523 -14.7949 29.7852 -16.1133 29.7852 -18.2129 C 29.7852 -19.3848 30.1758 -20.459 31.2012 -21.582 L 43.5547 -36.1328 C 45.9961 -38.9648 48.4375 -41.5039 48.4375 -44.5801 C 48.4375 -47.9492 45.9961 -50.2441 42.334 -50.2441 C 39.1113 -50.2441 36.7676 -48.5352 35.6445 -45.1172 C 35.0098 -43.5547 34.1309 -42.5781 32.4219 -42.5781 C 30.5176 -42.5781 29.3457 -43.8965 29.3457 -45.8984 C 29.3457 -46.582 29.4434 -47.2168 29.5898 -47.8516 C 30.9082 -53.0273 36.2305 -56.7871 42.2363 -56.7871 C 50.0977 -56.7871 55.127 -52.1973 55.1758 -45.2148 C 55.1758 -40.2832 52.5391 -36.6699 48.7305 -32.2754 L 39.8438 -21.875 L 39.8438 -21.4844 L 53.0273 -21.4844 C 54.9316 -21.4844 56.25 -20.3125 56.25 -18.2129 C 56.25 -16.1133 54.9316 -14.7949 53.0273 -14.7949 Z M 75.8789 -13.7207 C 67.1875 -13.7207 61.3281 -18.6523 61.3281 -25.9277 C 61.3281 -31.1035 64.4531 -35.1562 69.7266 -36.2793 L 69.7266 -36.6211 C 65.332 -37.8906 62.8418 -41.3574 62.8418 -45.752 C 62.8418 -52.2949 68.2129 -56.7871 76.0254 -56.7871 C 83.7891 -56.7871 89.1602 -52.2949 89.1602 -45.752 C 89.1602 -41.3574 86.6211 -37.793 82.2754 -36.6211 L 82.2754 -36.2793 C 87.5 -35.1562 90.625 -31.1523 90.625 -25.9766 C 90.625 -18.7012 84.668 -13.7207 75.8789 -13.7207 Z M 76.0254 -39.0137 C 79.5898 -39.0137 82.0801 -41.5527 82.0801 -45.0684 C 82.0801 -48.5352 79.5898 -50.9277 76.0254 -50.9277 C 72.4121 -50.9277 69.873 -48.5352 69.873 -45.0684 C 69.873 -41.5527 72.4121 -39.0137 76.0254 -39.0137 Z M 76.0742 -19.5801 C 80.3711 -19.5801 83.4473 -22.4121 83.4473 -26.4648 C 83.4473 -30.4688 80.4199 -33.3496 76.0742 -33.3496 C 71.6797 -33.3496 68.5547 -30.4199 68.5547 -26.4648 C 68.5547 -22.4121 71.6797 -19.5801 76.0742 -19.5801 Z"/>
  </g>
  <g id="Regular-M" transform="matrix(1 0 0 1 1391.3 1126)">
   <path d="M 58.5449 14.5508 C 85.791 14.5508 108.35 -8.00781 108.35 -35.2539 C 108.35 -62.4512 85.7422 -85.0586 58.4961 -85.0586 C 31.2988 -85.0586 8.74023 -62.4512 8.74023 -35.2539 C 8.74023 -8.00781 31.3477 14.5508 58.5449 14.5508 Z M 31.3477 -14.3555 C 29.4922 -14.3555 28.3203 -15.5273 28.3203 -17.3828 C 28.3203 -18.3594 28.6621 -19.2383 29.4434 -20.1172 L 42.9688 -36.0352 C 45.459 -38.916 48.1445 -41.748 48.1445 -45.0684 C 48.1445 -48.877 45.4102 -51.4648 41.2598 -51.4648 C 37.6465 -51.4648 35.0098 -49.5605 33.7402 -45.7031 C 33.0566 -44.1895 32.2754 -43.3105 30.8105 -43.3105 C 29.0527 -43.3105 27.9785 -44.5312 27.9785 -46.3867 C 27.9785 -46.9727 28.0762 -47.6074 28.1738 -48.1934 C 29.4922 -53.4668 34.9121 -57.3242 41.0156 -57.3242 C 49.0723 -57.3242 54.2969 -52.7344 54.2969 -45.6543 C 54.2969 -40.5762 51.4648 -36.8164 47.7051 -32.4219 L 37.6465 -20.752 L 37.6465 -20.3613 L 52.5879 -20.3613 C 54.1504 -20.3613 55.3711 -19.2871 55.3711 -17.3828 C 55.3711 -15.5273 54.1504 -14.3555 52.5879 -14.3555 Z M 75.5859 -13.1836 C 66.748 -13.1836 60.791 -18.2129 60.791 -25.6836 C 60.791 -30.9082 63.9648 -35.2051 69.5312 -36.3281 L 69.5312 -36.6211 C 64.7461 -38.0371 62.3047 -41.6016 62.3047 -46.0938 C 62.3047 -52.7344 67.8223 -57.3242 75.7324 -57.3242 C 83.5938 -57.3242 89.1113 -52.7344 89.1113 -46.0938 C 89.1113 -41.6016 86.6211 -37.8906 81.8848 -36.6211 L 81.8848 -36.3281 C 87.4023 -35.2051 90.625 -30.957 90.625 -25.7324 C 90.625 -18.2617 84.5215 -13.1836 75.5859 -13.1836 Z M 75.7324 -38.7207 C 79.6875 -38.7207 82.5684 -41.5527 82.5684 -45.459 C 82.5684 -49.3164 79.7363 -52.002 75.7324 -52.002 C 71.6797 -52.002 68.8477 -49.3164 68.8477 -45.459 C 68.8477 -41.5527 71.7285 -38.7207 75.7324 -38.7207 Z M 75.7812 -18.5059 C 80.6152 -18.5059 84.1309 -21.6309 84.1309 -26.123 C 84.1309 -30.5664 80.7129 -33.7891 75.7812 -33.7891 C 70.8496 -33.7891 67.334 -30.5176 67.334 -26.123 C 67.334 -21.6309 70.8496 -18.5059 75.7812 -18.5059 Z"/>
  </g>
  <g id="Light-M" transform="matrix(1 0 0 1 1095.42 1126)">
   <path d="M 57.7148 13.7695 C 84.5215 13.7695 106.689 -8.39844 106.689 -35.2051 C 106.689 -62.0117 84.5215 -84.1797 57.666 -84.1797 C 30.8594 -84.1797 8.74023 -62.0117 8.74023 -35.2051 C 8.74023 -8.39844 30.9082 13.7695 57.7148 13.7695 Z M 30.5176 -14.4531 C 28.9551 -14.4531 27.9785 -15.4297 27.9785 -16.9434 C 27.9785 -17.8223 28.2227 -18.5059 28.8574 -19.1895 L 43.1152 -35.8398 C 45.8984 -39.1113 48.1934 -41.8945 48.1934 -45.2637 C 48.1934 -49.5117 45.166 -52.2949 40.4785 -52.2949 C 36.1328 -52.2949 33.0078 -49.8535 32.0801 -45.6543 C 31.5918 -44.3848 30.9082 -43.6035 29.6387 -43.6035 C 28.1738 -43.6035 27.2949 -44.6289 27.2949 -46.1426 C 27.2949 -46.6797 27.3926 -47.2168 27.4902 -47.8027 C 28.6621 -53.125 34.082 -57.0801 40.2832 -57.0801 C 48.0957 -57.0801 53.2227 -52.5879 53.2227 -45.6055 C 53.2227 -40.918 50.6836 -37.3047 46.6309 -32.5684 L 35.4492 -19.5801 L 35.4492 -19.3359 L 52.0508 -19.3359 C 53.3691 -19.3359 54.3457 -18.4082 54.3457 -16.8945 C 54.3457 -15.4297 53.3691 -14.4531 52.0508 -14.4531 Z M 74.707 -13.4766 C 66.0645 -13.4766 60.0586 -18.457 60.0586 -25.8301 C 60.0586 -30.957 63.3789 -35.2539 68.7988 -36.3281 L 68.7988 -36.6211 C 64.209 -37.9883 61.6211 -41.6016 61.6211 -45.9473 C 61.6211 -52.4902 67.0898 -57.0801 74.8047 -57.0801 C 82.5195 -57.0801 87.9883 -52.4902 87.9883 -45.9473 C 87.9883 -41.6016 85.3027 -37.8418 80.8105 -36.6211 L 80.8105 -36.3281 C 86.1816 -35.2539 89.502 -31.0059 89.502 -25.8301 C 89.502 -18.5547 83.3984 -13.4766 74.707 -13.4766 Z M 74.8047 -38.3301 C 79.4434 -38.3301 82.7148 -41.3574 82.7148 -45.5566 C 82.7148 -49.8047 79.4922 -52.6855 74.8047 -52.6855 C 70.1172 -52.6855 66.8457 -49.8047 66.8457 -45.5566 C 66.8457 -41.3574 70.1172 -38.3301 74.8047 -38.3301 Z M 74.8535 -17.8223 C 80.4199 -17.8223 84.4238 -21.2402 84.4238 -26.0742 C 84.4238 -30.8105 80.4688 -34.2285 74.8535 -34.2285 C 69.2383 -34.2285 65.2344 -30.8105 65.2344 -26.0742 C 65.2344 -21.2402 69.2383 -17.8223 74.8535 -17.8223 Z"/>
  </g>
  <g id="Thin-M" transform="matrix(1 0 0 1 799.806 1126)">
   <path d="M 56.6406 12.7441 C 82.9102 12.7441 104.492 -8.83789 104.492 -35.1562 C 104.492 -61.4746 82.9102 -83.0566 56.5918 -83.0566 C 30.3223 -83.0566 8.74023 -61.4746 8.74023 -35.1562 C 8.74023 -8.83789 30.3223 12.7441 56.6406 12.7441 Z M 29.3945 -14.5508 C 28.2715 -14.5508 27.5391 -15.2832 27.5391 -16.4062 C 27.5391 -17.0898 27.6855 -17.5293 28.125 -18.0176 L 43.2617 -35.5957 C 46.4844 -39.3555 48.291 -42.1387 48.291 -45.5078 C 48.291 -50.293 44.873 -53.3691 39.3555 -53.3691 C 34.1797 -53.3691 30.3711 -50.2441 29.834 -45.6055 C 29.6387 -44.6289 29.1016 -44.043 28.0762 -44.043 C 27.0508 -44.043 26.416 -44.7754 26.416 -45.8008 C 26.416 -46.2891 26.4648 -46.7285 26.5625 -47.2168 C 27.5391 -52.7344 32.959 -56.6895 39.3066 -56.6895 C 46.8262 -56.6895 51.8066 -52.3438 51.8066 -45.5566 C 51.8066 -41.4551 49.6582 -37.9395 45.166 -32.7637 L 32.5684 -18.0664 L 32.5684 -17.9199 L 51.3672 -17.9199 C 52.3438 -17.9199 53.0273 -17.2363 53.0273 -16.2598 C 53.0273 -15.332 52.3438 -14.5508 51.3672 -14.5508 Z M 73.5352 -13.8184 C 65.1367 -13.8184 59.082 -18.8477 59.082 -25.9766 C 59.082 -31.0059 62.6953 -35.3027 67.8223 -36.3281 L 67.8223 -36.5723 C 63.4766 -37.8906 60.6445 -41.5527 60.6445 -45.8008 C 60.6445 -52.2461 66.1133 -56.6895 73.584 -56.6895 C 81.1035 -56.6895 86.5234 -52.2461 86.5234 -45.8008 C 86.5234 -41.5527 83.6426 -37.793 79.3457 -36.5723 L 79.3457 -36.3281 C 84.5215 -35.3027 88.0859 -31.0059 88.0859 -25.9766 C 88.0859 -18.8965 81.9824 -13.8184 73.5352 -13.8184 Z M 73.584 -37.8418 C 79.1504 -37.8418 82.959 -41.1621 82.959 -45.7031 C 82.959 -50.3906 79.1992 -53.6133 73.584 -53.6133 C 68.0176 -53.6133 64.209 -50.3906 64.209 -45.7031 C 64.209 -41.1621 68.0664 -37.8418 73.584 -37.8418 Z M 73.584 -16.9434 C 80.127 -16.9434 84.7656 -20.7031 84.7656 -26.0254 C 84.7656 -31.1035 80.127 -34.8633 73.584 -34.8633 C 67.0898 -34.8633 62.4023 -31.1035 62.4023 -26.0254 C 62.4023 -20.7031 67.0898 -16.9434 73.584 -16.9434 Z"/>
  </g>
  <g id="Ultralight-M" transform="matrix(1 0 0 1 503.656 1126)">
   <path d="M 56.0547 12.207 C 82.0801 12.207 103.369 -9.08203 103.369 -35.1562 C 103.369 -61.1816 82.0801 -82.4707 56.0547 -82.4707 C 30.0293 -82.4707 8.74023 -61.1816 8.74023 -35.1562 C 8.74023 -9.08203 30.0293 12.207 56.0547 12.207 Z M 28.8086 -14.6484 C 27.9297 -14.6484 27.2949 -15.1855 27.2949 -16.1133 C 27.2949 -16.6992 27.3926 -17.041 27.7344 -17.3828 L 43.3594 -35.4492 C 46.7773 -39.502 48.3398 -42.2363 48.3398 -45.6055 C 48.3398 -50.6836 44.6777 -53.9551 38.8184 -53.9551 C 33.1543 -53.9551 29.0039 -50.4395 28.7109 -45.6055 C 28.6621 -44.7266 28.1738 -44.2383 27.2949 -44.2383 C 26.4648 -44.2383 25.9766 -44.873 25.9766 -45.6543 C 25.9766 -46.0938 26.0254 -46.4355 26.0742 -46.9727 C 26.9531 -52.4902 32.373 -56.4941 38.8184 -56.4941 C 46.1426 -56.4941 51.0742 -52.1973 51.0742 -45.5566 C 51.0742 -41.6992 49.1699 -38.2812 44.4336 -32.8613 L 31.1035 -17.334 L 31.1035 -17.1875 L 51.0254 -17.1875 C 51.8066 -17.1875 52.2949 -16.6504 52.2949 -15.918 C 52.2949 -15.2344 51.8066 -14.6484 51.0254 -14.6484 Z M 72.9492 -14.0137 C 64.6484 -14.0137 58.5449 -18.9941 58.5449 -26.0254 C 58.5449 -31.0059 62.3047 -35.3027 67.334 -36.3281 L 67.334 -36.5723 C 63.1348 -37.8906 60.2051 -41.5527 60.2051 -45.7031 C 60.2051 -52.0996 65.625 -56.4941 72.9492 -56.4941 C 80.3711 -56.4941 85.791 -52.0996 85.791 -45.7031 C 85.791 -41.5527 82.7637 -37.7441 78.6133 -36.5723 L 78.6133 -36.3281 C 83.6426 -35.3027 87.3535 -31.0059 87.3535 -26.0254 C 87.3535 -19.0918 81.2012 -14.0137 72.9492 -14.0137 Z M 72.9492 -37.5977 C 78.9551 -37.5977 83.1055 -41.0645 83.1055 -45.8008 C 83.1055 -50.6836 79.0527 -54.0527 72.9492 -54.0527 C 66.9434 -54.0527 62.8418 -50.6836 62.8418 -45.8008 C 62.8418 -41.0645 66.9922 -37.5977 72.9492 -37.5977 Z M 72.9492 -16.4551 C 79.9805 -16.4551 84.9609 -20.459 84.9609 -25.9766 C 84.9609 -31.2988 79.9805 -35.1562 72.9492 -35.1562 C 65.9668 -35.1562 60.9863 -31.2988 60.9863 -25.9766 C 60.9863 -20.459 65.9668 -16.4551 72.9492 -16.4551 Z"/>
  </g>
  <g id="Black-S" transform="matrix(1 0 0 1 2884.57 696)">
   <path d="M 48.8281 6.78711 C 71.9727 6.78711 90.8203 -12.0605 90.8203 -35.2051 C 90.8203 -58.3496 71.9727 -77.1973 48.8281 -77.1973 C 25.6836 -77.1973 6.83594 -58.3496 6.83594 -35.2051 C 6.83594 -12.0605 25.6836 6.78711 48.8281 6.78711 Z M 32.373 -20.8008 C 30.1758 -20.8008 28.3691 -22.3145 28.3691 -24.8047 C 28.3691 -26.416 28.9551 -27.7832 30.5176 -29.541 L 36.1328 -36.1816 C 37.8906 -38.2324 39.0137 -39.3555 39.0137 -40.8691 C 39.0137 -41.8945 38.0371 -42.7734 36.8652 -42.7734 C 35.791 -42.7734 34.9121 -42.041 34.6191 -40.9668 C 34.1797 -39.5508 33.1543 -38.4766 31.1523 -38.4766 C 29.1016 -38.4766 27.7832 -39.9414 27.7832 -41.8945 C 27.7832 -42.6758 27.8809 -43.2617 28.0762 -43.9453 C 29.1504 -47.7539 32.8613 -50.2441 37.207 -50.2441 C 42.7246 -50.2441 46.0938 -46.582 46.1914 -41.6016 C 46.2402 -38.3301 44.7754 -35.7422 41.8457 -32.3242 L 38.8184 -28.8086 L 38.8184 -28.418 L 43.1641 -28.418 C 45.6055 -28.418 47.1191 -27.0508 47.1191 -24.707 C 47.1191 -22.2168 45.6055 -20.8008 43.1641 -20.8008 Z M 60.5469 -20.2637 C 54.1992 -20.2637 49.9023 -23.6816 49.9023 -28.8086 C 49.9023 -32.6172 52.2949 -35.0098 55.3223 -35.8887 L 55.3223 -36.2305 C 53.125 -36.7676 50.9766 -39.1602 50.9766 -42.3828 C 50.9766 -47.1191 54.7852 -50.2441 60.5469 -50.2441 C 66.2598 -50.2441 70.0684 -47.1191 70.0684 -42.3828 C 70.0684 -39.1602 67.9688 -36.7676 65.7715 -36.2305 L 65.7715 -35.8887 C 68.7988 -35.0098 71.1426 -32.6172 71.1426 -28.8086 C 71.1426 -23.6816 66.8945 -20.2637 60.5469 -20.2637 Z M 60.5469 -39.3555 C 61.9141 -39.3555 62.7441 -40.2832 62.7441 -41.5527 C 62.7441 -42.8223 61.8652 -43.7988 60.5469 -43.7988 C 59.1797 -43.7988 58.3496 -42.8223 58.3496 -41.5527 C 58.3496 -40.2832 59.1309 -39.3555 60.5469 -39.3555 Z M 60.5469 -26.8066 C 62.0605 -26.8066 63.0859 -27.9785 63.0859 -29.4922 C 63.0859 -31.0547 62.0605 -32.2266 60.5469 -32.2266 C 58.9844 -32.2266 57.959 -31.0547 57.959 -29.4922 C 57.959 -27.9785 58.9844 -26.8066 60.5469 -26.8066 Z"/>
  </g>
  <g id="Heavy-S" transform="matrix(1 0 0 1 2588.47 696)">
   <path d="M 48.2422 6.15234 C 70.9961 6.15234 89.5996 -12.4512 89.5996 -35.2051 C 89.5996 -57.959 70.9961 -76.6113 48.1934 -76.6113 C 25.4395 -76.6113 6.83594 -57.959 6.83594 -35.2051 C 6.83594 -12.4512 25.4395 6.15234 48.2422 6.15234 Z M 30.6152 -20.3125 C 28.5645 -20.3125 26.9531 -21.7285 26.9531 -24.0234 C 26.9531 -25.4395 27.4414 -26.6602 28.8086 -28.1738 L 35.5469 -36.1328 C 37.3047 -38.1836 38.6719 -39.5508 38.6719 -41.3574 C 38.6719 -42.7734 37.5 -43.8965 35.8887 -43.8965 C 34.4727 -43.8965 33.3984 -43.0664 32.8613 -41.5527 C 32.373 -40.1855 31.4453 -39.1602 29.6387 -39.1602 C 27.6855 -39.1602 26.4648 -40.5273 26.4648 -42.4316 C 26.4648 -43.1152 26.5625 -43.7012 26.7578 -44.3359 C 27.832 -48.1934 31.6406 -50.8301 36.084 -50.8301 C 41.8457 -50.8301 45.3613 -47.168 45.459 -42.041 C 45.5078 -38.5254 43.7988 -35.8398 40.918 -32.4707 L 36.8652 -27.7832 L 36.8652 -27.3926 L 42.7734 -27.3926 C 44.9219 -27.3926 46.3379 -26.123 46.3379 -23.9746 C 46.3379 -21.6797 44.9219 -20.3125 42.7734 -20.3125 Z M 60.3516 -19.6777 C 53.8086 -19.6777 49.4629 -23.2422 49.4629 -28.5645 C 49.4629 -32.4219 51.8555 -35.0586 55.2246 -35.9375 L 55.2246 -36.2305 C 52.6367 -36.9141 50.5371 -39.4043 50.5371 -42.7246 C 50.5371 -47.5586 54.4922 -50.8301 60.3516 -50.8301 C 66.2109 -50.8301 70.1172 -47.5586 70.1172 -42.7246 C 70.1172 -39.4043 68.0664 -36.9141 65.5273 -36.2305 L 65.5273 -35.9375 C 68.8477 -35.0586 71.2402 -32.4219 71.2402 -28.5645 C 71.2402 -23.2422 66.8457 -19.6777 60.3516 -19.6777 Z M 60.3516 -39.0625 C 62.0605 -39.0625 63.1836 -40.2832 63.1836 -41.9434 C 63.1836 -43.6035 62.0117 -44.8242 60.3516 -44.8242 C 58.6426 -44.8242 57.5195 -43.6035 57.5195 -41.9434 C 57.5195 -40.2832 58.5938 -39.0625 60.3516 -39.0625 Z M 60.3516 -25.7812 C 62.3535 -25.7812 63.7207 -27.1973 63.7207 -29.1504 C 63.7207 -31.1523 62.3535 -32.6172 60.3516 -32.6172 C 58.3496 -32.6172 56.9824 -31.1523 56.9824 -29.1504 C 56.9824 -27.1973 58.3496 -25.7812 60.3516 -25.7812 Z"/>
  </g>
  <g id="Bold-S" transform="matrix(1 0 0 1 2292.44 696)">
   <path d="M 47.5586 5.46875 C 69.873 5.46875 88.2324 -12.8906 88.2324 -35.2051 C 88.2324 -57.5684 69.873 -75.9277 47.5098 -75.9277 C 25.1953 -75.9277 6.83594 -57.5684 6.83594 -35.2051 C 6.83594 -12.8906 25.1953 5.46875 47.5586 5.46875 Z M 28.6621 -19.8242 C 26.7578 -19.8242 25.3418 -21.0938 25.3418 -23.1445 C 25.3418 -24.3652 25.7812 -25.4395 26.9531 -26.709 L 34.8633 -36.084 C 36.6211 -38.1348 38.3301 -39.7949 38.3301 -41.8457 C 38.3301 -43.75 36.8652 -45.166 34.8145 -45.166 C 33.0078 -45.166 31.6406 -44.1895 30.9082 -42.1875 C 30.3711 -40.8691 29.541 -39.9414 27.9297 -39.9414 C 26.123 -39.9414 25 -41.2109 25 -43.0176 C 25 -43.6523 25.0977 -44.1895 25.2441 -44.7754 C 26.3184 -48.7305 30.3223 -51.4648 34.8633 -51.4648 C 40.8203 -51.4648 44.5801 -47.8027 44.6289 -42.4805 C 44.6289 -38.7695 42.7246 -35.9863 39.8438 -32.666 L 34.668 -26.6113 L 34.668 -26.2695 L 42.2852 -26.2695 C 44.1895 -26.2695 45.5078 -25.0977 45.5078 -23.0957 C 45.5078 -21.0449 44.1895 -19.8242 42.2852 -19.8242 Z M 60.1074 -19.043 C 53.418 -19.043 48.9258 -22.7051 48.9258 -28.2715 C 48.9258 -32.2266 51.3184 -35.1074 55.0781 -35.9863 L 55.0781 -36.2793 C 52.0508 -37.1094 50.0488 -39.6973 50.0488 -43.0664 C 50.0488 -48.0957 54.1504 -51.4648 60.1562 -51.4648 C 66.1133 -51.4648 70.2148 -48.0957 70.2148 -43.0664 C 70.2148 -39.6973 68.2129 -37.0605 65.2344 -36.2793 L 65.2344 -35.9863 C 68.9453 -35.1074 71.3379 -32.2754 71.3379 -28.2715 C 71.3379 -22.7539 66.7969 -19.043 60.1074 -19.043 Z M 60.1562 -38.7207 C 62.2559 -38.7207 63.6719 -40.2832 63.6719 -42.3828 C 63.6719 -44.4336 62.207 -45.9473 60.1562 -45.9473 C 58.0566 -45.9473 56.6406 -44.4336 56.6406 -42.3828 C 56.6406 -40.2832 58.0566 -38.7207 60.1562 -38.7207 Z M 60.2051 -24.6094 C 62.6465 -24.6094 64.4043 -26.3672 64.4043 -28.8086 C 64.4043 -31.25 62.6953 -33.0566 60.2051 -33.0566 C 57.6172 -33.0566 55.8594 -31.25 55.8594 -28.8086 C 55.8594 -26.3672 57.6172 -24.6094 60.2051 -24.6094 Z"/>
  </g>
  <g id="Semibold-S" transform="matrix(1 0 0 1 1996.2 696)">
   <path d="M 47.0703 4.98047 C 69.0918 4.98047 87.3047 -13.1836 87.3047 -35.2539 C 87.3047 -57.2754 69.0918 -75.4883 47.0215 -75.4883 C 25 -75.4883 6.83594 -57.2754 6.83594 -35.2539 C 6.83594 -13.1836 25.0488 4.98047 47.0703 4.98047 Z M 27.3438 -19.4336 C 25.5371 -19.4336 24.2676 -20.6543 24.2676 -22.5098 C 24.2676 -23.584 24.6582 -24.5605 25.6348 -25.6348 L 34.4238 -36.0352 C 36.1816 -38.0859 38.0859 -39.9902 38.0859 -42.2363 C 38.0859 -44.4336 36.4258 -46.0449 34.0332 -46.0449 C 31.9824 -46.0449 30.4688 -44.9707 29.5898 -42.6758 C 29.0039 -41.3574 28.2227 -40.4785 26.7578 -40.4785 C 25.0488 -40.4785 23.9746 -41.6504 23.9746 -43.4082 C 23.9746 -43.9941 24.0723 -44.5312 24.2188 -45.0684 C 25.293 -49.0723 29.3945 -51.9043 33.9844 -51.9043 C 40.1367 -51.9043 43.9941 -48.2422 44.043 -42.8223 C 44.043 -38.916 41.9922 -36.084 39.1113 -32.7637 L 33.1543 -25.8301 L 33.1543 -25.4883 L 41.9922 -25.4883 C 43.7012 -25.4883 44.9219 -24.4141 44.9219 -22.5098 C 44.9219 -20.6055 43.7012 -19.4336 41.9922 -19.4336 Z M 59.9121 -18.6035 C 53.125 -18.6035 48.584 -22.3633 48.584 -28.0762 C 48.584 -32.0801 50.9766 -35.1562 54.9805 -36.0352 L 54.9805 -36.2793 C 51.6602 -37.207 49.7559 -39.8926 49.7559 -43.3594 C 49.7559 -48.4375 53.9062 -51.9043 60.0098 -51.9043 C 66.0645 -51.9043 70.2637 -48.4375 70.2637 -43.3594 C 70.2637 -39.8926 68.3105 -37.1582 65.0391 -36.2793 L 65.0391 -36.0352 C 68.9941 -35.1562 71.3867 -32.1289 71.3867 -28.0762 C 71.3867 -22.4121 66.7969 -18.6035 59.9121 -18.6035 Z M 60.0098 -38.5254 C 62.3535 -38.5254 64.0137 -40.2832 64.0137 -42.6758 C 64.0137 -45.0195 62.3535 -46.6797 60.0098 -46.6797 C 57.666 -46.6797 56.0059 -45.0195 56.0059 -42.6758 C 56.0059 -40.2832 57.6172 -38.5254 60.0098 -38.5254 Z M 60.0586 -23.8281 C 62.8906 -23.8281 64.8926 -25.7812 64.8926 -28.5645 C 64.8926 -31.3477 62.9395 -33.3496 60.0586 -33.3496 C 57.1289 -33.3496 55.127 -31.2988 55.127 -28.5645 C 55.127 -25.7812 57.1289 -23.8281 60.0586 -23.8281 Z"/>
  </g>
  <g id="Medium-S" transform="matrix(1 0 0 1 1699.83 696)">
   <path d="M 46.7285 4.63867 C 68.5547 4.63867 86.6211 -13.4277 86.6211 -35.2539 C 86.6211 -57.0312 68.5059 -75.1465 46.6797 -75.1465 C 24.8535 -75.1465 6.83594 -57.0312 6.83594 -35.2539 C 6.83594 -13.4277 24.9023 4.63867 46.7285 4.63867 Z M 26.3184 -19.1895 C 24.5605 -19.1895 23.4375 -20.3125 23.4375 -22.0703 C 23.4375 -23.0469 23.7793 -23.9258 24.6582 -24.8535 L 34.082 -35.9863 C 35.8398 -38.0371 37.8906 -40.0879 37.8906 -42.4805 C 37.8906 -44.9707 36.1328 -46.6797 33.4961 -46.6797 C 31.2012 -46.6797 29.5898 -45.5566 28.5645 -43.0176 C 27.9297 -41.6992 27.2461 -40.8691 25.8301 -40.8691 C 24.2188 -40.8691 23.1934 -41.9922 23.1934 -43.7012 C 23.1934 -44.2383 23.291 -44.7754 23.4375 -45.3125 C 24.5117 -49.3164 28.6621 -52.2461 33.3496 -52.2461 C 39.5996 -52.2461 43.6035 -48.584 43.6035 -43.0664 C 43.6035 -39.0625 41.4551 -36.1816 38.5742 -32.8613 L 32.0312 -25.2441 L 32.0312 -24.9023 L 41.748 -24.9023 C 43.3105 -24.9023 44.4824 -23.877 44.4824 -22.0703 C 44.4824 -20.2637 43.3105 -19.1895 41.748 -19.1895 Z M 59.8145 -18.2617 C 52.9297 -18.2617 48.3398 -22.1191 48.3398 -27.8809 C 48.3398 -31.9824 50.6836 -35.1562 54.9316 -36.0352 L 54.9316 -36.3281 C 51.3672 -37.3047 49.4629 -40.0391 49.4629 -43.5059 C 49.4629 -48.6816 53.7109 -52.2461 59.9121 -52.2461 C 66.0645 -52.2461 70.2637 -48.6816 70.2637 -43.5059 C 70.2637 -40.0391 68.3594 -37.2559 64.8926 -36.3281 L 64.8926 -36.0352 C 69.043 -35.1562 71.4355 -32.0312 71.4355 -27.9297 C 71.4355 -22.168 66.748 -18.2617 59.8145 -18.2617 Z M 59.9121 -38.3301 C 62.4512 -38.3301 64.2578 -40.2832 64.2578 -42.8711 C 64.2578 -45.459 62.4512 -47.2656 59.9121 -47.2656 C 57.3242 -47.2656 55.5176 -45.459 55.5176 -42.8711 C 55.5176 -40.2832 57.3242 -38.3301 59.9121 -38.3301 Z M 59.9609 -23.2422 C 63.0371 -23.2422 65.2832 -25.3418 65.2832 -28.3691 C 65.2832 -31.3965 63.0859 -33.5449 59.9609 -33.5449 C 56.7871 -33.5449 54.541 -31.3477 54.541 -28.3691 C 54.541 -25.3418 56.7871 -23.2422 59.9609 -23.2422 Z"/>
  </g>
  <g id="Regular-S" transform="matrix(1 0 0 1 1403.58 696)">
   <path d="M 46.2402 4.15039 C 67.7734 4.15039 85.6934 -13.7207 85.6934 -35.2539 C 85.6934 -56.7871 67.7246 -74.6582 46.1914 -74.6582 C 24.707 -74.6582 6.83594 -56.7871 6.83594 -35.2539 C 6.83594 -13.7207 24.7559 4.15039 46.2402 4.15039 Z M 24.9512 -18.7988 C 23.3398 -18.7988 22.3633 -19.873 22.3633 -21.4844 C 22.3633 -22.2656 22.6562 -23.0957 23.3398 -23.8281 L 33.5938 -35.9375 C 35.3516 -38.0371 37.6465 -40.2832 37.6465 -42.8711 C 37.6465 -45.6543 35.6934 -47.5586 32.7148 -47.5586 C 30.1758 -47.5586 28.418 -46.3379 27.2461 -43.457 C 26.5625 -42.1875 25.9766 -41.4062 24.6582 -41.4062 C 23.1445 -41.4062 22.2168 -42.4316 22.2168 -44.0918 C 22.2168 -44.5801 22.3145 -45.1172 22.4121 -45.6055 C 23.4863 -49.6582 27.7344 -52.6855 32.5195 -52.6855 C 38.916 -52.6855 43.0664 -49.0234 43.0664 -43.4082 C 43.0664 -39.209 40.7227 -36.2793 37.8906 -32.959 L 30.5176 -24.4141 L 30.5176 -24.1211 L 41.4062 -24.1211 C 42.8223 -24.1211 43.8965 -23.1445 43.8965 -21.4844 C 43.8965 -19.873 42.8223 -18.7988 41.4062 -18.7988 Z M 59.6191 -17.8223 C 52.6367 -17.8223 47.998 -21.7773 47.998 -27.6855 C 47.998 -31.8359 50.3418 -35.2051 54.834 -36.084 L 54.834 -36.3281 C 50.9766 -37.4512 49.1699 -40.2344 49.1699 -43.7988 C 49.1699 -49.0234 53.5156 -52.6855 59.7656 -52.6855 C 66.0156 -52.6855 70.3125 -49.0234 70.3125 -43.7988 C 70.3125 -40.2344 68.457 -37.3535 64.6973 -36.3281 L 64.6973 -36.084 C 69.0918 -35.2051 71.5332 -31.8848 71.5332 -27.7344 C 71.5332 -21.8262 66.748 -17.8223 59.6191 -17.8223 Z M 59.7656 -38.1348 C 62.5488 -38.1348 64.5996 -40.2344 64.5996 -43.1641 C 64.5996 -46.0449 62.5488 -48.0469 59.7656 -48.0469 C 56.9336 -48.0469 54.9316 -46.0449 54.9316 -43.1641 C 54.9316 -40.2344 56.9336 -38.1348 59.7656 -38.1348 Z M 59.8145 -22.4609 C 63.2324 -22.4609 65.7715 -24.7559 65.7715 -28.125 C 65.7715 -31.4941 63.3301 -33.8379 59.8145 -33.8379 C 56.2988 -33.8379 53.7598 -31.4453 53.7598 -28.125 C 53.7598 -24.7559 56.2988 -22.4609 59.8145 -22.4609 Z"/>
  </g>
  <g id="Light-S" transform="matrix(1 0 0 1 1107.6 696)">
   <path d="M 45.5078 3.4668 C 66.6992 3.4668 84.2285 -14.0625 84.2285 -35.2051 C 84.2285 -56.3965 66.6504 -73.9258 45.5078 -73.9258 C 24.3164 -73.9258 6.83594 -56.3965 6.83594 -35.2051 C 6.83594 -14.0625 24.3652 3.4668 45.5078 3.4668 Z M 24.2188 -18.8965 C 22.9004 -18.8965 22.0703 -19.7754 22.0703 -21.0938 C 22.0703 -21.7773 22.2656 -22.4121 22.8516 -23.0469 L 33.6914 -35.791 C 35.791 -38.1836 37.6953 -40.4297 37.6953 -43.0176 C 37.6953 -46.1914 35.498 -48.291 31.9824 -48.291 C 28.8574 -48.291 26.6113 -46.582 25.7324 -43.4082 C 25.293 -42.334 24.7559 -41.6992 23.6328 -41.6992 C 22.4121 -41.6992 21.6309 -42.5293 21.6309 -43.8965 C 21.6309 -44.3359 21.7285 -44.7754 21.7773 -45.2148 C 22.7539 -49.3652 27.002 -52.4414 31.8359 -52.4414 C 38.0371 -52.4414 42.0898 -48.877 42.0898 -43.3594 C 42.0898 -39.5508 39.9902 -36.6699 36.9141 -33.1055 L 28.6133 -23.4375 L 28.6133 -23.1445 L 40.9668 -23.1445 C 42.0898 -23.1445 42.9688 -22.3633 42.9688 -21.0449 C 42.9688 -19.7754 42.0898 -18.8965 40.9668 -18.8965 Z M 58.8379 -18.0664 C 52.002 -18.0664 47.3145 -22.0215 47.3145 -27.7832 C 47.3145 -31.8848 49.8535 -35.2539 54.1504 -36.084 L 54.1504 -36.3281 C 50.4883 -37.4023 48.5352 -40.2344 48.5352 -43.7012 C 48.5352 -48.8281 52.832 -52.4414 58.9355 -52.4414 C 65.0391 -52.4414 69.3359 -48.8281 69.3359 -43.7012 C 69.3359 -40.2344 67.334 -37.3047 63.7207 -36.3281 L 63.7207 -36.084 C 67.9688 -35.2539 70.5566 -31.8848 70.5566 -27.832 C 70.5566 -22.0703 65.7715 -18.0664 58.8379 -18.0664 Z M 58.9355 -37.793 C 62.3535 -37.793 64.7461 -40.0879 64.7461 -43.2617 C 64.7461 -46.4844 62.3535 -48.6328 58.9355 -48.6328 C 55.5176 -48.6328 53.125 -46.4844 53.125 -43.2617 C 53.125 -40.0879 55.5176 -37.793 58.9355 -37.793 Z M 58.9844 -21.875 C 63.0371 -21.875 66.0156 -24.4141 66.0156 -28.0762 C 66.0156 -31.6895 63.1348 -34.2773 58.9844 -34.2773 C 54.834 -34.2773 51.9043 -31.6406 51.9043 -28.0762 C 51.9043 -24.4141 54.834 -21.875 58.9844 -21.875 Z"/>
  </g>
  <g id="Thin-S" transform="matrix(1 0 0 1 811.867 696)">
   <path d="M 44.5801 2.53906 C 65.2832 2.53906 82.2754 -14.4531 82.2754 -35.2051 C 82.2754 -55.9082 65.2344 -72.9004 44.5312 -72.9004 C 23.8281 -72.9004 6.83594 -55.9082 6.83594 -35.2051 C 6.83594 -14.4531 23.877 2.53906 44.5801 2.53906 Z M 23.2422 -18.9941 C 22.2656 -18.9941 21.6309 -19.6289 21.6309 -20.6055 C 21.6309 -21.1426 21.7773 -21.5332 22.168 -21.9727 L 33.8379 -35.5469 C 36.2793 -38.4277 37.793 -40.5762 37.793 -43.2129 C 37.793 -46.875 35.2051 -49.2188 31.0547 -49.2188 C 27.1484 -49.2188 24.2676 -46.9238 23.7793 -43.4082 C 23.584 -42.5293 23.1445 -42.041 22.3145 -42.041 C 21.3867 -42.041 20.8496 -42.6758 20.8496 -43.6035 C 20.8496 -43.9941 20.8984 -44.3359 20.9961 -44.7266 C 21.7773 -49.0234 26.0254 -52.0996 30.957 -52.0996 C 36.9141 -52.0996 40.8203 -48.6816 40.8203 -43.3594 C 40.8203 -39.9902 39.1113 -37.2559 35.6445 -33.252 L 26.0742 -22.0703 L 26.0742 -21.9238 L 40.3809 -21.9238 C 41.2109 -21.9238 41.7969 -21.3379 41.7969 -20.5078 C 41.7969 -19.6777 41.2109 -18.9941 40.3809 -18.9941 Z M 57.8125 -18.4082 C 51.2207 -18.4082 46.4355 -22.3145 46.4355 -27.9297 C 46.4355 -31.8848 49.2188 -35.2539 53.3203 -36.084 L 53.3203 -36.2793 C 49.8535 -37.3535 47.7051 -40.1855 47.7051 -43.5547 C 47.7051 -48.584 51.9531 -52.0996 57.8613 -52.0996 C 63.7695 -52.0996 68.0664 -48.584 68.0664 -43.5547 C 68.0664 -40.1855 65.8203 -37.2559 62.4512 -36.2793 L 62.4512 -36.084 C 66.5039 -35.2539 69.2871 -31.9336 69.2871 -27.9297 C 69.2871 -22.3633 64.502 -18.4082 57.8125 -18.4082 Z M 57.8613 -37.4023 C 62.0605 -37.4023 64.9414 -39.9414 64.9414 -43.4082 C 64.9414 -46.9727 62.1094 -49.4629 57.8613 -49.4629 C 53.6621 -49.4629 50.7812 -46.9727 50.7812 -43.4082 C 50.7812 -39.9414 53.7109 -37.4023 57.8613 -37.4023 Z M 57.8613 -21.0449 C 62.793 -21.0449 66.3574 -23.9746 66.3574 -28.0273 C 66.3574 -31.9336 62.8418 -34.8145 57.8613 -34.8145 C 52.9785 -34.8145 49.4141 -31.9336 49.4141 -28.0273 C 49.4141 -23.9746 52.9785 -21.0449 57.8613 -21.0449 Z"/>
  </g>
  <g id="Ultralight-S" transform="matrix(1 0 0 1 515.644 696)">
   <path d="M 44.043 2.05078 C 64.502 2.05078 81.2988 -14.6973 81.2988 -35.1562 C 81.2988 -55.6152 64.502 -72.3633 44.043 -72.3633 C 23.584 -72.3633 6.83594 -55.6152 6.83594 -35.1562 C 6.83594 -14.6973 23.584 2.05078 44.043 2.05078 Z M 22.7051 -19.0918 C 21.9238 -19.0918 21.4355 -19.5312 21.4355 -20.3125 C 21.4355 -20.8496 21.5332 -21.0938 21.8262 -21.4355 L 33.9355 -35.4492 C 36.5723 -38.5254 37.8418 -40.7227 37.8418 -43.3105 C 37.8418 -47.2168 35.0586 -49.7559 30.5176 -49.7559 C 26.2207 -49.7559 23.0957 -47.0703 22.8027 -43.3594 C 22.7051 -42.627 22.3145 -42.2363 21.582 -42.2363 C 20.8496 -42.2363 20.459 -42.7734 20.459 -43.457 C 20.459 -43.7988 20.5078 -44.0918 20.5566 -44.4824 C 21.2402 -48.8281 25.4883 -51.9531 30.5176 -51.9531 C 36.3281 -51.9531 40.1855 -48.584 40.1855 -43.3105 C 40.1855 -40.2344 38.623 -37.5488 35.0098 -33.3496 L 24.7559 -21.3867 L 24.7559 -21.2891 L 40.0391 -21.2891 C 40.7227 -21.2891 41.1621 -20.8008 41.1621 -20.166 C 41.1621 -19.5801 40.7227 -19.0918 40.0391 -19.0918 Z M 57.2754 -18.5547 C 50.7812 -18.5547 45.9961 -22.4609 45.9961 -28.0273 C 45.9961 -31.9336 48.9258 -35.3027 52.8809 -36.084 L 52.8809 -36.2793 C 49.5605 -37.3047 47.2656 -40.1855 47.2656 -43.457 C 47.2656 -48.4863 51.5137 -51.9531 57.3242 -51.9531 C 63.1348 -51.9531 67.3828 -48.4863 67.3828 -43.457 C 67.3828 -40.1855 65.0879 -37.207 61.7676 -36.2793 L 61.7676 -36.084 C 65.7715 -35.3027 68.6035 -31.9336 68.6035 -28.0273 C 68.6035 -22.5098 63.8184 -18.5547 57.2754 -18.5547 Z M 57.3242 -37.1582 C 61.9141 -37.1582 65.0391 -39.7949 65.0391 -43.5059 C 65.0391 -47.2656 61.9629 -49.8535 57.3242 -49.8535 C 52.6855 -49.8535 49.6094 -47.2656 49.6094 -43.5059 C 49.6094 -39.7949 52.7344 -37.1582 57.3242 -37.1582 Z M 57.3242 -20.6543 C 62.6953 -20.6543 66.5039 -23.7305 66.5039 -27.9785 C 66.5039 -32.0801 62.6953 -35.1074 57.3242 -35.1074 C 52.002 -35.1074 48.1445 -32.0801 48.1445 -27.9785 C 48.1445 -23.7305 52.002 -20.6543 57.3242 -20.6543 Z"/>
  </g>
 </g>
</svg>
