<?xml version="1.0" encoding="UTF-8"?>
<!--Generator: Apple Native CoreSVG 123-->
<!DOCTYPE svg
PUBLIC "-//W3C//DTD SVG 1.1//EN"
       "http://www.w3.org/Graphics/SVG/1.1/DTD/svg11.dtd">
<svg version="1.1" xmlns="http://www.w3.org/2000/svg" xmlns:xlink="http://www.w3.org/1999/xlink" width="3300" height="2200">
 <!--glyph: "uni100527.medium", point size: 100.000000, font version: "Version 15.0d7e11", template writer version: "5"-->
 <g id="Notes">
  <rect height="2200" id="artboard" style="fill:white;opacity:1" width="3300" x="0" y="0"/>
  <line id="" style="fill:none;stroke:black;opacity:1;stroke-width:0.5;" x1="263" x2="3036" y1="292" y2="292"/>
  <text style="stroke:none;fill:black;font-family:-apple-system,&quot;SF Pro Display&quot;,&quot;SF Pro Text&quot;,Helvetica,sans-serif;font-weight:bold;" transform="matrix(1 0 0 1 263 322)">Weight/Scale Variations</text>
  <text style="stroke:none;fill:black;font-family:-apple-system,&quot;SF Pro Display&quot;,&quot;SF Pro Text&quot;,Helvetica,sans-serif;text-anchor:middle;" transform="matrix(1 0 0 1 559.711 322)">Ultralight</text>
  <text style="stroke:none;fill:black;font-family:-apple-system,&quot;SF Pro Display&quot;,&quot;SF Pro Text&quot;,Helvetica,sans-serif;text-anchor:middle;" transform="matrix(1 0 0 1 856.422 322)">Thin</text>
  <text style="stroke:none;fill:black;font-family:-apple-system,&quot;SF Pro Display&quot;,&quot;SF Pro Text&quot;,Helvetica,sans-serif;text-anchor:middle;" transform="matrix(1 0 0 1 1153.13 322)">Light</text>
  <text style="stroke:none;fill:black;font-family:-apple-system,&quot;SF Pro Display&quot;,&quot;SF Pro Text&quot;,Helvetica,sans-serif;text-anchor:middle;" transform="matrix(1 0 0 1 1449.84 322)">Regular</text>
  <text style="stroke:none;fill:black;font-family:-apple-system,&quot;SF Pro Display&quot;,&quot;SF Pro Text&quot;,Helvetica,sans-serif;text-anchor:middle;" transform="matrix(1 0 0 1 1746.56 322)">Medium</text>
  <text style="stroke:none;fill:black;font-family:-apple-system,&quot;SF Pro Display&quot;,&quot;SF Pro Text&quot;,Helvetica,sans-serif;text-anchor:middle;" transform="matrix(1 0 0 1 2043.27 322)">Semibold</text>
  <text style="stroke:none;fill:black;font-family:-apple-system,&quot;SF Pro Display&quot;,&quot;SF Pro Text&quot;,Helvetica,sans-serif;text-anchor:middle;" transform="matrix(1 0 0 1 2339.98 322)">Bold</text>
  <text style="stroke:none;fill:black;font-family:-apple-system,&quot;SF Pro Display&quot;,&quot;SF Pro Text&quot;,Helvetica,sans-serif;text-anchor:middle;" transform="matrix(1 0 0 1 2636.69 322)">Heavy</text>
  <text style="stroke:none;fill:black;font-family:-apple-system,&quot;SF Pro Display&quot;,&quot;SF Pro Text&quot;,Helvetica,sans-serif;text-anchor:middle;" transform="matrix(1 0 0 1 2933.4 322)">Black</text>
  <line id="" style="fill:none;stroke:black;opacity:1;stroke-width:0.5;" x1="263" x2="3036" y1="1903" y2="1903"/>
  <g id="" transform="matrix(1 0 0 1 263 1933)">
   <path d="M 9.24805 0.830078 C 13.5547 0.830078 17.1387 -2.74414 17.1387 -7.05078 C 17.1387 -11.3574 13.5449 -14.9316 9.23828 -14.9316 C 4.94141 -14.9316 1.36719 -11.3574 1.36719 -7.05078 C 1.36719 -2.74414 4.95117 0.830078 9.24805 0.830078 Z M 9.24805 -0.654297 C 5.70312 -0.654297 2.87109 -3.49609 2.87109 -7.05078 C 2.87109 -10.6055 5.69336 -13.4473 9.23828 -13.4473 C 12.793 -13.4473 15.6348 -10.6055 15.6445 -7.05078 C 15.6543 -3.49609 12.8027 -0.654297 9.24805 -0.654297 Z M 9.22852 -3.42773 C 9.69727 -3.42773 9.9707 -3.74023 9.9707 -4.25781 L 9.9707 -6.31836 L 12.1973 -6.31836 C 12.6953 -6.31836 13.0371 -6.57227 13.0371 -7.04102 C 13.0371 -7.51953 12.7148 -7.7832 12.1973 -7.7832 L 9.9707 -7.7832 L 9.9707 -10.0098 C 9.9707 -10.5273 9.69727 -10.8496 9.22852 -10.8496 C 8.75977 -10.8496 8.50586 -10.5078 8.50586 -10.0098 L 8.50586 -7.7832 L 6.29883 -7.7832 C 5.78125 -7.7832 5.44922 -7.51953 5.44922 -7.04102 C 5.44922 -6.57227 5.80078 -6.31836 6.29883 -6.31836 L 8.50586 -6.31836 L 8.50586 -4.25781 C 8.50586 -3.75977 8.75977 -3.42773 9.22852 -3.42773 Z"/>
  </g>
  <g id="" transform="matrix(1 0 0 1 281.506 1933)">
   <path d="M 11.709 2.91016 C 17.1582 2.91016 21.6699 -1.60156 21.6699 -7.05078 C 21.6699 -12.4902 17.1484 -17.0117 11.6992 -17.0117 C 6.25977 -17.0117 1.74805 -12.4902 1.74805 -7.05078 C 1.74805 -1.60156 6.26953 2.91016 11.709 2.91016 Z M 11.709 1.25 C 7.09961 1.25 3.41797 -2.44141 3.41797 -7.05078 C 3.41797 -11.6504 7.08984 -15.3516 11.6992 -15.3516 C 16.3086 -15.3516 20 -11.6504 20.0098 -7.05078 C 20.0195 -2.44141 16.3184 1.25 11.709 1.25 Z M 11.6895 -2.41211 C 12.207 -2.41211 12.5195 -2.77344 12.5195 -3.33984 L 12.5195 -6.23047 L 15.5762 -6.23047 C 16.123 -6.23047 16.5039 -6.51367 16.5039 -7.03125 C 16.5039 -7.55859 16.1426 -7.86133 15.5762 -7.86133 L 12.5195 -7.86133 L 12.5195 -10.9277 C 12.5195 -11.5039 12.207 -11.8555 11.6895 -11.8555 C 11.1719 -11.8555 10.8789 -11.4844 10.8789 -10.9277 L 10.8789 -7.86133 L 7.83203 -7.86133 C 7.26562 -7.86133 6.89453 -7.55859 6.89453 -7.03125 C 6.89453 -6.51367 7.28516 -6.23047 7.83203 -6.23047 L 10.8789 -6.23047 L 10.8789 -3.33984 C 10.8789 -2.79297 11.1719 -2.41211 11.6895 -2.41211 Z"/>
  </g>
  <g id="" transform="matrix(1 0 0 1 304.924 1933)">
   <path d="M 14.9707 5.67383 C 21.9336 5.67383 27.6953 -0.078125 27.6953 -7.04102 C 27.6953 -14.0039 21.9238 -19.7559 14.9609 -19.7559 C 8.00781 -19.7559 2.25586 -14.0039 2.25586 -7.04102 C 2.25586 -0.078125 8.01758 5.67383 14.9707 5.67383 Z M 14.9707 3.85742 C 8.93555 3.85742 4.08203 -1.00586 4.08203 -7.04102 C 4.08203 -13.0762 8.92578 -17.9395 14.9609 -17.9395 C 21.0059 -17.9395 25.8594 -13.0762 25.8691 -7.04102 C 25.8789 -1.00586 21.0156 3.85742 14.9707 3.85742 Z M 14.9512 -1.06445 C 15.5176 -1.06445 15.8691 -1.45508 15.8691 -2.06055 L 15.8691 -6.13281 L 20.1074 -6.13281 C 20.6934 -6.13281 21.1133 -6.46484 21.1133 -7.02148 C 21.1133 -7.59766 20.7227 -7.93945 20.1074 -7.93945 L 15.8691 -7.93945 L 15.8691 -12.1875 C 15.8691 -12.8027 15.5176 -13.1934 14.9512 -13.1934 C 14.3848 -13.1934 14.0625 -12.7832 14.0625 -12.1875 L 14.0625 -7.93945 L 9.83398 -7.93945 C 9.21875 -7.93945 8.80859 -7.59766 8.80859 -7.02148 C 8.80859 -6.46484 9.23828 -6.13281 9.83398 -6.13281 L 14.0625 -6.13281 L 14.0625 -2.06055 C 14.0625 -1.47461 14.3848 -1.06445 14.9512 -1.06445 Z"/>
  </g>
  <text style="stroke:none;fill:black;font-family:-apple-system,&quot;SF Pro Display&quot;,&quot;SF Pro Text&quot;,Helvetica,sans-serif;font-weight:bold;" transform="matrix(1 0 0 1 263 1953)">Design Variations</text>
  <text style="stroke:none;fill:black;font-family:-apple-system,&quot;SF Pro Display&quot;,&quot;SF Pro Text&quot;,Helvetica,sans-serif;" transform="matrix(1 0 0 1 263 1971)">Symbols are supported in up to nine weights and three scales.</text>
  <text style="stroke:none;fill:black;font-family:-apple-system,&quot;SF Pro Display&quot;,&quot;SF Pro Text&quot;,Helvetica,sans-serif;" transform="matrix(1 0 0 1 263 1989)">For optimal layout with text and other symbols, vertically align</text>
  <text style="stroke:none;fill:black;font-family:-apple-system,&quot;SF Pro Display&quot;,&quot;SF Pro Text&quot;,Helvetica,sans-serif;" transform="matrix(1 0 0 1 263 2007)">symbols with the adjacent text.</text>
  <rect height="14" id="" style="fill:#00AEEF;stroke:none;opacity:0.4;" width="3" x="776" y="1919"/>
  <g id="" transform="matrix(1 0 0 1 779 1933)">
   <path d="M 10.5273 0 L 12.373 0 L 7.17773 -14.0918 L 5.43945 -14.0918 L 0.244141 0 L 2.08984 0 L 3.50586 -4.0332 L 9.11133 -4.0332 Z M 6.2793 -11.9531 L 6.33789 -11.9531 L 8.59375 -5.52734 L 4.02344 -5.52734 Z"/>
  </g>
  <rect height="14" id="" style="fill:#00AEEF;stroke:none;opacity:0.4;" width="3" x="791.617" y="1919"/>
  <text style="stroke:none;fill:black;font-family:-apple-system,&quot;SF Pro Display&quot;,&quot;SF Pro Text&quot;,Helvetica,sans-serif;font-weight:bold;" transform="matrix(1 0 0 1 776 1953)">Margins</text>
  <text style="stroke:none;fill:black;font-family:-apple-system,&quot;SF Pro Display&quot;,&quot;SF Pro Text&quot;,Helvetica,sans-serif;" transform="matrix(1 0 0 1 776 1971)">Leading and trailing margins on the left and right side of each symbol</text>
  <text style="stroke:none;fill:black;font-family:-apple-system,&quot;SF Pro Display&quot;,&quot;SF Pro Text&quot;,Helvetica,sans-serif;" transform="matrix(1 0 0 1 776 1989)">can be adjusted by modifying the width of the blue rectangles.</text>
  <text style="stroke:none;fill:black;font-family:-apple-system,&quot;SF Pro Display&quot;,&quot;SF Pro Text&quot;,Helvetica,sans-serif;" transform="matrix(1 0 0 1 776 2007)">Modifications are automatically applied proportionally to all</text>
  <text style="stroke:none;fill:black;font-family:-apple-system,&quot;SF Pro Display&quot;,&quot;SF Pro Text&quot;,Helvetica,sans-serif;" transform="matrix(1 0 0 1 776 2025)">scales and weights.</text>
  <g id="" transform="matrix(1 0 0 1 1289 1933)">
   <path d="M 2.83203 3.11523 L 4.375 4.6582 C 5.22461 5.48828 6.19141 5.41992 7.06055 4.46289 L 17.2754 -6.66016 C 17.7051 -6.36719 18.0957 -6.37695 18.5645 -6.47461 L 19.6094 -6.68945 L 20.3027 -5.99609 L 20.2539 -5.47852 C 20.1855 -4.95117 20.3516 -4.53125 20.8496 -4.0332 L 21.6602 -3.22266 C 22.168 -2.71484 22.8223 -2.68555 23.3008 -3.16406 L 26.5527 -6.41602 C 27.0312 -6.89453 27.0117 -7.54883 26.5039 -8.05664 L 25.6836 -8.87695 C 25.1855 -9.375 24.7754 -9.55078 24.2383 -9.47266 L 23.7109 -9.41406 L 23.0566 -10.0781 L 23.3398 -11.2207 C 23.4863 -11.7871 23.3398 -12.2559 22.7148 -12.8613 L 20.3027 -15.2539 C 16.7578 -18.7793 12.2266 -18.6719 9.11133 -15.5371 C 8.69141 -15.1074 8.64258 -14.5215 8.91602 -14.0918 C 9.15039 -13.7207 9.62891 -13.4961 10.2734 -13.6621 C 11.7871 -14.043 13.3008 -13.9258 14.7852 -12.9199 L 14.1602 -11.3379 C 13.9258 -10.752 13.9453 -10.2734 14.1797 -9.83398 L 3.01758 0.439453 C 2.08008 1.30859 1.97266 2.25586 2.83203 3.11523 Z M 10.6738 -15.1465 C 13.3398 -17.1387 16.6504 -16.8262 19.0527 -14.4141 L 21.6797 -11.8066 C 21.9141 -11.5723 21.9434 -11.3867 21.8848 -11.0938 L 21.5039 -9.53125 L 23.0762 -7.95898 L 24.043 -8.04688 C 24.3262 -8.07617 24.4141 -8.05664 24.6387 -7.83203 L 25.2637 -7.20703 L 22.5098 -4.46289 L 21.8848 -5.07812 C 21.6602 -5.30273 21.6406 -5.40039 21.6699 -5.68359 L 21.7578 -6.64062 L 20.1953 -8.20312 L 18.5742 -7.89062 C 18.291 -7.83203 18.1445 -7.83203 17.9102 -8.07617 L 15.7324 -10.2539 C 15.5078 -10.4883 15.4785 -10.625 15.6055 -10.9473 L 16.5527 -13.2227 C 14.9512 -14.7559 12.8418 -15.6055 10.8008 -14.9512 C 10.7129 -14.9219 10.6445 -14.9414 10.6152 -14.9805 C 10.5859 -15.0293 10.5859 -15.0781 10.6738 -15.1465 Z M 4.10156 2.41211 C 3.61328 1.91406 3.78906 1.61133 4.12109 1.30859 L 15.0781 -8.80859 L 16.3086 -7.57812 L 6.15234 3.34961 C 5.84961 3.68164 5.46875 3.7793 5.06836 3.37891 Z"/>
  </g>
  <text style="stroke:none;fill:black;font-family:-apple-system,&quot;SF Pro Display&quot;,&quot;SF Pro Text&quot;,Helvetica,sans-serif;font-weight:bold;" transform="matrix(1 0 0 1 1289 1953)">Exporting</text>
  <text style="stroke:none;fill:black;font-family:-apple-system,&quot;SF Pro Display&quot;,&quot;SF Pro Text&quot;,Helvetica,sans-serif;" transform="matrix(1 0 0 1 1289 1971)">Symbols should be outlined when exporting to ensure the</text>
  <text style="stroke:none;fill:black;font-family:-apple-system,&quot;SF Pro Display&quot;,&quot;SF Pro Text&quot;,Helvetica,sans-serif;" transform="matrix(1 0 0 1 1289 1989)">design is preserved when submitting to Xcode.</text>
  <text id="template-version" style="stroke:none;fill:black;font-family:-apple-system,&quot;SF Pro Display&quot;,&quot;SF Pro Text&quot;,Helvetica,sans-serif;text-anchor:end;" transform="matrix(1 0 0 1 3036 1933)">Template v.1.0</text>
  <text style="stroke:none;fill:black;font-family:-apple-system,&quot;SF Pro Display&quot;,&quot;SF Pro Text&quot;,Helvetica,sans-serif;text-anchor:end;" transform="matrix(1 0 0 1 3036 1951)">Generated from 29.circle.fill</text>
  <text style="stroke:none;fill:black;font-family:-apple-system,&quot;SF Pro Display&quot;,&quot;SF Pro Text&quot;,Helvetica,sans-serif;text-anchor:end;" transform="matrix(1 0 0 1 3036 1969)">Typeset at 100 points</text>
  <text style="stroke:none;fill:black;font-family:-apple-system,&quot;SF Pro Display&quot;,&quot;SF Pro Text&quot;,Helvetica,sans-serif;" transform="matrix(1 0 0 1 263 726)">Small</text>
  <text style="stroke:none;fill:black;font-family:-apple-system,&quot;SF Pro Display&quot;,&quot;SF Pro Text&quot;,Helvetica,sans-serif;" transform="matrix(1 0 0 1 263 1156)">Medium</text>
  <text style="stroke:none;fill:black;font-family:-apple-system,&quot;SF Pro Display&quot;,&quot;SF Pro Text&quot;,Helvetica,sans-serif;" transform="matrix(1 0 0 1 263 1586)">Large</text>
 </g>
 <g id="Guides">
  <g id="H-reference" style="fill:#27AAE1;stroke:none;" transform="matrix(1 0 0 1 339 696)">
   <path d="M 54.9316 0 L 57.666 0 L 30.5664 -70.459 L 28.0762 -70.459 L 0.976562 0 L 3.66211 0 L 12.9395 -24.4629 L 45.7031 -24.4629 Z M 29.1992 -67.0898 L 29.4434 -67.0898 L 44.8242 -26.709 L 13.8184 -26.709 Z"/>
  </g>
  <line id="Baseline-S" style="fill:none;stroke:#27AAE1;opacity:1;stroke-width:0.577;" x1="263" x2="3036" y1="696" y2="696"/>
  <line id="Capline-S" style="fill:none;stroke:#27AAE1;opacity:1;stroke-width:0.577;" x1="263" x2="3036" y1="625.541" y2="625.541"/>
  <g id="H-reference" style="fill:#27AAE1;stroke:none;" transform="matrix(1 0 0 1 339 1126)">
   <path d="M 54.9316 0 L 57.666 0 L 30.5664 -70.459 L 28.0762 -70.459 L 0.976562 0 L 3.66211 0 L 12.9395 -24.4629 L 45.7031 -24.4629 Z M 29.1992 -67.0898 L 29.4434 -67.0898 L 44.8242 -26.709 L 13.8184 -26.709 Z"/>
  </g>
  <line id="Baseline-M" style="fill:none;stroke:#27AAE1;opacity:1;stroke-width:0.577;" x1="263" x2="3036" y1="1126" y2="1126"/>
  <line id="Capline-M" style="fill:none;stroke:#27AAE1;opacity:1;stroke-width:0.577;" x1="263" x2="3036" y1="1055.54" y2="1055.54"/>
  <g id="H-reference" style="fill:#27AAE1;stroke:none;" transform="matrix(1 0 0 1 339 1556)">
   <path d="M 54.9316 0 L 57.666 0 L 30.5664 -70.459 L 28.0762 -70.459 L 0.976562 0 L 3.66211 0 L 12.9395 -24.4629 L 45.7031 -24.4629 Z M 29.1992 -67.0898 L 29.4434 -67.0898 L 44.8242 -26.709 L 13.8184 -26.709 Z"/>
  </g>
  <line id="Baseline-L" style="fill:none;stroke:#27AAE1;opacity:1;stroke-width:0.577;" x1="263" x2="3036" y1="1556" y2="1556"/>
  <line id="Capline-L" style="fill:none;stroke:#27AAE1;opacity:1;stroke-width:0.577;" x1="263" x2="3036" y1="1485.54" y2="1485.54"/>
  <rect height="119.336" id="left-margin" style="fill:#00AEEF;stroke:none;opacity:0.4;" width="8.74023" x="1391.3" y="1030.79"/>
  <rect height="119.336" id="right-margin" style="fill:#00AEEF;stroke:none;opacity:0.4;" width="8.74023" x="1499.65" y="1030.79"/>
 </g>
 <g id="Symbols">
  <g id="Black-L" transform="matrix(1 0 0 1 2854.05 1556)">
   <path d="M 79.3457 32.8613 C 116.748 32.8613 147.412 2.19727 147.412 -35.2051 C 147.412 -72.6074 116.748 -103.271 79.2969 -103.271 C 41.8945 -103.271 11.2793 -72.6074 11.2793 -35.2051 C 11.2793 2.19727 41.9434 32.8613 79.3457 32.8613 Z M 50.8301 -10.5469 C 47.4609 -10.5469 44.8242 -12.8418 44.8242 -16.6016 C 44.8242 -18.8965 45.6543 -20.8984 47.8027 -23.3398 L 59.1797 -36.7188 C 61.9629 -40.0879 64.4043 -42.4316 64.4043 -45.4102 C 64.4043 -47.8516 62.3535 -49.7559 59.668 -49.7559 C 57.2754 -49.7559 55.4688 -48.3398 54.541 -45.8008 C 53.7598 -43.5059 52.2461 -41.8945 49.3164 -41.8945 C 46.0938 -41.8945 44.043 -44.0918 44.043 -47.2168 C 44.043 -48.3887 44.2383 -49.3164 44.5312 -50.3418 C 46.3379 -56.7383 52.6367 -61.084 60.0098 -61.084 C 69.5312 -61.084 75.3418 -55.0293 75.4883 -46.5332 C 75.5371 -40.7227 72.7539 -36.2793 67.9688 -30.7129 L 61.084 -22.7539 L 61.084 -22.1191 L 71.0938 -22.1191 C 74.707 -22.1191 76.9531 -20.0684 76.9531 -16.5039 C 76.9531 -12.7441 74.707 -10.5469 71.0938 -10.5469 Z M 97.9492 -9.47266 C 90.1367 -9.47266 85.4492 -13.0371 84.0332 -16.4062 C 83.4473 -17.6758 83.1055 -18.8477 83.1055 -19.873 C 83.1055 -22.7539 85.1562 -24.9023 88.2812 -24.9023 C 89.8926 -24.9023 91.5527 -24.2676 92.9688 -22.5098 C 94.1895 -20.9961 95.6543 -20.166 97.8027 -20.166 C 103.369 -20.166 105.518 -27.1484 105.518 -34.2285 L 105.176 -34.2285 C 103.906 -30.2734 100.537 -27.7344 95.5078 -27.7344 C 87.4023 -27.7344 81.6895 -33.7891 81.6895 -43.4082 C 81.6895 -54.4434 88.5742 -61.084 98.6328 -61.084 C 110.986 -61.084 116.748 -51.709 116.748 -36.7676 C 116.748 -19.3848 110.205 -9.47266 97.9492 -9.47266 Z M 98.9746 -37.4512 C 102.295 -37.4512 104.639 -40.1367 104.639 -44.043 C 104.639 -48.0469 102.295 -50.7324 98.9746 -50.7324 C 95.752 -50.7324 93.5059 -48.0957 93.5059 -44.043 C 93.5059 -40.1367 95.8008 -37.4512 98.9746 -37.4512 Z"/>
  </g>
  <g id="Heavy-L" transform="matrix(1 0 0 1 2558.39 1556)">
   <path d="M 78.2715 31.7871 C 115.088 31.7871 145.312 1.61133 145.312 -35.2051 C 145.312 -72.0215 115.039 -102.197 78.2715 -102.197 C 41.4551 -102.197 11.2793 -72.0215 11.2793 -35.2051 C 11.2793 1.61133 41.5039 31.7871 78.2715 31.7871 Z M 48.3398 -10.0586 C 45.2637 -10.0586 42.9199 -12.1094 42.9199 -15.4785 C 42.9199 -17.4805 43.6523 -19.2871 45.5078 -21.3867 L 58.4473 -36.5723 C 61.377 -40.0879 63.9648 -42.7246 63.9648 -46.0449 C 63.9648 -49.1699 61.5723 -51.416 58.1055 -51.416 C 55.0293 -51.416 52.7832 -49.707 51.7578 -46.4844 C 50.9766 -44.3359 49.6094 -42.8223 46.9238 -42.8223 C 44.043 -42.8223 42.1387 -44.873 42.1387 -47.7539 C 42.1387 -48.7793 42.334 -49.707 42.5781 -50.6348 C 44.3359 -57.1289 50.8301 -61.6699 58.3008 -61.6699 C 67.9688 -61.6699 74.0234 -55.6641 74.1211 -47.0215 C 74.1699 -41.1133 71.2402 -36.6211 66.3574 -30.957 L 57.8125 -21.0938 L 57.8125 -20.5078 L 70.3613 -20.5078 C 73.5352 -20.5078 75.5859 -18.6035 75.5859 -15.3809 C 75.5859 -12.0117 73.5352 -10.0586 70.3613 -10.0586 Z M 97.6074 -8.88672 C 89.5996 -8.88672 84.7168 -12.7441 83.3008 -16.1621 C 82.8125 -17.334 82.4707 -18.457 82.4707 -19.4336 C 82.4707 -22.1191 84.3262 -24.0723 87.1582 -24.0723 C 88.7695 -24.0723 90.2832 -23.3887 91.5527 -21.6797 C 92.9199 -19.7754 94.8242 -18.6035 97.4609 -18.6035 C 103.613 -18.6035 106.494 -25.8301 106.494 -34.6191 L 106.152 -34.6191 C 104.736 -30.4199 101.025 -27.5879 95.459 -27.5879 C 87.1582 -27.5879 81.0059 -33.7891 81.0059 -43.7012 C 81.0059 -54.834 88.0371 -61.6699 98.2422 -61.6699 C 110.596 -61.6699 116.699 -52.3926 116.699 -36.9629 C 116.699 -18.8965 110.01 -8.88672 97.6074 -8.88672 Z M 98.6328 -36.4258 C 102.734 -36.4258 105.615 -39.6973 105.615 -44.2871 C 105.615 -49.0234 102.734 -52.2461 98.6328 -52.2461 C 94.5312 -52.2461 91.748 -49.0723 91.748 -44.3359 C 91.748 -39.6973 94.5801 -36.4258 98.6328 -36.4258 Z"/>
  </g>
  <g id="Bold-L" transform="matrix(1 0 0 1 2262.88 1556)">
   <path d="M 77.0996 30.6152 C 113.232 30.6152 142.92 0.878906 142.92 -35.2051 C 142.92 -71.3379 113.184 -101.025 77.0508 -101.025 C 40.9668 -101.025 11.2793 -71.3379 11.2793 -35.2051 C 11.2793 0.878906 41.0156 30.6152 77.0996 30.6152 Z M 45.5566 -9.47266 C 42.8223 -9.47266 40.8203 -11.2793 40.8203 -14.209 C 40.8203 -15.9668 41.4062 -17.4316 42.9199 -19.1895 L 57.6172 -36.4258 C 60.7422 -40.0879 63.5254 -43.1152 63.5254 -46.7285 C 63.5254 -50.5859 60.6445 -53.2715 56.3965 -53.2715 C 52.5391 -53.2715 49.7559 -51.1719 48.6328 -47.2656 C 47.8516 -45.2148 46.6797 -43.8965 44.2871 -43.8965 C 41.6992 -43.8965 40.0391 -45.7031 40.0391 -48.3398 C 40.0391 -49.2676 40.1855 -50.0977 40.3809 -50.9766 C 42.0898 -57.6172 48.7793 -62.3047 56.4453 -62.3047 C 66.2598 -62.3047 72.5098 -56.3477 72.5586 -47.6074 C 72.6074 -41.5527 69.5312 -36.9629 64.5508 -31.25 L 54.1504 -19.1895 L 54.1504 -18.6523 L 69.4824 -18.6523 C 72.2168 -18.6523 74.0723 -16.9922 74.0723 -14.1602 C 74.0723 -11.2305 72.2168 -9.47266 69.4824 -9.47266 Z M 97.168 -8.25195 C 88.9648 -8.25195 83.9355 -12.4512 82.5195 -15.918 C 82.0801 -16.9922 81.7383 -18.0176 81.7383 -18.9453 C 81.7383 -21.3867 83.3984 -23.1445 85.8887 -23.1445 C 87.4512 -23.1445 88.8672 -22.4609 89.9902 -20.752 C 91.4551 -18.4082 93.8965 -16.8945 97.0703 -16.8945 C 103.955 -16.8945 107.666 -24.4141 107.617 -35.1074 L 107.275 -35.1074 C 105.615 -30.6152 101.611 -27.4414 95.4102 -27.4414 C 86.9141 -27.4414 80.2246 -33.7891 80.2246 -44.0918 C 80.2246 -55.2734 87.4023 -62.3047 97.8516 -62.3047 C 110.107 -62.3047 116.65 -53.125 116.65 -37.1582 C 116.65 -18.3594 109.814 -8.25195 97.168 -8.25195 Z M 98.2422 -35.3027 C 103.223 -35.3027 106.738 -39.1602 106.738 -44.5312 C 106.738 -50.0488 103.174 -53.9551 98.2422 -53.9551 C 93.2129 -53.9551 89.7949 -50.1953 89.7949 -44.5801 C 89.7949 -39.1602 93.2129 -35.3027 98.2422 -35.3027 Z"/>
  </g>
  <g id="Semibold-L" transform="matrix(1 0 0 1 1966.97 1556)">
   <path d="M 76.2695 29.7852 C 111.914 29.7852 141.309 0.439453 141.309 -35.2051 C 141.309 -70.8496 111.865 -100.244 76.2695 -100.244 C 40.625 -100.244 11.2793 -70.8496 11.2793 -35.2051 C 11.2793 0.439453 40.6738 29.7852 76.2695 29.7852 Z M 43.6523 -9.0332 C 41.1133 -9.0332 39.3066 -10.7422 39.3066 -13.3789 C 39.3066 -14.8926 39.8438 -16.2109 41.1621 -17.627 L 57.0801 -36.2793 C 60.3027 -40.1367 63.1836 -43.3594 63.1836 -47.2168 C 63.1836 -51.6113 60.0098 -54.5898 55.1758 -54.5898 C 50.8301 -54.5898 47.7051 -52.1973 46.4355 -47.8027 C 45.7031 -45.8496 44.6289 -44.6289 42.4805 -44.6289 C 40.0879 -44.6289 38.5742 -46.2891 38.5742 -48.7305 C 38.5742 -49.6094 38.7207 -50.3906 38.916 -51.2207 C 40.5762 -57.9102 47.3633 -62.7441 55.127 -62.7441 C 65.0879 -62.7441 71.4844 -56.8359 71.5332 -47.9492 C 71.5332 -41.8945 68.3594 -37.2559 63.3301 -31.3965 L 51.6602 -17.8711 L 51.6602 -17.3828 L 68.9453 -17.3828 C 71.3379 -17.3828 72.998 -15.8691 72.998 -13.3301 C 72.998 -10.6934 71.3379 -9.0332 68.9453 -9.0332 Z M 96.875 -7.76367 C 88.5254 -7.76367 83.3496 -12.207 81.9824 -15.7227 C 81.543 -16.748 81.25 -17.7246 81.25 -18.6035 C 81.25 -20.8496 82.7637 -22.5098 85.0098 -22.5098 C 86.5723 -22.5098 87.8906 -21.8262 88.916 -20.1172 C 90.4785 -17.4316 93.2617 -15.7227 96.7773 -15.7227 C 104.15 -15.7227 108.447 -23.4375 108.398 -35.4004 L 108.008 -35.4004 C 106.25 -30.7129 102.002 -27.2949 95.4102 -27.2949 C 86.7188 -27.2949 79.6875 -33.7891 79.6875 -44.3359 C 79.6875 -55.5664 86.9629 -62.7441 97.5586 -62.7441 C 109.814 -62.7441 116.602 -53.6621 116.602 -37.2559 C 116.602 -17.9688 109.717 -7.76367 96.875 -7.76367 Z M 97.9492 -34.5215 C 103.564 -34.5215 107.52 -38.7695 107.52 -44.7266 C 107.52 -50.7812 103.516 -55.127 97.998 -55.127 C 92.2852 -55.127 88.4766 -50.9766 88.4766 -44.7754 C 88.4766 -38.7695 92.2852 -34.5215 97.9492 -34.5215 Z"/>
  </g>
  <g id="Medium-L" transform="matrix(1 0 0 1 1670.87 1556)">
   <path d="M 75.6836 29.1992 C 110.938 29.1992 140.088 0.0488281 140.088 -35.2051 C 140.088 -70.459 110.889 -99.6094 75.6348 -99.6094 C 40.3809 -99.6094 11.2793 -70.459 11.2793 -35.2051 C 11.2793 0.0488281 40.3809 29.1992 75.6836 29.1992 Z M 42.1875 -8.74023 C 39.7949 -8.74023 38.2324 -10.3027 38.2324 -12.6953 C 38.2324 -14.0625 38.6719 -15.2344 39.7949 -16.5039 L 56.6406 -36.2305 C 59.9609 -40.1367 62.9395 -43.5547 62.9395 -47.6074 C 62.9395 -52.3438 59.5703 -55.5664 54.2969 -55.5664 C 49.5117 -55.5664 46.0938 -52.9785 44.8242 -48.1934 C 44.043 -46.3379 43.0664 -45.166 41.1133 -45.166 C 38.8672 -45.166 37.4512 -46.7285 37.4512 -49.0234 C 37.4512 -49.8535 37.5977 -50.5859 37.7441 -51.416 C 39.4043 -58.1543 46.2891 -63.0859 54.1504 -63.0859 C 64.209 -63.0859 70.7031 -57.2266 70.7031 -48.2422 C 70.752 -42.0898 67.4805 -37.4512 62.4023 -31.543 L 49.7559 -16.8945 L 49.7559 -16.4551 L 68.5059 -16.4551 C 70.6543 -16.4551 72.168 -15.0391 72.168 -12.6465 C 72.168 -10.3027 70.6543 -8.74023 68.5059 -8.74023 Z M 96.6309 -7.4707 C 88.2324 -7.4707 82.9102 -12.0605 81.543 -15.625 C 81.2012 -16.5527 80.9082 -17.5293 80.9082 -18.3105 C 80.9082 -20.459 82.2754 -22.0215 84.375 -22.0215 C 85.9375 -22.0215 87.1582 -21.3379 88.0859 -19.6289 C 89.6973 -16.748 92.7734 -14.8438 96.582 -14.8438 C 104.297 -14.8438 109.033 -22.7051 108.936 -35.6445 L 108.594 -35.6445 C 106.738 -30.8105 102.344 -27.2461 95.3613 -27.2461 C 86.6211 -27.2461 79.2969 -33.7891 79.2969 -44.4824 C 79.2969 -55.7617 86.6211 -63.0859 97.3633 -63.0859 C 109.57 -63.0859 116.602 -54.0527 116.602 -37.3535 C 116.602 -17.6758 109.619 -7.4707 96.6309 -7.4707 Z M 97.7539 -33.8867 C 103.809 -33.8867 108.105 -38.4766 108.105 -44.8242 C 108.105 -51.3672 103.76 -56.0059 97.8027 -56.0059 C 91.6016 -56.0059 87.4512 -51.5625 87.4512 -44.9219 C 87.4512 -38.4766 91.6016 -33.8867 97.7539 -33.8867 Z"/>
  </g>
  <g id="Regular-L" transform="matrix(1 0 0 1 1374.97 1556)">
   <path d="M 74.8535 28.3691 C 109.668 28.3691 138.477 -0.390625 138.477 -35.2051 C 138.477 -70.0195 109.619 -98.7793 74.8047 -98.7793 C 40.0391 -98.7793 11.2793 -70.0195 11.2793 -35.2051 C 11.2793 -0.390625 40.0879 28.3691 74.8535 28.3691 Z M 40.2832 -8.34961 C 38.1348 -8.34961 36.7676 -9.7168 36.7676 -11.8652 C 36.7676 -13.0371 37.1094 -14.0137 38.0371 -14.9902 L 56.0547 -36.084 C 59.5215 -40.1367 62.6465 -43.7988 62.6465 -48.0957 C 62.6465 -53.3691 58.9355 -56.8359 53.0762 -56.8359 C 47.8516 -56.8359 44.043 -53.9551 42.6758 -48.7305 C 41.8945 -46.9727 41.0645 -45.8984 39.3066 -45.8984 C 37.2559 -45.8984 35.9863 -47.3145 35.9863 -49.4629 C 35.9863 -50.1465 36.1328 -50.8789 36.2793 -51.6113 C 37.8906 -58.4961 44.9219 -63.5254 52.832 -63.5254 C 63.0371 -63.5254 69.6777 -57.666 69.6777 -48.6328 C 69.6777 -42.4316 66.3086 -37.6953 61.1816 -31.7383 L 47.2656 -15.5762 L 47.2656 -15.1855 L 67.9199 -15.1855 C 69.7754 -15.1855 71.1426 -13.916 71.1426 -11.8164 C 71.1426 -9.76562 69.7754 -8.34961 67.9199 -8.34961 Z M 96.3379 -6.98242 C 87.793 -6.98242 82.373 -11.8164 81.0059 -15.4297 C 80.7129 -16.3086 80.4199 -17.2363 80.4199 -17.9688 C 80.4199 -19.9707 81.6406 -21.3867 83.4961 -21.3867 C 85.0586 -21.3867 86.1816 -20.7031 87.0605 -18.9941 C 88.7207 -15.8203 92.1387 -13.6719 96.2891 -13.6719 C 104.541 -13.6719 109.814 -21.7285 109.717 -35.9375 L 109.326 -35.9375 C 107.324 -30.957 102.734 -27.0996 95.3613 -27.0996 C 86.4258 -27.0996 78.8086 -33.7891 78.8086 -44.7266 C 78.8086 -56.1035 86.1816 -63.5254 97.1191 -63.5254 C 109.277 -63.5254 116.553 -54.541 116.553 -37.5 C 116.553 -17.334 109.473 -6.98242 96.3379 -6.98242 Z M 97.4609 -33.1055 C 104.15 -33.1055 108.887 -38.1348 108.887 -45.0195 C 108.887 -52.0996 104.053 -57.1777 97.5586 -57.1777 C 90.6738 -57.1777 86.1328 -52.3438 86.1328 -45.1172 C 86.1328 -38.1348 90.6738 -33.1055 97.4609 -33.1055 Z"/>
  </g>
  <g id="Light-L" transform="matrix(1 0 0 1 1079.18 1556)">
   <path d="M 73.9258 27.4902 C 108.301 27.4902 136.621 -0.830078 136.621 -35.1562 C 136.621 -69.5312 108.252 -97.8516 73.9258 -97.8516 C 39.5508 -97.8516 11.2793 -69.5312 11.2793 -35.1562 C 11.2793 -0.830078 39.5996 27.4902 73.9258 27.4902 Z M 39.209 -8.44727 C 37.4023 -8.44727 36.2305 -9.57031 36.2305 -11.377 C 36.2305 -12.4023 36.5234 -13.1836 37.2559 -13.9648 L 56.0547 -35.8887 C 59.8633 -40.3809 62.5488 -43.9453 62.5488 -48.291 C 62.5488 -54.0039 58.5449 -57.7637 52.0508 -57.7637 C 46.0449 -57.7637 41.6992 -54.2969 40.6738 -48.6816 C 40.1367 -47.168 39.4043 -46.2402 37.8418 -46.2402 C 36.1816 -46.2402 35.1074 -47.4609 35.1074 -49.1699 C 35.1074 -49.8047 35.2539 -50.4395 35.3516 -51.1719 C 36.8164 -58.1543 43.8477 -63.2324 51.9043 -63.2324 C 61.8164 -63.2324 68.3594 -57.4707 68.3594 -48.584 C 68.3594 -42.8223 65.2832 -38.2324 59.8145 -31.8848 L 44.6777 -14.3066 L 44.6777 -14.0137 L 67.2363 -14.0137 C 68.75 -14.0137 69.873 -12.9395 69.873 -11.2793 C 69.873 -9.61914 68.75 -8.44727 67.2363 -8.44727 Z M 95.4102 -7.32422 C 87.6465 -7.32422 82.1289 -11.7676 80.4199 -15.2832 C 80.0293 -16.2109 79.6875 -17.1875 79.6875 -18.0664 C 79.6875 -19.6289 80.6641 -20.752 82.1777 -20.752 C 83.4473 -20.752 84.375 -20.1172 85.1074 -18.6523 C 86.8652 -15.0879 90.7715 -12.7441 95.3613 -12.7441 C 104.443 -12.7441 110.01 -21.0938 109.961 -36.7676 L 109.668 -36.7676 C 107.373 -31.1035 102.295 -27.3438 94.7266 -27.3438 C 85.4492 -27.3438 77.9785 -34.375 77.9785 -44.873 C 77.9785 -55.8105 85.498 -63.2324 96.1914 -63.2324 C 108.008 -63.2324 115.43 -54.6875 115.43 -37.9395 C 115.43 -17.5293 108.398 -7.32422 95.4102 -7.32422 Z M 96.3867 -32.2754 C 103.711 -32.2754 109.033 -37.6953 109.033 -45.0684 C 109.033 -52.5391 103.613 -58.0078 96.4844 -58.0078 C 89.0137 -58.0078 83.8379 -52.7832 83.8379 -45.2148 C 83.8379 -37.6953 88.916 -32.2754 96.3867 -32.2754 Z"/>
  </g>
  <g id="Thin-L" transform="matrix(1 0 0 1 783.693 1556)">
   <path d="M 72.7051 26.3184 C 106.494 26.3184 134.18 -1.36719 134.18 -35.1074 C 134.18 -68.8965 106.494 -96.582 72.7051 -96.582 C 38.9648 -96.582 11.2793 -68.8965 11.2793 -35.1074 C 11.2793 -1.36719 38.9648 26.3184 72.7051 26.3184 Z M 37.793 -8.59375 C 36.4746 -8.59375 35.498 -9.42383 35.498 -10.7422 C 35.498 -11.6211 35.6934 -12.0605 36.2305 -12.6465 L 56.0547 -35.5957 C 60.3516 -40.6738 62.4512 -44.1895 62.4512 -48.5352 C 62.4512 -54.8828 58.0078 -58.9844 50.6348 -58.9844 C 43.6523 -58.9844 38.5742 -54.6875 38.0371 -48.6328 C 37.793 -47.4121 37.207 -46.7285 35.9375 -46.7285 C 34.7656 -46.7285 33.9355 -47.6074 33.9355 -48.7793 C 33.9355 -49.3652 34.0332 -49.9023 34.1309 -50.5371 C 35.4004 -57.666 42.3828 -62.793 50.6348 -62.793 C 60.2051 -62.793 66.6016 -57.2266 66.6016 -48.5352 C 66.6016 -43.4082 63.9648 -38.9648 58.0566 -32.0801 L 41.3086 -12.6465 L 41.3086 -12.4512 L 66.3086 -12.4512 C 67.4316 -12.4512 68.1641 -11.6699 68.1641 -10.5469 C 68.1641 -9.47266 67.4316 -8.59375 66.3086 -8.59375 Z M 94.1406 -7.71484 C 87.4023 -7.71484 81.7871 -11.6699 79.6875 -15.1367 C 79.1504 -16.0645 78.7109 -17.1875 78.7109 -18.1152 C 78.7109 -19.1406 79.3457 -19.9707 80.4199 -19.9707 C 81.3965 -19.9707 81.9824 -19.3359 82.4707 -18.1641 C 84.375 -14.1113 88.9648 -11.4746 94.1895 -11.4746 C 104.346 -11.4746 110.303 -20.2148 110.254 -37.793 L 110.156 -37.793 C 107.373 -31.2988 101.758 -27.6367 93.9453 -27.6367 C 84.1797 -27.6367 76.9531 -35.1562 76.9531 -45.0195 C 76.9531 -55.4199 84.5703 -62.793 94.9707 -62.793 C 106.299 -62.793 113.965 -54.834 113.965 -38.5742 C 113.965 -17.7734 107.031 -7.71484 94.1406 -7.71484 Z M 94.9219 -31.1523 C 103.125 -31.1523 109.229 -37.1582 109.229 -45.166 C 109.229 -53.1738 103.027 -59.082 95.0684 -59.082 C 86.8164 -59.082 80.8105 -53.3691 80.8105 -45.3125 C 80.8105 -37.1582 86.6211 -31.1523 94.9219 -31.1523 Z"/>
  </g>
  <g id="Ultralight-L" transform="matrix(1 0 0 1 487.616 1556)">
   <path d="M 72.1191 25.7324 C 105.566 25.7324 132.91 -1.61133 132.91 -35.1074 C 132.91 -68.5547 105.566 -95.8984 72.1191 -95.8984 C 38.623 -95.8984 11.2793 -68.5547 11.2793 -35.1074 C 11.2793 -1.61133 38.623 25.7324 72.1191 25.7324 Z M 37.0605 -8.69141 C 35.9863 -8.69141 35.1562 -9.32617 35.1562 -10.4004 C 35.1562 -11.1816 35.3027 -11.5234 35.6934 -11.9141 L 56.0547 -35.4492 C 60.5957 -40.8203 62.4023 -44.3359 62.4023 -48.6816 C 62.4023 -55.3711 57.7148 -59.6191 49.9512 -59.6191 C 42.4805 -59.6191 36.9629 -54.9316 36.6699 -48.584 C 36.5723 -47.5586 36.084 -46.9727 34.9121 -46.9727 C 33.9844 -46.9727 33.3496 -47.7051 33.3496 -48.6328 C 33.3496 -49.1699 33.3984 -49.6094 33.4961 -50.2441 C 34.668 -57.4219 41.6504 -62.5977 49.9512 -62.5977 C 59.375 -62.5977 65.6738 -57.0801 65.6738 -48.5352 C 65.6738 -43.7012 63.3301 -39.3066 57.1777 -32.1777 L 39.5508 -11.7676 L 39.5508 -11.6211 L 65.8203 -11.6211 C 66.748 -11.6211 67.334 -10.9863 67.334 -10.1562 C 67.334 -9.42383 66.748 -8.69141 65.8203 -8.69141 Z M 93.457 -7.95898 C 87.3047 -7.95898 81.6406 -11.6211 79.2969 -15.0391 C 78.7109 -16.0156 78.1738 -17.1875 78.1738 -18.1641 C 78.1738 -18.8965 78.6621 -19.5312 79.541 -19.5312 C 80.3223 -19.5312 80.7129 -18.8965 81.1523 -17.9688 C 83.1055 -13.623 88.0371 -10.8398 93.5547 -10.8398 C 104.297 -10.8398 110.4 -19.7754 110.449 -38.3301 L 110.4 -38.3301 C 107.373 -31.3965 101.465 -27.7832 93.5059 -27.7832 C 83.4961 -27.7832 76.416 -35.5469 76.416 -45.1172 C 76.416 -55.1758 84.082 -62.5977 94.3848 -62.5977 C 105.42 -62.5977 113.232 -54.9316 113.232 -38.8672 C 113.232 -17.8711 106.299 -7.95898 93.457 -7.95898 Z M 94.1406 -30.5664 C 102.832 -30.5664 109.375 -36.9141 109.375 -45.166 C 109.375 -53.5156 102.734 -59.668 94.3359 -59.668 C 85.6934 -59.668 79.2969 -53.6621 79.2969 -45.3613 C 79.2969 -36.9141 85.4004 -30.5664 94.1406 -30.5664 Z"/>
  </g>
  <g id="Black-M" transform="matrix(1 0 0 1 2870.97 1126)">
   <path d="M 62.4023 18.457 C 91.9922 18.457 116.113 -5.61523 116.113 -35.2051 C 116.113 -64.7949 91.9922 -88.8672 62.4023 -88.8672 C 32.8125 -88.8672 8.74023 -64.7949 8.74023 -35.2051 C 8.74023 -5.61523 32.8125 18.457 62.4023 18.457 Z M 42.1875 -16.8945 C 39.3555 -16.8945 37.0117 -18.7988 37.0117 -22.0215 C 37.0117 -24.1211 37.793 -25.8789 39.7461 -28.125 L 46.8262 -36.4746 C 49.0234 -39.0625 50.4395 -40.4785 50.4395 -42.3828 C 50.4395 -43.6035 49.2188 -44.7266 47.7539 -44.7266 C 46.4355 -44.7266 45.3125 -43.7988 44.9707 -42.4805 C 44.4824 -40.6738 43.1641 -39.3066 40.5762 -39.3066 C 37.9883 -39.3066 36.2305 -41.1621 36.2305 -43.6523 C 36.2305 -44.6777 36.377 -45.4102 36.6699 -46.2891 C 38.0371 -51.1719 42.6758 -54.2969 48.291 -54.2969 C 55.2734 -54.2969 59.5215 -49.6582 59.6191 -43.3105 C 59.668 -39.1602 57.9102 -35.8887 54.1016 -31.4941 L 50.3906 -27.1484 L 50.3906 -26.6602 L 55.7129 -26.6602 C 58.9355 -26.6602 60.791 -24.9023 60.791 -21.875 C 60.791 -18.7012 58.9355 -16.8945 55.7129 -16.8945 Z M 75.9277 -16.2109 C 70.5078 -16.2109 67.0898 -18.4082 65.7715 -20.8984 C 65.1855 -22.0215 64.8926 -23.0469 64.8926 -23.9746 C 64.8926 -26.2695 66.5527 -28.0273 69.1895 -28.0273 C 70.3613 -28.0273 71.6797 -27.5391 72.9004 -26.3184 C 73.7305 -25.4395 74.5117 -25.0977 75.7812 -25.0977 C 79.6875 -25.0977 80.5176 -30.3223 80.5664 -34.3262 L 80.3711 -34.3262 C 79.4434 -31.25 76.9531 -29.7363 73.7305 -29.7363 C 67.4805 -29.7363 63.8184 -34.4238 63.8184 -41.2109 C 63.8184 -49.4141 69.043 -54.2969 76.416 -54.2969 C 85.8887 -54.2969 89.9902 -47.168 89.9902 -36.4258 C 89.9902 -23.7305 85.0586 -16.2109 75.9277 -16.2109 Z M 76.6113 -37.8906 C 78.4668 -37.8906 79.834 -39.4531 79.834 -41.7969 C 79.834 -44.1406 78.4668 -45.6543 76.6113 -45.6543 C 74.9023 -45.6543 73.584 -44.0918 73.584 -41.7969 C 73.584 -39.4531 74.9023 -37.8906 76.6113 -37.8906 Z"/>
  </g>
  <g id="Heavy-M" transform="matrix(1 0 0 1 2575.19 1126)">
   <path d="M 61.5234 17.5781 C 90.5273 17.5781 114.258 -6.15234 114.258 -35.2051 C 114.258 -64.2578 90.5273 -87.9883 61.4746 -87.9883 C 32.4707 -87.9883 8.74023 -64.2578 8.74023 -35.2051 C 8.74023 -6.15234 32.4707 17.5781 61.5234 17.5781 Z M 39.7461 -16.2598 C 37.1582 -16.2598 35.1074 -18.0664 35.1074 -20.9473 C 35.1074 -22.7539 35.7422 -24.3164 37.4512 -26.2695 L 46.0449 -36.3281 C 48.291 -39.0137 50 -40.7715 50 -43.0176 C 50 -44.873 48.4375 -46.2891 46.3379 -46.2891 C 44.4824 -46.2891 43.0176 -45.166 42.4316 -43.2129 C 41.8945 -41.5039 40.7227 -40.2344 38.3789 -40.2344 C 35.9863 -40.2344 34.375 -41.9434 34.375 -44.3359 C 34.375 -45.2148 34.5215 -45.9473 34.7656 -46.7285 C 36.1328 -51.709 40.9668 -55.0293 46.6797 -55.0293 C 53.9551 -55.0293 58.3984 -50.3906 58.4961 -43.8477 C 58.5449 -39.502 56.4941 -36.084 52.6855 -31.7383 L 47.4609 -25.6348 L 47.4609 -25.1953 L 55.0781 -25.1953 C 57.9102 -25.1953 59.668 -23.584 59.668 -20.8496 C 59.668 -17.9688 57.9102 -16.2598 55.0781 -16.2598 Z M 75.7812 -15.4785 C 69.9219 -15.4785 66.3574 -18.1152 65.1367 -20.6543 C 64.6484 -21.6797 64.3555 -22.6074 64.3555 -23.4863 C 64.3555 -25.6348 65.918 -27.2949 68.3105 -27.2949 C 69.5312 -27.2949 70.752 -26.7578 71.875 -25.4883 C 72.8027 -24.3164 73.9746 -23.6816 75.6348 -23.6816 C 80.0293 -23.6816 81.543 -29.1016 81.5918 -34.5703 L 81.3477 -34.5703 C 80.3223 -31.3965 77.6367 -29.541 73.8281 -29.541 C 67.5293 -29.541 63.2812 -34.2773 63.2812 -41.5039 C 63.2812 -49.9023 68.6035 -55.0293 76.2695 -55.0293 C 85.791 -55.0293 90.1855 -47.8516 90.1855 -36.5234 C 90.1855 -23.1445 85.1562 -15.4785 75.7812 -15.4785 Z M 76.5137 -37.0117 C 79.0527 -37.0117 80.8594 -39.0625 80.8594 -42.041 C 80.8594 -45.0684 79.0527 -47.1191 76.5137 -47.1191 C 74.0723 -47.1191 72.2656 -45.0684 72.2656 -42.041 C 72.2656 -39.0625 74.0723 -37.0117 76.5137 -37.0117 Z"/>
  </g>
  <g id="Bold-M" transform="matrix(1 0 0 1 2279.5 1126)">
   <path d="M 60.498 16.5039 C 88.8672 16.5039 112.207 -6.78711 112.207 -35.2051 C 112.207 -63.623 88.8672 -86.9629 60.4492 -86.9629 C 32.0312 -86.9629 8.74023 -63.623 8.74023 -35.2051 C 8.74023 -6.78711 32.0801 16.5039 60.498 16.5039 Z M 37.0117 -15.625 C 34.668 -15.625 32.9102 -17.1875 32.9102 -19.7266 C 32.9102 -21.2402 33.4473 -22.5586 34.8145 -24.1211 L 45.166 -36.2305 C 47.4609 -39.0137 49.5117 -41.1133 49.5117 -43.7012 C 49.5117 -46.2402 47.5586 -48.0957 44.7754 -48.0957 C 42.2363 -48.0957 40.4297 -46.6797 39.5996 -44.0918 C 39.0137 -42.4316 37.9883 -41.3086 35.9375 -41.3086 C 33.7402 -41.3086 32.3242 -42.8223 32.3242 -45.0195 C 32.3242 -45.8496 32.4707 -46.5332 32.6172 -47.2656 C 33.9844 -52.2949 39.0625 -55.8105 44.873 -55.8105 C 52.3926 -55.8105 57.1289 -51.1719 57.1777 -44.4824 C 57.2266 -39.8438 54.9316 -36.377 51.123 -31.9824 L 44.2383 -23.9746 L 44.2383 -23.5352 L 54.3945 -23.5352 C 56.7871 -23.5352 58.3496 -22.0703 58.3496 -19.6289 C 58.3496 -17.1387 56.7871 -15.625 54.3945 -15.625 Z M 75.5859 -14.6973 C 69.3359 -14.6973 65.5273 -17.7734 64.4531 -20.4102 C 64.0625 -21.2891 63.8184 -22.168 63.8184 -22.9004 C 63.8184 -24.9512 65.1855 -26.416 67.334 -26.416 C 68.6035 -26.416 69.7266 -25.9277 70.7031 -24.5605 C 71.7773 -22.998 73.3398 -22.0703 75.4883 -22.0703 C 80.3711 -22.0703 82.7637 -27.7344 82.7148 -34.8145 L 82.4707 -34.8145 C 81.2988 -31.543 78.418 -29.2969 73.9746 -29.2969 C 67.5293 -29.2969 62.6465 -34.082 62.6465 -41.8457 C 62.6465 -50.4883 68.1152 -55.8105 76.0742 -55.8105 C 85.6445 -55.8105 90.4785 -48.6328 90.4785 -36.5723 C 90.4785 -22.5098 85.2539 -14.6973 75.5859 -14.6973 Z M 76.3672 -35.9863 C 79.7363 -35.9863 82.0312 -38.5742 82.0312 -42.2852 C 82.0312 -46.0938 79.6875 -48.7305 76.416 -48.7305 C 73.0957 -48.7305 70.8008 -46.1426 70.8008 -42.334 C 70.8008 -38.5742 73.0957 -35.9863 76.3672 -35.9863 Z"/>
  </g>
  <g id="Semibold-M" transform="matrix(1 0 0 1 1983.5 1126)">
   <path d="M 59.7656 15.8203 C 87.7441 15.8203 110.791 -7.22656 110.791 -35.2051 C 110.791 -63.1836 87.6953 -86.2793 59.7656 -86.2793 C 31.7871 -86.2793 8.74023 -63.1836 8.74023 -35.2051 C 8.74023 -7.22656 31.7871 15.8203 59.7656 15.8203 Z M 35.1074 -15.1367 C 32.959 -15.1367 31.3965 -16.6016 31.3965 -18.8477 C 31.3965 -20.166 31.8848 -21.3379 33.0566 -22.6562 L 44.5312 -36.1816 C 46.875 -38.9648 49.1699 -41.3574 49.1699 -44.1895 C 49.1699 -47.2168 46.9727 -49.3164 43.6523 -49.3164 C 40.7227 -49.3164 38.623 -47.7539 37.6465 -44.6777 C 37.0117 -43.0664 36.084 -42.041 34.2285 -42.041 C 32.1777 -42.041 30.9082 -43.457 30.9082 -45.5078 C 30.9082 -46.2402 31.0059 -46.9238 31.2012 -47.6074 C 32.5195 -52.7344 37.7441 -56.3965 43.6523 -56.3965 C 51.3672 -56.3965 56.25 -51.7578 56.2988 -44.9219 C 56.3477 -40.1367 53.8574 -36.5234 50.0488 -32.1289 L 41.9922 -22.8027 L 41.9922 -22.3633 L 53.9062 -22.3633 C 56.0059 -22.3633 57.4219 -21.0449 57.4219 -18.8477 C 57.4219 -16.5527 56.0059 -15.1367 53.9062 -15.1367 Z M 75.4395 -14.1602 C 68.8965 -14.1602 64.9414 -17.5293 63.9648 -20.2637 C 63.623 -21.0449 63.4277 -21.8262 63.4277 -22.5098 C 63.4277 -24.4629 64.6973 -25.8789 66.6504 -25.8789 C 67.9199 -25.8789 69.043 -25.3418 69.9219 -23.9258 C 71.0938 -22.1191 72.9492 -20.9961 75.3418 -20.9961 C 80.6152 -20.9961 83.5449 -26.7578 83.4961 -35.0098 L 83.2031 -35.0098 C 81.9824 -31.6406 78.9551 -29.1016 74.0723 -29.1016 C 67.5293 -29.1016 62.2559 -33.9844 62.2559 -42.0898 C 62.2559 -50.8789 67.7734 -56.3965 75.9766 -56.3965 C 85.5469 -56.3965 90.625 -49.1699 90.625 -36.6211 C 90.625 -22.0215 85.3027 -14.1602 75.4395 -14.1602 Z M 76.3184 -35.3027 C 80.1758 -35.3027 82.8613 -38.2812 82.8613 -42.4805 C 82.8613 -46.7773 80.127 -49.8047 76.3184 -49.8047 C 72.4121 -49.8047 69.7754 -46.9238 69.7754 -42.5293 C 69.7754 -38.2812 72.4121 -35.3027 76.3184 -35.3027 Z"/>
  </g>
  <g id="Medium-M" transform="matrix(1 0 0 1 1687.3 1126)">
   <path d="M 59.2285 15.2832 C 86.9141 15.2832 109.766 -7.56836 109.766 -35.2051 C 109.766 -62.8906 86.8652 -85.7422 59.1797 -85.7422 C 31.543 -85.7422 8.74023 -62.8906 8.74023 -35.2051 C 8.74023 -7.56836 31.5918 15.2832 59.2285 15.2832 Z M 33.6914 -14.7949 C 31.6406 -14.7949 30.2734 -16.1133 30.2734 -18.2129 C 30.2734 -19.3848 30.6641 -20.459 31.6895 -21.582 L 44.043 -36.1328 C 46.4844 -38.9648 48.9258 -41.5039 48.9258 -44.5801 C 48.9258 -47.9492 46.4844 -50.2441 42.8223 -50.2441 C 39.5996 -50.2441 37.2559 -48.5352 36.1328 -45.1172 C 35.498 -43.5547 34.6191 -42.5781 32.959 -42.5781 C 31.0059 -42.5781 29.834 -43.8965 29.834 -45.8984 C 29.834 -46.582 29.9316 -47.2168 30.0781 -47.8516 C 31.3965 -53.0273 36.7188 -56.7871 42.7246 -56.7871 C 50.5859 -56.7871 55.6152 -52.1973 55.6152 -45.2148 C 55.6641 -40.2832 53.0273 -36.6699 49.2188 -32.2754 L 40.2832 -21.875 L 40.2832 -21.4844 L 53.5156 -21.4844 C 55.4199 -21.4844 56.7383 -20.3125 56.7383 -18.2129 C 56.7383 -16.1133 55.4199 -14.7949 53.5156 -14.7949 Z M 75.3418 -13.7207 C 68.5547 -13.7207 64.5508 -17.3828 63.5742 -20.1172 C 63.3301 -20.8496 63.1348 -21.582 63.1348 -22.2168 C 63.1348 -24.0723 64.3555 -25.4395 66.1621 -25.4395 C 67.4316 -25.4395 68.5059 -24.9023 69.3359 -23.4863 C 70.5078 -21.4844 72.6074 -20.166 75.2441 -20.166 C 80.8105 -20.166 84.1797 -26.0742 84.1309 -35.1562 L 83.7891 -35.1562 C 82.5195 -31.7383 79.3457 -29.0039 74.1211 -29.0039 C 67.5293 -29.0039 61.9141 -33.8867 61.9141 -42.2852 C 61.9141 -51.1719 67.5293 -56.7871 75.8789 -56.7871 C 85.498 -56.7871 90.7715 -49.6094 90.7715 -36.6699 C 90.7715 -21.6797 85.3516 -13.7207 75.3418 -13.7207 Z M 76.2695 -34.7656 C 80.5176 -34.7656 83.4473 -38.0371 83.4473 -42.5781 C 83.4473 -47.3145 80.4688 -50.6836 76.2695 -50.6836 C 71.875 -50.6836 69.043 -47.5098 69.043 -42.6758 C 69.043 -38.0371 71.9238 -34.7656 76.2695 -34.7656 Z"/>
  </g>
  <g id="Regular-M" transform="matrix(1 0 0 1 1391.3 1126)">
   <path d="M 58.5449 14.5508 C 85.791 14.5508 108.35 -8.00781 108.35 -35.2539 C 108.35 -62.4512 85.7422 -85.0586 58.4961 -85.0586 C 31.2988 -85.0586 8.74023 -62.4512 8.74023 -35.2539 C 8.74023 -8.00781 31.3477 14.5508 58.5449 14.5508 Z M 31.8359 -14.3555 C 29.9805 -14.3555 28.8086 -15.5273 28.8086 -17.3828 C 28.8086 -18.3594 29.1016 -19.2383 29.9316 -20.1172 L 43.457 -36.0352 C 45.8984 -38.916 48.584 -41.748 48.584 -45.0684 C 48.584 -48.877 45.8984 -51.4648 41.748 -51.4648 C 38.0859 -51.4648 35.498 -49.5605 34.1797 -45.7031 C 33.4961 -44.1895 32.7637 -43.3105 31.2988 -43.3105 C 29.4922 -43.3105 28.418 -44.5312 28.418 -46.3867 C 28.418 -46.9727 28.5156 -47.6074 28.6133 -48.1934 C 29.9805 -53.4668 35.4492 -57.3242 41.5039 -57.3242 C 49.5605 -57.3242 54.7363 -52.7344 54.7363 -45.6543 C 54.7363 -40.5762 51.9531 -36.8164 48.1445 -32.4219 L 38.0859 -20.752 L 38.0859 -20.3613 L 53.0273 -20.3613 C 54.6387 -20.3613 55.8594 -19.2871 55.8594 -17.3828 C 55.8594 -15.5273 54.6387 -14.3555 53.0273 -14.3555 Z M 75.2441 -13.1836 C 68.1152 -13.1836 63.9648 -17.1387 63.0859 -19.9707 C 62.8906 -20.6055 62.7441 -21.2891 62.7441 -21.8262 C 62.7441 -23.584 63.8672 -24.8535 65.4785 -24.8535 C 66.7969 -24.8535 67.8223 -24.3164 68.5547 -22.8516 C 69.8242 -20.6055 72.168 -19.043 75.1465 -19.043 C 81.0547 -19.043 85.0098 -25.1465 84.9121 -35.3516 L 84.5215 -35.3516 C 83.1543 -31.8359 79.834 -28.8086 74.2188 -28.8086 C 67.5293 -28.8086 61.5234 -33.7402 61.5234 -42.5293 C 61.5234 -51.5625 67.1875 -57.3242 75.7812 -57.3242 C 85.4004 -57.3242 90.9668 -50.1465 90.9668 -36.7188 C 90.9668 -21.2402 85.4492 -13.1836 75.2441 -13.1836 Z M 76.1719 -34.082 C 80.957 -34.082 84.2773 -37.6953 84.2773 -42.7734 C 84.2773 -47.998 80.9082 -51.7578 76.2207 -51.7578 C 71.2402 -51.7578 68.0176 -48.2422 68.0176 -42.8711 C 68.0176 -37.6953 71.2891 -34.082 76.1719 -34.082 Z"/>
  </g>
  <g id="Light-M" transform="matrix(1 0 0 1 1095.42 1126)">
   <path d="M 57.7148 13.7695 C 84.5215 13.7695 106.689 -8.39844 106.689 -35.2051 C 106.689 -62.0117 84.5215 -84.1797 57.666 -84.1797 C 30.8594 -84.1797 8.74023 -62.0117 8.74023 -35.2051 C 8.74023 -8.39844 30.9082 13.7695 57.7148 13.7695 Z M 30.8594 -14.4531 C 29.2969 -14.4531 28.3203 -15.4297 28.3203 -16.9434 C 28.3203 -17.8223 28.5645 -18.5059 29.248 -19.1895 L 43.457 -35.8398 C 46.2402 -39.1113 48.4863 -41.8945 48.4863 -45.2637 C 48.4863 -49.5117 45.5566 -52.2949 40.8203 -52.2949 C 36.4746 -52.2949 33.3496 -49.8535 32.4219 -45.6543 C 31.8848 -44.3848 31.25 -43.6035 29.9805 -43.6035 C 28.5156 -43.6035 27.6367 -44.6289 27.6367 -46.1426 C 27.6367 -46.6797 27.6855 -47.2168 27.7832 -47.8027 C 29.0039 -53.125 34.4727 -57.0801 40.625 -57.0801 C 48.4375 -57.0801 53.5645 -52.5879 53.5645 -45.6055 C 53.5645 -40.918 51.0742 -37.3047 46.9727 -32.5684 L 35.791 -19.5801 L 35.791 -19.3359 L 52.3926 -19.3359 C 53.7109 -19.3359 54.7363 -18.4082 54.7363 -16.8945 C 54.7363 -15.4297 53.7109 -14.4531 52.3926 -14.4531 Z M 74.3652 -13.4766 C 67.9688 -13.4766 63.7695 -17.0898 62.5977 -19.8242 C 62.3047 -20.5078 62.0605 -21.2891 62.0605 -21.875 C 62.0605 -23.291 62.9395 -24.3164 64.3066 -24.3164 C 65.3809 -24.3164 66.1621 -23.7793 66.7969 -22.5586 C 68.1641 -19.9219 70.9473 -18.2129 74.3164 -18.2129 C 80.957 -18.2129 85.1562 -24.5605 85.1074 -36.0352 L 84.8633 -36.0352 C 83.2031 -31.9336 79.4922 -29.0039 73.6816 -29.0039 C 66.6504 -29.0039 60.791 -34.2773 60.791 -42.627 C 60.791 -51.3184 66.5527 -57.0801 74.9512 -57.0801 C 84.2773 -57.0801 89.9414 -50.2441 89.9414 -37.1582 C 89.9414 -21.4355 84.4727 -13.4766 74.3652 -13.4766 Z M 75.1953 -33.3008 C 80.5664 -33.3008 84.4238 -37.3535 84.4238 -42.8223 C 84.4238 -48.4375 80.5176 -52.4902 75.2441 -52.4902 C 69.7266 -52.4902 66.0156 -48.6328 66.0156 -42.9199 C 66.0156 -37.3535 69.6777 -33.3008 75.1953 -33.3008 Z"/>
  </g>
  <g id="Thin-M" transform="matrix(1 0 0 1 799.806 1126)">
   <path d="M 56.6406 12.7441 C 82.9102 12.7441 104.492 -8.83789 104.492 -35.1562 C 104.492 -61.4746 82.9102 -83.0566 56.5918 -83.0566 C 30.3223 -83.0566 8.74023 -61.4746 8.74023 -35.1562 C 8.74023 -8.83789 30.3223 12.7441 56.6406 12.7441 Z M 29.5898 -14.5508 C 28.4668 -14.5508 27.6855 -15.2832 27.6855 -16.4062 C 27.6855 -17.0898 27.832 -17.5293 28.3203 -18.0176 L 43.457 -35.5957 C 46.6797 -39.3555 48.4375 -42.1387 48.4375 -45.5078 C 48.4375 -50.293 45.0684 -53.3691 39.5508 -53.3691 C 34.375 -53.3691 30.5664 -50.2441 30.0293 -45.6055 C 29.7852 -44.6289 29.2969 -44.043 28.2715 -44.043 C 27.2461 -44.043 26.5625 -44.7754 26.5625 -45.8008 C 26.5625 -46.2891 26.6113 -46.7285 26.709 -47.2168 C 27.7344 -52.7344 33.1543 -56.6895 39.502 -56.6895 C 47.0215 -56.6895 52.002 -52.3438 52.002 -45.5566 C 52.002 -41.4551 49.8535 -37.9395 45.3613 -32.7637 L 32.7148 -18.0664 L 32.7148 -17.9199 L 51.5625 -17.9199 C 52.5391 -17.9199 53.2227 -17.2363 53.2227 -16.2598 C 53.2227 -15.332 52.5391 -14.5508 51.5625 -14.5508 Z M 73.2422 -13.8184 C 67.7734 -13.8184 63.4766 -16.9922 61.9141 -19.6777 C 61.5234 -20.4102 61.1816 -21.2402 61.1816 -21.9727 C 61.1816 -22.8516 61.7676 -23.584 62.6953 -23.584 C 63.5254 -23.584 64.0137 -23.0469 64.502 -22.1191 C 65.918 -19.0918 69.3359 -17.0898 73.2422 -17.0898 C 80.9082 -17.0898 85.4004 -23.7793 85.4004 -37.0117 L 85.2539 -37.0117 C 83.2031 -32.1289 78.9551 -29.2969 72.9492 -29.2969 C 65.5273 -29.2969 59.8633 -35.0098 59.8633 -42.7734 C 59.8633 -50.9277 65.7227 -56.6895 73.877 -56.6895 C 82.7637 -56.6895 88.623 -50.3906 88.623 -37.6953 C 88.623 -21.6309 83.252 -13.8184 73.2422 -13.8184 Z M 73.877 -32.3242 C 80.0293 -32.3242 84.6191 -36.8652 84.6191 -42.9199 C 84.6191 -49.0234 79.9805 -53.5156 73.9746 -53.5156 C 67.7734 -53.5156 63.2812 -49.1699 63.2812 -43.0176 C 63.2812 -36.8652 67.627 -32.3242 73.877 -32.3242 Z"/>
  </g>
  <g id="Ultralight-M" transform="matrix(1 0 0 1 503.656 1126)">
   <path d="M 56.0547 12.207 C 82.0801 12.207 103.369 -9.08203 103.369 -35.1562 C 103.369 -61.1816 82.0801 -82.4707 56.0547 -82.4707 C 30.0293 -82.4707 8.74023 -61.1816 8.74023 -35.1562 C 8.74023 -9.08203 30.0293 12.207 56.0547 12.207 Z M 28.9551 -14.6484 C 28.0273 -14.6484 27.3438 -15.1855 27.3438 -16.1133 C 27.3438 -16.6992 27.4902 -17.041 27.832 -17.3828 L 43.457 -35.4492 C 46.9238 -39.502 48.3887 -42.2363 48.3887 -45.6055 C 48.3887 -50.6836 44.8242 -53.9551 38.916 -53.9551 C 33.252 -53.9551 29.1504 -50.4395 28.8574 -45.6055 C 28.7109 -44.7266 28.2715 -44.2383 27.3438 -44.2383 C 26.5625 -44.2383 26.0254 -44.873 26.0254 -45.6543 C 26.0254 -46.0938 26.0742 -46.4355 26.123 -46.9727 C 27.0508 -52.4902 32.4707 -56.4941 38.916 -56.4941 C 46.2402 -56.4941 51.1719 -52.1973 51.1719 -45.5566 C 51.1719 -41.6992 49.2676 -38.2812 44.5801 -32.8613 L 31.1523 -17.334 L 31.1523 -17.1875 L 51.1719 -17.1875 C 51.9531 -17.1875 52.4414 -16.6504 52.4414 -15.918 C 52.4414 -15.2344 51.9531 -14.6484 51.1719 -14.6484 Z M 72.6562 -14.0137 C 67.6758 -14.0137 63.3301 -16.9434 61.5723 -19.6289 C 61.1328 -20.3613 60.7422 -21.2402 60.7422 -21.9727 C 60.7422 -22.6562 61.1816 -23.1934 61.9141 -23.1934 C 62.5488 -23.1934 62.9395 -22.7051 63.2812 -21.9238 C 64.7949 -18.6523 68.5059 -16.5039 72.7051 -16.5039 C 80.8594 -16.5039 85.5469 -23.3887 85.5469 -37.5 L 85.498 -37.5 C 83.2031 -32.2266 78.7109 -29.3945 72.6074 -29.3945 C 64.8926 -29.3945 59.375 -35.3516 59.375 -42.8711 C 59.375 -50.7812 65.2832 -56.4941 73.3398 -56.4941 C 81.9824 -56.4941 87.9395 -50.4883 87.9395 -37.9395 C 87.9395 -21.7285 82.6172 -14.0137 72.6562 -14.0137 Z M 73.1934 -31.7871 C 79.7852 -31.7871 84.7168 -36.6211 84.7168 -42.9199 C 84.7168 -49.3164 79.6875 -54.0039 73.3398 -54.0039 C 66.748 -54.0039 61.9141 -49.4141 61.9141 -43.0664 C 61.9141 -36.6211 66.5527 -31.7871 73.1934 -31.7871 Z"/>
  </g>
  <g id="Black-S" transform="matrix(1 0 0 1 2884.57 696)">
   <path d="M 48.8281 6.78711 C 71.9727 6.78711 90.8203 -12.0605 90.8203 -35.2051 C 90.8203 -58.3496 71.9727 -77.1973 48.8281 -77.1973 C 25.6836 -77.1973 6.83594 -58.3496 6.83594 -35.2051 C 6.83594 -12.0605 25.6836 6.78711 48.8281 6.78711 Z M 32.8613 -20.8008 C 30.6641 -20.8008 28.8574 -22.3145 28.8574 -24.8047 C 28.8574 -26.416 29.4434 -27.7832 30.957 -29.541 L 36.6211 -36.1816 C 38.3301 -38.2324 39.4531 -39.3555 39.4531 -40.8691 C 39.4531 -41.8945 38.4766 -42.7734 37.3047 -42.7734 C 36.2305 -42.7734 35.3516 -42.041 35.0586 -40.9668 C 34.668 -39.5508 33.6426 -38.4766 31.6406 -38.4766 C 29.5898 -38.4766 28.2227 -39.9414 28.2227 -41.8945 C 28.2227 -42.6758 28.3691 -43.2617 28.5645 -43.9453 C 29.6387 -47.7539 33.3008 -50.2441 37.6953 -50.2441 C 43.2129 -50.2441 46.5332 -46.582 46.6309 -41.6016 C 46.6797 -38.3301 45.2637 -35.7422 42.2852 -32.3242 L 39.2578 -28.8086 L 39.2578 -28.418 L 43.6035 -28.418 C 46.0938 -28.418 47.5586 -27.0508 47.5586 -24.707 C 47.5586 -22.2168 46.0938 -20.8008 43.6035 -20.8008 Z M 59.4727 -20.2637 C 55.1758 -20.2637 52.4902 -22.0215 51.4648 -23.9746 C 51.0254 -24.8535 50.7812 -25.6348 50.7812 -26.3672 C 50.7812 -28.1738 52.0996 -29.541 54.1504 -29.541 C 55.0781 -29.541 56.1035 -29.1504 57.0312 -28.1738 C 57.7148 -27.4902 58.3496 -27.1973 59.375 -27.1973 C 62.4512 -27.1973 63.1348 -31.2988 63.1836 -34.5215 L 63.0371 -34.5215 C 62.3047 -32.1289 60.3516 -30.9082 57.7637 -30.9082 C 52.8809 -30.9082 49.9512 -34.5703 49.9512 -39.9414 C 49.9512 -46.3867 54.0527 -50.2441 59.8633 -50.2441 C 67.2852 -50.2441 70.5078 -44.6289 70.5078 -36.1816 C 70.5078 -26.1719 66.6504 -20.2637 59.4727 -20.2637 Z M 60.0098 -37.2559 C 61.5234 -37.2559 62.5977 -38.5254 62.5977 -40.3809 C 62.5977 -42.2852 61.5234 -43.5059 60.0098 -43.5059 C 58.6426 -43.5059 57.5684 -42.2363 57.5684 -40.3809 C 57.5684 -38.5254 58.6426 -37.2559 60.0098 -37.2559 Z"/>
  </g>
  <g id="Heavy-S" transform="matrix(1 0 0 1 2588.47 696)">
   <path d="M 48.2422 6.15234 C 70.9961 6.15234 89.5996 -12.4512 89.5996 -35.2051 C 89.5996 -57.959 70.9961 -76.6113 48.1934 -76.6113 C 25.4395 -76.6113 6.83594 -57.959 6.83594 -35.2051 C 6.83594 -12.4512 25.4395 6.15234 48.2422 6.15234 Z M 31.1035 -20.3125 C 29.0527 -20.3125 27.4414 -21.7285 27.4414 -24.0234 C 27.4414 -25.4395 27.9297 -26.6602 29.248 -28.1738 L 35.9863 -36.1328 C 37.7441 -38.1836 39.1113 -39.5508 39.1113 -41.3574 C 39.1113 -42.7734 37.9395 -43.8965 36.3281 -43.8965 C 34.9121 -43.8965 33.7891 -43.0664 33.3008 -41.5527 C 32.8613 -40.1855 31.9336 -39.1602 30.127 -39.1602 C 28.1738 -39.1602 26.9043 -40.5273 26.9043 -42.4316 C 26.9043 -43.1152 27.0508 -43.7012 27.1973 -44.3359 C 28.2715 -48.1934 32.0801 -50.8301 36.5723 -50.8301 C 42.2852 -50.8301 45.8008 -47.168 45.8984 -42.041 C 45.8984 -38.5254 44.2871 -35.8398 41.3574 -32.4707 L 37.3047 -27.7832 L 37.3047 -27.3926 L 43.2129 -27.3926 C 45.4102 -27.3926 46.7773 -26.123 46.7773 -23.9746 C 46.7773 -21.6797 45.4102 -20.3125 43.2129 -20.3125 Z M 59.4238 -19.6777 C 54.7852 -19.6777 51.9531 -21.7773 51.0254 -23.8281 C 50.6836 -24.6094 50.4883 -25.3418 50.4883 -25.9766 C 50.4883 -27.7344 51.709 -29.0039 53.6133 -29.0039 C 54.5898 -29.0039 55.5664 -28.6133 56.4453 -27.5879 C 57.1777 -26.6602 58.0566 -26.2207 59.3262 -26.2207 C 62.6953 -26.2207 63.916 -30.4199 63.9648 -34.6191 L 63.7695 -34.6191 C 62.9883 -32.2266 60.9375 -30.7129 57.9102 -30.7129 C 52.9785 -30.7129 49.6094 -34.375 49.6094 -40.1855 C 49.6094 -46.8262 53.8086 -50.8301 59.8145 -50.8301 C 67.334 -50.8301 70.8008 -45.166 70.8008 -36.1816 C 70.8008 -25.6836 66.8457 -19.6777 59.4238 -19.6777 Z M 60.0586 -36.6699 C 62.0117 -36.6699 63.3789 -38.2324 63.3789 -40.5762 C 63.3789 -42.9199 62.0117 -44.5312 60.0586 -44.5312 C 58.1543 -44.5312 56.7871 -42.9199 56.7871 -40.5762 C 56.7871 -38.2324 58.1543 -36.6699 60.0586 -36.6699 Z"/>
  </g>
  <g id="Bold-S" transform="matrix(1 0 0 1 2292.44 696)">
   <path d="M 47.5586 5.46875 C 69.873 5.46875 88.2324 -12.8906 88.2324 -35.2051 C 88.2324 -57.5684 69.873 -75.9277 47.5098 -75.9277 C 25.1953 -75.9277 6.83594 -57.5684 6.83594 -35.2051 C 6.83594 -12.8906 25.1953 5.46875 47.5586 5.46875 Z M 29.1016 -19.8242 C 27.1973 -19.8242 25.8301 -21.0938 25.8301 -23.1445 C 25.8301 -24.3652 26.2695 -25.4395 27.3438 -26.709 L 35.3516 -36.084 C 37.0605 -38.1348 38.7695 -39.7949 38.7695 -41.8457 C 38.7695 -43.75 37.3047 -45.166 35.2539 -45.166 C 33.3984 -45.166 32.0801 -44.1895 31.3477 -42.1875 C 30.8105 -40.8691 30.0293 -39.9414 28.3691 -39.9414 C 26.5625 -39.9414 25.4395 -41.2109 25.4395 -43.0176 C 25.4395 -43.6523 25.5371 -44.1895 25.6836 -44.7754 C 26.7578 -48.7305 30.7617 -51.4648 35.3027 -51.4648 C 41.2598 -51.4648 45.0195 -47.8027 45.0684 -42.4805 C 45.0684 -38.7695 43.2129 -35.9863 40.2832 -32.666 L 35.1074 -26.6113 L 35.1074 -26.2695 L 42.7246 -26.2695 C 44.6777 -26.2695 45.9473 -25.0977 45.9473 -23.0957 C 45.9473 -21.0449 44.6777 -19.8242 42.7246 -19.8242 Z M 59.4238 -19.043 C 54.2969 -19.043 51.3672 -21.5332 50.5859 -23.6328 C 50.293 -24.3164 50.0977 -24.9512 50.0977 -25.5371 C 50.0977 -27.2461 51.2695 -28.4668 53.0273 -28.4668 C 54.0527 -28.4668 54.9805 -28.0273 55.8105 -26.9531 C 56.5918 -25.7812 57.7637 -25.0977 59.3262 -25.0977 C 62.9883 -25.0977 64.7949 -29.4434 64.7949 -34.7656 L 64.5508 -34.7656 C 63.7207 -32.3242 61.5234 -30.5176 58.1055 -30.5176 C 53.125 -30.5176 49.2188 -34.1797 49.2188 -40.4297 C 49.2188 -47.2656 53.5156 -51.4648 59.8145 -51.4648 C 67.3828 -51.4648 71.0938 -45.752 71.0938 -36.1816 C 71.0938 -25.1953 67.041 -19.043 59.4238 -19.043 Z M 60.0586 -35.9863 C 62.5488 -35.9863 64.2578 -37.9395 64.2578 -40.7715 C 64.2578 -43.6523 62.5488 -45.6543 60.0586 -45.6543 C 57.5684 -45.6543 55.9082 -43.75 55.9082 -40.7715 C 55.9082 -37.9395 57.6172 -35.9863 60.0586 -35.9863 Z"/>
  </g>
  <g id="Semibold-S" transform="matrix(1 0 0 1 1996.2 696)">
   <path d="M 47.0703 4.98047 C 69.0918 4.98047 87.3047 -13.1836 87.3047 -35.2539 C 87.3047 -57.2754 69.0918 -75.4883 47.0215 -75.4883 C 25 -75.4883 6.83594 -57.2754 6.83594 -35.2539 C 6.83594 -13.1836 25.0488 4.98047 47.0703 4.98047 Z M 27.7832 -19.4336 C 25.9766 -19.4336 24.707 -20.6543 24.707 -22.5098 C 24.707 -23.584 25.0977 -24.5605 26.0742 -25.6348 L 34.8633 -36.0352 C 36.6211 -38.0859 38.5254 -39.9902 38.5254 -42.2363 C 38.5254 -44.4336 36.8652 -46.0449 34.4727 -46.0449 C 32.373 -46.0449 30.9082 -44.9707 30.0293 -42.6758 C 29.4434 -41.3574 28.7109 -40.4785 27.1973 -40.4785 C 25.4883 -40.4785 24.4141 -41.6504 24.4141 -43.4082 C 24.4141 -43.9941 24.5117 -44.5312 24.6582 -45.0684 C 25.7324 -49.0723 29.834 -51.9043 34.4238 -51.9043 C 40.5762 -51.9043 44.4336 -48.2422 44.4824 -42.8223 C 44.4824 -38.916 42.4316 -36.084 39.5508 -32.7637 L 33.5938 -25.8301 L 33.5938 -25.4883 L 42.3828 -25.4883 C 44.1406 -25.4883 45.3613 -24.4141 45.3613 -22.5098 C 45.3613 -20.6055 44.1406 -19.4336 42.3828 -19.4336 Z M 59.375 -18.6035 C 54.0039 -18.6035 50.9277 -21.3867 50.2441 -23.5352 C 50.0488 -24.1211 49.9023 -24.7559 49.9023 -25.2441 C 49.9023 -26.8555 50.9766 -28.0273 52.5879 -28.0273 C 53.6621 -28.0273 54.5898 -27.6367 55.3711 -26.4648 C 56.2012 -25.1465 57.5195 -24.3164 59.2773 -24.3164 C 63.1836 -24.3164 65.4297 -28.7598 65.3809 -34.8145 L 65.0879 -34.8145 C 64.2578 -32.373 61.9629 -30.3711 58.2031 -30.3711 C 53.1738 -30.3711 48.9746 -34.082 48.9746 -40.5762 C 48.9746 -47.6074 53.2715 -51.9043 59.7656 -51.9043 C 67.3828 -51.9043 71.3379 -46.1426 71.3379 -36.1816 C 71.3379 -24.8047 67.1387 -18.6035 59.375 -18.6035 Z M 60.1074 -35.498 C 62.9395 -35.498 64.8926 -37.7441 64.8926 -40.8691 C 64.8926 -44.1406 62.8906 -46.4355 60.1074 -46.4355 C 57.1777 -46.4355 55.3223 -44.2871 55.3223 -40.918 C 55.3223 -37.7441 57.2266 -35.498 60.1074 -35.498 Z"/>
  </g>
  <g id="Medium-S" transform="matrix(1 0 0 1 1699.83 696)">
   <path d="M 46.7285 4.63867 C 68.5547 4.63867 86.6211 -13.4277 86.6211 -35.2539 C 86.6211 -57.0312 68.5059 -75.1465 46.6797 -75.1465 C 24.8535 -75.1465 6.83594 -57.0312 6.83594 -35.2539 C 6.83594 -13.4277 24.9023 4.63867 46.7285 4.63867 Z M 26.709 -19.1895 C 25 -19.1895 23.877 -20.3125 23.877 -22.0703 C 23.877 -23.0469 24.2188 -23.9258 25.0488 -24.8535 L 34.5215 -35.9863 C 36.2305 -38.0371 38.3301 -40.0879 38.3301 -42.4805 C 38.3301 -44.9707 36.5723 -46.6797 33.8867 -46.6797 C 31.6406 -46.6797 29.9805 -45.5566 29.0039 -43.0176 C 28.3691 -41.6992 27.6855 -40.8691 26.3184 -40.8691 C 24.6582 -40.8691 23.6328 -41.9922 23.6328 -43.7012 C 23.6328 -44.2383 23.7305 -44.7754 23.877 -45.3125 C 24.9512 -49.3164 29.1504 -52.2461 33.7891 -52.2461 C 40.0391 -52.2461 44.043 -48.584 44.043 -43.0664 C 44.043 -39.0625 41.8457 -36.1816 39.0137 -32.8613 L 32.4219 -25.2441 L 32.4219 -24.9023 L 42.1387 -24.9023 C 43.75 -24.9023 44.873 -23.877 44.873 -22.0703 C 44.873 -20.2637 43.75 -19.1895 42.1387 -19.1895 Z M 59.375 -18.2617 C 53.7598 -18.2617 50.6348 -21.2402 50 -23.4375 C 49.8047 -24.0234 49.707 -24.5605 49.707 -25 C 49.707 -26.6113 50.7324 -27.7344 52.2949 -27.7344 C 53.3691 -27.7344 54.2969 -27.3438 55.0293 -26.123 C 55.9082 -24.707 57.373 -23.7305 59.2773 -23.7305 C 63.3301 -23.7305 65.8691 -28.2715 65.8203 -34.9121 L 65.5273 -34.9121 C 64.6484 -32.4219 62.3047 -30.2734 58.3008 -30.2734 C 53.2715 -30.2734 48.7793 -33.9355 48.7793 -40.7227 C 48.7793 -47.8516 53.125 -52.2461 59.7656 -52.2461 C 67.4316 -52.2461 71.4844 -46.4355 71.4844 -36.1816 C 71.4844 -24.5605 67.2363 -18.2617 59.375 -18.2617 Z M 60.1074 -35.1562 C 63.2324 -35.1562 65.332 -37.5488 65.332 -40.9668 C 65.332 -44.5312 63.1836 -47.0215 60.1074 -47.0215 C 56.8848 -47.0215 54.8828 -44.6777 54.8828 -41.0156 C 54.8828 -37.5488 56.9824 -35.1562 60.1074 -35.1562 Z"/>
  </g>
  <g id="Regular-S" transform="matrix(1 0 0 1 1403.58 696)">
   <path d="M 46.2402 4.15039 C 67.7734 4.15039 85.6934 -13.7207 85.6934 -35.2539 C 85.6934 -56.7871 67.7246 -74.6582 46.1914 -74.6582 C 24.707 -74.6582 6.83594 -56.7871 6.83594 -35.2539 C 6.83594 -13.7207 24.7559 4.15039 46.2402 4.15039 Z M 25.3906 -18.7988 C 23.7793 -18.7988 22.7539 -19.873 22.7539 -21.4844 C 22.7539 -22.2656 23.0469 -23.0957 23.7793 -23.8281 L 34.0332 -35.9375 C 35.791 -38.0371 38.0859 -40.2832 38.0859 -42.8711 C 38.0859 -45.6543 36.1328 -47.5586 33.1543 -47.5586 C 30.6152 -47.5586 28.8086 -46.3379 27.6367 -43.457 C 27.002 -42.1875 26.3672 -41.4062 25.1465 -41.4062 C 23.584 -41.4062 22.6074 -42.4316 22.6074 -44.0918 C 22.6074 -44.5801 22.7051 -45.1172 22.8027 -45.6055 C 23.9258 -49.6582 28.2227 -52.6855 32.9102 -52.6855 C 39.3555 -52.6855 43.457 -49.0234 43.457 -43.4082 C 43.457 -39.209 41.1133 -36.2793 38.2812 -32.959 L 30.957 -24.4141 L 30.957 -24.1211 L 41.8457 -24.1211 C 43.2129 -24.1211 44.2871 -23.1445 44.2871 -21.4844 C 44.2871 -19.873 43.2129 -18.7988 41.8457 -18.7988 Z M 59.3262 -17.8223 C 53.4668 -17.8223 50.1953 -21.0938 49.6582 -23.3398 C 49.5605 -23.8281 49.4629 -24.3164 49.4629 -24.707 C 49.4629 -26.2695 50.4395 -27.3438 51.8555 -27.3438 C 53.0273 -27.3438 53.9062 -26.9043 54.541 -25.6836 C 55.5176 -24.0723 57.1289 -22.9492 59.2285 -22.9492 C 63.5254 -22.9492 66.5039 -27.5879 66.4062 -34.9609 L 66.0645 -34.9609 C 65.1367 -32.4707 62.7441 -30.127 58.3984 -30.127 C 53.3203 -30.127 48.5352 -33.8379 48.5352 -40.8691 C 48.5352 -48.1445 52.9297 -52.6855 59.7168 -52.6855 C 67.4316 -52.6855 71.7285 -46.8262 71.7285 -36.1816 C 71.7285 -24.2188 67.3828 -17.8223 59.3262 -17.8223 Z M 60.1562 -34.7168 C 63.623 -34.7168 65.918 -37.3535 65.918 -41.1133 C 65.918 -45.0195 63.5742 -47.8027 60.1562 -47.8027 C 56.4941 -47.8027 54.2969 -45.2148 54.2969 -41.1621 C 54.2969 -37.3535 56.5918 -34.7168 60.1562 -34.7168 Z"/>
  </g>
  <g id="Light-S" transform="matrix(1 0 0 1 1107.6 696)">
   <path d="M 45.5078 3.4668 C 66.6992 3.4668 84.2285 -14.0625 84.2285 -35.2051 C 84.2285 -56.3965 66.6504 -73.9258 45.5078 -73.9258 C 24.3164 -73.9258 6.83594 -56.3965 6.83594 -35.2051 C 6.83594 -14.0625 24.3652 3.4668 45.5078 3.4668 Z M 24.5605 -18.8965 C 23.1934 -18.8965 22.3633 -19.7754 22.3633 -21.0938 C 22.3633 -21.7773 22.5586 -22.4121 23.1445 -23.0469 L 34.0332 -35.791 C 36.084 -38.1836 38.0371 -40.4297 38.0371 -43.0176 C 38.0371 -46.1914 35.791 -48.291 32.3242 -48.291 C 29.1992 -48.291 26.9531 -46.582 26.0742 -43.4082 C 25.5859 -42.334 25.0488 -41.6992 23.9746 -41.6992 C 22.7051 -41.6992 21.9238 -42.5293 21.9238 -43.8965 C 21.9238 -44.3359 22.0215 -44.7754 22.0703 -45.2148 C 23.0957 -49.3652 27.3438 -52.4414 32.1777 -52.4414 C 38.3789 -52.4414 42.4316 -48.877 42.4316 -43.3594 C 42.4316 -39.5508 40.332 -36.6699 37.2559 -33.1055 L 28.9062 -23.4375 L 28.9062 -23.1445 L 41.3086 -23.1445 C 42.4316 -23.1445 43.3105 -22.3633 43.3105 -21.0449 C 43.3105 -19.7754 42.4316 -18.8965 41.3086 -18.8965 Z M 58.5938 -18.0664 C 53.3203 -18.0664 50 -21.0449 49.2188 -23.2422 C 49.0234 -23.7305 48.877 -24.3164 48.877 -24.7559 C 48.877 -25.9766 49.6582 -26.8555 50.8301 -26.8555 C 51.7578 -26.8555 52.4414 -26.4648 53.0273 -25.3906 C 54.0039 -23.4863 56.0547 -22.2168 58.5449 -22.2168 C 63.4766 -22.2168 66.6504 -27.0996 66.6016 -35.5957 L 66.3574 -35.5957 C 65.1367 -32.6172 62.4023 -30.2734 57.9102 -30.2734 C 52.5391 -30.2734 47.9004 -34.2773 47.9004 -40.9668 C 47.9004 -47.9004 52.3926 -52.4414 59.0332 -52.4414 C 66.4551 -52.4414 70.8496 -46.9238 70.8496 -36.5723 C 70.8496 -24.3652 66.5527 -18.0664 58.5938 -18.0664 Z M 59.2773 -34.0332 C 63.2812 -34.0332 66.0645 -37.0117 66.0645 -41.1621 C 66.0645 -45.4102 63.2324 -48.4863 59.3262 -48.4863 C 55.1758 -48.4863 52.4902 -45.5566 52.4902 -41.2109 C 52.4902 -37.0117 55.1758 -34.0332 59.2773 -34.0332 Z"/>
  </g>
  <g id="Thin-S" transform="matrix(1 0 0 1 811.867 696)">
   <path d="M 44.5801 2.53906 C 65.2832 2.53906 82.2754 -14.4531 82.2754 -35.2051 C 82.2754 -55.9082 65.2344 -72.9004 44.5312 -72.9004 C 23.8281 -72.9004 6.83594 -55.9082 6.83594 -35.2051 C 6.83594 -14.4531 23.877 2.53906 44.5801 2.53906 Z M 23.4375 -18.9941 C 22.4609 -18.9941 21.7773 -19.6289 21.7773 -20.6055 C 21.7773 -21.1426 21.9238 -21.5332 22.3633 -21.9727 L 34.0332 -35.5469 C 36.4746 -38.4277 37.9395 -40.5762 37.9395 -43.2129 C 37.9395 -46.875 35.4004 -49.2188 31.2012 -49.2188 C 27.2949 -49.2188 24.4629 -46.9238 23.9746 -43.4082 C 23.7305 -42.5293 23.3398 -42.041 22.4609 -42.041 C 21.582 -42.041 20.9961 -42.6758 20.9961 -43.6035 C 20.9961 -43.9941 21.0449 -44.3359 21.1426 -44.7266 C 21.9727 -49.0234 26.2207 -52.0996 31.1523 -52.0996 C 37.1094 -52.0996 41.0156 -48.6816 41.0156 -43.3594 C 41.0156 -39.9902 39.3066 -37.2559 35.8398 -33.252 L 26.2207 -22.0703 L 26.2207 -21.9238 L 40.5762 -21.9238 C 41.4062 -21.9238 41.9434 -21.3379 41.9434 -20.5078 C 41.9434 -19.6777 41.4062 -18.9941 40.5762 -18.9941 Z M 57.5684 -18.4082 C 53.125 -18.4082 49.7559 -20.9473 48.6328 -23.0957 C 48.3398 -23.6328 48.0957 -24.2676 48.0957 -24.8047 C 48.0957 -25.6348 48.6328 -26.2207 49.4141 -26.2207 C 50.0977 -26.2207 50.5859 -25.8301 50.9766 -25.0488 C 52.0508 -22.7539 54.6387 -21.2402 57.5684 -21.2402 C 63.3789 -21.2402 66.8457 -26.416 66.8457 -36.4258 L 66.6992 -36.4258 C 65.1855 -32.7637 61.9629 -30.5176 57.2754 -30.5176 C 51.5137 -30.5176 47.0703 -34.9121 47.0703 -41.1133 C 47.0703 -47.6074 51.6602 -52.0996 58.0566 -52.0996 C 65.0879 -52.0996 69.6777 -47.0703 69.6777 -37.0605 C 69.6777 -24.5117 65.4297 -18.4082 57.5684 -18.4082 Z M 58.1055 -33.1543 C 62.793 -33.1543 66.2598 -36.6211 66.2598 -41.2109 C 66.2598 -45.8984 62.7441 -49.3652 58.2031 -49.3652 C 53.4668 -49.3652 50.0977 -46.0449 50.0977 -41.3086 C 50.0977 -36.6211 53.3691 -33.1543 58.1055 -33.1543 Z"/>
  </g>
  <g id="Ultralight-S" transform="matrix(1 0 0 1 515.644 696)">
   <path d="M 44.043 2.05078 C 64.502 2.05078 81.2988 -14.6973 81.2988 -35.1562 C 81.2988 -55.6152 64.502 -72.3633 44.043 -72.3633 C 23.584 -72.3633 6.83594 -55.6152 6.83594 -35.1562 C 6.83594 -14.6973 23.584 2.05078 44.043 2.05078 Z M 22.8516 -19.0918 C 22.0703 -19.0918 21.4844 -19.5312 21.4844 -20.3125 C 21.4844 -20.8496 21.6309 -21.0938 21.9238 -21.4355 L 34.0332 -35.4492 C 36.6699 -38.5254 37.8906 -40.7227 37.8906 -43.3105 C 37.8906 -47.2168 35.1562 -49.7559 30.6641 -49.7559 C 26.3672 -49.7559 23.1934 -47.0703 22.9004 -43.3594 C 22.7539 -42.627 22.4121 -42.2363 21.6797 -42.2363 C 20.9961 -42.2363 20.5078 -42.7734 20.5078 -43.457 C 20.5078 -43.7988 20.5566 -44.0918 20.6055 -44.4824 C 21.3867 -48.8281 25.6348 -51.9531 30.6152 -51.9531 C 36.4258 -51.9531 40.2832 -48.584 40.2832 -43.3105 C 40.2832 -40.2344 38.7695 -37.5488 35.1074 -33.3496 L 24.8047 -21.3867 L 24.8047 -21.2891 L 40.1855 -21.2891 C 40.8691 -21.2891 41.2598 -20.8008 41.2598 -20.166 C 41.2598 -19.5801 40.8691 -19.0918 40.1855 -19.0918 Z M 57.0312 -18.5547 C 53.0273 -18.5547 49.6582 -20.8984 48.291 -22.998 C 47.998 -23.584 47.7051 -24.2676 47.7051 -24.8535 C 47.7051 -25.4395 48.0957 -25.9277 48.6816 -25.9277 C 49.2676 -25.9277 49.6094 -25.4883 49.9023 -24.8535 C 51.0742 -22.3633 53.8574 -20.7031 57.0801 -20.7031 C 63.3301 -20.7031 66.9434 -26.0742 66.9434 -36.8652 L 66.8945 -36.8652 C 65.1855 -32.8613 61.7188 -30.6152 56.9824 -30.6152 C 50.9766 -30.6152 46.6309 -35.2539 46.6309 -41.2109 C 46.6309 -47.4609 51.2695 -51.9531 57.5684 -51.9531 C 64.4043 -51.9531 69.0918 -47.168 69.0918 -37.3047 C 69.0918 -24.6582 64.8926 -18.5547 57.0312 -18.5547 Z M 57.5195 -32.666 C 62.5488 -32.666 66.3574 -36.377 66.3574 -41.2598 C 66.3574 -46.1914 62.5 -49.8047 57.6172 -49.8047 C 52.5391 -49.8047 48.877 -46.2891 48.877 -41.3574 C 48.877 -36.377 52.3926 -32.666 57.5195 -32.666 Z"/>
  </g>
 </g>
</svg>
