<?xml version="1.0" encoding="UTF-8"?>
<!--Generator: Apple Native CoreSVG 123-->
<!DOCTYPE svg
PUBLIC "-//W3C//DTD SVG 1.1//EN"
       "http://www.w3.org/Graphics/SVG/1.1/DTD/svg11.dtd">
<svg version="1.1" xmlns="http://www.w3.org/2000/svg" xmlns:xlink="http://www.w3.org/1999/xlink" width="3300" height="2200">
 <!--glyph: "uni10003F.medium", point size: 100.000000, font version: "Version 15.0d7e11", template writer version: "5"-->
 <g id="Notes">
  <rect height="2200" id="artboard" style="fill:white;opacity:1" width="3300" x="0" y="0"/>
  <line id="" style="fill:none;stroke:black;opacity:1;stroke-width:0.5;" x1="263" x2="3036" y1="292" y2="292"/>
  <text style="stroke:none;fill:black;font-family:-apple-system,&quot;SF Pro Display&quot;,&quot;SF Pro Text&quot;,Helvetica,sans-serif;font-weight:bold;" transform="matrix(1 0 0 1 263 322)">Weight/Scale Variations</text>
  <text style="stroke:none;fill:black;font-family:-apple-system,&quot;SF Pro Display&quot;,&quot;SF Pro Text&quot;,Helvetica,sans-serif;text-anchor:middle;" transform="matrix(1 0 0 1 559.711 322)">Ultralight</text>
  <text style="stroke:none;fill:black;font-family:-apple-system,&quot;SF Pro Display&quot;,&quot;SF Pro Text&quot;,Helvetica,sans-serif;text-anchor:middle;" transform="matrix(1 0 0 1 856.422 322)">Thin</text>
  <text style="stroke:none;fill:black;font-family:-apple-system,&quot;SF Pro Display&quot;,&quot;SF Pro Text&quot;,Helvetica,sans-serif;text-anchor:middle;" transform="matrix(1 0 0 1 1153.13 322)">Light</text>
  <text style="stroke:none;fill:black;font-family:-apple-system,&quot;SF Pro Display&quot;,&quot;SF Pro Text&quot;,Helvetica,sans-serif;text-anchor:middle;" transform="matrix(1 0 0 1 1449.84 322)">Regular</text>
  <text style="stroke:none;fill:black;font-family:-apple-system,&quot;SF Pro Display&quot;,&quot;SF Pro Text&quot;,Helvetica,sans-serif;text-anchor:middle;" transform="matrix(1 0 0 1 1746.56 322)">Medium</text>
  <text style="stroke:none;fill:black;font-family:-apple-system,&quot;SF Pro Display&quot;,&quot;SF Pro Text&quot;,Helvetica,sans-serif;text-anchor:middle;" transform="matrix(1 0 0 1 2043.27 322)">Semibold</text>
  <text style="stroke:none;fill:black;font-family:-apple-system,&quot;SF Pro Display&quot;,&quot;SF Pro Text&quot;,Helvetica,sans-serif;text-anchor:middle;" transform="matrix(1 0 0 1 2339.98 322)">Bold</text>
  <text style="stroke:none;fill:black;font-family:-apple-system,&quot;SF Pro Display&quot;,&quot;SF Pro Text&quot;,Helvetica,sans-serif;text-anchor:middle;" transform="matrix(1 0 0 1 2636.69 322)">Heavy</text>
  <text style="stroke:none;fill:black;font-family:-apple-system,&quot;SF Pro Display&quot;,&quot;SF Pro Text&quot;,Helvetica,sans-serif;text-anchor:middle;" transform="matrix(1 0 0 1 2933.4 322)">Black</text>
  <line id="" style="fill:none;stroke:black;opacity:1;stroke-width:0.5;" x1="263" x2="3036" y1="1903" y2="1903"/>
  <g id="" transform="matrix(1 0 0 1 263 1933)">
   <path d="M 9.24805 0.830078 C 13.5547 0.830078 17.1387 -2.74414 17.1387 -7.05078 C 17.1387 -11.3574 13.5449 -14.9316 9.23828 -14.9316 C 4.94141 -14.9316 1.36719 -11.3574 1.36719 -7.05078 C 1.36719 -2.74414 4.95117 0.830078 9.24805 0.830078 Z M 9.24805 -0.654297 C 5.70312 -0.654297 2.87109 -3.49609 2.87109 -7.05078 C 2.87109 -10.6055 5.69336 -13.4473 9.23828 -13.4473 C 12.793 -13.4473 15.6348 -10.6055 15.6445 -7.05078 C 15.6543 -3.49609 12.8027 -0.654297 9.24805 -0.654297 Z M 9.22852 -3.42773 C 9.69727 -3.42773 9.9707 -3.74023 9.9707 -4.25781 L 9.9707 -6.31836 L 12.1973 -6.31836 C 12.6953 -6.31836 13.0371 -6.57227 13.0371 -7.04102 C 13.0371 -7.51953 12.7148 -7.7832 12.1973 -7.7832 L 9.9707 -7.7832 L 9.9707 -10.0098 C 9.9707 -10.5273 9.69727 -10.8496 9.22852 -10.8496 C 8.75977 -10.8496 8.50586 -10.5078 8.50586 -10.0098 L 8.50586 -7.7832 L 6.29883 -7.7832 C 5.78125 -7.7832 5.44922 -7.51953 5.44922 -7.04102 C 5.44922 -6.57227 5.80078 -6.31836 6.29883 -6.31836 L 8.50586 -6.31836 L 8.50586 -4.25781 C 8.50586 -3.75977 8.75977 -3.42773 9.22852 -3.42773 Z"/>
  </g>
  <g id="" transform="matrix(1 0 0 1 281.506 1933)">
   <path d="M 11.709 2.91016 C 17.1582 2.91016 21.6699 -1.60156 21.6699 -7.05078 C 21.6699 -12.4902 17.1484 -17.0117 11.6992 -17.0117 C 6.25977 -17.0117 1.74805 -12.4902 1.74805 -7.05078 C 1.74805 -1.60156 6.26953 2.91016 11.709 2.91016 Z M 11.709 1.25 C 7.09961 1.25 3.41797 -2.44141 3.41797 -7.05078 C 3.41797 -11.6504 7.08984 -15.3516 11.6992 -15.3516 C 16.3086 -15.3516 20 -11.6504 20.0098 -7.05078 C 20.0195 -2.44141 16.3184 1.25 11.709 1.25 Z M 11.6895 -2.41211 C 12.207 -2.41211 12.5195 -2.77344 12.5195 -3.33984 L 12.5195 -6.23047 L 15.5762 -6.23047 C 16.123 -6.23047 16.5039 -6.51367 16.5039 -7.03125 C 16.5039 -7.55859 16.1426 -7.86133 15.5762 -7.86133 L 12.5195 -7.86133 L 12.5195 -10.9277 C 12.5195 -11.5039 12.207 -11.8555 11.6895 -11.8555 C 11.1719 -11.8555 10.8789 -11.4844 10.8789 -10.9277 L 10.8789 -7.86133 L 7.83203 -7.86133 C 7.26562 -7.86133 6.89453 -7.55859 6.89453 -7.03125 C 6.89453 -6.51367 7.28516 -6.23047 7.83203 -6.23047 L 10.8789 -6.23047 L 10.8789 -3.33984 C 10.8789 -2.79297 11.1719 -2.41211 11.6895 -2.41211 Z"/>
  </g>
  <g id="" transform="matrix(1 0 0 1 304.924 1933)">
   <path d="M 14.9707 5.67383 C 21.9336 5.67383 27.6953 -0.078125 27.6953 -7.04102 C 27.6953 -14.0039 21.9238 -19.7559 14.9609 -19.7559 C 8.00781 -19.7559 2.25586 -14.0039 2.25586 -7.04102 C 2.25586 -0.078125 8.01758 5.67383 14.9707 5.67383 Z M 14.9707 3.85742 C 8.93555 3.85742 4.08203 -1.00586 4.08203 -7.04102 C 4.08203 -13.0762 8.92578 -17.9395 14.9609 -17.9395 C 21.0059 -17.9395 25.8594 -13.0762 25.8691 -7.04102 C 25.8789 -1.00586 21.0156 3.85742 14.9707 3.85742 Z M 14.9512 -1.06445 C 15.5176 -1.06445 15.8691 -1.45508 15.8691 -2.06055 L 15.8691 -6.13281 L 20.1074 -6.13281 C 20.6934 -6.13281 21.1133 -6.46484 21.1133 -7.02148 C 21.1133 -7.59766 20.7227 -7.93945 20.1074 -7.93945 L 15.8691 -7.93945 L 15.8691 -12.1875 C 15.8691 -12.8027 15.5176 -13.1934 14.9512 -13.1934 C 14.3848 -13.1934 14.0625 -12.7832 14.0625 -12.1875 L 14.0625 -7.93945 L 9.83398 -7.93945 C 9.21875 -7.93945 8.80859 -7.59766 8.80859 -7.02148 C 8.80859 -6.46484 9.23828 -6.13281 9.83398 -6.13281 L 14.0625 -6.13281 L 14.0625 -2.06055 C 14.0625 -1.47461 14.3848 -1.06445 14.9512 -1.06445 Z"/>
  </g>
  <text style="stroke:none;fill:black;font-family:-apple-system,&quot;SF Pro Display&quot;,&quot;SF Pro Text&quot;,Helvetica,sans-serif;font-weight:bold;" transform="matrix(1 0 0 1 263 1953)">Design Variations</text>
  <text style="stroke:none;fill:black;font-family:-apple-system,&quot;SF Pro Display&quot;,&quot;SF Pro Text&quot;,Helvetica,sans-serif;" transform="matrix(1 0 0 1 263 1971)">Symbols are supported in up to nine weights and three scales.</text>
  <text style="stroke:none;fill:black;font-family:-apple-system,&quot;SF Pro Display&quot;,&quot;SF Pro Text&quot;,Helvetica,sans-serif;" transform="matrix(1 0 0 1 263 1989)">For optimal layout with text and other symbols, vertically align</text>
  <text style="stroke:none;fill:black;font-family:-apple-system,&quot;SF Pro Display&quot;,&quot;SF Pro Text&quot;,Helvetica,sans-serif;" transform="matrix(1 0 0 1 263 2007)">symbols with the adjacent text.</text>
  <rect height="14" id="" style="fill:#00AEEF;stroke:none;opacity:0.4;" width="3" x="776" y="1919"/>
  <g id="" transform="matrix(1 0 0 1 779 1933)">
   <path d="M 10.5273 0 L 12.373 0 L 7.17773 -14.0918 L 5.43945 -14.0918 L 0.244141 0 L 2.08984 0 L 3.50586 -4.0332 L 9.11133 -4.0332 Z M 6.2793 -11.9531 L 6.33789 -11.9531 L 8.59375 -5.52734 L 4.02344 -5.52734 Z"/>
  </g>
  <rect height="14" id="" style="fill:#00AEEF;stroke:none;opacity:0.4;" width="3" x="791.617" y="1919"/>
  <text style="stroke:none;fill:black;font-family:-apple-system,&quot;SF Pro Display&quot;,&quot;SF Pro Text&quot;,Helvetica,sans-serif;font-weight:bold;" transform="matrix(1 0 0 1 776 1953)">Margins</text>
  <text style="stroke:none;fill:black;font-family:-apple-system,&quot;SF Pro Display&quot;,&quot;SF Pro Text&quot;,Helvetica,sans-serif;" transform="matrix(1 0 0 1 776 1971)">Leading and trailing margins on the left and right side of each symbol</text>
  <text style="stroke:none;fill:black;font-family:-apple-system,&quot;SF Pro Display&quot;,&quot;SF Pro Text&quot;,Helvetica,sans-serif;" transform="matrix(1 0 0 1 776 1989)">can be adjusted by modifying the width of the blue rectangles.</text>
  <text style="stroke:none;fill:black;font-family:-apple-system,&quot;SF Pro Display&quot;,&quot;SF Pro Text&quot;,Helvetica,sans-serif;" transform="matrix(1 0 0 1 776 2007)">Modifications are automatically applied proportionally to all</text>
  <text style="stroke:none;fill:black;font-family:-apple-system,&quot;SF Pro Display&quot;,&quot;SF Pro Text&quot;,Helvetica,sans-serif;" transform="matrix(1 0 0 1 776 2025)">scales and weights.</text>
  <g id="" transform="matrix(1 0 0 1 1289 1933)">
   <path d="M 2.83203 3.11523 L 4.375 4.6582 C 5.22461 5.48828 6.19141 5.41992 7.06055 4.46289 L 17.2754 -6.66016 C 17.7051 -6.36719 18.0957 -6.37695 18.5645 -6.47461 L 19.6094 -6.68945 L 20.3027 -5.99609 L 20.2539 -5.47852 C 20.1855 -4.95117 20.3516 -4.53125 20.8496 -4.0332 L 21.6602 -3.22266 C 22.168 -2.71484 22.8223 -2.68555 23.3008 -3.16406 L 26.5527 -6.41602 C 27.0312 -6.89453 27.0117 -7.54883 26.5039 -8.05664 L 25.6836 -8.87695 C 25.1855 -9.375 24.7754 -9.55078 24.2383 -9.47266 L 23.7109 -9.41406 L 23.0566 -10.0781 L 23.3398 -11.2207 C 23.4863 -11.7871 23.3398 -12.2559 22.7148 -12.8613 L 20.3027 -15.2539 C 16.7578 -18.7793 12.2266 -18.6719 9.11133 -15.5371 C 8.69141 -15.1074 8.64258 -14.5215 8.91602 -14.0918 C 9.15039 -13.7207 9.62891 -13.4961 10.2734 -13.6621 C 11.7871 -14.043 13.3008 -13.9258 14.7852 -12.9199 L 14.1602 -11.3379 C 13.9258 -10.752 13.9453 -10.2734 14.1797 -9.83398 L 3.01758 0.439453 C 2.08008 1.30859 1.97266 2.25586 2.83203 3.11523 Z M 10.6738 -15.1465 C 13.3398 -17.1387 16.6504 -16.8262 19.0527 -14.4141 L 21.6797 -11.8066 C 21.9141 -11.5723 21.9434 -11.3867 21.8848 -11.0938 L 21.5039 -9.53125 L 23.0762 -7.95898 L 24.043 -8.04688 C 24.3262 -8.07617 24.4141 -8.05664 24.6387 -7.83203 L 25.2637 -7.20703 L 22.5098 -4.46289 L 21.8848 -5.07812 C 21.6602 -5.30273 21.6406 -5.40039 21.6699 -5.68359 L 21.7578 -6.64062 L 20.1953 -8.20312 L 18.5742 -7.89062 C 18.291 -7.83203 18.1445 -7.83203 17.9102 -8.07617 L 15.7324 -10.2539 C 15.5078 -10.4883 15.4785 -10.625 15.6055 -10.9473 L 16.5527 -13.2227 C 14.9512 -14.7559 12.8418 -15.6055 10.8008 -14.9512 C 10.7129 -14.9219 10.6445 -14.9414 10.6152 -14.9805 C 10.5859 -15.0293 10.5859 -15.0781 10.6738 -15.1465 Z M 4.10156 2.41211 C 3.61328 1.91406 3.78906 1.61133 4.12109 1.30859 L 15.0781 -8.80859 L 16.3086 -7.57812 L 6.15234 3.34961 C 5.84961 3.68164 5.46875 3.7793 5.06836 3.37891 Z"/>
  </g>
  <text style="stroke:none;fill:black;font-family:-apple-system,&quot;SF Pro Display&quot;,&quot;SF Pro Text&quot;,Helvetica,sans-serif;font-weight:bold;" transform="matrix(1 0 0 1 1289 1953)">Exporting</text>
  <text style="stroke:none;fill:black;font-family:-apple-system,&quot;SF Pro Display&quot;,&quot;SF Pro Text&quot;,Helvetica,sans-serif;" transform="matrix(1 0 0 1 1289 1971)">Symbols should be outlined when exporting to ensure the</text>
  <text style="stroke:none;fill:black;font-family:-apple-system,&quot;SF Pro Display&quot;,&quot;SF Pro Text&quot;,Helvetica,sans-serif;" transform="matrix(1 0 0 1 1289 1989)">design is preserved when submitting to Xcode.</text>
  <text id="template-version" style="stroke:none;fill:black;font-family:-apple-system,&quot;SF Pro Display&quot;,&quot;SF Pro Text&quot;,Helvetica,sans-serif;text-anchor:end;" transform="matrix(1 0 0 1 3036 1933)">Template v.1.0</text>
  <text style="stroke:none;fill:black;font-family:-apple-system,&quot;SF Pro Display&quot;,&quot;SF Pro Text&quot;,Helvetica,sans-serif;text-anchor:end;" transform="matrix(1 0 0 1 3036 1951)">Generated from 3.circle.fill</text>
  <text style="stroke:none;fill:black;font-family:-apple-system,&quot;SF Pro Display&quot;,&quot;SF Pro Text&quot;,Helvetica,sans-serif;text-anchor:end;" transform="matrix(1 0 0 1 3036 1969)">Typeset at 100 points</text>
  <text style="stroke:none;fill:black;font-family:-apple-system,&quot;SF Pro Display&quot;,&quot;SF Pro Text&quot;,Helvetica,sans-serif;" transform="matrix(1 0 0 1 263 726)">Small</text>
  <text style="stroke:none;fill:black;font-family:-apple-system,&quot;SF Pro Display&quot;,&quot;SF Pro Text&quot;,Helvetica,sans-serif;" transform="matrix(1 0 0 1 263 1156)">Medium</text>
  <text style="stroke:none;fill:black;font-family:-apple-system,&quot;SF Pro Display&quot;,&quot;SF Pro Text&quot;,Helvetica,sans-serif;" transform="matrix(1 0 0 1 263 1586)">Large</text>
 </g>
 <g id="Guides">
  <g id="H-reference" style="fill:#27AAE1;stroke:none;" transform="matrix(1 0 0 1 339 696)">
   <path d="M 54.9316 0 L 57.666 0 L 30.5664 -70.459 L 28.0762 -70.459 L 0.976562 0 L 3.66211 0 L 12.9395 -24.4629 L 45.7031 -24.4629 Z M 29.1992 -67.0898 L 29.4434 -67.0898 L 44.8242 -26.709 L 13.8184 -26.709 Z"/>
  </g>
  <line id="Baseline-S" style="fill:none;stroke:#27AAE1;opacity:1;stroke-width:0.577;" x1="263" x2="3036" y1="696" y2="696"/>
  <line id="Capline-S" style="fill:none;stroke:#27AAE1;opacity:1;stroke-width:0.577;" x1="263" x2="3036" y1="625.541" y2="625.541"/>
  <g id="H-reference" style="fill:#27AAE1;stroke:none;" transform="matrix(1 0 0 1 339 1126)">
   <path d="M 54.9316 0 L 57.666 0 L 30.5664 -70.459 L 28.0762 -70.459 L 0.976562 0 L 3.66211 0 L 12.9395 -24.4629 L 45.7031 -24.4629 Z M 29.1992 -67.0898 L 29.4434 -67.0898 L 44.8242 -26.709 L 13.8184 -26.709 Z"/>
  </g>
  <line id="Baseline-M" style="fill:none;stroke:#27AAE1;opacity:1;stroke-width:0.577;" x1="263" x2="3036" y1="1126" y2="1126"/>
  <line id="Capline-M" style="fill:none;stroke:#27AAE1;opacity:1;stroke-width:0.577;" x1="263" x2="3036" y1="1055.54" y2="1055.54"/>
  <g id="H-reference" style="fill:#27AAE1;stroke:none;" transform="matrix(1 0 0 1 339 1556)">
   <path d="M 54.9316 0 L 57.666 0 L 30.5664 -70.459 L 28.0762 -70.459 L 0.976562 0 L 3.66211 0 L 12.9395 -24.4629 L 45.7031 -24.4629 Z M 29.1992 -67.0898 L 29.4434 -67.0898 L 44.8242 -26.709 L 13.8184 -26.709 Z"/>
  </g>
  <line id="Baseline-L" style="fill:none;stroke:#27AAE1;opacity:1;stroke-width:0.577;" x1="263" x2="3036" y1="1556" y2="1556"/>
  <line id="Capline-L" style="fill:none;stroke:#27AAE1;opacity:1;stroke-width:0.577;" x1="263" x2="3036" y1="1485.54" y2="1485.54"/>
  <rect height="119.336" id="left-margin" style="fill:#00AEEF;stroke:none;opacity:0.4;" width="8.74023" x="1391.3" y="1030.79"/>
  <rect height="119.336" id="right-margin" style="fill:#00AEEF;stroke:none;opacity:0.4;" width="8.74023" x="1499.65" y="1030.79"/>
 </g>
 <g id="Symbols">
  <g id="Black-L" transform="matrix(1 0 0 1 2854.05 1556)">
   <path d="M 79.3457 32.8613 C 116.748 32.8613 147.412 2.19727 147.412 -35.2051 C 147.412 -72.6074 116.748 -103.271 79.2969 -103.271 C 41.8945 -103.271 11.2793 -72.6074 11.2793 -35.2051 C 11.2793 2.19727 41.9434 32.8613 79.3457 32.8613 Z M 79.1992 -4.6875 C 67.9199 -4.6875 58.4473 -9.52148 55.957 -16.4551 C 55.5664 -17.6758 55.3711 -18.7988 55.3711 -20.0684 C 55.3711 -24.5605 58.5938 -27.4902 63.7695 -27.4902 C 66.9922 -27.4902 69.2871 -26.2207 71.2402 -23.584 C 73.0469 -20.8496 75.5371 -19.2383 79.6387 -19.2383 C 83.3496 -19.2383 85.8887 -21.0938 85.8887 -23.7793 C 85.8887 -26.7578 83.3984 -28.4668 79.0527 -28.4668 L 77.832 -28.4668 C 72.8516 -28.4668 69.6289 -31.2988 69.6289 -35.6445 C 69.6289 -40.0879 72.7539 -42.7734 77.832 -42.7734 L 78.9551 -42.7734 C 82.5684 -42.7734 84.9121 -44.7754 84.9121 -47.6562 C 84.9121 -50.2441 82.7637 -51.8555 79.248 -51.8555 C 76.0254 -51.8555 73.4863 -50.2441 71.7285 -47.4609 C 69.7754 -44.7754 67.5293 -43.5547 64.3555 -43.5547 C 59.082 -43.5547 55.8594 -46.3867 55.8594 -50.8789 C 55.8594 -52.1973 56.0547 -53.3691 56.543 -54.5898 C 58.9844 -61.5234 67.4805 -65.8691 79.3945 -65.8691 C 93.9453 -65.8691 103.467 -59.4238 103.467 -49.6582 C 103.467 -43.75 98.3887 -38.2324 92.3828 -37.3535 L 92.3828 -36.4746 C 99.6582 -35.8398 104.98 -30.0293 104.98 -22.6074 C 104.98 -11.6699 95.166 -4.6875 79.1992 -4.6875 Z"/>
  </g>
  <g id="Heavy-L" transform="matrix(1 0 0 1 2558.39 1556)">
   <path d="M 78.2715 31.7871 C 115.088 31.7871 145.312 1.61133 145.312 -35.2051 C 145.312 -72.0215 115.039 -102.197 78.2715 -102.197 C 41.4551 -102.197 11.2793 -72.0215 11.2793 -35.2051 C 11.2793 1.61133 41.5039 31.7871 78.2715 31.7871 Z M 78.2715 -4.6875 C 67.2363 -4.6875 58.0566 -9.57031 55.7129 -16.6016 C 55.3223 -17.7246 55.1758 -18.7012 55.1758 -19.9219 C 55.1758 -23.877 58.0566 -26.4648 62.5 -26.4648 C 65.4785 -26.4648 67.5293 -25.293 69.1895 -22.8027 C 70.8984 -19.5801 73.8281 -17.4805 78.6621 -17.4805 C 83.3496 -17.4805 86.5234 -19.873 86.5234 -23.4375 C 86.5234 -27.1484 83.3984 -29.4434 78.3203 -29.4434 L 76.2207 -29.4434 C 71.9238 -29.4434 69.1406 -31.9824 69.1406 -35.791 C 69.1406 -39.6484 71.875 -42.041 76.2207 -42.041 L 78.125 -42.041 C 82.4219 -42.041 85.3516 -44.5801 85.3516 -48.0957 C 85.3516 -51.3672 82.666 -53.4668 78.3691 -53.4668 C 74.4141 -53.4668 71.4844 -51.4648 69.8242 -48.1445 C 68.2129 -45.6055 66.2109 -44.4336 63.2324 -44.4336 C 58.6914 -44.4336 55.8594 -46.9727 55.8594 -50.9277 C 55.8594 -52.1484 56.0547 -53.1738 56.4453 -54.3457 C 58.6426 -61.4258 67.041 -65.8691 78.5156 -65.8691 C 92.334 -65.8691 101.465 -59.4727 101.465 -49.9023 C 101.465 -43.75 96.4355 -38.1348 90.2832 -37.2559 L 90.2832 -36.4746 C 97.7051 -35.791 103.125 -29.8828 103.125 -22.4609 C 103.125 -11.7188 93.6035 -4.6875 78.2715 -4.6875 Z"/>
  </g>
  <g id="Bold-L" transform="matrix(1 0 0 1 2262.88 1556)">
   <path d="M 77.0996 30.6152 C 113.232 30.6152 142.92 0.878906 142.92 -35.2051 C 142.92 -71.3379 113.184 -101.025 77.0508 -101.025 C 40.9668 -101.025 11.2793 -71.3379 11.2793 -35.2051 C 11.2793 0.878906 41.0156 30.6152 77.0996 30.6152 Z M 77.2461 -4.6875 C 66.4551 -4.6875 57.6172 -9.57031 55.4199 -16.748 C 55.0781 -17.8223 54.9805 -18.6035 54.9805 -19.7266 C 54.9805 -23.0957 57.4219 -25.3418 61.1328 -25.3418 C 63.7207 -25.3418 65.4785 -24.2676 66.8457 -21.9238 C 68.5059 -18.1641 71.9238 -15.5762 77.5391 -15.5762 C 83.3496 -15.5762 87.3047 -18.5547 87.3047 -22.998 C 87.3047 -27.5879 83.3984 -30.5664 77.4414 -30.5664 L 74.4141 -30.5664 C 70.9473 -30.5664 68.5547 -32.7148 68.5547 -35.9375 C 68.5547 -39.1602 70.8496 -41.2598 74.4141 -41.2598 L 77.1973 -41.2598 C 82.2266 -41.2598 85.791 -44.3359 85.791 -48.6328 C 85.791 -52.6855 82.5684 -55.2246 77.3926 -55.2246 C 72.6562 -55.2246 69.1895 -52.832 67.6758 -48.9258 C 66.4062 -46.5332 64.6973 -45.4102 62.0117 -45.4102 C 58.252 -45.4102 55.8594 -47.6074 55.8594 -50.9766 C 55.8594 -52.0996 56.0059 -52.9785 56.3477 -54.0527 C 58.3008 -61.2793 66.5039 -65.8691 77.5391 -65.8691 C 90.4785 -65.8691 99.2676 -59.4727 99.2676 -50.1465 C 99.2676 -43.7988 94.2383 -38.0371 87.9395 -37.1094 L 87.9395 -36.4258 C 95.5078 -35.7422 101.074 -29.7363 101.074 -22.2656 C 101.074 -11.8164 91.8945 -4.6875 77.2461 -4.6875 Z"/>
  </g>
  <g id="Semibold-L" transform="matrix(1 0 0 1 1966.97 1556)">
   <path d="M 76.2695 29.7852 C 111.914 29.7852 141.309 0.439453 141.309 -35.2051 C 141.309 -70.8496 111.865 -100.244 76.2695 -100.244 C 40.625 -100.244 11.2793 -70.8496 11.2793 -35.2051 C 11.2793 0.439453 40.6738 29.7852 76.2695 29.7852 Z M 76.5137 -4.63867 C 65.9668 -4.63867 57.3242 -9.61914 55.2246 -16.8457 C 54.9316 -17.8711 54.834 -18.5547 54.834 -19.5801 C 54.834 -22.5586 56.9824 -24.6094 60.1562 -24.6094 C 62.5488 -24.6094 64.1113 -23.584 65.2344 -21.2891 C 66.8457 -17.1875 70.6543 -14.209 76.8066 -14.209 C 83.3496 -14.209 87.793 -17.627 87.793 -22.7539 C 87.793 -27.8809 83.3984 -31.3477 76.8555 -31.3477 L 73.1934 -31.3477 C 70.2148 -31.3477 68.1641 -33.252 68.1641 -36.0352 C 68.1641 -38.8672 70.166 -40.6738 73.1934 -40.6738 L 76.5625 -40.6738 C 82.1289 -40.6738 86.1328 -44.1895 86.1328 -48.9746 C 86.1328 -53.5645 82.5195 -56.4941 76.7578 -56.4941 C 71.4355 -56.4941 67.6758 -53.7598 66.2109 -49.4141 C 65.1855 -47.168 63.623 -46.0938 61.1816 -46.0938 C 57.959 -46.0938 55.8594 -48.0469 55.8594 -51.0254 C 55.8594 -52.0508 55.957 -52.8809 56.25 -53.8574 C 58.0566 -61.1816 66.1621 -65.8691 76.8555 -65.8691 C 89.209 -65.8691 97.7051 -59.4727 97.7051 -50.293 C 97.7051 -43.7988 92.7246 -37.9883 86.3281 -36.9629 L 86.3281 -36.4258 C 93.9941 -35.6934 99.6582 -29.6875 99.6582 -22.168 C 99.6582 -11.8164 90.7227 -4.63867 76.5137 -4.63867 Z"/>
  </g>
  <g id="Medium-L" transform="matrix(1 0 0 1 1670.87 1556)">
   <path d="M 75.6836 29.1992 C 110.938 29.1992 140.088 0.0488281 140.088 -35.2051 C 140.088 -70.459 110.889 -99.6094 75.6348 -99.6094 C 40.3809 -99.6094 11.2793 -70.459 11.2793 -35.2051 C 11.2793 0.0488281 40.3809 29.1992 75.6836 29.1992 Z M 75.9766 -4.63867 C 65.5762 -4.63867 57.1289 -9.61914 55.0293 -16.9434 C 54.7852 -17.8711 54.6875 -18.5059 54.6875 -19.4824 C 54.6875 -22.1191 56.6406 -24.0234 59.4238 -24.0234 C 61.6699 -24.0234 63.0371 -23.0469 64.0625 -20.8008 C 65.625 -16.4551 69.6289 -13.1836 76.2207 -13.1836 C 83.3496 -13.1836 88.1836 -16.9434 88.1836 -22.5586 C 88.1836 -28.125 83.3984 -31.9336 76.416 -31.9336 L 72.2656 -31.9336 C 69.6777 -31.9336 67.8711 -33.6426 67.8711 -36.1328 C 67.8711 -38.623 69.6777 -40.2832 72.2656 -40.2832 L 76.123 -40.2832 C 82.0312 -40.2832 86.377 -44.0918 86.377 -49.2188 C 86.377 -54.248 82.4707 -57.4219 76.2207 -57.4219 C 70.5078 -57.4219 66.4551 -54.4434 65.0879 -49.8047 C 64.2578 -47.6562 62.8418 -46.6309 60.5469 -46.6309 C 57.7148 -46.6309 55.8594 -48.3887 55.8594 -51.0254 C 55.8594 -52.002 55.957 -52.7344 56.2012 -53.7109 C 57.9102 -61.1328 65.8691 -65.8691 76.3672 -65.8691 C 88.2324 -65.8691 96.582 -59.5215 96.582 -50.4395 C 96.582 -43.7988 91.5527 -37.9395 85.1074 -36.9141 L 85.1074 -36.377 C 92.8711 -35.6445 98.584 -29.5898 98.584 -22.0703 C 98.584 -11.8652 89.7949 -4.63867 75.9766 -4.63867 Z"/>
  </g>
  <g id="Regular-L" transform="matrix(1 0 0 1 1374.97 1556)">
   <path d="M 74.8535 28.3691 C 109.668 28.3691 138.477 -0.390625 138.477 -35.2051 C 138.477 -70.0195 109.619 -98.7793 74.8047 -98.7793 C 40.0391 -98.7793 11.2793 -70.0195 11.2793 -35.2051 C 11.2793 -0.390625 40.0879 28.3691 74.8535 28.3691 Z M 75.293 -4.63867 C 65.0391 -4.63867 56.8359 -9.61914 54.834 -17.041 C 54.6387 -17.9199 54.541 -18.457 54.541 -19.3359 C 54.541 -21.582 56.2012 -23.2422 58.4961 -23.2422 C 60.498 -23.2422 61.6699 -22.3145 62.4512 -20.2148 C 63.9648 -15.4785 68.3594 -11.8652 75.4395 -11.8652 C 83.3496 -11.8652 88.6719 -16.0645 88.6719 -22.2656 C 88.6719 -28.418 83.3984 -32.7148 75.8301 -32.7148 L 71.0449 -32.7148 C 68.9941 -32.7148 67.4805 -34.1797 67.4805 -36.2305 C 67.4805 -38.2812 68.9941 -39.6973 71.0449 -39.6973 L 75.4883 -39.6973 C 81.8848 -39.6973 86.6699 -43.9453 86.6699 -49.5605 C 86.6699 -55.127 82.4219 -58.6426 75.5859 -58.6426 C 69.2871 -58.6426 64.9414 -55.3711 63.623 -50.3418 C 63.0371 -48.291 61.8164 -47.2656 59.7168 -47.2656 C 57.4219 -47.2656 55.8594 -48.8281 55.8594 -51.0742 C 55.8594 -52.002 55.9082 -52.6367 56.1035 -53.5156 C 57.666 -61.0352 65.5273 -65.918 75.7324 -65.918 C 87.0117 -65.918 95.0684 -59.5215 95.0684 -50.5859 C 95.0684 -43.7988 90.0391 -37.8418 83.4961 -36.8164 L 83.4961 -36.377 C 91.3574 -35.5957 97.168 -29.4922 97.168 -21.9727 C 97.168 -11.9141 88.623 -4.63867 75.293 -4.63867 Z"/>
  </g>
  <g id="Light-L" transform="matrix(1 0 0 1 1079.18 1556)">
   <path d="M 73.9258 27.4902 C 108.301 27.4902 136.621 -0.830078 136.621 -35.1562 C 136.621 -69.5312 108.252 -97.8516 73.9258 -97.8516 C 39.5508 -97.8516 11.2793 -69.5312 11.2793 -35.1562 C 11.2793 -0.830078 39.5996 27.4902 73.9258 27.4902 Z M 74.707 -5.41992 C 65.1367 -5.41992 57.3242 -10.2539 55.3711 -17.334 C 55.1758 -18.1152 55.0781 -18.6523 55.0781 -19.4336 C 55.0781 -21.1914 56.3965 -22.5098 58.1543 -22.5098 C 59.8145 -22.5098 60.7422 -21.7285 61.3281 -20.0195 C 62.7441 -14.8926 67.6758 -11.1328 74.8047 -11.1328 C 83.1543 -11.1328 88.7695 -15.6738 88.7695 -22.3633 C 88.7695 -28.7598 83.1055 -33.3984 75.3906 -33.3984 L 70.1172 -33.3984 C 68.5059 -33.3984 67.334 -34.5703 67.334 -36.2305 C 67.334 -37.8906 68.5059 -39.0137 70.1172 -39.0137 L 74.9512 -39.0137 C 81.6406 -39.0137 86.7676 -43.5547 86.7676 -49.5605 C 86.7676 -55.5176 82.0801 -59.4238 74.8535 -59.4238 C 68.3594 -59.4238 63.623 -55.8594 62.5 -50.5371 C 62.1094 -48.877 61.084 -48.0469 59.4238 -48.0469 C 57.6172 -48.0469 56.3965 -49.2676 56.3965 -51.0742 C 56.3965 -51.8555 56.4453 -52.4414 56.5918 -53.2227 C 57.8613 -60.3516 65.5273 -65.1367 74.9512 -65.1367 C 85.6445 -65.1367 93.3105 -58.9355 93.3105 -50.3418 C 93.3105 -43.7012 88.4277 -37.8418 81.9336 -36.7188 L 81.9336 -36.3281 C 89.5996 -35.5957 95.4102 -29.541 95.4102 -22.168 C 95.4102 -12.4512 87.1094 -5.41992 74.707 -5.41992 Z"/>
  </g>
  <g id="Thin-L" transform="matrix(1 0 0 1 783.693 1556)">
   <path d="M 72.7051 26.3184 C 106.494 26.3184 134.18 -1.36719 134.18 -35.1074 C 134.18 -68.8965 106.494 -96.582 72.7051 -96.582 C 38.9648 -96.582 11.2793 -68.8965 11.2793 -35.1074 C 11.2793 -1.36719 38.9648 26.3184 72.7051 26.3184 Z M 73.9746 -6.44531 C 65.2344 -6.44531 58.0078 -11.0352 56.0547 -17.7246 C 55.9082 -18.4082 55.8105 -18.8965 55.8105 -19.4824 C 55.8105 -20.7031 56.6406 -21.5332 57.7637 -21.5332 C 58.8867 -21.5332 59.5215 -20.9961 59.8633 -19.7266 C 61.084 -14.1602 66.8457 -10.1074 73.9746 -10.1074 C 82.8613 -10.1074 88.8672 -15.1367 88.8672 -22.5098 C 88.8672 -29.248 82.7637 -34.375 74.7559 -34.375 L 68.9453 -34.375 C 67.8223 -34.375 67.0898 -35.1074 67.0898 -36.2305 C 67.0898 -37.3535 67.8223 -38.0859 68.9453 -38.0859 L 74.2676 -38.0859 C 81.3477 -38.0859 86.8652 -43.1152 86.8652 -49.5605 C 86.8652 -56.0547 81.6895 -60.4004 73.9258 -60.4004 C 67.0898 -60.4004 61.8652 -56.4941 61.0352 -50.7812 C 60.8887 -49.6094 60.1562 -49.0234 58.9844 -49.0234 C 57.8613 -49.0234 57.0801 -49.8535 57.0801 -51.0254 C 57.0801 -51.6602 57.1777 -52.1484 57.2754 -52.832 C 58.1543 -59.4727 65.4785 -64.1113 73.9746 -64.1113 C 83.8379 -64.1113 91.0156 -58.2031 91.0156 -50.0488 C 91.0156 -43.5059 86.3281 -37.793 79.8828 -36.5723 L 79.8828 -36.2305 C 87.3047 -35.5469 93.0664 -29.541 93.0664 -22.5098 C 93.0664 -13.1836 85.1562 -6.44531 73.9746 -6.44531 Z"/>
  </g>
  <g id="Ultralight-L" transform="matrix(1 0 0 1 487.616 1556)">
   <path d="M 72.1191 25.7324 C 105.566 25.7324 132.91 -1.61133 132.91 -35.1074 C 132.91 -68.5547 105.566 -95.8984 72.1191 -95.8984 C 38.623 -95.8984 11.2793 -68.5547 11.2793 -35.1074 C 11.2793 -1.61133 38.623 25.7324 72.1191 25.7324 Z M 73.584 -6.98242 C 65.2832 -6.98242 58.3496 -11.4258 56.3965 -17.9199 C 56.25 -18.5059 56.1523 -18.9941 56.1523 -19.5312 C 56.1523 -20.4102 56.7871 -21.0449 57.5684 -21.0449 C 58.4473 -21.0449 58.8867 -20.6055 59.082 -19.5801 C 60.2539 -13.7695 66.4062 -9.61914 73.584 -9.61914 C 82.7148 -9.61914 88.916 -14.8926 88.916 -22.6074 C 88.916 -29.541 82.6172 -34.8633 74.4141 -34.8633 L 68.3105 -34.8633 C 67.4805 -34.8633 66.9434 -35.4004 66.9434 -36.2305 C 66.9434 -37.0605 67.4805 -37.5977 68.3105 -37.5977 L 73.9258 -37.5977 C 81.1523 -37.5977 86.9141 -42.8711 86.9141 -49.5605 C 86.9141 -56.2988 81.4453 -60.9375 73.4375 -60.9375 C 66.4551 -60.9375 60.9375 -56.8359 60.3027 -50.9277 C 60.2539 -50 59.7168 -49.5117 58.7891 -49.5117 C 57.959 -49.5117 57.4707 -50.1465 57.4707 -51.0254 C 57.4707 -51.5625 57.5195 -52.002 57.6172 -52.6367 C 58.3008 -59.0332 65.4785 -63.5742 73.4375 -63.5742 C 82.9102 -63.5742 89.8438 -57.8613 89.8438 -49.9023 C 89.8438 -43.4082 85.2051 -37.7441 78.8086 -36.5234 L 78.8086 -36.2305 C 86.1328 -35.498 91.8457 -29.5898 91.8457 -22.6562 C 91.8457 -13.5742 84.1309 -6.98242 73.584 -6.98242 Z"/>
  </g>
  <g id="Black-M" transform="matrix(1 0 0 1 2870.97 1126)">
   <path d="M 62.4023 18.457 C 91.9922 18.457 116.113 -5.61523 116.113 -35.2051 C 116.113 -64.7949 91.9922 -88.8672 62.4023 -88.8672 C 32.8125 -88.8672 8.74023 -64.7949 8.74023 -35.2051 C 8.74023 -5.61523 32.8125 18.457 62.4023 18.457 Z M 62.3047 -11.9629 C 53.5645 -11.9629 46.0938 -15.5762 43.9941 -20.6543 C 43.6035 -21.6797 43.457 -22.7051 43.457 -23.7305 C 43.457 -27.7344 46.2891 -30.1758 50.9277 -30.1758 C 53.6133 -30.1758 55.6641 -29.1504 57.4219 -27.1973 C 58.8379 -25.4883 60.498 -24.7559 62.7441 -24.7559 C 64.4531 -24.7559 65.6738 -25.6348 65.6738 -26.9043 C 65.6738 -28.3203 64.502 -29.0039 62.0117 -29.0039 L 61.9629 -29.0039 C 57.4219 -29.0039 54.541 -31.4453 54.541 -35.3516 C 54.541 -39.3555 57.3242 -41.6504 61.9629 -41.6504 L 62.0117 -41.6504 C 64.1113 -41.6504 65.2832 -42.6758 65.2832 -44.2383 C 65.2832 -45.5078 64.0625 -46.3379 62.207 -46.3379 C 60.5469 -46.3379 58.9355 -45.5078 57.5684 -43.8965 C 55.7617 -41.7969 53.8086 -40.8691 51.1719 -40.8691 C 46.4355 -40.8691 43.6035 -43.3105 43.6035 -47.2656 C 43.6035 -48.3398 43.7988 -49.4141 44.2383 -50.4395 C 46.2402 -55.4199 52.9297 -58.5449 62.2559 -58.5449 C 74.3164 -58.5449 81.9336 -53.6621 81.9336 -45.9961 C 81.9336 -41.748 78.0762 -37.6465 73.584 -37.0117 L 73.584 -36.1816 C 78.9551 -35.7422 82.9102 -31.3477 82.9102 -25.7324 C 82.9102 -17.1875 75.0488 -11.9629 62.3047 -11.9629 Z"/>
  </g>
  <g id="Heavy-M" transform="matrix(1 0 0 1 2575.19 1126)">
   <path d="M 61.5234 17.5781 C 90.5273 17.5781 114.258 -6.15234 114.258 -35.2051 C 114.258 -64.2578 90.5273 -87.9883 61.4746 -87.9883 C 32.4707 -87.9883 8.74023 -64.2578 8.74023 -35.2051 C 8.74023 -6.15234 32.4707 17.5781 61.5234 17.5781 Z M 61.4258 -11.7676 C 52.832 -11.7676 45.5078 -15.4785 43.6035 -20.752 C 43.2617 -21.6797 43.1152 -22.5586 43.1152 -23.5352 C 43.1152 -27.0508 45.6055 -29.248 49.6582 -29.248 C 52.1484 -29.248 53.9062 -28.3203 55.4199 -26.3672 C 56.8359 -24.2188 58.7891 -23.0469 61.8164 -23.0469 C 64.502 -23.0469 66.4062 -24.4629 66.4062 -26.4648 C 66.4062 -28.6621 64.5508 -29.9316 61.3281 -29.9316 L 60.4492 -29.9316 C 56.543 -29.9316 54.0527 -32.1289 54.0527 -35.498 C 54.0527 -38.9648 56.4453 -41.0645 60.4492 -41.0645 L 61.2793 -41.0645 C 63.9648 -41.0645 65.7227 -42.5781 65.7227 -44.7266 C 65.7227 -46.6797 64.0625 -47.9004 61.4258 -47.9004 C 59.0332 -47.9004 57.0801 -46.6797 55.7617 -44.5801 C 54.248 -42.5781 52.4902 -41.6504 50.0488 -41.6504 C 45.9473 -41.6504 43.457 -43.8477 43.457 -47.3633 C 43.457 -48.3398 43.6035 -49.2676 43.9941 -50.1953 C 45.8496 -55.4688 52.3926 -58.7402 61.5234 -58.7402 C 72.8516 -58.7402 80.2246 -53.8574 80.2246 -46.2891 C 80.2246 -41.7969 76.3184 -37.5488 71.7285 -36.9141 L 71.7285 -36.1816 C 77.2461 -35.6934 81.3477 -31.2012 81.3477 -25.5371 C 81.3477 -17.1387 73.7305 -11.7676 61.4258 -11.7676 Z"/>
  </g>
  <g id="Bold-M" transform="matrix(1 0 0 1 2279.5 1126)">
   <path d="M 60.498 16.5039 C 88.8672 16.5039 112.207 -6.78711 112.207 -35.2051 C 112.207 -63.623 88.8672 -86.9629 60.4492 -86.9629 C 32.0312 -86.9629 8.74023 -63.623 8.74023 -35.2051 C 8.74023 -6.78711 32.0801 16.5039 60.498 16.5039 Z M 60.498 -11.5234 C 51.9531 -11.5234 44.9219 -15.332 43.1152 -20.8008 C 42.8223 -21.6797 42.7246 -22.4121 42.7246 -23.3398 C 42.7246 -26.3184 44.873 -28.2715 48.1934 -28.2715 C 50.4395 -28.2715 52.002 -27.3438 53.2227 -25.4395 C 54.541 -22.8516 56.9336 -21.1426 60.791 -21.1426 C 64.5996 -21.1426 67.1875 -23.0957 67.1875 -26.0254 C 67.1875 -29.0039 64.6484 -30.957 60.5469 -30.957 L 58.7891 -30.957 C 55.5664 -30.957 53.4668 -32.8125 53.4668 -35.6934 C 53.4668 -38.5742 55.5176 -40.3809 58.7891 -40.3809 L 60.4004 -40.3809 C 63.8672 -40.3809 66.2109 -42.4316 66.2109 -45.3125 C 66.2109 -47.9492 64.0625 -49.6582 60.5957 -49.6582 C 57.373 -49.6582 55.0293 -48.0469 53.7598 -45.3613 C 52.5879 -43.4082 51.0254 -42.5293 48.8281 -42.5293 C 45.4102 -42.5293 43.3105 -44.4336 43.3105 -47.4121 C 43.3105 -48.3398 43.4082 -49.1211 43.7012 -50 C 45.4102 -55.5176 51.8555 -58.9844 60.6934 -58.9844 C 71.2402 -58.9844 78.2715 -54.0039 78.2715 -46.6309 C 78.2715 -41.8457 74.3652 -37.4512 69.6289 -36.7676 L 69.6289 -36.1816 C 75.3418 -35.6445 79.5898 -31.0547 79.5898 -25.293 C 79.5898 -17.041 72.2656 -11.5234 60.498 -11.5234 Z"/>
  </g>
  <g id="Semibold-M" transform="matrix(1 0 0 1 1983.5 1126)">
   <path d="M 59.7656 15.8203 C 87.7441 15.8203 110.791 -7.22656 110.791 -35.2051 C 110.791 -63.1836 87.6953 -86.2793 59.7656 -86.2793 C 31.7871 -86.2793 8.74023 -63.1836 8.74023 -35.2051 C 8.74023 -7.22656 31.7871 15.8203 59.7656 15.8203 Z M 59.8145 -11.377 C 51.3672 -11.377 44.4824 -15.2344 42.7734 -20.8496 C 42.5293 -21.6797 42.4316 -22.3145 42.4316 -23.1934 C 42.4316 -25.7812 44.3359 -27.5879 47.2168 -27.5879 C 49.2676 -27.5879 50.6348 -26.709 51.709 -24.8047 C 52.9785 -21.9238 55.6152 -19.873 60.0586 -19.873 C 64.6484 -19.873 67.7246 -22.2168 67.7246 -25.6836 C 67.7246 -29.2969 64.6973 -31.6406 60.0098 -31.6406 L 57.6172 -31.6406 C 54.9316 -31.6406 53.0762 -33.3008 53.0762 -35.791 C 53.0762 -38.3301 54.8828 -39.9414 57.6172 -39.9414 L 59.8145 -39.9414 C 63.7695 -39.9414 66.5527 -42.334 66.5527 -45.7031 C 66.5527 -48.877 64.0625 -50.8301 60.0098 -50.8301 C 56.25 -50.8301 53.5645 -48.9746 52.3438 -45.8984 C 51.416 -43.9941 50.0488 -43.1152 47.9492 -43.1152 C 45.0684 -43.1152 43.1641 -44.8242 43.1641 -47.4609 C 43.1641 -48.3398 43.2617 -49.0234 43.5059 -49.8535 C 45.0684 -55.5176 51.4648 -59.1309 60.1074 -59.1309 C 70.1172 -59.1309 76.9531 -54.1504 76.9531 -46.875 C 76.9531 -41.8945 73.0469 -37.4023 68.1641 -36.6699 L 68.1641 -36.1816 C 74.0723 -35.5957 78.418 -30.957 78.418 -25.0977 C 78.418 -16.9434 71.2891 -11.377 59.8145 -11.377 Z"/>
  </g>
  <g id="Medium-M" transform="matrix(1 0 0 1 1687.3 1126)">
   <path d="M 59.2285 15.2832 C 86.9141 15.2832 109.766 -7.56836 109.766 -35.2051 C 109.766 -62.8906 86.8652 -85.7422 59.1797 -85.7422 C 31.543 -85.7422 8.74023 -62.8906 8.74023 -35.2051 C 8.74023 -7.56836 31.5918 15.2832 59.2285 15.2832 Z M 59.3262 -11.2305 C 50.9277 -11.2305 44.1895 -15.1367 42.5293 -20.8984 C 42.334 -21.6797 42.2363 -22.2168 42.2363 -23.0469 C 42.2363 -25.3906 43.9941 -27.0508 46.4844 -27.0508 C 48.3887 -27.0508 49.6582 -26.2207 50.5371 -24.3164 C 51.8066 -21.1914 54.6387 -18.8477 59.5215 -18.8477 C 64.6973 -18.8477 68.1641 -21.4844 68.1641 -25.4395 C 68.1641 -29.4922 64.6973 -32.1777 59.5703 -32.1777 L 56.7383 -32.1777 C 54.3945 -32.1777 52.7832 -33.6914 52.7832 -35.8887 C 52.7832 -38.0859 54.3945 -39.5508 56.7383 -39.5508 L 59.375 -39.5508 C 63.6719 -39.5508 66.7969 -42.2852 66.7969 -45.9961 C 66.7969 -49.5605 64.0625 -51.7578 59.5215 -51.7578 C 55.3711 -51.7578 52.4902 -49.6582 51.3184 -46.2891 C 50.5371 -44.4336 49.2676 -43.5547 47.3145 -43.5547 C 44.7754 -43.5547 43.0664 -45.166 43.0664 -47.4609 C 43.0664 -48.291 43.1641 -48.9258 43.4082 -49.707 C 44.873 -55.5664 51.1719 -59.2773 59.668 -59.2773 C 69.2871 -59.2773 75.9766 -54.248 75.9766 -47.0215 C 75.9766 -41.8945 72.0215 -37.3535 67.041 -36.5723 L 67.041 -36.1816 C 73.0957 -35.5957 77.4902 -30.9082 77.4902 -25 C 77.4902 -16.8945 70.5078 -11.2305 59.3262 -11.2305 Z"/>
  </g>
  <g id="Regular-M" transform="matrix(1 0 0 1 1391.3 1126)">
   <path d="M 58.5449 14.5508 C 85.791 14.5508 108.35 -8.00781 108.35 -35.2539 C 108.35 -62.4512 85.7422 -85.0586 58.4961 -85.0586 C 31.2988 -85.0586 8.74023 -62.4512 8.74023 -35.2539 C 8.74023 -8.00781 31.3477 14.5508 58.5449 14.5508 Z M 58.6914 -11.084 C 50.3418 -11.084 43.75 -15.0879 42.2363 -20.9473 C 42.041 -21.6797 41.9922 -22.1191 41.9922 -22.9004 C 41.9922 -24.9023 43.457 -26.3672 45.459 -26.3672 C 47.2656 -26.3672 48.3398 -25.5371 49.0723 -23.7305 C 50.293 -20.2637 53.3203 -17.5781 58.8379 -17.5781 C 64.7461 -17.5781 68.7012 -20.5566 68.7012 -25.0977 C 68.7012 -29.7363 64.7461 -32.8613 59.082 -32.8613 L 55.5664 -32.8613 C 53.7598 -32.8613 52.4414 -34.1797 52.4414 -35.9863 C 52.4414 -37.8418 53.7598 -39.1113 55.5664 -39.1113 L 58.7891 -39.1113 C 63.5742 -39.1113 67.1387 -42.1875 67.1387 -46.3379 C 67.1387 -50.4395 64.0625 -52.9785 58.9355 -52.9785 C 54.248 -52.9785 51.0742 -50.5859 49.9512 -46.8262 C 49.3652 -45.0195 48.291 -44.1406 46.4844 -44.1406 C 44.3848 -44.1406 42.9688 -45.5566 42.9688 -47.5098 C 42.9688 -48.291 43.0176 -48.8281 43.2129 -49.5605 C 44.5312 -55.5664 50.7812 -59.4238 59.082 -59.4238 C 68.2129 -59.4238 74.6582 -54.3457 74.6582 -47.2656 C 74.6582 -41.9434 70.7031 -37.3047 65.625 -36.5234 L 65.625 -36.1328 C 71.7773 -35.5469 76.3184 -30.8105 76.3184 -24.8047 C 76.3184 -16.8457 69.5312 -11.084 58.6914 -11.084 Z"/>
  </g>
  <g id="Light-M" transform="matrix(1 0 0 1 1095.42 1126)">
   <path d="M 57.7148 13.7695 C 84.5215 13.7695 106.689 -8.39844 106.689 -35.2051 C 106.689 -62.0117 84.5215 -84.1797 57.666 -84.1797 C 30.8594 -84.1797 8.74023 -62.0117 8.74023 -35.2051 C 8.74023 -8.39844 30.9082 13.7695 57.7148 13.7695 Z M 58.1543 -11.7676 C 50.4395 -11.7676 44.1895 -15.5762 42.6758 -21.2402 C 42.5293 -21.875 42.4805 -22.2656 42.4805 -22.9492 C 42.4805 -24.5117 43.6523 -25.6836 45.2148 -25.6836 C 46.6309 -25.6836 47.5098 -25.0488 48.0469 -23.5352 C 49.1699 -19.7266 52.7344 -16.8945 58.252 -16.8945 C 64.5508 -16.8945 68.75 -20.2148 68.75 -25.2441 C 68.75 -30.0781 64.5508 -33.4961 58.6426 -33.4961 L 54.7363 -33.4961 C 53.3203 -33.4961 52.2461 -34.5703 52.2461 -35.9863 C 52.2461 -37.4512 53.3203 -38.4766 54.7363 -38.4766 L 58.3008 -38.4766 C 63.3789 -38.4766 67.1875 -41.8457 67.1875 -46.3379 C 67.1875 -50.7812 63.7695 -53.6133 58.3496 -53.6133 C 53.3691 -53.6133 49.9023 -50.9766 48.9258 -46.9727 C 48.5352 -45.5566 47.6562 -44.8242 46.1914 -44.8242 C 44.5801 -44.8242 43.457 -45.9473 43.457 -47.5098 C 43.457 -48.1934 43.5059 -48.6328 43.6523 -49.3164 C 44.7266 -54.9805 50.7812 -58.7402 58.4473 -58.7402 C 66.9434 -58.7402 73.0957 -53.8574 73.0957 -47.0703 C 73.0957 -41.8457 69.2383 -37.2559 64.209 -36.4258 L 64.209 -36.084 C 70.2148 -35.498 74.707 -30.8105 74.707 -25.0488 C 74.707 -17.334 68.2129 -11.7676 58.1543 -11.7676 Z"/>
  </g>
  <g id="Thin-M" transform="matrix(1 0 0 1 799.806 1126)">
   <path d="M 56.6406 12.7441 C 82.9102 12.7441 104.492 -8.83789 104.492 -35.1562 C 104.492 -61.4746 82.9102 -83.0566 56.5918 -83.0566 C 30.3223 -83.0566 8.74023 -61.4746 8.74023 -35.1562 C 8.74023 -8.83789 30.3223 12.7441 56.6406 12.7441 Z M 57.4707 -12.6953 C 50.5371 -12.6953 44.7754 -16.3086 43.3105 -21.582 C 43.1641 -22.1191 43.1152 -22.5098 43.1152 -22.998 C 43.1152 -24.0723 43.8477 -24.8047 44.873 -24.8047 C 45.8496 -24.8047 46.3867 -24.3652 46.6797 -23.291 C 47.7051 -19.043 52.002 -15.9668 57.5195 -15.9668 C 64.2578 -15.9668 68.8477 -19.7754 68.8477 -25.3418 C 68.8477 -30.5176 64.209 -34.375 58.0566 -34.375 L 53.6621 -34.375 C 52.6855 -34.375 52.0508 -35.0098 52.0508 -35.9863 C 52.0508 -36.9629 52.6855 -37.6465 53.6621 -37.6465 L 57.7148 -37.6465 C 63.0859 -37.6465 67.2852 -41.4551 67.2852 -46.3379 C 67.2852 -51.2695 63.3789 -54.541 57.5195 -54.541 C 52.2461 -54.541 48.291 -51.5625 47.6074 -47.2168 C 47.4609 -46.2402 46.8262 -45.7031 45.8008 -45.7031 C 44.7754 -45.7031 44.0918 -46.4355 44.0918 -47.5098 C 44.0918 -47.998 44.1406 -48.3887 44.2383 -48.9258 C 45.0195 -54.1992 50.7812 -57.8125 57.5195 -57.8125 C 65.332 -57.8125 71.0449 -53.2227 71.0449 -46.7773 C 71.0449 -41.6992 67.334 -37.207 62.3535 -36.3281 L 62.3535 -36.0352 C 68.1641 -35.4492 72.6074 -30.8105 72.6074 -25.293 C 72.6074 -18.0176 66.4062 -12.6953 57.4707 -12.6953 Z"/>
  </g>
  <g id="Ultralight-M" transform="matrix(1 0 0 1 503.656 1126)">
   <path d="M 56.0547 12.207 C 82.0801 12.207 103.369 -9.08203 103.369 -35.1562 C 103.369 -61.1816 82.0801 -82.4707 56.0547 -82.4707 C 30.0293 -82.4707 8.74023 -61.1816 8.74023 -35.1562 C 8.74023 -9.08203 30.0293 12.207 56.0547 12.207 Z M 57.1289 -13.1836 C 50.5859 -13.1836 45.1172 -16.6504 43.6035 -21.7285 C 43.457 -22.2656 43.4082 -22.6074 43.4082 -23.0469 C 43.4082 -23.8281 43.9453 -24.3652 44.6777 -24.3652 C 45.4102 -24.3652 45.8496 -24.0234 45.9961 -23.1445 C 46.9238 -18.7012 51.6113 -15.5273 57.1289 -15.5273 C 64.1113 -15.5273 68.8965 -19.5312 68.8965 -25.4395 C 68.8965 -30.7129 64.0625 -34.8145 57.7637 -34.8145 L 53.125 -34.8145 C 52.3926 -34.8145 51.9043 -35.3027 51.9043 -35.9863 C 51.9043 -36.7188 52.3926 -37.207 53.125 -37.207 L 57.373 -37.207 C 62.9395 -37.207 67.334 -41.2109 67.334 -46.3379 C 67.334 -51.4648 63.1836 -54.9805 57.0801 -54.9805 C 51.709 -54.9805 47.5098 -51.8555 46.9727 -47.3633 C 46.875 -46.582 46.4355 -46.1426 45.6055 -46.1426 C 44.873 -46.1426 44.4336 -46.6797 44.4336 -47.4609 C 44.4336 -47.9004 44.4824 -48.291 44.5312 -48.7793 C 45.166 -53.8086 50.7324 -57.3242 57.0801 -57.3242 C 64.502 -57.3242 69.9707 -52.8809 69.9707 -46.6309 C 69.9707 -41.6016 66.3574 -37.207 61.377 -36.2305 L 61.377 -35.9863 C 67.1387 -35.4492 71.5332 -30.8594 71.5332 -25.4395 C 71.5332 -18.3594 65.5273 -13.1836 57.1289 -13.1836 Z"/>
  </g>
  <g id="Black-S" transform="matrix(1 0 0 1 2884.57 696)">
   <path d="M 48.8281 6.78711 C 71.9727 6.78711 90.8203 -12.0605 90.8203 -35.2051 C 90.8203 -58.3496 71.9727 -77.1973 48.8281 -77.1973 C 25.6836 -77.1973 6.83594 -58.3496 6.83594 -35.2051 C 6.83594 -12.0605 25.6836 6.78711 48.8281 6.78711 Z M 48.7305 -16.9922 C 41.8945 -16.9922 36.0352 -19.8242 34.4238 -23.8281 C 34.1309 -24.6094 33.9844 -25.3906 33.9844 -26.2207 C 33.9844 -29.2969 36.1816 -31.2012 39.7949 -31.2012 C 41.8945 -31.2012 43.457 -30.4199 44.8242 -28.8574 C 45.9473 -27.4902 47.2656 -26.9043 49.0723 -26.9043 C 50.4883 -26.9043 51.5137 -27.6367 51.5137 -28.6621 C 51.5137 -29.834 50.5371 -30.4199 48.5352 -30.4199 L 48.4375 -30.4199 C 44.9219 -30.4199 42.6758 -32.3242 42.6758 -35.3516 C 42.6758 -38.4277 44.8242 -40.2344 48.4375 -40.2344 L 48.5352 -40.2344 C 50.1953 -40.2344 51.1719 -41.0645 51.1719 -42.334 C 51.1719 -43.3594 50.1953 -44.043 48.6816 -44.043 C 47.3145 -44.043 46.0449 -43.3594 44.9707 -42.0898 C 43.5547 -40.4297 42.041 -39.6973 39.9902 -39.6973 C 36.3281 -39.6973 34.1309 -41.6016 34.1309 -44.6777 C 34.1309 -45.5078 34.2773 -46.3379 34.6191 -47.1191 C 36.1816 -51.0742 41.4062 -53.5156 48.7305 -53.5156 C 58.1055 -53.5156 64.0625 -49.707 64.0625 -43.7012 C 64.0625 -40.332 61.0352 -37.1094 57.5195 -36.6211 L 57.5195 -35.9863 C 61.7188 -35.6445 64.8438 -32.1777 64.8438 -27.7832 C 64.8438 -21.0938 58.6914 -16.9922 48.7305 -16.9922 Z"/>
  </g>
  <g id="Heavy-S" transform="matrix(1 0 0 1 2588.47 696)">
   <path d="M 48.2422 6.15234 C 70.9961 6.15234 89.5996 -12.4512 89.5996 -35.2051 C 89.5996 -57.959 70.9961 -76.6113 48.1934 -76.6113 C 25.4395 -76.6113 6.83594 -57.959 6.83594 -35.2051 C 6.83594 -12.4512 25.4395 6.15234 48.2422 6.15234 Z M 48.1445 -16.748 C 41.3086 -16.748 35.5469 -19.6777 34.0332 -23.8281 C 33.7891 -24.6094 33.6914 -25.293 33.6914 -26.0742 C 33.6914 -28.8086 35.6445 -30.5664 38.8184 -30.5664 C 40.8203 -30.5664 42.2363 -29.834 43.4082 -28.2715 C 44.5312 -26.6113 46.0449 -25.6836 48.4375 -25.6836 C 50.5859 -25.6836 52.0508 -26.7578 52.0508 -28.3203 C 52.0508 -30.0293 50.5859 -31.0547 48.0469 -31.0547 L 47.3633 -31.0547 C 44.2871 -31.0547 42.334 -32.7637 42.334 -35.4492 C 42.334 -38.1836 44.2383 -39.8438 47.3633 -39.8438 L 47.998 -39.8438 C 50.1465 -39.8438 51.5137 -41.0156 51.5137 -42.7246 C 51.5137 -44.1895 50.1953 -45.166 48.1445 -45.166 C 46.2891 -45.166 44.7754 -44.2383 43.7012 -42.5781 C 42.4805 -40.9668 41.1133 -40.2344 39.1602 -40.2344 C 35.9375 -40.2344 33.9844 -41.9434 33.9844 -44.7266 C 33.9844 -45.5078 34.082 -46.2402 34.375 -46.9727 C 35.8398 -51.1719 41.0156 -53.7598 48.2422 -53.7598 C 57.1289 -53.7598 62.9395 -49.9023 62.9395 -43.9453 C 62.9395 -40.3809 59.8633 -37.0605 56.25 -36.5234 L 56.25 -35.9863 C 60.5957 -35.5957 63.8184 -32.0801 63.8184 -27.5879 C 63.8184 -20.9961 57.8613 -16.748 48.1445 -16.748 Z"/>
  </g>
  <g id="Bold-S" transform="matrix(1 0 0 1 2292.44 696)">
   <path d="M 47.5586 5.46875 C 69.873 5.46875 88.2324 -12.8906 88.2324 -35.2051 C 88.2324 -57.5684 69.873 -75.9277 47.5098 -75.9277 C 25.1953 -75.9277 6.83594 -57.5684 6.83594 -35.2051 C 6.83594 -12.8906 25.1953 5.46875 47.5586 5.46875 Z M 47.4609 -16.5039 C 40.6738 -16.5039 35.0586 -19.4824 33.6426 -23.877 C 33.3984 -24.5605 33.3008 -25.1465 33.3008 -25.8789 C 33.3008 -28.2715 35.0586 -29.8828 37.793 -29.8828 C 39.5996 -29.8828 40.8691 -29.1504 41.8457 -27.5879 C 42.9199 -25.6348 44.6777 -24.3164 47.7051 -24.3164 C 50.6348 -24.3164 52.6367 -25.7812 52.6367 -27.9785 C 52.6367 -30.3223 50.6836 -31.7383 47.5098 -31.7383 L 46.1914 -31.7383 C 43.6035 -31.7383 41.8945 -33.3008 41.8945 -35.5957 C 41.8945 -37.9395 43.5547 -39.4043 46.1914 -39.4043 L 47.4121 -39.4043 C 50.0488 -39.4043 51.8555 -40.9668 51.8555 -43.1641 C 51.8555 -45.166 50.2441 -46.4355 47.6074 -46.4355 C 45.1172 -46.4355 43.3105 -45.2148 42.2852 -43.1641 C 41.3086 -41.5527 40.0879 -40.8203 38.2812 -40.8203 C 35.498 -40.8203 33.7891 -42.3828 33.7891 -44.7754 C 33.7891 -45.5078 33.8867 -46.1426 34.1309 -46.875 C 35.498 -51.2695 40.5762 -54.0039 47.6562 -54.0039 C 56.0547 -54.0039 61.6699 -50.0977 61.6699 -44.2383 C 61.6699 -40.4297 58.5449 -36.9629 54.7852 -36.4258 L 54.7852 -35.9863 C 59.375 -35.5469 62.6953 -31.9824 62.6953 -27.3926 C 62.6953 -20.8496 56.8848 -16.5039 47.4609 -16.5039 Z"/>
  </g>
  <g id="Semibold-S" transform="matrix(1 0 0 1 1996.2 696)">
   <path d="M 47.0703 4.98047 C 69.0918 4.98047 87.3047 -13.1836 87.3047 -35.2539 C 87.3047 -57.2754 69.0918 -75.4883 47.0215 -75.4883 C 25 -75.4883 6.83594 -57.2754 6.83594 -35.2539 C 6.83594 -13.1836 25.0488 4.98047 47.0703 4.98047 Z M 47.0215 -16.3086 C 40.1855 -16.3086 34.668 -19.3848 33.3496 -23.877 C 33.1543 -24.5605 33.0566 -25.0488 33.0566 -25.7812 C 33.0566 -27.9297 34.668 -29.4434 37.0605 -29.4434 C 38.7695 -29.4434 39.8926 -28.7109 40.7715 -27.0996 C 41.8457 -24.9512 43.7012 -23.3887 47.2168 -23.3887 C 50.6836 -23.3887 53.0762 -25.0977 53.0762 -27.6855 C 53.0762 -30.4688 50.7324 -32.2266 47.1191 -32.2266 L 45.3613 -32.2266 C 43.1641 -32.2266 41.6016 -33.6426 41.6016 -35.6934 C 41.6016 -37.7441 43.1152 -39.1113 45.3613 -39.1113 L 46.9727 -39.1113 C 50 -39.1113 52.0996 -40.918 52.0996 -43.457 C 52.0996 -45.8496 50.2441 -47.2656 47.168 -47.2656 C 44.2871 -47.2656 42.334 -45.8496 41.3086 -43.5547 C 40.5273 -41.9434 39.3555 -41.2109 37.6465 -41.2109 C 35.2051 -41.2109 33.6426 -42.627 33.6426 -44.8242 C 33.6426 -45.5078 33.7402 -46.0938 33.9355 -46.7773 C 35.2539 -51.3672 40.2832 -54.1992 47.3145 -54.1992 C 55.3223 -54.1992 60.791 -50.2441 60.791 -44.4336 C 60.791 -40.4785 57.666 -36.9629 53.8086 -36.377 L 53.8086 -35.9863 C 58.4961 -35.5469 61.9141 -31.8848 61.9141 -27.2461 C 61.9141 -20.752 56.25 -16.3086 47.0215 -16.3086 Z"/>
  </g>
  <g id="Medium-S" transform="matrix(1 0 0 1 1699.83 696)">
   <path d="M 46.7285 4.63867 C 68.5547 4.63867 86.6211 -13.4277 86.6211 -35.2539 C 86.6211 -57.0312 68.5059 -75.1465 46.6797 -75.1465 C 24.8535 -75.1465 6.83594 -57.0312 6.83594 -35.2539 C 6.83594 -13.4277 24.9023 4.63867 46.7285 4.63867 Z M 46.6797 -16.1621 C 39.8438 -16.1621 34.4238 -19.2871 33.1055 -23.9258 C 32.959 -24.5605 32.8613 -24.9512 32.8613 -25.6836 C 32.8613 -27.6367 34.375 -29.0527 36.4746 -29.0527 C 38.1348 -29.0527 39.209 -28.3691 39.9902 -26.7578 C 41.0156 -24.4141 42.9688 -22.6562 46.8262 -22.6562 C 50.7324 -22.6562 53.3691 -24.6094 53.3691 -27.4902 C 53.3691 -30.6152 50.7812 -32.5684 46.8262 -32.5684 L 44.7266 -32.5684 C 42.7734 -32.5684 41.4062 -33.8867 41.4062 -35.7422 C 41.4062 -37.5977 42.7734 -38.8672 44.7266 -38.8672 L 46.6797 -38.8672 C 49.9512 -38.8672 52.2949 -40.8691 52.2949 -43.6523 C 52.2949 -46.3379 50.293 -47.9492 46.875 -47.9492 C 43.7012 -47.9492 41.5527 -46.3867 40.5762 -43.8477 C 39.8926 -42.2363 38.8184 -41.5039 37.1582 -41.5039 C 35.0098 -41.5039 33.5449 -42.8711 33.5449 -44.8242 C 33.5449 -45.5078 33.5938 -46.0449 33.7891 -46.6797 C 35.0586 -51.416 40.0879 -54.3457 47.0215 -54.3457 C 54.7363 -54.3457 60.1074 -50.3418 60.1074 -44.5801 C 60.1074 -40.5273 56.9824 -36.9141 53.0762 -36.3281 L 53.0762 -35.9863 C 57.8613 -35.498 61.3281 -31.8359 61.3281 -27.1484 C 61.3281 -20.6543 55.7617 -16.1621 46.6797 -16.1621 Z"/>
  </g>
  <g id="Regular-S" transform="matrix(1 0 0 1 1403.58 696)">
   <path d="M 46.2402 4.15039 C 67.7734 4.15039 85.6934 -13.7207 85.6934 -35.2539 C 85.6934 -56.7871 67.7246 -74.6582 46.1914 -74.6582 C 24.707 -74.6582 6.83594 -56.7871 6.83594 -35.2539 C 6.83594 -13.7207 24.7559 4.15039 46.2402 4.15039 Z M 46.1914 -15.9668 C 39.4043 -15.9668 34.0332 -19.1895 32.8125 -23.9258 C 32.7148 -24.5605 32.666 -24.9023 32.666 -25.5371 C 32.666 -27.2949 33.9844 -28.6133 35.7422 -28.6133 C 37.3047 -28.6133 38.2324 -27.8809 38.916 -26.2695 C 39.8926 -23.7305 42.041 -21.7285 46.3379 -21.7285 C 50.7812 -21.7285 53.7598 -23.9258 53.7598 -27.2461 C 53.7598 -30.7617 50.8301 -33.0566 46.4844 -33.0566 L 43.8965 -33.0566 C 42.334 -33.0566 41.1133 -34.2285 41.1133 -35.8398 C 41.1133 -37.4512 42.334 -38.5742 43.8965 -38.5742 L 46.2891 -38.5742 C 49.9023 -38.5742 52.5391 -40.8203 52.5391 -43.9453 C 52.5391 -46.9727 50.293 -48.7793 46.4844 -48.7793 C 42.8711 -48.7793 40.5762 -47.0215 39.5996 -44.2383 C 39.0625 -42.6758 38.1348 -41.8945 36.5234 -41.8945 C 34.7168 -41.8945 33.4473 -43.1152 33.4473 -44.873 C 33.4473 -45.5566 33.4961 -45.9473 33.5938 -46.582 C 34.8145 -51.4648 39.7949 -54.541 46.6309 -54.541 C 54.0039 -54.541 59.2285 -50.4395 59.2285 -44.7266 C 59.2285 -40.5762 56.0547 -36.8652 52.0996 -36.2793 L 52.0996 -35.9863 C 56.9824 -35.498 60.5469 -31.7383 60.5469 -27.002 C 60.5469 -20.6055 55.127 -15.9668 46.1914 -15.9668 Z"/>
  </g>
  <g id="Light-S" transform="matrix(1 0 0 1 1107.6 696)">
   <path d="M 45.5078 3.4668 C 66.6992 3.4668 84.2285 -14.0625 84.2285 -35.2051 C 84.2285 -56.3965 66.6504 -73.9258 45.5078 -73.9258 C 24.3164 -73.9258 6.83594 -56.3965 6.83594 -35.2051 C 6.83594 -14.0625 24.3652 3.4668 45.5078 3.4668 Z M 45.752 -16.6016 C 39.4531 -16.6016 34.4727 -19.6289 33.252 -24.1699 C 33.1055 -24.707 33.0566 -25.0488 33.0566 -25.5859 C 33.0566 -27.002 34.1309 -28.0273 35.498 -28.0273 C 36.7676 -28.0273 37.5 -27.4414 37.9883 -26.123 C 38.916 -23.291 41.5527 -21.1426 45.8496 -21.1426 C 50.6348 -21.1426 53.8086 -23.6328 53.8086 -27.3438 C 53.8086 -31.0547 50.6348 -33.6426 46.0938 -33.6426 L 43.2129 -33.6426 C 41.8945 -33.6426 40.9668 -34.5703 40.9668 -35.8398 C 40.9668 -37.1094 41.8945 -38.0371 43.2129 -38.0371 L 45.8496 -38.0371 C 49.707 -38.0371 52.5879 -40.5273 52.5879 -43.9453 C 52.5879 -47.2656 50.0488 -49.3652 45.9473 -49.3652 C 42.1387 -49.3652 39.5508 -47.4121 38.7207 -44.3848 C 38.3301 -43.1152 37.5977 -42.4805 36.2793 -42.4805 C 34.8633 -42.4805 33.8379 -43.457 33.8379 -44.873 C 33.8379 -45.4102 33.8867 -45.8008 34.0332 -46.3379 C 34.9609 -50.9277 39.7949 -53.9062 46.0449 -53.9062 C 52.9297 -53.9062 57.8613 -50 57.8613 -44.5801 C 57.8613 -40.4785 54.7852 -36.8164 50.8301 -36.1816 L 50.8301 -35.9375 C 55.6152 -35.4492 59.1309 -31.7383 59.1309 -27.1484 C 59.1309 -21.0449 53.9062 -16.6016 45.752 -16.6016 Z"/>
  </g>
  <g id="Thin-S" transform="matrix(1 0 0 1 811.867 696)">
   <path d="M 44.5801 2.53906 C 65.2832 2.53906 82.2754 -14.4531 82.2754 -35.2051 C 82.2754 -55.9082 65.2344 -72.9004 44.5312 -72.9004 C 23.8281 -72.9004 6.83594 -55.9082 6.83594 -35.2051 C 6.83594 -14.4531 23.877 2.53906 44.5801 2.53906 Z M 45.166 -17.3828 C 39.5508 -17.3828 34.9609 -20.2637 33.7891 -24.4629 C 33.6914 -24.9023 33.6426 -25.1953 33.6426 -25.6348 C 33.6426 -26.5625 34.2773 -27.2461 35.2051 -27.2461 C 36.0352 -27.2461 36.5723 -26.8555 36.8164 -25.9277 C 37.6465 -22.7051 40.8691 -20.3125 45.2148 -20.3125 C 50.3906 -20.3125 53.9062 -23.1934 53.9062 -27.4414 C 53.9062 -31.4453 50.3906 -34.375 45.6055 -34.375 L 42.2363 -34.375 C 41.4062 -34.375 40.8203 -34.9609 40.8203 -35.8398 C 40.8203 -36.7188 41.4062 -37.3047 42.2363 -37.3047 L 45.3125 -37.3047 C 49.4629 -37.3047 52.6855 -40.1855 52.6855 -43.9453 C 52.6855 -47.7051 49.707 -50.1953 45.2148 -50.1953 C 41.1621 -50.1953 38.1348 -47.9004 37.5488 -44.5801 C 37.4023 -43.7012 36.8652 -43.2617 35.9375 -43.2617 C 35.0098 -43.2617 34.4238 -43.8965 34.4238 -44.8242 C 34.4238 -45.2637 34.4727 -45.6055 34.5215 -46.0449 C 35.2051 -50.2441 39.7461 -53.125 45.2148 -53.125 C 51.5137 -53.125 56.0547 -49.4629 56.0547 -44.3359 C 56.0547 -40.332 53.125 -36.8164 49.1699 -36.084 L 49.1699 -35.8887 C 53.8086 -35.4492 57.2754 -31.7871 57.2754 -27.3926 C 57.2754 -21.582 52.3438 -17.3828 45.166 -17.3828 Z"/>
  </g>
  <g id="Ultralight-S" transform="matrix(1 0 0 1 515.644 696)">
   <path d="M 44.043 2.05078 C 64.502 2.05078 81.2988 -14.6973 81.2988 -35.1562 C 81.2988 -55.6152 64.502 -72.3633 44.043 -72.3633 C 23.584 -72.3633 6.83594 -55.6152 6.83594 -35.1562 C 6.83594 -14.6973 23.584 2.05078 44.043 2.05078 Z M 44.8242 -17.8223 C 39.5996 -17.8223 35.2539 -20.6055 34.082 -24.6094 C 33.9844 -25 33.9355 -25.3418 33.9355 -25.6836 C 33.9355 -26.3672 34.4238 -26.8555 35.0586 -26.8555 C 35.6934 -26.8555 36.0352 -26.5137 36.2305 -25.8301 C 36.9629 -22.3633 40.5273 -19.9219 44.873 -19.9219 C 50.293 -19.9219 53.9551 -22.998 53.9551 -27.5391 C 53.9551 -31.6406 50.2441 -34.7656 45.3125 -34.7656 L 41.748 -34.7656 C 41.1133 -34.7656 40.6738 -35.2051 40.6738 -35.8398 C 40.6738 -36.4746 41.1133 -36.9141 41.748 -36.9141 L 45.0195 -36.9141 C 49.3652 -36.9141 52.7344 -39.9902 52.7344 -43.9453 C 52.7344 -47.9004 49.5605 -50.5859 44.8242 -50.5859 C 40.625 -50.5859 37.4023 -48.1934 36.9629 -44.6777 C 36.8652 -44.043 36.4746 -43.6523 35.791 -43.6523 C 35.1562 -43.6523 34.7168 -44.1406 34.7168 -44.8242 C 34.7168 -45.166 34.7656 -45.5078 34.8145 -45.8984 C 35.3027 -49.9023 39.7461 -52.6855 44.8242 -52.6855 C 50.7324 -52.6855 55.0781 -49.1211 55.0781 -44.2383 C 55.0781 -40.2344 52.2461 -36.7676 48.3398 -36.0352 L 48.3398 -35.8398 C 52.832 -35.4004 56.2988 -31.7871 56.2988 -27.4902 C 56.2988 -21.9238 51.5625 -17.8223 44.8242 -17.8223 Z"/>
  </g>
 </g>
</svg>
