<?xml version="1.0" encoding="UTF-8"?>
<!--Generator: Apple Native CoreSVG 123-->
<!DOCTYPE svg
PUBLIC "-//W3C//DTD SVG 1.1//EN"
       "http://www.w3.org/Graphics/SVG/1.1/DTD/svg11.dtd">
<svg version="1.1" xmlns="http://www.w3.org/2000/svg" xmlns:xlink="http://www.w3.org/1999/xlink" width="3300" height="2200">
 <!--glyph: "uni100528.medium", point size: 100.000000, font version: "Version 15.0d7e11", template writer version: "5"-->
 <g id="Notes">
  <rect height="2200" id="artboard" style="fill:white;opacity:1" width="3300" x="0" y="0"/>
  <line id="" style="fill:none;stroke:black;opacity:1;stroke-width:0.5;" x1="263" x2="3036" y1="292" y2="292"/>
  <text style="stroke:none;fill:black;font-family:-apple-system,&quot;SF Pro Display&quot;,&quot;SF Pro Text&quot;,Helvetica,sans-serif;font-weight:bold;" transform="matrix(1 0 0 1 263 322)">Weight/Scale Variations</text>
  <text style="stroke:none;fill:black;font-family:-apple-system,&quot;SF Pro Display&quot;,&quot;SF Pro Text&quot;,Helvetica,sans-serif;text-anchor:middle;" transform="matrix(1 0 0 1 559.711 322)">Ultralight</text>
  <text style="stroke:none;fill:black;font-family:-apple-system,&quot;SF Pro Display&quot;,&quot;SF Pro Text&quot;,Helvetica,sans-serif;text-anchor:middle;" transform="matrix(1 0 0 1 856.422 322)">Thin</text>
  <text style="stroke:none;fill:black;font-family:-apple-system,&quot;SF Pro Display&quot;,&quot;SF Pro Text&quot;,Helvetica,sans-serif;text-anchor:middle;" transform="matrix(1 0 0 1 1153.13 322)">Light</text>
  <text style="stroke:none;fill:black;font-family:-apple-system,&quot;SF Pro Display&quot;,&quot;SF Pro Text&quot;,Helvetica,sans-serif;text-anchor:middle;" transform="matrix(1 0 0 1 1449.84 322)">Regular</text>
  <text style="stroke:none;fill:black;font-family:-apple-system,&quot;SF Pro Display&quot;,&quot;SF Pro Text&quot;,Helvetica,sans-serif;text-anchor:middle;" transform="matrix(1 0 0 1 1746.56 322)">Medium</text>
  <text style="stroke:none;fill:black;font-family:-apple-system,&quot;SF Pro Display&quot;,&quot;SF Pro Text&quot;,Helvetica,sans-serif;text-anchor:middle;" transform="matrix(1 0 0 1 2043.27 322)">Semibold</text>
  <text style="stroke:none;fill:black;font-family:-apple-system,&quot;SF Pro Display&quot;,&quot;SF Pro Text&quot;,Helvetica,sans-serif;text-anchor:middle;" transform="matrix(1 0 0 1 2339.98 322)">Bold</text>
  <text style="stroke:none;fill:black;font-family:-apple-system,&quot;SF Pro Display&quot;,&quot;SF Pro Text&quot;,Helvetica,sans-serif;text-anchor:middle;" transform="matrix(1 0 0 1 2636.69 322)">Heavy</text>
  <text style="stroke:none;fill:black;font-family:-apple-system,&quot;SF Pro Display&quot;,&quot;SF Pro Text&quot;,Helvetica,sans-serif;text-anchor:middle;" transform="matrix(1 0 0 1 2933.4 322)">Black</text>
  <line id="" style="fill:none;stroke:black;opacity:1;stroke-width:0.5;" x1="263" x2="3036" y1="1903" y2="1903"/>
  <g id="" transform="matrix(1 0 0 1 263 1933)">
   <path d="M 9.24805 0.830078 C 13.5547 0.830078 17.1387 -2.74414 17.1387 -7.05078 C 17.1387 -11.3574 13.5449 -14.9316 9.23828 -14.9316 C 4.94141 -14.9316 1.36719 -11.3574 1.36719 -7.05078 C 1.36719 -2.74414 4.95117 0.830078 9.24805 0.830078 Z M 9.24805 -0.654297 C 5.70312 -0.654297 2.87109 -3.49609 2.87109 -7.05078 C 2.87109 -10.6055 5.69336 -13.4473 9.23828 -13.4473 C 12.793 -13.4473 15.6348 -10.6055 15.6445 -7.05078 C 15.6543 -3.49609 12.8027 -0.654297 9.24805 -0.654297 Z M 9.22852 -3.42773 C 9.69727 -3.42773 9.9707 -3.74023 9.9707 -4.25781 L 9.9707 -6.31836 L 12.1973 -6.31836 C 12.6953 -6.31836 13.0371 -6.57227 13.0371 -7.04102 C 13.0371 -7.51953 12.7148 -7.7832 12.1973 -7.7832 L 9.9707 -7.7832 L 9.9707 -10.0098 C 9.9707 -10.5273 9.69727 -10.8496 9.22852 -10.8496 C 8.75977 -10.8496 8.50586 -10.5078 8.50586 -10.0098 L 8.50586 -7.7832 L 6.29883 -7.7832 C 5.78125 -7.7832 5.44922 -7.51953 5.44922 -7.04102 C 5.44922 -6.57227 5.80078 -6.31836 6.29883 -6.31836 L 8.50586 -6.31836 L 8.50586 -4.25781 C 8.50586 -3.75977 8.75977 -3.42773 9.22852 -3.42773 Z"/>
  </g>
  <g id="" transform="matrix(1 0 0 1 281.506 1933)">
   <path d="M 11.709 2.91016 C 17.1582 2.91016 21.6699 -1.60156 21.6699 -7.05078 C 21.6699 -12.4902 17.1484 -17.0117 11.6992 -17.0117 C 6.25977 -17.0117 1.74805 -12.4902 1.74805 -7.05078 C 1.74805 -1.60156 6.26953 2.91016 11.709 2.91016 Z M 11.709 1.25 C 7.09961 1.25 3.41797 -2.44141 3.41797 -7.05078 C 3.41797 -11.6504 7.08984 -15.3516 11.6992 -15.3516 C 16.3086 -15.3516 20 -11.6504 20.0098 -7.05078 C 20.0195 -2.44141 16.3184 1.25 11.709 1.25 Z M 11.6895 -2.41211 C 12.207 -2.41211 12.5195 -2.77344 12.5195 -3.33984 L 12.5195 -6.23047 L 15.5762 -6.23047 C 16.123 -6.23047 16.5039 -6.51367 16.5039 -7.03125 C 16.5039 -7.55859 16.1426 -7.86133 15.5762 -7.86133 L 12.5195 -7.86133 L 12.5195 -10.9277 C 12.5195 -11.5039 12.207 -11.8555 11.6895 -11.8555 C 11.1719 -11.8555 10.8789 -11.4844 10.8789 -10.9277 L 10.8789 -7.86133 L 7.83203 -7.86133 C 7.26562 -7.86133 6.89453 -7.55859 6.89453 -7.03125 C 6.89453 -6.51367 7.28516 -6.23047 7.83203 -6.23047 L 10.8789 -6.23047 L 10.8789 -3.33984 C 10.8789 -2.79297 11.1719 -2.41211 11.6895 -2.41211 Z"/>
  </g>
  <g id="" transform="matrix(1 0 0 1 304.924 1933)">
   <path d="M 14.9707 5.67383 C 21.9336 5.67383 27.6953 -0.078125 27.6953 -7.04102 C 27.6953 -14.0039 21.9238 -19.7559 14.9609 -19.7559 C 8.00781 -19.7559 2.25586 -14.0039 2.25586 -7.04102 C 2.25586 -0.078125 8.01758 5.67383 14.9707 5.67383 Z M 14.9707 3.85742 C 8.93555 3.85742 4.08203 -1.00586 4.08203 -7.04102 C 4.08203 -13.0762 8.92578 -17.9395 14.9609 -17.9395 C 21.0059 -17.9395 25.8594 -13.0762 25.8691 -7.04102 C 25.8789 -1.00586 21.0156 3.85742 14.9707 3.85742 Z M 14.9512 -1.06445 C 15.5176 -1.06445 15.8691 -1.45508 15.8691 -2.06055 L 15.8691 -6.13281 L 20.1074 -6.13281 C 20.6934 -6.13281 21.1133 -6.46484 21.1133 -7.02148 C 21.1133 -7.59766 20.7227 -7.93945 20.1074 -7.93945 L 15.8691 -7.93945 L 15.8691 -12.1875 C 15.8691 -12.8027 15.5176 -13.1934 14.9512 -13.1934 C 14.3848 -13.1934 14.0625 -12.7832 14.0625 -12.1875 L 14.0625 -7.93945 L 9.83398 -7.93945 C 9.21875 -7.93945 8.80859 -7.59766 8.80859 -7.02148 C 8.80859 -6.46484 9.23828 -6.13281 9.83398 -6.13281 L 14.0625 -6.13281 L 14.0625 -2.06055 C 14.0625 -1.47461 14.3848 -1.06445 14.9512 -1.06445 Z"/>
  </g>
  <text style="stroke:none;fill:black;font-family:-apple-system,&quot;SF Pro Display&quot;,&quot;SF Pro Text&quot;,Helvetica,sans-serif;font-weight:bold;" transform="matrix(1 0 0 1 263 1953)">Design Variations</text>
  <text style="stroke:none;fill:black;font-family:-apple-system,&quot;SF Pro Display&quot;,&quot;SF Pro Text&quot;,Helvetica,sans-serif;" transform="matrix(1 0 0 1 263 1971)">Symbols are supported in up to nine weights and three scales.</text>
  <text style="stroke:none;fill:black;font-family:-apple-system,&quot;SF Pro Display&quot;,&quot;SF Pro Text&quot;,Helvetica,sans-serif;" transform="matrix(1 0 0 1 263 1989)">For optimal layout with text and other symbols, vertically align</text>
  <text style="stroke:none;fill:black;font-family:-apple-system,&quot;SF Pro Display&quot;,&quot;SF Pro Text&quot;,Helvetica,sans-serif;" transform="matrix(1 0 0 1 263 2007)">symbols with the adjacent text.</text>
  <rect height="14" id="" style="fill:#00AEEF;stroke:none;opacity:0.4;" width="3" x="776" y="1919"/>
  <g id="" transform="matrix(1 0 0 1 779 1933)">
   <path d="M 10.5273 0 L 12.373 0 L 7.17773 -14.0918 L 5.43945 -14.0918 L 0.244141 0 L 2.08984 0 L 3.50586 -4.0332 L 9.11133 -4.0332 Z M 6.2793 -11.9531 L 6.33789 -11.9531 L 8.59375 -5.52734 L 4.02344 -5.52734 Z"/>
  </g>
  <rect height="14" id="" style="fill:#00AEEF;stroke:none;opacity:0.4;" width="3" x="791.617" y="1919"/>
  <text style="stroke:none;fill:black;font-family:-apple-system,&quot;SF Pro Display&quot;,&quot;SF Pro Text&quot;,Helvetica,sans-serif;font-weight:bold;" transform="matrix(1 0 0 1 776 1953)">Margins</text>
  <text style="stroke:none;fill:black;font-family:-apple-system,&quot;SF Pro Display&quot;,&quot;SF Pro Text&quot;,Helvetica,sans-serif;" transform="matrix(1 0 0 1 776 1971)">Leading and trailing margins on the left and right side of each symbol</text>
  <text style="stroke:none;fill:black;font-family:-apple-system,&quot;SF Pro Display&quot;,&quot;SF Pro Text&quot;,Helvetica,sans-serif;" transform="matrix(1 0 0 1 776 1989)">can be adjusted by modifying the width of the blue rectangles.</text>
  <text style="stroke:none;fill:black;font-family:-apple-system,&quot;SF Pro Display&quot;,&quot;SF Pro Text&quot;,Helvetica,sans-serif;" transform="matrix(1 0 0 1 776 2007)">Modifications are automatically applied proportionally to all</text>
  <text style="stroke:none;fill:black;font-family:-apple-system,&quot;SF Pro Display&quot;,&quot;SF Pro Text&quot;,Helvetica,sans-serif;" transform="matrix(1 0 0 1 776 2025)">scales and weights.</text>
  <g id="" transform="matrix(1 0 0 1 1289 1933)">
   <path d="M 2.83203 3.11523 L 4.375 4.6582 C 5.22461 5.48828 6.19141 5.41992 7.06055 4.46289 L 17.2754 -6.66016 C 17.7051 -6.36719 18.0957 -6.37695 18.5645 -6.47461 L 19.6094 -6.68945 L 20.3027 -5.99609 L 20.2539 -5.47852 C 20.1855 -4.95117 20.3516 -4.53125 20.8496 -4.0332 L 21.6602 -3.22266 C 22.168 -2.71484 22.8223 -2.68555 23.3008 -3.16406 L 26.5527 -6.41602 C 27.0312 -6.89453 27.0117 -7.54883 26.5039 -8.05664 L 25.6836 -8.87695 C 25.1855 -9.375 24.7754 -9.55078 24.2383 -9.47266 L 23.7109 -9.41406 L 23.0566 -10.0781 L 23.3398 -11.2207 C 23.4863 -11.7871 23.3398 -12.2559 22.7148 -12.8613 L 20.3027 -15.2539 C 16.7578 -18.7793 12.2266 -18.6719 9.11133 -15.5371 C 8.69141 -15.1074 8.64258 -14.5215 8.91602 -14.0918 C 9.15039 -13.7207 9.62891 -13.4961 10.2734 -13.6621 C 11.7871 -14.043 13.3008 -13.9258 14.7852 -12.9199 L 14.1602 -11.3379 C 13.9258 -10.752 13.9453 -10.2734 14.1797 -9.83398 L 3.01758 0.439453 C 2.08008 1.30859 1.97266 2.25586 2.83203 3.11523 Z M 10.6738 -15.1465 C 13.3398 -17.1387 16.6504 -16.8262 19.0527 -14.4141 L 21.6797 -11.8066 C 21.9141 -11.5723 21.9434 -11.3867 21.8848 -11.0938 L 21.5039 -9.53125 L 23.0762 -7.95898 L 24.043 -8.04688 C 24.3262 -8.07617 24.4141 -8.05664 24.6387 -7.83203 L 25.2637 -7.20703 L 22.5098 -4.46289 L 21.8848 -5.07812 C 21.6602 -5.30273 21.6406 -5.40039 21.6699 -5.68359 L 21.7578 -6.64062 L 20.1953 -8.20312 L 18.5742 -7.89062 C 18.291 -7.83203 18.1445 -7.83203 17.9102 -8.07617 L 15.7324 -10.2539 C 15.5078 -10.4883 15.4785 -10.625 15.6055 -10.9473 L 16.5527 -13.2227 C 14.9512 -14.7559 12.8418 -15.6055 10.8008 -14.9512 C 10.7129 -14.9219 10.6445 -14.9414 10.6152 -14.9805 C 10.5859 -15.0293 10.5859 -15.0781 10.6738 -15.1465 Z M 4.10156 2.41211 C 3.61328 1.91406 3.78906 1.61133 4.12109 1.30859 L 15.0781 -8.80859 L 16.3086 -7.57812 L 6.15234 3.34961 C 5.84961 3.68164 5.46875 3.7793 5.06836 3.37891 Z"/>
  </g>
  <text style="stroke:none;fill:black;font-family:-apple-system,&quot;SF Pro Display&quot;,&quot;SF Pro Text&quot;,Helvetica,sans-serif;font-weight:bold;" transform="matrix(1 0 0 1 1289 1953)">Exporting</text>
  <text style="stroke:none;fill:black;font-family:-apple-system,&quot;SF Pro Display&quot;,&quot;SF Pro Text&quot;,Helvetica,sans-serif;" transform="matrix(1 0 0 1 1289 1971)">Symbols should be outlined when exporting to ensure the</text>
  <text style="stroke:none;fill:black;font-family:-apple-system,&quot;SF Pro Display&quot;,&quot;SF Pro Text&quot;,Helvetica,sans-serif;" transform="matrix(1 0 0 1 1289 1989)">design is preserved when submitting to Xcode.</text>
  <text id="template-version" style="stroke:none;fill:black;font-family:-apple-system,&quot;SF Pro Display&quot;,&quot;SF Pro Text&quot;,Helvetica,sans-serif;text-anchor:end;" transform="matrix(1 0 0 1 3036 1933)">Template v.1.0</text>
  <text style="stroke:none;fill:black;font-family:-apple-system,&quot;SF Pro Display&quot;,&quot;SF Pro Text&quot;,Helvetica,sans-serif;text-anchor:end;" transform="matrix(1 0 0 1 3036 1951)">Generated from 30.circle.fill</text>
  <text style="stroke:none;fill:black;font-family:-apple-system,&quot;SF Pro Display&quot;,&quot;SF Pro Text&quot;,Helvetica,sans-serif;text-anchor:end;" transform="matrix(1 0 0 1 3036 1969)">Typeset at 100 points</text>
  <text style="stroke:none;fill:black;font-family:-apple-system,&quot;SF Pro Display&quot;,&quot;SF Pro Text&quot;,Helvetica,sans-serif;" transform="matrix(1 0 0 1 263 726)">Small</text>
  <text style="stroke:none;fill:black;font-family:-apple-system,&quot;SF Pro Display&quot;,&quot;SF Pro Text&quot;,Helvetica,sans-serif;" transform="matrix(1 0 0 1 263 1156)">Medium</text>
  <text style="stroke:none;fill:black;font-family:-apple-system,&quot;SF Pro Display&quot;,&quot;SF Pro Text&quot;,Helvetica,sans-serif;" transform="matrix(1 0 0 1 263 1586)">Large</text>
 </g>
 <g id="Guides">
  <g id="H-reference" style="fill:#27AAE1;stroke:none;" transform="matrix(1 0 0 1 339 696)">
   <path d="M 54.9316 0 L 57.666 0 L 30.5664 -70.459 L 28.0762 -70.459 L 0.976562 0 L 3.66211 0 L 12.9395 -24.4629 L 45.7031 -24.4629 Z M 29.1992 -67.0898 L 29.4434 -67.0898 L 44.8242 -26.709 L 13.8184 -26.709 Z"/>
  </g>
  <line id="Baseline-S" style="fill:none;stroke:#27AAE1;opacity:1;stroke-width:0.577;" x1="263" x2="3036" y1="696" y2="696"/>
  <line id="Capline-S" style="fill:none;stroke:#27AAE1;opacity:1;stroke-width:0.577;" x1="263" x2="3036" y1="625.541" y2="625.541"/>
  <g id="H-reference" style="fill:#27AAE1;stroke:none;" transform="matrix(1 0 0 1 339 1126)">
   <path d="M 54.9316 0 L 57.666 0 L 30.5664 -70.459 L 28.0762 -70.459 L 0.976562 0 L 3.66211 0 L 12.9395 -24.4629 L 45.7031 -24.4629 Z M 29.1992 -67.0898 L 29.4434 -67.0898 L 44.8242 -26.709 L 13.8184 -26.709 Z"/>
  </g>
  <line id="Baseline-M" style="fill:none;stroke:#27AAE1;opacity:1;stroke-width:0.577;" x1="263" x2="3036" y1="1126" y2="1126"/>
  <line id="Capline-M" style="fill:none;stroke:#27AAE1;opacity:1;stroke-width:0.577;" x1="263" x2="3036" y1="1055.54" y2="1055.54"/>
  <g id="H-reference" style="fill:#27AAE1;stroke:none;" transform="matrix(1 0 0 1 339 1556)">
   <path d="M 54.9316 0 L 57.666 0 L 30.5664 -70.459 L 28.0762 -70.459 L 0.976562 0 L 3.66211 0 L 12.9395 -24.4629 L 45.7031 -24.4629 Z M 29.1992 -67.0898 L 29.4434 -67.0898 L 44.8242 -26.709 L 13.8184 -26.709 Z"/>
  </g>
  <line id="Baseline-L" style="fill:none;stroke:#27AAE1;opacity:1;stroke-width:0.577;" x1="263" x2="3036" y1="1556" y2="1556"/>
  <line id="Capline-L" style="fill:none;stroke:#27AAE1;opacity:1;stroke-width:0.577;" x1="263" x2="3036" y1="1485.54" y2="1485.54"/>
  <rect height="119.336" id="left-margin" style="fill:#00AEEF;stroke:none;opacity:0.4;" width="8.74023" x="1391.3" y="1030.79"/>
  <rect height="119.336" id="right-margin" style="fill:#00AEEF;stroke:none;opacity:0.4;" width="8.74023" x="1499.65" y="1030.79"/>
 </g>
 <g id="Symbols">
  <g id="Black-L" transform="matrix(1 0 0 1 2854.05 1556)">
   <path d="M 79.3457 32.8613 C 116.748 32.8613 147.412 2.19727 147.412 -35.2051 C 147.412 -72.6074 116.748 -103.271 79.2969 -103.271 C 41.8945 -103.271 11.2793 -72.6074 11.2793 -35.2051 C 11.2793 2.19727 41.9434 32.8613 79.3457 32.8613 Z M 98.9258 -9.47266 C 88.7207 -9.47266 81.9336 -17.5293 81.9336 -35.3027 C 81.9336 -53.0762 88.7207 -61.084 98.9258 -61.084 C 109.082 -61.084 116.26 -53.0762 116.26 -35.3027 C 116.26 -17.5293 109.082 -9.47266 98.9258 -9.47266 Z M 59.4238 -9.47266 C 51.6602 -9.47266 44.873 -14.3066 43.457 -19.4336 C 43.0664 -20.5078 42.8711 -21.4355 42.8711 -22.5586 C 42.8711 -25.9766 45.5566 -27.8809 48.0469 -27.8809 C 50.4395 -27.8809 52.0508 -26.8555 53.2715 -24.9023 C 54.7852 -22.2168 57.0312 -20.9473 59.6191 -20.9473 C 62.5488 -20.9473 64.5508 -22.998 64.5508 -25.3418 C 64.5508 -28.1738 62.6465 -29.8828 59.4727 -29.8828 L 58.4473 -29.8828 C 54.5898 -29.8828 52.7832 -32.2754 52.7832 -35.6445 C 52.7832 -39.0137 54.8828 -41.3574 58.4473 -41.3574 L 59.4238 -41.3574 C 62.3047 -41.3574 63.7207 -43.457 63.7207 -45.752 C 63.7207 -48.3887 61.8652 -50.0977 59.3262 -50.0977 C 56.7383 -50.0977 55.127 -48.8281 53.6133 -46.1426 C 52.5391 -44.2383 50.9766 -43.0664 48.584 -43.0664 C 45.6543 -43.0664 43.5547 -45.0195 43.5547 -48.3887 C 43.5547 -49.5605 43.75 -50.5371 44.2871 -51.9043 C 45.8984 -56.2012 51.416 -61.084 59.5703 -61.084 C 69.5312 -61.084 75.9766 -55.7129 75.9766 -47.5098 C 75.9766 -42.4316 72.5098 -37.6953 67.9199 -36.9629 L 67.9199 -36.4258 C 73.4375 -35.9375 77.1973 -30.8594 77.1973 -24.6094 C 77.1973 -15.4297 70.2148 -9.47266 59.4238 -9.47266 Z M 99.1211 -21.5332 C 102.002 -21.5332 103.809 -25.2441 103.809 -35.3027 C 103.809 -45.3613 101.953 -49.0723 99.1211 -49.0723 C 96.2402 -49.0723 94.4336 -45.3613 94.4336 -35.3027 C 94.4336 -25.2441 96.2402 -21.5332 99.1211 -21.5332 Z"/>
  </g>
  <g id="Heavy-L" transform="matrix(1 0 0 1 2558.39 1556)">
   <path d="M 78.2715 31.7871 C 115.088 31.7871 145.312 1.61133 145.312 -35.2051 C 145.312 -72.0215 115.039 -102.197 78.2715 -102.197 C 41.4551 -102.197 11.2793 -72.0215 11.2793 -35.2051 C 11.2793 1.61133 41.5039 31.7871 78.2715 31.7871 Z M 98.4863 -8.93555 C 88.0371 -8.93555 81.0547 -17.627 81.0547 -35.3027 C 81.0547 -52.9785 88.0371 -61.7188 98.4863 -61.7188 C 108.936 -61.7188 116.211 -52.9785 116.211 -35.3027 C 116.211 -17.627 108.936 -8.93555 98.4863 -8.93555 Z M 57.8125 -8.93555 C 49.7559 -8.93555 42.9688 -13.8672 41.4551 -19.1895 C 41.1133 -20.2148 40.918 -21.0938 40.918 -22.1191 C 40.918 -25.1953 43.3105 -27.002 45.6543 -27.002 C 47.9004 -27.002 49.3652 -26.0254 50.4395 -24.0723 C 52.0508 -20.8984 54.6875 -19.2383 57.959 -19.2383 C 61.7676 -19.2383 64.4531 -21.7773 64.4531 -24.9023 C 64.4531 -28.3691 61.9629 -30.6152 57.959 -30.6152 L 56.1523 -30.6152 C 52.7832 -30.6152 51.0742 -32.7637 51.0742 -35.791 C 51.0742 -38.8184 53.0273 -40.9668 56.1523 -40.9668 L 57.8613 -40.9668 C 61.377 -40.9668 63.4277 -43.457 63.4277 -46.3867 C 63.4277 -49.6094 61.0352 -51.709 57.7637 -51.709 C 54.4922 -51.709 52.4414 -50.0977 50.9766 -46.875 C 50 -44.9707 48.584 -43.8477 46.3379 -43.8477 C 43.6035 -43.8477 41.6992 -45.7031 41.6992 -48.7793 C 41.6992 -49.8535 41.8457 -50.7324 42.334 -52.002 C 43.9453 -56.7871 49.707 -61.7188 58.0078 -61.7188 C 67.8711 -61.7188 74.4629 -56.2012 74.4629 -47.9492 C 74.4629 -42.627 70.8008 -37.6953 65.9668 -36.9141 L 65.9668 -36.4258 C 71.7773 -35.8887 75.7812 -30.6641 75.7812 -24.2676 C 75.7812 -15.0391 68.6523 -8.93555 57.8125 -8.93555 Z M 98.6328 -19.7754 C 102.441 -19.7754 104.883 -24.5605 104.883 -35.3027 C 104.883 -46.0449 102.441 -50.8301 98.6328 -50.8301 C 94.8242 -50.8301 92.3828 -46.0449 92.3828 -35.3027 C 92.3828 -24.5605 94.8242 -19.7754 98.6328 -19.7754 Z"/>
  </g>
  <g id="Bold-L" transform="matrix(1 0 0 1 2262.88 1556)">
   <path d="M 77.0996 30.6152 C 113.232 30.6152 142.92 0.878906 142.92 -35.2051 C 142.92 -71.3379 113.184 -101.025 77.0508 -101.025 C 40.9668 -101.025 11.2793 -71.3379 11.2793 -35.2051 C 11.2793 0.878906 41.0156 30.6152 77.0996 30.6152 Z M 97.998 -8.30078 C 87.207 -8.30078 80.0781 -17.7734 80.0781 -35.3027 C 80.0781 -52.8809 87.207 -62.3535 97.998 -62.3535 C 108.74 -62.3535 116.113 -52.8809 116.113 -35.3027 C 116.113 -17.7734 108.74 -8.30078 97.998 -8.30078 Z M 56.0059 -8.30078 C 47.6562 -8.30078 40.8203 -13.3789 39.209 -18.9453 C 38.916 -19.873 38.7695 -20.6543 38.7695 -21.6309 C 38.7695 -24.3652 40.8203 -26.0742 43.0176 -26.0742 C 45.0684 -26.0742 46.3379 -25.0977 47.3145 -23.1445 C 48.9746 -19.3848 52.0996 -17.334 56.1035 -17.334 C 60.9863 -17.334 64.3066 -20.4102 64.3066 -24.4141 C 64.3066 -28.6133 61.1816 -31.3965 56.2988 -31.3965 L 53.6133 -31.3965 C 50.7324 -31.3965 49.1699 -33.3008 49.1699 -35.9375 C 49.1699 -38.6719 50.8789 -40.4785 53.6133 -40.4785 L 56.1035 -40.4785 C 60.3516 -40.4785 63.0859 -43.457 63.0859 -47.168 C 63.0859 -50.9766 60.1562 -53.5156 56.0059 -53.5156 C 52.002 -53.5156 49.4141 -51.4648 47.998 -47.7051 C 47.168 -45.8008 45.8984 -44.7266 43.8477 -44.7266 C 41.3086 -44.7266 39.6484 -46.4355 39.6484 -49.1699 C 39.6484 -50.1953 39.7461 -50.9766 40.1367 -52.0996 C 41.748 -57.4707 47.8027 -62.3535 56.2012 -62.3535 C 66.0645 -62.3535 72.7539 -56.7383 72.7539 -48.4863 C 72.7539 -42.8711 68.8477 -37.6953 63.7695 -36.8652 L 63.7695 -36.4258 C 69.873 -35.8398 74.2676 -30.4688 74.2676 -23.877 C 74.2676 -14.5996 66.8945 -8.30078 56.0059 -8.30078 Z M 98.0957 -17.8223 C 102.979 -17.8223 106.104 -23.7793 106.104 -35.3027 C 106.104 -46.875 102.979 -52.832 98.0957 -52.832 C 93.2129 -52.832 90.0879 -46.875 90.0879 -35.3027 C 90.0879 -23.7793 93.2129 -17.8223 98.0957 -17.8223 Z"/>
  </g>
  <g id="Semibold-L" transform="matrix(1 0 0 1 1966.97 1556)">
   <path d="M 76.2695 29.7852 C 111.914 29.7852 141.309 0.439453 141.309 -35.2051 C 141.309 -70.8496 111.865 -100.244 76.2695 -100.244 C 40.625 -100.244 11.2793 -70.8496 11.2793 -35.2051 C 11.2793 0.439453 40.6738 29.7852 76.2695 29.7852 Z M 97.6562 -7.86133 C 86.6699 -7.86133 79.3945 -17.8223 79.3945 -35.3516 C 79.3945 -52.832 86.6699 -62.793 97.6562 -62.793 C 108.643 -62.793 116.064 -52.832 116.064 -35.3516 C 116.064 -17.8223 108.643 -7.86133 97.6562 -7.86133 Z M 54.7363 -7.86133 C 46.1914 -7.86133 39.3555 -13.0371 37.6465 -18.7988 C 37.4023 -19.6777 37.2559 -20.3613 37.2559 -21.3379 C 37.2559 -23.7793 39.0625 -25.3906 41.1621 -25.3906 C 43.1152 -25.3906 44.2871 -24.4629 45.166 -22.5098 C 46.8262 -18.3594 50.293 -16.0645 54.834 -16.0645 C 60.4004 -16.0645 64.2578 -19.4824 64.2578 -24.0723 C 64.2578 -28.7598 60.5957 -31.9336 55.127 -31.9336 L 51.8555 -31.9336 C 49.3164 -31.9336 47.8516 -33.6914 47.8516 -36.0352 C 47.8516 -38.5254 49.4629 -40.1855 51.8555 -40.1855 L 54.8828 -40.1855 C 59.668 -40.1855 62.8418 -43.4082 62.8418 -47.6562 C 62.8418 -51.9043 59.5215 -54.7363 54.834 -54.7363 C 50.2441 -54.7363 47.3145 -52.4414 45.9473 -48.291 C 45.2148 -46.3379 44.0918 -45.3613 42.0898 -45.3613 C 39.7461 -45.3613 38.2324 -46.9727 38.2324 -49.4629 C 38.2324 -50.3906 38.2812 -51.1719 38.623 -52.1484 C 40.2344 -57.959 46.5332 -62.793 54.9805 -62.793 C 64.8438 -62.793 71.582 -57.1289 71.582 -48.8281 C 71.582 -43.0176 67.5293 -37.6953 62.2559 -36.8652 L 62.2559 -36.4746 C 68.6035 -35.8398 73.1934 -30.3223 73.1934 -23.6328 C 73.1934 -14.3066 65.6738 -7.86133 54.7363 -7.86133 Z M 97.7051 -16.4551 C 103.369 -16.4551 106.934 -23.2422 106.934 -35.3516 C 106.934 -47.4121 103.32 -54.1992 97.7051 -54.1992 C 92.1387 -54.1992 88.5254 -47.4121 88.5254 -35.3516 C 88.5254 -23.2422 92.1387 -16.4551 97.7051 -16.4551 Z"/>
  </g>
  <g id="Medium-L" transform="matrix(1 0 0 1 1670.87 1556)">
   <path d="M 75.6836 29.1992 C 110.938 29.1992 140.088 0.0488281 140.088 -35.2051 C 140.088 -70.459 110.889 -99.6094 75.6348 -99.6094 C 40.3809 -99.6094 11.2793 -70.459 11.2793 -35.2051 C 11.2793 0.0488281 40.3809 29.1992 75.6836 29.1992 Z M 97.4121 -7.51953 C 86.2793 -7.51953 78.9062 -17.9199 78.9062 -35.3516 C 78.9062 -52.7832 86.2793 -63.1836 97.4121 -63.1836 C 108.545 -63.1836 116.016 -52.7832 116.016 -35.3516 C 116.016 -17.9199 108.545 -7.51953 97.4121 -7.51953 Z M 53.8086 -7.51953 C 45.0684 -7.51953 38.2324 -12.793 36.4746 -18.6523 C 36.2305 -19.4824 36.1328 -20.166 36.1328 -21.0938 C 36.1328 -23.3398 37.7441 -24.9023 39.7949 -24.9023 C 41.6504 -24.9023 42.6758 -23.9746 43.5059 -22.0215 C 45.2148 -17.5781 48.9746 -15.0391 53.8574 -15.0391 C 59.9609 -15.0391 64.209 -18.7988 64.209 -23.7793 C 64.209 -28.9062 60.2051 -32.373 54.248 -32.373 L 50.5371 -32.373 C 48.2422 -32.373 46.875 -33.9844 46.875 -36.1328 C 46.875 -38.4277 48.3398 -39.9414 50.5371 -39.9414 L 53.9551 -39.9414 C 59.1309 -39.9414 62.6465 -43.4082 62.6465 -48.0469 C 62.6465 -52.5879 59.082 -55.7129 53.9062 -55.7129 C 48.9258 -55.7129 45.752 -53.1738 44.3848 -48.7305 C 43.75 -46.7773 42.6758 -45.8496 40.7715 -45.8496 C 38.5254 -45.8496 37.1094 -47.3633 37.1094 -49.707 C 37.1094 -50.5859 37.1582 -51.2695 37.4512 -52.1973 C 39.1113 -58.3008 45.5078 -63.1836 54.0527 -63.1836 C 63.8672 -63.1836 70.7031 -57.4219 70.7031 -49.0723 C 70.7031 -43.1641 66.5039 -37.6953 61.084 -36.8164 L 61.084 -36.4746 C 67.627 -35.791 72.4121 -30.2246 72.4121 -23.4375 C 72.4121 -14.0625 64.7461 -7.51953 53.8086 -7.51953 Z M 97.4609 -15.4297 C 103.613 -15.4297 107.568 -22.8516 107.568 -35.3516 C 107.568 -47.8027 103.564 -55.2734 97.4609 -55.2734 C 91.3086 -55.2734 87.3535 -47.8027 87.3535 -35.3516 C 87.3535 -22.8516 91.3086 -15.4297 97.4609 -15.4297 Z"/>
  </g>
  <g id="Regular-L" transform="matrix(1 0 0 1 1374.97 1556)">
   <path d="M 74.8535 28.3691 C 109.668 28.3691 138.477 -0.390625 138.477 -35.2051 C 138.477 -70.0195 109.619 -98.7793 74.8047 -98.7793 C 40.0391 -98.7793 11.2793 -70.0195 11.2793 -35.2051 C 11.2793 -0.390625 40.0879 28.3691 74.8535 28.3691 Z M 97.0703 -7.08008 C 85.7422 -7.08008 78.2227 -17.9688 78.2227 -35.3516 C 78.2227 -52.7344 85.7422 -63.623 97.0703 -63.623 C 108.398 -63.623 115.918 -52.7344 115.918 -35.3516 C 115.918 -17.9688 108.398 -7.08008 97.0703 -7.08008 Z M 52.5391 -7.08008 C 43.6523 -7.08008 36.7676 -12.4512 34.9609 -18.457 C 34.7656 -19.2383 34.6191 -19.873 34.6191 -20.752 C 34.6191 -22.8027 36.0352 -24.2188 37.9883 -24.2188 C 39.6973 -24.2188 40.625 -23.3398 41.3574 -21.3867 C 43.1152 -16.5527 47.168 -13.7695 52.5879 -13.7695 C 59.375 -13.7695 64.1113 -17.8711 64.1113 -23.4375 C 64.1113 -29.0527 59.668 -32.9102 53.125 -32.9102 L 48.7793 -32.9102 C 46.875 -32.9102 45.5566 -34.3262 45.5566 -36.2305 C 45.5566 -38.2812 46.875 -39.6484 48.7793 -39.6484 L 52.7832 -39.6484 C 58.3984 -39.6484 62.4023 -43.4082 62.4023 -48.584 C 62.4023 -53.5156 58.4473 -56.9336 52.7344 -56.9336 C 47.2168 -56.9336 43.7012 -54.1504 42.334 -49.2676 C 41.7969 -47.3145 40.8203 -46.4355 39.1113 -46.4355 C 36.9629 -46.4355 35.6934 -47.9004 35.6934 -49.9512 C 35.6934 -50.7812 35.7422 -51.4648 35.9375 -52.2461 C 37.6465 -58.7402 44.2383 -63.623 52.8809 -63.623 C 62.6465 -63.623 69.5312 -57.7637 69.5312 -49.4629 C 69.5312 -43.3105 65.1855 -37.6953 59.6191 -36.8164 L 59.6191 -36.4746 C 66.3574 -35.791 71.3379 -30.127 71.3379 -23.1445 C 71.3379 -13.7695 63.5254 -7.08008 52.5391 -7.08008 Z M 97.0703 -14.0625 C 104.004 -14.0625 108.398 -22.3633 108.398 -35.3516 C 108.398 -48.3398 103.955 -56.6406 97.0703 -56.6406 C 90.1855 -56.6406 85.791 -48.3398 85.791 -35.3516 C 85.791 -22.3633 90.1855 -14.0625 97.0703 -14.0625 Z"/>
  </g>
  <g id="Light-L" transform="matrix(1 0 0 1 1079.18 1556)">
   <path d="M 73.9258 27.4902 C 108.301 27.4902 136.621 -0.830078 136.621 -35.1562 C 136.621 -69.5312 108.252 -97.8516 73.9258 -97.8516 C 39.5508 -97.8516 11.2793 -69.5312 11.2793 -35.1562 C 11.2793 -0.830078 39.5996 27.4902 73.9258 27.4902 Z M 96.3867 -7.42188 C 85.1074 -7.42188 77.5879 -18.3594 77.5879 -35.3516 C 77.5879 -52.3438 85.1074 -63.2812 96.3867 -63.2812 C 107.568 -63.2812 115.137 -52.3438 115.137 -35.3516 C 115.137 -18.3594 107.568 -7.42188 96.3867 -7.42188 Z M 51.8066 -7.42188 C 43.0664 -7.42188 36.377 -12.5977 34.4727 -18.5059 C 34.2773 -19.1895 34.1797 -19.7754 34.1797 -20.6055 C 34.1797 -22.2656 35.3027 -23.4375 36.9141 -23.4375 C 38.4277 -23.4375 39.1602 -22.6562 39.7461 -21.0449 C 41.5039 -15.918 46.1426 -12.8418 51.8066 -12.8418 C 59.2773 -12.8418 64.3555 -17.2852 64.3555 -23.3398 C 64.3555 -29.248 59.4238 -33.5449 52.4414 -33.5449 L 47.5586 -33.5449 C 45.9961 -33.5449 44.9219 -34.668 44.9219 -36.2305 C 44.9219 -37.9395 46.0449 -39.0137 47.5586 -39.0137 L 52.0508 -39.0137 C 58.1543 -39.0137 62.5977 -43.2129 62.5977 -48.7305 C 62.5977 -54.1504 58.252 -57.8613 51.8555 -57.8613 C 45.9473 -57.8613 41.9922 -54.6875 40.7715 -49.6582 C 40.332 -47.9004 39.5508 -47.168 38.0859 -47.168 C 36.2305 -47.168 35.2539 -48.3887 35.2539 -50.1465 C 35.2539 -50.8789 35.3027 -51.5137 35.498 -52.1973 C 37.1094 -58.7402 43.7988 -63.2812 51.9531 -63.2812 C 61.5723 -63.2812 68.4082 -57.5684 68.4082 -49.4141 C 68.4082 -43.3105 63.9648 -37.6465 58.252 -36.7188 L 58.252 -36.4746 C 65.0879 -35.7422 70.2148 -30.0781 70.2148 -23.1934 C 70.2148 -14.0137 62.5 -7.42188 51.8066 -7.42188 Z M 96.3867 -13.0371 C 104.004 -13.0371 109.131 -21.875 109.131 -35.3516 C 109.131 -48.8281 104.004 -57.666 96.3867 -57.666 C 88.6719 -57.666 83.5938 -48.8281 83.5938 -35.3516 C 83.5938 -21.875 88.6719 -13.0371 96.3867 -13.0371 Z"/>
  </g>
  <g id="Thin-L" transform="matrix(1 0 0 1 783.693 1556)">
   <path d="M 72.7051 26.3184 C 106.494 26.3184 134.18 -1.36719 134.18 -35.1074 C 134.18 -68.8965 106.494 -96.582 72.7051 -96.582 C 38.9648 -96.582 11.2793 -68.8965 11.2793 -35.1074 C 11.2793 -1.36719 38.9648 26.3184 72.7051 26.3184 Z M 95.4102 -7.8125 C 84.2773 -7.8125 76.709 -18.8965 76.709 -35.3516 C 76.709 -51.8066 84.2773 -62.8906 95.4102 -62.8906 C 106.445 -62.8906 114.111 -51.8066 114.111 -35.3516 C 114.111 -18.8965 106.445 -7.8125 95.4102 -7.8125 Z M 50.7812 -7.8125 C 42.334 -7.8125 35.8398 -12.793 33.8867 -18.6035 C 33.6914 -19.1406 33.5449 -19.6777 33.5449 -20.3613 C 33.5449 -21.5332 34.375 -22.4121 35.5469 -22.4121 C 36.6699 -22.4121 37.207 -21.8262 37.5977 -20.6055 C 39.3555 -15.0879 44.7754 -11.6211 50.7812 -11.6211 C 59.082 -11.6211 64.6973 -16.4062 64.6973 -23.2422 C 64.6973 -29.541 59.082 -34.4238 51.5625 -34.4238 L 45.9473 -34.4238 C 44.8242 -34.4238 44.0918 -35.1562 44.0918 -36.2793 C 44.0918 -37.5 44.873 -38.2324 45.9473 -38.2324 L 51.0742 -38.2324 C 57.8613 -38.2324 62.8418 -42.9199 62.8418 -48.9746 C 62.8418 -54.9805 58.0078 -59.082 50.7324 -59.082 C 44.2383 -59.082 39.6973 -55.4199 38.6719 -50.0977 C 38.4277 -48.7305 37.793 -48.1934 36.7188 -48.1934 C 35.2539 -48.1934 34.668 -49.0723 34.668 -50.3906 C 34.668 -50.9277 34.7656 -51.5625 34.9121 -52.1484 C 36.4746 -58.7402 43.2129 -62.8906 50.7812 -62.8906 C 60.1562 -62.8906 66.9434 -57.2754 66.9434 -49.3652 C 66.9434 -43.3105 62.3535 -37.5977 56.4453 -36.5723 L 56.4453 -36.4746 C 63.4277 -35.6934 68.75 -29.9805 68.75 -23.1934 C 68.75 -14.3066 61.1816 -7.8125 50.7812 -7.8125 Z M 95.4102 -11.6699 C 104.053 -11.6699 110.107 -21.2891 110.107 -35.3516 C 110.107 -49.4141 104.053 -59.0332 95.4102 -59.0332 C 86.6699 -59.0332 80.7129 -49.4141 80.7129 -35.3516 C 80.7129 -21.2891 86.6699 -11.6699 95.4102 -11.6699 Z"/>
  </g>
  <g id="Ultralight-L" transform="matrix(1 0 0 1 487.616 1556)">
   <path d="M 72.1191 25.7324 C 105.566 25.7324 132.91 -1.61133 132.91 -35.1074 C 132.91 -68.5547 105.566 -95.8984 72.1191 -95.8984 C 38.623 -95.8984 11.2793 -68.5547 11.2793 -35.1074 C 11.2793 -1.61133 38.623 25.7324 72.1191 25.7324 Z M 94.9219 -8.00781 C 83.8379 -8.00781 76.2695 -19.1406 76.2695 -35.3516 C 76.2695 -51.5625 83.8379 -62.6465 94.9219 -62.6465 C 105.908 -62.6465 113.574 -51.5625 113.574 -35.3516 C 113.574 -19.1406 105.908 -8.00781 94.9219 -8.00781 Z M 50.293 -8.00781 C 41.9922 -8.00781 35.5957 -12.8906 33.5449 -18.6523 C 33.3984 -19.0918 33.252 -19.6289 33.252 -20.2637 C 33.252 -21.1914 33.8867 -21.9238 34.8145 -21.9238 C 35.791 -21.9238 36.2305 -21.3867 36.4746 -20.3613 C 38.2324 -14.6484 44.0918 -10.9863 50.293 -10.9863 C 58.9844 -10.9863 64.8438 -16.0156 64.8438 -23.1934 C 64.8438 -29.7363 58.8867 -34.8145 51.123 -34.8145 L 45.1172 -34.8145 C 44.1895 -34.8145 43.6523 -35.4004 43.6523 -36.3281 C 43.6523 -37.2559 44.2871 -37.793 45.1172 -37.793 L 50.5859 -37.793 C 57.666 -37.793 62.9883 -42.7734 62.9883 -49.0723 C 62.9883 -55.4199 57.8613 -59.7168 50.1465 -59.7168 C 43.3594 -59.7168 38.5254 -55.8105 37.6465 -50.3418 C 37.4023 -49.1211 36.9141 -48.7305 36.0352 -48.7305 C 34.7656 -48.7305 34.375 -49.4141 34.375 -50.5371 C 34.375 -50.9766 34.4727 -51.6113 34.6191 -52.1484 C 36.1328 -58.7402 42.9199 -62.6465 50.1465 -62.6465 C 59.4238 -62.6465 66.1621 -57.1777 66.1621 -49.3164 C 66.1621 -43.3105 61.5234 -37.5977 55.5664 -36.5234 L 55.5664 -36.4746 C 62.5977 -35.6445 68.0176 -29.9316 68.0176 -23.1934 C 68.0176 -14.4531 60.498 -8.00781 50.293 -8.00781 Z M 94.9219 -10.9863 C 104.102 -10.9863 110.596 -20.9473 110.596 -35.3516 C 110.596 -49.7559 104.102 -59.7168 94.9219 -59.7168 C 85.6445 -59.7168 79.248 -49.7559 79.248 -35.3516 C 79.248 -20.9473 85.6445 -10.9863 94.9219 -10.9863 Z"/>
  </g>
  <g id="Black-M" transform="matrix(1 0 0 1 2870.97 1126)">
   <path d="M 62.4023 18.457 C 91.9922 18.457 116.113 -5.61523 116.113 -35.2051 C 116.113 -64.7949 91.9922 -88.8672 62.4023 -88.8672 C 32.8125 -88.8672 8.74023 -64.7949 8.74023 -35.2051 C 8.74023 -5.61523 32.8125 18.457 62.4023 18.457 Z M 76.8555 -16.2109 C 69.3848 -16.2109 64.3555 -21.5332 64.3555 -35.2539 C 64.3555 -48.9746 69.3848 -54.2969 76.8555 -54.2969 C 84.3262 -54.2969 89.7949 -48.9746 89.7949 -35.2539 C 89.7949 -21.5332 84.3262 -16.2109 76.8555 -16.2109 Z M 47.8516 -16.2109 C 42.2852 -16.2109 37.1582 -19.6777 36.1328 -23.3398 C 35.791 -24.2188 35.5957 -25 35.5957 -25.8789 C 35.5957 -28.7598 37.9395 -30.2734 39.8926 -30.2734 C 41.7969 -30.2734 43.2129 -29.541 44.1895 -28.1738 C 45.3125 -26.6113 46.7773 -25.9277 48.0469 -25.9277 C 49.3652 -25.9277 50.293 -27.002 50.293 -28.125 C 50.293 -29.5898 49.3652 -30.4688 47.7539 -30.4688 L 47.7051 -30.4688 C 44.2871 -30.4688 42.8711 -32.4707 42.8711 -35.3516 C 42.8711 -38.1836 44.6289 -40.1855 47.7051 -40.1855 L 47.7539 -40.1855 C 49.4141 -40.1855 49.9023 -41.5039 49.9023 -42.5293 C 49.9023 -44.1406 48.877 -45.1172 47.6562 -45.1172 C 46.3379 -45.1172 45.4102 -44.3848 44.2871 -42.8711 C 43.3594 -41.5527 42.041 -40.625 40.0879 -40.625 C 37.7441 -40.625 36.0352 -42.1875 36.0352 -45.0195 C 36.0352 -45.9473 36.2305 -46.8262 36.7188 -48.0469 C 37.8906 -50.6348 41.8945 -54.2969 47.8516 -54.2969 C 55.4688 -54.2969 60.3516 -50.3418 60.3516 -44.1406 C 60.3516 -40.5273 57.8613 -37.1094 54.5898 -36.5723 L 54.5898 -36.1328 C 58.4961 -35.8398 61.084 -32.0312 61.084 -27.4414 C 61.084 -20.5566 56.0059 -16.2109 47.8516 -16.2109 Z M 77.0508 -26.416 C 78.418 -26.416 79.3945 -28.125 79.3945 -35.2539 C 79.3945 -42.3828 78.418 -44.0918 77.0508 -44.0918 C 75.6836 -44.0918 74.7559 -42.3828 74.7559 -35.2539 C 74.7559 -28.125 75.6836 -26.416 77.0508 -26.416 Z"/>
  </g>
  <g id="Heavy-M" transform="matrix(1 0 0 1 2575.19 1126)">
   <path d="M 61.5234 17.5781 C 90.5273 17.5781 114.258 -6.15234 114.258 -35.2051 C 114.258 -64.2578 90.5273 -87.9883 61.4746 -87.9883 C 32.4707 -87.9883 8.74023 -64.2578 8.74023 -35.2051 C 8.74023 -6.15234 32.4707 17.5781 61.5234 17.5781 Z M 76.6113 -15.5273 C 68.75 -15.5273 63.5742 -21.582 63.5742 -35.2539 C 63.5742 -48.9746 68.75 -55.0293 76.6113 -55.0293 C 84.375 -55.0293 89.9414 -48.9746 89.9414 -35.2539 C 89.9414 -21.582 84.375 -15.5273 76.6113 -15.5273 Z M 46.2402 -15.5273 C 40.332 -15.5273 35.1562 -19.1406 34.0332 -23.0469 C 33.7891 -23.877 33.5938 -24.6094 33.5938 -25.4883 C 33.5938 -28.0762 35.6934 -29.541 37.5488 -29.541 C 39.4043 -29.541 40.625 -28.7598 41.5527 -27.3438 C 42.7246 -25.293 44.5312 -24.3164 46.4355 -24.3164 C 48.6328 -24.3164 50.0977 -25.8789 50.0977 -27.6855 C 50.0977 -29.7363 48.6816 -31.1035 46.2891 -31.1035 L 45.5566 -31.1035 C 42.5293 -31.1035 41.1621 -32.9102 41.1621 -35.498 C 41.1621 -38.0859 42.7734 -39.8926 45.5566 -39.8926 L 46.2402 -39.8926 C 48.4375 -39.8926 49.5117 -41.5527 49.5117 -43.2617 C 49.5117 -45.3125 48.0957 -46.6309 46.1426 -46.6309 C 44.1895 -46.6309 42.9199 -45.6055 41.7969 -43.6035 C 40.9668 -42.1875 39.7461 -41.3086 37.9395 -41.3086 C 35.6934 -41.3086 34.1309 -42.7734 34.1309 -45.3613 C 34.1309 -46.2402 34.2773 -47.0703 34.7168 -48.1445 C 35.9375 -51.3184 40.1367 -55.0293 46.3379 -55.0293 C 54.0039 -55.0293 58.9844 -50.9277 58.9844 -44.6289 C 58.9844 -40.7715 56.2988 -37.1582 52.7832 -36.5723 L 52.7832 -36.1328 C 56.9824 -35.791 59.8633 -31.8848 59.8633 -27.0508 C 59.8633 -20.0684 54.541 -15.5273 46.2402 -15.5273 Z M 76.7578 -24.7559 C 78.9551 -24.7559 80.3711 -27.5391 80.3711 -35.2539 C 80.3711 -43.0176 78.9062 -45.752 76.7578 -45.752 C 74.5605 -45.752 73.0957 -43.0176 73.0957 -35.2539 C 73.0957 -27.5391 74.5605 -24.7559 76.7578 -24.7559 Z"/>
  </g>
  <g id="Bold-M" transform="matrix(1 0 0 1 2279.5 1126)">
   <path d="M 60.498 16.5039 C 88.8672 16.5039 112.207 -6.78711 112.207 -35.2051 C 112.207 -63.623 88.8672 -86.9629 60.4492 -86.9629 C 32.0312 -86.9629 8.74023 -63.623 8.74023 -35.2051 C 8.74023 -6.78711 32.0801 16.5039 60.498 16.5039 Z M 76.2695 -14.7461 C 68.0664 -14.7461 62.6465 -21.582 62.6465 -35.3027 C 62.6465 -48.9746 68.0664 -55.8594 76.2695 -55.8594 C 84.4238 -55.8594 90.0391 -48.9746 90.0391 -35.3027 C 90.0391 -21.582 84.4238 -14.7461 76.2695 -14.7461 Z M 44.4824 -14.7461 C 38.1836 -14.7461 32.959 -18.5547 31.7383 -22.7539 C 31.4941 -23.5352 31.3477 -24.1699 31.3477 -25 C 31.3477 -27.3438 33.1543 -28.7109 34.9609 -28.7109 C 36.6699 -28.7109 37.7441 -27.9297 38.5742 -26.4648 C 39.8438 -23.877 41.9434 -22.5098 44.6289 -22.5098 C 47.7539 -22.5098 49.9023 -24.5605 49.9023 -27.1484 C 49.9023 -29.9316 47.9004 -31.7871 44.6289 -31.7871 L 43.1152 -31.7871 C 40.5762 -31.7871 39.2578 -33.3984 39.2578 -35.6934 C 39.2578 -37.9883 40.7227 -39.5996 43.1152 -39.5996 L 44.5312 -39.5996 C 47.4121 -39.5996 49.0723 -41.6016 49.0723 -43.9941 C 49.0723 -46.582 47.168 -48.291 44.4824 -48.291 C 41.8457 -48.291 40.1367 -46.9727 39.0137 -44.3848 C 38.2812 -42.9199 37.207 -42.041 35.498 -42.041 C 33.3984 -42.041 31.9824 -43.457 31.9824 -45.8008 C 31.9824 -46.6309 32.0801 -47.3145 32.4219 -48.2422 C 33.6914 -52.0508 38.1836 -55.8594 44.6777 -55.8594 C 52.3438 -55.8594 57.4219 -51.5625 57.4219 -45.2148 C 57.4219 -41.0156 54.541 -37.1582 50.7812 -36.5234 L 50.7812 -36.1816 C 55.3223 -35.7422 58.4961 -31.6895 58.4961 -26.6602 C 58.4961 -19.5312 52.8809 -14.7461 44.4824 -14.7461 Z M 76.3672 -22.9492 C 79.4922 -22.9492 81.4941 -26.8066 81.4941 -35.3027 C 81.4941 -43.75 79.4922 -47.6562 76.3672 -47.6562 C 73.2422 -47.6562 71.2402 -43.75 71.2402 -35.3027 C 71.2402 -26.8066 73.2422 -22.9492 76.3672 -22.9492 Z"/>
  </g>
  <g id="Semibold-M" transform="matrix(1 0 0 1 1983.5 1126)">
   <path d="M 59.7656 15.8203 C 87.7441 15.8203 110.791 -7.22656 110.791 -35.2051 C 110.791 -63.1836 87.6953 -86.2793 59.7656 -86.2793 C 31.7871 -86.2793 8.74023 -63.1836 8.74023 -35.2051 C 8.74023 -7.22656 31.7871 15.8203 59.7656 15.8203 Z M 76.0254 -14.1602 C 67.627 -14.1602 62.0605 -21.6309 62.0605 -35.3027 C 62.0605 -48.9746 67.627 -56.4453 76.0254 -56.4453 C 84.4238 -56.4453 90.1367 -48.9746 90.1367 -35.3027 C 90.1367 -21.6309 84.4238 -14.1602 76.0254 -14.1602 Z M 43.2617 -14.1602 C 36.7188 -14.1602 31.3965 -18.1641 30.127 -22.5586 C 29.9316 -23.291 29.7852 -23.877 29.7852 -24.6582 C 29.7852 -26.8066 31.3965 -28.125 33.1543 -28.125 C 34.8145 -28.125 35.791 -27.3926 36.5234 -25.8301 C 37.8418 -22.8516 40.2344 -21.2891 43.3594 -21.2891 C 47.168 -21.2891 49.7559 -23.6816 49.7559 -26.8066 C 49.7559 -30.0781 47.3145 -32.2266 43.5059 -32.2266 L 41.4551 -32.2266 C 39.209 -32.2266 37.9883 -33.7402 37.9883 -35.791 C 37.9883 -37.9395 39.3066 -39.3555 41.4551 -39.3555 L 43.3594 -39.3555 C 46.6797 -39.3555 48.7793 -41.6504 48.7793 -44.5312 C 48.7793 -47.5098 46.5332 -49.4629 43.3594 -49.4629 C 40.1855 -49.4629 38.1836 -47.9004 37.0605 -44.9707 C 36.4258 -43.4082 35.4492 -42.5781 33.7891 -42.5781 C 31.8359 -42.5781 30.5176 -43.9453 30.5176 -46.0449 C 30.5176 -46.8262 30.5664 -47.4609 30.8594 -48.291 C 32.1289 -52.5879 36.8652 -56.4453 43.5059 -56.4453 C 51.1719 -56.4453 56.3965 -52.0508 56.3965 -45.6055 C 56.3965 -41.2109 53.3203 -37.1582 49.3652 -36.5234 L 49.3652 -36.1816 C 54.1504 -35.7422 57.5684 -31.543 57.5684 -26.3672 C 57.5684 -19.1406 51.7578 -14.1602 43.2617 -14.1602 Z M 76.123 -21.6309 C 79.8828 -21.6309 82.2266 -26.3672 82.2266 -35.3027 C 82.2266 -44.2383 79.834 -48.9746 76.123 -48.9746 C 72.3145 -48.9746 69.9707 -44.2383 69.9707 -35.3027 C 69.9707 -26.3672 72.3145 -21.6309 76.123 -21.6309 Z"/>
  </g>
  <g id="Medium-M" transform="matrix(1 0 0 1 1687.3 1126)">
   <path d="M 59.2285 15.2832 C 86.9141 15.2832 109.766 -7.56836 109.766 -35.2051 C 109.766 -62.8906 86.8652 -85.7422 59.1797 -85.7422 C 31.543 -85.7422 8.74023 -62.8906 8.74023 -35.2051 C 8.74023 -7.56836 31.5918 15.2832 59.2285 15.2832 Z M 75.8789 -13.7695 C 67.2852 -13.7695 61.5723 -21.6309 61.5723 -35.3027 C 61.5723 -48.9746 67.2852 -56.8359 75.8789 -56.8359 C 84.4727 -56.8359 90.2344 -48.9746 90.2344 -35.3027 C 90.2344 -21.6309 84.4727 -13.7695 75.8789 -13.7695 Z M 42.334 -13.7695 C 35.5957 -13.7695 30.2246 -17.8711 28.9062 -22.4121 C 28.7109 -23.0957 28.6133 -23.6816 28.6133 -24.4141 C 28.6133 -26.416 30.0781 -27.7344 31.7871 -27.7344 C 33.3984 -27.7344 34.2773 -26.9531 35.0098 -25.3418 C 36.3281 -22.1191 38.8672 -20.3613 42.4316 -20.3613 C 46.6797 -20.3613 49.6582 -23.0469 49.6582 -26.5137 C 49.6582 -30.1758 46.9238 -32.5684 42.6758 -32.5684 L 40.1855 -32.5684 C 38.1836 -32.5684 36.9629 -33.9844 36.9629 -35.8887 C 36.9629 -37.8906 38.2324 -39.209 40.1855 -39.209 L 42.4805 -39.209 C 46.1426 -39.209 48.584 -41.6504 48.584 -44.9707 C 48.584 -48.1934 46.0449 -50.3418 42.4805 -50.3418 C 38.9648 -50.3418 36.7676 -48.6328 35.5957 -45.3613 C 35.0586 -43.75 34.1309 -42.9688 32.5195 -42.9688 C 30.6152 -42.9688 29.3945 -44.2871 29.3945 -46.2891 C 29.3945 -47.0215 29.4434 -47.6074 29.6387 -48.3887 C 30.957 -52.9297 35.8398 -56.8359 42.627 -56.8359 C 50.293 -56.8359 55.5664 -52.3438 55.5664 -45.8984 C 55.5664 -41.3086 52.4414 -37.1582 48.3398 -36.5234 L 48.3398 -36.1816 C 53.2715 -35.6934 56.8359 -31.4453 56.8359 -26.1719 C 56.8359 -18.8477 50.9277 -13.7695 42.334 -13.7695 Z M 75.9277 -20.7031 C 80.1758 -20.7031 82.8125 -25.9766 82.8125 -35.3027 C 82.8125 -44.6289 80.127 -49.9512 75.9277 -49.9512 C 71.6309 -49.9512 68.9941 -44.6289 68.9941 -35.3027 C 68.9941 -25.9766 71.6309 -20.7031 75.9277 -20.7031 Z"/>
  </g>
  <g id="Regular-M" transform="matrix(1 0 0 1 1391.3 1126)">
   <path d="M 58.5449 14.5508 C 85.791 14.5508 108.35 -8.00781 108.35 -35.2539 C 108.35 -62.4512 85.7422 -85.0586 58.4961 -85.0586 C 31.2988 -85.0586 8.74023 -62.4512 8.74023 -35.2539 C 8.74023 -8.00781 31.3477 14.5508 58.5449 14.5508 Z M 75.6348 -13.2324 C 66.7969 -13.2324 60.9863 -21.6309 60.9863 -35.3027 C 60.9863 -49.0234 66.7969 -57.4219 75.6348 -57.4219 C 84.4727 -57.4219 90.2832 -49.0234 90.2832 -35.3027 C 90.2832 -21.6309 84.4727 -13.2324 75.6348 -13.2324 Z M 41.1621 -13.2324 C 34.1309 -13.2324 28.7109 -17.4805 27.3438 -22.2168 C 27.1973 -22.9004 27.0996 -23.3887 27.0996 -24.1211 C 27.0996 -25.8789 28.3203 -27.1484 30.0293 -27.1484 C 31.543 -27.1484 32.3242 -26.3672 32.959 -24.707 C 34.3262 -21.1426 37.1582 -19.1406 41.2109 -19.1406 C 46.0938 -19.1406 49.5605 -22.168 49.5605 -26.1719 C 49.5605 -30.3223 46.3867 -33.0566 41.5527 -33.0566 L 38.5254 -33.0566 C 36.8164 -33.0566 35.6934 -34.3262 35.6934 -35.9863 C 35.6934 -37.793 36.8164 -39.0137 38.5254 -39.0137 L 41.3086 -39.0137 C 45.4102 -39.0137 48.2422 -41.6992 48.2422 -45.459 C 48.2422 -49.0723 45.4102 -51.5137 41.3574 -51.5137 C 37.3535 -51.5137 34.8633 -49.5605 33.6914 -45.9473 C 33.2031 -44.2383 32.4219 -43.457 30.8594 -43.457 C 29.1016 -43.457 27.9297 -44.7266 27.9297 -46.5332 C 27.9297 -47.2656 27.9297 -47.7539 28.125 -48.4375 C 29.4434 -53.4668 34.5215 -57.4219 41.5039 -57.4219 C 49.1699 -57.4219 54.541 -52.832 54.541 -46.2891 C 54.541 -41.5039 51.2207 -37.1582 46.9727 -36.5234 L 46.9727 -36.1816 C 52.1484 -35.6934 55.9082 -31.2988 55.9082 -25.8789 C 55.9082 -18.457 49.8047 -13.2324 41.1621 -13.2324 Z M 75.6348 -19.4336 C 80.5664 -19.4336 83.5938 -25.4883 83.5938 -35.3027 C 83.5938 -45.1172 80.5176 -51.2207 75.6348 -51.2207 C 70.752 -51.2207 67.7246 -45.1172 67.7246 -35.3027 C 67.7246 -25.4883 70.752 -19.4336 75.6348 -19.4336 Z"/>
  </g>
  <g id="Light-M" transform="matrix(1 0 0 1 1095.42 1126)">
   <path d="M 57.7148 13.7695 C 84.5215 13.7695 106.689 -8.39844 106.689 -35.2051 C 106.689 -62.0117 84.5215 -84.1797 57.666 -84.1797 C 30.8594 -84.1797 8.74023 -62.0117 8.74023 -35.2051 C 8.74023 -8.39844 30.9082 13.7695 57.7148 13.7695 Z M 75 -13.5254 C 66.2598 -13.5254 60.4004 -21.9727 60.4004 -35.3027 C 60.4004 -48.6328 66.2598 -57.1289 75 -57.1289 C 83.7402 -57.1289 89.5996 -48.6328 89.5996 -35.3027 C 89.5996 -21.9727 83.7402 -13.5254 75 -13.5254 Z M 40.4785 -13.5254 C 33.6426 -13.5254 28.3691 -17.627 26.9531 -22.2656 C 26.7578 -22.8516 26.709 -23.291 26.709 -23.9746 C 26.709 -25.3906 27.6855 -26.4648 29.1016 -26.4648 C 30.3711 -26.4648 31.0059 -25.7812 31.543 -24.4141 C 32.9102 -20.5566 36.2305 -18.3105 40.5273 -18.3105 C 45.9961 -18.3105 49.7559 -21.582 49.7559 -26.0742 C 49.7559 -30.5176 46.1426 -33.6426 40.918 -33.6426 L 37.4023 -33.6426 C 36.0352 -33.6426 35.1074 -34.668 35.1074 -35.9863 C 35.1074 -37.5 36.0352 -38.4277 37.4023 -38.4277 L 40.6738 -38.4277 C 45.166 -38.4277 48.4375 -41.5039 48.4375 -45.6055 C 48.4375 -49.6094 45.2637 -52.3438 40.5762 -52.3438 C 36.1816 -52.3438 33.3008 -50.0488 32.2754 -46.2402 C 31.9336 -44.7754 31.2012 -44.1406 29.9805 -44.1406 C 28.418 -44.1406 27.5391 -45.2148 27.5391 -46.7285 C 27.5391 -47.3145 27.5391 -47.8027 27.7344 -48.4375 C 29.0039 -53.4668 34.1309 -57.1289 40.6738 -57.1289 C 48.1934 -57.1289 53.5156 -52.6367 53.5156 -46.2402 C 53.5156 -41.5039 50.1465 -37.1094 45.752 -36.4258 L 45.752 -36.1816 C 51.0254 -35.6445 54.9316 -31.25 54.9316 -25.8789 C 54.9316 -18.6523 48.9258 -13.5254 40.4785 -13.5254 Z M 75 -18.5059 C 80.6152 -18.5059 84.2285 -25.0977 84.2285 -35.3027 C 84.2285 -45.5566 80.5664 -52.1484 75 -52.1484 C 69.3848 -52.1484 65.7715 -45.5566 65.7715 -35.3027 C 65.7715 -25.0977 69.3848 -18.5059 75 -18.5059 Z"/>
  </g>
  <g id="Thin-M" transform="matrix(1 0 0 1 799.806 1126)">
   <path d="M 56.6406 12.7441 C 82.9102 12.7441 104.492 -8.83789 104.492 -35.1562 C 104.492 -61.4746 82.9102 -83.0566 56.5918 -83.0566 C 30.3223 -83.0566 8.74023 -61.4746 8.74023 -35.1562 C 8.74023 -8.83789 30.3223 12.7441 56.6406 12.7441 Z M 74.1699 -13.916 C 65.4785 -13.916 59.668 -22.4609 59.668 -35.3027 C 59.668 -48.1934 65.4785 -56.7383 74.1699 -56.7383 C 82.7637 -56.7383 88.623 -48.1934 88.623 -35.3027 C 88.623 -22.4609 82.7637 -13.916 74.1699 -13.916 Z M 39.5996 -13.916 C 32.959 -13.916 27.8809 -17.7734 26.3672 -22.3145 C 26.2695 -22.7539 26.123 -23.1934 26.123 -23.7793 C 26.123 -24.7559 26.8555 -25.5371 27.832 -25.5371 C 28.8086 -25.5371 29.248 -25.0488 29.5898 -23.9746 C 30.957 -19.7754 35.0098 -17.1875 39.5996 -17.1875 C 45.8496 -17.1875 50.0488 -20.8496 50.0488 -25.9766 C 50.0488 -30.7617 45.8496 -34.4238 40.1367 -34.4238 L 35.9863 -34.4238 C 34.9609 -34.4238 34.3262 -35.0586 34.3262 -36.0352 C 34.3262 -37.0605 35.0098 -37.7441 35.9863 -37.7441 L 39.7949 -37.7441 C 44.9219 -37.7441 48.6328 -41.2598 48.6328 -45.8496 C 48.6328 -50.3906 45.0195 -53.418 39.5508 -53.418 C 34.6191 -53.418 31.25 -50.7324 30.4199 -46.6797 C 30.1758 -45.5078 29.6875 -45.0684 28.7598 -45.0684 C 27.5391 -45.0684 27.002 -45.8008 27.002 -46.9238 C 27.002 -47.3633 27.0508 -47.9004 27.1973 -48.3887 C 28.418 -53.4668 33.5938 -56.7383 39.5996 -56.7383 C 46.9238 -56.7383 52.1973 -52.3926 52.1973 -46.1914 C 52.1973 -41.5039 48.6816 -37.1094 44.1406 -36.3281 L 44.1406 -36.1816 C 49.5117 -35.5957 53.6133 -31.2012 53.6133 -25.8789 C 53.6133 -18.9453 47.7051 -13.916 39.5996 -13.916 Z M 74.1699 -17.2852 C 80.6641 -17.2852 85.1074 -24.5605 85.1074 -35.3027 C 85.1074 -46.0938 80.6152 -53.3691 74.1699 -53.3691 C 67.627 -53.3691 63.1836 -46.0938 63.1836 -35.3027 C 63.1836 -24.5605 67.627 -17.2852 74.1699 -17.2852 Z"/>
  </g>
  <g id="Ultralight-M" transform="matrix(1 0 0 1 503.656 1126)">
   <path d="M 56.0547 12.207 C 82.0801 12.207 103.369 -9.08203 103.369 -35.1562 C 103.369 -61.1816 82.0801 -82.4707 56.0547 -82.4707 C 30.0293 -82.4707 8.74023 -61.1816 8.74023 -35.1562 C 8.74023 -9.08203 30.0293 12.207 56.0547 12.207 Z M 73.7305 -14.0625 C 65.1367 -14.0625 59.2773 -22.7051 59.2773 -35.3027 C 59.2773 -47.9492 65.1367 -56.543 73.7305 -56.543 C 82.2266 -56.543 88.1836 -47.9492 88.1836 -35.3027 C 88.1836 -22.7051 82.2266 -14.0625 73.7305 -14.0625 Z M 39.1113 -14.0625 C 32.666 -14.0625 27.6855 -17.8711 26.123 -22.3633 C 25.9766 -22.7539 25.8789 -23.1445 25.8789 -23.6816 C 25.8789 -24.4629 26.416 -25.0488 27.1973 -25.0488 C 27.9785 -25.0488 28.3691 -24.6094 28.6133 -23.7793 C 29.9805 -19.3848 34.375 -16.6504 39.1113 -16.6504 C 45.752 -16.6504 50.1953 -20.459 50.1953 -25.9277 C 50.1953 -30.9082 45.7031 -34.8145 39.7461 -34.8145 L 35.2539 -34.8145 C 34.4238 -34.8145 33.9355 -35.2539 33.9355 -36.084 C 33.9355 -36.8652 34.5215 -37.3535 35.2539 -37.3535 L 39.3555 -37.3535 C 44.7754 -37.3535 48.7793 -41.1133 48.7793 -45.9473 C 48.7793 -50.7324 44.873 -54.0039 39.0625 -54.0039 C 33.8379 -54.0039 30.2246 -51.0742 29.4922 -46.875 C 29.2969 -45.8984 28.8574 -45.5078 28.125 -45.5078 C 27.0996 -45.5078 26.709 -46.1426 26.709 -47.0703 C 26.709 -47.4121 26.8066 -47.9004 26.9043 -48.3398 C 28.0762 -53.4668 33.3496 -56.543 39.0625 -56.543 C 46.2891 -56.543 51.5137 -52.2461 51.5137 -46.1426 C 51.5137 -41.5039 47.9492 -37.0605 43.3105 -36.2305 L 43.3105 -36.1816 C 48.7305 -35.5469 52.9297 -31.1523 52.9297 -25.9277 C 52.9297 -19.043 47.0703 -14.0625 39.1113 -14.0625 Z M 73.7305 -16.6504 C 80.6641 -16.6504 85.5469 -24.2676 85.5469 -35.3027 C 85.5469 -46.3867 80.6641 -54.0039 73.7305 -54.0039 C 66.6992 -54.0039 61.8652 -46.3867 61.8652 -35.3027 C 61.8652 -24.2676 66.6992 -16.6504 73.7305 -16.6504 Z"/>
  </g>
  <g id="Black-S" transform="matrix(1 0 0 1 2884.57 696)">
   <path d="M 48.8281 6.78711 C 71.9727 6.78711 90.8203 -12.0605 90.8203 -35.2051 C 90.8203 -58.3496 71.9727 -77.1973 48.8281 -77.1973 C 25.6836 -77.1973 6.83594 -58.3496 6.83594 -35.2051 C 6.83594 -12.0605 25.6836 6.78711 48.8281 6.78711 Z M 60.2051 -20.2637 C 54.2969 -20.2637 50.3418 -24.5117 50.3418 -35.2539 C 50.3418 -45.9961 54.2969 -50.2441 60.2051 -50.2441 C 66.0645 -50.2441 70.3613 -45.9961 70.3613 -35.2539 C 70.3613 -24.5117 66.0645 -20.2637 60.2051 -20.2637 Z M 37.3535 -20.2637 C 32.959 -20.2637 28.9551 -22.998 28.125 -25.8789 C 27.8809 -26.5625 27.7344 -27.1973 27.7344 -27.8809 C 27.7344 -30.127 29.541 -31.2988 31.0547 -31.2988 C 32.5684 -31.2988 33.6426 -30.7129 34.4238 -29.6387 C 35.3027 -28.3691 36.4746 -27.832 37.5 -27.832 C 38.623 -27.832 39.3555 -28.7109 39.3555 -29.6387 C 39.3555 -30.8105 38.623 -31.543 37.3047 -31.543 L 37.207 -31.543 C 34.5703 -31.543 33.4473 -33.1055 33.4473 -35.3516 C 33.4473 -37.5488 34.8145 -39.1113 37.207 -39.1113 L 37.3047 -39.1113 C 38.623 -39.1113 39.0625 -40.1367 39.0625 -41.0156 C 39.0625 -42.2852 38.2324 -43.0664 37.207 -43.0664 C 36.1328 -43.0664 35.4004 -42.4805 34.5215 -41.2598 C 33.7891 -40.2344 32.7637 -39.502 31.25 -39.502 C 29.3945 -39.502 28.0762 -40.7227 28.0762 -42.9199 C 28.0762 -43.6523 28.2227 -44.3359 28.6133 -45.2637 C 29.541 -47.3633 32.666 -50.2441 37.3535 -50.2441 C 43.3594 -50.2441 47.168 -47.1191 47.168 -42.2363 C 47.168 -39.4043 45.2148 -36.7188 42.627 -36.2793 L 42.627 -35.9375 C 45.7031 -35.6934 47.7539 -32.7148 47.7539 -29.1016 C 47.7539 -23.6816 43.75 -20.2637 37.3535 -20.2637 Z M 60.3516 -28.2227 C 61.4746 -28.2227 62.2559 -29.6387 62.2559 -35.2539 C 62.2559 -40.8691 61.4746 -42.2852 60.3516 -42.2852 C 59.2285 -42.2852 58.4473 -40.8691 58.4473 -35.2539 C 58.4473 -29.6387 59.2285 -28.2227 60.3516 -28.2227 Z"/>
  </g>
  <g id="Heavy-S" transform="matrix(1 0 0 1 2588.47 696)">
   <path d="M 48.2422 6.15234 C 70.9961 6.15234 89.5996 -12.4512 89.5996 -35.2051 C 89.5996 -57.959 70.9961 -76.6113 48.1934 -76.6113 C 25.4395 -76.6113 6.83594 -57.959 6.83594 -35.2051 C 6.83594 -12.4512 25.4395 6.15234 48.2422 6.15234 Z M 60.0586 -19.6777 C 53.9062 -19.6777 49.8047 -24.5117 49.8047 -35.2539 C 49.8047 -46.0449 53.9062 -50.8301 60.0586 -50.8301 C 66.1621 -50.8301 70.5078 -46.0449 70.5078 -35.2539 C 70.5078 -24.5117 66.1621 -19.6777 60.0586 -19.6777 Z M 36.2305 -19.6777 C 31.543 -19.6777 27.4902 -22.6074 26.6113 -25.6836 C 26.3672 -26.3184 26.2207 -26.9043 26.2207 -27.5879 C 26.2207 -29.6387 27.8809 -30.8105 29.3945 -30.8105 C 30.8594 -30.8105 31.8359 -30.2246 32.5684 -29.0527 C 33.4961 -27.4414 34.8633 -26.709 36.3281 -26.709 C 38.0371 -26.709 39.209 -27.8809 39.209 -29.2969 C 39.209 -30.9082 38.0859 -31.9336 36.2305 -31.9336 L 35.6934 -31.9336 C 33.3008 -31.9336 32.2266 -33.3984 32.2266 -35.4492 C 32.2266 -37.5 33.4961 -38.9648 35.6934 -38.9648 L 36.2305 -38.9648 C 37.9395 -38.9648 38.7695 -40.1855 38.7695 -41.5039 C 38.7695 -43.1152 37.6465 -44.1406 36.1328 -44.1406 C 34.6191 -44.1406 33.6426 -43.3594 32.7637 -41.7969 C 32.1289 -40.6738 31.1523 -39.9414 29.6875 -39.9414 C 27.9297 -39.9414 26.6602 -41.1133 26.6602 -43.1641 C 26.6602 -43.8965 26.7578 -44.4824 27.0996 -45.3613 C 28.0762 -47.8516 31.3965 -50.8301 36.2793 -50.8301 C 42.334 -50.8301 46.2402 -47.6074 46.2402 -42.627 C 46.2402 -39.5996 44.1406 -36.7188 41.4062 -36.2793 L 41.4062 -35.9375 C 44.6777 -35.6934 46.9238 -32.5684 46.9238 -28.8086 C 46.9238 -23.291 42.7246 -19.6777 36.2305 -19.6777 Z M 60.1562 -27.0508 C 61.8652 -27.0508 62.9395 -29.1992 62.9395 -35.2539 C 62.9395 -41.3086 61.8652 -43.457 60.1562 -43.457 C 58.4961 -43.457 57.373 -41.3086 57.373 -35.2539 C 57.373 -29.1992 58.4961 -27.0508 60.1562 -27.0508 Z"/>
  </g>
  <g id="Bold-S" transform="matrix(1 0 0 1 2292.44 696)">
   <path d="M 47.5586 5.46875 C 69.873 5.46875 88.2324 -12.8906 88.2324 -35.2051 C 88.2324 -57.5684 69.873 -75.9277 47.5098 -75.9277 C 25.1953 -75.9277 6.83594 -57.5684 6.83594 -35.2051 C 6.83594 -12.8906 25.1953 5.46875 47.5586 5.46875 Z M 59.8633 -19.043 C 53.4668 -19.043 49.2188 -24.4629 49.2188 -35.3027 C 49.2188 -46.0938 53.4668 -51.5137 59.8633 -51.5137 C 66.3086 -51.5137 70.7031 -46.0938 70.7031 -35.3027 C 70.7031 -24.4629 66.3086 -19.043 59.8633 -19.043 Z M 34.9609 -19.043 C 29.9805 -19.043 25.7812 -22.1191 24.8535 -25.4395 C 24.6582 -26.0742 24.5605 -26.5625 24.5605 -27.2461 C 24.5605 -29.1504 26.0254 -30.2734 27.5391 -30.2734 C 28.9062 -30.2734 29.7852 -29.6387 30.4688 -28.418 C 31.4453 -26.416 33.0078 -25.4395 35.0586 -25.4395 C 37.4023 -25.4395 39.0137 -27.002 39.0137 -28.9062 C 39.0137 -31.0547 37.5488 -32.373 35.0586 -32.373 L 33.9355 -32.373 C 31.8848 -32.373 30.8594 -33.7402 30.8594 -35.5957 C 30.8594 -37.5 32.0312 -38.7695 33.9355 -38.7695 L 34.9609 -38.7695 C 37.1582 -38.7695 38.3789 -40.2832 38.3789 -42.0898 C 38.3789 -44.043 36.9629 -45.3125 34.9609 -45.3125 C 32.959 -45.3125 31.7383 -44.3359 30.8105 -42.3828 C 30.2246 -41.1133 29.3457 -40.4297 27.9297 -40.4297 C 26.2207 -40.4297 25.0488 -41.6016 25.0488 -43.457 C 25.0488 -44.1406 25.1465 -44.6777 25.3906 -45.4102 C 26.416 -48.4375 29.9316 -51.5137 35.1074 -51.5137 C 41.1621 -51.5137 45.166 -48.0957 45.166 -43.0664 C 45.166 -39.7949 42.9199 -36.7188 39.9902 -36.2793 L 39.9902 -35.9863 C 43.5547 -35.6445 45.9961 -32.4219 45.9961 -28.5156 C 45.9961 -22.8516 41.6016 -19.043 34.9609 -19.043 Z M 59.9609 -25.7812 C 62.3047 -25.7812 63.7207 -28.7109 63.7207 -35.3027 C 63.7207 -41.8457 62.2559 -44.7754 59.9609 -44.7754 C 57.666 -44.7754 56.2012 -41.8457 56.2012 -35.3027 C 56.2012 -28.7109 57.666 -25.7812 59.9609 -25.7812 Z"/>
  </g>
  <g id="Semibold-S" transform="matrix(1 0 0 1 1996.2 696)">
   <path d="M 47.0703 4.98047 C 69.0918 4.98047 87.3047 -13.1836 87.3047 -35.2539 C 87.3047 -57.2754 69.0918 -75.4883 47.0215 -75.4883 C 25 -75.4883 6.83594 -57.2754 6.83594 -35.2539 C 6.83594 -13.1836 25.0488 4.98047 47.0703 4.98047 Z M 59.7656 -18.6523 C 53.125 -18.6523 48.7793 -24.4629 48.7793 -35.3027 C 48.7793 -46.1426 53.125 -51.9531 59.7656 -51.9531 C 66.4062 -51.9531 70.8496 -46.1426 70.8496 -35.3027 C 70.8496 -24.4629 66.4062 -18.6523 59.7656 -18.6523 Z M 34.082 -18.6523 C 28.8574 -18.6523 24.6582 -21.8262 23.6816 -25.293 C 23.4863 -25.8789 23.4375 -26.3672 23.4375 -27.002 C 23.4375 -28.7598 24.7559 -29.8828 26.2207 -29.8828 C 27.5879 -29.8828 28.418 -29.248 29.0527 -27.9297 C 30.0293 -25.7324 31.7383 -24.5605 34.1797 -24.5605 C 36.9629 -24.5605 38.916 -26.3672 38.916 -28.6133 C 38.916 -31.1523 37.1094 -32.7148 34.2285 -32.7148 L 32.7637 -32.7148 C 30.9082 -32.7148 29.8828 -33.9844 29.8828 -35.6445 C 29.8828 -37.4512 31.0059 -38.6719 32.7637 -38.6719 L 34.1309 -38.6719 C 36.6211 -38.6719 38.1348 -40.332 38.1348 -42.4805 C 38.1348 -44.6777 36.4746 -46.1426 34.1797 -46.1426 C 31.8359 -46.1426 30.3711 -45.0195 29.4434 -42.7734 C 28.9062 -41.4551 28.125 -40.7715 26.709 -40.7715 C 25.0977 -40.7715 23.9746 -41.8945 23.9746 -43.6523 C 23.9746 -44.3359 24.0234 -44.8242 24.2188 -45.5078 C 25.2441 -48.8281 28.9551 -51.9531 34.3262 -51.9531 C 40.3809 -51.9531 44.4824 -48.4863 44.4824 -43.3594 C 44.4824 -39.8926 42.0898 -36.7676 39.0137 -36.2793 L 39.0137 -35.9863 C 42.7734 -35.6445 45.3613 -32.3242 45.3613 -28.2715 C 45.3613 -22.5586 40.8203 -18.6523 34.082 -18.6523 Z M 59.8145 -24.8535 C 62.5977 -24.8535 64.209 -28.418 64.209 -35.3027 C 64.209 -42.1875 62.5488 -45.7031 59.8145 -45.7031 C 57.0801 -45.7031 55.4199 -42.1875 55.4199 -35.3027 C 55.4199 -28.418 57.0801 -24.8535 59.8145 -24.8535 Z"/>
  </g>
  <g id="Medium-S" transform="matrix(1 0 0 1 1699.83 696)">
   <path d="M 46.7285 4.63867 C 68.5547 4.63867 86.6211 -13.4277 86.6211 -35.2539 C 86.6211 -57.0312 68.5059 -75.1465 46.6797 -75.1465 C 24.8535 -75.1465 6.83594 -57.0312 6.83594 -35.2539 C 6.83594 -13.4277 24.9023 4.63867 46.7285 4.63867 Z M 59.668 -18.3105 C 52.8809 -18.3105 48.4863 -24.4141 48.4863 -35.3027 C 48.4863 -46.1426 52.8809 -52.2949 59.668 -52.2949 C 66.4551 -52.2949 70.9473 -46.1426 70.9473 -35.3027 C 70.9473 -24.4141 66.4551 -18.3105 59.668 -18.3105 Z M 33.4473 -18.3105 C 28.0273 -18.3105 23.7793 -21.582 22.8027 -25.1465 C 22.6074 -25.7324 22.5586 -26.1719 22.5586 -26.8066 C 22.5586 -28.5156 23.7793 -29.5898 25.2441 -29.5898 C 26.5625 -29.5898 27.3438 -28.9551 27.9297 -27.5879 C 29.0039 -25.1953 30.8105 -23.877 33.4961 -23.877 C 36.6211 -23.877 38.8184 -25.8789 38.8184 -28.418 C 38.8184 -31.2012 36.8164 -32.959 33.6426 -32.959 L 31.8848 -32.959 C 30.1758 -32.959 29.1504 -34.1309 29.1504 -35.6934 C 29.1504 -37.4512 30.2246 -38.5742 31.8848 -38.5742 L 33.4961 -38.5742 C 36.1816 -38.5742 37.9395 -40.332 37.9395 -42.7734 C 37.9395 -45.166 36.1328 -46.7773 33.5449 -46.7773 C 30.957 -46.7773 29.3457 -45.5566 28.418 -43.0664 C 27.9297 -41.6992 27.1484 -41.0156 25.8301 -41.0156 C 24.2188 -41.0156 23.1445 -42.1387 23.1445 -43.7988 C 23.1445 -44.4824 23.1934 -44.9219 23.3398 -45.5566 C 24.4141 -49.1211 28.2227 -52.2949 33.6914 -52.2949 C 39.7461 -52.2949 43.8965 -48.7305 43.8965 -43.6035 C 43.8965 -39.9902 41.4551 -36.7676 38.3301 -36.2793 L 38.3301 -35.9863 C 42.1387 -35.5957 44.9219 -32.2754 44.9219 -28.125 C 44.9219 -22.3145 40.2344 -18.3105 33.4473 -18.3105 Z M 59.7168 -24.1699 C 62.793 -24.1699 64.5996 -28.125 64.5996 -35.3027 C 64.5996 -42.4316 62.7441 -46.3867 59.7168 -46.3867 C 56.6406 -46.3867 54.7852 -42.4316 54.7852 -35.3027 C 54.7852 -28.125 56.6406 -24.1699 59.7168 -24.1699 Z"/>
  </g>
  <g id="Regular-S" transform="matrix(1 0 0 1 1403.58 696)">
   <path d="M 46.2402 4.15039 C 67.7734 4.15039 85.6934 -13.7207 85.6934 -35.2539 C 85.6934 -56.7871 67.7246 -74.6582 46.1914 -74.6582 C 24.707 -74.6582 6.83594 -56.7871 6.83594 -35.2539 C 6.83594 -13.7207 24.7559 4.15039 46.2402 4.15039 Z M 59.5703 -17.8711 C 52.5879 -17.8711 48.0469 -24.4141 48.0469 -35.3027 C 48.0469 -46.1914 52.5879 -52.7344 59.5703 -52.7344 C 66.5527 -52.7344 71.0938 -46.1914 71.0938 -35.3027 C 71.0938 -24.4141 66.5527 -17.8711 59.5703 -17.8711 Z M 32.5684 -17.8711 C 26.9531 -17.8711 22.6562 -21.2402 21.6309 -25 C 21.4844 -25.5859 21.4355 -25.9766 21.4355 -26.6113 C 21.4355 -28.125 22.5098 -29.248 23.9746 -29.248 C 25.2441 -29.248 25.9766 -28.5645 26.5137 -27.1484 C 27.5879 -24.4629 29.541 -22.998 32.6172 -22.998 C 36.1816 -22.998 38.7207 -25.2441 38.7207 -28.1738 C 38.7207 -31.2988 36.4258 -33.252 32.8125 -33.252 L 30.7129 -33.252 C 29.1992 -33.252 28.2227 -34.375 28.2227 -35.791 C 28.2227 -37.4023 29.248 -38.4277 30.7129 -38.4277 L 32.666 -38.4277 C 35.6445 -38.4277 37.7441 -40.3809 37.7441 -43.1641 C 37.7441 -45.8008 35.6445 -47.6074 32.7637 -47.6074 C 29.7852 -47.6074 28.0273 -46.2402 27.0996 -43.457 C 26.6602 -42.041 25.9277 -41.3574 24.6094 -41.3574 C 23.0957 -41.3574 22.0703 -42.4316 22.0703 -44.043 C 22.0703 -44.6289 22.0703 -45.0195 22.2168 -45.6055 C 23.291 -49.5117 27.2461 -52.7344 32.8613 -52.7344 C 38.9648 -52.7344 43.2129 -49.0723 43.2129 -43.8965 C 43.2129 -40.1367 40.6738 -36.7676 37.3535 -36.2793 L 37.3535 -35.9863 C 41.3574 -35.5957 44.2871 -32.1777 44.2871 -27.8809 C 44.2871 -22.0215 39.4531 -17.8711 32.5684 -17.8711 Z M 59.5703 -23.291 C 63.0859 -23.291 65.1367 -27.832 65.1367 -35.3027 C 65.1367 -42.7734 63.0371 -47.3145 59.5703 -47.3145 C 56.1035 -47.3145 54.0039 -42.7734 54.0039 -35.3027 C 54.0039 -27.832 56.1035 -23.291 59.5703 -23.291 Z"/>
  </g>
  <g id="Light-S" transform="matrix(1 0 0 1 1107.6 696)">
   <path d="M 45.5078 3.4668 C 66.6992 3.4668 84.2285 -14.0625 84.2285 -35.2051 C 84.2285 -56.3965 66.6504 -73.9258 45.5078 -73.9258 C 24.3164 -73.9258 6.83594 -56.3965 6.83594 -35.2051 C 6.83594 -14.0625 24.3652 3.4668 45.5078 3.4668 Z M 58.9844 -18.1152 C 52.0996 -18.1152 47.5586 -24.707 47.5586 -35.3027 C 47.5586 -45.8984 52.0996 -52.4902 58.9844 -52.4902 C 65.8691 -52.4902 70.459 -45.8984 70.459 -35.3027 C 70.459 -24.707 65.8691 -18.1152 58.9844 -18.1152 Z M 31.9824 -18.1152 C 26.5137 -18.1152 22.3633 -21.3867 21.2402 -25.0488 C 21.1426 -25.5371 21.0449 -25.9277 21.0449 -26.4648 C 21.0449 -27.7344 21.9238 -28.6133 23.1445 -28.6133 C 24.2188 -28.6133 24.8047 -28.0762 25.2441 -26.8555 C 26.3184 -23.9746 28.7109 -22.2656 31.9824 -22.2656 C 36.084 -22.2656 38.916 -24.7559 38.916 -28.0762 C 38.916 -31.4453 36.2305 -33.7402 32.2754 -33.7402 L 29.7363 -33.7402 C 28.5156 -33.7402 27.7344 -34.668 27.7344 -35.8398 C 27.7344 -37.1094 28.5156 -37.9395 29.7363 -37.9395 L 32.0801 -37.9395 C 35.4492 -37.9395 37.8906 -40.2344 37.8906 -43.3105 C 37.8906 -46.2891 35.498 -48.3398 32.0801 -48.3398 C 28.7598 -48.3398 26.6602 -46.6797 25.8301 -43.75 C 25.4883 -42.5293 24.9023 -41.9434 23.8281 -41.9434 C 22.5098 -41.9434 21.7285 -42.8711 21.7285 -44.1895 C 21.7285 -44.6777 21.7285 -45.0684 21.875 -45.5566 C 22.8516 -49.5117 26.9043 -52.4902 32.1777 -52.4902 C 38.1348 -52.4902 42.2852 -48.9258 42.2852 -43.8477 C 42.2852 -40.1367 39.6973 -36.7188 36.2793 -36.1816 L 36.2793 -35.9863 C 40.3809 -35.5469 43.4082 -32.1289 43.4082 -27.8809 C 43.4082 -22.168 38.6719 -18.1152 31.9824 -18.1152 Z M 58.9844 -22.4609 C 63.1348 -22.4609 65.7227 -27.4414 65.7227 -35.3027 C 65.7227 -43.1641 63.0859 -48.1445 58.9844 -48.1445 C 54.8828 -48.1445 52.2461 -43.1641 52.2461 -35.3027 C 52.2461 -27.4414 54.8828 -22.4609 58.9844 -22.4609 Z"/>
  </g>
  <g id="Thin-S" transform="matrix(1 0 0 1 811.867 696)">
   <path d="M 44.5801 2.53906 C 65.2832 2.53906 82.2754 -14.4531 82.2754 -35.2051 C 82.2754 -55.9082 65.2344 -72.9004 44.5312 -72.9004 C 23.8281 -72.9004 6.83594 -55.9082 6.83594 -35.2051 C 6.83594 -14.4531 23.877 2.53906 44.5801 2.53906 Z M 58.252 -18.457 C 51.4648 -18.457 46.875 -25.1465 46.875 -35.3027 C 46.875 -45.459 51.4648 -52.1484 58.252 -52.1484 C 64.9902 -52.1484 69.6289 -45.459 69.6289 -35.3027 C 69.6289 -25.1465 64.9902 -18.457 58.252 -18.457 Z M 31.1523 -18.457 C 25.9766 -18.457 21.9238 -21.5332 20.752 -25.0977 C 20.6543 -25.4883 20.5566 -25.8301 20.5566 -26.2695 C 20.5566 -27.1484 21.1914 -27.832 22.0215 -27.832 C 22.8516 -27.832 23.2422 -27.3926 23.5352 -26.5137 C 24.6094 -23.291 27.6367 -21.3379 31.2012 -21.3379 C 35.9375 -21.3379 39.1602 -24.1211 39.1602 -27.9785 C 39.1602 -31.6895 35.9863 -34.4238 31.5918 -34.4238 L 28.4668 -34.4238 C 27.5879 -34.4238 27.0508 -35.0098 27.0508 -35.8398 C 27.0508 -36.7676 27.6367 -37.3047 28.4668 -37.3047 L 31.3477 -37.3047 C 35.2051 -37.3047 38.0371 -39.9902 38.0371 -43.5059 C 38.0371 -46.9238 35.3027 -49.2676 31.2012 -49.2676 C 27.4414 -49.2676 24.8535 -47.2168 24.1699 -44.0918 C 23.9746 -43.1641 23.5352 -42.7734 22.7539 -42.7734 C 21.7285 -42.7734 21.2402 -43.4082 21.2402 -44.3359 C 21.2402 -44.7266 21.2891 -45.1172 21.3867 -45.5566 C 22.3633 -49.5117 26.416 -52.1484 31.2012 -52.1484 C 37.0117 -52.1484 41.1133 -48.7305 41.1133 -43.8477 C 41.1133 -40.1367 38.4277 -36.7188 34.8633 -36.084 L 34.8633 -35.9863 C 39.0625 -35.5469 42.2363 -32.0801 42.2363 -27.9297 C 42.2363 -22.4121 37.5977 -18.457 31.1523 -18.457 Z M 58.252 -21.3867 C 63.1348 -21.3867 66.5039 -26.9531 66.5039 -35.3027 C 66.5039 -43.6523 63.1348 -49.2188 58.252 -49.2188 C 53.3203 -49.2188 50 -43.6523 50 -35.3027 C 50 -26.9531 53.3203 -21.3867 58.252 -21.3867 Z"/>
  </g>
  <g id="Ultralight-S" transform="matrix(1 0 0 1 515.644 696)">
   <path d="M 44.043 2.05078 C 64.502 2.05078 81.2988 -14.6973 81.2988 -35.1562 C 81.2988 -55.6152 64.502 -72.3633 44.043 -72.3633 C 23.584 -72.3633 6.83594 -55.6152 6.83594 -35.1562 C 6.83594 -14.6973 23.584 2.05078 44.043 2.05078 Z M 57.8613 -18.6035 C 51.123 -18.6035 46.5332 -25.3418 46.5332 -35.3027 C 46.5332 -45.2637 51.123 -52.002 57.8613 -52.002 C 64.5508 -52.002 69.1895 -45.2637 69.1895 -35.3027 C 69.1895 -25.3418 64.5508 -18.6035 57.8613 -18.6035 Z M 30.7617 -18.6035 C 25.6348 -18.6035 21.7285 -21.6309 20.5078 -25.1465 C 20.4102 -25.4395 20.3125 -25.7812 20.3125 -26.1719 C 20.3125 -26.8555 20.8008 -27.3926 21.4844 -27.3926 C 22.1191 -27.3926 22.4609 -27.0508 22.6562 -26.3184 C 23.7305 -22.9492 27.0996 -20.8008 30.7617 -20.8008 C 35.8398 -20.8008 39.2578 -23.7793 39.2578 -27.9297 C 39.2578 -31.7871 35.8398 -34.7656 31.25 -34.7656 L 27.7832 -34.7656 C 27.0996 -34.7656 26.709 -35.2051 26.709 -35.8887 C 26.709 -36.5723 27.1484 -37.0117 27.7832 -37.0117 L 30.957 -37.0117 C 35.1074 -37.0117 38.1836 -39.8926 38.1836 -43.6035 C 38.1836 -47.2656 35.2051 -49.8047 30.7129 -49.8047 C 26.709 -49.8047 23.9258 -47.5586 23.3398 -44.2871 C 23.1934 -43.457 22.8027 -43.1641 22.2168 -43.1641 C 21.3379 -43.1641 20.9961 -43.7012 20.9961 -44.4824 C 20.9961 -44.7754 21.0449 -45.166 21.1426 -45.5078 C 22.0703 -49.5117 26.1719 -52.002 30.7129 -52.002 C 36.4258 -52.002 40.5273 -48.6328 40.5273 -43.7988 C 40.5273 -40.1367 37.7441 -36.6699 34.1309 -36.0352 L 34.1309 -35.9863 C 38.3789 -35.498 41.6504 -32.0312 41.6504 -27.9297 C 41.6504 -22.5098 37.0605 -18.6035 30.7617 -18.6035 Z M 57.8613 -20.8496 C 63.1836 -20.8496 66.8945 -26.709 66.8945 -35.3027 C 66.8945 -43.8965 63.1836 -49.7559 57.8613 -49.7559 C 52.4902 -49.7559 48.8281 -43.8965 48.8281 -35.3027 C 48.8281 -26.709 52.4902 -20.8496 57.8613 -20.8496 Z"/>
  </g>
 </g>
</svg>
