<?xml version="1.0" encoding="UTF-8"?>
<!--Generator: Apple Native CoreSVG 123-->
<!DOCTYPE svg
PUBLIC "-//W3C//DTD SVG 1.1//EN"
       "http://www.w3.org/Graphics/SVG/1.1/DTD/svg11.dtd">
<svg version="1.1" xmlns="http://www.w3.org/2000/svg" xmlns:xlink="http://www.w3.org/1999/xlink" width="3300" height="2200">
 <!--glyph: "uni100621.medium", point size: 100.000000, font version: "Version 15.0d7e11", template writer version: "5"-->
 <g id="Notes">
  <rect height="2200" id="artboard" style="fill:white;opacity:1" width="3300" x="0" y="0"/>
  <line id="" style="fill:none;stroke:black;opacity:1;stroke-width:0.5;" x1="263" x2="3036" y1="292" y2="292"/>
  <text style="stroke:none;fill:black;font-family:-apple-system,&quot;SF Pro Display&quot;,&quot;SF Pro Text&quot;,Helvetica,sans-serif;font-weight:bold;" transform="matrix(1 0 0 1 263 322)">Weight/Scale Variations</text>
  <text style="stroke:none;fill:black;font-family:-apple-system,&quot;SF Pro Display&quot;,&quot;SF Pro Text&quot;,Helvetica,sans-serif;text-anchor:middle;" transform="matrix(1 0 0 1 559.711 322)">Ultralight</text>
  <text style="stroke:none;fill:black;font-family:-apple-system,&quot;SF Pro Display&quot;,&quot;SF Pro Text&quot;,Helvetica,sans-serif;text-anchor:middle;" transform="matrix(1 0 0 1 856.422 322)">Thin</text>
  <text style="stroke:none;fill:black;font-family:-apple-system,&quot;SF Pro Display&quot;,&quot;SF Pro Text&quot;,Helvetica,sans-serif;text-anchor:middle;" transform="matrix(1 0 0 1 1153.13 322)">Light</text>
  <text style="stroke:none;fill:black;font-family:-apple-system,&quot;SF Pro Display&quot;,&quot;SF Pro Text&quot;,Helvetica,sans-serif;text-anchor:middle;" transform="matrix(1 0 0 1 1449.84 322)">Regular</text>
  <text style="stroke:none;fill:black;font-family:-apple-system,&quot;SF Pro Display&quot;,&quot;SF Pro Text&quot;,Helvetica,sans-serif;text-anchor:middle;" transform="matrix(1 0 0 1 1746.56 322)">Medium</text>
  <text style="stroke:none;fill:black;font-family:-apple-system,&quot;SF Pro Display&quot;,&quot;SF Pro Text&quot;,Helvetica,sans-serif;text-anchor:middle;" transform="matrix(1 0 0 1 2043.27 322)">Semibold</text>
  <text style="stroke:none;fill:black;font-family:-apple-system,&quot;SF Pro Display&quot;,&quot;SF Pro Text&quot;,Helvetica,sans-serif;text-anchor:middle;" transform="matrix(1 0 0 1 2339.98 322)">Bold</text>
  <text style="stroke:none;fill:black;font-family:-apple-system,&quot;SF Pro Display&quot;,&quot;SF Pro Text&quot;,Helvetica,sans-serif;text-anchor:middle;" transform="matrix(1 0 0 1 2636.69 322)">Heavy</text>
  <text style="stroke:none;fill:black;font-family:-apple-system,&quot;SF Pro Display&quot;,&quot;SF Pro Text&quot;,Helvetica,sans-serif;text-anchor:middle;" transform="matrix(1 0 0 1 2933.4 322)">Black</text>
  <line id="" style="fill:none;stroke:black;opacity:1;stroke-width:0.5;" x1="263" x2="3036" y1="1903" y2="1903"/>
  <g id="" transform="matrix(1 0 0 1 263 1933)">
   <path d="M 9.24805 0.830078 C 13.5547 0.830078 17.1387 -2.74414 17.1387 -7.05078 C 17.1387 -11.3574 13.5449 -14.9316 9.23828 -14.9316 C 4.94141 -14.9316 1.36719 -11.3574 1.36719 -7.05078 C 1.36719 -2.74414 4.95117 0.830078 9.24805 0.830078 Z M 9.24805 -0.654297 C 5.70312 -0.654297 2.87109 -3.49609 2.87109 -7.05078 C 2.87109 -10.6055 5.69336 -13.4473 9.23828 -13.4473 C 12.793 -13.4473 15.6348 -10.6055 15.6445 -7.05078 C 15.6543 -3.49609 12.8027 -0.654297 9.24805 -0.654297 Z M 9.22852 -3.42773 C 9.69727 -3.42773 9.9707 -3.74023 9.9707 -4.25781 L 9.9707 -6.31836 L 12.1973 -6.31836 C 12.6953 -6.31836 13.0371 -6.57227 13.0371 -7.04102 C 13.0371 -7.51953 12.7148 -7.7832 12.1973 -7.7832 L 9.9707 -7.7832 L 9.9707 -10.0098 C 9.9707 -10.5273 9.69727 -10.8496 9.22852 -10.8496 C 8.75977 -10.8496 8.50586 -10.5078 8.50586 -10.0098 L 8.50586 -7.7832 L 6.29883 -7.7832 C 5.78125 -7.7832 5.44922 -7.51953 5.44922 -7.04102 C 5.44922 -6.57227 5.80078 -6.31836 6.29883 -6.31836 L 8.50586 -6.31836 L 8.50586 -4.25781 C 8.50586 -3.75977 8.75977 -3.42773 9.22852 -3.42773 Z"/>
  </g>
  <g id="" transform="matrix(1 0 0 1 281.506 1933)">
   <path d="M 11.709 2.91016 C 17.1582 2.91016 21.6699 -1.60156 21.6699 -7.05078 C 21.6699 -12.4902 17.1484 -17.0117 11.6992 -17.0117 C 6.25977 -17.0117 1.74805 -12.4902 1.74805 -7.05078 C 1.74805 -1.60156 6.26953 2.91016 11.709 2.91016 Z M 11.709 1.25 C 7.09961 1.25 3.41797 -2.44141 3.41797 -7.05078 C 3.41797 -11.6504 7.08984 -15.3516 11.6992 -15.3516 C 16.3086 -15.3516 20 -11.6504 20.0098 -7.05078 C 20.0195 -2.44141 16.3184 1.25 11.709 1.25 Z M 11.6895 -2.41211 C 12.207 -2.41211 12.5195 -2.77344 12.5195 -3.33984 L 12.5195 -6.23047 L 15.5762 -6.23047 C 16.123 -6.23047 16.5039 -6.51367 16.5039 -7.03125 C 16.5039 -7.55859 16.1426 -7.86133 15.5762 -7.86133 L 12.5195 -7.86133 L 12.5195 -10.9277 C 12.5195 -11.5039 12.207 -11.8555 11.6895 -11.8555 C 11.1719 -11.8555 10.8789 -11.4844 10.8789 -10.9277 L 10.8789 -7.86133 L 7.83203 -7.86133 C 7.26562 -7.86133 6.89453 -7.55859 6.89453 -7.03125 C 6.89453 -6.51367 7.28516 -6.23047 7.83203 -6.23047 L 10.8789 -6.23047 L 10.8789 -3.33984 C 10.8789 -2.79297 11.1719 -2.41211 11.6895 -2.41211 Z"/>
  </g>
  <g id="" transform="matrix(1 0 0 1 304.924 1933)">
   <path d="M 14.9707 5.67383 C 21.9336 5.67383 27.6953 -0.078125 27.6953 -7.04102 C 27.6953 -14.0039 21.9238 -19.7559 14.9609 -19.7559 C 8.00781 -19.7559 2.25586 -14.0039 2.25586 -7.04102 C 2.25586 -0.078125 8.01758 5.67383 14.9707 5.67383 Z M 14.9707 3.85742 C 8.93555 3.85742 4.08203 -1.00586 4.08203 -7.04102 C 4.08203 -13.0762 8.92578 -17.9395 14.9609 -17.9395 C 21.0059 -17.9395 25.8594 -13.0762 25.8691 -7.04102 C 25.8789 -1.00586 21.0156 3.85742 14.9707 3.85742 Z M 14.9512 -1.06445 C 15.5176 -1.06445 15.8691 -1.45508 15.8691 -2.06055 L 15.8691 -6.13281 L 20.1074 -6.13281 C 20.6934 -6.13281 21.1133 -6.46484 21.1133 -7.02148 C 21.1133 -7.59766 20.7227 -7.93945 20.1074 -7.93945 L 15.8691 -7.93945 L 15.8691 -12.1875 C 15.8691 -12.8027 15.5176 -13.1934 14.9512 -13.1934 C 14.3848 -13.1934 14.0625 -12.7832 14.0625 -12.1875 L 14.0625 -7.93945 L 9.83398 -7.93945 C 9.21875 -7.93945 8.80859 -7.59766 8.80859 -7.02148 C 8.80859 -6.46484 9.23828 -6.13281 9.83398 -6.13281 L 14.0625 -6.13281 L 14.0625 -2.06055 C 14.0625 -1.47461 14.3848 -1.06445 14.9512 -1.06445 Z"/>
  </g>
  <text style="stroke:none;fill:black;font-family:-apple-system,&quot;SF Pro Display&quot;,&quot;SF Pro Text&quot;,Helvetica,sans-serif;font-weight:bold;" transform="matrix(1 0 0 1 263 1953)">Design Variations</text>
  <text style="stroke:none;fill:black;font-family:-apple-system,&quot;SF Pro Display&quot;,&quot;SF Pro Text&quot;,Helvetica,sans-serif;" transform="matrix(1 0 0 1 263 1971)">Symbols are supported in up to nine weights and three scales.</text>
  <text style="stroke:none;fill:black;font-family:-apple-system,&quot;SF Pro Display&quot;,&quot;SF Pro Text&quot;,Helvetica,sans-serif;" transform="matrix(1 0 0 1 263 1989)">For optimal layout with text and other symbols, vertically align</text>
  <text style="stroke:none;fill:black;font-family:-apple-system,&quot;SF Pro Display&quot;,&quot;SF Pro Text&quot;,Helvetica,sans-serif;" transform="matrix(1 0 0 1 263 2007)">symbols with the adjacent text.</text>
  <rect height="14" id="" style="fill:#00AEEF;stroke:none;opacity:0.4;" width="3" x="776" y="1919"/>
  <g id="" transform="matrix(1 0 0 1 779 1933)">
   <path d="M 10.5273 0 L 12.373 0 L 7.17773 -14.0918 L 5.43945 -14.0918 L 0.244141 0 L 2.08984 0 L 3.50586 -4.0332 L 9.11133 -4.0332 Z M 6.2793 -11.9531 L 6.33789 -11.9531 L 8.59375 -5.52734 L 4.02344 -5.52734 Z"/>
  </g>
  <rect height="14" id="" style="fill:#00AEEF;stroke:none;opacity:0.4;" width="3" x="791.617" y="1919"/>
  <text style="stroke:none;fill:black;font-family:-apple-system,&quot;SF Pro Display&quot;,&quot;SF Pro Text&quot;,Helvetica,sans-serif;font-weight:bold;" transform="matrix(1 0 0 1 776 1953)">Margins</text>
  <text style="stroke:none;fill:black;font-family:-apple-system,&quot;SF Pro Display&quot;,&quot;SF Pro Text&quot;,Helvetica,sans-serif;" transform="matrix(1 0 0 1 776 1971)">Leading and trailing margins on the left and right side of each symbol</text>
  <text style="stroke:none;fill:black;font-family:-apple-system,&quot;SF Pro Display&quot;,&quot;SF Pro Text&quot;,Helvetica,sans-serif;" transform="matrix(1 0 0 1 776 1989)">can be adjusted by modifying the width of the blue rectangles.</text>
  <text style="stroke:none;fill:black;font-family:-apple-system,&quot;SF Pro Display&quot;,&quot;SF Pro Text&quot;,Helvetica,sans-serif;" transform="matrix(1 0 0 1 776 2007)">Modifications are automatically applied proportionally to all</text>
  <text style="stroke:none;fill:black;font-family:-apple-system,&quot;SF Pro Display&quot;,&quot;SF Pro Text&quot;,Helvetica,sans-serif;" transform="matrix(1 0 0 1 776 2025)">scales and weights.</text>
  <g id="" transform="matrix(1 0 0 1 1289 1933)">
   <path d="M 2.83203 3.11523 L 4.375 4.6582 C 5.22461 5.48828 6.19141 5.41992 7.06055 4.46289 L 17.2754 -6.66016 C 17.7051 -6.36719 18.0957 -6.37695 18.5645 -6.47461 L 19.6094 -6.68945 L 20.3027 -5.99609 L 20.2539 -5.47852 C 20.1855 -4.95117 20.3516 -4.53125 20.8496 -4.0332 L 21.6602 -3.22266 C 22.168 -2.71484 22.8223 -2.68555 23.3008 -3.16406 L 26.5527 -6.41602 C 27.0312 -6.89453 27.0117 -7.54883 26.5039 -8.05664 L 25.6836 -8.87695 C 25.1855 -9.375 24.7754 -9.55078 24.2383 -9.47266 L 23.7109 -9.41406 L 23.0566 -10.0781 L 23.3398 -11.2207 C 23.4863 -11.7871 23.3398 -12.2559 22.7148 -12.8613 L 20.3027 -15.2539 C 16.7578 -18.7793 12.2266 -18.6719 9.11133 -15.5371 C 8.69141 -15.1074 8.64258 -14.5215 8.91602 -14.0918 C 9.15039 -13.7207 9.62891 -13.4961 10.2734 -13.6621 C 11.7871 -14.043 13.3008 -13.9258 14.7852 -12.9199 L 14.1602 -11.3379 C 13.9258 -10.752 13.9453 -10.2734 14.1797 -9.83398 L 3.01758 0.439453 C 2.08008 1.30859 1.97266 2.25586 2.83203 3.11523 Z M 10.6738 -15.1465 C 13.3398 -17.1387 16.6504 -16.8262 19.0527 -14.4141 L 21.6797 -11.8066 C 21.9141 -11.5723 21.9434 -11.3867 21.8848 -11.0938 L 21.5039 -9.53125 L 23.0762 -7.95898 L 24.043 -8.04688 C 24.3262 -8.07617 24.4141 -8.05664 24.6387 -7.83203 L 25.2637 -7.20703 L 22.5098 -4.46289 L 21.8848 -5.07812 C 21.6602 -5.30273 21.6406 -5.40039 21.6699 -5.68359 L 21.7578 -6.64062 L 20.1953 -8.20312 L 18.5742 -7.89062 C 18.291 -7.83203 18.1445 -7.83203 17.9102 -8.07617 L 15.7324 -10.2539 C 15.5078 -10.4883 15.4785 -10.625 15.6055 -10.9473 L 16.5527 -13.2227 C 14.9512 -14.7559 12.8418 -15.6055 10.8008 -14.9512 C 10.7129 -14.9219 10.6445 -14.9414 10.6152 -14.9805 C 10.5859 -15.0293 10.5859 -15.0781 10.6738 -15.1465 Z M 4.10156 2.41211 C 3.61328 1.91406 3.78906 1.61133 4.12109 1.30859 L 15.0781 -8.80859 L 16.3086 -7.57812 L 6.15234 3.34961 C 5.84961 3.68164 5.46875 3.7793 5.06836 3.37891 Z"/>
  </g>
  <text style="stroke:none;fill:black;font-family:-apple-system,&quot;SF Pro Display&quot;,&quot;SF Pro Text&quot;,Helvetica,sans-serif;font-weight:bold;" transform="matrix(1 0 0 1 1289 1953)">Exporting</text>
  <text style="stroke:none;fill:black;font-family:-apple-system,&quot;SF Pro Display&quot;,&quot;SF Pro Text&quot;,Helvetica,sans-serif;" transform="matrix(1 0 0 1 1289 1971)">Symbols should be outlined when exporting to ensure the</text>
  <text style="stroke:none;fill:black;font-family:-apple-system,&quot;SF Pro Display&quot;,&quot;SF Pro Text&quot;,Helvetica,sans-serif;" transform="matrix(1 0 0 1 1289 1989)">design is preserved when submitting to Xcode.</text>
  <text id="template-version" style="stroke:none;fill:black;font-family:-apple-system,&quot;SF Pro Display&quot;,&quot;SF Pro Text&quot;,Helvetica,sans-serif;text-anchor:end;" transform="matrix(1 0 0 1 3036 1933)">Template v.1.0</text>
  <text style="stroke:none;fill:black;font-family:-apple-system,&quot;SF Pro Display&quot;,&quot;SF Pro Text&quot;,Helvetica,sans-serif;text-anchor:end;" transform="matrix(1 0 0 1 3036 1951)">Generated from 31.circle.fill</text>
  <text style="stroke:none;fill:black;font-family:-apple-system,&quot;SF Pro Display&quot;,&quot;SF Pro Text&quot;,Helvetica,sans-serif;text-anchor:end;" transform="matrix(1 0 0 1 3036 1969)">Typeset at 100 points</text>
  <text style="stroke:none;fill:black;font-family:-apple-system,&quot;SF Pro Display&quot;,&quot;SF Pro Text&quot;,Helvetica,sans-serif;" transform="matrix(1 0 0 1 263 726)">Small</text>
  <text style="stroke:none;fill:black;font-family:-apple-system,&quot;SF Pro Display&quot;,&quot;SF Pro Text&quot;,Helvetica,sans-serif;" transform="matrix(1 0 0 1 263 1156)">Medium</text>
  <text style="stroke:none;fill:black;font-family:-apple-system,&quot;SF Pro Display&quot;,&quot;SF Pro Text&quot;,Helvetica,sans-serif;" transform="matrix(1 0 0 1 263 1586)">Large</text>
 </g>
 <g id="Guides">
  <g id="H-reference" style="fill:#27AAE1;stroke:none;" transform="matrix(1 0 0 1 339 696)">
   <path d="M 54.9316 0 L 57.666 0 L 30.5664 -70.459 L 28.0762 -70.459 L 0.976562 0 L 3.66211 0 L 12.9395 -24.4629 L 45.7031 -24.4629 Z M 29.1992 -67.0898 L 29.4434 -67.0898 L 44.8242 -26.709 L 13.8184 -26.709 Z"/>
  </g>
  <line id="Baseline-S" style="fill:none;stroke:#27AAE1;opacity:1;stroke-width:0.577;" x1="263" x2="3036" y1="696" y2="696"/>
  <line id="Capline-S" style="fill:none;stroke:#27AAE1;opacity:1;stroke-width:0.577;" x1="263" x2="3036" y1="625.541" y2="625.541"/>
  <g id="H-reference" style="fill:#27AAE1;stroke:none;" transform="matrix(1 0 0 1 339 1126)">
   <path d="M 54.9316 0 L 57.666 0 L 30.5664 -70.459 L 28.0762 -70.459 L 0.976562 0 L 3.66211 0 L 12.9395 -24.4629 L 45.7031 -24.4629 Z M 29.1992 -67.0898 L 29.4434 -67.0898 L 44.8242 -26.709 L 13.8184 -26.709 Z"/>
  </g>
  <line id="Baseline-M" style="fill:none;stroke:#27AAE1;opacity:1;stroke-width:0.577;" x1="263" x2="3036" y1="1126" y2="1126"/>
  <line id="Capline-M" style="fill:none;stroke:#27AAE1;opacity:1;stroke-width:0.577;" x1="263" x2="3036" y1="1055.54" y2="1055.54"/>
  <g id="H-reference" style="fill:#27AAE1;stroke:none;" transform="matrix(1 0 0 1 339 1556)">
   <path d="M 54.9316 0 L 57.666 0 L 30.5664 -70.459 L 28.0762 -70.459 L 0.976562 0 L 3.66211 0 L 12.9395 -24.4629 L 45.7031 -24.4629 Z M 29.1992 -67.0898 L 29.4434 -67.0898 L 44.8242 -26.709 L 13.8184 -26.709 Z"/>
  </g>
  <line id="Baseline-L" style="fill:none;stroke:#27AAE1;opacity:1;stroke-width:0.577;" x1="263" x2="3036" y1="1556" y2="1556"/>
  <line id="Capline-L" style="fill:none;stroke:#27AAE1;opacity:1;stroke-width:0.577;" x1="263" x2="3036" y1="1485.54" y2="1485.54"/>
  <rect height="119.336" id="left-margin" style="fill:#00AEEF;stroke:none;opacity:0.4;" width="8.74023" x="1391.3" y="1030.79"/>
  <rect height="119.336" id="right-margin" style="fill:#00AEEF;stroke:none;opacity:0.4;" width="8.74023" x="1499.65" y="1030.79"/>
 </g>
 <g id="Symbols">
  <g id="Black-L" transform="matrix(1 0 0 1 2854.05 1556)">
   <path d="M 79.3457 32.8613 C 116.748 32.8613 147.412 2.19727 147.412 -35.2051 C 147.412 -72.6074 116.748 -103.271 79.2969 -103.271 C 41.8945 -103.271 11.2793 -72.6074 11.2793 -35.2051 C 11.2793 2.19727 41.9434 32.8613 79.3457 32.8613 Z M 63.0859 -9.47266 C 55.3223 -9.47266 48.6328 -14.2578 47.1191 -19.4336 C 46.7285 -20.5078 46.5332 -21.4355 46.5332 -22.5098 C 46.5332 -25.9277 49.2188 -27.832 51.7578 -27.832 C 54.1016 -27.832 55.7129 -26.8555 56.9336 -24.9023 C 58.4473 -22.168 60.6934 -20.8984 63.2812 -20.8984 C 66.2109 -20.8984 68.1641 -22.9492 68.1641 -25.3418 C 68.1641 -28.125 66.3574 -29.8828 63.1348 -29.8828 L 62.1582 -29.8828 C 58.252 -29.8828 56.4453 -32.2754 56.4453 -35.5957 C 56.4453 -38.9648 58.5449 -41.3574 62.1582 -41.3574 L 63.0859 -41.3574 C 65.9668 -41.3574 67.3828 -43.4082 67.3828 -45.7031 C 67.3828 -48.3887 65.5762 -50.0977 63.0859 -50.0977 C 60.498 -50.0977 58.7891 -48.7793 57.2754 -46.0938 C 56.2012 -44.2383 54.6387 -43.0176 52.2461 -43.0176 C 49.3164 -43.0176 47.2656 -45.0195 47.2656 -48.3398 C 47.2656 -49.5117 47.4121 -50.5371 47.9492 -51.9043 C 49.5117 -56.1523 55.0781 -61.084 63.2324 -61.084 C 73.2422 -61.084 79.6387 -55.7129 79.6387 -47.5098 C 79.6387 -42.4316 76.1719 -37.6953 71.6309 -36.9141 L 71.6309 -36.377 C 77.0996 -35.9375 80.8594 -30.8105 80.8594 -24.5605 C 80.8594 -15.4297 73.877 -9.47266 63.0859 -9.47266 Z M 105.322 -9.66797 C 101.172 -9.66797 99.1699 -12.1094 99.1699 -16.8457 L 99.1699 -45.8496 L 98.877 -45.8496 L 95.8984 -42.9199 C 94.2871 -41.1133 93.1152 -40.3809 91.0156 -40.3809 C 88.3301 -40.3809 85.9863 -42.7246 85.9863 -45.5566 C 85.9863 -47.998 87.0605 -49.707 89.3555 -51.8066 L 95.752 -57.3242 C 98.9746 -60.2051 101.074 -60.9863 103.76 -60.9863 C 108.789 -60.9863 111.426 -57.959 111.426 -52.832 L 111.426 -16.8457 C 111.426 -12.1094 109.326 -9.66797 105.322 -9.66797 Z"/>
  </g>
  <g id="Heavy-L" transform="matrix(1 0 0 1 2558.39 1556)">
   <path d="M 78.2715 31.7871 C 115.088 31.7871 145.312 1.61133 145.312 -35.2051 C 145.312 -72.0215 115.039 -102.197 78.2715 -102.197 C 41.4551 -102.197 11.2793 -72.0215 11.2793 -35.2051 C 11.2793 1.61133 41.5039 31.7871 78.2715 31.7871 Z M 61.8164 -8.88672 C 53.8086 -8.88672 47.0703 -13.8184 45.459 -19.1895 C 45.1172 -20.166 44.9219 -21.0449 44.9219 -22.0703 C 44.9219 -25.1953 47.3633 -27.002 49.7559 -27.002 C 51.9043 -27.002 53.418 -25.9766 54.4922 -24.0723 C 56.1035 -20.8496 58.7402 -19.1895 61.9629 -19.1895 C 65.8203 -19.1895 68.457 -21.7285 68.457 -24.8535 C 68.457 -28.3203 66.0156 -30.5664 62.0117 -30.5664 L 60.2539 -30.5664 C 56.8359 -30.5664 55.127 -32.7148 55.127 -35.7422 C 55.127 -38.8184 57.0312 -40.918 60.2539 -40.918 L 61.8652 -40.918 C 65.3809 -40.918 67.4316 -43.4082 67.4316 -46.3867 C 67.4316 -49.5605 65.0879 -51.709 61.8652 -51.709 C 58.5938 -51.709 56.4453 -50.0488 54.9805 -46.8262 C 54.0527 -44.9219 52.6367 -43.7988 50.3418 -43.7988 C 47.6074 -43.7988 45.752 -45.6543 45.752 -48.7305 C 45.752 -49.8047 45.8984 -50.7324 46.3379 -51.9531 C 47.9492 -56.7383 53.7598 -61.6699 62.0117 -61.6699 C 71.9727 -61.6699 78.5156 -56.1523 78.5156 -47.9492 C 78.5156 -42.627 74.8047 -37.6465 70.0195 -36.8652 L 70.0195 -36.377 C 75.7812 -35.8887 79.834 -30.6152 79.834 -24.2188 C 79.834 -14.9902 72.6562 -8.88672 61.8164 -8.88672 Z M 104.883 -9.17969 C 101.221 -9.17969 99.3652 -11.377 99.3652 -15.5273 L 99.3652 -47.7539 L 99.0723 -47.7539 L 94.873 -44.1406 C 93.3105 -42.5293 92.2852 -41.9922 90.4785 -41.9922 C 87.9883 -41.9922 85.8398 -44.1406 85.8398 -46.7773 C 85.8398 -48.9746 86.8164 -50.4883 88.8672 -52.3438 L 96.2891 -58.252 C 99.2188 -60.791 101.123 -61.4746 103.613 -61.4746 C 108.008 -61.4746 110.449 -58.7891 110.449 -54.2969 L 110.449 -15.5273 C 110.449 -11.377 108.496 -9.17969 104.883 -9.17969 Z"/>
  </g>
  <g id="Bold-L" transform="matrix(1 0 0 1 2262.88 1556)">
   <path d="M 77.0996 30.6152 C 113.232 30.6152 142.92 0.878906 142.92 -35.2051 C 142.92 -71.3379 113.184 -101.025 77.0508 -101.025 C 40.9668 -101.025 11.2793 -71.3379 11.2793 -35.2051 C 11.2793 0.878906 41.0156 30.6152 77.0996 30.6152 Z M 60.4004 -8.25195 C 52.0996 -8.25195 45.2637 -13.3301 43.6523 -18.8965 C 43.3105 -19.8242 43.1641 -20.6055 43.1641 -21.582 C 43.1641 -24.3164 45.2637 -26.0254 47.4609 -26.0254 C 49.5117 -26.0254 50.7812 -25.0488 51.7578 -23.0957 C 53.418 -19.3359 56.4941 -17.2852 60.498 -17.2852 C 65.4297 -17.2852 68.75 -20.3613 68.75 -24.3652 C 68.75 -28.5645 65.625 -31.3477 60.7422 -31.3477 L 58.1055 -31.3477 C 55.1758 -31.3477 53.6133 -33.252 53.6133 -35.8887 C 53.6133 -38.623 55.3223 -40.4297 58.1055 -40.4297 L 60.498 -40.4297 C 64.7461 -40.4297 67.4805 -43.3594 67.4805 -47.1191 C 67.4805 -50.9277 64.5996 -53.4668 60.498 -53.4668 C 56.4453 -53.4668 53.8574 -51.416 52.4414 -47.6562 C 51.6113 -45.7031 50.3418 -44.6777 48.291 -44.6777 C 45.752 -44.6777 44.0918 -46.3867 44.0918 -49.1211 C 44.0918 -50.0977 44.1895 -50.9277 44.5312 -52.0508 C 46.1426 -57.4219 52.2461 -62.3047 60.6445 -62.3047 C 70.5566 -62.3047 77.1973 -56.6895 77.1973 -48.4375 C 77.1973 -42.8223 73.2422 -37.6465 68.2129 -36.8164 L 68.2129 -36.377 C 74.3164 -35.791 78.7109 -30.4199 78.7109 -23.8281 C 78.7109 -14.5508 71.3379 -8.25195 60.4004 -8.25195 Z M 104.443 -8.69141 C 101.27 -8.69141 99.5605 -10.5957 99.5605 -14.1113 L 99.5605 -49.9023 L 99.2676 -49.9023 L 93.7012 -45.5078 C 92.2363 -44.1406 91.3574 -43.75 89.8438 -43.75 C 87.6465 -43.75 85.6934 -45.7031 85.6934 -48.0957 C 85.6934 -50.0488 86.5723 -51.416 88.3789 -52.8809 L 96.9238 -59.2773 C 99.5605 -61.377 101.172 -62.0605 103.418 -62.0605 C 107.129 -62.0605 109.326 -59.7168 109.326 -55.9082 L 109.326 -14.1113 C 109.326 -10.5957 107.52 -8.69141 104.443 -8.69141 Z"/>
  </g>
  <g id="Semibold-L" transform="matrix(1 0 0 1 1966.97 1556)">
   <path d="M 76.2695 29.7852 C 111.914 29.7852 141.309 0.439453 141.309 -35.2051 C 141.309 -70.8496 111.865 -100.244 76.2695 -100.244 C 40.625 -100.244 11.2793 -70.8496 11.2793 -35.2051 C 11.2793 0.439453 40.6738 29.7852 76.2695 29.7852 Z M 59.4238 -7.76367 C 50.9277 -7.76367 44.0918 -12.9883 42.3828 -18.7012 C 42.0898 -19.5801 41.9434 -20.3125 41.9434 -21.2891 C 41.9434 -23.7305 43.7988 -25.3418 45.8984 -25.3418 C 47.8027 -25.3418 49.0234 -24.4141 49.8535 -22.4609 C 51.5625 -18.3105 54.9805 -15.9668 59.5215 -15.9668 C 65.1367 -15.9668 68.9453 -19.4336 68.9453 -23.9746 C 68.9453 -28.7109 65.332 -31.8848 59.8633 -31.8848 L 56.5918 -31.8848 C 54.0527 -31.8848 52.5879 -33.5938 52.5879 -35.9863 C 52.5879 -38.4766 54.1504 -40.1367 56.5918 -40.1367 L 59.5703 -40.1367 C 64.3066 -40.1367 67.5293 -43.3594 67.5293 -47.6074 C 67.5293 -51.8555 64.2578 -54.6875 59.5703 -54.6875 C 54.9805 -54.6875 52.0508 -52.3926 50.6348 -48.2422 C 49.9512 -46.2891 48.7793 -45.3125 46.8262 -45.3125 C 44.4336 -45.3125 42.9199 -46.9238 42.9199 -49.4141 C 42.9199 -50.3418 43.0176 -51.0742 43.2617 -52.0996 C 44.9219 -57.8613 51.2207 -62.7441 59.7168 -62.7441 C 69.5801 -62.7441 76.3184 -57.0312 76.3184 -48.7793 C 76.3184 -42.9688 72.2168 -37.6465 66.9434 -36.7676 L 66.9434 -36.377 C 73.3398 -35.7422 77.9297 -30.2734 77.9297 -23.5352 C 77.9297 -14.2578 70.3613 -7.76367 59.4238 -7.76367 Z M 104.102 -8.30078 C 101.318 -8.30078 99.707 -10.0586 99.707 -13.0859 L 99.707 -51.3672 L 99.4141 -51.3672 L 92.8711 -46.4844 C 91.4551 -45.2637 90.7227 -44.9707 89.4531 -44.9707 C 87.4512 -44.9707 85.5957 -46.7773 85.5957 -49.0234 C 85.5957 -50.7812 86.377 -52.002 87.9883 -53.2715 L 97.3633 -59.9609 C 99.7559 -61.8164 101.172 -62.4512 103.32 -62.4512 C 106.543 -62.4512 108.545 -60.3516 108.545 -57.0312 L 108.545 -13.0859 C 108.545 -10.0586 106.885 -8.30078 104.102 -8.30078 Z"/>
  </g>
  <g id="Medium-L" transform="matrix(1 0 0 1 1670.87 1556)">
   <path d="M 75.6836 29.1992 C 110.938 29.1992 140.088 0.0488281 140.088 -35.2051 C 140.088 -70.459 110.889 -99.6094 75.6348 -99.6094 C 40.3809 -99.6094 11.2793 -70.459 11.2793 -35.2051 C 11.2793 0.0488281 40.3809 29.1992 75.6836 29.1992 Z M 58.6914 -7.4707 C 50 -7.4707 43.1641 -12.6953 41.4062 -18.5547 C 41.1133 -19.4336 41.0156 -20.0684 41.0156 -20.9961 C 41.0156 -23.291 42.6758 -24.8047 44.7266 -24.8047 C 46.5332 -24.8047 47.6562 -23.877 48.4375 -21.9727 C 50.1465 -17.5293 53.8574 -14.9902 58.7402 -14.9902 C 64.8926 -14.9902 69.0918 -18.75 69.0918 -23.7305 C 69.0918 -28.8086 65.1367 -32.2754 59.1797 -32.2754 L 55.4688 -32.2754 C 53.1738 -32.2754 51.8066 -33.8867 51.8066 -36.0352 C 51.8066 -38.3789 53.2715 -39.8926 55.4688 -39.8926 L 58.8379 -39.8926 C 64.0137 -39.8926 67.5293 -43.3594 67.5293 -47.998 C 67.5293 -52.5391 63.9648 -55.6152 58.8379 -55.6152 C 53.9062 -55.6152 50.6836 -53.125 49.3164 -48.6328 C 48.6816 -46.6797 47.5586 -45.752 45.752 -45.752 C 43.457 -45.752 42.041 -47.3145 42.041 -49.6094 C 42.041 -50.4883 42.1387 -51.2207 42.334 -52.1484 C 43.9941 -58.2031 50.4395 -63.0859 59.0332 -63.0859 C 68.8477 -63.0859 75.6348 -57.3242 75.6348 -49.0234 C 75.6348 -43.0664 71.4355 -37.6465 66.0156 -36.7676 L 66.0156 -36.377 C 72.5586 -35.7422 77.3438 -30.1758 77.3438 -23.3398 C 77.3438 -14.0137 69.6777 -7.4707 58.6914 -7.4707 Z M 103.857 -8.00781 C 101.367 -8.00781 99.8047 -9.66797 99.8047 -12.3535 L 99.8047 -52.4902 L 99.5117 -52.4902 L 92.2363 -47.2168 C 90.918 -46.0938 90.2832 -45.8984 89.1602 -45.8984 C 87.2559 -45.8984 85.498 -47.6074 85.498 -49.707 C 85.498 -51.3184 86.2793 -52.4902 87.7441 -53.5645 L 97.7051 -60.5469 C 99.9023 -62.1582 101.221 -62.7441 103.223 -62.7441 C 106.055 -62.7441 107.959 -60.8398 107.959 -57.8613 L 107.959 -12.3535 C 107.959 -9.66797 106.396 -8.00781 103.857 -8.00781 Z"/>
  </g>
  <g id="Regular-L" transform="matrix(1 0 0 1 1374.97 1556)">
   <path d="M 74.8535 28.3691 C 109.668 28.3691 138.477 -0.390625 138.477 -35.2051 C 138.477 -70.0195 109.619 -98.7793 74.8047 -98.7793 C 40.0391 -98.7793 11.2793 -70.0195 11.2793 -35.2051 C 11.2793 -0.390625 40.0879 28.3691 74.8535 28.3691 Z M 57.7148 -6.98242 C 48.877 -6.98242 41.9434 -12.3535 40.1855 -18.4082 C 39.8926 -19.1895 39.7949 -19.7754 39.7949 -20.6543 C 39.7949 -22.7051 41.2598 -24.1699 43.2129 -24.1699 C 44.873 -24.1699 45.8496 -23.2422 46.582 -21.3379 C 48.3398 -16.5039 52.3438 -13.6719 57.7637 -13.6719 C 64.5996 -13.6719 69.2871 -17.8223 69.2871 -23.3887 C 69.2871 -28.9551 64.8926 -32.8125 58.3008 -32.8125 L 54.0039 -32.8125 C 52.0996 -32.8125 50.7812 -34.2285 50.7812 -36.1328 C 50.7812 -38.2324 52.0996 -39.5508 54.0039 -39.5508 L 57.9102 -39.5508 C 63.5742 -39.5508 67.5781 -43.3594 67.5781 -48.4863 C 67.5781 -53.4668 63.623 -56.8359 57.9102 -56.8359 C 52.4414 -56.8359 48.877 -54.0527 47.5586 -49.2188 C 47.0215 -47.2168 46.0449 -46.3379 44.2871 -46.3379 C 42.1875 -46.3379 40.918 -47.8027 40.918 -49.9023 C 40.918 -50.7324 40.9668 -51.3672 41.1133 -52.1973 C 42.7734 -58.6914 49.4629 -63.5254 58.0566 -63.5254 C 67.8711 -63.5254 74.7559 -57.666 74.7559 -49.3652 C 74.7559 -43.2129 70.3613 -37.5977 64.7949 -36.7188 L 64.7949 -36.377 C 71.582 -35.6934 76.5625 -30.0293 76.5625 -23.0957 C 76.5625 -13.6719 68.75 -6.98242 57.7148 -6.98242 Z M 103.564 -7.66602 C 101.367 -7.66602 99.9512 -9.13086 99.9512 -11.377 L 99.9512 -53.9551 L 99.6582 -53.9551 L 91.4551 -48.1445 C 90.1367 -47.168 89.6484 -47.1191 88.7207 -47.1191 C 87.0117 -47.1191 85.4004 -48.6328 85.4004 -50.6348 C 85.4004 -52.0996 86.084 -53.125 87.3535 -53.9551 L 98.1445 -61.2305 C 100.098 -62.5977 101.221 -63.1348 103.125 -63.1348 C 105.469 -63.1348 107.227 -61.4258 107.227 -58.9355 L 107.227 -11.377 C 107.227 -9.13086 105.762 -7.66602 103.564 -7.66602 Z"/>
  </g>
  <g id="Light-L" transform="matrix(1 0 0 1 1079.18 1556)">
   <path d="M 73.9258 27.4902 C 108.301 27.4902 136.621 -0.830078 136.621 -35.1562 C 136.621 -69.5312 108.252 -97.8516 73.9258 -97.8516 C 39.5508 -97.8516 11.2793 -69.5312 11.2793 -35.1562 C 11.2793 -0.830078 39.5996 27.4902 73.9258 27.4902 Z M 56.9336 -7.32422 C 48.2422 -7.32422 41.5039 -12.5 39.6484 -18.457 C 39.4043 -19.1406 39.3066 -19.7266 39.3066 -20.5078 C 39.3066 -22.168 40.4785 -23.3887 42.0898 -23.3887 C 43.5547 -23.3887 44.3359 -22.6074 44.873 -20.9961 C 46.6797 -15.8691 51.2695 -12.793 56.9336 -12.793 C 64.4043 -12.793 69.4824 -17.1875 69.4824 -23.291 C 69.4824 -29.1992 64.5508 -33.4473 57.6172 -33.4473 L 52.7344 -33.4473 C 51.123 -33.4473 50.0977 -34.6191 50.0977 -36.1816 C 50.0977 -37.8906 51.1719 -38.9648 52.7344 -38.9648 L 57.1289 -38.9648 C 63.2812 -38.9648 67.7246 -43.1152 67.7246 -48.6816 C 67.7246 -54.1016 63.3789 -57.7637 57.0312 -57.7637 C 51.0742 -57.7637 47.0703 -54.5898 45.9473 -49.5605 C 45.5078 -47.8516 44.6289 -47.1191 43.2129 -47.1191 C 41.4062 -47.1191 40.4297 -48.3398 40.4297 -50.0977 C 40.4297 -50.7812 40.4785 -51.416 40.625 -52.1484 C 42.2363 -58.6914 48.9258 -63.2324 57.1289 -63.2324 C 66.748 -63.2324 73.584 -57.4707 73.584 -49.3164 C 73.584 -43.2129 69.0918 -37.5977 63.3789 -36.6211 L 63.3789 -36.377 C 70.2637 -35.6445 75.3906 -29.9805 75.3906 -23.0957 C 75.3906 -13.916 67.6758 -7.32422 56.9336 -7.32422 Z M 102.441 -7.86133 C 100.732 -7.86133 99.6094 -9.0332 99.6094 -10.8398 L 99.6094 -55.4199 L 99.2676 -55.4199 L 89.5996 -48.877 C 88.6719 -48.1934 88.2812 -48.1934 87.5977 -48.1934 C 86.1328 -48.1934 84.9121 -49.4141 84.9121 -50.9766 C 84.9121 -52.0996 85.4004 -52.8809 86.4746 -53.5645 L 98.2422 -61.4258 C 99.707 -62.4023 100.586 -62.793 102.1 -62.793 C 103.955 -62.793 105.371 -61.5234 105.371 -59.5215 L 105.371 -10.8398 C 105.371 -9.0332 104.248 -7.86133 102.441 -7.86133 Z"/>
  </g>
  <g id="Thin-L" transform="matrix(1 0 0 1 783.693 1556)">
   <path d="M 72.7051 26.3184 C 106.494 26.3184 134.18 -1.36719 134.18 -35.1074 C 134.18 -68.8965 106.494 -96.582 72.7051 -96.582 C 38.9648 -96.582 11.2793 -68.8965 11.2793 -35.1074 C 11.2793 -1.36719 38.9648 26.3184 72.7051 26.3184 Z M 55.8594 -7.71484 C 47.4609 -7.71484 40.8691 -12.6953 38.9648 -18.5059 C 38.7695 -19.043 38.623 -19.6289 38.623 -20.3125 C 38.623 -21.4844 39.4531 -22.3633 40.625 -22.3633 C 41.748 -22.3633 42.2852 -21.7285 42.6758 -20.5078 C 44.4336 -14.9902 49.8535 -11.5723 55.8594 -11.5723 C 64.1602 -11.5723 69.7754 -16.3574 69.7754 -23.1445 C 69.7754 -29.4922 64.1602 -34.3262 56.6406 -34.3262 L 51.0742 -34.3262 C 49.9023 -34.3262 49.1699 -35.0586 49.1699 -36.2305 C 49.1699 -37.4023 49.9512 -38.1348 51.0742 -38.1348 L 56.1035 -38.1348 C 62.9395 -38.1348 67.9199 -42.8223 67.9199 -48.877 C 67.9199 -54.9316 63.0859 -58.9844 55.8105 -58.9844 C 49.3164 -58.9844 44.7266 -55.3223 43.7988 -50 C 43.5059 -48.6328 42.8223 -48.0957 41.7969 -48.0957 C 40.332 -48.0957 39.7461 -49.0234 39.7461 -50.3418 C 39.7461 -50.8301 39.8438 -51.5137 39.9902 -52.0996 C 41.5527 -58.6914 48.291 -62.793 55.8594 -62.793 C 65.2344 -62.793 72.0215 -57.2266 72.0215 -49.2676 C 72.0215 -43.2129 67.4316 -37.5488 61.4746 -36.5234 L 61.4746 -36.377 C 68.5059 -35.5957 73.8281 -29.8828 73.8281 -23.0957 C 73.8281 -14.209 66.2598 -7.71484 55.8594 -7.71484 Z M 101.025 -8.1543 C 99.9023 -8.1543 99.0723 -8.93555 99.0723 -10.1074 L 99.0723 -57.4219 L 98.8281 -57.4219 L 87.207 -49.8047 C 86.6699 -49.5605 86.4746 -49.5605 86.084 -49.5605 C 85.0098 -49.5605 84.2285 -50.3906 84.2285 -51.416 C 84.2285 -52.0996 84.4727 -52.6367 85.2539 -53.0762 L 98.3398 -61.6699 C 99.1699 -62.207 99.707 -62.4023 100.732 -62.4023 C 101.953 -62.4023 102.979 -61.6211 102.979 -60.2539 L 102.979 -10.1074 C 102.979 -8.93555 102.295 -8.1543 101.025 -8.1543 Z"/>
  </g>
  <g id="Ultralight-L" transform="matrix(1 0 0 1 487.616 1556)">
   <path d="M 72.1191 25.7324 C 105.566 25.7324 132.91 -1.61133 132.91 -35.1074 C 132.91 -68.5547 105.566 -95.8984 72.1191 -95.8984 C 38.623 -95.8984 11.2793 -68.5547 11.2793 -35.1074 C 11.2793 -1.61133 38.623 25.7324 72.1191 25.7324 Z M 55.3223 -7.95898 C 47.0215 -7.95898 40.5762 -12.793 38.623 -18.5547 C 38.4766 -18.9941 38.2812 -19.5801 38.2812 -20.166 C 38.2812 -21.0938 38.916 -21.8262 39.8438 -21.8262 C 40.8203 -21.8262 41.2598 -21.2891 41.5527 -20.2637 C 43.3105 -14.5508 49.1211 -10.9375 55.3223 -10.9375 C 64.0625 -10.9375 69.873 -15.918 69.873 -23.0957 C 69.873 -29.6387 63.916 -34.7656 56.1523 -34.7656 L 50.1953 -34.7656 C 49.2676 -34.7656 48.6816 -35.3027 48.6816 -36.2305 C 48.6816 -37.1582 49.3164 -37.7441 50.1953 -37.7441 L 55.5664 -37.7441 C 62.7441 -37.7441 68.0176 -42.6758 68.0176 -48.9746 C 68.0176 -55.3223 62.8906 -59.6191 55.2246 -59.6191 C 48.3887 -59.6191 43.5059 -55.7129 42.6758 -50.2441 C 42.4805 -49.0723 41.8457 -48.6328 41.0645 -48.6328 C 39.7949 -48.6328 39.4043 -49.3652 39.4043 -50.4395 C 39.4043 -50.8789 39.502 -51.5137 39.6484 -52.0508 C 41.1621 -58.6914 47.9492 -62.5977 55.1758 -62.5977 C 64.4531 -62.5977 71.1914 -57.0801 71.1914 -49.2676 C 71.1914 -43.2129 66.6016 -37.5 60.498 -36.4258 L 60.498 -36.377 C 67.627 -35.5957 73.0469 -29.8828 73.0469 -23.1445 C 73.0469 -14.3555 65.5273 -7.95898 55.3223 -7.95898 Z M 100.293 -8.30078 C 99.4629 -8.30078 98.8281 -8.83789 98.8281 -9.76562 L 98.8281 -58.4473 L 98.584 -58.4473 L 85.9375 -50.293 C 85.6445 -50.2441 85.5469 -50.2441 85.3027 -50.2441 C 84.4238 -50.2441 83.8867 -50.8789 83.8867 -51.6113 C 83.8867 -52.0996 83.9844 -52.4902 84.668 -52.832 L 98.3887 -61.7676 C 98.877 -62.0605 99.2676 -62.207 100.049 -62.207 C 100.928 -62.207 101.709 -61.6699 101.709 -60.6445 L 101.709 -9.76562 C 101.709 -8.83789 101.27 -8.30078 100.293 -8.30078 Z"/>
  </g>
  <g id="Black-M" transform="matrix(1 0 0 1 2870.97 1126)">
   <path d="M 62.4023 18.457 C 91.9922 18.457 116.113 -5.61523 116.113 -35.2051 C 116.113 -64.7949 91.9922 -88.8672 62.4023 -88.8672 C 32.8125 -88.8672 8.74023 -64.7949 8.74023 -35.2051 C 8.74023 -5.61523 32.8125 18.457 62.4023 18.457 Z M 81.5918 -16.2109 C 78.0273 -16.2109 76.3672 -18.2129 76.3672 -22.4121 L 76.3672 -41.6504 L 76.2207 -41.6504 L 74.7559 -39.8926 C 73.584 -38.3789 72.5098 -37.6465 70.6543 -37.6465 C 68.3594 -37.6465 66.5527 -39.5508 66.5527 -41.7969 C 66.5527 -43.7988 67.3828 -45.2637 69.3848 -47.2168 L 73.4863 -51.1719 C 76.123 -53.7598 77.9297 -54.3457 80.0781 -54.3457 C 84.5703 -54.3457 86.7188 -51.7578 86.7188 -47.2168 L 86.7188 -22.4121 C 86.7188 -18.2129 85.0586 -16.2109 81.5918 -16.2109 Z M 50.1465 -16.2109 C 44.5801 -16.2109 39.5508 -19.6777 38.4277 -23.3398 C 38.1348 -24.2188 37.9395 -25 37.9395 -25.8789 C 37.9395 -28.7598 40.2832 -30.2734 42.2363 -30.2734 C 44.1406 -30.2734 45.5078 -29.541 46.5332 -28.1738 C 47.6562 -26.6113 49.1211 -25.9277 50.3418 -25.9277 C 51.709 -25.9277 52.5879 -27.002 52.5879 -28.125 C 52.5879 -29.5898 51.709 -30.4688 50.0977 -30.4688 C 46.6309 -30.4688 45.2148 -32.4707 45.2148 -35.3516 C 45.2148 -38.1836 46.9727 -40.1855 50.0977 -40.1855 C 51.709 -40.1855 52.2461 -41.5039 52.2461 -42.5293 C 52.2461 -44.1406 51.2695 -45.1172 50.0488 -45.1172 C 48.7305 -45.1172 47.7539 -44.3848 46.6309 -42.8711 C 45.7031 -41.5527 44.3848 -40.625 42.4316 -40.625 C 40.0391 -40.625 38.3789 -42.1875 38.3789 -45.0195 C 38.3789 -45.9473 38.5742 -46.8262 39.0625 -48.0469 C 40.2344 -50.6348 44.1895 -54.2969 50.1465 -54.2969 C 57.8613 -54.2969 62.6465 -50.3418 62.6465 -44.1406 C 62.6465 -40.5273 60.2051 -37.1094 56.8848 -36.5723 L 56.8848 -36.1328 C 60.791 -35.8398 63.3789 -32.0312 63.3789 -27.4414 C 63.3789 -20.5566 58.3008 -16.2109 50.1465 -16.2109 Z"/>
  </g>
  <g id="Heavy-M" transform="matrix(1 0 0 1 2575.19 1126)">
   <path d="M 61.5234 17.5781 C 90.5273 17.5781 114.258 -6.15234 114.258 -35.2051 C 114.258 -64.2578 90.5273 -87.9883 61.4746 -87.9883 C 32.4707 -87.9883 8.74023 -64.2578 8.74023 -35.2051 C 8.74023 -6.15234 32.4707 17.5781 61.5234 17.5781 Z M 48.9746 -15.4785 C 43.0664 -15.4785 37.9395 -19.1406 36.7676 -23.0469 C 36.4746 -23.877 36.3281 -24.6094 36.3281 -25.4395 C 36.3281 -28.0762 38.4277 -29.541 40.332 -29.541 C 42.0898 -29.541 43.3594 -28.7598 44.2871 -27.3438 C 45.459 -25.293 47.2168 -24.3164 49.1699 -24.3164 C 51.3672 -24.3164 52.832 -25.8301 52.832 -27.6367 C 52.832 -29.7363 51.416 -31.0547 49.0234 -31.0547 L 48.3398 -31.0547 C 45.2637 -31.0547 43.8965 -32.9102 43.8965 -35.498 C 43.8965 -38.0859 45.5078 -39.8926 48.3398 -39.8926 L 48.9746 -39.8926 C 51.1719 -39.8926 52.2461 -41.5039 52.2461 -43.2129 C 52.2461 -45.2637 50.8301 -46.582 48.9258 -46.582 C 46.9727 -46.582 45.6543 -45.6055 44.5312 -43.5547 C 43.7012 -42.1875 42.4805 -41.3086 40.6738 -41.3086 C 38.4277 -41.3086 36.8652 -42.7734 36.8652 -45.3613 C 36.8652 -46.2402 37.0117 -47.0215 37.4512 -48.0957 C 38.623 -51.3184 42.8711 -55.0293 49.0723 -55.0293 C 56.7871 -55.0293 61.7188 -50.9277 61.7188 -44.6289 C 61.7188 -40.7715 59.0332 -37.1094 55.5176 -36.5234 L 55.5176 -36.1328 C 59.7168 -35.791 62.5977 -31.8359 62.5977 -27.0508 C 62.5977 -20.0195 57.2754 -15.4785 48.9746 -15.4785 Z M 81.4453 -15.625 C 78.2227 -15.625 76.709 -17.4316 76.709 -21.1426 L 76.709 -43.3594 L 76.4648 -43.3594 L 74.1211 -41.0645 C 72.9004 -39.6973 71.9727 -39.1113 70.3613 -39.1113 C 68.2617 -39.1113 66.5527 -40.918 66.5527 -43.0176 C 66.5527 -44.873 67.334 -46.1914 69.1406 -47.8516 L 74.0723 -52.1484 C 76.5137 -54.3945 78.1738 -54.9805 80.1758 -54.9805 C 84.082 -54.9805 86.1328 -52.6367 86.1328 -48.6328 L 86.1328 -21.1426 C 86.1328 -17.4316 84.5215 -15.625 81.4453 -15.625 Z"/>
  </g>
  <g id="Bold-M" transform="matrix(1 0 0 1 2279.5 1126)">
   <path d="M 60.498 16.5039 C 88.8672 16.5039 112.207 -6.78711 112.207 -35.2051 C 112.207 -63.623 88.8672 -86.9629 60.4492 -86.9629 C 32.0312 -86.9629 8.74023 -63.623 8.74023 -35.2051 C 8.74023 -6.78711 32.0801 16.5039 60.498 16.5039 Z M 47.6562 -14.6973 C 41.4062 -14.6973 36.1816 -18.5547 34.9121 -22.7539 C 34.668 -23.4863 34.5215 -24.1699 34.5215 -24.9512 C 34.5215 -27.2949 36.3281 -28.6621 38.1836 -28.6621 C 39.8438 -28.6621 40.9668 -27.9297 41.7969 -26.416 C 43.0176 -23.8281 45.166 -22.5098 47.8027 -22.5098 C 50.9277 -22.5098 53.0762 -24.5605 53.0762 -27.0996 C 53.0762 -29.9316 51.0742 -31.7383 47.8516 -31.7383 L 46.3379 -31.7383 C 43.75 -31.7383 42.4805 -33.3984 42.4805 -35.6445 C 42.4805 -37.9883 43.9453 -39.5508 46.3379 -39.5508 L 47.7051 -39.5508 C 50.5859 -39.5508 52.2461 -41.5527 52.2461 -43.9941 C 52.2461 -46.582 50.3906 -48.291 47.7051 -48.291 C 45.0684 -48.291 43.3105 -46.9238 42.1875 -44.3848 C 41.5039 -42.8711 40.4297 -42.041 38.6719 -42.041 C 36.6211 -42.041 35.1562 -43.457 35.1562 -45.752 C 35.1562 -46.582 35.3027 -47.2656 35.5957 -48.1934 C 36.8652 -52.002 41.4062 -55.8105 47.8516 -55.8105 C 55.5664 -55.8105 60.6445 -51.5625 60.6445 -45.166 C 60.6445 -40.9668 57.7148 -37.1094 53.9551 -36.5234 L 53.9551 -36.1328 C 58.4961 -35.6934 61.6699 -31.6406 61.6699 -26.6113 C 61.6699 -19.4824 56.1035 -14.6973 47.6562 -14.6973 Z M 81.25 -14.9414 C 78.4668 -14.9414 77.0508 -16.6504 77.0508 -19.7266 L 77.0508 -45.2637 L 76.8066 -45.2637 L 73.3398 -42.3828 C 72.168 -41.1621 71.3867 -40.7227 70.0195 -40.7227 C 68.1641 -40.7227 66.5039 -42.3828 66.5039 -44.3848 C 66.5039 -46.0449 67.2363 -47.2168 68.7988 -48.584 L 74.7559 -53.2227 C 76.9531 -55.127 78.3691 -55.6641 80.2734 -55.6641 C 83.5938 -55.6641 85.4492 -53.6133 85.4492 -50.2441 L 85.4492 -19.7266 C 85.4492 -16.6504 83.9355 -14.9414 81.25 -14.9414 Z"/>
  </g>
  <g id="Semibold-M" transform="matrix(1 0 0 1 1983.5 1126)">
   <path d="M 59.7656 15.8203 C 87.7441 15.8203 110.791 -7.22656 110.791 -35.2051 C 110.791 -63.1836 87.6953 -86.2793 59.7656 -86.2793 C 31.7871 -86.2793 8.74023 -63.1836 8.74023 -35.2051 C 8.74023 -7.22656 31.7871 15.8203 59.7656 15.8203 Z M 46.7773 -14.1602 C 40.2344 -14.1602 34.9121 -18.1152 33.6426 -22.5098 C 33.3984 -23.2422 33.3008 -23.8281 33.3008 -24.6094 C 33.3008 -26.7578 34.9121 -28.125 36.7188 -28.125 C 38.2812 -28.125 39.3066 -27.3438 40.0391 -25.7812 C 41.3574 -22.8516 43.7012 -21.2402 46.875 -21.2402 C 50.6836 -21.2402 53.2715 -23.6328 53.2715 -26.7578 C 53.2715 -30.0293 50.8301 -32.1777 47.0215 -32.1777 L 44.9707 -32.1777 C 42.7246 -32.1777 41.5039 -33.6914 41.5039 -35.7422 C 41.5039 -37.8906 42.8223 -39.3555 44.9707 -39.3555 L 46.8262 -39.3555 C 50.1465 -39.3555 52.2949 -41.6016 52.2949 -44.4824 C 52.2949 -47.4609 50.0488 -49.4141 46.875 -49.4141 C 43.75 -49.4141 41.6992 -47.8516 40.5762 -44.9219 C 39.9414 -43.3594 38.9648 -42.5293 37.3047 -42.5293 C 35.3516 -42.5293 34.0332 -43.8965 34.0332 -45.9961 C 34.0332 -46.8262 34.082 -47.4121 34.3262 -48.291 C 35.5957 -52.5391 40.3809 -56.3965 47.0215 -56.3965 C 54.6875 -56.3965 59.9121 -52.002 59.9121 -45.5566 C 59.9121 -41.1621 56.8359 -37.1094 52.8809 -36.4746 L 52.8809 -36.1328 C 57.666 -35.6934 61.084 -31.4941 61.084 -26.3184 C 61.084 -19.0918 55.2734 -14.1602 46.7773 -14.1602 Z M 81.1035 -14.502 C 78.6621 -14.502 77.2949 -16.0645 77.2949 -18.75 L 77.2949 -46.582 L 77.0508 -46.582 L 72.8027 -43.2617 C 71.6309 -42.1387 70.9961 -41.8945 69.8242 -41.8945 C 68.0664 -41.8945 66.5039 -43.4082 66.5039 -45.3125 C 66.5039 -46.875 67.1875 -47.9492 68.6035 -49.0723 L 75.1953 -53.9551 C 77.2949 -55.6641 78.5645 -56.1523 80.3711 -56.1523 C 83.2031 -56.1523 84.9609 -54.2969 84.9609 -51.3672 L 84.9609 -18.75 C 84.9609 -16.0645 83.5449 -14.502 81.1035 -14.502 Z"/>
  </g>
  <g id="Medium-M" transform="matrix(1 0 0 1 1687.3 1126)">
   <path d="M 59.2285 15.2832 C 86.9141 15.2832 109.766 -7.56836 109.766 -35.2051 C 109.766 -62.8906 86.8652 -85.7422 59.1797 -85.7422 C 31.543 -85.7422 8.74023 -62.8906 8.74023 -35.2051 C 8.74023 -7.56836 31.5918 15.2832 59.2285 15.2832 Z M 46.0938 -13.7207 C 39.3555 -13.7207 33.9844 -17.8223 32.666 -22.3633 C 32.4707 -23.0469 32.373 -23.6328 32.373 -24.3652 C 32.373 -26.3672 33.8379 -27.6855 35.5957 -27.6855 C 37.1094 -27.6855 38.0371 -26.9043 38.7695 -25.293 C 40.0879 -22.0703 42.627 -20.3125 46.1426 -20.3125 C 50.4395 -20.3125 53.418 -22.998 53.418 -26.4648 C 53.418 -30.127 50.6836 -32.5195 46.4355 -32.5195 L 43.9453 -32.5195 C 41.9434 -32.5195 40.7227 -33.9355 40.7227 -35.791 C 40.7227 -37.8418 41.9922 -39.1602 43.9453 -39.1602 L 46.1914 -39.1602 C 49.8535 -39.1602 52.2949 -41.6016 52.2949 -44.9219 C 52.2949 -48.0957 49.7559 -50.293 46.2402 -50.293 C 42.7246 -50.293 40.4785 -48.584 39.3555 -45.3125 C 38.8184 -43.7012 37.8906 -42.9199 36.2793 -42.9199 C 34.375 -42.9199 33.1543 -44.2383 33.1543 -46.2402 C 33.1543 -46.9727 33.2031 -47.5586 33.3984 -48.3398 C 34.668 -52.8809 39.5996 -56.7871 46.3867 -56.7871 C 54.0527 -56.7871 59.3262 -52.2949 59.3262 -45.8496 C 59.3262 -41.2598 56.1523 -37.1094 52.0508 -36.4746 L 52.0508 -36.1328 C 57.0312 -35.6445 60.5957 -31.3965 60.5957 -26.0742 C 60.5957 -18.7988 54.6875 -13.7207 46.0938 -13.7207 Z M 81.0059 -14.1602 C 78.7598 -14.1602 77.4414 -15.625 77.4414 -18.0176 L 77.4414 -47.5586 L 77.1973 -47.5586 L 72.4121 -43.9453 C 71.2402 -42.9199 70.6543 -42.7246 69.6289 -42.7246 C 68.0176 -42.7246 66.5039 -44.1895 66.5039 -46.0449 C 66.5039 -47.4609 67.1875 -48.4863 68.4082 -49.4629 L 75.5371 -54.541 C 77.4902 -56.0059 78.6621 -56.543 80.4199 -56.543 C 82.959 -56.543 84.5703 -54.834 84.5703 -52.1973 L 84.5703 -18.0176 C 84.5703 -15.625 83.2031 -14.1602 81.0059 -14.1602 Z"/>
  </g>
  <g id="Regular-M" transform="matrix(1 0 0 1 1391.3 1126)">
   <path d="M 58.5449 14.5508 C 85.791 14.5508 108.35 -8.00781 108.35 -35.2539 C 108.35 -62.4512 85.7422 -85.0586 58.4961 -85.0586 C 31.2988 -85.0586 8.74023 -62.4512 8.74023 -35.2539 C 8.74023 -8.00781 31.3477 14.5508 58.5449 14.5508 Z M 45.166 -13.1836 C 38.2324 -13.1836 32.7637 -17.4316 31.4453 -22.168 C 31.2012 -22.8027 31.1035 -23.291 31.1035 -24.0234 C 31.1035 -25.8301 32.4219 -27.0996 34.082 -27.0996 C 35.5469 -27.0996 36.4258 -26.3184 37.0605 -24.6582 C 38.4277 -21.0938 41.1621 -19.043 45.2148 -19.043 C 50.1953 -19.043 53.5645 -22.0703 53.5645 -26.0742 C 53.5645 -30.2734 50.4395 -33.0078 45.6055 -33.0078 L 42.5781 -33.0078 C 40.918 -33.0078 39.7461 -34.2773 39.7461 -35.8887 C 39.7461 -37.7441 40.918 -38.916 42.5781 -38.916 L 45.3125 -38.916 C 49.4141 -38.916 52.2949 -41.6504 52.2949 -45.4102 C 52.2949 -48.9746 49.4629 -51.4648 45.4102 -51.4648 C 41.4062 -51.4648 38.916 -49.5117 37.793 -45.8496 C 37.3047 -44.1895 36.4746 -43.4082 34.9609 -43.4082 C 33.1543 -43.4082 31.9824 -44.6777 31.9824 -46.4844 C 31.9824 -47.2168 32.0312 -47.7051 32.1289 -48.3887 C 33.4473 -53.418 38.623 -57.3242 45.5566 -57.3242 C 53.2227 -57.3242 58.5938 -52.7344 58.5938 -46.1914 C 58.5938 -41.4551 55.2734 -37.1094 51.0254 -36.4258 L 51.0254 -36.1328 C 56.2012 -35.5957 60.0098 -31.25 60.0098 -25.7812 C 60.0098 -18.4082 53.9062 -13.1836 45.166 -13.1836 Z M 80.8594 -13.7207 C 78.9551 -13.7207 77.6855 -15.0391 77.6855 -17.041 L 77.6855 -48.877 L 77.3926 -48.877 L 71.9238 -44.8242 C 70.7031 -43.8965 70.2637 -43.8477 69.4336 -43.8477 C 67.9199 -43.8477 66.4551 -45.2148 66.4551 -46.9727 C 66.4551 -48.291 67.1387 -49.2188 68.2129 -49.9512 L 75.9766 -55.2734 C 77.832 -56.4941 78.8086 -57.0312 80.4688 -57.0312 C 82.6172 -57.0312 84.1309 -55.5176 84.1309 -53.3203 L 84.1309 -17.041 C 84.1309 -15.0391 82.8125 -13.7207 80.8594 -13.7207 Z"/>
  </g>
  <g id="Light-M" transform="matrix(1 0 0 1 1095.42 1126)">
   <path d="M 57.7148 13.7695 C 84.5215 13.7695 106.689 -8.39844 106.689 -35.2051 C 106.689 -62.0117 84.5215 -84.1797 57.666 -84.1797 C 30.8594 -84.1797 8.74023 -62.0117 8.74023 -35.2051 C 8.74023 -8.39844 30.9082 13.7695 57.7148 13.7695 Z M 44.4824 -13.4766 C 37.6465 -13.4766 32.373 -17.5293 30.957 -22.2168 C 30.7617 -22.7539 30.6641 -23.2422 30.6641 -23.877 C 30.6641 -25.3418 31.7383 -26.416 33.1055 -26.416 C 34.3262 -26.416 35.0586 -25.7324 35.5469 -24.3652 C 36.9141 -20.5078 40.2344 -18.2129 44.4824 -18.2129 C 50 -18.2129 53.7598 -21.5332 53.7598 -26.0254 C 53.7598 -30.4688 50.1953 -33.5938 44.9707 -33.5938 L 41.4551 -33.5938 C 40.0391 -33.5938 39.1113 -34.5703 39.1113 -35.9375 C 39.1113 -37.4512 40.0879 -38.3789 41.4551 -38.3789 L 44.6289 -38.3789 C 49.1699 -38.3789 52.4414 -41.4551 52.4414 -45.5566 C 52.4414 -49.5605 49.2188 -52.2949 44.5801 -52.2949 C 40.1855 -52.2949 37.3047 -50 36.3281 -46.1914 C 35.9375 -44.7266 35.2051 -44.0918 33.9844 -44.0918 C 32.4219 -44.0918 31.543 -45.1172 31.543 -46.6797 C 31.543 -47.2656 31.5918 -47.7539 31.6895 -48.3398 C 33.0078 -53.418 38.1348 -57.0801 44.6777 -57.0801 C 52.1973 -57.0801 57.5684 -52.5879 57.5684 -46.1914 C 57.5684 -41.4551 54.1016 -37.0605 49.7559 -36.377 L 49.7559 -36.1328 C 55.0293 -35.5957 58.9355 -31.2012 58.9355 -25.8301 C 58.9355 -18.6035 52.9297 -13.4766 44.4824 -13.4766 Z M 79.8828 -13.916 C 78.3691 -13.916 77.3438 -14.9902 77.3438 -16.5527 L 77.3438 -50.2441 L 77.0996 -50.2441 L 70.2637 -45.459 C 69.3848 -44.8242 69.043 -44.7754 68.4082 -44.7754 C 67.1387 -44.7754 66.0156 -45.8984 66.0156 -47.2656 C 66.0156 -48.291 66.5039 -49.0234 67.4316 -49.6094 L 76.0742 -55.4199 C 77.4414 -56.3477 78.2227 -56.7383 79.5898 -56.7383 C 81.25 -56.7383 82.4707 -55.5664 82.4707 -53.8086 L 82.4707 -16.5527 C 82.4707 -14.9902 81.4453 -13.916 79.8828 -13.916 Z"/>
  </g>
  <g id="Thin-M" transform="matrix(1 0 0 1 799.806 1126)">
   <path d="M 56.6406 12.7441 C 82.9102 12.7441 104.492 -8.83789 104.492 -35.1562 C 104.492 -61.4746 82.9102 -83.0566 56.5918 -83.0566 C 30.3223 -83.0566 8.74023 -61.4746 8.74023 -35.1562 C 8.74023 -8.83789 30.3223 12.7441 56.6406 12.7441 Z M 43.5059 -13.8184 C 36.9629 -13.8184 31.7871 -17.7246 30.3223 -22.2656 C 30.1758 -22.7051 30.0781 -23.1445 30.0781 -23.6816 C 30.0781 -24.707 30.8105 -25.4883 31.7871 -25.4883 C 32.7637 -25.4883 33.2031 -24.9512 33.5449 -23.9258 C 34.9121 -19.7266 38.9648 -17.1387 43.5547 -17.1387 C 49.8047 -17.1387 54.0039 -20.8008 54.0039 -25.8789 C 54.0039 -30.7129 49.8047 -34.3262 44.0918 -34.3262 L 39.9414 -34.3262 C 38.916 -34.3262 38.2812 -35.0098 38.2812 -35.9863 C 38.2812 -37.0117 38.9648 -37.6465 39.9414 -37.6465 L 43.7012 -37.6465 C 48.8281 -37.6465 52.5879 -41.1621 52.5879 -45.752 C 52.5879 -50.293 48.9258 -53.3691 43.5059 -53.3691 C 38.5742 -53.3691 35.1562 -50.6348 34.375 -46.582 C 34.1309 -45.459 33.5938 -45.0195 32.7148 -45.0195 C 31.4941 -45.0195 30.957 -45.752 30.957 -46.875 C 30.957 -47.3145 31.0059 -47.8027 31.1523 -48.291 C 32.3242 -53.418 37.5488 -56.6895 43.5547 -56.6895 C 50.8789 -56.6895 56.1523 -52.3438 56.1523 -46.1426 C 56.1523 -41.4551 52.6367 -37.0117 48.0469 -36.2305 L 48.0469 -36.1328 C 53.4668 -35.5469 57.5684 -31.1035 57.5684 -25.8301 C 57.5684 -18.8477 51.6602 -13.8184 43.5059 -13.8184 Z M 78.6133 -14.209 C 77.5879 -14.209 76.9043 -14.8926 76.9043 -15.918 L 76.9043 -52.002 L 76.6602 -52.002 L 68.1152 -46.3379 C 67.5781 -46.0449 67.3828 -46.0449 67.041 -46.0449 C 66.1133 -46.0449 65.4297 -46.7285 65.4297 -47.6562 C 65.4297 -48.291 65.6738 -48.7793 66.3574 -49.1699 L 76.1719 -55.6641 C 76.9531 -56.1523 77.4902 -56.3965 78.3691 -56.3965 C 79.4434 -56.3965 80.3223 -55.6641 80.3223 -54.4434 L 80.3223 -15.918 C 80.3223 -14.8926 79.6875 -14.209 78.6133 -14.209 Z"/>
  </g>
  <g id="Ultralight-M" transform="matrix(1 0 0 1 503.656 1126)">
   <path d="M 56.0547 12.207 C 82.0801 12.207 103.369 -9.08203 103.369 -35.1562 C 103.369 -61.1816 82.0801 -82.4707 56.0547 -82.4707 C 30.0293 -82.4707 8.74023 -61.1816 8.74023 -35.1562 C 8.74023 -9.08203 30.0293 12.207 56.0547 12.207 Z M 43.0176 -14.0137 C 36.5723 -14.0137 31.543 -17.8223 30.0293 -22.3145 C 29.8828 -22.6562 29.7852 -23.0957 29.7852 -23.584 C 29.7852 -24.4141 30.3223 -25 31.1035 -25 C 31.9336 -25 32.2754 -24.5605 32.5195 -23.7305 C 33.8867 -19.3359 38.2812 -16.6016 43.0176 -16.6016 C 49.6582 -16.6016 54.1016 -20.4102 54.1016 -25.8301 C 54.1016 -30.8594 49.6094 -34.7168 43.6523 -34.7168 L 39.1602 -34.7168 C 38.3789 -34.7168 37.8906 -35.2051 37.8906 -35.9863 C 37.8906 -36.8164 38.4277 -37.3047 39.1602 -37.3047 L 43.2129 -37.3047 C 48.6816 -37.3047 52.6855 -41.0645 52.6855 -45.8496 C 52.6855 -50.6836 48.7793 -53.9551 42.9688 -53.9551 C 37.793 -53.9551 34.082 -50.9766 33.3984 -46.8262 C 33.2031 -45.8008 32.7148 -45.459 32.0801 -45.459 C 31.0059 -45.459 30.6641 -46.0449 30.6641 -46.9727 C 30.6641 -47.3633 30.7129 -47.8516 30.8594 -48.291 C 32.0312 -53.418 37.2559 -56.4941 42.9688 -56.4941 C 50.1953 -56.4941 55.4199 -52.1973 55.4199 -46.0938 C 55.4199 -41.4551 51.8555 -37.0117 47.168 -36.1816 L 47.168 -36.1328 C 52.6855 -35.498 56.8359 -31.1035 56.8359 -25.8301 C 56.8359 -18.9941 51.0254 -14.0137 43.0176 -14.0137 Z M 77.9297 -14.3066 C 77.1973 -14.3066 76.6602 -14.7949 76.6602 -15.625 L 76.6602 -52.9297 L 76.4648 -52.9297 L 66.9922 -46.7773 C 66.6992 -46.6309 66.5527 -46.6309 66.3574 -46.6309 C 65.5762 -46.6309 65.1367 -47.2168 65.1367 -47.8516 C 65.1367 -48.291 65.2344 -48.6328 65.7715 -48.9746 L 76.2207 -55.7617 C 76.709 -56.0547 77.0996 -56.2012 77.7344 -56.2012 C 78.5156 -56.2012 79.1992 -55.7129 79.1992 -54.7852 L 79.1992 -15.625 C 79.1992 -14.7949 78.7598 -14.3066 77.9297 -14.3066 Z"/>
  </g>
  <g id="Black-S" transform="matrix(1 0 0 1 2884.57 696)">
   <path d="M 48.8281 6.78711 C 71.9727 6.78711 90.8203 -12.0605 90.8203 -35.2051 C 90.8203 -58.3496 71.9727 -77.1973 48.8281 -77.1973 C 25.6836 -77.1973 6.83594 -58.3496 6.83594 -35.2051 C 6.83594 -12.0605 25.6836 6.78711 48.8281 6.78711 Z M 63.916 -20.2637 C 61.1328 -20.2637 59.8633 -21.8262 59.8633 -25.0977 L 59.8633 -40.3809 L 59.7168 -40.3809 L 58.5449 -38.9648 C 57.6172 -37.793 56.7871 -37.207 55.3223 -37.207 C 53.5645 -37.207 52.1484 -38.7207 52.1484 -40.4785 C 52.1484 -42.041 52.7832 -43.1641 54.3457 -44.6777 L 57.6172 -47.8027 C 59.668 -49.8047 61.084 -50.2441 62.7441 -50.2441 C 66.2109 -50.2441 67.9199 -48.2422 67.9199 -44.7266 L 67.9199 -25.0977 C 67.9199 -21.8262 66.6016 -20.2637 63.916 -20.2637 Z M 39.209 -20.2637 C 34.8145 -20.2637 30.8594 -22.998 29.9805 -25.8789 C 29.7363 -26.5625 29.5898 -27.1973 29.5898 -27.8809 C 29.5898 -30.127 31.3965 -31.2988 32.959 -31.2988 C 34.4238 -31.2988 35.498 -30.7129 36.2793 -29.6387 C 37.1582 -28.3691 38.3301 -27.832 39.3555 -27.832 C 40.4785 -27.832 41.2109 -28.7109 41.2109 -29.6387 C 41.2109 -30.8105 40.4785 -31.543 39.1602 -31.543 L 39.1113 -31.543 C 36.4258 -31.543 35.3027 -33.1055 35.3027 -35.3516 C 35.3027 -37.5488 36.6699 -39.1113 39.1113 -39.1113 L 39.1602 -39.1113 C 40.4785 -39.1113 40.918 -40.1367 40.918 -41.0156 C 40.918 -42.2852 40.1367 -43.0664 39.1113 -43.0664 C 38.0371 -43.0664 37.2559 -42.4805 36.377 -41.2598 C 35.6445 -40.2344 34.6191 -39.502 33.1055 -39.502 C 31.25 -39.502 29.9316 -40.7227 29.9316 -42.9199 C 29.9316 -43.6523 30.0781 -44.3359 30.4688 -45.2637 C 31.3965 -47.3633 34.5215 -50.2441 39.209 -50.2441 C 45.2637 -50.2441 49.0234 -47.1191 49.0234 -42.2363 C 49.0234 -39.4043 47.0703 -36.7188 44.4824 -36.2793 L 44.4824 -35.9375 C 47.5586 -35.6934 49.6094 -32.7148 49.6094 -29.1016 C 49.6094 -23.6816 45.6055 -20.2637 39.209 -20.2637 Z"/>
  </g>
  <g id="Heavy-S" transform="matrix(1 0 0 1 2588.47 696)">
   <path d="M 48.2422 6.15234 C 70.9961 6.15234 89.5996 -12.4512 89.5996 -35.2051 C 89.5996 -57.959 70.9961 -76.6113 48.1934 -76.6113 C 25.4395 -76.6113 6.83594 -57.959 6.83594 -35.2051 C 6.83594 -12.4512 25.4395 6.15234 48.2422 6.15234 Z M 38.3789 -19.6777 C 33.7402 -19.6777 29.6875 -22.5586 28.7598 -25.6836 C 28.5156 -26.3184 28.418 -26.9043 28.418 -27.5879 C 28.418 -29.6387 30.0781 -30.8105 31.5918 -30.8105 C 33.0078 -30.8105 33.9844 -30.1758 34.7168 -29.0527 C 35.6445 -27.4414 37.0117 -26.6602 38.5254 -26.6602 C 40.2344 -26.6602 41.3574 -27.8809 41.3574 -29.2969 C 41.3574 -30.9082 40.2832 -31.9336 38.4277 -31.9336 L 37.8906 -31.9336 C 35.498 -31.9336 34.375 -33.3984 34.375 -35.4492 C 34.375 -37.5 35.6934 -38.9648 37.8906 -38.9648 L 38.3789 -38.9648 C 40.0879 -38.9648 40.918 -40.1855 40.918 -41.5039 C 40.918 -43.1152 39.8438 -44.1406 38.3789 -44.1406 C 36.8652 -44.1406 35.8398 -43.3594 34.9609 -41.748 C 34.2773 -40.625 33.3496 -39.9414 31.8359 -39.9414 C 30.0781 -39.9414 28.8086 -41.1133 28.8086 -43.1641 C 28.8086 -43.8965 28.9551 -44.4824 29.248 -45.3125 C 30.2246 -47.8516 33.5449 -50.8301 38.4766 -50.8301 C 44.5312 -50.8301 48.3887 -47.5586 48.3887 -42.627 C 48.3887 -39.5508 46.2891 -36.7188 43.5547 -36.2793 L 43.5547 -35.9375 C 46.875 -35.6445 49.1211 -32.5684 49.1211 -28.8086 C 49.1211 -23.291 44.9219 -19.6777 38.3789 -19.6777 Z M 63.916 -19.7754 C 61.377 -19.7754 60.1562 -21.2891 60.1562 -24.1699 L 60.1562 -41.5527 L 59.9609 -41.5527 L 58.2031 -39.7949 C 57.2266 -38.6719 56.4941 -38.2324 55.2246 -38.2324 C 53.5645 -38.2324 52.1973 -39.6484 52.1973 -41.3574 C 52.1973 -42.8711 52.7832 -43.8965 54.248 -45.2148 L 58.0566 -48.5352 C 60.0098 -50.3418 61.3281 -50.7812 62.9395 -50.7812 C 66.0156 -50.7812 67.627 -48.9258 67.627 -45.752 L 67.627 -24.1699 C 67.627 -21.2891 66.3574 -19.7754 63.916 -19.7754 Z"/>
  </g>
  <g id="Bold-S" transform="matrix(1 0 0 1 2292.44 696)">
   <path d="M 47.5586 5.46875 C 69.873 5.46875 88.2324 -12.8906 88.2324 -35.2051 C 88.2324 -57.5684 69.873 -75.9277 47.5098 -75.9277 C 25.1953 -75.9277 6.83594 -57.5684 6.83594 -35.2051 C 6.83594 -12.8906 25.1953 5.46875 47.5586 5.46875 Z M 37.4512 -19.043 C 32.5195 -19.043 28.3691 -22.1191 27.3926 -25.4395 C 27.1973 -26.0254 27.0996 -26.5625 27.0996 -27.1973 C 27.0996 -29.1016 28.5645 -30.2246 30.0781 -30.2246 C 31.4453 -30.2246 32.3242 -29.6387 33.0078 -28.3691 C 33.9844 -26.416 35.498 -25.3906 37.5488 -25.3906 C 39.9414 -25.3906 41.5527 -26.9531 41.5527 -28.8574 C 41.5527 -31.0059 40.0879 -32.373 37.5977 -32.373 L 36.5234 -32.373 C 34.4238 -32.373 33.3984 -33.7402 33.3984 -35.5469 C 33.3984 -37.4512 34.5703 -38.7695 36.5234 -38.7695 L 37.5 -38.7695 C 39.6484 -38.7695 40.918 -40.2344 40.918 -42.0898 C 40.918 -43.9941 39.502 -45.3125 37.5488 -45.3125 C 35.5469 -45.3125 34.2285 -44.3359 33.3496 -42.334 C 32.7637 -41.1133 31.8848 -40.4297 30.4688 -40.4297 C 28.7598 -40.4297 27.5879 -41.5527 27.5879 -43.457 C 27.5879 -44.1406 27.6855 -44.6777 27.9297 -45.4102 C 28.9062 -48.4375 32.4707 -51.4648 37.6465 -51.4648 C 43.7012 -51.4648 47.7051 -48.0957 47.7051 -43.0176 C 47.7051 -39.7461 45.459 -36.7188 42.5293 -36.2305 L 42.5293 -35.9375 C 46.0938 -35.5957 48.5352 -32.4219 48.5352 -28.4668 C 48.5352 -22.8027 44.1406 -19.043 37.4512 -19.043 Z M 63.8672 -19.2871 C 61.6211 -19.2871 60.4492 -20.6543 60.4492 -23.1445 L 60.4492 -42.8223 L 60.2539 -42.8223 L 57.8125 -40.7227 C 56.8359 -39.6973 56.2012 -39.3555 55.0781 -39.3555 C 53.5645 -39.3555 52.1973 -40.7227 52.1973 -42.3828 C 52.1973 -43.75 52.832 -44.7266 54.1016 -45.8008 L 58.5449 -49.3164 C 60.4004 -50.8789 61.5723 -51.3672 63.1348 -51.3672 C 65.7715 -51.3672 67.2852 -49.6582 67.2852 -46.9238 L 67.2852 -23.1445 C 67.2852 -20.6543 66.0645 -19.2871 63.8672 -19.2871 Z"/>
  </g>
  <g id="Semibold-S" transform="matrix(1 0 0 1 1996.2 696)">
   <path d="M 47.0703 4.98047 C 69.0918 4.98047 87.3047 -13.1836 87.3047 -35.2539 C 87.3047 -57.2754 69.0918 -75.4883 47.0215 -75.4883 C 25 -75.4883 6.83594 -57.2754 6.83594 -35.2539 C 6.83594 -13.1836 25.0488 4.98047 47.0703 4.98047 Z M 36.8164 -18.6035 C 31.6406 -18.6035 27.4414 -21.7773 26.4648 -25.2441 C 26.2695 -25.8789 26.1719 -26.3184 26.1719 -26.9531 C 26.1719 -28.7598 27.5391 -29.8828 29.0039 -29.8828 C 30.3223 -29.8828 31.2012 -29.1992 31.8359 -27.9297 C 32.8125 -25.6836 34.5215 -24.5117 36.9141 -24.5117 C 39.7461 -24.5117 41.6504 -26.3184 41.6504 -28.6133 C 41.6504 -31.1035 39.8926 -32.666 37.0117 -32.666 L 35.5469 -32.666 C 33.6914 -32.666 32.666 -33.9355 32.666 -35.6445 C 32.666 -37.4023 33.7891 -38.623 35.5469 -38.623 L 36.8652 -38.623 C 39.3555 -38.623 40.918 -40.2832 40.918 -42.4805 C 40.918 -44.6289 39.2578 -46.0938 36.9629 -46.0938 C 34.6191 -46.0938 33.1543 -45.0195 32.2266 -42.7246 C 31.6895 -41.4062 30.9082 -40.7227 29.4922 -40.7227 C 27.8809 -40.7227 26.7578 -41.8945 26.7578 -43.6523 C 26.7578 -44.2871 26.8066 -44.7754 27.002 -45.459 C 28.0273 -48.7793 31.7383 -51.9043 37.1094 -51.9043 C 43.1641 -51.9043 47.2656 -48.4375 47.2656 -43.3105 C 47.2656 -39.8926 44.873 -36.7188 41.7969 -36.2305 L 41.7969 -35.9375 C 45.5566 -35.5957 48.1445 -32.3242 48.1445 -28.2227 C 48.1445 -22.5098 43.6035 -18.6035 36.8164 -18.6035 Z M 63.8672 -18.8965 C 61.8164 -18.8965 60.6445 -20.2148 60.6445 -22.4609 L 60.6445 -43.7012 L 60.4492 -43.7012 L 57.5684 -41.3086 C 56.543 -40.3809 56.0059 -40.1855 55.0293 -40.1855 C 53.5645 -40.1855 52.2461 -41.4551 52.2461 -43.0664 C 52.2461 -44.3848 52.832 -45.2637 54.0039 -46.1914 L 58.8867 -49.9023 C 60.6445 -51.2695 61.7188 -51.7578 63.2324 -51.7578 C 65.625 -51.7578 67.0898 -50.1953 67.0898 -47.7539 L 67.0898 -22.4609 C 67.0898 -20.2148 65.8691 -18.8965 63.8672 -18.8965 Z"/>
  </g>
  <g id="Medium-S" transform="matrix(1 0 0 1 1699.83 696)">
   <path d="M 46.7285 4.63867 C 68.5547 4.63867 86.6211 -13.4277 86.6211 -35.2539 C 86.6211 -57.0312 68.5059 -75.1465 46.6797 -75.1465 C 24.8535 -75.1465 6.83594 -57.0312 6.83594 -35.2539 C 6.83594 -13.4277 24.9023 4.63867 46.7285 4.63867 Z M 36.377 -18.2617 C 31.0059 -18.2617 26.7578 -21.5332 25.7812 -25.1465 C 25.5371 -25.7324 25.4883 -26.1719 25.4883 -26.7578 C 25.4883 -28.4668 26.7578 -29.5898 28.2227 -29.5898 C 29.4922 -29.5898 30.3223 -28.9062 30.9082 -27.5391 C 31.9824 -25.1465 33.7402 -23.8281 36.4258 -23.8281 C 39.5996 -23.8281 41.748 -25.8301 41.748 -28.3691 C 41.748 -31.1523 39.7949 -32.9102 36.5723 -32.9102 L 34.8633 -32.9102 C 33.1543 -32.9102 32.1289 -34.1309 32.1289 -35.6934 C 32.1289 -37.4023 33.2031 -38.5254 34.8633 -38.5254 L 36.4258 -38.5254 C 39.1113 -38.5254 40.918 -40.332 40.918 -42.7734 C 40.918 -45.1172 39.0625 -46.7285 36.5234 -46.7285 C 33.9355 -46.7285 32.3242 -45.5078 31.3965 -43.0176 C 30.9082 -41.6504 30.127 -40.9668 28.7598 -40.9668 C 27.1973 -40.9668 26.123 -42.0898 26.123 -43.7988 C 26.123 -44.4336 26.123 -44.873 26.2695 -45.5078 C 27.3438 -49.0723 31.2012 -52.2461 36.6699 -52.2461 C 42.7246 -52.2461 46.875 -48.6816 46.875 -43.5547 C 46.875 -39.9414 44.3848 -36.7188 41.2598 -36.2305 L 41.2598 -35.9375 C 45.1172 -35.5469 47.8516 -32.2266 47.8516 -28.0762 C 47.8516 -22.2656 43.2129 -18.2617 36.377 -18.2617 Z M 63.8184 -18.6523 C 61.9629 -18.6523 60.8398 -19.873 60.8398 -21.9238 L 60.8398 -44.3848 L 60.5957 -44.3848 L 57.373 -41.7969 C 56.3477 -40.918 55.8105 -40.7715 54.9316 -40.7715 C 53.5645 -40.7715 52.2461 -41.9922 52.2461 -43.6035 C 52.2461 -44.8242 52.8809 -45.7031 53.9062 -46.5332 L 59.1309 -50.293 C 60.8398 -51.6113 61.8652 -52.0508 63.3301 -52.0508 C 65.5273 -52.0508 66.8945 -50.5859 66.8945 -48.3398 L 66.8945 -21.9238 C 66.8945 -19.873 65.7227 -18.6523 63.8184 -18.6523 Z"/>
  </g>
  <g id="Regular-S" transform="matrix(1 0 0 1 1403.58 696)">
   <path d="M 46.2402 4.15039 C 67.7734 4.15039 85.6934 -13.7207 85.6934 -35.2539 C 85.6934 -56.7871 67.7246 -74.6582 46.1914 -74.6582 C 24.707 -74.6582 6.83594 -56.7871 6.83594 -35.2539 C 6.83594 -13.7207 24.7559 4.15039 46.2402 4.15039 Z M 35.7422 -17.8223 C 30.1758 -17.8223 25.8789 -21.1914 24.8535 -24.9512 C 24.6582 -25.5371 24.6094 -25.9277 24.6094 -26.5625 C 24.6094 -28.0762 25.7324 -29.1992 27.1973 -29.1992 C 28.418 -29.1992 29.1992 -28.5156 29.7363 -27.0996 C 30.8105 -24.4141 32.7148 -22.9492 35.791 -22.9492 C 39.3555 -22.9492 41.8945 -25.1953 41.8945 -28.125 C 41.8945 -31.25 39.6484 -33.2031 36.0352 -33.2031 L 33.8867 -33.2031 C 32.4219 -33.2031 31.4453 -34.3262 31.4453 -35.7422 C 31.4453 -37.3535 32.4219 -38.3789 33.8867 -38.3789 L 35.8398 -38.3789 C 38.8184 -38.3789 40.8691 -40.332 40.8691 -43.1152 C 40.8691 -45.752 38.8184 -47.5586 35.9375 -47.5586 C 33.0078 -47.5586 31.25 -46.1914 30.2734 -43.4082 C 29.8828 -41.9922 29.1504 -41.3086 27.832 -41.3086 C 26.3184 -41.3086 25.293 -42.3828 25.293 -43.9941 C 25.293 -44.5801 25.293 -44.9707 25.3906 -45.5566 C 26.416 -49.4629 30.4688 -52.6855 36.084 -52.6855 C 42.1875 -52.6855 46.4355 -49.0234 46.4355 -43.8477 C 46.4355 -40.0879 43.7988 -36.7188 40.5762 -36.2305 L 40.5762 -35.9375 C 44.5801 -35.5469 47.5098 -32.1289 47.5098 -27.832 C 47.5098 -21.9727 42.6758 -17.8223 35.7422 -17.8223 Z M 63.8184 -18.3105 C 62.1094 -18.3105 61.0352 -19.4824 61.0352 -21.1914 L 61.0352 -45.2637 L 60.791 -45.2637 L 57.1289 -42.4316 C 56.0547 -41.6016 55.6152 -41.5527 54.8828 -41.5527 C 53.6133 -41.5527 52.2949 -42.7246 52.2949 -44.2871 C 52.2949 -45.459 52.8809 -46.2402 53.8086 -46.9238 L 59.4727 -50.8789 C 61.1328 -52.002 62.0117 -52.4414 63.4766 -52.4414 C 65.3809 -52.4414 66.6992 -51.0742 66.6992 -49.1699 L 66.6992 -21.1914 C 66.6992 -19.4824 65.5273 -18.3105 63.8184 -18.3105 Z"/>
  </g>
  <g id="Light-S" transform="matrix(1 0 0 1 1107.6 696)">
   <path d="M 45.5078 3.4668 C 66.6992 3.4668 84.2285 -14.0625 84.2285 -35.2051 C 84.2285 -56.3965 66.6504 -73.9258 45.5078 -73.9258 C 24.3164 -73.9258 6.83594 -56.3965 6.83594 -35.2051 C 6.83594 -14.0625 24.3652 3.4668 45.5078 3.4668 Z M 35.1074 -18.0664 C 29.6875 -18.0664 25.4883 -21.3379 24.4141 -25 C 24.2676 -25.4883 24.1699 -25.8789 24.1699 -26.416 C 24.1699 -27.6855 25.0977 -28.5645 26.3184 -28.5645 C 27.3438 -28.5645 27.9785 -28.0273 28.418 -26.8066 C 29.4922 -23.9258 31.8848 -22.2168 35.1074 -22.2168 C 39.209 -22.2168 42.041 -24.707 42.041 -28.0273 C 42.041 -31.3965 39.4043 -33.6914 35.4492 -33.6914 L 32.9102 -33.6914 C 31.6895 -33.6914 30.9082 -34.6191 30.9082 -35.791 C 30.9082 -37.0605 31.6895 -37.8906 32.9102 -37.8906 L 35.2051 -37.8906 C 38.623 -37.8906 41.0156 -40.1855 41.0156 -43.2617 C 41.0156 -46.2402 38.623 -48.291 35.2539 -48.291 C 31.9336 -48.291 29.834 -46.6309 29.0039 -43.7012 C 28.6621 -42.4805 28.0762 -41.8945 27.002 -41.8945 C 25.6836 -41.8945 24.8535 -42.8223 24.8535 -44.1406 C 24.8535 -44.6289 24.9023 -45.0195 25 -45.5078 C 26.0254 -49.4629 30.0293 -52.4414 35.3516 -52.4414 C 41.2598 -52.4414 45.459 -48.877 45.459 -43.7988 C 45.459 -40.0879 42.8223 -36.6699 39.4531 -36.1328 L 39.4531 -35.9375 C 43.5547 -35.498 46.582 -32.0801 46.582 -27.832 C 46.582 -22.1191 41.8457 -18.0664 35.1074 -18.0664 Z M 62.9395 -18.457 C 61.6211 -18.457 60.7422 -19.3848 60.7422 -20.8008 L 60.7422 -46.4844 L 60.498 -46.4844 L 55.6641 -43.0176 C 54.834 -42.3828 54.541 -42.3828 53.9551 -42.3828 C 52.8809 -42.3828 51.8555 -43.3105 51.8555 -44.5312 C 51.8555 -45.459 52.3438 -46.0938 53.125 -46.6309 L 59.5703 -51.0254 C 60.791 -51.8555 61.5234 -52.1973 62.6953 -52.1973 C 64.1602 -52.1973 65.2344 -51.123 65.2344 -49.6094 L 65.2344 -20.8008 C 65.2344 -19.3848 64.3066 -18.457 62.9395 -18.457 Z"/>
  </g>
  <g id="Thin-S" transform="matrix(1 0 0 1 811.867 696)">
   <path d="M 44.5801 2.53906 C 65.2832 2.53906 82.2754 -14.4531 82.2754 -35.2051 C 82.2754 -55.9082 65.2344 -72.9004 44.5312 -72.9004 C 23.8281 -72.9004 6.83594 -55.9082 6.83594 -35.2051 C 6.83594 -14.4531 23.877 2.53906 44.5801 2.53906 Z M 34.2773 -18.4082 C 29.0527 -18.4082 25 -21.4844 23.877 -25.0488 C 23.7793 -25.4395 23.6816 -25.7812 23.6816 -26.2207 C 23.6816 -27.0996 24.3164 -27.7832 25.1465 -27.7832 C 25.9277 -27.7832 26.3672 -27.3438 26.6602 -26.4648 C 27.7344 -23.2422 30.7617 -21.2891 34.2773 -21.2891 C 39.0625 -21.2891 42.2363 -24.0723 42.2363 -27.9297 C 42.2363 -31.6406 39.0625 -34.375 34.7168 -34.375 L 31.543 -34.375 C 30.7129 -34.375 30.1758 -34.9609 30.1758 -35.791 C 30.1758 -36.7188 30.7617 -37.2559 31.543 -37.2559 L 34.4238 -37.2559 C 38.3301 -37.2559 41.1621 -39.9414 41.1621 -43.457 C 41.1621 -46.875 38.3789 -49.2188 34.2773 -49.2188 C 30.5176 -49.2188 27.9297 -47.168 27.2949 -44.043 C 27.0996 -43.1152 26.6113 -42.7246 25.8789 -42.7246 C 24.8535 -42.7246 24.3652 -43.3594 24.3652 -44.2871 C 24.3652 -44.6777 24.4141 -45.0684 24.5117 -45.5078 C 25.4395 -49.4629 29.541 -52.0996 34.3262 -52.0996 C 40.0879 -52.0996 44.2383 -48.6816 44.2383 -43.7988 C 44.2383 -40.0879 41.5039 -36.6699 37.9395 -36.0352 L 37.9395 -35.9375 C 42.1875 -35.498 45.3613 -32.0312 45.3613 -27.8809 C 45.3613 -22.3633 40.7227 -18.4082 34.2773 -18.4082 Z M 61.8164 -18.7012 C 60.9375 -18.7012 60.3027 -19.2871 60.3027 -20.2148 L 60.3027 -48.0469 L 60.1562 -48.0469 L 53.7598 -43.75 C 53.2715 -43.457 53.125 -43.457 52.7832 -43.457 C 52.002 -43.457 51.3672 -44.0918 51.3672 -44.873 C 51.3672 -45.459 51.6113 -45.8984 52.1484 -46.2402 L 59.668 -51.1719 C 60.4004 -51.6602 60.8398 -51.8555 61.6211 -51.8555 C 62.5977 -51.8555 63.3301 -51.2207 63.3301 -50.1465 L 63.3301 -20.2148 C 63.3301 -19.2871 62.7441 -18.7012 61.8164 -18.7012 Z"/>
  </g>
  <g id="Ultralight-S" transform="matrix(1 0 0 1 515.644 696)">
   <path d="M 44.043 2.05078 C 64.502 2.05078 81.2988 -14.6973 81.2988 -35.1562 C 81.2988 -55.6152 64.502 -72.3633 44.043 -72.3633 C 23.584 -72.3633 6.83594 -55.6152 6.83594 -35.1562 C 6.83594 -14.6973 23.584 2.05078 44.043 2.05078 Z M 33.8379 -18.5547 C 28.7598 -18.5547 24.7559 -21.582 23.584 -25.0977 C 23.4863 -25.3906 23.3887 -25.7324 23.3887 -26.123 C 23.3887 -26.8066 23.877 -27.3438 24.5605 -27.3438 C 25.1953 -27.3438 25.5371 -27.002 25.7324 -26.2695 C 26.8066 -22.9004 30.1758 -20.752 33.8379 -20.752 C 38.916 -20.752 42.334 -23.7305 42.334 -27.8809 C 42.334 -31.7383 38.916 -34.7168 34.3262 -34.7168 L 30.8594 -34.7168 C 30.1758 -34.7168 29.7852 -35.1562 29.7852 -35.8398 C 29.7852 -36.5234 30.2246 -36.9629 30.8594 -36.9629 L 33.9844 -36.9629 C 38.1836 -36.9629 41.2598 -39.8438 41.2598 -43.5547 C 41.2598 -47.2168 38.2812 -49.7559 33.7891 -49.7559 C 29.7852 -49.7559 27.002 -47.5098 26.416 -44.2383 C 26.2695 -43.4082 25.8789 -43.1152 25.293 -43.1152 C 24.4141 -43.1152 24.0723 -43.6523 24.0723 -44.4336 C 24.0723 -44.7266 24.1211 -45.1172 24.2188 -45.459 C 25.1465 -49.4629 29.248 -51.9531 33.7891 -51.9531 C 39.502 -51.9531 43.6035 -48.584 43.6035 -43.75 C 43.6035 -40.0879 40.8203 -36.6211 37.207 -35.9863 L 37.207 -35.9375 C 41.4551 -35.4492 44.7266 -31.9824 44.7266 -27.8809 C 44.7266 -22.4609 40.1367 -18.5547 33.8379 -18.5547 Z M 61.2305 -18.7988 C 60.5957 -18.7988 60.1074 -19.2383 60.1074 -19.9219 L 60.1074 -48.8281 L 59.9609 -48.8281 L 52.7832 -44.1406 C 52.4902 -43.9941 52.3438 -43.9941 52.1484 -43.9941 C 51.5137 -43.9941 51.0742 -44.4824 51.0742 -45.0684 C 51.0742 -45.459 51.2207 -45.8008 51.6602 -46.0449 L 59.7168 -51.3184 C 60.1562 -51.5625 60.498 -51.709 61.084 -51.709 C 61.7676 -51.709 62.3535 -51.2695 62.3535 -50.4883 L 62.3535 -19.9219 C 62.3535 -19.2383 61.9629 -18.7988 61.2305 -18.7988 Z"/>
  </g>
 </g>
</svg>
