<?xml version="1.0" encoding="UTF-8"?>
<!--Generator: Apple Native CoreSVG 123-->
<!DOCTYPE svg
PUBLIC "-//W3C//DTD SVG 1.1//EN"
       "http://www.w3.org/Graphics/SVG/1.1/DTD/svg11.dtd">
<svg version="1.1" xmlns="http://www.w3.org/2000/svg" xmlns:xlink="http://www.w3.org/1999/xlink" width="3300" height="2200">
 <!--glyph: "uni100698.medium", point size: 100.000000, font version: "Version 15.0d7e11", template writer version: "5"-->
 <g id="Notes">
  <rect height="2200" id="artboard" style="fill:white;opacity:1" width="3300" x="0" y="0"/>
  <line id="" style="fill:none;stroke:black;opacity:1;stroke-width:0.5;" x1="263" x2="3036" y1="292" y2="292"/>
  <text style="stroke:none;fill:black;font-family:-apple-system,&quot;SF Pro Display&quot;,&quot;SF Pro Text&quot;,Helvetica,sans-serif;font-weight:bold;" transform="matrix(1 0 0 1 263 322)">Weight/Scale Variations</text>
  <text style="stroke:none;fill:black;font-family:-apple-system,&quot;SF Pro Display&quot;,&quot;SF Pro Text&quot;,Helvetica,sans-serif;text-anchor:middle;" transform="matrix(1 0 0 1 559.711 322)">Ultralight</text>
  <text style="stroke:none;fill:black;font-family:-apple-system,&quot;SF Pro Display&quot;,&quot;SF Pro Text&quot;,Helvetica,sans-serif;text-anchor:middle;" transform="matrix(1 0 0 1 856.422 322)">Thin</text>
  <text style="stroke:none;fill:black;font-family:-apple-system,&quot;SF Pro Display&quot;,&quot;SF Pro Text&quot;,Helvetica,sans-serif;text-anchor:middle;" transform="matrix(1 0 0 1 1153.13 322)">Light</text>
  <text style="stroke:none;fill:black;font-family:-apple-system,&quot;SF Pro Display&quot;,&quot;SF Pro Text&quot;,Helvetica,sans-serif;text-anchor:middle;" transform="matrix(1 0 0 1 1449.84 322)">Regular</text>
  <text style="stroke:none;fill:black;font-family:-apple-system,&quot;SF Pro Display&quot;,&quot;SF Pro Text&quot;,Helvetica,sans-serif;text-anchor:middle;" transform="matrix(1 0 0 1 1746.56 322)">Medium</text>
  <text style="stroke:none;fill:black;font-family:-apple-system,&quot;SF Pro Display&quot;,&quot;SF Pro Text&quot;,Helvetica,sans-serif;text-anchor:middle;" transform="matrix(1 0 0 1 2043.27 322)">Semibold</text>
  <text style="stroke:none;fill:black;font-family:-apple-system,&quot;SF Pro Display&quot;,&quot;SF Pro Text&quot;,Helvetica,sans-serif;text-anchor:middle;" transform="matrix(1 0 0 1 2339.98 322)">Bold</text>
  <text style="stroke:none;fill:black;font-family:-apple-system,&quot;SF Pro Display&quot;,&quot;SF Pro Text&quot;,Helvetica,sans-serif;text-anchor:middle;" transform="matrix(1 0 0 1 2636.69 322)">Heavy</text>
  <text style="stroke:none;fill:black;font-family:-apple-system,&quot;SF Pro Display&quot;,&quot;SF Pro Text&quot;,Helvetica,sans-serif;text-anchor:middle;" transform="matrix(1 0 0 1 2933.4 322)">Black</text>
  <line id="" style="fill:none;stroke:black;opacity:1;stroke-width:0.5;" x1="263" x2="3036" y1="1903" y2="1903"/>
  <g id="" transform="matrix(1 0 0 1 263 1933)">
   <path d="M 9.24805 0.830078 C 13.5547 0.830078 17.1387 -2.74414 17.1387 -7.05078 C 17.1387 -11.3574 13.5449 -14.9316 9.23828 -14.9316 C 4.94141 -14.9316 1.36719 -11.3574 1.36719 -7.05078 C 1.36719 -2.74414 4.95117 0.830078 9.24805 0.830078 Z M 9.24805 -0.654297 C 5.70312 -0.654297 2.87109 -3.49609 2.87109 -7.05078 C 2.87109 -10.6055 5.69336 -13.4473 9.23828 -13.4473 C 12.793 -13.4473 15.6348 -10.6055 15.6445 -7.05078 C 15.6543 -3.49609 12.8027 -0.654297 9.24805 -0.654297 Z M 9.22852 -3.42773 C 9.69727 -3.42773 9.9707 -3.74023 9.9707 -4.25781 L 9.9707 -6.31836 L 12.1973 -6.31836 C 12.6953 -6.31836 13.0371 -6.57227 13.0371 -7.04102 C 13.0371 -7.51953 12.7148 -7.7832 12.1973 -7.7832 L 9.9707 -7.7832 L 9.9707 -10.0098 C 9.9707 -10.5273 9.69727 -10.8496 9.22852 -10.8496 C 8.75977 -10.8496 8.50586 -10.5078 8.50586 -10.0098 L 8.50586 -7.7832 L 6.29883 -7.7832 C 5.78125 -7.7832 5.44922 -7.51953 5.44922 -7.04102 C 5.44922 -6.57227 5.80078 -6.31836 6.29883 -6.31836 L 8.50586 -6.31836 L 8.50586 -4.25781 C 8.50586 -3.75977 8.75977 -3.42773 9.22852 -3.42773 Z"/>
  </g>
  <g id="" transform="matrix(1 0 0 1 281.506 1933)">
   <path d="M 11.709 2.91016 C 17.1582 2.91016 21.6699 -1.60156 21.6699 -7.05078 C 21.6699 -12.4902 17.1484 -17.0117 11.6992 -17.0117 C 6.25977 -17.0117 1.74805 -12.4902 1.74805 -7.05078 C 1.74805 -1.60156 6.26953 2.91016 11.709 2.91016 Z M 11.709 1.25 C 7.09961 1.25 3.41797 -2.44141 3.41797 -7.05078 C 3.41797 -11.6504 7.08984 -15.3516 11.6992 -15.3516 C 16.3086 -15.3516 20 -11.6504 20.0098 -7.05078 C 20.0195 -2.44141 16.3184 1.25 11.709 1.25 Z M 11.6895 -2.41211 C 12.207 -2.41211 12.5195 -2.77344 12.5195 -3.33984 L 12.5195 -6.23047 L 15.5762 -6.23047 C 16.123 -6.23047 16.5039 -6.51367 16.5039 -7.03125 C 16.5039 -7.55859 16.1426 -7.86133 15.5762 -7.86133 L 12.5195 -7.86133 L 12.5195 -10.9277 C 12.5195 -11.5039 12.207 -11.8555 11.6895 -11.8555 C 11.1719 -11.8555 10.8789 -11.4844 10.8789 -10.9277 L 10.8789 -7.86133 L 7.83203 -7.86133 C 7.26562 -7.86133 6.89453 -7.55859 6.89453 -7.03125 C 6.89453 -6.51367 7.28516 -6.23047 7.83203 -6.23047 L 10.8789 -6.23047 L 10.8789 -3.33984 C 10.8789 -2.79297 11.1719 -2.41211 11.6895 -2.41211 Z"/>
  </g>
  <g id="" transform="matrix(1 0 0 1 304.924 1933)">
   <path d="M 14.9707 5.67383 C 21.9336 5.67383 27.6953 -0.078125 27.6953 -7.04102 C 27.6953 -14.0039 21.9238 -19.7559 14.9609 -19.7559 C 8.00781 -19.7559 2.25586 -14.0039 2.25586 -7.04102 C 2.25586 -0.078125 8.01758 5.67383 14.9707 5.67383 Z M 14.9707 3.85742 C 8.93555 3.85742 4.08203 -1.00586 4.08203 -7.04102 C 4.08203 -13.0762 8.92578 -17.9395 14.9609 -17.9395 C 21.0059 -17.9395 25.8594 -13.0762 25.8691 -7.04102 C 25.8789 -1.00586 21.0156 3.85742 14.9707 3.85742 Z M 14.9512 -1.06445 C 15.5176 -1.06445 15.8691 -1.45508 15.8691 -2.06055 L 15.8691 -6.13281 L 20.1074 -6.13281 C 20.6934 -6.13281 21.1133 -6.46484 21.1133 -7.02148 C 21.1133 -7.59766 20.7227 -7.93945 20.1074 -7.93945 L 15.8691 -7.93945 L 15.8691 -12.1875 C 15.8691 -12.8027 15.5176 -13.1934 14.9512 -13.1934 C 14.3848 -13.1934 14.0625 -12.7832 14.0625 -12.1875 L 14.0625 -7.93945 L 9.83398 -7.93945 C 9.21875 -7.93945 8.80859 -7.59766 8.80859 -7.02148 C 8.80859 -6.46484 9.23828 -6.13281 9.83398 -6.13281 L 14.0625 -6.13281 L 14.0625 -2.06055 C 14.0625 -1.47461 14.3848 -1.06445 14.9512 -1.06445 Z"/>
  </g>
  <text style="stroke:none;fill:black;font-family:-apple-system,&quot;SF Pro Display&quot;,&quot;SF Pro Text&quot;,Helvetica,sans-serif;font-weight:bold;" transform="matrix(1 0 0 1 263 1953)">Design Variations</text>
  <text style="stroke:none;fill:black;font-family:-apple-system,&quot;SF Pro Display&quot;,&quot;SF Pro Text&quot;,Helvetica,sans-serif;" transform="matrix(1 0 0 1 263 1971)">Symbols are supported in up to nine weights and three scales.</text>
  <text style="stroke:none;fill:black;font-family:-apple-system,&quot;SF Pro Display&quot;,&quot;SF Pro Text&quot;,Helvetica,sans-serif;" transform="matrix(1 0 0 1 263 1989)">For optimal layout with text and other symbols, vertically align</text>
  <text style="stroke:none;fill:black;font-family:-apple-system,&quot;SF Pro Display&quot;,&quot;SF Pro Text&quot;,Helvetica,sans-serif;" transform="matrix(1 0 0 1 263 2007)">symbols with the adjacent text.</text>
  <rect height="14" id="" style="fill:#00AEEF;stroke:none;opacity:0.4;" width="3" x="776" y="1919"/>
  <g id="" transform="matrix(1 0 0 1 779 1933)">
   <path d="M 10.5273 0 L 12.373 0 L 7.17773 -14.0918 L 5.43945 -14.0918 L 0.244141 0 L 2.08984 0 L 3.50586 -4.0332 L 9.11133 -4.0332 Z M 6.2793 -11.9531 L 6.33789 -11.9531 L 8.59375 -5.52734 L 4.02344 -5.52734 Z"/>
  </g>
  <rect height="14" id="" style="fill:#00AEEF;stroke:none;opacity:0.4;" width="3" x="791.617" y="1919"/>
  <text style="stroke:none;fill:black;font-family:-apple-system,&quot;SF Pro Display&quot;,&quot;SF Pro Text&quot;,Helvetica,sans-serif;font-weight:bold;" transform="matrix(1 0 0 1 776 1953)">Margins</text>
  <text style="stroke:none;fill:black;font-family:-apple-system,&quot;SF Pro Display&quot;,&quot;SF Pro Text&quot;,Helvetica,sans-serif;" transform="matrix(1 0 0 1 776 1971)">Leading and trailing margins on the left and right side of each symbol</text>
  <text style="stroke:none;fill:black;font-family:-apple-system,&quot;SF Pro Display&quot;,&quot;SF Pro Text&quot;,Helvetica,sans-serif;" transform="matrix(1 0 0 1 776 1989)">can be adjusted by modifying the width of the blue rectangles.</text>
  <text style="stroke:none;fill:black;font-family:-apple-system,&quot;SF Pro Display&quot;,&quot;SF Pro Text&quot;,Helvetica,sans-serif;" transform="matrix(1 0 0 1 776 2007)">Modifications are automatically applied proportionally to all</text>
  <text style="stroke:none;fill:black;font-family:-apple-system,&quot;SF Pro Display&quot;,&quot;SF Pro Text&quot;,Helvetica,sans-serif;" transform="matrix(1 0 0 1 776 2025)">scales and weights.</text>
  <g id="" transform="matrix(1 0 0 1 1289 1933)">
   <path d="M 2.83203 3.11523 L 4.375 4.6582 C 5.22461 5.48828 6.19141 5.41992 7.06055 4.46289 L 17.2754 -6.66016 C 17.7051 -6.36719 18.0957 -6.37695 18.5645 -6.47461 L 19.6094 -6.68945 L 20.3027 -5.99609 L 20.2539 -5.47852 C 20.1855 -4.95117 20.3516 -4.53125 20.8496 -4.0332 L 21.6602 -3.22266 C 22.168 -2.71484 22.8223 -2.68555 23.3008 -3.16406 L 26.5527 -6.41602 C 27.0312 -6.89453 27.0117 -7.54883 26.5039 -8.05664 L 25.6836 -8.87695 C 25.1855 -9.375 24.7754 -9.55078 24.2383 -9.47266 L 23.7109 -9.41406 L 23.0566 -10.0781 L 23.3398 -11.2207 C 23.4863 -11.7871 23.3398 -12.2559 22.7148 -12.8613 L 20.3027 -15.2539 C 16.7578 -18.7793 12.2266 -18.6719 9.11133 -15.5371 C 8.69141 -15.1074 8.64258 -14.5215 8.91602 -14.0918 C 9.15039 -13.7207 9.62891 -13.4961 10.2734 -13.6621 C 11.7871 -14.043 13.3008 -13.9258 14.7852 -12.9199 L 14.1602 -11.3379 C 13.9258 -10.752 13.9453 -10.2734 14.1797 -9.83398 L 3.01758 0.439453 C 2.08008 1.30859 1.97266 2.25586 2.83203 3.11523 Z M 10.6738 -15.1465 C 13.3398 -17.1387 16.6504 -16.8262 19.0527 -14.4141 L 21.6797 -11.8066 C 21.9141 -11.5723 21.9434 -11.3867 21.8848 -11.0938 L 21.5039 -9.53125 L 23.0762 -7.95898 L 24.043 -8.04688 C 24.3262 -8.07617 24.4141 -8.05664 24.6387 -7.83203 L 25.2637 -7.20703 L 22.5098 -4.46289 L 21.8848 -5.07812 C 21.6602 -5.30273 21.6406 -5.40039 21.6699 -5.68359 L 21.7578 -6.64062 L 20.1953 -8.20312 L 18.5742 -7.89062 C 18.291 -7.83203 18.1445 -7.83203 17.9102 -8.07617 L 15.7324 -10.2539 C 15.5078 -10.4883 15.4785 -10.625 15.6055 -10.9473 L 16.5527 -13.2227 C 14.9512 -14.7559 12.8418 -15.6055 10.8008 -14.9512 C 10.7129 -14.9219 10.6445 -14.9414 10.6152 -14.9805 C 10.5859 -15.0293 10.5859 -15.0781 10.6738 -15.1465 Z M 4.10156 2.41211 C 3.61328 1.91406 3.78906 1.61133 4.12109 1.30859 L 15.0781 -8.80859 L 16.3086 -7.57812 L 6.15234 3.34961 C 5.84961 3.68164 5.46875 3.7793 5.06836 3.37891 Z"/>
  </g>
  <text style="stroke:none;fill:black;font-family:-apple-system,&quot;SF Pro Display&quot;,&quot;SF Pro Text&quot;,Helvetica,sans-serif;font-weight:bold;" transform="matrix(1 0 0 1 1289 1953)">Exporting</text>
  <text style="stroke:none;fill:black;font-family:-apple-system,&quot;SF Pro Display&quot;,&quot;SF Pro Text&quot;,Helvetica,sans-serif;" transform="matrix(1 0 0 1 1289 1971)">Symbols should be outlined when exporting to ensure the</text>
  <text style="stroke:none;fill:black;font-family:-apple-system,&quot;SF Pro Display&quot;,&quot;SF Pro Text&quot;,Helvetica,sans-serif;" transform="matrix(1 0 0 1 1289 1989)">design is preserved when submitting to Xcode.</text>
  <text id="template-version" style="stroke:none;fill:black;font-family:-apple-system,&quot;SF Pro Display&quot;,&quot;SF Pro Text&quot;,Helvetica,sans-serif;text-anchor:end;" transform="matrix(1 0 0 1 3036 1933)">Template v.1.0</text>
  <text style="stroke:none;fill:black;font-family:-apple-system,&quot;SF Pro Display&quot;,&quot;SF Pro Text&quot;,Helvetica,sans-serif;text-anchor:end;" transform="matrix(1 0 0 1 3036 1951)">Generated from 32.circle.fill</text>
  <text style="stroke:none;fill:black;font-family:-apple-system,&quot;SF Pro Display&quot;,&quot;SF Pro Text&quot;,Helvetica,sans-serif;text-anchor:end;" transform="matrix(1 0 0 1 3036 1969)">Typeset at 100 points</text>
  <text style="stroke:none;fill:black;font-family:-apple-system,&quot;SF Pro Display&quot;,&quot;SF Pro Text&quot;,Helvetica,sans-serif;" transform="matrix(1 0 0 1 263 726)">Small</text>
  <text style="stroke:none;fill:black;font-family:-apple-system,&quot;SF Pro Display&quot;,&quot;SF Pro Text&quot;,Helvetica,sans-serif;" transform="matrix(1 0 0 1 263 1156)">Medium</text>
  <text style="stroke:none;fill:black;font-family:-apple-system,&quot;SF Pro Display&quot;,&quot;SF Pro Text&quot;,Helvetica,sans-serif;" transform="matrix(1 0 0 1 263 1586)">Large</text>
 </g>
 <g id="Guides">
  <g id="H-reference" style="fill:#27AAE1;stroke:none;" transform="matrix(1 0 0 1 339 696)">
   <path d="M 54.9316 0 L 57.666 0 L 30.5664 -70.459 L 28.0762 -70.459 L 0.976562 0 L 3.66211 0 L 12.9395 -24.4629 L 45.7031 -24.4629 Z M 29.1992 -67.0898 L 29.4434 -67.0898 L 44.8242 -26.709 L 13.8184 -26.709 Z"/>
  </g>
  <line id="Baseline-S" style="fill:none;stroke:#27AAE1;opacity:1;stroke-width:0.577;" x1="263" x2="3036" y1="696" y2="696"/>
  <line id="Capline-S" style="fill:none;stroke:#27AAE1;opacity:1;stroke-width:0.577;" x1="263" x2="3036" y1="625.541" y2="625.541"/>
  <g id="H-reference" style="fill:#27AAE1;stroke:none;" transform="matrix(1 0 0 1 339 1126)">
   <path d="M 54.9316 0 L 57.666 0 L 30.5664 -70.459 L 28.0762 -70.459 L 0.976562 0 L 3.66211 0 L 12.9395 -24.4629 L 45.7031 -24.4629 Z M 29.1992 -67.0898 L 29.4434 -67.0898 L 44.8242 -26.709 L 13.8184 -26.709 Z"/>
  </g>
  <line id="Baseline-M" style="fill:none;stroke:#27AAE1;opacity:1;stroke-width:0.577;" x1="263" x2="3036" y1="1126" y2="1126"/>
  <line id="Capline-M" style="fill:none;stroke:#27AAE1;opacity:1;stroke-width:0.577;" x1="263" x2="3036" y1="1055.54" y2="1055.54"/>
  <g id="H-reference" style="fill:#27AAE1;stroke:none;" transform="matrix(1 0 0 1 339 1556)">
   <path d="M 54.9316 0 L 57.666 0 L 30.5664 -70.459 L 28.0762 -70.459 L 0.976562 0 L 3.66211 0 L 12.9395 -24.4629 L 45.7031 -24.4629 Z M 29.1992 -67.0898 L 29.4434 -67.0898 L 44.8242 -26.709 L 13.8184 -26.709 Z"/>
  </g>
  <line id="Baseline-L" style="fill:none;stroke:#27AAE1;opacity:1;stroke-width:0.577;" x1="263" x2="3036" y1="1556" y2="1556"/>
  <line id="Capline-L" style="fill:none;stroke:#27AAE1;opacity:1;stroke-width:0.577;" x1="263" x2="3036" y1="1485.54" y2="1485.54"/>
  <rect height="119.336" id="left-margin" style="fill:#00AEEF;stroke:none;opacity:0.4;" width="8.74023" x="1391.3" y="1030.79"/>
  <rect height="119.336" id="right-margin" style="fill:#00AEEF;stroke:none;opacity:0.4;" width="8.74023" x="1499.65" y="1030.79"/>
 </g>
 <g id="Symbols">
  <g id="Black-L" transform="matrix(1 0 0 1 2854.05 1556)">
   <path d="M 79.3457 32.8613 C 116.748 32.8613 147.412 2.19727 147.412 -35.2051 C 147.412 -72.6074 116.748 -103.271 79.2969 -103.271 C 41.8945 -103.271 11.2793 -72.6074 11.2793 -35.2051 C 11.2793 2.19727 41.9434 32.8613 79.3457 32.8613 Z M 59.9609 -9.47266 C 52.1484 -9.47266 45.459 -14.2578 43.9453 -19.4336 C 43.6035 -20.5078 43.4082 -21.4355 43.4082 -22.5098 C 43.4082 -25.9277 46.0938 -27.832 48.6328 -27.832 C 50.9766 -27.832 52.5879 -26.8555 53.8086 -24.9023 C 55.3223 -22.168 57.5684 -20.8984 60.1562 -20.8984 C 63.0371 -20.8984 65.0391 -22.9492 65.0391 -25.3418 C 65.0391 -28.125 63.2324 -29.8828 60.0098 -29.8828 L 59.0332 -29.8828 C 55.127 -29.8828 53.3691 -32.2754 53.3691 -35.5957 C 53.3691 -38.9648 55.4199 -41.3574 59.0332 -41.3574 L 59.9609 -41.3574 C 62.8418 -41.3574 64.2578 -43.4082 64.2578 -45.7031 C 64.2578 -48.3887 62.4512 -50.0977 59.9121 -50.0977 C 57.3242 -50.0977 55.6641 -48.7793 54.1504 -46.0938 C 53.0762 -44.2383 51.5137 -43.0176 49.0723 -43.0176 C 46.1914 -43.0176 44.1406 -45.0195 44.1406 -48.3398 C 44.1406 -49.5117 44.2871 -50.5371 44.8242 -51.9043 C 46.3867 -56.1523 51.9531 -61.084 60.1074 -61.084 C 70.1172 -61.084 76.5137 -55.7129 76.5137 -47.5098 C 76.5137 -42.4316 73.0469 -37.6953 68.5059 -36.9141 L 68.5059 -36.377 C 73.9746 -35.9375 77.6855 -30.8105 77.6855 -24.5605 C 77.6855 -15.4297 70.752 -9.47266 59.9609 -9.47266 Z M 90.2832 -10.5469 C 86.8652 -10.5469 84.2773 -12.8418 84.2773 -16.6016 C 84.2773 -18.8965 85.1074 -20.8984 87.2559 -23.3398 L 98.584 -36.7188 C 101.465 -40.0879 103.857 -42.4316 103.857 -45.4102 C 103.857 -47.8516 101.855 -49.7559 99.1211 -49.7559 C 96.7285 -49.7559 94.9219 -48.3398 93.9453 -45.8008 C 93.2129 -43.5059 91.6992 -41.8945 88.6719 -41.8945 C 85.5469 -41.8945 83.4961 -44.0918 83.4961 -47.2168 C 83.4961 -48.3887 83.6914 -49.3164 83.9355 -50.3418 C 85.7422 -56.7383 92.0898 -61.084 99.4141 -61.084 C 108.936 -61.084 114.844 -55.0293 114.941 -46.5332 C 115.039 -40.7227 112.207 -36.2793 107.422 -30.7129 L 100.586 -22.7539 L 100.586 -22.1191 L 110.547 -22.1191 C 114.111 -22.1191 116.455 -20.0684 116.455 -16.5039 C 116.455 -12.7441 114.111 -10.5469 110.547 -10.5469 Z"/>
  </g>
  <g id="Heavy-L" transform="matrix(1 0 0 1 2558.39 1556)">
   <path d="M 78.2715 31.7871 C 115.088 31.7871 145.312 1.61133 145.312 -35.2051 C 145.312 -72.0215 115.039 -102.197 78.2715 -102.197 C 41.4551 -102.197 11.2793 -72.0215 11.2793 -35.2051 C 11.2793 1.61133 41.5039 31.7871 78.2715 31.7871 Z M 58.252 -8.88672 C 50.1953 -8.88672 43.457 -13.8184 41.8945 -19.1895 C 41.5527 -20.166 41.3574 -21.0449 41.3574 -22.0703 C 41.3574 -25.1953 43.75 -27.002 46.1914 -27.002 C 48.3398 -27.002 49.8535 -25.9766 50.8789 -24.0723 C 52.4902 -20.8496 55.127 -19.1895 58.3984 -19.1895 C 62.2559 -19.1895 64.8926 -21.7285 64.8926 -24.8535 C 64.8926 -28.3203 62.4512 -30.5664 58.3984 -30.5664 L 56.6406 -30.5664 C 53.2227 -30.5664 51.5625 -32.7148 51.5625 -35.7422 C 51.5625 -38.8184 53.4668 -40.918 56.6406 -40.918 L 58.3008 -40.918 C 61.8164 -40.918 63.8672 -43.4082 63.8672 -46.3867 C 63.8672 -49.5605 61.5234 -51.709 58.252 -51.709 C 54.9805 -51.709 52.8809 -50.0488 51.416 -46.8262 C 50.4395 -44.9219 49.0234 -43.7988 46.7773 -43.7988 C 44.043 -43.7988 42.1875 -45.6543 42.1875 -48.7305 C 42.1875 -49.8047 42.334 -50.7324 42.7734 -51.9531 C 44.3848 -56.7383 50.1953 -61.6699 58.4473 -61.6699 C 68.3594 -61.6699 74.9023 -56.1523 74.9023 -47.9492 C 74.9023 -42.627 71.2402 -37.6465 66.4551 -36.8652 L 66.4551 -36.377 C 72.2168 -35.8887 76.2207 -30.6152 76.2207 -24.2188 C 76.2207 -14.9902 69.0918 -8.88672 58.252 -8.88672 Z M 88.916 -10.0586 C 85.8398 -10.0586 83.4961 -12.1094 83.4961 -15.4785 C 83.4961 -17.4805 84.2285 -19.2871 86.084 -21.3867 L 99.0234 -36.5723 C 102.002 -40.0879 104.59 -42.7246 104.59 -46.0449 C 104.59 -49.1699 102.148 -51.416 98.7305 -51.416 C 95.6543 -51.416 93.4082 -49.707 92.334 -46.4844 C 91.5527 -44.3359 90.1855 -42.8223 87.5 -42.8223 C 84.6191 -42.8223 82.7637 -44.873 82.7637 -47.7539 C 82.7637 -48.7793 82.9102 -49.707 83.1543 -50.6348 C 84.9121 -57.1289 91.4062 -61.6699 98.9258 -61.6699 C 108.545 -61.6699 114.648 -55.6641 114.746 -47.0215 C 114.795 -41.1133 111.816 -36.6211 106.982 -30.957 L 98.4375 -21.0938 L 98.4375 -20.5078 L 110.986 -20.5078 C 114.111 -20.5078 116.211 -18.6035 116.211 -15.3809 C 116.211 -12.0117 114.111 -10.0586 110.986 -10.0586 Z"/>
  </g>
  <g id="Bold-L" transform="matrix(1 0 0 1 2262.88 1556)">
   <path d="M 77.0996 30.6152 C 113.232 30.6152 142.92 0.878906 142.92 -35.2051 C 142.92 -71.3379 113.184 -101.025 77.0508 -101.025 C 40.9668 -101.025 11.2793 -71.3379 11.2793 -35.2051 C 11.2793 0.878906 41.0156 30.6152 77.0996 30.6152 Z M 56.3477 -8.25195 C 47.998 -8.25195 41.2109 -13.3301 39.5508 -18.8965 C 39.2578 -19.8242 39.1113 -20.6055 39.1113 -21.582 C 39.1113 -24.3164 41.1133 -26.0254 43.4082 -26.0254 C 45.4102 -26.0254 46.7285 -25.0488 47.6562 -23.0957 C 49.3164 -19.3359 52.4414 -17.2852 56.4453 -17.2852 C 61.3281 -17.2852 64.6484 -20.3613 64.6484 -24.3652 C 64.6484 -28.5645 61.5723 -31.3477 56.6406 -31.3477 L 54.0039 -31.3477 C 51.123 -31.3477 49.5605 -33.252 49.5605 -35.8887 C 49.5605 -38.623 51.2695 -40.4297 54.0039 -40.4297 L 56.4453 -40.4297 C 60.6934 -40.4297 63.4277 -43.3594 63.4277 -47.1191 C 63.4277 -50.9277 60.498 -53.4668 56.3965 -53.4668 C 52.3926 -53.4668 49.7559 -51.416 48.3398 -47.6562 C 47.5098 -45.7031 46.2402 -44.6777 44.1406 -44.6777 C 41.6992 -44.6777 39.9902 -46.3867 39.9902 -49.1211 C 39.9902 -50.0977 40.1367 -50.9277 40.4297 -52.0508 C 42.0898 -57.4219 48.1934 -62.3047 56.5918 -62.3047 C 66.4551 -62.3047 73.0957 -56.6895 73.0957 -48.4375 C 73.0957 -42.8223 69.1895 -37.6465 64.1602 -36.8164 L 64.1602 -36.377 C 70.2637 -35.791 74.6094 -30.4199 74.6094 -23.8281 C 74.6094 -14.5508 67.2363 -8.25195 56.3477 -8.25195 Z M 87.4512 -9.47266 C 84.668 -9.47266 82.666 -11.2793 82.666 -14.209 C 82.666 -15.9668 83.252 -17.4316 84.8145 -19.1895 L 99.5117 -36.4258 C 102.637 -40.0879 105.42 -43.1152 105.42 -46.7285 C 105.42 -50.5859 102.539 -53.2715 98.291 -53.2715 C 94.4824 -53.2715 91.6504 -51.1719 90.4785 -47.2656 C 89.7461 -45.2148 88.5254 -43.8965 86.1328 -43.8965 C 83.5938 -43.8965 81.9336 -45.7031 81.9336 -48.3398 C 81.9336 -49.2676 82.0801 -50.0977 82.2754 -50.9766 C 83.9844 -57.6172 90.6738 -62.3047 98.291 -62.3047 C 108.154 -62.3047 114.453 -56.3477 114.502 -47.6074 C 114.502 -41.5527 111.426 -36.9629 106.445 -31.25 L 96.0938 -19.1895 L 96.0938 -18.6523 L 111.426 -18.6523 C 114.111 -18.6523 115.967 -16.9922 115.967 -14.1602 C 115.967 -11.2305 114.111 -9.47266 111.426 -9.47266 Z"/>
  </g>
  <g id="Semibold-L" transform="matrix(1 0 0 1 1966.97 1556)">
   <path d="M 76.2695 29.7852 C 111.914 29.7852 141.309 0.439453 141.309 -35.2051 C 141.309 -70.8496 111.865 -100.244 76.2695 -100.244 C 40.625 -100.244 11.2793 -70.8496 11.2793 -35.2051 C 11.2793 0.439453 40.6738 29.7852 76.2695 29.7852 Z M 55.0293 -7.76367 C 46.4844 -7.76367 39.6484 -12.9883 37.9395 -18.7012 C 37.6953 -19.5801 37.5 -20.3125 37.5 -21.2891 C 37.5 -23.7305 39.3555 -25.3418 41.5039 -25.3418 C 43.4082 -25.3418 44.5801 -24.4141 45.4102 -22.4609 C 47.1191 -18.3105 50.5859 -15.9668 55.127 -15.9668 C 60.6934 -15.9668 64.502 -19.4336 64.502 -23.9746 C 64.502 -28.7109 60.9375 -31.8848 55.4199 -31.8848 L 52.1484 -31.8848 C 49.6094 -31.8848 48.1934 -33.5938 48.1934 -35.9863 C 48.1934 -38.4766 49.7559 -40.1367 52.1484 -40.1367 L 55.1758 -40.1367 C 59.9121 -40.1367 63.0859 -43.3594 63.0859 -47.6074 C 63.0859 -51.8555 59.8145 -54.6875 55.127 -54.6875 C 50.5859 -54.6875 47.6562 -52.3926 46.2402 -48.2422 C 45.5078 -46.2891 44.3359 -45.3125 42.3828 -45.3125 C 40.0391 -45.3125 38.5254 -46.9238 38.5254 -49.4141 C 38.5254 -50.3418 38.5742 -51.0742 38.8672 -52.0996 C 40.5273 -57.8613 46.8262 -62.7441 55.2734 -62.7441 C 65.0879 -62.7441 71.875 -57.0312 71.875 -48.7793 C 71.875 -42.9688 67.7734 -37.6465 62.5488 -36.7676 L 62.5488 -36.377 C 68.8965 -35.7422 73.4863 -30.2734 73.4863 -23.5352 C 73.4863 -14.2578 65.9668 -7.76367 55.0293 -7.76367 Z M 86.4258 -9.0332 C 83.8867 -9.0332 82.0801 -10.7422 82.0801 -13.3789 C 82.0801 -14.8926 82.6172 -16.2109 83.9355 -17.627 L 99.8535 -36.2793 C 103.076 -40.1367 105.957 -43.3594 105.957 -47.2168 C 105.957 -51.6113 102.832 -54.5898 97.998 -54.5898 C 93.6523 -54.5898 90.4785 -52.1973 89.209 -47.8027 C 88.4766 -45.8496 87.4023 -44.6289 85.2051 -44.6289 C 82.8613 -44.6289 81.3477 -46.2891 81.3477 -48.7305 C 81.3477 -49.6094 81.4941 -50.3906 81.6895 -51.2207 C 83.3496 -57.9102 90.1367 -62.7441 97.9004 -62.7441 C 107.861 -62.7441 114.258 -56.8359 114.307 -47.9492 C 114.355 -41.8945 111.133 -37.2559 106.104 -31.3965 L 94.4336 -17.8711 L 94.4336 -17.3828 L 111.719 -17.3828 C 114.111 -17.3828 115.771 -15.8691 115.771 -13.3301 C 115.771 -10.6934 114.111 -9.0332 111.719 -9.0332 Z"/>
  </g>
  <g id="Medium-L" transform="matrix(1 0 0 1 1670.87 1556)">
   <path d="M 75.6836 29.1992 C 110.938 29.1992 140.088 0.0488281 140.088 -35.2051 C 140.088 -70.459 110.889 -99.6094 75.6348 -99.6094 C 40.3809 -99.6094 11.2793 -70.459 11.2793 -35.2051 C 11.2793 0.0488281 40.3809 29.1992 75.6836 29.1992 Z M 54.0527 -7.4707 C 45.3125 -7.4707 38.4766 -12.6953 36.7188 -18.5547 C 36.4746 -19.4336 36.3281 -20.0684 36.3281 -20.9961 C 36.3281 -23.291 37.9883 -24.8047 40.0879 -24.8047 C 41.8457 -24.8047 42.9688 -23.877 43.75 -21.9727 C 45.459 -17.5293 49.1699 -14.9902 54.1016 -14.9902 C 60.2051 -14.9902 64.4043 -18.75 64.4043 -23.7305 C 64.4043 -28.8086 60.498 -32.2754 54.4922 -32.2754 L 50.7812 -32.2754 C 48.5352 -32.2754 47.168 -33.8867 47.168 -36.0352 C 47.168 -38.3789 48.584 -39.8926 50.7812 -39.8926 L 54.1992 -39.8926 C 59.3262 -39.8926 62.8906 -43.3594 62.8906 -47.998 C 62.8906 -52.5391 59.2773 -55.6152 54.1504 -55.6152 C 49.1699 -55.6152 45.9961 -53.125 44.6289 -48.6328 C 43.9453 -46.6797 42.8711 -45.752 41.0156 -45.752 C 38.8184 -45.752 37.4023 -47.3145 37.4023 -49.6094 C 37.4023 -50.4883 37.4512 -51.2207 37.6465 -52.1484 C 39.3066 -58.2031 45.8008 -63.0859 54.2969 -63.0859 C 64.1113 -63.0859 70.8984 -57.3242 70.8984 -49.0234 C 70.8984 -43.0664 66.748 -37.6465 61.377 -36.7676 L 61.377 -36.377 C 67.8711 -35.7422 72.6074 -30.1758 72.6074 -23.3398 C 72.6074 -14.0137 65.0391 -7.4707 54.0527 -7.4707 Z M 85.6445 -8.74023 C 83.252 -8.74023 81.6406 -10.3027 81.6406 -12.6953 C 81.6406 -14.0625 82.1289 -15.2344 83.252 -16.5039 L 100.098 -36.2305 C 103.418 -40.1367 106.396 -43.5547 106.396 -47.6074 C 106.396 -52.3438 103.027 -55.5664 97.7539 -55.5664 C 93.0176 -55.5664 89.5508 -52.9785 88.2812 -48.1934 C 87.5 -46.3379 86.5234 -45.166 84.5215 -45.166 C 82.3242 -45.166 80.9082 -46.7285 80.9082 -49.0234 C 80.9082 -49.8535 81.0547 -50.5859 81.2012 -51.416 C 82.8613 -58.1543 89.7461 -63.0859 97.6074 -63.0859 C 107.666 -63.0859 114.16 -57.2266 114.209 -48.2422 C 114.209 -42.0898 110.938 -37.4512 105.859 -31.543 L 93.2129 -16.8945 L 93.2129 -16.4551 L 111.963 -16.4551 C 114.111 -16.4551 115.674 -15.0391 115.674 -12.6465 C 115.674 -10.3027 114.111 -8.74023 111.963 -8.74023 Z"/>
  </g>
  <g id="Regular-L" transform="matrix(1 0 0 1 1374.97 1556)">
   <path d="M 74.8535 28.3691 C 109.668 28.3691 138.477 -0.390625 138.477 -35.2051 C 138.477 -70.0195 109.619 -98.7793 74.8047 -98.7793 C 40.0391 -98.7793 11.2793 -70.0195 11.2793 -35.2051 C 11.2793 -0.390625 40.0879 28.3691 74.8535 28.3691 Z M 52.7344 -6.98242 C 43.7988 -6.98242 36.9141 -12.3535 35.1074 -18.4082 C 34.9121 -19.1895 34.7656 -19.7754 34.7656 -20.6543 C 34.7656 -22.7051 36.1816 -24.1699 38.1836 -24.1699 C 39.8438 -24.1699 40.8203 -23.2422 41.5527 -21.3379 C 43.3105 -16.5039 47.3145 -13.6719 52.7832 -13.6719 C 59.5703 -13.6719 64.2578 -17.8223 64.2578 -23.3887 C 64.2578 -28.9551 59.8633 -32.8125 53.2715 -32.8125 L 48.9746 -32.8125 C 47.0703 -32.8125 45.8008 -34.2285 45.8008 -36.1328 C 45.8008 -38.2324 47.0703 -39.5508 48.9746 -39.5508 L 52.9297 -39.5508 C 58.5449 -39.5508 62.5488 -43.3594 62.5488 -48.4863 C 62.5488 -53.4668 58.5938 -56.8359 52.8809 -56.8359 C 47.4121 -56.8359 43.8965 -54.0527 42.5293 -49.2188 C 41.9434 -47.2168 40.9668 -46.3379 39.2578 -46.3379 C 37.1582 -46.3379 35.8887 -47.8027 35.8887 -49.9023 C 35.8887 -50.7324 35.9375 -51.3672 36.084 -52.1973 C 37.793 -58.6914 44.4336 -63.5254 53.0273 -63.5254 C 62.793 -63.5254 69.6777 -57.666 69.6777 -49.3652 C 69.6777 -43.2129 65.332 -37.5977 59.8145 -36.7188 L 59.8145 -36.377 C 66.5527 -35.6934 71.4844 -30.0293 71.4844 -23.0957 C 71.4844 -13.6719 63.7695 -6.98242 52.7344 -6.98242 Z M 84.6191 -8.34961 C 82.4707 -8.34961 81.1035 -9.7168 81.1035 -11.8652 C 81.1035 -13.0371 81.4453 -14.0137 82.373 -14.9902 L 100.391 -36.084 C 103.857 -40.1367 106.982 -43.7988 106.982 -48.0957 C 106.982 -53.3691 103.271 -56.8359 97.4121 -56.8359 C 92.1875 -56.8359 88.3789 -53.9551 87.0117 -48.7305 C 86.2305 -46.9727 85.4004 -45.8984 83.5938 -45.8984 C 81.5918 -45.8984 80.3223 -47.3145 80.3223 -49.4629 C 80.3223 -50.1465 80.4688 -50.8789 80.6152 -51.6113 C 82.2266 -58.4961 89.209 -63.5254 97.168 -63.5254 C 107.373 -63.5254 114.014 -57.666 114.014 -48.6328 C 114.014 -42.4316 110.645 -37.6953 105.518 -31.7383 L 91.6016 -15.5762 L 91.6016 -15.1855 L 112.256 -15.1855 C 114.111 -15.1855 115.479 -13.916 115.479 -11.8164 C 115.479 -9.76562 114.111 -8.34961 112.256 -8.34961 Z"/>
  </g>
  <g id="Light-L" transform="matrix(1 0 0 1 1079.18 1556)">
   <path d="M 73.9258 27.4902 C 108.301 27.4902 136.621 -0.830078 136.621 -35.1562 C 136.621 -69.5312 108.252 -97.8516 73.9258 -97.8516 C 39.5508 -97.8516 11.2793 -69.5312 11.2793 -35.1562 C 11.2793 -0.830078 39.5996 27.4902 73.9258 27.4902 Z M 51.709 -7.32422 C 42.9688 -7.32422 36.2305 -12.5 34.375 -18.457 C 34.1797 -19.1406 34.0332 -19.7266 34.0332 -20.5078 C 34.0332 -22.168 35.1562 -23.3887 36.8652 -23.3887 C 38.2324 -23.3887 39.0625 -22.6074 39.6484 -20.9961 C 41.4062 -15.8691 45.9961 -12.793 51.709 -12.793 C 59.1797 -12.793 64.209 -17.1875 64.209 -23.291 C 64.209 -29.1992 59.3262 -33.4473 52.2949 -33.4473 L 47.4609 -33.4473 C 45.8496 -33.4473 44.873 -34.6191 44.873 -36.1816 C 44.873 -37.8906 45.8984 -38.9648 47.4609 -38.9648 L 51.9043 -38.9648 C 58.0078 -38.9648 62.4512 -43.1152 62.4512 -48.6816 C 62.4512 -54.1016 58.1055 -57.7637 51.7578 -57.7637 C 45.8496 -57.7637 41.8457 -54.5898 40.6738 -49.5605 C 40.1855 -47.8516 39.4043 -47.1191 37.9395 -47.1191 C 36.1328 -47.1191 35.1562 -48.3398 35.1562 -50.0977 C 35.1562 -50.7812 35.2051 -51.416 35.3516 -52.1484 C 36.9629 -58.6914 43.6523 -63.2324 51.8555 -63.2324 C 61.4258 -63.2324 68.2617 -57.4707 68.2617 -49.3164 C 68.2617 -43.2129 63.8184 -37.5977 58.1543 -36.6211 L 58.1543 -36.377 C 64.9902 -35.6445 70.0684 -29.9805 70.0684 -23.0957 C 70.0684 -13.916 62.4512 -7.32422 51.709 -7.32422 Z M 83.6426 -8.44727 C 81.8848 -8.44727 80.6641 -9.57031 80.6641 -11.377 C 80.6641 -12.4023 80.957 -13.1836 81.7383 -13.9648 L 100.537 -35.8887 C 104.346 -40.3809 106.982 -43.9453 106.982 -48.291 C 106.982 -54.0039 102.979 -57.7637 96.4844 -57.7637 C 90.4785 -57.7637 86.1328 -54.2969 85.1074 -48.6816 C 84.5703 -47.168 83.8379 -46.2402 82.2754 -46.2402 C 80.6152 -46.2402 79.5898 -47.4609 79.5898 -49.1699 C 79.5898 -49.8047 79.6875 -50.4395 79.7852 -51.1719 C 81.25 -58.1543 88.2324 -63.2324 96.3379 -63.2324 C 106.25 -63.2324 112.793 -57.4707 112.793 -48.584 C 112.793 -42.8223 109.766 -38.2324 104.297 -31.8848 L 89.1602 -14.3066 L 89.1602 -14.0137 L 111.67 -14.0137 C 113.184 -14.0137 114.307 -12.9395 114.307 -11.2793 C 114.307 -9.61914 113.184 -8.44727 111.67 -8.44727 Z"/>
  </g>
  <g id="Thin-L" transform="matrix(1 0 0 1 783.693 1556)">
   <path d="M 72.7051 26.3184 C 106.494 26.3184 134.18 -1.36719 134.18 -35.1074 C 134.18 -68.8965 106.494 -96.582 72.7051 -96.582 C 38.9648 -96.582 11.2793 -68.8965 11.2793 -35.1074 C 11.2793 -1.36719 38.9648 26.3184 72.7051 26.3184 Z M 50.3418 -7.71484 C 41.8945 -7.71484 35.3027 -12.6953 33.3984 -18.5059 C 33.252 -19.043 33.0078 -19.6289 33.0078 -20.3125 C 33.0078 -21.4844 33.8379 -22.3633 35.0586 -22.3633 C 36.1328 -22.3633 36.6699 -21.7285 37.1094 -20.5078 C 38.8672 -14.9902 44.2383 -11.5723 50.3418 -11.5723 C 58.6426 -11.5723 64.1113 -16.3574 64.1113 -23.1445 C 64.1113 -29.4922 58.5938 -34.3262 51.0254 -34.3262 L 45.5078 -34.3262 C 44.2871 -34.3262 43.6035 -35.0586 43.6035 -36.2305 C 43.6035 -37.4023 44.3359 -38.1348 45.5078 -38.1348 L 50.5371 -38.1348 C 57.3242 -38.1348 62.3047 -42.8223 62.3047 -48.877 C 62.3047 -54.9316 57.4707 -58.9844 50.293 -58.9844 C 43.75 -58.9844 39.1602 -55.3223 38.1348 -50 C 37.8906 -48.6328 37.2559 -48.0957 36.1816 -48.0957 C 34.7168 -48.0957 34.1309 -49.0234 34.1309 -50.3418 C 34.1309 -50.8301 34.2285 -51.5137 34.375 -52.0996 C 35.9375 -58.6914 42.6758 -62.793 50.293 -62.793 C 59.6191 -62.793 66.4062 -57.2266 66.4062 -49.2676 C 66.4062 -43.2129 61.8164 -37.5488 55.9082 -36.5234 L 55.9082 -36.377 C 62.8906 -35.5957 68.2129 -29.8828 68.2129 -23.0957 C 68.2129 -14.209 60.6934 -7.71484 50.3418 -7.71484 Z M 82.373 -8.59375 C 81.0547 -8.59375 80.127 -9.42383 80.127 -10.7422 C 80.127 -11.6211 80.2734 -12.0605 80.8105 -12.6465 L 100.684 -35.5957 C 104.98 -40.6738 107.031 -44.1895 107.031 -48.5352 C 107.031 -54.8828 102.588 -58.9844 95.2637 -58.9844 C 88.2812 -58.9844 83.1543 -54.6875 82.6172 -48.6328 C 82.373 -47.4121 81.7871 -46.7285 80.5176 -46.7285 C 79.3457 -46.7285 78.5645 -47.6074 78.5645 -48.7793 C 78.5645 -49.3652 78.6133 -49.9023 78.7109 -50.5371 C 79.9805 -57.666 86.9629 -62.793 95.2148 -62.793 C 104.785 -62.793 111.182 -57.2266 111.182 -48.5352 C 111.182 -43.4082 108.594 -38.9648 102.686 -32.0801 L 85.8887 -12.6465 L 85.8887 -12.4512 L 110.889 -12.4512 C 112.012 -12.4512 112.793 -11.6699 112.793 -10.5469 C 112.793 -9.47266 112.012 -8.59375 110.889 -8.59375 Z"/>
  </g>
  <g id="Ultralight-L" transform="matrix(1 0 0 1 487.616 1556)">
   <path d="M 72.1191 25.7324 C 105.566 25.7324 132.91 -1.61133 132.91 -35.1074 C 132.91 -68.5547 105.566 -95.8984 72.1191 -95.8984 C 38.623 -95.8984 11.2793 -68.5547 11.2793 -35.1074 C 11.2793 -1.61133 38.623 25.7324 72.1191 25.7324 Z M 49.6094 -7.95898 C 41.3086 -7.95898 34.8633 -12.793 32.9102 -18.5547 C 32.7637 -18.9941 32.5195 -19.5801 32.5195 -20.166 C 32.5195 -21.0938 33.1543 -21.8262 34.1797 -21.8262 C 35.0586 -21.8262 35.4492 -21.2891 35.8398 -20.2637 C 37.5977 -14.5508 43.3105 -10.9375 49.6094 -10.9375 C 58.3496 -10.9375 64.1113 -15.918 64.1113 -23.0957 C 64.1113 -29.6387 58.2031 -34.7656 50.3906 -34.7656 L 44.4824 -34.7656 C 43.457 -34.7656 42.9688 -35.3027 42.9688 -36.2305 C 42.9688 -37.1582 43.5547 -37.7441 44.4824 -37.7441 L 49.8535 -37.7441 C 56.9336 -37.7441 62.207 -42.6758 62.207 -48.9746 C 62.207 -55.3223 57.1289 -59.6191 49.5117 -59.6191 C 42.6758 -59.6191 37.793 -55.7129 36.8652 -50.2441 C 36.6699 -49.0723 36.1816 -48.6328 35.3027 -48.6328 C 34.0332 -48.6328 33.6426 -49.3652 33.6426 -50.4395 C 33.6426 -50.8789 33.7402 -51.5137 33.8867 -52.0508 C 35.4004 -58.6914 42.1387 -62.5977 49.5117 -62.5977 C 58.6914 -62.5977 65.4297 -57.0801 65.4297 -49.2676 C 65.4297 -43.2129 60.791 -37.5 54.7852 -36.4258 L 54.7852 -36.377 C 61.8164 -35.5957 67.2852 -29.8828 67.2852 -23.1445 C 67.2852 -14.3555 59.8145 -7.95898 49.6094 -7.95898 Z M 81.7383 -8.69141 C 80.6641 -8.69141 79.834 -9.32617 79.834 -10.4004 C 79.834 -11.1816 79.9316 -11.5234 80.3711 -11.9141 L 100.732 -35.4492 C 105.273 -40.8203 107.08 -44.3359 107.08 -48.6816 C 107.08 -55.3711 102.393 -59.6191 94.6289 -59.6191 C 87.1094 -59.6191 81.6406 -54.9316 81.3477 -48.584 C 81.25 -47.5586 80.7129 -46.9727 79.5898 -46.9727 C 78.6621 -46.9727 78.0273 -47.7051 78.0273 -48.6328 C 78.0273 -49.1699 78.0762 -49.6094 78.1738 -50.2441 C 79.3457 -57.4219 86.3281 -62.5977 94.6289 -62.5977 C 104.053 -62.5977 110.352 -57.0801 110.352 -48.5352 C 110.352 -43.7012 107.959 -39.3066 101.855 -32.1777 L 84.2285 -11.7676 L 84.2285 -11.6211 L 110.498 -11.6211 C 111.426 -11.6211 111.963 -10.9863 111.963 -10.1562 C 111.963 -9.42383 111.426 -8.69141 110.498 -8.69141 Z"/>
  </g>
  <g id="Black-M" transform="matrix(1 0 0 1 2870.97 1126)">
   <path d="M 62.4023 18.457 C 91.9922 18.457 116.113 -5.61523 116.113 -35.2051 C 116.113 -64.7949 91.9922 -88.8672 62.4023 -88.8672 C 32.8125 -88.8672 8.74023 -64.7949 8.74023 -35.2051 C 8.74023 -5.61523 32.8125 18.457 62.4023 18.457 Z M 48.1934 -16.2109 C 42.627 -16.2109 37.5977 -19.6777 36.4746 -23.3398 C 36.1816 -24.2188 35.9863 -25 35.9863 -25.8789 C 35.9863 -28.7598 38.3301 -30.2734 40.2832 -30.2734 C 42.1875 -30.2734 43.5547 -29.541 44.5801 -28.1738 C 45.7031 -26.6113 47.168 -25.9277 48.3887 -25.9277 C 49.7559 -25.9277 50.6348 -27.002 50.6348 -28.125 C 50.6348 -29.5898 49.7559 -30.4688 48.1445 -30.4688 C 44.6777 -30.4688 43.2129 -32.4707 43.2129 -35.3516 C 43.2129 -38.1836 44.9707 -40.1855 48.1445 -40.1855 C 49.7559 -40.1855 50.293 -41.5039 50.293 -42.5293 C 50.293 -44.1406 49.3164 -45.1172 48.0957 -45.1172 C 46.7773 -45.1172 45.8008 -44.3848 44.6777 -42.8711 C 43.75 -41.5527 42.4316 -40.625 40.4785 -40.625 C 38.0859 -40.625 36.4258 -42.1875 36.4258 -45.0195 C 36.4258 -45.9473 36.6211 -46.8262 37.1094 -48.0469 C 38.2812 -50.6348 42.2363 -54.2969 48.1934 -54.2969 C 55.9082 -54.2969 60.6934 -50.3418 60.6934 -44.1406 C 60.6934 -40.5273 58.252 -37.1094 54.9316 -36.5723 L 54.9316 -36.1328 C 58.8379 -35.8398 61.4258 -32.0312 61.4258 -27.4414 C 61.4258 -20.5566 56.3477 -16.2109 48.1934 -16.2109 Z M 71.2402 -16.8945 C 68.4082 -16.8945 66.0645 -18.7988 66.0645 -22.0215 C 66.0645 -24.1211 66.8457 -25.8789 68.7988 -28.125 L 75.8789 -36.4746 C 78.125 -39.0625 79.541 -40.4785 79.541 -42.3828 C 79.541 -43.6035 78.3203 -44.7266 76.8555 -44.7266 C 75.5371 -44.7266 74.4629 -43.7988 74.0234 -42.4805 C 73.5352 -40.6738 72.2168 -39.3066 69.6289 -39.3066 C 66.9922 -39.3066 65.332 -41.1621 65.332 -43.6523 C 65.332 -44.6777 65.4297 -45.4102 65.6738 -46.2891 C 67.041 -51.1719 71.7773 -54.2969 77.2949 -54.2969 C 84.3262 -54.2969 88.623 -49.6582 88.7207 -43.3105 C 88.8184 -39.1602 86.9629 -35.8887 83.2031 -31.4941 L 79.4922 -27.1484 L 79.4922 -26.6602 L 84.8145 -26.6602 C 87.9883 -26.6602 89.9414 -24.9023 89.9414 -21.875 C 89.9414 -18.7012 87.9883 -16.8945 84.8145 -16.8945 Z"/>
  </g>
  <g id="Heavy-M" transform="matrix(1 0 0 1 2575.19 1126)">
   <path d="M 61.5234 17.5781 C 90.5273 17.5781 114.258 -6.15234 114.258 -35.2051 C 114.258 -64.2578 90.5273 -87.9883 61.4746 -87.9883 C 32.4707 -87.9883 8.74023 -64.2578 8.74023 -35.2051 C 8.74023 -6.15234 32.4707 17.5781 61.5234 17.5781 Z M 46.6309 -15.4785 C 40.7227 -15.4785 35.5469 -19.1406 34.375 -23.0469 C 34.1309 -23.877 33.9355 -24.6094 33.9355 -25.4395 C 33.9355 -28.0762 36.0352 -29.541 37.9395 -29.541 C 39.7461 -29.541 40.9668 -28.7598 41.8945 -27.3438 C 43.0664 -25.293 44.873 -24.3164 46.7773 -24.3164 C 48.9746 -24.3164 50.4395 -25.8301 50.4395 -27.6367 C 50.4395 -29.7363 49.0234 -31.0547 46.6309 -31.0547 L 45.9473 -31.0547 C 42.9199 -31.0547 41.5527 -32.9102 41.5527 -35.498 C 41.5527 -38.0859 43.1641 -39.8926 45.9473 -39.8926 L 46.582 -39.8926 C 48.8281 -39.8926 49.8535 -41.5039 49.8535 -43.2129 C 49.8535 -45.2637 48.4863 -46.582 46.5332 -46.582 C 44.6289 -46.582 43.2617 -45.6055 42.1387 -43.5547 C 41.3086 -42.1875 40.1367 -41.3086 38.2812 -41.3086 C 36.0352 -41.3086 34.4727 -42.7734 34.4727 -45.3613 C 34.4727 -46.2402 34.6191 -47.0215 35.0586 -48.0957 C 36.2793 -51.3184 40.5273 -55.0293 46.6797 -55.0293 C 54.3945 -55.0293 59.3262 -50.9277 59.3262 -44.6289 C 59.3262 -40.7715 56.6406 -37.1094 53.125 -36.5234 L 53.125 -36.1328 C 57.3242 -35.791 60.2051 -31.8359 60.2051 -27.0508 C 60.2051 -20.0195 54.8828 -15.4785 46.6309 -15.4785 Z M 70.0195 -16.2598 C 67.4316 -16.2598 65.3809 -18.0664 65.3809 -20.9473 C 65.3809 -22.7539 66.0156 -24.3164 67.7246 -26.2695 L 76.3184 -36.3281 C 78.6133 -39.0137 80.3223 -40.7715 80.3223 -43.0176 C 80.3223 -44.873 78.7598 -46.2891 76.6602 -46.2891 C 74.8047 -46.2891 73.3398 -45.166 72.7051 -43.2129 C 72.168 -41.5039 70.9961 -40.2344 68.6523 -40.2344 C 66.2598 -40.2344 64.6973 -41.9434 64.6973 -44.3359 C 64.6973 -45.2148 64.8438 -45.9473 65.0391 -46.7285 C 66.4062 -51.709 71.2891 -55.0293 76.9531 -55.0293 C 84.2285 -55.0293 88.7207 -50.3906 88.8184 -43.8477 C 88.8672 -39.502 86.7676 -36.084 83.0566 -31.7383 L 77.7832 -25.6348 L 77.7832 -25.1953 L 85.4004 -25.1953 C 88.1836 -25.1953 89.9902 -23.584 89.9902 -20.8496 C 89.9902 -17.9688 88.1836 -16.2598 85.4004 -16.2598 Z"/>
  </g>
  <g id="Bold-M" transform="matrix(1 0 0 1 2279.5 1126)">
   <path d="M 60.498 16.5039 C 88.8672 16.5039 112.207 -6.78711 112.207 -35.2051 C 112.207 -63.623 88.8672 -86.9629 60.4492 -86.9629 C 32.0312 -86.9629 8.74023 -63.623 8.74023 -35.2051 C 8.74023 -6.78711 32.0801 16.5039 60.498 16.5039 Z M 44.8242 -14.6973 C 38.5254 -14.6973 33.3008 -18.5547 32.0801 -22.7539 C 31.8359 -23.4863 31.6895 -24.1699 31.6895 -24.9512 C 31.6895 -27.2949 33.4473 -28.6621 35.3516 -28.6621 C 37.0117 -28.6621 38.1348 -27.9297 38.916 -26.416 C 40.1855 -23.8281 42.2852 -22.5098 44.9707 -22.5098 C 48.0957 -22.5098 50.2441 -24.5605 50.2441 -27.0996 C 50.2441 -29.9316 48.2422 -31.7383 44.9707 -31.7383 L 43.457 -31.7383 C 40.918 -31.7383 39.6484 -33.3984 39.6484 -35.6445 C 39.6484 -37.9883 41.0645 -39.5508 43.457 -39.5508 L 44.873 -39.5508 C 47.7051 -39.5508 49.4141 -41.5527 49.4141 -43.9941 C 49.4141 -46.582 47.5098 -48.291 44.873 -48.291 C 42.1875 -48.291 40.4785 -46.9238 39.3555 -44.3848 C 38.623 -42.8711 37.5488 -42.041 35.791 -42.041 C 33.7402 -42.041 32.3242 -43.457 32.3242 -45.752 C 32.3242 -46.582 32.4219 -47.2656 32.7637 -48.1934 C 33.9844 -52.002 38.5742 -55.8105 44.9707 -55.8105 C 52.6855 -55.8105 57.7637 -51.5625 57.7637 -45.166 C 57.7637 -40.9668 54.8828 -37.1094 51.123 -36.5234 L 51.123 -36.1328 C 55.6641 -35.6934 58.8379 -31.6406 58.8379 -26.6113 C 58.8379 -19.4824 53.2715 -14.6973 44.8242 -14.6973 Z M 68.7012 -15.625 C 66.3574 -15.625 64.5996 -17.1875 64.5996 -19.7266 C 64.5996 -21.2402 65.1367 -22.5586 66.5039 -24.1211 L 76.8066 -36.2305 C 79.1504 -39.0137 81.2012 -41.1133 81.2012 -43.7012 C 81.2012 -46.2402 79.248 -48.0957 76.4648 -48.0957 C 73.9746 -48.0957 72.1191 -46.6797 71.2891 -44.0918 C 70.6543 -42.4316 69.6289 -41.3086 67.5781 -41.3086 C 65.4297 -41.3086 64.0137 -42.8223 64.0137 -45.0195 C 64.0137 -45.8496 64.1113 -46.5332 64.3066 -47.2656 C 65.6738 -52.2949 70.752 -55.8105 76.5625 -55.8105 C 84.082 -55.8105 88.8184 -51.1719 88.916 -44.4824 C 88.916 -39.8438 86.6211 -36.377 82.8125 -31.9824 L 75.9277 -23.9746 L 75.9277 -23.5352 L 86.084 -23.5352 C 88.4277 -23.5352 90.0391 -22.0703 90.0391 -19.6289 C 90.0391 -17.1387 88.4277 -15.625 86.084 -15.625 Z"/>
  </g>
  <g id="Semibold-M" transform="matrix(1 0 0 1 1983.5 1126)">
   <path d="M 59.7656 15.8203 C 87.7441 15.8203 110.791 -7.22656 110.791 -35.2051 C 110.791 -63.1836 87.6953 -86.2793 59.7656 -86.2793 C 31.7871 -86.2793 8.74023 -63.1836 8.74023 -35.2051 C 8.74023 -7.22656 31.7871 15.8203 59.7656 15.8203 Z M 43.6035 -14.1602 C 37.0605 -14.1602 31.7383 -18.1152 30.4688 -22.5098 C 30.2246 -23.2422 30.127 -23.8281 30.127 -24.6094 C 30.127 -26.7578 31.6895 -28.125 33.5449 -28.125 C 35.1074 -28.125 36.1328 -27.3438 36.8652 -25.7812 C 38.1348 -22.8516 40.5273 -21.2402 43.7012 -21.2402 C 47.4609 -21.2402 50.0977 -23.6328 50.0977 -26.7578 C 50.0977 -30.0293 47.7051 -32.1777 43.8477 -32.1777 L 41.7969 -32.1777 C 39.5508 -32.1777 38.3301 -33.6914 38.3301 -35.7422 C 38.3301 -37.8906 39.6484 -39.3555 41.7969 -39.3555 L 43.6523 -39.3555 C 46.9727 -39.3555 49.1211 -41.6016 49.1211 -44.4824 C 49.1211 -47.4609 46.875 -49.4141 43.7012 -49.4141 C 40.5273 -49.4141 38.5742 -47.8516 37.4023 -44.9219 C 36.7676 -43.3594 35.791 -42.5293 34.1309 -42.5293 C 32.1777 -42.5293 30.8594 -43.8965 30.8594 -45.9961 C 30.8594 -46.8262 30.9082 -47.4121 31.1523 -48.291 C 32.4219 -52.5391 37.207 -56.3965 43.7988 -56.3965 C 51.5137 -56.3965 56.6895 -52.002 56.6895 -45.5566 C 56.6895 -41.1621 53.6621 -37.1094 49.707 -36.4746 L 49.707 -36.1328 C 54.4922 -35.6934 57.8613 -31.4941 57.8613 -26.3184 C 57.8613 -19.0918 52.1484 -14.1602 43.6035 -14.1602 Z M 67.7246 -15.1367 C 65.5762 -15.1367 64.0625 -16.6016 64.0625 -18.8477 C 64.0625 -20.166 64.502 -21.3379 65.6738 -22.6562 L 77.1484 -36.1816 C 79.541 -38.9648 81.7871 -41.3574 81.7871 -44.1895 C 81.7871 -47.2168 79.5898 -49.3164 76.3184 -49.3164 C 73.3887 -49.3164 71.2891 -47.7539 70.2637 -44.6777 C 69.6289 -43.0664 68.7012 -42.041 66.8457 -42.041 C 64.8438 -42.041 63.5254 -43.457 63.5254 -45.5078 C 63.5254 -46.2402 63.6719 -46.9238 63.8184 -47.6074 C 65.1367 -52.7344 70.3613 -56.3965 76.2695 -56.3965 C 83.9844 -56.3965 88.916 -51.7578 88.9648 -44.9219 C 88.9648 -40.1367 86.4746 -36.5234 82.7148 -32.1289 L 74.6582 -22.8027 L 74.6582 -22.3633 L 86.5234 -22.3633 C 88.623 -22.3633 90.0879 -21.0449 90.0879 -18.8477 C 90.0879 -16.5527 88.623 -15.1367 86.5234 -15.1367 Z"/>
  </g>
  <g id="Medium-M" transform="matrix(1 0 0 1 1687.3 1126)">
   <path d="M 59.2285 15.2832 C 86.9141 15.2832 109.766 -7.56836 109.766 -35.2051 C 109.766 -62.8906 86.8652 -85.7422 59.1797 -85.7422 C 31.543 -85.7422 8.74023 -62.8906 8.74023 -35.2051 C 8.74023 -7.56836 31.5918 15.2832 59.2285 15.2832 Z M 42.6758 -13.7207 C 35.8887 -13.7207 30.5664 -17.8223 29.248 -22.3633 C 29.0527 -23.0469 28.9062 -23.6328 28.9062 -24.3652 C 28.9062 -26.3672 30.3711 -27.6855 32.1777 -27.6855 C 33.6914 -27.6855 34.6191 -26.9043 35.3027 -25.293 C 36.6211 -22.0703 39.1602 -20.3125 42.7246 -20.3125 C 47.0215 -20.3125 50 -22.998 50 -26.4648 C 50 -30.127 47.2656 -32.5195 42.9688 -32.5195 L 40.4785 -32.5195 C 38.5254 -32.5195 37.3535 -33.9355 37.3535 -35.791 C 37.3535 -37.8418 38.5742 -39.1602 40.4785 -39.1602 L 42.7734 -39.1602 C 46.4355 -39.1602 48.877 -41.6016 48.877 -44.9219 C 48.877 -48.0957 46.3379 -50.293 42.7734 -50.293 C 39.2578 -50.293 37.1094 -48.584 35.9375 -45.3125 C 35.3516 -43.7012 34.4238 -42.9199 32.8125 -42.9199 C 30.957 -42.9199 29.7363 -44.2383 29.7363 -46.2402 C 29.7363 -46.9727 29.7852 -47.5586 29.9805 -48.3398 C 31.25 -52.8809 36.1816 -56.7871 42.9199 -56.7871 C 50.5859 -56.7871 55.8594 -52.2949 55.8594 -45.8496 C 55.8594 -41.2598 52.7344 -37.1094 48.6816 -36.4746 L 48.6816 -36.1328 C 53.6133 -35.6445 57.1289 -31.3965 57.1289 -26.0742 C 57.1289 -18.7988 51.2695 -13.7207 42.6758 -13.7207 Z M 67.041 -14.7949 C 64.9902 -14.7949 63.623 -16.1133 63.623 -18.2129 C 63.623 -19.3848 64.0137 -20.459 65.0391 -21.582 L 77.3926 -36.1328 C 79.834 -38.9648 82.2754 -41.5039 82.2754 -44.5801 C 82.2754 -47.9492 79.834 -50.2441 76.1719 -50.2441 C 72.9492 -50.2441 70.6055 -48.5352 69.4824 -45.1172 C 68.8477 -43.5547 67.9688 -42.5781 66.2598 -42.5781 C 64.4043 -42.5781 63.1836 -43.8965 63.1836 -45.8984 C 63.1836 -46.582 63.2812 -47.2168 63.4277 -47.8516 C 64.7461 -53.0273 70.0684 -56.7871 76.0742 -56.7871 C 83.9355 -56.7871 88.9648 -52.1973 89.0137 -45.2148 C 89.0137 -40.2832 86.377 -36.6699 82.5684 -32.2754 L 73.6816 -21.875 L 73.6816 -21.4844 L 86.8652 -21.4844 C 88.7695 -21.4844 90.1367 -20.3125 90.1367 -18.2129 C 90.1367 -16.1133 88.7695 -14.7949 86.8652 -14.7949 Z"/>
  </g>
  <g id="Regular-M" transform="matrix(1 0 0 1 1391.3 1126)">
   <path d="M 58.5449 14.5508 C 85.791 14.5508 108.35 -8.00781 108.35 -35.2539 C 108.35 -62.4512 85.7422 -85.0586 58.4961 -85.0586 C 31.2988 -85.0586 8.74023 -62.4512 8.74023 -35.2539 C 8.74023 -8.00781 31.3477 14.5508 58.5449 14.5508 Z M 41.4551 -13.1836 C 34.4238 -13.1836 29.0039 -17.4316 27.6367 -22.168 C 27.4902 -22.8027 27.3926 -23.291 27.3926 -24.0234 C 27.3926 -25.8301 28.6133 -27.0996 30.3711 -27.0996 C 31.7871 -27.0996 32.666 -26.3184 33.252 -24.6582 C 34.668 -21.0938 37.4512 -19.043 41.5039 -19.043 C 46.3867 -19.043 49.8535 -22.0703 49.8535 -26.0742 C 49.8535 -30.2734 46.7285 -33.0078 41.7969 -33.0078 L 38.8184 -33.0078 C 37.1582 -33.0078 36.0352 -34.2773 36.0352 -35.8887 C 36.0352 -37.7441 37.1582 -38.916 38.8184 -38.916 L 41.6016 -38.916 C 45.7031 -38.916 48.5352 -41.6504 48.5352 -45.4102 C 48.5352 -48.9746 45.7031 -51.4648 41.6504 -51.4648 C 37.6465 -51.4648 35.1562 -49.5117 34.0332 -45.8496 C 33.4961 -44.1895 32.666 -43.4082 31.1523 -43.4082 C 29.3945 -43.4082 28.2715 -44.6777 28.2715 -46.4844 C 28.2715 -47.2168 28.2715 -47.7051 28.3691 -48.3887 C 29.7363 -53.418 34.8633 -57.3242 41.7969 -57.3242 C 49.4141 -57.3242 54.834 -52.7344 54.834 -46.1914 C 54.834 -41.4551 51.5137 -37.1094 47.2656 -36.4258 L 47.2656 -36.1328 C 52.4414 -35.5957 56.2012 -31.25 56.2012 -25.7812 C 56.2012 -18.4082 50.1465 -13.1836 41.4551 -13.1836 Z M 66.1133 -14.3555 C 64.2578 -14.3555 63.0859 -15.5273 63.0859 -17.3828 C 63.0859 -18.3594 63.4277 -19.2383 64.209 -20.1172 L 77.7344 -36.0352 C 80.2246 -38.916 82.8613 -41.748 82.8613 -45.0684 C 82.8613 -48.877 80.1758 -51.4648 76.0254 -51.4648 C 72.4121 -51.4648 69.7754 -49.5605 68.5059 -45.7031 C 67.7734 -44.1895 67.041 -43.3105 65.5273 -43.3105 C 63.8184 -43.3105 62.6953 -44.5312 62.6953 -46.3867 C 62.6953 -46.9727 62.793 -47.6074 62.9395 -48.1934 C 64.2578 -53.4668 69.6777 -57.3242 75.7812 -57.3242 C 83.8379 -57.3242 89.0625 -52.7344 89.0625 -45.6543 C 89.0625 -40.5762 86.2305 -36.8164 82.4707 -32.4219 L 72.3633 -20.752 L 72.3633 -20.3613 L 87.3535 -20.3613 C 88.916 -20.3613 90.1367 -19.2871 90.1367 -17.3828 C 90.1367 -15.5273 88.916 -14.3555 87.3535 -14.3555 Z"/>
  </g>
  <g id="Light-M" transform="matrix(1 0 0 1 1095.42 1126)">
   <path d="M 57.7148 13.7695 C 84.5215 13.7695 106.689 -8.39844 106.689 -35.2051 C 106.689 -62.0117 84.5215 -84.1797 57.666 -84.1797 C 30.8594 -84.1797 8.74023 -62.0117 8.74023 -35.2051 C 8.74023 -8.39844 30.9082 13.7695 57.7148 13.7695 Z M 40.5273 -13.4766 C 33.6914 -13.4766 28.3691 -17.5293 27.002 -22.2168 C 26.8066 -22.7539 26.709 -23.2422 26.709 -23.877 C 26.709 -25.3418 27.7344 -26.416 29.1504 -26.416 C 30.3711 -26.416 31.0547 -25.7324 31.543 -24.3652 C 32.959 -20.5078 36.2305 -18.2129 40.5762 -18.2129 C 46.0449 -18.2129 49.8047 -21.5332 49.8047 -26.0254 C 49.8047 -30.4688 46.2402 -33.5938 40.9668 -33.5938 L 37.4512 -33.5938 C 36.084 -33.5938 35.2051 -34.5703 35.2051 -35.9375 C 35.2051 -37.4512 36.084 -38.3789 37.4512 -38.3789 L 40.6738 -38.3789 C 45.2148 -38.3789 48.4375 -41.4551 48.4375 -45.5566 C 48.4375 -49.5605 45.2637 -52.2949 40.625 -52.2949 C 36.2305 -52.2949 33.3496 -50 32.3242 -46.1914 C 31.9336 -44.7266 31.25 -44.0918 29.9805 -44.0918 C 28.4668 -44.0918 27.5879 -45.1172 27.5879 -46.6797 C 27.5879 -47.2656 27.5879 -47.7539 27.7344 -48.3398 C 29.0039 -53.418 34.1797 -57.0801 40.7227 -57.0801 C 48.1934 -57.0801 53.5156 -52.5879 53.5156 -46.1914 C 53.5156 -41.4551 50.1465 -37.0605 45.8008 -36.377 L 45.8008 -36.1328 C 51.0742 -35.5957 54.9316 -31.2012 54.9316 -25.8301 C 54.9316 -18.6035 48.9746 -13.4766 40.5273 -13.4766 Z M 65.2832 -14.4531 C 63.7207 -14.4531 62.6953 -15.4297 62.6953 -16.9434 C 62.6953 -17.8223 62.9395 -18.5059 63.623 -19.1895 L 77.832 -35.8398 C 80.6152 -39.1113 82.9102 -41.8945 82.9102 -45.2637 C 82.9102 -49.5117 79.9316 -52.2949 75.1953 -52.2949 C 70.8984 -52.2949 67.7734 -49.8535 66.7969 -45.6543 C 66.3086 -44.3848 65.6738 -43.6035 64.3555 -43.6035 C 62.9395 -43.6035 62.0117 -44.6289 62.0117 -46.1426 C 62.0117 -46.6797 62.1094 -47.2168 62.207 -47.8027 C 63.3789 -53.125 68.7988 -57.0801 75.0488 -57.0801 C 82.8613 -57.0801 87.9395 -52.5879 87.9395 -45.6055 C 87.9395 -40.918 85.4492 -37.3047 81.3477 -32.5684 L 70.166 -19.5801 L 70.166 -19.3359 L 86.8164 -19.3359 C 88.1348 -19.3359 89.1113 -18.4082 89.1113 -16.8945 C 89.1113 -15.4297 88.1348 -14.4531 86.8164 -14.4531 Z"/>
  </g>
  <g id="Thin-M" transform="matrix(1 0 0 1 799.806 1126)">
   <path d="M 56.6406 12.7441 C 82.9102 12.7441 104.492 -8.83789 104.492 -35.1562 C 104.492 -61.4746 82.9102 -83.0566 56.5918 -83.0566 C 30.3223 -83.0566 8.74023 -61.4746 8.74023 -35.1562 C 8.74023 -8.83789 30.3223 12.7441 56.6406 12.7441 Z M 39.3066 -13.8184 C 32.7148 -13.8184 27.5879 -17.7246 26.123 -22.2656 C 25.9766 -22.7051 25.7812 -23.1445 25.7812 -23.6816 C 25.7812 -24.707 26.5137 -25.4883 27.5879 -25.4883 C 28.4668 -25.4883 28.9551 -24.9512 29.2969 -23.9258 C 30.6641 -19.7266 34.668 -17.1387 39.3066 -17.1387 C 45.5566 -17.1387 49.707 -20.8008 49.707 -25.8789 C 49.707 -30.7129 45.5566 -34.3262 39.7949 -34.3262 L 35.6934 -34.3262 C 34.668 -34.3262 34.082 -35.0098 34.082 -35.9863 C 34.082 -37.0117 34.7168 -37.6465 35.6934 -37.6465 L 39.4531 -37.6465 C 44.5801 -37.6465 48.3398 -41.1621 48.3398 -45.752 C 48.3398 -50.293 44.6777 -53.3691 39.3066 -53.3691 C 34.375 -53.3691 30.957 -50.6348 30.127 -46.582 C 29.834 -45.459 29.3457 -45.0195 28.418 -45.0195 C 27.1973 -45.0195 26.6602 -45.752 26.6602 -46.875 C 26.6602 -47.3145 26.709 -47.8027 26.8555 -48.291 C 28.0762 -53.418 33.3008 -56.6895 39.3066 -56.6895 C 46.582 -56.6895 51.8555 -52.3438 51.8555 -46.1426 C 51.8555 -41.4551 48.3398 -37.0117 43.7988 -36.2305 L 43.7988 -36.1328 C 49.1699 -35.5469 53.2715 -31.1035 53.2715 -25.8301 C 53.2715 -18.8477 47.4121 -13.8184 39.3066 -13.8184 Z M 64.1113 -14.5508 C 62.9883 -14.5508 62.207 -15.2832 62.207 -16.4062 C 62.207 -17.0898 62.3535 -17.5293 62.8418 -18.0176 L 77.9785 -35.5957 C 81.2012 -39.3555 82.959 -42.1387 82.959 -45.5078 C 82.959 -50.293 79.5898 -53.3691 74.0723 -53.3691 C 68.8965 -53.3691 65.0879 -50.2441 64.5508 -45.6055 C 64.3066 -44.6289 63.8184 -44.043 62.793 -44.043 C 61.7676 -44.043 61.084 -44.7754 61.084 -45.8008 C 61.084 -46.2891 61.1816 -46.7285 61.2305 -47.2168 C 62.2559 -52.7344 67.6758 -56.6895 74.0234 -56.6895 C 81.543 -56.6895 86.5234 -52.3438 86.5234 -45.5566 C 86.5234 -41.4551 84.375 -37.9395 79.9316 -32.7637 L 67.2852 -18.0664 L 67.2852 -17.9199 L 86.084 -17.9199 C 87.0605 -17.9199 87.7441 -17.2363 87.7441 -16.2598 C 87.7441 -15.332 87.0605 -14.5508 86.084 -14.5508 Z"/>
  </g>
  <g id="Ultralight-M" transform="matrix(1 0 0 1 503.656 1126)">
   <path d="M 56.0547 12.207 C 82.0801 12.207 103.369 -9.08203 103.369 -35.1562 C 103.369 -61.1816 82.0801 -82.4707 56.0547 -82.4707 C 30.0293 -82.4707 8.74023 -61.1816 8.74023 -35.1562 C 8.74023 -9.08203 30.0293 12.207 56.0547 12.207 Z M 38.6719 -14.0137 C 32.1777 -14.0137 27.1484 -17.8223 25.6348 -22.3145 C 25.5371 -22.6562 25.3418 -23.0957 25.3418 -23.584 C 25.3418 -24.4141 25.8789 -25 26.7578 -25 C 27.4902 -25 27.832 -24.5605 28.1738 -23.7305 C 29.541 -19.3359 33.8379 -16.6016 38.6719 -16.6016 C 45.3125 -16.6016 49.707 -20.4102 49.707 -25.8301 C 49.707 -30.8594 45.2148 -34.7168 39.209 -34.7168 L 34.7656 -34.7168 C 33.9355 -34.7168 33.4961 -35.2051 33.4961 -35.9863 C 33.4961 -36.8164 33.9844 -37.3047 34.7656 -37.3047 L 38.8672 -37.3047 C 44.2383 -37.3047 48.2422 -41.0645 48.2422 -45.8496 C 48.2422 -50.6836 44.3848 -53.9551 38.623 -53.9551 C 33.3984 -53.9551 29.6875 -50.9766 28.9551 -46.8262 C 28.8086 -45.8008 28.3691 -45.459 27.6367 -45.459 C 26.5625 -45.459 26.2207 -46.0449 26.2207 -46.9727 C 26.2207 -47.3633 26.2695 -47.8516 26.416 -48.291 C 27.5879 -53.418 32.8125 -56.4941 38.5742 -56.4941 C 45.752 -56.4941 50.9766 -52.1973 50.9766 -46.0938 C 50.9766 -41.4551 47.4121 -37.0117 42.8223 -36.1816 L 42.8223 -36.1328 C 48.2422 -35.498 52.4414 -31.1035 52.4414 -25.8301 C 52.4414 -18.9941 46.6309 -14.0137 38.6719 -14.0137 Z M 63.5254 -14.6484 C 62.5977 -14.6484 61.9629 -15.1855 61.9629 -16.1133 C 61.9629 -16.6992 62.0605 -17.041 62.4512 -17.3828 L 78.0273 -35.4492 C 81.4941 -39.502 82.959 -42.2363 82.959 -45.6055 C 82.959 -50.6836 79.3945 -53.9551 73.5352 -53.9551 C 67.8711 -53.9551 63.7207 -50.4395 63.4277 -45.6055 C 63.3301 -44.7266 62.8906 -44.2383 61.9629 -44.2383 C 61.1816 -44.2383 60.5957 -44.873 60.5957 -45.6543 C 60.5957 -46.0938 60.6934 -46.4355 60.7422 -46.9727 C 61.6699 -52.4902 67.0898 -56.4941 73.5352 -56.4941 C 80.8594 -56.4941 85.791 -52.1973 85.791 -45.5566 C 85.791 -41.6992 83.8379 -38.2812 79.1504 -32.8613 L 65.7715 -17.334 L 65.7715 -17.1875 L 85.7422 -17.1875 C 86.5234 -17.1875 87.0117 -16.6504 87.0117 -15.918 C 87.0117 -15.2344 86.5234 -14.6484 85.7422 -14.6484 Z"/>
  </g>
  <g id="Black-S" transform="matrix(1 0 0 1 2884.57 696)">
   <path d="M 48.8281 6.78711 C 71.9727 6.78711 90.8203 -12.0605 90.8203 -35.2051 C 90.8203 -58.3496 71.9727 -77.1973 48.8281 -77.1973 C 25.6836 -77.1973 6.83594 -58.3496 6.83594 -35.2051 C 6.83594 -12.0605 25.6836 6.78711 48.8281 6.78711 Z M 37.6465 -20.2637 C 33.252 -20.2637 29.2969 -22.998 28.418 -25.8789 C 28.1738 -26.5625 28.0273 -27.1973 28.0273 -27.8809 C 28.0273 -30.127 29.834 -31.2988 31.3965 -31.2988 C 32.8613 -31.2988 33.9355 -30.7129 34.7168 -29.6387 C 35.5957 -28.3691 36.7676 -27.832 37.793 -27.832 C 38.916 -27.832 39.6484 -28.7109 39.6484 -29.6387 C 39.6484 -30.8105 38.916 -31.543 37.5977 -31.543 L 37.5488 -31.543 C 34.8633 -31.543 33.7402 -33.1055 33.7402 -35.3516 C 33.7402 -37.5488 35.1074 -39.1113 37.5488 -39.1113 L 37.5977 -39.1113 C 38.916 -39.1113 39.3555 -40.1367 39.3555 -41.0156 C 39.3555 -42.2852 38.5742 -43.0664 37.5488 -43.0664 C 36.4746 -43.0664 35.6934 -42.4805 34.8145 -41.2598 C 34.082 -40.2344 33.0566 -39.502 31.543 -39.502 C 29.6875 -39.502 28.3691 -40.7227 28.3691 -42.9199 C 28.3691 -43.6523 28.5156 -44.3359 28.9062 -45.2637 C 29.834 -47.3633 32.959 -50.2441 37.6465 -50.2441 C 43.7012 -50.2441 47.4609 -47.1191 47.4609 -42.2363 C 47.4609 -39.4043 45.5078 -36.7188 42.9199 -36.2793 L 42.9199 -35.9375 C 45.9961 -35.6934 48.0469 -32.7148 48.0469 -29.1016 C 48.0469 -23.6816 44.043 -20.2637 37.6465 -20.2637 Z M 55.7129 -20.8008 C 53.5156 -20.8008 51.709 -22.3145 51.709 -24.8047 C 51.709 -26.416 52.2949 -27.7832 53.8086 -29.541 L 59.4727 -36.1816 C 61.2305 -38.2324 62.3535 -39.3555 62.3535 -40.8691 C 62.3535 -41.8945 61.377 -42.7734 60.2051 -42.7734 C 59.1309 -42.7734 58.252 -42.041 57.9102 -40.9668 C 57.5195 -39.5508 56.4941 -38.4766 54.4922 -38.4766 C 52.4414 -38.4766 51.123 -39.9414 51.123 -41.8945 C 51.123 -42.6758 51.2207 -43.2617 51.416 -43.9453 C 52.4902 -47.7539 56.2012 -50.2441 60.5469 -50.2441 C 66.0645 -50.2441 69.4336 -46.582 69.5312 -41.6016 C 69.5801 -38.3301 68.1152 -35.7422 65.1855 -32.3242 L 62.1582 -28.8086 L 62.1582 -28.418 L 66.5039 -28.418 C 68.9453 -28.418 70.459 -27.0508 70.459 -24.707 C 70.459 -22.2168 68.9453 -20.8008 66.5039 -20.8008 Z"/>
  </g>
  <g id="Heavy-S" transform="matrix(1 0 0 1 2588.47 696)">
   <path d="M 48.2422 6.15234 C 70.9961 6.15234 89.5996 -12.4512 89.5996 -35.2051 C 89.5996 -57.959 70.9961 -76.6113 48.1934 -76.6113 C 25.4395 -76.6113 6.83594 -57.959 6.83594 -35.2051 C 6.83594 -12.4512 25.4395 6.15234 48.2422 6.15234 Z M 36.5234 -19.6777 C 31.8359 -19.6777 27.832 -22.5586 26.9043 -25.6836 C 26.6602 -26.3184 26.5625 -26.9043 26.5625 -27.5879 C 26.5625 -29.6387 28.1738 -30.8105 29.7363 -30.8105 C 31.1523 -30.8105 32.1289 -30.1758 32.8613 -29.0527 C 33.7891 -27.4414 35.1562 -26.6602 36.6699 -26.6602 C 38.3301 -26.6602 39.502 -27.8809 39.502 -29.2969 C 39.502 -30.9082 38.4277 -31.9336 36.5723 -31.9336 L 36.0352 -31.9336 C 33.6426 -31.9336 32.5195 -33.3984 32.5195 -35.4492 C 32.5195 -37.5 33.7891 -38.9648 36.0352 -38.9648 L 36.5234 -38.9648 C 38.2324 -38.9648 39.0625 -40.1855 39.0625 -41.5039 C 39.0625 -43.1152 37.9883 -44.1406 36.4746 -44.1406 C 34.9609 -44.1406 33.9844 -43.3594 33.1055 -41.748 C 32.4219 -40.625 31.4453 -39.9414 29.9805 -39.9414 C 28.2227 -39.9414 26.9531 -41.1133 26.9531 -43.1641 C 26.9531 -43.8965 27.0996 -44.4824 27.3926 -45.3125 C 28.3691 -47.8516 31.6895 -50.8301 36.6211 -50.8301 C 42.6758 -50.8301 46.5332 -47.5586 46.5332 -42.627 C 46.5332 -39.5508 44.4336 -36.7188 41.6992 -36.2793 L 41.6992 -35.9375 C 45.0195 -35.6445 47.2168 -32.5684 47.2168 -28.8086 C 47.2168 -23.291 43.0664 -19.6777 36.5234 -19.6777 Z M 54.8828 -20.3125 C 52.832 -20.3125 51.2207 -21.7285 51.2207 -24.0234 C 51.2207 -25.4395 51.709 -26.6602 53.0273 -28.1738 L 59.8145 -36.1328 C 61.5723 -38.1836 62.9395 -39.5508 62.9395 -41.3574 C 62.9395 -42.7734 61.7676 -43.8965 60.1562 -43.8965 C 58.7402 -43.8965 57.6172 -43.0664 57.0801 -41.5527 C 56.6406 -40.1855 55.7129 -39.1602 53.9062 -39.1602 C 51.9531 -39.1602 50.7324 -40.5273 50.7324 -42.4316 C 50.7324 -43.1152 50.8301 -43.7012 50.9766 -44.3359 C 52.0996 -48.1934 55.9082 -50.8301 60.3516 -50.8301 C 66.0645 -50.8301 69.6289 -47.168 69.7266 -42.041 C 69.7266 -38.5254 68.0664 -35.8398 65.1855 -32.4707 L 61.1328 -27.7832 L 61.1328 -27.3926 L 66.9922 -27.3926 C 69.1895 -27.3926 70.6055 -26.123 70.6055 -23.9746 C 70.6055 -21.6797 69.1895 -20.3125 66.9922 -20.3125 Z"/>
  </g>
  <g id="Bold-S" transform="matrix(1 0 0 1 2292.44 696)">
   <path d="M 47.5586 5.46875 C 69.873 5.46875 88.2324 -12.8906 88.2324 -35.2051 C 88.2324 -57.5684 69.873 -75.9277 47.5098 -75.9277 C 25.1953 -75.9277 6.83594 -57.5684 6.83594 -35.2051 C 6.83594 -12.8906 25.1953 5.46875 47.5586 5.46875 Z M 35.3027 -19.043 C 30.2734 -19.043 26.1719 -22.1191 25.1953 -25.4395 C 25 -26.0254 24.9023 -26.5625 24.9023 -27.1973 C 24.9023 -29.1016 26.3672 -30.2246 27.8809 -30.2246 C 29.248 -30.2246 30.127 -29.6387 30.8105 -28.3691 C 31.7871 -26.416 33.3496 -25.3906 35.4004 -25.3906 C 37.6953 -25.3906 39.3555 -26.9531 39.3555 -28.8574 C 39.3555 -31.0059 37.8906 -32.373 35.4004 -32.373 L 34.2773 -32.373 C 32.2266 -32.373 31.2012 -33.7402 31.2012 -35.5469 C 31.2012 -37.4512 32.373 -38.7695 34.2773 -38.7695 L 35.3027 -38.7695 C 37.4512 -38.7695 38.7207 -40.2344 38.7207 -42.0898 C 38.7207 -43.9941 37.3047 -45.3125 35.3027 -45.3125 C 33.3008 -45.3125 32.0801 -44.3359 31.1523 -42.334 C 30.5664 -41.1133 29.6875 -40.4297 28.2715 -40.4297 C 26.6113 -40.4297 25.3906 -41.5527 25.3906 -43.457 C 25.3906 -44.1406 25.4883 -44.6777 25.7324 -45.4102 C 26.709 -48.4375 30.2734 -51.4648 35.4492 -51.4648 C 41.5039 -51.4648 45.5078 -48.0957 45.5078 -43.0176 C 45.5078 -39.7461 43.2617 -36.7188 40.332 -36.2305 L 40.332 -35.9375 C 43.8965 -35.5957 46.3379 -32.4219 46.3379 -28.4668 C 46.3379 -22.8027 41.9434 -19.043 35.3027 -19.043 Z M 53.9551 -19.8242 C 52.0508 -19.8242 50.6348 -21.0938 50.6348 -23.1445 C 50.6348 -24.3652 51.0742 -25.4395 52.1973 -26.709 L 60.1562 -36.084 C 61.9141 -38.1348 63.623 -39.7949 63.623 -41.8457 C 63.623 -43.75 62.1582 -45.166 60.1074 -45.166 C 58.3008 -45.166 56.9336 -44.1895 56.2012 -42.1875 C 55.6641 -40.8691 54.834 -39.9414 53.2227 -39.9414 C 51.416 -39.9414 50.293 -41.2109 50.293 -43.0176 C 50.293 -43.6523 50.3906 -44.1895 50.5371 -44.7754 C 51.6113 -48.7305 55.6152 -51.4648 60.1562 -51.4648 C 66.1133 -51.4648 69.873 -47.8027 69.9219 -42.4805 C 69.9219 -38.7695 68.0176 -35.9863 65.1367 -32.666 L 59.9609 -26.6113 L 59.9609 -26.2695 L 67.5781 -26.2695 C 69.4824 -26.2695 70.8008 -25.0977 70.8008 -23.0957 C 70.8008 -21.0449 69.4824 -19.8242 67.5781 -19.8242 Z"/>
  </g>
  <g id="Semibold-S" transform="matrix(1 0 0 1 1996.2 696)">
   <path d="M 47.0703 4.98047 C 69.0918 4.98047 87.3047 -13.1836 87.3047 -35.2539 C 87.3047 -57.2754 69.0918 -75.4883 47.0215 -75.4883 C 25 -75.4883 6.83594 -57.2754 6.83594 -35.2539 C 6.83594 -13.1836 25.0488 4.98047 47.0703 4.98047 Z M 34.4238 -18.6035 C 29.1992 -18.6035 25 -21.7773 24.0234 -25.2441 C 23.8281 -25.8789 23.7793 -26.3184 23.7793 -26.9531 C 23.7793 -28.7598 25.0977 -29.8828 26.6113 -29.8828 C 27.9297 -29.8828 28.7598 -29.1992 29.3945 -27.9297 C 30.3711 -25.6836 32.0801 -24.5117 34.4727 -24.5117 C 37.2559 -24.5117 39.2578 -26.3184 39.2578 -28.6133 C 39.2578 -31.1035 37.5 -32.666 34.5703 -32.666 L 33.1055 -32.666 C 31.2988 -32.666 30.2734 -33.9355 30.2734 -35.6445 C 30.2734 -37.4023 31.3477 -38.623 33.1055 -38.623 L 34.4727 -38.623 C 36.9141 -38.623 38.4766 -40.2832 38.4766 -42.4805 C 38.4766 -44.6289 36.8164 -46.0938 34.5215 -46.0938 C 32.1777 -46.0938 30.7617 -45.0195 29.7852 -42.7246 C 29.248 -41.4062 28.418 -40.7227 27.0508 -40.7227 C 25.4395 -40.7227 24.3164 -41.8945 24.3164 -43.6523 C 24.3164 -44.2871 24.3652 -44.7754 24.5605 -45.459 C 25.5859 -48.7793 29.3457 -51.9043 34.6191 -51.9043 C 40.7227 -51.9043 44.7754 -48.4375 44.7754 -43.3105 C 44.7754 -39.8926 42.4316 -36.7188 39.4043 -36.2305 L 39.4043 -35.9375 C 43.1152 -35.5957 45.7031 -32.3242 45.7031 -28.2227 C 45.7031 -22.5098 41.2109 -18.6035 34.4238 -18.6035 Z M 53.3203 -19.4336 C 51.5137 -19.4336 50.293 -20.6543 50.293 -22.5098 C 50.293 -23.584 50.6348 -24.5605 51.6113 -25.6348 L 60.4004 -36.0352 C 62.1582 -38.0859 64.1113 -39.9902 64.1113 -42.2363 C 64.1113 -44.4336 62.4512 -46.0449 60.0586 -46.0449 C 57.959 -46.0449 56.4941 -44.9707 55.5664 -42.6758 C 54.9805 -41.3574 54.248 -40.4785 52.7344 -40.4785 C 51.0254 -40.4785 50 -41.6504 50 -43.4082 C 50 -43.9941 50.0977 -44.5312 50.1953 -45.0684 C 51.3184 -49.0723 55.3711 -51.9043 60.0098 -51.9043 C 66.1133 -51.9043 70.0195 -48.2422 70.0684 -42.8223 C 70.0684 -38.916 68.0176 -36.084 65.1367 -32.7637 L 59.1797 -25.8301 L 59.1797 -25.4883 L 67.9688 -25.4883 C 69.6777 -25.4883 70.8984 -24.4141 70.8984 -22.5098 C 70.8984 -20.6055 69.6777 -19.4336 67.9688 -19.4336 Z"/>
  </g>
  <g id="Medium-S" transform="matrix(1 0 0 1 1699.83 696)">
   <path d="M 46.7285 4.63867 C 68.5547 4.63867 86.6211 -13.4277 86.6211 -35.2539 C 86.6211 -57.0312 68.5059 -75.1465 46.6797 -75.1465 C 24.8535 -75.1465 6.83594 -57.0312 6.83594 -35.2539 C 6.83594 -13.4277 24.9023 4.63867 46.7285 4.63867 Z M 33.7891 -18.2617 C 28.3691 -18.2617 24.1211 -21.5332 23.1445 -25.1465 C 22.9492 -25.7324 22.9004 -26.1719 22.9004 -26.7578 C 22.9004 -28.4668 24.1211 -29.5898 25.6348 -29.5898 C 26.9043 -29.5898 27.7344 -28.9062 28.2715 -27.5391 C 29.3457 -25.1465 31.1523 -23.8281 33.8379 -23.8281 C 36.9629 -23.8281 39.1602 -25.8301 39.1602 -28.3691 C 39.1602 -31.1523 37.207 -32.9102 33.9844 -32.9102 L 32.2266 -32.9102 C 30.5664 -32.9102 29.541 -34.1309 29.541 -35.6934 C 29.541 -37.4023 30.6152 -38.5254 32.2266 -38.5254 L 33.8379 -38.5254 C 36.5234 -38.5254 38.2812 -40.332 38.2812 -42.7734 C 38.2812 -45.1172 36.4746 -46.7285 33.8867 -46.7285 C 31.2988 -46.7285 29.7363 -45.5078 28.8086 -43.0176 C 28.2715 -41.6504 27.4902 -40.9668 26.1719 -40.9668 C 24.6094 -40.9668 23.5352 -42.0898 23.5352 -43.7988 C 23.5352 -44.4336 23.5352 -44.873 23.6816 -45.5078 C 24.7559 -49.0723 28.5645 -52.2461 34.0332 -52.2461 C 40.0879 -52.2461 44.2383 -48.6816 44.2383 -43.5547 C 44.2383 -39.9414 41.7969 -36.7188 38.6719 -36.2305 L 38.6719 -35.9375 C 42.5293 -35.5469 45.2637 -32.2266 45.2637 -28.0762 C 45.2637 -22.2656 40.625 -18.2617 33.7891 -18.2617 Z M 52.832 -19.1895 C 51.123 -19.1895 50 -20.3125 50 -22.0703 C 50 -23.0469 50.293 -23.9258 51.1719 -24.8535 L 60.5957 -35.9863 C 62.3535 -38.0371 64.4531 -40.0879 64.4531 -42.4805 C 64.4531 -44.9707 62.6465 -46.6797 60.0098 -46.6797 C 57.7148 -46.6797 56.1035 -45.5566 55.0781 -43.0176 C 54.4922 -41.6992 53.8086 -40.8691 52.3926 -40.8691 C 50.7812 -40.8691 49.7559 -41.9922 49.7559 -43.7012 C 49.7559 -44.2383 49.8535 -44.7754 49.9512 -45.3125 C 51.0742 -49.3164 55.2246 -52.2461 59.9121 -52.2461 C 66.1621 -52.2461 70.1172 -48.584 70.166 -43.0664 C 70.166 -39.0625 67.9688 -36.1816 65.1367 -32.8613 L 58.5449 -25.2441 L 58.5449 -24.9023 L 68.2617 -24.9023 C 69.8242 -24.9023 70.9961 -23.877 70.9961 -22.0703 C 70.9961 -20.2637 69.8242 -19.1895 68.2617 -19.1895 Z"/>
  </g>
  <g id="Regular-S" transform="matrix(1 0 0 1 1403.58 696)">
   <path d="M 46.2402 4.15039 C 67.7734 4.15039 85.6934 -13.7207 85.6934 -35.2539 C 85.6934 -56.7871 67.7246 -74.6582 46.1914 -74.6582 C 24.707 -74.6582 6.83594 -56.7871 6.83594 -35.2539 C 6.83594 -13.7207 24.7559 4.15039 46.2402 4.15039 Z M 32.9102 -17.8223 C 27.3438 -17.8223 22.998 -21.1914 21.9727 -24.9512 C 21.8262 -25.5371 21.7773 -25.9277 21.7773 -26.5625 C 21.7773 -28.0762 22.8516 -29.1992 24.3652 -29.1992 C 25.5859 -29.1992 26.3672 -28.5156 26.9043 -27.0996 C 27.9785 -24.4141 29.8828 -22.9492 32.959 -22.9492 C 36.5234 -22.9492 39.0625 -25.1953 39.0625 -28.125 C 39.0625 -31.25 36.8164 -33.2031 33.1543 -33.2031 L 31.0547 -33.2031 C 29.6387 -33.2031 28.6133 -34.3262 28.6133 -35.7422 C 28.6133 -37.3535 29.6387 -38.3789 31.0547 -38.3789 L 33.0078 -38.3789 C 35.9863 -38.3789 38.0859 -40.332 38.0859 -43.1152 C 38.0859 -45.752 36.0352 -47.5586 33.1055 -47.5586 C 30.1758 -47.5586 28.418 -46.1914 27.4902 -43.4082 C 27.002 -41.9922 26.2695 -41.3086 24.9512 -41.3086 C 23.4863 -41.3086 22.4609 -42.3828 22.4609 -43.9941 C 22.4609 -44.5801 22.4609 -44.9707 22.5586 -45.5566 C 23.6328 -49.4629 27.6367 -52.6855 33.252 -52.6855 C 39.3066 -52.6855 43.5547 -49.0234 43.5547 -43.8477 C 43.5547 -40.0879 41.0156 -36.7188 37.7441 -36.2305 L 37.7441 -35.9375 C 41.7969 -35.5469 44.6289 -32.1289 44.6289 -27.832 C 44.6289 -21.9727 39.8438 -17.8223 32.9102 -17.8223 Z M 52.1973 -18.7988 C 50.5859 -18.7988 49.6094 -19.873 49.6094 -21.4844 C 49.6094 -22.2656 49.9023 -23.0957 50.5859 -23.8281 L 60.8398 -35.9375 C 62.5977 -38.0371 64.8926 -40.2832 64.8926 -42.8711 C 64.8926 -45.6543 62.9395 -47.5586 59.9609 -47.5586 C 57.4219 -47.5586 55.6641 -46.3379 54.4922 -43.457 C 53.8086 -42.1875 53.2227 -41.4062 51.9043 -41.4062 C 50.3906 -41.4062 49.4629 -42.4316 49.4629 -44.0918 C 49.4629 -44.5801 49.5605 -45.1172 49.6582 -45.6055 C 50.7324 -49.6582 54.9805 -52.6855 59.7656 -52.6855 C 66.1621 -52.6855 70.3125 -49.0234 70.3125 -43.4082 C 70.3125 -39.209 67.9199 -36.2793 65.1367 -32.959 L 57.7637 -24.4141 L 57.7637 -24.1211 L 68.6523 -24.1211 C 70.0195 -24.1211 71.1426 -23.1445 71.1426 -21.4844 C 71.1426 -19.873 70.0195 -18.7988 68.6523 -18.7988 Z"/>
  </g>
  <g id="Light-S" transform="matrix(1 0 0 1 1107.6 696)">
   <path d="M 45.5078 3.4668 C 66.6992 3.4668 84.2285 -14.0625 84.2285 -35.2051 C 84.2285 -56.3965 66.6504 -73.9258 45.5078 -73.9258 C 24.3164 -73.9258 6.83594 -56.3965 6.83594 -35.2051 C 6.83594 -14.0625 24.3652 3.4668 45.5078 3.4668 Z M 32.0801 -18.0664 C 26.6602 -18.0664 22.4609 -21.3379 21.3867 -25 C 21.2402 -25.4883 21.1914 -25.8789 21.1914 -26.416 C 21.1914 -27.6855 22.0703 -28.5645 23.291 -28.5645 C 24.3164 -28.5645 24.9512 -28.0273 25.3906 -26.8066 C 26.4648 -23.9258 28.8574 -22.2168 32.1289 -22.2168 C 36.1816 -22.2168 39.0137 -24.707 39.0137 -28.0273 C 39.0137 -31.3965 36.377 -33.6914 32.4219 -33.6914 L 29.834 -33.6914 C 28.6621 -33.6914 27.8809 -34.6191 27.8809 -35.791 C 27.8809 -37.0605 28.6621 -37.8906 29.834 -37.8906 L 32.2266 -37.8906 C 35.5957 -37.8906 37.9883 -40.1855 37.9883 -43.2617 C 37.9883 -46.2402 35.5957 -48.291 32.1777 -48.291 C 28.9062 -48.291 26.8066 -46.6309 25.9766 -43.7012 C 25.5859 -42.4805 25 -41.8945 23.9258 -41.8945 C 22.6562 -41.8945 21.875 -42.8223 21.875 -44.1406 C 21.875 -44.6289 21.875 -45.0195 21.9727 -45.5078 C 22.998 -49.4629 27.0508 -52.4414 32.2754 -52.4414 C 38.2324 -52.4414 42.4316 -48.877 42.4316 -43.7988 C 42.4316 -40.0879 39.7949 -36.6699 36.4258 -36.1328 L 36.4258 -35.9375 C 40.5273 -35.498 43.5059 -32.0801 43.5059 -27.832 C 43.5059 -22.1191 38.8184 -18.0664 32.0801 -18.0664 Z M 51.4648 -18.8965 C 50.0977 -18.8965 49.2676 -19.7754 49.2676 -21.0938 C 49.2676 -21.7773 49.4629 -22.4121 50.0488 -23.0469 L 60.9375 -35.791 C 62.9883 -38.1836 64.9414 -40.4297 64.9414 -43.0176 C 64.9414 -46.1914 62.6953 -48.291 59.2285 -48.291 C 56.1035 -48.291 53.8574 -46.582 52.9785 -43.4082 C 52.4902 -42.334 51.9531 -41.6992 50.8789 -41.6992 C 49.6094 -41.6992 48.8281 -42.5293 48.8281 -43.8965 C 48.8281 -44.3359 48.9258 -44.7754 48.9746 -45.2148 C 50 -49.3652 54.248 -52.4414 59.082 -52.4414 C 65.2832 -52.4414 69.3359 -48.877 69.3359 -43.3594 C 69.3359 -39.5508 67.2363 -36.6699 64.1602 -33.1055 L 55.8105 -23.4375 L 55.8105 -23.1445 L 68.2129 -23.1445 C 69.3359 -23.1445 70.2148 -22.3633 70.2148 -21.0449 C 70.2148 -19.7754 69.3359 -18.8965 68.2129 -18.8965 Z"/>
  </g>
  <g id="Thin-S" transform="matrix(1 0 0 1 811.867 696)">
   <path d="M 44.5801 2.53906 C 65.2832 2.53906 82.2754 -14.4531 82.2754 -35.2051 C 82.2754 -55.9082 65.2344 -72.9004 44.5312 -72.9004 C 23.8281 -72.9004 6.83594 -55.9082 6.83594 -35.2051 C 6.83594 -14.4531 23.877 2.53906 44.5801 2.53906 Z M 31.0059 -18.4082 C 25.7812 -18.4082 21.7285 -21.4844 20.6055 -25.0488 C 20.5078 -25.4395 20.3613 -25.7812 20.3613 -26.2207 C 20.3613 -27.0996 20.9961 -27.7832 21.875 -27.7832 C 22.6562 -27.7832 23.0469 -27.3438 23.3887 -26.4648 C 24.4629 -23.2422 27.4414 -21.2891 31.0059 -21.2891 C 35.791 -21.2891 38.9648 -24.0723 38.9648 -27.9297 C 38.9648 -31.6406 35.8398 -34.375 31.3965 -34.375 L 28.2715 -34.375 C 27.3926 -34.375 26.9043 -34.9609 26.9043 -35.791 C 26.9043 -36.7188 27.4414 -37.2559 28.2715 -37.2559 L 31.1523 -37.2559 C 35.0098 -37.2559 37.8906 -39.9414 37.8906 -43.457 C 37.8906 -46.875 35.1074 -49.2188 31.0059 -49.2188 C 27.2461 -49.2188 24.707 -47.168 24.0234 -44.043 C 23.7793 -43.1152 23.3398 -42.7246 22.5586 -42.7246 C 21.5332 -42.7246 21.0449 -43.3594 21.0449 -44.2871 C 21.0449 -44.6777 21.0938 -45.0684 21.1914 -45.5078 C 22.168 -49.4629 26.2207 -52.0996 31.0547 -52.0996 C 36.8164 -52.0996 40.918 -48.6816 40.918 -43.7988 C 40.918 -40.0879 38.2324 -36.6699 34.7168 -36.0352 L 34.7168 -35.9375 C 38.8672 -35.498 42.041 -32.0312 42.041 -27.8809 C 42.041 -22.3633 37.4512 -18.4082 31.0059 -18.4082 Z M 50.4395 -18.9941 C 49.4629 -18.9941 48.8281 -19.6289 48.8281 -20.6055 C 48.8281 -21.1426 48.9746 -21.5332 49.3652 -21.9727 L 61.0352 -35.5469 C 63.4766 -38.4277 64.9414 -40.5762 64.9414 -43.2129 C 64.9414 -46.875 62.4023 -49.2188 58.252 -49.2188 C 54.3457 -49.2188 51.5137 -46.9238 51.0254 -43.4082 C 50.7812 -42.5293 50.3418 -42.041 49.4629 -42.041 C 48.584 -42.041 48.0469 -42.6758 48.0469 -43.6035 C 48.0469 -43.9941 48.0957 -44.3359 48.1445 -44.7266 C 48.9746 -49.0234 53.2227 -52.0996 58.2031 -52.0996 C 64.1113 -52.0996 68.0664 -48.6816 68.0664 -43.3594 C 68.0664 -39.9902 66.3086 -37.2559 62.8906 -33.252 L 53.2227 -22.0703 L 53.2227 -21.9238 L 67.5781 -21.9238 C 68.4082 -21.9238 68.9941 -21.3379 68.9941 -20.5078 C 68.9941 -19.6777 68.4082 -18.9941 67.5781 -18.9941 Z"/>
  </g>
  <g id="Ultralight-S" transform="matrix(1 0 0 1 515.644 696)">
   <path d="M 44.043 2.05078 C 64.502 2.05078 81.2988 -14.6973 81.2988 -35.1562 C 81.2988 -55.6152 64.502 -72.3633 44.043 -72.3633 C 23.584 -72.3633 6.83594 -55.6152 6.83594 -35.1562 C 6.83594 -14.6973 23.584 2.05078 44.043 2.05078 Z M 30.4688 -18.5547 C 25.3418 -18.5547 21.3867 -21.582 20.2148 -25.0977 C 20.1172 -25.3906 19.9707 -25.7324 19.9707 -26.123 C 19.9707 -26.8066 20.459 -27.3438 21.1426 -27.3438 C 21.7773 -27.3438 22.1191 -27.002 22.3633 -26.2695 C 23.4375 -22.9004 26.709 -20.752 30.4688 -20.752 C 35.5469 -20.752 38.916 -23.7305 38.916 -27.8809 C 38.916 -31.7383 35.498 -34.7168 30.8594 -34.7168 L 27.4902 -34.7168 C 26.7578 -34.7168 26.3672 -35.1562 26.3672 -35.8398 C 26.3672 -36.5234 26.8066 -36.9629 27.4902 -36.9629 L 30.6152 -36.9629 C 34.7168 -36.9629 37.793 -39.8438 37.793 -43.5547 C 37.793 -47.2168 34.8145 -49.7559 30.4199 -49.7559 C 26.416 -49.7559 23.584 -47.5098 22.998 -44.2383 C 22.8027 -43.4082 22.4609 -43.1152 21.8262 -43.1152 C 20.9961 -43.1152 20.6543 -43.6523 20.6543 -44.4336 C 20.6543 -44.7266 20.7031 -45.1172 20.8008 -45.459 C 21.7285 -49.4629 25.8301 -51.9531 30.4199 -51.9531 C 36.0352 -51.9531 40.1855 -48.584 40.1855 -43.75 C 40.1855 -40.0879 37.4023 -36.6211 33.7891 -35.9863 L 33.7891 -35.9375 C 38.0371 -35.4492 41.3086 -31.9824 41.3086 -27.8809 C 41.3086 -22.4609 36.7188 -18.5547 30.4688 -18.5547 Z M 49.9023 -19.0918 C 49.1699 -19.0918 48.584 -19.5312 48.584 -20.3125 C 48.584 -20.8496 48.6816 -21.0938 49.0234 -21.4355 L 61.1328 -35.4492 C 63.7695 -38.5254 64.9902 -40.7227 64.9902 -43.3105 C 64.9902 -47.2168 62.2559 -49.7559 57.7148 -49.7559 C 53.418 -49.7559 50.293 -47.0703 50 -43.3594 C 49.8535 -42.627 49.5117 -42.2363 48.7305 -42.2363 C 48.0469 -42.2363 47.6074 -42.7734 47.6074 -43.457 C 47.6074 -43.7988 47.6562 -44.0918 47.7051 -44.4824 C 48.4375 -48.8281 52.6855 -51.9531 57.7148 -51.9531 C 63.5254 -51.9531 67.3828 -48.584 67.3828 -43.3105 C 67.3828 -40.2344 65.8203 -37.5488 62.207 -33.3496 L 51.9043 -21.3867 L 51.9043 -21.2891 L 67.2363 -21.2891 C 67.9199 -21.2891 68.3594 -20.8008 68.3594 -20.166 C 68.3594 -19.5801 67.9199 -19.0918 67.2363 -19.0918 Z"/>
  </g>
 </g>
</svg>
