<?xml version="1.0" encoding="UTF-8"?>
<!--Generator: Apple Native CoreSVG 123-->
<!DOCTYPE svg
PUBLIC "-//W3C//DTD SVG 1.1//EN"
       "http://www.w3.org/Graphics/SVG/1.1/DTD/svg11.dtd">
<svg version="1.1" xmlns="http://www.w3.org/2000/svg" xmlns:xlink="http://www.w3.org/1999/xlink" width="3300" height="2200">
 <!--glyph: "uni10069A.medium", point size: 100.000000, font version: "Version 15.0d7e11", template writer version: "5"-->
 <g id="Notes">
  <rect height="2200" id="artboard" style="fill:white;opacity:1" width="3300" x="0" y="0"/>
  <line id="" style="fill:none;stroke:black;opacity:1;stroke-width:0.5;" x1="263" x2="3036" y1="292" y2="292"/>
  <text style="stroke:none;fill:black;font-family:-apple-system,&quot;SF Pro Display&quot;,&quot;SF Pro Text&quot;,Helvetica,sans-serif;font-weight:bold;" transform="matrix(1 0 0 1 263 322)">Weight/Scale Variations</text>
  <text style="stroke:none;fill:black;font-family:-apple-system,&quot;SF Pro Display&quot;,&quot;SF Pro Text&quot;,Helvetica,sans-serif;text-anchor:middle;" transform="matrix(1 0 0 1 559.711 322)">Ultralight</text>
  <text style="stroke:none;fill:black;font-family:-apple-system,&quot;SF Pro Display&quot;,&quot;SF Pro Text&quot;,Helvetica,sans-serif;text-anchor:middle;" transform="matrix(1 0 0 1 856.422 322)">Thin</text>
  <text style="stroke:none;fill:black;font-family:-apple-system,&quot;SF Pro Display&quot;,&quot;SF Pro Text&quot;,Helvetica,sans-serif;text-anchor:middle;" transform="matrix(1 0 0 1 1153.13 322)">Light</text>
  <text style="stroke:none;fill:black;font-family:-apple-system,&quot;SF Pro Display&quot;,&quot;SF Pro Text&quot;,Helvetica,sans-serif;text-anchor:middle;" transform="matrix(1 0 0 1 1449.84 322)">Regular</text>
  <text style="stroke:none;fill:black;font-family:-apple-system,&quot;SF Pro Display&quot;,&quot;SF Pro Text&quot;,Helvetica,sans-serif;text-anchor:middle;" transform="matrix(1 0 0 1 1746.56 322)">Medium</text>
  <text style="stroke:none;fill:black;font-family:-apple-system,&quot;SF Pro Display&quot;,&quot;SF Pro Text&quot;,Helvetica,sans-serif;text-anchor:middle;" transform="matrix(1 0 0 1 2043.27 322)">Semibold</text>
  <text style="stroke:none;fill:black;font-family:-apple-system,&quot;SF Pro Display&quot;,&quot;SF Pro Text&quot;,Helvetica,sans-serif;text-anchor:middle;" transform="matrix(1 0 0 1 2339.98 322)">Bold</text>
  <text style="stroke:none;fill:black;font-family:-apple-system,&quot;SF Pro Display&quot;,&quot;SF Pro Text&quot;,Helvetica,sans-serif;text-anchor:middle;" transform="matrix(1 0 0 1 2636.69 322)">Heavy</text>
  <text style="stroke:none;fill:black;font-family:-apple-system,&quot;SF Pro Display&quot;,&quot;SF Pro Text&quot;,Helvetica,sans-serif;text-anchor:middle;" transform="matrix(1 0 0 1 2933.4 322)">Black</text>
  <line id="" style="fill:none;stroke:black;opacity:1;stroke-width:0.5;" x1="263" x2="3036" y1="1903" y2="1903"/>
  <g id="" transform="matrix(1 0 0 1 263 1933)">
   <path d="M 9.24805 0.830078 C 13.5547 0.830078 17.1387 -2.74414 17.1387 -7.05078 C 17.1387 -11.3574 13.5449 -14.9316 9.23828 -14.9316 C 4.94141 -14.9316 1.36719 -11.3574 1.36719 -7.05078 C 1.36719 -2.74414 4.95117 0.830078 9.24805 0.830078 Z M 9.24805 -0.654297 C 5.70312 -0.654297 2.87109 -3.49609 2.87109 -7.05078 C 2.87109 -10.6055 5.69336 -13.4473 9.23828 -13.4473 C 12.793 -13.4473 15.6348 -10.6055 15.6445 -7.05078 C 15.6543 -3.49609 12.8027 -0.654297 9.24805 -0.654297 Z M 9.22852 -3.42773 C 9.69727 -3.42773 9.9707 -3.74023 9.9707 -4.25781 L 9.9707 -6.31836 L 12.1973 -6.31836 C 12.6953 -6.31836 13.0371 -6.57227 13.0371 -7.04102 C 13.0371 -7.51953 12.7148 -7.7832 12.1973 -7.7832 L 9.9707 -7.7832 L 9.9707 -10.0098 C 9.9707 -10.5273 9.69727 -10.8496 9.22852 -10.8496 C 8.75977 -10.8496 8.50586 -10.5078 8.50586 -10.0098 L 8.50586 -7.7832 L 6.29883 -7.7832 C 5.78125 -7.7832 5.44922 -7.51953 5.44922 -7.04102 C 5.44922 -6.57227 5.80078 -6.31836 6.29883 -6.31836 L 8.50586 -6.31836 L 8.50586 -4.25781 C 8.50586 -3.75977 8.75977 -3.42773 9.22852 -3.42773 Z"/>
  </g>
  <g id="" transform="matrix(1 0 0 1 281.506 1933)">
   <path d="M 11.709 2.91016 C 17.1582 2.91016 21.6699 -1.60156 21.6699 -7.05078 C 21.6699 -12.4902 17.1484 -17.0117 11.6992 -17.0117 C 6.25977 -17.0117 1.74805 -12.4902 1.74805 -7.05078 C 1.74805 -1.60156 6.26953 2.91016 11.709 2.91016 Z M 11.709 1.25 C 7.09961 1.25 3.41797 -2.44141 3.41797 -7.05078 C 3.41797 -11.6504 7.08984 -15.3516 11.6992 -15.3516 C 16.3086 -15.3516 20 -11.6504 20.0098 -7.05078 C 20.0195 -2.44141 16.3184 1.25 11.709 1.25 Z M 11.6895 -2.41211 C 12.207 -2.41211 12.5195 -2.77344 12.5195 -3.33984 L 12.5195 -6.23047 L 15.5762 -6.23047 C 16.123 -6.23047 16.5039 -6.51367 16.5039 -7.03125 C 16.5039 -7.55859 16.1426 -7.86133 15.5762 -7.86133 L 12.5195 -7.86133 L 12.5195 -10.9277 C 12.5195 -11.5039 12.207 -11.8555 11.6895 -11.8555 C 11.1719 -11.8555 10.8789 -11.4844 10.8789 -10.9277 L 10.8789 -7.86133 L 7.83203 -7.86133 C 7.26562 -7.86133 6.89453 -7.55859 6.89453 -7.03125 C 6.89453 -6.51367 7.28516 -6.23047 7.83203 -6.23047 L 10.8789 -6.23047 L 10.8789 -3.33984 C 10.8789 -2.79297 11.1719 -2.41211 11.6895 -2.41211 Z"/>
  </g>
  <g id="" transform="matrix(1 0 0 1 304.924 1933)">
   <path d="M 14.9707 5.67383 C 21.9336 5.67383 27.6953 -0.078125 27.6953 -7.04102 C 27.6953 -14.0039 21.9238 -19.7559 14.9609 -19.7559 C 8.00781 -19.7559 2.25586 -14.0039 2.25586 -7.04102 C 2.25586 -0.078125 8.01758 5.67383 14.9707 5.67383 Z M 14.9707 3.85742 C 8.93555 3.85742 4.08203 -1.00586 4.08203 -7.04102 C 4.08203 -13.0762 8.92578 -17.9395 14.9609 -17.9395 C 21.0059 -17.9395 25.8594 -13.0762 25.8691 -7.04102 C 25.8789 -1.00586 21.0156 3.85742 14.9707 3.85742 Z M 14.9512 -1.06445 C 15.5176 -1.06445 15.8691 -1.45508 15.8691 -2.06055 L 15.8691 -6.13281 L 20.1074 -6.13281 C 20.6934 -6.13281 21.1133 -6.46484 21.1133 -7.02148 C 21.1133 -7.59766 20.7227 -7.93945 20.1074 -7.93945 L 15.8691 -7.93945 L 15.8691 -12.1875 C 15.8691 -12.8027 15.5176 -13.1934 14.9512 -13.1934 C 14.3848 -13.1934 14.0625 -12.7832 14.0625 -12.1875 L 14.0625 -7.93945 L 9.83398 -7.93945 C 9.21875 -7.93945 8.80859 -7.59766 8.80859 -7.02148 C 8.80859 -6.46484 9.23828 -6.13281 9.83398 -6.13281 L 14.0625 -6.13281 L 14.0625 -2.06055 C 14.0625 -1.47461 14.3848 -1.06445 14.9512 -1.06445 Z"/>
  </g>
  <text style="stroke:none;fill:black;font-family:-apple-system,&quot;SF Pro Display&quot;,&quot;SF Pro Text&quot;,Helvetica,sans-serif;font-weight:bold;" transform="matrix(1 0 0 1 263 1953)">Design Variations</text>
  <text style="stroke:none;fill:black;font-family:-apple-system,&quot;SF Pro Display&quot;,&quot;SF Pro Text&quot;,Helvetica,sans-serif;" transform="matrix(1 0 0 1 263 1971)">Symbols are supported in up to nine weights and three scales.</text>
  <text style="stroke:none;fill:black;font-family:-apple-system,&quot;SF Pro Display&quot;,&quot;SF Pro Text&quot;,Helvetica,sans-serif;" transform="matrix(1 0 0 1 263 1989)">For optimal layout with text and other symbols, vertically align</text>
  <text style="stroke:none;fill:black;font-family:-apple-system,&quot;SF Pro Display&quot;,&quot;SF Pro Text&quot;,Helvetica,sans-serif;" transform="matrix(1 0 0 1 263 2007)">symbols with the adjacent text.</text>
  <rect height="14" id="" style="fill:#00AEEF;stroke:none;opacity:0.4;" width="3" x="776" y="1919"/>
  <g id="" transform="matrix(1 0 0 1 779 1933)">
   <path d="M 10.5273 0 L 12.373 0 L 7.17773 -14.0918 L 5.43945 -14.0918 L 0.244141 0 L 2.08984 0 L 3.50586 -4.0332 L 9.11133 -4.0332 Z M 6.2793 -11.9531 L 6.33789 -11.9531 L 8.59375 -5.52734 L 4.02344 -5.52734 Z"/>
  </g>
  <rect height="14" id="" style="fill:#00AEEF;stroke:none;opacity:0.4;" width="3" x="791.617" y="1919"/>
  <text style="stroke:none;fill:black;font-family:-apple-system,&quot;SF Pro Display&quot;,&quot;SF Pro Text&quot;,Helvetica,sans-serif;font-weight:bold;" transform="matrix(1 0 0 1 776 1953)">Margins</text>
  <text style="stroke:none;fill:black;font-family:-apple-system,&quot;SF Pro Display&quot;,&quot;SF Pro Text&quot;,Helvetica,sans-serif;" transform="matrix(1 0 0 1 776 1971)">Leading and trailing margins on the left and right side of each symbol</text>
  <text style="stroke:none;fill:black;font-family:-apple-system,&quot;SF Pro Display&quot;,&quot;SF Pro Text&quot;,Helvetica,sans-serif;" transform="matrix(1 0 0 1 776 1989)">can be adjusted by modifying the width of the blue rectangles.</text>
  <text style="stroke:none;fill:black;font-family:-apple-system,&quot;SF Pro Display&quot;,&quot;SF Pro Text&quot;,Helvetica,sans-serif;" transform="matrix(1 0 0 1 776 2007)">Modifications are automatically applied proportionally to all</text>
  <text style="stroke:none;fill:black;font-family:-apple-system,&quot;SF Pro Display&quot;,&quot;SF Pro Text&quot;,Helvetica,sans-serif;" transform="matrix(1 0 0 1 776 2025)">scales and weights.</text>
  <g id="" transform="matrix(1 0 0 1 1289 1933)">
   <path d="M 2.83203 3.11523 L 4.375 4.6582 C 5.22461 5.48828 6.19141 5.41992 7.06055 4.46289 L 17.2754 -6.66016 C 17.7051 -6.36719 18.0957 -6.37695 18.5645 -6.47461 L 19.6094 -6.68945 L 20.3027 -5.99609 L 20.2539 -5.47852 C 20.1855 -4.95117 20.3516 -4.53125 20.8496 -4.0332 L 21.6602 -3.22266 C 22.168 -2.71484 22.8223 -2.68555 23.3008 -3.16406 L 26.5527 -6.41602 C 27.0312 -6.89453 27.0117 -7.54883 26.5039 -8.05664 L 25.6836 -8.87695 C 25.1855 -9.375 24.7754 -9.55078 24.2383 -9.47266 L 23.7109 -9.41406 L 23.0566 -10.0781 L 23.3398 -11.2207 C 23.4863 -11.7871 23.3398 -12.2559 22.7148 -12.8613 L 20.3027 -15.2539 C 16.7578 -18.7793 12.2266 -18.6719 9.11133 -15.5371 C 8.69141 -15.1074 8.64258 -14.5215 8.91602 -14.0918 C 9.15039 -13.7207 9.62891 -13.4961 10.2734 -13.6621 C 11.7871 -14.043 13.3008 -13.9258 14.7852 -12.9199 L 14.1602 -11.3379 C 13.9258 -10.752 13.9453 -10.2734 14.1797 -9.83398 L 3.01758 0.439453 C 2.08008 1.30859 1.97266 2.25586 2.83203 3.11523 Z M 10.6738 -15.1465 C 13.3398 -17.1387 16.6504 -16.8262 19.0527 -14.4141 L 21.6797 -11.8066 C 21.9141 -11.5723 21.9434 -11.3867 21.8848 -11.0938 L 21.5039 -9.53125 L 23.0762 -7.95898 L 24.043 -8.04688 C 24.3262 -8.07617 24.4141 -8.05664 24.6387 -7.83203 L 25.2637 -7.20703 L 22.5098 -4.46289 L 21.8848 -5.07812 C 21.6602 -5.30273 21.6406 -5.40039 21.6699 -5.68359 L 21.7578 -6.64062 L 20.1953 -8.20312 L 18.5742 -7.89062 C 18.291 -7.83203 18.1445 -7.83203 17.9102 -8.07617 L 15.7324 -10.2539 C 15.5078 -10.4883 15.4785 -10.625 15.6055 -10.9473 L 16.5527 -13.2227 C 14.9512 -14.7559 12.8418 -15.6055 10.8008 -14.9512 C 10.7129 -14.9219 10.6445 -14.9414 10.6152 -14.9805 C 10.5859 -15.0293 10.5859 -15.0781 10.6738 -15.1465 Z M 4.10156 2.41211 C 3.61328 1.91406 3.78906 1.61133 4.12109 1.30859 L 15.0781 -8.80859 L 16.3086 -7.57812 L 6.15234 3.34961 C 5.84961 3.68164 5.46875 3.7793 5.06836 3.37891 Z"/>
  </g>
  <text style="stroke:none;fill:black;font-family:-apple-system,&quot;SF Pro Display&quot;,&quot;SF Pro Text&quot;,Helvetica,sans-serif;font-weight:bold;" transform="matrix(1 0 0 1 1289 1953)">Exporting</text>
  <text style="stroke:none;fill:black;font-family:-apple-system,&quot;SF Pro Display&quot;,&quot;SF Pro Text&quot;,Helvetica,sans-serif;" transform="matrix(1 0 0 1 1289 1971)">Symbols should be outlined when exporting to ensure the</text>
  <text style="stroke:none;fill:black;font-family:-apple-system,&quot;SF Pro Display&quot;,&quot;SF Pro Text&quot;,Helvetica,sans-serif;" transform="matrix(1 0 0 1 1289 1989)">design is preserved when submitting to Xcode.</text>
  <text id="template-version" style="stroke:none;fill:black;font-family:-apple-system,&quot;SF Pro Display&quot;,&quot;SF Pro Text&quot;,Helvetica,sans-serif;text-anchor:end;" transform="matrix(1 0 0 1 3036 1933)">Template v.1.0</text>
  <text style="stroke:none;fill:black;font-family:-apple-system,&quot;SF Pro Display&quot;,&quot;SF Pro Text&quot;,Helvetica,sans-serif;text-anchor:end;" transform="matrix(1 0 0 1 3036 1951)">Generated from 33.circle.fill</text>
  <text style="stroke:none;fill:black;font-family:-apple-system,&quot;SF Pro Display&quot;,&quot;SF Pro Text&quot;,Helvetica,sans-serif;text-anchor:end;" transform="matrix(1 0 0 1 3036 1969)">Typeset at 100 points</text>
  <text style="stroke:none;fill:black;font-family:-apple-system,&quot;SF Pro Display&quot;,&quot;SF Pro Text&quot;,Helvetica,sans-serif;" transform="matrix(1 0 0 1 263 726)">Small</text>
  <text style="stroke:none;fill:black;font-family:-apple-system,&quot;SF Pro Display&quot;,&quot;SF Pro Text&quot;,Helvetica,sans-serif;" transform="matrix(1 0 0 1 263 1156)">Medium</text>
  <text style="stroke:none;fill:black;font-family:-apple-system,&quot;SF Pro Display&quot;,&quot;SF Pro Text&quot;,Helvetica,sans-serif;" transform="matrix(1 0 0 1 263 1586)">Large</text>
 </g>
 <g id="Guides">
  <g id="H-reference" style="fill:#27AAE1;stroke:none;" transform="matrix(1 0 0 1 339 696)">
   <path d="M 54.9316 0 L 57.666 0 L 30.5664 -70.459 L 28.0762 -70.459 L 0.976562 0 L 3.66211 0 L 12.9395 -24.4629 L 45.7031 -24.4629 Z M 29.1992 -67.0898 L 29.4434 -67.0898 L 44.8242 -26.709 L 13.8184 -26.709 Z"/>
  </g>
  <line id="Baseline-S" style="fill:none;stroke:#27AAE1;opacity:1;stroke-width:0.577;" x1="263" x2="3036" y1="696" y2="696"/>
  <line id="Capline-S" style="fill:none;stroke:#27AAE1;opacity:1;stroke-width:0.577;" x1="263" x2="3036" y1="625.541" y2="625.541"/>
  <g id="H-reference" style="fill:#27AAE1;stroke:none;" transform="matrix(1 0 0 1 339 1126)">
   <path d="M 54.9316 0 L 57.666 0 L 30.5664 -70.459 L 28.0762 -70.459 L 0.976562 0 L 3.66211 0 L 12.9395 -24.4629 L 45.7031 -24.4629 Z M 29.1992 -67.0898 L 29.4434 -67.0898 L 44.8242 -26.709 L 13.8184 -26.709 Z"/>
  </g>
  <line id="Baseline-M" style="fill:none;stroke:#27AAE1;opacity:1;stroke-width:0.577;" x1="263" x2="3036" y1="1126" y2="1126"/>
  <line id="Capline-M" style="fill:none;stroke:#27AAE1;opacity:1;stroke-width:0.577;" x1="263" x2="3036" y1="1055.54" y2="1055.54"/>
  <g id="H-reference" style="fill:#27AAE1;stroke:none;" transform="matrix(1 0 0 1 339 1556)">
   <path d="M 54.9316 0 L 57.666 0 L 30.5664 -70.459 L 28.0762 -70.459 L 0.976562 0 L 3.66211 0 L 12.9395 -24.4629 L 45.7031 -24.4629 Z M 29.1992 -67.0898 L 29.4434 -67.0898 L 44.8242 -26.709 L 13.8184 -26.709 Z"/>
  </g>
  <line id="Baseline-L" style="fill:none;stroke:#27AAE1;opacity:1;stroke-width:0.577;" x1="263" x2="3036" y1="1556" y2="1556"/>
  <line id="Capline-L" style="fill:none;stroke:#27AAE1;opacity:1;stroke-width:0.577;" x1="263" x2="3036" y1="1485.54" y2="1485.54"/>
  <rect height="119.336" id="left-margin" style="fill:#00AEEF;stroke:none;opacity:0.4;" width="8.74023" x="1391.3" y="1030.79"/>
  <rect height="119.336" id="right-margin" style="fill:#00AEEF;stroke:none;opacity:0.4;" width="8.74023" x="1499.65" y="1030.79"/>
 </g>
 <g id="Symbols">
  <g id="Black-L" transform="matrix(1 0 0 1 2854.05 1556)">
   <path d="M 79.3457 32.8613 C 116.748 32.8613 147.412 2.19727 147.412 -35.2051 C 147.412 -72.6074 116.748 -103.271 79.2969 -103.271 C 41.8945 -103.271 11.2793 -72.6074 11.2793 -35.2051 C 11.2793 2.19727 41.9434 32.8613 79.3457 32.8613 Z M 59.0332 -9.47266 C 51.3184 -9.47266 44.5801 -14.2578 43.0664 -19.4336 C 42.7246 -20.5078 42.5293 -21.4355 42.5293 -22.5098 C 42.5293 -25.9277 45.2148 -27.832 47.7051 -27.832 C 50.0488 -27.832 51.709 -26.8555 52.832 -24.9023 C 54.3945 -22.168 56.6406 -20.8984 59.2285 -20.8984 C 62.1582 -20.8984 64.1113 -22.9492 64.1113 -25.3418 C 64.1113 -28.125 62.2559 -29.8828 59.082 -29.8828 L 58.1055 -29.8828 C 54.1992 -29.8828 52.3926 -32.2754 52.3926 -35.5957 C 52.3926 -38.9648 54.5898 -41.3574 58.1055 -41.3574 L 58.9844 -41.3574 C 61.9141 -41.3574 63.3789 -43.4082 63.3789 -45.7031 C 63.3789 -48.3887 61.4746 -50.0977 58.9844 -50.0977 C 56.4453 -50.0977 54.7363 -48.7793 53.2227 -46.0938 C 52.1973 -44.2383 50.6836 -43.0176 48.1934 -43.0176 C 45.2637 -43.0176 43.2129 -45.0195 43.2129 -48.3398 C 43.2129 -49.5117 43.3594 -50.5371 43.9453 -51.9043 C 45.5078 -56.1523 51.0742 -61.084 59.1797 -61.084 C 69.1895 -61.084 75.6836 -55.7129 75.6836 -47.5098 C 75.6836 -42.4316 72.168 -37.6953 67.5293 -36.9141 L 67.5293 -36.377 C 73.0469 -35.9375 76.8066 -30.8105 76.8066 -24.5605 C 76.8066 -15.4297 69.8242 -9.47266 59.0332 -9.47266 Z M 99.707 -9.47266 C 91.9922 -9.47266 85.2539 -14.2578 83.7402 -19.4336 C 83.3984 -20.5078 83.2031 -21.4355 83.2031 -22.5098 C 83.2031 -25.9277 85.8398 -27.832 88.4277 -27.832 C 90.7227 -27.832 92.3828 -26.8555 93.5547 -24.9023 C 95.0684 -22.168 97.3145 -20.8984 99.9023 -20.8984 C 102.832 -20.8984 104.834 -22.9492 104.834 -25.3418 C 104.834 -28.125 102.979 -29.8828 99.7559 -29.8828 L 98.7793 -29.8828 C 94.9219 -29.8828 93.1152 -32.2754 93.1152 -35.5957 C 93.1152 -38.9648 95.2637 -41.3574 98.7793 -41.3574 L 99.707 -41.3574 C 102.588 -41.3574 104.102 -43.4082 104.102 -45.7031 C 104.102 -48.3887 102.197 -50.0977 99.707 -50.0977 C 97.1191 -50.0977 95.4102 -48.7793 93.9453 -46.0938 C 92.9199 -44.2383 91.3574 -43.0176 88.8672 -43.0176 C 85.9375 -43.0176 83.8867 -45.0195 83.8867 -48.3398 C 83.8867 -49.5117 84.0332 -50.5371 84.6191 -51.9043 C 86.1816 -56.1523 91.748 -61.084 99.9023 -61.084 C 109.863 -61.084 116.357 -55.7129 116.357 -47.5098 C 116.357 -42.4316 112.842 -37.6953 108.252 -36.9141 L 108.252 -36.377 C 113.721 -35.9375 117.48 -30.8105 117.48 -24.5605 C 117.48 -15.4297 110.498 -9.47266 99.707 -9.47266 Z"/>
  </g>
  <g id="Heavy-L" transform="matrix(1 0 0 1 2558.39 1556)">
   <path d="M 78.2715 31.7871 C 115.088 31.7871 145.312 1.61133 145.312 -35.2051 C 145.312 -72.0215 115.039 -102.197 78.2715 -102.197 C 41.4551 -102.197 11.2793 -72.0215 11.2793 -35.2051 C 11.2793 1.61133 41.5039 31.7871 78.2715 31.7871 Z M 57.373 -8.88672 C 49.4141 -8.88672 42.627 -13.8184 41.0645 -19.1895 C 40.7227 -20.166 40.5762 -21.0449 40.5762 -22.0703 C 40.5762 -25.1953 42.9199 -27.002 45.3125 -27.002 C 47.5098 -27.002 49.0234 -25.9766 50.0488 -24.0723 C 51.6602 -20.8496 54.2969 -19.1895 57.5684 -19.1895 C 61.4258 -19.1895 64.0137 -21.7285 64.0137 -24.8535 C 64.0137 -28.3203 61.5723 -30.5664 57.5684 -30.5664 L 55.8105 -30.5664 C 52.3926 -30.5664 50.6836 -32.7148 50.6836 -35.7422 C 50.6836 -38.8184 52.6855 -40.918 55.8105 -40.918 L 57.4219 -40.918 C 60.9863 -40.918 63.0371 -43.4082 63.0371 -46.3867 C 63.0371 -49.5605 60.6934 -51.709 57.4219 -51.709 C 54.1504 -51.709 52.002 -50.0488 50.5859 -46.8262 C 49.6582 -44.9219 48.2422 -43.7988 45.9473 -43.7988 C 43.2129 -43.7988 41.3086 -45.6543 41.3086 -48.7305 C 41.3086 -49.8047 41.4551 -50.7324 41.9434 -51.9531 C 43.5547 -56.7383 49.3652 -61.6699 57.6172 -61.6699 C 67.5293 -61.6699 74.1211 -56.1523 74.1211 -47.9492 C 74.1211 -42.627 70.4102 -37.6465 65.5762 -36.8652 L 65.5762 -36.377 C 71.3379 -35.8887 75.3906 -30.6152 75.3906 -24.2188 C 75.3906 -14.9902 68.2617 -8.88672 57.373 -8.88672 Z M 99.3164 -8.88672 C 91.3574 -8.88672 84.5215 -13.8184 82.959 -19.1895 C 82.666 -20.166 82.4707 -21.0449 82.4707 -22.0703 C 82.4707 -25.1953 84.8145 -27.002 87.2559 -27.002 C 89.4043 -27.002 90.918 -25.9766 91.9434 -24.0723 C 93.5547 -20.8496 96.2402 -19.1895 99.4629 -19.1895 C 103.32 -19.1895 105.957 -21.7285 105.957 -24.8535 C 105.957 -28.3203 103.516 -30.5664 99.4629 -30.5664 L 97.7051 -30.5664 C 94.3359 -30.5664 92.627 -32.7148 92.627 -35.7422 C 92.627 -38.8184 94.5801 -40.918 97.7051 -40.918 L 99.3652 -40.918 C 102.881 -40.918 104.98 -43.4082 104.98 -46.3867 C 104.98 -49.5605 102.588 -51.709 99.3164 -51.709 C 96.0938 -51.709 93.9453 -50.0488 92.4805 -46.8262 C 91.6016 -44.9219 90.1855 -43.7988 87.8418 -43.7988 C 85.1074 -43.7988 83.252 -45.6543 83.252 -48.7305 C 83.252 -49.8047 83.3984 -50.7324 83.8867 -51.9531 C 85.4492 -56.7383 91.3086 -61.6699 99.5117 -61.6699 C 109.424 -61.6699 116.064 -56.1523 116.064 -47.9492 C 116.064 -42.627 112.354 -37.6465 107.52 -36.8652 L 107.52 -36.377 C 113.281 -35.8887 117.334 -30.6152 117.334 -24.2188 C 117.334 -14.9902 110.156 -8.88672 99.3164 -8.88672 Z"/>
  </g>
  <g id="Bold-L" transform="matrix(1 0 0 1 2262.88 1556)">
   <path d="M 77.0996 30.6152 C 113.232 30.6152 142.92 0.878906 142.92 -35.2051 C 142.92 -71.3379 113.184 -101.025 77.0508 -101.025 C 40.9668 -101.025 11.2793 -71.3379 11.2793 -35.2051 C 11.2793 0.878906 41.0156 30.6152 77.0996 30.6152 Z M 55.5664 -8.25195 C 47.2656 -8.25195 40.4785 -13.3301 38.8184 -18.8965 C 38.5254 -19.8242 38.3789 -20.6055 38.3789 -21.582 C 38.3789 -24.3164 40.3809 -26.0254 42.6758 -26.0254 C 44.6777 -26.0254 45.9961 -25.0488 46.875 -23.0957 C 48.584 -19.3359 51.6602 -17.2852 55.7129 -17.2852 C 60.5957 -17.2852 63.8672 -20.3613 63.8672 -24.3652 C 63.8672 -28.5645 60.791 -31.3477 55.8594 -31.3477 L 53.2227 -31.3477 C 50.3418 -31.3477 48.7793 -33.252 48.7793 -35.8887 C 48.7793 -38.623 50.5371 -40.4297 53.2227 -40.4297 L 55.6641 -40.4297 C 59.9121 -40.4297 62.6465 -43.3594 62.6465 -47.1191 C 62.6465 -50.9277 59.7656 -53.4668 55.6152 -53.4668 C 51.6602 -53.4668 49.0234 -51.416 47.6074 -47.6562 C 46.8262 -45.7031 45.5566 -44.6777 43.457 -44.6777 C 40.918 -44.6777 39.2578 -46.3867 39.2578 -49.1211 C 39.2578 -50.0977 39.3555 -50.9277 39.7461 -52.0508 C 41.3574 -57.4219 47.4609 -62.3047 55.8594 -62.3047 C 65.7227 -62.3047 72.4121 -56.6895 72.4121 -48.4375 C 72.4121 -42.8223 68.457 -37.6465 63.3789 -36.8164 L 63.3789 -36.377 C 69.4824 -35.791 73.877 -30.4199 73.877 -23.8281 C 73.877 -14.5508 66.5039 -8.25195 55.5664 -8.25195 Z M 98.877 -8.25195 C 90.5762 -8.25195 83.7402 -13.3301 82.0801 -18.8965 C 81.8359 -19.8242 81.6406 -20.6055 81.6406 -21.582 C 81.6406 -24.3164 83.6914 -26.0254 85.9375 -26.0254 C 87.9395 -26.0254 89.2578 -25.0488 90.1855 -23.0957 C 91.8457 -19.3359 94.9707 -17.2852 99.0234 -17.2852 C 103.906 -17.2852 107.178 -20.3613 107.178 -24.3652 C 107.178 -28.5645 104.102 -31.3477 99.1699 -31.3477 L 96.5332 -31.3477 C 93.6523 -31.3477 92.1387 -33.252 92.1387 -35.8887 C 92.1387 -38.623 93.8477 -40.4297 96.5332 -40.4297 L 98.9746 -40.4297 C 103.223 -40.4297 106.006 -43.3594 106.006 -47.1191 C 106.006 -50.9277 103.076 -53.4668 98.9258 -53.4668 C 94.9707 -53.4668 92.334 -51.416 90.8691 -47.6562 C 90.1367 -45.7031 88.8672 -44.6777 86.7188 -44.6777 C 84.2285 -44.6777 82.5684 -46.3867 82.5684 -49.1211 C 82.5684 -50.0977 82.666 -50.9277 83.0078 -52.0508 C 84.6191 -57.4219 90.7715 -62.3047 99.1211 -62.3047 C 108.984 -62.3047 115.723 -56.6895 115.723 -48.4375 C 115.723 -42.8223 111.768 -37.6465 106.689 -36.8164 L 106.689 -36.377 C 112.793 -35.791 117.188 -30.4199 117.188 -23.8281 C 117.188 -14.5508 109.814 -8.25195 98.877 -8.25195 Z"/>
  </g>
  <g id="Semibold-L" transform="matrix(1 0 0 1 1966.97 1556)">
   <path d="M 76.2695 29.7852 C 111.914 29.7852 141.309 0.439453 141.309 -35.2051 C 141.309 -70.8496 111.865 -100.244 76.2695 -100.244 C 40.625 -100.244 11.2793 -70.8496 11.2793 -35.2051 C 11.2793 0.439453 40.6738 29.7852 76.2695 29.7852 Z M 54.2969 -7.76367 C 45.8008 -7.76367 38.9648 -12.9883 37.2559 -18.7012 C 36.9629 -19.5801 36.8652 -20.3125 36.8652 -21.2891 C 36.8652 -23.7305 38.623 -25.3418 40.8203 -25.3418 C 42.7246 -25.3418 43.8965 -24.4141 44.7266 -22.4609 C 46.4355 -18.3105 49.8535 -15.9668 54.3945 -15.9668 C 60.0098 -15.9668 63.8184 -19.4336 63.8184 -23.9746 C 63.8184 -28.7109 60.2539 -31.8848 54.6875 -31.8848 L 51.4648 -31.8848 C 48.9258 -31.8848 47.5098 -33.5938 47.5098 -35.9863 C 47.5098 -38.4766 49.0723 -40.1367 51.4648 -40.1367 L 54.4434 -40.1367 C 59.1797 -40.1367 62.4023 -43.3594 62.4023 -47.6074 C 62.4023 -51.8555 59.1309 -54.6875 54.3945 -54.6875 C 49.9023 -54.6875 46.9238 -52.3926 45.5566 -48.2422 C 44.873 -46.2891 43.7012 -45.3125 41.6992 -45.3125 C 39.3555 -45.3125 37.8418 -46.9238 37.8418 -49.4141 C 37.8418 -50.3418 37.8906 -51.0742 38.1836 -52.0996 C 39.8438 -57.8613 46.1426 -62.7441 54.6387 -62.7441 C 64.4531 -62.7441 71.2402 -57.0312 71.2402 -48.7793 C 71.2402 -42.9688 67.1387 -37.6465 61.8652 -36.7676 L 61.8652 -36.377 C 68.2129 -35.7422 72.8027 -30.2734 72.8027 -23.5352 C 72.8027 -14.2578 65.2832 -7.76367 54.2969 -7.76367 Z M 98.584 -7.76367 C 90.0879 -7.76367 83.2031 -12.9883 81.4941 -18.7012 C 81.25 -19.5801 81.1035 -20.3125 81.1035 -21.2891 C 81.1035 -23.7305 82.9102 -25.3418 85.0586 -25.3418 C 86.9629 -25.3418 88.1348 -24.4141 89.0137 -22.4609 C 90.6738 -18.3105 94.1406 -15.9668 98.6816 -15.9668 C 104.297 -15.9668 108.057 -19.4336 108.057 -23.9746 C 108.057 -28.7109 104.492 -31.8848 98.9746 -31.8848 L 95.7031 -31.8848 C 93.2129 -31.8848 91.748 -33.5938 91.748 -35.9863 C 91.748 -38.4766 93.3105 -40.1367 95.7031 -40.1367 L 98.7305 -40.1367 C 103.467 -40.1367 106.689 -43.3594 106.689 -47.6074 C 106.689 -51.8555 103.369 -54.6875 98.6816 -54.6875 C 94.1406 -54.6875 91.2109 -52.3926 89.7949 -48.2422 C 89.1113 -46.2891 87.9395 -45.3125 85.9375 -45.3125 C 83.5938 -45.3125 82.0801 -46.9238 82.0801 -49.4141 C 82.0801 -50.3418 82.1289 -51.0742 82.4219 -52.0996 C 84.082 -57.8613 90.3809 -62.7441 98.877 -62.7441 C 108.691 -62.7441 115.479 -57.0312 115.479 -48.7793 C 115.479 -42.9688 111.377 -37.6465 106.104 -36.7676 L 106.104 -36.377 C 112.451 -35.7422 117.041 -30.2734 117.041 -23.5352 C 117.041 -14.2578 109.521 -7.76367 98.584 -7.76367 Z"/>
  </g>
  <g id="Medium-L" transform="matrix(1 0 0 1 1670.87 1556)">
   <path d="M 75.6836 29.1992 C 110.938 29.1992 140.088 0.0488281 140.088 -35.2051 C 140.088 -70.459 110.889 -99.6094 75.6348 -99.6094 C 40.3809 -99.6094 11.2793 -70.459 11.2793 -35.2051 C 11.2793 0.0488281 40.3809 29.1992 75.6836 29.1992 Z M 53.3691 -7.4707 C 44.7266 -7.4707 37.8418 -12.6953 36.084 -18.5547 C 35.8398 -19.4336 35.6934 -20.0684 35.6934 -20.9961 C 35.6934 -23.291 37.3047 -24.8047 39.4043 -24.8047 C 41.2109 -24.8047 42.334 -23.877 43.0664 -21.9727 C 44.8242 -17.5293 48.4863 -14.9902 53.418 -14.9902 C 59.5703 -14.9902 63.7207 -18.75 63.7207 -23.7305 C 63.7207 -28.8086 59.8145 -32.2754 53.8086 -32.2754 L 50.0977 -32.2754 C 47.8516 -32.2754 46.4844 -33.8867 46.4844 -36.0352 C 46.4844 -38.3789 47.9492 -39.8926 50.0977 -39.8926 L 53.5156 -39.8926 C 58.6426 -39.8926 62.207 -43.3594 62.207 -47.998 C 62.207 -52.5391 58.6426 -55.6152 53.4668 -55.6152 C 48.584 -55.6152 45.3613 -53.125 43.9941 -48.6328 C 43.3594 -46.6797 42.2852 -45.752 40.4297 -45.752 C 38.1348 -45.752 36.7188 -47.3145 36.7188 -49.6094 C 36.7188 -50.4883 36.8164 -51.2207 37.0117 -52.1484 C 38.6719 -58.2031 45.166 -63.0859 53.7109 -63.0859 C 63.5254 -63.0859 70.3125 -57.3242 70.3125 -49.0234 C 70.3125 -43.0664 66.1133 -37.6465 60.6934 -36.7676 L 60.6934 -36.377 C 67.1875 -35.7422 72.0215 -30.1758 72.0215 -23.3398 C 72.0215 -14.0137 64.3555 -7.4707 53.3691 -7.4707 Z M 98.3398 -7.4707 C 89.6973 -7.4707 82.7637 -12.6953 81.0547 -18.5547 C 80.8105 -19.4336 80.6641 -20.0684 80.6641 -20.9961 C 80.6641 -23.291 82.2754 -24.8047 84.375 -24.8047 C 86.1816 -24.8047 87.3047 -23.877 88.0859 -21.9727 C 89.7949 -17.5293 93.5059 -14.9902 98.4375 -14.9902 C 104.59 -14.9902 108.74 -18.75 108.74 -23.7305 C 108.74 -28.8086 104.834 -32.2754 98.7793 -32.2754 L 95.1172 -32.2754 C 92.8223 -32.2754 91.5039 -33.8867 91.5039 -36.0352 C 91.5039 -38.3789 92.9199 -39.8926 95.1172 -39.8926 L 98.4863 -39.8926 C 103.662 -39.8926 107.227 -43.3594 107.227 -47.998 C 107.227 -52.5391 103.613 -55.6152 98.4375 -55.6152 C 93.5547 -55.6152 90.332 -53.125 88.9648 -48.6328 C 88.3301 -46.6797 87.2559 -45.752 85.3516 -45.752 C 83.1055 -45.752 81.6895 -47.3145 81.6895 -49.6094 C 81.6895 -50.4883 81.7871 -51.2207 81.9824 -52.1484 C 83.6426 -58.2031 90.1367 -63.0859 98.6816 -63.0859 C 108.447 -63.0859 115.283 -57.3242 115.283 -49.0234 C 115.283 -43.0664 111.084 -37.6465 105.664 -36.7676 L 105.664 -36.377 C 112.207 -35.7422 116.992 -30.1758 116.992 -23.3398 C 116.992 -14.0137 109.326 -7.4707 98.3398 -7.4707 Z"/>
  </g>
  <g id="Regular-L" transform="matrix(1 0 0 1 1374.97 1556)">
   <path d="M 74.8535 28.3691 C 109.668 28.3691 138.477 -0.390625 138.477 -35.2051 C 138.477 -70.0195 109.619 -98.7793 74.8047 -98.7793 C 40.0391 -98.7793 11.2793 -70.0195 11.2793 -35.2051 C 11.2793 -0.390625 40.0879 28.3691 74.8535 28.3691 Z M 52.0996 -6.98242 C 43.2617 -6.98242 36.3281 -12.3535 34.5703 -18.4082 C 34.3262 -19.1895 34.1797 -19.7754 34.1797 -20.6543 C 34.1797 -22.7051 35.5957 -24.1699 37.5977 -24.1699 C 39.3066 -24.1699 40.2832 -23.2422 40.918 -21.3379 C 42.7246 -16.5039 46.7285 -13.6719 52.1484 -13.6719 C 59.0332 -13.6719 63.6719 -17.8223 63.6719 -23.3887 C 63.6719 -28.9551 59.2773 -32.8125 52.6855 -32.8125 L 48.3887 -32.8125 C 46.4355 -32.8125 45.2148 -34.2285 45.2148 -36.1328 C 45.2148 -38.2324 46.5332 -39.5508 48.3887 -39.5508 L 52.2949 -39.5508 C 57.959 -39.5508 61.9629 -43.3594 61.9629 -48.4863 C 61.9629 -53.4668 58.0078 -56.8359 52.2949 -56.8359 C 46.8262 -56.8359 43.2617 -54.0527 41.9434 -49.2188 C 41.4062 -47.2168 40.4297 -46.3379 38.7207 -46.3379 C 36.5723 -46.3379 35.3027 -47.8027 35.3027 -49.9023 C 35.3027 -50.7324 35.3516 -51.3672 35.498 -52.1973 C 37.207 -58.6914 43.8477 -63.5254 52.4902 -63.5254 C 62.2559 -63.5254 69.1406 -57.666 69.1406 -49.3652 C 69.1406 -43.2129 64.7461 -37.5977 59.1797 -36.7188 L 59.1797 -36.377 C 65.918 -35.6934 70.9473 -30.0293 70.9473 -23.0957 C 70.9473 -13.6719 63.1348 -6.98242 52.0996 -6.98242 Z M 98.0469 -6.98242 C 89.209 -6.98242 82.2266 -12.3535 80.4688 -18.4082 C 80.2246 -19.1895 80.127 -19.7754 80.127 -20.6543 C 80.127 -22.7051 81.543 -24.1699 83.4961 -24.1699 C 85.2051 -24.1699 86.1816 -23.2422 86.8652 -21.3379 C 88.623 -16.5039 92.6758 -13.6719 98.0957 -13.6719 C 104.932 -13.6719 109.57 -17.8223 109.57 -23.3887 C 109.57 -28.9551 105.225 -32.8125 98.584 -32.8125 L 94.2871 -32.8125 C 92.3828 -32.8125 91.1133 -34.2285 91.1133 -36.1328 C 91.1133 -38.2324 92.4316 -39.5508 94.2871 -39.5508 L 98.2422 -39.5508 C 103.857 -39.5508 107.91 -43.3594 107.91 -48.4863 C 107.91 -53.4668 103.955 -56.8359 98.1934 -56.8359 C 92.7734 -56.8359 89.209 -54.0527 87.8418 -49.2188 C 87.3047 -47.2168 86.377 -46.3379 84.5703 -46.3379 C 82.5195 -46.3379 81.25 -47.8027 81.25 -49.9023 C 81.25 -50.7324 81.25 -51.3672 81.4453 -52.1973 C 83.1055 -58.6914 89.7461 -63.5254 98.3887 -63.5254 C 108.105 -63.5254 115.088 -57.666 115.088 -49.3652 C 115.088 -43.2129 110.693 -37.5977 105.127 -36.7188 L 105.127 -36.377 C 111.865 -35.6934 116.846 -30.0293 116.846 -23.0957 C 116.846 -13.6719 109.082 -6.98242 98.0469 -6.98242 Z"/>
  </g>
  <g id="Light-L" transform="matrix(1 0 0 1 1079.18 1556)">
   <path d="M 73.9258 27.4902 C 108.301 27.4902 136.621 -0.830078 136.621 -35.1562 C 136.621 -69.5312 108.252 -97.8516 73.9258 -97.8516 C 39.5508 -97.8516 11.2793 -69.5312 11.2793 -35.1562 C 11.2793 -0.830078 39.5996 27.4902 73.9258 27.4902 Z M 51.123 -7.32422 C 42.4316 -7.32422 35.6445 -12.5 33.8379 -18.457 C 33.5938 -19.1406 33.4961 -19.7266 33.4961 -20.5078 C 33.4961 -22.168 34.5703 -23.3887 36.2793 -23.3887 C 37.6953 -23.3887 38.5254 -22.6074 39.0625 -20.9961 C 40.8203 -15.8691 45.4102 -12.793 51.123 -12.793 C 58.5938 -12.793 63.623 -17.1875 63.623 -23.291 C 63.623 -29.1992 58.7402 -33.4473 51.7578 -33.4473 L 46.875 -33.4473 C 45.2637 -33.4473 44.2871 -34.6191 44.2871 -36.1816 C 44.2871 -37.8906 45.3613 -38.9648 46.875 -38.9648 L 51.3184 -38.9648 C 57.4219 -38.9648 61.8652 -43.1152 61.8652 -48.6816 C 61.8652 -54.1016 57.5195 -57.7637 51.1719 -57.7637 C 45.2637 -57.7637 41.2598 -54.5898 40.0879 -49.5605 C 39.6973 -47.8516 38.8184 -47.1191 37.4023 -47.1191 C 35.5957 -47.1191 34.6191 -48.3398 34.6191 -50.0977 C 34.6191 -50.7812 34.668 -51.416 34.8145 -52.1484 C 36.4258 -58.6914 43.1152 -63.2324 51.3184 -63.2324 C 60.8887 -63.2324 67.7734 -57.4707 67.7734 -49.3164 C 67.7734 -43.2129 63.2812 -37.5977 57.5195 -36.6211 L 57.5195 -36.377 C 64.4043 -35.6445 69.5801 -29.9805 69.5801 -23.0957 C 69.5801 -13.916 61.8652 -7.32422 51.123 -7.32422 Z M 97.2656 -7.32422 C 88.5742 -7.32422 81.7871 -12.5 79.9316 -18.457 C 79.6875 -19.1406 79.5898 -19.7266 79.5898 -20.5078 C 79.5898 -22.168 80.7129 -23.3887 82.373 -23.3887 C 83.7891 -23.3887 84.6191 -22.6074 85.2051 -20.9961 C 86.9629 -15.8691 91.5527 -12.793 97.2656 -12.793 C 104.736 -12.793 109.766 -17.1875 109.766 -23.291 C 109.766 -29.1992 104.883 -33.4473 97.8516 -33.4473 L 93.0176 -33.4473 C 91.4062 -33.4473 90.4297 -34.6191 90.4297 -36.1816 C 90.4297 -37.8906 91.4551 -38.9648 93.0176 -38.9648 L 97.4609 -38.9648 C 103.564 -38.9648 108.008 -43.1152 108.008 -48.6816 C 108.008 -54.1016 103.662 -57.7637 97.2656 -57.7637 C 91.4062 -57.7637 87.4023 -54.5898 86.1816 -49.5605 C 85.791 -47.8516 84.9609 -47.1191 83.4473 -47.1191 C 81.6895 -47.1191 80.7129 -48.3398 80.7129 -50.0977 C 80.7129 -50.7812 80.7617 -51.416 80.9082 -52.1484 C 82.5195 -58.6914 89.209 -63.2324 97.4121 -63.2324 C 106.982 -63.2324 113.867 -57.4707 113.867 -49.3164 C 113.867 -43.2129 109.375 -37.5977 103.662 -36.6211 L 103.662 -36.377 C 110.547 -35.6445 115.674 -29.9805 115.674 -23.0957 C 115.674 -13.916 108.008 -7.32422 97.2656 -7.32422 Z"/>
  </g>
  <g id="Thin-L" transform="matrix(1 0 0 1 783.693 1556)">
   <path d="M 72.7051 26.3184 C 106.494 26.3184 134.18 -1.36719 134.18 -35.1074 C 134.18 -68.8965 106.494 -96.582 72.7051 -96.582 C 38.9648 -96.582 11.2793 -68.8965 11.2793 -35.1074 C 11.2793 -1.36719 38.9648 26.3184 72.7051 26.3184 Z M 49.7559 -7.71484 C 41.3086 -7.71484 34.7656 -12.6953 32.8613 -18.5059 C 32.666 -19.043 32.5195 -19.6289 32.5195 -20.3125 C 32.5195 -21.4844 33.252 -22.3633 34.5215 -22.3633 C 35.6445 -22.3633 36.1816 -21.7285 36.5723 -20.5078 C 38.3301 -14.9902 43.6523 -11.5723 49.7559 -11.5723 C 58.0566 -11.5723 63.5742 -16.3574 63.5742 -23.1445 C 63.5742 -29.4922 58.0078 -34.3262 50.5371 -34.3262 L 44.9219 -34.3262 C 43.7012 -34.3262 43.0664 -35.0586 43.0664 -36.2305 C 43.0664 -37.4023 43.8477 -38.1348 44.9219 -38.1348 L 50 -38.1348 C 56.7383 -38.1348 61.7188 -42.8223 61.7188 -48.877 C 61.7188 -54.9316 56.8848 -58.9844 49.707 -58.9844 C 43.2129 -58.9844 38.623 -55.3223 37.6465 -50 C 37.4023 -48.6328 36.6699 -48.0957 35.6934 -48.0957 C 34.2285 -48.0957 33.6426 -49.0234 33.6426 -50.3418 C 33.6426 -50.8301 33.7402 -51.5137 33.8867 -52.0996 C 35.4492 -58.6914 42.1875 -62.793 49.7559 -62.793 C 59.1309 -62.793 65.918 -57.2266 65.918 -49.2676 C 65.918 -43.2129 61.3281 -37.5488 55.3711 -36.5234 L 55.3711 -36.377 C 62.3047 -35.5957 67.7246 -29.8828 67.7246 -23.0957 C 67.7246 -14.209 60.1562 -7.71484 49.7559 -7.71484 Z M 96.1426 -7.71484 C 87.7441 -7.71484 81.1523 -12.6953 79.248 -18.5059 C 79.0039 -19.043 78.8574 -19.6289 78.8574 -20.3125 C 78.8574 -21.4844 79.6875 -22.3633 80.8594 -22.3633 C 81.9824 -22.3633 82.5195 -21.7285 82.959 -20.5078 C 84.7168 -14.9902 90.0879 -11.5723 96.1914 -11.5723 C 104.492 -11.5723 109.961 -16.3574 109.961 -23.1445 C 109.961 -29.4922 104.443 -34.3262 96.875 -34.3262 L 91.3574 -34.3262 C 90.1367 -34.3262 89.4531 -35.0586 89.4531 -36.2305 C 89.4531 -37.4023 90.1855 -38.1348 91.3574 -38.1348 L 96.3867 -38.1348 C 103.125 -38.1348 108.154 -42.8223 108.154 -48.877 C 108.154 -54.9316 103.32 -58.9844 96.0449 -58.9844 C 89.5996 -58.9844 85.0098 -55.3223 83.9844 -50 C 83.7402 -48.6328 83.1055 -48.0957 82.0312 -48.0957 C 80.5664 -48.0957 79.9805 -49.0234 79.9805 -50.3418 C 79.9805 -50.8301 80.0781 -51.5137 80.2246 -52.0996 C 81.7871 -58.6914 88.5254 -62.793 96.0938 -62.793 C 105.469 -62.793 112.256 -57.2266 112.256 -49.2676 C 112.256 -43.2129 107.666 -37.5488 101.758 -36.5234 L 101.758 -36.377 C 108.74 -35.5957 114.062 -29.8828 114.062 -23.0957 C 114.062 -14.209 106.543 -7.71484 96.1426 -7.71484 Z"/>
  </g>
  <g id="Ultralight-L" transform="matrix(1 0 0 1 487.616 1556)">
   <path d="M 72.1191 25.7324 C 105.566 25.7324 132.91 -1.61133 132.91 -35.1074 C 132.91 -68.5547 105.566 -95.8984 72.1191 -95.8984 C 38.623 -95.8984 11.2793 -68.5547 11.2793 -35.1074 C 11.2793 -1.61133 38.623 25.7324 72.1191 25.7324 Z M 49.0723 -7.95898 C 40.7715 -7.95898 34.2773 -12.793 32.373 -18.5547 C 32.1777 -18.9941 32.0312 -19.5801 32.0312 -20.166 C 32.0312 -21.0938 32.5684 -21.8262 33.5938 -21.8262 C 34.5703 -21.8262 35.0098 -21.2891 35.2539 -20.2637 C 37.0117 -14.5508 42.7734 -10.9375 49.0723 -10.9375 C 57.8125 -10.9375 63.5254 -15.918 63.5254 -23.0957 C 63.5254 -29.6387 57.666 -34.7656 49.9023 -34.7656 L 43.9453 -34.7656 C 42.9199 -34.7656 42.4316 -35.3027 42.4316 -36.2305 C 42.4316 -37.1582 43.0664 -37.7441 43.9453 -37.7441 L 49.3164 -37.7441 C 56.3965 -37.7441 61.6699 -42.6758 61.6699 -48.9746 C 61.6699 -55.3223 56.543 -59.6191 48.9746 -59.6191 C 42.1387 -59.6191 37.2559 -55.7129 36.4258 -50.2441 C 36.1816 -49.0723 35.5957 -48.6328 34.8145 -48.6328 C 33.5449 -48.6328 33.1543 -49.3652 33.1543 -50.4395 C 33.1543 -50.8789 33.252 -51.5137 33.3984 -52.0508 C 34.9121 -58.6914 41.6992 -62.5977 48.9258 -62.5977 C 58.2031 -62.5977 64.9414 -57.0801 64.9414 -49.2676 C 64.9414 -43.2129 60.3516 -37.5 54.248 -36.4258 L 54.248 -36.377 C 61.2793 -35.5957 66.7969 -29.8828 66.7969 -23.1445 C 66.7969 -14.3555 59.2773 -7.95898 49.0723 -7.95898 Z M 95.6055 -7.95898 C 87.3047 -7.95898 80.8594 -12.793 78.9062 -18.5547 C 78.6621 -18.9941 78.5156 -19.5801 78.5156 -20.166 C 78.5156 -21.0938 79.1504 -21.8262 80.0781 -21.8262 C 81.0547 -21.8262 81.4453 -21.2891 81.8359 -20.2637 C 83.5938 -14.5508 89.3066 -10.9375 95.6055 -10.9375 C 104.346 -10.9375 110.107 -15.918 110.107 -23.0957 C 110.107 -29.6387 104.199 -34.7656 96.3867 -34.7656 L 90.4785 -34.7656 C 89.4531 -34.7656 88.9648 -35.3027 88.9648 -36.2305 C 88.9648 -37.1582 89.5508 -37.7441 90.4785 -37.7441 L 95.8496 -37.7441 C 102.93 -37.7441 108.203 -42.6758 108.203 -48.9746 C 108.203 -55.3223 103.125 -59.6191 95.4102 -59.6191 C 88.6719 -59.6191 83.7891 -55.7129 82.8613 -50.2441 C 82.666 -49.0723 82.1289 -48.6328 81.2988 -48.6328 C 80.0293 -48.6328 79.6387 -49.3652 79.6387 -50.4395 C 79.6387 -50.8789 79.6875 -51.5137 79.8828 -52.0508 C 81.3965 -58.6914 88.1348 -62.5977 95.4102 -62.5977 C 104.688 -62.5977 111.426 -57.0801 111.426 -49.2676 C 111.426 -43.2129 106.787 -37.5 100.781 -36.4258 L 100.781 -36.377 C 107.812 -35.5957 113.281 -29.8828 113.281 -23.1445 C 113.281 -14.3555 105.811 -7.95898 95.6055 -7.95898 Z"/>
  </g>
  <g id="Black-M" transform="matrix(1 0 0 1 2870.97 1126)">
   <path d="M 62.4023 18.457 C 91.9922 18.457 116.113 -5.61523 116.113 -35.2051 C 116.113 -64.7949 91.9922 -88.8672 62.4023 -88.8672 C 32.8125 -88.8672 8.74023 -64.7949 8.74023 -35.2051 C 8.74023 -5.61523 32.8125 18.457 62.4023 18.457 Z M 47.4121 -16.2109 C 41.8945 -16.2109 36.7676 -19.6777 35.6445 -23.3398 C 35.4004 -24.2188 35.2051 -25 35.2051 -25.8789 C 35.2051 -28.7598 37.5488 -30.2734 39.502 -30.2734 C 41.3574 -30.2734 42.8223 -29.541 43.75 -28.1738 C 44.873 -26.6113 46.3379 -25.9277 47.5586 -25.9277 C 48.9258 -25.9277 49.8047 -27.002 49.8047 -28.125 C 49.8047 -29.5898 48.9258 -30.4688 47.3145 -30.4688 C 43.8477 -30.4688 42.4316 -32.4707 42.4316 -35.3516 C 42.4316 -38.1836 44.2383 -40.1855 47.3145 -40.1855 C 48.9746 -40.1855 49.5117 -41.5039 49.5117 -42.5293 C 49.5117 -44.1406 48.5352 -45.1172 47.2656 -45.1172 C 45.9473 -45.1172 44.9707 -44.3848 43.8477 -42.8711 C 42.9688 -41.5527 41.6504 -40.625 39.6484 -40.625 C 37.2559 -40.625 35.5957 -42.1875 35.5957 -45.0195 C 35.5957 -45.9473 35.791 -46.8262 36.3281 -48.0469 C 37.5488 -50.6348 41.5039 -54.2969 47.3633 -54.2969 C 55.127 -54.2969 59.9609 -50.3418 59.9609 -44.1406 C 59.9609 -40.5273 57.4707 -37.1094 54.1504 -36.5723 L 54.1504 -36.1328 C 58.0078 -35.8398 60.6445 -32.0312 60.6445 -27.4414 C 60.6445 -20.5566 55.5176 -16.2109 47.4121 -16.2109 Z M 77.3438 -16.2109 C 71.875 -16.2109 66.748 -19.6777 65.625 -23.3398 C 65.3809 -24.2188 65.1855 -25 65.1855 -25.8789 C 65.1855 -28.7598 67.4805 -30.2734 69.4824 -30.2734 C 71.3379 -30.2734 72.7051 -29.541 73.7305 -28.1738 C 74.8535 -26.6113 76.3184 -25.9277 77.5391 -25.9277 C 78.9062 -25.9277 79.7852 -27.002 79.7852 -28.125 C 79.7852 -29.5898 78.9062 -30.4688 77.2949 -30.4688 C 73.8281 -30.4688 72.4121 -32.4707 72.4121 -35.3516 C 72.4121 -38.1836 74.2188 -40.1855 77.2949 -40.1855 C 78.9551 -40.1855 79.4922 -41.5039 79.4922 -42.5293 C 79.4922 -44.1406 78.4668 -45.1172 77.2461 -45.1172 C 75.9277 -45.1172 74.9512 -44.3848 73.8281 -42.8711 C 72.9492 -41.5527 71.6309 -40.625 69.6289 -40.625 C 67.2363 -40.625 65.5762 -42.1875 65.5762 -45.0195 C 65.5762 -45.9473 65.7715 -46.8262 66.3086 -48.0469 C 67.4316 -50.6348 71.4844 -54.2969 77.3438 -54.2969 C 85.0586 -54.2969 89.9414 -50.3418 89.9414 -44.1406 C 89.9414 -40.5273 87.4512 -37.1094 84.1309 -36.5723 L 84.1309 -36.1328 C 87.9883 -35.8398 90.5762 -32.0312 90.5762 -27.4414 C 90.5762 -20.5566 85.498 -16.2109 77.3438 -16.2109 Z"/>
  </g>
  <g id="Heavy-M" transform="matrix(1 0 0 1 2575.19 1126)">
   <path d="M 61.5234 17.5781 C 90.5273 17.5781 114.258 -6.15234 114.258 -35.2051 C 114.258 -64.2578 90.5273 -87.9883 61.4746 -87.9883 C 32.4707 -87.9883 8.74023 -64.2578 8.74023 -35.2051 C 8.74023 -6.15234 32.4707 17.5781 61.5234 17.5781 Z M 45.8984 -15.4785 C 40.0391 -15.4785 34.8633 -19.1406 33.6914 -23.0469 C 33.4473 -23.877 33.252 -24.6094 33.252 -25.4395 C 33.252 -28.0762 35.3516 -29.541 37.207 -29.541 C 39.0137 -29.541 40.2832 -28.7598 41.1621 -27.3438 C 42.334 -25.293 44.1406 -24.3164 46.0449 -24.3164 C 48.2422 -24.3164 49.707 -25.8301 49.707 -27.6367 C 49.707 -29.7363 48.291 -31.0547 45.8984 -31.0547 L 45.2148 -31.0547 C 42.1387 -31.0547 40.8203 -32.9102 40.8203 -35.498 C 40.8203 -38.0859 42.4805 -39.8926 45.2148 -39.8926 L 45.8496 -39.8926 C 48.0469 -39.8926 49.1699 -41.5039 49.1699 -43.2129 C 49.1699 -45.2637 47.7539 -46.582 45.8008 -46.582 C 43.8965 -46.582 42.5293 -45.6055 41.4062 -43.5547 C 40.625 -42.1875 39.4531 -41.3086 37.5488 -41.3086 C 35.3027 -41.3086 33.7402 -42.7734 33.7402 -45.3613 C 33.7402 -46.2402 33.8867 -47.0215 34.375 -48.0957 C 35.5957 -51.3184 39.7949 -55.0293 45.9473 -55.0293 C 53.6621 -55.0293 58.6426 -50.9277 58.6426 -44.6289 C 58.6426 -40.7715 55.957 -37.1094 52.3926 -36.5234 L 52.3926 -36.1328 C 56.5918 -35.791 59.4727 -31.8359 59.4727 -27.0508 C 59.4727 -20.0195 54.1504 -15.4785 45.8984 -15.4785 Z M 77.1484 -15.4785 C 71.2891 -15.4785 66.1133 -19.1406 64.9414 -23.0469 C 64.6973 -23.877 64.5508 -24.6094 64.5508 -25.4395 C 64.5508 -28.0762 66.5527 -29.541 68.5059 -29.541 C 70.2637 -29.541 71.5332 -28.7598 72.4121 -27.3438 C 73.6328 -25.293 75.3906 -24.3164 77.2949 -24.3164 C 79.4922 -24.3164 81.0059 -25.8301 81.0059 -27.6367 C 81.0059 -29.7363 79.5898 -31.0547 77.1973 -31.0547 L 76.4648 -31.0547 C 73.4375 -31.0547 72.0703 -32.9102 72.0703 -35.498 C 72.0703 -38.0859 73.7305 -39.8926 76.4648 -39.8926 L 77.1484 -39.8926 C 79.3457 -39.8926 80.4688 -41.5039 80.4688 -43.2129 C 80.4688 -45.2637 79.0039 -46.582 77.0996 -46.582 C 75.1465 -46.582 73.8281 -45.6055 72.7051 -43.5547 C 71.9238 -42.1875 70.7031 -41.3086 68.7988 -41.3086 C 66.6016 -41.3086 65.0391 -42.7734 65.0391 -45.3613 C 65.0391 -46.2402 65.1855 -47.0215 65.625 -48.0957 C 66.7969 -51.3184 71.0938 -55.0293 77.2461 -55.0293 C 84.9121 -55.0293 89.8926 -50.9277 89.8926 -44.6289 C 89.8926 -40.7715 87.2559 -37.1094 83.6914 -36.5234 L 83.6914 -36.1328 C 87.8906 -35.791 90.7715 -31.8359 90.7715 -27.0508 C 90.7715 -20.0195 85.4492 -15.4785 77.1484 -15.4785 Z"/>
  </g>
  <g id="Bold-M" transform="matrix(1 0 0 1 2279.5 1126)">
   <path d="M 60.498 16.5039 C 88.8672 16.5039 112.207 -6.78711 112.207 -35.2051 C 112.207 -63.623 88.8672 -86.9629 60.4492 -86.9629 C 32.0312 -86.9629 8.74023 -63.623 8.74023 -35.2051 C 8.74023 -6.78711 32.0801 16.5039 60.498 16.5039 Z M 44.1895 -14.6973 C 37.9395 -14.6973 32.666 -18.5547 31.4453 -22.7539 C 31.2012 -23.4863 31.0547 -24.1699 31.0547 -24.9512 C 31.0547 -27.2949 32.8613 -28.6621 34.668 -28.6621 C 36.3281 -28.6621 37.5 -27.9297 38.2812 -26.416 C 39.5508 -23.8281 41.6504 -22.5098 44.2871 -22.5098 C 47.4609 -22.5098 49.6094 -24.5605 49.6094 -27.0996 C 49.6094 -29.9316 47.6074 -31.7383 44.3359 -31.7383 L 42.8223 -31.7383 C 40.2832 -31.7383 38.9648 -33.3984 38.9648 -35.6445 C 38.9648 -37.9883 40.4785 -39.5508 42.8223 -39.5508 L 44.2383 -39.5508 C 47.0703 -39.5508 48.7793 -41.5527 48.7793 -43.9941 C 48.7793 -46.582 46.875 -48.291 44.1895 -48.291 C 41.5527 -48.291 39.8438 -46.9238 38.7207 -44.3848 C 38.0371 -42.8711 36.9629 -42.041 35.2051 -42.041 C 33.1055 -42.041 31.6895 -43.457 31.6895 -45.752 C 31.6895 -46.582 31.7871 -47.2656 32.1289 -48.1934 C 33.3984 -52.002 37.9395 -55.8105 44.3848 -55.8105 C 52.0508 -55.8105 57.1777 -51.5625 57.1777 -45.166 C 57.1777 -40.9668 54.248 -37.1094 50.4883 -36.5234 L 50.4883 -36.1328 C 55.0293 -35.6934 58.2031 -31.6406 58.2031 -26.6113 C 58.2031 -19.4824 52.5879 -14.6973 44.1895 -14.6973 Z M 76.9043 -14.6973 C 70.6543 -14.6973 65.3809 -18.5547 64.1602 -22.7539 C 63.916 -23.4863 63.7695 -24.1699 63.7695 -24.9512 C 63.7695 -27.2949 65.5273 -28.6621 67.4316 -28.6621 C 69.0918 -28.6621 70.2148 -27.9297 70.9961 -26.416 C 72.2656 -23.8281 74.3652 -22.5098 77.0508 -22.5098 C 80.1758 -22.5098 82.3242 -24.5605 82.3242 -27.0996 C 82.3242 -29.9316 80.3223 -31.7383 77.0508 -31.7383 L 75.5371 -31.7383 C 72.998 -31.7383 71.7285 -33.3984 71.7285 -35.6445 C 71.7285 -37.9883 73.1934 -39.5508 75.5371 -39.5508 L 76.9531 -39.5508 C 79.7852 -39.5508 81.543 -41.5527 81.543 -43.9941 C 81.543 -46.582 79.5898 -48.291 76.9043 -48.291 C 74.3164 -48.291 72.5586 -46.9238 71.4355 -44.3848 C 70.752 -42.8711 69.6777 -42.041 67.8711 -42.041 C 65.8203 -42.041 64.4043 -43.457 64.4043 -45.752 C 64.4043 -46.582 64.502 -47.2656 64.8438 -48.1934 C 66.0645 -52.002 70.6543 -55.8105 77.0996 -55.8105 C 84.7656 -55.8105 89.8926 -51.5625 89.8926 -45.166 C 89.8926 -40.9668 86.9629 -37.1094 83.2031 -36.5234 L 83.2031 -36.1328 C 87.7441 -35.6934 90.918 -31.6406 90.918 -26.6113 C 90.918 -19.4824 85.3516 -14.6973 76.9043 -14.6973 Z"/>
  </g>
  <g id="Semibold-M" transform="matrix(1 0 0 1 1983.5 1126)">
   <path d="M 59.7656 15.8203 C 87.7441 15.8203 110.791 -7.22656 110.791 -35.2051 C 110.791 -63.1836 87.6953 -86.2793 59.7656 -86.2793 C 31.7871 -86.2793 8.74023 -63.1836 8.74023 -35.2051 C 8.74023 -7.22656 31.7871 15.8203 59.7656 15.8203 Z M 43.0176 -14.1602 C 36.5234 -14.1602 31.1523 -18.1152 29.8828 -22.5098 C 29.6875 -23.2422 29.541 -23.8281 29.541 -24.6094 C 29.541 -26.7578 31.1523 -28.125 32.959 -28.125 C 34.5215 -28.125 35.5469 -27.3438 36.2793 -25.7812 C 37.5977 -22.8516 39.9414 -21.2402 43.1152 -21.2402 C 46.9238 -21.2402 49.5117 -23.6328 49.5117 -26.7578 C 49.5117 -30.0293 47.1191 -32.1777 43.2617 -32.1777 L 41.1621 -32.1777 C 38.9648 -32.1777 37.7441 -33.6914 37.7441 -35.7422 C 37.7441 -37.8906 39.1113 -39.3555 41.1621 -39.3555 L 43.0664 -39.3555 C 46.3867 -39.3555 48.5352 -41.6016 48.5352 -44.4824 C 48.5352 -47.4609 46.2891 -49.4141 43.1152 -49.4141 C 39.9902 -49.4141 37.9395 -47.8516 36.8164 -44.9219 C 36.2305 -43.3594 35.2539 -42.5293 33.5449 -42.5293 C 31.5918 -42.5293 30.2734 -43.8965 30.2734 -45.9961 C 30.2734 -46.8262 30.3223 -47.4121 30.6152 -48.291 C 31.8848 -52.5391 36.6699 -56.3965 43.2617 -56.3965 C 50.9277 -56.3965 56.1523 -52.002 56.1523 -45.5566 C 56.1523 -41.1621 53.0762 -37.1094 49.1211 -36.4746 L 49.1211 -36.1328 C 53.9062 -35.6934 57.3242 -31.4941 57.3242 -26.3184 C 57.3242 -19.0918 51.5625 -14.1602 43.0176 -14.1602 Z M 76.7578 -14.1602 C 70.2148 -14.1602 64.8926 -18.1152 63.623 -22.5098 C 63.3789 -23.2422 63.2812 -23.8281 63.2812 -24.6094 C 63.2812 -26.7578 64.8438 -28.125 66.6504 -28.125 C 68.2617 -28.125 69.2871 -27.3438 70.0195 -25.7812 C 71.2891 -22.8516 73.6816 -21.2402 76.8555 -21.2402 C 80.6641 -21.2402 83.252 -23.6328 83.252 -26.7578 C 83.252 -30.0293 80.8105 -32.1777 76.9531 -32.1777 L 74.9023 -32.1777 C 72.7051 -32.1777 71.4844 -33.6914 71.4844 -35.7422 C 71.4844 -37.8906 72.8027 -39.3555 74.9023 -39.3555 L 76.8066 -39.3555 C 80.127 -39.3555 82.2754 -41.6016 82.2754 -44.4824 C 82.2754 -47.4609 79.9805 -49.4141 76.8066 -49.4141 C 73.7305 -49.4141 71.6797 -47.8516 70.5566 -44.9219 C 69.9707 -43.3594 68.9941 -42.5293 67.2363 -42.5293 C 65.332 -42.5293 64.0137 -43.8965 64.0137 -45.9961 C 64.0137 -46.8262 64.0625 -47.4121 64.3066 -48.291 C 65.5762 -52.5391 70.3613 -56.3965 77.002 -56.3965 C 84.6191 -56.3965 89.8926 -52.002 89.8926 -45.5566 C 89.8926 -41.1621 86.8164 -37.1094 82.8613 -36.4746 L 82.8613 -36.1328 C 87.6465 -35.6934 91.0645 -31.4941 91.0645 -26.3184 C 91.0645 -19.0918 85.2539 -14.1602 76.7578 -14.1602 Z"/>
  </g>
  <g id="Medium-M" transform="matrix(1 0 0 1 1687.3 1126)">
   <path d="M 59.2285 15.2832 C 86.9141 15.2832 109.766 -7.56836 109.766 -35.2051 C 109.766 -62.8906 86.8652 -85.7422 59.1797 -85.7422 C 31.543 -85.7422 8.74023 -62.8906 8.74023 -35.2051 C 8.74023 -7.56836 31.5918 15.2832 59.2285 15.2832 Z M 42.1387 -13.7207 C 35.4004 -13.7207 30.0293 -17.8223 28.7109 -22.3633 C 28.5156 -23.0469 28.418 -23.6328 28.418 -24.3652 C 28.418 -26.3672 29.834 -27.6855 31.6406 -27.6855 C 33.1543 -27.6855 34.1309 -26.9043 34.7656 -25.293 C 36.1328 -22.0703 38.623 -20.3125 42.1875 -20.3125 C 46.4844 -20.3125 49.4141 -22.998 49.4141 -26.4648 C 49.4141 -30.127 46.7285 -32.5195 42.4316 -32.5195 L 39.9414 -32.5195 C 37.9395 -32.5195 36.7676 -33.9355 36.7676 -35.791 C 36.7676 -37.8418 38.0371 -39.1602 39.9414 -39.1602 L 42.2363 -39.1602 C 45.8496 -39.1602 48.3398 -41.6016 48.3398 -44.9219 C 48.3398 -48.0957 45.8008 -50.293 42.2363 -50.293 C 38.7695 -50.293 36.5234 -48.584 35.4004 -45.3125 C 34.8633 -43.7012 33.9355 -42.9199 32.3242 -42.9199 C 30.4199 -42.9199 29.1992 -44.2383 29.1992 -46.2402 C 29.1992 -46.9727 29.248 -47.5586 29.4434 -48.3398 C 30.7617 -52.8809 35.6445 -56.7871 42.4316 -56.7871 C 50.0977 -56.7871 55.3711 -52.2949 55.3711 -45.8496 C 55.3711 -41.2598 52.1973 -37.1094 48.1445 -36.4746 L 48.1445 -36.1328 C 53.0762 -35.6445 56.6406 -31.3965 56.6406 -26.0742 C 56.6406 -18.7988 50.7324 -13.7207 42.1387 -13.7207 Z M 76.6113 -13.7207 C 69.9219 -13.7207 64.502 -17.8223 63.1836 -22.3633 C 62.9883 -23.0469 62.8906 -23.6328 62.8906 -24.3652 C 62.8906 -26.3672 64.3066 -27.6855 66.1133 -27.6855 C 67.627 -27.6855 68.6035 -26.9043 69.2383 -25.293 C 70.5566 -22.0703 73.1445 -20.3125 76.709 -20.3125 C 81.0059 -20.3125 83.9355 -22.998 83.9355 -26.4648 C 83.9355 -30.127 81.2012 -32.5195 76.9043 -32.5195 L 74.4141 -32.5195 C 72.4609 -32.5195 71.2891 -33.9355 71.2891 -35.791 C 71.2891 -37.8418 72.5586 -39.1602 74.4141 -39.1602 L 76.709 -39.1602 C 80.3711 -39.1602 82.8125 -41.6016 82.8125 -44.9219 C 82.8125 -48.0957 80.3223 -50.293 76.709 -50.293 C 73.2422 -50.293 71.0449 -48.584 69.9219 -45.3125 C 69.3359 -43.7012 68.457 -42.9199 66.7969 -42.9199 C 64.9414 -42.9199 63.6719 -44.2383 63.6719 -46.2402 C 63.6719 -46.9727 63.7207 -47.5586 63.916 -48.3398 C 65.2344 -52.8809 70.166 -56.7871 76.9043 -56.7871 C 84.5703 -56.7871 89.8926 -52.2949 89.8926 -45.8496 C 89.8926 -41.2598 86.6699 -37.1094 82.6172 -36.4746 L 82.6172 -36.1328 C 87.5488 -35.6445 91.1133 -31.3965 91.1133 -26.0742 C 91.1133 -18.7988 85.2051 -13.7207 76.6113 -13.7207 Z"/>
  </g>
  <g id="Regular-M" transform="matrix(1 0 0 1 1391.3 1126)">
   <path d="M 58.5449 14.5508 C 85.791 14.5508 108.35 -8.00781 108.35 -35.2539 C 108.35 -62.4512 85.7422 -85.0586 58.4961 -85.0586 C 31.2988 -85.0586 8.74023 -62.4512 8.74023 -35.2539 C 8.74023 -8.00781 31.3477 14.5508 58.5449 14.5508 Z M 40.9668 -13.1836 C 33.9844 -13.1836 28.5645 -17.4316 27.1973 -22.168 C 27.002 -22.8027 26.9043 -23.291 26.9043 -24.0234 C 26.9043 -25.8301 28.125 -27.0996 29.8828 -27.0996 C 31.3477 -27.0996 32.1777 -26.3184 32.8125 -24.6582 C 34.2285 -21.0938 36.9629 -19.043 41.0156 -19.043 C 45.9473 -19.043 49.3652 -22.0703 49.3652 -26.0742 C 49.3652 -30.2734 46.2402 -33.0078 41.3574 -33.0078 L 38.3301 -33.0078 C 36.6699 -33.0078 35.5469 -34.2773 35.5469 -35.8887 C 35.5469 -37.7441 36.7188 -38.916 38.3301 -38.916 L 41.1133 -38.916 C 45.2148 -38.916 48.0469 -41.6504 48.0469 -45.4102 C 48.0469 -48.9746 45.2148 -51.4648 41.1621 -51.4648 C 37.207 -51.4648 34.668 -49.5117 33.5449 -45.8496 C 33.1055 -44.1895 32.2266 -43.4082 30.7129 -43.4082 C 28.9551 -43.4082 27.7832 -44.6777 27.7832 -46.4844 C 27.7832 -47.2168 27.7832 -47.7051 27.9297 -48.3887 C 29.248 -53.418 34.375 -57.3242 41.3574 -57.3242 C 49.0234 -57.3242 54.3945 -52.7344 54.3945 -46.1914 C 54.3945 -41.4551 51.0254 -37.1094 46.7773 -36.4258 L 46.7773 -36.1328 C 52.002 -35.5957 55.7617 -31.25 55.7617 -25.7812 C 55.7617 -18.4082 49.6582 -13.1836 40.9668 -13.1836 Z M 76.4648 -13.1836 C 69.4824 -13.1836 64.0137 -17.4316 62.6465 -22.168 C 62.4512 -22.8027 62.4023 -23.291 62.4023 -24.0234 C 62.4023 -25.8301 63.623 -27.0996 65.3809 -27.0996 C 66.7969 -27.0996 67.6758 -26.3184 68.2617 -24.6582 C 69.6289 -21.0938 72.4121 -19.043 76.5137 -19.043 C 81.4453 -19.043 84.8145 -22.0703 84.8145 -26.0742 C 84.8145 -30.2734 81.7383 -33.0078 76.8066 -33.0078 L 73.8281 -33.0078 C 72.168 -33.0078 71.0449 -34.2773 71.0449 -35.8887 C 71.0449 -37.7441 72.168 -38.916 73.8281 -38.916 L 76.6113 -38.916 C 80.6641 -38.916 83.5449 -41.6504 83.5449 -45.4102 C 83.5449 -48.9746 80.7129 -51.4648 76.6113 -51.4648 C 72.7051 -51.4648 70.166 -49.5117 69.043 -45.8496 C 68.5547 -44.1895 67.7246 -43.4082 66.1621 -43.4082 C 64.4043 -43.4082 63.2324 -44.6777 63.2324 -46.4844 C 63.2324 -47.2168 63.2812 -47.7051 63.3789 -48.3887 C 64.7461 -53.418 69.873 -57.3242 76.8066 -57.3242 C 84.4238 -57.3242 89.8438 -52.7344 89.8438 -46.1914 C 89.8438 -41.4551 86.5234 -37.1094 82.2754 -36.4258 L 82.2754 -36.1328 C 87.4512 -35.5957 91.2598 -31.25 91.2598 -25.7812 C 91.2598 -18.4082 85.1562 -13.1836 76.4648 -13.1836 Z"/>
  </g>
  <g id="Light-M" transform="matrix(1 0 0 1 1095.42 1126)">
   <path d="M 57.7148 13.7695 C 84.5215 13.7695 106.689 -8.39844 106.689 -35.2051 C 106.689 -62.0117 84.5215 -84.1797 57.666 -84.1797 C 30.8594 -84.1797 8.74023 -62.0117 8.74023 -35.2051 C 8.74023 -8.39844 30.9082 13.7695 57.7148 13.7695 Z M 40.0391 -13.4766 C 33.252 -13.4766 27.9297 -17.5293 26.5625 -22.2168 C 26.3672 -22.7539 26.2695 -23.2422 26.2695 -23.877 C 26.2695 -25.3418 27.2461 -26.416 28.7109 -26.416 C 29.9316 -26.416 30.6152 -25.7324 31.1035 -24.3652 C 32.5195 -20.5078 35.791 -18.2129 40.0879 -18.2129 C 45.6055 -18.2129 49.3164 -21.5332 49.3164 -26.0254 C 49.3164 -30.4688 45.752 -33.5938 40.5273 -33.5938 L 37.0117 -33.5938 C 35.5957 -33.5938 34.7168 -34.5703 34.7168 -35.9375 C 34.7168 -37.4512 35.6445 -38.3789 37.0117 -38.3789 L 40.1855 -38.3789 C 44.7266 -38.3789 47.998 -41.4551 47.998 -45.5566 C 47.998 -49.5605 44.7754 -52.2949 40.1367 -52.2949 C 35.791 -52.2949 32.8613 -50 31.8848 -46.1914 C 31.543 -44.7266 30.8105 -44.0918 29.5898 -44.0918 C 28.0273 -44.0918 27.1484 -45.1172 27.1484 -46.6797 C 27.1484 -47.2656 27.1484 -47.7539 27.2949 -48.3398 C 28.5645 -53.418 33.7402 -57.0801 40.2832 -57.0801 C 47.8027 -57.0801 53.125 -52.5879 53.125 -46.1914 C 53.125 -41.4551 49.707 -37.0605 45.3125 -36.377 L 45.3125 -36.1328 C 50.5859 -35.5957 54.541 -31.2012 54.541 -25.8301 C 54.541 -18.6035 48.5352 -13.4766 40.0391 -13.4766 Z M 75.7324 -13.4766 C 68.8965 -13.4766 63.5742 -17.5293 62.1582 -22.2168 C 62.0117 -22.7539 61.9141 -23.2422 61.9141 -23.877 C 61.9141 -25.3418 62.8906 -26.416 64.3555 -26.416 C 65.5762 -26.416 66.2598 -25.7324 66.748 -24.3652 C 68.1152 -20.5078 71.4355 -18.2129 75.7324 -18.2129 C 81.25 -18.2129 84.9609 -21.5332 84.9609 -26.0254 C 84.9609 -30.4688 81.4453 -33.5938 76.1719 -33.5938 L 72.6562 -33.5938 C 71.2891 -33.5938 70.4102 -34.5703 70.4102 -35.9375 C 70.4102 -37.4512 71.2891 -38.3789 72.6562 -38.3789 L 75.8789 -38.3789 C 80.4199 -38.3789 83.6426 -41.4551 83.6426 -45.5566 C 83.6426 -49.5605 80.4688 -52.2949 75.7812 -52.2949 C 71.4355 -52.2949 68.5547 -50 67.5293 -46.1914 C 67.1875 -44.7266 66.4551 -44.0918 65.1855 -44.0918 C 63.6719 -44.0918 62.793 -45.1172 62.793 -46.6797 C 62.793 -47.2656 62.793 -47.7539 62.9395 -48.3398 C 64.209 -53.418 69.3848 -57.0801 75.9277 -57.0801 C 83.3984 -57.0801 88.7695 -52.5879 88.7695 -46.1914 C 88.7695 -41.4551 85.3516 -37.0605 81.0059 -36.377 L 81.0059 -36.1328 C 86.2793 -35.5957 90.1855 -31.2012 90.1855 -25.8301 C 90.1855 -18.6035 84.1797 -13.4766 75.7324 -13.4766 Z"/>
  </g>
  <g id="Thin-M" transform="matrix(1 0 0 1 799.806 1126)">
   <path d="M 56.6406 12.7441 C 82.9102 12.7441 104.492 -8.83789 104.492 -35.1562 C 104.492 -61.4746 82.9102 -83.0566 56.5918 -83.0566 C 30.3223 -83.0566 8.74023 -61.4746 8.74023 -35.1562 C 8.74023 -8.83789 30.3223 12.7441 56.6406 12.7441 Z M 38.8672 -13.8184 C 32.2754 -13.8184 27.1484 -17.7246 25.6836 -22.2656 C 25.5371 -22.7051 25.3906 -23.1445 25.3906 -23.6816 C 25.3906 -24.707 26.0742 -25.4883 27.0996 -25.4883 C 28.0762 -25.4883 28.5645 -24.9512 28.8574 -23.9258 C 30.2246 -19.7266 34.2285 -17.1387 38.8672 -17.1387 C 45.1172 -17.1387 49.2676 -20.8008 49.2676 -25.8789 C 49.2676 -30.7129 45.1172 -34.3262 39.4043 -34.3262 L 35.2539 -34.3262 C 34.2285 -34.3262 33.6426 -35.0098 33.6426 -35.9863 C 33.6426 -37.0117 34.3262 -37.6465 35.2539 -37.6465 L 39.0137 -37.6465 C 44.1406 -37.6465 47.8516 -41.1621 47.8516 -45.752 C 47.8516 -50.293 44.2383 -53.3691 38.8184 -53.3691 C 33.9355 -53.3691 30.5176 -50.6348 29.7363 -46.582 C 29.4434 -45.459 28.9062 -45.0195 28.0273 -45.0195 C 26.8066 -45.0195 26.2695 -45.752 26.2695 -46.875 C 26.2695 -47.3145 26.3184 -47.8027 26.4648 -48.291 C 27.6855 -53.418 32.9102 -56.6895 38.8672 -56.6895 C 46.1914 -56.6895 51.4648 -52.3438 51.4648 -46.1426 C 51.4648 -41.4551 47.9492 -37.0117 43.3594 -36.2305 L 43.3594 -36.1328 C 48.7305 -35.5469 52.8809 -31.1035 52.8809 -25.8301 C 52.8809 -18.8477 46.9727 -13.8184 38.8672 -13.8184 Z M 74.7559 -13.8184 C 68.1641 -13.8184 63.0371 -17.7246 61.5723 -22.2656 C 61.377 -22.7051 61.2793 -23.1445 61.2793 -23.6816 C 61.2793 -24.707 61.9629 -25.4883 62.9883 -25.4883 C 63.916 -25.4883 64.4043 -24.9512 64.7949 -23.9258 C 66.1621 -19.7266 70.1172 -17.1387 74.7559 -17.1387 C 81.0059 -17.1387 85.2051 -20.8008 85.2051 -25.8789 C 85.2051 -30.7129 81.0547 -34.3262 75.293 -34.3262 L 71.1426 -34.3262 C 70.1172 -34.3262 69.5312 -35.0098 69.5312 -35.9863 C 69.5312 -37.0117 70.166 -37.6465 71.1426 -37.6465 L 74.9512 -37.6465 C 80.0293 -37.6465 83.7891 -41.1621 83.7891 -45.752 C 83.7891 -50.293 80.127 -53.3691 74.707 -53.3691 C 69.8242 -53.3691 66.4062 -50.6348 65.5762 -46.582 C 65.332 -45.459 64.7949 -45.0195 63.8672 -45.0195 C 62.6953 -45.0195 62.1582 -45.752 62.1582 -46.875 C 62.1582 -47.3145 62.207 -47.8027 62.3047 -48.291 C 63.5254 -53.418 68.75 -56.6895 74.7559 -56.6895 C 82.0312 -56.6895 87.3047 -52.3438 87.3047 -46.1426 C 87.3047 -41.4551 83.8379 -37.0117 79.2969 -36.2305 L 79.2969 -36.1328 C 84.668 -35.5469 88.7695 -31.1035 88.7695 -25.8301 C 88.7695 -18.8477 82.9102 -13.8184 74.7559 -13.8184 Z"/>
  </g>
  <g id="Ultralight-M" transform="matrix(1 0 0 1 503.656 1126)">
   <path d="M 56.0547 12.207 C 82.0801 12.207 103.369 -9.08203 103.369 -35.1562 C 103.369 -61.1816 82.0801 -82.4707 56.0547 -82.4707 C 30.0293 -82.4707 8.74023 -61.1816 8.74023 -35.1562 C 8.74023 -9.08203 30.0293 12.207 56.0547 12.207 Z M 38.2324 -14.0137 C 31.7383 -14.0137 26.709 -17.8223 25.1953 -22.3145 C 25.0977 -22.6562 24.9512 -23.0957 24.9512 -23.584 C 24.9512 -24.4141 25.4395 -25 26.3184 -25 C 27.0996 -25 27.4902 -24.5605 27.7344 -23.7305 C 29.1016 -19.3359 33.3984 -16.6016 38.2324 -16.6016 C 44.873 -16.6016 49.2676 -20.4102 49.2676 -25.8301 C 49.2676 -30.8594 44.7754 -34.7168 38.8672 -34.7168 L 34.3262 -34.7168 C 33.4961 -34.7168 33.0566 -35.2051 33.0566 -35.9863 C 33.0566 -36.8164 33.5938 -37.3047 34.3262 -37.3047 L 38.4277 -37.3047 C 43.7988 -37.3047 47.8027 -41.0645 47.8027 -45.8496 C 47.8027 -50.6836 43.9453 -53.9551 38.1836 -53.9551 C 32.959 -53.9551 29.248 -50.9766 28.6133 -46.8262 C 28.418 -45.8008 27.9297 -45.459 27.2461 -45.459 C 26.2207 -45.459 25.8301 -46.0449 25.8301 -46.9727 C 25.8301 -47.3633 25.9277 -47.8516 26.0254 -48.291 C 27.1973 -53.418 32.4707 -56.4941 38.1836 -56.4941 C 45.3613 -56.4941 50.6348 -52.1973 50.6348 -46.0938 C 50.6348 -41.4551 47.0703 -37.0117 42.3828 -36.1816 L 42.3828 -36.1328 C 47.8027 -35.498 52.0508 -31.1035 52.0508 -25.8301 C 52.0508 -18.9941 46.1914 -14.0137 38.2324 -14.0137 Z M 74.2676 -14.0137 C 67.7734 -14.0137 62.7441 -17.8223 61.2305 -22.3145 C 61.084 -22.6562 60.9375 -23.0957 60.9375 -23.584 C 60.9375 -24.4141 61.4746 -25 62.3047 -25 C 63.0859 -25 63.4277 -24.5605 63.7695 -23.7305 C 65.1367 -19.3359 69.4336 -16.6016 74.2676 -16.6016 C 80.9082 -16.6016 85.3027 -20.4102 85.3027 -25.8301 C 85.3027 -30.8594 80.8105 -34.7168 74.8535 -34.7168 L 70.3613 -34.7168 C 69.5312 -34.7168 69.0918 -35.2051 69.0918 -35.9863 C 69.0918 -36.8164 69.5801 -37.3047 70.3613 -37.3047 L 74.4629 -37.3047 C 79.834 -37.3047 83.8379 -41.0645 83.8379 -45.8496 C 83.8379 -50.6836 79.9805 -53.9551 74.1211 -53.9551 C 68.9941 -53.9551 65.2832 -50.9766 64.5508 -46.8262 C 64.4043 -45.8008 63.9648 -45.459 63.2324 -45.459 C 62.1582 -45.459 61.8164 -46.0449 61.8164 -46.9727 C 61.8164 -47.3633 61.8652 -47.8516 62.0117 -48.291 C 63.1836 -53.418 68.4082 -56.4941 74.1211 -56.4941 C 81.3477 -56.4941 86.5723 -52.1973 86.5723 -46.0938 C 86.5723 -41.4551 83.0078 -37.0117 78.418 -36.1816 L 78.418 -36.1328 C 83.8379 -35.498 88.0371 -31.1035 88.0371 -25.8301 C 88.0371 -18.9941 82.2266 -14.0137 74.2676 -14.0137 Z"/>
  </g>
  <g id="Black-S" transform="matrix(1 0 0 1 2884.57 696)">
   <path d="M 48.8281 6.78711 C 71.9727 6.78711 90.8203 -12.0605 90.8203 -35.2051 C 90.8203 -58.3496 71.9727 -77.1973 48.8281 -77.1973 C 25.6836 -77.1973 6.83594 -58.3496 6.83594 -35.2051 C 6.83594 -12.0605 25.6836 6.78711 48.8281 6.78711 Z M 37.0117 -20.2637 C 32.666 -20.2637 28.6621 -22.998 27.7832 -25.8789 C 27.5879 -26.5625 27.4414 -27.1973 27.4414 -27.8809 C 27.4414 -30.127 29.248 -31.2988 30.7617 -31.2988 C 32.2266 -31.2988 33.3496 -30.7129 34.082 -29.6387 C 34.9609 -28.3691 36.1328 -27.832 37.1582 -27.832 C 38.2812 -27.832 39.0137 -28.7109 39.0137 -29.6387 C 39.0137 -30.8105 38.2812 -31.543 36.9629 -31.543 L 36.9141 -31.543 C 34.2285 -31.543 33.1055 -33.1055 33.1055 -35.3516 C 33.1055 -37.5488 34.5215 -39.1113 36.9141 -39.1113 L 36.9629 -39.1113 C 38.2812 -39.1113 38.7695 -40.1367 38.7695 -41.0156 C 38.7695 -42.2852 37.9395 -43.0664 36.9141 -43.0664 C 35.8398 -43.0664 35.0586 -42.4805 34.1797 -41.2598 C 33.4961 -40.2344 32.4707 -39.502 30.9082 -39.502 C 29.0527 -39.502 27.7344 -40.7227 27.7344 -42.9199 C 27.7344 -43.6523 27.8809 -44.3359 28.3203 -45.2637 C 29.248 -47.3633 32.373 -50.2441 37.0117 -50.2441 C 43.0664 -50.2441 46.875 -47.1191 46.875 -42.2363 C 46.875 -39.4043 44.9219 -36.7188 42.2852 -36.2793 L 42.2852 -35.9375 C 45.3613 -35.6934 47.4121 -32.7148 47.4121 -29.1016 C 47.4121 -23.6816 43.4082 -20.2637 37.0117 -20.2637 Z M 60.5957 -20.2637 C 56.25 -20.2637 52.2461 -22.998 51.3672 -25.8789 C 51.1719 -26.5625 51.0254 -27.1973 51.0254 -27.8809 C 51.0254 -30.127 52.7832 -31.2988 54.3457 -31.2988 C 55.8105 -31.2988 56.8848 -30.7129 57.666 -29.6387 C 58.5449 -28.3691 59.7168 -27.832 60.7422 -27.832 C 61.8652 -27.832 62.5977 -28.7109 62.5977 -29.6387 C 62.5977 -30.8105 61.8652 -31.543 60.5469 -31.543 L 60.498 -31.543 C 57.8125 -31.543 56.6895 -33.1055 56.6895 -35.3516 C 56.6895 -37.5488 58.1055 -39.1113 60.498 -39.1113 L 60.5469 -39.1113 C 61.8652 -39.1113 62.3535 -40.1367 62.3535 -41.0156 C 62.3535 -42.2852 61.5234 -43.0664 60.498 -43.0664 C 59.4238 -43.0664 58.6426 -42.4805 57.7637 -41.2598 C 57.0801 -40.2344 56.0547 -39.502 54.4922 -39.502 C 52.6367 -39.502 51.3184 -40.7227 51.3184 -42.9199 C 51.3184 -43.6523 51.4648 -44.3359 51.9043 -45.2637 C 52.7832 -47.3633 55.957 -50.2441 60.5957 -50.2441 C 66.6504 -50.2441 70.459 -47.1191 70.459 -42.2363 C 70.459 -39.4043 68.5059 -36.7188 65.8691 -36.2793 L 65.8691 -35.9375 C 68.9453 -35.6934 70.9961 -32.7148 70.9961 -29.1016 C 70.9961 -23.6816 66.9922 -20.2637 60.5957 -20.2637 Z"/>
  </g>
  <g id="Heavy-S" transform="matrix(1 0 0 1 2588.47 696)">
   <path d="M 48.2422 6.15234 C 70.9961 6.15234 89.5996 -12.4512 89.5996 -35.2051 C 89.5996 -57.959 70.9961 -76.6113 48.1934 -76.6113 C 25.4395 -76.6113 6.83594 -57.959 6.83594 -35.2051 C 6.83594 -12.4512 25.4395 6.15234 48.2422 6.15234 Z M 35.9375 -19.6777 C 31.3477 -19.6777 27.2461 -22.5586 26.3184 -25.6836 C 26.123 -26.3184 26.0254 -26.9043 26.0254 -27.5879 C 26.0254 -29.6387 27.6367 -30.8105 29.1504 -30.8105 C 30.5664 -30.8105 31.5918 -30.1758 32.2754 -29.0527 C 33.252 -27.4414 34.5703 -26.6602 36.084 -26.6602 C 37.793 -26.6602 38.916 -27.8809 38.916 -29.2969 C 38.916 -30.9082 37.8418 -31.9336 35.9863 -31.9336 L 35.4492 -31.9336 C 33.0566 -31.9336 31.9336 -33.3984 31.9336 -35.4492 C 31.9336 -37.5 33.252 -38.9648 35.4492 -38.9648 L 35.9375 -38.9648 C 37.6465 -38.9648 38.5254 -40.1855 38.5254 -41.5039 C 38.5254 -43.1152 37.4023 -44.1406 35.9375 -44.1406 C 34.4238 -44.1406 33.3984 -43.3594 32.5195 -41.748 C 31.8848 -40.625 30.9082 -39.9414 29.4434 -39.9414 C 27.6367 -39.9414 26.416 -41.1133 26.416 -43.1641 C 26.416 -43.8965 26.5137 -44.4824 26.8555 -45.3125 C 27.832 -47.8516 31.1523 -50.8301 36.0352 -50.8301 C 42.0898 -50.8301 45.9961 -47.5586 45.9961 -42.627 C 45.9961 -39.5508 43.8965 -36.7188 41.1133 -36.2793 L 41.1133 -35.9375 C 44.4336 -35.6445 46.6797 -32.5684 46.6797 -28.8086 C 46.6797 -23.291 42.4805 -19.6777 35.9375 -19.6777 Z M 60.498 -19.6777 C 55.8594 -19.6777 51.8066 -22.5586 50.8789 -25.6836 C 50.6836 -26.3184 50.5859 -26.9043 50.5859 -27.5879 C 50.5859 -29.6387 52.1484 -30.8105 53.7109 -30.8105 C 55.127 -30.8105 56.1523 -30.1758 56.8359 -29.0527 C 57.7637 -27.4414 59.1309 -26.6602 60.6445 -26.6602 C 62.3535 -26.6602 63.4766 -27.8809 63.4766 -29.2969 C 63.4766 -30.9082 62.4023 -31.9336 60.5469 -31.9336 L 60.0098 -31.9336 C 57.6172 -31.9336 56.4941 -33.3984 56.4941 -35.4492 C 56.4941 -37.5 57.8125 -38.9648 60.0098 -38.9648 L 60.498 -38.9648 C 62.207 -38.9648 63.0859 -40.1855 63.0859 -41.5039 C 63.0859 -43.1152 61.9629 -44.1406 60.498 -44.1406 C 58.9844 -44.1406 57.959 -43.3594 57.0801 -41.748 C 56.4453 -40.625 55.4688 -39.9414 53.9551 -39.9414 C 52.1973 -39.9414 50.9766 -41.1133 50.9766 -43.1641 C 50.9766 -43.8965 51.0742 -44.4824 51.416 -45.3125 C 52.3438 -47.8516 55.7129 -50.8301 60.5957 -50.8301 C 66.6504 -50.8301 70.5566 -47.5586 70.5566 -42.627 C 70.5566 -39.5508 68.457 -36.7188 65.6738 -36.2793 L 65.6738 -35.9375 C 68.9941 -35.6445 71.2402 -32.5684 71.2402 -28.8086 C 71.2402 -23.291 67.041 -19.6777 60.498 -19.6777 Z"/>
  </g>
  <g id="Bold-S" transform="matrix(1 0 0 1 2292.44 696)">
   <path d="M 47.5586 5.46875 C 69.873 5.46875 88.2324 -12.8906 88.2324 -35.2051 C 88.2324 -57.5684 69.873 -75.9277 47.5098 -75.9277 C 25.1953 -75.9277 6.83594 -57.5684 6.83594 -35.2051 C 6.83594 -12.8906 25.1953 5.46875 47.5586 5.46875 Z M 34.7656 -19.043 C 29.834 -19.043 25.6836 -22.1191 24.707 -25.4395 C 24.5117 -26.0254 24.4141 -26.5625 24.4141 -27.1973 C 24.4141 -29.1016 25.8789 -30.2246 27.3926 -30.2246 C 28.7109 -30.2246 29.6875 -29.6387 30.2734 -28.3691 C 31.2988 -26.416 32.8125 -25.3906 34.8633 -25.3906 C 37.207 -25.3906 38.8184 -26.9531 38.8184 -28.8574 C 38.8184 -31.0059 37.3535 -32.373 34.8633 -32.373 L 33.7891 -32.373 C 31.7383 -32.373 30.6641 -33.7402 30.6641 -35.5469 C 30.6641 -37.4512 31.8848 -38.7695 33.7891 -38.7695 L 34.8145 -38.7695 C 36.9629 -38.7695 38.2324 -40.2344 38.2324 -42.0898 C 38.2324 -43.9941 36.7676 -45.3125 34.8145 -45.3125 C 32.8125 -45.3125 31.543 -44.3359 30.6152 -42.334 C 30.0781 -41.1133 29.1992 -40.4297 27.7832 -40.4297 C 26.0742 -40.4297 24.9023 -41.5527 24.9023 -43.457 C 24.9023 -44.1406 25 -44.6777 25.2441 -45.4102 C 26.2207 -48.4375 29.7852 -51.4648 34.9609 -51.4648 C 41.0156 -51.4648 45.0684 -48.0957 45.0684 -43.0176 C 45.0684 -39.7461 42.7734 -36.7188 39.8438 -36.2305 L 39.8438 -35.9375 C 43.3594 -35.5957 45.8496 -32.4219 45.8496 -28.4668 C 45.8496 -22.8027 41.4551 -19.043 34.7656 -19.043 Z M 60.4004 -19.043 C 55.4688 -19.043 51.2695 -22.1191 50.3418 -25.4395 C 50.1465 -26.0254 50.0488 -26.5625 50.0488 -27.1973 C 50.0488 -29.1016 51.4648 -30.2246 53.0273 -30.2246 C 54.3945 -30.2246 55.2734 -29.6387 55.957 -28.3691 C 56.9336 -26.416 58.4473 -25.3906 60.498 -25.3906 C 62.8906 -25.3906 64.502 -26.9531 64.502 -28.8574 C 64.502 -31.0059 63.0371 -32.373 60.498 -32.373 L 59.4238 -32.373 C 57.373 -32.373 56.2988 -33.7402 56.2988 -35.5469 C 56.2988 -37.4512 57.5195 -38.7695 59.4238 -38.7695 L 60.4492 -38.7695 C 62.5977 -38.7695 63.8672 -40.2344 63.8672 -42.0898 C 63.8672 -43.9941 62.4512 -45.3125 60.4492 -45.3125 C 58.4961 -45.3125 57.1777 -44.3359 56.2988 -42.334 C 55.7129 -41.1133 54.8828 -40.4297 53.3691 -40.4297 C 51.709 -40.4297 50.5371 -41.5527 50.5371 -43.457 C 50.5371 -44.1406 50.6348 -44.6777 50.8789 -45.4102 C 51.8555 -48.4375 55.4688 -51.4648 60.5957 -51.4648 C 66.6504 -51.4648 70.7031 -48.0957 70.7031 -43.0176 C 70.7031 -39.7461 68.4082 -36.7188 65.4785 -36.2305 L 65.4785 -35.9375 C 69.043 -35.5957 71.4844 -32.4219 71.4844 -28.4668 C 71.4844 -22.8027 67.0898 -19.043 60.4004 -19.043 Z"/>
  </g>
  <g id="Semibold-S" transform="matrix(1 0 0 1 1996.2 696)">
   <path d="M 47.0703 4.98047 C 69.0918 4.98047 87.3047 -13.1836 87.3047 -35.2539 C 87.3047 -57.2754 69.0918 -75.4883 47.0215 -75.4883 C 25 -75.4883 6.83594 -57.2754 6.83594 -35.2539 C 6.83594 -13.1836 25.0488 4.98047 47.0703 4.98047 Z M 33.9355 -18.6035 C 28.8086 -18.6035 24.5605 -21.7773 23.584 -25.2441 C 23.3887 -25.8789 23.291 -26.3184 23.291 -26.9531 C 23.291 -28.7598 24.6094 -29.8828 26.123 -29.8828 C 27.4414 -29.8828 28.3203 -29.1992 28.9062 -27.9297 C 29.9316 -25.6836 31.5918 -24.5117 34.0332 -24.5117 C 36.8652 -24.5117 38.7695 -26.3184 38.7695 -28.6133 C 38.7695 -31.1035 37.0117 -32.666 34.1309 -32.666 L 32.666 -32.666 C 30.8105 -32.666 29.7852 -33.9355 29.7852 -35.6445 C 29.7852 -37.4023 30.9082 -38.623 32.666 -38.623 L 33.9844 -38.623 C 36.4746 -38.623 38.0371 -40.2832 38.0371 -42.4805 C 38.0371 -44.6289 36.377 -46.0938 34.0332 -46.0938 C 31.7383 -46.0938 30.2734 -45.0195 29.3457 -42.7246 C 28.8574 -41.4062 28.0273 -40.7227 26.6113 -40.7227 C 25 -40.7227 23.877 -41.8945 23.877 -43.6523 C 23.877 -44.2871 23.9258 -44.7754 24.1211 -45.459 C 25.1465 -48.7793 28.8574 -51.9043 34.1797 -51.9043 C 40.2832 -51.9043 44.3848 -48.4375 44.3848 -43.3105 C 44.3848 -39.8926 41.9922 -36.7188 38.916 -36.2305 L 38.916 -35.9375 C 42.627 -35.5957 45.2637 -32.3242 45.2637 -28.2227 C 45.2637 -22.5098 40.7227 -18.6035 33.9355 -18.6035 Z M 60.3516 -18.6035 C 55.1758 -18.6035 50.9277 -21.7773 49.9512 -25.2441 C 49.8047 -25.8789 49.707 -26.3184 49.707 -26.9531 C 49.707 -28.7598 51.0254 -29.8828 52.5391 -29.8828 C 53.8574 -29.8828 54.6875 -29.1992 55.3223 -27.9297 C 56.2988 -25.6836 58.0078 -24.5117 60.4492 -24.5117 C 63.2324 -24.5117 65.1855 -26.3184 65.1855 -28.6133 C 65.1855 -31.1035 63.4277 -32.666 60.498 -32.666 L 59.0332 -32.666 C 57.2266 -32.666 56.2012 -33.9355 56.2012 -35.6445 C 56.2012 -37.4023 57.3242 -38.623 59.0332 -38.623 L 60.4004 -38.623 C 62.8906 -38.623 64.4043 -40.2832 64.4043 -42.4805 C 64.4043 -44.6289 62.7441 -46.0938 60.4492 -46.0938 C 58.1055 -46.0938 56.6895 -45.0195 55.7617 -42.7246 C 55.2246 -41.4062 54.4434 -40.7227 52.9785 -40.7227 C 51.416 -40.7227 50.2441 -41.8945 50.2441 -43.6523 C 50.2441 -44.2871 50.293 -44.7754 50.5371 -45.459 C 51.5137 -48.7793 55.2734 -51.9043 60.5957 -51.9043 C 66.6504 -51.9043 70.752 -48.4375 70.752 -43.3105 C 70.752 -39.8926 68.3594 -36.7188 65.332 -36.2305 L 65.332 -35.9375 C 69.043 -35.5957 71.6797 -32.3242 71.6797 -28.2227 C 71.6797 -22.5098 67.1387 -18.6035 60.3516 -18.6035 Z"/>
  </g>
  <g id="Medium-S" transform="matrix(1 0 0 1 1699.83 696)">
   <path d="M 46.7285 4.63867 C 68.5547 4.63867 86.6211 -13.4277 86.6211 -35.2539 C 86.6211 -57.0312 68.5059 -75.1465 46.6797 -75.1465 C 24.8535 -75.1465 6.83594 -57.0312 6.83594 -35.2539 C 6.83594 -13.4277 24.9023 4.63867 46.7285 4.63867 Z M 33.3496 -18.2617 C 28.0273 -18.2617 23.7305 -21.5332 22.7539 -25.1465 C 22.5586 -25.7324 22.4609 -26.1719 22.4609 -26.7578 C 22.4609 -28.4668 23.6816 -29.5898 25.1953 -29.5898 C 26.4648 -29.5898 27.2949 -28.9062 27.8809 -27.5391 C 28.9551 -25.1465 30.7129 -23.8281 33.3984 -23.8281 C 36.5723 -23.8281 38.7207 -25.8301 38.7207 -28.3691 C 38.7207 -31.1523 36.7676 -32.9102 33.5449 -32.9102 L 31.7871 -32.9102 C 30.127 -32.9102 29.1016 -34.1309 29.1016 -35.6934 C 29.1016 -37.4023 30.1758 -38.5254 31.7871 -38.5254 L 33.3984 -38.5254 C 36.084 -38.5254 37.8906 -40.332 37.8906 -42.7734 C 37.8906 -45.1172 36.0352 -46.7285 33.4473 -46.7285 C 30.9082 -46.7285 29.2969 -45.5078 28.3691 -43.0176 C 27.8809 -41.6504 27.0996 -40.9668 25.7324 -40.9668 C 24.1699 -40.9668 23.0957 -42.0898 23.0957 -43.7988 C 23.0957 -44.4336 23.0957 -44.873 23.291 -45.5078 C 24.3164 -49.0723 28.1738 -52.2461 33.6426 -52.2461 C 39.6973 -52.2461 43.8965 -48.6816 43.8965 -43.5547 C 43.8965 -39.9414 41.4062 -36.7188 38.2324 -36.2305 L 38.2324 -35.9375 C 42.0898 -35.5469 44.873 -32.2266 44.873 -28.0762 C 44.873 -22.2656 40.1855 -18.2617 33.3496 -18.2617 Z M 60.3027 -18.2617 C 54.9805 -18.2617 50.6836 -21.5332 49.6582 -25.1465 C 49.5117 -25.7324 49.4629 -26.1719 49.4629 -26.7578 C 49.4629 -28.4668 50.6348 -29.5898 52.1973 -29.5898 C 53.4668 -29.5898 54.248 -28.9062 54.834 -27.5391 C 55.8594 -25.1465 57.666 -23.8281 60.3516 -23.8281 C 63.5254 -23.8281 65.7227 -25.8301 65.7227 -28.3691 C 65.7227 -31.1523 63.7695 -32.9102 60.498 -32.9102 L 58.7402 -32.9102 C 57.0801 -32.9102 56.1035 -34.1309 56.1035 -35.6934 C 56.1035 -37.4023 57.1777 -38.5254 58.7402 -38.5254 L 60.4004 -38.5254 C 63.0859 -38.5254 64.8438 -40.332 64.8438 -42.7734 C 64.8438 -45.1172 63.0371 -46.7285 60.4492 -46.7285 C 57.8613 -46.7285 56.25 -45.5078 55.3223 -43.0176 C 54.8828 -41.6504 54.1016 -40.9668 52.6855 -40.9668 C 51.123 -40.9668 50.0488 -42.0898 50.0488 -43.7988 C 50.0488 -44.4336 50.0977 -44.873 50.2441 -45.5078 C 51.2695 -49.0723 55.127 -52.2461 60.5957 -52.2461 C 66.6504 -52.2461 70.8496 -48.6816 70.8496 -43.5547 C 70.8496 -39.9414 68.3594 -36.7188 65.2344 -36.2305 L 65.2344 -35.9375 C 69.0918 -35.5469 71.8262 -32.2266 71.8262 -28.0762 C 71.8262 -22.2656 67.1387 -18.2617 60.3027 -18.2617 Z"/>
  </g>
  <g id="Regular-S" transform="matrix(1 0 0 1 1403.58 696)">
   <path d="M 46.2402 4.15039 C 67.7734 4.15039 85.6934 -13.7207 85.6934 -35.2539 C 85.6934 -56.7871 67.7246 -74.6582 46.1914 -74.6582 C 24.707 -74.6582 6.83594 -56.7871 6.83594 -35.2539 C 6.83594 -13.7207 24.7559 4.15039 46.2402 4.15039 Z M 32.5195 -17.8223 C 27.002 -17.8223 22.6562 -21.1914 21.6309 -24.9512 C 21.4355 -25.5371 21.3867 -25.9277 21.3867 -26.5625 C 21.3867 -28.0762 22.4609 -29.1992 23.9746 -29.1992 C 25.2441 -29.1992 25.9766 -28.5156 26.5137 -27.0996 C 27.6367 -24.4141 29.4922 -22.9492 32.5684 -22.9492 C 36.1816 -22.9492 38.6719 -25.1953 38.6719 -28.125 C 38.6719 -31.25 36.4258 -33.2031 32.7637 -33.2031 L 30.6641 -33.2031 C 29.248 -33.2031 28.2227 -34.3262 28.2227 -35.7422 C 28.2227 -37.3535 29.248 -38.3789 30.6641 -38.3789 L 32.6172 -38.3789 C 35.6445 -38.3789 37.6953 -40.332 37.6953 -43.1152 C 37.6953 -45.752 35.6445 -47.5586 32.7148 -47.5586 C 29.834 -47.5586 28.0273 -46.1914 27.0996 -43.4082 C 26.6602 -41.9922 25.9277 -41.3086 24.6094 -41.3086 C 23.0957 -41.3086 22.0703 -42.3828 22.0703 -43.9941 C 22.0703 -44.5801 22.0703 -44.9707 22.168 -45.5566 C 23.2422 -49.4629 27.2461 -52.6855 32.9102 -52.6855 C 38.9648 -52.6855 43.2129 -49.0234 43.2129 -43.8477 C 43.2129 -40.0879 40.625 -36.7188 37.3535 -36.2305 L 37.3535 -35.9375 C 41.4062 -35.5469 44.2871 -32.1289 44.2871 -27.832 C 44.2871 -21.9727 39.4531 -17.8223 32.5195 -17.8223 Z M 60.2539 -17.8223 C 54.6875 -17.8223 50.3418 -21.1914 49.3164 -24.9512 C 49.1699 -25.5371 49.0723 -25.9277 49.0723 -26.5625 C 49.0723 -28.0762 50.1953 -29.1992 51.709 -29.1992 C 52.9297 -29.1992 53.7109 -28.5156 54.1992 -27.0996 C 55.2734 -24.4141 57.2266 -22.9492 60.3027 -22.9492 C 63.8672 -22.9492 66.3574 -25.1953 66.3574 -28.125 C 66.3574 -31.25 64.1602 -33.2031 60.498 -33.2031 L 58.3496 -33.2031 C 56.9336 -33.2031 55.957 -34.3262 55.957 -35.7422 C 55.957 -37.3535 56.9336 -38.3789 58.3496 -38.3789 L 60.3516 -38.3789 C 63.3301 -38.3789 65.3809 -40.332 65.3809 -43.1152 C 65.3809 -45.752 63.3301 -47.5586 60.4004 -47.5586 C 57.5195 -47.5586 55.7617 -46.1914 54.7852 -43.4082 C 54.3945 -41.9922 53.6621 -41.3086 52.2949 -41.3086 C 50.8301 -41.3086 49.7559 -42.3828 49.7559 -43.9941 C 49.7559 -44.5801 49.8047 -44.9707 49.9023 -45.5566 C 50.9277 -49.4629 54.9316 -52.6855 60.5957 -52.6855 C 66.6504 -52.6855 70.9473 -49.0234 70.9473 -43.8477 C 70.9473 -40.0879 68.3105 -36.7188 65.0879 -36.2305 L 65.0879 -35.9375 C 69.0918 -35.5469 72.0215 -32.1289 72.0215 -27.832 C 72.0215 -21.9727 67.1875 -17.8223 60.2539 -17.8223 Z"/>
  </g>
  <g id="Light-S" transform="matrix(1 0 0 1 1107.6 696)">
   <path d="M 45.5078 3.4668 C 66.6992 3.4668 84.2285 -14.0625 84.2285 -35.2051 C 84.2285 -56.3965 66.6504 -73.9258 45.5078 -73.9258 C 24.3164 -73.9258 6.83594 -56.3965 6.83594 -35.2051 C 6.83594 -14.0625 24.3652 3.4668 45.5078 3.4668 Z M 31.7383 -18.0664 C 26.3184 -18.0664 22.1191 -21.3379 21.0449 -25 C 20.8984 -25.4883 20.8008 -25.8789 20.8008 -26.416 C 20.8008 -27.6855 21.6797 -28.5645 22.9492 -28.5645 C 23.9746 -28.5645 24.5605 -28.0273 25 -26.8066 C 26.123 -23.9258 28.4668 -22.2168 31.7383 -22.2168 C 35.8398 -22.2168 38.623 -24.707 38.623 -28.0273 C 38.623 -31.3965 36.0352 -33.6914 32.0312 -33.6914 L 29.4922 -33.6914 C 28.2715 -33.6914 27.4902 -34.6191 27.4902 -35.791 C 27.4902 -37.0605 28.3203 -37.8906 29.4922 -37.8906 L 31.8359 -37.8906 C 35.2051 -37.8906 37.5977 -40.1855 37.5977 -43.2617 C 37.5977 -46.2402 35.2539 -48.291 31.8359 -48.291 C 28.5645 -48.291 26.4648 -46.6309 25.6348 -43.7012 C 25.293 -42.4805 24.6582 -41.8945 23.584 -41.8945 C 22.3145 -41.8945 21.4844 -42.8223 21.4844 -44.1406 C 21.4844 -44.6289 21.5332 -45.0195 21.6309 -45.5078 C 22.6562 -49.4629 26.6602 -52.4414 31.9336 -52.4414 C 37.8906 -52.4414 42.0898 -48.877 42.0898 -43.7988 C 42.0898 -40.0879 39.4531 -36.6699 36.084 -36.1328 L 36.084 -35.9375 C 40.1367 -35.498 43.2129 -32.0801 43.2129 -27.832 C 43.2129 -22.1191 38.4277 -18.0664 31.7383 -18.0664 Z M 59.5703 -18.0664 C 54.1992 -18.0664 49.9512 -21.3379 48.877 -25 C 48.7305 -25.4883 48.6816 -25.8789 48.6816 -26.416 C 48.6816 -27.6855 49.5605 -28.5645 50.7812 -28.5645 C 51.8555 -28.5645 52.4414 -28.0273 52.8809 -26.8066 C 53.9551 -23.9258 56.3477 -22.2168 59.6191 -22.2168 C 63.7207 -22.2168 66.5039 -24.707 66.5039 -28.0273 C 66.5039 -31.3965 63.916 -33.6914 59.9121 -33.6914 L 57.373 -33.6914 C 56.1523 -33.6914 55.3711 -34.6191 55.3711 -35.791 C 55.3711 -37.0605 56.2012 -37.8906 57.373 -37.8906 L 59.7168 -37.8906 C 63.0859 -37.8906 65.4785 -40.1855 65.4785 -43.2617 C 65.4785 -46.2402 63.1348 -48.291 59.668 -48.291 C 56.4453 -48.291 54.2969 -46.6309 53.4668 -43.7012 C 53.125 -42.4805 52.5391 -41.8945 51.416 -41.8945 C 50.1465 -41.8945 49.3652 -42.8223 49.3652 -44.1406 C 49.3652 -44.6289 49.3652 -45.0195 49.4629 -45.5078 C 50.4883 -49.4629 54.541 -52.4414 59.8145 -52.4414 C 65.7227 -52.4414 69.9707 -48.877 69.9707 -43.7988 C 69.9707 -40.0879 67.2852 -36.6699 63.916 -36.1328 L 63.916 -35.9375 C 68.0176 -35.498 71.0449 -32.0801 71.0449 -27.832 C 71.0449 -22.1191 66.3086 -18.0664 59.5703 -18.0664 Z"/>
  </g>
  <g id="Thin-S" transform="matrix(1 0 0 1 811.867 696)">
   <path d="M 44.5801 2.53906 C 65.2832 2.53906 82.2754 -14.4531 82.2754 -35.2051 C 82.2754 -55.9082 65.2344 -72.9004 44.5312 -72.9004 C 23.8281 -72.9004 6.83594 -55.9082 6.83594 -35.2051 C 6.83594 -14.4531 23.877 2.53906 44.5801 2.53906 Z M 30.6641 -18.4082 C 25.4395 -18.4082 21.3867 -21.4844 20.2637 -25.0488 C 20.166 -25.4395 20.0684 -25.7812 20.0684 -26.2207 C 20.0684 -27.0996 20.6543 -27.7832 21.5332 -27.7832 C 22.3145 -27.7832 22.7539 -27.3438 23.0469 -26.4648 C 24.1211 -23.2422 27.0996 -21.2891 30.6641 -21.2891 C 35.4492 -21.2891 38.623 -24.0723 38.623 -27.9297 C 38.623 -31.6406 35.4492 -34.375 31.1035 -34.375 L 27.9297 -34.375 C 27.0508 -34.375 26.5625 -34.9609 26.5625 -35.791 C 26.5625 -36.7188 27.1484 -37.2559 27.9297 -37.2559 L 30.8105 -37.2559 C 34.668 -37.2559 37.5 -39.9414 37.5 -43.457 C 37.5 -46.875 34.7656 -49.2188 30.6641 -49.2188 C 26.9043 -49.2188 24.3164 -47.168 23.6816 -44.043 C 23.4863 -43.1152 22.998 -42.7246 22.2656 -42.7246 C 21.2402 -42.7246 20.752 -43.3594 20.752 -44.2871 C 20.752 -44.6777 20.8008 -45.0684 20.8984 -45.5078 C 21.8262 -49.4629 25.9277 -52.0996 30.7129 -52.0996 C 36.4746 -52.0996 40.625 -48.6816 40.625 -43.7988 C 40.625 -40.0879 37.8906 -36.6699 34.3262 -36.0352 L 34.3262 -35.9375 C 38.5254 -35.498 41.748 -32.0312 41.748 -27.8809 C 41.748 -22.3633 37.1094 -18.4082 30.6641 -18.4082 Z M 58.7402 -18.4082 C 53.5645 -18.4082 49.4629 -21.4844 48.3398 -25.0488 C 48.1934 -25.4395 48.0957 -25.7812 48.0957 -26.2207 C 48.0957 -27.0996 48.7305 -27.7832 49.6094 -27.7832 C 50.3906 -27.7832 50.7812 -27.3438 51.123 -26.4648 C 52.1973 -23.2422 55.1758 -21.2891 58.7402 -21.2891 C 63.5254 -21.2891 66.6992 -24.0723 66.6992 -27.9297 C 66.6992 -31.6406 63.5742 -34.375 59.1309 -34.375 L 56.0059 -34.375 C 55.127 -34.375 54.6387 -34.9609 54.6387 -35.791 C 54.6387 -36.7188 55.1758 -37.2559 56.0059 -37.2559 L 58.8867 -37.2559 C 62.7441 -37.2559 65.5762 -39.9414 65.5762 -43.457 C 65.5762 -46.875 62.8418 -49.2188 58.7402 -49.2188 C 55.0293 -49.2188 52.4414 -47.168 51.7578 -44.043 C 51.5137 -43.1152 51.0742 -42.7246 50.293 -42.7246 C 49.2676 -42.7246 48.7793 -43.3594 48.7793 -44.2871 C 48.7793 -44.6777 48.8281 -45.0684 48.9258 -45.5078 C 49.9023 -49.4629 53.9551 -52.0996 58.7891 -52.0996 C 64.5508 -52.0996 68.7012 -48.6816 68.7012 -43.7988 C 68.7012 -40.0879 65.9668 -36.6699 62.4512 -36.0352 L 62.4512 -35.9375 C 66.6016 -35.498 69.7754 -32.0312 69.7754 -27.8809 C 69.7754 -22.3633 65.1855 -18.4082 58.7402 -18.4082 Z"/>
  </g>
  <g id="Ultralight-S" transform="matrix(1 0 0 1 515.644 696)">
   <path d="M 44.043 2.05078 C 64.502 2.05078 81.2988 -14.6973 81.2988 -35.1562 C 81.2988 -55.6152 64.502 -72.3633 44.043 -72.3633 C 23.584 -72.3633 6.83594 -55.6152 6.83594 -35.1562 C 6.83594 -14.6973 23.584 2.05078 44.043 2.05078 Z M 30.127 -18.5547 C 25 -18.5547 21.0449 -21.582 19.873 -25.0977 C 19.7754 -25.3906 19.6777 -25.7324 19.6777 -26.123 C 19.6777 -26.8066 20.1172 -27.3438 20.8008 -27.3438 C 21.4844 -27.3438 21.7773 -27.002 22.0215 -26.2695 C 23.0957 -22.9004 26.3672 -20.752 30.127 -20.752 C 35.2051 -20.752 38.5742 -23.7305 38.5742 -27.8809 C 38.5742 -31.7383 35.1562 -34.7168 30.5664 -34.7168 L 27.1484 -34.7168 C 26.416 -34.7168 26.0254 -35.1562 26.0254 -35.8398 C 26.0254 -36.5234 26.5137 -36.9629 27.1484 -36.9629 L 30.2734 -36.9629 C 34.375 -36.9629 37.4512 -39.8438 37.4512 -43.5547 C 37.4512 -47.2168 34.4727 -49.7559 30.0781 -49.7559 C 26.0742 -49.7559 23.2422 -47.5098 22.7051 -44.2383 C 22.5098 -43.4082 22.1191 -43.1152 21.5332 -43.1152 C 20.7031 -43.1152 20.3613 -43.6523 20.3613 -44.4336 C 20.3613 -44.7266 20.4102 -45.1172 20.5078 -45.459 C 21.4355 -49.4629 25.5371 -51.9531 30.0781 -51.9531 C 35.7422 -51.9531 39.8926 -48.584 39.8926 -43.75 C 39.8926 -40.0879 37.1094 -36.6211 33.4473 -35.9863 L 33.4473 -35.9375 C 37.6953 -35.4492 41.0156 -31.9824 41.0156 -27.8809 C 41.0156 -22.4609 36.377 -18.5547 30.127 -18.5547 Z M 58.3008 -18.5547 C 53.2227 -18.5547 49.2188 -21.582 48.0469 -25.0977 C 47.9004 -25.3906 47.8027 -25.7324 47.8027 -26.123 C 47.8027 -26.8066 48.291 -27.3438 48.9746 -27.3438 C 49.6582 -27.3438 49.9512 -27.002 50.1953 -26.2695 C 51.2695 -22.9004 54.5898 -20.752 58.3008 -20.752 C 63.4277 -20.752 66.7969 -23.7305 66.7969 -27.8809 C 66.7969 -31.7383 63.3789 -34.7168 58.7402 -34.7168 L 55.3223 -34.7168 C 54.5898 -34.7168 54.248 -35.1562 54.248 -35.8398 C 54.248 -36.5234 54.6387 -36.9629 55.3223 -36.9629 L 58.4473 -36.9629 C 62.5977 -36.9629 65.6738 -39.8438 65.6738 -43.5547 C 65.6738 -47.2168 62.6953 -49.7559 58.2031 -49.7559 C 54.248 -49.7559 51.4648 -47.5098 50.8301 -44.2383 C 50.6836 -43.4082 50.3418 -43.1152 49.707 -43.1152 C 48.8281 -43.1152 48.4863 -43.6523 48.4863 -44.4336 C 48.4863 -44.7266 48.5352 -45.1172 48.6328 -45.459 C 49.5605 -49.4629 53.6621 -51.9531 58.252 -51.9531 C 63.916 -51.9531 68.0176 -48.584 68.0176 -43.75 C 68.0176 -40.0879 65.2344 -36.6211 61.6699 -35.9863 L 61.6699 -35.9375 C 65.8691 -35.4492 69.1406 -31.9824 69.1406 -27.8809 C 69.1406 -22.4609 64.5996 -18.5547 58.3008 -18.5547 Z"/>
  </g>
 </g>
</svg>
