<?xml version="1.0" encoding="UTF-8"?>
<!--Generator: Apple Native CoreSVG 123-->
<!DOCTYPE svg
PUBLIC "-//W3C//DTD SVG 1.1//EN"
       "http://www.w3.org/Graphics/SVG/1.1/DTD/svg11.dtd">
<svg version="1.1" xmlns="http://www.w3.org/2000/svg" xmlns:xlink="http://www.w3.org/1999/xlink" width="3300" height="2200">
 <!--glyph: "uni10069C.medium", point size: 100.000000, font version: "Version 15.0d7e11", template writer version: "5"-->
 <g id="Notes">
  <rect height="2200" id="artboard" style="fill:white;opacity:1" width="3300" x="0" y="0"/>
  <line id="" style="fill:none;stroke:black;opacity:1;stroke-width:0.5;" x1="263" x2="3036" y1="292" y2="292"/>
  <text style="stroke:none;fill:black;font-family:-apple-system,&quot;SF Pro Display&quot;,&quot;SF Pro Text&quot;,Helvetica,sans-serif;font-weight:bold;" transform="matrix(1 0 0 1 263 322)">Weight/Scale Variations</text>
  <text style="stroke:none;fill:black;font-family:-apple-system,&quot;SF Pro Display&quot;,&quot;SF Pro Text&quot;,Helvetica,sans-serif;text-anchor:middle;" transform="matrix(1 0 0 1 559.711 322)">Ultralight</text>
  <text style="stroke:none;fill:black;font-family:-apple-system,&quot;SF Pro Display&quot;,&quot;SF Pro Text&quot;,Helvetica,sans-serif;text-anchor:middle;" transform="matrix(1 0 0 1 856.422 322)">Thin</text>
  <text style="stroke:none;fill:black;font-family:-apple-system,&quot;SF Pro Display&quot;,&quot;SF Pro Text&quot;,Helvetica,sans-serif;text-anchor:middle;" transform="matrix(1 0 0 1 1153.13 322)">Light</text>
  <text style="stroke:none;fill:black;font-family:-apple-system,&quot;SF Pro Display&quot;,&quot;SF Pro Text&quot;,Helvetica,sans-serif;text-anchor:middle;" transform="matrix(1 0 0 1 1449.84 322)">Regular</text>
  <text style="stroke:none;fill:black;font-family:-apple-system,&quot;SF Pro Display&quot;,&quot;SF Pro Text&quot;,Helvetica,sans-serif;text-anchor:middle;" transform="matrix(1 0 0 1 1746.56 322)">Medium</text>
  <text style="stroke:none;fill:black;font-family:-apple-system,&quot;SF Pro Display&quot;,&quot;SF Pro Text&quot;,Helvetica,sans-serif;text-anchor:middle;" transform="matrix(1 0 0 1 2043.27 322)">Semibold</text>
  <text style="stroke:none;fill:black;font-family:-apple-system,&quot;SF Pro Display&quot;,&quot;SF Pro Text&quot;,Helvetica,sans-serif;text-anchor:middle;" transform="matrix(1 0 0 1 2339.98 322)">Bold</text>
  <text style="stroke:none;fill:black;font-family:-apple-system,&quot;SF Pro Display&quot;,&quot;SF Pro Text&quot;,Helvetica,sans-serif;text-anchor:middle;" transform="matrix(1 0 0 1 2636.69 322)">Heavy</text>
  <text style="stroke:none;fill:black;font-family:-apple-system,&quot;SF Pro Display&quot;,&quot;SF Pro Text&quot;,Helvetica,sans-serif;text-anchor:middle;" transform="matrix(1 0 0 1 2933.4 322)">Black</text>
  <line id="" style="fill:none;stroke:black;opacity:1;stroke-width:0.5;" x1="263" x2="3036" y1="1903" y2="1903"/>
  <g id="" transform="matrix(1 0 0 1 263 1933)">
   <path d="M 9.24805 0.830078 C 13.5547 0.830078 17.1387 -2.74414 17.1387 -7.05078 C 17.1387 -11.3574 13.5449 -14.9316 9.23828 -14.9316 C 4.94141 -14.9316 1.36719 -11.3574 1.36719 -7.05078 C 1.36719 -2.74414 4.95117 0.830078 9.24805 0.830078 Z M 9.24805 -0.654297 C 5.70312 -0.654297 2.87109 -3.49609 2.87109 -7.05078 C 2.87109 -10.6055 5.69336 -13.4473 9.23828 -13.4473 C 12.793 -13.4473 15.6348 -10.6055 15.6445 -7.05078 C 15.6543 -3.49609 12.8027 -0.654297 9.24805 -0.654297 Z M 9.22852 -3.42773 C 9.69727 -3.42773 9.9707 -3.74023 9.9707 -4.25781 L 9.9707 -6.31836 L 12.1973 -6.31836 C 12.6953 -6.31836 13.0371 -6.57227 13.0371 -7.04102 C 13.0371 -7.51953 12.7148 -7.7832 12.1973 -7.7832 L 9.9707 -7.7832 L 9.9707 -10.0098 C 9.9707 -10.5273 9.69727 -10.8496 9.22852 -10.8496 C 8.75977 -10.8496 8.50586 -10.5078 8.50586 -10.0098 L 8.50586 -7.7832 L 6.29883 -7.7832 C 5.78125 -7.7832 5.44922 -7.51953 5.44922 -7.04102 C 5.44922 -6.57227 5.80078 -6.31836 6.29883 -6.31836 L 8.50586 -6.31836 L 8.50586 -4.25781 C 8.50586 -3.75977 8.75977 -3.42773 9.22852 -3.42773 Z"/>
  </g>
  <g id="" transform="matrix(1 0 0 1 281.506 1933)">
   <path d="M 11.709 2.91016 C 17.1582 2.91016 21.6699 -1.60156 21.6699 -7.05078 C 21.6699 -12.4902 17.1484 -17.0117 11.6992 -17.0117 C 6.25977 -17.0117 1.74805 -12.4902 1.74805 -7.05078 C 1.74805 -1.60156 6.26953 2.91016 11.709 2.91016 Z M 11.709 1.25 C 7.09961 1.25 3.41797 -2.44141 3.41797 -7.05078 C 3.41797 -11.6504 7.08984 -15.3516 11.6992 -15.3516 C 16.3086 -15.3516 20 -11.6504 20.0098 -7.05078 C 20.0195 -2.44141 16.3184 1.25 11.709 1.25 Z M 11.6895 -2.41211 C 12.207 -2.41211 12.5195 -2.77344 12.5195 -3.33984 L 12.5195 -6.23047 L 15.5762 -6.23047 C 16.123 -6.23047 16.5039 -6.51367 16.5039 -7.03125 C 16.5039 -7.55859 16.1426 -7.86133 15.5762 -7.86133 L 12.5195 -7.86133 L 12.5195 -10.9277 C 12.5195 -11.5039 12.207 -11.8555 11.6895 -11.8555 C 11.1719 -11.8555 10.8789 -11.4844 10.8789 -10.9277 L 10.8789 -7.86133 L 7.83203 -7.86133 C 7.26562 -7.86133 6.89453 -7.55859 6.89453 -7.03125 C 6.89453 -6.51367 7.28516 -6.23047 7.83203 -6.23047 L 10.8789 -6.23047 L 10.8789 -3.33984 C 10.8789 -2.79297 11.1719 -2.41211 11.6895 -2.41211 Z"/>
  </g>
  <g id="" transform="matrix(1 0 0 1 304.924 1933)">
   <path d="M 14.9707 5.67383 C 21.9336 5.67383 27.6953 -0.078125 27.6953 -7.04102 C 27.6953 -14.0039 21.9238 -19.7559 14.9609 -19.7559 C 8.00781 -19.7559 2.25586 -14.0039 2.25586 -7.04102 C 2.25586 -0.078125 8.01758 5.67383 14.9707 5.67383 Z M 14.9707 3.85742 C 8.93555 3.85742 4.08203 -1.00586 4.08203 -7.04102 C 4.08203 -13.0762 8.92578 -17.9395 14.9609 -17.9395 C 21.0059 -17.9395 25.8594 -13.0762 25.8691 -7.04102 C 25.8789 -1.00586 21.0156 3.85742 14.9707 3.85742 Z M 14.9512 -1.06445 C 15.5176 -1.06445 15.8691 -1.45508 15.8691 -2.06055 L 15.8691 -6.13281 L 20.1074 -6.13281 C 20.6934 -6.13281 21.1133 -6.46484 21.1133 -7.02148 C 21.1133 -7.59766 20.7227 -7.93945 20.1074 -7.93945 L 15.8691 -7.93945 L 15.8691 -12.1875 C 15.8691 -12.8027 15.5176 -13.1934 14.9512 -13.1934 C 14.3848 -13.1934 14.0625 -12.7832 14.0625 -12.1875 L 14.0625 -7.93945 L 9.83398 -7.93945 C 9.21875 -7.93945 8.80859 -7.59766 8.80859 -7.02148 C 8.80859 -6.46484 9.23828 -6.13281 9.83398 -6.13281 L 14.0625 -6.13281 L 14.0625 -2.06055 C 14.0625 -1.47461 14.3848 -1.06445 14.9512 -1.06445 Z"/>
  </g>
  <text style="stroke:none;fill:black;font-family:-apple-system,&quot;SF Pro Display&quot;,&quot;SF Pro Text&quot;,Helvetica,sans-serif;font-weight:bold;" transform="matrix(1 0 0 1 263 1953)">Design Variations</text>
  <text style="stroke:none;fill:black;font-family:-apple-system,&quot;SF Pro Display&quot;,&quot;SF Pro Text&quot;,Helvetica,sans-serif;" transform="matrix(1 0 0 1 263 1971)">Symbols are supported in up to nine weights and three scales.</text>
  <text style="stroke:none;fill:black;font-family:-apple-system,&quot;SF Pro Display&quot;,&quot;SF Pro Text&quot;,Helvetica,sans-serif;" transform="matrix(1 0 0 1 263 1989)">For optimal layout with text and other symbols, vertically align</text>
  <text style="stroke:none;fill:black;font-family:-apple-system,&quot;SF Pro Display&quot;,&quot;SF Pro Text&quot;,Helvetica,sans-serif;" transform="matrix(1 0 0 1 263 2007)">symbols with the adjacent text.</text>
  <rect height="14" id="" style="fill:#00AEEF;stroke:none;opacity:0.4;" width="3" x="776" y="1919"/>
  <g id="" transform="matrix(1 0 0 1 779 1933)">
   <path d="M 10.5273 0 L 12.373 0 L 7.17773 -14.0918 L 5.43945 -14.0918 L 0.244141 0 L 2.08984 0 L 3.50586 -4.0332 L 9.11133 -4.0332 Z M 6.2793 -11.9531 L 6.33789 -11.9531 L 8.59375 -5.52734 L 4.02344 -5.52734 Z"/>
  </g>
  <rect height="14" id="" style="fill:#00AEEF;stroke:none;opacity:0.4;" width="3" x="791.617" y="1919"/>
  <text style="stroke:none;fill:black;font-family:-apple-system,&quot;SF Pro Display&quot;,&quot;SF Pro Text&quot;,Helvetica,sans-serif;font-weight:bold;" transform="matrix(1 0 0 1 776 1953)">Margins</text>
  <text style="stroke:none;fill:black;font-family:-apple-system,&quot;SF Pro Display&quot;,&quot;SF Pro Text&quot;,Helvetica,sans-serif;" transform="matrix(1 0 0 1 776 1971)">Leading and trailing margins on the left and right side of each symbol</text>
  <text style="stroke:none;fill:black;font-family:-apple-system,&quot;SF Pro Display&quot;,&quot;SF Pro Text&quot;,Helvetica,sans-serif;" transform="matrix(1 0 0 1 776 1989)">can be adjusted by modifying the width of the blue rectangles.</text>
  <text style="stroke:none;fill:black;font-family:-apple-system,&quot;SF Pro Display&quot;,&quot;SF Pro Text&quot;,Helvetica,sans-serif;" transform="matrix(1 0 0 1 776 2007)">Modifications are automatically applied proportionally to all</text>
  <text style="stroke:none;fill:black;font-family:-apple-system,&quot;SF Pro Display&quot;,&quot;SF Pro Text&quot;,Helvetica,sans-serif;" transform="matrix(1 0 0 1 776 2025)">scales and weights.</text>
  <g id="" transform="matrix(1 0 0 1 1289 1933)">
   <path d="M 2.83203 3.11523 L 4.375 4.6582 C 5.22461 5.48828 6.19141 5.41992 7.06055 4.46289 L 17.2754 -6.66016 C 17.7051 -6.36719 18.0957 -6.37695 18.5645 -6.47461 L 19.6094 -6.68945 L 20.3027 -5.99609 L 20.2539 -5.47852 C 20.1855 -4.95117 20.3516 -4.53125 20.8496 -4.0332 L 21.6602 -3.22266 C 22.168 -2.71484 22.8223 -2.68555 23.3008 -3.16406 L 26.5527 -6.41602 C 27.0312 -6.89453 27.0117 -7.54883 26.5039 -8.05664 L 25.6836 -8.87695 C 25.1855 -9.375 24.7754 -9.55078 24.2383 -9.47266 L 23.7109 -9.41406 L 23.0566 -10.0781 L 23.3398 -11.2207 C 23.4863 -11.7871 23.3398 -12.2559 22.7148 -12.8613 L 20.3027 -15.2539 C 16.7578 -18.7793 12.2266 -18.6719 9.11133 -15.5371 C 8.69141 -15.1074 8.64258 -14.5215 8.91602 -14.0918 C 9.15039 -13.7207 9.62891 -13.4961 10.2734 -13.6621 C 11.7871 -14.043 13.3008 -13.9258 14.7852 -12.9199 L 14.1602 -11.3379 C 13.9258 -10.752 13.9453 -10.2734 14.1797 -9.83398 L 3.01758 0.439453 C 2.08008 1.30859 1.97266 2.25586 2.83203 3.11523 Z M 10.6738 -15.1465 C 13.3398 -17.1387 16.6504 -16.8262 19.0527 -14.4141 L 21.6797 -11.8066 C 21.9141 -11.5723 21.9434 -11.3867 21.8848 -11.0938 L 21.5039 -9.53125 L 23.0762 -7.95898 L 24.043 -8.04688 C 24.3262 -8.07617 24.4141 -8.05664 24.6387 -7.83203 L 25.2637 -7.20703 L 22.5098 -4.46289 L 21.8848 -5.07812 C 21.6602 -5.30273 21.6406 -5.40039 21.6699 -5.68359 L 21.7578 -6.64062 L 20.1953 -8.20312 L 18.5742 -7.89062 C 18.291 -7.83203 18.1445 -7.83203 17.9102 -8.07617 L 15.7324 -10.2539 C 15.5078 -10.4883 15.4785 -10.625 15.6055 -10.9473 L 16.5527 -13.2227 C 14.9512 -14.7559 12.8418 -15.6055 10.8008 -14.9512 C 10.7129 -14.9219 10.6445 -14.9414 10.6152 -14.9805 C 10.5859 -15.0293 10.5859 -15.0781 10.6738 -15.1465 Z M 4.10156 2.41211 C 3.61328 1.91406 3.78906 1.61133 4.12109 1.30859 L 15.0781 -8.80859 L 16.3086 -7.57812 L 6.15234 3.34961 C 5.84961 3.68164 5.46875 3.7793 5.06836 3.37891 Z"/>
  </g>
  <text style="stroke:none;fill:black;font-family:-apple-system,&quot;SF Pro Display&quot;,&quot;SF Pro Text&quot;,Helvetica,sans-serif;font-weight:bold;" transform="matrix(1 0 0 1 1289 1953)">Exporting</text>
  <text style="stroke:none;fill:black;font-family:-apple-system,&quot;SF Pro Display&quot;,&quot;SF Pro Text&quot;,Helvetica,sans-serif;" transform="matrix(1 0 0 1 1289 1971)">Symbols should be outlined when exporting to ensure the</text>
  <text style="stroke:none;fill:black;font-family:-apple-system,&quot;SF Pro Display&quot;,&quot;SF Pro Text&quot;,Helvetica,sans-serif;" transform="matrix(1 0 0 1 1289 1989)">design is preserved when submitting to Xcode.</text>
  <text id="template-version" style="stroke:none;fill:black;font-family:-apple-system,&quot;SF Pro Display&quot;,&quot;SF Pro Text&quot;,Helvetica,sans-serif;text-anchor:end;" transform="matrix(1 0 0 1 3036 1933)">Template v.1.0</text>
  <text style="stroke:none;fill:black;font-family:-apple-system,&quot;SF Pro Display&quot;,&quot;SF Pro Text&quot;,Helvetica,sans-serif;text-anchor:end;" transform="matrix(1 0 0 1 3036 1951)">Generated from 34.circle.fill</text>
  <text style="stroke:none;fill:black;font-family:-apple-system,&quot;SF Pro Display&quot;,&quot;SF Pro Text&quot;,Helvetica,sans-serif;text-anchor:end;" transform="matrix(1 0 0 1 3036 1969)">Typeset at 100 points</text>
  <text style="stroke:none;fill:black;font-family:-apple-system,&quot;SF Pro Display&quot;,&quot;SF Pro Text&quot;,Helvetica,sans-serif;" transform="matrix(1 0 0 1 263 726)">Small</text>
  <text style="stroke:none;fill:black;font-family:-apple-system,&quot;SF Pro Display&quot;,&quot;SF Pro Text&quot;,Helvetica,sans-serif;" transform="matrix(1 0 0 1 263 1156)">Medium</text>
  <text style="stroke:none;fill:black;font-family:-apple-system,&quot;SF Pro Display&quot;,&quot;SF Pro Text&quot;,Helvetica,sans-serif;" transform="matrix(1 0 0 1 263 1586)">Large</text>
 </g>
 <g id="Guides">
  <g id="H-reference" style="fill:#27AAE1;stroke:none;" transform="matrix(1 0 0 1 339 696)">
   <path d="M 54.9316 0 L 57.666 0 L 30.5664 -70.459 L 28.0762 -70.459 L 0.976562 0 L 3.66211 0 L 12.9395 -24.4629 L 45.7031 -24.4629 Z M 29.1992 -67.0898 L 29.4434 -67.0898 L 44.8242 -26.709 L 13.8184 -26.709 Z"/>
  </g>
  <line id="Baseline-S" style="fill:none;stroke:#27AAE1;opacity:1;stroke-width:0.577;" x1="263" x2="3036" y1="696" y2="696"/>
  <line id="Capline-S" style="fill:none;stroke:#27AAE1;opacity:1;stroke-width:0.577;" x1="263" x2="3036" y1="625.541" y2="625.541"/>
  <g id="H-reference" style="fill:#27AAE1;stroke:none;" transform="matrix(1 0 0 1 339 1126)">
   <path d="M 54.9316 0 L 57.666 0 L 30.5664 -70.459 L 28.0762 -70.459 L 0.976562 0 L 3.66211 0 L 12.9395 -24.4629 L 45.7031 -24.4629 Z M 29.1992 -67.0898 L 29.4434 -67.0898 L 44.8242 -26.709 L 13.8184 -26.709 Z"/>
  </g>
  <line id="Baseline-M" style="fill:none;stroke:#27AAE1;opacity:1;stroke-width:0.577;" x1="263" x2="3036" y1="1126" y2="1126"/>
  <line id="Capline-M" style="fill:none;stroke:#27AAE1;opacity:1;stroke-width:0.577;" x1="263" x2="3036" y1="1055.54" y2="1055.54"/>
  <g id="H-reference" style="fill:#27AAE1;stroke:none;" transform="matrix(1 0 0 1 339 1556)">
   <path d="M 54.9316 0 L 57.666 0 L 30.5664 -70.459 L 28.0762 -70.459 L 0.976562 0 L 3.66211 0 L 12.9395 -24.4629 L 45.7031 -24.4629 Z M 29.1992 -67.0898 L 29.4434 -67.0898 L 44.8242 -26.709 L 13.8184 -26.709 Z"/>
  </g>
  <line id="Baseline-L" style="fill:none;stroke:#27AAE1;opacity:1;stroke-width:0.577;" x1="263" x2="3036" y1="1556" y2="1556"/>
  <line id="Capline-L" style="fill:none;stroke:#27AAE1;opacity:1;stroke-width:0.577;" x1="263" x2="3036" y1="1485.54" y2="1485.54"/>
  <rect height="119.336" id="left-margin" style="fill:#00AEEF;stroke:none;opacity:0.4;" width="8.74023" x="1391.3" y="1030.79"/>
  <rect height="119.336" id="right-margin" style="fill:#00AEEF;stroke:none;opacity:0.4;" width="8.74023" x="1499.65" y="1030.79"/>
 </g>
 <g id="Symbols">
  <g id="Black-L" transform="matrix(1 0 0 1 2854.05 1556)">
   <path d="M 79.3457 32.8613 C 116.748 32.8613 147.412 2.19727 147.412 -35.2051 C 147.412 -72.6074 116.748 -103.271 79.2969 -103.271 C 41.8945 -103.271 11.2793 -72.6074 11.2793 -35.2051 C 11.2793 2.19727 41.9434 32.8613 79.3457 32.8613 Z M 58.8867 -9.47266 C 51.123 -9.47266 44.4336 -14.2578 42.9199 -19.4336 C 42.5293 -20.5078 42.334 -21.4355 42.334 -22.5098 C 42.334 -25.9277 45.0195 -27.832 47.6074 -27.832 C 49.9023 -27.832 51.5625 -26.8555 52.7344 -24.9023 C 54.248 -22.168 56.4941 -20.8984 59.082 -20.8984 C 62.0117 -20.8984 64.0137 -22.9492 64.0137 -25.3418 C 64.0137 -28.125 62.1582 -29.8828 58.9355 -29.8828 L 57.959 -29.8828 C 54.1016 -29.8828 52.2949 -32.2754 52.2949 -35.5957 C 52.2949 -38.9648 54.3945 -41.3574 57.959 -41.3574 L 58.8867 -41.3574 C 61.7676 -41.3574 63.2324 -43.4082 63.2324 -45.7031 C 63.2324 -48.3887 61.377 -50.0977 58.8867 -50.0977 C 56.2988 -50.0977 54.5898 -48.7793 53.125 -46.0938 C 52.002 -44.2383 50.4883 -43.0176 48.0469 -43.0176 C 45.1172 -43.0176 43.0664 -45.0195 43.0664 -48.3398 C 43.0664 -49.5117 43.2617 -50.5371 43.75 -51.9043 C 45.3613 -56.1523 50.8789 -61.084 59.0332 -61.084 C 69.043 -61.084 75.4395 -55.7129 75.4395 -47.5098 C 75.4395 -42.4316 71.9727 -37.6953 67.4316 -36.9141 L 67.4316 -36.377 C 72.9004 -35.9375 76.6602 -30.8105 76.6602 -24.5605 C 76.6602 -15.4297 69.6777 -9.47266 58.8867 -9.47266 Z M 107.031 -9.47266 C 103.662 -9.47266 101.514 -11.7676 101.514 -15.0391 L 101.514 -19.1406 L 89.1113 -19.1406 C 84.2285 -19.1406 81.543 -21.9238 81.543 -26.6602 C 81.543 -29.4922 82.2754 -32.0312 83.2031 -34.5703 C 85.3027 -39.7949 88.8184 -47.6562 92.041 -53.8574 C 94.5801 -58.7891 97.8516 -61.084 103.32 -61.084 C 109.473 -61.084 112.598 -57.4219 112.598 -51.5137 L 112.598 -29.7852 L 113.721 -29.7852 C 116.895 -29.7852 118.701 -27.6367 118.701 -24.4141 C 118.701 -21.1914 116.895 -19.2383 113.721 -19.2383 L 112.598 -19.2383 L 112.598 -15.0391 C 112.598 -11.7676 110.449 -9.47266 107.031 -9.47266 Z M 101.514 -29.6387 L 101.514 -49.3164 L 101.27 -49.3164 C 98.5352 -43.3105 95.4102 -34.8633 93.3594 -29.9316 L 93.3594 -29.6387 Z"/>
  </g>
  <g id="Heavy-L" transform="matrix(1 0 0 1 2558.39 1556)">
   <path d="M 78.2715 31.7871 C 115.088 31.7871 145.312 1.61133 145.312 -35.2051 C 145.312 -72.0215 115.039 -102.197 78.2715 -102.197 C 41.4551 -102.197 11.2793 -72.0215 11.2793 -35.2051 C 11.2793 1.61133 41.5039 31.7871 78.2715 31.7871 Z M 57.373 -8.88672 C 49.3164 -8.88672 42.5781 -13.8184 41.0156 -19.1895 C 40.6738 -20.166 40.5273 -21.0449 40.5273 -22.0703 C 40.5273 -25.1953 42.8711 -27.002 45.3125 -27.002 C 47.4609 -27.002 48.9746 -25.9766 50 -24.0723 C 51.6113 -20.8496 54.248 -19.1895 57.5195 -19.1895 C 61.377 -19.1895 64.0137 -21.7285 64.0137 -24.8535 C 64.0137 -28.3203 61.5723 -30.5664 57.5195 -30.5664 L 55.7617 -30.5664 C 52.3438 -30.5664 50.6836 -32.7148 50.6836 -35.7422 C 50.6836 -38.8184 52.5879 -40.918 55.7617 -40.918 L 57.4219 -40.918 C 60.9375 -40.918 62.9883 -43.4082 62.9883 -46.3867 C 62.9883 -49.5605 60.6445 -51.709 57.373 -51.709 C 54.1016 -51.709 52.002 -50.0488 50.5371 -46.8262 C 49.5605 -44.9219 48.1934 -43.7988 45.8984 -43.7988 C 43.2129 -43.7988 41.3086 -45.6543 41.3086 -48.7305 C 41.3086 -49.8047 41.4551 -50.7324 41.8945 -51.9531 C 43.5059 -56.7383 49.3164 -61.6699 57.5684 -61.6699 C 67.4805 -61.6699 74.0234 -56.1523 74.0234 -47.9492 C 74.0234 -42.627 70.3613 -37.6465 65.5762 -36.8652 L 65.5762 -36.377 C 71.3379 -35.8887 75.3418 -30.6152 75.3418 -24.2188 C 75.3418 -14.9902 68.2129 -8.88672 57.373 -8.88672 Z M 106.982 -8.93555 C 103.906 -8.93555 101.953 -11.084 101.953 -14.1113 L 101.953 -19.2871 L 87.7441 -19.2871 C 83.252 -19.2871 80.7129 -21.8262 80.7129 -26.1719 C 80.7129 -28.7109 81.3965 -30.957 82.3242 -33.3496 C 85.0098 -39.1602 89.5508 -48.2422 93.3105 -55.127 C 95.7031 -59.6191 98.6816 -61.6699 103.613 -61.6699 C 109.131 -61.6699 112.061 -58.3496 112.061 -53.0762 L 112.061 -28.9062 L 113.965 -28.9062 C 116.895 -28.9062 118.555 -27.002 118.555 -24.0723 C 118.555 -21.0938 116.895 -19.3359 113.965 -19.3359 L 112.061 -19.3359 L 112.061 -14.1113 C 112.061 -11.0352 110.156 -8.93555 106.982 -8.93555 Z M 101.953 -28.8574 L 101.953 -50.8301 L 101.709 -50.8301 C 98.3887 -44.2871 93.9941 -34.5703 91.5527 -29.1016 L 91.5527 -28.8574 Z"/>
  </g>
  <g id="Bold-L" transform="matrix(1 0 0 1 2262.88 1556)">
   <path d="M 77.0996 30.6152 C 113.232 30.6152 142.92 0.878906 142.92 -35.2051 C 142.92 -71.3379 113.184 -101.025 77.0508 -101.025 C 40.9668 -101.025 11.2793 -71.3379 11.2793 -35.2051 C 11.2793 0.878906 41.0156 30.6152 77.0996 30.6152 Z M 55.6641 -8.25195 C 47.3145 -8.25195 40.5273 -13.3301 38.8672 -18.8965 C 38.5742 -19.8242 38.4277 -20.6055 38.4277 -21.582 C 38.4277 -24.3164 40.4785 -26.0254 42.7734 -26.0254 C 44.7266 -26.0254 46.0449 -25.0488 46.9727 -23.0957 C 48.6328 -19.3359 51.7578 -17.2852 55.8105 -17.2852 C 60.6445 -17.2852 63.9648 -20.3613 63.9648 -24.3652 C 63.9648 -28.5645 60.8887 -31.3477 55.957 -31.3477 L 53.3203 -31.3477 C 50.4395 -31.3477 48.9258 -33.252 48.9258 -35.8887 C 48.9258 -38.623 50.5859 -40.4297 53.3203 -40.4297 L 55.7617 -40.4297 C 60.0098 -40.4297 62.7441 -43.3594 62.7441 -47.1191 C 62.7441 -50.9277 59.8633 -53.4668 55.7129 -53.4668 C 51.709 -53.4668 49.1211 -51.416 47.7051 -47.6562 C 46.8262 -45.7031 45.6055 -44.6777 43.5059 -44.6777 C 41.0156 -44.6777 39.3555 -46.3867 39.3555 -49.1211 C 39.3555 -50.0977 39.4531 -50.9277 39.7949 -52.0508 C 41.4062 -57.4219 47.5098 -62.3047 55.9082 -62.3047 C 65.7715 -62.3047 72.4121 -56.6895 72.4121 -48.4375 C 72.4121 -42.8223 68.5547 -37.6465 63.4766 -36.8164 L 63.4766 -36.377 C 69.5801 -35.791 73.9258 -30.4199 73.9258 -23.8281 C 73.9258 -14.5508 66.6016 -8.25195 55.6641 -8.25195 Z M 106.934 -8.30078 C 104.102 -8.30078 102.441 -10.3027 102.441 -13.0371 L 102.441 -19.4336 L 86.1816 -19.4336 C 82.1777 -19.4336 79.7852 -21.7285 79.7852 -25.6836 C 79.7852 -27.832 80.3711 -29.7852 81.2988 -31.9336 C 84.6191 -38.4277 90.332 -48.877 94.7266 -56.4941 C 96.9238 -60.5469 99.6094 -62.3047 103.955 -62.3047 C 108.74 -62.3047 111.475 -59.4238 111.475 -54.7852 L 111.475 -27.9785 L 114.258 -27.9785 C 116.846 -27.9785 118.408 -26.3184 118.408 -23.6816 C 118.408 -21.0449 116.846 -19.4824 114.258 -19.4824 L 111.475 -19.4824 L 111.475 -13.0371 C 111.475 -10.2539 109.814 -8.30078 106.934 -8.30078 Z M 102.441 -27.9297 L 102.441 -52.4902 L 102.148 -52.4902 C 98.291 -45.3613 92.4805 -34.2285 89.5508 -28.1738 L 89.5508 -27.9297 Z"/>
  </g>
  <g id="Semibold-L" transform="matrix(1 0 0 1 1966.97 1556)">
   <path d="M 76.2695 29.7852 C 111.914 29.7852 141.309 0.439453 141.309 -35.2051 C 141.309 -70.8496 111.865 -100.244 76.2695 -100.244 C 40.625 -100.244 11.2793 -70.8496 11.2793 -35.2051 C 11.2793 0.439453 40.6738 29.7852 76.2695 29.7852 Z M 54.4922 -7.76367 C 45.9473 -7.76367 39.1113 -12.9883 37.4023 -18.7012 C 37.1582 -19.5801 37.0117 -20.3125 37.0117 -21.2891 C 37.0117 -23.7305 38.8184 -25.3418 41.0156 -25.3418 C 42.8711 -25.3418 44.0918 -24.4141 44.9219 -22.4609 C 46.582 -18.3105 50.0488 -15.9668 54.5898 -15.9668 C 60.1562 -15.9668 63.9648 -19.4336 63.9648 -23.9746 C 63.9648 -28.7109 60.4004 -31.8848 54.8828 -31.8848 L 51.6602 -31.8848 C 49.1211 -31.8848 47.6562 -33.5938 47.6562 -35.9863 C 47.6562 -38.4766 49.2188 -40.1367 51.6602 -40.1367 L 54.6387 -40.1367 C 59.375 -40.1367 62.5488 -43.3594 62.5488 -47.6074 C 62.5488 -51.8555 59.2773 -54.6875 54.5898 -54.6875 C 50.0488 -54.6875 47.1191 -52.3926 45.7031 -48.2422 C 44.9707 -46.2891 43.8477 -45.3125 41.8457 -45.3125 C 39.5508 -45.3125 37.9883 -46.9238 37.9883 -49.4141 C 37.9883 -50.3418 38.0371 -51.0742 38.3301 -52.0996 C 39.9902 -57.8613 46.2891 -62.7441 54.7363 -62.7441 C 64.5996 -62.7441 71.3379 -57.0312 71.3379 -48.7793 C 71.3379 -42.9688 67.2852 -37.6465 62.0117 -36.7676 L 62.0117 -36.377 C 68.3594 -35.7422 72.9492 -30.2734 72.9492 -23.5352 C 72.9492 -14.2578 65.4297 -7.76367 54.4922 -7.76367 Z M 106.885 -7.91016 C 104.297 -7.91016 102.783 -9.7168 102.783 -12.3047 L 102.783 -19.5312 L 85.0586 -19.5312 C 81.4453 -19.5312 79.1992 -21.6309 79.1992 -25.293 C 79.1992 -27.2461 79.6387 -28.9551 80.6152 -30.957 C 84.375 -37.9395 90.8691 -49.3164 95.6543 -57.4707 C 97.8027 -61.1816 100.244 -62.7441 104.199 -62.7441 C 108.496 -62.7441 111.084 -60.1074 111.084 -56.0059 L 111.084 -27.3438 L 114.453 -27.3438 C 116.797 -27.3438 118.262 -25.8301 118.262 -23.3887 C 118.262 -20.9961 116.846 -19.5312 114.453 -19.5312 L 111.084 -19.5312 L 111.084 -12.3047 C 111.084 -9.7168 109.57 -7.91016 106.885 -7.91016 Z M 102.783 -27.2949 L 102.783 -53.6621 L 102.49 -53.6621 C 98.1934 -46.0938 91.4062 -34.0332 88.1836 -27.5391 L 88.1836 -27.2949 Z"/>
  </g>
  <g id="Medium-L" transform="matrix(1 0 0 1 1670.87 1556)">
   <path d="M 75.6836 29.1992 C 110.938 29.1992 140.088 0.0488281 140.088 -35.2051 C 140.088 -70.459 110.889 -99.6094 75.6348 -99.6094 C 40.3809 -99.6094 11.2793 -70.459 11.2793 -35.2051 C 11.2793 0.0488281 40.3809 29.1992 75.6836 29.1992 Z M 53.6133 -7.4707 C 44.873 -7.4707 38.0371 -12.6953 36.2793 -18.5547 C 36.0352 -19.4336 35.9375 -20.0684 35.9375 -20.9961 C 35.9375 -23.291 37.5488 -24.8047 39.6484 -24.8047 C 41.4551 -24.8047 42.5781 -23.877 43.3105 -21.9727 C 45.0195 -17.5293 48.7305 -14.9902 53.6621 -14.9902 C 59.7656 -14.9902 63.9648 -18.75 63.9648 -23.7305 C 63.9648 -28.8086 60.0586 -32.2754 54.0527 -32.2754 L 50.3418 -32.2754 C 48.0957 -32.2754 46.7285 -33.8867 46.7285 -36.0352 C 46.7285 -38.3789 48.1445 -39.8926 50.3418 -39.8926 L 53.7598 -39.8926 C 58.8867 -39.8926 62.4512 -43.3594 62.4512 -47.998 C 62.4512 -52.5391 58.8867 -55.6152 53.7109 -55.6152 C 48.7793 -55.6152 45.6055 -53.125 44.2383 -48.6328 C 43.5059 -46.6797 42.4805 -45.752 40.625 -45.752 C 38.3789 -45.752 36.9629 -47.3145 36.9629 -49.6094 C 36.9629 -50.4883 37.0117 -51.2207 37.2559 -52.1484 C 38.916 -58.2031 45.3613 -63.0859 53.9062 -63.0859 C 63.6719 -63.0859 70.5078 -57.3242 70.5078 -49.0234 C 70.5078 -43.0664 66.3086 -37.6465 60.9375 -36.7676 L 60.9375 -36.377 C 67.4316 -35.7422 72.168 -30.1758 72.168 -23.3398 C 72.168 -14.0137 64.5996 -7.4707 53.6133 -7.4707 Z M 106.836 -7.56836 C 104.395 -7.56836 103.027 -9.32617 103.027 -11.7676 L 103.027 -19.5801 L 84.2773 -19.5801 C 80.8594 -19.5801 78.7109 -21.582 78.7109 -25.0488 C 78.7109 -26.8066 79.1016 -28.3203 80.0781 -30.2246 C 84.1797 -37.5977 91.3086 -49.707 96.3867 -58.1543 C 98.4375 -61.6699 100.684 -63.0859 104.395 -63.0859 C 108.301 -63.0859 110.791 -60.6934 110.791 -56.8848 L 110.791 -26.8555 L 114.6 -26.8555 C 116.797 -26.8555 118.164 -25.4395 118.164 -23.1934 C 118.164 -20.9473 116.846 -19.6289 114.6 -19.6289 L 110.791 -19.6289 L 110.791 -11.7676 C 110.791 -9.27734 109.424 -7.56836 106.836 -7.56836 Z M 103.027 -26.8066 L 103.027 -54.541 L 102.734 -54.541 C 98.0957 -46.6309 90.5762 -33.8379 87.1094 -27.0996 L 87.1094 -26.8066 Z"/>
  </g>
  <g id="Regular-L" transform="matrix(1 0 0 1 1374.97 1556)">
   <path d="M 74.8535 28.3691 C 109.668 28.3691 138.477 -0.390625 138.477 -35.2051 C 138.477 -70.0195 109.619 -98.7793 74.8047 -98.7793 C 40.0391 -98.7793 11.2793 -70.0195 11.2793 -35.2051 C 11.2793 -0.390625 40.0879 28.3691 74.8535 28.3691 Z M 52.4414 -6.98242 C 43.5059 -6.98242 36.6211 -12.3535 34.8145 -18.4082 C 34.6191 -19.1895 34.5215 -19.7754 34.5215 -20.6543 C 34.5215 -22.7051 35.8887 -24.1699 37.8906 -24.1699 C 39.5508 -24.1699 40.5762 -23.2422 41.2598 -21.3379 C 43.0176 -16.5039 47.0215 -13.6719 52.4902 -13.6719 C 59.2773 -13.6719 63.9648 -17.8223 63.9648 -23.3887 C 63.9648 -28.9551 59.5703 -32.8125 52.9785 -32.8125 L 48.6816 -32.8125 C 46.7773 -32.8125 45.5078 -34.2285 45.5078 -36.1328 C 45.5078 -38.2324 46.7773 -39.5508 48.6816 -39.5508 L 52.6367 -39.5508 C 58.252 -39.5508 62.2559 -43.3594 62.2559 -48.4863 C 62.2559 -53.4668 58.3008 -56.8359 52.5879 -56.8359 C 47.1191 -56.8359 43.6035 -54.0527 42.2852 -49.2188 C 41.6504 -47.2168 40.7227 -46.3379 38.9648 -46.3379 C 36.9141 -46.3379 35.5957 -47.8027 35.5957 -49.9023 C 35.5957 -50.7324 35.6445 -51.3672 35.8398 -52.1973 C 37.5 -58.6914 44.1406 -63.5254 52.7344 -63.5254 C 62.5 -63.5254 69.3848 -57.666 69.3848 -49.3652 C 69.3848 -43.2129 65.0879 -37.5977 59.5215 -36.7188 L 59.5215 -36.377 C 66.2598 -35.6934 71.1914 -30.0293 71.1914 -23.0957 C 71.1914 -13.6719 63.4766 -6.98242 52.4414 -6.98242 Z M 106.836 -7.17773 C 104.59 -7.17773 103.369 -8.78906 103.369 -11.0352 L 103.369 -19.6777 L 83.2031 -19.6777 C 80.127 -19.6777 78.0762 -21.4844 78.0762 -24.6582 C 78.0762 -26.2207 78.418 -27.4902 79.3457 -29.248 C 83.9355 -37.1094 91.8457 -50.1465 97.3633 -59.1309 C 99.2676 -62.3047 101.318 -63.5254 104.639 -63.5254 C 108.008 -63.5254 110.4 -61.377 110.4 -58.1055 L 110.4 -26.1719 L 114.795 -26.1719 C 116.797 -26.1719 118.066 -24.9512 118.066 -22.9004 C 118.066 -20.8496 116.797 -19.6777 114.795 -19.6777 L 110.4 -19.6777 L 110.4 -11.0352 C 110.4 -8.74023 109.18 -7.17773 106.836 -7.17773 Z M 103.369 -26.1719 L 103.369 -55.7129 L 103.027 -55.7129 C 98.0469 -47.3633 89.5508 -33.6426 85.7422 -26.4648 L 85.7422 -26.1719 Z"/>
  </g>
  <g id="Light-L" transform="matrix(1 0 0 1 1079.18 1556)">
   <path d="M 73.9258 27.4902 C 108.301 27.4902 136.621 -0.830078 136.621 -35.1562 C 136.621 -69.5312 108.252 -97.8516 73.9258 -97.8516 C 39.5508 -97.8516 11.2793 -69.5312 11.2793 -35.1562 C 11.2793 -0.830078 39.5996 27.4902 73.9258 27.4902 Z M 52.002 -7.32422 C 43.3105 -7.32422 36.5234 -12.5 34.668 -18.457 C 34.4727 -19.1406 34.375 -19.7266 34.375 -20.5078 C 34.375 -22.168 35.4492 -23.3887 37.1582 -23.3887 C 38.5742 -23.3887 39.4043 -22.6074 39.9414 -20.9961 C 41.6992 -15.8691 46.2891 -12.793 52.002 -12.793 C 59.4727 -12.793 64.502 -17.1875 64.502 -23.291 C 64.502 -29.1992 59.6191 -33.4473 52.5879 -33.4473 L 47.7539 -33.4473 C 46.1426 -33.4473 45.166 -34.6191 45.166 -36.1816 C 45.166 -37.8906 46.1914 -38.9648 47.7539 -38.9648 L 52.1973 -38.9648 C 58.3008 -38.9648 62.7441 -43.1152 62.7441 -48.6816 C 62.7441 -54.1016 58.3984 -57.7637 52.0508 -57.7637 C 46.1426 -57.7637 42.1387 -54.5898 41.0156 -49.5605 C 40.4785 -47.8516 39.6973 -47.1191 38.2812 -47.1191 C 36.4746 -47.1191 35.4492 -48.3398 35.4492 -50.0977 C 35.4492 -50.7812 35.498 -51.416 35.6934 -52.1484 C 37.2559 -58.6914 43.9453 -63.2324 52.1484 -63.2324 C 61.7188 -63.2324 68.5547 -57.4707 68.5547 -49.3164 C 68.5547 -43.2129 64.1602 -37.5977 58.4473 -36.6211 L 58.4473 -36.377 C 65.2832 -35.6445 70.3613 -29.9805 70.3613 -23.0957 C 70.3613 -13.916 62.7441 -7.32422 52.002 -7.32422 Z M 106.25 -7.56836 C 104.492 -7.56836 103.467 -8.83789 103.467 -10.5957 L 103.467 -20.459 L 82.0312 -20.459 C 79.4434 -20.459 77.7344 -21.9238 77.7344 -24.5605 C 77.7344 -25.7324 78.0273 -26.8555 78.7598 -28.1738 C 83.5449 -35.8887 93.1641 -51.123 98.584 -59.668 C 100.195 -62.2559 101.855 -63.2324 104.492 -63.2324 C 107.227 -63.2324 109.131 -61.5234 109.131 -58.8379 L 109.131 -25.7812 L 114.648 -25.7812 C 116.26 -25.7812 117.285 -24.7559 117.285 -23.0957 C 117.285 -21.4355 116.309 -20.459 114.648 -20.459 L 109.131 -20.459 L 109.131 -10.5957 C 109.131 -8.78906 108.154 -7.56836 106.25 -7.56836 Z M 103.467 -25.7812 L 103.467 -56.8359 L 103.174 -56.8359 C 98.4863 -49.4141 87.7441 -32.7148 83.9844 -25.9766 L 83.9844 -25.7812 Z"/>
  </g>
  <g id="Thin-L" transform="matrix(1 0 0 1 783.693 1556)">
   <path d="M 72.7051 26.3184 C 106.494 26.3184 134.18 -1.36719 134.18 -35.1074 C 134.18 -68.8965 106.494 -96.582 72.7051 -96.582 C 38.9648 -96.582 11.2793 -68.8965 11.2793 -35.1074 C 11.2793 -1.36719 38.9648 26.3184 72.7051 26.3184 Z M 51.416 -7.71484 C 42.9688 -7.71484 36.4258 -12.6953 34.4727 -18.5059 C 34.3262 -19.043 34.1797 -19.6289 34.1797 -20.3125 C 34.1797 -21.4844 34.9121 -22.3633 36.1328 -22.3633 C 37.207 -22.3633 37.8418 -21.7285 38.1836 -20.5078 C 39.9902 -14.9902 45.3125 -11.5723 51.416 -11.5723 C 59.7168 -11.5723 65.2344 -16.3574 65.2344 -23.1445 C 65.2344 -29.4922 59.668 -34.3262 52.0996 -34.3262 L 46.582 -34.3262 C 45.3613 -34.3262 44.6777 -35.0586 44.6777 -36.2305 C 44.6777 -37.4023 45.4102 -38.1348 46.582 -38.1348 L 51.6602 -38.1348 C 58.3984 -38.1348 63.3789 -42.8223 63.3789 -48.877 C 63.3789 -54.9316 58.5449 -58.9844 51.3672 -58.9844 C 44.8242 -58.9844 40.2344 -55.3223 39.3066 -50 C 38.9648 -48.6328 38.3301 -48.0957 37.3535 -48.0957 C 35.8887 -48.0957 35.2051 -49.0234 35.2051 -50.3418 C 35.2051 -50.8301 35.3027 -51.5137 35.5469 -52.0996 C 37.0117 -58.6914 43.75 -62.793 51.3672 -62.793 C 60.6934 -62.793 67.4805 -57.2266 67.4805 -49.2676 C 67.4805 -43.2129 62.9883 -37.5488 57.0312 -36.5234 L 57.0312 -36.377 C 63.9648 -35.5957 69.2871 -29.8828 69.2871 -23.0957 C 69.2871 -14.209 61.8164 -7.71484 51.416 -7.71484 Z M 105.469 -8.10547 C 104.346 -8.10547 103.564 -8.88672 103.564 -10.0586 L 103.564 -21.4844 L 80.5176 -21.4844 C 78.5645 -21.4844 77.2461 -22.5098 77.2461 -24.3652 C 77.2461 -25.1465 77.5391 -26.0254 77.9785 -26.709 C 83.0078 -34.3262 94.873 -52.4414 100.195 -60.4004 C 101.416 -62.207 102.539 -62.793 104.297 -62.793 C 106.152 -62.793 107.422 -61.6699 107.422 -59.8633 L 107.422 -25.1953 L 114.453 -25.1953 C 115.527 -25.1953 116.26 -24.4141 116.26 -23.291 C 116.26 -22.2168 115.625 -21.4844 114.453 -21.4844 L 107.422 -21.4844 L 107.422 -10.0586 C 107.422 -8.88672 106.787 -8.10547 105.469 -8.10547 Z M 103.564 -25.1953 L 103.564 -58.3496 L 103.369 -58.3496 C 99.1211 -52.0996 85.3516 -31.543 81.6895 -25.3906 L 81.6895 -25.1953 Z"/>
  </g>
  <g id="Ultralight-L" transform="matrix(1 0 0 1 487.616 1556)">
   <path d="M 72.1191 25.7324 C 105.566 25.7324 132.91 -1.61133 132.91 -35.1074 C 132.91 -68.5547 105.566 -95.8984 72.1191 -95.8984 C 38.623 -95.8984 11.2793 -68.5547 11.2793 -35.1074 C 11.2793 -1.61133 38.623 25.7324 72.1191 25.7324 Z M 51.123 -7.95898 C 42.8223 -7.95898 36.3281 -12.793 34.375 -18.5547 C 34.2285 -18.9941 34.082 -19.5801 34.082 -20.166 C 34.082 -21.0938 34.6191 -21.8262 35.6445 -21.8262 C 36.5234 -21.8262 37.0117 -21.2891 37.3047 -20.2637 C 39.0625 -14.5508 44.8242 -10.9375 51.0742 -10.9375 C 59.8145 -10.9375 65.5762 -15.918 65.5762 -23.0957 C 65.5762 -29.6387 59.7168 -34.7656 51.8555 -34.7656 L 45.9473 -34.7656 C 44.9219 -34.7656 44.4824 -35.3027 44.4824 -36.2305 C 44.4824 -37.1582 45.0195 -37.7441 45.9473 -37.7441 L 51.3672 -37.7441 C 58.4473 -37.7441 63.7207 -42.6758 63.7207 -48.9746 C 63.7207 -55.3223 58.5938 -59.6191 50.9766 -59.6191 C 44.1895 -59.6191 39.2578 -55.7129 38.4277 -50.2441 C 38.1836 -49.0723 37.6465 -48.6328 36.8652 -48.6328 C 35.5957 -48.6328 35.1074 -49.3652 35.1074 -50.4395 C 35.1074 -50.8789 35.2051 -51.5137 35.4492 -52.0508 C 36.8652 -58.6914 43.6523 -62.5977 50.9766 -62.5977 C 60.1562 -62.5977 66.8945 -57.0801 66.8945 -49.2676 C 66.8945 -43.2129 62.3535 -37.5 56.2988 -36.4258 L 56.2988 -36.377 C 63.3301 -35.5957 68.75 -29.8828 68.75 -23.1445 C 68.75 -14.3555 61.3281 -7.95898 51.123 -7.95898 Z M 105.127 -8.39844 C 104.297 -8.39844 103.613 -8.88672 103.613 -9.81445 L 103.613 -22.0215 L 79.7363 -22.0215 C 78.125 -22.0215 77.0508 -22.8027 77.0508 -24.2676 C 77.0508 -24.8047 77.2461 -25.5859 77.5879 -25.9766 C 82.7148 -33.4961 95.752 -53.125 101.025 -60.791 C 102.051 -62.207 102.881 -62.5977 104.199 -62.5977 C 105.566 -62.5977 106.543 -61.7676 106.543 -60.3516 L 106.543 -24.9023 L 114.307 -24.9023 C 115.186 -24.9023 115.723 -24.2676 115.723 -23.4375 C 115.723 -22.6074 115.234 -22.0215 114.307 -22.0215 L 106.543 -22.0215 L 106.543 -9.81445 C 106.543 -8.88672 106.055 -8.39844 105.127 -8.39844 Z M 103.613 -24.9023 L 103.613 -59.1309 L 103.467 -59.1309 C 99.4141 -53.4668 84.1309 -30.957 80.5176 -25.0488 L 80.5176 -24.9023 Z"/>
  </g>
  <g id="Black-M" transform="matrix(1 0 0 1 2870.97 1126)">
   <path d="M 62.4023 18.457 C 91.9922 18.457 116.113 -5.61523 116.113 -35.2051 C 116.113 -64.7949 91.9922 -88.8672 62.4023 -88.8672 C 32.8125 -88.8672 8.74023 -64.7949 8.74023 -35.2051 C 8.74023 -5.61523 32.8125 18.457 62.4023 18.457 Z M 47.4609 -16.2109 C 41.8945 -16.2109 36.8652 -19.6777 35.7422 -23.3398 C 35.4492 -24.2188 35.2539 -25 35.2539 -25.8789 C 35.2539 -28.7598 37.5488 -30.2734 39.5508 -30.2734 C 41.4551 -30.2734 42.8223 -29.541 43.7988 -28.1738 C 44.9219 -26.6113 46.4355 -25.9277 47.6562 -25.9277 C 49.0234 -25.9277 49.9023 -27.002 49.9023 -28.125 C 49.9023 -29.5898 49.0234 -30.4688 47.4121 -30.4688 C 43.9453 -30.4688 42.4805 -32.4707 42.4805 -35.3516 C 42.4805 -38.1836 44.2383 -40.1855 47.4121 -40.1855 C 49.0234 -40.1855 49.5605 -41.5039 49.5605 -42.5293 C 49.5605 -44.1406 48.584 -45.1172 47.3145 -45.1172 C 45.9961 -45.1172 45.0684 -44.3848 43.9453 -42.8711 C 42.9688 -41.5527 41.6504 -40.625 39.7461 -40.625 C 37.3535 -40.625 35.6445 -42.1875 35.6445 -45.0195 C 35.6445 -45.9473 35.8398 -46.8262 36.377 -48.0469 C 37.5488 -50.6348 41.5039 -54.2969 47.4609 -54.2969 C 55.1758 -54.2969 59.9609 -50.3418 59.9609 -44.1406 C 59.9609 -40.5273 57.4707 -37.1094 54.1992 -36.5723 L 54.1992 -36.1328 C 58.1055 -35.8398 60.6934 -32.0312 60.6934 -27.4414 C 60.6934 -20.5566 55.6152 -16.2109 47.4609 -16.2109 Z M 82.7148 -16.2109 C 80.0293 -16.2109 78.125 -18.0176 78.125 -20.6543 L 78.125 -22.998 L 70.3613 -22.998 C 66.2109 -22.998 64.1113 -25.2441 64.1113 -29.1504 C 64.1113 -31.5918 64.7949 -33.8379 65.4297 -35.8398 C 66.3574 -38.9648 68.5547 -44.5801 70.3125 -48.291 C 72.3145 -52.3926 75 -54.2969 79.541 -54.2969 C 84.8633 -54.2969 87.2559 -51.2207 87.2559 -46.1426 L 87.2559 -31.8848 L 87.7441 -31.8848 C 90.3809 -31.8848 91.7969 -30.0781 91.7969 -27.3926 C 91.7969 -24.7559 90.3809 -23.1445 87.7441 -23.1445 L 87.2559 -23.1445 L 87.2559 -20.6543 C 87.2559 -18.0176 85.4492 -16.2109 82.7148 -16.2109 Z M 78.125 -31.7871 L 78.125 -44.7266 L 78.0273 -44.7266 C 76.7578 -41.3086 74.8047 -34.8633 73.877 -31.9824 L 73.877 -31.7871 Z"/>
  </g>
  <g id="Heavy-M" transform="matrix(1 0 0 1 2575.19 1126)">
   <path d="M 61.5234 17.5781 C 90.5273 17.5781 114.258 -6.15234 114.258 -35.2051 C 114.258 -64.2578 90.5273 -87.9883 61.4746 -87.9883 C 32.4707 -87.9883 8.74023 -64.2578 8.74023 -35.2051 C 8.74023 -6.15234 32.4707 17.5781 61.5234 17.5781 Z M 45.8984 -15.4785 C 39.9902 -15.4785 34.8633 -19.1406 33.6914 -23.0469 C 33.3984 -23.877 33.252 -24.6094 33.252 -25.4395 C 33.252 -28.0762 35.3027 -29.541 37.2559 -29.541 C 39.0137 -29.541 40.2832 -28.7598 41.2109 -27.3438 C 42.3828 -25.293 44.1406 -24.3164 46.0938 -24.3164 C 48.291 -24.3164 49.7559 -25.8301 49.7559 -27.6367 C 49.7559 -29.7363 48.3398 -31.0547 45.9473 -31.0547 L 45.2148 -31.0547 C 42.1875 -31.0547 40.8203 -32.9102 40.8203 -35.498 C 40.8203 -38.0859 42.4316 -39.8926 45.2148 -39.8926 L 45.8984 -39.8926 C 48.0957 -39.8926 49.1699 -41.5039 49.1699 -43.2129 C 49.1699 -45.2637 47.7539 -46.582 45.8496 -46.582 C 43.8965 -46.582 42.5781 -45.6055 41.4551 -43.5547 C 40.625 -42.1875 39.4043 -41.3086 37.5977 -41.3086 C 35.3516 -41.3086 33.7891 -42.7734 33.7891 -45.3613 C 33.7891 -46.2402 33.9355 -47.0215 34.375 -48.0957 C 35.5469 -51.3184 39.7949 -55.0293 45.9961 -55.0293 C 53.7109 -55.0293 58.6426 -50.9277 58.6426 -44.6289 C 58.6426 -40.7715 55.957 -37.1094 52.4414 -36.5234 L 52.4414 -36.1328 C 56.6406 -35.791 59.5215 -31.8359 59.5215 -27.0508 C 59.5215 -20.0195 54.1992 -15.4785 45.8984 -15.4785 Z M 82.8125 -15.5273 C 80.2734 -15.5273 78.5645 -17.2363 78.5645 -19.7266 L 78.5645 -22.9492 L 69.1406 -22.9492 C 65.332 -22.9492 63.2812 -25.0488 63.2812 -28.6621 C 63.2812 -30.8594 63.916 -32.8613 64.5508 -34.7656 C 66.1133 -38.5742 68.9941 -44.9707 71.3379 -49.5117 C 73.2422 -53.2715 75.7324 -55.0293 79.9316 -55.0293 C 84.668 -55.0293 87.0117 -52.2461 87.0117 -47.6562 L 87.0117 -31.1035 L 88.0371 -31.1035 C 90.4785 -31.1035 91.8457 -29.4434 91.8457 -26.9531 C 91.8457 -24.5117 90.4785 -23.0469 88.0371 -23.0469 L 87.0117 -23.0469 L 87.0117 -19.7266 C 87.0117 -17.2363 85.4004 -15.5273 82.8125 -15.5273 Z M 78.5645 -31.0059 L 78.5645 -46.0938 L 78.418 -46.0938 C 76.5137 -41.7969 73.7793 -34.7656 72.3633 -31.2012 L 72.3633 -31.0059 Z"/>
  </g>
  <g id="Bold-M" transform="matrix(1 0 0 1 2279.5 1126)">
   <path d="M 60.498 16.5039 C 88.8672 16.5039 112.207 -6.78711 112.207 -35.2051 C 112.207 -63.623 88.8672 -86.9629 60.4492 -86.9629 C 32.0312 -86.9629 8.74023 -63.623 8.74023 -35.2051 C 8.74023 -6.78711 32.0801 16.5039 60.498 16.5039 Z M 44.1895 -14.6973 C 37.8906 -14.6973 32.666 -18.5547 31.3965 -22.7539 C 31.1523 -23.4863 31.0547 -24.1699 31.0547 -24.9512 C 31.0547 -27.2949 32.8125 -28.6621 34.668 -28.6621 C 36.3281 -28.6621 37.4512 -27.9297 38.2812 -26.416 C 39.502 -23.8281 41.6504 -22.5098 44.2871 -22.5098 C 47.4121 -22.5098 49.5605 -24.5605 49.5605 -27.0996 C 49.5605 -29.9316 47.6074 -31.7383 44.3359 -31.7383 L 42.8223 -31.7383 C 40.2832 -31.7383 38.9648 -33.3984 38.9648 -35.6445 C 38.9648 -37.9883 40.4297 -39.5508 42.8223 -39.5508 L 44.1895 -39.5508 C 47.0703 -39.5508 48.7793 -41.5527 48.7793 -43.9941 C 48.7793 -46.582 46.875 -48.291 44.1895 -48.291 C 41.5527 -48.291 39.8438 -46.9238 38.7207 -44.3848 C 37.9883 -42.8711 36.9141 -42.041 35.1562 -42.041 C 33.1055 -42.041 31.6895 -43.457 31.6895 -45.752 C 31.6895 -46.582 31.7871 -47.2656 32.0801 -48.1934 C 33.3496 -52.002 37.8906 -55.8105 44.3359 -55.8105 C 52.0508 -55.8105 57.1289 -51.5625 57.1289 -45.166 C 57.1289 -40.9668 54.248 -37.1094 50.4883 -36.5234 L 50.4883 -36.1328 C 54.9805 -35.6934 58.1543 -31.6406 58.1543 -26.6113 C 58.1543 -19.4824 52.5879 -14.6973 44.1895 -14.6973 Z M 82.9102 -14.7461 C 80.5664 -14.7461 79.1016 -16.3574 79.1016 -18.6523 L 79.1016 -22.8516 L 67.7246 -22.8516 C 64.3555 -22.8516 62.4023 -24.8047 62.4023 -28.125 C 62.4023 -30.0293 62.8906 -31.7383 63.623 -33.5449 C 65.8203 -38.1836 69.4824 -45.4102 72.5098 -50.8789 C 74.3652 -54.2969 76.6113 -55.8105 80.3711 -55.8105 C 84.5215 -55.8105 86.7676 -53.3203 86.7676 -49.3164 L 86.7676 -30.1758 L 88.3789 -30.1758 C 90.5762 -30.1758 91.8457 -28.7598 91.8457 -26.5137 C 91.8457 -24.2676 90.5762 -22.9492 88.3789 -22.9492 L 86.7676 -22.9492 L 86.7676 -18.6523 C 86.7676 -16.3574 85.3027 -14.7461 82.9102 -14.7461 Z M 79.1016 -30.127 L 79.1016 -47.6074 L 78.9062 -47.6074 C 76.2207 -42.3828 72.6074 -34.668 70.6543 -30.3223 L 70.6543 -30.127 Z"/>
  </g>
  <g id="Semibold-M" transform="matrix(1 0 0 1 1983.5 1126)">
   <path d="M 59.7656 15.8203 C 87.7441 15.8203 110.791 -7.22656 110.791 -35.2051 C 110.791 -63.1836 87.6953 -86.2793 59.7656 -86.2793 C 31.7871 -86.2793 8.74023 -63.1836 8.74023 -35.2051 C 8.74023 -7.22656 31.7871 15.8203 59.7656 15.8203 Z M 42.9688 -14.1602 C 36.4258 -14.1602 31.1035 -18.1152 29.834 -22.5098 C 29.6387 -23.2422 29.4922 -23.8281 29.4922 -24.6094 C 29.4922 -26.7578 31.1035 -28.125 32.9102 -28.125 C 34.4727 -28.125 35.498 -27.3438 36.2305 -25.7812 C 37.5488 -22.8516 39.8926 -21.2402 43.0664 -21.2402 C 46.8262 -21.2402 49.4629 -23.6328 49.4629 -26.7578 C 49.4629 -30.0293 47.0703 -32.1777 43.2129 -32.1777 L 41.1621 -32.1777 C 38.916 -32.1777 37.6953 -33.6914 37.6953 -35.7422 C 37.6953 -37.8906 39.0137 -39.3555 41.1621 -39.3555 L 43.0664 -39.3555 C 46.3379 -39.3555 48.4863 -41.6016 48.4863 -44.4824 C 48.4863 -47.4609 46.2402 -49.4141 43.0664 -49.4141 C 39.8926 -49.4141 37.9395 -47.8516 36.8164 -44.9219 C 36.1328 -43.3594 35.2051 -42.5293 33.4961 -42.5293 C 31.543 -42.5293 30.2246 -43.8965 30.2246 -45.9961 C 30.2246 -46.8262 30.2734 -47.4121 30.5664 -48.291 C 31.8359 -52.5391 36.5723 -56.3965 43.2129 -56.3965 C 50.8789 -56.3965 56.0547 -52.002 56.0547 -45.5566 C 56.0547 -41.1621 53.0273 -37.1094 49.1211 -36.4746 L 49.1211 -36.1328 C 53.8574 -35.6934 57.2266 -31.4941 57.2266 -26.3184 C 57.2266 -19.0918 51.5137 -14.1602 42.9688 -14.1602 Z M 82.959 -14.209 C 80.7617 -14.209 79.4434 -15.7715 79.4434 -17.9688 L 79.4434 -22.8027 L 66.7969 -22.8027 C 63.6719 -22.8027 61.7676 -24.6582 61.7676 -27.7832 C 61.7676 -29.4922 62.207 -30.957 62.9883 -32.7148 C 65.625 -37.8906 69.8242 -45.7031 73.3398 -51.8066 C 75.0977 -55.0293 77.1973 -56.3965 80.6641 -56.3965 C 84.375 -56.3965 86.5723 -54.1016 86.5723 -50.4883 L 86.5723 -29.541 L 88.623 -29.541 C 90.6738 -29.541 91.8945 -28.2715 91.8945 -26.1719 C 91.8945 -24.0723 90.6738 -22.8516 88.623 -22.8516 L 86.5723 -22.8516 L 86.5723 -17.9688 C 86.5723 -15.7227 85.3027 -14.209 82.959 -14.209 Z M 79.4434 -29.541 L 79.4434 -48.6328 L 79.1992 -48.6328 C 76.0254 -42.7734 71.8262 -34.6191 69.4824 -29.7363 L 69.4824 -29.541 Z"/>
  </g>
  <g id="Medium-M" transform="matrix(1 0 0 1 1687.3 1126)">
   <path d="M 59.2285 15.2832 C 86.9141 15.2832 109.766 -7.56836 109.766 -35.2051 C 109.766 -62.8906 86.8652 -85.7422 59.1797 -85.7422 C 31.543 -85.7422 8.74023 -62.8906 8.74023 -35.2051 C 8.74023 -7.56836 31.5918 15.2832 59.2285 15.2832 Z M 42.0898 -13.7207 C 35.3027 -13.7207 29.9316 -17.8223 28.6621 -22.3633 C 28.418 -23.0469 28.3203 -23.6328 28.3203 -24.3652 C 28.3203 -26.3672 29.7852 -27.6855 31.543 -27.6855 C 33.0566 -27.6855 34.0332 -26.9043 34.7168 -25.293 C 36.0352 -22.0703 38.5742 -20.3125 42.1387 -20.3125 C 46.3867 -20.3125 49.3652 -22.998 49.3652 -26.4648 C 49.3652 -30.127 46.6797 -32.5195 42.334 -32.5195 L 39.8926 -32.5195 C 37.8906 -32.5195 36.7188 -33.9355 36.7188 -35.791 C 36.7188 -37.8418 37.9883 -39.1602 39.8926 -39.1602 L 42.1875 -39.1602 C 45.8008 -39.1602 48.2422 -41.6016 48.2422 -44.9219 C 48.2422 -48.0957 45.752 -50.293 42.1875 -50.293 C 38.6719 -50.293 36.4746 -48.584 35.3516 -45.3125 C 34.7656 -43.7012 33.8867 -42.9199 32.2266 -42.9199 C 30.3711 -42.9199 29.1016 -44.2383 29.1016 -46.2402 C 29.1016 -46.9727 29.1504 -47.5586 29.3945 -48.3398 C 30.6641 -52.8809 35.5957 -56.7871 42.334 -56.7871 C 50 -56.7871 55.2734 -52.2949 55.2734 -45.8496 C 55.2734 -41.2598 52.1484 -37.1094 48.0469 -36.4746 L 48.0469 -36.1328 C 53.0273 -35.6445 56.543 -31.3965 56.543 -26.0742 C 56.543 -18.7988 50.6836 -13.7207 42.0898 -13.7207 Z M 83.0566 -13.7695 C 80.9082 -13.7695 79.6875 -15.332 79.6875 -17.4316 L 79.6875 -22.8027 L 66.0645 -22.8027 C 63.1348 -22.8027 61.3281 -24.5117 61.3281 -27.4902 C 61.3281 -29.0527 61.6699 -30.3711 62.5 -32.0312 C 65.4785 -37.6465 70.1172 -45.8984 73.9746 -52.4902 C 75.6836 -55.5176 77.6367 -56.7871 80.9082 -56.7871 C 84.2773 -56.7871 86.4746 -54.6875 86.4746 -51.3672 L 86.4746 -29.1016 L 88.8184 -29.1016 C 90.7227 -29.1016 91.8945 -27.8809 91.8945 -25.9277 C 91.8945 -23.9746 90.7227 -22.8027 88.8184 -22.8027 L 86.4746 -22.8027 L 86.4746 -17.4316 C 86.4746 -15.2832 85.2539 -13.7695 83.0566 -13.7695 Z M 79.6875 -29.0527 L 79.6875 -49.4141 L 79.4434 -49.4141 C 75.8789 -43.0664 71.1914 -34.5703 68.6035 -29.2969 L 68.6035 -29.0527 Z"/>
  </g>
  <g id="Regular-M" transform="matrix(1 0 0 1 1391.3 1126)">
   <path d="M 58.5449 14.5508 C 85.791 14.5508 108.35 -8.00781 108.35 -35.2539 C 108.35 -62.4512 85.7422 -85.0586 58.4961 -85.0586 C 31.2988 -85.0586 8.74023 -62.4512 8.74023 -35.2539 C 8.74023 -8.00781 31.3477 14.5508 58.5449 14.5508 Z M 40.8691 -13.1836 C 33.8867 -13.1836 28.418 -17.4316 27.0996 -22.168 C 26.9043 -22.8027 26.8066 -23.291 26.8066 -24.0234 C 26.8066 -25.8301 28.0762 -27.0996 29.834 -27.0996 C 31.25 -27.0996 32.1289 -26.3184 32.7148 -24.6582 C 34.082 -21.0938 36.8652 -19.043 40.918 -19.043 C 45.8496 -19.043 49.2676 -22.0703 49.2676 -26.0742 C 49.2676 -30.2734 46.1426 -33.0078 41.2598 -33.0078 L 38.2324 -33.0078 C 36.5723 -33.0078 35.4492 -34.2773 35.4492 -35.8887 C 35.4492 -37.7441 36.6211 -38.916 38.2324 -38.916 L 41.0156 -38.916 C 45.1172 -38.916 47.998 -41.6504 47.998 -45.4102 C 47.998 -48.9746 45.166 -51.4648 41.0645 -51.4648 C 37.0605 -51.4648 34.6191 -49.5117 33.4961 -45.8496 C 32.959 -44.1895 32.1777 -43.4082 30.6152 -43.4082 C 28.8574 -43.4082 27.6855 -44.6777 27.6855 -46.4844 C 27.6855 -47.2168 27.6855 -47.7051 27.832 -48.3887 C 29.1504 -53.418 34.2773 -57.3242 41.2109 -57.3242 C 48.877 -57.3242 54.248 -52.7344 54.248 -46.1914 C 54.248 -41.4551 50.9766 -37.1094 46.7285 -36.4258 L 46.7285 -36.1328 C 51.9043 -35.5957 55.6152 -31.25 55.6152 -25.7812 C 55.6152 -18.4082 49.6094 -13.1836 40.8691 -13.1836 Z M 83.1055 -13.2324 C 81.1035 -13.2324 80.0293 -14.6973 80.0293 -16.6992 L 80.0293 -22.7539 L 65.1367 -22.7539 C 62.4512 -22.7539 60.6934 -24.3652 60.6934 -27.1484 C 60.6934 -28.5156 60.9863 -29.6387 61.8652 -31.2012 C 65.2832 -37.3535 70.459 -46.1914 74.7559 -53.418 C 76.416 -56.25 78.2227 -57.3242 81.2012 -57.3242 C 84.1797 -57.3242 86.2793 -55.4199 86.2793 -52.5391 L 86.2793 -28.4668 L 89.0137 -28.4668 C 90.8203 -28.4668 91.9434 -27.4414 91.9434 -25.5859 C 91.9434 -23.7793 90.8203 -22.7539 89.0137 -22.7539 L 86.2793 -22.7539 L 86.2793 -16.6992 C 86.2793 -14.6484 85.2051 -13.2324 83.1055 -13.2324 Z M 80.0293 -28.4668 L 80.0293 -50.4395 L 79.7852 -50.4395 C 75.6836 -43.457 70.4102 -34.4727 67.4316 -28.7109 L 67.4316 -28.4668 Z"/>
  </g>
  <g id="Light-M" transform="matrix(1 0 0 1 1095.42 1126)">
   <path d="M 57.7148 13.7695 C 84.5215 13.7695 106.689 -8.39844 106.689 -35.2051 C 106.689 -62.0117 84.5215 -84.1797 57.666 -84.1797 C 30.8594 -84.1797 8.74023 -62.0117 8.74023 -35.2051 C 8.74023 -8.39844 30.9082 13.7695 57.7148 13.7695 Z M 40.4785 -13.4766 C 33.6426 -13.4766 28.3691 -17.5293 26.9531 -22.2168 C 26.8066 -22.7539 26.709 -23.2422 26.709 -23.877 C 26.709 -25.3418 27.6855 -26.416 29.1504 -26.416 C 30.3223 -26.416 31.0547 -25.7324 31.543 -24.3652 C 32.9102 -20.5078 36.1816 -18.2129 40.5273 -18.2129 C 45.9961 -18.2129 49.7559 -21.5332 49.7559 -26.0254 C 49.7559 -30.4688 46.1914 -33.5938 40.918 -33.5938 L 37.4512 -33.5938 C 36.0352 -33.5938 35.1562 -34.5703 35.1562 -35.9375 C 35.1562 -37.4512 36.084 -38.3789 37.4512 -38.3789 L 40.625 -38.3789 C 45.166 -38.3789 48.3887 -41.4551 48.3887 -45.5566 C 48.3887 -49.5605 45.2148 -52.2949 40.5762 -52.2949 C 36.1816 -52.2949 33.3008 -50 32.3242 -46.1914 C 31.8848 -44.7266 31.25 -44.0918 29.9805 -44.0918 C 28.4668 -44.0918 27.5391 -45.1172 27.5391 -46.6797 C 27.5391 -47.2656 27.5879 -47.7539 27.7344 -48.3398 C 28.9551 -53.418 34.1309 -57.0801 40.6738 -57.0801 C 48.1934 -57.0801 53.5156 -52.5879 53.5156 -46.1914 C 53.5156 -41.4551 50.1465 -37.0605 45.752 -36.377 L 45.752 -36.1328 C 51.0254 -35.5957 54.8828 -31.2012 54.8828 -25.8301 C 54.8828 -18.6035 48.9258 -13.4766 40.4785 -13.4766 Z M 82.6172 -13.623 C 81.0059 -13.623 80.127 -14.7461 80.127 -16.3574 L 80.127 -23.4375 L 64.1113 -23.4375 C 61.8652 -23.4375 60.4004 -24.7559 60.4004 -27.002 C 60.4004 -28.0762 60.6445 -29.0527 61.3281 -30.2246 C 64.9414 -36.2793 71.6309 -47.1191 75.8789 -53.9062 C 77.2461 -56.2012 78.7109 -57.0801 81.0547 -57.0801 C 83.4473 -57.0801 85.1074 -55.5176 85.1074 -53.1738 L 85.1074 -28.0762 L 88.916 -28.0762 C 90.332 -28.0762 91.2598 -27.1973 91.2598 -25.7324 C 91.2598 -24.2676 90.332 -23.4375 88.916 -23.4375 L 85.1074 -23.4375 L 85.1074 -16.3574 C 85.1074 -14.6973 84.2773 -13.623 82.6172 -13.623 Z M 80.127 -28.0762 L 80.127 -51.4648 L 79.8828 -51.4648 C 76.123 -45.3125 68.7988 -33.6914 65.8691 -28.2715 L 65.8691 -28.0762 Z"/>
  </g>
  <g id="Thin-M" transform="matrix(1 0 0 1 799.806 1126)">
   <path d="M 56.6406 12.7441 C 82.9102 12.7441 104.492 -8.83789 104.492 -35.1562 C 104.492 -61.4746 82.9102 -83.0566 56.5918 -83.0566 C 30.3223 -83.0566 8.74023 -61.4746 8.74023 -35.1562 C 8.74023 -8.83789 30.3223 12.7441 56.6406 12.7441 Z M 39.9414 -13.8184 C 33.3496 -13.8184 28.2227 -17.7246 26.7578 -22.2656 C 26.6602 -22.7051 26.5137 -23.1445 26.5137 -23.6816 C 26.5137 -24.707 27.1973 -25.4883 28.2227 -25.4883 C 29.1504 -25.4883 29.6387 -24.9512 29.9805 -23.9258 C 31.3477 -19.7266 35.3516 -17.1387 39.9902 -17.1387 C 46.2402 -17.1387 50.3906 -20.8008 50.3906 -25.8789 C 50.3906 -30.7129 46.2402 -34.3262 40.4785 -34.3262 L 36.377 -34.3262 C 35.3027 -34.3262 34.7168 -35.0098 34.7168 -35.9863 C 34.7168 -37.0117 35.3516 -37.6465 36.377 -37.6465 L 40.1367 -37.6465 C 45.2148 -37.6465 48.9746 -41.1621 48.9746 -45.752 C 48.9746 -50.293 45.3125 -53.3691 39.9414 -53.3691 C 35.0098 -53.3691 31.5918 -50.6348 30.8105 -46.582 C 30.5176 -45.459 30.0293 -45.0195 29.1504 -45.0195 C 27.9297 -45.0195 27.3438 -45.752 27.3438 -46.875 C 27.3438 -47.3145 27.3926 -47.8027 27.5879 -48.291 C 28.7109 -53.418 33.9355 -56.6895 39.9902 -56.6895 C 47.2656 -56.6895 52.5391 -52.3438 52.5391 -46.1426 C 52.5391 -41.4551 49.0723 -37.0117 44.4824 -36.2305 L 44.4824 -36.1328 C 49.8535 -35.5469 53.9551 -31.1035 53.9551 -25.8301 C 53.9551 -18.8477 48.0957 -13.8184 39.9414 -13.8184 Z M 81.9336 -14.1113 C 80.9082 -14.1113 80.2246 -14.7949 80.2246 -15.8691 L 80.2246 -24.3652 L 62.7441 -24.3652 C 61.084 -24.3652 59.9609 -25.2441 59.9609 -26.8555 C 59.9609 -27.5391 60.2051 -28.2715 60.5957 -28.9551 C 64.4531 -34.8633 73.1445 -48.291 77.2949 -54.5898 C 78.3203 -56.1523 79.2969 -56.6895 80.8594 -56.6895 C 82.4707 -56.6895 83.5938 -55.7129 83.5938 -54.1016 L 83.5938 -27.5879 L 88.7207 -27.5879 C 89.6973 -27.5879 90.332 -26.9043 90.332 -25.9277 C 90.332 -24.9512 89.7461 -24.3652 88.7207 -24.3652 L 83.5938 -24.3652 L 83.5938 -15.8691 C 83.5938 -14.7949 83.0566 -14.1113 81.9336 -14.1113 Z M 80.2246 -27.5879 L 80.2246 -52.832 L 80.0781 -52.832 C 76.6602 -47.7051 66.6504 -32.6172 63.8184 -27.7344 L 63.8184 -27.5879 Z"/>
  </g>
  <g id="Ultralight-M" transform="matrix(1 0 0 1 503.656 1126)">
   <path d="M 56.0547 12.207 C 82.0801 12.207 103.369 -9.08203 103.369 -35.1562 C 103.369 -61.1816 82.0801 -82.4707 56.0547 -82.4707 C 30.0293 -82.4707 8.74023 -61.1816 8.74023 -35.1562 C 8.74023 -9.08203 30.0293 12.207 56.0547 12.207 Z M 39.6973 -14.0137 C 33.2031 -14.0137 28.1738 -17.8223 26.6602 -22.3145 C 26.5625 -22.6562 26.416 -23.0957 26.416 -23.584 C 26.416 -24.4141 26.9043 -25 27.7832 -25 C 28.5156 -25 28.9551 -24.5605 29.1992 -23.7305 C 30.5664 -19.3359 34.8633 -16.6016 39.6973 -16.6016 C 46.3379 -16.6016 50.7324 -20.4102 50.7324 -25.8301 C 50.7324 -30.8594 46.2402 -34.7168 40.2344 -34.7168 L 35.791 -34.7168 C 34.9609 -34.7168 34.5215 -35.2051 34.5215 -35.9863 C 34.5215 -36.8164 35.0098 -37.3047 35.791 -37.3047 L 39.8926 -37.3047 C 45.2637 -37.3047 49.2676 -41.0645 49.2676 -45.8496 C 49.2676 -50.6836 45.4102 -53.9551 39.6484 -53.9551 C 34.4238 -53.9551 30.7129 -50.9766 30.0781 -46.8262 C 29.834 -45.8008 29.3945 -45.459 28.7109 -45.459 C 27.6855 -45.459 27.2461 -46.0449 27.2461 -46.9727 C 27.2461 -47.3633 27.2949 -47.8516 27.4902 -48.291 C 28.6133 -53.418 33.8379 -56.4941 39.5996 -56.4941 C 46.7773 -56.4941 52.002 -52.1973 52.002 -46.0938 C 52.002 -41.4551 48.5352 -37.0117 43.8477 -36.1816 L 43.8477 -36.1328 C 49.2676 -35.498 53.4668 -31.1035 53.4668 -25.8301 C 53.4668 -18.9941 47.6562 -14.0137 39.6973 -14.0137 Z M 81.5918 -14.3555 C 80.8594 -14.3555 80.2734 -14.8438 80.2734 -15.625 L 80.2734 -24.8047 L 62.0117 -24.8047 C 60.6934 -24.8047 59.7656 -25.4883 59.7656 -26.7578 C 59.7656 -27.2461 59.9609 -27.8809 60.2539 -28.2715 C 64.209 -34.1309 73.9258 -48.877 78.0273 -54.9316 C 78.9062 -56.1523 79.6387 -56.4941 80.7617 -56.4941 C 81.9824 -56.4941 82.8613 -55.7617 82.8613 -54.541 L 82.8613 -27.3438 L 88.623 -27.3438 C 89.3555 -27.3438 89.8438 -26.7578 89.8438 -26.0254 C 89.8438 -25.293 89.4043 -24.8047 88.623 -24.8047 L 82.8613 -24.8047 L 82.8613 -15.625 C 82.8613 -14.8438 82.4219 -14.3555 81.5918 -14.3555 Z M 80.2734 -27.3438 L 80.2734 -53.5156 L 80.1758 -53.5156 C 76.9531 -48.9258 65.5762 -32.0801 62.7441 -27.4414 L 62.7441 -27.3438 Z"/>
  </g>
  <g id="Black-S" transform="matrix(1 0 0 1 2884.57 696)">
   <path d="M 48.8281 6.78711 C 71.9727 6.78711 90.8203 -12.0605 90.8203 -35.2051 C 90.8203 -58.3496 71.9727 -77.1973 48.8281 -77.1973 C 25.6836 -77.1973 6.83594 -58.3496 6.83594 -35.2051 C 6.83594 -12.0605 25.6836 6.78711 48.8281 6.78711 Z M 37.0605 -20.2637 C 32.666 -20.2637 28.7109 -22.998 27.832 -25.8789 C 27.5879 -26.5625 27.4414 -27.1973 27.4414 -27.8809 C 27.4414 -30.127 29.248 -31.2988 30.8105 -31.2988 C 32.2754 -31.2988 33.3496 -30.7129 34.1309 -29.6387 C 35.0098 -28.3691 36.1816 -27.832 37.207 -27.832 C 38.3301 -27.832 39.0625 -28.7109 39.0625 -29.6387 C 39.0625 -30.8105 38.3301 -31.543 37.0117 -31.543 L 36.9629 -31.543 C 34.2773 -31.543 33.1543 -33.1055 33.1543 -35.3516 C 33.1543 -37.5488 34.5215 -39.1113 36.9629 -39.1113 L 37.0117 -39.1113 C 38.3301 -39.1113 38.7695 -40.1367 38.7695 -41.0156 C 38.7695 -42.2852 37.9883 -43.0664 36.9629 -43.0664 C 35.8887 -43.0664 35.1074 -42.4805 34.2285 -41.2598 C 33.4961 -40.2344 32.4707 -39.502 30.957 -39.502 C 29.1016 -39.502 27.7832 -40.7227 27.7832 -42.9199 C 27.7832 -43.6523 27.9297 -44.3359 28.3203 -45.2637 C 29.248 -47.3633 32.373 -50.2441 37.0605 -50.2441 C 43.1152 -50.2441 46.875 -47.1191 46.875 -42.2363 C 46.875 -39.4043 44.9219 -36.7188 42.334 -36.2793 L 42.334 -35.9375 C 45.4102 -35.6934 47.4609 -32.7148 47.4609 -29.1016 C 47.4609 -23.6816 43.457 -20.2637 37.0605 -20.2637 Z M 64.7949 -20.2637 C 62.6953 -20.2637 61.2305 -21.6797 61.2305 -23.7305 L 61.2305 -25.6348 L 55.0293 -25.6348 C 51.8066 -25.6348 50.1465 -27.3926 50.1465 -30.4199 C 50.1465 -32.3242 50.6836 -34.082 51.1719 -35.6445 C 51.9531 -38.1348 53.7109 -42.5781 55.127 -45.5566 C 56.6895 -48.7305 58.7891 -50.2441 62.3535 -50.2441 C 66.4551 -50.2441 68.3594 -47.8516 68.3594 -43.8965 L 68.3594 -32.5684 L 68.75 -32.5684 C 70.8008 -32.5684 71.9238 -31.1523 71.9238 -29.0527 C 71.9238 -27.002 70.8008 -25.7324 68.75 -25.7324 L 68.3594 -25.7324 L 68.3594 -23.7305 C 68.3594 -21.6797 66.9434 -20.2637 64.7949 -20.2637 Z M 61.2305 -32.4707 L 61.2305 -42.7734 L 61.1328 -42.7734 C 60.1074 -39.9902 58.5449 -34.9609 57.7637 -32.6172 L 57.7637 -32.4707 Z"/>
  </g>
  <g id="Heavy-S" transform="matrix(1 0 0 1 2588.47 696)">
   <path d="M 48.2422 6.15234 C 70.9961 6.15234 89.5996 -12.4512 89.5996 -35.2051 C 89.5996 -57.959 70.9961 -76.6113 48.1934 -76.6113 C 25.4395 -76.6113 6.83594 -57.959 6.83594 -35.2051 C 6.83594 -12.4512 25.4395 6.15234 48.2422 6.15234 Z M 35.9375 -19.6777 C 31.25 -19.6777 27.1973 -22.5586 26.2695 -25.6836 C 26.0742 -26.3184 25.9277 -26.9043 25.9277 -27.5879 C 25.9277 -29.6387 27.5879 -30.8105 29.1504 -30.8105 C 30.5176 -30.8105 31.543 -30.1758 32.2754 -29.0527 C 33.2031 -27.4414 34.5215 -26.6602 36.0352 -26.6602 C 37.7441 -26.6602 38.916 -27.8809 38.916 -29.2969 C 38.916 -30.9082 37.793 -31.9336 35.9375 -31.9336 L 35.4004 -31.9336 C 33.0078 -31.9336 31.9336 -33.3984 31.9336 -35.4492 C 31.9336 -37.5 33.2031 -38.9648 35.4004 -38.9648 L 35.8887 -38.9648 C 37.5977 -38.9648 38.4277 -40.1855 38.4277 -41.5039 C 38.4277 -43.1152 37.3535 -44.1406 35.8887 -44.1406 C 34.375 -44.1406 33.3496 -43.3594 32.4707 -41.748 C 31.7871 -40.625 30.8594 -39.9414 29.3945 -39.9414 C 27.5879 -39.9414 26.3672 -41.1133 26.3672 -43.1641 C 26.3672 -43.8965 26.4648 -44.4824 26.8066 -45.3125 C 27.7344 -47.8516 31.1035 -50.8301 35.9863 -50.8301 C 42.041 -50.8301 45.9473 -47.5586 45.9473 -42.627 C 45.9473 -39.5508 43.8477 -36.7188 41.0645 -36.2793 L 41.0645 -35.9375 C 44.3848 -35.6445 46.6309 -32.5684 46.6309 -28.8086 C 46.6309 -23.291 42.4316 -19.6777 35.9375 -19.6777 Z M 64.9414 -19.6777 C 62.8906 -19.6777 61.5723 -21.0938 61.5723 -23.0469 L 61.5723 -25.4883 L 54.1992 -25.4883 C 51.2207 -25.4883 49.5605 -27.1973 49.5605 -30.0781 C 49.5605 -31.8359 50.0488 -33.3984 50.5859 -34.9121 C 51.8066 -37.9883 53.9062 -42.7734 55.8105 -46.4355 C 57.3242 -49.4141 59.3262 -50.8301 62.6465 -50.8301 C 66.4062 -50.8301 68.3105 -48.584 68.3105 -44.9707 L 68.3105 -31.9824 L 68.9941 -31.9824 C 70.9473 -31.9824 72.0215 -30.7129 72.0215 -28.7109 C 72.0215 -26.7578 70.9473 -25.5859 68.9941 -25.5859 L 68.3105 -25.5859 L 68.3105 -23.0469 C 68.3105 -21.0938 66.9922 -19.6777 64.9414 -19.6777 Z M 61.5723 -31.9336 L 61.5723 -43.7012 L 61.4258 -43.7012 C 59.8633 -40.1855 57.9102 -34.9609 56.7871 -32.0801 L 56.7871 -31.9336 Z"/>
  </g>
  <g id="Bold-S" transform="matrix(1 0 0 1 2292.44 696)">
   <path d="M 47.5586 5.46875 C 69.873 5.46875 88.2324 -12.8906 88.2324 -35.2051 C 88.2324 -57.5684 69.873 -75.9277 47.5098 -75.9277 C 25.1953 -75.9277 6.83594 -57.5684 6.83594 -35.2051 C 6.83594 -12.8906 25.1953 5.46875 47.5586 5.46875 Z M 34.6191 -19.043 C 29.6387 -19.043 25.4883 -22.1191 24.5605 -25.4395 C 24.3652 -26.0254 24.2676 -26.5625 24.2676 -27.1973 C 24.2676 -29.1016 25.6836 -30.2246 27.2461 -30.2246 C 28.6133 -30.2246 29.4922 -29.6387 30.1758 -28.3691 C 31.1523 -26.416 32.666 -25.3906 34.7168 -25.3906 C 37.0605 -25.3906 38.7207 -26.9531 38.7207 -28.8574 C 38.7207 -31.0059 37.2559 -32.373 34.7168 -32.373 L 33.6426 -32.373 C 31.5918 -32.373 30.5664 -33.7402 30.5664 -35.5469 C 30.5664 -37.4512 31.7383 -38.7695 33.6426 -38.7695 L 34.668 -38.7695 C 36.8164 -38.7695 38.0859 -40.2344 38.0859 -42.0898 C 38.0859 -43.9941 36.6699 -45.3125 34.668 -45.3125 C 32.666 -45.3125 31.3965 -44.3359 30.5176 -42.334 C 29.8828 -41.1133 29.0527 -40.4297 27.6367 -40.4297 C 25.9277 -40.4297 24.7559 -41.5527 24.7559 -43.457 C 24.7559 -44.1406 24.8535 -44.6777 25.0977 -45.4102 C 26.0742 -48.4375 29.6387 -51.4648 34.8145 -51.4648 C 40.8691 -51.4648 44.873 -48.0957 44.873 -43.0176 C 44.873 -39.7461 42.627 -36.7188 39.6973 -36.2305 L 39.6973 -35.9375 C 43.2617 -35.5957 45.7031 -32.4219 45.7031 -28.4668 C 45.7031 -22.8027 41.3086 -19.043 34.6191 -19.043 Z M 65.0879 -19.043 C 63.1348 -19.043 61.9629 -20.4102 61.9629 -22.3145 L 61.9629 -25.3906 L 53.2715 -25.3906 C 50.5371 -25.3906 48.9258 -26.9531 48.9258 -29.6875 C 48.9258 -31.25 49.3164 -32.6172 49.9512 -34.082 C 51.6113 -37.793 54.1504 -42.9688 56.5918 -47.4121 C 58.0566 -50.1953 59.9121 -51.4648 62.9883 -51.4648 C 66.3574 -51.4648 68.2617 -49.4141 68.2617 -46.1914 L 68.2617 -31.3477 L 69.2871 -31.3477 C 71.0938 -31.3477 72.1191 -30.1758 72.1191 -28.3203 C 72.1191 -26.5137 71.0938 -25.4395 69.2871 -25.4395 L 68.2617 -25.4395 L 68.2617 -22.3145 C 68.2617 -20.4102 67.0898 -19.043 65.0879 -19.043 Z M 61.9629 -31.2988 L 61.9629 -44.7266 L 61.7676 -44.7266 C 59.6191 -40.3809 57.2266 -35.0098 55.6641 -31.4453 L 55.6641 -31.2988 Z"/>
  </g>
  <g id="Semibold-S" transform="matrix(1 0 0 1 1996.2 696)">
   <path d="M 47.0703 4.98047 C 69.0918 4.98047 87.3047 -13.1836 87.3047 -35.2539 C 87.3047 -57.2754 69.0918 -75.4883 47.0215 -75.4883 C 25 -75.4883 6.83594 -57.2754 6.83594 -35.2539 C 6.83594 -13.1836 25.0488 4.98047 47.0703 4.98047 Z M 33.7402 -18.6035 C 28.5645 -18.6035 24.3164 -21.7773 23.3398 -25.2441 C 23.1934 -25.8789 23.0957 -26.3184 23.0957 -26.9531 C 23.0957 -28.7598 24.4141 -29.8828 25.9277 -29.8828 C 27.2461 -29.8828 28.125 -29.1992 28.7109 -27.9297 C 29.7363 -25.6836 31.3965 -24.5117 33.8379 -24.5117 C 36.6211 -24.5117 38.5742 -26.3184 38.5742 -28.6133 C 38.5742 -31.1035 36.8164 -32.666 33.9355 -32.666 L 32.4707 -32.666 C 30.6152 -32.666 29.5898 -33.9355 29.5898 -35.6445 C 29.5898 -37.4023 30.7129 -38.623 32.4707 -38.623 L 33.7891 -38.623 C 36.2793 -38.623 37.793 -40.2832 37.793 -42.4805 C 37.793 -44.6289 36.1816 -46.0938 33.8379 -46.0938 C 31.4941 -46.0938 30.0781 -45.0195 29.1504 -42.7246 C 28.6133 -41.4062 27.832 -40.7227 26.416 -40.7227 C 24.8047 -40.7227 23.6816 -41.8945 23.6816 -43.6523 C 23.6816 -44.2871 23.7305 -44.7754 23.9258 -45.459 C 24.9512 -48.7793 28.6621 -51.9043 33.9844 -51.9043 C 40.0391 -51.9043 44.1406 -48.4375 44.1406 -43.3105 C 44.1406 -39.8926 41.748 -36.7188 38.7207 -36.2305 L 38.7207 -35.9375 C 42.4316 -35.5957 45.0684 -32.3242 45.0684 -28.2227 C 45.0684 -22.5098 40.5273 -18.6035 33.7402 -18.6035 Z M 65.1855 -18.6035 C 63.2812 -18.6035 62.207 -19.9707 62.207 -21.7773 L 62.207 -25.293 L 52.6367 -25.293 C 50.0488 -25.293 48.4863 -26.8066 48.4863 -29.3945 C 48.4863 -30.8594 48.8281 -32.0801 49.4629 -33.5449 C 51.5137 -37.6465 54.3457 -43.1152 57.1289 -48.0957 C 58.5938 -50.7812 60.3516 -51.9043 63.2324 -51.9043 C 66.3574 -51.9043 68.2129 -50 68.2129 -47.0215 L 68.2129 -30.9082 L 69.4824 -30.9082 C 71.1914 -30.9082 72.2168 -29.834 72.2168 -28.0762 C 72.2168 -26.3184 71.1914 -25.293 69.4824 -25.293 L 68.2129 -25.293 L 68.2129 -21.7773 C 68.2129 -19.9219 67.0898 -18.6035 65.1855 -18.6035 Z M 62.207 -30.8594 L 62.207 -45.4102 L 62.0117 -45.4102 C 59.4238 -40.5273 56.7871 -35.0098 54.8828 -31.0547 L 54.8828 -30.8594 Z"/>
  </g>
  <g id="Medium-S" transform="matrix(1 0 0 1 1699.83 696)">
   <path d="M 46.7285 4.63867 C 68.5547 4.63867 86.6211 -13.4277 86.6211 -35.2539 C 86.6211 -57.0312 68.5059 -75.1465 46.6797 -75.1465 C 24.8535 -75.1465 6.83594 -57.0312 6.83594 -35.2539 C 6.83594 -13.4277 24.9023 4.63867 46.7285 4.63867 Z M 33.1055 -18.2617 C 27.7344 -18.2617 23.4375 -21.5332 22.4609 -25.1465 C 22.2656 -25.7324 22.2168 -26.1719 22.2168 -26.7578 C 22.2168 -28.4668 23.4375 -29.5898 24.9512 -29.5898 C 26.2207 -29.5898 27.0508 -28.9062 27.6367 -27.5391 C 28.6621 -25.1465 30.4688 -23.8281 33.1543 -23.8281 C 36.2793 -23.8281 38.4766 -25.8301 38.4766 -28.3691 C 38.4766 -31.1523 36.5234 -32.9102 33.3008 -32.9102 L 31.543 -32.9102 C 29.8828 -32.9102 28.8574 -34.1309 28.8574 -35.6934 C 28.8574 -37.4023 29.9316 -38.5254 31.543 -38.5254 L 33.1543 -38.5254 C 35.8398 -38.5254 37.6465 -40.332 37.6465 -42.7734 C 37.6465 -45.1172 35.791 -46.7285 33.2031 -46.7285 C 30.6152 -46.7285 29.0527 -45.5078 28.125 -43.0176 C 27.5879 -41.6504 26.8555 -40.9668 25.4883 -40.9668 C 23.9258 -40.9668 22.8516 -42.0898 22.8516 -43.7988 C 22.8516 -44.4336 22.8516 -44.873 22.998 -45.5078 C 24.0723 -49.0723 27.9297 -52.2461 33.3496 -52.2461 C 39.4043 -52.2461 43.5547 -48.6816 43.5547 -43.5547 C 43.5547 -39.9414 41.1133 -36.7188 37.9883 -36.2305 L 37.9883 -35.9375 C 41.8457 -35.5469 44.5801 -32.2266 44.5801 -28.0762 C 44.5801 -22.2656 39.9414 -18.2617 33.1055 -18.2617 Z M 65.2344 -18.2617 C 63.4277 -18.2617 62.4023 -19.5801 62.4023 -21.3867 L 62.4023 -25.1953 L 52.1484 -25.1953 C 49.707 -25.1953 48.1445 -26.6602 48.1445 -29.1992 C 48.1445 -30.5664 48.4375 -31.6406 49.1211 -33.1055 C 51.416 -37.5488 54.4434 -43.2617 57.5195 -48.584 C 58.9355 -51.1719 60.6445 -52.2461 63.4277 -52.2461 C 66.3086 -52.2461 68.1641 -50.4395 68.1641 -47.6074 L 68.1641 -30.5664 L 69.6289 -30.5664 C 71.2402 -30.5664 72.2656 -29.541 72.2656 -27.8809 C 72.2656 -26.1719 71.2402 -25.2441 69.6289 -25.2441 L 68.1641 -25.2441 L 68.1641 -21.3867 C 68.1641 -19.5801 67.1387 -18.2617 65.2344 -18.2617 Z M 62.4023 -30.5176 L 62.4023 -45.9473 L 62.207 -45.9473 C 59.2773 -40.6738 56.3965 -35.0098 54.3457 -30.7129 L 54.3457 -30.5176 Z"/>
  </g>
  <g id="Regular-S" transform="matrix(1 0 0 1 1403.58 696)">
   <path d="M 46.2402 4.15039 C 67.7734 4.15039 85.6934 -13.7207 85.6934 -35.2539 C 85.6934 -56.7871 67.7246 -74.6582 46.1914 -74.6582 C 24.707 -74.6582 6.83594 -56.7871 6.83594 -35.2539 C 6.83594 -13.7207 24.7559 4.15039 46.2402 4.15039 Z M 32.2266 -17.8223 C 26.6113 -17.8223 22.3145 -21.1914 21.2891 -24.9512 C 21.1426 -25.5371 21.0938 -25.9277 21.0938 -26.5625 C 21.0938 -28.0762 22.168 -29.1992 23.6816 -29.1992 C 24.9023 -29.1992 25.6836 -28.5156 26.1719 -27.0996 C 27.2461 -24.4141 29.1992 -22.9492 32.2754 -22.9492 C 35.8398 -22.9492 38.3789 -25.1953 38.3789 -28.125 C 38.3789 -31.25 36.1328 -33.2031 32.4707 -33.2031 L 30.3223 -33.2031 C 28.9062 -33.2031 27.9297 -34.3262 27.9297 -35.7422 C 27.9297 -37.3535 28.9062 -38.3789 30.3223 -38.3789 L 32.3242 -38.3789 C 35.3027 -38.3789 37.3535 -40.332 37.3535 -43.1152 C 37.3535 -45.752 35.3027 -47.5586 32.373 -47.5586 C 29.4434 -47.5586 27.7344 -46.1914 26.7578 -43.4082 C 26.3184 -41.9922 25.6348 -41.3086 24.2676 -41.3086 C 22.8027 -41.3086 21.7773 -42.3828 21.7773 -43.9941 C 21.7773 -44.5801 21.7773 -44.9707 21.875 -45.5566 C 22.9004 -49.4629 26.9531 -52.6855 32.5195 -52.6855 C 38.623 -52.6855 42.8711 -49.0234 42.8711 -43.8477 C 42.8711 -40.0879 40.2832 -36.7188 37.0605 -36.2305 L 37.0605 -35.9375 C 41.0645 -35.5469 43.9453 -32.1289 43.9453 -27.832 C 43.9453 -21.9727 39.1602 -17.8223 32.2266 -17.8223 Z M 65.332 -17.8223 C 63.5742 -17.8223 62.6465 -19.1406 62.6465 -20.8984 L 62.6465 -25.0977 L 51.5137 -25.0977 C 49.2188 -25.0977 47.7051 -26.5137 47.7051 -28.9551 C 47.7051 -30.1758 47.9492 -31.1035 48.6816 -32.5684 C 51.3184 -37.4512 54.6387 -43.4082 58.0078 -49.2676 C 59.4727 -51.709 61.0352 -52.6855 63.6719 -52.6855 C 66.3086 -52.6855 68.1152 -50.9766 68.1152 -48.4375 L 68.1152 -30.127 L 69.8242 -30.127 C 71.3379 -30.127 72.3633 -29.1992 72.3633 -27.5879 C 72.3633 -26.0254 71.3867 -25.0977 69.8242 -25.0977 L 68.1152 -25.0977 L 68.1152 -20.8984 C 68.1152 -19.0918 67.1875 -17.8223 65.332 -17.8223 Z M 62.6465 -30.127 L 62.6465 -46.6309 L 62.4023 -46.6309 C 59.082 -40.8203 55.957 -35.0098 53.5645 -30.3223 L 53.5645 -30.127 Z"/>
  </g>
  <g id="Light-S" transform="matrix(1 0 0 1 1107.6 696)">
   <path d="M 45.5078 3.4668 C 66.6992 3.4668 84.2285 -14.0625 84.2285 -35.2051 C 84.2285 -56.3965 66.6504 -73.9258 45.5078 -73.9258 C 24.3164 -73.9258 6.83594 -56.3965 6.83594 -35.2051 C 6.83594 -14.0625 24.3652 3.4668 45.5078 3.4668 Z M 31.8848 -18.0664 C 26.416 -18.0664 22.2168 -21.3379 21.1426 -25 C 21.0449 -25.4883 20.9473 -25.8789 20.9473 -26.416 C 20.9473 -27.6855 21.8262 -28.5645 23.0957 -28.5645 C 24.1211 -28.5645 24.707 -28.0273 25.1465 -26.8066 C 26.2207 -23.9258 28.6133 -22.2168 31.8848 -22.2168 C 35.9863 -22.2168 38.7695 -24.707 38.7695 -28.0273 C 38.7695 -31.3965 36.1816 -33.6914 32.1777 -33.6914 L 29.6387 -33.6914 C 28.418 -33.6914 27.6367 -34.6191 27.6367 -35.791 C 27.6367 -37.0605 28.4668 -37.8906 29.6387 -37.8906 L 31.9824 -37.8906 C 35.3516 -37.8906 37.7441 -40.1855 37.7441 -43.2617 C 37.7441 -46.2402 35.4004 -48.291 31.9824 -48.291 C 28.6621 -48.291 26.5625 -46.6309 25.7812 -43.7012 C 25.3906 -42.4805 24.8047 -41.8945 23.7305 -41.8945 C 22.4609 -41.8945 21.6309 -42.8223 21.6309 -44.1406 C 21.6309 -44.6289 21.6309 -45.0195 21.7773 -45.5078 C 22.7539 -49.4629 26.8066 -52.4414 32.0801 -52.4414 C 37.9883 -52.4414 42.1875 -48.877 42.1875 -43.7988 C 42.1875 -40.0879 39.5996 -36.6699 36.2305 -36.1328 L 36.2305 -35.9375 C 40.2832 -35.498 43.2617 -32.0801 43.2617 -27.832 C 43.2617 -22.1191 38.5742 -18.0664 31.8848 -18.0664 Z M 64.8926 -18.1641 C 63.4766 -18.1641 62.7441 -19.1895 62.7441 -20.5566 L 62.7441 -25.7324 L 50.5859 -25.7324 C 48.6816 -25.7324 47.4121 -26.8555 47.4121 -28.8574 C 47.4121 -29.7852 47.6562 -30.6152 48.2422 -31.6895 C 50.9766 -36.4746 55.6641 -44.1895 58.9844 -49.707 C 60.2051 -51.6602 61.4746 -52.4414 63.5254 -52.4414 C 65.625 -52.4414 67.1387 -51.0742 67.1387 -49.0234 L 67.1387 -29.7852 L 69.6777 -29.7852 C 70.9473 -29.7852 71.7285 -29.0039 71.7285 -27.7344 C 71.7285 -26.4648 70.9473 -25.7324 69.6777 -25.7324 L 67.1387 -25.7324 L 67.1387 -20.5566 C 67.1387 -19.1406 66.3574 -18.1641 64.8926 -18.1641 Z M 62.7441 -29.7852 L 62.7441 -47.5586 L 62.5488 -47.5586 C 59.4727 -42.4316 54.4922 -34.3262 52.1973 -29.9316 L 52.1973 -29.7852 Z"/>
  </g>
  <g id="Thin-S" transform="matrix(1 0 0 1 811.867 696)">
   <path d="M 44.5801 2.53906 C 65.2832 2.53906 82.2754 -14.4531 82.2754 -35.2051 C 82.2754 -55.9082 65.2344 -72.9004 44.5312 -72.9004 C 23.8281 -72.9004 6.83594 -55.9082 6.83594 -35.2051 C 6.83594 -14.4531 23.877 2.53906 44.5801 2.53906 Z M 31.3965 -18.4082 C 26.1719 -18.4082 22.1191 -21.4844 20.9961 -25.0488 C 20.8984 -25.4395 20.8008 -25.7812 20.8008 -26.2207 C 20.8008 -27.0996 21.3867 -27.7832 22.2656 -27.7832 C 23.0469 -27.7832 23.4863 -27.3438 23.7793 -26.4648 C 24.8535 -23.2422 27.832 -21.2891 31.3965 -21.2891 C 36.1328 -21.2891 39.3555 -24.0723 39.3555 -27.9297 C 39.3555 -31.6406 36.1816 -34.375 31.7871 -34.375 L 28.6621 -34.375 C 27.7832 -34.375 27.2949 -34.9609 27.2949 -35.791 C 27.2949 -36.7188 27.832 -37.2559 28.6621 -37.2559 L 31.543 -37.2559 C 35.4004 -37.2559 38.2324 -39.9414 38.2324 -43.457 C 38.2324 -46.875 35.498 -49.2188 31.3965 -49.2188 C 27.6367 -49.2188 25.0977 -47.168 24.4141 -44.043 C 24.1699 -43.1152 23.7305 -42.7246 22.998 -42.7246 C 21.9727 -42.7246 21.4355 -43.3594 21.4355 -44.2871 C 21.4355 -44.6777 21.4844 -45.0684 21.6309 -45.5078 C 22.5586 -49.4629 26.6113 -52.0996 31.4453 -52.0996 C 37.207 -52.0996 41.3086 -48.6816 41.3086 -43.7988 C 41.3086 -40.0879 38.623 -36.6699 35.1074 -36.0352 L 35.1074 -35.9375 C 39.2578 -35.498 42.4316 -32.0312 42.4316 -27.8809 C 42.4316 -22.3633 37.8418 -18.4082 31.3965 -18.4082 Z M 64.3066 -18.5547 C 63.3789 -18.5547 62.8418 -19.1895 62.8418 -20.166 L 62.8418 -26.5137 L 49.4141 -26.5137 C 47.998 -26.5137 47.0703 -27.2949 47.0703 -28.7109 C 47.0703 -29.2969 47.2168 -29.9316 47.6074 -30.5664 C 50.5859 -35.2051 56.9824 -45.2148 60.2539 -50.2441 C 61.1328 -51.6602 62.0117 -52.0996 63.3789 -52.0996 C 64.7949 -52.0996 65.7715 -51.2207 65.7715 -49.8535 L 65.7715 -29.3457 L 69.5312 -29.3457 C 70.3613 -29.3457 70.9473 -28.7598 70.9473 -27.9297 C 70.9473 -27.0508 70.4102 -26.5137 69.5312 -26.5137 L 65.7715 -26.5137 L 65.7715 -20.166 C 65.7715 -19.1895 65.2832 -18.5547 64.3066 -18.5547 Z M 62.8418 -29.3457 L 62.8418 -48.7305 L 62.6953 -48.7305 C 59.9609 -44.5312 52.6367 -33.3984 50.3906 -29.4434 L 50.3906 -29.3457 Z"/>
  </g>
  <g id="Ultralight-S" transform="matrix(1 0 0 1 515.644 696)">
   <path d="M 44.043 2.05078 C 64.502 2.05078 81.2988 -14.6973 81.2988 -35.1562 C 81.2988 -55.6152 64.502 -72.3633 44.043 -72.3633 C 23.584 -72.3633 6.83594 -55.6152 6.83594 -35.1562 C 6.83594 -14.6973 23.584 2.05078 44.043 2.05078 Z M 31.1523 -18.5547 C 26.0742 -18.5547 22.0703 -21.582 20.8984 -25.0977 C 20.8008 -25.3906 20.7031 -25.7324 20.7031 -26.123 C 20.7031 -26.8066 21.1426 -27.3438 21.875 -27.3438 C 22.5098 -27.3438 22.8516 -27.002 23.0469 -26.2695 C 24.1211 -22.9004 27.4414 -20.752 31.1523 -20.752 C 36.2793 -20.752 39.6484 -23.7305 39.6484 -27.8809 C 39.6484 -31.7383 36.2305 -34.7168 31.5918 -34.7168 L 28.1738 -34.7168 C 27.4902 -34.7168 27.0996 -35.1562 27.0996 -35.8398 C 27.0996 -36.5234 27.4902 -36.9629 28.1738 -36.9629 L 31.2988 -36.9629 C 35.4492 -36.9629 38.5254 -39.8438 38.5254 -43.5547 C 38.5254 -47.2168 35.5469 -49.7559 31.1035 -49.7559 C 27.0996 -49.7559 24.3164 -47.5098 23.7305 -44.2383 C 23.5352 -43.4082 23.1934 -43.1152 22.6074 -43.1152 C 21.7285 -43.1152 21.3379 -43.6523 21.3379 -44.4336 C 21.3379 -44.7266 21.3867 -45.1172 21.5332 -45.459 C 22.4609 -49.4629 26.5137 -51.9531 31.1035 -51.9531 C 36.7676 -51.9531 40.8691 -48.584 40.8691 -43.75 C 40.8691 -40.0879 38.1348 -36.6211 34.5215 -35.9863 L 34.5215 -35.9375 C 38.7207 -35.4492 41.9922 -31.9824 41.9922 -27.8809 C 41.9922 -22.4609 37.4512 -18.5547 31.1523 -18.5547 Z M 63.9648 -18.7988 C 63.3301 -18.7988 62.8906 -19.2383 62.8906 -19.9219 L 62.8906 -26.9531 L 48.7793 -26.9531 C 47.6562 -26.9531 46.875 -27.5391 46.875 -28.6133 C 46.875 -29.0527 47.0215 -29.5898 47.2656 -29.9805 C 50.3418 -34.5703 57.7148 -45.752 60.9375 -50.5859 C 61.6699 -51.6113 62.3047 -51.9531 63.2812 -51.9531 C 64.3555 -51.9531 65.0879 -51.3184 65.0879 -50.2441 L 65.0879 -29.1016 L 69.4336 -29.1016 C 70.0684 -29.1016 70.5078 -28.6621 70.5078 -28.0273 C 70.5078 -27.3926 70.1172 -26.9531 69.4336 -26.9531 L 65.0879 -26.9531 L 65.0879 -19.9219 C 65.0879 -19.2383 64.7461 -18.7988 63.9648 -18.7988 Z M 62.8906 -29.1016 L 62.8906 -49.3652 L 62.793 -49.3652 C 60.2051 -45.6543 51.6602 -32.9102 49.4141 -29.1992 L 49.4141 -29.1016 Z"/>
  </g>
 </g>
</svg>
