<?xml version="1.0" encoding="UTF-8"?>
<!--Generator: Apple Native CoreSVG 123-->
<!DOCTYPE svg
PUBLIC "-//W3C//DTD SVG 1.1//EN"
       "http://www.w3.org/Graphics/SVG/1.1/DTD/svg11.dtd">
<svg version="1.1" xmlns="http://www.w3.org/2000/svg" xmlns:xlink="http://www.w3.org/1999/xlink" width="3300" height="2200">
 <!--glyph: "uni10069E.medium", point size: 100.000000, font version: "Version 15.0d7e11", template writer version: "5"-->
 <g id="Notes">
  <rect height="2200" id="artboard" style="fill:white;opacity:1" width="3300" x="0" y="0"/>
  <line id="" style="fill:none;stroke:black;opacity:1;stroke-width:0.5;" x1="263" x2="3036" y1="292" y2="292"/>
  <text style="stroke:none;fill:black;font-family:-apple-system,&quot;SF Pro Display&quot;,&quot;SF Pro Text&quot;,Helvetica,sans-serif;font-weight:bold;" transform="matrix(1 0 0 1 263 322)">Weight/Scale Variations</text>
  <text style="stroke:none;fill:black;font-family:-apple-system,&quot;SF Pro Display&quot;,&quot;SF Pro Text&quot;,Helvetica,sans-serif;text-anchor:middle;" transform="matrix(1 0 0 1 559.711 322)">Ultralight</text>
  <text style="stroke:none;fill:black;font-family:-apple-system,&quot;SF Pro Display&quot;,&quot;SF Pro Text&quot;,Helvetica,sans-serif;text-anchor:middle;" transform="matrix(1 0 0 1 856.422 322)">Thin</text>
  <text style="stroke:none;fill:black;font-family:-apple-system,&quot;SF Pro Display&quot;,&quot;SF Pro Text&quot;,Helvetica,sans-serif;text-anchor:middle;" transform="matrix(1 0 0 1 1153.13 322)">Light</text>
  <text style="stroke:none;fill:black;font-family:-apple-system,&quot;SF Pro Display&quot;,&quot;SF Pro Text&quot;,Helvetica,sans-serif;text-anchor:middle;" transform="matrix(1 0 0 1 1449.84 322)">Regular</text>
  <text style="stroke:none;fill:black;font-family:-apple-system,&quot;SF Pro Display&quot;,&quot;SF Pro Text&quot;,Helvetica,sans-serif;text-anchor:middle;" transform="matrix(1 0 0 1 1746.56 322)">Medium</text>
  <text style="stroke:none;fill:black;font-family:-apple-system,&quot;SF Pro Display&quot;,&quot;SF Pro Text&quot;,Helvetica,sans-serif;text-anchor:middle;" transform="matrix(1 0 0 1 2043.27 322)">Semibold</text>
  <text style="stroke:none;fill:black;font-family:-apple-system,&quot;SF Pro Display&quot;,&quot;SF Pro Text&quot;,Helvetica,sans-serif;text-anchor:middle;" transform="matrix(1 0 0 1 2339.98 322)">Bold</text>
  <text style="stroke:none;fill:black;font-family:-apple-system,&quot;SF Pro Display&quot;,&quot;SF Pro Text&quot;,Helvetica,sans-serif;text-anchor:middle;" transform="matrix(1 0 0 1 2636.69 322)">Heavy</text>
  <text style="stroke:none;fill:black;font-family:-apple-system,&quot;SF Pro Display&quot;,&quot;SF Pro Text&quot;,Helvetica,sans-serif;text-anchor:middle;" transform="matrix(1 0 0 1 2933.4 322)">Black</text>
  <line id="" style="fill:none;stroke:black;opacity:1;stroke-width:0.5;" x1="263" x2="3036" y1="1903" y2="1903"/>
  <g id="" transform="matrix(1 0 0 1 263 1933)">
   <path d="M 9.24805 0.830078 C 13.5547 0.830078 17.1387 -2.74414 17.1387 -7.05078 C 17.1387 -11.3574 13.5449 -14.9316 9.23828 -14.9316 C 4.94141 -14.9316 1.36719 -11.3574 1.36719 -7.05078 C 1.36719 -2.74414 4.95117 0.830078 9.24805 0.830078 Z M 9.24805 -0.654297 C 5.70312 -0.654297 2.87109 -3.49609 2.87109 -7.05078 C 2.87109 -10.6055 5.69336 -13.4473 9.23828 -13.4473 C 12.793 -13.4473 15.6348 -10.6055 15.6445 -7.05078 C 15.6543 -3.49609 12.8027 -0.654297 9.24805 -0.654297 Z M 9.22852 -3.42773 C 9.69727 -3.42773 9.9707 -3.74023 9.9707 -4.25781 L 9.9707 -6.31836 L 12.1973 -6.31836 C 12.6953 -6.31836 13.0371 -6.57227 13.0371 -7.04102 C 13.0371 -7.51953 12.7148 -7.7832 12.1973 -7.7832 L 9.9707 -7.7832 L 9.9707 -10.0098 C 9.9707 -10.5273 9.69727 -10.8496 9.22852 -10.8496 C 8.75977 -10.8496 8.50586 -10.5078 8.50586 -10.0098 L 8.50586 -7.7832 L 6.29883 -7.7832 C 5.78125 -7.7832 5.44922 -7.51953 5.44922 -7.04102 C 5.44922 -6.57227 5.80078 -6.31836 6.29883 -6.31836 L 8.50586 -6.31836 L 8.50586 -4.25781 C 8.50586 -3.75977 8.75977 -3.42773 9.22852 -3.42773 Z"/>
  </g>
  <g id="" transform="matrix(1 0 0 1 281.506 1933)">
   <path d="M 11.709 2.91016 C 17.1582 2.91016 21.6699 -1.60156 21.6699 -7.05078 C 21.6699 -12.4902 17.1484 -17.0117 11.6992 -17.0117 C 6.25977 -17.0117 1.74805 -12.4902 1.74805 -7.05078 C 1.74805 -1.60156 6.26953 2.91016 11.709 2.91016 Z M 11.709 1.25 C 7.09961 1.25 3.41797 -2.44141 3.41797 -7.05078 C 3.41797 -11.6504 7.08984 -15.3516 11.6992 -15.3516 C 16.3086 -15.3516 20 -11.6504 20.0098 -7.05078 C 20.0195 -2.44141 16.3184 1.25 11.709 1.25 Z M 11.6895 -2.41211 C 12.207 -2.41211 12.5195 -2.77344 12.5195 -3.33984 L 12.5195 -6.23047 L 15.5762 -6.23047 C 16.123 -6.23047 16.5039 -6.51367 16.5039 -7.03125 C 16.5039 -7.55859 16.1426 -7.86133 15.5762 -7.86133 L 12.5195 -7.86133 L 12.5195 -10.9277 C 12.5195 -11.5039 12.207 -11.8555 11.6895 -11.8555 C 11.1719 -11.8555 10.8789 -11.4844 10.8789 -10.9277 L 10.8789 -7.86133 L 7.83203 -7.86133 C 7.26562 -7.86133 6.89453 -7.55859 6.89453 -7.03125 C 6.89453 -6.51367 7.28516 -6.23047 7.83203 -6.23047 L 10.8789 -6.23047 L 10.8789 -3.33984 C 10.8789 -2.79297 11.1719 -2.41211 11.6895 -2.41211 Z"/>
  </g>
  <g id="" transform="matrix(1 0 0 1 304.924 1933)">
   <path d="M 14.9707 5.67383 C 21.9336 5.67383 27.6953 -0.078125 27.6953 -7.04102 C 27.6953 -14.0039 21.9238 -19.7559 14.9609 -19.7559 C 8.00781 -19.7559 2.25586 -14.0039 2.25586 -7.04102 C 2.25586 -0.078125 8.01758 5.67383 14.9707 5.67383 Z M 14.9707 3.85742 C 8.93555 3.85742 4.08203 -1.00586 4.08203 -7.04102 C 4.08203 -13.0762 8.92578 -17.9395 14.9609 -17.9395 C 21.0059 -17.9395 25.8594 -13.0762 25.8691 -7.04102 C 25.8789 -1.00586 21.0156 3.85742 14.9707 3.85742 Z M 14.9512 -1.06445 C 15.5176 -1.06445 15.8691 -1.45508 15.8691 -2.06055 L 15.8691 -6.13281 L 20.1074 -6.13281 C 20.6934 -6.13281 21.1133 -6.46484 21.1133 -7.02148 C 21.1133 -7.59766 20.7227 -7.93945 20.1074 -7.93945 L 15.8691 -7.93945 L 15.8691 -12.1875 C 15.8691 -12.8027 15.5176 -13.1934 14.9512 -13.1934 C 14.3848 -13.1934 14.0625 -12.7832 14.0625 -12.1875 L 14.0625 -7.93945 L 9.83398 -7.93945 C 9.21875 -7.93945 8.80859 -7.59766 8.80859 -7.02148 C 8.80859 -6.46484 9.23828 -6.13281 9.83398 -6.13281 L 14.0625 -6.13281 L 14.0625 -2.06055 C 14.0625 -1.47461 14.3848 -1.06445 14.9512 -1.06445 Z"/>
  </g>
  <text style="stroke:none;fill:black;font-family:-apple-system,&quot;SF Pro Display&quot;,&quot;SF Pro Text&quot;,Helvetica,sans-serif;font-weight:bold;" transform="matrix(1 0 0 1 263 1953)">Design Variations</text>
  <text style="stroke:none;fill:black;font-family:-apple-system,&quot;SF Pro Display&quot;,&quot;SF Pro Text&quot;,Helvetica,sans-serif;" transform="matrix(1 0 0 1 263 1971)">Symbols are supported in up to nine weights and three scales.</text>
  <text style="stroke:none;fill:black;font-family:-apple-system,&quot;SF Pro Display&quot;,&quot;SF Pro Text&quot;,Helvetica,sans-serif;" transform="matrix(1 0 0 1 263 1989)">For optimal layout with text and other symbols, vertically align</text>
  <text style="stroke:none;fill:black;font-family:-apple-system,&quot;SF Pro Display&quot;,&quot;SF Pro Text&quot;,Helvetica,sans-serif;" transform="matrix(1 0 0 1 263 2007)">symbols with the adjacent text.</text>
  <rect height="14" id="" style="fill:#00AEEF;stroke:none;opacity:0.4;" width="3" x="776" y="1919"/>
  <g id="" transform="matrix(1 0 0 1 779 1933)">
   <path d="M 10.5273 0 L 12.373 0 L 7.17773 -14.0918 L 5.43945 -14.0918 L 0.244141 0 L 2.08984 0 L 3.50586 -4.0332 L 9.11133 -4.0332 Z M 6.2793 -11.9531 L 6.33789 -11.9531 L 8.59375 -5.52734 L 4.02344 -5.52734 Z"/>
  </g>
  <rect height="14" id="" style="fill:#00AEEF;stroke:none;opacity:0.4;" width="3" x="791.617" y="1919"/>
  <text style="stroke:none;fill:black;font-family:-apple-system,&quot;SF Pro Display&quot;,&quot;SF Pro Text&quot;,Helvetica,sans-serif;font-weight:bold;" transform="matrix(1 0 0 1 776 1953)">Margins</text>
  <text style="stroke:none;fill:black;font-family:-apple-system,&quot;SF Pro Display&quot;,&quot;SF Pro Text&quot;,Helvetica,sans-serif;" transform="matrix(1 0 0 1 776 1971)">Leading and trailing margins on the left and right side of each symbol</text>
  <text style="stroke:none;fill:black;font-family:-apple-system,&quot;SF Pro Display&quot;,&quot;SF Pro Text&quot;,Helvetica,sans-serif;" transform="matrix(1 0 0 1 776 1989)">can be adjusted by modifying the width of the blue rectangles.</text>
  <text style="stroke:none;fill:black;font-family:-apple-system,&quot;SF Pro Display&quot;,&quot;SF Pro Text&quot;,Helvetica,sans-serif;" transform="matrix(1 0 0 1 776 2007)">Modifications are automatically applied proportionally to all</text>
  <text style="stroke:none;fill:black;font-family:-apple-system,&quot;SF Pro Display&quot;,&quot;SF Pro Text&quot;,Helvetica,sans-serif;" transform="matrix(1 0 0 1 776 2025)">scales and weights.</text>
  <g id="" transform="matrix(1 0 0 1 1289 1933)">
   <path d="M 2.83203 3.11523 L 4.375 4.6582 C 5.22461 5.48828 6.19141 5.41992 7.06055 4.46289 L 17.2754 -6.66016 C 17.7051 -6.36719 18.0957 -6.37695 18.5645 -6.47461 L 19.6094 -6.68945 L 20.3027 -5.99609 L 20.2539 -5.47852 C 20.1855 -4.95117 20.3516 -4.53125 20.8496 -4.0332 L 21.6602 -3.22266 C 22.168 -2.71484 22.8223 -2.68555 23.3008 -3.16406 L 26.5527 -6.41602 C 27.0312 -6.89453 27.0117 -7.54883 26.5039 -8.05664 L 25.6836 -8.87695 C 25.1855 -9.375 24.7754 -9.55078 24.2383 -9.47266 L 23.7109 -9.41406 L 23.0566 -10.0781 L 23.3398 -11.2207 C 23.4863 -11.7871 23.3398 -12.2559 22.7148 -12.8613 L 20.3027 -15.2539 C 16.7578 -18.7793 12.2266 -18.6719 9.11133 -15.5371 C 8.69141 -15.1074 8.64258 -14.5215 8.91602 -14.0918 C 9.15039 -13.7207 9.62891 -13.4961 10.2734 -13.6621 C 11.7871 -14.043 13.3008 -13.9258 14.7852 -12.9199 L 14.1602 -11.3379 C 13.9258 -10.752 13.9453 -10.2734 14.1797 -9.83398 L 3.01758 0.439453 C 2.08008 1.30859 1.97266 2.25586 2.83203 3.11523 Z M 10.6738 -15.1465 C 13.3398 -17.1387 16.6504 -16.8262 19.0527 -14.4141 L 21.6797 -11.8066 C 21.9141 -11.5723 21.9434 -11.3867 21.8848 -11.0938 L 21.5039 -9.53125 L 23.0762 -7.95898 L 24.043 -8.04688 C 24.3262 -8.07617 24.4141 -8.05664 24.6387 -7.83203 L 25.2637 -7.20703 L 22.5098 -4.46289 L 21.8848 -5.07812 C 21.6602 -5.30273 21.6406 -5.40039 21.6699 -5.68359 L 21.7578 -6.64062 L 20.1953 -8.20312 L 18.5742 -7.89062 C 18.291 -7.83203 18.1445 -7.83203 17.9102 -8.07617 L 15.7324 -10.2539 C 15.5078 -10.4883 15.4785 -10.625 15.6055 -10.9473 L 16.5527 -13.2227 C 14.9512 -14.7559 12.8418 -15.6055 10.8008 -14.9512 C 10.7129 -14.9219 10.6445 -14.9414 10.6152 -14.9805 C 10.5859 -15.0293 10.5859 -15.0781 10.6738 -15.1465 Z M 4.10156 2.41211 C 3.61328 1.91406 3.78906 1.61133 4.12109 1.30859 L 15.0781 -8.80859 L 16.3086 -7.57812 L 6.15234 3.34961 C 5.84961 3.68164 5.46875 3.7793 5.06836 3.37891 Z"/>
  </g>
  <text style="stroke:none;fill:black;font-family:-apple-system,&quot;SF Pro Display&quot;,&quot;SF Pro Text&quot;,Helvetica,sans-serif;font-weight:bold;" transform="matrix(1 0 0 1 1289 1953)">Exporting</text>
  <text style="stroke:none;fill:black;font-family:-apple-system,&quot;SF Pro Display&quot;,&quot;SF Pro Text&quot;,Helvetica,sans-serif;" transform="matrix(1 0 0 1 1289 1971)">Symbols should be outlined when exporting to ensure the</text>
  <text style="stroke:none;fill:black;font-family:-apple-system,&quot;SF Pro Display&quot;,&quot;SF Pro Text&quot;,Helvetica,sans-serif;" transform="matrix(1 0 0 1 1289 1989)">design is preserved when submitting to Xcode.</text>
  <text id="template-version" style="stroke:none;fill:black;font-family:-apple-system,&quot;SF Pro Display&quot;,&quot;SF Pro Text&quot;,Helvetica,sans-serif;text-anchor:end;" transform="matrix(1 0 0 1 3036 1933)">Template v.1.0</text>
  <text style="stroke:none;fill:black;font-family:-apple-system,&quot;SF Pro Display&quot;,&quot;SF Pro Text&quot;,Helvetica,sans-serif;text-anchor:end;" transform="matrix(1 0 0 1 3036 1951)">Generated from 35.circle.fill</text>
  <text style="stroke:none;fill:black;font-family:-apple-system,&quot;SF Pro Display&quot;,&quot;SF Pro Text&quot;,Helvetica,sans-serif;text-anchor:end;" transform="matrix(1 0 0 1 3036 1969)">Typeset at 100 points</text>
  <text style="stroke:none;fill:black;font-family:-apple-system,&quot;SF Pro Display&quot;,&quot;SF Pro Text&quot;,Helvetica,sans-serif;" transform="matrix(1 0 0 1 263 726)">Small</text>
  <text style="stroke:none;fill:black;font-family:-apple-system,&quot;SF Pro Display&quot;,&quot;SF Pro Text&quot;,Helvetica,sans-serif;" transform="matrix(1 0 0 1 263 1156)">Medium</text>
  <text style="stroke:none;fill:black;font-family:-apple-system,&quot;SF Pro Display&quot;,&quot;SF Pro Text&quot;,Helvetica,sans-serif;" transform="matrix(1 0 0 1 263 1586)">Large</text>
 </g>
 <g id="Guides">
  <g id="H-reference" style="fill:#27AAE1;stroke:none;" transform="matrix(1 0 0 1 339 696)">
   <path d="M 54.9316 0 L 57.666 0 L 30.5664 -70.459 L 28.0762 -70.459 L 0.976562 0 L 3.66211 0 L 12.9395 -24.4629 L 45.7031 -24.4629 Z M 29.1992 -67.0898 L 29.4434 -67.0898 L 44.8242 -26.709 L 13.8184 -26.709 Z"/>
  </g>
  <line id="Baseline-S" style="fill:none;stroke:#27AAE1;opacity:1;stroke-width:0.577;" x1="263" x2="3036" y1="696" y2="696"/>
  <line id="Capline-S" style="fill:none;stroke:#27AAE1;opacity:1;stroke-width:0.577;" x1="263" x2="3036" y1="625.541" y2="625.541"/>
  <g id="H-reference" style="fill:#27AAE1;stroke:none;" transform="matrix(1 0 0 1 339 1126)">
   <path d="M 54.9316 0 L 57.666 0 L 30.5664 -70.459 L 28.0762 -70.459 L 0.976562 0 L 3.66211 0 L 12.9395 -24.4629 L 45.7031 -24.4629 Z M 29.1992 -67.0898 L 29.4434 -67.0898 L 44.8242 -26.709 L 13.8184 -26.709 Z"/>
  </g>
  <line id="Baseline-M" style="fill:none;stroke:#27AAE1;opacity:1;stroke-width:0.577;" x1="263" x2="3036" y1="1126" y2="1126"/>
  <line id="Capline-M" style="fill:none;stroke:#27AAE1;opacity:1;stroke-width:0.577;" x1="263" x2="3036" y1="1055.54" y2="1055.54"/>
  <g id="H-reference" style="fill:#27AAE1;stroke:none;" transform="matrix(1 0 0 1 339 1556)">
   <path d="M 54.9316 0 L 57.666 0 L 30.5664 -70.459 L 28.0762 -70.459 L 0.976562 0 L 3.66211 0 L 12.9395 -24.4629 L 45.7031 -24.4629 Z M 29.1992 -67.0898 L 29.4434 -67.0898 L 44.8242 -26.709 L 13.8184 -26.709 Z"/>
  </g>
  <line id="Baseline-L" style="fill:none;stroke:#27AAE1;opacity:1;stroke-width:0.577;" x1="263" x2="3036" y1="1556" y2="1556"/>
  <line id="Capline-L" style="fill:none;stroke:#27AAE1;opacity:1;stroke-width:0.577;" x1="263" x2="3036" y1="1485.54" y2="1485.54"/>
  <rect height="119.336" id="left-margin" style="fill:#00AEEF;stroke:none;opacity:0.4;" width="8.74023" x="1391.3" y="1030.79"/>
  <rect height="119.336" id="right-margin" style="fill:#00AEEF;stroke:none;opacity:0.4;" width="8.74023" x="1499.65" y="1030.79"/>
 </g>
 <g id="Symbols">
  <g id="Black-L" transform="matrix(1 0 0 1 2854.05 1556)">
   <path d="M 79.3457 32.8613 C 116.748 32.8613 147.412 2.19727 147.412 -35.2051 C 147.412 -72.6074 116.748 -103.271 79.2969 -103.271 C 41.8945 -103.271 11.2793 -72.6074 11.2793 -35.2051 C 11.2793 2.19727 41.9434 32.8613 79.3457 32.8613 Z M 59.2285 -9.47266 C 51.4648 -9.47266 44.7266 -14.2578 43.2129 -19.4336 C 42.9199 -20.5078 42.7246 -21.4355 42.7246 -22.5098 C 42.7246 -25.9277 45.4102 -27.832 47.9004 -27.832 C 50.293 -27.832 51.9043 -26.8555 53.125 -24.9023 C 54.5898 -22.168 56.8848 -20.8984 59.4727 -20.8984 C 62.4023 -20.8984 64.3066 -22.9492 64.3066 -25.3418 C 64.3066 -28.125 62.5 -29.8828 59.2773 -29.8828 L 58.3008 -29.8828 C 54.4434 -29.8828 52.6367 -32.2754 52.6367 -35.5957 C 52.6367 -38.9648 54.7363 -41.3574 58.3008 -41.3574 L 59.1797 -41.3574 C 62.1582 -41.3574 63.5742 -43.4082 63.5742 -45.7031 C 63.5742 -48.3887 61.6699 -50.0977 59.1797 -50.0977 C 56.5918 -50.0977 54.8828 -48.7793 53.4668 -46.0938 C 52.3926 -44.2383 50.8301 -43.0176 48.3398 -43.0176 C 45.5078 -43.0176 43.3594 -45.0195 43.3594 -48.3398 C 43.3594 -49.5117 43.5547 -50.5371 44.0918 -51.9043 C 45.7031 -56.1523 51.2695 -61.084 59.375 -61.084 C 69.3848 -61.084 75.8301 -55.7129 75.8301 -47.5098 C 75.8301 -42.4316 72.3145 -37.6953 67.7734 -36.9141 L 67.7734 -36.377 C 73.291 -35.9375 77.002 -30.8105 77.002 -24.5605 C 77.002 -15.4297 70.0684 -9.47266 59.2285 -9.47266 Z M 98.6816 -9.47266 C 91.0645 -9.47266 85.6445 -13.7207 83.9355 -17.4316 C 83.3496 -18.7012 83.2031 -19.7754 83.2031 -20.9473 C 83.2031 -24.1211 85.5469 -26.3672 88.4277 -26.3672 C 91.0156 -26.3672 92.041 -24.8535 93.2129 -23.6328 C 94.873 -21.875 96.5332 -20.2148 99.3164 -20.2148 C 102.881 -20.2148 105.322 -22.9492 105.322 -26.9531 C 105.322 -30.4199 103.027 -33.2031 99.8535 -33.2031 C 97.9492 -33.2031 96.8262 -32.5684 95.0684 -31.3477 C 93.5547 -30.2734 92.041 -29.541 89.1113 -29.541 C 85.4004 -29.541 83.0078 -32.0312 83.2031 -36.1328 L 84.1309 -52.7832 C 84.375 -57.3242 86.7676 -59.9609 90.8691 -59.9609 L 109.814 -59.9609 C 113.184 -59.9609 115.137 -58.1543 115.137 -54.7363 C 115.137 -51.3672 113.037 -49.3652 109.814 -49.3652 L 94.4824 -49.3652 L 93.6523 -38.3301 L 93.8477 -38.3301 C 95.7031 -41.0645 99.2188 -42.7734 102.881 -42.7734 C 110.4 -42.7734 116.797 -37.1094 116.797 -27.5391 C 116.797 -16.4551 109.961 -9.47266 98.6816 -9.47266 Z"/>
  </g>
  <g id="Heavy-L" transform="matrix(1 0 0 1 2558.39 1556)">
   <path d="M 78.2715 31.7871 C 115.088 31.7871 145.312 1.61133 145.312 -35.2051 C 145.312 -72.0215 115.039 -102.197 78.2715 -102.197 C 41.4551 -102.197 11.2793 -72.0215 11.2793 -35.2051 C 11.2793 1.61133 41.5039 31.7871 78.2715 31.7871 Z M 57.7637 -8.88672 C 49.7559 -8.88672 42.9688 -13.8184 41.3574 -19.1895 C 41.1133 -20.166 40.918 -21.0449 40.918 -22.0703 C 40.918 -25.1953 43.3105 -27.002 45.6543 -27.002 C 47.8516 -27.002 49.3652 -25.9766 50.4395 -24.0723 C 52.002 -20.8496 54.6875 -19.1895 57.959 -19.1895 C 61.7676 -19.1895 64.3555 -21.7285 64.3555 -24.8535 C 64.3555 -28.3203 61.9141 -30.5664 57.9102 -30.5664 L 56.1523 -30.5664 C 52.7344 -30.5664 51.0742 -32.7148 51.0742 -35.7422 C 51.0742 -38.8184 52.9785 -40.918 56.1523 -40.918 L 57.7637 -40.918 C 61.3281 -40.918 63.3789 -43.4082 63.3789 -46.3867 C 63.3789 -49.5605 60.9863 -51.709 57.7637 -51.709 C 54.4922 -51.709 52.3438 -50.0488 50.9277 -46.8262 C 50 -44.9219 48.584 -43.7988 46.2402 -43.7988 C 43.5547 -43.7988 41.6504 -45.6543 41.6504 -48.7305 C 41.6504 -49.8047 41.7969 -50.7324 42.2852 -51.9531 C 43.8965 -56.7383 49.707 -61.6699 57.9102 -61.6699 C 67.8711 -61.6699 74.4629 -56.1523 74.4629 -47.9492 C 74.4629 -42.627 70.752 -37.6465 65.9668 -36.8652 L 65.9668 -36.377 C 71.7285 -35.8887 75.7812 -30.6152 75.7812 -24.2188 C 75.7812 -14.9902 68.6035 -8.88672 57.7637 -8.88672 Z M 98.3398 -8.88672 C 90.5762 -8.88672 84.9121 -13.1836 83.1543 -17.3828 C 82.6172 -18.5059 82.4707 -19.5312 82.4707 -20.6543 C 82.4707 -23.5352 84.5703 -25.5859 87.2559 -25.5859 C 89.5508 -25.5859 90.625 -24.2188 91.6992 -22.9004 C 93.3594 -20.5566 95.6543 -18.6523 98.9258 -18.6523 C 103.271 -18.6523 106.25 -21.8262 106.25 -26.5625 C 106.25 -30.7617 103.467 -34.082 99.5605 -34.082 C 97.3145 -34.082 95.8496 -33.3008 93.8477 -31.6895 C 92.2363 -30.5176 90.8203 -29.834 88.1836 -29.834 C 84.7168 -29.834 82.5195 -32.2266 82.7148 -36.084 L 83.8379 -53.8574 C 84.082 -58.0566 86.377 -60.5469 90.1855 -60.5469 L 110.156 -60.5469 C 113.135 -60.5469 114.941 -58.8379 114.941 -55.7617 C 114.941 -52.7344 113.037 -50.8789 110.156 -50.8789 L 93.1641 -50.8789 L 92.2363 -38.1836 L 92.4316 -38.1836 C 94.3848 -41.0156 98.1934 -42.8223 102.051 -42.8223 C 110.205 -42.8223 116.699 -36.7676 116.699 -27.0996 C 116.699 -15.918 109.717 -8.88672 98.3398 -8.88672 Z"/>
  </g>
  <g id="Bold-L" transform="matrix(1 0 0 1 2262.88 1556)">
   <path d="M 77.0996 30.6152 C 113.232 30.6152 142.92 0.878906 142.92 -35.2051 C 142.92 -71.3379 113.184 -101.025 77.0508 -101.025 C 40.9668 -101.025 11.2793 -71.3379 11.2793 -35.2051 C 11.2793 0.878906 41.0156 30.6152 77.0996 30.6152 Z M 56.1035 -8.25195 C 47.8027 -8.25195 40.9668 -13.3301 39.3066 -18.8965 C 39.0625 -19.8242 38.8672 -20.6055 38.8672 -21.582 C 38.8672 -24.3164 40.918 -26.0254 43.1641 -26.0254 C 45.166 -26.0254 46.4844 -25.0488 47.4609 -23.0957 C 49.0723 -19.3359 52.2461 -17.2852 56.25 -17.2852 C 61.1328 -17.2852 64.4043 -20.3613 64.4043 -24.3652 C 64.4043 -28.5645 61.2793 -31.3477 56.3965 -31.3477 L 53.7598 -31.3477 C 50.8789 -31.3477 49.3164 -33.252 49.3164 -35.8887 C 49.3164 -38.623 51.0254 -40.4297 53.7598 -40.4297 L 56.2012 -40.4297 C 60.4492 -40.4297 63.1836 -43.3594 63.1836 -47.1191 C 63.1836 -50.9277 60.2539 -53.4668 56.1523 -53.4668 C 52.0996 -53.4668 49.5117 -51.416 48.0957 -47.6562 C 47.3145 -45.7031 46.0449 -44.6777 43.9453 -44.6777 C 41.4551 -44.6777 39.7461 -46.3867 39.7461 -49.1211 C 39.7461 -50.0977 39.8438 -50.9277 40.2344 -52.0508 C 41.8457 -57.4219 47.9492 -62.3047 56.3477 -62.3047 C 66.2109 -62.3047 72.9004 -56.6895 72.9004 -48.4375 C 72.9004 -42.8223 68.9453 -37.6465 63.916 -36.8164 L 63.916 -36.377 C 70.0195 -35.791 74.3652 -30.4199 74.3652 -23.8281 C 74.3652 -14.5508 66.9922 -8.25195 56.1035 -8.25195 Z M 97.998 -8.25195 C 90.0391 -8.25195 84.1309 -12.5488 82.2754 -17.2852 C 81.7871 -18.3105 81.6406 -19.2871 81.6406 -20.3125 C 81.6406 -22.8516 83.4961 -24.707 85.8887 -24.707 C 87.8906 -24.707 89.0137 -23.5352 89.9902 -22.0215 C 91.6992 -19.043 94.6777 -16.8945 98.5352 -16.8945 C 103.711 -16.8945 107.324 -20.5566 107.324 -26.1719 C 107.324 -31.1523 104.004 -35.0098 99.2676 -35.0098 C 96.6309 -35.0098 94.8242 -34.1309 92.4805 -32.0801 C 90.8203 -30.7617 89.502 -30.1758 87.1582 -30.1758 C 83.9844 -30.1758 81.9824 -32.4219 82.1777 -35.9863 L 83.4961 -55.0781 C 83.7402 -58.8867 85.8887 -61.1816 89.4531 -61.1816 L 110.547 -61.1816 C 113.135 -61.1816 114.697 -59.5703 114.697 -56.9336 C 114.697 -54.2969 113.037 -52.5879 110.547 -52.5879 L 91.6992 -52.5879 L 90.625 -37.9883 L 90.8203 -37.9883 C 92.8711 -40.9668 97.0215 -42.9199 101.123 -42.9199 C 109.961 -42.9199 116.65 -36.377 116.65 -26.5625 C 116.65 -15.2832 109.375 -8.25195 97.998 -8.25195 Z"/>
  </g>
  <g id="Semibold-L" transform="matrix(1 0 0 1 1966.97 1556)">
   <path d="M 76.2695 29.7852 C 111.914 29.7852 141.309 0.439453 141.309 -35.2051 C 141.309 -70.8496 111.865 -100.244 76.2695 -100.244 C 40.625 -100.244 11.2793 -70.8496 11.2793 -35.2051 C 11.2793 0.439453 40.6738 29.7852 76.2695 29.7852 Z M 54.9316 -7.76367 C 46.4355 -7.76367 39.5996 -12.9883 37.8906 -18.7012 C 37.6465 -19.5801 37.5 -20.3125 37.5 -21.2891 C 37.5 -23.7305 39.3066 -25.3418 41.4062 -25.3418 C 43.3105 -25.3418 44.5312 -24.4141 45.3613 -22.4609 C 47.0703 -18.3105 50.5371 -15.9668 55.0781 -15.9668 C 60.6445 -15.9668 64.4043 -19.4336 64.4043 -23.9746 C 64.4043 -28.7109 60.8398 -31.8848 55.3711 -31.8848 L 52.0996 -31.8848 C 49.5605 -31.8848 48.1445 -33.5938 48.1445 -35.9863 C 48.1445 -38.4766 49.6582 -40.1367 52.0996 -40.1367 L 55.0781 -40.1367 C 59.8633 -40.1367 63.0371 -43.3594 63.0371 -47.6074 C 63.0371 -51.8555 59.7168 -54.6875 55.0781 -54.6875 C 50.4883 -54.6875 47.5586 -52.3926 46.1426 -48.2422 C 45.459 -46.2891 44.2871 -45.3125 42.334 -45.3125 C 39.9902 -45.3125 38.4277 -46.9238 38.4277 -49.4141 C 38.4277 -50.3418 38.4766 -51.0742 38.7695 -52.0996 C 40.4297 -57.8613 46.7285 -62.7441 55.2246 -62.7441 C 65.0391 -62.7441 71.8262 -57.0312 71.8262 -48.7793 C 71.8262 -42.9688 67.7246 -37.6465 62.5 -36.7676 L 62.5 -36.377 C 68.8477 -35.7422 73.4375 -30.2734 73.4375 -23.5352 C 73.4375 -14.2578 65.918 -7.76367 54.9316 -7.76367 Z M 97.8027 -7.76367 C 89.6484 -7.76367 83.5449 -12.1582 81.6895 -17.1875 C 81.25 -18.1641 81.1035 -19.0918 81.1035 -20.1172 C 81.1035 -22.4121 82.7148 -24.1211 85.0098 -24.1211 C 86.7676 -24.1211 87.8906 -23.0469 88.7695 -21.4355 C 90.5762 -18.0176 93.9941 -15.7227 98.2422 -15.7227 C 104.004 -15.7227 108.057 -19.6777 108.057 -25.8789 C 108.057 -31.4453 104.346 -35.6934 99.0234 -35.6934 C 96.1914 -35.6934 94.0918 -34.668 91.5039 -32.3242 C 89.7949 -30.957 88.5742 -30.4199 86.4746 -30.4199 C 83.4473 -30.4199 81.6406 -32.5195 81.7871 -35.9375 L 83.252 -55.957 C 83.4961 -59.4727 85.5957 -61.5723 88.9648 -61.5723 L 110.84 -61.5723 C 113.086 -61.5723 114.551 -60.1074 114.551 -57.7637 C 114.551 -55.3223 113.037 -53.8086 110.84 -53.8086 L 90.6738 -53.8086 L 89.502 -37.8906 L 89.7461 -37.8906 C 91.8457 -40.918 96.2402 -42.9688 100.488 -42.9688 C 109.814 -42.9688 116.602 -36.1328 116.602 -26.1719 C 116.602 -14.8438 109.18 -7.76367 97.8027 -7.76367 Z"/>
  </g>
  <g id="Medium-L" transform="matrix(1 0 0 1 1670.87 1556)">
   <path d="M 75.6836 29.1992 C 110.938 29.1992 140.088 0.0488281 140.088 -35.2051 C 140.088 -70.459 110.889 -99.6094 75.6348 -99.6094 C 40.3809 -99.6094 11.2793 -70.459 11.2793 -35.2051 C 11.2793 0.0488281 40.3809 29.1992 75.6836 29.1992 Z M 54.1016 -7.4707 C 45.4102 -7.4707 38.5254 -12.6953 36.8164 -18.5547 C 36.5723 -19.4336 36.4258 -20.0684 36.4258 -20.9961 C 36.4258 -23.291 38.0859 -24.8047 40.0879 -24.8047 C 41.8945 -24.8047 43.0176 -23.877 43.7988 -21.9727 C 45.5566 -17.5293 49.2676 -14.9902 54.1992 -14.9902 C 60.3027 -14.9902 64.4531 -18.75 64.4531 -23.7305 C 64.4531 -28.8086 60.498 -32.2754 54.541 -32.2754 L 50.8789 -32.2754 C 48.584 -32.2754 47.2168 -33.8867 47.2168 -36.0352 C 47.2168 -38.3789 48.6328 -39.8926 50.8789 -39.8926 L 54.248 -39.8926 C 59.375 -39.8926 62.9395 -43.3594 62.9395 -47.998 C 62.9395 -52.5391 59.3262 -55.6152 54.1992 -55.6152 C 49.2676 -55.6152 46.0449 -53.125 44.6777 -48.6328 C 44.043 -46.6797 42.9688 -45.752 41.1133 -45.752 C 38.8672 -45.752 37.4023 -47.3145 37.4023 -49.6094 C 37.4023 -50.4883 37.5 -51.2207 37.6953 -52.1484 C 39.3555 -58.2031 45.8496 -63.0859 54.3945 -63.0859 C 64.209 -63.0859 70.9961 -57.3242 70.9961 -49.0234 C 70.9961 -43.0664 66.7969 -37.6465 61.4258 -36.7676 L 61.4258 -36.377 C 67.9199 -35.7422 72.7051 -30.1758 72.7051 -23.3398 C 72.7051 -14.0137 65.0879 -7.4707 54.1016 -7.4707 Z M 97.6074 -7.4707 C 89.3555 -7.4707 83.1543 -11.8652 81.25 -17.1387 C 80.8594 -18.0176 80.6641 -18.9453 80.6641 -19.9219 C 80.6641 -22.0703 82.1777 -23.6328 84.3262 -23.6328 C 85.9375 -23.6328 87.0117 -22.6562 87.8906 -20.9961 C 89.6973 -17.2363 93.457 -14.7949 98.0469 -14.7949 C 104.248 -14.7949 108.643 -18.9941 108.643 -25.6836 C 108.643 -31.6406 104.639 -36.1816 98.877 -36.1816 C 95.8008 -36.1816 93.5547 -35.1074 90.7715 -32.5195 C 89.0625 -31.1035 87.8906 -30.6152 85.8887 -30.6152 C 83.0566 -30.6152 81.3477 -32.6172 81.543 -35.8887 L 83.1055 -56.5918 C 83.3008 -59.9121 85.3516 -61.9141 88.5742 -61.9141 L 111.084 -61.9141 C 113.086 -61.9141 114.404 -60.498 114.404 -58.3496 C 114.404 -56.1523 112.988 -54.6875 111.084 -54.6875 L 89.8926 -54.6875 L 88.6719 -37.793 L 88.916 -37.793 C 91.0645 -40.8691 95.6055 -43.0176 100 -43.0176 C 109.717 -43.0176 116.553 -35.9375 116.553 -25.8789 C 116.553 -14.5508 109.033 -7.4707 97.6074 -7.4707 Z"/>
  </g>
  <g id="Regular-L" transform="matrix(1 0 0 1 1374.97 1556)">
   <path d="M 74.8535 28.3691 C 109.668 28.3691 138.477 -0.390625 138.477 -35.2051 C 138.477 -70.0195 109.619 -98.7793 74.8047 -98.7793 C 40.0391 -98.7793 11.2793 -70.0195 11.2793 -35.2051 C 11.2793 -0.390625 40.0879 28.3691 74.8535 28.3691 Z M 52.9785 -6.98242 C 44.0918 -6.98242 37.1582 -12.3535 35.4004 -18.4082 C 35.1562 -19.1895 35.0586 -19.7754 35.0586 -20.6543 C 35.0586 -22.7051 36.4746 -24.1699 38.3789 -24.1699 C 40.0879 -24.1699 41.0645 -23.2422 41.7969 -21.3379 C 43.5547 -16.5039 47.6074 -13.6719 53.0273 -13.6719 C 59.8633 -13.6719 64.502 -17.8223 64.502 -23.3887 C 64.502 -28.9551 60.0586 -32.8125 53.5156 -32.8125 L 49.2676 -32.8125 C 47.2656 -32.8125 46.0449 -34.2285 46.0449 -36.1328 C 46.0449 -38.2324 47.3145 -39.5508 49.2676 -39.5508 L 53.1738 -39.5508 C 58.7891 -39.5508 62.793 -43.3594 62.793 -48.4863 C 62.793 -53.4668 58.8379 -56.8359 53.125 -56.8359 C 47.6562 -56.8359 44.0918 -54.0527 42.7734 -49.2188 C 42.2363 -47.2168 41.2598 -46.3379 39.502 -46.3379 C 37.4023 -46.3379 36.1328 -47.8027 36.1328 -49.9023 C 36.1328 -50.7324 36.1328 -51.3672 36.3281 -52.1973 C 37.9883 -58.6914 44.6289 -63.5254 53.2715 -63.5254 C 63.0371 -63.5254 69.9707 -57.666 69.9707 -49.3652 C 69.9707 -43.2129 65.5762 -37.5977 60.0098 -36.7188 L 60.0098 -36.377 C 66.748 -35.6934 71.7773 -30.0293 71.7773 -23.0957 C 71.7773 -13.6719 63.9648 -6.98242 52.9785 -6.98242 Z M 97.3633 -6.98242 C 89.0137 -6.98242 82.6172 -11.4258 80.6641 -17.0898 C 80.2734 -17.8711 80.127 -18.75 80.127 -19.6777 C 80.127 -21.6309 81.4453 -23.0469 83.3984 -23.0469 C 84.8145 -23.0469 85.9375 -22.168 86.7188 -20.4102 C 88.5742 -16.2109 92.8223 -13.5742 97.8027 -13.5742 C 104.541 -13.5742 109.375 -18.1641 109.375 -25.3906 C 109.375 -31.9336 104.98 -36.8164 98.6328 -36.8164 C 95.3613 -36.8164 92.8223 -35.6445 89.8438 -32.8125 C 88.0371 -31.2988 86.9629 -30.8594 85.2051 -30.8594 C 82.5684 -30.8594 80.957 -32.7637 81.1523 -35.791 L 82.8613 -57.4219 C 83.0566 -60.498 85.0586 -62.3535 88.0859 -62.3535 L 111.328 -62.3535 C 113.037 -62.3535 114.258 -60.9863 114.258 -59.1309 C 114.258 -57.1777 112.988 -55.8594 111.328 -55.8594 L 88.916 -55.8594 L 87.5977 -37.6465 L 87.793 -37.6465 C 90.0391 -40.8203 94.8242 -43.0664 99.4141 -43.0664 C 109.521 -43.0664 116.504 -35.6445 116.504 -25.5371 C 116.504 -14.1113 108.838 -6.98242 97.3633 -6.98242 Z"/>
  </g>
  <g id="Light-L" transform="matrix(1 0 0 1 1079.18 1556)">
   <path d="M 73.9258 27.4902 C 108.301 27.4902 136.621 -0.830078 136.621 -35.1562 C 136.621 -69.5312 108.252 -97.8516 73.9258 -97.8516 C 39.5508 -97.8516 11.2793 -69.5312 11.2793 -35.1562 C 11.2793 -0.830078 39.5996 27.4902 73.9258 27.4902 Z M 52.002 -7.32422 C 43.3594 -7.32422 36.6211 -12.5 34.7656 -18.457 C 34.5215 -19.1406 34.375 -19.7266 34.375 -20.5078 C 34.375 -22.168 35.5469 -23.3887 37.1582 -23.3887 C 38.623 -23.3887 39.4043 -22.6074 39.9414 -20.9961 C 41.7969 -15.8691 46.3867 -12.793 52.0508 -12.793 C 59.5215 -12.793 64.5508 -17.1875 64.5508 -23.291 C 64.5508 -29.1992 59.6191 -33.4473 52.6855 -33.4473 L 47.8516 -33.4473 C 46.1914 -33.4473 45.2148 -34.6191 45.2148 -36.1816 C 45.2148 -37.8906 46.2402 -38.9648 47.8516 -38.9648 L 52.2949 -38.9648 C 58.3496 -38.9648 62.793 -43.1152 62.793 -48.6816 C 62.793 -54.1016 58.4473 -57.7637 52.0996 -57.7637 C 46.1426 -57.7637 42.1875 -54.5898 41.0156 -49.5605 C 40.5762 -47.8516 39.7461 -47.1191 38.2812 -47.1191 C 36.4746 -47.1191 35.498 -48.3398 35.498 -50.0977 C 35.498 -50.7812 35.5469 -51.416 35.6934 -52.1484 C 37.3047 -58.6914 43.9941 -63.2324 52.1973 -63.2324 C 61.8164 -63.2324 68.6523 -57.4707 68.6523 -49.3164 C 68.6523 -43.2129 64.1602 -37.5977 58.4961 -36.6211 L 58.4961 -36.377 C 65.332 -35.6445 70.459 -29.9805 70.459 -23.0957 C 70.459 -13.916 62.793 -7.32422 52.002 -7.32422 Z M 96.5332 -7.32422 C 88.0371 -7.32422 81.8848 -11.9141 79.9316 -17.6758 C 79.6387 -18.4082 79.4922 -19.043 79.4922 -19.8242 C 79.4922 -21.3867 80.5664 -22.5098 82.1289 -22.5098 C 83.3984 -22.5098 84.2773 -21.7285 84.8633 -20.2637 C 86.5234 -15.7227 91.3086 -12.6953 96.9727 -12.6953 C 104.248 -12.6953 109.57 -17.8223 109.57 -25.4395 C 109.57 -32.6172 104.639 -37.8906 97.6074 -37.8906 C 93.8477 -37.8906 90.7715 -36.5234 87.4023 -33.0078 C 86.084 -31.7871 85.1562 -31.3965 83.7891 -31.3965 C 81.6895 -31.3965 80.3711 -32.959 80.5176 -35.3516 L 82.373 -58.3984 C 82.4707 -60.791 84.0332 -62.3047 86.4746 -62.3047 L 110.498 -62.3047 C 111.914 -62.3047 112.939 -61.2305 112.939 -59.7168 C 112.939 -58.1543 111.914 -57.0801 110.498 -57.0801 L 87.3535 -57.0801 L 85.8398 -37.207 L 86.0352 -37.207 C 88.5254 -40.7227 93.457 -42.9688 98.2422 -42.9688 C 108.301 -42.9688 115.332 -35.5957 115.332 -25.5371 C 115.332 -14.4531 107.715 -7.32422 96.5332 -7.32422 Z"/>
  </g>
  <g id="Thin-L" transform="matrix(1 0 0 1 783.693 1556)">
   <path d="M 72.7051 26.3184 C 106.494 26.3184 134.18 -1.36719 134.18 -35.1074 C 134.18 -68.8965 106.494 -96.582 72.7051 -96.582 C 38.9648 -96.582 11.2793 -68.8965 11.2793 -35.1074 C 11.2793 -1.36719 38.9648 26.3184 72.7051 26.3184 Z M 50.7812 -7.71484 C 42.4316 -7.71484 35.8398 -12.6953 33.9355 -18.5059 C 33.6914 -19.043 33.5449 -19.6289 33.5449 -20.3125 C 33.5449 -21.4844 34.375 -22.3633 35.498 -22.3633 C 36.6699 -22.3633 37.207 -21.7285 37.5488 -20.5078 C 39.4043 -14.9902 44.7754 -11.5723 50.7812 -11.5723 C 59.1309 -11.5723 64.6484 -16.3574 64.6484 -23.1445 C 64.6484 -29.4922 59.0332 -34.3262 51.5625 -34.3262 L 46.0449 -34.3262 C 44.7754 -34.3262 44.1406 -35.0586 44.1406 -36.2305 C 44.1406 -37.4023 44.873 -38.1348 46.0449 -38.1348 L 51.0742 -38.1348 C 57.8125 -38.1348 62.8418 -42.8223 62.8418 -48.877 C 62.8418 -54.9316 57.959 -58.9844 50.7324 -58.9844 C 44.1895 -58.9844 39.6973 -55.3223 38.6719 -50 C 38.3789 -48.6328 37.793 -48.0957 36.7188 -48.0957 C 35.2539 -48.0957 34.668 -49.0234 34.668 -50.3418 C 34.668 -50.8301 34.7168 -51.5137 34.9121 -52.0996 C 36.4258 -58.6914 43.1641 -62.793 50.7324 -62.793 C 60.1562 -62.793 66.8945 -57.2266 66.8945 -49.2676 C 66.8945 -43.2129 62.3535 -37.5488 56.4453 -36.5234 L 56.4453 -36.377 C 63.4277 -35.5957 68.75 -29.8828 68.75 -23.0957 C 68.75 -14.209 61.2305 -7.71484 50.7812 -7.71484 Z M 95.459 -7.71484 C 86.8164 -7.71484 80.957 -12.5 78.9062 -18.5059 C 78.7598 -19.0918 78.6621 -19.4824 78.6621 -19.9707 C 78.6621 -21.0938 79.4434 -21.7773 80.4688 -21.7773 C 81.4941 -21.7773 82.0801 -21.0938 82.373 -20.0684 C 83.8867 -15.0391 89.3066 -11.5234 95.8496 -11.5234 C 103.857 -11.5234 109.863 -17.3828 109.863 -25.5371 C 109.863 -33.4961 104.199 -39.3066 96.2402 -39.3066 C 91.8457 -39.3066 88.0859 -37.6465 84.1797 -33.252 C 83.4473 -32.4219 82.8125 -32.1777 81.8848 -32.1777 C 80.5176 -32.1777 79.5898 -33.2031 79.6875 -34.7656 L 81.6895 -59.6191 C 81.7383 -61.2305 82.7148 -62.3047 84.375 -62.3047 L 109.375 -62.3047 C 110.449 -62.3047 111.23 -61.5723 111.23 -60.498 C 111.23 -59.375 110.4 -58.6426 109.375 -58.6426 L 85.2539 -58.6426 L 83.5449 -36.6211 L 83.6426 -36.6211 C 86.5723 -40.5273 91.6016 -42.8711 96.6797 -42.8711 C 106.592 -42.8711 113.77 -35.5469 113.77 -25.5859 C 113.77 -14.8926 106.25 -7.71484 95.459 -7.71484 Z"/>
  </g>
  <g id="Ultralight-L" transform="matrix(1 0 0 1 487.616 1556)">
   <path d="M 72.1191 25.7324 C 105.566 25.7324 132.91 -1.61133 132.91 -35.1074 C 132.91 -68.5547 105.566 -95.8984 72.1191 -95.8984 C 38.623 -95.8984 11.2793 -68.5547 11.2793 -35.1074 C 11.2793 -1.61133 38.623 25.7324 72.1191 25.7324 Z M 50.1465 -7.95898 C 41.9434 -7.95898 35.4492 -12.793 33.4961 -18.5547 C 33.252 -18.9941 33.1055 -19.5801 33.1055 -20.166 C 33.1055 -21.0938 33.7402 -21.8262 34.668 -21.8262 C 35.6445 -21.8262 36.084 -21.2891 36.3281 -20.2637 C 38.1836 -14.5508 43.9453 -10.9375 50.1465 -10.9375 C 58.9355 -10.9375 64.6973 -15.918 64.6973 -23.0957 C 64.6973 -29.6387 58.7402 -34.7656 50.9766 -34.7656 L 45.0684 -34.7656 C 44.043 -34.7656 43.6035 -35.3027 43.6035 -36.2305 C 43.6035 -37.1582 44.1406 -37.7441 45.0684 -37.7441 L 50.4883 -37.7441 C 57.5684 -37.7441 62.8418 -42.6758 62.8418 -48.9746 C 62.8418 -55.3223 57.7148 -59.6191 50.0488 -59.6191 C 43.2129 -59.6191 38.3789 -55.7129 37.5 -50.2441 C 37.2559 -49.0723 36.7676 -48.6328 35.8887 -48.6328 C 34.6191 -48.6328 34.2285 -49.3652 34.2285 -50.4395 C 34.2285 -50.8789 34.3262 -51.5137 34.4727 -52.0508 C 35.9863 -58.6914 42.7734 -62.5977 50 -62.5977 C 59.2773 -62.5977 66.0156 -57.0801 66.0156 -49.2676 C 66.0156 -43.2129 61.4258 -37.5 55.4199 -36.4258 L 55.4199 -36.377 C 62.4512 -35.5957 67.8711 -29.8828 67.8711 -23.1445 C 67.8711 -14.3555 60.4492 -7.95898 50.1465 -7.95898 Z M 94.873 -7.95898 C 86.1816 -7.95898 80.4688 -12.8418 78.418 -18.8965 C 78.2715 -19.4336 78.2227 -19.6777 78.2227 -20.0195 C 78.2227 -20.9473 78.8574 -21.4355 79.6387 -21.4355 C 80.5176 -21.4355 80.957 -20.8008 81.1035 -19.9219 C 82.5195 -14.6973 88.3301 -10.9375 95.2637 -10.9375 C 103.662 -10.9375 110.01 -17.1387 110.01 -25.5371 C 110.01 -33.9844 103.955 -40.0391 95.5566 -40.0391 C 90.8203 -40.0391 86.6699 -38.1836 82.5195 -33.3984 C 82.1289 -32.7637 81.6406 -32.5684 80.957 -32.5684 C 79.9316 -32.5684 79.1992 -33.3008 79.248 -34.4727 L 81.2988 -60.2539 C 81.3965 -61.4258 82.0312 -62.3047 83.3008 -62.3047 L 108.789 -62.3047 C 109.668 -62.3047 110.352 -61.7188 110.352 -60.8887 C 110.352 -60.0098 109.668 -59.4727 108.789 -59.4727 L 84.1797 -59.4727 L 82.373 -36.3281 L 82.4219 -36.3281 C 85.5957 -40.4785 90.6738 -42.8223 95.8984 -42.8223 C 105.762 -42.8223 112.939 -35.498 112.939 -25.6348 C 112.939 -15.1367 105.469 -7.95898 94.873 -7.95898 Z"/>
  </g>
  <g id="Black-M" transform="matrix(1 0 0 1 2870.97 1126)">
   <path d="M 62.4023 18.457 C 91.9922 18.457 116.113 -5.61523 116.113 -35.2051 C 116.113 -64.7949 91.9922 -88.8672 62.4023 -88.8672 C 32.8125 -88.8672 8.74023 -64.7949 8.74023 -35.2051 C 8.74023 -5.61523 32.8125 18.457 62.4023 18.457 Z M 47.3633 -16.2109 C 41.8945 -16.2109 36.7676 -19.6777 35.6445 -23.3398 C 35.4004 -24.2188 35.2051 -25 35.2051 -25.8789 C 35.2051 -28.7598 37.5488 -30.2734 39.4531 -30.2734 C 41.4062 -30.2734 42.7734 -29.541 43.7988 -28.1738 C 44.8242 -26.6113 46.3867 -25.9277 47.6562 -25.9277 C 48.9746 -25.9277 49.8047 -27.002 49.8047 -28.125 C 49.8047 -29.5898 48.9746 -30.4688 47.3145 -30.4688 C 43.8965 -30.4688 42.4805 -32.4707 42.4805 -35.3516 C 42.4805 -38.1836 44.2383 -40.1855 47.3145 -40.1855 C 49.0234 -40.1855 49.5117 -41.5039 49.5117 -42.5293 C 49.5117 -44.1406 48.4863 -45.1172 47.2656 -45.1172 C 45.9473 -45.1172 44.9707 -44.3848 43.8965 -42.8711 C 42.9688 -41.5527 41.6504 -40.625 39.6484 -40.625 C 37.3535 -40.625 35.5957 -42.1875 35.5957 -45.0195 C 35.5957 -45.9473 35.791 -46.8262 36.3281 -48.0469 C 37.5 -50.6348 41.5039 -54.2969 47.3633 -54.2969 C 55.0781 -54.2969 59.9609 -50.3418 59.9609 -44.1406 C 59.9609 -40.5273 57.4707 -37.1094 54.1992 -36.5723 L 54.1992 -36.1328 C 58.1055 -35.8398 60.6934 -32.0312 60.6934 -27.4414 C 60.6934 -20.5566 55.5664 -16.2109 47.3633 -16.2109 Z M 76.416 -16.2109 C 70.7031 -16.2109 66.9434 -19.5312 65.6738 -21.875 C 65.1855 -22.9492 65.1367 -23.7793 65.1367 -24.6582 C 65.1367 -27.2949 67.1387 -29.1504 69.4336 -29.1504 C 71.7285 -29.1504 72.4121 -27.7832 73.3398 -27.1484 C 74.4629 -26.416 75.1953 -25.2441 77.002 -25.2441 C 79.0527 -25.2441 80.4199 -27.0996 80.4199 -29.2969 C 80.4199 -31.3965 79.0527 -33.1055 77.1973 -33.1055 C 75.9277 -33.1055 75.1953 -32.666 74.0234 -31.8848 C 73.1934 -31.3477 71.9727 -30.7129 69.5312 -30.7129 C 66.6016 -30.7129 64.6484 -32.6172 64.7949 -35.791 L 65.332 -47.8516 C 65.5273 -51.5137 67.2852 -53.6621 70.459 -53.6621 L 84.1309 -53.6621 C 87.1582 -53.6621 88.7695 -52.1973 88.7695 -49.2676 C 88.7695 -46.3867 87.0117 -44.7266 84.1309 -44.7266 L 74.1211 -44.7266 L 73.584 -37.6465 L 73.6816 -37.6465 C 75.1953 -39.7461 77.5391 -40.918 80.2246 -40.918 C 85.1562 -40.918 89.9902 -37.1094 89.9902 -29.9316 C 89.9902 -21.6309 85.0098 -16.2109 76.416 -16.2109 Z"/>
  </g>
  <g id="Heavy-M" transform="matrix(1 0 0 1 2575.19 1126)">
   <path d="M 61.5234 17.5781 C 90.5273 17.5781 114.258 -6.15234 114.258 -35.2051 C 114.258 -64.2578 90.5273 -87.9883 61.4746 -87.9883 C 32.4707 -87.9883 8.74023 -64.2578 8.74023 -35.2051 C 8.74023 -6.15234 32.4707 17.5781 61.5234 17.5781 Z M 45.9961 -15.4785 C 40.1367 -15.4785 34.9609 -19.1406 33.7891 -23.0469 C 33.5449 -23.877 33.3984 -24.6094 33.3984 -25.4395 C 33.3984 -28.0762 35.4492 -29.541 37.3535 -29.541 C 39.1602 -29.541 40.4297 -28.7598 41.3574 -27.3438 C 42.4805 -25.293 44.2871 -24.3164 46.1914 -24.3164 C 48.4375 -24.3164 49.8535 -25.8301 49.8535 -27.6367 C 49.8535 -29.7363 48.4863 -31.0547 46.0449 -31.0547 L 45.3125 -31.0547 C 42.334 -31.0547 40.9668 -32.9102 40.9668 -35.498 C 40.9668 -38.0859 42.5781 -39.8926 45.3125 -39.8926 L 45.9961 -39.8926 C 48.2422 -39.8926 49.3164 -41.5039 49.3164 -43.2129 C 49.3164 -45.2637 47.8516 -46.582 45.9473 -46.582 C 43.9941 -46.582 42.6758 -45.6055 41.6016 -43.5547 C 40.7715 -42.1875 39.5508 -41.3086 37.6953 -41.3086 C 35.498 -41.3086 33.8867 -42.7734 33.8867 -45.3613 C 33.8867 -46.2402 34.0332 -47.0215 34.4727 -48.0957 C 35.6934 -51.3184 39.9414 -55.0293 46.0938 -55.0293 C 53.8086 -55.0293 58.7891 -50.9277 58.7891 -44.6289 C 58.7891 -40.7715 56.1035 -37.1094 52.5879 -36.5234 L 52.5879 -36.1328 C 56.7871 -35.791 59.668 -31.8359 59.668 -27.0508 C 59.668 -20.0195 54.3457 -15.4785 45.9961 -15.4785 Z M 76.3184 -15.4785 C 70.4102 -15.4785 66.3574 -18.7988 65.0391 -21.6309 C 64.5996 -22.6074 64.502 -23.4375 64.502 -24.2676 C 64.502 -26.709 66.3086 -28.418 68.5059 -28.418 C 70.5078 -28.418 71.2402 -27.1973 72.1191 -26.3672 C 73.3398 -25.0977 74.6582 -23.7793 76.8066 -23.7793 C 79.541 -23.7793 81.4453 -25.9277 81.4453 -28.9062 C 81.4453 -31.5918 79.6387 -33.7402 77.1973 -33.7402 C 75.6348 -33.7402 74.707 -33.252 73.291 -32.1777 C 72.2656 -31.4453 71.1426 -30.9082 68.8965 -30.9082 C 66.1133 -30.9082 64.3066 -32.7637 64.4531 -35.8398 L 65.1367 -48.7793 C 65.332 -52.2461 67.0898 -54.248 70.1172 -54.248 L 84.7656 -54.248 C 87.4023 -54.248 88.916 -52.8809 88.916 -50.2441 C 88.916 -47.6074 87.3047 -46.0938 84.7656 -46.0938 L 73.0957 -46.0938 L 72.4609 -37.5488 L 72.6074 -37.5488 C 74.1211 -39.7461 76.7578 -41.0156 79.5898 -41.0156 C 85.3027 -41.0156 90.1855 -36.7676 90.1855 -29.4434 C 90.1855 -20.9473 85.0098 -15.4785 76.3184 -15.4785 Z"/>
  </g>
  <g id="Bold-M" transform="matrix(1 0 0 1 2279.5 1126)">
   <path d="M 60.498 16.5039 C 88.8672 16.5039 112.207 -6.78711 112.207 -35.2051 C 112.207 -63.623 88.8672 -86.9629 60.4492 -86.9629 C 32.0312 -86.9629 8.74023 -63.623 8.74023 -35.2051 C 8.74023 -6.78711 32.0801 16.5039 60.498 16.5039 Z M 44.4824 -14.6973 C 38.2324 -14.6973 32.959 -18.5547 31.7383 -22.7539 C 31.4941 -23.4863 31.3477 -24.1699 31.3477 -24.9512 C 31.3477 -27.2949 33.1543 -28.6621 34.9609 -28.6621 C 36.6699 -28.6621 37.793 -27.9297 38.623 -26.416 C 39.7949 -23.8281 41.9922 -22.5098 44.6289 -22.5098 C 47.7539 -22.5098 49.8535 -24.5605 49.8535 -27.0996 C 49.8535 -29.9316 47.9004 -31.7383 44.6289 -31.7383 L 43.1152 -31.7383 C 40.5762 -31.7383 39.3066 -33.3984 39.3066 -35.6445 C 39.3066 -37.9883 40.7227 -39.5508 43.1152 -39.5508 L 44.5312 -39.5508 C 47.4121 -39.5508 49.0723 -41.5527 49.0723 -43.9941 C 49.0723 -46.582 47.168 -48.291 44.4824 -48.291 C 41.8457 -48.291 40.1367 -46.9238 39.0137 -44.3848 C 38.3301 -42.8711 37.2559 -42.041 35.4492 -42.041 C 33.3984 -42.041 31.9824 -43.457 31.9824 -45.752 C 31.9824 -46.582 32.0801 -47.2656 32.4219 -48.1934 C 33.6914 -52.002 38.2324 -55.8105 44.6289 -55.8105 C 52.3438 -55.8105 57.4707 -51.5625 57.4707 -45.166 C 57.4707 -40.9668 54.541 -37.1094 50.7812 -36.5234 L 50.7812 -36.1328 C 55.3223 -35.6934 58.4961 -31.6406 58.4961 -26.6113 C 58.4961 -19.4824 52.9297 -14.6973 44.4824 -14.6973 Z M 76.1719 -14.6973 C 70.1172 -14.6973 65.6738 -18.0176 64.3066 -21.3379 C 63.916 -22.2168 63.7695 -23.0469 63.7695 -23.877 C 63.7695 -26.0254 65.3809 -27.6367 67.3828 -27.6367 C 69.1406 -27.6367 69.9707 -26.5625 70.8008 -25.5371 C 72.1191 -23.584 73.9746 -22.1191 76.6113 -22.1191 C 80.127 -22.1191 82.5195 -24.6094 82.5195 -28.4668 C 82.5195 -31.8359 80.2734 -34.4727 77.1484 -34.4727 C 75.3418 -34.4727 74.1699 -33.8867 72.5098 -32.5684 C 71.2891 -31.5918 70.2148 -31.1035 68.2129 -31.1035 C 65.5762 -31.1035 63.8672 -32.9102 64.0137 -35.8887 L 64.9414 -49.8535 C 65.0879 -53.0762 66.8457 -54.9316 69.7754 -54.9316 L 85.4492 -54.9316 C 87.6953 -54.9316 89.0625 -53.6621 89.0625 -51.3672 C 89.0625 -49.0234 87.5977 -47.6562 85.4492 -47.6562 L 71.9727 -47.6562 L 71.2402 -37.5 L 71.3867 -37.5 C 72.9004 -39.6973 75.9277 -41.1621 78.9551 -41.1621 C 85.4004 -41.1621 90.4785 -36.3281 90.4785 -28.8086 C 90.4785 -20.166 84.9609 -14.6973 76.1719 -14.6973 Z"/>
  </g>
  <g id="Semibold-M" transform="matrix(1 0 0 1 1983.5 1126)">
   <path d="M 59.7656 15.8203 C 87.7441 15.8203 110.791 -7.22656 110.791 -35.2051 C 110.791 -63.1836 87.6953 -86.2793 59.7656 -86.2793 C 31.7871 -86.2793 8.74023 -63.1836 8.74023 -35.2051 C 8.74023 -7.22656 31.7871 15.8203 59.7656 15.8203 Z M 43.4082 -14.1602 C 36.9141 -14.1602 31.543 -18.1152 30.2734 -22.5098 C 30.0781 -23.2422 29.9805 -23.8281 29.9805 -24.6094 C 29.9805 -26.7578 31.543 -28.125 33.3008 -28.125 C 34.9121 -28.125 35.9375 -27.3438 36.7188 -25.7812 C 37.9883 -22.8516 40.3809 -21.2402 43.5547 -21.2402 C 47.3145 -21.2402 49.9023 -23.6328 49.9023 -26.7578 C 49.9023 -30.0293 47.5098 -32.1777 43.6523 -32.1777 L 41.6016 -32.1777 C 39.3555 -32.1777 38.1348 -33.6914 38.1348 -35.7422 C 38.1348 -37.8906 39.4531 -39.3555 41.6016 -39.3555 L 43.5059 -39.3555 C 46.8262 -39.3555 48.9258 -41.6016 48.9258 -44.4824 C 48.9258 -47.4609 46.6797 -49.4141 43.5059 -49.4141 C 40.3809 -49.4141 38.3301 -47.8516 37.2559 -44.9219 C 36.6211 -43.3594 35.6445 -42.5293 33.9355 -42.5293 C 31.9824 -42.5293 30.6641 -43.8965 30.6641 -45.9961 C 30.6641 -46.8262 30.7129 -47.4121 31.0059 -48.291 C 32.2754 -52.5391 37.0117 -56.3965 43.6523 -56.3965 C 51.3184 -56.3965 56.543 -52.002 56.543 -45.5566 C 56.543 -41.1621 53.4668 -37.1094 49.5605 -36.4746 L 49.5605 -36.1328 C 54.2969 -35.6934 57.7148 -31.4941 57.7148 -26.3184 C 57.7148 -19.0918 51.9531 -14.1602 43.4082 -14.1602 Z M 76.0742 -14.1602 C 69.873 -14.1602 65.2344 -17.4805 63.8184 -21.1426 C 63.4277 -21.9727 63.2812 -22.7539 63.2812 -23.584 C 63.2812 -25.5859 64.6973 -27.0508 66.6504 -27.0508 C 68.1641 -27.0508 69.0918 -26.123 69.873 -24.9023 C 71.2402 -22.5586 73.5352 -20.9473 76.4648 -20.9473 C 80.5176 -20.9473 83.3008 -23.7305 83.3008 -28.125 C 83.3008 -31.9824 80.7617 -34.9609 77.0996 -34.9609 C 75.1465 -34.9609 73.7793 -34.3262 71.9727 -32.8125 C 70.5566 -31.6895 69.5312 -31.25 67.7246 -31.25 C 65.1855 -31.25 63.5742 -33.0078 63.7207 -35.8887 L 64.7949 -50.5859 C 64.9414 -53.6133 66.6992 -55.4199 69.5801 -55.4199 L 85.9375 -55.4199 C 87.8906 -55.4199 89.1602 -54.1504 89.1602 -52.0996 C 89.1602 -50 87.8418 -48.6816 85.9375 -48.6816 L 71.1914 -48.6816 L 70.3613 -37.4512 L 70.5566 -37.4512 C 72.0703 -39.6973 75.3418 -41.2109 78.4668 -41.2109 C 85.4492 -41.2109 90.625 -36.084 90.625 -28.418 C 90.625 -19.6289 84.9609 -14.1602 76.0742 -14.1602 Z"/>
  </g>
  <g id="Medium-M" transform="matrix(1 0 0 1 1687.3 1126)">
   <path d="M 59.2285 15.2832 C 86.9141 15.2832 109.766 -7.56836 109.766 -35.2051 C 109.766 -62.8906 86.8652 -85.7422 59.1797 -85.7422 C 31.543 -85.7422 8.74023 -62.8906 8.74023 -35.2051 C 8.74023 -7.56836 31.5918 15.2832 59.2285 15.2832 Z M 42.627 -13.7207 C 35.8887 -13.7207 30.5176 -17.8223 29.1992 -22.3633 C 29.0039 -23.0469 28.9062 -23.6328 28.9062 -24.3652 C 28.9062 -26.3672 30.3711 -27.6855 32.0801 -27.6855 C 33.5938 -27.6855 34.5703 -26.9043 35.2539 -25.293 C 36.6211 -22.0703 39.1602 -20.3125 42.7246 -20.3125 C 46.9727 -20.3125 49.9023 -22.998 49.9023 -26.4648 C 49.9023 -30.127 47.2168 -32.5195 42.9199 -32.5195 L 40.4785 -32.5195 C 38.4277 -32.5195 37.2559 -33.9355 37.2559 -35.791 C 37.2559 -37.8418 38.5254 -39.1602 40.4785 -39.1602 L 42.7246 -39.1602 C 46.3379 -39.1602 48.7793 -41.6016 48.7793 -44.9219 C 48.7793 -48.0957 46.2891 -50.293 42.7734 -50.293 C 39.209 -50.293 37.0117 -48.584 35.8887 -45.3125 C 35.3027 -43.7012 34.4238 -42.9199 32.8125 -42.9199 C 30.9082 -42.9199 29.6387 -44.2383 29.6387 -46.2402 C 29.6387 -46.9727 29.6875 -47.5586 29.8828 -48.3398 C 31.2012 -52.8809 36.1328 -56.7871 42.8711 -56.7871 C 50.5859 -56.7871 55.8594 -52.2949 55.8594 -45.8496 C 55.8594 -41.2598 52.6367 -37.1094 48.584 -36.4746 L 48.584 -36.1328 C 53.5645 -35.6445 57.1289 -31.3965 57.1289 -26.0742 C 57.1289 -18.7988 51.2207 -13.7207 42.627 -13.7207 Z M 76.0254 -13.7207 C 69.7266 -13.7207 64.8926 -17.041 63.4277 -20.9961 C 63.0859 -21.7773 62.9395 -22.5586 62.9395 -23.3887 C 62.9395 -25.2441 64.209 -26.6113 66.0645 -26.6113 C 67.4805 -26.6113 68.4082 -25.8301 69.1895 -24.4629 C 70.6055 -21.8262 73.1934 -20.1172 76.3672 -20.1172 C 80.8105 -20.1172 83.8867 -23.0469 83.8867 -27.8809 C 83.8867 -32.1289 81.1035 -35.3516 77.0508 -35.3516 C 74.9512 -35.3516 73.4863 -34.6191 71.582 -32.959 C 70.0684 -31.7871 69.043 -31.3477 67.334 -31.3477 C 64.8926 -31.3477 63.3789 -33.1055 63.5254 -35.8887 L 64.6484 -51.1719 C 64.8438 -54.0527 66.6016 -55.7617 69.3848 -55.7617 L 86.2793 -55.7617 C 88.0371 -55.7617 89.209 -54.541 89.209 -52.6855 C 89.209 -50.7324 87.9883 -49.5117 86.2793 -49.5117 L 70.5566 -49.5117 L 69.7266 -37.4023 L 69.9219 -37.4023 C 71.4355 -39.6484 74.8535 -41.2598 78.125 -41.2598 C 85.5469 -41.2598 90.7715 -35.8887 90.7715 -28.0762 C 90.7715 -19.1895 84.9609 -13.7207 76.0254 -13.7207 Z"/>
  </g>
  <g id="Regular-M" transform="matrix(1 0 0 1 1391.3 1126)">
   <path d="M 58.5449 14.5508 C 85.791 14.5508 108.35 -8.00781 108.35 -35.2539 C 108.35 -62.4512 85.7422 -85.0586 58.4961 -85.0586 C 31.2988 -85.0586 8.74023 -62.4512 8.74023 -35.2539 C 8.74023 -8.00781 31.3477 14.5508 58.5449 14.5508 Z M 41.6016 -13.1836 C 34.5703 -13.1836 29.1504 -17.4316 27.7832 -22.168 C 27.5879 -22.8027 27.5391 -23.291 27.5391 -24.0234 C 27.5391 -25.8301 28.7598 -27.0996 30.4688 -27.0996 C 31.8848 -27.0996 32.7637 -26.3184 33.3984 -24.6582 C 34.7656 -21.0938 37.5977 -19.043 41.6504 -19.043 C 46.5332 -19.043 49.9512 -22.0703 49.9512 -26.0742 C 49.9512 -30.2734 46.8262 -33.0078 41.9434 -33.0078 L 38.9648 -33.0078 C 37.2559 -33.0078 36.1328 -34.2773 36.1328 -35.8887 C 36.1328 -37.7441 37.2559 -38.916 38.9648 -38.916 L 41.748 -38.916 C 45.752 -38.916 48.6328 -41.6504 48.6328 -45.4102 C 48.6328 -48.9746 45.8008 -51.4648 41.748 -51.4648 C 37.7441 -51.4648 35.2539 -49.5117 34.1309 -45.8496 C 33.6426 -44.1895 32.8125 -43.4082 31.2988 -43.4082 C 29.4922 -43.4082 28.3691 -44.6777 28.3691 -46.4844 C 28.3691 -47.2168 28.3691 -47.7051 28.4668 -48.3887 C 29.834 -53.418 34.9609 -57.3242 41.8945 -57.3242 C 49.5605 -57.3242 54.9805 -52.7344 54.9805 -46.1914 C 54.9805 -41.4551 51.6113 -37.1094 47.3633 -36.4258 L 47.3633 -36.1328 C 52.5391 -35.5957 56.3477 -31.25 56.3477 -25.7812 C 56.3477 -18.4082 50.2441 -13.1836 41.6016 -13.1836 Z M 75.9277 -13.1836 C 69.4824 -13.1836 64.4531 -16.5039 62.9395 -20.8008 C 62.5977 -21.4844 62.4512 -22.2656 62.4512 -23.1445 C 62.4512 -24.8047 63.5742 -26.0742 65.332 -26.0742 C 66.5527 -26.0742 67.5293 -25.3906 68.2617 -23.877 C 69.7754 -20.8008 72.7539 -18.9453 76.2695 -18.9453 C 81.2012 -18.9453 84.6191 -22.168 84.6191 -27.5879 C 84.6191 -32.2754 81.543 -35.8398 77.0508 -35.8398 C 74.7559 -35.8398 73.0957 -35.0586 71.0449 -33.252 C 69.3848 -31.8848 68.4082 -31.4941 66.8457 -31.4941 C 64.502 -31.4941 63.0859 -33.2031 63.2324 -35.9375 L 64.502 -51.9043 C 64.6973 -54.6387 66.4551 -56.25 69.1406 -56.25 L 86.7676 -56.25 C 88.2324 -56.25 89.3066 -55.0781 89.3066 -53.418 C 89.3066 -51.709 88.1836 -50.5371 86.7676 -50.5371 L 69.7754 -50.5371 L 68.8477 -37.3535 L 69.043 -37.3535 C 70.6055 -39.6484 74.2676 -41.3574 77.6855 -41.3574 C 85.5957 -41.3574 90.9668 -35.5957 90.9668 -27.6855 C 90.9668 -18.6523 84.9609 -13.1836 75.9277 -13.1836 Z"/>
  </g>
  <g id="Light-M" transform="matrix(1 0 0 1 1095.42 1126)">
   <path d="M 57.7148 13.7695 C 84.5215 13.7695 106.689 -8.39844 106.689 -35.2051 C 106.689 -62.0117 84.5215 -84.1797 57.666 -84.1797 C 30.8594 -84.1797 8.74023 -62.0117 8.74023 -35.2051 C 8.74023 -8.39844 30.9082 13.7695 57.7148 13.7695 Z M 40.7227 -13.4766 C 33.9355 -13.4766 28.6133 -17.5293 27.2461 -22.2168 C 27.0508 -22.7539 26.9531 -23.2422 26.9531 -23.877 C 26.9531 -25.3418 27.9785 -26.416 29.3457 -26.416 C 30.5664 -26.416 31.25 -25.7324 31.7871 -24.3652 C 33.2031 -20.5078 36.4746 -18.2129 40.7715 -18.2129 C 46.2891 -18.2129 50 -21.5332 50 -26.0254 C 50 -30.4688 46.3867 -33.5938 41.2109 -33.5938 L 37.6953 -33.5938 C 36.2793 -33.5938 35.4004 -34.5703 35.4004 -35.9375 C 35.4004 -37.4512 36.3281 -38.3789 37.6953 -38.3789 L 40.918 -38.3789 C 45.4102 -38.3789 48.6816 -41.4551 48.6816 -45.5566 C 48.6816 -49.5605 45.459 -52.2949 40.8203 -52.2949 C 36.4258 -52.2949 33.5449 -50 32.5684 -46.1914 C 32.1777 -44.7266 31.4941 -44.0918 30.2246 -44.0918 C 28.6621 -44.0918 27.7832 -45.1172 27.7832 -46.6797 C 27.7832 -47.2656 27.832 -47.7539 27.9297 -48.3398 C 29.1992 -53.418 34.375 -57.0801 40.918 -57.0801 C 48.4375 -57.0801 53.7598 -52.5879 53.7598 -46.1914 C 53.7598 -41.4551 50.3418 -37.0605 45.9961 -36.377 L 45.9961 -36.1328 C 51.2695 -35.5957 55.1758 -31.2012 55.1758 -25.8301 C 55.1758 -18.6035 49.2188 -13.4766 40.7227 -13.4766 Z M 75.1953 -13.4766 C 68.6523 -13.4766 63.7695 -16.9434 62.2559 -21.3379 C 62.0117 -21.9727 61.8652 -22.5586 61.8652 -23.2422 C 61.8652 -24.6094 62.8418 -25.5859 64.209 -25.5859 C 65.2344 -25.5859 66.0645 -24.9512 66.6016 -23.7305 C 67.9688 -20.3125 71.4355 -18.1641 75.4883 -18.1641 C 80.9082 -18.1641 84.8145 -21.875 84.8145 -27.6367 C 84.8145 -32.8613 81.25 -36.8164 76.123 -36.8164 C 73.3887 -36.8164 71.2891 -35.8398 68.8477 -33.3984 C 67.5781 -32.3242 66.7969 -32.0312 65.5762 -32.0312 C 63.7207 -32.0312 62.5488 -33.3984 62.6953 -35.5469 L 64.0625 -52.7344 C 64.1602 -54.8828 65.5762 -56.25 67.7246 -56.25 L 85.9863 -56.25 C 87.2559 -56.25 88.1348 -55.2734 88.1348 -53.9551 C 88.1348 -52.5879 87.207 -51.6113 85.9863 -51.6113 L 68.3594 -51.6113 L 67.2852 -36.9629 L 67.4805 -36.9629 C 69.2871 -39.5508 73.0469 -41.2598 76.6602 -41.2598 C 84.4727 -41.2598 89.8926 -35.5469 89.8926 -27.7344 C 89.8926 -18.9941 83.9844 -13.4766 75.1953 -13.4766 Z"/>
  </g>
  <g id="Thin-M" transform="matrix(1 0 0 1 799.806 1126)">
   <path d="M 56.6406 12.7441 C 82.9102 12.7441 104.492 -8.83789 104.492 -35.1562 C 104.492 -61.4746 82.9102 -83.0566 56.5918 -83.0566 C 30.3223 -83.0566 8.74023 -61.4746 8.74023 -35.1562 C 8.74023 -8.83789 30.3223 12.7441 56.6406 12.7441 Z M 39.5996 -13.8184 C 33.0566 -13.8184 27.9297 -17.7246 26.4648 -22.2656 C 26.2695 -22.7051 26.1719 -23.1445 26.1719 -23.6816 C 26.1719 -24.707 26.9043 -25.4883 27.8809 -25.4883 C 28.8086 -25.4883 29.2969 -24.9512 29.6387 -23.9258 C 31.0547 -19.7266 35.0586 -17.1387 39.6484 -17.1387 C 45.9473 -17.1387 50.0977 -20.8008 50.0977 -25.8789 C 50.0977 -30.7129 45.8984 -34.3262 40.1855 -34.3262 L 36.084 -34.3262 C 35.0098 -34.3262 34.4238 -35.0098 34.4238 -35.9863 C 34.4238 -37.0117 35.0586 -37.6465 36.084 -37.6465 L 39.8438 -37.6465 C 44.9219 -37.6465 48.6816 -41.1621 48.6816 -45.752 C 48.6816 -50.293 45.0195 -53.3691 39.5996 -53.3691 C 34.668 -53.3691 31.2988 -50.6348 30.4688 -46.582 C 30.2246 -45.459 29.6875 -45.0195 28.8086 -45.0195 C 27.5879 -45.0195 27.0508 -45.752 27.0508 -46.875 C 27.0508 -47.3145 27.0996 -47.8027 27.1973 -48.291 C 28.418 -53.418 33.6426 -56.6895 39.6484 -56.6895 C 46.9727 -56.6895 52.2461 -52.3438 52.2461 -46.1426 C 52.2461 -41.4551 48.7305 -37.0117 44.1895 -36.2305 L 44.1895 -36.1328 C 49.5605 -35.5469 53.6621 -31.1035 53.6621 -25.8301 C 53.6621 -18.8477 47.8027 -13.8184 39.5996 -13.8184 Z M 74.2188 -13.8184 C 67.5293 -13.8184 62.9395 -17.4805 61.377 -22.0703 C 61.2305 -22.5586 61.1328 -22.9492 61.1328 -23.3398 C 61.1328 -24.3652 61.8164 -24.9512 62.7441 -24.9512 C 63.5742 -24.9512 64.0625 -24.4141 64.3555 -23.5352 C 65.5762 -19.7266 69.6777 -17.1387 74.5117 -17.1387 C 80.5664 -17.1387 85.1074 -21.4844 85.1074 -27.6855 C 85.1074 -33.6914 80.8594 -38.0859 74.9023 -38.0859 C 71.582 -38.0859 68.8477 -36.8652 65.9668 -33.6426 C 65.2344 -32.9102 64.6973 -32.7148 63.8672 -32.7148 C 62.6465 -32.7148 61.8652 -33.5938 61.9629 -35.0098 L 63.4277 -53.8574 C 63.5254 -55.2734 64.4043 -56.2012 65.8203 -56.2012 L 85.0098 -56.2012 C 85.8887 -56.2012 86.5723 -55.5664 86.5723 -54.6387 C 86.5723 -53.6621 85.8887 -53.0273 85.0098 -53.0273 L 66.5039 -53.0273 L 65.2344 -36.4258 L 65.332 -36.4258 C 67.5293 -39.4043 71.3867 -41.1621 75.2441 -41.1621 C 83.0078 -41.1621 88.4766 -35.498 88.4766 -27.7832 C 88.4766 -19.3848 82.666 -13.8184 74.2188 -13.8184 Z"/>
  </g>
  <g id="Ultralight-M" transform="matrix(1 0 0 1 503.656 1126)">
   <path d="M 56.0547 12.207 C 82.0801 12.207 103.369 -9.08203 103.369 -35.1562 C 103.369 -61.1816 82.0801 -82.4707 56.0547 -82.4707 C 30.0293 -82.4707 8.74023 -61.1816 8.74023 -35.1562 C 8.74023 -9.08203 30.0293 12.207 56.0547 12.207 Z M 39.0625 -14.0137 C 32.6172 -14.0137 27.5879 -17.8223 26.0742 -22.3145 C 25.9277 -22.6562 25.7812 -23.0957 25.7812 -23.584 C 25.7812 -24.4141 26.3184 -25 27.1484 -25 C 27.9297 -25 28.2715 -24.5605 28.5156 -23.7305 C 29.9805 -19.3359 34.2773 -16.6016 39.0625 -16.6016 C 45.752 -16.6016 50.1465 -20.4102 50.1465 -25.8301 C 50.1465 -30.8594 45.6055 -34.7168 39.6973 -34.7168 L 35.2051 -34.7168 C 34.375 -34.7168 33.9355 -35.2051 33.9355 -35.9863 C 33.9355 -36.8164 34.4238 -37.3047 35.2051 -37.3047 L 39.3066 -37.3047 C 44.6777 -37.3047 48.6816 -41.0645 48.6816 -45.8496 C 48.6816 -50.6836 44.8242 -53.9551 38.9648 -53.9551 C 33.7891 -53.9551 30.127 -50.9766 29.3945 -46.8262 C 29.248 -45.8008 28.8086 -45.459 28.0762 -45.459 C 27.002 -45.459 26.6602 -46.0449 26.6602 -46.9727 C 26.6602 -47.3633 26.709 -47.8516 26.8555 -48.291 C 28.0273 -53.418 33.252 -56.4941 38.9648 -56.4941 C 46.1914 -56.4941 51.416 -52.1973 51.416 -46.0938 C 51.416 -41.4551 47.8516 -37.0117 43.2617 -36.1816 L 43.2617 -36.1328 C 48.6816 -35.498 52.8809 -31.1035 52.8809 -25.8301 C 52.8809 -18.9941 47.0703 -14.0137 39.0625 -14.0137 Z M 73.6816 -14.0137 C 66.9434 -14.0137 62.5 -17.7734 60.9375 -22.4609 C 60.791 -22.9004 60.7422 -23.1445 60.7422 -23.4375 C 60.7422 -24.2188 61.2793 -24.6582 61.9629 -24.6582 C 62.6953 -24.6582 63.0859 -24.1211 63.2324 -23.3887 C 64.3555 -19.3848 68.75 -16.6016 74.0234 -16.6016 C 80.4199 -16.6016 85.2051 -21.2891 85.2051 -27.7344 C 85.2051 -34.1309 80.6641 -38.7207 74.2676 -38.7207 C 70.6543 -38.7207 67.5781 -37.3535 64.4531 -33.7891 C 64.0625 -33.252 63.623 -33.0566 63.0371 -33.0566 C 62.1094 -33.0566 61.5234 -33.6914 61.5723 -34.7168 L 63.1348 -54.4434 C 63.1836 -55.4688 63.7695 -56.2012 64.8926 -56.2012 L 84.4727 -56.2012 C 85.2051 -56.2012 85.791 -55.7129 85.791 -54.9805 C 85.791 -54.248 85.2051 -53.7598 84.4727 -53.7598 L 65.5762 -53.7598 L 64.209 -36.1816 L 64.2578 -36.1816 C 66.6504 -39.3066 70.5566 -41.1133 74.5605 -41.1133 C 82.2266 -41.1133 87.793 -35.4492 87.793 -27.7832 C 87.793 -19.5801 81.9824 -14.0137 73.6816 -14.0137 Z"/>
  </g>
  <g id="Black-S" transform="matrix(1 0 0 1 2884.57 696)">
   <path d="M 48.8281 6.78711 C 71.9727 6.78711 90.8203 -12.0605 90.8203 -35.2051 C 90.8203 -58.3496 71.9727 -77.1973 48.8281 -77.1973 C 25.6836 -77.1973 6.83594 -58.3496 6.83594 -35.2051 C 6.83594 -12.0605 25.6836 6.78711 48.8281 6.78711 Z M 37.0117 -20.2637 C 32.666 -20.2637 28.6621 -22.998 27.7832 -25.8789 C 27.5879 -26.5625 27.4414 -27.1973 27.4414 -27.8809 C 27.4414 -30.127 29.248 -31.2988 30.7617 -31.2988 C 32.2754 -31.2988 33.3496 -30.7129 34.1309 -29.6387 C 34.9609 -28.3691 36.1816 -27.832 37.207 -27.832 C 38.3301 -27.832 39.0137 -28.7109 39.0137 -29.6387 C 39.0137 -30.8105 38.3301 -31.543 36.9629 -31.543 L 36.9141 -31.543 C 34.2773 -31.543 33.1543 -33.1055 33.1543 -35.3516 C 33.1543 -37.5488 34.5215 -39.1113 36.9141 -39.1113 L 36.9629 -39.1113 C 38.3301 -39.1113 38.7695 -40.1367 38.7695 -41.0156 C 38.7695 -42.2852 37.9395 -43.0664 36.9141 -43.0664 C 35.8398 -43.0664 35.0586 -42.4805 34.2285 -41.2598 C 33.4961 -40.2344 32.4707 -39.502 30.9082 -39.502 C 29.1016 -39.502 27.7344 -40.7227 27.7344 -42.9199 C 27.7344 -43.6523 27.8809 -44.3359 28.3203 -45.2637 C 29.248 -47.3633 32.373 -50.2441 37.0117 -50.2441 C 43.0664 -50.2441 46.875 -47.1191 46.875 -42.2363 C 46.875 -39.4043 44.9219 -36.7188 42.334 -36.2793 L 42.334 -35.9375 C 45.4102 -35.6934 47.4609 -32.7148 47.4609 -29.1016 C 47.4609 -23.6816 43.457 -20.2637 37.0117 -20.2637 Z M 59.8633 -20.2637 C 55.3711 -20.2637 52.3926 -22.8516 51.416 -24.7559 C 51.0254 -25.5859 50.9766 -26.2207 50.9766 -26.9043 C 50.9766 -28.9551 52.5391 -30.4199 54.3457 -30.4199 C 56.1035 -30.4199 56.6406 -29.3457 57.373 -28.8574 C 58.252 -28.2227 58.8867 -27.2949 60.3027 -27.2949 C 61.9629 -27.2949 63.0859 -28.7598 63.0859 -30.5664 C 63.0859 -32.2266 61.9629 -33.5938 60.498 -33.5938 C 59.4727 -33.5938 58.8867 -33.252 57.959 -32.6172 C 57.2754 -32.1777 56.3477 -31.6895 54.4434 -31.6895 C 52.1484 -31.6895 50.6348 -33.2031 50.7324 -35.6934 L 51.1719 -45.166 C 51.3184 -48.0469 52.6855 -49.707 55.1758 -49.707 L 65.9668 -49.707 C 68.3105 -49.707 69.5801 -48.584 69.5801 -46.2891 C 69.5801 -44.043 68.2129 -42.7734 65.9668 -42.7734 L 58.0078 -42.7734 L 57.5684 -37.1094 L 57.666 -37.1094 C 58.8379 -38.7695 60.6934 -39.6973 62.793 -39.6973 C 66.748 -39.6973 70.5078 -36.6699 70.5078 -31.0547 C 70.5078 -24.5117 66.6016 -20.2637 59.8633 -20.2637 Z"/>
  </g>
  <g id="Heavy-S" transform="matrix(1 0 0 1 2588.47 696)">
   <path d="M 48.2422 6.15234 C 70.9961 6.15234 89.5996 -12.4512 89.5996 -35.2051 C 89.5996 -57.959 70.9961 -76.6113 48.1934 -76.6113 C 25.4395 -76.6113 6.83594 -57.959 6.83594 -35.2051 C 6.83594 -12.4512 25.4395 6.15234 48.2422 6.15234 Z M 36.0352 -19.6777 C 31.3965 -19.6777 27.3438 -22.5586 26.416 -25.6836 C 26.2207 -26.3184 26.123 -26.9043 26.123 -27.5879 C 26.123 -29.6387 27.7344 -30.8105 29.248 -30.8105 C 30.7129 -30.8105 31.6895 -30.1758 32.4219 -29.0527 C 33.3008 -27.4414 34.7168 -26.6602 36.2305 -26.6602 C 37.9395 -26.6602 39.0137 -27.8809 39.0137 -29.2969 C 39.0137 -30.9082 37.9883 -31.9336 36.084 -31.9336 L 35.5469 -31.9336 C 33.2031 -31.9336 32.0801 -33.3984 32.0801 -35.4492 C 32.0801 -37.5 33.3496 -38.9648 35.5469 -38.9648 L 36.0352 -38.9648 C 37.793 -38.9648 38.623 -40.1855 38.623 -41.5039 C 38.623 -43.1152 37.5 -44.1406 36.0352 -44.1406 C 34.5215 -44.1406 33.4961 -43.3594 32.6172 -41.748 C 31.9824 -40.625 31.0059 -39.9414 29.541 -39.9414 C 27.7832 -39.9414 26.5137 -41.1133 26.5137 -43.1641 C 26.5137 -43.8965 26.6113 -44.4824 26.9531 -45.3125 C 27.9297 -47.8516 31.25 -50.8301 36.1328 -50.8301 C 42.1875 -50.8301 46.0938 -47.5586 46.0938 -42.627 C 46.0938 -39.5508 43.9941 -36.7188 41.2598 -36.2793 L 41.2598 -35.9375 C 44.5801 -35.6445 46.8262 -32.5684 46.8262 -28.8086 C 46.8262 -23.291 42.627 -19.6777 36.0352 -19.6777 Z M 59.8633 -19.6777 C 55.2246 -19.6777 52.002 -22.2656 50.9766 -24.5117 C 50.6348 -25.293 50.5371 -25.9277 50.5371 -26.6113 C 50.5371 -28.5156 52.002 -29.9316 53.7109 -29.9316 C 55.3223 -29.9316 55.9082 -28.9551 56.6406 -28.2715 C 57.6172 -27.2461 58.5938 -26.2695 60.2539 -26.2695 C 62.4023 -26.2695 63.8184 -27.9297 63.8184 -30.2246 C 63.8184 -32.3242 62.4512 -33.9844 60.5469 -33.9844 C 59.4238 -33.9844 58.6914 -33.5938 57.666 -32.8613 C 56.7871 -32.2266 55.8594 -31.7871 54.1016 -31.7871 C 51.8555 -31.7871 50.3906 -33.3008 50.5371 -35.7422 L 51.0742 -45.8008 C 51.2207 -48.584 52.6367 -50.1953 55.0781 -50.1953 L 66.5039 -50.1953 C 68.6035 -50.1953 69.8242 -49.0723 69.8242 -46.9727 C 69.8242 -44.9219 68.5547 -43.7012 66.5039 -43.7012 L 57.373 -43.7012 L 56.8848 -37.1094 L 57.0312 -37.1094 C 58.1543 -38.7695 60.2539 -39.7949 62.4512 -39.7949 C 66.9434 -39.7949 70.8008 -36.4258 70.8008 -30.6641 C 70.8008 -23.9258 66.6992 -19.6777 59.8633 -19.6777 Z"/>
  </g>
  <g id="Bold-S" transform="matrix(1 0 0 1 2292.44 696)">
   <path d="M 47.5586 5.46875 C 69.873 5.46875 88.2324 -12.8906 88.2324 -35.2051 C 88.2324 -57.5684 69.873 -75.9277 47.5098 -75.9277 C 25.1953 -75.9277 6.83594 -57.5684 6.83594 -35.2051 C 6.83594 -12.8906 25.1953 5.46875 47.5586 5.46875 Z M 35.0098 -19.043 C 30.0293 -19.043 25.8789 -22.1191 24.9023 -25.4395 C 24.7559 -26.0254 24.6582 -26.5625 24.6582 -27.1973 C 24.6582 -29.1016 26.0742 -30.2246 27.5879 -30.2246 C 28.9551 -30.2246 29.8828 -29.6387 30.5176 -28.3691 C 31.4941 -26.416 33.0566 -25.3906 35.1074 -25.3906 C 37.4512 -25.3906 39.0625 -26.9531 39.0625 -28.8574 C 39.0625 -31.0059 37.5977 -32.373 35.1074 -32.373 L 34.0332 -32.373 C 31.9336 -32.373 30.9082 -33.7402 30.9082 -35.5469 C 30.9082 -37.4512 32.0801 -38.7695 34.0332 -38.7695 L 35.0098 -38.7695 C 37.1582 -38.7695 38.4277 -40.2344 38.4277 -42.0898 C 38.4277 -43.9941 36.9629 -45.3125 35.0586 -45.3125 C 33.0078 -45.3125 31.7383 -44.3359 30.8594 -42.334 C 30.2734 -41.1133 29.3945 -40.4297 27.9785 -40.4297 C 26.3184 -40.4297 25.0977 -41.5527 25.0977 -43.457 C 25.0977 -44.1406 25.1953 -44.6777 25.4395 -45.4102 C 26.4648 -48.4375 30.0293 -51.4648 35.1562 -51.4648 C 41.2109 -51.4648 45.2637 -48.0957 45.2637 -43.0176 C 45.2637 -39.7461 42.9688 -36.7188 40.0391 -36.2305 L 40.0391 -35.9375 C 43.6035 -35.5957 46.0938 -32.4219 46.0938 -28.4668 C 46.0938 -22.8027 41.6504 -19.043 35.0098 -19.043 Z M 59.8633 -19.043 C 55.127 -19.043 51.5625 -21.6309 50.4883 -24.2188 C 50.1953 -24.9023 50.0977 -25.5859 50.0977 -26.3184 C 50.0977 -28.0762 51.3672 -29.3457 53.0273 -29.3457 C 54.3945 -29.3457 55.127 -28.5156 55.8105 -27.6367 C 56.8848 -26.1719 58.252 -25.0977 60.2051 -25.0977 C 62.8418 -25.0977 64.6484 -26.9531 64.6484 -29.8828 C 64.6484 -32.4219 62.9883 -34.4238 60.6445 -34.4238 C 59.3262 -34.4238 58.5449 -33.9844 57.3242 -33.1055 C 56.25 -32.2754 55.3223 -31.8848 53.7109 -31.8848 C 51.5137 -31.8848 50.1465 -33.3984 50.293 -35.8398 L 50.9766 -46.5332 C 51.123 -49.1699 52.5879 -50.6836 55.0293 -50.6836 L 67.1387 -50.6836 C 68.9453 -50.6836 70.0684 -49.6094 70.0684 -47.7539 C 70.0684 -45.8984 68.8965 -44.7266 67.1387 -44.7266 L 56.6895 -44.7266 L 56.1523 -37.1094 L 56.25 -37.1094 C 57.373 -38.7695 59.7656 -39.8926 62.0605 -39.8926 C 67.1875 -39.8926 71.1426 -36.084 71.1426 -30.1758 C 71.1426 -23.291 66.7969 -19.043 59.8633 -19.043 Z"/>
  </g>
  <g id="Semibold-S" transform="matrix(1 0 0 1 1996.2 696)">
   <path d="M 47.0703 4.98047 C 69.0918 4.98047 87.3047 -13.1836 87.3047 -35.2539 C 87.3047 -57.2754 69.0918 -75.4883 47.0215 -75.4883 C 25 -75.4883 6.83594 -57.2754 6.83594 -35.2539 C 6.83594 -13.1836 25.0488 4.98047 47.0703 4.98047 Z M 34.2773 -18.6035 C 29.0527 -18.6035 24.8535 -21.7773 23.877 -25.2441 C 23.6816 -25.8789 23.6328 -26.3184 23.6328 -26.9531 C 23.6328 -28.7598 24.9512 -29.8828 26.416 -29.8828 C 27.7344 -29.8828 28.6133 -29.1992 29.248 -27.9297 C 30.2246 -25.6836 31.9336 -24.5117 34.375 -24.5117 C 37.1582 -24.5117 39.0625 -26.3184 39.0625 -28.6133 C 39.0625 -31.1035 37.3047 -32.666 34.4238 -32.666 L 32.959 -32.666 C 31.1035 -32.666 30.0781 -33.9355 30.0781 -35.6445 C 30.0781 -37.4023 31.2012 -38.623 32.959 -38.623 L 34.3262 -38.623 C 36.7676 -38.623 38.2812 -40.2832 38.2812 -42.4805 C 38.2812 -44.6289 36.6211 -46.0938 34.375 -46.0938 C 31.9824 -46.0938 30.5664 -45.0195 29.6387 -42.7246 C 29.1016 -41.4062 28.3203 -40.7227 26.9043 -40.7227 C 25.293 -40.7227 24.1211 -41.8945 24.1211 -43.6523 C 24.1211 -44.2871 24.1699 -44.7754 24.4141 -45.459 C 25.4395 -48.7793 29.1504 -51.9043 34.4727 -51.9043 C 40.5273 -51.9043 44.6289 -48.4375 44.6289 -43.3105 C 44.6289 -39.8926 42.2363 -36.7188 39.209 -36.2305 L 39.209 -35.9375 C 42.9199 -35.5957 45.5566 -32.3242 45.5566 -28.2227 C 45.5566 -22.5098 41.0156 -18.6035 34.2773 -18.6035 Z M 59.8633 -18.6035 C 55.0293 -18.6035 51.2695 -21.1426 50.1953 -24.0234 C 49.8535 -24.6582 49.7559 -25.3418 49.7559 -26.0742 C 49.7559 -27.7344 50.9277 -28.9551 52.5391 -28.9551 C 53.8086 -28.9551 54.5898 -28.2227 55.2734 -27.1973 C 56.3965 -25.4395 58.0566 -24.2676 60.1562 -24.2676 C 63.1836 -24.2676 65.1855 -26.3184 65.1855 -29.6387 C 65.1855 -32.4707 63.3789 -34.7168 60.6934 -34.7168 C 59.2773 -34.7168 58.3984 -34.2773 57.0801 -33.252 C 55.8594 -32.3242 54.9805 -31.9336 53.4668 -31.9336 C 51.3184 -31.9336 50 -33.4473 50.0977 -35.8887 L 50.8789 -47.0215 C 51.0254 -49.5605 52.5391 -51.0742 54.9805 -51.0742 L 67.5781 -51.0742 C 69.1895 -51.0742 70.2148 -50 70.2148 -48.291 C 70.2148 -46.582 69.1406 -45.459 67.5781 -45.459 L 56.2012 -45.459 L 55.6152 -37.1094 L 55.7617 -37.1094 C 56.8848 -38.7695 59.375 -39.9414 61.8164 -39.9414 C 67.334 -39.9414 71.3379 -35.8887 71.3379 -29.8828 C 71.3379 -22.9004 66.8945 -18.6035 59.8633 -18.6035 Z"/>
  </g>
  <g id="Medium-S" transform="matrix(1 0 0 1 1699.83 696)">
   <path d="M 46.7285 4.63867 C 68.5547 4.63867 86.6211 -13.4277 86.6211 -35.2539 C 86.6211 -57.0312 68.5059 -75.1465 46.6797 -75.1465 C 24.8535 -75.1465 6.83594 -57.0312 6.83594 -35.2539 C 6.83594 -13.4277 24.9023 4.63867 46.7285 4.63867 Z M 33.6914 -18.2617 C 28.3203 -18.2617 24.0723 -21.5332 23.0469 -25.1465 C 22.9004 -25.7324 22.8516 -26.1719 22.8516 -26.7578 C 22.8516 -28.4668 24.0723 -29.5898 25.5371 -29.5898 C 26.8066 -29.5898 27.6367 -28.9062 28.2227 -27.5391 C 29.248 -25.1465 31.0547 -23.8281 33.7891 -23.8281 C 36.9141 -23.8281 39.0625 -25.8301 39.0625 -28.3691 C 39.0625 -31.1523 37.1094 -32.9102 33.8867 -32.9102 L 32.1289 -32.9102 C 30.4688 -32.9102 29.4434 -34.1309 29.4434 -35.6934 C 29.4434 -37.4023 30.5176 -38.5254 32.1289 -38.5254 L 33.7891 -38.5254 C 36.4258 -38.5254 38.2324 -40.332 38.2324 -42.7734 C 38.2324 -45.1172 36.377 -46.7285 33.8379 -46.7285 C 31.25 -46.7285 29.6387 -45.5078 28.7109 -43.0176 C 28.2227 -41.6504 27.4414 -40.9668 26.0742 -40.9668 C 24.5117 -40.9668 23.4375 -42.0898 23.4375 -43.7988 C 23.4375 -44.4336 23.4375 -44.873 23.584 -45.5078 C 24.6582 -49.0723 28.5156 -52.2461 33.9844 -52.2461 C 40.0391 -52.2461 44.1895 -48.6816 44.1895 -43.5547 C 44.1895 -39.9414 41.6992 -36.7188 38.5742 -36.2305 L 38.5742 -35.9375 C 42.4316 -35.5469 45.2148 -32.2266 45.2148 -28.0762 C 45.2148 -22.2656 40.5273 -18.2617 33.6914 -18.2617 Z M 59.8633 -18.2617 C 54.9316 -18.2617 51.0742 -20.8008 49.9512 -23.877 C 49.6094 -24.4629 49.5117 -25.1953 49.5117 -25.9277 C 49.5117 -27.4902 50.5859 -28.6621 52.1973 -28.6621 C 53.3203 -28.6621 54.1504 -28.0273 54.834 -26.8555 C 56.0059 -24.9023 57.8613 -23.6816 60.1074 -23.6816 C 63.4277 -23.6816 65.625 -25.7812 65.625 -29.4434 C 65.625 -32.5684 63.623 -34.9609 60.7422 -34.9609 C 59.2773 -34.9609 58.3008 -34.4727 56.9336 -33.3984 C 55.5664 -32.373 54.6875 -31.9824 53.2227 -31.9824 C 51.123 -31.9824 49.8535 -33.4961 50 -35.9375 L 50.8301 -47.4121 C 50.9766 -49.9023 52.5391 -51.3672 54.9316 -51.3672 L 67.9199 -51.3672 C 69.3848 -51.3672 70.3613 -50.293 70.3613 -48.7305 C 70.3613 -47.0703 69.3359 -45.9961 67.9199 -45.9961 L 55.8105 -45.9961 L 55.2246 -37.1094 L 55.3711 -37.1094 C 56.4453 -38.7695 59.1309 -39.9902 61.6211 -39.9902 C 67.4316 -39.9902 71.5332 -35.7422 71.5332 -29.6387 C 71.5332 -22.5586 66.9434 -18.2617 59.8633 -18.2617 Z"/>
  </g>
  <g id="Regular-S" transform="matrix(1 0 0 1 1403.58 696)">
   <path d="M 46.2402 4.15039 C 67.7734 4.15039 85.6934 -13.7207 85.6934 -35.2539 C 85.6934 -56.7871 67.7246 -74.6582 46.1914 -74.6582 C 24.707 -74.6582 6.83594 -56.7871 6.83594 -35.2539 C 6.83594 -13.7207 24.7559 4.15039 46.2402 4.15039 Z M 32.959 -17.8223 C 27.3926 -17.8223 23.0469 -21.1914 22.0215 -24.9512 C 21.875 -25.5371 21.8262 -25.9277 21.8262 -26.5625 C 21.8262 -28.0762 22.9004 -29.1992 24.3652 -29.1992 C 25.6348 -29.1992 26.3672 -28.5156 26.9531 -27.0996 C 28.0273 -24.4141 29.9805 -22.9492 33.0078 -22.9492 C 36.5723 -22.9492 39.0625 -25.1953 39.0625 -28.125 C 39.0625 -31.25 36.8652 -33.2031 33.252 -33.2031 L 31.1035 -33.2031 C 29.6387 -33.2031 28.6621 -34.3262 28.6621 -35.7422 C 28.6621 -37.3535 29.6387 -38.3789 31.1035 -38.3789 L 33.0566 -38.3789 C 36.0352 -38.3789 38.0859 -40.332 38.0859 -43.1152 C 38.0859 -45.752 36.0352 -47.5586 33.1543 -47.5586 C 30.2246 -47.5586 28.4668 -46.1914 27.4902 -43.4082 C 27.0508 -41.9922 26.3672 -41.3086 25.0488 -41.3086 C 23.4863 -41.3086 22.4609 -42.3828 22.4609 -43.9941 C 22.4609 -44.5801 22.4609 -44.9707 22.5586 -45.5566 C 23.6328 -49.4629 27.6367 -52.6855 33.3008 -52.6855 C 39.3555 -52.6855 43.6035 -49.0234 43.6035 -43.8477 C 43.6035 -40.0879 41.0156 -36.7188 37.793 -36.2305 L 37.793 -35.9375 C 41.7969 -35.5469 44.6777 -32.1289 44.6777 -27.832 C 44.6777 -21.9727 39.8926 -17.8223 32.959 -17.8223 Z M 59.8633 -17.8223 C 54.834 -17.8223 50.7812 -20.3613 49.6094 -23.6816 C 49.3164 -24.2188 49.1699 -24.9512 49.1699 -25.6836 C 49.1699 -27.1484 50.1953 -28.2715 51.709 -28.2715 C 52.7344 -28.2715 53.6133 -27.7344 54.2969 -26.416 C 55.5176 -24.1699 57.666 -22.8516 60.1074 -22.8516 C 63.7207 -22.8516 66.2109 -25.1465 66.2109 -29.1992 C 66.2109 -32.6172 64.0137 -35.2539 60.791 -35.2539 C 59.2285 -35.2539 58.1543 -34.7168 56.6895 -33.5938 C 55.1758 -32.373 54.3457 -32.0801 52.9785 -32.0801 C 50.8789 -32.0801 49.6582 -33.5938 49.8047 -35.9863 L 50.7812 -47.9004 C 50.8789 -50.293 52.4902 -51.709 54.834 -51.709 L 68.3594 -51.709 C 69.6289 -51.709 70.5078 -50.6836 70.5078 -49.2676 C 70.5078 -47.7539 69.5801 -46.6797 68.3594 -46.6797 L 55.3711 -46.6797 L 54.6875 -37.1094 L 54.8828 -37.1094 C 55.957 -38.7695 58.7891 -40.0879 61.377 -40.0879 C 67.5781 -40.0879 71.7773 -35.5469 71.7773 -29.2969 C 71.7773 -22.1191 67.041 -17.8223 59.8633 -17.8223 Z"/>
  </g>
  <g id="Light-S" transform="matrix(1 0 0 1 1107.6 696)">
   <path d="M 45.5078 3.4668 C 66.6992 3.4668 84.2285 -14.0625 84.2285 -35.2051 C 84.2285 -56.3965 66.6504 -73.9258 45.5078 -73.9258 C 24.3164 -73.9258 6.83594 -56.3965 6.83594 -35.2051 C 6.83594 -14.0625 24.3652 3.4668 45.5078 3.4668 Z M 32.2266 -18.0664 C 26.8066 -18.0664 22.6074 -21.3379 21.5332 -25 C 21.3867 -25.4883 21.3379 -25.8789 21.3379 -26.416 C 21.3379 -27.6855 22.2168 -28.5645 23.3887 -28.5645 C 24.4629 -28.5645 25.0488 -28.0273 25.4883 -26.8066 C 26.6113 -23.9258 29.0039 -22.2168 32.2754 -22.2168 C 36.3281 -22.2168 39.1113 -24.707 39.1113 -28.0273 C 39.1113 -31.3965 36.5234 -33.6914 32.5684 -33.6914 L 30.0293 -33.6914 C 28.8086 -33.6914 27.9785 -34.6191 27.9785 -35.791 C 27.9785 -37.0605 28.8086 -37.8906 30.0293 -37.8906 L 32.373 -37.8906 C 35.6934 -37.8906 38.0859 -40.1855 38.0859 -43.2617 C 38.0859 -46.2402 35.7422 -48.291 32.3242 -48.291 C 29.0527 -48.291 26.9531 -46.6309 26.0742 -43.7012 C 25.7812 -42.4805 25.1465 -41.8945 24.0723 -41.8945 C 22.7539 -41.8945 21.9727 -42.8223 21.9727 -44.1406 C 21.9727 -44.6289 21.9727 -45.0195 22.0703 -45.5078 C 23.0957 -49.4629 27.1484 -52.4414 32.4219 -52.4414 C 38.3789 -52.4414 42.5781 -48.877 42.5781 -43.7988 C 42.5781 -40.0879 39.9414 -36.6699 36.5723 -36.1328 L 36.5723 -35.9375 C 40.625 -35.498 43.6523 -32.0801 43.6523 -27.832 C 43.6523 -22.1191 38.916 -18.0664 32.2266 -18.0664 Z M 59.1797 -18.0664 C 54.1016 -18.0664 50.1953 -20.752 49.0234 -24.1699 C 48.7793 -24.6582 48.6816 -25.1953 48.6816 -25.7812 C 48.6816 -27.002 49.5117 -27.8809 50.7324 -27.8809 C 51.6113 -27.8809 52.2949 -27.3438 52.7832 -26.2695 C 53.9551 -23.7305 56.4453 -22.168 59.4238 -22.168 C 63.4766 -22.168 66.3574 -24.9023 66.3574 -29.248 C 66.3574 -33.1543 63.7695 -36.084 59.9609 -36.084 C 58.0078 -36.084 56.543 -35.4004 54.7363 -33.7402 C 53.6133 -32.8125 52.9297 -32.5195 51.8555 -32.5195 C 50.1953 -32.5195 49.2188 -33.7402 49.3164 -35.6445 L 50.3418 -48.6328 C 50.4395 -50.5371 51.709 -51.709 53.6133 -51.709 L 67.6758 -51.709 C 68.7012 -51.709 69.4824 -50.8789 69.4824 -49.707 C 69.4824 -48.4863 68.7012 -47.6562 67.6758 -47.6562 L 54.1016 -47.6562 L 53.3203 -36.7676 L 53.4668 -36.7676 C 54.7852 -38.6719 57.7148 -39.9902 60.4492 -39.9902 C 66.6016 -39.9902 70.8008 -35.498 70.8008 -29.3457 C 70.8008 -22.3633 66.1621 -18.0664 59.1797 -18.0664 Z"/>
  </g>
  <g id="Thin-S" transform="matrix(1 0 0 1 811.867 696)">
   <path d="M 44.5801 2.53906 C 65.2832 2.53906 82.2754 -14.4531 82.2754 -35.2051 C 82.2754 -55.9082 65.2344 -72.9004 44.5312 -72.9004 C 23.8281 -72.9004 6.83594 -55.9082 6.83594 -35.2051 C 6.83594 -14.4531 23.877 2.53906 44.5801 2.53906 Z M 31.25 -18.4082 C 26.0742 -18.4082 22.0215 -21.4844 20.8984 -25.0488 C 20.752 -25.4395 20.6543 -25.7812 20.6543 -26.2207 C 20.6543 -27.0996 21.2402 -27.7832 22.1191 -27.7832 C 22.9004 -27.7832 23.3398 -27.3438 23.6328 -26.4648 C 24.707 -23.2422 27.7344 -21.2891 31.25 -21.2891 C 36.0352 -21.2891 39.209 -24.0723 39.209 -27.9297 C 39.209 -31.6406 36.0352 -34.375 31.6895 -34.375 L 28.5645 -34.375 C 27.6855 -34.375 27.1484 -34.9609 27.1484 -35.791 C 27.1484 -36.7188 27.6855 -37.2559 28.5645 -37.2559 L 31.3965 -37.2559 C 35.3027 -37.2559 38.1348 -39.9414 38.1348 -43.457 C 38.1348 -46.875 35.3516 -49.2188 31.25 -49.2188 C 27.4902 -49.2188 24.9512 -47.168 24.2676 -44.043 C 24.0234 -43.1152 23.584 -42.7246 22.8027 -42.7246 C 21.8262 -42.7246 21.3379 -43.3594 21.3379 -44.2871 C 21.3379 -44.6777 21.3379 -45.0684 21.4355 -45.5078 C 22.4121 -49.4629 26.5137 -52.0996 31.2988 -52.0996 C 37.0605 -52.0996 41.2109 -48.6816 41.2109 -43.7988 C 41.2109 -40.0879 38.4766 -36.6699 34.9609 -36.0352 L 34.9609 -35.9375 C 39.1602 -35.498 42.334 -32.0312 42.334 -27.8809 C 42.334 -22.3633 37.6953 -18.4082 31.25 -18.4082 Z M 58.3008 -18.4082 C 53.125 -18.4082 49.4629 -21.2402 48.2422 -24.8047 C 48.0957 -25.1953 48.0469 -25.5371 48.0469 -25.8789 C 48.0469 -26.7578 48.6328 -27.2949 49.4141 -27.2949 C 50.0977 -27.2949 50.5859 -26.8555 50.8301 -26.0742 C 51.8066 -23.1934 54.8828 -21.2402 58.5449 -21.2402 C 63.1836 -21.2402 66.6016 -24.5605 66.6016 -29.2969 C 66.6016 -33.8867 63.4277 -37.207 58.8867 -37.207 C 56.4453 -37.207 54.3945 -36.2793 52.1973 -33.9355 C 51.5625 -33.3008 51.0742 -33.1055 50.3418 -33.1055 C 49.2676 -33.1055 48.584 -33.8867 48.6816 -35.1562 L 49.8047 -49.6094 C 49.9023 -50.8789 50.6836 -51.6602 51.9531 -51.6602 L 66.7969 -51.6602 C 67.5293 -51.6602 68.1152 -51.123 68.1152 -50.293 C 68.1152 -49.4629 67.5293 -48.9258 66.7969 -48.9258 L 52.4414 -48.9258 L 51.5137 -36.2793 L 51.5625 -36.2793 C 53.2227 -38.5254 56.25 -39.8926 59.2285 -39.8926 C 65.2832 -39.8926 69.5801 -35.4492 69.5801 -29.3457 C 69.5801 -22.7051 64.9902 -18.4082 58.3008 -18.4082 Z"/>
  </g>
  <g id="Ultralight-S" transform="matrix(1 0 0 1 515.644 696)">
   <path d="M 44.043 2.05078 C 64.502 2.05078 81.2988 -14.6973 81.2988 -35.1562 C 81.2988 -55.6152 64.502 -72.3633 44.043 -72.3633 C 23.584 -72.3633 6.83594 -55.6152 6.83594 -35.1562 C 6.83594 -14.6973 23.584 2.05078 44.043 2.05078 Z M 30.7129 -18.5547 C 25.6836 -18.5547 21.6797 -21.582 20.5566 -25.0977 C 20.4102 -25.3906 20.3125 -25.7324 20.3125 -26.123 C 20.3125 -26.8066 20.752 -27.3438 21.4355 -27.3438 C 22.1191 -27.3438 22.4121 -27.002 22.6562 -26.2695 C 23.7793 -22.9004 27.0508 -20.752 30.7129 -20.752 C 35.8887 -20.752 39.2578 -23.7305 39.2578 -27.8809 C 39.2578 -31.7383 35.791 -34.7168 31.2012 -34.7168 L 27.832 -34.7168 C 27.0996 -34.7168 26.709 -35.1562 26.709 -35.8398 C 26.709 -36.5234 27.1484 -36.9629 27.832 -36.9629 L 30.9082 -36.9629 C 35.0586 -36.9629 38.1348 -39.8438 38.1348 -43.5547 C 38.1348 -47.2168 35.1562 -49.7559 30.7129 -49.7559 C 26.709 -49.7559 23.9258 -47.5098 23.291 -44.2383 C 23.1445 -43.4082 22.8027 -43.1152 22.168 -43.1152 C 21.2891 -43.1152 20.9961 -43.6523 20.9961 -44.4336 C 20.9961 -44.7266 21.0449 -45.1172 21.1426 -45.459 C 22.0703 -49.4629 26.1719 -51.9531 30.7129 -51.9531 C 36.377 -51.9531 40.4785 -48.584 40.4785 -43.75 C 40.4785 -40.0879 37.7441 -36.6211 34.1309 -35.9863 L 34.1309 -35.9375 C 38.3789 -35.4492 41.6016 -31.9824 41.6016 -27.8809 C 41.6016 -22.4609 37.0605 -18.5547 30.7129 -18.5547 Z M 57.8613 -18.5547 C 52.5879 -18.5547 49.0723 -21.4844 47.8516 -25.0977 C 47.7539 -25.4883 47.7051 -25.6836 47.7051 -25.9766 C 47.7051 -26.6602 48.1445 -27.002 48.7305 -27.002 C 49.3652 -27.002 49.6582 -26.6113 49.8535 -25.9766 C 50.7324 -22.9004 54.1016 -20.752 58.1055 -20.752 C 63.0371 -20.752 66.6992 -24.3652 66.6992 -29.3457 C 66.6992 -34.2285 63.2324 -37.793 58.3496 -37.793 C 55.6152 -37.793 53.2715 -36.7676 50.8789 -34.0332 C 50.4883 -33.5938 50.0977 -33.4473 49.6094 -33.4473 C 48.7793 -33.4473 48.2422 -34.0332 48.3398 -34.9121 L 49.5117 -50.1465 C 49.5605 -51.0254 50.1465 -51.6602 51.0742 -51.6602 L 66.3086 -51.6602 C 66.9434 -51.6602 67.3828 -51.2207 67.3828 -50.6348 C 67.3828 -50 66.9434 -49.5605 66.3086 -49.5605 L 51.6113 -49.5605 L 50.5371 -36.0352 L 50.6348 -36.0352 C 52.4414 -38.4277 55.5176 -39.8438 58.5938 -39.8438 C 64.5996 -39.8438 68.9453 -35.4004 68.9453 -29.3945 C 68.9453 -22.9004 64.4043 -18.5547 57.8613 -18.5547 Z"/>
  </g>
 </g>
</svg>
