<?xml version="1.0" encoding="UTF-8"?>
<!--Generator: Apple Native CoreSVG 123-->
<!DOCTYPE svg
PUBLIC "-//W3C//DTD SVG 1.1//EN"
       "http://www.w3.org/Graphics/SVG/1.1/DTD/svg11.dtd">
<svg version="1.1" xmlns="http://www.w3.org/2000/svg" xmlns:xlink="http://www.w3.org/1999/xlink" width="3300" height="2200">
 <!--glyph: "uni1006A0.medium", point size: 100.000000, font version: "Version 15.0d7e11", template writer version: "5"-->
 <g id="Notes">
  <rect height="2200" id="artboard" style="fill:white;opacity:1" width="3300" x="0" y="0"/>
  <line id="" style="fill:none;stroke:black;opacity:1;stroke-width:0.5;" x1="263" x2="3036" y1="292" y2="292"/>
  <text style="stroke:none;fill:black;font-family:-apple-system,&quot;SF Pro Display&quot;,&quot;SF Pro Text&quot;,Helvetica,sans-serif;font-weight:bold;" transform="matrix(1 0 0 1 263 322)">Weight/Scale Variations</text>
  <text style="stroke:none;fill:black;font-family:-apple-system,&quot;SF Pro Display&quot;,&quot;SF Pro Text&quot;,Helvetica,sans-serif;text-anchor:middle;" transform="matrix(1 0 0 1 559.711 322)">Ultralight</text>
  <text style="stroke:none;fill:black;font-family:-apple-system,&quot;SF Pro Display&quot;,&quot;SF Pro Text&quot;,Helvetica,sans-serif;text-anchor:middle;" transform="matrix(1 0 0 1 856.422 322)">Thin</text>
  <text style="stroke:none;fill:black;font-family:-apple-system,&quot;SF Pro Display&quot;,&quot;SF Pro Text&quot;,Helvetica,sans-serif;text-anchor:middle;" transform="matrix(1 0 0 1 1153.13 322)">Light</text>
  <text style="stroke:none;fill:black;font-family:-apple-system,&quot;SF Pro Display&quot;,&quot;SF Pro Text&quot;,Helvetica,sans-serif;text-anchor:middle;" transform="matrix(1 0 0 1 1449.84 322)">Regular</text>
  <text style="stroke:none;fill:black;font-family:-apple-system,&quot;SF Pro Display&quot;,&quot;SF Pro Text&quot;,Helvetica,sans-serif;text-anchor:middle;" transform="matrix(1 0 0 1 1746.56 322)">Medium</text>
  <text style="stroke:none;fill:black;font-family:-apple-system,&quot;SF Pro Display&quot;,&quot;SF Pro Text&quot;,Helvetica,sans-serif;text-anchor:middle;" transform="matrix(1 0 0 1 2043.27 322)">Semibold</text>
  <text style="stroke:none;fill:black;font-family:-apple-system,&quot;SF Pro Display&quot;,&quot;SF Pro Text&quot;,Helvetica,sans-serif;text-anchor:middle;" transform="matrix(1 0 0 1 2339.98 322)">Bold</text>
  <text style="stroke:none;fill:black;font-family:-apple-system,&quot;SF Pro Display&quot;,&quot;SF Pro Text&quot;,Helvetica,sans-serif;text-anchor:middle;" transform="matrix(1 0 0 1 2636.69 322)">Heavy</text>
  <text style="stroke:none;fill:black;font-family:-apple-system,&quot;SF Pro Display&quot;,&quot;SF Pro Text&quot;,Helvetica,sans-serif;text-anchor:middle;" transform="matrix(1 0 0 1 2933.4 322)">Black</text>
  <line id="" style="fill:none;stroke:black;opacity:1;stroke-width:0.5;" x1="263" x2="3036" y1="1903" y2="1903"/>
  <g id="" transform="matrix(1 0 0 1 263 1933)">
   <path d="M 9.24805 0.830078 C 13.5547 0.830078 17.1387 -2.74414 17.1387 -7.05078 C 17.1387 -11.3574 13.5449 -14.9316 9.23828 -14.9316 C 4.94141 -14.9316 1.36719 -11.3574 1.36719 -7.05078 C 1.36719 -2.74414 4.95117 0.830078 9.24805 0.830078 Z M 9.24805 -0.654297 C 5.70312 -0.654297 2.87109 -3.49609 2.87109 -7.05078 C 2.87109 -10.6055 5.69336 -13.4473 9.23828 -13.4473 C 12.793 -13.4473 15.6348 -10.6055 15.6445 -7.05078 C 15.6543 -3.49609 12.8027 -0.654297 9.24805 -0.654297 Z M 9.22852 -3.42773 C 9.69727 -3.42773 9.9707 -3.74023 9.9707 -4.25781 L 9.9707 -6.31836 L 12.1973 -6.31836 C 12.6953 -6.31836 13.0371 -6.57227 13.0371 -7.04102 C 13.0371 -7.51953 12.7148 -7.7832 12.1973 -7.7832 L 9.9707 -7.7832 L 9.9707 -10.0098 C 9.9707 -10.5273 9.69727 -10.8496 9.22852 -10.8496 C 8.75977 -10.8496 8.50586 -10.5078 8.50586 -10.0098 L 8.50586 -7.7832 L 6.29883 -7.7832 C 5.78125 -7.7832 5.44922 -7.51953 5.44922 -7.04102 C 5.44922 -6.57227 5.80078 -6.31836 6.29883 -6.31836 L 8.50586 -6.31836 L 8.50586 -4.25781 C 8.50586 -3.75977 8.75977 -3.42773 9.22852 -3.42773 Z"/>
  </g>
  <g id="" transform="matrix(1 0 0 1 281.506 1933)">
   <path d="M 11.709 2.91016 C 17.1582 2.91016 21.6699 -1.60156 21.6699 -7.05078 C 21.6699 -12.4902 17.1484 -17.0117 11.6992 -17.0117 C 6.25977 -17.0117 1.74805 -12.4902 1.74805 -7.05078 C 1.74805 -1.60156 6.26953 2.91016 11.709 2.91016 Z M 11.709 1.25 C 7.09961 1.25 3.41797 -2.44141 3.41797 -7.05078 C 3.41797 -11.6504 7.08984 -15.3516 11.6992 -15.3516 C 16.3086 -15.3516 20 -11.6504 20.0098 -7.05078 C 20.0195 -2.44141 16.3184 1.25 11.709 1.25 Z M 11.6895 -2.41211 C 12.207 -2.41211 12.5195 -2.77344 12.5195 -3.33984 L 12.5195 -6.23047 L 15.5762 -6.23047 C 16.123 -6.23047 16.5039 -6.51367 16.5039 -7.03125 C 16.5039 -7.55859 16.1426 -7.86133 15.5762 -7.86133 L 12.5195 -7.86133 L 12.5195 -10.9277 C 12.5195 -11.5039 12.207 -11.8555 11.6895 -11.8555 C 11.1719 -11.8555 10.8789 -11.4844 10.8789 -10.9277 L 10.8789 -7.86133 L 7.83203 -7.86133 C 7.26562 -7.86133 6.89453 -7.55859 6.89453 -7.03125 C 6.89453 -6.51367 7.28516 -6.23047 7.83203 -6.23047 L 10.8789 -6.23047 L 10.8789 -3.33984 C 10.8789 -2.79297 11.1719 -2.41211 11.6895 -2.41211 Z"/>
  </g>
  <g id="" transform="matrix(1 0 0 1 304.924 1933)">
   <path d="M 14.9707 5.67383 C 21.9336 5.67383 27.6953 -0.078125 27.6953 -7.04102 C 27.6953 -14.0039 21.9238 -19.7559 14.9609 -19.7559 C 8.00781 -19.7559 2.25586 -14.0039 2.25586 -7.04102 C 2.25586 -0.078125 8.01758 5.67383 14.9707 5.67383 Z M 14.9707 3.85742 C 8.93555 3.85742 4.08203 -1.00586 4.08203 -7.04102 C 4.08203 -13.0762 8.92578 -17.9395 14.9609 -17.9395 C 21.0059 -17.9395 25.8594 -13.0762 25.8691 -7.04102 C 25.8789 -1.00586 21.0156 3.85742 14.9707 3.85742 Z M 14.9512 -1.06445 C 15.5176 -1.06445 15.8691 -1.45508 15.8691 -2.06055 L 15.8691 -6.13281 L 20.1074 -6.13281 C 20.6934 -6.13281 21.1133 -6.46484 21.1133 -7.02148 C 21.1133 -7.59766 20.7227 -7.93945 20.1074 -7.93945 L 15.8691 -7.93945 L 15.8691 -12.1875 C 15.8691 -12.8027 15.5176 -13.1934 14.9512 -13.1934 C 14.3848 -13.1934 14.0625 -12.7832 14.0625 -12.1875 L 14.0625 -7.93945 L 9.83398 -7.93945 C 9.21875 -7.93945 8.80859 -7.59766 8.80859 -7.02148 C 8.80859 -6.46484 9.23828 -6.13281 9.83398 -6.13281 L 14.0625 -6.13281 L 14.0625 -2.06055 C 14.0625 -1.47461 14.3848 -1.06445 14.9512 -1.06445 Z"/>
  </g>
  <text style="stroke:none;fill:black;font-family:-apple-system,&quot;SF Pro Display&quot;,&quot;SF Pro Text&quot;,Helvetica,sans-serif;font-weight:bold;" transform="matrix(1 0 0 1 263 1953)">Design Variations</text>
  <text style="stroke:none;fill:black;font-family:-apple-system,&quot;SF Pro Display&quot;,&quot;SF Pro Text&quot;,Helvetica,sans-serif;" transform="matrix(1 0 0 1 263 1971)">Symbols are supported in up to nine weights and three scales.</text>
  <text style="stroke:none;fill:black;font-family:-apple-system,&quot;SF Pro Display&quot;,&quot;SF Pro Text&quot;,Helvetica,sans-serif;" transform="matrix(1 0 0 1 263 1989)">For optimal layout with text and other symbols, vertically align</text>
  <text style="stroke:none;fill:black;font-family:-apple-system,&quot;SF Pro Display&quot;,&quot;SF Pro Text&quot;,Helvetica,sans-serif;" transform="matrix(1 0 0 1 263 2007)">symbols with the adjacent text.</text>
  <rect height="14" id="" style="fill:#00AEEF;stroke:none;opacity:0.4;" width="3" x="776" y="1919"/>
  <g id="" transform="matrix(1 0 0 1 779 1933)">
   <path d="M 10.5273 0 L 12.373 0 L 7.17773 -14.0918 L 5.43945 -14.0918 L 0.244141 0 L 2.08984 0 L 3.50586 -4.0332 L 9.11133 -4.0332 Z M 6.2793 -11.9531 L 6.33789 -11.9531 L 8.59375 -5.52734 L 4.02344 -5.52734 Z"/>
  </g>
  <rect height="14" id="" style="fill:#00AEEF;stroke:none;opacity:0.4;" width="3" x="791.617" y="1919"/>
  <text style="stroke:none;fill:black;font-family:-apple-system,&quot;SF Pro Display&quot;,&quot;SF Pro Text&quot;,Helvetica,sans-serif;font-weight:bold;" transform="matrix(1 0 0 1 776 1953)">Margins</text>
  <text style="stroke:none;fill:black;font-family:-apple-system,&quot;SF Pro Display&quot;,&quot;SF Pro Text&quot;,Helvetica,sans-serif;" transform="matrix(1 0 0 1 776 1971)">Leading and trailing margins on the left and right side of each symbol</text>
  <text style="stroke:none;fill:black;font-family:-apple-system,&quot;SF Pro Display&quot;,&quot;SF Pro Text&quot;,Helvetica,sans-serif;" transform="matrix(1 0 0 1 776 1989)">can be adjusted by modifying the width of the blue rectangles.</text>
  <text style="stroke:none;fill:black;font-family:-apple-system,&quot;SF Pro Display&quot;,&quot;SF Pro Text&quot;,Helvetica,sans-serif;" transform="matrix(1 0 0 1 776 2007)">Modifications are automatically applied proportionally to all</text>
  <text style="stroke:none;fill:black;font-family:-apple-system,&quot;SF Pro Display&quot;,&quot;SF Pro Text&quot;,Helvetica,sans-serif;" transform="matrix(1 0 0 1 776 2025)">scales and weights.</text>
  <g id="" transform="matrix(1 0 0 1 1289 1933)">
   <path d="M 2.83203 3.11523 L 4.375 4.6582 C 5.22461 5.48828 6.19141 5.41992 7.06055 4.46289 L 17.2754 -6.66016 C 17.7051 -6.36719 18.0957 -6.37695 18.5645 -6.47461 L 19.6094 -6.68945 L 20.3027 -5.99609 L 20.2539 -5.47852 C 20.1855 -4.95117 20.3516 -4.53125 20.8496 -4.0332 L 21.6602 -3.22266 C 22.168 -2.71484 22.8223 -2.68555 23.3008 -3.16406 L 26.5527 -6.41602 C 27.0312 -6.89453 27.0117 -7.54883 26.5039 -8.05664 L 25.6836 -8.87695 C 25.1855 -9.375 24.7754 -9.55078 24.2383 -9.47266 L 23.7109 -9.41406 L 23.0566 -10.0781 L 23.3398 -11.2207 C 23.4863 -11.7871 23.3398 -12.2559 22.7148 -12.8613 L 20.3027 -15.2539 C 16.7578 -18.7793 12.2266 -18.6719 9.11133 -15.5371 C 8.69141 -15.1074 8.64258 -14.5215 8.91602 -14.0918 C 9.15039 -13.7207 9.62891 -13.4961 10.2734 -13.6621 C 11.7871 -14.043 13.3008 -13.9258 14.7852 -12.9199 L 14.1602 -11.3379 C 13.9258 -10.752 13.9453 -10.2734 14.1797 -9.83398 L 3.01758 0.439453 C 2.08008 1.30859 1.97266 2.25586 2.83203 3.11523 Z M 10.6738 -15.1465 C 13.3398 -17.1387 16.6504 -16.8262 19.0527 -14.4141 L 21.6797 -11.8066 C 21.9141 -11.5723 21.9434 -11.3867 21.8848 -11.0938 L 21.5039 -9.53125 L 23.0762 -7.95898 L 24.043 -8.04688 C 24.3262 -8.07617 24.4141 -8.05664 24.6387 -7.83203 L 25.2637 -7.20703 L 22.5098 -4.46289 L 21.8848 -5.07812 C 21.6602 -5.30273 21.6406 -5.40039 21.6699 -5.68359 L 21.7578 -6.64062 L 20.1953 -8.20312 L 18.5742 -7.89062 C 18.291 -7.83203 18.1445 -7.83203 17.9102 -8.07617 L 15.7324 -10.2539 C 15.5078 -10.4883 15.4785 -10.625 15.6055 -10.9473 L 16.5527 -13.2227 C 14.9512 -14.7559 12.8418 -15.6055 10.8008 -14.9512 C 10.7129 -14.9219 10.6445 -14.9414 10.6152 -14.9805 C 10.5859 -15.0293 10.5859 -15.0781 10.6738 -15.1465 Z M 4.10156 2.41211 C 3.61328 1.91406 3.78906 1.61133 4.12109 1.30859 L 15.0781 -8.80859 L 16.3086 -7.57812 L 6.15234 3.34961 C 5.84961 3.68164 5.46875 3.7793 5.06836 3.37891 Z"/>
  </g>
  <text style="stroke:none;fill:black;font-family:-apple-system,&quot;SF Pro Display&quot;,&quot;SF Pro Text&quot;,Helvetica,sans-serif;font-weight:bold;" transform="matrix(1 0 0 1 1289 1953)">Exporting</text>
  <text style="stroke:none;fill:black;font-family:-apple-system,&quot;SF Pro Display&quot;,&quot;SF Pro Text&quot;,Helvetica,sans-serif;" transform="matrix(1 0 0 1 1289 1971)">Symbols should be outlined when exporting to ensure the</text>
  <text style="stroke:none;fill:black;font-family:-apple-system,&quot;SF Pro Display&quot;,&quot;SF Pro Text&quot;,Helvetica,sans-serif;" transform="matrix(1 0 0 1 1289 1989)">design is preserved when submitting to Xcode.</text>
  <text id="template-version" style="stroke:none;fill:black;font-family:-apple-system,&quot;SF Pro Display&quot;,&quot;SF Pro Text&quot;,Helvetica,sans-serif;text-anchor:end;" transform="matrix(1 0 0 1 3036 1933)">Template v.1.0</text>
  <text style="stroke:none;fill:black;font-family:-apple-system,&quot;SF Pro Display&quot;,&quot;SF Pro Text&quot;,Helvetica,sans-serif;text-anchor:end;" transform="matrix(1 0 0 1 3036 1951)">Generated from 36.circle.fill</text>
  <text style="stroke:none;fill:black;font-family:-apple-system,&quot;SF Pro Display&quot;,&quot;SF Pro Text&quot;,Helvetica,sans-serif;text-anchor:end;" transform="matrix(1 0 0 1 3036 1969)">Typeset at 100 points</text>
  <text style="stroke:none;fill:black;font-family:-apple-system,&quot;SF Pro Display&quot;,&quot;SF Pro Text&quot;,Helvetica,sans-serif;" transform="matrix(1 0 0 1 263 726)">Small</text>
  <text style="stroke:none;fill:black;font-family:-apple-system,&quot;SF Pro Display&quot;,&quot;SF Pro Text&quot;,Helvetica,sans-serif;" transform="matrix(1 0 0 1 263 1156)">Medium</text>
  <text style="stroke:none;fill:black;font-family:-apple-system,&quot;SF Pro Display&quot;,&quot;SF Pro Text&quot;,Helvetica,sans-serif;" transform="matrix(1 0 0 1 263 1586)">Large</text>
 </g>
 <g id="Guides">
  <g id="H-reference" style="fill:#27AAE1;stroke:none;" transform="matrix(1 0 0 1 339 696)">
   <path d="M 54.9316 0 L 57.666 0 L 30.5664 -70.459 L 28.0762 -70.459 L 0.976562 0 L 3.66211 0 L 12.9395 -24.4629 L 45.7031 -24.4629 Z M 29.1992 -67.0898 L 29.4434 -67.0898 L 44.8242 -26.709 L 13.8184 -26.709 Z"/>
  </g>
  <line id="Baseline-S" style="fill:none;stroke:#27AAE1;opacity:1;stroke-width:0.577;" x1="263" x2="3036" y1="696" y2="696"/>
  <line id="Capline-S" style="fill:none;stroke:#27AAE1;opacity:1;stroke-width:0.577;" x1="263" x2="3036" y1="625.541" y2="625.541"/>
  <g id="H-reference" style="fill:#27AAE1;stroke:none;" transform="matrix(1 0 0 1 339 1126)">
   <path d="M 54.9316 0 L 57.666 0 L 30.5664 -70.459 L 28.0762 -70.459 L 0.976562 0 L 3.66211 0 L 12.9395 -24.4629 L 45.7031 -24.4629 Z M 29.1992 -67.0898 L 29.4434 -67.0898 L 44.8242 -26.709 L 13.8184 -26.709 Z"/>
  </g>
  <line id="Baseline-M" style="fill:none;stroke:#27AAE1;opacity:1;stroke-width:0.577;" x1="263" x2="3036" y1="1126" y2="1126"/>
  <line id="Capline-M" style="fill:none;stroke:#27AAE1;opacity:1;stroke-width:0.577;" x1="263" x2="3036" y1="1055.54" y2="1055.54"/>
  <g id="H-reference" style="fill:#27AAE1;stroke:none;" transform="matrix(1 0 0 1 339 1556)">
   <path d="M 54.9316 0 L 57.666 0 L 30.5664 -70.459 L 28.0762 -70.459 L 0.976562 0 L 3.66211 0 L 12.9395 -24.4629 L 45.7031 -24.4629 Z M 29.1992 -67.0898 L 29.4434 -67.0898 L 44.8242 -26.709 L 13.8184 -26.709 Z"/>
  </g>
  <line id="Baseline-L" style="fill:none;stroke:#27AAE1;opacity:1;stroke-width:0.577;" x1="263" x2="3036" y1="1556" y2="1556"/>
  <line id="Capline-L" style="fill:none;stroke:#27AAE1;opacity:1;stroke-width:0.577;" x1="263" x2="3036" y1="1485.54" y2="1485.54"/>
  <rect height="119.336" id="left-margin" style="fill:#00AEEF;stroke:none;opacity:0.4;" width="8.74023" x="1391.3" y="1030.79"/>
  <rect height="119.336" id="right-margin" style="fill:#00AEEF;stroke:none;opacity:0.4;" width="8.74023" x="1499.65" y="1030.79"/>
 </g>
 <g id="Symbols">
  <g id="Black-L" transform="matrix(1 0 0 1 2854.05 1556)">
   <path d="M 79.3457 32.8613 C 116.748 32.8613 147.412 2.19727 147.412 -35.2051 C 147.412 -72.6074 116.748 -103.271 79.2969 -103.271 C 41.8945 -103.271 11.2793 -72.6074 11.2793 -35.2051 C 11.2793 2.19727 41.9434 32.8613 79.3457 32.8613 Z M 59.1797 -9.47266 C 51.5137 -9.47266 44.7266 -14.2578 43.2129 -19.4336 C 42.9199 -20.5078 42.7246 -21.4355 42.7246 -22.5098 C 42.7246 -25.9277 45.4102 -27.832 47.9004 -27.832 C 50.293 -27.832 51.9043 -26.8555 53.0762 -24.9023 C 54.5898 -22.168 56.7871 -20.8984 59.375 -20.8984 C 62.3047 -20.8984 64.3066 -22.9492 64.3066 -25.3418 C 64.3066 -28.125 62.4512 -29.8828 59.2773 -29.8828 L 58.3008 -29.8828 C 54.4434 -29.8828 52.5879 -32.2754 52.5879 -35.6445 C 52.5879 -38.9648 54.7363 -41.3574 58.3008 -41.3574 L 59.1797 -41.3574 C 62.1094 -41.3574 63.5742 -43.4082 63.5742 -45.7031 C 63.5742 -48.3887 61.6699 -50.0977 59.1797 -50.0977 C 56.5918 -50.0977 54.8828 -48.7793 53.418 -46.0938 C 52.3926 -44.2383 50.8301 -43.0176 48.3398 -43.0176 C 45.4102 -43.0176 43.3594 -45.0195 43.3594 -48.3887 C 43.3594 -49.5117 43.5547 -50.5371 44.1406 -51.9043 C 45.7031 -56.1523 51.2695 -61.084 59.375 -61.084 C 69.3848 -61.084 75.8301 -55.7129 75.8301 -47.5098 C 75.8301 -42.4316 72.3633 -37.6953 67.7246 -36.9141 L 67.7246 -36.377 C 73.1934 -35.9375 76.9531 -30.8105 76.9531 -24.5605 C 76.9531 -15.4297 70.0195 -9.47266 59.1797 -9.47266 Z M 100.635 -9.42383 C 93.9453 -9.42383 88.2324 -12.3535 85.2539 -18.8965 C 83.3984 -23.1445 82.2754 -28.6133 82.2754 -34.9121 C 82.2754 -52.0508 90.5762 -61.084 101.66 -61.084 C 108.301 -61.084 112.988 -58.0566 114.697 -54.4434 C 115.332 -53.125 115.625 -52.002 115.625 -50.5371 C 115.625 -47.6074 113.232 -45.8008 110.742 -45.8008 C 108.545 -45.8008 107.227 -46.6309 106.152 -47.9004 C 104.98 -49.1699 103.613 -50.3906 101.318 -50.3906 C 97.1191 -50.3906 93.8965 -45.9473 93.8965 -39.4043 C 93.8965 -38.2324 93.9941 -37.5488 94.043 -36.8652 L 94.4336 -36.8652 C 95.9473 -40.0391 98.8281 -42.8223 104.102 -42.8223 C 111.035 -42.8223 117.285 -37.3047 117.285 -27.6367 C 117.285 -16.5039 110.547 -9.42383 100.635 -9.42383 Z M 99.9512 -19.7754 C 103.271 -19.7754 105.518 -22.4609 105.518 -26.4648 C 105.518 -30.3711 103.223 -33.0566 99.9512 -33.0566 C 96.6797 -33.0566 94.3848 -30.3711 94.3848 -26.5137 C 94.3848 -22.4609 96.7285 -19.7754 99.9512 -19.7754 Z"/>
  </g>
  <g id="Heavy-L" transform="matrix(1 0 0 1 2558.39 1556)">
   <path d="M 78.2715 31.7871 C 115.088 31.7871 145.312 1.61133 145.312 -35.2051 C 145.312 -72.0215 115.039 -102.197 78.2715 -102.197 C 41.4551 -102.197 11.2793 -72.0215 11.2793 -35.2051 C 11.2793 1.61133 41.5039 31.7871 78.2715 31.7871 Z M 57.4219 -8.88672 C 49.4629 -8.88672 42.6758 -13.8184 41.0645 -19.1895 C 40.7715 -20.166 40.5762 -21.0449 40.5762 -22.0703 C 40.5762 -25.1953 43.0176 -27.002 45.3613 -27.002 C 47.5586 -27.002 49.0723 -25.9766 50.0977 -24.0723 C 51.709 -20.8496 54.3457 -19.1895 57.5684 -19.1895 C 61.4258 -19.1895 64.0625 -21.7285 64.0625 -24.8535 C 64.0625 -28.3203 61.6211 -30.5664 57.6172 -30.5664 L 55.8594 -30.5664 C 52.4414 -30.5664 50.7324 -32.7148 50.7324 -35.7422 C 50.7324 -38.8184 52.6855 -40.918 55.8594 -40.918 L 57.4707 -40.918 C 60.9863 -40.918 63.0859 -43.4082 63.0859 -46.3867 C 63.0859 -49.5605 60.6934 -51.709 57.4707 -51.709 C 54.1992 -51.709 52.0508 -50.0488 50.5859 -46.8262 C 49.707 -44.9707 48.291 -43.7988 45.9961 -43.7988 C 43.2617 -43.7988 41.3574 -45.6543 41.3574 -48.7305 C 41.3574 -49.8047 41.5039 -50.7324 41.9922 -51.9531 C 43.6035 -56.7383 49.4141 -61.6699 57.666 -61.6699 C 67.5781 -61.6699 74.1699 -56.2012 74.1699 -47.9492 C 74.1699 -42.627 70.459 -37.6465 65.625 -36.8652 L 65.625 -36.377 C 71.3867 -35.8887 75.4395 -30.6152 75.4395 -24.2188 C 75.4395 -14.9902 68.2617 -8.88672 57.4219 -8.88672 Z M 100.049 -8.83789 C 93.2617 -8.83789 87.5977 -11.7188 84.5703 -18.2129 C 82.6172 -22.4609 81.4453 -27.9785 81.4453 -34.6191 C 81.4453 -52.3926 89.6484 -61.6699 101.074 -61.6699 C 108.008 -61.6699 112.842 -58.3496 114.502 -54.541 C 115.088 -53.3691 115.332 -52.3926 115.332 -51.0742 C 115.332 -48.3887 113.184 -46.7285 110.938 -46.7285 C 108.838 -46.7285 107.617 -47.5098 106.592 -48.8281 C 105.273 -50.5371 103.516 -51.9043 100.781 -51.9043 C 95.6543 -51.9043 91.9434 -46.582 91.9434 -38.4277 C 91.9434 -37.5 91.9922 -36.9141 92.041 -36.3281 L 92.4805 -36.3281 C 94.043 -39.8438 97.4121 -42.9199 103.076 -42.9199 C 110.498 -42.9199 117.09 -37.207 117.09 -27.2461 C 117.09 -15.918 110.156 -8.83789 100.049 -8.83789 Z M 99.4629 -18.2617 C 103.613 -18.2617 106.348 -21.4355 106.348 -26.2207 C 106.348 -30.8594 103.516 -34.0332 99.4629 -34.0332 C 95.4102 -34.0332 92.5293 -30.8594 92.5293 -26.2695 C 92.5293 -21.5332 95.4102 -18.2617 99.4629 -18.2617 Z"/>
  </g>
  <g id="Bold-L" transform="matrix(1 0 0 1 2262.88 1556)">
   <path d="M 77.0996 30.6152 C 113.232 30.6152 142.92 0.878906 142.92 -35.2051 C 142.92 -71.3379 113.184 -101.025 77.0508 -101.025 C 40.9668 -101.025 11.2793 -71.3379 11.2793 -35.2051 C 11.2793 0.878906 41.0156 30.6152 77.0996 30.6152 Z M 55.4199 -8.25195 C 47.168 -8.25195 40.332 -13.3301 38.6719 -18.8965 C 38.3789 -19.8242 38.2324 -20.6055 38.2324 -21.582 C 38.2324 -24.3164 40.2832 -26.0254 42.5293 -26.0254 C 44.5312 -26.0254 45.8496 -25.0488 46.7773 -23.0957 C 48.4375 -19.3359 51.5625 -17.2852 55.5664 -17.2852 C 60.4492 -17.2852 63.7695 -20.3613 63.7695 -24.3652 C 63.7695 -28.5645 60.6445 -31.3477 55.7617 -31.3477 L 53.125 -31.3477 C 50.2441 -31.3477 48.6816 -33.252 48.6816 -35.8887 C 48.6816 -38.623 50.3906 -40.4297 53.125 -40.4297 L 55.5176 -40.4297 C 59.8145 -40.4297 62.5488 -43.3594 62.5488 -47.1191 C 62.5488 -50.9277 59.6191 -53.4668 55.5664 -53.4668 C 51.5137 -53.4668 48.877 -51.416 47.4609 -47.6562 C 46.6797 -45.752 45.4102 -44.6777 43.3105 -44.6777 C 40.8203 -44.6777 39.1113 -46.3867 39.1113 -49.1699 C 39.1113 -50.0977 39.209 -50.9766 39.5996 -52.0508 C 41.2109 -57.4219 47.3145 -62.3047 55.7129 -62.3047 C 65.5762 -62.3047 72.2656 -56.7383 72.2656 -48.4375 C 72.2656 -42.8223 68.3594 -37.6465 63.2324 -36.8164 L 63.2324 -36.377 C 69.3359 -35.791 73.7305 -30.4199 73.7305 -23.8281 C 73.7305 -14.5508 66.3574 -8.25195 55.4199 -8.25195 Z M 99.3652 -8.20312 C 92.5293 -8.20312 86.8652 -10.9863 83.7891 -17.3828 C 81.7383 -21.6309 80.5664 -27.2949 80.5664 -34.3262 C 80.5664 -52.7344 88.5742 -62.3047 100.439 -62.3047 C 107.666 -62.3047 112.646 -58.6914 114.307 -54.6875 C 114.795 -53.7109 114.99 -52.7832 114.99 -51.6602 C 114.99 -49.2676 113.184 -47.7539 111.084 -47.7539 C 109.229 -47.7539 108.105 -48.5352 107.08 -49.8535 C 105.615 -52.002 103.369 -53.6133 100.146 -53.6133 C 94.043 -53.6133 89.7461 -47.2656 89.7461 -37.3047 C 89.7461 -36.6211 89.7949 -36.1816 89.8438 -35.6934 L 90.2344 -35.6934 C 91.8945 -39.6973 95.8008 -43.0176 101.953 -43.0176 C 109.912 -43.0176 116.846 -37.0605 116.846 -26.7578 C 116.846 -15.2344 109.668 -8.20312 99.3652 -8.20312 Z M 98.877 -16.6016 C 103.955 -16.6016 107.324 -20.2637 107.324 -25.9766 C 107.324 -31.4453 103.906 -35.1562 98.877 -35.1562 C 93.8965 -35.1562 90.4297 -31.3965 90.4297 -26.0254 C 90.4297 -20.459 93.9453 -16.6016 98.877 -16.6016 Z"/>
  </g>
  <g id="Semibold-L" transform="matrix(1 0 0 1 1966.97 1556)">
   <path d="M 76.2695 29.7852 C 111.914 29.7852 141.309 0.439453 141.309 -35.2051 C 141.309 -70.8496 111.865 -100.244 76.2695 -100.244 C 40.625 -100.244 11.2793 -70.8496 11.2793 -35.2051 C 11.2793 0.439453 40.6738 29.7852 76.2695 29.7852 Z M 54.0527 -7.76367 C 45.6055 -7.76367 38.7207 -12.9883 37.0117 -18.7012 C 36.7676 -19.5801 36.6211 -20.3125 36.6211 -21.2891 C 36.6211 -23.7305 38.4277 -25.3418 40.5762 -25.3418 C 42.4805 -25.3418 43.6523 -24.4141 44.5312 -22.4609 C 46.2402 -18.3105 49.6094 -15.9668 54.1504 -15.9668 C 59.7656 -15.9668 63.5742 -19.4336 63.5742 -23.9746 C 63.5742 -28.7109 60.0098 -31.8848 54.4922 -31.8848 L 51.2695 -31.8848 C 48.6816 -31.8848 47.2656 -33.5938 47.2656 -35.9863 C 47.2656 -38.4766 48.8281 -40.1367 51.2695 -40.1367 L 54.1992 -40.1367 C 58.9844 -40.1367 62.1582 -43.3594 62.1582 -47.6074 C 62.1582 -51.8555 58.8867 -54.6875 54.1992 -54.6875 C 49.6582 -54.6875 46.6797 -52.3926 45.3125 -48.2422 C 44.5801 -46.3379 43.457 -45.3125 41.4551 -45.3125 C 39.1113 -45.3125 37.5488 -46.9238 37.5488 -49.4629 C 37.5488 -50.3418 37.6465 -51.123 37.9395 -52.0996 C 39.5996 -57.8613 45.8984 -62.7441 54.3945 -62.7441 C 64.209 -62.7441 70.9473 -57.0801 70.9473 -48.7793 C 70.9473 -42.9688 66.8945 -37.6465 61.6211 -36.7676 L 61.6211 -36.377 C 67.9688 -35.7422 72.5586 -30.2734 72.5586 -23.5352 C 72.5586 -14.2578 65.0391 -7.76367 54.0527 -7.76367 Z M 98.9258 -7.76367 C 91.9922 -7.76367 86.377 -10.498 83.2031 -16.8457 C 81.1035 -21.0938 79.9316 -26.8066 79.9316 -34.082 C 79.9316 -52.9785 87.8418 -62.7441 100 -62.7441 C 107.422 -62.7441 112.549 -58.8867 114.209 -54.7852 C 114.6 -53.9062 114.746 -53.0762 114.746 -52.0996 C 114.746 -49.8535 113.184 -48.4375 111.23 -48.4375 C 109.473 -48.4375 108.447 -49.2188 107.422 -50.5859 C 105.811 -53.0273 103.32 -54.7852 99.707 -54.7852 C 92.9199 -54.7852 88.2812 -47.7539 88.2812 -36.5723 C 88.2812 -36.0352 88.2812 -35.6934 88.2812 -35.3027 L 88.7207 -35.3027 C 90.4297 -39.5508 94.7266 -43.1152 101.172 -43.1152 C 109.473 -43.1152 116.699 -37.0117 116.699 -26.416 C 116.699 -14.7949 109.375 -7.76367 98.9258 -7.76367 Z M 98.4863 -15.4297 C 104.248 -15.4297 108.008 -19.4824 108.008 -25.7812 C 108.008 -31.8359 104.15 -35.8887 98.4863 -35.8887 C 92.9199 -35.8887 89.0137 -31.7383 89.0137 -25.8301 C 89.0137 -19.7266 92.9199 -15.4297 98.4863 -15.4297 Z"/>
  </g>
  <g id="Medium-L" transform="matrix(1 0 0 1 1670.87 1556)">
   <path d="M 75.6836 29.1992 C 110.938 29.1992 140.088 0.0488281 140.088 -35.2051 C 140.088 -70.459 110.889 -99.6094 75.6348 -99.6094 C 40.3809 -99.6094 11.2793 -70.459 11.2793 -35.2051 C 11.2793 0.0488281 40.3809 29.1992 75.6836 29.1992 Z M 53.0273 -7.4707 C 44.3848 -7.4707 37.5 -12.6953 35.791 -18.5547 C 35.498 -19.4336 35.3516 -20.0684 35.3516 -20.9961 C 35.3516 -23.291 37.0117 -24.8047 39.1113 -24.8047 C 40.8691 -24.8047 41.9922 -23.877 42.7734 -21.9727 C 44.5312 -17.5293 48.1934 -14.9902 53.125 -14.9902 C 59.2285 -14.9902 63.4277 -18.75 63.4277 -23.7305 C 63.4277 -28.8086 59.4727 -32.2754 53.5156 -32.2754 L 49.8535 -32.2754 C 47.5586 -32.2754 46.1914 -33.8867 46.1914 -36.084 C 46.1914 -38.3789 47.6074 -39.8926 49.8535 -39.8926 L 53.1738 -39.8926 C 58.3496 -39.8926 61.8652 -43.3594 61.8652 -47.998 C 61.8652 -52.5391 58.3008 -55.6152 53.2227 -55.6152 C 48.2422 -55.6152 45.0195 -53.125 43.6523 -48.6328 C 43.0176 -46.7285 41.9434 -45.752 40.0879 -45.752 C 37.8418 -45.752 36.377 -47.3145 36.377 -49.6582 C 36.377 -50.4883 36.4258 -51.2695 36.7188 -52.1484 C 38.3301 -58.2031 44.7754 -63.0859 53.3691 -63.0859 C 63.1348 -63.0859 69.9707 -57.373 69.9707 -49.0234 C 69.9707 -43.0664 65.7715 -37.6465 60.3516 -36.7676 L 60.3516 -36.377 C 66.8945 -35.7422 71.6797 -30.1758 71.6797 -23.3398 C 71.6797 -14.0137 64.0137 -7.4707 53.0273 -7.4707 Z M 98.584 -7.42188 C 91.6016 -7.42188 86.0352 -10.1562 82.8125 -16.4551 C 80.6641 -20.7031 79.4434 -26.4648 79.4434 -33.9355 C 79.4434 -53.1738 87.3047 -63.0859 99.6582 -63.0859 C 107.275 -63.0859 112.451 -59.082 114.062 -54.8828 C 114.404 -54.0527 114.6 -53.2715 114.6 -52.3926 C 114.6 -50.3418 113.135 -48.9258 111.328 -48.9258 C 109.668 -48.9258 108.691 -49.707 107.666 -51.123 C 106.006 -53.8086 103.223 -55.6641 99.4141 -55.6641 C 92.041 -55.6641 87.1094 -48.0957 87.1094 -35.9863 C 87.1094 -35.5957 87.1094 -35.3516 87.1582 -35.0098 L 87.5488 -35.0098 C 89.3066 -39.4531 93.8965 -43.1641 100.586 -43.1641 C 109.18 -43.1641 116.553 -36.9141 116.553 -26.1719 C 116.553 -14.4531 109.131 -7.42188 98.584 -7.42188 Z M 98.1934 -14.5508 C 104.443 -14.5508 108.496 -18.8477 108.496 -25.6348 C 108.496 -32.0801 104.346 -36.4746 98.1934 -36.4746 C 92.1387 -36.4746 87.8906 -32.0312 87.8906 -25.6836 C 87.8906 -19.1406 92.1387 -14.5508 98.1934 -14.5508 Z"/>
  </g>
  <g id="Regular-L" transform="matrix(1 0 0 1 1374.97 1556)">
   <path d="M 74.8535 28.3691 C 109.668 28.3691 138.477 -0.390625 138.477 -35.2051 C 138.477 -70.0195 109.619 -98.7793 74.8047 -98.7793 C 40.0391 -98.7793 11.2793 -70.0195 11.2793 -35.2051 C 11.2793 -0.390625 40.0879 28.3691 74.8535 28.3691 Z M 51.6602 -6.98242 C 42.8223 -6.98242 35.9375 -12.3535 34.1309 -18.4082 C 33.8867 -19.1895 33.7402 -19.7754 33.7402 -20.6543 C 33.7402 -22.7051 35.2051 -24.1699 37.1582 -24.1699 C 38.8184 -24.1699 39.8438 -23.2422 40.5273 -21.3379 C 42.334 -16.5039 46.2891 -13.6719 51.709 -13.6719 C 58.5938 -13.6719 63.2324 -17.8223 63.2324 -23.3887 C 63.2324 -28.9551 58.8379 -32.8125 52.2461 -32.8125 L 47.998 -32.8125 C 45.9961 -32.8125 44.7754 -34.2285 44.7754 -36.1816 C 44.7754 -38.2324 46.0449 -39.5508 47.998 -39.5508 L 51.8555 -39.5508 C 57.5195 -39.5508 61.5234 -43.3594 61.5234 -48.4863 C 61.5234 -53.4668 57.5684 -56.8359 51.9043 -56.8359 C 46.3867 -56.8359 42.8711 -54.0527 41.5039 -49.2188 C 40.9668 -47.2656 39.9902 -46.3379 38.2812 -46.3379 C 36.1816 -46.3379 34.8633 -47.8027 34.8633 -49.9512 C 34.8633 -50.7324 34.9121 -51.416 35.0586 -52.1973 C 36.7188 -58.6914 43.3594 -63.5254 52.0508 -63.5254 C 61.7676 -63.5254 68.7012 -57.7148 68.7012 -49.3652 C 68.7012 -43.2129 64.3555 -37.5977 58.7402 -36.7188 L 58.7402 -36.377 C 65.4785 -35.6934 70.5078 -30.0293 70.5078 -23.0957 C 70.5078 -13.6719 62.6953 -6.98242 51.6602 -6.98242 Z M 98.0957 -6.93359 C 91.0645 -6.93359 85.5469 -9.66797 82.2754 -15.918 C 80.0781 -20.166 78.8574 -25.9766 78.8574 -33.6914 C 78.8574 -53.418 86.6211 -63.5254 99.2188 -63.5254 C 107.031 -63.5254 112.354 -59.2773 113.965 -54.9805 C 114.209 -54.2969 114.355 -53.5645 114.355 -52.832 C 114.355 -50.9277 113.135 -49.6582 111.475 -49.6582 C 109.912 -49.6582 108.984 -50.3906 108.008 -51.8066 C 106.25 -54.7852 103.125 -56.8359 98.9746 -56.8359 C 90.918 -56.8359 85.6445 -48.584 85.6445 -35.2051 L 85.6445 -34.5703 L 86.0352 -34.5703 C 87.8906 -39.3066 92.7734 -43.2617 99.8047 -43.2617 C 108.789 -43.2617 116.406 -36.8652 116.406 -25.8301 C 116.406 -14.0137 108.838 -6.93359 98.0957 -6.93359 Z M 97.8027 -13.3789 C 104.688 -13.3789 109.131 -18.0664 109.131 -25.4395 C 109.131 -32.4707 104.59 -37.207 97.8027 -37.207 C 91.1133 -37.207 86.4746 -32.373 86.4746 -25.5371 C 86.4746 -18.4082 91.1621 -13.3789 97.8027 -13.3789 Z"/>
  </g>
  <g id="Light-L" transform="matrix(1 0 0 1 1079.18 1556)">
   <path d="M 73.9258 27.4902 C 108.301 27.4902 136.621 -0.830078 136.621 -35.1562 C 136.621 -69.5312 108.252 -97.8516 73.9258 -97.8516 C 39.5508 -97.8516 11.2793 -69.5312 11.2793 -35.1562 C 11.2793 -0.830078 39.5996 27.4902 73.9258 27.4902 Z M 50.6348 -7.32422 C 41.9922 -7.32422 35.2051 -12.5 33.3984 -18.457 C 33.1543 -19.1406 33.0078 -19.7266 33.0078 -20.5078 C 33.0078 -22.168 34.1797 -23.3887 35.791 -23.3887 C 37.207 -23.3887 38.0371 -22.6074 38.623 -20.9961 C 40.3809 -15.8691 44.9707 -12.793 50.6836 -12.793 C 58.1543 -12.793 63.1836 -17.1875 63.1836 -23.291 C 63.1836 -29.1992 58.3008 -33.4473 51.2695 -33.4473 L 46.4844 -33.4473 C 44.8242 -33.4473 43.7988 -34.6191 43.7988 -36.1816 C 43.7988 -37.8906 44.873 -38.9648 46.4844 -38.9648 L 50.8789 -38.9648 C 56.9824 -38.9648 61.4258 -43.1152 61.4258 -48.6816 C 61.4258 -54.1016 57.0801 -57.7637 50.7324 -57.7637 C 44.8242 -57.7637 40.8203 -54.5898 39.6484 -49.5605 C 39.1602 -47.8516 38.3789 -47.1191 36.9629 -47.1191 C 35.1074 -47.1191 34.082 -48.3398 34.082 -50.0977 C 34.082 -50.7812 34.1309 -51.4648 34.375 -52.1484 C 35.9375 -58.6914 42.627 -63.2324 50.8301 -63.2324 C 60.4004 -63.2324 67.2363 -57.5195 67.2363 -49.3164 C 67.2363 -43.2129 62.8418 -37.5977 57.0801 -36.6211 L 57.0801 -36.377 C 63.916 -35.6445 69.0918 -29.9805 69.0918 -23.0957 C 69.0918 -13.916 61.4258 -7.32422 50.6348 -7.32422 Z M 97.168 -7.27539 C 89.7461 -7.27539 84.4238 -10.3027 81.3477 -16.3574 C 79.1992 -20.6543 78.0762 -26.3672 78.0762 -33.6426 C 78.0762 -52.832 85.6934 -63.2324 98.2422 -63.2324 C 106.299 -63.2324 111.67 -58.4473 113.135 -54.3945 C 113.33 -53.9062 113.428 -53.2715 113.428 -52.6855 C 113.428 -51.2207 112.5 -50.0977 111.035 -50.0977 C 109.766 -50.0977 109.033 -50.7812 108.301 -51.9043 C 106.348 -55.4688 102.686 -57.7637 98.0469 -57.7637 C 89.1602 -57.7637 83.5449 -48.9746 83.5449 -34.4238 L 83.5449 -33.7891 L 83.8379 -33.7891 C 85.9375 -39.0137 91.5039 -42.9688 98.5352 -42.9688 C 107.91 -42.9688 115.381 -36.2793 115.381 -25.7324 C 115.381 -14.4043 107.91 -7.27539 97.168 -7.27539 Z M 97.0215 -12.5977 C 104.59 -12.5977 109.57 -17.5781 109.57 -25.3906 C 109.57 -32.9102 104.492 -37.9395 97.0703 -37.9395 C 89.6973 -37.9395 84.4727 -32.7637 84.4727 -25.4883 C 84.4727 -17.9199 89.6484 -12.5977 97.0215 -12.5977 Z"/>
  </g>
  <g id="Thin-L" transform="matrix(1 0 0 1 783.693 1556)">
   <path d="M 72.7051 26.3184 C 106.494 26.3184 134.18 -1.36719 134.18 -35.1074 C 134.18 -68.8965 106.494 -96.582 72.7051 -96.582 C 38.9648 -96.582 11.2793 -68.8965 11.2793 -35.1074 C 11.2793 -1.36719 38.9648 26.3184 72.7051 26.3184 Z M 49.2676 -7.71484 C 40.8691 -7.71484 34.2773 -12.6953 32.373 -18.5059 C 32.1777 -19.043 32.0312 -19.6289 32.0312 -20.3125 C 32.0312 -21.4844 32.8125 -22.3633 34.0332 -22.3633 C 35.1074 -22.3633 35.6934 -21.7285 36.084 -20.5078 C 37.8418 -14.9902 43.2129 -11.5723 49.2676 -11.5723 C 57.5684 -11.5723 63.0859 -16.3574 63.0859 -23.1445 C 63.0859 -29.4922 57.5684 -34.3262 50 -34.3262 L 44.4824 -34.3262 C 43.2129 -34.3262 42.5781 -35.0586 42.5781 -36.2305 C 42.5781 -37.4023 43.3105 -38.1348 44.4824 -38.1348 L 49.5117 -38.1348 C 56.25 -38.1348 61.2793 -42.8223 61.2793 -48.877 C 61.2793 -54.9316 56.3965 -58.9844 49.2188 -58.9844 C 42.7246 -58.9844 38.1348 -55.3223 37.207 -50 C 36.8164 -48.6328 36.2305 -48.0957 35.2051 -48.0957 C 33.7402 -48.0957 33.1055 -49.0234 33.1055 -50.3418 C 33.1055 -50.8301 33.1543 -51.5137 33.3984 -52.0996 C 34.8633 -58.6914 41.6016 -62.793 49.2676 -62.793 C 58.5938 -62.793 65.332 -57.2266 65.332 -49.2676 C 65.332 -43.2129 60.8398 -37.5488 54.8828 -36.5234 L 54.8828 -36.377 C 61.8652 -35.5957 67.1875 -29.8828 67.1875 -23.0957 C 67.1875 -14.209 59.668 -7.71484 49.2676 -7.71484 Z M 95.9473 -7.71484 C 87.9883 -7.71484 83.0078 -11.084 80.127 -16.9434 C 78.0273 -21.2891 77.0996 -26.9043 77.0996 -33.5449 C 77.0996 -52.0508 84.4727 -62.793 96.875 -62.793 C 105.322 -62.793 110.742 -57.373 112.012 -53.6621 C 112.109 -53.3691 112.207 -52.8809 112.207 -52.5391 C 112.207 -51.5625 111.621 -50.7324 110.449 -50.7324 C 109.619 -50.7324 109.131 -51.3184 108.643 -52.0508 C 106.543 -56.3477 102.051 -58.9844 96.8262 -58.9844 C 86.8652 -58.9844 80.7617 -49.4629 80.7617 -33.3984 L 80.7617 -32.7148 L 80.9082 -32.7148 C 83.3496 -38.5742 89.7461 -42.5293 96.8262 -42.5293 C 106.787 -42.5293 114.014 -35.498 114.014 -25.5859 C 114.014 -14.8926 106.738 -7.71484 95.9473 -7.71484 Z M 95.9961 -11.5234 C 104.443 -11.5234 110.107 -16.8945 110.107 -25.293 C 110.107 -33.4961 104.346 -38.8672 96.0449 -38.8672 C 87.793 -38.8672 81.7871 -33.3008 81.7871 -25.3906 C 81.7871 -17.2852 87.6953 -11.5234 95.9961 -11.5234 Z"/>
  </g>
  <g id="Ultralight-L" transform="matrix(1 0 0 1 487.616 1556)">
   <path d="M 72.1191 25.7324 C 105.566 25.7324 132.91 -1.61133 132.91 -35.1074 C 132.91 -68.5547 105.566 -95.8984 72.1191 -95.8984 C 38.623 -95.8984 11.2793 -68.5547 11.2793 -35.1074 C 11.2793 -1.61133 38.623 25.7324 72.1191 25.7324 Z M 48.584 -7.95898 C 40.2832 -7.95898 33.7891 -12.793 31.8359 -18.5547 C 31.6895 -18.9941 31.543 -19.5801 31.543 -20.166 C 31.543 -21.0938 32.0801 -21.8262 33.1055 -21.8262 C 33.9844 -21.8262 34.5215 -21.2891 34.7656 -20.2637 C 36.5234 -14.5508 42.2852 -10.9375 48.584 -10.9375 C 57.3242 -10.9375 63.0371 -15.918 63.0371 -23.0957 C 63.0371 -29.6387 57.1777 -34.7656 49.3164 -34.7656 L 43.457 -34.7656 C 42.4316 -34.7656 41.9434 -35.3027 41.9434 -36.2305 C 41.9434 -37.1582 42.4805 -37.7441 43.457 -37.7441 L 48.8281 -37.7441 C 55.9082 -37.7441 61.1816 -42.6758 61.1816 -48.9746 C 61.1816 -55.3223 56.0547 -59.6191 48.4375 -59.6191 C 41.6504 -59.6191 36.7676 -55.7129 35.9375 -50.2441 C 35.6445 -49.0723 35.1074 -48.6328 34.3262 -48.6328 C 33.0566 -48.6328 32.5684 -49.3652 32.5684 -50.4395 C 32.5684 -50.8789 32.666 -51.5137 32.9102 -52.0508 C 34.3262 -58.6914 41.1133 -62.5977 48.4375 -62.5977 C 57.6172 -62.5977 64.3555 -57.0801 64.3555 -49.2676 C 64.3555 -43.2129 59.8633 -37.5 53.7598 -36.4258 L 53.7598 -36.377 C 60.791 -35.5957 66.2109 -29.8828 66.2109 -23.1445 C 66.2109 -14.3555 58.7891 -7.95898 48.584 -7.95898 Z M 95.3613 -7.95898 C 87.0605 -7.95898 82.2754 -11.5234 79.4922 -17.2363 C 77.3926 -21.582 76.5625 -27.1973 76.5625 -33.4961 C 76.5625 -51.6602 83.8379 -62.5977 96.1914 -62.5977 C 104.785 -62.5977 110.303 -56.7871 111.475 -53.2715 C 111.523 -53.0762 111.572 -52.7344 111.572 -52.4414 C 111.572 -51.7578 111.182 -51.0254 110.107 -51.0254 C 109.521 -51.0254 109.18 -51.5625 108.838 -52.0996 C 106.641 -56.7871 101.758 -59.6191 96.2402 -59.6191 C 85.6445 -59.6191 79.3457 -49.707 79.3457 -32.8613 L 79.3457 -32.1777 L 79.3945 -32.1777 C 82.0801 -38.3789 88.8672 -42.334 95.9473 -42.334 C 106.201 -42.334 113.33 -35.0586 113.33 -25.4883 C 113.33 -15.1367 106.104 -7.95898 95.3613 -7.95898 Z M 95.459 -10.9375 C 104.346 -10.9375 110.4 -16.5039 110.4 -25.293 C 110.4 -33.7891 104.297 -39.3555 95.5566 -39.3555 C 86.8164 -39.3555 80.4199 -33.5449 80.4199 -25.3418 C 80.4199 -16.9434 86.7188 -10.9375 95.459 -10.9375 Z"/>
  </g>
  <g id="Black-M" transform="matrix(1 0 0 1 2870.97 1126)">
   <path d="M 62.4023 18.457 C 91.9922 18.457 116.113 -5.61523 116.113 -35.2051 C 116.113 -64.7949 91.9922 -88.8672 62.4023 -88.8672 C 32.8125 -88.8672 8.74023 -64.7949 8.74023 -35.2051 C 8.74023 -5.61523 32.8125 18.457 62.4023 18.457 Z M 47.7051 -16.2109 C 42.1875 -16.2109 37.1094 -19.6777 35.9863 -23.3398 C 35.7422 -24.2188 35.5469 -25 35.5469 -25.8789 C 35.5469 -28.7598 37.8906 -30.2734 39.7949 -30.2734 C 41.748 -30.2734 43.1152 -29.541 44.0918 -28.1738 C 45.166 -26.6113 46.6797 -25.9277 47.9004 -25.9277 C 49.2676 -25.9277 50.1465 -27.002 50.1465 -28.125 C 50.1465 -29.5898 49.2676 -30.4688 47.6562 -30.4688 C 44.2383 -30.4688 42.7246 -32.4707 42.7246 -35.3516 C 42.7246 -38.1836 44.5801 -40.1855 47.6562 -40.1855 C 49.2676 -40.1855 49.8535 -41.5039 49.8535 -42.5293 C 49.8535 -44.1406 48.8281 -45.1172 47.6074 -45.1172 C 46.2891 -45.1172 45.3125 -44.3848 44.1895 -42.8711 C 43.3105 -41.5527 41.9922 -40.625 39.9902 -40.625 C 37.5977 -40.625 35.9375 -42.1875 35.9375 -45.0195 C 35.9375 -45.9473 36.084 -46.8262 36.6699 -48.0469 C 37.8418 -50.6348 41.7969 -54.2969 47.7051 -54.2969 C 55.4199 -54.2969 60.3027 -50.3418 60.3027 -44.1406 C 60.3027 -40.5273 57.8125 -37.1094 54.4434 -36.5723 L 54.4434 -36.1328 C 58.3496 -35.8398 60.9375 -32.0312 60.9375 -27.4414 C 60.9375 -20.5566 55.8594 -16.2109 47.7051 -16.2109 Z M 78.3203 -16.2109 C 72.998 -16.2109 68.6523 -18.6523 66.5527 -23.7793 C 65.1855 -27.0508 64.4531 -31.1523 64.4531 -35.3516 C 64.4531 -47.5586 70.9473 -54.2969 79.0039 -54.2969 C 83.9844 -54.2969 87.4023 -52.0996 88.6719 -49.6094 C 89.2578 -48.4863 89.502 -47.6074 89.502 -46.2891 C 89.502 -43.8965 87.4512 -42.4805 85.3516 -42.4805 C 83.5938 -42.4805 82.5684 -43.1152 81.7871 -43.8477 C 81.0059 -44.6289 80.2246 -45.4102 78.7598 -45.4102 C 76.3184 -45.4102 74.3164 -42.8711 74.3164 -39.4043 C 74.3164 -38.1836 74.3652 -37.5 74.4141 -36.7676 L 74.6582 -36.7676 C 75.8789 -39.0137 77.832 -40.7715 81.3477 -40.7715 C 86.2793 -40.7715 90.625 -36.6699 90.625 -29.8828 C 90.625 -21.6797 85.6934 -16.2109 78.3203 -16.2109 Z M 77.7344 -24.8535 C 79.4922 -24.8535 80.8594 -26.416 80.8594 -28.7598 C 80.8594 -31.0547 79.4922 -32.6172 77.7344 -32.6172 C 75.9277 -32.6172 74.6094 -31.0547 74.6094 -28.7598 C 74.6094 -26.3672 75.9277 -24.8535 77.7344 -24.8535 Z"/>
  </g>
  <g id="Heavy-M" transform="matrix(1 0 0 1 2575.19 1126)">
   <path d="M 61.5234 17.5781 C 90.5273 17.5781 114.258 -6.15234 114.258 -35.2051 C 114.258 -64.2578 90.5273 -87.9883 61.4746 -87.9883 C 32.4707 -87.9883 8.74023 -64.2578 8.74023 -35.2051 C 8.74023 -6.15234 32.4707 17.5781 61.5234 17.5781 Z M 46.0449 -15.4785 C 40.1855 -15.4785 35.0098 -19.1406 33.8379 -23.0469 C 33.5938 -23.877 33.4473 -24.6094 33.4473 -25.4395 C 33.4473 -28.0762 35.498 -29.541 37.4023 -29.541 C 39.209 -29.541 40.4785 -28.7598 41.3574 -27.3438 C 42.5293 -25.293 44.2871 -24.3164 46.1914 -24.3164 C 48.3887 -24.3164 49.9023 -25.8301 49.9023 -27.6367 C 49.9023 -29.7363 48.4863 -31.0547 46.0938 -31.0547 L 45.3613 -31.0547 C 42.3828 -31.0547 40.9668 -32.9102 40.9668 -35.498 C 40.9668 -38.0859 42.627 -39.8926 45.3613 -39.8926 L 46.0449 -39.8926 C 48.2422 -39.8926 49.3652 -41.5039 49.3652 -43.2129 C 49.3652 -45.2637 47.9004 -46.582 45.9961 -46.582 C 44.043 -46.582 42.7246 -45.6055 41.6016 -43.5547 C 40.8203 -42.1875 39.5996 -41.3086 37.7441 -41.3086 C 35.498 -41.3086 33.9355 -42.7734 33.9355 -45.3613 C 33.9355 -46.2402 34.082 -47.0703 34.5215 -48.0957 C 35.7422 -51.3184 39.9902 -55.0293 46.1426 -55.0293 C 53.8574 -55.0293 58.7891 -50.9277 58.7891 -44.6289 C 58.7891 -40.7715 56.1523 -37.1094 52.5879 -36.5234 L 52.5879 -36.1328 C 56.7871 -35.791 59.668 -31.8359 59.668 -27.0508 C 59.668 -20.0195 54.3457 -15.4785 46.0449 -15.4785 Z M 77.8809 -15.4785 C 72.6074 -15.4785 68.2617 -17.8223 66.0156 -22.9004 C 64.5508 -26.1719 63.7695 -30.3711 63.7695 -35.0586 C 63.7695 -48.0469 70.166 -55.0293 78.6621 -55.0293 C 83.8379 -55.0293 87.4023 -52.6367 88.7207 -49.9023 C 89.209 -48.877 89.4043 -48.0957 89.4043 -46.9238 C 89.4043 -44.6777 87.5977 -43.3594 85.6445 -43.3594 C 83.9844 -43.3594 83.0078 -43.9453 82.2266 -44.8242 C 81.2988 -45.8984 80.2246 -46.8262 78.418 -46.8262 C 75.1953 -46.8262 72.7051 -43.457 72.7051 -38.5254 C 72.7051 -37.5488 72.7539 -36.9629 72.8027 -36.4258 L 73.0957 -36.4258 C 74.3164 -38.916 76.6113 -40.9668 80.5664 -40.9668 C 85.9375 -40.9668 90.6738 -36.7188 90.6738 -29.4434 C 90.6738 -20.9473 85.498 -15.4785 77.8809 -15.4785 Z M 77.3926 -23.4375 C 79.8828 -23.4375 81.6406 -25.4395 81.6406 -28.4668 C 81.6406 -31.4941 79.8828 -33.4961 77.3926 -33.4961 C 74.9023 -33.4961 73.0957 -31.4453 73.0957 -28.5156 C 73.0957 -25.4395 74.9023 -23.4375 77.3926 -23.4375 Z"/>
  </g>
  <g id="Bold-M" transform="matrix(1 0 0 1 2279.5 1126)">
   <path d="M 60.498 16.5039 C 88.8672 16.5039 112.207 -6.78711 112.207 -35.2051 C 112.207 -63.623 88.8672 -86.9629 60.4492 -86.9629 C 32.0312 -86.9629 8.74023 -63.623 8.74023 -35.2051 C 8.74023 -6.78711 32.0801 16.5039 60.498 16.5039 Z M 44.1895 -14.6973 C 37.9395 -14.6973 32.666 -18.5547 31.4453 -22.7539 C 31.2012 -23.4863 31.0547 -24.1699 31.0547 -24.9512 C 31.0547 -27.2949 32.8613 -28.6621 34.668 -28.6621 C 36.377 -28.6621 37.5 -27.9297 38.2812 -26.416 C 39.5508 -23.8281 41.6504 -22.5098 44.2871 -22.5098 C 47.4609 -22.5098 49.6094 -24.5605 49.6094 -27.0996 C 49.6094 -29.9316 47.6074 -31.7383 44.3359 -31.7383 L 42.8223 -31.7383 C 40.2832 -31.7383 38.9648 -33.3984 38.9648 -35.6445 C 38.9648 -37.9883 40.4785 -39.5508 42.8223 -39.5508 L 44.2383 -39.5508 C 47.0703 -39.5508 48.7793 -41.5527 48.7793 -43.9941 C 48.7793 -46.582 46.875 -48.291 44.2383 -48.291 C 41.5527 -48.291 39.8438 -46.9238 38.7207 -44.3848 C 38.0371 -42.9199 36.9629 -42.041 35.2051 -42.041 C 33.1055 -42.041 31.6895 -43.457 31.6895 -45.752 C 31.6895 -46.582 31.7871 -47.3145 32.1289 -48.1934 C 33.3984 -52.002 37.9395 -55.8105 44.3848 -55.8105 C 52.0508 -55.8105 57.1777 -51.5625 57.1777 -45.166 C 57.1777 -40.9668 54.248 -37.1094 50.4883 -36.5234 L 50.4883 -36.1328 C 55.0293 -35.6934 58.2031 -31.6406 58.2031 -26.6113 C 58.2031 -19.4824 52.5879 -14.6973 44.1895 -14.6973 Z M 77.4414 -14.6484 C 72.168 -14.6484 67.7734 -16.8457 65.4297 -21.875 C 63.8672 -25.1953 62.9883 -29.4922 62.9883 -34.7168 C 62.9883 -48.584 69.2871 -55.8105 78.2227 -55.8105 C 83.6426 -55.8105 87.4023 -53.2227 88.7207 -50.2441 C 89.1602 -49.3652 89.3066 -48.584 89.3066 -47.6074 C 89.3066 -45.5566 87.7441 -44.2871 85.9863 -44.2871 C 84.4238 -44.2871 83.4961 -44.9219 82.666 -45.9473 C 81.6406 -47.3145 80.2246 -48.4375 77.9785 -48.4375 C 73.877 -48.4375 70.9473 -44.1406 70.9473 -37.5488 C 70.9473 -36.8164 70.9473 -36.4258 70.9961 -35.9863 L 71.2891 -35.9863 C 72.5586 -38.8184 75.2441 -41.2109 79.7363 -41.2109 C 85.5469 -41.2109 90.7227 -36.7676 90.7227 -28.9551 C 90.7227 -20.1172 85.3027 -14.6484 77.4414 -14.6484 Z M 77.002 -21.8262 C 80.3711 -21.8262 82.5684 -24.3164 82.5684 -28.2227 C 82.5684 -31.9336 80.2734 -34.4727 77.002 -34.4727 C 73.6816 -34.4727 71.3867 -31.9336 71.3867 -28.2227 C 71.3867 -24.4141 73.7305 -21.8262 77.002 -21.8262 Z"/>
  </g>
  <g id="Semibold-M" transform="matrix(1 0 0 1 1983.5 1126)">
   <path d="M 59.7656 15.8203 C 87.7441 15.8203 110.791 -7.22656 110.791 -35.2051 C 110.791 -63.1836 87.6953 -86.2793 59.7656 -86.2793 C 31.7871 -86.2793 8.74023 -63.1836 8.74023 -35.2051 C 8.74023 -7.22656 31.7871 15.8203 59.7656 15.8203 Z M 42.8711 -14.1602 C 36.377 -14.1602 31.0547 -18.1152 29.7852 -22.5098 C 29.541 -23.2422 29.4434 -23.8281 29.4434 -24.6094 C 29.4434 -26.7578 31.0547 -28.125 32.8125 -28.125 C 34.4238 -28.125 35.4492 -27.3438 36.1816 -25.7812 C 37.5 -22.8516 39.7949 -21.2402 42.9688 -21.2402 C 46.7773 -21.2402 49.3652 -23.6328 49.3652 -26.7578 C 49.3652 -30.0293 46.9727 -32.1777 43.1641 -32.1777 L 41.1133 -32.1777 C 38.8672 -32.1777 37.5977 -33.6914 37.5977 -35.791 C 37.5977 -37.8906 38.9648 -39.3555 41.1133 -39.3555 L 42.9688 -39.3555 C 46.2891 -39.3555 48.3887 -41.6016 48.3887 -44.4824 C 48.3887 -47.4609 46.1426 -49.4141 43.0176 -49.4141 C 39.8438 -49.4141 37.8418 -47.8516 36.7188 -44.9219 C 36.084 -43.3594 35.1074 -42.5293 33.4473 -42.5293 C 31.4941 -42.5293 30.127 -43.8965 30.127 -46.0449 C 30.127 -46.8262 30.2246 -47.4609 30.4688 -48.291 C 31.7383 -52.5391 36.5234 -56.3965 43.1641 -56.3965 C 50.8301 -56.3965 56.0547 -52.002 56.0547 -45.5566 C 56.0547 -41.1621 52.9785 -37.1094 49.0234 -36.4746 L 49.0234 -36.1328 C 53.8086 -35.6934 57.1777 -31.4941 57.1777 -26.3184 C 57.1777 -19.0918 51.416 -14.1602 42.8711 -14.1602 Z M 77.0996 -14.1113 C 71.875 -14.1113 67.4805 -16.2109 64.9902 -21.1914 C 63.3789 -24.4629 62.4512 -28.9062 62.4512 -34.4727 C 62.4512 -48.9746 68.7012 -56.3965 77.9785 -56.3965 C 83.5449 -56.3965 87.4512 -53.6133 88.7695 -50.4883 C 89.1113 -49.6582 89.2578 -48.9746 89.2578 -48.0957 C 89.2578 -46.1914 87.8418 -44.9707 86.2305 -44.9707 C 84.7168 -44.9707 83.8379 -45.6055 83.0078 -46.6797 C 81.8359 -48.291 80.2246 -49.5117 77.7344 -49.5117 C 72.998 -49.5117 69.6777 -44.5801 69.6777 -36.8652 C 69.6777 -36.377 69.7266 -36.0352 69.7266 -35.6934 L 70.0684 -35.6934 C 71.3379 -38.7207 74.3164 -41.3574 79.1504 -41.3574 C 85.2539 -41.3574 90.7715 -36.7676 90.7715 -28.6133 C 90.7715 -19.5801 85.1562 -14.1113 77.0996 -14.1113 Z M 76.709 -20.7031 C 80.6641 -20.7031 83.2031 -23.584 83.2031 -28.0273 C 83.2031 -32.2754 80.5664 -35.1562 76.709 -35.1562 C 72.8516 -35.1562 70.2148 -32.2266 70.2148 -28.0762 C 70.2148 -23.7305 72.9004 -20.7031 76.709 -20.7031 Z"/>
  </g>
  <g id="Medium-M" transform="matrix(1 0 0 1 1687.3 1126)">
   <path d="M 59.2285 15.2832 C 86.9141 15.2832 109.766 -7.56836 109.766 -35.2051 C 109.766 -62.8906 86.8652 -85.7422 59.1797 -85.7422 C 31.543 -85.7422 8.74023 -62.8906 8.74023 -35.2051 C 8.74023 -7.56836 31.5918 15.2832 59.2285 15.2832 Z M 41.8945 -13.7207 C 35.2051 -13.7207 29.834 -17.8223 28.5156 -22.3633 C 28.2715 -23.0469 28.2227 -23.6328 28.2227 -24.3652 C 28.2227 -26.3672 29.6875 -27.6855 31.3965 -27.6855 C 32.9102 -27.6855 33.8867 -26.9043 34.5703 -25.293 C 35.9375 -22.0703 38.4277 -20.3125 41.9922 -20.3125 C 46.2891 -20.3125 49.2188 -22.998 49.2188 -26.4648 C 49.2188 -30.127 46.5332 -32.5195 42.2363 -32.5195 L 39.7949 -32.5195 C 37.7441 -32.5195 36.5723 -33.9355 36.5723 -35.8398 C 36.5723 -37.8418 37.8418 -39.1602 39.7949 -39.1602 L 41.9922 -39.1602 C 45.6543 -39.1602 48.0957 -41.6016 48.0957 -44.9219 C 48.0957 -48.0957 45.6055 -50.293 42.0898 -50.293 C 38.5742 -50.293 36.3281 -48.584 35.2051 -45.3125 C 34.668 -43.75 33.7402 -42.9199 32.1289 -42.9199 C 30.2246 -42.9199 28.9551 -44.2383 28.9551 -46.2402 C 28.9551 -46.9727 29.0039 -47.6074 29.248 -48.3398 C 30.5176 -52.8809 35.4492 -56.7871 42.2363 -56.7871 C 49.9023 -56.7871 55.1758 -52.3438 55.1758 -45.8496 C 55.1758 -41.2598 52.002 -37.1094 47.9004 -36.4746 L 47.9004 -36.1328 C 52.8809 -35.6445 56.4453 -31.3965 56.4453 -26.0742 C 56.4453 -18.7988 50.5371 -13.7207 41.8945 -13.7207 Z M 76.8555 -13.6719 C 71.6309 -13.6719 67.2363 -15.7227 64.6973 -20.7031 C 63.0371 -23.9746 62.0605 -28.418 62.0605 -34.3262 C 62.0605 -49.2676 68.2617 -56.7871 77.7832 -56.7871 C 83.4473 -56.7871 87.4512 -53.9551 88.7695 -50.6348 C 89.0625 -49.9023 89.209 -49.2188 89.209 -48.4863 C 89.209 -46.6309 87.9395 -45.459 86.4258 -45.459 C 84.9609 -45.459 84.082 -46.0938 83.252 -47.2656 C 82.0312 -49.0234 80.2246 -50.3906 77.5391 -50.3906 C 72.3145 -50.3906 68.75 -44.9219 68.75 -36.3281 C 68.75 -35.9863 68.75 -35.7422 68.7988 -35.4492 L 69.1406 -35.4492 C 70.4102 -38.6719 73.584 -41.5039 78.6621 -41.5039 C 85.0586 -41.5039 90.7715 -36.8164 90.7715 -28.3691 C 90.7715 -19.1406 85.0098 -13.6719 76.8555 -13.6719 Z M 76.5137 -19.873 C 80.9082 -19.873 83.6914 -22.998 83.6914 -27.8809 C 83.6914 -32.5195 80.8105 -35.6934 76.5137 -35.6934 C 72.2656 -35.6934 69.3359 -32.4707 69.3359 -27.9297 C 69.3359 -23.1934 72.2656 -19.873 76.5137 -19.873 Z"/>
  </g>
  <g id="Regular-M" transform="matrix(1 0 0 1 1391.3 1126)">
   <path d="M 58.5449 14.5508 C 85.791 14.5508 108.35 -8.00781 108.35 -35.2539 C 108.35 -62.4512 85.7422 -85.0586 58.4961 -85.0586 C 31.2988 -85.0586 8.74023 -62.4512 8.74023 -35.2539 C 8.74023 -8.00781 31.3477 14.5508 58.5449 14.5508 Z M 40.625 -13.1836 C 33.6914 -13.1836 28.2227 -17.4316 26.9043 -22.168 C 26.6602 -22.8027 26.5625 -23.291 26.5625 -24.0234 C 26.5625 -25.8301 27.8809 -27.0996 29.5898 -27.0996 C 31.0059 -27.0996 31.8848 -26.3184 32.5195 -24.6582 C 33.8867 -21.0938 36.6211 -19.043 40.6738 -19.043 C 45.6543 -19.043 49.0234 -22.0703 49.0234 -26.0742 C 49.0234 -30.2734 45.8984 -33.0078 41.0645 -33.0078 L 38.0371 -33.0078 C 36.3281 -33.0078 35.2051 -34.2773 35.2051 -35.9375 C 35.2051 -37.7441 36.377 -38.916 38.0371 -38.916 L 40.7715 -38.916 C 44.873 -38.916 47.7539 -41.6504 47.7539 -45.4102 C 47.7539 -48.9746 44.873 -51.4648 40.8691 -51.4648 C 36.8652 -51.4648 34.375 -49.5117 33.252 -45.8496 C 32.7637 -44.2383 31.9336 -43.4082 30.4199 -43.4082 C 28.6133 -43.4082 27.4414 -44.6777 27.4414 -46.5332 C 27.4414 -47.2168 27.4414 -47.7539 27.5879 -48.3887 C 28.9062 -53.418 34.0332 -57.3242 41.0156 -57.3242 C 48.6816 -57.3242 54.0527 -52.7832 54.0527 -46.1914 C 54.0527 -41.4551 50.7324 -37.1094 46.4844 -36.4258 L 46.4844 -36.1328 C 51.6602 -35.5957 55.4199 -31.25 55.4199 -25.7812 C 55.4199 -18.4082 49.3652 -13.1836 40.625 -13.1836 Z M 76.5625 -13.1348 C 71.3379 -13.1348 66.8945 -15.0879 64.2578 -20.0195 C 62.5488 -23.291 61.5234 -27.832 61.5234 -34.082 C 61.5234 -49.6582 67.627 -57.3242 77.4902 -57.3242 C 83.3496 -57.3242 87.4512 -54.3457 88.7695 -50.8789 C 89.0137 -50.2441 89.1602 -49.5605 89.1602 -48.9258 C 89.1602 -47.2656 88.0371 -46.1426 86.6211 -46.1426 C 85.2539 -46.1426 84.4238 -46.7773 83.5449 -48.0469 C 82.2754 -50 80.1758 -51.4648 77.2461 -51.4648 C 71.4844 -51.4648 67.5293 -45.3613 67.5293 -35.6934 L 67.5293 -35.1562 L 67.9688 -35.1562 C 69.1895 -38.5742 72.6562 -41.6504 78.0762 -41.6504 C 84.7656 -41.6504 90.8203 -36.8164 90.8203 -28.0273 C 90.8203 -18.5547 84.8633 -13.1348 76.5625 -13.1348 Z M 76.2207 -18.75 C 81.2012 -18.75 84.3262 -22.2168 84.3262 -27.6855 C 84.3262 -32.8613 81.1035 -36.3281 76.2207 -36.3281 C 71.4355 -36.3281 68.1641 -32.8125 68.1641 -27.7344 C 68.1641 -22.5098 71.4844 -18.75 76.2207 -18.75 Z"/>
  </g>
  <g id="Light-M" transform="matrix(1 0 0 1 1095.42 1126)">
   <path d="M 57.7148 13.7695 C 84.5215 13.7695 106.689 -8.39844 106.689 -35.2051 C 106.689 -62.0117 84.5215 -84.1797 57.666 -84.1797 C 30.8594 -84.1797 8.74023 -62.0117 8.74023 -35.2051 C 8.74023 -8.39844 30.9082 13.7695 57.7148 13.7695 Z M 39.6973 -13.4766 C 32.9102 -13.4766 27.5879 -17.5293 26.2207 -22.2168 C 26.0254 -22.7539 25.9277 -23.2422 25.9277 -23.877 C 25.9277 -25.3418 26.9531 -26.416 28.3691 -26.416 C 29.541 -26.416 30.2734 -25.7324 30.8105 -24.3652 C 32.1777 -20.5078 35.4492 -18.2129 39.7461 -18.2129 C 45.2637 -18.2129 48.9746 -21.5332 48.9746 -26.0254 C 48.9746 -30.4688 45.4102 -33.5938 40.1855 -33.5938 L 36.6699 -33.5938 C 35.2539 -33.5938 34.375 -34.5703 34.375 -35.9863 C 34.375 -37.4512 35.3027 -38.3789 36.6699 -38.3789 L 39.8438 -38.3789 C 44.3848 -38.3789 47.6562 -41.4551 47.6562 -45.5566 C 47.6562 -49.5605 44.4336 -52.2949 39.8438 -52.2949 C 35.4492 -52.2949 32.5195 -50 31.543 -46.1914 C 31.1523 -44.7754 30.4688 -44.0918 29.248 -44.0918 C 27.6855 -44.0918 26.7578 -45.1172 26.7578 -46.6797 C 26.7578 -47.2656 26.8066 -47.8027 26.9531 -48.3398 C 28.2227 -53.418 33.3496 -57.0801 39.9414 -57.0801 C 47.4121 -57.0801 52.7832 -52.5879 52.7832 -46.1914 C 52.7832 -41.4551 49.3652 -37.0605 44.9707 -36.377 L 44.9707 -36.1328 C 50.2441 -35.5957 54.1504 -31.2012 54.1504 -25.8301 C 54.1504 -18.6035 48.1934 -13.4766 39.6973 -13.4766 Z M 75.7324 -13.4277 C 70.166 -13.4277 65.918 -15.625 63.4277 -20.4102 C 61.7676 -23.6816 60.8398 -28.1738 60.8398 -34.0332 C 60.8398 -49.1211 66.7969 -57.0801 76.5625 -57.0801 C 82.7148 -57.0801 86.8164 -53.6133 88.0371 -50.3418 C 88.2324 -49.8535 88.3301 -49.3164 88.3301 -48.8281 C 88.3301 -47.5098 87.4512 -46.5332 86.2305 -46.5332 C 85.1074 -46.5332 84.4727 -47.1191 83.7891 -48.1445 C 82.373 -50.6348 79.7852 -52.2949 76.416 -52.2949 C 69.873 -52.2949 65.6738 -45.7031 65.6738 -34.9609 L 65.6738 -34.4727 L 65.9668 -34.4727 C 67.4805 -38.2812 71.4844 -41.3574 76.9531 -41.3574 C 84.0332 -41.3574 89.8926 -36.2793 89.8926 -27.9297 C 89.8926 -18.8965 84.0332 -13.4277 75.7324 -13.4277 Z M 75.5371 -18.0664 C 81.1035 -18.0664 84.7168 -21.7773 84.7168 -27.6367 C 84.7168 -33.252 81.0059 -37.0117 75.5859 -37.0117 C 70.166 -37.0117 66.3574 -33.1543 66.3574 -27.6855 C 66.3574 -22.0215 70.166 -18.0664 75.5371 -18.0664 Z"/>
  </g>
  <g id="Thin-M" transform="matrix(1 0 0 1 799.806 1126)">
   <path d="M 56.6406 12.7441 C 82.9102 12.7441 104.492 -8.83789 104.492 -35.1562 C 104.492 -61.4746 82.9102 -83.0566 56.5918 -83.0566 C 30.3223 -83.0566 8.74023 -61.4746 8.74023 -35.1562 C 8.74023 -8.83789 30.3223 12.7441 56.6406 12.7441 Z M 38.4766 -13.8184 C 31.8848 -13.8184 26.7578 -17.7246 25.293 -22.2656 C 25.1465 -22.7051 25.0488 -23.1445 25.0488 -23.6816 C 25.0488 -24.707 25.7324 -25.4883 26.7578 -25.4883 C 27.6367 -25.4883 28.1738 -24.9512 28.5156 -23.9258 C 29.8828 -19.7266 33.8379 -17.1387 38.4766 -17.1387 C 44.7754 -17.1387 48.9258 -20.8008 48.9258 -25.8789 C 48.9258 -30.7129 44.7754 -34.3262 39.0137 -34.3262 L 34.9121 -34.3262 C 33.8379 -34.3262 33.252 -35.0098 33.252 -35.9863 C 33.252 -37.0117 33.8867 -37.6465 34.9121 -37.6465 L 38.6719 -37.6465 C 43.75 -37.6465 47.5098 -41.1621 47.5098 -45.752 C 47.5098 -50.293 43.8477 -53.3691 38.4766 -53.3691 C 33.5449 -53.3691 30.127 -50.6348 29.3457 -46.582 C 29.0527 -45.459 28.5156 -45.0195 27.6855 -45.0195 C 26.4648 -45.0195 25.8789 -45.752 25.8789 -46.875 C 25.8789 -47.3145 25.9277 -47.8516 26.0742 -48.291 C 27.2461 -53.418 32.4707 -56.6895 38.5254 -56.6895 C 45.8008 -56.6895 51.0742 -52.3438 51.0742 -46.1426 C 51.0742 -41.4551 47.6074 -37.0117 43.0176 -36.2305 L 43.0176 -36.1328 C 48.3887 -35.5469 52.4902 -31.1035 52.4902 -25.8301 C 52.4902 -18.8477 46.6309 -13.8184 38.4766 -13.8184 Z M 74.6582 -13.8184 C 68.5547 -13.8184 64.6484 -16.3574 62.3535 -20.9473 C 60.6934 -24.2676 59.9609 -28.6621 59.9609 -33.9355 C 59.9609 -48.4375 65.7227 -56.6895 75.3906 -56.6895 C 81.8359 -56.6895 86.0352 -52.6367 87.0605 -49.6582 C 87.1582 -49.3652 87.207 -49.0234 87.207 -48.6816 C 87.207 -47.8027 86.7188 -47.0703 85.6934 -47.0703 C 84.9609 -47.0703 84.5703 -47.5586 84.1309 -48.2422 C 82.5195 -51.416 79.248 -53.3691 75.3418 -53.3691 C 67.8223 -53.3691 63.1836 -46.1426 63.1836 -34.0332 L 63.1836 -33.5449 L 63.3301 -33.5449 C 65.1855 -37.9395 69.9219 -40.9668 75.3906 -40.9668 C 83.0078 -40.9668 88.6719 -35.5957 88.6719 -27.7832 C 88.6719 -19.3359 82.959 -13.8184 74.6582 -13.8184 Z M 74.6094 -17.0898 C 80.957 -17.0898 85.2051 -21.1426 85.2051 -27.5391 C 85.2051 -33.7891 80.9082 -37.8418 74.6582 -37.8418 C 68.457 -37.8418 63.9648 -33.5938 63.9648 -27.6367 C 63.9648 -21.4355 68.4082 -17.0898 74.6094 -17.0898 Z"/>
  </g>
  <g id="Ultralight-M" transform="matrix(1 0 0 1 503.656 1126)">
   <path d="M 56.0547 12.207 C 82.0801 12.207 103.369 -9.08203 103.369 -35.1562 C 103.369 -61.1816 82.0801 -82.4707 56.0547 -82.4707 C 30.0293 -82.4707 8.74023 -61.1816 8.74023 -35.1562 C 8.74023 -9.08203 30.0293 12.207 56.0547 12.207 Z M 37.8418 -14.0137 C 31.3965 -14.0137 26.3672 -17.8223 24.8535 -22.3145 C 24.707 -22.6562 24.6094 -23.0957 24.6094 -23.584 C 24.6094 -24.4141 25.0977 -25 25.9277 -25 C 26.6602 -25 27.0996 -24.5605 27.3438 -23.7305 C 28.7109 -19.3359 33.0566 -16.6016 37.8418 -16.6016 C 44.4824 -16.6016 48.877 -20.4102 48.877 -25.8301 C 48.877 -30.8594 44.4336 -34.7168 38.4277 -34.7168 L 33.9844 -34.7168 C 33.1055 -34.7168 32.666 -35.2051 32.666 -35.9863 C 32.666 -36.8164 33.1543 -37.3047 33.9844 -37.3047 L 38.0371 -37.3047 C 43.4082 -37.3047 47.4609 -41.0645 47.4609 -45.8496 C 47.4609 -50.6836 43.5547 -53.9551 37.793 -53.9551 C 32.6172 -53.9551 28.9062 -50.9766 28.2227 -46.8262 C 27.9785 -45.8008 27.5391 -45.459 26.8555 -45.459 C 25.8301 -45.459 25.3906 -46.0449 25.3906 -46.9727 C 25.3906 -47.3633 25.4883 -47.8516 25.6348 -48.291 C 26.7578 -53.418 32.0312 -56.4941 37.793 -56.4941 C 44.9219 -56.4941 50.1953 -52.1973 50.1953 -46.0938 C 50.1953 -41.4551 46.6797 -37.0117 41.9922 -36.1816 L 41.9922 -36.1328 C 47.4121 -35.498 51.6113 -31.1035 51.6113 -25.8301 C 51.6113 -18.9941 45.8008 -14.0137 37.8418 -14.0137 Z M 74.0723 -14.0137 C 67.7734 -14.0137 63.9648 -16.6992 61.8164 -21.1914 C 60.1562 -24.5605 59.4727 -28.9062 59.4727 -33.8867 C 59.4727 -48.0469 65.1367 -56.4941 74.7559 -56.4941 C 81.3965 -56.4941 85.5957 -52.0996 86.5234 -49.3164 C 86.6211 -49.1211 86.6699 -48.8281 86.6699 -48.584 C 86.6699 -47.998 86.2793 -47.3633 85.4492 -47.3633 C 84.9121 -47.3633 84.5703 -47.8027 84.2773 -48.291 C 82.6172 -51.8066 78.9551 -53.9551 74.7559 -53.9551 C 66.748 -53.9551 61.9141 -46.3867 61.9141 -33.5449 L 61.9141 -33.0566 L 61.9629 -33.0566 C 63.9648 -37.7441 69.1406 -40.7715 74.6094 -40.7715 C 82.4707 -40.7715 88.0371 -35.2539 88.0371 -27.7344 C 88.0371 -19.5801 82.4219 -14.0137 74.0723 -14.0137 Z M 74.1211 -16.6016 C 80.9082 -16.6016 85.498 -20.8496 85.498 -27.5391 C 85.498 -34.0332 80.8594 -38.2812 74.2188 -38.2812 C 67.5781 -38.2812 62.7441 -33.8379 62.7441 -27.5879 C 62.7441 -21.1426 67.4805 -16.6016 74.1211 -16.6016 Z"/>
  </g>
  <g id="Black-S" transform="matrix(1 0 0 1 2884.57 696)">
   <path d="M 48.8281 6.78711 C 71.9727 6.78711 90.8203 -12.0605 90.8203 -35.2051 C 90.8203 -58.3496 71.9727 -77.1973 48.8281 -77.1973 C 25.6836 -77.1973 6.83594 -58.3496 6.83594 -35.2051 C 6.83594 -12.0605 25.6836 6.78711 48.8281 6.78711 Z M 37.2559 -20.2637 C 32.9102 -20.2637 28.9062 -22.998 28.0273 -25.8789 C 27.832 -26.5625 27.6855 -27.1973 27.6855 -27.8809 C 27.6855 -30.127 29.4922 -31.2988 31.0059 -31.2988 C 32.5195 -31.2988 33.5938 -30.7129 34.3262 -29.6387 C 35.2051 -28.3691 36.377 -27.832 37.4023 -27.832 C 38.5254 -27.832 39.2578 -28.7109 39.2578 -29.6387 C 39.2578 -30.8105 38.5254 -31.543 37.207 -31.543 L 37.1582 -31.543 C 34.5215 -31.543 33.3496 -33.1055 33.3496 -35.3516 C 33.3496 -37.5488 34.7656 -39.1113 37.1582 -39.1113 L 37.207 -39.1113 C 38.5254 -39.1113 39.0137 -40.1367 39.0137 -41.0156 C 39.0137 -42.2852 38.1836 -43.0664 37.1582 -43.0664 C 36.084 -43.0664 35.3027 -42.4805 34.4238 -41.2598 C 33.7402 -40.2344 32.7148 -39.502 31.1523 -39.502 C 29.2969 -39.502 27.9785 -40.7227 27.9785 -42.9199 C 27.9785 -43.6523 28.125 -44.3359 28.5645 -45.2637 C 29.4922 -47.3633 32.6172 -50.2441 37.2559 -50.2441 C 43.3105 -50.2441 47.1191 -47.1191 47.1191 -42.2363 C 47.1191 -39.4043 45.166 -36.7188 42.5293 -36.2793 L 42.5293 -35.9375 C 45.6055 -35.6934 47.6562 -32.7148 47.6562 -29.1016 C 47.6562 -23.6816 43.6523 -20.2637 37.2559 -20.2637 Z M 61.3281 -20.2637 C 57.1777 -20.2637 53.7598 -22.168 52.0996 -26.1719 C 51.0254 -28.7598 50.4395 -31.9824 50.4395 -35.3027 C 50.4395 -44.9219 55.5176 -50.2441 61.8652 -50.2441 C 65.7715 -50.2441 68.457 -48.4863 69.4824 -46.5332 C 69.9219 -45.6543 70.1172 -44.9707 70.1172 -43.9453 C 70.1172 -42.0898 68.5059 -40.9668 66.8945 -40.9668 C 65.5273 -40.9668 64.6973 -41.4551 64.1113 -42.041 C 63.4766 -42.6758 62.8418 -43.3105 61.6699 -43.3105 C 59.7168 -43.3105 58.1055 -41.2598 58.1055 -38.4277 C 58.1055 -37.5 58.1543 -36.9629 58.2031 -36.4258 L 58.3984 -36.4258 C 59.3262 -38.1836 60.8887 -39.5996 63.6719 -39.5996 C 67.5781 -39.5996 70.9961 -36.377 70.9961 -31.0059 C 70.9961 -24.5605 67.1387 -20.2637 61.3281 -20.2637 Z M 60.8887 -27.002 C 62.3047 -27.002 63.3789 -28.2715 63.3789 -30.127 C 63.3789 -31.9824 62.3047 -33.252 60.8887 -33.252 C 59.4238 -33.252 58.3496 -31.9824 58.3496 -30.127 C 58.3496 -28.2227 59.4238 -27.002 60.8887 -27.002 Z"/>
  </g>
  <g id="Heavy-S" transform="matrix(1 0 0 1 2588.47 696)">
   <path d="M 48.2422 6.15234 C 70.9961 6.15234 89.5996 -12.4512 89.5996 -35.2051 C 89.5996 -57.959 70.9961 -76.6113 48.1934 -76.6113 C 25.4395 -76.6113 6.83594 -57.959 6.83594 -35.2051 C 6.83594 -12.4512 25.4395 6.15234 48.2422 6.15234 Z M 36.084 -19.6777 C 31.4453 -19.6777 27.3926 -22.5586 26.4648 -25.6836 C 26.2695 -26.3184 26.123 -26.9043 26.123 -27.5879 C 26.123 -29.6387 27.7832 -30.8105 29.2969 -30.8105 C 30.7617 -30.8105 31.7383 -30.1758 32.4219 -29.0527 C 33.3496 -27.4414 34.7168 -26.6602 36.1816 -26.6602 C 37.8906 -26.6602 39.0625 -27.8809 39.0625 -29.2969 C 39.0625 -30.9082 37.9883 -31.9336 36.1328 -31.9336 L 35.5957 -31.9336 C 33.2031 -31.9336 32.0801 -33.3984 32.0801 -35.4492 C 32.0801 -37.5 33.3984 -38.9648 35.5957 -38.9648 L 36.084 -38.9648 C 37.793 -38.9648 38.623 -40.1855 38.623 -41.5039 C 38.623 -43.1152 37.5 -44.1406 36.084 -44.1406 C 34.5215 -44.1406 33.5449 -43.3594 32.6172 -41.748 C 32.0312 -40.6738 31.0547 -39.9414 29.541 -39.9414 C 27.7832 -39.9414 26.5137 -41.1133 26.5137 -43.1641 C 26.5137 -43.8965 26.6602 -44.4824 27.002 -45.3125 C 27.9785 -47.8516 31.2988 -50.8301 36.1816 -50.8301 C 42.2363 -50.8301 46.1426 -47.6074 46.1426 -42.627 C 46.1426 -39.5508 44.043 -36.7188 41.2598 -36.2793 L 41.2598 -35.9375 C 44.5312 -35.6445 46.8262 -32.5684 46.8262 -28.8086 C 46.8262 -23.291 42.627 -19.6777 36.084 -19.6777 Z M 61.084 -19.6777 C 57.0312 -19.6777 53.5645 -21.4844 51.7578 -25.4395 C 50.6348 -28.0273 50 -31.3477 50 -35.0586 C 50 -45.3613 55.0293 -50.8301 61.6699 -50.8301 C 65.7227 -50.8301 68.5547 -48.9746 69.5801 -46.8262 C 69.9707 -45.9961 70.166 -45.3613 70.166 -44.4336 C 70.166 -42.6758 68.7012 -41.6016 67.1875 -41.6016 C 65.8203 -41.6016 65.0391 -42.0898 64.4043 -42.7734 C 63.6719 -43.6035 62.8906 -44.2871 61.4746 -44.2871 C 59.0332 -44.2871 57.0801 -41.6992 57.0801 -37.8418 C 57.0801 -37.1094 57.1289 -36.6699 57.1777 -36.2305 L 57.4219 -36.2305 C 58.3008 -38.1348 60.1074 -39.7949 63.2324 -39.7949 C 67.3828 -39.7949 71.1426 -36.4746 71.1426 -30.6641 C 71.1426 -23.9746 67.0898 -19.6777 61.084 -19.6777 Z M 60.6934 -25.9766 C 62.6465 -25.9766 63.9648 -27.5391 63.9648 -29.9316 C 63.9648 -32.2754 62.5977 -33.8379 60.6934 -33.8379 C 58.7402 -33.8379 57.373 -32.2754 57.373 -29.9316 C 57.373 -27.5879 58.7402 -25.9766 60.6934 -25.9766 Z"/>
  </g>
  <g id="Bold-S" transform="matrix(1 0 0 1 2292.44 696)">
   <path d="M 47.5586 5.46875 C 69.873 5.46875 88.2324 -12.8906 88.2324 -35.2051 C 88.2324 -57.5684 69.873 -75.9277 47.5098 -75.9277 C 25.1953 -75.9277 6.83594 -57.5684 6.83594 -35.2051 C 6.83594 -12.8906 25.1953 5.46875 47.5586 5.46875 Z M 34.7656 -19.043 C 29.834 -19.043 25.6836 -22.1191 24.707 -25.4395 C 24.5117 -26.0254 24.4141 -26.5625 24.4141 -27.1973 C 24.4141 -29.1016 25.8789 -30.2246 27.3926 -30.2246 C 28.7598 -30.2246 29.6387 -29.6387 30.3223 -28.3691 C 31.2988 -26.416 32.8125 -25.3906 34.8633 -25.3906 C 37.207 -25.3906 38.8184 -26.9531 38.8184 -28.8574 C 38.8184 -31.0059 37.3535 -32.373 34.9121 -32.373 L 33.7891 -32.373 C 31.7383 -32.373 30.6641 -33.7402 30.6641 -35.5957 C 30.6641 -37.4512 31.8848 -38.7695 33.7891 -38.7695 L 34.8145 -38.7695 C 36.9629 -38.7695 38.2324 -40.2344 38.2324 -42.0898 C 38.2324 -43.9941 36.7676 -45.3125 34.8145 -45.3125 C 32.8125 -45.3125 31.543 -44.3359 30.6152 -42.334 C 30.0781 -41.1133 29.1992 -40.4297 27.7832 -40.4297 C 26.0742 -40.4297 24.9023 -41.5527 24.9023 -43.457 C 24.9023 -44.1406 24.9512 -44.6777 25.2441 -45.4102 C 26.2207 -48.4375 29.7852 -51.4648 34.9609 -51.4648 C 41.0156 -51.4648 45.0195 -48.0957 45.0195 -43.0176 C 45.0195 -39.7461 42.7734 -36.7188 39.8438 -36.2305 L 39.8438 -35.9375 C 43.3594 -35.5957 45.8496 -32.4219 45.8496 -28.4668 C 45.8496 -22.8027 41.4551 -19.043 34.7656 -19.043 Z M 60.8398 -18.9941 C 56.8359 -18.9941 53.3203 -20.6543 51.416 -24.6582 C 50.1953 -27.1973 49.4629 -30.6152 49.4629 -34.8145 C 49.4629 -45.8496 54.4434 -51.4648 61.5234 -51.4648 C 65.6738 -51.4648 68.6523 -49.5117 69.6777 -47.1191 C 70.0195 -46.3867 70.166 -45.8008 70.166 -44.9707 C 70.166 -43.3105 68.8965 -42.2852 67.4805 -42.2852 C 66.1621 -42.2852 65.4297 -42.7734 64.6973 -43.6523 C 63.916 -44.5801 62.9395 -45.4102 61.2793 -45.4102 C 58.252 -45.4102 55.957 -42.1387 55.957 -37.1582 C 55.957 -36.6211 56.0059 -36.3281 56.0059 -35.9863 L 56.2988 -35.9863 C 57.1777 -38.0859 59.1797 -39.9902 62.6953 -39.9902 C 67.1875 -39.9902 71.2891 -36.5723 71.2891 -30.3223 C 71.2891 -23.291 66.9922 -18.9941 60.8398 -18.9941 Z M 60.4492 -24.8535 C 62.9883 -24.8535 64.6484 -26.7578 64.6484 -29.7363 C 64.6484 -32.5684 62.9395 -34.5215 60.4492 -34.5215 C 58.0078 -34.5215 56.2988 -32.5684 56.2988 -29.7363 C 56.2988 -26.8555 58.0078 -24.8535 60.4492 -24.8535 Z"/>
  </g>
  <g id="Semibold-S" transform="matrix(1 0 0 1 1996.2 696)">
   <path d="M 47.0703 4.98047 C 69.0918 4.98047 87.3047 -13.1836 87.3047 -35.2539 C 87.3047 -57.2754 69.0918 -75.4883 47.0215 -75.4883 C 25 -75.4883 6.83594 -57.2754 6.83594 -35.2539 C 6.83594 -13.1836 25.0488 4.98047 47.0703 4.98047 Z M 33.8379 -18.6035 C 28.7109 -18.6035 24.4629 -21.7773 23.4863 -25.2441 C 23.291 -25.8789 23.2422 -26.3184 23.2422 -26.9531 C 23.2422 -28.7598 24.5605 -29.8828 26.0254 -29.8828 C 27.3926 -29.8828 28.2227 -29.1992 28.8574 -27.9297 C 29.8828 -25.6836 31.543 -24.5117 33.9355 -24.5117 C 36.7676 -24.5117 38.6719 -26.3184 38.6719 -28.6133 C 38.6719 -31.1035 36.9629 -32.666 34.0332 -32.666 L 32.5684 -32.666 C 30.7617 -32.666 29.6875 -33.9355 29.6875 -35.6445 C 29.6875 -37.4023 30.8105 -38.623 32.5684 -38.623 L 33.9355 -38.623 C 36.377 -38.623 37.9395 -40.2832 37.9395 -42.4805 C 37.9395 -44.6289 36.2793 -46.0938 33.9844 -46.0938 C 31.6406 -46.0938 30.1758 -45.0195 29.248 -42.7246 C 28.7598 -41.4551 27.9297 -40.7227 26.5137 -40.7227 C 24.9023 -40.7227 23.7793 -41.8945 23.7793 -43.6523 C 23.7793 -44.2871 23.8281 -44.8242 24.0234 -45.459 C 25.0488 -48.7793 28.7598 -51.9043 34.1309 -51.9043 C 40.1855 -51.9043 44.2871 -48.4863 44.2871 -43.3105 C 44.2871 -39.8926 41.8945 -36.7188 38.8184 -36.2305 L 38.8184 -35.9375 C 42.5781 -35.5957 45.166 -32.3242 45.166 -28.2227 C 45.166 -22.5098 40.625 -18.6035 33.8379 -18.6035 Z M 60.6934 -18.5547 C 56.6895 -18.5547 53.1738 -20.1172 51.1719 -24.0723 C 49.9023 -26.6602 49.1211 -30.127 49.1211 -34.668 C 49.1211 -46.1914 54.0527 -51.9043 61.377 -51.9043 C 65.6738 -51.9043 68.7012 -49.9023 69.7754 -47.3633 C 70.0684 -46.6797 70.2148 -46.0938 70.2148 -45.3613 C 70.2148 -43.75 68.9941 -42.7246 67.6758 -42.7246 C 66.4062 -42.7246 65.6738 -43.2617 64.9414 -44.2383 C 64.1113 -45.3125 62.9883 -46.1914 61.1328 -46.1914 C 57.666 -46.1914 55.1758 -42.4805 55.1758 -36.7188 C 55.1758 -36.3281 55.1758 -36.084 55.2246 -35.8398 L 55.5176 -35.8398 C 56.3965 -38.0371 58.5449 -40.1367 62.3535 -40.1367 C 67.041 -40.1367 71.3867 -36.6211 71.3867 -30.0781 C 71.3867 -22.8516 66.9434 -18.5547 60.6934 -18.5547 Z M 60.3027 -24.0723 C 63.2324 -24.0723 65.0879 -26.2207 65.0879 -29.5898 C 65.0879 -32.8125 63.1836 -34.9609 60.3027 -34.9609 C 57.4707 -34.9609 55.5664 -32.7637 55.5664 -29.6387 C 55.5664 -26.3672 57.5195 -24.0723 60.3027 -24.0723 Z"/>
  </g>
  <g id="Medium-S" transform="matrix(1 0 0 1 1699.83 696)">
   <path d="M 46.7285 4.63867 C 68.5547 4.63867 86.6211 -13.4277 86.6211 -35.2539 C 86.6211 -57.0312 68.5059 -75.1465 46.6797 -75.1465 C 24.8535 -75.1465 6.83594 -57.0312 6.83594 -35.2539 C 6.83594 -13.4277 24.9023 4.63867 46.7285 4.63867 Z M 33.1543 -18.2617 C 27.832 -18.2617 23.584 -21.5332 22.5586 -25.1465 C 22.3633 -25.7324 22.3145 -26.1719 22.3145 -26.7578 C 22.3145 -28.4668 23.584 -29.5898 25.0488 -29.5898 C 26.3184 -29.5898 27.1484 -28.9062 27.7344 -27.5391 C 28.7598 -25.1465 30.5176 -23.8281 33.252 -23.8281 C 36.377 -23.8281 38.5742 -25.8301 38.5742 -28.3691 C 38.5742 -31.1523 36.6211 -32.9102 33.3984 -32.9102 L 31.6406 -32.9102 C 29.9805 -32.9102 28.9551 -34.1309 28.9551 -35.6934 C 28.9551 -37.4023 30.0293 -38.5254 31.6406 -38.5254 L 33.252 -38.5254 C 35.9375 -38.5254 37.7441 -40.332 37.7441 -42.7734 C 37.7441 -45.1172 35.8887 -46.7285 33.3496 -46.7285 C 30.7617 -46.7285 29.1504 -45.5078 28.2227 -43.0176 C 27.7344 -41.6992 26.9531 -40.9668 25.5859 -40.9668 C 24.0234 -40.9668 22.9492 -42.0898 22.9492 -43.7988 C 22.9492 -44.4336 22.9492 -44.9219 23.0957 -45.5078 C 24.1699 -49.0723 28.0273 -52.2461 33.4961 -52.2461 C 39.5508 -52.2461 43.7012 -48.7305 43.7012 -43.5547 C 43.7012 -39.9414 41.2109 -36.7188 38.0859 -36.2305 L 38.0859 -35.9375 C 41.9434 -35.5469 44.6777 -32.2266 44.6777 -28.0762 C 44.6777 -22.2656 40.0391 -18.2617 33.1543 -18.2617 Z M 60.5469 -18.2129 C 56.5918 -18.2129 53.0273 -19.7266 50.9766 -23.6816 C 49.707 -26.2207 48.877 -29.7363 48.877 -34.5215 C 48.877 -46.4355 53.7598 -52.2461 61.2793 -52.2461 C 65.625 -52.2461 68.75 -50.1953 69.8242 -47.5098 C 70.1172 -46.875 70.2148 -46.2891 70.2148 -45.6543 C 70.2148 -44.0918 69.0918 -43.1152 67.8223 -43.1152 C 66.6016 -43.1152 65.8691 -43.6035 65.0879 -44.6777 C 64.209 -45.8496 62.9883 -46.7773 61.0352 -46.7773 C 57.2754 -46.7773 54.5898 -42.7246 54.5898 -36.377 C 54.5898 -36.084 54.5898 -35.9375 54.5898 -35.6934 L 54.9316 -35.6934 C 55.8105 -38.0371 58.1055 -40.2344 62.0605 -40.2344 C 66.9434 -40.2344 71.4844 -36.6699 71.4844 -29.8828 C 71.4844 -22.4609 66.8945 -18.2129 60.5469 -18.2129 Z M 60.2051 -23.4863 C 63.4277 -23.4863 65.4297 -25.8301 65.4297 -29.4922 C 65.4297 -32.959 63.3301 -35.3516 60.2051 -35.3516 C 57.0801 -35.3516 54.9805 -32.959 54.9805 -29.541 C 54.9805 -25.9766 57.1289 -23.4863 60.2051 -23.4863 Z"/>
  </g>
  <g id="Regular-S" transform="matrix(1 0 0 1 1403.58 696)">
   <path d="M 46.2402 4.15039 C 67.7734 4.15039 85.6934 -13.7207 85.6934 -35.2539 C 85.6934 -56.7871 67.7246 -74.6582 46.1914 -74.6582 C 24.707 -74.6582 6.83594 -56.7871 6.83594 -35.2539 C 6.83594 -13.7207 24.7559 4.15039 46.2402 4.15039 Z M 32.2754 -17.8223 C 26.7578 -17.8223 22.4121 -21.1914 21.3867 -24.9512 C 21.1914 -25.5371 21.1426 -25.9277 21.1426 -26.5625 C 21.1426 -28.0762 22.2656 -29.1992 23.7305 -29.1992 C 24.9512 -29.1992 25.7324 -28.5156 26.3184 -27.0996 C 27.3926 -24.4141 29.248 -22.9492 32.3242 -22.9492 C 35.9375 -22.9492 38.4277 -25.1953 38.4277 -28.125 C 38.4277 -31.25 36.1816 -33.2031 32.5684 -33.2031 L 30.4688 -33.2031 C 29.0039 -33.2031 27.9785 -34.3262 27.9785 -35.791 C 27.9785 -37.3535 29.0039 -38.3789 30.4688 -38.3789 L 32.373 -38.3789 C 35.3516 -38.3789 37.4512 -40.332 37.4512 -43.1152 C 37.4512 -45.752 35.4004 -47.5586 32.5195 -47.5586 C 29.541 -47.5586 27.7832 -46.1914 26.8555 -43.4082 C 26.416 -42.041 25.6836 -41.3086 24.3652 -41.3086 C 22.8516 -41.3086 21.8262 -42.3828 21.8262 -43.9941 C 21.8262 -44.5801 21.8262 -45.0195 21.9238 -45.5566 C 22.998 -49.4629 27.002 -52.6855 32.666 -52.6855 C 38.7207 -52.6855 42.9688 -49.0723 42.9688 -43.8477 C 42.9688 -40.0879 40.3809 -36.7188 37.1094 -36.2305 L 37.1094 -35.9375 C 41.1621 -35.5469 44.043 -32.1289 44.043 -27.832 C 44.043 -21.9727 39.209 -17.8223 32.2754 -17.8223 Z M 60.3516 -17.7734 C 56.4453 -17.7734 52.8809 -19.1895 50.7324 -23.0957 C 49.3652 -25.6348 48.5352 -29.248 48.5352 -34.375 C 48.5352 -46.7773 53.3691 -52.6855 61.1328 -52.6855 C 65.625 -52.6855 68.7988 -50.5859 69.9219 -47.7051 C 70.1172 -47.168 70.2148 -46.582 70.2148 -46.0449 C 70.2148 -44.5312 69.2383 -43.5547 68.0664 -43.5547 C 66.8457 -43.5547 66.1133 -44.0918 65.332 -45.2148 C 64.3555 -46.5332 63.0371 -47.5586 60.8887 -47.5586 C 56.7383 -47.5586 53.8086 -43.0176 53.8086 -35.9375 L 53.8086 -35.5469 L 54.1992 -35.5469 C 55.0293 -37.9883 57.4707 -40.3809 61.7188 -40.3809 C 66.7969 -40.3809 71.582 -36.7188 71.582 -29.6387 C 71.582 -22.0215 66.8457 -17.7734 60.3516 -17.7734 Z M 60.0586 -22.7051 C 63.6719 -22.7051 65.8691 -25.293 65.8691 -29.3457 C 65.8691 -33.1543 63.5742 -35.791 60.0586 -35.791 C 56.5918 -35.791 54.248 -33.1543 54.248 -29.3945 C 54.248 -25.4883 56.6406 -22.7051 60.0586 -22.7051 Z"/>
  </g>
  <g id="Light-S" transform="matrix(1 0 0 1 1107.6 696)">
   <path d="M 45.5078 3.4668 C 66.6992 3.4668 84.2285 -14.0625 84.2285 -35.2051 C 84.2285 -56.3965 66.6504 -73.9258 45.5078 -73.9258 C 24.3164 -73.9258 6.83594 -56.3965 6.83594 -35.2051 C 6.83594 -14.0625 24.3652 3.4668 45.5078 3.4668 Z M 31.4453 -18.0664 C 26.0742 -18.0664 21.875 -21.3379 20.8008 -25 C 20.6055 -25.4883 20.5566 -25.8789 20.5566 -26.416 C 20.5566 -27.6855 21.4355 -28.5645 22.6562 -28.5645 C 23.6816 -28.5645 24.3164 -28.0273 24.7559 -26.8066 C 25.8301 -23.9258 28.2227 -22.2168 31.4941 -22.2168 C 35.5957 -22.2168 38.3789 -24.707 38.3789 -28.0273 C 38.3789 -31.3965 35.7422 -33.6914 31.7871 -33.6914 L 29.248 -33.6914 C 28.0273 -33.6914 27.2461 -34.6191 27.2461 -35.791 C 27.2461 -37.0605 28.0273 -37.8906 29.248 -37.8906 L 31.5918 -37.8906 C 34.9609 -37.8906 37.3535 -40.1855 37.3535 -43.2617 C 37.3535 -46.2402 34.9609 -48.291 31.5918 -48.291 C 28.3203 -48.291 26.1719 -46.6309 25.3418 -43.7012 C 25 -42.4805 24.4141 -41.8945 23.3398 -41.8945 C 22.0215 -41.8945 21.2402 -42.8223 21.2402 -44.1406 C 21.2402 -44.6289 21.2402 -45.0684 21.3379 -45.5078 C 22.3633 -49.4629 26.416 -52.4414 31.6895 -52.4414 C 37.6465 -52.4414 41.7969 -48.9258 41.7969 -43.7988 C 41.7969 -40.0879 39.1602 -36.6699 35.791 -36.1328 L 35.791 -35.9375 C 39.8926 -35.498 42.9199 -32.0801 42.9199 -27.832 C 42.9199 -22.1191 38.1836 -18.0664 31.4453 -18.0664 Z M 59.6191 -18.0176 C 55.4199 -18.0176 52.002 -19.6777 50 -23.4375 C 48.6816 -26.0254 47.9492 -29.5898 47.9492 -34.3262 C 47.9492 -46.3379 52.6367 -52.4414 60.3516 -52.4414 C 65.0391 -52.4414 68.2617 -49.9023 69.2383 -47.2656 C 69.4336 -46.8262 69.4824 -46.3867 69.4824 -45.9473 C 69.4824 -44.7266 68.75 -43.9453 67.7246 -43.9453 C 66.748 -43.9453 66.1621 -44.3848 65.5273 -45.3125 C 64.4531 -47.0703 62.6465 -48.291 60.1562 -48.291 C 55.3223 -48.291 52.1484 -43.3105 52.1484 -35.3027 L 52.1484 -34.9121 L 52.4414 -34.9121 C 53.5156 -37.7441 56.4453 -40.1367 60.6934 -40.1367 C 66.1133 -40.1367 70.752 -36.2793 70.752 -29.541 C 70.752 -22.3145 66.1621 -18.0176 59.6191 -18.0176 Z M 59.4238 -22.0215 C 63.5742 -22.0215 66.2109 -24.8535 66.2109 -29.2969 C 66.2109 -33.4961 63.4766 -36.377 59.4727 -36.377 C 55.4199 -36.377 52.6855 -33.4473 52.6855 -29.3457 C 52.6855 -25.0488 55.4688 -22.0215 59.4238 -22.0215 Z"/>
  </g>
  <g id="Thin-S" transform="matrix(1 0 0 1 811.867 696)">
   <path d="M 44.5801 2.53906 C 65.2832 2.53906 82.2754 -14.4531 82.2754 -35.2051 C 82.2754 -55.9082 65.2344 -72.9004 44.5312 -72.9004 C 23.8281 -72.9004 6.83594 -55.9082 6.83594 -35.2051 C 6.83594 -14.4531 23.877 2.53906 44.5801 2.53906 Z M 30.3711 -18.4082 C 25.1953 -18.4082 21.1426 -21.4844 19.9707 -25.0488 C 19.873 -25.4395 19.7754 -25.7812 19.7754 -26.2207 C 19.7754 -27.0996 20.3613 -27.7832 21.2402 -27.7832 C 22.0215 -27.7832 22.4609 -27.3438 22.7539 -26.4648 C 23.8281 -23.2422 26.8066 -21.2891 30.3711 -21.2891 C 35.1562 -21.2891 38.3301 -24.0723 38.3301 -27.9297 C 38.3301 -31.6406 35.2051 -34.375 30.7617 -34.375 L 27.6855 -34.375 C 26.7578 -34.375 26.2695 -34.9609 26.2695 -35.8398 C 26.2695 -36.7188 26.8066 -37.2559 27.6855 -37.2559 L 30.5176 -37.2559 C 34.375 -37.2559 37.2559 -39.9414 37.2559 -43.457 C 37.2559 -46.875 34.4727 -49.2188 30.4199 -49.2188 C 26.6602 -49.2188 24.0723 -47.168 23.3887 -44.043 C 23.1445 -43.1152 22.7051 -42.7246 21.9727 -42.7246 C 20.9473 -42.7246 20.4102 -43.3594 20.4102 -44.3359 C 20.4102 -44.6777 20.459 -45.0684 20.6055 -45.5078 C 21.5332 -49.4629 25.5859 -52.0996 30.4199 -52.0996 C 36.1816 -52.0996 40.332 -48.6816 40.332 -43.7988 C 40.332 -40.0879 37.5977 -36.6699 34.082 -36.0352 L 34.082 -35.9375 C 38.2324 -35.498 41.4062 -32.0312 41.4062 -27.8809 C 41.4062 -22.3633 36.8164 -18.4082 30.3711 -18.4082 Z M 58.6914 -18.3594 C 54.0039 -18.3594 50.8789 -20.3125 49.0723 -23.9258 C 47.7539 -26.5137 47.1191 -29.9805 47.1191 -34.2285 C 47.1191 -45.7031 51.709 -52.0996 59.2773 -52.0996 C 64.2578 -52.0996 67.5293 -49.0234 68.3594 -46.6797 C 68.457 -46.4355 68.5547 -46.0938 68.5547 -45.8008 C 68.5547 -45.0195 68.0664 -44.4336 67.2363 -44.4336 C 66.6016 -44.4336 66.2109 -44.8242 65.8203 -45.4102 C 64.5996 -47.7539 62.1582 -49.2188 59.2285 -49.2188 C 53.5156 -49.2188 49.9512 -43.7012 49.9512 -34.4727 L 49.9512 -34.082 L 50.0977 -34.082 C 51.4648 -37.4023 55.0781 -39.7949 59.375 -39.7949 C 65.2344 -39.7949 69.6777 -35.6445 69.6777 -29.4434 C 69.6777 -22.7051 65.1855 -18.3594 58.6914 -18.3594 Z M 58.6426 -21.1914 C 63.4766 -21.1914 66.6504 -24.3164 66.6504 -29.248 C 66.6504 -33.9844 63.3789 -37.1094 58.6426 -37.1094 C 53.9551 -37.1094 50.5371 -33.8867 50.5371 -29.2969 C 50.5371 -24.5605 53.9062 -21.1914 58.6426 -21.1914 Z"/>
  </g>
  <g id="Ultralight-S" transform="matrix(1 0 0 1 515.644 696)">
   <path d="M 44.043 2.05078 C 64.502 2.05078 81.2988 -14.6973 81.2988 -35.1562 C 81.2988 -55.6152 64.502 -72.3633 44.043 -72.3633 C 23.584 -72.3633 6.83594 -55.6152 6.83594 -35.1562 C 6.83594 -14.6973 23.584 2.05078 44.043 2.05078 Z M 29.834 -18.5547 C 24.707 -18.5547 20.752 -21.582 19.5801 -25.0977 C 19.4824 -25.3906 19.3848 -25.7324 19.3848 -26.123 C 19.3848 -26.8066 19.8242 -27.3438 20.5078 -27.3438 C 21.1426 -27.3438 21.4844 -27.002 21.7285 -26.2695 C 22.8027 -22.9004 26.0742 -20.752 29.834 -20.752 C 34.9121 -20.752 38.2812 -23.7305 38.2812 -27.8809 C 38.2812 -31.7383 34.8633 -34.7168 30.2246 -34.7168 L 26.8555 -34.7168 C 26.123 -34.7168 25.7324 -35.1562 25.7324 -35.8398 C 25.7324 -36.5234 26.1719 -36.9629 26.8555 -36.9629 L 29.9805 -36.9629 C 34.082 -36.9629 37.1582 -39.8438 37.1582 -43.5547 C 37.1582 -47.2168 34.1797 -49.7559 29.7852 -49.7559 C 25.7812 -49.7559 22.9492 -47.5098 22.4121 -44.2383 C 22.168 -43.457 21.8262 -43.1152 21.2402 -43.1152 C 20.4102 -43.1152 20.0195 -43.6523 20.0195 -44.4336 C 20.0195 -44.7266 20.0684 -45.1172 20.2148 -45.459 C 21.0938 -49.4629 25.1953 -51.9531 29.7852 -51.9531 C 35.4492 -51.9531 39.5508 -48.584 39.5508 -43.75 C 39.5508 -40.0879 36.8164 -36.6211 33.1543 -35.9863 L 33.1543 -35.9375 C 37.4023 -35.4492 40.6738 -31.9824 40.6738 -27.8809 C 40.6738 -22.4609 36.084 -18.5547 29.834 -18.5547 Z M 58.1543 -18.5547 C 53.2715 -18.5547 50.293 -20.6055 48.5352 -24.1699 C 47.2656 -26.8066 46.7285 -30.2246 46.7285 -34.1797 C 46.7285 -45.3613 51.1719 -51.9531 58.7402 -51.9531 C 63.8672 -51.9531 67.1875 -48.584 67.9199 -46.3379 C 67.9688 -46.1914 68.0176 -45.9473 68.0176 -45.7031 C 68.0176 -45.166 67.7246 -44.6777 66.9922 -44.6777 C 66.5039 -44.6777 66.2598 -45.0195 65.9668 -45.459 C 64.6973 -48.0957 61.9141 -49.7559 58.6914 -49.7559 C 52.5391 -49.7559 48.8281 -43.8965 48.8281 -34.0332 L 48.8281 -33.6426 L 48.9258 -33.6426 C 50.4395 -37.2559 54.3457 -39.6484 58.6426 -39.6484 C 64.7461 -39.6484 69.1406 -35.3027 69.1406 -29.3457 C 69.1406 -22.9004 64.6973 -18.5547 58.1543 -18.5547 Z M 58.2031 -20.752 C 63.3789 -20.752 66.8945 -24.0234 66.8945 -29.1992 C 66.8945 -34.2285 63.3301 -37.5 58.252 -37.5 C 53.1738 -37.5 49.4629 -34.082 49.4629 -29.248 C 49.4629 -24.2676 53.125 -20.752 58.2031 -20.752 Z"/>
  </g>
 </g>
</svg>
