<?xml version="1.0" encoding="UTF-8"?>
<!--Generator: Apple Native CoreSVG 123-->
<!DOCTYPE svg
PUBLIC "-//W3C//DTD SVG 1.1//EN"
       "http://www.w3.org/Graphics/SVG/1.1/DTD/svg11.dtd">
<svg version="1.1" xmlns="http://www.w3.org/2000/svg" xmlns:xlink="http://www.w3.org/1999/xlink" width="3300" height="2200">
 <!--glyph: "uni1006A2.medium", point size: 100.000000, font version: "Version 15.0d7e11", template writer version: "5"-->
 <g id="Notes">
  <rect height="2200" id="artboard" style="fill:white;opacity:1" width="3300" x="0" y="0"/>
  <line id="" style="fill:none;stroke:black;opacity:1;stroke-width:0.5;" x1="263" x2="3036" y1="292" y2="292"/>
  <text style="stroke:none;fill:black;font-family:-apple-system,&quot;SF Pro Display&quot;,&quot;SF Pro Text&quot;,Helvetica,sans-serif;font-weight:bold;" transform="matrix(1 0 0 1 263 322)">Weight/Scale Variations</text>
  <text style="stroke:none;fill:black;font-family:-apple-system,&quot;SF Pro Display&quot;,&quot;SF Pro Text&quot;,Helvetica,sans-serif;text-anchor:middle;" transform="matrix(1 0 0 1 559.711 322)">Ultralight</text>
  <text style="stroke:none;fill:black;font-family:-apple-system,&quot;SF Pro Display&quot;,&quot;SF Pro Text&quot;,Helvetica,sans-serif;text-anchor:middle;" transform="matrix(1 0 0 1 856.422 322)">Thin</text>
  <text style="stroke:none;fill:black;font-family:-apple-system,&quot;SF Pro Display&quot;,&quot;SF Pro Text&quot;,Helvetica,sans-serif;text-anchor:middle;" transform="matrix(1 0 0 1 1153.13 322)">Light</text>
  <text style="stroke:none;fill:black;font-family:-apple-system,&quot;SF Pro Display&quot;,&quot;SF Pro Text&quot;,Helvetica,sans-serif;text-anchor:middle;" transform="matrix(1 0 0 1 1449.84 322)">Regular</text>
  <text style="stroke:none;fill:black;font-family:-apple-system,&quot;SF Pro Display&quot;,&quot;SF Pro Text&quot;,Helvetica,sans-serif;text-anchor:middle;" transform="matrix(1 0 0 1 1746.56 322)">Medium</text>
  <text style="stroke:none;fill:black;font-family:-apple-system,&quot;SF Pro Display&quot;,&quot;SF Pro Text&quot;,Helvetica,sans-serif;text-anchor:middle;" transform="matrix(1 0 0 1 2043.27 322)">Semibold</text>
  <text style="stroke:none;fill:black;font-family:-apple-system,&quot;SF Pro Display&quot;,&quot;SF Pro Text&quot;,Helvetica,sans-serif;text-anchor:middle;" transform="matrix(1 0 0 1 2339.98 322)">Bold</text>
  <text style="stroke:none;fill:black;font-family:-apple-system,&quot;SF Pro Display&quot;,&quot;SF Pro Text&quot;,Helvetica,sans-serif;text-anchor:middle;" transform="matrix(1 0 0 1 2636.69 322)">Heavy</text>
  <text style="stroke:none;fill:black;font-family:-apple-system,&quot;SF Pro Display&quot;,&quot;SF Pro Text&quot;,Helvetica,sans-serif;text-anchor:middle;" transform="matrix(1 0 0 1 2933.4 322)">Black</text>
  <line id="" style="fill:none;stroke:black;opacity:1;stroke-width:0.5;" x1="263" x2="3036" y1="1903" y2="1903"/>
  <g id="" transform="matrix(1 0 0 1 263 1933)">
   <path d="M 9.24805 0.830078 C 13.5547 0.830078 17.1387 -2.74414 17.1387 -7.05078 C 17.1387 -11.3574 13.5449 -14.9316 9.23828 -14.9316 C 4.94141 -14.9316 1.36719 -11.3574 1.36719 -7.05078 C 1.36719 -2.74414 4.95117 0.830078 9.24805 0.830078 Z M 9.24805 -0.654297 C 5.70312 -0.654297 2.87109 -3.49609 2.87109 -7.05078 C 2.87109 -10.6055 5.69336 -13.4473 9.23828 -13.4473 C 12.793 -13.4473 15.6348 -10.6055 15.6445 -7.05078 C 15.6543 -3.49609 12.8027 -0.654297 9.24805 -0.654297 Z M 9.22852 -3.42773 C 9.69727 -3.42773 9.9707 -3.74023 9.9707 -4.25781 L 9.9707 -6.31836 L 12.1973 -6.31836 C 12.6953 -6.31836 13.0371 -6.57227 13.0371 -7.04102 C 13.0371 -7.51953 12.7148 -7.7832 12.1973 -7.7832 L 9.9707 -7.7832 L 9.9707 -10.0098 C 9.9707 -10.5273 9.69727 -10.8496 9.22852 -10.8496 C 8.75977 -10.8496 8.50586 -10.5078 8.50586 -10.0098 L 8.50586 -7.7832 L 6.29883 -7.7832 C 5.78125 -7.7832 5.44922 -7.51953 5.44922 -7.04102 C 5.44922 -6.57227 5.80078 -6.31836 6.29883 -6.31836 L 8.50586 -6.31836 L 8.50586 -4.25781 C 8.50586 -3.75977 8.75977 -3.42773 9.22852 -3.42773 Z"/>
  </g>
  <g id="" transform="matrix(1 0 0 1 281.506 1933)">
   <path d="M 11.709 2.91016 C 17.1582 2.91016 21.6699 -1.60156 21.6699 -7.05078 C 21.6699 -12.4902 17.1484 -17.0117 11.6992 -17.0117 C 6.25977 -17.0117 1.74805 -12.4902 1.74805 -7.05078 C 1.74805 -1.60156 6.26953 2.91016 11.709 2.91016 Z M 11.709 1.25 C 7.09961 1.25 3.41797 -2.44141 3.41797 -7.05078 C 3.41797 -11.6504 7.08984 -15.3516 11.6992 -15.3516 C 16.3086 -15.3516 20 -11.6504 20.0098 -7.05078 C 20.0195 -2.44141 16.3184 1.25 11.709 1.25 Z M 11.6895 -2.41211 C 12.207 -2.41211 12.5195 -2.77344 12.5195 -3.33984 L 12.5195 -6.23047 L 15.5762 -6.23047 C 16.123 -6.23047 16.5039 -6.51367 16.5039 -7.03125 C 16.5039 -7.55859 16.1426 -7.86133 15.5762 -7.86133 L 12.5195 -7.86133 L 12.5195 -10.9277 C 12.5195 -11.5039 12.207 -11.8555 11.6895 -11.8555 C 11.1719 -11.8555 10.8789 -11.4844 10.8789 -10.9277 L 10.8789 -7.86133 L 7.83203 -7.86133 C 7.26562 -7.86133 6.89453 -7.55859 6.89453 -7.03125 C 6.89453 -6.51367 7.28516 -6.23047 7.83203 -6.23047 L 10.8789 -6.23047 L 10.8789 -3.33984 C 10.8789 -2.79297 11.1719 -2.41211 11.6895 -2.41211 Z"/>
  </g>
  <g id="" transform="matrix(1 0 0 1 304.924 1933)">
   <path d="M 14.9707 5.67383 C 21.9336 5.67383 27.6953 -0.078125 27.6953 -7.04102 C 27.6953 -14.0039 21.9238 -19.7559 14.9609 -19.7559 C 8.00781 -19.7559 2.25586 -14.0039 2.25586 -7.04102 C 2.25586 -0.078125 8.01758 5.67383 14.9707 5.67383 Z M 14.9707 3.85742 C 8.93555 3.85742 4.08203 -1.00586 4.08203 -7.04102 C 4.08203 -13.0762 8.92578 -17.9395 14.9609 -17.9395 C 21.0059 -17.9395 25.8594 -13.0762 25.8691 -7.04102 C 25.8789 -1.00586 21.0156 3.85742 14.9707 3.85742 Z M 14.9512 -1.06445 C 15.5176 -1.06445 15.8691 -1.45508 15.8691 -2.06055 L 15.8691 -6.13281 L 20.1074 -6.13281 C 20.6934 -6.13281 21.1133 -6.46484 21.1133 -7.02148 C 21.1133 -7.59766 20.7227 -7.93945 20.1074 -7.93945 L 15.8691 -7.93945 L 15.8691 -12.1875 C 15.8691 -12.8027 15.5176 -13.1934 14.9512 -13.1934 C 14.3848 -13.1934 14.0625 -12.7832 14.0625 -12.1875 L 14.0625 -7.93945 L 9.83398 -7.93945 C 9.21875 -7.93945 8.80859 -7.59766 8.80859 -7.02148 C 8.80859 -6.46484 9.23828 -6.13281 9.83398 -6.13281 L 14.0625 -6.13281 L 14.0625 -2.06055 C 14.0625 -1.47461 14.3848 -1.06445 14.9512 -1.06445 Z"/>
  </g>
  <text style="stroke:none;fill:black;font-family:-apple-system,&quot;SF Pro Display&quot;,&quot;SF Pro Text&quot;,Helvetica,sans-serif;font-weight:bold;" transform="matrix(1 0 0 1 263 1953)">Design Variations</text>
  <text style="stroke:none;fill:black;font-family:-apple-system,&quot;SF Pro Display&quot;,&quot;SF Pro Text&quot;,Helvetica,sans-serif;" transform="matrix(1 0 0 1 263 1971)">Symbols are supported in up to nine weights and three scales.</text>
  <text style="stroke:none;fill:black;font-family:-apple-system,&quot;SF Pro Display&quot;,&quot;SF Pro Text&quot;,Helvetica,sans-serif;" transform="matrix(1 0 0 1 263 1989)">For optimal layout with text and other symbols, vertically align</text>
  <text style="stroke:none;fill:black;font-family:-apple-system,&quot;SF Pro Display&quot;,&quot;SF Pro Text&quot;,Helvetica,sans-serif;" transform="matrix(1 0 0 1 263 2007)">symbols with the adjacent text.</text>
  <rect height="14" id="" style="fill:#00AEEF;stroke:none;opacity:0.4;" width="3" x="776" y="1919"/>
  <g id="" transform="matrix(1 0 0 1 779 1933)">
   <path d="M 10.5273 0 L 12.373 0 L 7.17773 -14.0918 L 5.43945 -14.0918 L 0.244141 0 L 2.08984 0 L 3.50586 -4.0332 L 9.11133 -4.0332 Z M 6.2793 -11.9531 L 6.33789 -11.9531 L 8.59375 -5.52734 L 4.02344 -5.52734 Z"/>
  </g>
  <rect height="14" id="" style="fill:#00AEEF;stroke:none;opacity:0.4;" width="3" x="791.617" y="1919"/>
  <text style="stroke:none;fill:black;font-family:-apple-system,&quot;SF Pro Display&quot;,&quot;SF Pro Text&quot;,Helvetica,sans-serif;font-weight:bold;" transform="matrix(1 0 0 1 776 1953)">Margins</text>
  <text style="stroke:none;fill:black;font-family:-apple-system,&quot;SF Pro Display&quot;,&quot;SF Pro Text&quot;,Helvetica,sans-serif;" transform="matrix(1 0 0 1 776 1971)">Leading and trailing margins on the left and right side of each symbol</text>
  <text style="stroke:none;fill:black;font-family:-apple-system,&quot;SF Pro Display&quot;,&quot;SF Pro Text&quot;,Helvetica,sans-serif;" transform="matrix(1 0 0 1 776 1989)">can be adjusted by modifying the width of the blue rectangles.</text>
  <text style="stroke:none;fill:black;font-family:-apple-system,&quot;SF Pro Display&quot;,&quot;SF Pro Text&quot;,Helvetica,sans-serif;" transform="matrix(1 0 0 1 776 2007)">Modifications are automatically applied proportionally to all</text>
  <text style="stroke:none;fill:black;font-family:-apple-system,&quot;SF Pro Display&quot;,&quot;SF Pro Text&quot;,Helvetica,sans-serif;" transform="matrix(1 0 0 1 776 2025)">scales and weights.</text>
  <g id="" transform="matrix(1 0 0 1 1289 1933)">
   <path d="M 2.83203 3.11523 L 4.375 4.6582 C 5.22461 5.48828 6.19141 5.41992 7.06055 4.46289 L 17.2754 -6.66016 C 17.7051 -6.36719 18.0957 -6.37695 18.5645 -6.47461 L 19.6094 -6.68945 L 20.3027 -5.99609 L 20.2539 -5.47852 C 20.1855 -4.95117 20.3516 -4.53125 20.8496 -4.0332 L 21.6602 -3.22266 C 22.168 -2.71484 22.8223 -2.68555 23.3008 -3.16406 L 26.5527 -6.41602 C 27.0312 -6.89453 27.0117 -7.54883 26.5039 -8.05664 L 25.6836 -8.87695 C 25.1855 -9.375 24.7754 -9.55078 24.2383 -9.47266 L 23.7109 -9.41406 L 23.0566 -10.0781 L 23.3398 -11.2207 C 23.4863 -11.7871 23.3398 -12.2559 22.7148 -12.8613 L 20.3027 -15.2539 C 16.7578 -18.7793 12.2266 -18.6719 9.11133 -15.5371 C 8.69141 -15.1074 8.64258 -14.5215 8.91602 -14.0918 C 9.15039 -13.7207 9.62891 -13.4961 10.2734 -13.6621 C 11.7871 -14.043 13.3008 -13.9258 14.7852 -12.9199 L 14.1602 -11.3379 C 13.9258 -10.752 13.9453 -10.2734 14.1797 -9.83398 L 3.01758 0.439453 C 2.08008 1.30859 1.97266 2.25586 2.83203 3.11523 Z M 10.6738 -15.1465 C 13.3398 -17.1387 16.6504 -16.8262 19.0527 -14.4141 L 21.6797 -11.8066 C 21.9141 -11.5723 21.9434 -11.3867 21.8848 -11.0938 L 21.5039 -9.53125 L 23.0762 -7.95898 L 24.043 -8.04688 C 24.3262 -8.07617 24.4141 -8.05664 24.6387 -7.83203 L 25.2637 -7.20703 L 22.5098 -4.46289 L 21.8848 -5.07812 C 21.6602 -5.30273 21.6406 -5.40039 21.6699 -5.68359 L 21.7578 -6.64062 L 20.1953 -8.20312 L 18.5742 -7.89062 C 18.291 -7.83203 18.1445 -7.83203 17.9102 -8.07617 L 15.7324 -10.2539 C 15.5078 -10.4883 15.4785 -10.625 15.6055 -10.9473 L 16.5527 -13.2227 C 14.9512 -14.7559 12.8418 -15.6055 10.8008 -14.9512 C 10.7129 -14.9219 10.6445 -14.9414 10.6152 -14.9805 C 10.5859 -15.0293 10.5859 -15.0781 10.6738 -15.1465 Z M 4.10156 2.41211 C 3.61328 1.91406 3.78906 1.61133 4.12109 1.30859 L 15.0781 -8.80859 L 16.3086 -7.57812 L 6.15234 3.34961 C 5.84961 3.68164 5.46875 3.7793 5.06836 3.37891 Z"/>
  </g>
  <text style="stroke:none;fill:black;font-family:-apple-system,&quot;SF Pro Display&quot;,&quot;SF Pro Text&quot;,Helvetica,sans-serif;font-weight:bold;" transform="matrix(1 0 0 1 1289 1953)">Exporting</text>
  <text style="stroke:none;fill:black;font-family:-apple-system,&quot;SF Pro Display&quot;,&quot;SF Pro Text&quot;,Helvetica,sans-serif;" transform="matrix(1 0 0 1 1289 1971)">Symbols should be outlined when exporting to ensure the</text>
  <text style="stroke:none;fill:black;font-family:-apple-system,&quot;SF Pro Display&quot;,&quot;SF Pro Text&quot;,Helvetica,sans-serif;" transform="matrix(1 0 0 1 1289 1989)">design is preserved when submitting to Xcode.</text>
  <text id="template-version" style="stroke:none;fill:black;font-family:-apple-system,&quot;SF Pro Display&quot;,&quot;SF Pro Text&quot;,Helvetica,sans-serif;text-anchor:end;" transform="matrix(1 0 0 1 3036 1933)">Template v.1.0</text>
  <text style="stroke:none;fill:black;font-family:-apple-system,&quot;SF Pro Display&quot;,&quot;SF Pro Text&quot;,Helvetica,sans-serif;text-anchor:end;" transform="matrix(1 0 0 1 3036 1951)">Generated from 37.circle.fill</text>
  <text style="stroke:none;fill:black;font-family:-apple-system,&quot;SF Pro Display&quot;,&quot;SF Pro Text&quot;,Helvetica,sans-serif;text-anchor:end;" transform="matrix(1 0 0 1 3036 1969)">Typeset at 100 points</text>
  <text style="stroke:none;fill:black;font-family:-apple-system,&quot;SF Pro Display&quot;,&quot;SF Pro Text&quot;,Helvetica,sans-serif;" transform="matrix(1 0 0 1 263 726)">Small</text>
  <text style="stroke:none;fill:black;font-family:-apple-system,&quot;SF Pro Display&quot;,&quot;SF Pro Text&quot;,Helvetica,sans-serif;" transform="matrix(1 0 0 1 263 1156)">Medium</text>
  <text style="stroke:none;fill:black;font-family:-apple-system,&quot;SF Pro Display&quot;,&quot;SF Pro Text&quot;,Helvetica,sans-serif;" transform="matrix(1 0 0 1 263 1586)">Large</text>
 </g>
 <g id="Guides">
  <g id="H-reference" style="fill:#27AAE1;stroke:none;" transform="matrix(1 0 0 1 339 696)">
   <path d="M 54.9316 0 L 57.666 0 L 30.5664 -70.459 L 28.0762 -70.459 L 0.976562 0 L 3.66211 0 L 12.9395 -24.4629 L 45.7031 -24.4629 Z M 29.1992 -67.0898 L 29.4434 -67.0898 L 44.8242 -26.709 L 13.8184 -26.709 Z"/>
  </g>
  <line id="Baseline-S" style="fill:none;stroke:#27AAE1;opacity:1;stroke-width:0.577;" x1="263" x2="3036" y1="696" y2="696"/>
  <line id="Capline-S" style="fill:none;stroke:#27AAE1;opacity:1;stroke-width:0.577;" x1="263" x2="3036" y1="625.541" y2="625.541"/>
  <g id="H-reference" style="fill:#27AAE1;stroke:none;" transform="matrix(1 0 0 1 339 1126)">
   <path d="M 54.9316 0 L 57.666 0 L 30.5664 -70.459 L 28.0762 -70.459 L 0.976562 0 L 3.66211 0 L 12.9395 -24.4629 L 45.7031 -24.4629 Z M 29.1992 -67.0898 L 29.4434 -67.0898 L 44.8242 -26.709 L 13.8184 -26.709 Z"/>
  </g>
  <line id="Baseline-M" style="fill:none;stroke:#27AAE1;opacity:1;stroke-width:0.577;" x1="263" x2="3036" y1="1126" y2="1126"/>
  <line id="Capline-M" style="fill:none;stroke:#27AAE1;opacity:1;stroke-width:0.577;" x1="263" x2="3036" y1="1055.54" y2="1055.54"/>
  <g id="H-reference" style="fill:#27AAE1;stroke:none;" transform="matrix(1 0 0 1 339 1556)">
   <path d="M 54.9316 0 L 57.666 0 L 30.5664 -70.459 L 28.0762 -70.459 L 0.976562 0 L 3.66211 0 L 12.9395 -24.4629 L 45.7031 -24.4629 Z M 29.1992 -67.0898 L 29.4434 -67.0898 L 44.8242 -26.709 L 13.8184 -26.709 Z"/>
  </g>
  <line id="Baseline-L" style="fill:none;stroke:#27AAE1;opacity:1;stroke-width:0.577;" x1="263" x2="3036" y1="1556" y2="1556"/>
  <line id="Capline-L" style="fill:none;stroke:#27AAE1;opacity:1;stroke-width:0.577;" x1="263" x2="3036" y1="1485.54" y2="1485.54"/>
  <rect height="119.336" id="left-margin" style="fill:#00AEEF;stroke:none;opacity:0.4;" width="8.74023" x="1391.3" y="1030.79"/>
  <rect height="119.336" id="right-margin" style="fill:#00AEEF;stroke:none;opacity:0.4;" width="8.74023" x="1499.65" y="1030.79"/>
 </g>
 <g id="Symbols">
  <g id="Black-L" transform="matrix(1 0 0 1 2854.05 1556)">
   <path d="M 79.3457 32.8613 C 116.748 32.8613 147.412 2.19727 147.412 -35.2051 C 147.412 -72.6074 116.748 -103.271 79.2969 -103.271 C 41.8945 -103.271 11.2793 -72.6074 11.2793 -35.2051 C 11.2793 2.19727 41.9434 32.8613 79.3457 32.8613 Z M 60.8887 -9.47266 C 53.125 -9.47266 46.3867 -14.2578 44.873 -19.4336 C 44.5801 -20.5078 44.3848 -21.4355 44.3848 -22.5098 C 44.3848 -25.9277 46.9727 -27.832 49.5605 -27.832 C 51.9043 -27.832 53.5156 -26.8555 54.6875 -24.9023 C 56.25 -22.168 58.4961 -20.8984 61.084 -20.8984 C 63.9648 -20.8984 65.9668 -22.9492 65.9668 -25.3418 C 65.9668 -28.125 64.1113 -29.8828 60.9375 -29.8828 L 59.9609 -29.8828 C 56.0547 -29.8828 54.248 -32.2754 54.248 -35.5957 C 54.248 -38.9648 56.3477 -41.3574 59.9609 -41.3574 L 60.8398 -41.3574 C 63.7695 -41.3574 65.2344 -43.4082 65.2344 -45.7031 C 65.2344 -48.3887 63.3301 -50.0977 60.8398 -50.0977 C 58.252 -50.0977 56.5918 -48.7793 55.0781 -46.0938 C 54.0039 -44.2383 52.4414 -43.0176 50 -43.0176 C 47.1191 -43.0176 45.0684 -45.0195 45.0684 -48.3398 C 45.0684 -49.5117 45.2148 -50.5371 45.752 -51.9043 C 47.3145 -56.1523 52.8809 -61.084 61.0352 -61.084 C 71.0449 -61.084 77.4414 -55.7129 77.4414 -47.5098 C 77.4414 -42.4316 74.0234 -37.6953 69.3848 -36.9141 L 69.3848 -36.377 C 74.9023 -35.9375 78.6133 -30.8105 78.6133 -24.5605 C 78.6133 -15.4297 71.6797 -9.47266 60.8887 -9.47266 Z M 94.7754 -9.66797 C 91.0156 -9.66797 88.0859 -12.3047 88.0859 -16.3086 C 88.0859 -18.0176 88.4277 -19.2383 89.2578 -20.8008 L 102.979 -48.0469 L 102.979 -48.4863 L 89.0137 -48.4863 C 85.5957 -48.4863 82.6172 -50.4883 82.6172 -54.1992 C 82.6172 -57.959 85.4004 -60.0098 89.0137 -60.0098 L 108.301 -60.0098 C 114.209 -60.0098 116.797 -56.3965 116.797 -52.1484 C 116.797 -50.4395 116.455 -48.7305 115.625 -46.8262 L 101.416 -14.9902 C 99.9023 -11.4258 98.291 -9.66797 94.7754 -9.66797 Z"/>
  </g>
  <g id="Heavy-L" transform="matrix(1 0 0 1 2558.39 1556)">
   <path d="M 78.2715 31.7871 C 115.088 31.7871 145.312 1.61133 145.312 -35.2051 C 145.312 -72.0215 115.039 -102.197 78.2715 -102.197 C 41.4551 -102.197 11.2793 -72.0215 11.2793 -35.2051 C 11.2793 1.61133 41.5039 31.7871 78.2715 31.7871 Z M 59.2773 -8.88672 C 51.2695 -8.88672 44.4824 -13.8184 42.9199 -19.1895 C 42.627 -20.166 42.4316 -21.0449 42.4316 -22.0703 C 42.4316 -25.1953 44.7754 -27.002 47.2168 -27.002 C 49.3652 -27.002 50.8789 -25.9766 51.9043 -24.0723 C 53.5156 -20.8496 56.1523 -19.1895 59.4238 -19.1895 C 63.2324 -19.1895 65.918 -21.7285 65.918 -24.8535 C 65.918 -28.3203 63.4277 -30.5664 59.4238 -30.5664 L 57.666 -30.5664 C 54.248 -30.5664 52.5879 -32.7148 52.5879 -35.7422 C 52.5879 -38.8184 54.4922 -40.918 57.666 -40.918 L 59.3262 -40.918 C 62.8418 -40.918 64.9414 -43.4082 64.9414 -46.3867 C 64.9414 -49.5605 62.5488 -51.709 59.2773 -51.709 C 56.0059 -51.709 53.9062 -50.0488 52.4414 -46.8262 C 51.4648 -44.9219 50.0977 -43.7988 47.8027 -43.7988 C 45.0684 -43.7988 43.2129 -45.6543 43.2129 -48.7305 C 43.2129 -49.8047 43.3594 -50.7324 43.7988 -51.9531 C 45.4102 -56.7383 51.2207 -61.6699 59.4727 -61.6699 C 69.3848 -61.6699 75.9277 -56.1523 75.9277 -47.9492 C 75.9277 -42.627 72.3145 -37.6465 67.4805 -36.8652 L 67.4805 -36.377 C 73.2422 -35.8887 77.2461 -30.6152 77.2461 -24.2188 C 77.2461 -14.9902 70.1172 -8.88672 59.2773 -8.88672 Z M 93.5547 -9.17969 C 90.1367 -9.17969 87.5488 -11.5723 87.5488 -15.1367 C 87.5488 -16.6992 87.8418 -17.7734 88.5742 -19.1895 L 104.053 -49.8047 L 104.053 -50.2441 L 87.5977 -50.2441 C 84.5215 -50.2441 81.9336 -52.0508 81.9336 -55.3711 C 81.9336 -58.6914 84.4238 -60.5469 87.5977 -60.5469 L 108.789 -60.5469 C 114.062 -60.5469 116.553 -57.2754 116.553 -53.3691 C 116.553 -51.8066 116.211 -50.1953 115.381 -48.3398 L 99.4629 -13.916 C 98.0957 -10.7422 96.582 -9.17969 93.5547 -9.17969 Z"/>
  </g>
  <g id="Bold-L" transform="matrix(1 0 0 1 2262.88 1556)">
   <path d="M 77.0996 30.6152 C 113.232 30.6152 142.92 0.878906 142.92 -35.2051 C 142.92 -71.3379 113.184 -101.025 77.0508 -101.025 C 40.9668 -101.025 11.2793 -71.3379 11.2793 -35.2051 C 11.2793 0.878906 41.0156 30.6152 77.0996 30.6152 Z M 57.4707 -8.25195 C 49.1699 -8.25195 42.334 -13.3301 40.6738 -18.8965 C 40.4297 -19.8242 40.2832 -20.6055 40.2832 -21.582 C 40.2832 -24.3164 42.2852 -26.0254 44.5801 -26.0254 C 46.582 -26.0254 47.8516 -25.0488 48.7793 -23.0957 C 50.4395 -19.3359 53.5645 -17.2852 57.6172 -17.2852 C 62.4512 -17.2852 65.8203 -20.3613 65.8203 -24.3652 C 65.8203 -28.5645 62.6953 -31.3477 57.7637 -31.3477 L 55.127 -31.3477 C 52.2461 -31.3477 50.6836 -33.252 50.6836 -35.8887 C 50.6836 -38.623 52.3926 -40.4297 55.127 -40.4297 L 57.5684 -40.4297 C 61.8164 -40.4297 64.5996 -43.3594 64.5996 -47.1191 C 64.5996 -50.9277 61.6699 -53.4668 57.5195 -53.4668 C 53.5156 -53.4668 50.9277 -51.416 49.5117 -47.6562 C 48.6328 -45.7031 47.4121 -44.6777 45.3125 -44.6777 C 42.8223 -44.6777 41.1621 -46.3867 41.1621 -49.1211 C 41.1621 -50.0977 41.2598 -50.9277 41.6016 -52.0508 C 43.2129 -57.4219 49.3164 -62.3047 57.7148 -62.3047 C 67.5781 -62.3047 74.2676 -56.6895 74.2676 -48.4375 C 74.2676 -42.8223 70.3613 -37.6465 65.2832 -36.8164 L 65.2832 -36.377 C 71.3867 -35.791 75.7324 -30.4199 75.7324 -23.8281 C 75.7324 -14.5508 68.4082 -8.25195 57.4707 -8.25195 Z M 92.1387 -8.64258 C 89.1602 -8.64258 86.9141 -10.791 86.9141 -13.8184 C 86.9141 -15.2344 87.1582 -16.1621 87.793 -17.4316 L 105.273 -51.709 L 105.273 -52.1484 L 86.084 -52.1484 C 83.3496 -52.1484 81.1523 -53.8086 81.1523 -56.6895 C 81.1523 -59.5215 83.252 -61.1816 86.084 -61.1816 L 109.375 -61.1816 C 113.867 -61.1816 116.26 -58.3008 116.26 -54.7363 C 116.26 -53.3203 115.967 -51.9043 115.088 -50.0488 L 97.3145 -12.6953 C 96.0449 -9.96094 94.7266 -8.64258 92.1387 -8.64258 Z"/>
  </g>
  <g id="Semibold-L" transform="matrix(1 0 0 1 1966.97 1556)">
   <path d="M 76.2695 29.7852 C 111.914 29.7852 141.309 0.439453 141.309 -35.2051 C 141.309 -70.8496 111.865 -100.244 76.2695 -100.244 C 40.625 -100.244 11.2793 -70.8496 11.2793 -35.2051 C 11.2793 0.439453 40.6738 29.7852 76.2695 29.7852 Z M 56.25 -7.76367 C 47.7051 -7.76367 40.8691 -12.9883 39.1602 -18.7012 C 38.916 -19.5801 38.7695 -20.3125 38.7695 -21.2891 C 38.7695 -23.7305 40.5762 -25.3418 42.7246 -25.3418 C 44.6289 -25.3418 45.8008 -24.4141 46.6309 -22.4609 C 48.3398 -18.3105 51.8066 -15.9668 56.3477 -15.9668 C 61.8652 -15.9668 65.7227 -19.4336 65.7227 -23.9746 C 65.7227 -28.7109 62.1582 -31.8848 56.6406 -31.8848 L 53.3691 -31.8848 C 50.8789 -31.8848 49.4141 -33.5938 49.4141 -35.9863 C 49.4141 -38.4766 50.9766 -40.1367 53.3691 -40.1367 L 56.3965 -40.1367 C 61.1328 -40.1367 64.3555 -43.3594 64.3555 -47.6074 C 64.3555 -51.8555 61.0352 -54.6875 56.3477 -54.6875 C 51.7578 -54.6875 48.877 -52.3926 47.4609 -48.2422 C 46.7285 -46.2891 45.6055 -45.3125 43.6035 -45.3125 C 41.2598 -45.3125 39.7461 -46.9238 39.7461 -49.4141 C 39.7461 -50.3418 39.8438 -51.0742 40.0879 -52.0996 C 41.748 -57.8613 48.0469 -62.7441 56.4941 -62.7441 C 66.3574 -62.7441 73.0957 -57.0312 73.0957 -48.7793 C 73.0957 -42.9688 69.043 -37.6465 63.7695 -36.7676 L 63.7695 -36.377 C 70.1172 -35.7422 74.707 -30.2734 74.707 -23.5352 C 74.707 -14.2578 67.2363 -7.76367 56.25 -7.76367 Z M 91.2109 -8.25195 C 88.4766 -8.25195 86.4746 -10.2539 86.4746 -12.9395 C 86.4746 -14.209 86.6699 -15.0879 87.2559 -16.1621 L 106.104 -53.0762 L 106.104 -53.5156 L 85.0098 -53.5156 C 82.5195 -53.5156 80.6641 -55.0293 80.6641 -57.5684 C 80.6641 -60.1074 82.4707 -61.6211 85.0098 -61.6211 L 109.766 -61.6211 C 113.77 -61.6211 116.064 -58.9844 116.064 -55.7129 C 116.064 -54.3457 115.771 -53.0762 114.893 -51.2207 L 95.8008 -11.8652 C 94.6777 -9.42383 93.4082 -8.25195 91.2109 -8.25195 Z"/>
  </g>
  <g id="Medium-L" transform="matrix(1 0 0 1 1670.87 1556)">
   <path d="M 75.6836 29.1992 C 110.938 29.1992 140.088 0.0488281 140.088 -35.2051 C 140.088 -70.459 110.889 -99.6094 75.6348 -99.6094 C 40.3809 -99.6094 11.2793 -70.459 11.2793 -35.2051 C 11.2793 0.0488281 40.3809 29.1992 75.6836 29.1992 Z M 55.2734 -7.4707 C 46.582 -7.4707 39.7461 -12.6953 37.9883 -18.5547 C 37.7441 -19.4336 37.6465 -20.0684 37.6465 -20.9961 C 37.6465 -23.291 39.2578 -24.8047 41.3574 -24.8047 C 43.1641 -24.8047 44.2383 -23.877 45.0195 -21.9727 C 46.7285 -17.5293 50.4395 -14.9902 55.3711 -14.9902 C 61.4746 -14.9902 65.6738 -18.75 65.6738 -23.7305 C 65.6738 -28.8086 61.7676 -32.2754 55.7617 -32.2754 L 52.0508 -32.2754 C 49.8047 -32.2754 48.4375 -33.8867 48.4375 -36.0352 C 48.4375 -38.3789 49.9023 -39.8926 52.0508 -39.8926 L 55.4688 -39.8926 C 60.5957 -39.8926 64.1602 -43.3594 64.1602 -47.998 C 64.1602 -52.5391 60.5957 -55.6152 55.4199 -55.6152 C 50.4395 -55.6152 47.3145 -53.125 45.8984 -48.6328 C 45.2637 -46.6797 44.2383 -45.752 42.2852 -45.752 C 40.0879 -45.752 38.6719 -47.3145 38.6719 -49.6094 C 38.6719 -50.4883 38.7207 -51.2207 38.9648 -52.1484 C 40.625 -58.2031 47.0703 -63.0859 55.5664 -63.0859 C 65.3809 -63.0859 72.2168 -57.3242 72.2168 -49.0234 C 72.2168 -43.0664 68.0176 -37.6465 62.6465 -36.7676 L 62.6465 -36.377 C 69.1895 -35.7422 73.877 -30.1758 73.877 -23.3398 C 73.877 -14.0137 66.3086 -7.4707 55.2734 -7.4707 Z M 90.4785 -7.95898 C 87.9883 -7.95898 86.1328 -9.81445 86.1328 -12.2559 C 86.1328 -13.4277 86.2793 -14.209 86.8164 -15.2344 L 106.787 -54.1016 L 106.787 -54.541 L 84.1797 -54.541 C 81.8848 -54.541 80.2246 -55.957 80.2246 -58.252 C 80.2246 -60.5469 81.8848 -61.9629 84.1797 -61.9629 L 110.059 -61.9629 C 113.672 -61.9629 115.918 -59.5215 115.918 -56.4453 C 115.918 -55.127 115.674 -53.9551 114.746 -52.0996 L 94.6777 -11.2793 C 93.6035 -8.98438 92.4316 -7.95898 90.4785 -7.95898 Z"/>
  </g>
  <g id="Regular-L" transform="matrix(1 0 0 1 1374.97 1556)">
   <path d="M 74.8535 28.3691 C 109.668 28.3691 138.477 -0.390625 138.477 -35.2051 C 138.477 -70.0195 109.619 -98.7793 74.8047 -98.7793 C 40.0391 -98.7793 11.2793 -70.0195 11.2793 -35.2051 C 11.2793 -0.390625 40.0879 28.3691 74.8535 28.3691 Z M 54.0527 -6.98242 C 45.166 -6.98242 38.2812 -12.3535 36.4746 -18.4082 C 36.2793 -19.1895 36.1328 -19.7754 36.1328 -20.6543 C 36.1328 -22.7051 37.5488 -24.1699 39.5508 -24.1699 C 41.2109 -24.1699 42.1875 -23.2422 42.8711 -21.3379 C 44.6289 -16.5039 48.6816 -13.6719 54.1016 -13.6719 C 60.8887 -13.6719 65.625 -17.8223 65.625 -23.3887 C 65.625 -28.9551 61.2305 -32.8125 54.6387 -32.8125 L 50.293 -32.8125 C 48.4375 -32.8125 47.168 -34.2285 47.168 -36.1328 C 47.168 -38.2324 48.4863 -39.5508 50.293 -39.5508 L 54.2969 -39.5508 C 59.9121 -39.5508 63.916 -43.3594 63.916 -48.4863 C 63.916 -53.4668 59.9609 -56.8359 54.248 -56.8359 C 48.7305 -56.8359 45.2637 -54.0527 43.8965 -49.2188 C 43.3105 -47.2168 42.4316 -46.3379 40.625 -46.3379 C 38.5254 -46.3379 37.2559 -47.8027 37.2559 -49.9023 C 37.2559 -50.7324 37.3047 -51.3672 37.4512 -52.1973 C 39.1602 -58.6914 45.8008 -63.5254 54.3945 -63.5254 C 64.1602 -63.5254 71.0449 -57.666 71.0449 -49.3652 C 71.0449 -43.2129 66.6992 -37.5977 61.1816 -36.7188 L 61.1816 -36.377 C 67.9199 -35.6934 72.8516 -30.0293 72.8516 -23.0957 C 72.8516 -13.6719 65.1367 -6.98242 54.0527 -6.98242 Z M 89.5508 -7.61719 C 87.3047 -7.61719 85.6934 -9.27734 85.6934 -11.377 C 85.6934 -12.4023 85.8398 -13.1348 86.2793 -14.0137 L 107.617 -55.4199 L 107.617 -55.8594 L 83.1055 -55.8594 C 81.1035 -55.8594 79.7363 -57.1289 79.7363 -59.1309 C 79.7363 -61.084 81.1035 -62.4023 83.1055 -62.4023 L 110.4 -62.4023 C 113.574 -62.4023 115.674 -60.2051 115.674 -57.373 C 115.674 -56.1523 115.479 -55.0781 114.551 -53.2227 L 93.2129 -10.4492 C 92.2363 -8.44727 91.1133 -7.61719 89.5508 -7.61719 Z"/>
  </g>
  <g id="Light-L" transform="matrix(1 0 0 1 1079.18 1556)">
   <path d="M 73.9258 27.4902 C 108.301 27.4902 136.621 -0.830078 136.621 -35.1562 C 136.621 -69.5312 108.252 -97.8516 73.9258 -97.8516 C 39.5508 -97.8516 11.2793 -69.5312 11.2793 -35.1562 C 11.2793 -0.830078 39.5996 27.4902 73.9258 27.4902 Z M 53.7109 -7.32422 C 45.0195 -7.32422 38.3301 -12.5 36.4258 -18.457 C 36.2305 -19.1406 36.1328 -19.7266 36.1328 -20.5078 C 36.1328 -22.168 37.2559 -23.3887 38.916 -23.3887 C 40.332 -23.3887 41.1621 -22.6074 41.6992 -20.9961 C 43.457 -15.8691 48.0957 -12.793 53.7598 -12.793 C 61.2305 -12.793 66.3086 -17.1875 66.3086 -23.291 C 66.3086 -29.1992 61.377 -33.4473 54.3945 -33.4473 L 49.5117 -33.4473 C 47.9492 -33.4473 46.9238 -34.6191 46.9238 -36.1816 C 46.9238 -37.8906 47.998 -38.9648 49.5117 -38.9648 L 54.0039 -38.9648 C 60.1074 -38.9648 64.5508 -43.1152 64.5508 -48.6816 C 64.5508 -54.1016 60.2051 -57.7637 53.8086 -57.7637 C 47.9004 -57.7637 43.9453 -54.5898 42.7246 -49.5605 C 42.2852 -47.8516 41.5039 -47.1191 39.9902 -47.1191 C 38.2324 -47.1191 37.2559 -48.3398 37.2559 -50.0977 C 37.2559 -50.7812 37.3047 -51.416 37.4512 -52.1484 C 39.0625 -58.6914 45.752 -63.2324 53.9062 -63.2324 C 63.5254 -63.2324 70.3613 -57.4707 70.3613 -49.3164 C 70.3613 -43.2129 65.918 -37.5977 60.2051 -36.6211 L 60.2051 -36.377 C 67.0898 -35.6445 72.168 -29.9805 72.168 -23.0957 C 72.168 -13.916 64.5508 -7.32422 53.7109 -7.32422 Z M 88.4766 -7.86133 C 86.6211 -7.86133 85.4004 -9.22852 85.4004 -10.8398 C 85.4004 -11.6211 85.498 -12.207 85.8398 -12.9395 L 108.203 -56.6406 L 108.203 -56.9824 L 82.0801 -56.9824 C 80.4199 -56.9824 79.2969 -58.0566 79.2969 -59.668 C 79.2969 -61.3281 80.4199 -62.3535 82.0801 -62.3535 L 110.205 -62.3535 C 112.842 -62.3535 114.648 -60.5957 114.648 -58.3008 C 114.648 -57.2754 114.453 -56.4453 113.721 -54.9316 L 91.4062 -10.0586 C 90.6738 -8.49609 89.7949 -7.86133 88.4766 -7.86133 Z"/>
  </g>
  <g id="Thin-L" transform="matrix(1 0 0 1 783.693 1556)">
   <path d="M 72.7051 26.3184 C 106.494 26.3184 134.18 -1.36719 134.18 -35.1074 C 134.18 -68.8965 106.494 -96.582 72.7051 -96.582 C 38.9648 -96.582 11.2793 -68.8965 11.2793 -35.1074 C 11.2793 -1.36719 38.9648 26.3184 72.7051 26.3184 Z M 53.2715 -7.71484 C 44.873 -7.71484 38.3789 -12.6953 36.377 -18.5059 C 36.2305 -19.043 36.084 -19.6289 36.084 -20.3125 C 36.084 -21.4844 36.8652 -22.3633 38.0371 -22.3633 C 39.1602 -22.3633 39.6973 -21.7285 40.0879 -20.5078 C 41.8457 -14.9902 47.2656 -11.5723 53.3203 -11.5723 C 61.6211 -11.5723 67.1875 -16.3574 67.1875 -23.1445 C 67.1875 -29.4922 61.5723 -34.3262 54.0527 -34.3262 L 48.4863 -34.3262 C 47.3145 -34.3262 46.582 -35.0586 46.582 -36.2305 C 46.582 -37.4023 47.4121 -38.1348 48.4863 -38.1348 L 53.6133 -38.1348 C 60.3516 -38.1348 65.332 -42.8223 65.332 -48.877 C 65.332 -54.9316 60.498 -58.9844 53.2227 -58.9844 C 46.7285 -58.9844 42.2363 -55.3223 41.2109 -50 C 40.918 -48.6328 40.2832 -48.0957 39.209 -48.0957 C 37.793 -48.0957 37.207 -49.0234 37.207 -50.3418 C 37.207 -50.8301 37.2559 -51.5137 37.4023 -52.0996 C 38.9648 -58.6914 45.7031 -62.793 53.2715 -62.793 C 62.6465 -62.793 69.4336 -57.2266 69.4336 -49.2676 C 69.4336 -43.2129 64.8926 -37.5488 58.9844 -36.5234 L 58.9844 -36.377 C 65.918 -35.5957 71.2891 -29.8828 71.2891 -23.0957 C 71.2891 -14.209 63.7695 -7.71484 53.2715 -7.71484 Z M 87.0117 -8.1543 C 85.6934 -8.1543 84.9609 -9.13086 84.9609 -10.1074 C 84.9609 -10.5957 85.0586 -10.9863 85.2539 -11.4746 L 109.033 -58.252 L 109.033 -58.4961 L 80.7129 -58.4961 C 79.541 -58.4961 78.7598 -59.2285 78.7598 -60.4004 C 78.7598 -61.5723 79.541 -62.3047 80.7129 -62.3047 L 109.961 -62.3047 C 111.914 -62.3047 113.281 -61.1816 113.281 -59.5703 C 113.281 -58.7402 113.135 -58.252 112.598 -57.1777 L 89.0137 -9.57031 C 88.5742 -8.54492 87.9883 -8.1543 87.0117 -8.1543 Z"/>
  </g>
  <g id="Ultralight-L" transform="matrix(1 0 0 1 487.616 1556)">
   <path d="M 72.1191 25.7324 C 105.566 25.7324 132.91 -1.61133 132.91 -35.1074 C 132.91 -68.5547 105.566 -95.8984 72.1191 -95.8984 C 38.623 -95.8984 11.2793 -68.5547 11.2793 -35.1074 C 11.2793 -1.61133 38.623 25.7324 72.1191 25.7324 Z M 53.0762 -7.95898 C 44.7754 -7.95898 38.3789 -12.793 36.377 -18.5547 C 36.1816 -18.9941 36.0352 -19.5801 36.0352 -20.166 C 36.0352 -21.0938 36.6699 -21.8262 37.5977 -21.8262 C 38.5742 -21.8262 39.0137 -21.2891 39.2578 -20.2637 C 41.0645 -14.5508 46.875 -10.9375 53.0762 -10.9375 C 61.8164 -10.9375 67.627 -15.918 67.627 -23.0957 C 67.627 -29.6387 61.6699 -34.7656 53.9062 -34.7656 L 47.9492 -34.7656 C 46.9727 -34.7656 46.4355 -35.3027 46.4355 -36.2305 C 46.4355 -37.1582 47.0703 -37.7441 47.9492 -37.7441 L 53.418 -37.7441 C 60.498 -37.7441 65.7715 -42.6758 65.7715 -48.9746 C 65.7715 -55.3223 60.6445 -59.6191 52.9785 -59.6191 C 46.1426 -59.6191 41.3086 -55.7129 40.4297 -50.2441 C 40.2344 -49.0723 39.6973 -48.6328 38.8184 -48.6328 C 37.5488 -48.6328 37.1582 -49.3652 37.1582 -50.4395 C 37.1582 -50.8789 37.2559 -51.5137 37.4023 -52.0508 C 38.916 -58.6914 45.7031 -62.5977 52.9297 -62.5977 C 62.207 -62.5977 68.9453 -57.0801 68.9453 -49.2676 C 68.9453 -43.2129 64.3555 -37.5 58.3496 -36.4258 L 58.3496 -36.377 C 65.3809 -35.5957 70.8008 -29.8828 70.8008 -23.1445 C 70.8008 -14.3555 63.3789 -7.95898 53.0762 -7.95898 Z M 86.2793 -8.34961 C 85.2051 -8.34961 84.7656 -9.13086 84.7656 -9.76562 C 84.7656 -10.1074 84.8145 -10.3516 84.9609 -10.6934 L 109.424 -59.082 L 109.424 -59.2773 L 80.0293 -59.2773 C 79.1016 -59.2773 78.4668 -59.8633 78.4668 -60.791 C 78.4668 -61.7188 79.1016 -62.2559 80.0293 -62.2559 L 109.814 -62.2559 C 111.426 -62.2559 112.598 -61.4746 112.598 -60.2051 C 112.598 -59.5215 112.451 -59.1797 112.012 -58.3496 L 87.793 -9.32617 C 87.5 -8.59375 87.0605 -8.34961 86.2793 -8.34961 Z"/>
  </g>
  <g id="Black-M" transform="matrix(1 0 0 1 2870.97 1126)">
   <path d="M 62.4023 18.457 C 91.9922 18.457 116.113 -5.61523 116.113 -35.2051 C 116.113 -64.7949 91.9922 -88.8672 62.4023 -88.8672 C 32.8125 -88.8672 8.74023 -64.7949 8.74023 -35.2051 C 8.74023 -5.61523 32.8125 18.457 62.4023 18.457 Z M 49.1699 -16.2109 C 43.6523 -16.2109 38.5742 -19.6777 37.4512 -23.3398 C 37.207 -24.2188 37.0117 -25 37.0117 -25.8789 C 37.0117 -28.7598 39.2578 -30.2734 41.2598 -30.2734 C 43.1152 -30.2734 44.5312 -29.541 45.5078 -28.1738 C 46.6309 -26.6113 48.0957 -25.9277 49.3652 -25.9277 C 50.7324 -25.9277 51.6113 -27.002 51.6113 -28.125 C 51.6113 -29.5898 50.6836 -30.4688 49.0723 -30.4688 C 45.6055 -30.4688 44.1895 -32.4707 44.1895 -35.3516 C 44.1895 -38.1836 45.9473 -40.1855 49.0723 -40.1855 L 49.1211 -40.1855 C 50.7324 -40.1855 51.3184 -41.5039 51.3184 -42.5293 C 51.3184 -44.1406 50.293 -45.1172 49.0234 -45.1172 C 47.7051 -45.1172 46.7285 -44.3848 45.6055 -42.8711 C 44.6777 -41.5527 43.3594 -40.625 41.4551 -40.625 C 39.0625 -40.625 37.3535 -42.1875 37.3535 -45.0195 C 37.3535 -45.9473 37.5488 -46.8262 38.0371 -48.0469 C 39.2578 -50.6348 43.2129 -54.2969 49.1699 -54.2969 C 56.8848 -54.2969 61.6699 -50.3418 61.6699 -44.1406 C 61.6699 -40.5273 59.2773 -37.1094 55.9082 -36.5723 L 55.9082 -36.1328 C 59.8145 -35.8398 62.4023 -32.0312 62.4023 -27.4414 C 62.4023 -20.5566 57.3242 -16.2109 49.1699 -16.2109 Z M 74.5117 -16.2109 C 71.3379 -16.2109 68.8477 -18.4082 68.8477 -21.8262 C 68.8477 -23.291 69.1895 -24.2676 69.873 -25.5859 L 78.6133 -43.457 L 78.6133 -43.7988 L 70.3125 -43.7988 C 67.4316 -43.7988 64.6973 -45.4102 64.6973 -48.6816 C 64.6973 -51.9531 67.2363 -53.6621 70.3125 -53.6621 L 83.1543 -53.6621 C 88.3301 -53.6621 90.2832 -50.6348 90.2832 -47.2168 C 90.2832 -45.8008 89.9902 -44.3848 89.502 -43.0664 L 80.2246 -20.8008 C 79.0039 -17.7734 77.7344 -16.2109 74.5117 -16.2109 Z"/>
  </g>
  <g id="Heavy-M" transform="matrix(1 0 0 1 2575.19 1126)">
   <path d="M 61.5234 17.5781 C 90.5273 17.5781 114.258 -6.15234 114.258 -35.2051 C 114.258 -64.2578 90.5273 -87.9883 61.4746 -87.9883 C 32.4707 -87.9883 8.74023 -64.2578 8.74023 -35.2051 C 8.74023 -6.15234 32.4707 17.5781 61.5234 17.5781 Z M 47.5098 -15.4785 C 41.6504 -15.4785 36.4746 -19.1406 35.3027 -23.0469 C 35.0586 -23.877 34.8633 -24.6094 34.8633 -25.4395 C 34.8633 -28.0762 36.9141 -29.541 38.8184 -29.541 C 40.625 -29.541 41.8945 -28.7598 42.7734 -27.3438 C 43.9453 -25.293 45.752 -24.3164 47.6562 -24.3164 C 49.8535 -24.3164 51.3184 -25.8301 51.3184 -27.6367 C 51.3184 -29.7363 49.9023 -31.0547 47.5098 -31.0547 L 46.8262 -31.0547 C 43.7988 -31.0547 42.4316 -32.9102 42.4316 -35.498 C 42.4316 -38.0859 44.043 -39.8926 46.8262 -39.8926 L 47.4609 -39.8926 C 49.707 -39.8926 50.8301 -41.5039 50.8301 -43.2129 C 50.8301 -45.2637 49.3652 -46.582 47.4121 -46.582 C 45.5078 -46.582 44.1895 -45.6055 43.0664 -43.5547 C 42.1875 -42.1875 41.0156 -41.3086 39.1602 -41.3086 C 36.9141 -41.3086 35.3516 -42.7734 35.3516 -45.3613 C 35.3516 -46.2402 35.498 -47.0215 35.9375 -48.0957 C 37.1582 -51.3184 41.4062 -55.0293 47.5586 -55.0293 C 55.2734 -55.0293 60.2051 -50.9277 60.2051 -44.6289 C 60.2051 -40.7715 57.5684 -37.1094 54.0039 -36.5234 L 54.0039 -36.1328 C 58.2031 -35.791 61.084 -31.8359 61.084 -27.0508 C 61.084 -20.0195 55.7617 -15.4785 47.5098 -15.4785 Z M 73.4375 -15.5762 C 70.5566 -15.5762 68.3105 -17.627 68.3105 -20.7031 C 68.3105 -22.0215 68.6035 -22.9492 69.2383 -24.1699 L 79.6875 -45.0684 L 79.6875 -45.3613 L 69.043 -45.3613 C 66.4062 -45.3613 64.0625 -46.875 64.0625 -49.8047 C 64.0625 -52.7344 66.2598 -54.248 69.043 -54.248 L 83.7402 -54.248 C 88.3301 -54.248 90.2832 -51.5137 90.2832 -48.291 C 90.2832 -46.9727 89.9902 -45.6543 89.4531 -44.2871 L 78.5645 -19.7266 C 77.4414 -16.9922 76.2207 -15.5762 73.4375 -15.5762 Z"/>
  </g>
  <g id="Bold-M" transform="matrix(1 0 0 1 2279.5 1126)">
   <path d="M 60.498 16.5039 C 88.8672 16.5039 112.207 -6.78711 112.207 -35.2051 C 112.207 -63.623 88.8672 -86.9629 60.4492 -86.9629 C 32.0312 -86.9629 8.74023 -63.623 8.74023 -35.2051 C 8.74023 -6.78711 32.0801 16.5039 60.498 16.5039 Z M 45.6055 -14.6973 C 39.3555 -14.6973 34.082 -18.5547 32.8613 -22.7539 C 32.666 -23.4863 32.5195 -24.1699 32.5195 -24.9512 C 32.5195 -27.2949 34.2773 -28.6621 36.1328 -28.6621 C 37.793 -28.6621 38.916 -27.9297 39.6973 -26.416 C 40.9668 -23.8281 43.1152 -22.5098 45.752 -22.5098 C 48.877 -22.5098 51.0254 -24.5605 51.0254 -27.0996 C 51.0254 -29.9316 49.0234 -31.7383 45.8008 -31.7383 L 44.2871 -31.7383 C 41.6992 -31.7383 40.4297 -33.3984 40.4297 -35.6445 C 40.4297 -37.9883 41.8945 -39.5508 44.2871 -39.5508 L 45.6543 -39.5508 C 48.5352 -39.5508 50.2441 -41.5527 50.2441 -43.9941 C 50.2441 -46.582 48.3398 -48.291 45.6543 -48.291 C 42.9688 -48.291 41.3086 -46.9238 40.1367 -44.3848 C 39.4043 -42.8711 38.3789 -42.041 36.6211 -42.041 C 34.5703 -42.041 33.1543 -43.457 33.1543 -45.752 C 33.1543 -46.582 33.252 -47.2656 33.5449 -48.1934 C 34.8145 -52.002 39.3555 -55.8105 45.8008 -55.8105 C 53.4668 -55.8105 58.5449 -51.5625 58.5449 -45.166 C 58.5449 -40.9668 55.7129 -37.1094 51.9043 -36.5234 L 51.9043 -36.1328 C 56.4453 -35.6934 59.6191 -31.6406 59.6191 -26.6113 C 59.6191 -19.4824 54.0527 -14.6973 45.6055 -14.6973 Z M 72.2656 -14.9414 C 69.6777 -14.9414 67.7246 -16.748 67.7246 -19.4336 C 67.7246 -20.6543 67.9688 -21.4355 68.5059 -22.5098 L 80.8594 -46.8262 L 80.8594 -47.168 L 67.6758 -47.168 C 65.332 -47.168 63.3789 -48.5352 63.3789 -51.0742 C 63.3789 -53.5645 65.2344 -54.9805 67.6758 -54.9805 L 84.4238 -54.9805 C 88.3789 -54.9805 90.2832 -52.4902 90.2832 -49.5117 C 90.2832 -48.291 90.0391 -47.1191 89.4043 -45.6543 L 76.7578 -18.5059 C 75.6836 -16.1133 74.5605 -14.9414 72.2656 -14.9414 Z"/>
  </g>
  <g id="Semibold-M" transform="matrix(1 0 0 1 1983.5 1126)">
   <path d="M 59.7656 15.8203 C 87.7441 15.8203 110.791 -7.22656 110.791 -35.2051 C 110.791 -63.1836 87.6953 -86.2793 59.7656 -86.2793 C 31.7871 -86.2793 8.74023 -63.1836 8.74023 -35.2051 C 8.74023 -7.22656 31.7871 15.8203 59.7656 15.8203 Z M 44.3359 -14.1602 C 37.793 -14.1602 32.4707 -18.1152 31.2012 -22.5098 C 31.0059 -23.2422 30.9082 -23.8281 30.9082 -24.6094 C 30.9082 -26.7578 32.4707 -28.125 34.2773 -28.125 C 35.8398 -28.125 36.8652 -27.3438 37.5977 -25.7812 C 38.916 -22.8516 41.2598 -21.2402 44.4336 -21.2402 C 48.1934 -21.2402 50.8301 -23.6328 50.8301 -26.7578 C 50.8301 -30.0293 48.4375 -32.1777 44.5801 -32.1777 L 42.5293 -32.1777 C 40.2832 -32.1777 39.0625 -33.6914 39.0625 -35.7422 C 39.0625 -37.8906 40.3809 -39.3555 42.5293 -39.3555 L 44.4336 -39.3555 C 47.7539 -39.3555 49.8535 -41.6016 49.8535 -44.4824 C 49.8535 -47.4609 47.6074 -49.4141 44.4336 -49.4141 C 41.2598 -49.4141 39.3066 -47.8516 38.1836 -44.9219 C 37.5 -43.3594 36.5723 -42.5293 34.8633 -42.5293 C 32.9102 -42.5293 31.5918 -43.8965 31.5918 -45.9961 C 31.5918 -46.8262 31.6895 -47.4121 31.9336 -48.291 C 33.2031 -52.5391 37.9395 -56.3965 44.5801 -56.3965 C 52.2461 -56.3965 57.4219 -52.002 57.4219 -45.5566 C 57.4219 -41.1621 54.3945 -37.1094 50.4883 -36.4746 L 50.4883 -36.1328 C 55.2246 -35.6934 58.5938 -31.4941 58.5938 -26.3184 C 58.5938 -19.0918 52.8809 -14.1602 44.3359 -14.1602 Z M 71.4355 -14.502 C 69.0918 -14.502 67.334 -16.1621 67.334 -18.5547 C 67.334 -19.6777 67.4805 -20.4102 68.0176 -21.3867 L 81.6406 -48.0469 L 81.6406 -48.3887 L 66.6992 -48.3887 C 64.5508 -48.3887 62.8906 -49.707 62.8906 -51.9043 C 62.8906 -54.1504 64.502 -55.4688 66.6992 -55.4688 L 84.8633 -55.4688 C 88.3789 -55.4688 90.2832 -53.1738 90.2832 -50.3418 C 90.2832 -49.2188 90.0391 -48.0957 89.3555 -46.582 L 75.4883 -17.6758 C 74.5117 -15.5273 73.3887 -14.502 71.4355 -14.502 Z"/>
  </g>
  <g id="Medium-M" transform="matrix(1 0 0 1 1687.3 1126)">
   <path d="M 59.2285 15.2832 C 86.9141 15.2832 109.766 -7.56836 109.766 -35.2051 C 109.766 -62.8906 86.8652 -85.7422 59.1797 -85.7422 C 31.543 -85.7422 8.74023 -62.8906 8.74023 -35.2051 C 8.74023 -7.56836 31.5918 15.2832 59.2285 15.2832 Z M 43.3594 -13.7207 C 36.6211 -13.7207 31.25 -17.8223 29.9316 -22.3633 C 29.7363 -23.0469 29.6387 -23.6328 29.6387 -24.3652 C 29.6387 -26.3672 31.0547 -27.6855 32.8613 -27.6855 C 34.375 -27.6855 35.3516 -26.9043 35.9863 -25.293 C 37.3047 -22.0703 39.8926 -20.3125 43.457 -20.3125 C 47.7051 -20.3125 50.6836 -22.998 50.6836 -26.4648 C 50.6836 -30.127 47.9492 -32.5195 43.6523 -32.5195 L 41.1621 -32.5195 C 39.209 -32.5195 38.0371 -33.9355 38.0371 -35.791 C 38.0371 -37.8418 39.2578 -39.1602 41.1621 -39.1602 L 43.457 -39.1602 C 47.1191 -39.1602 49.5605 -41.6016 49.5605 -44.9219 C 49.5605 -48.0957 47.0703 -50.293 43.5059 -50.293 C 39.9902 -50.293 37.793 -48.584 36.6699 -45.3125 C 36.0352 -43.7012 35.1562 -42.9199 33.5449 -42.9199 C 31.6895 -42.9199 30.4199 -44.2383 30.4199 -46.2402 C 30.4199 -46.9727 30.4688 -47.5586 30.6641 -48.3398 C 31.9824 -52.8809 36.9141 -56.7871 43.6523 -56.7871 C 51.3184 -56.7871 56.5918 -52.2949 56.5918 -45.8496 C 56.5918 -41.2598 53.418 -37.1094 49.3652 -36.4746 L 49.3652 -36.1328 C 54.2969 -35.6445 57.8613 -31.3965 57.8613 -26.0742 C 57.8613 -18.7988 52.002 -13.7207 43.3594 -13.7207 Z M 70.8496 -14.1602 C 68.6523 -14.1602 66.9922 -15.7227 66.9922 -17.9199 C 66.9922 -18.9453 67.1387 -19.6289 67.627 -20.5566 L 82.2266 -48.9746 L 82.2266 -49.3164 L 65.9668 -49.3164 C 63.9648 -49.3164 62.5 -50.5371 62.5 -52.5879 C 62.5 -54.5898 63.9648 -55.8105 65.9668 -55.8105 L 85.2539 -55.8105 C 88.4277 -55.8105 90.2832 -53.6621 90.2832 -51.0254 C 90.2832 -49.9023 90.0391 -48.877 89.3066 -47.3145 L 74.5117 -17.041 C 73.584 -15.0879 72.5098 -14.1602 70.8496 -14.1602 Z"/>
  </g>
  <g id="Regular-M" transform="matrix(1 0 0 1 1391.3 1126)">
   <path d="M 58.5449 14.5508 C 85.791 14.5508 108.35 -8.00781 108.35 -35.2539 C 108.35 -62.4512 85.7422 -85.0586 58.4961 -85.0586 C 31.2988 -85.0586 8.74023 -62.4512 8.74023 -35.2539 C 8.74023 -8.00781 31.3477 14.5508 58.5449 14.5508 Z M 42.0898 -13.1836 C 35.0586 -13.1836 29.6387 -17.4316 28.2715 -22.168 C 28.125 -22.8027 28.0273 -23.291 28.0273 -24.0234 C 28.0273 -25.8301 29.2969 -27.0996 31.0059 -27.0996 C 32.4707 -27.0996 33.3008 -26.3184 33.9355 -24.6582 C 35.3027 -21.0938 38.0859 -19.043 42.1387 -19.043 C 47.0215 -19.043 50.4883 -22.0703 50.4883 -26.0742 C 50.4883 -30.2734 47.3633 -33.0078 42.4805 -33.0078 L 39.4531 -33.0078 C 37.793 -33.0078 36.6699 -34.2773 36.6699 -35.8887 C 36.6699 -37.7441 37.8418 -38.916 39.4531 -38.916 L 42.2363 -38.916 C 46.3379 -38.916 49.2188 -41.6504 49.2188 -45.4102 C 49.2188 -48.9746 46.3379 -51.4648 42.2852 -51.4648 C 38.2812 -51.4648 35.8398 -49.5117 34.668 -45.8496 C 34.1797 -44.1895 33.3984 -43.4082 31.7871 -43.4082 C 30.0781 -43.4082 28.9062 -44.6777 28.9062 -46.4844 C 28.9062 -47.2168 28.9062 -47.7051 29.0527 -48.3887 C 30.3711 -53.418 35.498 -57.3242 42.4316 -57.3242 C 50.0977 -57.3242 55.4688 -52.7344 55.4688 -46.1914 C 55.4688 -41.4551 52.1484 -37.1094 47.9492 -36.4258 L 47.9492 -36.1328 C 53.125 -35.5957 56.8359 -31.25 56.8359 -25.7812 C 56.8359 -18.4082 50.8301 -13.1836 42.0898 -13.1836 Z M 70.0195 -13.6719 C 68.0664 -13.6719 66.6016 -15.1367 66.6016 -17.041 C 66.6016 -17.9688 66.6992 -18.6523 67.1387 -19.4336 L 83.0566 -50.1953 L 83.0566 -50.5371 L 64.9902 -50.5371 C 63.2324 -50.5371 62.0117 -51.709 62.0117 -53.418 C 62.0117 -55.1758 63.2324 -56.2988 64.9902 -56.2988 L 85.6934 -56.2988 C 88.4277 -56.2988 90.2344 -54.3457 90.2344 -51.8555 C 90.2344 -50.7812 90.0879 -49.8535 89.2578 -48.2422 L 73.2422 -16.2109 C 72.4121 -14.4531 71.3867 -13.6719 70.0195 -13.6719 Z"/>
  </g>
  <g id="Light-M" transform="matrix(1 0 0 1 1095.42 1126)">
   <path d="M 57.7148 13.7695 C 84.5215 13.7695 106.689 -8.39844 106.689 -35.2051 C 106.689 -62.0117 84.5215 -84.1797 57.666 -84.1797 C 30.8594 -84.1797 8.74023 -62.0117 8.74023 -35.2051 C 8.74023 -8.39844 30.9082 13.7695 57.7148 13.7695 Z M 41.7969 -13.4766 C 34.9609 -13.4766 29.6875 -17.5293 28.2715 -22.2168 C 28.0762 -22.7539 27.9785 -23.2422 27.9785 -23.877 C 27.9785 -25.3418 29.0039 -26.416 30.4199 -26.416 C 31.6406 -26.416 32.373 -25.7324 32.8125 -24.3652 C 34.2285 -20.5078 37.5488 -18.2129 41.8457 -18.2129 C 47.3145 -18.2129 51.0742 -21.5332 51.0742 -26.0254 C 51.0742 -30.4688 47.5098 -33.5938 42.2363 -33.5938 L 38.7207 -33.5938 C 37.3535 -33.5938 36.4746 -34.5703 36.4746 -35.9375 C 36.4746 -37.4512 37.4023 -38.3789 38.7207 -38.3789 L 41.9922 -38.3789 C 46.4844 -38.3789 49.7559 -41.4551 49.7559 -45.5566 C 49.7559 -49.5605 46.582 -52.2949 41.8945 -52.2949 C 37.5 -52.2949 34.668 -50 33.6426 -46.1914 C 33.252 -44.7266 32.5684 -44.0918 31.25 -44.0918 C 29.7852 -44.0918 28.8574 -45.1172 28.8574 -46.6797 C 28.8574 -47.2656 28.9062 -47.7539 29.0039 -48.3398 C 30.3223 -53.418 35.498 -57.0801 41.9922 -57.0801 C 49.5117 -57.0801 54.834 -52.5879 54.834 -46.1914 C 54.834 -41.4551 51.4648 -37.0605 47.0703 -36.377 L 47.0703 -36.1328 C 52.3438 -35.5957 56.25 -31.2012 56.25 -25.8301 C 56.25 -18.6035 50.293 -13.4766 41.7969 -13.4766 Z M 69.043 -13.916 C 67.4316 -13.916 66.3086 -15.0879 66.3086 -16.5527 C 66.3086 -17.2852 66.4062 -17.8223 66.748 -18.457 L 83.5938 -51.2695 L 83.5938 -51.5625 L 64.0625 -51.5625 C 62.6465 -51.5625 61.6699 -52.4902 61.6699 -53.9062 C 61.6699 -55.3711 62.6465 -56.25 64.0625 -56.25 L 85.498 -56.25 C 87.793 -56.25 89.3066 -54.7363 89.3066 -52.6855 C 89.3066 -51.8066 89.1602 -51.0742 88.5254 -49.7559 L 71.6309 -15.918 C 70.9473 -14.502 70.166 -13.916 69.043 -13.916 Z"/>
  </g>
  <g id="Thin-M" transform="matrix(1 0 0 1 799.806 1126)">
   <path d="M 56.6406 12.7441 C 82.9102 12.7441 104.492 -8.83789 104.492 -35.1562 C 104.492 -61.4746 82.9102 -83.0566 56.5918 -83.0566 C 30.3223 -83.0566 8.74023 -61.4746 8.74023 -35.1562 C 8.74023 -8.83789 30.3223 12.7441 56.6406 12.7441 Z M 41.4062 -13.8184 C 34.8145 -13.8184 29.7363 -17.7246 28.2227 -22.2656 C 28.0762 -22.7051 27.9785 -23.1445 27.9785 -23.6816 C 27.9785 -24.707 28.6621 -25.4883 29.6875 -25.4883 C 30.6152 -25.4883 31.1035 -24.9512 31.3965 -23.9258 C 32.7637 -19.7266 36.8164 -17.1387 41.4062 -17.1387 C 47.6562 -17.1387 51.8555 -20.8008 51.8555 -25.8789 C 51.8555 -30.7129 47.6562 -34.3262 41.9922 -34.3262 L 37.793 -34.3262 C 36.8164 -34.3262 36.1816 -35.0098 36.1816 -35.9863 C 36.1816 -37.0117 36.8652 -37.6465 37.793 -37.6465 L 41.6016 -37.6465 C 46.7285 -37.6465 50.4883 -41.1621 50.4883 -45.752 C 50.4883 -50.293 46.8262 -53.3691 41.4062 -53.3691 C 36.4746 -53.3691 33.1055 -50.6348 32.2754 -46.582 C 31.9824 -45.459 31.4941 -45.0195 30.5664 -45.0195 C 29.3457 -45.0195 28.8086 -45.752 28.8086 -46.875 C 28.8086 -47.3145 28.8574 -47.8027 29.0039 -48.291 C 30.2246 -53.418 35.4492 -56.6895 41.4062 -56.6895 C 48.7305 -56.6895 54.0039 -52.3438 54.0039 -46.1426 C 54.0039 -41.4551 50.4883 -37.0117 45.9961 -36.2305 L 45.9961 -36.1328 C 51.3672 -35.5469 55.4199 -31.1035 55.4199 -25.8301 C 55.4199 -18.8477 49.5605 -13.8184 41.4062 -13.8184 Z M 67.7246 -14.209 C 66.6016 -14.209 65.918 -15.0391 65.918 -15.918 C 65.918 -16.3574 66.0156 -16.6992 66.2109 -17.1387 L 84.3262 -52.7344 L 84.3262 -52.9297 L 62.8418 -52.9297 C 61.8164 -52.9297 61.1328 -53.5645 61.1328 -54.5898 C 61.1328 -55.5664 61.8164 -56.2012 62.8418 -56.2012 L 85.2539 -56.2012 C 86.9141 -56.2012 88.0859 -55.2246 88.0859 -53.8086 C 88.0859 -53.125 87.9395 -52.6855 87.5 -51.7578 L 69.5312 -15.4785 C 69.0918 -14.5508 68.5547 -14.209 67.7246 -14.209 Z"/>
  </g>
  <g id="Ultralight-M" transform="matrix(1 0 0 1 503.656 1126)">
   <path d="M 56.0547 12.207 C 82.0801 12.207 103.369 -9.08203 103.369 -35.1562 C 103.369 -61.1816 82.0801 -82.4707 56.0547 -82.4707 C 30.0293 -82.4707 8.74023 -61.1816 8.74023 -35.1562 C 8.74023 -9.08203 30.0293 12.207 56.0547 12.207 Z M 41.2109 -14.0137 C 34.7168 -14.0137 29.7363 -17.8223 28.1738 -22.3145 C 28.0762 -22.6562 27.9297 -23.0957 27.9297 -23.584 C 27.9297 -24.4141 28.4668 -25 29.2969 -25 C 30.0781 -25 30.4199 -24.5605 30.6641 -23.7305 C 32.0312 -19.3359 36.4258 -16.6016 41.2109 -16.6016 C 47.8516 -16.6016 52.2949 -20.4102 52.2949 -25.8301 C 52.2949 -30.8594 47.7539 -34.7168 41.8457 -34.7168 L 37.3047 -34.7168 C 36.5234 -34.7168 36.0352 -35.2051 36.0352 -35.9863 C 36.0352 -36.8164 36.5723 -37.3047 37.3047 -37.3047 L 41.4551 -37.3047 C 46.8262 -37.3047 50.8301 -41.0645 50.8301 -45.8496 C 50.8301 -50.6836 46.9727 -53.9551 41.1133 -53.9551 C 35.9375 -53.9551 32.2754 -50.9766 31.543 -46.8262 C 31.3965 -45.8008 30.957 -45.459 30.2246 -45.459 C 29.1504 -45.459 28.8086 -46.0449 28.8086 -46.9727 C 28.8086 -47.3633 28.8574 -47.8516 29.0039 -48.291 C 30.1758 -53.418 35.4004 -56.4941 41.1133 -56.4941 C 48.3398 -56.4941 53.5645 -52.1973 53.5645 -46.0938 C 53.5645 -41.4551 50 -37.0117 45.4102 -36.1816 L 45.4102 -36.1328 C 50.8301 -35.498 55.0293 -31.1035 55.0293 -25.8301 C 55.0293 -18.9941 49.2188 -14.0137 41.2109 -14.0137 Z M 67.0898 -14.3555 C 66.1621 -14.3555 65.7715 -14.9902 65.7715 -15.625 C 65.7715 -15.918 65.8203 -16.1621 65.918 -16.4551 L 84.668 -53.4668 L 84.668 -53.6621 L 62.207 -53.6621 C 61.4258 -53.6621 60.8887 -54.1504 60.8887 -54.9316 C 60.8887 -55.7129 61.4258 -56.2012 62.207 -56.2012 L 85.1562 -56.2012 C 86.4746 -56.2012 87.4512 -55.4688 87.4512 -54.3945 C 87.4512 -53.8086 87.3535 -53.5156 86.9629 -52.7832 L 68.4082 -15.2344 C 68.1152 -14.5508 67.7734 -14.3555 67.0898 -14.3555 Z"/>
  </g>
  <g id="Black-S" transform="matrix(1 0 0 1 2884.57 696)">
   <path d="M 48.8281 6.78711 C 71.9727 6.78711 90.8203 -12.0605 90.8203 -35.2051 C 90.8203 -58.3496 71.9727 -77.1973 48.8281 -77.1973 C 25.6836 -77.1973 6.83594 -58.3496 6.83594 -35.2051 C 6.83594 -12.0605 25.6836 6.78711 48.8281 6.78711 Z M 38.3789 -20.2637 C 34.0332 -20.2637 30.0293 -22.998 29.1504 -25.8789 C 28.9551 -26.5625 28.8086 -27.1973 28.8086 -27.8809 C 28.8086 -30.127 30.5664 -31.2988 32.1289 -31.2988 C 33.5938 -31.2988 34.668 -30.7129 35.4492 -29.6387 C 36.3281 -28.3691 37.5 -27.832 38.5254 -27.832 C 39.6484 -27.832 40.3809 -28.7109 40.3809 -29.6387 C 40.3809 -30.8105 39.6484 -31.543 38.3301 -31.543 L 38.2812 -31.543 C 35.5957 -31.543 34.4727 -33.1055 34.4727 -35.3516 C 34.4727 -37.5488 35.8398 -39.1113 38.2812 -39.1113 L 38.3301 -39.1113 C 39.6484 -39.1113 40.1367 -40.1367 40.1367 -41.0156 C 40.1367 -42.2852 39.3066 -43.0664 38.2812 -43.0664 C 37.207 -43.0664 36.4258 -42.4805 35.5469 -41.2598 C 34.8145 -40.2344 33.7891 -39.502 32.2754 -39.502 C 30.4199 -39.502 29.1016 -40.7227 29.1016 -42.9199 C 29.1016 -43.6523 29.248 -44.3359 29.6387 -45.2637 C 30.5664 -47.3633 33.6914 -50.2441 38.3789 -50.2441 C 44.4336 -50.2441 48.1934 -47.1191 48.1934 -42.2363 C 48.1934 -39.4043 46.2891 -36.7188 43.6523 -36.2793 L 43.6523 -35.9375 C 46.7285 -35.6934 48.7793 -32.7148 48.7793 -29.1016 C 48.7793 -23.6816 44.7754 -20.2637 38.3789 -20.2637 Z M 58.3008 -20.2637 C 55.8105 -20.2637 53.9062 -21.9727 53.9062 -24.6582 C 53.9062 -25.7812 54.1504 -26.5625 54.6875 -27.5879 L 61.6699 -41.7969 L 61.6699 -42.041 L 54.9805 -42.041 C 52.7344 -42.041 50.6348 -43.3105 50.6348 -45.8496 C 50.6348 -48.3887 52.5879 -49.707 54.9805 -49.707 L 65.1855 -49.707 C 69.1895 -49.707 70.752 -47.3633 70.752 -44.6777 C 70.752 -43.6035 70.5078 -42.4805 70.1172 -41.4551 L 62.7441 -23.8281 C 61.7676 -21.4844 60.791 -20.2637 58.3008 -20.2637 Z"/>
  </g>
  <g id="Heavy-S" transform="matrix(1 0 0 1 2588.47 696)">
   <path d="M 48.2422 6.15234 C 70.9961 6.15234 89.5996 -12.4512 89.5996 -35.2051 C 89.5996 -57.959 70.9961 -76.6113 48.1934 -76.6113 C 25.4395 -76.6113 6.83594 -57.959 6.83594 -35.2051 C 6.83594 -12.4512 25.4395 6.15234 48.2422 6.15234 Z M 37.1582 -19.6777 C 32.5195 -19.6777 28.418 -22.5586 27.4902 -25.6836 C 27.2949 -26.3184 27.1973 -26.9043 27.1973 -27.5879 C 27.1973 -29.6387 28.8086 -30.8105 30.3223 -30.8105 C 31.7383 -30.8105 32.7637 -30.1758 33.4961 -29.0527 C 34.375 -27.4414 35.7422 -26.6602 37.2559 -26.6602 C 38.9648 -26.6602 40.1367 -27.8809 40.1367 -29.2969 C 40.1367 -30.9082 39.0137 -31.9336 37.1582 -31.9336 L 36.6211 -31.9336 C 34.2285 -31.9336 33.1543 -33.3984 33.1543 -35.4492 C 33.1543 -37.5 34.4238 -38.9648 36.6211 -38.9648 L 37.1094 -38.9648 C 38.8184 -38.9648 39.6973 -40.1855 39.6973 -41.5039 C 39.6973 -43.1152 38.5742 -44.1406 37.1094 -44.1406 C 35.5957 -44.1406 34.5703 -43.3594 33.6914 -41.748 C 33.0078 -40.625 32.0801 -39.9414 30.6152 -39.9414 C 28.8086 -39.9414 27.5879 -41.1133 27.5879 -43.1641 C 27.5879 -43.8965 27.6855 -44.4824 28.0273 -45.3125 C 28.9551 -47.8516 32.3242 -50.8301 37.207 -50.8301 C 43.2617 -50.8301 47.168 -47.5586 47.168 -42.627 C 47.168 -39.5508 45.0684 -36.7188 42.2852 -36.2793 L 42.2852 -35.9375 C 45.6055 -35.6445 47.8516 -32.5684 47.8516 -28.8086 C 47.8516 -23.291 43.6523 -19.6777 37.1582 -19.6777 Z M 57.6172 -19.7754 C 55.2734 -19.7754 53.5156 -21.3867 53.5156 -23.8281 C 53.5156 -24.9023 53.7598 -25.6348 54.248 -26.5625 L 62.4023 -42.8711 L 62.4023 -43.1641 L 54.1504 -43.1641 C 52.0508 -43.1641 50.1953 -44.3359 50.1953 -46.6309 C 50.1953 -48.9258 51.9531 -50.1953 54.1504 -50.1953 L 65.6738 -50.1953 C 69.2871 -50.1953 70.8496 -47.998 70.8496 -45.4102 C 70.8496 -44.3848 70.6055 -43.3105 70.166 -42.2363 L 61.6699 -23.0469 C 60.7422 -20.8984 59.7656 -19.7754 57.6172 -19.7754 Z"/>
  </g>
  <g id="Bold-S" transform="matrix(1 0 0 1 2292.44 696)">
   <path d="M 47.5586 5.46875 C 69.873 5.46875 88.2324 -12.8906 88.2324 -35.2051 C 88.2324 -57.5684 69.873 -75.9277 47.5098 -75.9277 C 25.1953 -75.9277 6.83594 -57.5684 6.83594 -35.2051 C 6.83594 -12.8906 25.1953 5.46875 47.5586 5.46875 Z M 35.7422 -19.043 C 30.7617 -19.043 26.6113 -22.1191 25.6348 -25.4395 C 25.4883 -26.0254 25.3906 -26.5625 25.3906 -27.1973 C 25.3906 -29.1016 26.8066 -30.2246 28.3691 -30.2246 C 29.6875 -30.2246 30.6152 -29.6387 31.25 -28.3691 C 32.2266 -26.416 33.7891 -25.3906 35.8398 -25.3906 C 38.1836 -25.3906 39.7949 -26.9531 39.7949 -28.8574 C 39.7949 -31.0059 38.3301 -32.373 35.8398 -32.373 L 34.7656 -32.373 C 32.7148 -32.373 31.6406 -33.7402 31.6406 -35.5469 C 31.6406 -37.4512 32.8125 -38.7695 34.7656 -38.7695 L 35.791 -38.7695 C 37.9395 -38.7695 39.209 -40.2344 39.209 -42.0898 C 39.209 -43.9941 37.7441 -45.3125 35.791 -45.3125 C 33.7891 -45.3125 32.5195 -44.3359 31.5918 -42.334 C 31.0059 -41.1133 30.1758 -40.4297 28.7109 -40.4297 C 27.0508 -40.4297 25.8789 -41.5527 25.8789 -43.457 C 25.8789 -44.1406 25.9277 -44.6777 26.1719 -45.4102 C 27.1973 -48.4375 30.7617 -51.4648 35.8887 -51.4648 C 41.9922 -51.4648 45.9961 -48.0957 45.9961 -43.0176 C 45.9961 -39.7461 43.75 -36.7188 40.8203 -36.2305 L 40.8203 -35.9375 C 44.3359 -35.5957 46.8262 -32.4219 46.8262 -28.4668 C 46.8262 -22.8027 42.4316 -19.043 35.7422 -19.043 Z M 56.7871 -19.2383 C 54.7363 -19.2383 53.125 -20.752 53.125 -22.9492 C 53.125 -23.9258 53.2715 -24.6094 53.7109 -25.4395 L 63.2324 -44.0918 L 63.2324 -44.3848 L 53.1738 -44.3848 C 51.2695 -44.3848 49.707 -45.5078 49.707 -47.5586 C 49.707 -49.5605 51.2207 -50.7324 53.1738 -50.7324 L 66.2109 -50.7324 C 69.3848 -50.7324 70.9473 -48.6816 70.9473 -46.2402 C 70.9473 -45.2637 70.752 -44.2871 70.2148 -43.0664 L 60.4492 -22.168 C 59.5703 -20.2148 58.6426 -19.2383 56.7871 -19.2383 Z"/>
  </g>
  <g id="Semibold-S" transform="matrix(1 0 0 1 1996.2 696)">
   <path d="M 47.0703 4.98047 C 69.0918 4.98047 87.3047 -13.1836 87.3047 -35.2539 C 87.3047 -57.2754 69.0918 -75.4883 47.0215 -75.4883 C 25 -75.4883 6.83594 -57.2754 6.83594 -35.2539 C 6.83594 -13.1836 25.0488 4.98047 47.0703 4.98047 Z M 34.7656 -18.6035 C 29.5898 -18.6035 25.3906 -21.7773 24.3652 -25.2441 C 24.2188 -25.8789 24.1211 -26.3184 24.1211 -26.9531 C 24.1211 -28.7598 25.4395 -29.8828 26.9531 -29.8828 C 28.2715 -29.8828 29.1504 -29.1992 29.7363 -27.9297 C 30.7617 -25.6836 32.4707 -24.5117 34.8633 -24.5117 C 37.6465 -24.5117 39.5996 -26.3184 39.5996 -28.6133 C 39.5996 -31.1035 37.8418 -32.666 34.9609 -32.666 L 33.4961 -32.666 C 31.6406 -32.666 30.6152 -33.9355 30.6152 -35.6445 C 30.6152 -37.4023 31.7383 -38.623 33.4961 -38.623 L 34.8145 -38.623 C 37.3047 -38.623 38.8672 -40.2832 38.8672 -42.4805 C 38.8672 -44.6289 37.207 -46.0938 34.8633 -46.0938 C 32.5195 -46.0938 31.1035 -45.0195 30.1758 -42.7246 C 29.6387 -41.4062 28.8574 -40.7227 27.4414 -40.7227 C 25.8301 -40.7227 24.707 -41.8945 24.707 -43.6523 C 24.707 -44.2871 24.7559 -44.7754 24.9512 -45.459 C 25.9766 -48.7793 29.6875 -51.9043 35.0098 -51.9043 C 41.0645 -51.9043 45.166 -48.4375 45.166 -43.3105 C 45.166 -39.8926 42.8223 -36.7188 39.7461 -36.2305 L 39.7461 -35.9375 C 43.5059 -35.5957 46.0938 -32.3242 46.0938 -28.2227 C 46.0938 -22.5098 41.5527 -18.6035 34.7656 -18.6035 Z M 56.25 -18.8965 C 54.2969 -18.8965 52.832 -20.3125 52.832 -22.3145 C 52.832 -23.2422 52.9297 -23.877 53.3691 -24.707 L 63.7695 -44.9219 L 63.7695 -45.2637 L 52.5391 -45.2637 C 50.7324 -45.2637 49.3652 -46.3379 49.3652 -48.1445 C 49.3652 -50 50.6836 -51.123 52.5391 -51.123 L 66.5527 -51.123 C 69.4336 -51.123 70.9961 -49.1699 70.9961 -46.8262 C 70.9961 -45.8984 70.8496 -44.9219 70.2148 -43.6523 L 59.6191 -21.582 C 58.7891 -19.7754 57.8613 -18.8965 56.25 -18.8965 Z"/>
  </g>
  <g id="Medium-S" transform="matrix(1 0 0 1 1699.83 696)">
   <path d="M 46.7285 4.63867 C 68.5547 4.63867 86.6211 -13.4277 86.6211 -35.2539 C 86.6211 -57.0312 68.5059 -75.1465 46.6797 -75.1465 C 24.8535 -75.1465 6.83594 -57.0312 6.83594 -35.2539 C 6.83594 -13.4277 24.9023 4.63867 46.7285 4.63867 Z M 34.0332 -18.2617 C 28.7109 -18.2617 24.4141 -21.5332 23.4375 -25.1465 C 23.291 -25.7324 23.1934 -26.1719 23.1934 -26.7578 C 23.1934 -28.4668 24.4141 -29.5898 25.9277 -29.5898 C 27.1973 -29.5898 28.0273 -28.9062 28.5645 -27.5391 C 29.6387 -25.1465 31.4453 -23.8281 34.1309 -23.8281 C 37.2559 -23.8281 39.4531 -25.8301 39.4531 -28.3691 C 39.4531 -31.1523 37.5 -32.9102 34.2773 -32.9102 L 32.5195 -32.9102 C 30.8594 -32.9102 29.834 -34.1309 29.834 -35.6934 C 29.834 -37.4023 30.9082 -38.5254 32.5195 -38.5254 L 34.1309 -38.5254 C 36.8164 -38.5254 38.623 -40.332 38.623 -42.7734 C 38.623 -45.1172 36.7676 -46.7285 34.1797 -46.7285 C 31.5918 -46.7285 30.0293 -45.5078 29.1016 -43.0176 C 28.5645 -41.6504 27.832 -40.9668 26.4648 -40.9668 C 24.9023 -40.9668 23.8281 -42.0898 23.8281 -43.7988 C 23.8281 -44.4336 23.8281 -44.873 23.9746 -45.5078 C 25.0488 -49.0723 28.9062 -52.2461 34.3262 -52.2461 C 40.3809 -52.2461 44.5312 -48.6816 44.5312 -43.5547 C 44.5312 -39.9414 42.1387 -36.7188 38.9648 -36.2305 L 38.9648 -35.9375 C 42.8223 -35.5469 45.5566 -32.2266 45.5566 -28.0762 C 45.5566 -22.2656 40.918 -18.2617 34.0332 -18.2617 Z M 55.8594 -18.6035 C 54.0039 -18.6035 52.5879 -19.9707 52.5879 -21.8262 C 52.5879 -22.7539 52.7344 -23.3398 53.125 -24.1211 L 64.209 -45.5566 L 64.209 -45.8984 L 52.002 -45.8984 C 50.3418 -45.8984 49.1211 -46.9238 49.1211 -48.6328 C 49.1211 -50.3418 50.293 -51.3672 52.002 -51.3672 L 66.8457 -51.3672 C 69.5312 -51.3672 71.0938 -49.5117 71.0938 -47.2656 C 71.0938 -46.3379 70.8984 -45.459 70.2637 -44.0918 L 58.9844 -21.0938 C 58.2031 -19.3848 57.2754 -18.6035 55.8594 -18.6035 Z"/>
  </g>
  <g id="Regular-S" transform="matrix(1 0 0 1 1403.58 696)">
   <path d="M 46.2402 4.15039 C 67.7734 4.15039 85.6934 -13.7207 85.6934 -35.2539 C 85.6934 -56.7871 67.7246 -74.6582 46.1914 -74.6582 C 24.707 -74.6582 6.83594 -56.7871 6.83594 -35.2539 C 6.83594 -13.7207 24.7559 4.15039 46.2402 4.15039 Z M 33.1055 -17.8223 C 27.5391 -17.8223 23.1934 -21.1914 22.168 -24.9512 C 22.0215 -25.5371 21.9727 -25.9277 21.9727 -26.5625 C 21.9727 -28.0762 23.0469 -29.1992 24.5605 -29.1992 C 25.7812 -29.1992 26.5625 -28.5156 27.0996 -27.0996 C 28.1738 -24.4141 30.0781 -22.9492 33.1543 -22.9492 C 36.7188 -22.9492 39.2578 -25.1953 39.2578 -28.125 C 39.2578 -31.25 37.0117 -33.2031 33.3496 -33.2031 L 31.25 -33.2031 C 29.834 -33.2031 28.8086 -34.3262 28.8086 -35.7422 C 28.8086 -37.3535 29.834 -38.3789 31.25 -38.3789 L 33.2031 -38.3789 C 36.2305 -38.3789 38.2812 -40.332 38.2812 -43.1152 C 38.2812 -45.752 36.2305 -47.5586 33.3008 -47.5586 C 30.3711 -47.5586 28.6133 -46.1914 27.6855 -43.4082 C 27.1973 -41.9922 26.5137 -41.3086 25.1465 -41.3086 C 23.6816 -41.3086 22.6562 -42.3828 22.6562 -43.9941 C 22.6562 -44.5801 22.6562 -44.9707 22.7539 -45.5566 C 23.8281 -49.4629 27.832 -52.6855 33.4473 -52.6855 C 39.502 -52.6855 43.75 -49.0234 43.75 -43.8477 C 43.75 -40.0879 41.2109 -36.7188 37.9395 -36.2305 L 37.9395 -35.9375 C 41.9922 -35.5469 44.8242 -32.1289 44.8242 -27.832 C 44.8242 -21.9727 40.0391 -17.8223 33.1055 -17.8223 Z M 55.3223 -18.2617 C 53.6133 -18.2617 52.2949 -19.5312 52.2949 -21.1914 C 52.2949 -22.0703 52.3926 -22.6074 52.7832 -23.3398 L 64.7949 -46.3867 L 64.7949 -46.7285 L 51.3672 -46.7285 C 49.8047 -46.7285 48.7793 -47.7539 48.7793 -49.2676 C 48.7793 -50.7812 49.8047 -51.7578 51.3672 -51.7578 L 67.1875 -51.7578 C 69.5801 -51.7578 71.1426 -50 71.1426 -47.8516 C 71.1426 -46.9238 70.9961 -46.0938 70.3125 -44.6777 L 58.1543 -20.5078 C 57.373 -18.9453 56.4941 -18.2617 55.3223 -18.2617 Z"/>
  </g>
  <g id="Light-S" transform="matrix(1 0 0 1 1107.6 696)">
   <path d="M 45.5078 3.4668 C 66.6992 3.4668 84.2285 -14.0625 84.2285 -35.2051 C 84.2285 -56.3965 66.6504 -73.9258 45.5078 -73.9258 C 24.3164 -73.9258 6.83594 -56.3965 6.83594 -35.2051 C 6.83594 -14.0625 24.3652 3.4668 45.5078 3.4668 Z M 32.8613 -18.0664 C 27.4414 -18.0664 23.2422 -21.3379 22.1191 -25 C 22.0215 -25.4883 21.9238 -25.8789 21.9238 -26.416 C 21.9238 -27.6855 22.8027 -28.5645 24.0723 -28.5645 C 25.0977 -28.5645 25.7324 -28.0273 26.123 -26.8066 C 27.1973 -23.9258 29.5898 -22.2168 32.8613 -22.2168 C 36.9629 -22.2168 39.7949 -24.707 39.7949 -28.0273 C 39.7949 -31.3965 37.1582 -33.6914 33.1543 -33.6914 L 30.6152 -33.6914 C 29.4434 -33.6914 28.6133 -34.6191 28.6133 -35.791 C 28.6133 -37.0605 29.4434 -37.8906 30.6152 -37.8906 L 32.959 -37.8906 C 36.377 -37.8906 38.7695 -40.1855 38.7695 -43.2617 C 38.7695 -46.2402 36.377 -48.291 32.959 -48.291 C 29.6387 -48.291 27.5879 -46.6309 26.7578 -43.7012 C 26.3672 -42.4805 25.8301 -41.8945 24.707 -41.8945 C 23.4375 -41.8945 22.6074 -42.8223 22.6074 -44.1406 C 22.6074 -44.6289 22.6562 -45.0195 22.7539 -45.5078 C 23.7793 -49.4629 27.7832 -52.4414 33.0566 -52.4414 C 39.0137 -52.4414 43.2129 -48.877 43.2129 -43.7988 C 43.2129 -40.0879 40.5762 -36.6699 37.207 -36.1328 L 37.207 -35.9375 C 41.3086 -35.498 44.2871 -32.0801 44.2871 -27.832 C 44.2871 -22.1191 39.5996 -18.0664 32.8613 -18.0664 Z M 54.4434 -18.457 C 53.0762 -18.457 52.0508 -19.4824 52.0508 -20.8008 C 52.0508 -21.4355 52.1484 -21.875 52.4414 -22.4609 L 65.2832 -47.3633 L 65.2832 -47.6562 L 50.5371 -47.6562 C 49.2676 -47.6562 48.4375 -48.4375 48.4375 -49.707 C 48.4375 -50.9277 49.2676 -51.709 50.5371 -51.709 L 67.041 -51.709 C 68.9941 -51.709 70.3125 -50.3418 70.3125 -48.584 C 70.3125 -47.8516 70.2148 -47.168 69.6289 -45.9961 L 56.7383 -20.2148 C 56.1523 -18.9941 55.4199 -18.457 54.4434 -18.457 Z"/>
  </g>
  <g id="Thin-S" transform="matrix(1 0 0 1 811.867 696)">
   <path d="M 44.5801 2.53906 C 65.2832 2.53906 82.2754 -14.4531 82.2754 -35.2051 C 82.2754 -55.9082 65.2344 -72.9004 44.5312 -72.9004 C 23.8281 -72.9004 6.83594 -55.9082 6.83594 -35.2051 C 6.83594 -14.4531 23.877 2.53906 44.5801 2.53906 Z M 32.5195 -18.4082 C 27.2949 -18.4082 23.2422 -21.4844 22.1191 -25.0488 C 21.9727 -25.4395 21.9238 -25.7812 21.9238 -26.2207 C 21.9238 -27.0996 22.5098 -27.7832 23.3887 -27.7832 C 24.1699 -27.7832 24.6094 -27.3438 24.8535 -26.4648 C 25.9277 -23.2422 28.9551 -21.2891 32.5195 -21.2891 C 37.2559 -21.2891 40.4785 -24.0723 40.4785 -27.9297 C 40.4785 -31.6406 37.3047 -34.375 32.9102 -34.375 L 29.7852 -34.375 C 28.9551 -34.375 28.3691 -34.9609 28.3691 -35.791 C 28.3691 -36.7188 28.9551 -37.2559 29.7852 -37.2559 L 32.666 -37.2559 C 36.5234 -37.2559 39.4043 -39.9414 39.4043 -43.457 C 39.4043 -46.875 36.6211 -49.2188 32.5195 -49.2188 C 28.7598 -49.2188 26.2207 -47.168 25.5371 -44.043 C 25.293 -43.1152 24.8535 -42.7246 24.0723 -42.7246 C 23.0957 -42.7246 22.6074 -43.3594 22.6074 -44.2871 C 22.6074 -44.6777 22.6074 -45.0684 22.7051 -45.5078 C 23.6816 -49.4629 27.7832 -52.0996 32.5684 -52.0996 C 38.3301 -52.0996 42.4805 -48.6816 42.4805 -43.7988 C 42.4805 -40.0879 39.7461 -36.6699 36.2305 -36.0352 L 36.2305 -35.9375 C 40.4297 -35.498 43.5547 -32.0312 43.5547 -27.8809 C 43.5547 -22.3633 38.9648 -18.4082 32.5195 -18.4082 Z M 53.3203 -18.7012 C 52.3438 -18.7012 51.709 -19.4336 51.709 -20.2148 C 51.709 -20.6543 51.8066 -20.9473 51.9531 -21.2891 L 65.918 -48.6328 L 65.918 -48.8281 L 49.4629 -48.8281 C 48.584 -48.8281 47.998 -49.4141 47.998 -50.2441 C 47.998 -51.123 48.584 -51.709 49.4629 -51.709 L 66.8457 -51.709 C 68.2617 -51.709 69.2383 -50.7812 69.2383 -49.5605 C 69.2383 -49.0234 69.1406 -48.584 68.75 -47.8027 L 54.834 -19.8242 C 54.4922 -18.9941 54.0039 -18.7012 53.3203 -18.7012 Z"/>
  </g>
  <g id="Ultralight-S" transform="matrix(1 0 0 1 515.644 696)">
   <path d="M 44.043 2.05078 C 64.502 2.05078 81.2988 -14.6973 81.2988 -35.1562 C 81.2988 -55.6152 64.502 -72.3633 44.043 -72.3633 C 23.584 -72.3633 6.83594 -55.6152 6.83594 -35.1562 C 6.83594 -14.6973 23.584 2.05078 44.043 2.05078 Z M 32.3242 -18.5547 C 27.1973 -18.5547 23.291 -21.582 22.0703 -25.0977 C 21.9727 -25.3906 21.875 -25.7324 21.875 -26.123 C 21.875 -26.8066 22.3633 -27.3438 23.0469 -27.3438 C 23.6816 -27.3438 24.0234 -27.002 24.2188 -26.2695 C 25.293 -22.9004 28.6621 -20.752 32.3242 -20.752 C 37.4023 -20.752 40.8203 -23.7305 40.8203 -27.8809 C 40.8203 -31.7383 37.4023 -34.7168 32.8125 -34.7168 L 29.3457 -34.7168 C 28.6621 -34.7168 28.2715 -35.1562 28.2715 -35.8398 C 28.2715 -36.5234 28.7109 -36.9629 29.3457 -36.9629 L 32.5195 -36.9629 C 36.6699 -36.9629 39.6973 -39.8438 39.6973 -43.5547 C 39.6973 -47.2168 36.7188 -49.7559 32.2754 -49.7559 C 28.2715 -49.7559 25.4883 -47.5098 24.9023 -44.2383 C 24.7559 -43.4082 24.3652 -43.1152 23.7305 -43.1152 C 22.9004 -43.1152 22.5586 -43.6523 22.5586 -44.4336 C 22.5586 -44.7266 22.6074 -45.1172 22.7051 -45.459 C 23.6328 -49.4629 27.7344 -51.9531 32.2754 -51.9531 C 37.9883 -51.9531 42.0898 -48.584 42.0898 -43.75 C 42.0898 -40.0879 39.3066 -36.6211 35.6934 -35.9863 L 35.6934 -35.9375 C 39.9414 -35.4492 43.2129 -31.9824 43.2129 -27.8809 C 43.2129 -22.4609 38.623 -18.5547 32.3242 -18.5547 Z M 52.7344 -18.7988 C 51.9531 -18.7988 51.5625 -19.3848 51.5625 -19.9219 C 51.5625 -20.2148 51.6113 -20.4102 51.709 -20.7031 L 66.2109 -49.3164 L 66.2109 -49.4629 L 48.9258 -49.4629 C 48.2422 -49.4629 47.7539 -49.9023 47.7539 -50.5859 C 47.7539 -51.2207 48.2422 -51.6602 48.9258 -51.6602 L 66.748 -51.6602 C 67.8711 -51.6602 68.7012 -51.0254 68.7012 -50.0977 C 68.7012 -49.6094 68.6035 -49.3652 68.2617 -48.7305 L 53.9062 -19.6289 C 53.6133 -19.043 53.2715 -18.7988 52.7344 -18.7988 Z"/>
  </g>
 </g>
</svg>
