<?xml version="1.0" encoding="UTF-8"?>
<!--Generator: Apple Native CoreSVG 123-->
<!DOCTYPE svg
PUBLIC "-//W3C//DTD SVG 1.1//EN"
       "http://www.w3.org/Graphics/SVG/1.1/DTD/svg11.dtd">
<svg version="1.1" xmlns="http://www.w3.org/2000/svg" xmlns:xlink="http://www.w3.org/1999/xlink" width="3300" height="2200">
 <!--glyph: "uni1006A4.medium", point size: 100.000000, font version: "Version 15.0d7e11", template writer version: "5"-->
 <g id="Notes">
  <rect height="2200" id="artboard" style="fill:white;opacity:1" width="3300" x="0" y="0"/>
  <line id="" style="fill:none;stroke:black;opacity:1;stroke-width:0.5;" x1="263" x2="3036" y1="292" y2="292"/>
  <text style="stroke:none;fill:black;font-family:-apple-system,&quot;SF Pro Display&quot;,&quot;SF Pro Text&quot;,Helvetica,sans-serif;font-weight:bold;" transform="matrix(1 0 0 1 263 322)">Weight/Scale Variations</text>
  <text style="stroke:none;fill:black;font-family:-apple-system,&quot;SF Pro Display&quot;,&quot;SF Pro Text&quot;,Helvetica,sans-serif;text-anchor:middle;" transform="matrix(1 0 0 1 559.711 322)">Ultralight</text>
  <text style="stroke:none;fill:black;font-family:-apple-system,&quot;SF Pro Display&quot;,&quot;SF Pro Text&quot;,Helvetica,sans-serif;text-anchor:middle;" transform="matrix(1 0 0 1 856.422 322)">Thin</text>
  <text style="stroke:none;fill:black;font-family:-apple-system,&quot;SF Pro Display&quot;,&quot;SF Pro Text&quot;,Helvetica,sans-serif;text-anchor:middle;" transform="matrix(1 0 0 1 1153.13 322)">Light</text>
  <text style="stroke:none;fill:black;font-family:-apple-system,&quot;SF Pro Display&quot;,&quot;SF Pro Text&quot;,Helvetica,sans-serif;text-anchor:middle;" transform="matrix(1 0 0 1 1449.84 322)">Regular</text>
  <text style="stroke:none;fill:black;font-family:-apple-system,&quot;SF Pro Display&quot;,&quot;SF Pro Text&quot;,Helvetica,sans-serif;text-anchor:middle;" transform="matrix(1 0 0 1 1746.56 322)">Medium</text>
  <text style="stroke:none;fill:black;font-family:-apple-system,&quot;SF Pro Display&quot;,&quot;SF Pro Text&quot;,Helvetica,sans-serif;text-anchor:middle;" transform="matrix(1 0 0 1 2043.27 322)">Semibold</text>
  <text style="stroke:none;fill:black;font-family:-apple-system,&quot;SF Pro Display&quot;,&quot;SF Pro Text&quot;,Helvetica,sans-serif;text-anchor:middle;" transform="matrix(1 0 0 1 2339.98 322)">Bold</text>
  <text style="stroke:none;fill:black;font-family:-apple-system,&quot;SF Pro Display&quot;,&quot;SF Pro Text&quot;,Helvetica,sans-serif;text-anchor:middle;" transform="matrix(1 0 0 1 2636.69 322)">Heavy</text>
  <text style="stroke:none;fill:black;font-family:-apple-system,&quot;SF Pro Display&quot;,&quot;SF Pro Text&quot;,Helvetica,sans-serif;text-anchor:middle;" transform="matrix(1 0 0 1 2933.4 322)">Black</text>
  <line id="" style="fill:none;stroke:black;opacity:1;stroke-width:0.5;" x1="263" x2="3036" y1="1903" y2="1903"/>
  <g id="" transform="matrix(1 0 0 1 263 1933)">
   <path d="M 9.24805 0.830078 C 13.5547 0.830078 17.1387 -2.74414 17.1387 -7.05078 C 17.1387 -11.3574 13.5449 -14.9316 9.23828 -14.9316 C 4.94141 -14.9316 1.36719 -11.3574 1.36719 -7.05078 C 1.36719 -2.74414 4.95117 0.830078 9.24805 0.830078 Z M 9.24805 -0.654297 C 5.70312 -0.654297 2.87109 -3.49609 2.87109 -7.05078 C 2.87109 -10.6055 5.69336 -13.4473 9.23828 -13.4473 C 12.793 -13.4473 15.6348 -10.6055 15.6445 -7.05078 C 15.6543 -3.49609 12.8027 -0.654297 9.24805 -0.654297 Z M 9.22852 -3.42773 C 9.69727 -3.42773 9.9707 -3.74023 9.9707 -4.25781 L 9.9707 -6.31836 L 12.1973 -6.31836 C 12.6953 -6.31836 13.0371 -6.57227 13.0371 -7.04102 C 13.0371 -7.51953 12.7148 -7.7832 12.1973 -7.7832 L 9.9707 -7.7832 L 9.9707 -10.0098 C 9.9707 -10.5273 9.69727 -10.8496 9.22852 -10.8496 C 8.75977 -10.8496 8.50586 -10.5078 8.50586 -10.0098 L 8.50586 -7.7832 L 6.29883 -7.7832 C 5.78125 -7.7832 5.44922 -7.51953 5.44922 -7.04102 C 5.44922 -6.57227 5.80078 -6.31836 6.29883 -6.31836 L 8.50586 -6.31836 L 8.50586 -4.25781 C 8.50586 -3.75977 8.75977 -3.42773 9.22852 -3.42773 Z"/>
  </g>
  <g id="" transform="matrix(1 0 0 1 281.506 1933)">
   <path d="M 11.709 2.91016 C 17.1582 2.91016 21.6699 -1.60156 21.6699 -7.05078 C 21.6699 -12.4902 17.1484 -17.0117 11.6992 -17.0117 C 6.25977 -17.0117 1.74805 -12.4902 1.74805 -7.05078 C 1.74805 -1.60156 6.26953 2.91016 11.709 2.91016 Z M 11.709 1.25 C 7.09961 1.25 3.41797 -2.44141 3.41797 -7.05078 C 3.41797 -11.6504 7.08984 -15.3516 11.6992 -15.3516 C 16.3086 -15.3516 20 -11.6504 20.0098 -7.05078 C 20.0195 -2.44141 16.3184 1.25 11.709 1.25 Z M 11.6895 -2.41211 C 12.207 -2.41211 12.5195 -2.77344 12.5195 -3.33984 L 12.5195 -6.23047 L 15.5762 -6.23047 C 16.123 -6.23047 16.5039 -6.51367 16.5039 -7.03125 C 16.5039 -7.55859 16.1426 -7.86133 15.5762 -7.86133 L 12.5195 -7.86133 L 12.5195 -10.9277 C 12.5195 -11.5039 12.207 -11.8555 11.6895 -11.8555 C 11.1719 -11.8555 10.8789 -11.4844 10.8789 -10.9277 L 10.8789 -7.86133 L 7.83203 -7.86133 C 7.26562 -7.86133 6.89453 -7.55859 6.89453 -7.03125 C 6.89453 -6.51367 7.28516 -6.23047 7.83203 -6.23047 L 10.8789 -6.23047 L 10.8789 -3.33984 C 10.8789 -2.79297 11.1719 -2.41211 11.6895 -2.41211 Z"/>
  </g>
  <g id="" transform="matrix(1 0 0 1 304.924 1933)">
   <path d="M 14.9707 5.67383 C 21.9336 5.67383 27.6953 -0.078125 27.6953 -7.04102 C 27.6953 -14.0039 21.9238 -19.7559 14.9609 -19.7559 C 8.00781 -19.7559 2.25586 -14.0039 2.25586 -7.04102 C 2.25586 -0.078125 8.01758 5.67383 14.9707 5.67383 Z M 14.9707 3.85742 C 8.93555 3.85742 4.08203 -1.00586 4.08203 -7.04102 C 4.08203 -13.0762 8.92578 -17.9395 14.9609 -17.9395 C 21.0059 -17.9395 25.8594 -13.0762 25.8691 -7.04102 C 25.8789 -1.00586 21.0156 3.85742 14.9707 3.85742 Z M 14.9512 -1.06445 C 15.5176 -1.06445 15.8691 -1.45508 15.8691 -2.06055 L 15.8691 -6.13281 L 20.1074 -6.13281 C 20.6934 -6.13281 21.1133 -6.46484 21.1133 -7.02148 C 21.1133 -7.59766 20.7227 -7.93945 20.1074 -7.93945 L 15.8691 -7.93945 L 15.8691 -12.1875 C 15.8691 -12.8027 15.5176 -13.1934 14.9512 -13.1934 C 14.3848 -13.1934 14.0625 -12.7832 14.0625 -12.1875 L 14.0625 -7.93945 L 9.83398 -7.93945 C 9.21875 -7.93945 8.80859 -7.59766 8.80859 -7.02148 C 8.80859 -6.46484 9.23828 -6.13281 9.83398 -6.13281 L 14.0625 -6.13281 L 14.0625 -2.06055 C 14.0625 -1.47461 14.3848 -1.06445 14.9512 -1.06445 Z"/>
  </g>
  <text style="stroke:none;fill:black;font-family:-apple-system,&quot;SF Pro Display&quot;,&quot;SF Pro Text&quot;,Helvetica,sans-serif;font-weight:bold;" transform="matrix(1 0 0 1 263 1953)">Design Variations</text>
  <text style="stroke:none;fill:black;font-family:-apple-system,&quot;SF Pro Display&quot;,&quot;SF Pro Text&quot;,Helvetica,sans-serif;" transform="matrix(1 0 0 1 263 1971)">Symbols are supported in up to nine weights and three scales.</text>
  <text style="stroke:none;fill:black;font-family:-apple-system,&quot;SF Pro Display&quot;,&quot;SF Pro Text&quot;,Helvetica,sans-serif;" transform="matrix(1 0 0 1 263 1989)">For optimal layout with text and other symbols, vertically align</text>
  <text style="stroke:none;fill:black;font-family:-apple-system,&quot;SF Pro Display&quot;,&quot;SF Pro Text&quot;,Helvetica,sans-serif;" transform="matrix(1 0 0 1 263 2007)">symbols with the adjacent text.</text>
  <rect height="14" id="" style="fill:#00AEEF;stroke:none;opacity:0.4;" width="3" x="776" y="1919"/>
  <g id="" transform="matrix(1 0 0 1 779 1933)">
   <path d="M 10.5273 0 L 12.373 0 L 7.17773 -14.0918 L 5.43945 -14.0918 L 0.244141 0 L 2.08984 0 L 3.50586 -4.0332 L 9.11133 -4.0332 Z M 6.2793 -11.9531 L 6.33789 -11.9531 L 8.59375 -5.52734 L 4.02344 -5.52734 Z"/>
  </g>
  <rect height="14" id="" style="fill:#00AEEF;stroke:none;opacity:0.4;" width="3" x="791.617" y="1919"/>
  <text style="stroke:none;fill:black;font-family:-apple-system,&quot;SF Pro Display&quot;,&quot;SF Pro Text&quot;,Helvetica,sans-serif;font-weight:bold;" transform="matrix(1 0 0 1 776 1953)">Margins</text>
  <text style="stroke:none;fill:black;font-family:-apple-system,&quot;SF Pro Display&quot;,&quot;SF Pro Text&quot;,Helvetica,sans-serif;" transform="matrix(1 0 0 1 776 1971)">Leading and trailing margins on the left and right side of each symbol</text>
  <text style="stroke:none;fill:black;font-family:-apple-system,&quot;SF Pro Display&quot;,&quot;SF Pro Text&quot;,Helvetica,sans-serif;" transform="matrix(1 0 0 1 776 1989)">can be adjusted by modifying the width of the blue rectangles.</text>
  <text style="stroke:none;fill:black;font-family:-apple-system,&quot;SF Pro Display&quot;,&quot;SF Pro Text&quot;,Helvetica,sans-serif;" transform="matrix(1 0 0 1 776 2007)">Modifications are automatically applied proportionally to all</text>
  <text style="stroke:none;fill:black;font-family:-apple-system,&quot;SF Pro Display&quot;,&quot;SF Pro Text&quot;,Helvetica,sans-serif;" transform="matrix(1 0 0 1 776 2025)">scales and weights.</text>
  <g id="" transform="matrix(1 0 0 1 1289 1933)">
   <path d="M 2.83203 3.11523 L 4.375 4.6582 C 5.22461 5.48828 6.19141 5.41992 7.06055 4.46289 L 17.2754 -6.66016 C 17.7051 -6.36719 18.0957 -6.37695 18.5645 -6.47461 L 19.6094 -6.68945 L 20.3027 -5.99609 L 20.2539 -5.47852 C 20.1855 -4.95117 20.3516 -4.53125 20.8496 -4.0332 L 21.6602 -3.22266 C 22.168 -2.71484 22.8223 -2.68555 23.3008 -3.16406 L 26.5527 -6.41602 C 27.0312 -6.89453 27.0117 -7.54883 26.5039 -8.05664 L 25.6836 -8.87695 C 25.1855 -9.375 24.7754 -9.55078 24.2383 -9.47266 L 23.7109 -9.41406 L 23.0566 -10.0781 L 23.3398 -11.2207 C 23.4863 -11.7871 23.3398 -12.2559 22.7148 -12.8613 L 20.3027 -15.2539 C 16.7578 -18.7793 12.2266 -18.6719 9.11133 -15.5371 C 8.69141 -15.1074 8.64258 -14.5215 8.91602 -14.0918 C 9.15039 -13.7207 9.62891 -13.4961 10.2734 -13.6621 C 11.7871 -14.043 13.3008 -13.9258 14.7852 -12.9199 L 14.1602 -11.3379 C 13.9258 -10.752 13.9453 -10.2734 14.1797 -9.83398 L 3.01758 0.439453 C 2.08008 1.30859 1.97266 2.25586 2.83203 3.11523 Z M 10.6738 -15.1465 C 13.3398 -17.1387 16.6504 -16.8262 19.0527 -14.4141 L 21.6797 -11.8066 C 21.9141 -11.5723 21.9434 -11.3867 21.8848 -11.0938 L 21.5039 -9.53125 L 23.0762 -7.95898 L 24.043 -8.04688 C 24.3262 -8.07617 24.4141 -8.05664 24.6387 -7.83203 L 25.2637 -7.20703 L 22.5098 -4.46289 L 21.8848 -5.07812 C 21.6602 -5.30273 21.6406 -5.40039 21.6699 -5.68359 L 21.7578 -6.64062 L 20.1953 -8.20312 L 18.5742 -7.89062 C 18.291 -7.83203 18.1445 -7.83203 17.9102 -8.07617 L 15.7324 -10.2539 C 15.5078 -10.4883 15.4785 -10.625 15.6055 -10.9473 L 16.5527 -13.2227 C 14.9512 -14.7559 12.8418 -15.6055 10.8008 -14.9512 C 10.7129 -14.9219 10.6445 -14.9414 10.6152 -14.9805 C 10.5859 -15.0293 10.5859 -15.0781 10.6738 -15.1465 Z M 4.10156 2.41211 C 3.61328 1.91406 3.78906 1.61133 4.12109 1.30859 L 15.0781 -8.80859 L 16.3086 -7.57812 L 6.15234 3.34961 C 5.84961 3.68164 5.46875 3.7793 5.06836 3.37891 Z"/>
  </g>
  <text style="stroke:none;fill:black;font-family:-apple-system,&quot;SF Pro Display&quot;,&quot;SF Pro Text&quot;,Helvetica,sans-serif;font-weight:bold;" transform="matrix(1 0 0 1 1289 1953)">Exporting</text>
  <text style="stroke:none;fill:black;font-family:-apple-system,&quot;SF Pro Display&quot;,&quot;SF Pro Text&quot;,Helvetica,sans-serif;" transform="matrix(1 0 0 1 1289 1971)">Symbols should be outlined when exporting to ensure the</text>
  <text style="stroke:none;fill:black;font-family:-apple-system,&quot;SF Pro Display&quot;,&quot;SF Pro Text&quot;,Helvetica,sans-serif;" transform="matrix(1 0 0 1 1289 1989)">design is preserved when submitting to Xcode.</text>
  <text id="template-version" style="stroke:none;fill:black;font-family:-apple-system,&quot;SF Pro Display&quot;,&quot;SF Pro Text&quot;,Helvetica,sans-serif;text-anchor:end;" transform="matrix(1 0 0 1 3036 1933)">Template v.1.0</text>
  <text style="stroke:none;fill:black;font-family:-apple-system,&quot;SF Pro Display&quot;,&quot;SF Pro Text&quot;,Helvetica,sans-serif;text-anchor:end;" transform="matrix(1 0 0 1 3036 1951)">Generated from 38.circle.fill</text>
  <text style="stroke:none;fill:black;font-family:-apple-system,&quot;SF Pro Display&quot;,&quot;SF Pro Text&quot;,Helvetica,sans-serif;text-anchor:end;" transform="matrix(1 0 0 1 3036 1969)">Typeset at 100 points</text>
  <text style="stroke:none;fill:black;font-family:-apple-system,&quot;SF Pro Display&quot;,&quot;SF Pro Text&quot;,Helvetica,sans-serif;" transform="matrix(1 0 0 1 263 726)">Small</text>
  <text style="stroke:none;fill:black;font-family:-apple-system,&quot;SF Pro Display&quot;,&quot;SF Pro Text&quot;,Helvetica,sans-serif;" transform="matrix(1 0 0 1 263 1156)">Medium</text>
  <text style="stroke:none;fill:black;font-family:-apple-system,&quot;SF Pro Display&quot;,&quot;SF Pro Text&quot;,Helvetica,sans-serif;" transform="matrix(1 0 0 1 263 1586)">Large</text>
 </g>
 <g id="Guides">
  <g id="H-reference" style="fill:#27AAE1;stroke:none;" transform="matrix(1 0 0 1 339 696)">
   <path d="M 54.9316 0 L 57.666 0 L 30.5664 -70.459 L 28.0762 -70.459 L 0.976562 0 L 3.66211 0 L 12.9395 -24.4629 L 45.7031 -24.4629 Z M 29.1992 -67.0898 L 29.4434 -67.0898 L 44.8242 -26.709 L 13.8184 -26.709 Z"/>
  </g>
  <line id="Baseline-S" style="fill:none;stroke:#27AAE1;opacity:1;stroke-width:0.577;" x1="263" x2="3036" y1="696" y2="696"/>
  <line id="Capline-S" style="fill:none;stroke:#27AAE1;opacity:1;stroke-width:0.577;" x1="263" x2="3036" y1="625.541" y2="625.541"/>
  <g id="H-reference" style="fill:#27AAE1;stroke:none;" transform="matrix(1 0 0 1 339 1126)">
   <path d="M 54.9316 0 L 57.666 0 L 30.5664 -70.459 L 28.0762 -70.459 L 0.976562 0 L 3.66211 0 L 12.9395 -24.4629 L 45.7031 -24.4629 Z M 29.1992 -67.0898 L 29.4434 -67.0898 L 44.8242 -26.709 L 13.8184 -26.709 Z"/>
  </g>
  <line id="Baseline-M" style="fill:none;stroke:#27AAE1;opacity:1;stroke-width:0.577;" x1="263" x2="3036" y1="1126" y2="1126"/>
  <line id="Capline-M" style="fill:none;stroke:#27AAE1;opacity:1;stroke-width:0.577;" x1="263" x2="3036" y1="1055.54" y2="1055.54"/>
  <g id="H-reference" style="fill:#27AAE1;stroke:none;" transform="matrix(1 0 0 1 339 1556)">
   <path d="M 54.9316 0 L 57.666 0 L 30.5664 -70.459 L 28.0762 -70.459 L 0.976562 0 L 3.66211 0 L 12.9395 -24.4629 L 45.7031 -24.4629 Z M 29.1992 -67.0898 L 29.4434 -67.0898 L 44.8242 -26.709 L 13.8184 -26.709 Z"/>
  </g>
  <line id="Baseline-L" style="fill:none;stroke:#27AAE1;opacity:1;stroke-width:0.577;" x1="263" x2="3036" y1="1556" y2="1556"/>
  <line id="Capline-L" style="fill:none;stroke:#27AAE1;opacity:1;stroke-width:0.577;" x1="263" x2="3036" y1="1485.54" y2="1485.54"/>
  <rect height="119.336" id="left-margin" style="fill:#00AEEF;stroke:none;opacity:0.4;" width="8.74023" x="1391.3" y="1030.79"/>
  <rect height="119.336" id="right-margin" style="fill:#00AEEF;stroke:none;opacity:0.4;" width="8.74023" x="1499.65" y="1030.79"/>
 </g>
 <g id="Symbols">
  <g id="Black-L" transform="matrix(1 0 0 1 2854.05 1556)">
   <path d="M 79.3457 32.8613 C 116.748 32.8613 147.412 2.19727 147.412 -35.2051 C 147.412 -72.6074 116.748 -103.271 79.2969 -103.271 C 41.8945 -103.271 11.2793 -72.6074 11.2793 -35.2051 C 11.2793 2.19727 41.9434 32.8613 79.3457 32.8613 Z M 59.3262 -9.47266 C 51.6113 -9.47266 44.8242 -14.2578 43.3105 -19.4336 C 43.0176 -20.5078 42.8223 -21.4355 42.8223 -22.5098 C 42.8223 -25.9277 45.459 -27.832 47.998 -27.832 C 50.3418 -27.832 51.9531 -26.8555 53.1738 -24.9023 C 54.6875 -22.168 56.9336 -20.8984 59.5215 -20.8984 C 62.4512 -20.8984 64.4043 -22.9492 64.4043 -25.3418 C 64.4043 -28.125 62.5977 -29.8828 59.375 -29.8828 L 58.3984 -29.8828 C 54.4922 -29.8828 52.6855 -32.2754 52.6855 -35.5957 C 52.6855 -38.9648 54.8828 -41.3574 58.3984 -41.3574 L 59.3262 -41.3574 C 62.207 -41.3574 63.6719 -43.4082 63.6719 -45.7031 C 63.6719 -48.3887 61.8164 -50.0977 59.2773 -50.0977 C 56.7383 -50.0977 55.0293 -48.7793 53.5156 -46.0938 C 52.5391 -44.2383 50.9766 -43.0176 48.4375 -43.0176 C 45.5566 -43.0176 43.5059 -45.0195 43.5059 -48.3398 C 43.5059 -49.5117 43.6523 -50.5371 44.1895 -51.9043 C 45.752 -56.1523 51.3184 -61.084 59.4727 -61.084 C 69.4824 -61.084 75.9766 -55.7129 75.9766 -47.5098 C 75.9766 -42.4316 72.4609 -37.6953 67.8711 -36.9141 L 67.8711 -36.377 C 73.3398 -35.9375 77.0996 -30.8105 77.0996 -24.5605 C 77.0996 -15.4297 70.1172 -9.47266 59.3262 -9.47266 Z M 100.049 -9.47266 C 89.3066 -9.47266 82.1289 -15.332 82.1289 -24.1699 C 82.1289 -30.5664 85.9863 -34.9609 91.6016 -36.4258 L 91.6016 -36.9141 C 87.2559 -38.0859 83.9355 -42.1875 83.9355 -47.6562 C 83.9355 -55.7129 90.3809 -61.084 100.098 -61.084 C 109.814 -61.084 116.309 -55.7129 116.309 -47.6562 C 116.309 -42.1875 112.939 -38.0371 108.594 -36.9141 L 108.594 -36.4258 C 114.209 -34.9609 118.115 -30.6152 118.115 -24.1699 C 118.115 -15.332 110.889 -9.47266 100.049 -9.47266 Z M 100.098 -41.5039 C 102.979 -41.5039 104.834 -43.5547 104.834 -46.3867 C 104.834 -49.1699 102.93 -51.2207 100.098 -51.2207 C 97.3145 -51.2207 95.4102 -49.1699 95.4102 -46.3867 C 95.4102 -43.5547 97.2656 -41.5039 100.098 -41.5039 Z M 100.146 -19.4336 C 103.516 -19.4336 105.859 -21.875 105.859 -25.1465 C 105.859 -28.5156 103.564 -31.0059 100.146 -31.0059 C 96.8262 -31.0059 94.4824 -28.5156 94.4824 -25.1465 C 94.4824 -21.875 96.8262 -19.4336 100.146 -19.4336 Z"/>
  </g>
  <g id="Heavy-L" transform="matrix(1 0 0 1 2558.39 1556)">
   <path d="M 78.2715 31.7871 C 115.088 31.7871 145.312 1.61133 145.312 -35.2051 C 145.312 -72.0215 115.039 -102.197 78.2715 -102.197 C 41.4551 -102.197 11.2793 -72.0215 11.2793 -35.2051 C 11.2793 1.61133 41.5039 31.7871 78.2715 31.7871 Z M 57.7148 -8.88672 C 49.7559 -8.88672 42.9199 -13.8184 41.3574 -19.1895 C 41.0645 -20.166 40.8691 -21.0449 40.8691 -22.0703 C 40.8691 -25.1953 43.2129 -27.002 45.6543 -27.002 C 47.8027 -27.002 49.3164 -25.9766 50.3418 -24.0723 C 51.9531 -20.8496 54.5898 -19.1895 57.8613 -19.1895 C 61.7188 -19.1895 64.3555 -21.7285 64.3555 -24.8535 C 64.3555 -28.3203 61.9141 -30.5664 57.8613 -30.5664 L 56.1035 -30.5664 C 52.6855 -30.5664 51.0254 -32.7148 51.0254 -35.7422 C 51.0254 -38.8184 52.9785 -40.918 56.1035 -40.918 L 57.7637 -40.918 C 61.2793 -40.918 63.3789 -43.4082 63.3789 -46.3867 C 63.3789 -49.5605 60.9863 -51.709 57.7148 -51.709 C 54.4922 -51.709 52.3438 -50.0488 50.8789 -46.8262 C 50 -44.9219 48.584 -43.7988 46.2402 -43.7988 C 43.5547 -43.7988 41.6504 -45.6543 41.6504 -48.7305 C 41.6504 -49.8047 41.7969 -50.7324 42.2363 -51.9531 C 43.8477 -56.7383 49.6582 -61.6699 57.9102 -61.6699 C 67.8711 -61.6699 74.4629 -56.1523 74.4629 -47.9492 C 74.4629 -42.627 70.752 -37.6465 65.918 -36.8652 L 65.918 -36.377 C 71.6797 -35.8887 75.7324 -30.6152 75.7324 -24.2188 C 75.7324 -14.9902 68.5547 -8.88672 57.7148 -8.88672 Z M 99.6094 -8.88672 C 88.7207 -8.88672 81.4453 -14.8926 81.4453 -23.877 C 81.4453 -30.3711 85.4004 -35.0098 91.3574 -36.4746 L 91.3574 -36.9629 C 86.6211 -38.2324 83.3008 -42.4805 83.3008 -47.998 C 83.3008 -56.1523 89.8926 -61.6699 99.6582 -61.6699 C 109.473 -61.6699 116.064 -56.1523 116.064 -47.998 C 116.064 -42.4805 112.744 -38.1836 108.008 -36.9629 L 108.008 -36.4746 C 113.916 -35.0098 117.92 -30.4199 117.92 -23.9258 C 117.92 -14.9414 110.547 -8.88672 99.6094 -8.88672 Z M 99.6582 -41.0156 C 103.223 -41.0156 105.615 -43.457 105.615 -46.875 C 105.615 -50.2441 103.174 -52.6855 99.6582 -52.6855 C 96.1914 -52.6855 93.75 -50.2441 93.75 -46.875 C 93.75 -43.457 96.1426 -41.0156 99.6582 -41.0156 Z M 99.707 -17.9199 C 103.906 -17.9199 106.836 -20.8008 106.836 -24.7559 C 106.836 -28.7598 103.955 -31.6406 99.707 -31.6406 C 95.5566 -31.6406 92.5781 -28.7109 92.5781 -24.7559 C 92.5781 -20.8008 95.5566 -17.9199 99.707 -17.9199 Z"/>
  </g>
  <g id="Bold-L" transform="matrix(1 0 0 1 2262.88 1556)">
   <path d="M 77.0996 30.6152 C 113.232 30.6152 142.92 0.878906 142.92 -35.2051 C 142.92 -71.3379 113.184 -101.025 77.0508 -101.025 C 40.9668 -101.025 11.2793 -71.3379 11.2793 -35.2051 C 11.2793 0.878906 41.0156 30.6152 77.0996 30.6152 Z M 55.9082 -8.25195 C 47.6562 -8.25195 40.7715 -13.3301 39.1113 -18.8965 C 38.8672 -19.8242 38.7207 -20.6055 38.7207 -21.582 C 38.7207 -24.3164 40.7227 -26.0254 43.0176 -26.0254 C 45.0195 -26.0254 46.3379 -25.0488 47.2168 -23.0957 C 48.877 -19.3359 52.002 -17.2852 56.0547 -17.2852 C 60.9375 -17.2852 64.2578 -20.3613 64.2578 -24.3652 C 64.2578 -28.5645 61.1328 -31.3477 56.2012 -31.3477 L 53.5645 -31.3477 C 50.6836 -31.3477 49.1699 -33.252 49.1699 -35.8887 C 49.1699 -38.623 50.8789 -40.4297 53.5645 -40.4297 L 56.0059 -40.4297 C 60.2539 -40.4297 63.0371 -43.3594 63.0371 -47.1191 C 63.0371 -50.9277 60.1074 -53.4668 56.0059 -53.4668 C 52.002 -53.4668 49.3652 -51.416 47.9492 -47.6562 C 47.168 -45.7031 45.8984 -44.6777 43.75 -44.6777 C 41.2598 -44.6777 39.5996 -46.3867 39.5996 -49.1211 C 39.5996 -50.0977 39.6973 -50.9277 40.0391 -52.0508 C 41.6992 -57.4219 47.7539 -62.3047 56.2012 -62.3047 C 66.0156 -62.3047 72.7539 -56.6895 72.7539 -48.4375 C 72.7539 -42.8223 68.7988 -37.6465 63.7207 -36.8164 L 63.7207 -36.377 C 69.8242 -35.791 74.2188 -30.4199 74.2188 -23.8281 C 74.2188 -14.5508 66.8457 -8.25195 55.9082 -8.25195 Z M 99.1211 -8.25195 C 88.0859 -8.25195 80.6641 -14.4043 80.6641 -23.584 C 80.6641 -30.127 84.7168 -35.1074 91.0156 -36.5234 L 91.0156 -36.9629 C 85.8398 -38.4277 82.5195 -42.8223 82.5195 -48.3887 C 82.5195 -56.6406 89.3066 -62.3047 99.1699 -62.3047 C 109.033 -62.3047 115.869 -56.6406 115.869 -48.3887 C 115.869 -42.8223 112.5 -38.3301 107.324 -36.9629 L 107.324 -36.5234 C 113.623 -35.1074 117.725 -30.1758 117.725 -23.6328 C 117.725 -14.4531 110.156 -8.25195 99.1211 -8.25195 Z M 99.1699 -40.4785 C 103.467 -40.4785 106.445 -43.4082 106.445 -47.4609 C 106.445 -51.4648 103.467 -54.3457 99.1699 -54.3457 C 94.9219 -54.3457 91.9434 -51.4648 91.9434 -47.4609 C 91.9434 -43.4082 94.9219 -40.4785 99.1699 -40.4785 Z M 99.2188 -16.2598 C 104.346 -16.2598 107.959 -19.5801 107.959 -24.3164 C 107.959 -29.0039 104.395 -32.373 99.2188 -32.373 C 94.1406 -32.373 90.4785 -28.9551 90.4785 -24.3164 C 90.4785 -19.5801 94.1406 -16.2598 99.2188 -16.2598 Z"/>
  </g>
  <g id="Semibold-L" transform="matrix(1 0 0 1 1966.97 1556)">
   <path d="M 76.2695 29.7852 C 111.914 29.7852 141.309 0.439453 141.309 -35.2051 C 141.309 -70.8496 111.865 -100.244 76.2695 -100.244 C 40.625 -100.244 11.2793 -70.8496 11.2793 -35.2051 C 11.2793 0.439453 40.6738 29.7852 76.2695 29.7852 Z M 54.6875 -7.76367 C 46.1914 -7.76367 39.3066 -12.9883 37.5977 -18.7012 C 37.3535 -19.5801 37.207 -20.3125 37.207 -21.2891 C 37.207 -23.7305 38.9648 -25.3418 41.1621 -25.3418 C 43.0664 -25.3418 44.2383 -24.4141 45.0684 -22.4609 C 46.7773 -18.3105 50.2441 -15.9668 54.7852 -15.9668 C 60.3516 -15.9668 64.1602 -19.4336 64.1602 -23.9746 C 64.1602 -28.7109 60.5957 -31.8848 55.0781 -31.8848 L 51.8066 -31.8848 C 49.2676 -31.8848 47.8516 -33.5938 47.8516 -35.9863 C 47.8516 -38.4766 49.4141 -40.1367 51.8066 -40.1367 L 54.7852 -40.1367 C 59.5703 -40.1367 62.793 -43.3594 62.793 -47.6074 C 62.793 -51.8555 59.4727 -54.6875 54.7852 -54.6875 C 50.2441 -54.6875 47.2656 -52.3926 45.8984 -48.2422 C 45.2148 -46.2891 44.043 -45.3125 42.041 -45.3125 C 39.6973 -45.3125 38.1836 -46.9238 38.1836 -49.4141 C 38.1836 -50.3418 38.2812 -51.0742 38.5254 -52.0996 C 40.1855 -57.8613 46.4844 -62.7441 54.9805 -62.7441 C 64.7949 -62.7441 71.582 -57.0312 71.582 -48.7793 C 71.582 -42.9688 67.4805 -37.6465 62.207 -36.7676 L 62.207 -36.377 C 68.5547 -35.7422 73.1934 -30.2734 73.1934 -23.5352 C 73.1934 -14.2578 65.625 -7.76367 54.6875 -7.76367 Z M 98.7305 -7.76367 C 87.6465 -7.76367 80.127 -14.0625 80.127 -23.3887 C 80.127 -29.9805 84.2285 -35.1562 90.7715 -36.5723 L 90.7715 -36.9629 C 85.3516 -38.5742 82.0312 -43.0664 82.0312 -48.6328 C 82.0312 -57.0312 88.916 -62.7441 98.8281 -62.7441 C 108.74 -62.7441 115.674 -57.0312 115.674 -48.6328 C 115.674 -43.0664 112.305 -38.4277 106.885 -36.9629 L 106.885 -36.5723 C 113.428 -35.1562 117.578 -30.0293 117.578 -23.4375 C 117.578 -14.1602 109.912 -7.76367 98.7305 -7.76367 Z M 98.8281 -40.0879 C 103.662 -40.0879 106.982 -43.3594 106.982 -47.8516 C 106.982 -52.3438 103.662 -55.4688 98.8281 -55.4688 C 94.043 -55.4688 90.7227 -52.3438 90.7227 -47.8516 C 90.7227 -43.3594 94.0918 -40.0879 98.8281 -40.0879 Z M 98.877 -15.0879 C 104.639 -15.0879 108.74 -18.7988 108.74 -23.9746 C 108.74 -29.1504 104.688 -32.8613 98.877 -32.8613 C 93.1641 -32.8613 89.0137 -29.1016 89.0137 -23.9746 C 89.0137 -18.7988 93.1641 -15.0879 98.877 -15.0879 Z"/>
  </g>
  <g id="Medium-L" transform="matrix(1 0 0 1 1670.87 1556)">
   <path d="M 75.6836 29.1992 C 110.938 29.1992 140.088 0.0488281 140.088 -35.2051 C 140.088 -70.459 110.889 -99.6094 75.6348 -99.6094 C 40.3809 -99.6094 11.2793 -70.459 11.2793 -35.2051 C 11.2793 0.0488281 40.3809 29.1992 75.6836 29.1992 Z M 53.7598 -7.4707 C 45.0684 -7.4707 38.1836 -12.6953 36.4258 -18.5547 C 36.1816 -19.4336 36.084 -20.0684 36.084 -20.9961 C 36.084 -23.291 37.6953 -24.8047 39.7949 -24.8047 C 41.6016 -24.8047 42.6758 -23.877 43.457 -21.9727 C 45.166 -17.5293 48.877 -14.9902 53.8086 -14.9902 C 59.9609 -14.9902 64.1113 -18.75 64.1113 -23.7305 C 64.1113 -28.8086 60.2051 -32.2754 54.1992 -32.2754 L 50.4883 -32.2754 C 48.2422 -32.2754 46.875 -33.8867 46.875 -36.0352 C 46.875 -38.3789 48.3398 -39.8926 50.4883 -39.8926 L 53.9062 -39.8926 C 59.0332 -39.8926 62.5977 -43.3594 62.5977 -47.998 C 62.5977 -52.5391 58.9844 -55.6152 53.8574 -55.6152 C 48.9258 -55.6152 45.7031 -53.125 44.3848 -48.6328 C 43.75 -46.6797 42.627 -45.752 40.7227 -45.752 C 38.5254 -45.752 37.1094 -47.3145 37.1094 -49.6094 C 37.1094 -50.4883 37.1582 -51.2207 37.4023 -52.1484 C 39.0625 -58.2031 45.5078 -63.0859 54.0527 -63.0859 C 63.8184 -63.0859 70.7031 -57.3242 70.7031 -49.0234 C 70.7031 -43.0664 66.4551 -37.6465 61.084 -36.7676 L 61.084 -36.377 C 67.5781 -35.7422 72.3633 -30.1758 72.3633 -23.3398 C 72.3633 -14.0137 64.7461 -7.4707 53.7598 -7.4707 Z M 98.4863 -7.4707 C 87.3047 -7.4707 79.6875 -13.8184 79.6875 -23.2422 C 79.6875 -29.8828 83.8867 -35.2051 90.625 -36.5723 L 90.625 -37.0117 C 84.9609 -38.6719 81.6406 -43.2129 81.6406 -48.877 C 81.6406 -57.2754 88.623 -63.0859 98.584 -63.0859 C 108.545 -63.0859 115.576 -57.2754 115.576 -48.877 C 115.576 -43.2129 112.207 -38.5254 106.543 -37.0117 L 106.543 -36.5723 C 113.232 -35.2051 117.48 -29.8828 117.48 -23.291 C 117.48 -13.8672 109.717 -7.4707 98.4863 -7.4707 Z M 98.584 -39.7949 C 103.809 -39.7949 107.422 -43.3105 107.422 -48.1445 C 107.422 -52.9785 103.809 -56.3477 98.584 -56.3477 C 93.3594 -56.3477 89.7461 -52.9785 89.7461 -48.1445 C 89.7461 -43.3105 93.4082 -39.7949 98.584 -39.7949 Z M 98.6328 -14.209 C 104.834 -14.209 109.326 -18.1641 109.326 -23.7305 C 109.326 -29.248 104.932 -33.252 98.6328 -33.252 C 92.3828 -33.252 87.9395 -29.248 87.9395 -23.7305 C 87.9395 -18.1641 92.3828 -14.209 98.6328 -14.209 Z"/>
  </g>
  <g id="Regular-L" transform="matrix(1 0 0 1 1374.97 1556)">
   <path d="M 74.8535 28.3691 C 109.668 28.3691 138.477 -0.390625 138.477 -35.2051 C 138.477 -70.0195 109.619 -98.7793 74.8047 -98.7793 C 40.0391 -98.7793 11.2793 -70.0195 11.2793 -35.2051 C 11.2793 -0.390625 40.0879 28.3691 74.8535 28.3691 Z M 52.4902 -6.98242 C 43.6523 -6.98242 36.7188 -12.3535 34.9121 -18.4082 C 34.7168 -19.1895 34.5703 -19.7754 34.5703 -20.6543 C 34.5703 -22.7051 35.9863 -24.1699 37.9883 -24.1699 C 39.6973 -24.1699 40.6738 -23.2422 41.3086 -21.3379 C 43.1152 -16.5039 47.1191 -13.6719 52.5391 -13.6719 C 59.4238 -13.6719 64.0625 -17.8223 64.0625 -23.3887 C 64.0625 -28.9551 59.668 -32.8125 53.0762 -32.8125 L 48.7793 -32.8125 C 46.8262 -32.8125 45.6055 -34.2285 45.6055 -36.1328 C 45.6055 -38.2324 46.9238 -39.5508 48.7793 -39.5508 L 52.6855 -39.5508 C 58.3496 -39.5508 62.3535 -43.3594 62.3535 -48.4863 C 62.3535 -53.4668 58.3984 -56.8359 52.6855 -56.8359 C 47.2168 -56.8359 43.7012 -54.0527 42.334 -49.2188 C 41.7969 -47.2168 40.8203 -46.3379 39.0625 -46.3379 C 37.0117 -46.3379 35.7422 -47.8027 35.7422 -49.9023 C 35.7422 -50.7324 35.7422 -51.3672 35.8887 -52.1973 C 37.5977 -58.6914 44.2383 -63.5254 52.8809 -63.5254 C 62.5977 -63.5254 69.5312 -57.666 69.5312 -49.3652 C 69.5312 -43.2129 65.1855 -37.5977 59.5703 -36.7188 L 59.5703 -36.377 C 66.3086 -35.6934 71.3379 -30.0293 71.3379 -23.0957 C 71.3379 -13.6719 63.5254 -6.98242 52.4902 -6.98242 Z M 98.1445 -6.98242 C 86.8652 -6.98242 79.1504 -13.4766 79.1504 -22.998 C 79.1504 -29.6875 83.3984 -35.2539 90.4297 -36.6211 L 90.4297 -37.0117 C 84.4238 -38.8184 81.1523 -43.457 81.1523 -49.1211 C 81.1523 -57.6172 88.2324 -63.5254 98.2422 -63.5254 C 108.252 -63.5254 115.381 -57.6172 115.381 -49.1211 C 115.381 -43.457 112.012 -38.623 106.055 -37.0117 L 106.055 -36.6211 C 113.037 -35.2539 117.383 -29.7363 117.383 -23.0469 C 117.383 -13.5742 109.424 -6.98242 98.1445 -6.98242 Z M 98.2422 -39.4043 C 104.004 -39.4043 108.008 -43.2617 108.008 -48.5352 C 108.008 -53.8086 104.004 -57.4707 98.2422 -57.4707 C 92.5293 -57.4707 88.5254 -53.8086 88.5254 -48.5352 C 88.5254 -43.2617 92.5781 -39.4043 98.2422 -39.4043 Z M 98.291 -13.0859 C 105.127 -13.0859 110.107 -17.334 110.107 -23.4375 C 110.107 -29.4434 105.225 -33.7402 98.291 -33.7402 C 91.4551 -33.7402 86.4746 -29.3945 86.4746 -23.4375 C 86.4746 -17.334 91.4551 -13.0859 98.291 -13.0859 Z"/>
  </g>
  <g id="Light-L" transform="matrix(1 0 0 1 1079.18 1556)">
   <path d="M 73.9258 27.4902 C 108.301 27.4902 136.621 -0.830078 136.621 -35.1562 C 136.621 -69.5312 108.252 -97.8516 73.9258 -97.8516 C 39.5508 -97.8516 11.2793 -69.5312 11.2793 -35.1562 C 11.2793 -0.830078 39.5996 27.4902 73.9258 27.4902 Z M 51.6113 -7.32422 C 42.9199 -7.32422 36.1328 -12.5 34.2773 -18.457 C 34.082 -19.1406 33.9844 -19.7266 33.9844 -20.5078 C 33.9844 -22.168 35.0586 -23.3887 36.7676 -23.3887 C 38.1836 -23.3887 39.0137 -22.6074 39.5508 -20.9961 C 41.3086 -15.8691 45.8984 -12.793 51.6113 -12.793 C 59.082 -12.793 64.1113 -17.1875 64.1113 -23.291 C 64.1113 -29.1992 59.2285 -33.4473 52.2461 -33.4473 L 47.3633 -33.4473 C 45.752 -33.4473 44.7754 -34.6191 44.7754 -36.1816 C 44.7754 -37.8906 45.8496 -38.9648 47.3633 -38.9648 L 51.8066 -38.9648 C 57.9102 -38.9648 62.3535 -43.1152 62.3535 -48.6816 C 62.3535 -54.1016 58.0078 -57.7637 51.6602 -57.7637 C 45.752 -57.7637 41.748 -54.5898 40.5762 -49.5605 C 40.1855 -47.8516 39.3066 -47.1191 37.8906 -47.1191 C 36.084 -47.1191 35.1074 -48.3398 35.1074 -50.0977 C 35.1074 -50.7812 35.1562 -51.416 35.3027 -52.1484 C 36.9141 -58.6914 43.6035 -63.2324 51.8066 -63.2324 C 61.377 -63.2324 68.2617 -57.4707 68.2617 -49.3164 C 68.2617 -43.2129 63.7695 -37.5977 58.0078 -36.6211 L 58.0078 -36.377 C 64.8926 -35.6445 70.0684 -29.9805 70.0684 -23.0957 C 70.0684 -13.916 62.3535 -7.32422 51.6113 -7.32422 Z M 97.2168 -7.32422 C 86.1816 -7.32422 78.418 -13.7695 78.418 -23.1445 C 78.418 -29.7363 82.8613 -35.3027 89.6973 -36.6211 L 89.6973 -37.0117 C 83.8867 -38.7207 80.3711 -43.4082 80.3711 -48.9746 C 80.3711 -57.373 87.4512 -63.2324 97.3145 -63.2324 C 107.129 -63.2324 114.258 -57.373 114.258 -48.9746 C 114.258 -43.4082 110.693 -38.5742 104.883 -37.0117 L 104.883 -36.6211 C 111.719 -35.3027 116.211 -29.7852 116.211 -23.1934 C 116.211 -13.8672 108.301 -7.32422 97.2168 -7.32422 Z M 97.3145 -39.0137 C 103.76 -39.0137 108.301 -43.0664 108.301 -48.6328 C 108.301 -54.2969 103.809 -58.2031 97.3145 -58.2031 C 90.7715 -58.2031 86.3281 -54.2969 86.3281 -48.6328 C 86.3281 -43.0664 90.918 -39.0137 97.3145 -39.0137 Z M 97.3145 -12.3535 C 104.932 -12.3535 110.449 -16.9434 110.449 -23.3887 C 110.449 -29.6875 105.029 -34.2285 97.3145 -34.2285 C 89.6973 -34.2285 84.1797 -29.6387 84.1797 -23.3887 C 84.1797 -16.9434 89.6973 -12.3535 97.3145 -12.3535 Z"/>
  </g>
  <g id="Thin-L" transform="matrix(1 0 0 1 783.693 1556)">
   <path d="M 72.7051 26.3184 C 106.494 26.3184 134.18 -1.36719 134.18 -35.1074 C 134.18 -68.8965 106.494 -96.582 72.7051 -96.582 C 38.9648 -96.582 11.2793 -68.8965 11.2793 -35.1074 C 11.2793 -1.36719 38.9648 26.3184 72.7051 26.3184 Z M 50.3418 -7.71484 C 41.9434 -7.71484 35.3516 -12.6953 33.4473 -18.5059 C 33.3008 -19.043 33.1543 -19.6289 33.1543 -20.3125 C 33.1543 -21.4844 33.8867 -22.3633 35.1074 -22.3633 C 36.2305 -22.3633 36.8164 -21.7285 37.1582 -20.5078 C 38.916 -14.9902 44.2871 -11.5723 50.3906 -11.5723 C 58.6914 -11.5723 64.1602 -16.3574 64.1602 -23.1445 C 64.1602 -29.4922 58.6426 -34.3262 51.123 -34.3262 L 45.5566 -34.3262 C 44.3359 -34.3262 43.6523 -35.0586 43.6523 -36.2305 C 43.6523 -37.4023 44.4824 -38.1348 45.5566 -38.1348 L 50.5859 -38.1348 C 57.3242 -38.1348 62.3535 -42.8223 62.3535 -48.877 C 62.3535 -54.9316 57.5195 -58.9844 50.3418 -58.9844 C 43.7988 -58.9844 39.209 -55.3223 38.2812 -50 C 37.9883 -48.6328 37.3047 -48.0957 36.2793 -48.0957 C 34.8633 -48.0957 34.2773 -49.0234 34.2773 -50.3418 C 34.2773 -50.8301 34.3262 -51.5137 34.4727 -52.0996 C 36.0352 -58.6914 42.7734 -62.793 50.3418 -62.793 C 59.7168 -62.793 66.5039 -57.2266 66.5039 -49.2676 C 66.5039 -43.2129 61.9629 -37.5488 55.957 -36.5234 L 55.957 -36.377 C 62.9395 -35.5957 68.3594 -29.8828 68.3594 -23.0957 C 68.3594 -14.209 60.7422 -7.71484 50.3418 -7.71484 Z M 96.0449 -7.71484 C 85.2539 -7.71484 77.3926 -14.1602 77.3926 -23.3398 C 77.3926 -29.7852 82.1777 -35.3516 88.7207 -36.6211 L 88.7207 -36.9629 C 83.2031 -38.6719 79.3945 -43.4082 79.3945 -48.8281 C 79.3945 -57.0801 86.4258 -62.793 96.0449 -62.793 C 105.664 -62.793 112.695 -57.0801 112.695 -48.8281 C 112.695 -43.4082 108.887 -38.5254 103.369 -36.9629 L 103.369 -36.6211 C 109.961 -35.3516 114.697 -29.7852 114.697 -23.3398 C 114.697 -14.2578 106.738 -7.71484 96.0449 -7.71484 Z M 96.0449 -38.4766 C 103.516 -38.4766 108.643 -42.8223 108.643 -48.8281 C 108.643 -54.9805 103.564 -59.2285 96.0449 -59.2285 C 88.5254 -59.2285 83.4473 -54.9805 83.4473 -48.8281 C 83.4473 -42.8223 88.6719 -38.4766 96.0449 -38.4766 Z M 96.0449 -11.3281 C 104.688 -11.3281 110.938 -16.3574 110.938 -23.291 C 110.938 -30.0293 104.736 -34.9121 96.0449 -34.9121 C 87.4023 -34.9121 81.1523 -30.0293 81.1523 -23.291 C 81.1523 -16.3574 87.4023 -11.3281 96.0449 -11.3281 Z"/>
  </g>
  <g id="Ultralight-L" transform="matrix(1 0 0 1 487.616 1556)">
   <path d="M 72.1191 25.7324 C 105.566 25.7324 132.91 -1.61133 132.91 -35.1074 C 132.91 -68.5547 105.566 -95.8984 72.1191 -95.8984 C 38.623 -95.8984 11.2793 -68.5547 11.2793 -35.1074 C 11.2793 -1.61133 38.623 25.7324 72.1191 25.7324 Z M 49.7559 -7.95898 C 41.4551 -7.95898 34.9609 -12.793 33.0078 -18.5547 C 32.8613 -18.9941 32.7148 -19.5801 32.7148 -20.166 C 32.7148 -21.0938 33.252 -21.8262 34.2773 -21.8262 C 35.2539 -21.8262 35.6445 -21.2891 35.9375 -20.2637 C 37.6953 -14.5508 43.457 -10.9375 49.7559 -10.9375 C 58.4473 -10.9375 64.209 -15.918 64.209 -23.0957 C 64.209 -29.6387 58.3496 -34.7656 50.5859 -34.7656 L 44.5801 -34.7656 C 43.5547 -34.7656 43.1152 -35.3027 43.1152 -36.2305 C 43.1152 -37.1582 43.75 -37.7441 44.5801 -37.7441 L 50 -37.7441 C 57.0801 -37.7441 62.3535 -42.6758 62.3535 -48.9746 C 62.3535 -55.3223 57.2266 -59.6191 49.6094 -59.6191 C 42.8223 -59.6191 37.8906 -55.7129 37.0605 -50.2441 C 36.8652 -49.0723 36.2793 -48.6328 35.498 -48.6328 C 34.2285 -48.6328 33.8379 -49.3652 33.8379 -50.4395 C 33.8379 -50.8789 33.9355 -51.5137 34.082 -52.0508 C 35.5957 -58.6914 42.334 -62.5977 49.6094 -62.5977 C 58.8867 -62.5977 65.625 -57.0801 65.625 -49.2676 C 65.625 -43.2129 60.9863 -37.5 54.9316 -36.4258 L 54.9316 -36.377 C 61.9629 -35.5957 67.4805 -29.8828 67.4805 -23.1445 C 67.4805 -14.3555 59.9609 -7.95898 49.7559 -7.95898 Z M 95.4102 -7.95898 C 84.8145 -7.95898 76.9043 -14.3555 76.9043 -23.3887 C 76.9043 -29.834 81.7871 -35.3516 88.2324 -36.6211 L 88.2324 -36.9629 C 82.8613 -38.623 78.9062 -43.4082 78.9062 -48.7305 C 78.9062 -56.8848 85.8887 -62.5977 95.4102 -62.5977 C 104.932 -62.5977 111.914 -56.8848 111.914 -48.7305 C 111.914 -43.4082 108.008 -38.4766 102.588 -36.9629 L 102.588 -36.6211 C 109.033 -35.3516 113.916 -29.7852 113.916 -23.3887 C 113.916 -14.4531 105.957 -7.95898 95.4102 -7.95898 Z M 95.4102 -38.1836 C 103.369 -38.1836 108.838 -42.6758 108.838 -48.9258 C 108.838 -55.2734 103.467 -59.7168 95.4102 -59.7168 C 87.3535 -59.7168 81.9824 -55.2734 81.9824 -48.9258 C 81.9824 -42.6758 87.5488 -38.1836 95.4102 -38.1836 Z M 95.4102 -10.8398 C 104.59 -10.8398 111.182 -16.0645 111.182 -23.291 C 111.182 -30.2246 104.59 -35.2539 95.4102 -35.2539 C 86.2305 -35.2539 79.5898 -30.2246 79.5898 -23.291 C 79.5898 -16.0645 86.2305 -10.8398 95.4102 -10.8398 Z"/>
  </g>
  <g id="Black-M" transform="matrix(1 0 0 1 2870.97 1126)">
   <path d="M 62.4023 18.457 C 91.9922 18.457 116.113 -5.61523 116.113 -35.2051 C 116.113 -64.7949 91.9922 -88.8672 62.4023 -88.8672 C 32.8125 -88.8672 8.74023 -64.7949 8.74023 -35.2051 C 8.74023 -5.61523 32.8125 18.457 62.4023 18.457 Z M 47.6562 -16.2109 C 42.1387 -16.2109 37.0117 -19.6777 35.9375 -23.3398 C 35.6445 -24.2188 35.498 -25 35.498 -25.8789 C 35.498 -28.7598 37.7441 -30.2734 39.7461 -30.2734 C 41.6016 -30.2734 42.9688 -29.541 43.9941 -28.1738 C 45.1172 -26.6113 46.582 -25.9277 47.8516 -25.9277 C 49.1699 -25.9277 50.0977 -27.002 50.0977 -28.125 C 50.0977 -29.5898 49.1699 -30.4688 47.5586 -30.4688 C 44.0918 -30.4688 42.6758 -32.4707 42.6758 -35.3516 C 42.6758 -38.1836 44.4824 -40.1855 47.5586 -40.1855 C 49.2188 -40.1855 49.8047 -41.5039 49.8047 -42.5293 C 49.8047 -44.1406 48.7793 -45.1172 47.5098 -45.1172 C 46.1914 -45.1172 45.2148 -44.3848 44.0918 -42.8711 C 43.2129 -41.5527 41.8945 -40.625 39.8926 -40.625 C 37.5488 -40.625 35.8398 -42.1875 35.8398 -45.0195 C 35.8398 -45.9473 36.0352 -46.8262 36.5234 -48.0469 C 37.6953 -50.6348 41.6992 -54.2969 47.6074 -54.2969 C 55.3711 -54.2969 60.2051 -50.3418 60.2051 -44.1406 C 60.2051 -40.5273 57.7148 -37.1094 54.3945 -36.5723 L 54.3945 -36.1328 C 58.3008 -35.8398 60.8887 -32.0312 60.8887 -27.4414 C 60.8887 -20.5566 55.8105 -16.2109 47.6562 -16.2109 Z M 77.6855 -16.2109 C 69.5801 -16.2109 64.209 -20.5566 64.209 -27.0508 C 64.209 -31.9336 67.1875 -34.9609 70.9961 -36.084 L 70.9961 -36.5234 C 68.2617 -37.1582 65.5762 -40.2344 65.5762 -44.3359 C 65.5762 -50.3418 70.3613 -54.2969 77.6855 -54.2969 C 85.0098 -54.2969 89.7949 -50.3418 89.7949 -44.3359 C 89.7949 -40.2344 87.1094 -37.1582 84.375 -36.5234 L 84.375 -36.084 C 88.1836 -34.9609 91.1621 -31.9336 91.1621 -27.0508 C 91.1621 -20.5566 85.7422 -16.2109 77.6855 -16.2109 Z M 77.6855 -40.5273 C 79.3945 -40.5273 80.4199 -41.6992 80.4199 -43.2617 C 80.4199 -44.8242 79.2969 -46.0449 77.6855 -46.0449 C 76.0254 -46.0449 74.9512 -44.8242 74.9512 -43.2617 C 74.9512 -41.6992 75.9766 -40.5273 77.6855 -40.5273 Z M 77.6855 -24.6094 C 79.6387 -24.6094 80.8594 -26.0742 80.8594 -27.9297 C 80.8594 -29.8828 79.5898 -31.3477 77.6855 -31.3477 C 75.7812 -31.3477 74.5605 -29.8828 74.5605 -27.9297 C 74.5605 -26.0742 75.7812 -24.6094 77.6855 -24.6094 Z"/>
  </g>
  <g id="Heavy-M" transform="matrix(1 0 0 1 2575.19 1126)">
   <path d="M 61.5234 17.5781 C 90.5273 17.5781 114.258 -6.15234 114.258 -35.2051 C 114.258 -64.2578 90.5273 -87.9883 61.4746 -87.9883 C 32.4707 -87.9883 8.74023 -64.2578 8.74023 -35.2051 C 8.74023 -6.15234 32.4707 17.5781 61.5234 17.5781 Z M 46.1426 -15.4785 C 40.2832 -15.4785 35.1074 -19.1406 33.9355 -23.0469 C 33.6914 -23.877 33.4961 -24.6094 33.4961 -25.4395 C 33.4961 -28.0762 35.5469 -29.541 37.4512 -29.541 C 39.2578 -29.541 40.5273 -28.7598 41.4062 -27.3438 C 42.5781 -25.293 44.3848 -24.3164 46.2891 -24.3164 C 48.4863 -24.3164 49.9512 -25.8301 49.9512 -27.6367 C 49.9512 -29.7363 48.5352 -31.0547 46.1426 -31.0547 L 45.459 -31.0547 C 42.4316 -31.0547 41.0645 -32.9102 41.0645 -35.498 C 41.0645 -38.0859 42.7246 -39.8926 45.459 -39.8926 L 46.0938 -39.8926 C 48.3398 -39.8926 49.4141 -41.5039 49.4141 -43.2129 C 49.4141 -45.2637 47.998 -46.582 46.0449 -46.582 C 44.1406 -46.582 42.8223 -45.6055 41.6992 -43.5547 C 40.8691 -42.1875 39.6973 -41.3086 37.793 -41.3086 C 35.5469 -41.3086 33.9844 -42.7734 33.9844 -45.3613 C 33.9844 -46.2402 34.1309 -47.0215 34.5703 -48.0957 C 35.791 -51.3184 40.0391 -55.0293 46.1914 -55.0293 C 53.9062 -55.0293 58.8867 -50.9277 58.8867 -44.6289 C 58.8867 -40.7715 56.2012 -37.1094 52.6367 -36.5234 L 52.6367 -36.1328 C 56.8359 -35.791 59.7168 -31.8359 59.7168 -27.0508 C 59.7168 -20.0195 54.3945 -15.4785 46.1426 -15.4785 Z M 77.4414 -15.4785 C 69.1406 -15.4785 63.623 -20.0195 63.623 -26.7578 C 63.623 -31.6895 66.6504 -35.0098 70.8984 -36.1328 L 70.8984 -36.5234 C 67.6758 -37.3535 65.0391 -40.5273 65.0391 -44.7266 C 65.0391 -50.9277 69.9707 -55.0293 77.4414 -55.0293 C 84.9121 -55.0293 89.8438 -50.9277 89.8438 -44.7266 C 89.8438 -40.5273 87.207 -37.3535 83.9844 -36.5234 L 83.9844 -36.1328 C 88.2324 -35.0098 91.2598 -31.6895 91.2598 -26.7578 C 91.2598 -20.0195 85.6934 -15.4785 77.4414 -15.4785 Z M 77.4414 -40.0879 C 79.6875 -40.0879 81.1523 -41.6504 81.1523 -43.75 C 81.1523 -45.8984 79.6387 -47.4609 77.4414 -47.4609 C 75.2441 -47.4609 73.7305 -45.8984 73.7305 -43.75 C 73.7305 -41.6504 75.1953 -40.0879 77.4414 -40.0879 Z M 77.4414 -23.1934 C 80.0781 -23.1934 81.8848 -25 81.8848 -27.5391 C 81.8848 -30.0781 80.0781 -31.9336 77.4414 -31.9336 C 74.8535 -31.9336 73.0957 -30.0293 73.0957 -27.5391 C 73.0957 -25 74.8535 -23.1934 77.4414 -23.1934 Z"/>
  </g>
  <g id="Bold-M" transform="matrix(1 0 0 1 2279.5 1126)">
   <path d="M 60.498 16.5039 C 88.8672 16.5039 112.207 -6.78711 112.207 -35.2051 C 112.207 -63.623 88.8672 -86.9629 60.4492 -86.9629 C 32.0312 -86.9629 8.74023 -63.623 8.74023 -35.2051 C 8.74023 -6.78711 32.0801 16.5039 60.498 16.5039 Z M 44.4336 -14.6973 C 38.1836 -14.6973 32.9102 -18.5547 31.6895 -22.7539 C 31.4453 -23.4863 31.2988 -24.1699 31.2988 -24.9512 C 31.2988 -27.2949 33.0566 -28.6621 34.9609 -28.6621 C 36.6211 -28.6621 37.7441 -27.9297 38.5254 -26.416 C 39.7461 -23.8281 41.8945 -22.5098 44.5312 -22.5098 C 47.7051 -22.5098 49.8535 -24.5605 49.8535 -27.0996 C 49.8535 -29.9316 47.8516 -31.7383 44.5801 -31.7383 L 43.0664 -31.7383 C 40.5273 -31.7383 39.2578 -33.3984 39.2578 -35.6445 C 39.2578 -37.9883 40.7227 -39.5508 43.0664 -39.5508 L 44.4824 -39.5508 C 47.3145 -39.5508 49.0723 -41.5527 49.0723 -43.9941 C 49.0723 -46.582 47.1191 -48.291 44.4336 -48.291 C 41.7969 -48.291 40.0879 -46.9238 38.9648 -44.3848 C 38.2812 -42.8711 37.207 -42.041 35.4004 -42.041 C 33.3496 -42.041 31.9336 -43.457 31.9336 -45.752 C 31.9336 -46.582 32.0312 -47.2656 32.373 -48.1934 C 33.5938 -52.002 38.1836 -55.8105 44.6289 -55.8105 C 52.2949 -55.8105 57.4219 -51.5625 57.4219 -45.166 C 57.4219 -40.9668 54.4922 -37.1094 50.7324 -36.5234 L 50.7324 -36.1328 C 55.2734 -35.6934 58.4473 -31.6406 58.4473 -26.6113 C 58.4473 -19.4824 52.8809 -14.6973 44.4336 -14.6973 Z M 77.1484 -14.6973 C 68.6523 -14.6973 62.9883 -19.3848 62.9883 -26.3672 C 62.9883 -31.4453 66.0645 -35.1074 70.752 -36.1816 L 70.752 -36.5723 C 66.9922 -37.5977 64.4043 -40.918 64.4043 -45.2148 C 64.4043 -51.5137 69.5801 -55.8105 77.1973 -55.8105 C 84.7656 -55.8105 89.9414 -51.5137 89.9414 -45.2148 C 89.9414 -40.918 87.3535 -37.5488 83.5938 -36.5723 L 83.5938 -36.1816 C 88.2812 -35.1074 91.4062 -31.4453 91.4062 -26.416 C 91.4062 -19.4336 85.6445 -14.6973 77.1484 -14.6973 Z M 77.1973 -39.5996 C 80.0293 -39.5996 81.9824 -41.6016 81.9824 -44.3359 C 81.9824 -47.0703 80.0293 -49.0234 77.1973 -49.0234 C 74.3652 -49.0234 72.4121 -47.0703 72.4121 -44.3359 C 72.4121 -41.6016 74.3164 -39.5996 77.1973 -39.5996 Z M 77.1973 -21.5332 C 80.6152 -21.5332 83.0078 -23.8281 83.0078 -27.0508 C 83.0078 -30.2246 80.6641 -32.5684 77.1973 -32.5684 C 73.8281 -32.5684 71.4355 -30.2246 71.4355 -27.0508 C 71.4355 -23.8281 73.8281 -21.5332 77.1973 -21.5332 Z"/>
  </g>
  <g id="Semibold-M" transform="matrix(1 0 0 1 1983.5 1126)">
   <path d="M 59.7656 15.8203 C 87.7441 15.8203 110.791 -7.22656 110.791 -35.2051 C 110.791 -63.1836 87.6953 -86.2793 59.7656 -86.2793 C 31.7871 -86.2793 8.74023 -63.1836 8.74023 -35.2051 C 8.74023 -7.22656 31.7871 15.8203 59.7656 15.8203 Z M 43.2617 -14.1602 C 36.7676 -14.1602 31.3965 -18.1152 30.127 -22.5098 C 29.9316 -23.2422 29.7852 -23.8281 29.7852 -24.6094 C 29.7852 -26.7578 31.3477 -28.125 33.2031 -28.125 C 34.7656 -28.125 35.791 -27.3438 36.5234 -25.7812 C 37.793 -22.8516 40.1855 -21.2402 43.3594 -21.2402 C 47.168 -21.2402 49.7559 -23.6328 49.7559 -26.7578 C 49.7559 -30.0293 47.3633 -32.1777 43.5059 -32.1777 L 41.4551 -32.1777 C 39.209 -32.1777 37.9883 -33.6914 37.9883 -35.7422 C 37.9883 -37.8906 39.3555 -39.3555 41.4551 -39.3555 L 43.3594 -39.3555 C 46.6309 -39.3555 48.7793 -41.6016 48.7793 -44.4824 C 48.7793 -47.4609 46.5332 -49.4141 43.3594 -49.4141 C 40.2344 -49.4141 38.2324 -47.8516 37.1094 -44.9219 C 36.4746 -43.3594 35.498 -42.5293 33.7891 -42.5293 C 31.8359 -42.5293 30.5176 -43.8965 30.5176 -45.9961 C 30.5176 -46.8262 30.5664 -47.4121 30.8105 -48.291 C 32.1289 -52.5391 36.8652 -56.3965 43.5059 -56.3965 C 51.1719 -56.3965 56.3965 -52.002 56.3965 -45.5566 C 56.3965 -41.1621 53.3203 -37.1094 49.3652 -36.4746 L 49.3652 -36.1328 C 54.1504 -35.6934 57.5684 -31.4941 57.5684 -26.3184 C 57.5684 -19.0918 51.8066 -14.1602 43.2617 -14.1602 Z M 76.9043 -14.1602 C 68.3105 -14.1602 62.5488 -18.9453 62.5488 -26.123 C 62.5488 -31.25 65.6738 -35.1562 70.6543 -36.2305 L 70.6543 -36.5723 C 66.5527 -37.7441 64.0137 -41.1621 64.0137 -45.5078 C 64.0137 -51.9531 69.2871 -56.3965 77.002 -56.3965 C 84.668 -56.3965 89.9902 -51.9531 89.9902 -45.5078 C 89.9902 -41.1621 87.4512 -37.6465 83.3496 -36.5723 L 83.3496 -36.2305 C 88.2812 -35.1562 91.4551 -31.25 91.4551 -26.1719 C 91.4551 -18.9941 85.5469 -14.1602 76.9043 -14.1602 Z M 77.002 -39.3066 C 80.2734 -39.3066 82.5684 -41.6016 82.5684 -44.7754 C 82.5684 -47.9004 80.2734 -50.0977 77.002 -50.0977 C 73.7305 -50.0977 71.4844 -47.9004 71.4844 -44.7754 C 71.4844 -41.6016 73.7305 -39.3066 77.002 -39.3066 Z M 77.002 -20.459 C 80.957 -20.459 83.7402 -23.0469 83.7402 -26.709 C 83.7402 -30.3711 81.0059 -33.0078 77.002 -33.0078 C 73.0957 -33.0078 70.3125 -30.3223 70.3125 -26.709 C 70.3125 -23.0469 73.0957 -20.459 77.002 -20.459 Z"/>
  </g>
  <g id="Medium-M" transform="matrix(1 0 0 1 1687.3 1126)">
   <path d="M 59.2285 15.2832 C 86.9141 15.2832 109.766 -7.56836 109.766 -35.2051 C 109.766 -62.8906 86.8652 -85.7422 59.1797 -85.7422 C 31.543 -85.7422 8.74023 -62.8906 8.74023 -35.2051 C 8.74023 -7.56836 31.5918 15.2832 59.2285 15.2832 Z M 42.3828 -13.7207 C 35.6934 -13.7207 30.2734 -17.8223 28.9551 -22.3633 C 28.7598 -23.0469 28.6621 -23.6328 28.6621 -24.3652 C 28.6621 -26.3672 30.0781 -27.6855 31.8848 -27.6855 C 33.3984 -27.6855 34.3262 -26.9043 35.0098 -25.293 C 36.3281 -22.0703 38.8672 -20.3125 42.4316 -20.3125 C 46.7285 -20.3125 49.707 -22.998 49.707 -26.4648 C 49.707 -30.127 46.9727 -32.5195 42.6758 -32.5195 L 40.1855 -32.5195 C 38.2324 -32.5195 37.0605 -33.9355 37.0605 -35.791 C 37.0605 -37.8418 38.3301 -39.1602 40.1855 -39.1602 L 42.4805 -39.1602 C 46.1426 -39.1602 48.584 -41.6016 48.584 -44.9219 C 48.584 -48.0957 46.0449 -50.293 42.4805 -50.293 C 39.0137 -50.293 36.8164 -48.584 35.6934 -45.3125 C 35.1074 -43.7012 34.1797 -42.9199 32.5684 -42.9199 C 30.7129 -42.9199 29.4434 -44.2383 29.4434 -46.2402 C 29.4434 -46.9727 29.4922 -47.5586 29.6875 -48.3398 C 31.0059 -52.8809 35.8887 -56.7871 42.6758 -56.7871 C 50.3418 -56.7871 55.6641 -52.2949 55.6641 -45.8496 C 55.6641 -41.2598 52.4414 -37.1094 48.3887 -36.4746 L 48.3887 -36.1328 C 53.3203 -35.6445 56.8848 -31.3965 56.8848 -26.0742 C 56.8848 -18.7988 50.9766 -13.7207 42.3828 -13.7207 Z M 76.7578 -13.7207 C 68.0176 -13.7207 62.207 -18.6523 62.207 -25.9277 C 62.207 -31.1035 65.332 -35.1562 70.5566 -36.2793 L 70.5566 -36.6211 C 66.2109 -37.8906 63.7207 -41.3574 63.7207 -45.752 C 63.7207 -52.2949 69.0918 -56.7871 76.8555 -56.7871 C 84.6191 -56.7871 90.0391 -52.2949 90.0391 -45.752 C 90.0391 -41.3574 87.5 -37.793 83.1543 -36.6211 L 83.1543 -36.2793 C 88.3301 -35.1562 91.5039 -31.1523 91.5039 -25.9766 C 91.5039 -18.7012 85.5469 -13.7207 76.7578 -13.7207 Z M 76.8555 -39.0137 C 80.4688 -39.0137 82.959 -41.5527 82.959 -45.0684 C 82.959 -48.5352 80.4688 -50.9277 76.8555 -50.9277 C 73.291 -50.9277 70.752 -48.5352 70.752 -45.0684 C 70.752 -41.5527 73.291 -39.0137 76.8555 -39.0137 Z M 76.9043 -19.5801 C 81.25 -19.5801 84.3262 -22.4121 84.3262 -26.4648 C 84.3262 -30.4688 81.2988 -33.3496 76.9043 -33.3496 C 72.5586 -33.3496 69.4336 -30.4199 69.4336 -26.4648 C 69.4336 -22.4121 72.5586 -19.5801 76.9043 -19.5801 Z"/>
  </g>
  <g id="Regular-M" transform="matrix(1 0 0 1 1391.3 1126)">
   <path d="M 58.5449 14.5508 C 85.791 14.5508 108.35 -8.00781 108.35 -35.2539 C 108.35 -62.4512 85.7422 -85.0586 58.4961 -85.0586 C 31.2988 -85.0586 8.74023 -62.4512 8.74023 -35.2539 C 8.74023 -8.00781 31.3477 14.5508 58.5449 14.5508 Z M 41.2109 -13.1836 C 34.2285 -13.1836 28.7598 -17.4316 27.3926 -22.168 C 27.2461 -22.8027 27.1484 -23.291 27.1484 -24.0234 C 27.1484 -25.8301 28.418 -27.0996 30.127 -27.0996 C 31.5918 -27.0996 32.4707 -26.3184 33.0566 -24.6582 C 34.4238 -21.0938 37.207 -19.043 41.2598 -19.043 C 46.2402 -19.043 49.6094 -22.0703 49.6094 -26.0742 C 49.6094 -30.2734 46.4844 -33.0078 41.6016 -33.0078 L 38.5742 -33.0078 C 36.9141 -33.0078 35.791 -34.2773 35.791 -35.8887 C 35.791 -37.7441 36.9629 -38.916 38.5742 -38.916 L 41.3574 -38.916 C 45.459 -38.916 48.3398 -41.6504 48.3398 -45.4102 C 48.3398 -48.9746 45.459 -51.4648 41.4062 -51.4648 C 37.4512 -51.4648 34.9609 -49.5117 33.8379 -45.8496 C 33.3496 -44.1895 32.5195 -43.4082 30.957 -43.4082 C 29.1992 -43.4082 28.0273 -44.6777 28.0273 -46.4844 C 28.0273 -47.2168 28.0273 -47.7051 28.1738 -48.3887 C 29.4922 -53.418 34.6191 -57.3242 41.6016 -57.3242 C 49.2188 -57.3242 54.6387 -52.7344 54.6387 -46.1914 C 54.6387 -41.4551 51.2695 -37.1094 47.0703 -36.4258 L 47.0703 -36.1328 C 52.2461 -35.5957 56.0547 -31.25 56.0547 -25.7812 C 56.0547 -18.4082 49.9512 -13.1836 41.2109 -13.1836 Z M 76.5625 -13.1836 C 67.6758 -13.1836 61.7676 -18.2129 61.7676 -25.6836 C 61.7676 -30.9082 64.9414 -35.2051 70.459 -36.3281 L 70.459 -36.6211 C 65.7715 -38.0371 63.2812 -41.6016 63.2812 -46.0938 C 63.2812 -52.7344 68.7988 -57.3242 76.6602 -57.3242 C 84.5215 -57.3242 90.0879 -52.7344 90.0879 -46.0938 C 90.0879 -41.6016 87.5977 -37.8906 82.8613 -36.6211 L 82.8613 -36.3281 C 88.3301 -35.2051 91.6016 -30.957 91.6016 -25.7324 C 91.6016 -18.2617 85.498 -13.1836 76.5625 -13.1836 Z M 76.6602 -38.7207 C 80.7129 -38.7207 83.5449 -41.5527 83.5449 -45.459 C 83.5449 -49.3164 80.7129 -52.002 76.6602 -52.002 C 72.6562 -52.002 69.8242 -49.3164 69.8242 -45.459 C 69.8242 -41.5527 72.7051 -38.7207 76.6602 -38.7207 Z M 76.709 -18.5059 C 81.5918 -18.5059 85.1074 -21.6309 85.1074 -26.123 C 85.1074 -30.5664 81.6895 -33.7891 76.709 -33.7891 C 71.8262 -33.7891 68.3105 -30.5176 68.3105 -26.123 C 68.3105 -21.6309 71.8262 -18.5059 76.709 -18.5059 Z"/>
  </g>
  <g id="Light-M" transform="matrix(1 0 0 1 1095.42 1126)">
   <path d="M 57.7148 13.7695 C 84.5215 13.7695 106.689 -8.39844 106.689 -35.2051 C 106.689 -62.0117 84.5215 -84.1797 57.666 -84.1797 C 30.8594 -84.1797 8.74023 -62.0117 8.74023 -35.2051 C 8.74023 -8.39844 30.9082 13.7695 57.7148 13.7695 Z M 40.3809 -13.4766 C 33.5938 -13.4766 28.2715 -17.5293 26.8555 -22.2168 C 26.709 -22.7539 26.6113 -23.2422 26.6113 -23.877 C 26.6113 -25.3418 27.5879 -26.416 29.0527 -26.416 C 30.2734 -26.416 30.957 -25.7324 31.4453 -24.3652 C 32.8125 -20.5078 36.1328 -18.2129 40.4297 -18.2129 C 45.9473 -18.2129 49.6582 -21.5332 49.6582 -26.0254 C 49.6582 -30.4688 46.0938 -33.5938 40.8691 -33.5938 L 37.3535 -33.5938 C 35.9375 -33.5938 35.0586 -34.5703 35.0586 -35.9375 C 35.0586 -37.4512 35.9863 -38.3789 37.3535 -38.3789 L 40.5273 -38.3789 C 45.0684 -38.3789 48.3398 -41.4551 48.3398 -45.5566 C 48.3398 -49.5605 45.1172 -52.2949 40.4785 -52.2949 C 36.1328 -52.2949 33.2031 -50 32.2266 -46.1914 C 31.8848 -44.7266 31.1523 -44.0918 29.8828 -44.0918 C 28.3691 -44.0918 27.4902 -45.1172 27.4902 -46.6797 C 27.4902 -47.2656 27.4902 -47.7539 27.6367 -48.3398 C 28.9062 -53.418 34.082 -57.0801 40.625 -57.0801 C 48.0957 -57.0801 53.4668 -52.5879 53.4668 -46.1914 C 53.4668 -41.4551 50.0488 -37.0605 45.6543 -36.377 L 45.6543 -36.1328 C 50.9277 -35.5957 54.8828 -31.2012 54.8828 -25.8301 C 54.8828 -18.6035 48.877 -13.4766 40.3809 -13.4766 Z M 75.7812 -13.4766 C 67.0898 -13.4766 61.084 -18.457 61.084 -25.8301 C 61.084 -30.957 64.4531 -35.2539 69.8242 -36.3281 L 69.8242 -36.6211 C 65.2832 -37.9883 62.6465 -41.6016 62.6465 -45.9473 C 62.6465 -52.4902 68.1152 -57.0801 75.8301 -57.0801 C 83.5449 -57.0801 89.0625 -52.4902 89.0625 -45.9473 C 89.0625 -41.6016 86.377 -37.8418 81.8359 -36.6211 L 81.8359 -36.3281 C 87.1582 -35.2539 90.5762 -31.0059 90.5762 -25.8301 C 90.5762 -18.5547 84.4238 -13.4766 75.7812 -13.4766 Z M 75.8301 -38.3301 C 80.5176 -38.3301 83.7891 -41.3574 83.7891 -45.5566 C 83.7891 -49.8047 80.5664 -52.6855 75.8301 -52.6855 C 71.1426 -52.6855 67.8711 -49.8047 67.8711 -45.5566 C 67.8711 -41.3574 71.1914 -38.3301 75.8301 -38.3301 Z M 75.8789 -17.8223 C 81.4453 -17.8223 85.4492 -21.2402 85.4492 -26.0742 C 85.4492 -30.8105 81.4941 -34.2285 75.8789 -34.2285 C 70.3125 -34.2285 66.2598 -30.8105 66.2598 -26.0742 C 66.2598 -21.2402 70.3125 -17.8223 75.8789 -17.8223 Z"/>
  </g>
  <g id="Thin-M" transform="matrix(1 0 0 1 799.806 1126)">
   <path d="M 56.6406 12.7441 C 82.9102 12.7441 104.492 -8.83789 104.492 -35.1562 C 104.492 -61.4746 82.9102 -83.0566 56.5918 -83.0566 C 30.3223 -83.0566 8.74023 -61.4746 8.74023 -35.1562 C 8.74023 -8.83789 30.3223 12.7441 56.6406 12.7441 Z M 39.3066 -13.8184 C 32.7148 -13.8184 27.5879 -17.7246 26.123 -22.2656 C 25.9766 -22.7051 25.8789 -23.1445 25.8789 -23.6816 C 25.8789 -24.707 26.5137 -25.4883 27.5879 -25.4883 C 28.5156 -25.4883 29.0039 -24.9512 29.2969 -23.9258 C 30.6641 -19.7266 34.668 -17.1387 39.3066 -17.1387 C 45.5566 -17.1387 49.707 -20.8008 49.707 -25.8789 C 49.707 -30.7129 45.5566 -34.3262 39.8438 -34.3262 L 35.6934 -34.3262 C 34.668 -34.3262 34.082 -35.0098 34.082 -35.9863 C 34.082 -37.0117 34.7656 -37.6465 35.6934 -37.6465 L 39.4531 -37.6465 C 44.5801 -37.6465 48.3398 -41.1621 48.3398 -45.752 C 48.3398 -50.293 44.6777 -53.3691 39.3066 -53.3691 C 34.375 -53.3691 30.957 -50.6348 30.1758 -46.582 C 29.9316 -45.459 29.3457 -45.0195 28.4668 -45.0195 C 27.2461 -45.0195 26.709 -45.752 26.709 -46.875 C 26.709 -47.3145 26.7578 -47.8027 26.9043 -48.291 C 28.125 -53.418 33.3496 -56.6895 39.3066 -56.6895 C 46.6309 -56.6895 51.9043 -52.3438 51.9043 -46.1426 C 51.9043 -41.4551 48.3887 -37.0117 43.7988 -36.2305 L 43.7988 -36.1328 C 49.1699 -35.5469 53.3203 -31.1035 53.3203 -25.8301 C 53.3203 -18.8477 47.4121 -13.8184 39.3066 -13.8184 Z M 74.707 -13.8184 C 66.2598 -13.8184 60.2051 -18.8477 60.2051 -25.9766 C 60.2051 -31.0059 63.8184 -35.3027 68.9941 -36.3281 L 68.9941 -36.5723 C 64.6484 -37.8906 61.7676 -41.5527 61.7676 -45.8008 C 61.7676 -52.2461 67.1875 -56.6895 74.707 -56.6895 C 82.2266 -56.6895 87.6465 -52.2461 87.6465 -45.8008 C 87.6465 -41.5527 84.7656 -37.793 80.4199 -36.5723 L 80.4199 -36.3281 C 85.5957 -35.3027 89.209 -31.0059 89.209 -25.9766 C 89.209 -18.8965 83.0566 -13.8184 74.707 -13.8184 Z M 74.707 -37.8418 C 80.2734 -37.8418 84.1309 -41.1621 84.1309 -45.7031 C 84.1309 -50.3906 80.3223 -53.6133 74.707 -53.6133 C 69.0918 -53.6133 65.2832 -50.3906 65.2832 -45.7031 C 65.2832 -41.1621 69.1895 -37.8418 74.707 -37.8418 Z M 74.707 -16.9434 C 81.2012 -16.9434 85.8887 -20.7031 85.8887 -26.0254 C 85.8887 -31.1035 81.2012 -34.8633 74.707 -34.8633 C 68.2129 -34.8633 63.5742 -31.1035 63.5742 -26.0254 C 63.5742 -20.7031 68.2129 -16.9434 74.707 -16.9434 Z"/>
  </g>
  <g id="Ultralight-M" transform="matrix(1 0 0 1 503.656 1126)">
   <path d="M 56.0547 12.207 C 82.0801 12.207 103.369 -9.08203 103.369 -35.1562 C 103.369 -61.1816 82.0801 -82.4707 56.0547 -82.4707 C 30.0293 -82.4707 8.74023 -61.1816 8.74023 -35.1562 C 8.74023 -9.08203 30.0293 12.207 56.0547 12.207 Z M 38.7207 -14.0137 C 32.2754 -14.0137 27.2461 -17.8223 25.7324 -22.3145 C 25.5859 -22.6562 25.4883 -23.0957 25.4883 -23.584 C 25.4883 -24.4141 25.9766 -25 26.8066 -25 C 27.6367 -25 27.9785 -24.5605 28.2227 -23.7305 C 29.5898 -19.3359 33.9355 -16.6016 38.7207 -16.6016 C 45.3613 -16.6016 49.7559 -20.4102 49.7559 -25.8301 C 49.7559 -30.8594 45.3125 -34.7168 39.3555 -34.7168 L 34.8633 -34.7168 C 33.9844 -34.7168 33.5449 -35.2051 33.5449 -35.9863 C 33.5449 -36.8164 34.1309 -37.3047 34.8633 -37.3047 L 38.916 -37.3047 C 44.2871 -37.3047 48.3398 -41.0645 48.3398 -45.8496 C 48.3398 -50.6836 44.4336 -53.9551 38.6719 -53.9551 C 33.4961 -53.9551 29.7852 -50.9766 29.1016 -46.8262 C 28.9062 -45.8008 28.418 -45.459 27.7344 -45.459 C 26.709 -45.459 26.3672 -46.0449 26.3672 -46.9727 C 26.3672 -47.3633 26.416 -47.8516 26.5137 -48.291 C 27.7344 -53.418 32.959 -56.4941 38.6719 -56.4941 C 45.8984 -56.4941 51.123 -52.1973 51.123 -46.0938 C 51.123 -41.4551 47.5586 -37.0117 42.8711 -36.1816 L 42.8711 -36.1328 C 48.291 -35.498 52.5391 -31.1035 52.5391 -25.8301 C 52.5391 -18.9941 46.6797 -14.0137 38.7207 -14.0137 Z M 74.1211 -14.0137 C 65.8691 -14.0137 59.7656 -18.9941 59.7656 -26.0254 C 59.7656 -31.0059 63.4766 -35.3027 68.5547 -36.3281 L 68.5547 -36.5723 C 64.3066 -37.8906 61.3281 -41.5527 61.3281 -45.7031 C 61.3281 -52.0996 66.748 -56.4941 74.1211 -56.4941 C 81.543 -56.4941 86.9629 -52.0996 86.9629 -45.7031 C 86.9629 -41.5527 83.9844 -37.7441 79.7363 -36.5723 L 79.7363 -36.3281 C 84.7656 -35.3027 88.5254 -31.0059 88.5254 -26.0254 C 88.5254 -19.0918 82.373 -14.0137 74.1211 -14.0137 Z M 74.1211 -37.5977 C 80.1758 -37.5977 84.2773 -41.0645 84.2773 -45.8008 C 84.2773 -50.6836 80.2246 -54.0527 74.1211 -54.0527 C 68.0664 -54.0527 63.9648 -50.6836 63.9648 -45.8008 C 63.9648 -41.0645 68.1641 -37.5977 74.1211 -37.5977 Z M 74.1211 -16.4551 C 81.1035 -16.4551 86.084 -20.459 86.084 -25.9766 C 86.084 -31.2988 81.1035 -35.1562 74.1211 -35.1562 C 67.1875 -35.1562 62.1582 -31.2988 62.1582 -25.9766 C 62.1582 -20.459 67.1875 -16.4551 74.1211 -16.4551 Z"/>
  </g>
  <g id="Black-S" transform="matrix(1 0 0 1 2884.57 696)">
   <path d="M 48.8281 6.78711 C 71.9727 6.78711 90.8203 -12.0605 90.8203 -35.2051 C 90.8203 -58.3496 71.9727 -77.1973 48.8281 -77.1973 C 25.6836 -77.1973 6.83594 -58.3496 6.83594 -35.2051 C 6.83594 -12.0605 25.6836 6.78711 48.8281 6.78711 Z M 37.207 -20.2637 C 32.8613 -20.2637 28.8574 -22.998 27.9785 -25.8789 C 27.7832 -26.5625 27.6367 -27.1973 27.6367 -27.8809 C 27.6367 -30.127 29.3945 -31.2988 30.957 -31.2988 C 32.4219 -31.2988 33.4961 -30.7129 34.2773 -29.6387 C 35.1562 -28.3691 36.3281 -27.832 37.3535 -27.832 C 38.4766 -27.832 39.209 -28.7109 39.209 -29.6387 C 39.209 -30.8105 38.4766 -31.543 37.1582 -31.543 L 37.1094 -31.543 C 34.4238 -31.543 33.3008 -33.1055 33.3008 -35.3516 C 33.3008 -37.5488 34.7168 -39.1113 37.1094 -39.1113 L 37.1582 -39.1113 C 38.4766 -39.1113 38.9648 -40.1367 38.9648 -41.0156 C 38.9648 -42.2852 38.1348 -43.0664 37.1094 -43.0664 C 36.0352 -43.0664 35.2539 -42.4805 34.375 -41.2598 C 33.6914 -40.2344 32.666 -39.502 31.1035 -39.502 C 29.248 -39.502 27.9297 -40.7227 27.9297 -42.9199 C 27.9297 -43.6523 28.0762 -44.3359 28.4668 -45.2637 C 29.3945 -47.3633 32.5195 -50.2441 37.207 -50.2441 C 43.2617 -50.2441 47.0703 -47.1191 47.0703 -42.2363 C 47.0703 -39.4043 45.1172 -36.7188 42.4805 -36.2793 L 42.4805 -35.9375 C 45.5566 -35.6934 47.6074 -32.7148 47.6074 -29.1016 C 47.6074 -23.6816 43.6035 -20.2637 37.207 -20.2637 Z M 60.8398 -20.2637 C 54.4922 -20.2637 50.2441 -23.6816 50.2441 -28.8086 C 50.2441 -32.6172 52.5879 -35.0098 55.6152 -35.8887 L 55.6152 -36.2305 C 53.418 -36.7676 51.3184 -39.1602 51.3184 -42.3828 C 51.3184 -47.1191 55.0781 -50.2441 60.8398 -50.2441 C 66.6016 -50.2441 70.3613 -47.1191 70.3613 -42.3828 C 70.3613 -39.1602 68.2617 -36.7676 66.0645 -36.2305 L 66.0645 -35.8887 C 69.0918 -35.0098 71.4355 -32.6172 71.4355 -28.8086 C 71.4355 -23.6816 67.1875 -20.2637 60.8398 -20.2637 Z M 60.8398 -39.3555 C 62.207 -39.3555 63.0371 -40.2832 63.0371 -41.5527 C 63.0371 -42.8223 62.1582 -43.7988 60.8398 -43.7988 C 59.5215 -43.7988 58.6426 -42.8223 58.6426 -41.5527 C 58.6426 -40.2832 59.4727 -39.3555 60.8398 -39.3555 Z M 60.8398 -26.8066 C 62.4023 -26.8066 63.4277 -27.9785 63.4277 -29.4922 C 63.4277 -31.0547 62.4023 -32.2266 60.8398 -32.2266 C 59.3262 -32.2266 58.3008 -31.0547 58.3008 -29.4922 C 58.3008 -27.9785 59.3262 -26.8066 60.8398 -26.8066 Z"/>
  </g>
  <g id="Heavy-S" transform="matrix(1 0 0 1 2588.47 696)">
   <path d="M 48.2422 6.15234 C 70.9961 6.15234 89.5996 -12.4512 89.5996 -35.2051 C 89.5996 -57.959 70.9961 -76.6113 48.1934 -76.6113 C 25.4395 -76.6113 6.83594 -57.959 6.83594 -35.2051 C 6.83594 -12.4512 25.4395 6.15234 48.2422 6.15234 Z M 36.1328 -19.6777 C 31.4941 -19.6777 27.4414 -22.5586 26.5137 -25.6836 C 26.3184 -26.3184 26.2207 -26.9043 26.2207 -27.5879 C 26.2207 -29.6387 27.7832 -30.8105 29.3457 -30.8105 C 30.7617 -30.8105 31.7383 -30.1758 32.4707 -29.0527 C 33.3984 -27.4414 34.7656 -26.6602 36.2793 -26.6602 C 37.9883 -26.6602 39.1113 -27.8809 39.1113 -29.2969 C 39.1113 -30.9082 38.0371 -31.9336 36.1816 -31.9336 L 35.6445 -31.9336 C 33.252 -31.9336 32.1289 -33.3984 32.1289 -35.4492 C 32.1289 -37.5 33.4473 -38.9648 35.6445 -38.9648 L 36.1328 -38.9648 C 37.8418 -38.9648 38.7207 -40.1855 38.7207 -41.5039 C 38.7207 -43.1152 37.5977 -44.1406 36.084 -44.1406 C 34.6191 -44.1406 33.5938 -43.3594 32.7148 -41.748 C 32.0801 -40.625 31.1035 -39.9414 29.5898 -39.9414 C 27.832 -39.9414 26.5625 -41.1133 26.5625 -43.1641 C 26.5625 -43.8965 26.709 -44.4824 27.002 -45.3125 C 27.9785 -47.8516 31.2988 -50.8301 36.2305 -50.8301 C 42.2852 -50.8301 46.1914 -47.5586 46.1914 -42.627 C 46.1914 -39.5508 44.0918 -36.7188 41.3086 -36.2793 L 41.3086 -35.9375 C 44.6289 -35.6445 46.875 -32.5684 46.875 -28.8086 C 46.875 -23.291 42.6758 -19.6777 36.1328 -19.6777 Z M 60.7422 -19.6777 C 54.1992 -19.6777 49.9023 -23.2422 49.9023 -28.5645 C 49.9023 -32.4219 52.2461 -35.0586 55.6152 -35.9375 L 55.6152 -36.2305 C 53.0273 -36.9141 50.9766 -39.4043 50.9766 -42.7246 C 50.9766 -47.5586 54.8828 -50.8301 60.7422 -50.8301 C 66.6016 -50.8301 70.5078 -47.5586 70.5078 -42.7246 C 70.5078 -39.4043 68.5059 -36.9141 65.918 -36.2305 L 65.918 -35.9375 C 69.2383 -35.0586 71.6309 -32.4219 71.6309 -28.5645 C 71.6309 -23.2422 67.2363 -19.6777 60.7422 -19.6777 Z M 60.7422 -39.0625 C 62.4512 -39.0625 63.5742 -40.2832 63.5742 -41.9434 C 63.5742 -43.6035 62.4512 -44.8242 60.7422 -44.8242 C 59.082 -44.8242 57.959 -43.6035 57.959 -41.9434 C 57.959 -40.2832 59.0332 -39.0625 60.7422 -39.0625 Z M 60.7422 -25.7812 C 62.793 -25.7812 64.1602 -27.1973 64.1602 -29.1504 C 64.1602 -31.1523 62.793 -32.6172 60.7422 -32.6172 C 58.7891 -32.6172 57.4219 -31.1523 57.4219 -29.1504 C 57.4219 -27.1973 58.7891 -25.7812 60.7422 -25.7812 Z"/>
  </g>
  <g id="Bold-S" transform="matrix(1 0 0 1 2292.44 696)">
   <path d="M 47.5586 5.46875 C 69.873 5.46875 88.2324 -12.8906 88.2324 -35.2051 C 88.2324 -57.5684 69.873 -75.9277 47.5098 -75.9277 C 25.1953 -75.9277 6.83594 -57.5684 6.83594 -35.2051 C 6.83594 -12.8906 25.1953 5.46875 47.5586 5.46875 Z M 34.9609 -19.043 C 29.9805 -19.043 25.8301 -22.1191 24.8535 -25.4395 C 24.707 -26.0254 24.6094 -26.5625 24.6094 -27.1973 C 24.6094 -29.1016 26.0254 -30.2246 27.5391 -30.2246 C 28.9062 -30.2246 29.834 -29.6387 30.4688 -28.3691 C 31.4453 -26.416 33.0078 -25.3906 35.0586 -25.3906 C 37.4023 -25.3906 39.0137 -26.9531 39.0137 -28.8574 C 39.0137 -31.0059 37.5488 -32.373 35.0586 -32.373 L 33.9844 -32.373 C 31.8848 -32.373 30.8594 -33.7402 30.8594 -35.5469 C 30.8594 -37.4512 32.0801 -38.7695 33.9844 -38.7695 L 34.9609 -38.7695 C 37.1094 -38.7695 38.4277 -40.2344 38.4277 -42.0898 C 38.4277 -43.9941 36.9629 -45.3125 35.0098 -45.3125 C 33.0078 -45.3125 31.7383 -44.3359 30.8105 -42.334 C 30.2734 -41.1133 29.3945 -40.4297 27.9297 -40.4297 C 26.2695 -40.4297 25.0977 -41.5527 25.0977 -43.457 C 25.0977 -44.1406 25.1465 -44.6777 25.3906 -45.4102 C 26.416 -48.4375 29.9805 -51.4648 35.1074 -51.4648 C 41.1621 -51.4648 45.2148 -48.0957 45.2148 -43.0176 C 45.2148 -39.7461 42.9688 -36.7188 39.9902 -36.2305 L 39.9902 -35.9375 C 43.5547 -35.5957 46.0449 -32.4219 46.0449 -28.4668 C 46.0449 -22.8027 41.6016 -19.043 34.9609 -19.043 Z M 60.5957 -19.043 C 53.9062 -19.043 49.4629 -22.7051 49.4629 -28.2715 C 49.4629 -32.2266 51.8555 -35.1074 55.5664 -35.9863 L 55.5664 -36.2793 C 52.5879 -37.1094 50.5859 -39.6973 50.5859 -43.0664 C 50.5859 -48.0957 54.6387 -51.4648 60.6445 -51.4648 C 66.6504 -51.4648 70.7031 -48.0957 70.7031 -43.0664 C 70.7031 -39.6973 68.75 -37.0605 65.7227 -36.2793 L 65.7227 -35.9863 C 69.4336 -35.1074 71.8262 -32.2754 71.8262 -28.2715 C 71.8262 -22.7539 67.334 -19.043 60.5957 -19.043 Z M 60.6445 -38.7207 C 62.7441 -38.7207 64.1602 -40.2832 64.1602 -42.3828 C 64.1602 -44.4336 62.7441 -45.9473 60.6445 -45.9473 C 58.5938 -45.9473 57.1289 -44.4336 57.1289 -42.3828 C 57.1289 -40.2832 58.5938 -38.7207 60.6445 -38.7207 Z M 60.6934 -24.6094 C 63.1836 -24.6094 64.9902 -26.3672 64.9902 -28.8086 C 64.9902 -31.25 63.2324 -33.0566 60.6934 -33.0566 C 58.2031 -33.0566 56.3965 -31.25 56.3965 -28.8086 C 56.3965 -26.3672 58.2031 -24.6094 60.6934 -24.6094 Z"/>
  </g>
  <g id="Semibold-S" transform="matrix(1 0 0 1 1996.2 696)">
   <path d="M 47.0703 4.98047 C 69.0918 4.98047 87.3047 -13.1836 87.3047 -35.2539 C 87.3047 -57.2754 69.0918 -75.4883 47.0215 -75.4883 C 25 -75.4883 6.83594 -57.2754 6.83594 -35.2539 C 6.83594 -13.1836 25.0488 4.98047 47.0703 4.98047 Z M 34.1309 -18.6035 C 28.9551 -18.6035 24.707 -21.7773 23.7305 -25.2441 C 23.584 -25.8789 23.4863 -26.3184 23.4863 -26.9531 C 23.4863 -28.7598 24.7559 -29.8828 26.3184 -29.8828 C 27.6367 -29.8828 28.4668 -29.1992 29.1016 -27.9297 C 30.0781 -25.6836 31.7871 -24.5117 34.1797 -24.5117 C 37.0117 -24.5117 38.9648 -26.3184 38.9648 -28.6133 C 38.9648 -31.1035 37.207 -32.666 34.2773 -32.666 L 32.8125 -32.666 C 31.0059 -32.666 29.9805 -33.9355 29.9805 -35.6445 C 29.9805 -37.4023 31.1035 -38.623 32.8125 -38.623 L 34.1797 -38.623 C 36.6211 -38.623 38.1836 -40.2832 38.1836 -42.4805 C 38.1836 -44.6289 36.5234 -46.0938 34.2285 -46.0938 C 31.8848 -46.0938 30.4199 -45.0195 29.4922 -42.7246 C 29.0039 -41.4062 28.1738 -40.7227 26.7578 -40.7227 C 25.1465 -40.7227 24.0234 -41.8945 24.0234 -43.6523 C 24.0234 -44.2871 24.0723 -44.7754 24.2676 -45.459 C 25.293 -48.7793 29.0527 -51.9043 34.375 -51.9043 C 40.4297 -51.9043 44.5312 -48.4375 44.5312 -43.3105 C 44.5312 -39.8926 42.1387 -36.7188 39.1113 -36.2305 L 39.1113 -35.9375 C 42.8223 -35.5957 45.459 -32.3242 45.459 -28.2227 C 45.459 -22.5098 40.8691 -18.6035 34.1309 -18.6035 Z M 60.498 -18.6035 C 53.7109 -18.6035 49.2188 -22.3633 49.2188 -28.0762 C 49.2188 -32.0801 51.5625 -35.1562 55.5664 -36.0352 L 55.5664 -36.2793 C 52.2461 -37.207 50.3418 -39.8926 50.3418 -43.3594 C 50.3418 -48.4375 54.4922 -51.9043 60.5957 -51.9043 C 66.6504 -51.9043 70.8496 -48.4375 70.8496 -43.3594 C 70.8496 -39.8926 68.8965 -37.1582 65.625 -36.2793 L 65.625 -36.0352 C 69.5801 -35.1562 71.9727 -32.1289 71.9727 -28.0762 C 71.9727 -22.4121 67.3828 -18.6035 60.498 -18.6035 Z M 60.5957 -38.5254 C 62.9395 -38.5254 64.5996 -40.2832 64.5996 -42.6758 C 64.5996 -45.0195 62.9395 -46.6797 60.5957 -46.6797 C 58.252 -46.6797 56.5918 -45.0195 56.5918 -42.6758 C 56.5918 -40.2832 58.252 -38.5254 60.5957 -38.5254 Z M 60.5957 -23.8281 C 63.4766 -23.8281 65.5273 -25.7812 65.5273 -28.5645 C 65.5273 -31.3477 63.5254 -33.3496 60.5957 -33.3496 C 57.7637 -33.3496 55.7129 -31.2988 55.7129 -28.5645 C 55.7129 -25.7812 57.7637 -23.8281 60.5957 -23.8281 Z"/>
  </g>
  <g id="Medium-S" transform="matrix(1 0 0 1 1699.83 696)">
   <path d="M 46.7285 4.63867 C 68.5547 4.63867 86.6211 -13.4277 86.6211 -35.2539 C 86.6211 -57.0312 68.5059 -75.1465 46.6797 -75.1465 C 24.8535 -75.1465 6.83594 -57.0312 6.83594 -35.2539 C 6.83594 -13.4277 24.9023 4.63867 46.7285 4.63867 Z M 33.4961 -18.2617 C 28.1738 -18.2617 23.877 -21.5332 22.8516 -25.1465 C 22.7051 -25.7324 22.6562 -26.1719 22.6562 -26.7578 C 22.6562 -28.4668 23.8281 -29.5898 25.3906 -29.5898 C 26.6602 -29.5898 27.4414 -28.9062 28.0273 -27.5391 C 29.0527 -25.1465 30.8594 -23.8281 33.5449 -23.8281 C 36.7188 -23.8281 38.916 -25.8301 38.916 -28.3691 C 38.916 -31.1523 36.9629 -32.9102 33.6914 -32.9102 L 31.9336 -32.9102 C 30.2734 -32.9102 29.2969 -34.1309 29.2969 -35.6934 C 29.2969 -37.4023 30.3711 -38.5254 31.9336 -38.5254 L 33.5938 -38.5254 C 36.2793 -38.5254 38.0371 -40.332 38.0371 -42.7734 C 38.0371 -45.1172 36.2305 -46.7285 33.6426 -46.7285 C 31.0547 -46.7285 29.4922 -45.5078 28.5156 -43.0176 C 28.0762 -41.6504 27.2949 -40.9668 25.8789 -40.9668 C 24.3164 -40.9668 23.2422 -42.0898 23.2422 -43.7988 C 23.2422 -44.4336 23.291 -44.873 23.4375 -45.5078 C 24.4629 -49.0723 28.3203 -52.2461 33.7891 -52.2461 C 39.8438 -52.2461 44.043 -48.6816 44.043 -43.5547 C 44.043 -39.9414 41.5527 -36.7188 38.4277 -36.2305 L 38.4277 -35.9375 C 42.2852 -35.5469 45.0195 -32.2266 45.0195 -28.0762 C 45.0195 -22.2656 40.332 -18.2617 33.4961 -18.2617 Z M 60.4492 -18.2617 C 53.5156 -18.2617 48.9746 -22.1191 48.9746 -27.8809 C 48.9746 -31.9824 51.3672 -35.1562 55.5176 -36.0352 L 55.5176 -36.3281 C 52.0508 -37.3047 50.1465 -40.0391 50.1465 -43.5059 C 50.1465 -48.6816 54.3945 -52.2461 60.5469 -52.2461 C 66.6992 -52.2461 70.9473 -48.6816 70.9473 -43.5059 C 70.9473 -40.0391 69.043 -37.2559 65.5273 -36.3281 L 65.5273 -36.0352 C 69.6777 -35.1562 72.1191 -32.0312 72.1191 -27.9297 C 72.1191 -22.168 67.4316 -18.2617 60.4492 -18.2617 Z M 60.5469 -38.3301 C 63.0859 -38.3301 64.8926 -40.2832 64.8926 -42.8711 C 64.8926 -45.459 63.0859 -47.2656 60.5469 -47.2656 C 58.0078 -47.2656 56.2012 -45.459 56.2012 -42.8711 C 56.2012 -40.2832 58.0078 -38.3301 60.5469 -38.3301 Z M 60.5469 -23.2422 C 63.7207 -23.2422 65.9668 -25.3418 65.9668 -28.3691 C 65.9668 -31.3965 63.7695 -33.5449 60.5469 -33.5449 C 57.4707 -33.5449 55.1758 -31.3477 55.1758 -28.3691 C 55.1758 -25.3418 57.4707 -23.2422 60.5469 -23.2422 Z"/>
  </g>
  <g id="Regular-S" transform="matrix(1 0 0 1 1403.58 696)">
   <path d="M 46.2402 4.15039 C 67.7734 4.15039 85.6934 -13.7207 85.6934 -35.2539 C 85.6934 -56.7871 67.7246 -74.6582 46.1914 -74.6582 C 24.707 -74.6582 6.83594 -56.7871 6.83594 -35.2539 C 6.83594 -13.7207 24.7559 4.15039 46.2402 4.15039 Z M 32.666 -17.8223 C 27.1484 -17.8223 22.7539 -21.1914 21.7285 -24.9512 C 21.582 -25.5371 21.5332 -25.9277 21.5332 -26.5625 C 21.5332 -28.0762 22.6074 -29.1992 24.1211 -29.1992 C 25.3906 -29.1992 26.123 -28.5156 26.6602 -27.0996 C 27.7344 -24.4141 29.6875 -22.9492 32.7148 -22.9492 C 36.3281 -22.9492 38.8184 -25.1953 38.8184 -28.125 C 38.8184 -31.25 36.6211 -33.2031 32.959 -33.2031 L 30.8105 -33.2031 C 29.3945 -33.2031 28.418 -34.3262 28.418 -35.7422 C 28.418 -37.3535 29.3945 -38.3789 30.8105 -38.3789 L 32.7637 -38.3789 C 35.791 -38.3789 37.8418 -40.332 37.8418 -43.1152 C 37.8418 -45.752 35.791 -47.5586 32.8613 -47.5586 C 29.9805 -47.5586 28.2227 -46.1914 27.2461 -43.4082 C 26.8066 -41.9922 26.123 -41.3086 24.7559 -41.3086 C 23.2422 -41.3086 22.2168 -42.3828 22.2168 -43.9941 C 22.2168 -44.5801 22.2168 -44.9707 22.3145 -45.5566 C 23.3887 -49.4629 27.3926 -52.6855 33.0566 -52.6855 C 39.0625 -52.6855 43.3594 -49.0234 43.3594 -43.8477 C 43.3594 -40.0879 40.7715 -36.7188 37.5488 -36.2305 L 37.5488 -35.9375 C 41.5527 -35.5469 44.4336 -32.1289 44.4336 -27.832 C 44.4336 -21.9727 39.6484 -17.8223 32.666 -17.8223 Z M 60.3516 -17.8223 C 53.3203 -17.8223 48.7305 -21.7773 48.7305 -27.6855 C 48.7305 -31.8359 51.0742 -35.2051 55.5176 -36.084 L 55.5176 -36.3281 C 51.709 -37.4512 49.9023 -40.2344 49.9023 -43.7988 C 49.9023 -49.0234 54.248 -52.6855 60.4492 -52.6855 C 66.6992 -52.6855 71.0938 -49.0234 71.0938 -43.7988 C 71.0938 -40.2344 69.1895 -37.3535 65.4297 -36.3281 L 65.4297 -36.084 C 69.7754 -35.2051 72.2656 -31.8848 72.2656 -27.7344 C 72.2656 -21.8262 67.4805 -17.8223 60.3516 -17.8223 Z M 60.4492 -38.1348 C 63.2812 -38.1348 65.332 -40.2344 65.332 -43.1641 C 65.332 -46.0449 63.2812 -48.0469 60.4492 -48.0469 C 57.666 -48.0469 55.6641 -46.0449 55.6641 -43.1641 C 55.6641 -40.2344 57.666 -38.1348 60.4492 -38.1348 Z M 60.498 -22.4609 C 63.9648 -22.4609 66.5039 -24.7559 66.5039 -28.125 C 66.5039 -31.4941 64.0625 -33.8379 60.498 -33.8379 C 57.0312 -33.8379 54.4922 -31.4453 54.4922 -28.125 C 54.4922 -24.7559 57.0312 -22.4609 60.498 -22.4609 Z"/>
  </g>
  <g id="Light-S" transform="matrix(1 0 0 1 1107.6 696)">
   <path d="M 45.5078 3.4668 C 66.6992 3.4668 84.2285 -14.0625 84.2285 -35.2051 C 84.2285 -56.3965 66.6504 -73.9258 45.5078 -73.9258 C 24.3164 -73.9258 6.83594 -56.3965 6.83594 -35.2051 C 6.83594 -14.0625 24.3652 3.4668 45.5078 3.4668 Z M 31.9336 -18.0664 C 26.5625 -18.0664 22.3145 -21.3379 21.2402 -25 C 21.0938 -25.4883 21.0449 -25.8789 21.0449 -26.416 C 21.0449 -27.6855 21.9238 -28.5645 23.1445 -28.5645 C 24.2188 -28.5645 24.8047 -28.0273 25.2441 -26.8066 C 26.3184 -23.9258 28.7109 -22.2168 31.9824 -22.2168 C 36.084 -22.2168 38.8672 -24.707 38.8672 -28.0273 C 38.8672 -31.3965 36.2793 -33.6914 32.2754 -33.6914 L 29.7363 -33.6914 C 28.5156 -33.6914 27.7344 -34.6191 27.7344 -35.791 C 27.7344 -37.0605 28.5645 -37.8906 29.7363 -37.8906 L 32.0801 -37.8906 C 35.4492 -37.8906 37.8418 -40.1855 37.8418 -43.2617 C 37.8418 -46.2402 35.498 -48.291 32.0801 -48.291 C 28.8086 -48.291 26.6602 -46.6309 25.8301 -43.7012 C 25.5371 -42.4805 24.9023 -41.8945 23.7793 -41.8945 C 22.5098 -41.8945 21.7285 -42.8223 21.7285 -44.1406 C 21.7285 -44.6289 21.7285 -45.0195 21.8262 -45.5078 C 22.8516 -49.4629 26.9043 -52.4414 32.1777 -52.4414 C 38.0859 -52.4414 42.334 -48.877 42.334 -43.7988 C 42.334 -40.0879 39.6973 -36.6699 36.2793 -36.1328 L 36.2793 -35.9375 C 40.3809 -35.498 43.4082 -32.0801 43.4082 -27.832 C 43.4082 -22.1191 38.6719 -18.0664 31.9336 -18.0664 Z M 59.668 -18.0664 C 52.7832 -18.0664 48.1445 -22.0215 48.1445 -27.7832 C 48.1445 -31.8848 50.6836 -35.2539 54.9316 -36.084 L 54.9316 -36.3281 C 51.3184 -37.4023 49.3164 -40.2344 49.3164 -43.7012 C 49.3164 -48.8281 53.6133 -52.4414 59.7168 -52.4414 C 65.8203 -52.4414 70.166 -48.8281 70.166 -43.7012 C 70.166 -40.2344 68.1152 -37.3047 64.502 -36.3281 L 64.502 -36.084 C 68.75 -35.2539 71.3379 -31.8848 71.3379 -27.832 C 71.3379 -22.0703 66.5527 -18.0664 59.668 -18.0664 Z M 59.7168 -37.793 C 63.1348 -37.793 65.5273 -40.0879 65.5273 -43.2617 C 65.5273 -46.4844 63.1348 -48.6328 59.7168 -48.6328 C 56.2988 -48.6328 53.9062 -46.4844 53.9062 -43.2617 C 53.9062 -40.0879 56.3477 -37.793 59.7168 -37.793 Z M 59.7656 -21.875 C 63.8184 -21.875 66.7969 -24.4141 66.7969 -28.0762 C 66.7969 -31.6895 63.916 -34.2773 59.7656 -34.2773 C 55.6641 -34.2773 52.6855 -31.6406 52.6855 -28.0762 C 52.6855 -24.4141 55.6641 -21.875 59.7656 -21.875 Z"/>
  </g>
  <g id="Thin-S" transform="matrix(1 0 0 1 811.867 696)">
   <path d="M 44.5801 2.53906 C 65.2832 2.53906 82.2754 -14.4531 82.2754 -35.2051 C 82.2754 -55.9082 65.2344 -72.9004 44.5312 -72.9004 C 23.8281 -72.9004 6.83594 -55.9082 6.83594 -35.2051 C 6.83594 -14.4531 23.877 2.53906 44.5801 2.53906 Z M 31.0059 -18.4082 C 25.7812 -18.4082 21.7285 -21.4844 20.6055 -25.0488 C 20.459 -25.4395 20.4102 -25.7812 20.4102 -26.2207 C 20.4102 -27.0996 20.9473 -27.7832 21.875 -27.7832 C 22.6562 -27.7832 23.0957 -27.3438 23.3398 -26.4648 C 24.4141 -23.2422 27.4414 -21.2891 31.0059 -21.2891 C 35.7422 -21.2891 38.916 -24.0723 38.916 -27.9297 C 38.916 -31.6406 35.791 -34.375 31.3965 -34.375 L 28.2715 -34.375 C 27.3926 -34.375 26.8555 -34.9609 26.8555 -35.791 C 26.8555 -36.7188 27.4414 -37.2559 28.2715 -37.2559 L 31.1035 -37.2559 C 35.0098 -37.2559 37.8418 -39.9414 37.8418 -43.457 C 37.8418 -46.875 35.0586 -49.2188 31.0059 -49.2188 C 27.2461 -49.2188 24.6582 -47.168 24.0234 -44.043 C 23.7793 -43.1152 23.3398 -42.7246 22.5586 -42.7246 C 21.582 -42.7246 21.0938 -43.3594 21.0938 -44.2871 C 21.0938 -44.6777 21.0938 -45.0684 21.1914 -45.5078 C 22.168 -49.4629 26.2695 -52.0996 31.0547 -52.0996 C 36.8164 -52.0996 40.9668 -48.6816 40.9668 -43.7988 C 40.9668 -40.0879 38.2324 -36.6699 34.668 -36.0352 L 34.668 -35.9375 C 38.8672 -35.498 42.0898 -32.0312 42.0898 -27.8809 C 42.0898 -22.3633 37.4023 -18.4082 31.0059 -18.4082 Z M 58.6914 -18.4082 C 52.0508 -18.4082 47.3145 -22.3145 47.3145 -27.9297 C 47.3145 -31.8848 50.0977 -35.2539 54.1992 -36.084 L 54.1992 -36.2793 C 50.7324 -37.3535 48.5352 -40.1855 48.5352 -43.5547 C 48.5352 -48.584 52.832 -52.0996 58.7402 -52.0996 C 64.6484 -52.0996 68.9453 -48.584 68.9453 -43.5547 C 68.9453 -40.1855 66.6992 -37.2559 63.2812 -36.2793 L 63.2812 -36.084 C 67.334 -35.2539 70.166 -31.9336 70.166 -27.9297 C 70.166 -22.3633 65.332 -18.4082 58.6914 -18.4082 Z M 58.7402 -37.4023 C 62.9395 -37.4023 65.8203 -39.9414 65.8203 -43.4082 C 65.8203 -46.9727 62.9883 -49.4629 58.7402 -49.4629 C 54.4922 -49.4629 51.6602 -46.9727 51.6602 -43.4082 C 51.6602 -39.9414 54.5898 -37.4023 58.7402 -37.4023 Z M 58.7402 -21.0449 C 63.6719 -21.0449 67.1875 -23.9746 67.1875 -28.0273 C 67.1875 -31.9336 63.6719 -34.8145 58.7402 -34.8145 C 53.8574 -34.8145 50.293 -31.9336 50.293 -28.0273 C 50.293 -23.9746 53.8574 -21.0449 58.7402 -21.0449 Z"/>
  </g>
  <g id="Ultralight-S" transform="matrix(1 0 0 1 515.644 696)">
   <path d="M 44.043 2.05078 C 64.502 2.05078 81.2988 -14.6973 81.2988 -35.1562 C 81.2988 -55.6152 64.502 -72.3633 44.043 -72.3633 C 23.584 -72.3633 6.83594 -55.6152 6.83594 -35.1562 C 6.83594 -14.6973 23.584 2.05078 44.043 2.05078 Z M 30.4688 -18.5547 C 25.3906 -18.5547 21.3867 -21.582 20.2637 -25.0977 C 20.166 -25.3906 20.0684 -25.7324 20.0684 -26.123 C 20.0684 -26.8066 20.459 -27.3438 21.1914 -27.3438 C 21.875 -27.3438 22.168 -27.002 22.4121 -26.2695 C 23.4863 -22.9004 26.7578 -20.752 30.4688 -20.752 C 35.5957 -20.752 38.9648 -23.7305 38.9648 -27.8809 C 38.9648 -31.7383 35.5469 -34.7168 30.957 -34.7168 L 27.5391 -34.7168 C 26.8066 -34.7168 26.416 -35.1562 26.416 -35.8398 C 26.416 -36.5234 26.9043 -36.9629 27.5391 -36.9629 L 30.6152 -36.9629 C 34.7656 -36.9629 37.8418 -39.8438 37.8418 -43.5547 C 37.8418 -47.2168 34.8633 -49.7559 30.4688 -49.7559 C 26.4648 -49.7559 23.6328 -47.5098 23.0469 -44.2383 C 22.9004 -43.4082 22.5098 -43.1152 21.9238 -43.1152 C 21.0449 -43.1152 20.752 -43.6523 20.752 -44.4336 C 20.752 -44.7266 20.8008 -45.1172 20.8984 -45.459 C 21.8262 -49.4629 25.9277 -51.9531 30.4688 -51.9531 C 36.1328 -51.9531 40.2344 -48.584 40.2344 -43.75 C 40.2344 -40.0879 37.5 -36.6211 33.8379 -35.9863 L 33.8379 -35.9375 C 38.0859 -35.4492 41.3574 -31.9824 41.3574 -27.8809 C 41.3574 -22.4609 36.7676 -18.5547 30.4688 -18.5547 Z M 58.2031 -18.5547 C 51.709 -18.5547 46.9238 -22.4609 46.9238 -28.0273 C 46.9238 -31.9336 49.8047 -35.3027 53.8086 -36.084 L 53.8086 -36.2793 C 50.4395 -37.3047 48.1445 -40.1855 48.1445 -43.457 C 48.1445 -48.4863 52.3926 -51.9531 58.2031 -51.9531 C 64.0625 -51.9531 68.3105 -48.4863 68.3105 -43.457 C 68.3105 -40.1855 65.9668 -37.207 62.6465 -36.2793 L 62.6465 -36.084 C 66.6016 -35.3027 69.5312 -31.9336 69.5312 -28.0273 C 69.5312 -22.5098 64.6973 -18.5547 58.2031 -18.5547 Z M 58.2031 -37.1582 C 62.8418 -37.1582 65.9668 -39.7949 65.9668 -43.5059 C 65.9668 -47.2656 62.8418 -49.8535 58.2031 -49.8535 C 53.5645 -49.8535 50.4883 -47.2656 50.4883 -43.5059 C 50.4883 -39.7949 53.6621 -37.1582 58.2031 -37.1582 Z M 58.2031 -20.6543 C 63.5254 -20.6543 67.3828 -23.7305 67.3828 -27.9785 C 67.3828 -32.0801 63.5742 -35.1074 58.2031 -35.1074 C 52.8809 -35.1074 49.0723 -32.0801 49.0723 -27.9785 C 49.0723 -23.7305 52.8809 -20.6543 58.2031 -20.6543 Z"/>
  </g>
 </g>
</svg>
