<?xml version="1.0" encoding="UTF-8"?>
<!--Generator: Apple Native CoreSVG 123-->
<!DOCTYPE svg
PUBLIC "-//W3C//DTD SVG 1.1//EN"
       "http://www.w3.org/Graphics/SVG/1.1/DTD/svg11.dtd">
<svg version="1.1" xmlns="http://www.w3.org/2000/svg" xmlns:xlink="http://www.w3.org/1999/xlink" width="3300" height="2200">
 <!--glyph: "uni1006A6.medium", point size: 100.000000, font version: "Version 15.0d7e11", template writer version: "5"-->
 <g id="Notes">
  <rect height="2200" id="artboard" style="fill:white;opacity:1" width="3300" x="0" y="0"/>
  <line id="" style="fill:none;stroke:black;opacity:1;stroke-width:0.5;" x1="263" x2="3036" y1="292" y2="292"/>
  <text style="stroke:none;fill:black;font-family:-apple-system,&quot;SF Pro Display&quot;,&quot;SF Pro Text&quot;,Helvetica,sans-serif;font-weight:bold;" transform="matrix(1 0 0 1 263 322)">Weight/Scale Variations</text>
  <text style="stroke:none;fill:black;font-family:-apple-system,&quot;SF Pro Display&quot;,&quot;SF Pro Text&quot;,Helvetica,sans-serif;text-anchor:middle;" transform="matrix(1 0 0 1 559.711 322)">Ultralight</text>
  <text style="stroke:none;fill:black;font-family:-apple-system,&quot;SF Pro Display&quot;,&quot;SF Pro Text&quot;,Helvetica,sans-serif;text-anchor:middle;" transform="matrix(1 0 0 1 856.422 322)">Thin</text>
  <text style="stroke:none;fill:black;font-family:-apple-system,&quot;SF Pro Display&quot;,&quot;SF Pro Text&quot;,Helvetica,sans-serif;text-anchor:middle;" transform="matrix(1 0 0 1 1153.13 322)">Light</text>
  <text style="stroke:none;fill:black;font-family:-apple-system,&quot;SF Pro Display&quot;,&quot;SF Pro Text&quot;,Helvetica,sans-serif;text-anchor:middle;" transform="matrix(1 0 0 1 1449.84 322)">Regular</text>
  <text style="stroke:none;fill:black;font-family:-apple-system,&quot;SF Pro Display&quot;,&quot;SF Pro Text&quot;,Helvetica,sans-serif;text-anchor:middle;" transform="matrix(1 0 0 1 1746.56 322)">Medium</text>
  <text style="stroke:none;fill:black;font-family:-apple-system,&quot;SF Pro Display&quot;,&quot;SF Pro Text&quot;,Helvetica,sans-serif;text-anchor:middle;" transform="matrix(1 0 0 1 2043.27 322)">Semibold</text>
  <text style="stroke:none;fill:black;font-family:-apple-system,&quot;SF Pro Display&quot;,&quot;SF Pro Text&quot;,Helvetica,sans-serif;text-anchor:middle;" transform="matrix(1 0 0 1 2339.98 322)">Bold</text>
  <text style="stroke:none;fill:black;font-family:-apple-system,&quot;SF Pro Display&quot;,&quot;SF Pro Text&quot;,Helvetica,sans-serif;text-anchor:middle;" transform="matrix(1 0 0 1 2636.69 322)">Heavy</text>
  <text style="stroke:none;fill:black;font-family:-apple-system,&quot;SF Pro Display&quot;,&quot;SF Pro Text&quot;,Helvetica,sans-serif;text-anchor:middle;" transform="matrix(1 0 0 1 2933.4 322)">Black</text>
  <line id="" style="fill:none;stroke:black;opacity:1;stroke-width:0.5;" x1="263" x2="3036" y1="1903" y2="1903"/>
  <g id="" transform="matrix(1 0 0 1 263 1933)">
   <path d="M 9.24805 0.830078 C 13.5547 0.830078 17.1387 -2.74414 17.1387 -7.05078 C 17.1387 -11.3574 13.5449 -14.9316 9.23828 -14.9316 C 4.94141 -14.9316 1.36719 -11.3574 1.36719 -7.05078 C 1.36719 -2.74414 4.95117 0.830078 9.24805 0.830078 Z M 9.24805 -0.654297 C 5.70312 -0.654297 2.87109 -3.49609 2.87109 -7.05078 C 2.87109 -10.6055 5.69336 -13.4473 9.23828 -13.4473 C 12.793 -13.4473 15.6348 -10.6055 15.6445 -7.05078 C 15.6543 -3.49609 12.8027 -0.654297 9.24805 -0.654297 Z M 9.22852 -3.42773 C 9.69727 -3.42773 9.9707 -3.74023 9.9707 -4.25781 L 9.9707 -6.31836 L 12.1973 -6.31836 C 12.6953 -6.31836 13.0371 -6.57227 13.0371 -7.04102 C 13.0371 -7.51953 12.7148 -7.7832 12.1973 -7.7832 L 9.9707 -7.7832 L 9.9707 -10.0098 C 9.9707 -10.5273 9.69727 -10.8496 9.22852 -10.8496 C 8.75977 -10.8496 8.50586 -10.5078 8.50586 -10.0098 L 8.50586 -7.7832 L 6.29883 -7.7832 C 5.78125 -7.7832 5.44922 -7.51953 5.44922 -7.04102 C 5.44922 -6.57227 5.80078 -6.31836 6.29883 -6.31836 L 8.50586 -6.31836 L 8.50586 -4.25781 C 8.50586 -3.75977 8.75977 -3.42773 9.22852 -3.42773 Z"/>
  </g>
  <g id="" transform="matrix(1 0 0 1 281.506 1933)">
   <path d="M 11.709 2.91016 C 17.1582 2.91016 21.6699 -1.60156 21.6699 -7.05078 C 21.6699 -12.4902 17.1484 -17.0117 11.6992 -17.0117 C 6.25977 -17.0117 1.74805 -12.4902 1.74805 -7.05078 C 1.74805 -1.60156 6.26953 2.91016 11.709 2.91016 Z M 11.709 1.25 C 7.09961 1.25 3.41797 -2.44141 3.41797 -7.05078 C 3.41797 -11.6504 7.08984 -15.3516 11.6992 -15.3516 C 16.3086 -15.3516 20 -11.6504 20.0098 -7.05078 C 20.0195 -2.44141 16.3184 1.25 11.709 1.25 Z M 11.6895 -2.41211 C 12.207 -2.41211 12.5195 -2.77344 12.5195 -3.33984 L 12.5195 -6.23047 L 15.5762 -6.23047 C 16.123 -6.23047 16.5039 -6.51367 16.5039 -7.03125 C 16.5039 -7.55859 16.1426 -7.86133 15.5762 -7.86133 L 12.5195 -7.86133 L 12.5195 -10.9277 C 12.5195 -11.5039 12.207 -11.8555 11.6895 -11.8555 C 11.1719 -11.8555 10.8789 -11.4844 10.8789 -10.9277 L 10.8789 -7.86133 L 7.83203 -7.86133 C 7.26562 -7.86133 6.89453 -7.55859 6.89453 -7.03125 C 6.89453 -6.51367 7.28516 -6.23047 7.83203 -6.23047 L 10.8789 -6.23047 L 10.8789 -3.33984 C 10.8789 -2.79297 11.1719 -2.41211 11.6895 -2.41211 Z"/>
  </g>
  <g id="" transform="matrix(1 0 0 1 304.924 1933)">
   <path d="M 14.9707 5.67383 C 21.9336 5.67383 27.6953 -0.078125 27.6953 -7.04102 C 27.6953 -14.0039 21.9238 -19.7559 14.9609 -19.7559 C 8.00781 -19.7559 2.25586 -14.0039 2.25586 -7.04102 C 2.25586 -0.078125 8.01758 5.67383 14.9707 5.67383 Z M 14.9707 3.85742 C 8.93555 3.85742 4.08203 -1.00586 4.08203 -7.04102 C 4.08203 -13.0762 8.92578 -17.9395 14.9609 -17.9395 C 21.0059 -17.9395 25.8594 -13.0762 25.8691 -7.04102 C 25.8789 -1.00586 21.0156 3.85742 14.9707 3.85742 Z M 14.9512 -1.06445 C 15.5176 -1.06445 15.8691 -1.45508 15.8691 -2.06055 L 15.8691 -6.13281 L 20.1074 -6.13281 C 20.6934 -6.13281 21.1133 -6.46484 21.1133 -7.02148 C 21.1133 -7.59766 20.7227 -7.93945 20.1074 -7.93945 L 15.8691 -7.93945 L 15.8691 -12.1875 C 15.8691 -12.8027 15.5176 -13.1934 14.9512 -13.1934 C 14.3848 -13.1934 14.0625 -12.7832 14.0625 -12.1875 L 14.0625 -7.93945 L 9.83398 -7.93945 C 9.21875 -7.93945 8.80859 -7.59766 8.80859 -7.02148 C 8.80859 -6.46484 9.23828 -6.13281 9.83398 -6.13281 L 14.0625 -6.13281 L 14.0625 -2.06055 C 14.0625 -1.47461 14.3848 -1.06445 14.9512 -1.06445 Z"/>
  </g>
  <text style="stroke:none;fill:black;font-family:-apple-system,&quot;SF Pro Display&quot;,&quot;SF Pro Text&quot;,Helvetica,sans-serif;font-weight:bold;" transform="matrix(1 0 0 1 263 1953)">Design Variations</text>
  <text style="stroke:none;fill:black;font-family:-apple-system,&quot;SF Pro Display&quot;,&quot;SF Pro Text&quot;,Helvetica,sans-serif;" transform="matrix(1 0 0 1 263 1971)">Symbols are supported in up to nine weights and three scales.</text>
  <text style="stroke:none;fill:black;font-family:-apple-system,&quot;SF Pro Display&quot;,&quot;SF Pro Text&quot;,Helvetica,sans-serif;" transform="matrix(1 0 0 1 263 1989)">For optimal layout with text and other symbols, vertically align</text>
  <text style="stroke:none;fill:black;font-family:-apple-system,&quot;SF Pro Display&quot;,&quot;SF Pro Text&quot;,Helvetica,sans-serif;" transform="matrix(1 0 0 1 263 2007)">symbols with the adjacent text.</text>
  <rect height="14" id="" style="fill:#00AEEF;stroke:none;opacity:0.4;" width="3" x="776" y="1919"/>
  <g id="" transform="matrix(1 0 0 1 779 1933)">
   <path d="M 10.5273 0 L 12.373 0 L 7.17773 -14.0918 L 5.43945 -14.0918 L 0.244141 0 L 2.08984 0 L 3.50586 -4.0332 L 9.11133 -4.0332 Z M 6.2793 -11.9531 L 6.33789 -11.9531 L 8.59375 -5.52734 L 4.02344 -5.52734 Z"/>
  </g>
  <rect height="14" id="" style="fill:#00AEEF;stroke:none;opacity:0.4;" width="3" x="791.617" y="1919"/>
  <text style="stroke:none;fill:black;font-family:-apple-system,&quot;SF Pro Display&quot;,&quot;SF Pro Text&quot;,Helvetica,sans-serif;font-weight:bold;" transform="matrix(1 0 0 1 776 1953)">Margins</text>
  <text style="stroke:none;fill:black;font-family:-apple-system,&quot;SF Pro Display&quot;,&quot;SF Pro Text&quot;,Helvetica,sans-serif;" transform="matrix(1 0 0 1 776 1971)">Leading and trailing margins on the left and right side of each symbol</text>
  <text style="stroke:none;fill:black;font-family:-apple-system,&quot;SF Pro Display&quot;,&quot;SF Pro Text&quot;,Helvetica,sans-serif;" transform="matrix(1 0 0 1 776 1989)">can be adjusted by modifying the width of the blue rectangles.</text>
  <text style="stroke:none;fill:black;font-family:-apple-system,&quot;SF Pro Display&quot;,&quot;SF Pro Text&quot;,Helvetica,sans-serif;" transform="matrix(1 0 0 1 776 2007)">Modifications are automatically applied proportionally to all</text>
  <text style="stroke:none;fill:black;font-family:-apple-system,&quot;SF Pro Display&quot;,&quot;SF Pro Text&quot;,Helvetica,sans-serif;" transform="matrix(1 0 0 1 776 2025)">scales and weights.</text>
  <g id="" transform="matrix(1 0 0 1 1289 1933)">
   <path d="M 2.83203 3.11523 L 4.375 4.6582 C 5.22461 5.48828 6.19141 5.41992 7.06055 4.46289 L 17.2754 -6.66016 C 17.7051 -6.36719 18.0957 -6.37695 18.5645 -6.47461 L 19.6094 -6.68945 L 20.3027 -5.99609 L 20.2539 -5.47852 C 20.1855 -4.95117 20.3516 -4.53125 20.8496 -4.0332 L 21.6602 -3.22266 C 22.168 -2.71484 22.8223 -2.68555 23.3008 -3.16406 L 26.5527 -6.41602 C 27.0312 -6.89453 27.0117 -7.54883 26.5039 -8.05664 L 25.6836 -8.87695 C 25.1855 -9.375 24.7754 -9.55078 24.2383 -9.47266 L 23.7109 -9.41406 L 23.0566 -10.0781 L 23.3398 -11.2207 C 23.4863 -11.7871 23.3398 -12.2559 22.7148 -12.8613 L 20.3027 -15.2539 C 16.7578 -18.7793 12.2266 -18.6719 9.11133 -15.5371 C 8.69141 -15.1074 8.64258 -14.5215 8.91602 -14.0918 C 9.15039 -13.7207 9.62891 -13.4961 10.2734 -13.6621 C 11.7871 -14.043 13.3008 -13.9258 14.7852 -12.9199 L 14.1602 -11.3379 C 13.9258 -10.752 13.9453 -10.2734 14.1797 -9.83398 L 3.01758 0.439453 C 2.08008 1.30859 1.97266 2.25586 2.83203 3.11523 Z M 10.6738 -15.1465 C 13.3398 -17.1387 16.6504 -16.8262 19.0527 -14.4141 L 21.6797 -11.8066 C 21.9141 -11.5723 21.9434 -11.3867 21.8848 -11.0938 L 21.5039 -9.53125 L 23.0762 -7.95898 L 24.043 -8.04688 C 24.3262 -8.07617 24.4141 -8.05664 24.6387 -7.83203 L 25.2637 -7.20703 L 22.5098 -4.46289 L 21.8848 -5.07812 C 21.6602 -5.30273 21.6406 -5.40039 21.6699 -5.68359 L 21.7578 -6.64062 L 20.1953 -8.20312 L 18.5742 -7.89062 C 18.291 -7.83203 18.1445 -7.83203 17.9102 -8.07617 L 15.7324 -10.2539 C 15.5078 -10.4883 15.4785 -10.625 15.6055 -10.9473 L 16.5527 -13.2227 C 14.9512 -14.7559 12.8418 -15.6055 10.8008 -14.9512 C 10.7129 -14.9219 10.6445 -14.9414 10.6152 -14.9805 C 10.5859 -15.0293 10.5859 -15.0781 10.6738 -15.1465 Z M 4.10156 2.41211 C 3.61328 1.91406 3.78906 1.61133 4.12109 1.30859 L 15.0781 -8.80859 L 16.3086 -7.57812 L 6.15234 3.34961 C 5.84961 3.68164 5.46875 3.7793 5.06836 3.37891 Z"/>
  </g>
  <text style="stroke:none;fill:black;font-family:-apple-system,&quot;SF Pro Display&quot;,&quot;SF Pro Text&quot;,Helvetica,sans-serif;font-weight:bold;" transform="matrix(1 0 0 1 1289 1953)">Exporting</text>
  <text style="stroke:none;fill:black;font-family:-apple-system,&quot;SF Pro Display&quot;,&quot;SF Pro Text&quot;,Helvetica,sans-serif;" transform="matrix(1 0 0 1 1289 1971)">Symbols should be outlined when exporting to ensure the</text>
  <text style="stroke:none;fill:black;font-family:-apple-system,&quot;SF Pro Display&quot;,&quot;SF Pro Text&quot;,Helvetica,sans-serif;" transform="matrix(1 0 0 1 1289 1989)">design is preserved when submitting to Xcode.</text>
  <text id="template-version" style="stroke:none;fill:black;font-family:-apple-system,&quot;SF Pro Display&quot;,&quot;SF Pro Text&quot;,Helvetica,sans-serif;text-anchor:end;" transform="matrix(1 0 0 1 3036 1933)">Template v.1.0</text>
  <text style="stroke:none;fill:black;font-family:-apple-system,&quot;SF Pro Display&quot;,&quot;SF Pro Text&quot;,Helvetica,sans-serif;text-anchor:end;" transform="matrix(1 0 0 1 3036 1951)">Generated from 39.circle.fill</text>
  <text style="stroke:none;fill:black;font-family:-apple-system,&quot;SF Pro Display&quot;,&quot;SF Pro Text&quot;,Helvetica,sans-serif;text-anchor:end;" transform="matrix(1 0 0 1 3036 1969)">Typeset at 100 points</text>
  <text style="stroke:none;fill:black;font-family:-apple-system,&quot;SF Pro Display&quot;,&quot;SF Pro Text&quot;,Helvetica,sans-serif;" transform="matrix(1 0 0 1 263 726)">Small</text>
  <text style="stroke:none;fill:black;font-family:-apple-system,&quot;SF Pro Display&quot;,&quot;SF Pro Text&quot;,Helvetica,sans-serif;" transform="matrix(1 0 0 1 263 1156)">Medium</text>
  <text style="stroke:none;fill:black;font-family:-apple-system,&quot;SF Pro Display&quot;,&quot;SF Pro Text&quot;,Helvetica,sans-serif;" transform="matrix(1 0 0 1 263 1586)">Large</text>
 </g>
 <g id="Guides">
  <g id="H-reference" style="fill:#27AAE1;stroke:none;" transform="matrix(1 0 0 1 339 696)">
   <path d="M 54.9316 0 L 57.666 0 L 30.5664 -70.459 L 28.0762 -70.459 L 0.976562 0 L 3.66211 0 L 12.9395 -24.4629 L 45.7031 -24.4629 Z M 29.1992 -67.0898 L 29.4434 -67.0898 L 44.8242 -26.709 L 13.8184 -26.709 Z"/>
  </g>
  <line id="Baseline-S" style="fill:none;stroke:#27AAE1;opacity:1;stroke-width:0.577;" x1="263" x2="3036" y1="696" y2="696"/>
  <line id="Capline-S" style="fill:none;stroke:#27AAE1;opacity:1;stroke-width:0.577;" x1="263" x2="3036" y1="625.541" y2="625.541"/>
  <g id="H-reference" style="fill:#27AAE1;stroke:none;" transform="matrix(1 0 0 1 339 1126)">
   <path d="M 54.9316 0 L 57.666 0 L 30.5664 -70.459 L 28.0762 -70.459 L 0.976562 0 L 3.66211 0 L 12.9395 -24.4629 L 45.7031 -24.4629 Z M 29.1992 -67.0898 L 29.4434 -67.0898 L 44.8242 -26.709 L 13.8184 -26.709 Z"/>
  </g>
  <line id="Baseline-M" style="fill:none;stroke:#27AAE1;opacity:1;stroke-width:0.577;" x1="263" x2="3036" y1="1126" y2="1126"/>
  <line id="Capline-M" style="fill:none;stroke:#27AAE1;opacity:1;stroke-width:0.577;" x1="263" x2="3036" y1="1055.54" y2="1055.54"/>
  <g id="H-reference" style="fill:#27AAE1;stroke:none;" transform="matrix(1 0 0 1 339 1556)">
   <path d="M 54.9316 0 L 57.666 0 L 30.5664 -70.459 L 28.0762 -70.459 L 0.976562 0 L 3.66211 0 L 12.9395 -24.4629 L 45.7031 -24.4629 Z M 29.1992 -67.0898 L 29.4434 -67.0898 L 44.8242 -26.709 L 13.8184 -26.709 Z"/>
  </g>
  <line id="Baseline-L" style="fill:none;stroke:#27AAE1;opacity:1;stroke-width:0.577;" x1="263" x2="3036" y1="1556" y2="1556"/>
  <line id="Capline-L" style="fill:none;stroke:#27AAE1;opacity:1;stroke-width:0.577;" x1="263" x2="3036" y1="1485.54" y2="1485.54"/>
  <rect height="119.336" id="left-margin" style="fill:#00AEEF;stroke:none;opacity:0.4;" width="8.74023" x="1391.3" y="1030.79"/>
  <rect height="119.336" id="right-margin" style="fill:#00AEEF;stroke:none;opacity:0.4;" width="8.74023" x="1499.65" y="1030.79"/>
 </g>
 <g id="Symbols">
  <g id="Black-L" transform="matrix(1 0 0 1 2854.05 1556)">
   <path d="M 79.3457 32.8613 C 116.748 32.8613 147.412 2.19727 147.412 -35.2051 C 147.412 -72.6074 116.748 -103.271 79.2969 -103.271 C 41.8945 -103.271 11.2793 -72.6074 11.2793 -35.2051 C 11.2793 2.19727 41.9434 32.8613 79.3457 32.8613 Z M 59.375 -9.47266 C 51.6602 -9.47266 44.9219 -14.2578 43.4082 -19.4336 C 43.1152 -20.5078 42.9199 -21.4355 42.9199 -22.5098 C 42.9199 -25.9277 45.6055 -27.832 48.0957 -27.832 C 50.4883 -27.832 52.0996 -26.8555 53.2227 -24.9023 C 54.7852 -22.168 57.0312 -20.8984 59.5703 -20.8984 C 62.5 -20.8984 64.502 -22.9492 64.502 -25.3418 C 64.502 -28.125 62.6465 -29.8828 59.4727 -29.8828 L 58.4961 -29.8828 C 54.5898 -29.8828 52.7832 -32.2754 52.7832 -35.5957 C 52.7832 -38.9648 54.9316 -41.3574 58.4961 -41.3574 L 59.4238 -41.3574 C 62.2559 -41.3574 63.7695 -43.4082 63.7695 -45.7031 C 63.7695 -48.3887 61.8652 -50.0977 59.375 -50.0977 C 56.7871 -50.0977 55.0781 -48.7793 53.6133 -46.0938 C 52.5879 -44.2383 51.0254 -43.0176 48.5352 -43.0176 C 45.6055 -43.0176 43.5547 -45.0195 43.5547 -48.3398 C 43.5547 -49.5117 43.75 -50.5371 44.2871 -51.9043 C 45.8984 -56.1523 51.4648 -61.084 59.5703 -61.084 C 69.5801 -61.084 76.0254 -55.7129 76.0254 -47.5098 C 76.0254 -42.4316 72.5098 -37.6953 67.9199 -36.9141 L 67.9199 -36.377 C 73.3887 -35.9375 77.1484 -30.8105 77.1484 -24.5605 C 77.1484 -15.4297 70.2148 -9.47266 59.375 -9.47266 Z M 98.7305 -9.47266 C 90.918 -9.47266 86.2793 -13.0371 84.8633 -16.4062 C 84.2285 -17.6758 83.9844 -18.8477 83.9844 -19.873 C 83.9844 -22.7539 85.9375 -24.9023 89.0137 -24.9023 C 90.6738 -24.9023 92.334 -24.2676 93.7988 -22.5098 C 95.0684 -20.9961 96.4355 -20.166 98.584 -20.166 C 104.15 -20.166 106.348 -27.1484 106.348 -34.2285 L 106.055 -34.2285 C 104.688 -30.2734 101.318 -27.7344 96.3379 -27.7344 C 88.2324 -27.7344 82.4707 -33.7891 82.4707 -43.4082 C 82.4707 -54.4434 89.3555 -61.084 99.4629 -61.084 C 111.816 -61.084 117.529 -51.709 117.529 -36.7676 C 117.529 -19.3848 110.986 -9.47266 98.7305 -9.47266 Z M 99.8047 -37.4512 C 103.076 -37.4512 105.42 -40.1367 105.42 -44.043 C 105.42 -48.0469 103.076 -50.7324 99.8047 -50.7324 C 96.582 -50.7324 94.3359 -48.0957 94.3359 -44.043 C 94.3359 -40.1367 96.6309 -37.4512 99.8047 -37.4512 Z"/>
  </g>
  <g id="Heavy-L" transform="matrix(1 0 0 1 2558.39 1556)">
   <path d="M 78.2715 31.7871 C 115.088 31.7871 145.312 1.61133 145.312 -35.2051 C 145.312 -72.0215 115.039 -102.197 78.2715 -102.197 C 41.4551 -102.197 11.2793 -72.0215 11.2793 -35.2051 C 11.2793 1.61133 41.5039 31.7871 78.2715 31.7871 Z M 57.666 -8.88672 C 49.707 -8.88672 42.9199 -13.8184 41.3574 -19.1895 C 41.0645 -20.166 40.8691 -21.0449 40.8691 -22.0703 C 40.8691 -25.1953 43.2617 -27.002 45.6055 -27.002 C 47.8516 -27.002 49.3164 -25.9766 50.3418 -24.0723 C 51.9531 -20.8496 54.5898 -19.1895 57.8613 -19.1895 C 61.7188 -19.1895 64.3066 -21.7285 64.3066 -24.8535 C 64.3066 -28.3203 61.8652 -30.5664 57.9102 -30.5664 L 56.1035 -30.5664 C 52.6855 -30.5664 51.0254 -32.7148 51.0254 -35.7422 C 51.0254 -38.8184 52.9785 -40.918 56.1035 -40.918 L 57.7637 -40.918 C 61.2793 -40.918 63.3301 -43.4082 63.3301 -46.3867 C 63.3301 -49.5605 60.9863 -51.709 57.7148 -51.709 C 54.4434 -51.709 52.3438 -50.0488 50.8789 -46.8262 C 49.9512 -44.9219 48.5352 -43.7988 46.2402 -43.7988 C 43.5059 -43.7988 41.6504 -45.6543 41.6504 -48.7305 C 41.6504 -49.8047 41.748 -50.7324 42.2363 -51.9531 C 43.8477 -56.7383 49.6582 -61.6699 57.9102 -61.6699 C 67.8711 -61.6699 74.4141 -56.1523 74.4141 -47.9492 C 74.4141 -42.627 70.7031 -37.6465 65.8691 -36.8652 L 65.8691 -36.377 C 71.6797 -35.8887 75.6836 -30.6152 75.6836 -24.2188 C 75.6836 -14.9902 68.5547 -8.88672 57.666 -8.88672 Z M 98.1445 -8.88672 C 90.1855 -8.88672 85.3516 -12.7441 83.9355 -16.1621 C 83.3984 -17.334 83.1055 -18.457 83.1055 -19.4336 C 83.1055 -22.1191 84.9121 -24.0723 87.6953 -24.0723 C 89.3066 -24.0723 90.8203 -23.3887 92.1875 -21.6797 C 93.5547 -19.7754 95.3613 -18.6035 97.998 -18.6035 C 104.199 -18.6035 107.129 -25.8301 107.08 -34.6191 L 106.787 -34.6191 C 105.322 -30.4199 101.611 -27.5879 96.0449 -27.5879 C 87.793 -27.5879 81.5918 -33.7891 81.5918 -43.7012 C 81.5918 -54.834 88.5742 -61.6699 98.877 -61.6699 C 111.182 -61.6699 117.285 -52.3926 117.285 -36.9629 C 117.285 -18.8965 110.596 -8.88672 98.1445 -8.88672 Z M 99.2188 -36.4258 C 103.32 -36.4258 106.201 -39.6973 106.201 -44.2871 C 106.201 -49.0234 103.271 -52.2461 99.2676 -52.2461 C 95.166 -52.2461 92.3828 -49.0723 92.3828 -44.3359 C 92.3828 -39.6973 95.2148 -36.4258 99.2188 -36.4258 Z"/>
  </g>
  <g id="Bold-L" transform="matrix(1 0 0 1 2262.88 1556)">
   <path d="M 77.0996 30.6152 C 113.232 30.6152 142.92 0.878906 142.92 -35.2051 C 142.92 -71.3379 113.184 -101.025 77.0508 -101.025 C 40.9668 -101.025 11.2793 -71.3379 11.2793 -35.2051 C 11.2793 0.878906 41.0156 30.6152 77.0996 30.6152 Z M 55.7617 -8.25195 C 47.5098 -8.25195 40.6738 -13.3301 39.0137 -18.8965 C 38.7695 -19.8242 38.623 -20.6055 38.623 -21.582 C 38.623 -24.3164 40.625 -26.0254 42.8711 -26.0254 C 44.9219 -26.0254 46.1914 -25.0488 47.1191 -23.0957 C 48.7793 -19.3359 51.9043 -17.2852 55.9082 -17.2852 C 60.791 -17.2852 64.1113 -20.3613 64.1113 -24.3652 C 64.1113 -28.5645 60.9863 -31.3477 56.1035 -31.3477 L 53.4668 -31.3477 C 50.5371 -31.3477 49.0234 -33.252 49.0234 -35.8887 C 49.0234 -38.623 50.7324 -40.4297 53.4668 -40.4297 L 55.9082 -40.4297 C 60.1562 -40.4297 62.8906 -43.3594 62.8906 -47.1191 C 62.8906 -50.9277 59.9609 -53.4668 55.8594 -53.4668 C 51.8555 -53.4668 49.2188 -51.416 47.8027 -47.6562 C 47.0215 -45.7031 45.752 -44.6777 43.6523 -44.6777 C 41.1133 -44.6777 39.4531 -46.3867 39.4531 -49.1211 C 39.4531 -50.0977 39.5508 -50.9277 39.9414 -52.0508 C 41.5527 -57.4219 47.6562 -62.3047 56.0547 -62.3047 C 65.918 -62.3047 72.6074 -56.6895 72.6074 -48.4375 C 72.6074 -42.8223 68.6523 -37.6465 63.5742 -36.8164 L 63.5742 -36.377 C 69.6777 -35.791 74.0723 -30.4199 74.0723 -23.8281 C 74.0723 -14.5508 66.6992 -8.25195 55.7617 -8.25195 Z M 97.4609 -8.25195 C 89.3066 -8.25195 84.2285 -12.4512 82.9102 -15.918 C 82.4219 -16.9922 82.1289 -18.0176 82.1289 -18.9453 C 82.1289 -21.3867 83.7402 -23.1445 86.1816 -23.1445 C 87.793 -23.1445 89.1602 -22.4609 90.3809 -20.752 C 91.8457 -18.4082 94.1895 -16.8945 97.3633 -16.8945 C 104.248 -16.8945 108.008 -24.4141 107.959 -35.1074 L 107.617 -35.1074 C 105.957 -30.6152 101.953 -27.4414 95.752 -27.4414 C 87.2559 -27.4414 80.5664 -33.7891 80.5664 -44.0918 C 80.5664 -55.2734 87.6953 -62.3047 98.2422 -62.3047 C 110.449 -62.3047 116.943 -53.125 116.943 -37.1582 C 116.943 -18.3594 110.156 -8.25195 97.4609 -8.25195 Z M 98.584 -35.3027 C 103.564 -35.3027 107.08 -39.1602 107.08 -44.5312 C 107.08 -50.0488 103.516 -53.9551 98.6328 -53.9551 C 93.6035 -53.9551 90.1855 -50.1953 90.1855 -44.5801 C 90.1855 -39.1602 93.6035 -35.3027 98.584 -35.3027 Z"/>
  </g>
  <g id="Semibold-L" transform="matrix(1 0 0 1 1966.97 1556)">
   <path d="M 76.2695 29.7852 C 111.914 29.7852 141.309 0.439453 141.309 -35.2051 C 141.309 -70.8496 111.865 -100.244 76.2695 -100.244 C 40.625 -100.244 11.2793 -70.8496 11.2793 -35.2051 C 11.2793 0.439453 40.6738 29.7852 76.2695 29.7852 Z M 54.4434 -7.76367 C 45.9473 -7.76367 39.1113 -12.9883 37.4023 -18.7012 C 37.1582 -19.5801 37.0605 -20.3125 37.0605 -21.2891 C 37.0605 -23.7305 38.8184 -25.3418 40.9668 -25.3418 C 42.8711 -25.3418 44.043 -24.4141 44.9219 -22.4609 C 46.6309 -18.3105 50.0488 -15.9668 54.541 -15.9668 C 60.1562 -15.9668 63.9648 -19.4336 63.9648 -23.9746 C 63.9648 -28.7109 60.4004 -31.8848 54.8828 -31.8848 L 51.6602 -31.8848 C 49.0723 -31.8848 47.6562 -33.5938 47.6562 -35.9863 C 47.6562 -38.4766 49.2188 -40.1367 51.6602 -40.1367 L 54.6387 -40.1367 C 59.375 -40.1367 62.5488 -43.3594 62.5488 -47.6074 C 62.5488 -51.8555 59.2773 -54.6875 54.5898 -54.6875 C 50.0488 -54.6875 47.0703 -52.3926 45.7031 -48.2422 C 45.0195 -46.2891 43.8477 -45.3125 41.8457 -45.3125 C 39.502 -45.3125 37.9883 -46.9238 37.9883 -49.4141 C 37.9883 -50.3418 38.0371 -51.0742 38.3301 -52.0996 C 39.9902 -57.8613 46.2891 -62.7441 54.7852 -62.7441 C 64.5996 -62.7441 71.3867 -57.0312 71.3867 -48.7793 C 71.3867 -42.9688 67.2852 -37.6465 62.0117 -36.7676 L 62.0117 -36.377 C 68.3594 -35.7422 72.9492 -30.2734 72.9492 -23.5352 C 72.9492 -14.2578 65.4297 -7.76367 54.4434 -7.76367 Z M 97.0215 -7.76367 C 88.7207 -7.76367 83.4961 -12.207 82.1777 -15.7227 C 81.7871 -16.748 81.4453 -17.7246 81.4453 -18.6035 C 81.4453 -20.8496 82.959 -22.5098 85.1562 -22.5098 C 86.7676 -22.5098 87.9883 -21.8262 89.1113 -20.1172 C 90.6738 -17.4316 93.4082 -15.7227 96.9238 -15.7227 C 104.297 -15.7227 108.594 -23.4375 108.545 -35.4004 L 108.203 -35.4004 C 106.445 -30.7129 102.197 -27.2949 95.5566 -27.2949 C 86.9141 -27.2949 79.8828 -33.7891 79.8828 -44.3359 C 79.8828 -55.5664 87.1094 -62.7441 97.8027 -62.7441 C 109.961 -62.7441 116.748 -53.6621 116.748 -37.2559 C 116.748 -17.9688 109.814 -7.76367 97.0215 -7.76367 Z M 98.1445 -34.5215 C 103.711 -34.5215 107.715 -38.7695 107.715 -44.7266 C 107.715 -50.7812 103.662 -55.127 98.1934 -55.127 C 92.5293 -55.127 88.6719 -50.9766 88.6719 -44.7754 C 88.6719 -38.7695 92.5293 -34.5215 98.1445 -34.5215 Z"/>
  </g>
  <g id="Medium-L" transform="matrix(1 0 0 1 1670.87 1556)">
   <path d="M 75.6836 29.1992 C 110.938 29.1992 140.088 0.0488281 140.088 -35.2051 C 140.088 -70.459 110.889 -99.6094 75.6348 -99.6094 C 40.3809 -99.6094 11.2793 -70.459 11.2793 -35.2051 C 11.2793 0.0488281 40.3809 29.1992 75.6836 29.1992 Z M 53.4668 -7.4707 C 44.8242 -7.4707 37.9395 -12.6953 36.1816 -18.5547 C 35.9863 -19.4336 35.8398 -20.0684 35.8398 -20.9961 C 35.8398 -23.291 37.4512 -24.8047 39.502 -24.8047 C 41.3574 -24.8047 42.4316 -23.877 43.2129 -21.9727 C 44.9707 -17.5293 48.6328 -14.9902 53.5645 -14.9902 C 59.668 -14.9902 63.8672 -18.75 63.8672 -23.7305 C 63.8672 -28.8086 59.9121 -32.2754 53.9551 -32.2754 L 50.2441 -32.2754 C 47.998 -32.2754 46.582 -33.8867 46.582 -36.0352 C 46.582 -38.3789 48.0469 -39.8926 50.2441 -39.8926 L 53.6621 -39.8926 C 58.7402 -39.8926 62.3047 -43.3594 62.3047 -47.998 C 62.3047 -52.5391 58.7402 -55.6152 53.6621 -55.6152 C 48.6816 -55.6152 45.459 -53.125 44.0918 -48.6328 C 43.457 -46.6797 42.3828 -45.752 40.5273 -45.752 C 38.2812 -45.752 36.8652 -47.3145 36.8652 -49.6094 C 36.8652 -50.4883 36.9141 -51.2207 37.1582 -52.1484 C 38.8184 -58.2031 45.2637 -63.0859 53.8086 -63.0859 C 63.623 -63.0859 70.459 -57.3242 70.459 -49.0234 C 70.459 -43.0664 66.2109 -37.6465 60.791 -36.7676 L 60.791 -36.377 C 67.334 -35.7422 72.1191 -30.1758 72.1191 -23.3398 C 72.1191 -14.0137 64.4531 -7.4707 53.4668 -7.4707 Z M 96.6797 -7.4707 C 88.2812 -7.4707 82.959 -12.0605 81.6406 -15.625 C 81.25 -16.5527 80.957 -17.5293 80.957 -18.3105 C 80.957 -20.459 82.373 -22.0215 84.375 -22.0215 C 85.9375 -22.0215 87.1582 -21.3379 88.1836 -19.6289 C 89.7949 -16.748 92.7734 -14.8438 96.582 -14.8438 C 104.346 -14.8438 109.033 -22.7051 108.984 -35.6445 L 108.643 -35.6445 C 106.787 -30.8105 102.393 -27.2461 95.3613 -27.2461 C 86.6699 -27.2461 79.3457 -33.7891 79.3457 -44.4824 C 79.3457 -55.7617 86.6211 -63.0859 97.4609 -63.0859 C 109.57 -63.0859 116.602 -54.0527 116.602 -37.3535 C 116.602 -17.6758 109.619 -7.4707 96.6797 -7.4707 Z M 97.8027 -33.8867 C 103.857 -33.8867 108.154 -38.4766 108.154 -44.8242 C 108.154 -51.3672 103.76 -56.0059 97.8516 -56.0059 C 91.6992 -56.0059 87.5 -51.5625 87.5 -44.9219 C 87.5 -38.4766 91.6992 -33.8867 97.8027 -33.8867 Z"/>
  </g>
  <g id="Regular-L" transform="matrix(1 0 0 1 1374.97 1556)">
   <path d="M 74.8535 28.3691 C 109.668 28.3691 138.477 -0.390625 138.477 -35.2051 C 138.477 -70.0195 109.619 -98.7793 74.8047 -98.7793 C 40.0391 -98.7793 11.2793 -70.0195 11.2793 -35.2051 C 11.2793 -0.390625 40.0879 28.3691 74.8535 28.3691 Z M 52.1484 -6.98242 C 43.3105 -6.98242 36.377 -12.3535 34.6191 -18.4082 C 34.4238 -19.1895 34.2773 -19.7754 34.2773 -20.6543 C 34.2773 -22.7051 35.6934 -24.1699 37.6465 -24.1699 C 39.3555 -24.1699 40.332 -23.2422 41.0156 -21.3379 C 42.7734 -16.5039 46.8262 -13.6719 52.1973 -13.6719 C 59.082 -13.6719 63.7207 -17.8223 63.7207 -23.3887 C 63.7207 -28.9551 59.3262 -32.8125 52.7832 -32.8125 L 48.4863 -32.8125 C 46.5332 -32.8125 45.2637 -34.2285 45.2637 -36.1328 C 45.2637 -38.2324 46.582 -39.5508 48.4863 -39.5508 L 52.3926 -39.5508 C 58.0078 -39.5508 62.0117 -43.3594 62.0117 -48.4863 C 62.0117 -53.4668 58.0566 -56.8359 52.3926 -56.8359 C 46.875 -56.8359 43.3105 -54.0527 41.9922 -49.2188 C 41.4551 -47.2168 40.4785 -46.3379 38.7695 -46.3379 C 36.6211 -46.3379 35.3516 -47.8027 35.3516 -49.9023 C 35.3516 -50.7324 35.4004 -51.3672 35.5469 -52.1973 C 37.2559 -58.6914 43.8965 -63.5254 52.5391 -63.5254 C 62.3047 -63.5254 69.1895 -57.666 69.1895 -49.3652 C 69.1895 -43.2129 64.8438 -37.5977 59.2285 -36.7188 L 59.2285 -36.377 C 65.9668 -35.6934 70.9961 -30.0293 70.9961 -23.0957 C 70.9961 -13.6719 63.1836 -6.98242 52.1484 -6.98242 Z M 96.1914 -6.98242 C 87.7441 -6.98242 82.2266 -11.8164 80.9082 -15.4297 C 80.6152 -16.3086 80.2734 -17.2363 80.2734 -17.9688 C 80.2734 -19.9707 81.5918 -21.3867 83.3496 -21.3867 C 84.9121 -21.3867 85.9863 -20.7031 86.9141 -18.9941 C 88.623 -15.8203 91.9922 -13.6719 96.1426 -13.6719 C 104.395 -13.6719 109.668 -21.7285 109.57 -35.9375 L 109.229 -35.9375 C 107.227 -30.957 102.637 -27.0996 95.166 -27.0996 C 86.3281 -27.0996 78.6621 -33.7891 78.6621 -44.7266 C 78.6621 -56.1035 86.0352 -63.5254 97.0215 -63.5254 C 109.082 -63.5254 116.357 -54.541 116.357 -37.5 C 116.357 -17.334 109.326 -6.98242 96.1914 -6.98242 Z M 97.3633 -33.1055 C 104.004 -33.1055 108.789 -38.1348 108.789 -45.0195 C 108.789 -52.0996 103.955 -57.1777 97.4121 -57.1777 C 90.5762 -57.1777 85.9863 -52.3438 85.9863 -45.1172 C 85.9863 -38.1348 90.625 -33.1055 97.3633 -33.1055 Z"/>
  </g>
  <g id="Light-L" transform="matrix(1 0 0 1 1079.18 1556)">
   <path d="M 73.9258 27.4902 C 108.301 27.4902 136.621 -0.830078 136.621 -35.1562 C 136.621 -69.5312 108.252 -97.8516 73.9258 -97.8516 C 39.5508 -97.8516 11.2793 -69.5312 11.2793 -35.1562 C 11.2793 -0.830078 39.5996 27.4902 73.9258 27.4902 Z M 51.123 -7.32422 C 42.4805 -7.32422 35.6934 -12.5 33.8379 -18.457 C 33.6426 -19.1406 33.5449 -19.7266 33.5449 -20.5078 C 33.5449 -22.168 34.668 -23.3887 36.2793 -23.3887 C 37.7441 -23.3887 38.5254 -22.6074 39.1113 -20.9961 C 40.8691 -15.8691 45.459 -12.793 51.1719 -12.793 C 58.6426 -12.793 63.6719 -17.1875 63.6719 -23.291 C 63.6719 -29.1992 58.7891 -33.4473 51.8066 -33.4473 L 46.9238 -33.4473 C 45.3613 -33.4473 44.2871 -34.6191 44.2871 -36.1816 C 44.2871 -37.8906 45.4102 -38.9648 46.9238 -38.9648 L 51.3672 -38.9648 C 57.4707 -38.9648 61.8652 -43.1152 61.8652 -48.6816 C 61.8652 -54.1016 57.5684 -57.7637 51.2207 -57.7637 C 45.3125 -57.7637 41.3086 -54.5898 40.1367 -49.5605 C 39.6973 -47.8516 38.8672 -47.1191 37.4512 -47.1191 C 35.5957 -47.1191 34.6191 -48.3398 34.6191 -50.0977 C 34.6191 -50.7812 34.668 -51.416 34.8633 -52.1484 C 36.4746 -58.6914 43.1641 -63.2324 51.3184 -63.2324 C 60.9375 -63.2324 67.7734 -57.4707 67.7734 -49.3164 C 67.7734 -43.2129 63.3301 -37.5977 57.5684 -36.6211 L 57.5684 -36.377 C 64.4043 -35.6445 69.5801 -29.9805 69.5801 -23.0957 C 69.5801 -13.916 61.8652 -7.32422 51.123 -7.32422 Z M 95.2148 -7.32422 C 87.5488 -7.32422 81.9824 -11.7676 80.3711 -15.2832 C 79.9316 -16.2109 79.541 -17.1875 79.541 -18.0664 C 79.541 -19.6289 80.5664 -20.752 82.0312 -20.752 C 83.3496 -20.752 84.1797 -20.1172 84.9609 -18.6523 C 86.7188 -15.0879 90.625 -12.7441 95.2148 -12.7441 C 104.346 -12.7441 109.863 -21.0938 109.814 -36.7676 L 109.57 -36.7676 C 107.227 -31.1035 102.148 -27.3438 94.5801 -27.3438 C 85.3027 -27.3438 77.8809 -34.375 77.8809 -44.873 C 77.8809 -55.8105 85.3516 -63.2324 96.0938 -63.2324 C 107.812 -63.2324 115.283 -54.6875 115.283 -37.9395 C 115.283 -17.5293 108.252 -7.32422 95.2148 -7.32422 Z M 96.2402 -32.2754 C 103.564 -32.2754 108.936 -37.6953 108.936 -45.0684 C 108.936 -52.5391 103.516 -58.0078 96.3379 -58.0078 C 88.916 -58.0078 83.6914 -52.7832 83.6914 -45.2148 C 83.6914 -37.6953 88.8672 -32.2754 96.2402 -32.2754 Z"/>
  </g>
  <g id="Thin-L" transform="matrix(1 0 0 1 783.693 1556)">
   <path d="M 72.7051 26.3184 C 106.494 26.3184 134.18 -1.36719 134.18 -35.1074 C 134.18 -68.8965 106.494 -96.582 72.7051 -96.582 C 38.9648 -96.582 11.2793 -68.8965 11.2793 -35.1074 C 11.2793 -1.36719 38.9648 26.3184 72.7051 26.3184 Z M 49.7559 -7.71484 C 41.3086 -7.71484 34.7656 -12.6953 32.8613 -18.5059 C 32.666 -19.043 32.5195 -19.6289 32.5195 -20.3125 C 32.5195 -21.4844 33.252 -22.3633 34.5215 -22.3633 C 35.6445 -22.3633 36.1816 -21.7285 36.5723 -20.5078 C 38.3301 -14.9902 43.7012 -11.5723 49.7559 -11.5723 C 58.0566 -11.5723 63.623 -16.3574 63.623 -23.1445 C 63.623 -29.4922 58.0566 -34.3262 50.5371 -34.3262 L 44.9219 -34.3262 C 43.7988 -34.3262 43.0664 -35.0586 43.0664 -36.2305 C 43.0664 -37.4023 43.8477 -38.1348 44.9219 -38.1348 L 50 -38.1348 C 56.7383 -38.1348 61.7188 -42.8223 61.7188 -48.877 C 61.7188 -54.9316 56.8848 -58.9844 49.707 -58.9844 C 43.2129 -58.9844 38.623 -55.3223 37.6465 -50 C 37.4023 -48.6328 36.7188 -48.0957 35.6934 -48.0957 C 34.2285 -48.0957 33.6426 -49.0234 33.6426 -50.3418 C 33.6426 -50.8301 33.7402 -51.5137 33.8867 -52.0996 C 35.4492 -58.6914 42.1875 -62.793 49.7559 -62.793 C 59.1309 -62.793 65.918 -57.2266 65.918 -49.2676 C 65.918 -43.2129 61.3281 -37.5488 55.3711 -36.5234 L 55.3711 -36.377 C 62.3535 -35.5957 67.7246 -29.8828 67.7246 -23.0957 C 67.7246 -14.209 60.1562 -7.71484 49.7559 -7.71484 Z M 93.9453 -7.71484 C 87.3535 -7.71484 81.6406 -11.6699 79.5898 -15.1367 C 79.0527 -16.0645 78.5156 -17.1875 78.5156 -18.1152 C 78.5156 -19.1406 79.248 -19.9707 80.2734 -19.9707 C 81.2988 -19.9707 81.7871 -19.3359 82.3242 -18.1641 C 84.2285 -14.1113 88.8184 -11.4746 94.043 -11.4746 C 104.248 -11.4746 110.107 -20.2148 110.107 -37.793 L 110.01 -37.793 C 107.227 -31.2988 101.562 -27.6367 93.75 -27.6367 C 83.9844 -27.6367 76.8066 -35.1562 76.8066 -45.0195 C 76.8066 -55.4199 84.4727 -62.793 94.9219 -62.793 C 106.152 -62.793 113.818 -54.834 113.818 -38.5742 C 113.818 -17.7734 106.885 -7.71484 93.9453 -7.71484 Z M 94.8242 -31.1523 C 103.027 -31.1523 109.18 -37.1582 109.18 -45.166 C 109.18 -53.1738 102.93 -59.082 94.9707 -59.082 C 86.7188 -59.082 80.6641 -53.3691 80.6641 -45.3125 C 80.6641 -37.1582 86.5234 -31.1523 94.8242 -31.1523 Z"/>
  </g>
  <g id="Ultralight-L" transform="matrix(1 0 0 1 487.616 1556)">
   <path d="M 72.1191 25.7324 C 105.566 25.7324 132.91 -1.61133 132.91 -35.1074 C 132.91 -68.5547 105.566 -95.8984 72.1191 -95.8984 C 38.623 -95.8984 11.2793 -68.5547 11.2793 -35.1074 C 11.2793 -1.61133 38.623 25.7324 72.1191 25.7324 Z M 49.0723 -7.95898 C 40.7715 -7.95898 34.2773 -12.793 32.3242 -18.5547 C 32.1777 -18.9941 32.0312 -19.5801 32.0312 -20.166 C 32.0312 -21.0938 32.5684 -21.8262 33.5938 -21.8262 C 34.5703 -21.8262 35.0098 -21.2891 35.2539 -20.2637 C 37.0117 -14.5508 42.7734 -10.9375 49.0723 -10.9375 C 57.7637 -10.9375 63.623 -15.918 63.623 -23.0957 C 63.623 -29.6387 57.666 -34.7656 49.9023 -34.7656 L 43.8965 -34.7656 C 42.9688 -34.7656 42.4316 -35.3027 42.4316 -36.2305 C 42.4316 -37.1582 43.0664 -37.7441 43.8965 -37.7441 L 49.3164 -37.7441 C 56.3965 -37.7441 61.6699 -42.6758 61.6699 -48.9746 C 61.6699 -55.3223 56.543 -59.6191 48.9258 -59.6191 C 42.1387 -59.6191 37.2559 -55.7129 36.4258 -50.2441 C 36.1816 -49.0723 35.5957 -48.6328 34.8145 -48.6328 C 33.5449 -48.6328 33.1543 -49.3652 33.1543 -50.4395 C 33.1543 -50.8789 33.252 -51.5137 33.3984 -52.0508 C 34.9121 -58.6914 41.6992 -62.5977 48.9258 -62.5977 C 58.2031 -62.5977 64.9414 -57.0801 64.9414 -49.2676 C 64.9414 -43.2129 60.3516 -37.5 54.248 -36.4258 L 54.248 -36.377 C 61.2793 -35.5957 66.7969 -29.8828 66.7969 -23.1445 C 66.7969 -14.3555 59.2773 -7.95898 49.0723 -7.95898 Z M 93.3105 -7.95898 C 87.207 -7.95898 81.4941 -11.6211 79.1992 -15.0391 C 78.6133 -16.0156 78.0273 -17.1875 78.0273 -18.1641 C 78.0273 -18.8965 78.5645 -19.5312 79.3457 -19.5312 C 80.2734 -19.5312 80.5664 -18.8965 81.0059 -17.9688 C 82.959 -13.623 87.8906 -10.8398 93.4082 -10.8398 C 104.248 -10.8398 110.254 -19.7754 110.254 -38.3301 L 110.205 -38.3301 C 107.227 -31.3965 101.27 -27.7832 93.3594 -27.7832 C 83.3496 -27.7832 76.2207 -35.5469 76.2207 -45.1172 C 76.2207 -55.1758 83.9844 -62.5977 94.2871 -62.5977 C 105.273 -62.5977 113.037 -54.9316 113.037 -38.8672 C 113.037 -17.8711 106.152 -7.95898 93.3105 -7.95898 Z M 94.0918 -30.5664 C 102.734 -30.5664 109.277 -36.9141 109.277 -45.166 C 109.277 -53.5156 102.637 -59.668 94.2383 -59.668 C 85.5957 -59.668 79.1504 -53.6621 79.1504 -45.3613 C 79.1504 -36.9141 85.3516 -30.5664 94.0918 -30.5664 Z"/>
  </g>
  <g id="Black-M" transform="matrix(1 0 0 1 2870.97 1126)">
   <path d="M 62.4023 18.457 C 91.9922 18.457 116.113 -5.61523 116.113 -35.2051 C 116.113 -64.7949 91.9922 -88.8672 62.4023 -88.8672 C 32.8125 -88.8672 8.74023 -64.7949 8.74023 -35.2051 C 8.74023 -5.61523 32.8125 18.457 62.4023 18.457 Z M 47.7539 -16.2109 C 42.2852 -16.2109 37.1582 -19.6777 36.0352 -23.3398 C 35.791 -24.2188 35.5957 -25 35.5957 -25.8789 C 35.5957 -28.7598 37.9395 -30.2734 39.8438 -30.2734 C 41.7969 -30.2734 43.1641 -29.541 44.1406 -28.1738 C 45.2637 -26.6113 46.7285 -25.9277 47.9492 -25.9277 C 49.3164 -25.9277 50.1953 -27.002 50.1953 -28.125 C 50.1953 -29.5898 49.3164 -30.4688 47.7051 -30.4688 C 44.2383 -30.4688 42.8223 -32.4707 42.8223 -35.3516 C 42.8223 -38.1836 44.6289 -40.1855 47.7051 -40.1855 C 49.3164 -40.1855 49.9023 -41.5039 49.9023 -42.5293 C 49.9023 -44.1406 48.877 -45.1172 47.6562 -45.1172 C 46.3379 -45.1172 45.3613 -44.3848 44.2383 -42.8711 C 43.3594 -41.5527 42.041 -40.625 40.0391 -40.625 C 37.6465 -40.625 35.9863 -42.1875 35.9863 -45.0195 C 35.9863 -45.9473 36.1816 -46.8262 36.7188 -48.0469 C 37.8906 -50.6348 41.8945 -54.2969 47.7539 -54.2969 C 55.4688 -54.2969 60.3516 -50.3418 60.3516 -44.1406 C 60.3516 -40.5273 57.8613 -37.1094 54.4922 -36.5723 L 54.4922 -36.1328 C 58.3984 -35.8398 60.9863 -32.0312 60.9863 -27.4414 C 60.9863 -20.5566 55.9082 -16.2109 47.7539 -16.2109 Z M 76.8066 -16.2109 C 71.3867 -16.2109 68.0664 -18.4082 66.6992 -20.8984 C 66.0645 -22.0215 65.8203 -23.0469 65.8203 -23.9746 C 65.8203 -26.2695 67.4805 -28.0273 70.1172 -28.0273 C 71.2891 -28.0273 72.6074 -27.5391 73.8281 -26.3184 C 74.707 -25.4395 75.4395 -25.0977 76.709 -25.0977 C 80.6152 -25.0977 81.4453 -30.3223 81.543 -34.3262 L 81.3477 -34.3262 C 80.3711 -31.25 77.8809 -29.7363 74.6582 -29.7363 C 68.457 -29.7363 64.6973 -34.4238 64.6973 -41.2109 C 64.6973 -49.4141 69.9219 -54.2969 77.3926 -54.2969 C 86.8652 -54.2969 90.8691 -47.168 90.8691 -36.4258 C 90.8691 -23.7305 85.9375 -16.2109 76.8066 -16.2109 Z M 77.5391 -37.8906 C 79.3945 -37.8906 80.7129 -39.4531 80.7129 -41.7969 C 80.7129 -44.1406 79.3945 -45.6543 77.5391 -45.6543 C 75.8789 -45.6543 74.5605 -44.0918 74.5605 -41.7969 C 74.5605 -39.4531 75.8789 -37.8906 77.5391 -37.8906 Z"/>
  </g>
  <g id="Heavy-M" transform="matrix(1 0 0 1 2575.19 1126)">
   <path d="M 61.5234 17.5781 C 90.5273 17.5781 114.258 -6.15234 114.258 -35.2051 C 114.258 -64.2578 90.5273 -87.9883 61.4746 -87.9883 C 32.4707 -87.9883 8.74023 -64.2578 8.74023 -35.2051 C 8.74023 -6.15234 32.4707 17.5781 61.5234 17.5781 Z M 46.1914 -15.4785 C 40.332 -15.4785 35.1562 -19.1406 33.9844 -23.0469 C 33.7402 -23.877 33.5938 -24.6094 33.5938 -25.4395 C 33.5938 -28.0762 35.6445 -29.541 37.5 -29.541 C 39.3555 -29.541 40.625 -28.7598 41.4551 -27.3438 C 42.627 -25.293 44.4336 -24.3164 46.3379 -24.3164 C 48.5352 -24.3164 50 -25.8301 50 -27.6367 C 50 -29.7363 48.584 -31.0547 46.2402 -31.0547 L 45.5078 -31.0547 C 42.4805 -31.0547 41.1133 -32.9102 41.1133 -35.498 C 41.1133 -38.0859 42.7734 -39.8926 45.5078 -39.8926 L 46.1914 -39.8926 C 48.3887 -39.8926 49.5117 -41.5039 49.5117 -43.2129 C 49.5117 -45.2637 48.0469 -46.582 46.1426 -46.582 C 44.1895 -46.582 42.8711 -45.6055 41.748 -43.5547 C 40.9668 -42.1875 39.7461 -41.3086 37.8418 -41.3086 C 35.5957 -41.3086 34.0332 -42.7734 34.0332 -45.3613 C 34.0332 -46.2402 34.1797 -47.0215 34.668 -48.0957 C 35.8887 -51.3184 40.1367 -55.0293 46.2402 -55.0293 C 53.9551 -55.0293 58.9355 -50.9277 58.9355 -44.6289 C 58.9355 -40.7715 56.25 -37.1094 52.6855 -36.5234 L 52.6855 -36.1328 C 56.8848 -35.791 59.7656 -31.8359 59.7656 -27.0508 C 59.7656 -20.0195 54.4434 -15.4785 46.1914 -15.4785 Z M 76.416 -15.4785 C 70.6055 -15.4785 67.041 -18.1152 65.8691 -20.6543 C 65.332 -21.6797 65.0879 -22.6074 65.0879 -23.4863 C 65.0879 -25.6348 66.6016 -27.2949 68.9941 -27.2949 C 70.166 -27.2949 71.4355 -26.7578 72.5586 -25.4883 C 73.5352 -24.3164 74.6094 -23.6816 76.3184 -23.6816 C 80.6641 -23.6816 82.2754 -29.1016 82.2754 -34.5703 L 82.0801 -34.5703 C 81.0059 -31.3965 78.3203 -29.541 74.5605 -29.541 C 68.2129 -29.541 63.916 -34.2773 63.916 -41.5039 C 63.916 -49.9023 69.2383 -55.0293 77.002 -55.0293 C 86.4746 -55.0293 90.8691 -47.8516 90.8691 -36.5234 C 90.8691 -23.1445 85.791 -15.4785 76.416 -15.4785 Z M 77.1973 -37.0117 C 79.7363 -37.0117 81.543 -39.0625 81.543 -42.041 C 81.543 -45.0684 79.6875 -47.1191 77.1973 -47.1191 C 74.7559 -47.1191 72.998 -45.0684 72.998 -42.041 C 72.998 -39.0625 74.7559 -37.0117 77.1973 -37.0117 Z"/>
  </g>
  <g id="Bold-M" transform="matrix(1 0 0 1 2279.5 1126)">
   <path d="M 60.498 16.5039 C 88.8672 16.5039 112.207 -6.78711 112.207 -35.2051 C 112.207 -63.623 88.8672 -86.9629 60.4492 -86.9629 C 32.0312 -86.9629 8.74023 -63.623 8.74023 -35.2051 C 8.74023 -6.78711 32.0801 16.5039 60.498 16.5039 Z M 44.3848 -14.6973 C 38.1348 -14.6973 32.9102 -18.5547 31.6406 -22.7539 C 31.4453 -23.4863 31.2988 -24.1699 31.2988 -24.9512 C 31.2988 -27.2949 33.1055 -28.6621 34.9121 -28.6621 C 36.5723 -28.6621 37.6953 -27.9297 38.5254 -26.416 C 39.7461 -23.8281 41.8945 -22.5098 44.5312 -22.5098 C 47.6562 -22.5098 49.8047 -24.5605 49.8047 -27.0996 C 49.8047 -29.9316 47.8027 -31.7383 44.5801 -31.7383 L 43.0664 -31.7383 C 40.4785 -31.7383 39.209 -33.3984 39.209 -35.6445 C 39.209 -37.9883 40.6738 -39.5508 43.0664 -39.5508 L 44.4336 -39.5508 C 47.3145 -39.5508 49.0234 -41.5527 49.0234 -43.9941 C 49.0234 -46.582 47.0703 -48.291 44.4336 -48.291 C 41.7969 -48.291 40.0391 -46.9238 38.916 -44.3848 C 38.2324 -42.8711 37.1582 -42.041 35.4004 -42.041 C 33.3008 -42.041 31.8848 -43.457 31.8848 -45.752 C 31.8848 -46.582 31.9824 -47.2656 32.373 -48.1934 C 33.5938 -52.002 38.1348 -55.8105 44.5801 -55.8105 C 52.2949 -55.8105 57.373 -51.5625 57.373 -45.166 C 57.373 -40.9668 54.4922 -37.1094 50.6836 -36.5234 L 50.6836 -36.1328 C 55.2246 -35.6934 58.3984 -31.6406 58.3984 -26.6113 C 58.3984 -19.4824 52.832 -14.6973 44.3848 -14.6973 Z M 75.9766 -14.6973 C 69.7266 -14.6973 65.9668 -17.7734 64.8926 -20.4102 C 64.4531 -21.2891 64.2578 -22.168 64.2578 -22.9004 C 64.2578 -24.9512 65.625 -26.416 67.7246 -26.416 C 68.9941 -26.416 70.1172 -25.9277 71.1426 -24.5605 C 72.2168 -22.998 73.7305 -22.0703 75.8789 -22.0703 C 80.7617 -22.0703 83.1543 -27.7344 83.1543 -34.8145 L 82.9102 -34.8145 C 81.7383 -31.543 78.8086 -29.2969 74.4141 -29.2969 C 67.9688 -29.2969 63.0859 -34.082 63.0859 -41.8457 C 63.0859 -50.4883 68.5059 -55.8105 76.5625 -55.8105 C 86.084 -55.8105 90.8203 -48.6328 90.8203 -36.5723 C 90.8203 -22.5098 85.6445 -14.6973 75.9766 -14.6973 Z M 76.8066 -35.9863 C 80.127 -35.9863 82.4707 -38.5742 82.4707 -42.2852 C 82.4707 -46.0938 80.0781 -48.7305 76.8066 -48.7305 C 73.5352 -48.7305 71.2402 -46.1426 71.2402 -42.334 C 71.2402 -38.5742 73.5352 -35.9863 76.8066 -35.9863 Z"/>
  </g>
  <g id="Semibold-M" transform="matrix(1 0 0 1 1983.5 1126)">
   <path d="M 59.7656 15.8203 C 87.7441 15.8203 110.791 -7.22656 110.791 -35.2051 C 110.791 -63.1836 87.6953 -86.2793 59.7656 -86.2793 C 31.7871 -86.2793 8.74023 -63.1836 8.74023 -35.2051 C 8.74023 -7.22656 31.7871 15.8203 59.7656 15.8203 Z M 43.1641 -14.1602 C 36.6699 -14.1602 31.3477 -18.1152 30.0293 -22.5098 C 29.834 -23.2422 29.7363 -23.8281 29.7363 -24.6094 C 29.7363 -26.7578 31.2988 -28.125 33.1055 -28.125 C 34.7168 -28.125 35.7422 -27.3438 36.4746 -25.7812 C 37.7441 -22.8516 40.1367 -21.2402 43.2617 -21.2402 C 47.0703 -21.2402 49.6582 -23.6328 49.6582 -26.7578 C 49.6582 -30.0293 47.2656 -32.1777 43.457 -32.1777 L 41.3574 -32.1777 C 39.1113 -32.1777 37.8906 -33.6914 37.8906 -35.7422 C 37.8906 -37.8906 39.2578 -39.3555 41.3574 -39.3555 L 43.2617 -39.3555 C 46.5332 -39.3555 48.6816 -41.6016 48.6816 -44.4824 C 48.6816 -47.4609 46.4355 -49.4141 43.2617 -49.4141 C 40.1367 -49.4141 38.1348 -47.8516 37.0117 -44.9219 C 36.377 -43.3594 35.4004 -42.5293 33.7402 -42.5293 C 31.7383 -42.5293 30.4199 -43.8965 30.4199 -45.9961 C 30.4199 -46.8262 30.4688 -47.4121 30.7617 -48.291 C 32.0312 -52.5391 36.8164 -56.3965 43.4082 -56.3965 C 51.123 -56.3965 56.2988 -52.002 56.2988 -45.5566 C 56.2988 -41.1621 53.2227 -37.1094 49.2676 -36.4746 L 49.2676 -36.1328 C 54.0527 -35.6934 57.4707 -31.4941 57.4707 -26.3184 C 57.4707 -19.0918 51.709 -14.1602 43.1641 -14.1602 Z M 75.6348 -14.1602 C 69.1406 -14.1602 65.1855 -17.5293 64.209 -20.2637 C 63.8672 -21.0449 63.6719 -21.8262 63.6719 -22.5098 C 63.6719 -24.4629 64.9414 -25.8789 66.8457 -25.8789 C 68.1641 -25.8789 69.2383 -25.3418 70.2148 -23.9258 C 71.3379 -22.1191 73.1445 -20.9961 75.5371 -20.9961 C 80.8105 -20.9961 83.7891 -26.7578 83.7402 -35.0098 L 83.4473 -35.0098 C 82.2266 -31.6406 79.1504 -29.1016 74.2676 -29.1016 C 67.7734 -29.1016 62.4512 -33.9844 62.4512 -42.0898 C 62.4512 -50.8789 67.9688 -56.3965 76.2207 -56.3965 C 85.791 -56.3965 90.8203 -49.1699 90.8203 -36.6211 C 90.8203 -22.0215 85.498 -14.1602 75.6348 -14.1602 Z M 76.5625 -35.3027 C 80.3711 -35.3027 83.1055 -38.2812 83.1055 -42.4805 C 83.1055 -46.7773 80.3223 -49.8047 76.5625 -49.8047 C 72.6562 -49.8047 70.0684 -46.9238 70.0684 -42.5293 C 70.0684 -38.2812 72.7051 -35.3027 76.5625 -35.3027 Z"/>
  </g>
  <g id="Medium-M" transform="matrix(1 0 0 1 1687.3 1126)">
   <path d="M 59.2285 15.2832 C 86.9141 15.2832 109.766 -7.56836 109.766 -35.2051 C 109.766 -62.8906 86.8652 -85.7422 59.1797 -85.7422 C 31.543 -85.7422 8.74023 -62.8906 8.74023 -35.2051 C 8.74023 -7.56836 31.5918 15.2832 59.2285 15.2832 Z M 42.2363 -13.7207 C 35.5469 -13.7207 30.127 -17.8223 28.8574 -22.3633 C 28.6621 -23.0469 28.5645 -23.6328 28.5645 -24.3652 C 28.5645 -26.3672 29.9805 -27.6855 31.7383 -27.6855 C 33.252 -27.6855 34.2285 -26.9043 34.9121 -25.293 C 36.2305 -22.0703 38.7695 -20.3125 42.2852 -20.3125 C 46.6309 -20.3125 49.5605 -22.998 49.5605 -26.4648 C 49.5605 -30.127 46.8262 -32.5195 42.5781 -32.5195 L 40.0879 -32.5195 C 38.0859 -32.5195 36.9141 -33.9355 36.9141 -35.791 C 36.9141 -37.8418 38.1836 -39.1602 40.0879 -39.1602 L 42.3828 -39.1602 C 45.9961 -39.1602 48.4375 -41.6016 48.4375 -44.9219 C 48.4375 -48.0957 45.9473 -50.293 42.3828 -50.293 C 38.8672 -50.293 36.6699 -48.584 35.5469 -45.3125 C 34.9609 -43.7012 34.0332 -42.9199 32.4219 -42.9199 C 30.5664 -42.9199 29.2969 -44.2383 29.2969 -46.2402 C 29.2969 -46.9727 29.3457 -47.5586 29.541 -48.3398 C 30.8594 -52.8809 35.791 -56.7871 42.5293 -56.7871 C 50.1953 -56.7871 55.5176 -52.2949 55.5176 -45.8496 C 55.5176 -41.2598 52.2949 -37.1094 48.2422 -36.4746 L 48.2422 -36.1328 C 53.1738 -35.6445 56.7383 -31.3965 56.7383 -26.0742 C 56.7383 -18.7988 50.8301 -13.7207 42.2363 -13.7207 Z M 75.3906 -13.7207 C 68.6523 -13.7207 64.5996 -17.3828 63.7207 -20.1172 C 63.4277 -20.8496 63.2324 -21.582 63.2324 -22.2168 C 63.2324 -24.0723 64.4531 -25.4395 66.2109 -25.4395 C 67.5293 -25.4395 68.5547 -24.9023 69.4336 -23.4863 C 70.6543 -21.4844 72.6562 -20.166 75.293 -20.166 C 80.8594 -20.166 84.2285 -26.0742 84.1797 -35.1562 L 83.8867 -35.1562 C 82.6172 -31.7383 79.4434 -29.0039 74.2188 -29.0039 C 67.627 -29.0039 62.0117 -33.8867 62.0117 -42.2852 C 62.0117 -51.1719 67.5781 -56.7871 76.0254 -56.7871 C 85.5469 -56.7871 90.8203 -49.6094 90.8203 -36.6699 C 90.8203 -21.6797 85.4492 -13.7207 75.3906 -13.7207 Z M 76.3184 -34.7656 C 80.5664 -34.7656 83.5938 -38.0371 83.5938 -42.5781 C 83.5938 -47.3145 80.5176 -50.6836 76.3672 -50.6836 C 72.0215 -50.6836 69.1406 -47.5098 69.1406 -42.6758 C 69.1406 -38.0371 72.0703 -34.7656 76.3184 -34.7656 Z"/>
  </g>
  <g id="Regular-M" transform="matrix(1 0 0 1 1391.3 1126)">
   <path d="M 58.5449 14.5508 C 85.791 14.5508 108.35 -8.00781 108.35 -35.2539 C 108.35 -62.4512 85.7422 -85.0586 58.4961 -85.0586 C 31.2988 -85.0586 8.74023 -62.4512 8.74023 -35.2539 C 8.74023 -8.00781 31.3477 14.5508 58.5449 14.5508 Z M 41.0156 -13.1836 C 34.0332 -13.1836 28.6133 -17.4316 27.2461 -22.168 C 27.0996 -22.8027 27.002 -23.291 27.002 -24.0234 C 27.002 -25.8301 28.2227 -27.0996 29.9316 -27.0996 C 31.3965 -27.0996 32.2266 -26.3184 32.9102 -24.6582 C 34.2773 -21.0938 37.0605 -19.043 41.0645 -19.043 C 45.9961 -19.043 49.4141 -22.0703 49.4141 -26.0742 C 49.4141 -30.2734 46.2891 -33.0078 41.4551 -33.0078 L 38.4277 -33.0078 C 36.7188 -33.0078 35.5957 -34.2773 35.5957 -35.8887 C 35.5957 -37.7441 36.7676 -38.916 38.4277 -38.916 L 41.2109 -38.916 C 45.2637 -38.916 48.0957 -41.6504 48.0957 -45.4102 C 48.0957 -48.9746 45.2637 -51.4648 41.2598 -51.4648 C 37.2559 -51.4648 34.7168 -49.5117 33.5938 -45.8496 C 33.1543 -44.1895 32.2754 -43.4082 30.7617 -43.4082 C 29.0039 -43.4082 27.832 -44.6777 27.832 -46.4844 C 27.832 -47.2168 27.832 -47.7051 27.9785 -48.3887 C 29.2969 -53.418 34.4238 -57.3242 41.4062 -57.3242 C 49.0723 -57.3242 54.4434 -52.7344 54.4434 -46.1914 C 54.4434 -41.4551 51.0742 -37.1094 46.8262 -36.4258 L 46.8262 -36.1328 C 52.0508 -35.5957 55.8105 -31.25 55.8105 -25.7812 C 55.8105 -18.4082 49.707 -13.1836 41.0156 -13.1836 Z M 75.0977 -13.1836 C 68.0664 -13.1836 63.8672 -17.1387 63.0371 -19.9707 C 62.8418 -20.6055 62.6465 -21.2891 62.6465 -21.8262 C 62.6465 -23.584 63.7695 -24.8535 65.332 -24.8535 C 66.6992 -24.8535 67.6758 -24.3164 68.5059 -22.8516 C 69.7266 -20.6055 72.0703 -19.043 75 -19.043 C 80.957 -19.043 84.8633 -25.1465 84.7656 -35.3516 L 84.4727 -35.3516 C 83.1055 -31.8359 79.7852 -28.8086 74.1211 -28.8086 C 67.4805 -28.8086 61.4258 -33.7402 61.4258 -42.5293 C 61.4258 -51.5625 67.0898 -57.3242 75.6836 -57.3242 C 85.2539 -57.3242 90.8203 -50.1465 90.8203 -36.7188 C 90.8203 -21.2402 85.3027 -13.1836 75.0977 -13.1836 Z M 76.0742 -34.082 C 80.8594 -34.082 84.2285 -37.6953 84.2285 -42.7734 C 84.2285 -47.998 80.8105 -51.7578 76.0742 -51.7578 C 71.1426 -51.7578 67.9688 -48.2422 67.9688 -42.8711 C 67.9688 -37.6953 71.1914 -34.082 76.0742 -34.082 Z"/>
  </g>
  <g id="Light-M" transform="matrix(1 0 0 1 1095.42 1126)">
   <path d="M 57.7148 13.7695 C 84.5215 13.7695 106.689 -8.39844 106.689 -35.2051 C 106.689 -62.0117 84.5215 -84.1797 57.666 -84.1797 C 30.8594 -84.1797 8.74023 -62.0117 8.74023 -35.2051 C 8.74023 -8.39844 30.9082 13.7695 57.7148 13.7695 Z M 40.0879 -13.4766 C 33.3008 -13.4766 27.9785 -17.5293 26.5625 -22.2168 C 26.416 -22.7539 26.3184 -23.2422 26.3184 -23.877 C 26.3184 -25.3418 27.2949 -26.416 28.7109 -26.416 C 29.9805 -26.416 30.6641 -25.7324 31.1523 -24.3652 C 32.5195 -20.5078 35.8398 -18.2129 40.1367 -18.2129 C 45.6055 -18.2129 49.3652 -21.5332 49.3652 -26.0254 C 49.3652 -30.4688 45.8008 -33.5938 40.5762 -33.5938 L 37.0605 -33.5938 C 35.6934 -33.5938 34.7656 -34.5703 34.7656 -35.9375 C 34.7656 -37.4512 35.6934 -38.3789 37.0605 -38.3789 L 40.2832 -38.3789 C 44.7754 -38.3789 47.998 -41.4551 47.998 -45.5566 C 47.998 -49.5605 44.8242 -52.2949 40.2344 -52.2949 C 35.8398 -52.2949 32.9102 -50 31.9336 -46.1914 C 31.543 -44.7266 30.8105 -44.0918 29.5898 -44.0918 C 28.0762 -44.0918 27.1484 -45.1172 27.1484 -46.6797 C 27.1484 -47.2656 27.1973 -47.7539 27.3438 -48.3398 C 28.6133 -53.418 33.7891 -57.0801 40.332 -57.0801 C 47.8516 -57.0801 53.1738 -52.5879 53.1738 -46.1914 C 53.1738 -41.4551 49.7559 -37.0605 45.3613 -36.377 L 45.3613 -36.1328 C 50.6348 -35.5957 54.5898 -31.2012 54.5898 -25.8301 C 54.5898 -18.6035 48.5352 -13.4766 40.0879 -13.4766 Z M 74.2188 -13.4766 C 67.9199 -13.4766 63.623 -17.0898 62.5488 -19.8242 C 62.2559 -20.5078 61.9629 -21.2891 61.9629 -21.875 C 61.9629 -23.291 62.8906 -24.3164 64.1602 -24.3164 C 65.2832 -24.3164 66.0645 -23.7793 66.6992 -22.5586 C 68.0664 -19.9219 70.8496 -18.2129 74.2188 -18.2129 C 80.8594 -18.2129 85.0586 -24.5605 84.9609 -36.0352 L 84.7656 -36.0352 C 83.1055 -31.9336 79.3945 -29.0039 73.584 -29.0039 C 66.5527 -29.0039 60.6934 -34.2773 60.6934 -42.627 C 60.6934 -51.3184 66.4551 -57.0801 74.9023 -57.0801 C 84.1309 -57.0801 89.8438 -50.2441 89.8438 -37.1582 C 89.8438 -21.4355 84.375 -13.4766 74.2188 -13.4766 Z M 75.0977 -33.3008 C 80.4688 -33.3008 84.375 -37.3535 84.375 -42.8223 C 84.375 -48.4375 80.4199 -52.4902 75.1465 -52.4902 C 69.6777 -52.4902 65.918 -48.6328 65.918 -42.9199 C 65.918 -37.3535 69.6289 -33.3008 75.0977 -33.3008 Z"/>
  </g>
  <g id="Thin-M" transform="matrix(1 0 0 1 799.806 1126)">
   <path d="M 56.6406 12.7441 C 82.9102 12.7441 104.492 -8.83789 104.492 -35.1562 C 104.492 -61.4746 82.9102 -83.0566 56.5918 -83.0566 C 30.3223 -83.0566 8.74023 -61.4746 8.74023 -35.1562 C 8.74023 -8.83789 30.3223 12.7441 56.6406 12.7441 Z M 38.8672 -13.8184 C 32.2754 -13.8184 27.1484 -17.7246 25.6836 -22.2656 C 25.5371 -22.7051 25.4395 -23.1445 25.4395 -23.6816 C 25.4395 -24.707 26.0742 -25.4883 27.1484 -25.4883 C 28.0762 -25.4883 28.5645 -24.9512 28.9062 -23.9258 C 30.2734 -19.7266 34.2285 -17.1387 38.8672 -17.1387 C 45.1172 -17.1387 49.3164 -20.8008 49.3164 -25.8789 C 49.3164 -30.7129 45.1172 -34.3262 39.4531 -34.3262 L 35.2539 -34.3262 C 34.2773 -34.3262 33.6426 -35.0098 33.6426 -35.9863 C 33.6426 -37.0117 34.3262 -37.6465 35.2539 -37.6465 L 39.0625 -37.6465 C 44.1406 -37.6465 47.9004 -41.1621 47.9004 -45.752 C 47.9004 -50.293 44.2383 -53.3691 38.8672 -53.3691 C 33.9355 -53.3691 30.5176 -50.6348 29.7363 -46.582 C 29.4922 -45.459 28.9062 -45.0195 28.0273 -45.0195 C 26.8066 -45.0195 26.2695 -45.752 26.2695 -46.875 C 26.2695 -47.3145 26.3672 -47.8027 26.4648 -48.291 C 27.6855 -53.418 32.9102 -56.6895 38.8672 -56.6895 C 46.1914 -56.6895 51.4648 -52.3438 51.4648 -46.1426 C 51.4648 -41.4551 47.9492 -37.0117 43.4082 -36.2305 L 43.4082 -36.1328 C 48.7793 -35.5469 52.8809 -31.1035 52.8809 -25.8301 C 52.8809 -18.8477 46.9727 -13.8184 38.8672 -13.8184 Z M 73.0957 -13.8184 C 67.7246 -13.8184 63.3301 -16.9922 61.8652 -19.6777 C 61.4746 -20.4102 61.084 -21.2402 61.084 -21.9727 C 61.084 -22.8516 61.7188 -23.584 62.5977 -23.584 C 63.4766 -23.584 63.916 -23.0469 64.3555 -22.1191 C 65.8203 -19.0918 69.1895 -17.0898 73.1445 -17.0898 C 80.8105 -17.0898 85.3027 -23.7793 85.2539 -37.0117 L 85.1562 -37.0117 C 83.1055 -32.1289 78.8574 -29.2969 72.8516 -29.2969 C 65.3809 -29.2969 59.7168 -35.0098 59.7168 -42.7734 C 59.7168 -50.9277 65.6738 -56.6895 73.8281 -56.6895 C 82.6172 -56.6895 88.5254 -50.3906 88.5254 -37.6953 C 88.5254 -21.6309 83.1055 -13.8184 73.0957 -13.8184 Z M 73.7793 -32.3242 C 79.9805 -32.3242 84.5703 -36.8652 84.5703 -42.9199 C 84.5703 -49.0234 79.8828 -53.5156 73.877 -53.5156 C 67.6758 -53.5156 63.1836 -49.1699 63.1836 -43.0176 C 63.1836 -36.8652 67.5781 -32.3242 73.7793 -32.3242 Z"/>
  </g>
  <g id="Ultralight-M" transform="matrix(1 0 0 1 503.656 1126)">
   <path d="M 56.0547 12.207 C 82.0801 12.207 103.369 -9.08203 103.369 -35.1562 C 103.369 -61.1816 82.0801 -82.4707 56.0547 -82.4707 C 30.0293 -82.4707 8.74023 -61.1816 8.74023 -35.1562 C 8.74023 -9.08203 30.0293 12.207 56.0547 12.207 Z M 38.2324 -14.0137 C 31.7383 -14.0137 26.709 -17.8223 25.1953 -22.3145 C 25.0977 -22.6562 24.9512 -23.0957 24.9512 -23.584 C 24.9512 -24.4141 25.4395 -25 26.3184 -25 C 27.0996 -25 27.4902 -24.5605 27.7344 -23.7305 C 29.1016 -19.3359 33.3984 -16.6016 38.2324 -16.6016 C 44.873 -16.6016 49.3164 -20.4102 49.3164 -25.8301 C 49.3164 -30.8594 44.7754 -34.7168 38.8672 -34.7168 L 34.3262 -34.7168 C 33.5449 -34.7168 33.0566 -35.2051 33.0566 -35.9863 C 33.0566 -36.8164 33.5938 -37.3047 34.3262 -37.3047 L 38.4277 -37.3047 C 43.7988 -37.3047 47.8027 -41.0645 47.8027 -45.8496 C 47.8027 -50.6836 43.9453 -53.9551 38.1836 -53.9551 C 32.959 -53.9551 29.248 -50.9766 28.6133 -46.8262 C 28.418 -45.8008 27.9297 -45.459 27.2461 -45.459 C 26.2207 -45.459 25.8301 -46.0449 25.8301 -46.9727 C 25.8301 -47.3633 25.9277 -47.8516 26.0254 -48.291 C 27.1973 -53.418 32.4707 -56.4941 38.1836 -56.4941 C 45.3613 -56.4941 50.6348 -52.1973 50.6348 -46.0938 C 50.6348 -41.4551 47.0703 -37.0117 42.3828 -36.1816 L 42.3828 -36.1328 C 47.8027 -35.498 52.0508 -31.1035 52.0508 -25.8301 C 52.0508 -18.9941 46.1914 -14.0137 38.2324 -14.0137 Z M 72.5098 -14.0137 C 67.627 -14.0137 63.1836 -16.9434 61.5234 -19.6289 C 61.084 -20.3613 60.5957 -21.2402 60.5957 -21.9727 C 60.5957 -22.6562 61.084 -23.1934 61.7676 -23.1934 C 62.5 -23.1934 62.793 -22.7051 63.1836 -21.9238 C 64.6973 -18.6523 68.3594 -16.5039 72.5586 -16.5039 C 80.7617 -16.5039 85.4004 -23.3887 85.4004 -37.5 L 85.3516 -37.5 C 83.1055 -32.2266 78.5645 -29.3945 72.4609 -29.3945 C 64.7949 -29.3945 59.2285 -35.3516 59.2285 -42.8711 C 59.2285 -50.7812 65.2344 -56.4941 73.2422 -56.4941 C 81.8359 -56.4941 87.8418 -50.4883 87.8418 -37.9395 C 87.8418 -21.7285 82.4707 -14.0137 72.5098 -14.0137 Z M 73.1445 -31.7871 C 79.6875 -31.7871 84.668 -36.6211 84.668 -42.9199 C 84.668 -49.3164 79.6387 -54.0039 73.2422 -54.0039 C 66.6992 -54.0039 61.7676 -49.4141 61.7676 -43.0664 C 61.7676 -36.6211 66.5039 -31.7871 73.1445 -31.7871 Z"/>
  </g>
  <g id="Black-S" transform="matrix(1 0 0 1 2884.57 696)">
   <path d="M 48.8281 6.78711 C 71.9727 6.78711 90.8203 -12.0605 90.8203 -35.2051 C 90.8203 -58.3496 71.9727 -77.1973 48.8281 -77.1973 C 25.6836 -77.1973 6.83594 -58.3496 6.83594 -35.2051 C 6.83594 -12.0605 25.6836 6.78711 48.8281 6.78711 Z M 37.3047 -20.2637 C 32.959 -20.2637 28.9551 -22.998 28.0762 -25.8789 C 27.8809 -26.5625 27.7344 -27.1973 27.7344 -27.8809 C 27.7344 -30.127 29.541 -31.2988 31.0547 -31.2988 C 32.5684 -31.2988 33.6426 -30.7129 34.375 -29.6387 C 35.2539 -28.3691 36.4258 -27.832 37.4512 -27.832 C 38.5742 -27.832 39.3066 -28.7109 39.3066 -29.6387 C 39.3066 -30.8105 38.5742 -31.543 37.2559 -31.543 L 37.207 -31.543 C 34.5215 -31.543 33.3984 -33.1055 33.3984 -35.3516 C 33.3984 -37.5488 34.8145 -39.1113 37.207 -39.1113 L 37.2559 -39.1113 C 38.5742 -39.1113 39.0625 -40.1367 39.0625 -41.0156 C 39.0625 -42.2852 38.2324 -43.0664 37.207 -43.0664 C 36.1328 -43.0664 35.3516 -42.4805 34.4727 -41.2598 C 33.7891 -40.2344 32.7637 -39.502 31.2012 -39.502 C 29.3457 -39.502 28.0273 -40.7227 28.0273 -42.9199 C 28.0273 -43.6523 28.1738 -44.3359 28.6133 -45.2637 C 29.541 -47.3633 32.666 -50.2441 37.3047 -50.2441 C 43.3594 -50.2441 47.168 -47.1191 47.168 -42.2363 C 47.168 -39.4043 45.2148 -36.7188 42.5781 -36.2793 L 42.5781 -35.9375 C 45.6543 -35.6934 47.7051 -32.7148 47.7051 -29.1016 C 47.7051 -23.6816 43.7012 -20.2637 37.3047 -20.2637 Z M 60.1562 -20.2637 C 55.8594 -20.2637 53.2227 -22.0215 52.1973 -23.9746 C 51.709 -24.8535 51.5137 -25.6348 51.5137 -26.3672 C 51.5137 -28.1738 52.7832 -29.541 54.834 -29.541 C 55.7617 -29.541 56.7871 -29.1504 57.7637 -28.1738 C 58.4473 -27.4902 59.0332 -27.1973 60.0586 -27.1973 C 63.1348 -27.1973 63.8672 -31.2988 63.916 -34.5215 L 63.7695 -34.5215 C 62.9883 -32.1289 61.0352 -30.9082 58.4961 -30.9082 C 53.6133 -30.9082 50.6348 -34.5703 50.6348 -39.9414 C 50.6348 -46.3867 54.7363 -50.2441 60.5957 -50.2441 C 68.0176 -50.2441 71.1914 -44.6289 71.1914 -36.1816 C 71.1914 -26.1719 67.334 -20.2637 60.1562 -20.2637 Z M 60.7422 -37.2559 C 62.207 -37.2559 63.2812 -38.5254 63.2812 -40.3809 C 63.2812 -42.2852 62.207 -43.5059 60.7422 -43.5059 C 59.375 -43.5059 58.3008 -42.2363 58.3008 -40.3809 C 58.3008 -38.5254 59.375 -37.2559 60.7422 -37.2559 Z"/>
  </g>
  <g id="Heavy-S" transform="matrix(1 0 0 1 2588.47 696)">
   <path d="M 48.2422 6.15234 C 70.9961 6.15234 89.5996 -12.4512 89.5996 -35.2051 C 89.5996 -57.959 70.9961 -76.6113 48.1934 -76.6113 C 25.4395 -76.6113 6.83594 -57.959 6.83594 -35.2051 C 6.83594 -12.4512 25.4395 6.15234 48.2422 6.15234 Z M 36.1816 -19.6777 C 31.543 -19.6777 27.4902 -22.5586 26.5625 -25.6836 C 26.3672 -26.3184 26.2695 -26.9043 26.2695 -27.5879 C 26.2695 -29.6387 27.8809 -30.8105 29.3945 -30.8105 C 30.8594 -30.8105 31.8359 -30.1758 32.5195 -29.0527 C 33.4473 -27.4414 34.8145 -26.6602 36.3281 -26.6602 C 38.0371 -26.6602 39.1602 -27.8809 39.1602 -29.2969 C 39.1602 -30.9082 38.0859 -31.9336 36.2305 -31.9336 L 35.6934 -31.9336 C 33.3008 -31.9336 32.1777 -33.3984 32.1777 -35.4492 C 32.1777 -37.5 33.4961 -38.9648 35.6934 -38.9648 L 36.1816 -38.9648 C 37.8906 -38.9648 38.7695 -40.1855 38.7695 -41.5039 C 38.7695 -43.1152 37.6465 -44.1406 36.1816 -44.1406 C 34.668 -44.1406 33.6426 -43.3594 32.7637 -41.748 C 32.1289 -40.625 31.1523 -39.9414 29.6387 -39.9414 C 27.8809 -39.9414 26.6113 -41.1133 26.6113 -43.1641 C 26.6113 -43.8965 26.7578 -44.4824 27.0996 -45.3125 C 28.0762 -47.8516 31.3965 -50.8301 36.2793 -50.8301 C 42.334 -50.8301 46.2402 -47.5586 46.2402 -42.627 C 46.2402 -39.5508 44.1406 -36.7188 41.3574 -36.2793 L 41.3574 -35.9375 C 44.6777 -35.6445 46.9238 -32.5684 46.9238 -28.8086 C 46.9238 -23.291 42.7246 -19.6777 36.1816 -19.6777 Z M 59.9609 -19.6777 C 55.2734 -19.6777 52.4902 -21.7773 51.6113 -23.8281 C 51.1719 -24.6094 51.0254 -25.3418 51.0254 -25.9766 C 51.0254 -27.7344 52.1973 -29.0039 54.1016 -29.0039 C 55.0781 -29.0039 56.1035 -28.6133 56.9824 -27.5879 C 57.7637 -26.6602 58.5449 -26.2207 59.8633 -26.2207 C 63.1836 -26.2207 64.4531 -30.4199 64.4531 -34.6191 L 64.3066 -34.6191 C 63.4766 -32.2266 61.4258 -30.7129 58.4473 -30.7129 C 53.5156 -30.7129 50.1465 -34.375 50.1465 -40.1855 C 50.1465 -46.8262 54.2969 -50.8301 60.4004 -50.8301 C 67.8711 -50.8301 71.2891 -45.166 71.2891 -36.1816 C 71.2891 -25.6836 67.334 -19.6777 59.9609 -19.6777 Z M 60.5957 -36.6699 C 62.5 -36.6699 63.916 -38.2324 63.916 -40.5762 C 63.916 -42.9199 62.5 -44.5312 60.5957 -44.5312 C 58.6914 -44.5312 57.3242 -42.9199 57.3242 -40.5762 C 57.3242 -38.2324 58.6914 -36.6699 60.5957 -36.6699 Z"/>
  </g>
  <g id="Bold-S" transform="matrix(1 0 0 1 2292.44 696)">
   <path d="M 47.5586 5.46875 C 69.873 5.46875 88.2324 -12.8906 88.2324 -35.2051 C 88.2324 -57.5684 69.873 -75.9277 47.5098 -75.9277 C 25.1953 -75.9277 6.83594 -57.5684 6.83594 -35.2051 C 6.83594 -12.8906 25.1953 5.46875 47.5586 5.46875 Z M 34.9609 -19.043 C 29.9805 -19.043 25.8301 -22.1191 24.8535 -25.4395 C 24.707 -26.0254 24.6094 -26.5625 24.6094 -27.1973 C 24.6094 -29.1016 26.0742 -30.2246 27.5391 -30.2246 C 28.9062 -30.2246 29.834 -29.6387 30.4688 -28.3691 C 31.4453 -26.416 33.0078 -25.3906 35.0586 -25.3906 C 37.4023 -25.3906 39.0137 -26.9531 39.0137 -28.8574 C 39.0137 -31.0059 37.5488 -32.373 35.0586 -32.373 L 33.9844 -32.373 C 31.8848 -32.373 30.8594 -33.7402 30.8594 -35.5469 C 30.8594 -37.4512 32.0312 -38.7695 33.9844 -38.7695 L 35.0098 -38.7695 C 37.1094 -38.7695 38.3789 -40.2344 38.3789 -42.0898 C 38.3789 -43.9941 36.9629 -45.3125 35.0098 -45.3125 C 33.0078 -45.3125 31.7383 -44.3359 30.8105 -42.334 C 30.2734 -41.1133 29.3945 -40.4297 27.9297 -40.4297 C 26.2695 -40.4297 25.0488 -41.5527 25.0488 -43.457 C 25.0488 -44.1406 25.1465 -44.6777 25.3906 -45.4102 C 26.416 -48.4375 29.9805 -51.4648 35.1074 -51.4648 C 41.2109 -51.4648 45.2148 -48.0957 45.2148 -43.0176 C 45.2148 -39.7461 42.9199 -36.7188 39.9902 -36.2305 L 39.9902 -35.9375 C 43.5547 -35.5957 46.0449 -32.4219 46.0449 -28.4668 C 46.0449 -22.8027 41.6016 -19.043 34.9609 -19.043 Z M 59.7168 -19.043 C 54.6387 -19.043 51.6602 -21.5332 50.9277 -23.6328 C 50.6348 -24.3164 50.4395 -24.9512 50.4395 -25.5371 C 50.4395 -27.2461 51.6113 -28.4668 53.3203 -28.4668 C 54.3457 -28.4668 55.2734 -28.0273 56.1523 -26.9531 C 56.9336 -25.7812 58.0566 -25.0977 59.6191 -25.0977 C 63.2812 -25.0977 65.1367 -29.4434 65.0879 -34.7656 L 64.8926 -34.7656 C 64.0625 -32.3242 61.8652 -30.5176 58.3984 -30.5176 C 53.4668 -30.5176 49.5605 -34.1797 49.5605 -40.4297 C 49.5605 -47.2656 53.8086 -51.4648 60.1562 -51.4648 C 67.6758 -51.4648 71.3867 -45.752 71.3867 -36.1816 C 71.3867 -25.1953 67.334 -19.043 59.7168 -19.043 Z M 60.4004 -35.9863 C 62.8418 -35.9863 64.5996 -37.9395 64.5996 -40.7715 C 64.5996 -43.6523 62.8418 -45.6543 60.4004 -45.6543 C 57.9102 -45.6543 56.25 -43.75 56.25 -40.7715 C 56.25 -37.9395 57.959 -35.9863 60.4004 -35.9863 Z"/>
  </g>
  <g id="Semibold-S" transform="matrix(1 0 0 1 1996.2 696)">
   <path d="M 47.0703 4.98047 C 69.0918 4.98047 87.3047 -13.1836 87.3047 -35.2539 C 87.3047 -57.2754 69.0918 -75.4883 47.0215 -75.4883 C 25 -75.4883 6.83594 -57.2754 6.83594 -35.2539 C 6.83594 -13.1836 25.0488 4.98047 47.0703 4.98047 Z M 34.082 -18.6035 C 28.9062 -18.6035 24.707 -21.7773 23.7305 -25.2441 C 23.5352 -25.8789 23.4863 -26.3184 23.4863 -26.9531 C 23.4863 -28.7598 24.8047 -29.8828 26.2695 -29.8828 C 27.5879 -29.8828 28.4668 -29.1992 29.0527 -27.9297 C 30.0781 -25.6836 31.7871 -24.5117 34.1309 -24.5117 C 36.9629 -24.5117 38.916 -26.3184 38.916 -28.6133 C 38.916 -31.1035 37.1582 -32.666 34.2773 -32.666 L 32.8125 -32.666 C 30.957 -32.666 29.9316 -33.9355 29.9316 -35.6445 C 29.9316 -37.4023 31.0547 -38.623 32.8125 -38.623 L 34.1797 -38.623 C 36.5723 -38.623 38.1348 -40.2832 38.1348 -42.4805 C 38.1348 -44.6289 36.4746 -46.0938 34.1797 -46.0938 C 31.8359 -46.0938 30.4199 -45.0195 29.4434 -42.7246 C 28.9551 -41.4062 28.125 -40.7227 26.7578 -40.7227 C 25.0977 -40.7227 23.9746 -41.8945 23.9746 -43.6523 C 23.9746 -44.2871 24.0234 -44.7754 24.2676 -45.459 C 25.293 -48.7793 29.0039 -51.9043 34.3262 -51.9043 C 40.3809 -51.9043 44.4824 -48.4375 44.4824 -43.3105 C 44.4824 -39.8926 42.0898 -36.7188 39.0625 -36.2305 L 39.0625 -35.9375 C 42.7734 -35.5957 45.4102 -32.3242 45.4102 -28.2227 C 45.4102 -22.5098 40.8691 -18.6035 34.082 -18.6035 Z M 59.5215 -18.6035 C 54.1992 -18.6035 51.123 -21.3867 50.4395 -23.5352 C 50.1953 -24.1211 50.0977 -24.7559 50.0977 -25.2441 C 50.0977 -26.8555 51.1719 -28.0273 52.7344 -28.0273 C 53.8086 -28.0273 54.7363 -27.6367 55.5664 -26.4648 C 56.3965 -25.1465 57.666 -24.3164 59.4238 -24.3164 C 63.3301 -24.3164 65.5762 -28.7598 65.5273 -34.8145 L 65.2832 -34.8145 C 64.4043 -32.373 62.1582 -30.3711 58.3496 -30.3711 C 53.3691 -30.3711 49.1699 -34.082 49.1699 -40.5762 C 49.1699 -47.6074 53.418 -51.9043 59.9609 -51.9043 C 67.5781 -51.9043 71.4844 -46.1426 71.4844 -36.1816 C 71.4844 -24.8047 67.2852 -18.6035 59.5215 -18.6035 Z M 60.2539 -35.498 C 63.0859 -35.498 65.0391 -37.7441 65.0391 -40.8691 C 65.0391 -44.1406 63.0859 -46.4355 60.2539 -46.4355 C 57.373 -46.4355 55.5176 -44.2871 55.5176 -40.918 C 55.5176 -37.7441 57.4219 -35.498 60.2539 -35.498 Z"/>
  </g>
  <g id="Medium-S" transform="matrix(1 0 0 1 1699.83 696)">
   <path d="M 46.7285 4.63867 C 68.5547 4.63867 86.6211 -13.4277 86.6211 -35.2539 C 86.6211 -57.0312 68.5059 -75.1465 46.6797 -75.1465 C 24.8535 -75.1465 6.83594 -57.0312 6.83594 -35.2539 C 6.83594 -13.4277 24.9023 4.63867 46.7285 4.63867 Z M 33.4473 -18.2617 C 28.0762 -18.2617 23.8281 -21.5332 22.8027 -25.1465 C 22.6562 -25.7324 22.6074 -26.1719 22.6074 -26.7578 C 22.6074 -28.4668 23.8281 -29.5898 25.293 -29.5898 C 26.5625 -29.5898 27.3926 -28.9062 27.9785 -27.5391 C 29.0527 -25.1465 30.8105 -23.8281 33.4961 -23.8281 C 36.6211 -23.8281 38.8184 -25.8301 38.8184 -28.3691 C 38.8184 -31.1523 36.8652 -32.9102 33.6426 -32.9102 L 31.9336 -32.9102 C 30.2246 -32.9102 29.1992 -34.1309 29.1992 -35.6934 C 29.1992 -37.4023 30.2734 -38.5254 31.9336 -38.5254 L 33.5449 -38.5254 C 36.1816 -38.5254 37.9883 -40.332 37.9883 -42.7734 C 37.9883 -45.1172 36.1328 -46.7285 33.5938 -46.7285 C 31.0059 -46.7285 29.3945 -45.5078 28.4668 -43.0176 C 27.9785 -41.6504 27.1973 -40.9668 25.8301 -40.9668 C 24.2676 -40.9668 23.1934 -42.0898 23.1934 -43.7988 C 23.1934 -44.4336 23.1934 -44.873 23.3887 -45.5078 C 24.4141 -49.0723 28.2715 -52.2461 33.7402 -52.2461 C 39.7949 -52.2461 43.9453 -48.6816 43.9453 -43.5547 C 43.9453 -39.9414 41.5039 -36.7188 38.3301 -36.2305 L 38.3301 -35.9375 C 42.1875 -35.5469 44.9219 -32.2266 44.9219 -28.0762 C 44.9219 -22.2656 40.2832 -18.2617 33.4473 -18.2617 Z M 59.4238 -18.2617 C 53.8574 -18.2617 50.6836 -21.2402 50.0977 -23.4375 C 49.9023 -24.0234 49.8047 -24.5605 49.8047 -25 C 49.8047 -26.6113 50.8301 -27.7344 52.3438 -27.7344 C 53.418 -27.7344 54.3457 -27.3438 55.0781 -26.123 C 56.0059 -24.707 57.373 -23.7305 59.3262 -23.7305 C 63.3789 -23.7305 65.918 -28.2715 65.8691 -34.9121 L 65.625 -34.9121 C 64.6973 -32.4219 62.4023 -30.2734 58.3496 -30.2734 C 53.3203 -30.2734 48.877 -33.9355 48.877 -40.7227 C 48.877 -47.8516 53.1738 -52.2461 59.8633 -52.2461 C 67.4805 -52.2461 71.5332 -46.4355 71.5332 -36.1816 C 71.5332 -24.5605 67.2852 -18.2617 59.4238 -18.2617 Z M 60.1562 -35.1562 C 63.2812 -35.1562 65.4297 -37.5488 65.4297 -40.9668 C 65.4297 -44.5312 63.2324 -47.0215 60.2051 -47.0215 C 56.9824 -47.0215 54.9805 -44.6777 54.9805 -41.0156 C 54.9805 -37.5488 57.0312 -35.1562 60.1562 -35.1562 Z"/>
  </g>
  <g id="Regular-S" transform="matrix(1 0 0 1 1403.58 696)">
   <path d="M 46.2402 4.15039 C 67.7734 4.15039 85.6934 -13.7207 85.6934 -35.2539 C 85.6934 -56.7871 67.7246 -74.6582 46.1914 -74.6582 C 24.707 -74.6582 6.83594 -56.7871 6.83594 -35.2539 C 6.83594 -13.7207 24.7559 4.15039 46.2402 4.15039 Z M 32.5684 -17.8223 C 27.0508 -17.8223 22.7051 -21.1914 21.6797 -24.9512 C 21.5332 -25.5371 21.4844 -25.9277 21.4844 -26.5625 C 21.4844 -28.0762 22.5586 -29.1992 24.0234 -29.1992 C 25.2441 -29.1992 26.0254 -28.5156 26.6113 -27.0996 C 27.6855 -24.4141 29.5898 -22.9492 32.6172 -22.9492 C 36.2305 -22.9492 38.7207 -25.1953 38.7207 -28.125 C 38.7207 -31.25 36.4746 -33.2031 32.8613 -33.2031 L 30.7617 -33.2031 C 29.2969 -33.2031 28.2715 -34.3262 28.2715 -35.7422 C 28.2715 -37.3535 29.2969 -38.3789 30.7617 -38.3789 L 32.7148 -38.3789 C 35.6445 -38.3789 37.7441 -40.332 37.7441 -43.1152 C 37.7441 -45.752 35.6934 -47.5586 32.8125 -47.5586 C 29.834 -47.5586 28.0762 -46.1914 27.1484 -43.4082 C 26.709 -41.9922 25.9766 -41.3086 24.6582 -41.3086 C 23.1445 -41.3086 22.1191 -42.3828 22.1191 -43.9941 C 22.1191 -44.5801 22.1191 -44.9707 22.2168 -45.5566 C 23.291 -49.4629 27.2949 -52.6855 32.959 -52.6855 C 39.0137 -52.6855 43.2617 -49.0234 43.2617 -43.8477 C 43.2617 -40.0879 40.6738 -36.7188 37.4023 -36.2305 L 37.4023 -35.9375 C 41.4551 -35.5469 44.3359 -32.1289 44.3359 -27.832 C 44.3359 -21.9727 39.502 -17.8223 32.5684 -17.8223 Z M 59.2285 -17.8223 C 53.418 -17.8223 50.0977 -21.0938 49.6094 -23.3398 C 49.5117 -23.8281 49.4141 -24.3164 49.4141 -24.707 C 49.4141 -26.2695 50.3906 -27.3438 51.7578 -27.3438 C 52.9297 -27.3438 53.8086 -26.9043 54.4922 -25.6836 C 55.4688 -24.0723 57.0312 -22.9492 59.1309 -22.9492 C 63.4277 -22.9492 66.4062 -27.5879 66.3086 -34.9609 L 66.0156 -34.9609 C 65.0879 -32.4707 62.6953 -30.127 58.3008 -30.127 C 53.2715 -30.127 48.4863 -33.8379 48.4863 -40.8691 C 48.4863 -48.1445 52.832 -52.6855 59.668 -52.6855 C 67.334 -52.6855 71.6309 -46.8262 71.6309 -36.1816 C 71.6309 -24.2188 67.2852 -17.8223 59.2285 -17.8223 Z M 60.0586 -34.7168 C 63.5254 -34.7168 65.8691 -37.3535 65.8691 -41.1133 C 65.8691 -45.0195 63.4766 -47.8027 60.0586 -47.8027 C 56.4453 -47.8027 54.1992 -45.2148 54.1992 -41.1621 C 54.1992 -37.3535 56.543 -34.7168 60.0586 -34.7168 Z"/>
  </g>
  <g id="Light-S" transform="matrix(1 0 0 1 1107.6 696)">
   <path d="M 45.5078 3.4668 C 66.6992 3.4668 84.2285 -14.0625 84.2285 -35.2051 C 84.2285 -56.3965 66.6504 -73.9258 45.5078 -73.9258 C 24.3164 -73.9258 6.83594 -56.3965 6.83594 -35.2051 C 6.83594 -14.0625 24.3652 3.4668 45.5078 3.4668 Z M 31.7383 -18.0664 C 26.3672 -18.0664 22.168 -21.3379 21.0938 -25 C 20.9473 -25.4883 20.8984 -25.8789 20.8984 -26.416 C 20.8984 -27.6855 21.7285 -28.5645 22.9492 -28.5645 C 24.0234 -28.5645 24.6094 -28.0273 25.0488 -26.8066 C 26.123 -23.9258 28.5156 -22.2168 31.7871 -22.2168 C 35.8887 -22.2168 38.6719 -24.707 38.6719 -28.0273 C 38.6719 -31.3965 36.0352 -33.6914 32.1289 -33.6914 L 29.541 -33.6914 C 28.3203 -33.6914 27.5391 -34.6191 27.5391 -35.791 C 27.5391 -37.0605 28.3691 -37.8906 29.541 -37.8906 L 31.8848 -37.8906 C 35.2539 -37.8906 37.6465 -40.1855 37.6465 -43.2617 C 37.6465 -46.2402 35.2539 -48.291 31.8848 -48.291 C 28.6133 -48.291 26.4648 -46.6309 25.6348 -43.7012 C 25.293 -42.4805 24.707 -41.8945 23.6328 -41.8945 C 22.3145 -41.8945 21.5332 -42.8223 21.5332 -44.1406 C 21.5332 -44.6289 21.5332 -45.0195 21.6309 -45.5078 C 22.6562 -49.4629 26.709 -52.4414 31.9824 -52.4414 C 37.9395 -52.4414 42.1387 -48.877 42.1387 -43.7988 C 42.1387 -40.0879 39.4531 -36.6699 36.084 -36.1328 L 36.084 -35.9375 C 40.1855 -35.498 43.2129 -32.0801 43.2129 -27.832 C 43.2129 -22.1191 38.4766 -18.0664 31.7383 -18.0664 Z M 58.4961 -18.0664 C 53.2715 -18.0664 49.9023 -21.0449 49.1699 -23.2422 C 48.9746 -23.7305 48.8281 -24.3164 48.8281 -24.7559 C 48.8281 -25.9766 49.6094 -26.8555 50.7324 -26.8555 C 51.6602 -26.8555 52.3438 -26.4648 52.9297 -25.3906 C 53.9551 -23.4863 55.957 -22.2168 58.4473 -22.2168 C 63.3789 -22.2168 66.5527 -27.0996 66.5039 -35.5957 L 66.2598 -35.5957 C 65.0879 -32.6172 62.3535 -30.2734 57.8125 -30.2734 C 52.4902 -30.2734 47.8027 -34.2773 47.8027 -40.9668 C 47.8027 -47.9004 52.2949 -52.4414 58.9844 -52.4414 C 66.3574 -52.4414 70.752 -46.9238 70.752 -36.5723 C 70.752 -24.3652 66.4551 -18.0664 58.4961 -18.0664 Z M 59.1797 -34.0332 C 63.1836 -34.0332 66.0156 -37.0117 66.0156 -41.1621 C 66.0156 -45.4102 63.1348 -48.4863 59.2285 -48.4863 C 55.127 -48.4863 52.3926 -45.5566 52.3926 -41.2109 C 52.3926 -37.0117 55.127 -34.0332 59.1797 -34.0332 Z"/>
  </g>
  <g id="Thin-S" transform="matrix(1 0 0 1 811.867 696)">
   <path d="M 44.5801 2.53906 C 65.2832 2.53906 82.2754 -14.4531 82.2754 -35.2051 C 82.2754 -55.9082 65.2344 -72.9004 44.5312 -72.9004 C 23.8281 -72.9004 6.83594 -55.9082 6.83594 -35.2051 C 6.83594 -14.4531 23.877 2.53906 44.5801 2.53906 Z M 30.6641 -18.4082 C 25.4883 -18.4082 21.4355 -21.4844 20.2637 -25.0488 C 20.166 -25.4395 20.0684 -25.7812 20.0684 -26.2207 C 20.0684 -27.0996 20.6543 -27.7832 21.5332 -27.7832 C 22.3633 -27.7832 22.7539 -27.3438 23.0469 -26.4648 C 24.1211 -23.2422 27.0996 -21.2891 30.6641 -21.2891 C 35.4492 -21.2891 38.6719 -24.0723 38.6719 -27.9297 C 38.6719 -31.6406 35.498 -34.375 31.1035 -34.375 L 27.9785 -34.375 C 27.0996 -34.375 26.5625 -34.9609 26.5625 -35.791 C 26.5625 -36.7188 27.1484 -37.2559 27.9785 -37.2559 L 30.8105 -37.2559 C 34.668 -37.2559 37.5488 -39.9414 37.5488 -43.457 C 37.5488 -46.875 34.7656 -49.2188 30.7129 -49.2188 C 26.9531 -49.2188 24.3652 -47.168 23.6816 -44.043 C 23.4863 -43.1152 22.998 -42.7246 22.2656 -42.7246 C 21.2402 -42.7246 20.752 -43.3594 20.752 -44.2871 C 20.752 -44.6777 20.8008 -45.0684 20.8984 -45.5078 C 21.875 -49.4629 25.9277 -52.0996 30.7129 -52.0996 C 36.5234 -52.0996 40.625 -48.6816 40.625 -43.7988 C 40.625 -40.0879 37.8906 -36.6699 34.375 -36.0352 L 34.375 -35.9375 C 38.5254 -35.498 41.748 -32.0312 41.748 -27.8809 C 41.748 -22.3633 37.1094 -18.4082 30.6641 -18.4082 Z M 57.4707 -18.4082 C 53.0762 -18.4082 49.6582 -20.9473 48.584 -23.0957 C 48.291 -23.6328 47.998 -24.2676 47.998 -24.8047 C 47.998 -25.6348 48.584 -26.2207 49.3164 -26.2207 C 50.0488 -26.2207 50.4883 -25.8301 50.8789 -25.0488 C 52.002 -22.7539 54.541 -21.2402 57.4707 -21.2402 C 63.3301 -21.2402 66.748 -26.416 66.748 -36.4258 L 66.6016 -36.4258 C 65.0879 -32.7637 61.8652 -30.5176 57.1777 -30.5176 C 51.4648 -30.5176 46.9727 -34.9121 46.9727 -41.1133 C 46.9727 -47.6074 51.5625 -52.0996 58.0078 -52.0996 C 64.9902 -52.0996 69.5801 -47.0703 69.5801 -37.0605 C 69.5801 -24.5117 65.332 -18.4082 57.4707 -18.4082 Z M 58.0566 -33.1543 C 62.7441 -33.1543 66.2109 -36.6211 66.2109 -41.2109 C 66.2109 -45.8984 62.6953 -49.3652 58.1055 -49.3652 C 53.418 -49.3652 50 -46.0449 50 -41.3086 C 50 -36.6211 53.3203 -33.1543 58.0566 -33.1543 Z"/>
  </g>
  <g id="Ultralight-S" transform="matrix(1 0 0 1 515.644 696)">
   <path d="M 44.043 2.05078 C 64.502 2.05078 81.2988 -14.6973 81.2988 -35.1562 C 81.2988 -55.6152 64.502 -72.3633 44.043 -72.3633 C 23.584 -72.3633 6.83594 -55.6152 6.83594 -35.1562 C 6.83594 -14.6973 23.584 2.05078 44.043 2.05078 Z M 30.127 -18.5547 C 25 -18.5547 21.0449 -21.582 19.873 -25.0977 C 19.7754 -25.3906 19.6777 -25.7324 19.6777 -26.123 C 19.6777 -26.8066 20.1172 -27.3438 20.8008 -27.3438 C 21.4844 -27.3438 21.7773 -27.002 22.0215 -26.2695 C 23.0957 -22.9004 26.3672 -20.752 30.127 -20.752 C 35.2051 -20.752 38.623 -23.7305 38.623 -27.8809 C 38.623 -31.7383 35.1562 -34.7168 30.5664 -34.7168 L 27.1484 -34.7168 C 26.4648 -34.7168 26.0254 -35.1562 26.0254 -35.8398 C 26.0254 -36.5234 26.5137 -36.9629 27.1484 -36.9629 L 30.2734 -36.9629 C 34.375 -36.9629 37.4512 -39.8438 37.4512 -43.5547 C 37.4512 -47.2168 34.4727 -49.7559 30.0781 -49.7559 C 26.0742 -49.7559 23.2422 -47.5098 22.7051 -44.2383 C 22.5098 -43.4082 22.1191 -43.1152 21.5332 -43.1152 C 20.7031 -43.1152 20.3613 -43.6523 20.3613 -44.4336 C 20.3613 -44.7266 20.4102 -45.1172 20.5078 -45.459 C 21.4355 -49.4629 25.5371 -51.9531 30.0781 -51.9531 C 35.7422 -51.9531 39.8926 -48.584 39.8926 -43.75 C 39.8926 -40.0879 37.1094 -36.6211 33.4473 -35.9863 L 33.4473 -35.9375 C 37.6953 -35.4492 41.0156 -31.9824 41.0156 -27.8809 C 41.0156 -22.4609 36.377 -18.5547 30.127 -18.5547 Z M 56.9336 -18.5547 C 52.9785 -18.5547 49.5605 -20.8984 48.2422 -22.998 C 47.9492 -23.584 47.6074 -24.2676 47.6074 -24.8535 C 47.6074 -25.4395 48.0469 -25.9277 48.584 -25.9277 C 49.2188 -25.9277 49.5117 -25.4883 49.8047 -24.8535 C 50.9766 -22.3633 53.7598 -20.7031 56.9824 -20.7031 C 63.2812 -20.7031 66.8457 -26.0742 66.8457 -36.8652 L 66.7969 -36.8652 C 65.0879 -32.8613 61.6211 -30.6152 56.8848 -30.6152 C 50.9277 -30.6152 46.5332 -35.2539 46.5332 -41.2109 C 46.5332 -47.4609 51.2207 -51.9531 57.5195 -51.9531 C 64.3066 -51.9531 68.9941 -47.168 68.9941 -37.3047 C 68.9941 -24.6582 64.7949 -18.5547 56.9336 -18.5547 Z M 57.4707 -32.666 C 62.5 -32.666 66.3086 -36.377 66.3086 -41.2598 C 66.3086 -46.1914 62.4512 -49.8047 57.5684 -49.8047 C 52.4902 -49.8047 48.7793 -46.2891 48.7793 -41.3574 C 48.7793 -36.377 52.3438 -32.666 57.4707 -32.666 Z"/>
  </g>
 </g>
</svg>
