<?xml version="1.0" encoding="UTF-8"?>
<!--Generator: Apple Native CoreSVG 123-->
<!DOCTYPE svg
PUBLIC "-//W3C//DTD SVG 1.1//EN"
       "http://www.w3.org/Graphics/SVG/1.1/DTD/svg11.dtd">
<svg version="1.1" xmlns="http://www.w3.org/2000/svg" xmlns:xlink="http://www.w3.org/1999/xlink" width="3300" height="2200">
 <!--glyph: "uni100618.medium", point size: 100.000000, font version: "Version 15.0d7e11", template writer version: "5"-->
 <g id="Notes">
  <rect height="2200" id="artboard" style="fill:white;opacity:1" width="3300" x="0" y="0"/>
  <line id="" style="fill:none;stroke:black;opacity:1;stroke-width:0.5;" x1="263" x2="3036" y1="292" y2="292"/>
  <text style="stroke:none;fill:black;font-family:-apple-system,&quot;SF Pro Display&quot;,&quot;SF Pro Text&quot;,Helvetica,sans-serif;font-weight:bold;" transform="matrix(1 0 0 1 263 322)">Weight/Scale Variations</text>
  <text style="stroke:none;fill:black;font-family:-apple-system,&quot;SF Pro Display&quot;,&quot;SF Pro Text&quot;,Helvetica,sans-serif;text-anchor:middle;" transform="matrix(1 0 0 1 559.711 322)">Ultralight</text>
  <text style="stroke:none;fill:black;font-family:-apple-system,&quot;SF Pro Display&quot;,&quot;SF Pro Text&quot;,Helvetica,sans-serif;text-anchor:middle;" transform="matrix(1 0 0 1 856.422 322)">Thin</text>
  <text style="stroke:none;fill:black;font-family:-apple-system,&quot;SF Pro Display&quot;,&quot;SF Pro Text&quot;,Helvetica,sans-serif;text-anchor:middle;" transform="matrix(1 0 0 1 1153.13 322)">Light</text>
  <text style="stroke:none;fill:black;font-family:-apple-system,&quot;SF Pro Display&quot;,&quot;SF Pro Text&quot;,Helvetica,sans-serif;text-anchor:middle;" transform="matrix(1 0 0 1 1449.84 322)">Regular</text>
  <text style="stroke:none;fill:black;font-family:-apple-system,&quot;SF Pro Display&quot;,&quot;SF Pro Text&quot;,Helvetica,sans-serif;text-anchor:middle;" transform="matrix(1 0 0 1 1746.56 322)">Medium</text>
  <text style="stroke:none;fill:black;font-family:-apple-system,&quot;SF Pro Display&quot;,&quot;SF Pro Text&quot;,Helvetica,sans-serif;text-anchor:middle;" transform="matrix(1 0 0 1 2043.27 322)">Semibold</text>
  <text style="stroke:none;fill:black;font-family:-apple-system,&quot;SF Pro Display&quot;,&quot;SF Pro Text&quot;,Helvetica,sans-serif;text-anchor:middle;" transform="matrix(1 0 0 1 2339.98 322)">Bold</text>
  <text style="stroke:none;fill:black;font-family:-apple-system,&quot;SF Pro Display&quot;,&quot;SF Pro Text&quot;,Helvetica,sans-serif;text-anchor:middle;" transform="matrix(1 0 0 1 2636.69 322)">Heavy</text>
  <text style="stroke:none;fill:black;font-family:-apple-system,&quot;SF Pro Display&quot;,&quot;SF Pro Text&quot;,Helvetica,sans-serif;text-anchor:middle;" transform="matrix(1 0 0 1 2933.4 322)">Black</text>
  <line id="" style="fill:none;stroke:black;opacity:1;stroke-width:0.5;" x1="263" x2="3036" y1="1903" y2="1903"/>
  <g id="" transform="matrix(1 0 0 1 263 1933)">
   <path d="M 9.24805 0.830078 C 13.5547 0.830078 17.1387 -2.74414 17.1387 -7.05078 C 17.1387 -11.3574 13.5449 -14.9316 9.23828 -14.9316 C 4.94141 -14.9316 1.36719 -11.3574 1.36719 -7.05078 C 1.36719 -2.74414 4.95117 0.830078 9.24805 0.830078 Z M 9.24805 -0.654297 C 5.70312 -0.654297 2.87109 -3.49609 2.87109 -7.05078 C 2.87109 -10.6055 5.69336 -13.4473 9.23828 -13.4473 C 12.793 -13.4473 15.6348 -10.6055 15.6445 -7.05078 C 15.6543 -3.49609 12.8027 -0.654297 9.24805 -0.654297 Z M 9.22852 -3.42773 C 9.69727 -3.42773 9.9707 -3.74023 9.9707 -4.25781 L 9.9707 -6.31836 L 12.1973 -6.31836 C 12.6953 -6.31836 13.0371 -6.57227 13.0371 -7.04102 C 13.0371 -7.51953 12.7148 -7.7832 12.1973 -7.7832 L 9.9707 -7.7832 L 9.9707 -10.0098 C 9.9707 -10.5273 9.69727 -10.8496 9.22852 -10.8496 C 8.75977 -10.8496 8.50586 -10.5078 8.50586 -10.0098 L 8.50586 -7.7832 L 6.29883 -7.7832 C 5.78125 -7.7832 5.44922 -7.51953 5.44922 -7.04102 C 5.44922 -6.57227 5.80078 -6.31836 6.29883 -6.31836 L 8.50586 -6.31836 L 8.50586 -4.25781 C 8.50586 -3.75977 8.75977 -3.42773 9.22852 -3.42773 Z"/>
  </g>
  <g id="" transform="matrix(1 0 0 1 281.506 1933)">
   <path d="M 11.709 2.91016 C 17.1582 2.91016 21.6699 -1.60156 21.6699 -7.05078 C 21.6699 -12.4902 17.1484 -17.0117 11.6992 -17.0117 C 6.25977 -17.0117 1.74805 -12.4902 1.74805 -7.05078 C 1.74805 -1.60156 6.26953 2.91016 11.709 2.91016 Z M 11.709 1.25 C 7.09961 1.25 3.41797 -2.44141 3.41797 -7.05078 C 3.41797 -11.6504 7.08984 -15.3516 11.6992 -15.3516 C 16.3086 -15.3516 20 -11.6504 20.0098 -7.05078 C 20.0195 -2.44141 16.3184 1.25 11.709 1.25 Z M 11.6895 -2.41211 C 12.207 -2.41211 12.5195 -2.77344 12.5195 -3.33984 L 12.5195 -6.23047 L 15.5762 -6.23047 C 16.123 -6.23047 16.5039 -6.51367 16.5039 -7.03125 C 16.5039 -7.55859 16.1426 -7.86133 15.5762 -7.86133 L 12.5195 -7.86133 L 12.5195 -10.9277 C 12.5195 -11.5039 12.207 -11.8555 11.6895 -11.8555 C 11.1719 -11.8555 10.8789 -11.4844 10.8789 -10.9277 L 10.8789 -7.86133 L 7.83203 -7.86133 C 7.26562 -7.86133 6.89453 -7.55859 6.89453 -7.03125 C 6.89453 -6.51367 7.28516 -6.23047 7.83203 -6.23047 L 10.8789 -6.23047 L 10.8789 -3.33984 C 10.8789 -2.79297 11.1719 -2.41211 11.6895 -2.41211 Z"/>
  </g>
  <g id="" transform="matrix(1 0 0 1 304.924 1933)">
   <path d="M 14.9707 5.67383 C 21.9336 5.67383 27.6953 -0.078125 27.6953 -7.04102 C 27.6953 -14.0039 21.9238 -19.7559 14.9609 -19.7559 C 8.00781 -19.7559 2.25586 -14.0039 2.25586 -7.04102 C 2.25586 -0.078125 8.01758 5.67383 14.9707 5.67383 Z M 14.9707 3.85742 C 8.93555 3.85742 4.08203 -1.00586 4.08203 -7.04102 C 4.08203 -13.0762 8.92578 -17.9395 14.9609 -17.9395 C 21.0059 -17.9395 25.8594 -13.0762 25.8691 -7.04102 C 25.8789 -1.00586 21.0156 3.85742 14.9707 3.85742 Z M 14.9512 -1.06445 C 15.5176 -1.06445 15.8691 -1.45508 15.8691 -2.06055 L 15.8691 -6.13281 L 20.1074 -6.13281 C 20.6934 -6.13281 21.1133 -6.46484 21.1133 -7.02148 C 21.1133 -7.59766 20.7227 -7.93945 20.1074 -7.93945 L 15.8691 -7.93945 L 15.8691 -12.1875 C 15.8691 -12.8027 15.5176 -13.1934 14.9512 -13.1934 C 14.3848 -13.1934 14.0625 -12.7832 14.0625 -12.1875 L 14.0625 -7.93945 L 9.83398 -7.93945 C 9.21875 -7.93945 8.80859 -7.59766 8.80859 -7.02148 C 8.80859 -6.46484 9.23828 -6.13281 9.83398 -6.13281 L 14.0625 -6.13281 L 14.0625 -2.06055 C 14.0625 -1.47461 14.3848 -1.06445 14.9512 -1.06445 Z"/>
  </g>
  <text style="stroke:none;fill:black;font-family:-apple-system,&quot;SF Pro Display&quot;,&quot;SF Pro Text&quot;,Helvetica,sans-serif;font-weight:bold;" transform="matrix(1 0 0 1 263 1953)">Design Variations</text>
  <text style="stroke:none;fill:black;font-family:-apple-system,&quot;SF Pro Display&quot;,&quot;SF Pro Text&quot;,Helvetica,sans-serif;" transform="matrix(1 0 0 1 263 1971)">Symbols are supported in up to nine weights and three scales.</text>
  <text style="stroke:none;fill:black;font-family:-apple-system,&quot;SF Pro Display&quot;,&quot;SF Pro Text&quot;,Helvetica,sans-serif;" transform="matrix(1 0 0 1 263 1989)">For optimal layout with text and other symbols, vertically align</text>
  <text style="stroke:none;fill:black;font-family:-apple-system,&quot;SF Pro Display&quot;,&quot;SF Pro Text&quot;,Helvetica,sans-serif;" transform="matrix(1 0 0 1 263 2007)">symbols with the adjacent text.</text>
  <rect height="14" id="" style="fill:#00AEEF;stroke:none;opacity:0.4;" width="3" x="776" y="1919"/>
  <g id="" transform="matrix(1 0 0 1 779 1933)">
   <path d="M 10.5273 0 L 12.373 0 L 7.17773 -14.0918 L 5.43945 -14.0918 L 0.244141 0 L 2.08984 0 L 3.50586 -4.0332 L 9.11133 -4.0332 Z M 6.2793 -11.9531 L 6.33789 -11.9531 L 8.59375 -5.52734 L 4.02344 -5.52734 Z"/>
  </g>
  <rect height="14" id="" style="fill:#00AEEF;stroke:none;opacity:0.4;" width="3" x="791.617" y="1919"/>
  <text style="stroke:none;fill:black;font-family:-apple-system,&quot;SF Pro Display&quot;,&quot;SF Pro Text&quot;,Helvetica,sans-serif;font-weight:bold;" transform="matrix(1 0 0 1 776 1953)">Margins</text>
  <text style="stroke:none;fill:black;font-family:-apple-system,&quot;SF Pro Display&quot;,&quot;SF Pro Text&quot;,Helvetica,sans-serif;" transform="matrix(1 0 0 1 776 1971)">Leading and trailing margins on the left and right side of each symbol</text>
  <text style="stroke:none;fill:black;font-family:-apple-system,&quot;SF Pro Display&quot;,&quot;SF Pro Text&quot;,Helvetica,sans-serif;" transform="matrix(1 0 0 1 776 1989)">can be adjusted by modifying the width of the blue rectangles.</text>
  <text style="stroke:none;fill:black;font-family:-apple-system,&quot;SF Pro Display&quot;,&quot;SF Pro Text&quot;,Helvetica,sans-serif;" transform="matrix(1 0 0 1 776 2007)">Modifications are automatically applied proportionally to all</text>
  <text style="stroke:none;fill:black;font-family:-apple-system,&quot;SF Pro Display&quot;,&quot;SF Pro Text&quot;,Helvetica,sans-serif;" transform="matrix(1 0 0 1 776 2025)">scales and weights.</text>
  <g id="" transform="matrix(1 0 0 1 1289 1933)">
   <path d="M 2.83203 3.11523 L 4.375 4.6582 C 5.22461 5.48828 6.19141 5.41992 7.06055 4.46289 L 17.2754 -6.66016 C 17.7051 -6.36719 18.0957 -6.37695 18.5645 -6.47461 L 19.6094 -6.68945 L 20.3027 -5.99609 L 20.2539 -5.47852 C 20.1855 -4.95117 20.3516 -4.53125 20.8496 -4.0332 L 21.6602 -3.22266 C 22.168 -2.71484 22.8223 -2.68555 23.3008 -3.16406 L 26.5527 -6.41602 C 27.0312 -6.89453 27.0117 -7.54883 26.5039 -8.05664 L 25.6836 -8.87695 C 25.1855 -9.375 24.7754 -9.55078 24.2383 -9.47266 L 23.7109 -9.41406 L 23.0566 -10.0781 L 23.3398 -11.2207 C 23.4863 -11.7871 23.3398 -12.2559 22.7148 -12.8613 L 20.3027 -15.2539 C 16.7578 -18.7793 12.2266 -18.6719 9.11133 -15.5371 C 8.69141 -15.1074 8.64258 -14.5215 8.91602 -14.0918 C 9.15039 -13.7207 9.62891 -13.4961 10.2734 -13.6621 C 11.7871 -14.043 13.3008 -13.9258 14.7852 -12.9199 L 14.1602 -11.3379 C 13.9258 -10.752 13.9453 -10.2734 14.1797 -9.83398 L 3.01758 0.439453 C 2.08008 1.30859 1.97266 2.25586 2.83203 3.11523 Z M 10.6738 -15.1465 C 13.3398 -17.1387 16.6504 -16.8262 19.0527 -14.4141 L 21.6797 -11.8066 C 21.9141 -11.5723 21.9434 -11.3867 21.8848 -11.0938 L 21.5039 -9.53125 L 23.0762 -7.95898 L 24.043 -8.04688 C 24.3262 -8.07617 24.4141 -8.05664 24.6387 -7.83203 L 25.2637 -7.20703 L 22.5098 -4.46289 L 21.8848 -5.07812 C 21.6602 -5.30273 21.6406 -5.40039 21.6699 -5.68359 L 21.7578 -6.64062 L 20.1953 -8.20312 L 18.5742 -7.89062 C 18.291 -7.83203 18.1445 -7.83203 17.9102 -8.07617 L 15.7324 -10.2539 C 15.5078 -10.4883 15.4785 -10.625 15.6055 -10.9473 L 16.5527 -13.2227 C 14.9512 -14.7559 12.8418 -15.6055 10.8008 -14.9512 C 10.7129 -14.9219 10.6445 -14.9414 10.6152 -14.9805 C 10.5859 -15.0293 10.5859 -15.0781 10.6738 -15.1465 Z M 4.10156 2.41211 C 3.61328 1.91406 3.78906 1.61133 4.12109 1.30859 L 15.0781 -8.80859 L 16.3086 -7.57812 L 6.15234 3.34961 C 5.84961 3.68164 5.46875 3.7793 5.06836 3.37891 Z"/>
  </g>
  <text style="stroke:none;fill:black;font-family:-apple-system,&quot;SF Pro Display&quot;,&quot;SF Pro Text&quot;,Helvetica,sans-serif;font-weight:bold;" transform="matrix(1 0 0 1 1289 1953)">Exporting</text>
  <text style="stroke:none;fill:black;font-family:-apple-system,&quot;SF Pro Display&quot;,&quot;SF Pro Text&quot;,Helvetica,sans-serif;" transform="matrix(1 0 0 1 1289 1971)">Symbols should be outlined when exporting to ensure the</text>
  <text style="stroke:none;fill:black;font-family:-apple-system,&quot;SF Pro Display&quot;,&quot;SF Pro Text&quot;,Helvetica,sans-serif;" transform="matrix(1 0 0 1 1289 1989)">design is preserved when submitting to Xcode.</text>
  <text id="template-version" style="stroke:none;fill:black;font-family:-apple-system,&quot;SF Pro Display&quot;,&quot;SF Pro Text&quot;,Helvetica,sans-serif;text-anchor:end;" transform="matrix(1 0 0 1 3036 1933)">Template v.1.0</text>
  <text style="stroke:none;fill:black;font-family:-apple-system,&quot;SF Pro Display&quot;,&quot;SF Pro Text&quot;,Helvetica,sans-serif;text-anchor:end;" transform="matrix(1 0 0 1 3036 1951)">Generated from 4.alt.circle.fill</text>
  <text style="stroke:none;fill:black;font-family:-apple-system,&quot;SF Pro Display&quot;,&quot;SF Pro Text&quot;,Helvetica,sans-serif;text-anchor:end;" transform="matrix(1 0 0 1 3036 1969)">Typeset at 100 points</text>
  <text style="stroke:none;fill:black;font-family:-apple-system,&quot;SF Pro Display&quot;,&quot;SF Pro Text&quot;,Helvetica,sans-serif;" transform="matrix(1 0 0 1 263 726)">Small</text>
  <text style="stroke:none;fill:black;font-family:-apple-system,&quot;SF Pro Display&quot;,&quot;SF Pro Text&quot;,Helvetica,sans-serif;" transform="matrix(1 0 0 1 263 1156)">Medium</text>
  <text style="stroke:none;fill:black;font-family:-apple-system,&quot;SF Pro Display&quot;,&quot;SF Pro Text&quot;,Helvetica,sans-serif;" transform="matrix(1 0 0 1 263 1586)">Large</text>
 </g>
 <g id="Guides">
  <g id="H-reference" style="fill:#27AAE1;stroke:none;" transform="matrix(1 0 0 1 339 696)">
   <path d="M 54.9316 0 L 57.666 0 L 30.5664 -70.459 L 28.0762 -70.459 L 0.976562 0 L 3.66211 0 L 12.9395 -24.4629 L 45.7031 -24.4629 Z M 29.1992 -67.0898 L 29.4434 -67.0898 L 44.8242 -26.709 L 13.8184 -26.709 Z"/>
  </g>
  <line id="Baseline-S" style="fill:none;stroke:#27AAE1;opacity:1;stroke-width:0.577;" x1="263" x2="3036" y1="696" y2="696"/>
  <line id="Capline-S" style="fill:none;stroke:#27AAE1;opacity:1;stroke-width:0.577;" x1="263" x2="3036" y1="625.541" y2="625.541"/>
  <g id="H-reference" style="fill:#27AAE1;stroke:none;" transform="matrix(1 0 0 1 339 1126)">
   <path d="M 54.9316 0 L 57.666 0 L 30.5664 -70.459 L 28.0762 -70.459 L 0.976562 0 L 3.66211 0 L 12.9395 -24.4629 L 45.7031 -24.4629 Z M 29.1992 -67.0898 L 29.4434 -67.0898 L 44.8242 -26.709 L 13.8184 -26.709 Z"/>
  </g>
  <line id="Baseline-M" style="fill:none;stroke:#27AAE1;opacity:1;stroke-width:0.577;" x1="263" x2="3036" y1="1126" y2="1126"/>
  <line id="Capline-M" style="fill:none;stroke:#27AAE1;opacity:1;stroke-width:0.577;" x1="263" x2="3036" y1="1055.54" y2="1055.54"/>
  <g id="H-reference" style="fill:#27AAE1;stroke:none;" transform="matrix(1 0 0 1 339 1556)">
   <path d="M 54.9316 0 L 57.666 0 L 30.5664 -70.459 L 28.0762 -70.459 L 0.976562 0 L 3.66211 0 L 12.9395 -24.4629 L 45.7031 -24.4629 Z M 29.1992 -67.0898 L 29.4434 -67.0898 L 44.8242 -26.709 L 13.8184 -26.709 Z"/>
  </g>
  <line id="Baseline-L" style="fill:none;stroke:#27AAE1;opacity:1;stroke-width:0.577;" x1="263" x2="3036" y1="1556" y2="1556"/>
  <line id="Capline-L" style="fill:none;stroke:#27AAE1;opacity:1;stroke-width:0.577;" x1="263" x2="3036" y1="1485.54" y2="1485.54"/>
  <rect height="119.336" id="left-margin" style="fill:#00AEEF;stroke:none;opacity:0.4;" width="8.74023" x="1391.3" y="1030.79"/>
  <rect height="119.336" id="right-margin" style="fill:#00AEEF;stroke:none;opacity:0.4;" width="8.74023" x="1499.65" y="1030.79"/>
 </g>
 <g id="Symbols">
  <g id="Black-L" transform="matrix(1 0 0 1 2854.05 1556)">
   <path d="M 79.3457 32.8613 C 116.748 32.8613 147.412 2.19727 147.412 -35.2051 C 147.412 -72.6074 116.748 -103.271 79.2969 -103.271 C 41.8945 -103.271 11.2793 -72.6074 11.2793 -35.2051 C 11.2793 2.19727 41.9434 32.8613 79.3457 32.8613 Z M 52.0996 -24.6094 C 52.0996 -27.5391 53.1738 -30.1758 54.834 -33.7891 C 59.4238 -43.0664 63.7695 -51.416 68.6523 -60.6934 C 70.4102 -64.1113 72.5586 -65.8203 76.4648 -65.8203 C 81.1523 -65.8203 84.6191 -62.5977 84.6191 -58.5449 C 84.6191 -56.5918 84.1797 -55.2246 83.0078 -52.4902 C 79.9805 -46.0938 75.6348 -36.9629 72.0703 -29.8828 L 81.4453 -29.8828 L 81.4453 -35.498 C 81.4453 -40.2344 84.5215 -43.4082 89.4531 -43.4082 C 94.4336 -43.4082 97.6074 -40.2832 97.6074 -35.498 L 97.6074 -29.8828 L 99.0234 -29.8828 C 104.297 -29.8828 107.373 -27.0508 107.373 -22.6074 C 107.373 -18.0664 104.248 -15.1855 98.9746 -15.1855 L 97.6074 -15.1855 L 97.6074 -13.7207 C 97.6074 -8.00781 94.4824 -5.12695 89.502 -5.12695 C 84.5703 -5.12695 81.4453 -8.00781 81.4453 -13.7207 L 81.4453 -15.1855 L 61.7676 -15.1855 C 55.957 -15.1855 52.0996 -18.4082 52.0996 -24.6094 Z"/>
  </g>
  <g id="Heavy-L" transform="matrix(1 0 0 1 2558.39 1556)">
   <path d="M 78.2715 31.7871 C 115.088 31.7871 145.312 1.61133 145.312 -35.2051 C 145.312 -72.0215 115.039 -102.197 78.2715 -102.197 C 41.4551 -102.197 11.2793 -72.0215 11.2793 -35.2051 C 11.2793 1.61133 41.5039 31.7871 78.2715 31.7871 Z M 52.002 -24.2676 C 52.002 -26.7578 52.8809 -29.1016 54.3457 -32.1777 C 59.4238 -42.0898 64.4043 -51.3672 69.7266 -61.1816 C 71.2891 -64.2578 73.2422 -65.7715 76.6113 -65.7715 C 80.8594 -65.7715 83.7891 -62.8418 83.7891 -59.2285 C 83.7891 -57.5195 83.3984 -56.2988 82.373 -53.9551 C 78.6621 -46.4355 73.8281 -36.9141 69.7266 -28.9551 L 81.4453 -28.9551 L 81.4453 -36.7676 C 81.4453 -41.0645 84.1797 -43.8965 88.5254 -43.8965 C 92.9688 -43.8965 95.752 -41.1621 95.752 -36.7676 L 95.752 -28.9551 L 98.0469 -28.9551 C 102.637 -28.9551 105.371 -26.4648 105.371 -22.5586 C 105.371 -18.5547 102.588 -15.9668 97.998 -15.9668 L 95.752 -15.9668 L 95.752 -12.9883 C 95.752 -7.86133 93.0176 -5.32227 88.5742 -5.32227 C 84.1797 -5.32227 81.4453 -7.91016 81.4453 -12.9883 L 81.4453 -15.9668 L 60.5469 -15.9668 C 55.4199 -15.9668 52.002 -18.8477 52.002 -24.2676 Z"/>
  </g>
  <g id="Bold-L" transform="matrix(1 0 0 1 2262.88 1556)">
   <path d="M 77.0996 30.6152 C 113.232 30.6152 142.92 0.878906 142.92 -35.2051 C 142.92 -71.3379 113.184 -101.025 77.0508 -101.025 C 40.9668 -101.025 11.2793 -71.3379 11.2793 -35.2051 C 11.2793 0.878906 41.0156 30.6152 77.0996 30.6152 Z M 51.9043 -23.877 C 51.9043 -25.9277 52.5879 -27.8809 53.7598 -30.3223 C 59.4238 -41.0156 65.0879 -51.2695 70.8984 -61.7676 C 72.2656 -64.4043 73.9746 -65.6738 76.8066 -65.6738 C 80.4688 -65.6738 82.9102 -63.1348 82.9102 -59.9609 C 82.9102 -58.5449 82.5684 -57.4707 81.6895 -55.6152 C 77.1973 -46.875 71.8262 -36.8652 67.1387 -27.9297 L 81.4453 -27.9297 L 81.4453 -38.1348 C 81.4453 -41.9922 83.7402 -44.4824 87.5 -44.4824 C 91.3086 -44.4824 93.7012 -42.0898 93.7012 -38.1348 L 93.7012 -27.9297 L 96.9238 -27.9297 C 100.83 -27.9297 103.125 -25.8301 103.125 -22.5098 C 103.125 -19.043 100.781 -16.8457 96.875 -16.8457 L 93.7012 -16.8457 L 93.7012 -12.1582 C 93.7012 -7.76367 91.3574 -5.46875 87.5488 -5.46875 C 83.7402 -5.46875 81.4453 -7.76367 81.4453 -12.1582 L 81.4453 -16.8457 L 59.2285 -16.8457 C 54.7852 -16.8457 51.9043 -19.3848 51.9043 -23.877 Z"/>
  </g>
  <g id="Semibold-L" transform="matrix(1 0 0 1 1966.97 1556)">
   <path d="M 76.2695 29.7852 C 111.914 29.7852 141.309 0.439453 141.309 -35.2051 C 141.309 -70.8496 111.865 -100.244 76.2695 -100.244 C 40.625 -100.244 11.2793 -70.8496 11.2793 -35.2051 C 11.2793 0.439453 40.6738 29.7852 76.2695 29.7852 Z M 51.8066 -23.6328 C 51.8066 -25.3906 52.3438 -27.0508 53.3691 -29.0527 C 59.4727 -40.2344 65.5762 -51.1719 71.6797 -62.1582 C 72.9492 -64.502 74.5117 -65.625 76.9531 -65.625 C 80.2246 -65.625 82.2754 -63.3301 82.2754 -60.498 C 82.2754 -59.2773 81.9336 -58.252 81.2012 -56.7871 C 76.2207 -47.168 70.4102 -36.8652 65.3809 -27.2461 L 81.3965 -27.2461 L 81.3965 -39.1113 C 81.3965 -42.6758 83.4473 -44.8242 86.8164 -44.8242 C 90.1855 -44.8242 92.2852 -42.7246 92.2852 -39.1113 L 92.2852 -27.2461 L 96.1426 -27.2461 C 99.5117 -27.2461 101.562 -25.3906 101.562 -22.5098 C 101.562 -19.4336 99.5117 -17.4316 96.0938 -17.4316 L 92.2852 -17.4316 L 92.2852 -11.5723 C 92.2852 -7.66602 90.2344 -5.61523 86.8164 -5.61523 C 83.4473 -5.61523 81.3965 -7.71484 81.3965 -11.5723 L 81.3965 -17.4316 L 58.3496 -17.4316 C 54.3457 -17.4316 51.8066 -19.7266 51.8066 -23.6328 Z"/>
  </g>
  <g id="Medium-L" transform="matrix(1 0 0 1 1670.87 1556)">
   <path d="M 75.6836 29.1992 C 110.938 29.1992 140.088 0.0488281 140.088 -35.2051 C 140.088 -70.459 110.889 -99.6094 75.6348 -99.6094 C 40.3809 -99.6094 11.2793 -70.459 11.2793 -35.2051 C 11.2793 0.0488281 40.3809 29.1992 75.6836 29.1992 Z M 51.7578 -23.3887 C 51.7578 -24.9512 52.1973 -26.416 53.0273 -28.0762 C 59.4727 -39.6484 65.9668 -51.123 72.3145 -62.4512 C 73.4863 -64.5996 74.9023 -65.5762 77.0508 -65.5762 C 80.0293 -65.5762 81.7871 -63.4766 81.7871 -60.8887 C 81.7871 -59.8145 81.4941 -58.8867 80.8594 -57.666 C 75.4395 -47.3633 69.3848 -36.8164 64.0137 -26.709 L 81.3965 -26.709 L 81.3965 -39.7949 C 81.3965 -43.1641 83.2031 -45.1172 86.2793 -45.1172 C 89.3555 -45.1172 91.1621 -43.2129 91.1621 -39.7949 L 91.1621 -26.709 L 95.5566 -26.709 C 98.584 -26.709 100.391 -25.0488 100.391 -22.4609 C 100.391 -19.7266 98.5352 -17.8711 95.5566 -17.8711 L 91.1621 -17.8711 L 91.1621 -11.1328 C 91.1621 -7.56836 89.3555 -5.71289 86.2793 -5.71289 C 83.252 -5.71289 81.3965 -7.61719 81.3965 -11.1328 L 81.3965 -17.8711 L 57.6172 -17.8711 C 54.0039 -17.8711 51.7578 -20.0195 51.7578 -23.3887 Z"/>
  </g>
  <g id="Regular-L" transform="matrix(1 0 0 1 1374.97 1556)">
   <path d="M 74.8535 28.3691 C 109.668 28.3691 138.477 -0.390625 138.477 -35.2051 C 138.477 -70.0195 109.619 -98.7793 74.8047 -98.7793 C 40.0391 -98.7793 11.2793 -70.0195 11.2793 -35.2051 C 11.2793 -0.390625 40.0879 28.3691 74.8535 28.3691 Z M 51.709 -23.1445 C 51.709 -24.3652 51.9531 -25.5859 52.6367 -26.8066 C 59.4727 -38.916 66.4551 -51.0742 73.0957 -62.793 C 74.1699 -64.6973 75.3906 -65.5273 77.1484 -65.5273 C 79.7852 -65.5273 81.1523 -63.623 81.1523 -61.4258 C 81.1523 -60.498 80.9082 -59.7168 80.3711 -58.7891 C 74.4141 -47.6562 68.0176 -36.8164 62.2559 -26.0254 L 81.3965 -26.0254 L 81.3965 -40.7715 C 81.3965 -43.7988 82.959 -45.5078 85.5469 -45.5078 C 88.2324 -45.5078 89.7949 -43.8477 89.7949 -40.7715 L 89.7949 -26.0254 L 94.7754 -26.0254 C 97.3145 -26.0254 98.877 -24.5605 98.877 -22.4609 C 98.877 -20.0684 97.3145 -18.5059 94.7754 -18.5059 L 89.7949 -18.5059 L 89.7949 -10.5957 C 89.7949 -7.4707 88.2324 -5.81055 85.5469 -5.81055 C 82.959 -5.81055 81.3965 -7.51953 81.3965 -10.5957 L 81.3965 -18.5059 L 56.7383 -18.5059 C 53.5645 -18.5059 51.709 -20.3613 51.709 -23.1445 Z"/>
  </g>
  <g id="Light-L" transform="matrix(1 0 0 1 1079.18 1556)">
   <path d="M 73.9258 27.4902 C 108.301 27.4902 136.621 -0.830078 136.621 -35.1562 C 136.621 -69.5312 108.252 -97.8516 73.9258 -97.8516 C 39.5508 -97.8516 11.2793 -69.5312 11.2793 -35.1562 C 11.2793 -0.830078 39.5996 27.4902 73.9258 27.4902 Z M 52.0996 -23.2422 C 52.0996 -24.2188 52.2949 -25.1465 52.9297 -26.2695 C 59.375 -37.8906 67.1875 -51.4648 73.5352 -62.5 C 74.3652 -63.916 75.293 -64.5996 76.6602 -64.5996 C 78.7598 -64.5996 79.7852 -63.0859 79.7852 -61.4258 C 79.7852 -60.6934 79.5898 -60.0586 79.1992 -59.375 C 73.3398 -48.4375 65.8691 -36.084 60.3516 -25.6348 L 80.9082 -25.6348 L 80.9082 -41.2109 C 80.9082 -43.5547 82.1289 -44.873 84.1797 -44.873 C 86.2305 -44.873 87.4023 -43.6035 87.4023 -41.2109 L 87.4023 -25.6348 L 93.3594 -25.6348 C 95.3125 -25.6348 96.582 -24.4629 96.582 -22.7539 C 96.582 -20.8984 95.3125 -19.6289 93.3594 -19.6289 L 87.4023 -19.6289 L 87.4023 -9.96094 C 87.4023 -7.56836 86.2305 -6.25 84.1797 -6.25 C 82.1289 -6.25 80.9082 -7.61719 80.9082 -9.96094 L 80.9082 -19.6289 L 56.0547 -19.6289 C 53.5645 -19.6289 52.0996 -21.0938 52.0996 -23.2422 Z"/>
  </g>
  <g id="Thin-L" transform="matrix(1 0 0 1 783.693 1556)">
   <path d="M 72.7051 26.3184 C 106.494 26.3184 134.18 -1.36719 134.18 -35.1074 C 134.18 -68.8965 106.494 -96.582 72.7051 -96.582 C 38.9648 -96.582 11.2793 -68.8965 11.2793 -35.1074 C 11.2793 -1.36719 38.9648 26.3184 72.7051 26.3184 Z M 52.6367 -23.3887 C 52.6367 -23.9746 52.7344 -24.5605 53.2715 -25.4883 C 59.2285 -36.5723 68.2129 -52.002 74.1211 -62.0605 C 74.6094 -62.8906 75.0977 -63.3301 75.9766 -63.3301 C 77.3438 -63.3301 77.9297 -62.4023 77.9297 -61.4258 C 77.9297 -60.9375 77.832 -60.5469 77.6367 -60.1562 C 71.875 -49.4629 63.0371 -35.1074 57.8613 -25.0977 L 80.2734 -25.0977 L 80.2734 -41.7969 C 80.2734 -43.2129 81.0547 -44.043 82.2754 -44.043 C 83.5449 -44.043 84.3262 -43.2617 84.3262 -41.7969 L 84.3262 -25.0977 L 91.4551 -25.0977 C 92.7246 -25.0977 93.5547 -24.3652 93.5547 -23.1934 C 93.5547 -21.9727 92.7246 -21.1914 91.4551 -21.1914 L 84.3262 -21.1914 L 84.3262 -9.13086 C 84.3262 -7.66602 83.5449 -6.88477 82.2754 -6.88477 C 81.0547 -6.88477 80.2734 -7.66602 80.2734 -9.13086 L 80.2734 -21.1914 L 55.1758 -21.1914 C 53.5645 -21.1914 52.6367 -22.0703 52.6367 -23.3887 Z"/>
  </g>
  <g id="Ultralight-L" transform="matrix(1 0 0 1 487.616 1556)">
   <path d="M 72.1191 25.7324 C 105.566 25.7324 132.91 -1.61133 132.91 -35.1074 C 132.91 -68.5547 105.566 -95.8984 72.1191 -95.8984 C 38.623 -95.8984 11.2793 -68.5547 11.2793 -35.1074 C 11.2793 -1.61133 38.623 25.7324 72.1191 25.7324 Z M 52.9297 -23.4863 C 52.9297 -23.877 52.9785 -24.2676 53.418 -25.0977 C 59.1797 -35.8887 68.7012 -52.2949 74.3652 -61.8652 C 74.707 -62.3535 75 -62.6953 75.5859 -62.6953 C 76.6602 -62.6953 77.002 -62.0117 77.002 -61.4258 C 77.002 -61.084 76.9531 -60.791 76.8555 -60.5469 C 71.1426 -50 61.5723 -34.6191 56.5918 -24.8535 L 79.9805 -24.8535 L 79.9805 -42.0898 C 79.9805 -43.0664 80.5176 -43.6035 81.3477 -43.6035 C 82.1777 -43.6035 82.7148 -43.0664 82.7148 -42.0898 L 82.7148 -24.8535 L 90.5273 -24.8535 C 91.3574 -24.8535 91.9922 -24.3164 91.9922 -23.3887 C 91.9922 -22.5098 91.3574 -21.9727 90.5273 -21.9727 L 82.7148 -21.9727 L 82.7148 -8.69141 C 82.7148 -7.71484 82.1777 -7.17773 81.3477 -7.17773 C 80.5176 -7.17773 79.9805 -7.71484 79.9805 -8.69141 L 79.9805 -21.9727 L 54.7363 -21.9727 C 53.5645 -21.9727 52.9297 -22.5586 52.9297 -23.4863 Z"/>
  </g>
  <g id="Black-M" transform="matrix(1 0 0 1 2870.97 1126)">
   <path d="M 62.4023 18.457 C 91.9922 18.457 116.113 -5.61523 116.113 -35.2051 C 116.113 -64.7949 91.9922 -88.8672 62.4023 -88.8672 C 32.8125 -88.8672 8.74023 -64.7949 8.74023 -35.2051 C 8.74023 -5.61523 32.8125 18.457 62.4023 18.457 Z M 40.7227 -27.4902 C 40.7227 -30.1758 41.748 -32.5684 43.3594 -36.0352 C 45.9961 -42.1387 48.9746 -48.1445 52.002 -54.1504 C 53.4668 -57.0312 55.2734 -58.5449 58.7402 -58.5449 C 62.7441 -58.5449 65.918 -55.8594 65.918 -52.3926 C 65.918 -50.6348 65.625 -49.5117 64.5508 -46.9238 C 63.1836 -43.5547 59.9121 -36.2305 57.959 -32.0801 L 62.8906 -32.0801 L 62.8906 -34.0332 C 62.8906 -37.8418 65.5762 -40.5273 69.7754 -40.5273 C 74.0723 -40.5273 76.9043 -37.8906 76.9043 -34.0332 L 76.9043 -32.0801 L 77.3438 -32.0801 C 81.9824 -32.0801 84.7168 -29.6387 84.7168 -25.6836 C 84.7168 -21.7285 81.9336 -19.2871 77.2949 -19.2871 L 76.9043 -19.2871 L 76.9043 -19.2383 C 76.9043 -14.3555 74.1211 -11.9629 69.873 -11.9629 C 65.6738 -11.9629 62.8906 -14.3555 62.8906 -19.2383 L 62.8906 -19.2871 L 49.1211 -19.2871 C 44.1406 -19.2871 40.7227 -21.9727 40.7227 -27.4902 Z"/>
  </g>
  <g id="Heavy-M" transform="matrix(1 0 0 1 2575.19 1126)">
   <path d="M 61.5234 17.5781 C 90.5273 17.5781 114.258 -6.15234 114.258 -35.2051 C 114.258 -64.2578 90.5273 -87.9883 61.4746 -87.9883 C 32.4707 -87.9883 8.74023 -64.2578 8.74023 -35.2051 C 8.74023 -6.15234 32.4707 17.5781 61.5234 17.5781 Z M 40.5273 -27.0996 C 40.5273 -29.3945 41.3574 -31.4941 42.7246 -34.375 C 46.0449 -41.3086 49.4629 -47.9492 53.0762 -54.7852 C 54.3945 -57.373 56.0547 -58.6914 59.082 -58.6914 C 62.6953 -58.6914 65.3809 -56.25 65.3809 -53.125 C 65.3809 -51.6113 65.0879 -50.5371 64.1602 -48.3887 C 62.0117 -43.75 58.4961 -36.377 55.9082 -31.2012 L 62.9883 -31.2012 L 62.9883 -35.2539 C 62.9883 -38.8184 65.3809 -41.2598 69.1406 -41.2598 C 72.998 -41.2598 75.4883 -38.8672 75.4883 -35.2539 L 75.4883 -31.2012 L 76.6113 -31.2012 C 80.7129 -31.2012 83.1055 -29.0527 83.1055 -25.5371 C 83.1055 -22.0215 80.6641 -19.8242 76.5625 -19.8242 L 75.4883 -19.8242 L 75.4883 -18.6035 C 75.4883 -14.1602 73.0469 -12.0117 69.1895 -12.0117 C 65.4297 -12.0117 62.9883 -14.209 62.9883 -18.6035 L 62.9883 -19.8242 L 47.998 -19.8242 C 43.5059 -19.8242 40.5273 -22.2656 40.5273 -27.0996 Z"/>
  </g>
  <g id="Bold-M" transform="matrix(1 0 0 1 2279.5 1126)">
   <path d="M 60.498 16.5039 C 88.8672 16.5039 112.207 -6.78711 112.207 -35.2051 C 112.207 -63.623 88.8672 -86.9629 60.4492 -86.9629 C 32.0312 -86.9629 8.74023 -63.623 8.74023 -35.2051 C 8.74023 -6.78711 32.0801 16.5039 60.498 16.5039 Z M 40.2832 -26.6602 C 40.2832 -28.5156 40.918 -30.2734 41.9922 -32.5195 C 46.0449 -40.3809 50 -47.7051 54.1992 -55.4688 C 55.4199 -57.7637 56.8848 -58.8867 59.4238 -58.8867 C 62.5977 -58.8867 64.7949 -56.6895 64.7949 -53.9551 C 64.7949 -52.6855 64.502 -51.7578 63.7695 -50 C 60.7422 -43.9941 56.8848 -36.5234 53.6133 -30.2246 L 63.1348 -30.2246 L 63.1348 -36.6211 C 63.1348 -39.9414 65.1367 -42.041 68.457 -42.041 C 71.7773 -42.041 73.9258 -39.9902 73.9258 -36.6211 L 73.9258 -30.2246 L 75.7812 -30.2246 C 79.248 -30.2246 81.2988 -28.3203 81.2988 -25.3906 C 81.2988 -22.3633 79.248 -20.4102 75.7812 -20.4102 L 73.9258 -20.4102 L 73.9258 -17.8711 C 73.9258 -14.0137 71.8262 -12.0605 68.5059 -12.0605 C 65.1855 -12.0605 63.1348 -14.0137 63.1348 -17.8711 L 63.1348 -20.4102 L 46.7285 -20.4102 C 42.8223 -20.4102 40.2832 -22.6074 40.2832 -26.6602 Z"/>
  </g>
  <g id="Semibold-M" transform="matrix(1 0 0 1 1983.5 1126)">
   <path d="M 59.7656 15.8203 C 87.7441 15.8203 110.791 -7.22656 110.791 -35.2051 C 110.791 -63.1836 87.6953 -86.2793 59.7656 -86.2793 C 31.7871 -86.2793 8.74023 -63.1836 8.74023 -35.2051 C 8.74023 -7.22656 31.7871 15.8203 59.7656 15.8203 Z M 40.1367 -26.3672 C 40.1367 -27.9297 40.625 -29.4434 41.5039 -31.25 C 46.0938 -39.7461 50.3906 -47.5586 55.0293 -55.957 C 56.1035 -58.0078 57.4707 -59.0332 59.668 -59.0332 C 62.5488 -59.0332 64.4043 -57.0312 64.4043 -54.541 C 64.4043 -53.418 64.1113 -52.5391 63.4766 -51.1719 C 59.8633 -44.1406 55.8105 -36.6699 52.0508 -29.4922 L 63.1836 -29.4922 L 63.1836 -37.5977 C 63.1836 -40.6738 64.9902 -42.627 67.9688 -42.627 C 70.9473 -42.627 72.8027 -40.7227 72.8027 -37.5977 L 72.8027 -29.4922 L 75.2441 -29.4922 C 78.2715 -29.4922 80.0781 -27.8809 80.0781 -25.293 C 80.0781 -22.6074 78.2715 -20.8496 75.2441 -20.8496 L 72.8027 -20.8496 L 72.8027 -17.334 C 72.8027 -13.916 70.9961 -12.1094 67.9688 -12.1094 C 65.0391 -12.1094 63.1836 -13.916 63.1836 -17.334 L 63.1836 -20.8496 L 45.8496 -20.8496 C 42.334 -20.8496 40.1367 -22.8516 40.1367 -26.3672 Z"/>
  </g>
  <g id="Medium-M" transform="matrix(1 0 0 1 1687.3 1126)">
   <path d="M 59.2285 15.2832 C 86.9141 15.2832 109.766 -7.56836 109.766 -35.2051 C 109.766 -62.8906 86.8652 -85.7422 59.1797 -85.7422 C 31.543 -85.7422 8.74023 -62.8906 8.74023 -35.2051 C 8.74023 -7.56836 31.5918 15.2832 59.2285 15.2832 Z M 39.9902 -26.123 C 39.9902 -27.4902 40.3809 -28.8574 41.1133 -30.3223 C 46.0938 -39.2578 50.6836 -47.4121 55.6152 -56.2988 C 56.6406 -58.252 57.9102 -59.1309 59.8633 -59.1309 C 62.5 -59.1309 64.1113 -57.2266 64.1113 -54.9316 C 64.1113 -54.0039 63.8184 -53.1738 63.2324 -52.002 C 59.1797 -44.2871 54.9805 -36.7188 50.8789 -29.0039 L 63.2812 -29.0039 L 63.2812 -38.3301 C 63.2812 -41.2598 64.8926 -43.0176 67.5781 -43.0176 C 70.3613 -43.0176 71.9727 -41.3086 71.9727 -38.3301 L 71.9727 -29.0039 L 74.8047 -29.0039 C 77.5391 -29.0039 79.1504 -27.4902 79.1504 -25.2441 C 79.1504 -22.8027 77.4902 -21.1914 74.8047 -21.1914 L 71.9727 -21.1914 L 71.9727 -16.9922 C 71.9727 -13.8184 70.3613 -12.1094 67.627 -12.1094 C 64.8926 -12.1094 63.2812 -13.8672 63.2812 -16.9922 L 63.2812 -21.1914 L 45.2148 -21.1914 C 41.9922 -21.1914 39.9902 -23.0469 39.9902 -26.123 Z"/>
  </g>
  <g id="Regular-M" transform="matrix(1 0 0 1 1391.3 1126)">
   <path d="M 58.5449 14.5508 C 85.791 14.5508 108.35 -8.00781 108.35 -35.2539 C 108.35 -62.4512 85.7422 -85.0586 58.4961 -85.0586 C 31.2988 -85.0586 8.74023 -62.4512 8.74023 -35.2539 C 8.74023 -8.00781 31.3477 14.5508 58.5449 14.5508 Z M 39.8438 -25.8301 C 39.8438 -26.9043 40.0879 -28.0273 40.6738 -29.0527 C 46.1426 -38.623 51.0742 -47.2656 56.3965 -56.7871 C 57.373 -58.4961 58.4961 -59.2285 60.1074 -59.2285 C 62.4512 -59.2285 63.6719 -57.5684 63.6719 -55.5176 C 63.6719 -54.7363 63.4277 -53.9551 62.9883 -53.125 C 58.3008 -44.4336 53.9062 -36.8652 49.3164 -28.3203 L 63.3789 -28.3203 L 63.3789 -39.2578 C 63.3789 -41.9922 64.7461 -43.5547 67.0898 -43.5547 C 69.5312 -43.5547 70.8984 -42.041 70.8984 -39.2578 L 70.8984 -28.3203 L 74.2676 -28.3203 C 76.5137 -28.3203 77.9297 -27.0508 77.9297 -25.1465 C 77.9297 -22.998 76.5137 -21.582 74.2676 -21.582 L 70.8984 -21.582 L 70.8984 -16.4551 C 70.8984 -13.6719 69.5312 -12.1582 67.0898 -12.1582 C 64.7461 -12.1582 63.3789 -13.7207 63.3789 -16.4551 L 63.3789 -21.582 L 44.3359 -21.582 C 41.5039 -21.582 39.8438 -23.291 39.8438 -25.8301 Z"/>
  </g>
  <g id="Light-M" transform="matrix(1 0 0 1 1095.42 1126)">
   <path d="M 57.7148 13.7695 C 84.5215 13.7695 106.689 -8.39844 106.689 -35.2051 C 106.689 -62.0117 84.5215 -84.1797 57.666 -84.1797 C 30.8594 -84.1797 8.74023 -62.0117 8.74023 -35.2051 C 8.74023 -8.39844 30.9082 13.7695 57.7148 13.7695 Z M 40.1855 -25.9277 C 40.1855 -26.7578 40.3809 -27.6367 40.8691 -28.5156 C 46.0449 -37.7441 51.709 -47.6562 56.7871 -56.4941 C 57.5195 -57.8125 58.3984 -58.3984 59.6191 -58.3984 C 61.4746 -58.3984 62.4512 -57.0801 62.4512 -55.5176 C 62.4512 -54.8828 62.2559 -54.2969 61.9141 -53.6621 C 57.3242 -45.1172 52.002 -36.1816 47.6074 -27.9785 L 62.9395 -27.9785 L 62.9395 -39.6484 C 62.9395 -41.7969 64.0137 -43.0176 65.8691 -43.0176 C 67.7246 -43.0176 68.7988 -41.7969 68.7988 -39.6484 L 68.7988 -27.9785 L 72.998 -27.9785 C 74.7559 -27.9785 75.8789 -26.9531 75.8789 -25.4395 C 75.8789 -23.7305 74.7559 -22.6562 72.998 -22.6562 L 68.7988 -22.6562 L 68.7988 -15.918 C 68.7988 -13.7695 67.7246 -12.5977 65.8691 -12.5977 C 64.0137 -12.5977 62.9395 -13.7695 62.9395 -15.918 L 62.9395 -22.6562 L 43.75 -22.6562 C 41.5039 -22.6562 40.1855 -23.9258 40.1855 -25.9277 Z"/>
  </g>
  <g id="Thin-M" transform="matrix(1 0 0 1 799.806 1126)">
   <path d="M 56.6406 12.7441 C 82.9102 12.7441 104.492 -8.83789 104.492 -35.1562 C 104.492 -61.4746 82.9102 -83.0566 56.5918 -83.0566 C 30.3223 -83.0566 8.74023 -61.4746 8.74023 -35.1562 C 8.74023 -8.83789 30.3223 12.7441 56.6406 12.7441 Z M 40.6738 -26.0254 C 40.6738 -26.5625 40.7715 -27.0996 41.2109 -27.832 C 45.9473 -36.5723 52.6367 -48.1445 57.3242 -56.1035 C 57.7637 -56.8848 58.252 -57.2754 59.0332 -57.2754 C 60.2539 -57.2754 60.791 -56.4453 60.791 -55.5176 C 60.791 -55.0781 60.6934 -54.7363 60.498 -54.3945 C 56.0059 -46.0449 49.4629 -35.3516 45.3613 -27.4902 L 62.3535 -27.4902 L 62.3535 -40.1855 C 62.3535 -41.5039 63.0371 -42.2363 64.1602 -42.2363 C 65.332 -42.2363 66.0156 -41.5039 66.0156 -40.1855 L 66.0156 -27.4902 L 71.2891 -27.4902 C 72.4121 -27.4902 73.1445 -26.8555 73.1445 -25.7812 C 73.1445 -24.707 72.4121 -24.0234 71.2891 -24.0234 L 66.0156 -24.0234 L 66.0156 -15.1855 C 66.0156 -13.8184 65.332 -13.1348 64.1602 -13.1348 C 63.0371 -13.1348 62.3535 -13.8672 62.3535 -15.1855 L 62.3535 -24.0234 L 42.9688 -24.0234 C 41.5039 -24.0234 40.6738 -24.8047 40.6738 -26.0254 Z"/>
  </g>
  <g id="Ultralight-M" transform="matrix(1 0 0 1 503.656 1126)">
   <path d="M 56.0547 12.207 C 82.0801 12.207 103.369 -9.08203 103.369 -35.1562 C 103.369 -61.1816 82.0801 -82.4707 56.0547 -82.4707 C 30.0293 -82.4707 8.74023 -61.1816 8.74023 -35.1562 C 8.74023 -9.08203 30.0293 12.207 56.0547 12.207 Z M 40.918 -26.123 C 40.918 -26.4648 40.9668 -26.8066 41.3574 -27.4902 C 45.8984 -35.9375 53.0762 -48.3887 57.5684 -55.957 C 57.8613 -56.3965 58.1543 -56.7383 58.6914 -56.7383 C 59.6191 -56.7383 59.9609 -56.1035 59.9609 -55.5176 C 59.9609 -55.2246 59.9121 -54.9805 59.7656 -54.7363 C 55.3711 -46.5332 48.1445 -34.9121 44.2383 -27.2461 L 62.0605 -27.2461 L 62.0605 -40.4785 C 62.0605 -41.3574 62.5488 -41.8457 63.3301 -41.8457 C 64.1113 -41.8457 64.5996 -41.3574 64.5996 -40.4785 L 64.5996 -27.2461 L 70.4102 -27.2461 C 71.2402 -27.2461 71.7773 -26.7578 71.7773 -25.9766 C 71.7773 -25.1953 71.2402 -24.707 70.4102 -24.707 L 64.5996 -24.707 L 64.5996 -14.7949 C 64.5996 -13.8672 64.1113 -13.4277 63.3301 -13.4277 C 62.5488 -13.4277 62.0605 -13.8672 62.0605 -14.7949 L 62.0605 -24.707 L 42.5293 -24.707 C 41.5039 -24.707 40.918 -25.2441 40.918 -26.123 Z"/>
  </g>
  <g id="Black-S" transform="matrix(1 0 0 1 2884.57 696)">
   <path d="M 48.8281 6.78711 C 71.9727 6.78711 90.8203 -12.0605 90.8203 -35.2051 C 90.8203 -58.3496 71.9727 -77.1973 48.8281 -77.1973 C 25.6836 -77.1973 6.83594 -58.3496 6.83594 -35.2051 C 6.83594 -12.0605 25.6836 6.78711 48.8281 6.78711 Z M 31.8848 -29.1504 C 31.8848 -31.2012 32.666 -33.0566 33.8867 -35.7422 C 36.0352 -40.5762 38.3789 -45.3125 40.8203 -50.0977 C 41.9434 -52.3438 43.3594 -53.5156 46.0449 -53.5156 C 49.1699 -53.5156 51.6113 -51.416 51.6113 -48.7305 C 51.6113 -47.3633 51.3672 -46.4844 50.5371 -44.4824 C 49.4141 -41.748 46.8262 -36.0352 45.2637 -32.7148 L 49.2676 -32.7148 L 49.2676 -34.375 C 49.2676 -37.3535 51.3672 -39.4531 54.6387 -39.4531 C 57.959 -39.4531 60.1562 -37.4023 60.1562 -34.375 L 60.1562 -32.7148 L 60.5469 -32.7148 C 64.1602 -32.7148 66.2598 -30.8105 66.2598 -27.7344 C 66.2598 -24.6582 64.1113 -22.7539 60.498 -22.7539 L 60.1562 -22.7539 L 60.1562 -22.6562 C 60.1562 -18.8477 58.0078 -16.9922 54.6875 -16.9922 C 51.416 -16.9922 49.2676 -18.8477 49.2676 -22.6562 L 49.2676 -22.7539 L 38.3789 -22.7539 C 34.5215 -22.7539 31.8848 -24.8535 31.8848 -29.1504 Z"/>
  </g>
  <g id="Heavy-S" transform="matrix(1 0 0 1 2588.47 696)">
   <path d="M 48.2422 6.15234 C 70.9961 6.15234 89.5996 -12.4512 89.5996 -35.2051 C 89.5996 -57.959 70.9961 -76.6113 48.1934 -76.6113 C 25.4395 -76.6113 6.83594 -57.959 6.83594 -35.2051 C 6.83594 -12.4512 25.4395 6.15234 48.2422 6.15234 Z M 31.6895 -28.8086 C 31.6895 -30.6152 32.3242 -32.2754 33.3984 -34.5215 C 36.084 -40.0391 38.6719 -45.1172 41.5527 -50.5859 C 42.627 -52.6855 43.9453 -53.7598 46.3379 -53.7598 C 49.2188 -53.7598 51.3672 -51.7578 51.3672 -49.3164 C 51.3672 -48.0957 51.123 -47.2656 50.3906 -45.5566 C 48.6328 -41.8457 45.9473 -36.2305 43.8965 -32.0801 L 49.4141 -32.0801 L 49.4141 -35.2539 C 49.4141 -38.1348 51.3184 -40.0879 54.2969 -40.0879 C 57.3242 -40.0879 59.3262 -38.1836 59.3262 -35.2539 L 59.3262 -32.0801 L 60.1074 -32.0801 C 63.3789 -32.0801 65.2832 -30.3223 65.2832 -27.5879 C 65.2832 -24.8047 63.3301 -23.0469 60.1074 -23.0469 L 59.3262 -23.0469 L 59.3262 -22.2168 C 59.3262 -18.7012 57.373 -16.9922 54.3457 -16.9922 C 51.3184 -16.9922 49.4141 -18.75 49.4141 -22.2168 L 49.4141 -23.0469 L 37.5977 -23.0469 C 34.0332 -23.0469 31.6895 -25 31.6895 -28.8086 Z"/>
  </g>
  <g id="Bold-S" transform="matrix(1 0 0 1 2292.44 696)">
   <path d="M 47.5586 5.46875 C 69.873 5.46875 88.2324 -12.8906 88.2324 -35.2051 C 88.2324 -57.5684 69.873 -75.9277 47.5098 -75.9277 C 25.1953 -75.9277 6.83594 -57.5684 6.83594 -35.2051 C 6.83594 -12.8906 25.1953 5.46875 47.5586 5.46875 Z M 31.4453 -28.4668 C 31.4453 -29.9805 31.9336 -31.3965 32.8125 -33.2031 C 36.084 -39.4531 39.0137 -44.9219 42.4316 -51.1719 C 43.4082 -53.0762 44.6289 -54.0039 46.6797 -54.0039 C 49.2676 -54.0039 51.0742 -52.1973 51.0742 -49.9512 C 51.0742 -48.877 50.8301 -48.1445 50.1953 -46.7285 C 47.7539 -41.9434 44.9707 -36.4258 42.334 -31.3477 L 49.5605 -31.3477 L 49.5605 -36.2793 C 49.5605 -39.0137 51.2207 -40.7715 53.9062 -40.7715 C 56.6406 -40.7715 58.3496 -39.0625 58.3496 -36.2793 L 58.3496 -31.3477 L 59.668 -31.3477 C 62.5 -31.3477 64.1602 -29.834 64.1602 -27.4414 C 64.1602 -25 62.4512 -23.3887 59.6191 -23.3887 L 58.3496 -23.3887 L 58.3496 -21.7285 C 58.3496 -18.6035 56.6895 -16.9922 53.9551 -16.9922 C 51.2207 -16.9922 49.5605 -18.6035 49.5605 -21.7285 L 49.5605 -23.3887 L 36.7188 -23.3887 C 33.5449 -23.3887 31.4453 -25.1953 31.4453 -28.4668 Z"/>
  </g>
  <g id="Semibold-S" transform="matrix(1 0 0 1 1996.2 696)">
   <path d="M 47.0703 4.98047 C 69.0918 4.98047 87.3047 -13.1836 87.3047 -35.2539 C 87.3047 -57.2754 69.0918 -75.4883 47.0215 -75.4883 C 25 -75.4883 6.83594 -57.2754 6.83594 -35.2539 C 6.83594 -13.1836 25.0488 4.98047 47.0703 4.98047 Z M 31.2988 -28.2227 C 31.2988 -29.541 31.6895 -30.8105 32.4219 -32.2754 C 36.1328 -39.0625 39.2578 -44.7754 42.9688 -51.5625 C 43.9453 -53.3203 45.0684 -54.1504 46.875 -54.1504 C 49.3164 -54.1504 50.8301 -52.4414 50.8301 -50.3418 C 50.8301 -49.4629 50.5859 -48.7305 50.0488 -47.5586 C 47.168 -41.9922 44.3359 -36.5723 41.3086 -30.8594 L 49.6582 -30.8594 L 49.6582 -36.9629 C 49.6582 -39.5996 51.1719 -41.2109 53.6621 -41.2109 C 56.1523 -41.2109 57.7148 -39.6484 57.7148 -36.9629 L 57.7148 -30.8594 L 59.3262 -30.8594 C 61.8652 -30.8594 63.3789 -29.4922 63.3789 -27.3438 C 63.3789 -25.0977 61.8652 -23.6328 59.3262 -23.6328 L 57.7148 -23.6328 L 57.7148 -21.3867 C 57.7148 -18.5059 56.2012 -16.9922 53.6621 -16.9922 C 51.1719 -16.9922 49.6582 -18.5059 49.6582 -21.3867 L 49.6582 -23.6328 L 36.084 -23.6328 C 33.1543 -23.6328 31.2988 -25.3418 31.2988 -28.2227 Z"/>
  </g>
  <g id="Medium-S" transform="matrix(1 0 0 1 1699.83 696)">
   <path d="M 46.7285 4.63867 C 68.5547 4.63867 86.6211 -13.4277 86.6211 -35.2539 C 86.6211 -57.0312 68.5059 -75.1465 46.6797 -75.1465 C 24.8535 -75.1465 6.83594 -57.0312 6.83594 -35.2539 C 6.83594 -13.4277 24.9023 4.63867 46.7285 4.63867 Z M 31.1523 -28.0273 C 31.1523 -29.1992 31.4941 -30.3711 32.1289 -31.543 C 36.1328 -38.7207 39.4043 -44.6289 43.4082 -51.8555 C 44.3359 -53.5156 45.4102 -54.2969 47.0703 -54.2969 C 49.3164 -54.2969 50.6836 -52.6855 50.6836 -50.6836 C 50.6836 -49.8535 50.4395 -49.1699 49.9512 -48.1934 C 46.7285 -42.041 43.7988 -36.6699 40.4785 -30.4688 L 49.7559 -30.4688 L 49.7559 -37.5 C 49.7559 -40.0391 51.123 -41.6016 53.418 -41.6016 C 55.8105 -41.6016 57.2266 -40.0879 57.2266 -37.5 L 57.2266 -30.4688 L 59.082 -30.4688 C 61.4258 -30.4688 62.793 -29.1992 62.793 -27.2949 C 62.793 -25.1953 61.4258 -23.8281 59.082 -23.8281 L 57.2266 -23.8281 L 57.2266 -21.1426 C 57.2266 -18.4082 55.8105 -16.9434 53.4668 -16.9434 C 51.123 -16.9434 49.7559 -18.457 49.7559 -21.1426 L 49.7559 -23.8281 L 35.6445 -23.8281 C 32.8613 -23.8281 31.1523 -25.4395 31.1523 -28.0273 Z"/>
  </g>
  <g id="Regular-S" transform="matrix(1 0 0 1 1403.58 696)">
   <path d="M 46.2402 4.15039 C 67.7734 4.15039 85.6934 -13.7207 85.6934 -35.2539 C 85.6934 -56.7871 67.7246 -74.6582 46.1914 -74.6582 C 24.707 -74.6582 6.83594 -56.7871 6.83594 -35.2539 C 6.83594 -13.7207 24.7559 4.15039 46.2402 4.15039 Z M 31.0059 -27.7832 C 31.0059 -28.8086 31.25 -29.7852 31.7383 -30.6152 C 36.1816 -38.3301 39.6484 -44.4824 43.9941 -52.2461 C 44.873 -53.8086 45.8984 -54.4434 47.3145 -54.4434 C 49.3652 -54.4434 50.4883 -52.9297 50.4883 -51.123 C 50.4883 -50.4395 50.2441 -49.7559 49.8535 -49.0234 C 46.1426 -42.0898 43.1641 -36.8164 39.4531 -29.9805 L 49.8535 -29.9805 L 49.8535 -38.1836 C 49.8535 -40.625 51.0742 -42.041 53.1738 -42.041 C 55.3223 -42.041 56.543 -40.6738 56.543 -38.1836 L 56.543 -29.9805 L 58.7891 -29.9805 C 60.791 -29.9805 62.0117 -28.8574 62.0117 -27.1973 C 62.0117 -25.293 60.791 -24.0234 58.7891 -24.0234 L 56.543 -24.0234 L 56.543 -20.8008 C 56.543 -18.3105 55.3223 -16.9434 53.1738 -16.9434 C 51.0742 -16.9434 49.8535 -18.3594 49.8535 -20.8008 L 49.8535 -24.0234 L 35.0098 -24.0234 C 32.5195 -24.0234 31.0059 -25.5371 31.0059 -27.7832 Z"/>
  </g>
  <g id="Light-S" transform="matrix(1 0 0 1 1107.6 696)">
   <path d="M 45.5078 3.4668 C 66.6992 3.4668 84.2285 -14.0625 84.2285 -35.2051 C 84.2285 -56.3965 66.6504 -73.9258 45.5078 -73.9258 C 24.3164 -73.9258 6.83594 -56.3965 6.83594 -35.2051 C 6.83594 -14.0625 24.3652 3.4668 45.5078 3.4668 Z M 31.3477 -27.8809 C 31.3477 -28.6621 31.4941 -29.4434 31.9336 -30.1758 C 36.084 -37.5488 40.2344 -44.8242 44.3359 -52.002 C 45.0195 -53.1738 45.8008 -53.7109 46.875 -53.7109 C 48.5352 -53.7109 49.4141 -52.5391 49.4141 -51.123 C 49.4141 -50.5859 49.2188 -50.0488 48.877 -49.4629 C 45.2637 -42.7246 41.4551 -36.2305 37.9395 -29.6875 L 49.4629 -29.6875 L 49.4629 -38.5254 C 49.4629 -40.4297 50.3906 -41.5527 52.0508 -41.5527 C 53.7598 -41.5527 54.6875 -40.4785 54.6875 -38.5254 L 54.6875 -29.6875 L 57.666 -29.6875 C 59.2285 -29.6875 60.2051 -28.7598 60.2051 -27.4414 C 60.2051 -25.9766 59.2285 -24.9512 57.666 -24.9512 L 54.6875 -24.9512 L 54.6875 -20.3125 C 54.6875 -18.3594 53.7598 -17.334 52.0508 -17.334 C 50.3906 -17.334 49.4629 -18.4082 49.4629 -20.3125 L 49.4629 -24.9512 L 34.4727 -24.9512 C 32.5195 -24.9512 31.3477 -26.123 31.3477 -27.8809 Z"/>
  </g>
  <g id="Thin-S" transform="matrix(1 0 0 1 811.867 696)">
   <path d="M 44.5801 2.53906 C 65.2832 2.53906 82.2754 -14.4531 82.2754 -35.2051 C 82.2754 -55.9082 65.2344 -72.9004 44.5312 -72.9004 C 23.8281 -72.9004 6.83594 -55.9082 6.83594 -35.2051 C 6.83594 -14.4531 23.877 2.53906 44.5801 2.53906 Z M 31.7383 -27.9785 C 31.7383 -28.4668 31.8359 -28.9551 32.1777 -29.5898 C 35.9863 -36.5234 41.0645 -45.2148 44.7754 -51.6602 C 45.166 -52.3926 45.6543 -52.7344 46.3379 -52.7344 C 47.4121 -52.7344 47.9492 -51.9531 47.9492 -51.123 C 47.9492 -50.7324 47.8516 -50.4395 47.6562 -50.0977 C 44.1406 -43.5059 39.209 -35.498 35.9863 -29.248 L 48.9746 -29.248 L 48.9746 -39.0137 C 48.9746 -40.1855 49.5605 -40.8691 50.5859 -40.8691 C 51.6113 -40.8691 52.2461 -40.2344 52.2461 -39.0137 L 52.2461 -29.248 L 56.1523 -29.248 C 57.1777 -29.248 57.8125 -28.6621 57.8125 -27.7832 C 57.8125 -26.8066 57.1777 -26.1719 56.1523 -26.1719 L 52.2461 -26.1719 L 52.2461 -19.6777 C 52.2461 -18.457 51.6113 -17.8223 50.5859 -17.8223 C 49.5605 -17.8223 48.9746 -18.457 48.9746 -19.6777 L 48.9746 -26.1719 L 33.7891 -26.1719 C 32.5195 -26.1719 31.7383 -26.9043 31.7383 -27.9785 Z"/>
  </g>
  <g id="Ultralight-S" transform="matrix(1 0 0 1 515.644 696)">
   <path d="M 44.043 2.05078 C 64.502 2.05078 81.2988 -14.6973 81.2988 -35.1562 C 81.2988 -55.6152 64.502 -72.3633 44.043 -72.3633 C 23.584 -72.3633 6.83594 -55.6152 6.83594 -35.1562 C 6.83594 -14.6973 23.584 2.05078 44.043 2.05078 Z M 31.9824 -28.0762 C 31.9824 -28.3691 32.0312 -28.7109 32.3242 -29.248 C 35.9375 -35.9863 41.4551 -45.459 45.0195 -51.5137 C 45.3125 -51.9531 45.5566 -52.1973 46.0449 -52.1973 C 46.875 -52.1973 47.2168 -51.6602 47.2168 -51.123 C 47.2168 -50.8789 47.1191 -50.6348 47.0215 -50.4395 C 43.5547 -43.9453 38.0371 -35.1074 34.9609 -29.0527 L 48.6816 -29.0527 L 48.6816 -39.2578 C 48.6816 -40.0879 49.1211 -40.5273 49.8535 -40.5273 C 50.5371 -40.5273 50.9766 -40.0879 50.9766 -39.2578 L 50.9766 -29.0527 L 55.4199 -29.0527 C 56.1035 -29.0527 56.5918 -28.6133 56.5918 -27.9297 C 56.5918 -27.2461 56.1035 -26.8066 55.4199 -26.8066 L 50.9766 -26.8066 L 50.9766 -19.3359 C 50.9766 -18.5059 50.5371 -18.0664 49.8535 -18.0664 C 49.1211 -18.0664 48.6816 -18.5059 48.6816 -19.3359 L 48.6816 -26.8066 L 33.4473 -26.8066 C 32.5195 -26.8066 31.9824 -27.2949 31.9824 -28.0762 Z"/>
  </g>
 </g>
</svg>
