<?xml version="1.0" encoding="UTF-8"?>
<!--Generator: Apple Native CoreSVG 123-->
<!DOCTYPE svg
PUBLIC "-//W3C//DTD SVG 1.1//EN"
       "http://www.w3.org/Graphics/SVG/1.1/DTD/svg11.dtd">
<svg version="1.1" xmlns="http://www.w3.org/2000/svg" xmlns:xlink="http://www.w3.org/1999/xlink" width="3300" height="2200">
 <!--glyph: "uni100041.medium", point size: 100.000000, font version: "Version 15.0d7e11", template writer version: "5"-->
 <g id="Notes">
  <rect height="2200" id="artboard" style="fill:white;opacity:1" width="3300" x="0" y="0"/>
  <line id="" style="fill:none;stroke:black;opacity:1;stroke-width:0.5;" x1="263" x2="3036" y1="292" y2="292"/>
  <text style="stroke:none;fill:black;font-family:-apple-system,&quot;SF Pro Display&quot;,&quot;SF Pro Text&quot;,Helvetica,sans-serif;font-weight:bold;" transform="matrix(1 0 0 1 263 322)">Weight/Scale Variations</text>
  <text style="stroke:none;fill:black;font-family:-apple-system,&quot;SF Pro Display&quot;,&quot;SF Pro Text&quot;,Helvetica,sans-serif;text-anchor:middle;" transform="matrix(1 0 0 1 559.711 322)">Ultralight</text>
  <text style="stroke:none;fill:black;font-family:-apple-system,&quot;SF Pro Display&quot;,&quot;SF Pro Text&quot;,Helvetica,sans-serif;text-anchor:middle;" transform="matrix(1 0 0 1 856.422 322)">Thin</text>
  <text style="stroke:none;fill:black;font-family:-apple-system,&quot;SF Pro Display&quot;,&quot;SF Pro Text&quot;,Helvetica,sans-serif;text-anchor:middle;" transform="matrix(1 0 0 1 1153.13 322)">Light</text>
  <text style="stroke:none;fill:black;font-family:-apple-system,&quot;SF Pro Display&quot;,&quot;SF Pro Text&quot;,Helvetica,sans-serif;text-anchor:middle;" transform="matrix(1 0 0 1 1449.84 322)">Regular</text>
  <text style="stroke:none;fill:black;font-family:-apple-system,&quot;SF Pro Display&quot;,&quot;SF Pro Text&quot;,Helvetica,sans-serif;text-anchor:middle;" transform="matrix(1 0 0 1 1746.56 322)">Medium</text>
  <text style="stroke:none;fill:black;font-family:-apple-system,&quot;SF Pro Display&quot;,&quot;SF Pro Text&quot;,Helvetica,sans-serif;text-anchor:middle;" transform="matrix(1 0 0 1 2043.27 322)">Semibold</text>
  <text style="stroke:none;fill:black;font-family:-apple-system,&quot;SF Pro Display&quot;,&quot;SF Pro Text&quot;,Helvetica,sans-serif;text-anchor:middle;" transform="matrix(1 0 0 1 2339.98 322)">Bold</text>
  <text style="stroke:none;fill:black;font-family:-apple-system,&quot;SF Pro Display&quot;,&quot;SF Pro Text&quot;,Helvetica,sans-serif;text-anchor:middle;" transform="matrix(1 0 0 1 2636.69 322)">Heavy</text>
  <text style="stroke:none;fill:black;font-family:-apple-system,&quot;SF Pro Display&quot;,&quot;SF Pro Text&quot;,Helvetica,sans-serif;text-anchor:middle;" transform="matrix(1 0 0 1 2933.4 322)">Black</text>
  <line id="" style="fill:none;stroke:black;opacity:1;stroke-width:0.5;" x1="263" x2="3036" y1="1903" y2="1903"/>
  <g id="" transform="matrix(1 0 0 1 263 1933)">
   <path d="M 9.24805 0.830078 C 13.5547 0.830078 17.1387 -2.74414 17.1387 -7.05078 C 17.1387 -11.3574 13.5449 -14.9316 9.23828 -14.9316 C 4.94141 -14.9316 1.36719 -11.3574 1.36719 -7.05078 C 1.36719 -2.74414 4.95117 0.830078 9.24805 0.830078 Z M 9.24805 -0.654297 C 5.70312 -0.654297 2.87109 -3.49609 2.87109 -7.05078 C 2.87109 -10.6055 5.69336 -13.4473 9.23828 -13.4473 C 12.793 -13.4473 15.6348 -10.6055 15.6445 -7.05078 C 15.6543 -3.49609 12.8027 -0.654297 9.24805 -0.654297 Z M 9.22852 -3.42773 C 9.69727 -3.42773 9.9707 -3.74023 9.9707 -4.25781 L 9.9707 -6.31836 L 12.1973 -6.31836 C 12.6953 -6.31836 13.0371 -6.57227 13.0371 -7.04102 C 13.0371 -7.51953 12.7148 -7.7832 12.1973 -7.7832 L 9.9707 -7.7832 L 9.9707 -10.0098 C 9.9707 -10.5273 9.69727 -10.8496 9.22852 -10.8496 C 8.75977 -10.8496 8.50586 -10.5078 8.50586 -10.0098 L 8.50586 -7.7832 L 6.29883 -7.7832 C 5.78125 -7.7832 5.44922 -7.51953 5.44922 -7.04102 C 5.44922 -6.57227 5.80078 -6.31836 6.29883 -6.31836 L 8.50586 -6.31836 L 8.50586 -4.25781 C 8.50586 -3.75977 8.75977 -3.42773 9.22852 -3.42773 Z"/>
  </g>
  <g id="" transform="matrix(1 0 0 1 281.506 1933)">
   <path d="M 11.709 2.91016 C 17.1582 2.91016 21.6699 -1.60156 21.6699 -7.05078 C 21.6699 -12.4902 17.1484 -17.0117 11.6992 -17.0117 C 6.25977 -17.0117 1.74805 -12.4902 1.74805 -7.05078 C 1.74805 -1.60156 6.26953 2.91016 11.709 2.91016 Z M 11.709 1.25 C 7.09961 1.25 3.41797 -2.44141 3.41797 -7.05078 C 3.41797 -11.6504 7.08984 -15.3516 11.6992 -15.3516 C 16.3086 -15.3516 20 -11.6504 20.0098 -7.05078 C 20.0195 -2.44141 16.3184 1.25 11.709 1.25 Z M 11.6895 -2.41211 C 12.207 -2.41211 12.5195 -2.77344 12.5195 -3.33984 L 12.5195 -6.23047 L 15.5762 -6.23047 C 16.123 -6.23047 16.5039 -6.51367 16.5039 -7.03125 C 16.5039 -7.55859 16.1426 -7.86133 15.5762 -7.86133 L 12.5195 -7.86133 L 12.5195 -10.9277 C 12.5195 -11.5039 12.207 -11.8555 11.6895 -11.8555 C 11.1719 -11.8555 10.8789 -11.4844 10.8789 -10.9277 L 10.8789 -7.86133 L 7.83203 -7.86133 C 7.26562 -7.86133 6.89453 -7.55859 6.89453 -7.03125 C 6.89453 -6.51367 7.28516 -6.23047 7.83203 -6.23047 L 10.8789 -6.23047 L 10.8789 -3.33984 C 10.8789 -2.79297 11.1719 -2.41211 11.6895 -2.41211 Z"/>
  </g>
  <g id="" transform="matrix(1 0 0 1 304.924 1933)">
   <path d="M 14.9707 5.67383 C 21.9336 5.67383 27.6953 -0.078125 27.6953 -7.04102 C 27.6953 -14.0039 21.9238 -19.7559 14.9609 -19.7559 C 8.00781 -19.7559 2.25586 -14.0039 2.25586 -7.04102 C 2.25586 -0.078125 8.01758 5.67383 14.9707 5.67383 Z M 14.9707 3.85742 C 8.93555 3.85742 4.08203 -1.00586 4.08203 -7.04102 C 4.08203 -13.0762 8.92578 -17.9395 14.9609 -17.9395 C 21.0059 -17.9395 25.8594 -13.0762 25.8691 -7.04102 C 25.8789 -1.00586 21.0156 3.85742 14.9707 3.85742 Z M 14.9512 -1.06445 C 15.5176 -1.06445 15.8691 -1.45508 15.8691 -2.06055 L 15.8691 -6.13281 L 20.1074 -6.13281 C 20.6934 -6.13281 21.1133 -6.46484 21.1133 -7.02148 C 21.1133 -7.59766 20.7227 -7.93945 20.1074 -7.93945 L 15.8691 -7.93945 L 15.8691 -12.1875 C 15.8691 -12.8027 15.5176 -13.1934 14.9512 -13.1934 C 14.3848 -13.1934 14.0625 -12.7832 14.0625 -12.1875 L 14.0625 -7.93945 L 9.83398 -7.93945 C 9.21875 -7.93945 8.80859 -7.59766 8.80859 -7.02148 C 8.80859 -6.46484 9.23828 -6.13281 9.83398 -6.13281 L 14.0625 -6.13281 L 14.0625 -2.06055 C 14.0625 -1.47461 14.3848 -1.06445 14.9512 -1.06445 Z"/>
  </g>
  <text style="stroke:none;fill:black;font-family:-apple-system,&quot;SF Pro Display&quot;,&quot;SF Pro Text&quot;,Helvetica,sans-serif;font-weight:bold;" transform="matrix(1 0 0 1 263 1953)">Design Variations</text>
  <text style="stroke:none;fill:black;font-family:-apple-system,&quot;SF Pro Display&quot;,&quot;SF Pro Text&quot;,Helvetica,sans-serif;" transform="matrix(1 0 0 1 263 1971)">Symbols are supported in up to nine weights and three scales.</text>
  <text style="stroke:none;fill:black;font-family:-apple-system,&quot;SF Pro Display&quot;,&quot;SF Pro Text&quot;,Helvetica,sans-serif;" transform="matrix(1 0 0 1 263 1989)">For optimal layout with text and other symbols, vertically align</text>
  <text style="stroke:none;fill:black;font-family:-apple-system,&quot;SF Pro Display&quot;,&quot;SF Pro Text&quot;,Helvetica,sans-serif;" transform="matrix(1 0 0 1 263 2007)">symbols with the adjacent text.</text>
  <rect height="14" id="" style="fill:#00AEEF;stroke:none;opacity:0.4;" width="3" x="776" y="1919"/>
  <g id="" transform="matrix(1 0 0 1 779 1933)">
   <path d="M 10.5273 0 L 12.373 0 L 7.17773 -14.0918 L 5.43945 -14.0918 L 0.244141 0 L 2.08984 0 L 3.50586 -4.0332 L 9.11133 -4.0332 Z M 6.2793 -11.9531 L 6.33789 -11.9531 L 8.59375 -5.52734 L 4.02344 -5.52734 Z"/>
  </g>
  <rect height="14" id="" style="fill:#00AEEF;stroke:none;opacity:0.4;" width="3" x="791.617" y="1919"/>
  <text style="stroke:none;fill:black;font-family:-apple-system,&quot;SF Pro Display&quot;,&quot;SF Pro Text&quot;,Helvetica,sans-serif;font-weight:bold;" transform="matrix(1 0 0 1 776 1953)">Margins</text>
  <text style="stroke:none;fill:black;font-family:-apple-system,&quot;SF Pro Display&quot;,&quot;SF Pro Text&quot;,Helvetica,sans-serif;" transform="matrix(1 0 0 1 776 1971)">Leading and trailing margins on the left and right side of each symbol</text>
  <text style="stroke:none;fill:black;font-family:-apple-system,&quot;SF Pro Display&quot;,&quot;SF Pro Text&quot;,Helvetica,sans-serif;" transform="matrix(1 0 0 1 776 1989)">can be adjusted by modifying the width of the blue rectangles.</text>
  <text style="stroke:none;fill:black;font-family:-apple-system,&quot;SF Pro Display&quot;,&quot;SF Pro Text&quot;,Helvetica,sans-serif;" transform="matrix(1 0 0 1 776 2007)">Modifications are automatically applied proportionally to all</text>
  <text style="stroke:none;fill:black;font-family:-apple-system,&quot;SF Pro Display&quot;,&quot;SF Pro Text&quot;,Helvetica,sans-serif;" transform="matrix(1 0 0 1 776 2025)">scales and weights.</text>
  <g id="" transform="matrix(1 0 0 1 1289 1933)">
   <path d="M 2.83203 3.11523 L 4.375 4.6582 C 5.22461 5.48828 6.19141 5.41992 7.06055 4.46289 L 17.2754 -6.66016 C 17.7051 -6.36719 18.0957 -6.37695 18.5645 -6.47461 L 19.6094 -6.68945 L 20.3027 -5.99609 L 20.2539 -5.47852 C 20.1855 -4.95117 20.3516 -4.53125 20.8496 -4.0332 L 21.6602 -3.22266 C 22.168 -2.71484 22.8223 -2.68555 23.3008 -3.16406 L 26.5527 -6.41602 C 27.0312 -6.89453 27.0117 -7.54883 26.5039 -8.05664 L 25.6836 -8.87695 C 25.1855 -9.375 24.7754 -9.55078 24.2383 -9.47266 L 23.7109 -9.41406 L 23.0566 -10.0781 L 23.3398 -11.2207 C 23.4863 -11.7871 23.3398 -12.2559 22.7148 -12.8613 L 20.3027 -15.2539 C 16.7578 -18.7793 12.2266 -18.6719 9.11133 -15.5371 C 8.69141 -15.1074 8.64258 -14.5215 8.91602 -14.0918 C 9.15039 -13.7207 9.62891 -13.4961 10.2734 -13.6621 C 11.7871 -14.043 13.3008 -13.9258 14.7852 -12.9199 L 14.1602 -11.3379 C 13.9258 -10.752 13.9453 -10.2734 14.1797 -9.83398 L 3.01758 0.439453 C 2.08008 1.30859 1.97266 2.25586 2.83203 3.11523 Z M 10.6738 -15.1465 C 13.3398 -17.1387 16.6504 -16.8262 19.0527 -14.4141 L 21.6797 -11.8066 C 21.9141 -11.5723 21.9434 -11.3867 21.8848 -11.0938 L 21.5039 -9.53125 L 23.0762 -7.95898 L 24.043 -8.04688 C 24.3262 -8.07617 24.4141 -8.05664 24.6387 -7.83203 L 25.2637 -7.20703 L 22.5098 -4.46289 L 21.8848 -5.07812 C 21.6602 -5.30273 21.6406 -5.40039 21.6699 -5.68359 L 21.7578 -6.64062 L 20.1953 -8.20312 L 18.5742 -7.89062 C 18.291 -7.83203 18.1445 -7.83203 17.9102 -8.07617 L 15.7324 -10.2539 C 15.5078 -10.4883 15.4785 -10.625 15.6055 -10.9473 L 16.5527 -13.2227 C 14.9512 -14.7559 12.8418 -15.6055 10.8008 -14.9512 C 10.7129 -14.9219 10.6445 -14.9414 10.6152 -14.9805 C 10.5859 -15.0293 10.5859 -15.0781 10.6738 -15.1465 Z M 4.10156 2.41211 C 3.61328 1.91406 3.78906 1.61133 4.12109 1.30859 L 15.0781 -8.80859 L 16.3086 -7.57812 L 6.15234 3.34961 C 5.84961 3.68164 5.46875 3.7793 5.06836 3.37891 Z"/>
  </g>
  <text style="stroke:none;fill:black;font-family:-apple-system,&quot;SF Pro Display&quot;,&quot;SF Pro Text&quot;,Helvetica,sans-serif;font-weight:bold;" transform="matrix(1 0 0 1 1289 1953)">Exporting</text>
  <text style="stroke:none;fill:black;font-family:-apple-system,&quot;SF Pro Display&quot;,&quot;SF Pro Text&quot;,Helvetica,sans-serif;" transform="matrix(1 0 0 1 1289 1971)">Symbols should be outlined when exporting to ensure the</text>
  <text style="stroke:none;fill:black;font-family:-apple-system,&quot;SF Pro Display&quot;,&quot;SF Pro Text&quot;,Helvetica,sans-serif;" transform="matrix(1 0 0 1 1289 1989)">design is preserved when submitting to Xcode.</text>
  <text id="template-version" style="stroke:none;fill:black;font-family:-apple-system,&quot;SF Pro Display&quot;,&quot;SF Pro Text&quot;,Helvetica,sans-serif;text-anchor:end;" transform="matrix(1 0 0 1 3036 1933)">Template v.1.0</text>
  <text style="stroke:none;fill:black;font-family:-apple-system,&quot;SF Pro Display&quot;,&quot;SF Pro Text&quot;,Helvetica,sans-serif;text-anchor:end;" transform="matrix(1 0 0 1 3036 1951)">Generated from 4.circle.fill</text>
  <text style="stroke:none;fill:black;font-family:-apple-system,&quot;SF Pro Display&quot;,&quot;SF Pro Text&quot;,Helvetica,sans-serif;text-anchor:end;" transform="matrix(1 0 0 1 3036 1969)">Typeset at 100 points</text>
  <text style="stroke:none;fill:black;font-family:-apple-system,&quot;SF Pro Display&quot;,&quot;SF Pro Text&quot;,Helvetica,sans-serif;" transform="matrix(1 0 0 1 263 726)">Small</text>
  <text style="stroke:none;fill:black;font-family:-apple-system,&quot;SF Pro Display&quot;,&quot;SF Pro Text&quot;,Helvetica,sans-serif;" transform="matrix(1 0 0 1 263 1156)">Medium</text>
  <text style="stroke:none;fill:black;font-family:-apple-system,&quot;SF Pro Display&quot;,&quot;SF Pro Text&quot;,Helvetica,sans-serif;" transform="matrix(1 0 0 1 263 1586)">Large</text>
 </g>
 <g id="Guides">
  <g id="H-reference" style="fill:#27AAE1;stroke:none;" transform="matrix(1 0 0 1 339 696)">
   <path d="M 54.9316 0 L 57.666 0 L 30.5664 -70.459 L 28.0762 -70.459 L 0.976562 0 L 3.66211 0 L 12.9395 -24.4629 L 45.7031 -24.4629 Z M 29.1992 -67.0898 L 29.4434 -67.0898 L 44.8242 -26.709 L 13.8184 -26.709 Z"/>
  </g>
  <line id="Baseline-S" style="fill:none;stroke:#27AAE1;opacity:1;stroke-width:0.577;" x1="263" x2="3036" y1="696" y2="696"/>
  <line id="Capline-S" style="fill:none;stroke:#27AAE1;opacity:1;stroke-width:0.577;" x1="263" x2="3036" y1="625.541" y2="625.541"/>
  <g id="H-reference" style="fill:#27AAE1;stroke:none;" transform="matrix(1 0 0 1 339 1126)">
   <path d="M 54.9316 0 L 57.666 0 L 30.5664 -70.459 L 28.0762 -70.459 L 0.976562 0 L 3.66211 0 L 12.9395 -24.4629 L 45.7031 -24.4629 Z M 29.1992 -67.0898 L 29.4434 -67.0898 L 44.8242 -26.709 L 13.8184 -26.709 Z"/>
  </g>
  <line id="Baseline-M" style="fill:none;stroke:#27AAE1;opacity:1;stroke-width:0.577;" x1="263" x2="3036" y1="1126" y2="1126"/>
  <line id="Capline-M" style="fill:none;stroke:#27AAE1;opacity:1;stroke-width:0.577;" x1="263" x2="3036" y1="1055.54" y2="1055.54"/>
  <g id="H-reference" style="fill:#27AAE1;stroke:none;" transform="matrix(1 0 0 1 339 1556)">
   <path d="M 54.9316 0 L 57.666 0 L 30.5664 -70.459 L 28.0762 -70.459 L 0.976562 0 L 3.66211 0 L 12.9395 -24.4629 L 45.7031 -24.4629 Z M 29.1992 -67.0898 L 29.4434 -67.0898 L 44.8242 -26.709 L 13.8184 -26.709 Z"/>
  </g>
  <line id="Baseline-L" style="fill:none;stroke:#27AAE1;opacity:1;stroke-width:0.577;" x1="263" x2="3036" y1="1556" y2="1556"/>
  <line id="Capline-L" style="fill:none;stroke:#27AAE1;opacity:1;stroke-width:0.577;" x1="263" x2="3036" y1="1485.54" y2="1485.54"/>
  <rect height="119.336" id="left-margin" style="fill:#00AEEF;stroke:none;opacity:0.4;" width="8.74023" x="1391.3" y="1030.79"/>
  <rect height="119.336" id="right-margin" style="fill:#00AEEF;stroke:none;opacity:0.4;" width="8.74023" x="1499.65" y="1030.79"/>
 </g>
 <g id="Symbols">
  <g id="Black-L" transform="matrix(1 0 0 1 2854.05 1556)">
   <path d="M 79.3457 32.8613 C 116.748 32.8613 147.412 2.19727 147.412 -35.2051 C 147.412 -72.6074 116.748 -103.271 79.2969 -103.271 C 41.8945 -103.271 11.2793 -72.6074 11.2793 -35.2051 C 11.2793 2.19727 41.9434 32.8613 79.3457 32.8613 Z M 88.5742 -5.12695 C 83.6914 -5.12695 80.5176 -8.00781 80.5176 -13.7207 L 80.5176 -15.1855 L 62.6465 -15.1855 C 55.6641 -15.1855 51.2207 -19.1895 51.2207 -25.5371 C 51.2207 -28.2227 51.9043 -31.2012 53.5645 -34.8633 C 56.543 -40.625 60.9863 -48.0957 65.4297 -55.4199 C 69.9219 -63.0859 74.4629 -65.8203 82.8613 -65.8203 C 90.8203 -65.8203 96.6797 -60.6445 96.6797 -53.7598 L 96.6797 -29.8828 L 98.291 -29.8828 C 103.467 -29.8828 106.543 -27.0508 106.543 -22.5098 C 106.543 -18.0176 103.369 -15.1855 98.2422 -15.1855 L 96.6797 -15.1855 L 96.6797 -13.7207 C 96.6797 -8.00781 93.5547 -5.12695 88.5742 -5.12695 Z M 80.5176 -29.8828 L 80.5176 -52.5879 L 79.9316 -52.5879 C 75.5371 -44.873 70.9961 -36.3281 67.9199 -30.3711 L 67.9199 -29.8828 Z"/>
  </g>
  <g id="Heavy-L" transform="matrix(1 0 0 1 2558.39 1556)">
   <path d="M 78.2715 31.7871 C 115.088 31.7871 145.312 1.61133 145.312 -35.2051 C 145.312 -72.0215 115.039 -102.197 78.2715 -102.197 C 41.4551 -102.197 11.2793 -72.0215 11.2793 -35.2051 C 11.2793 1.61133 41.5039 31.7871 78.2715 31.7871 Z M 87.4512 -5.32227 C 83.1543 -5.32227 80.3711 -7.91016 80.3711 -12.9883 L 80.3711 -15.918 L 61.084 -15.918 C 54.8828 -15.918 50.9766 -19.4824 50.9766 -25.1465 C 50.9766 -27.6367 51.5625 -30.2246 53.125 -33.4473 C 56.6406 -39.8926 62.207 -48.8281 67.1387 -56.7383 C 71.1426 -63.4277 75.1953 -65.8203 82.5195 -65.8203 C 89.5508 -65.8203 94.7266 -61.3281 94.7266 -55.2246 L 94.7266 -28.9062 L 97.2168 -28.9062 C 101.709 -28.9062 104.443 -26.3672 104.443 -22.4121 C 104.443 -18.457 101.66 -15.918 97.168 -15.918 L 94.7266 -15.918 L 94.7266 -12.9883 C 94.7266 -7.91016 91.9434 -5.32227 87.4512 -5.32227 Z M 80.3711 -28.9062 L 80.3711 -53.9551 L 79.834 -53.9551 C 75 -45.8008 69.1895 -35.8398 65.7227 -29.3945 L 65.7227 -28.9062 Z"/>
  </g>
  <g id="Bold-L" transform="matrix(1 0 0 1 2262.88 1556)">
   <path d="M 77.0996 30.6152 C 113.232 30.6152 142.92 0.878906 142.92 -35.2051 C 142.92 -71.3379 113.184 -101.025 77.0508 -101.025 C 40.9668 -101.025 11.2793 -71.3379 11.2793 -35.2051 C 11.2793 0.878906 41.0156 30.6152 77.0996 30.6152 Z M 86.2793 -5.51758 C 82.5684 -5.51758 80.1758 -7.8125 80.1758 -12.1582 L 80.1758 -16.748 L 59.375 -16.748 C 54.0527 -16.748 50.6836 -19.873 50.6836 -24.7559 C 50.6836 -26.9531 51.2207 -29.1504 52.6367 -31.8848 C 56.7871 -39.1113 63.5742 -49.6582 69.0918 -58.2031 C 72.4609 -63.7695 75.9766 -65.8203 82.1289 -65.8203 C 88.1836 -65.8203 92.4805 -62.0605 92.4805 -56.8359 L 92.4805 -27.832 L 96.0449 -27.832 C 99.8047 -27.832 102.051 -25.6348 102.051 -22.2656 C 102.051 -18.9453 99.707 -16.748 95.9961 -16.748 L 92.4805 -16.748 L 92.4805 -12.1582 C 92.4805 -7.76367 90.1367 -5.51758 86.2793 -5.51758 Z M 80.1758 -27.832 L 80.1758 -55.4688 L 79.6875 -55.4688 C 74.3164 -46.875 67.1387 -35.3516 63.2324 -28.2715 L 63.2324 -27.832 Z"/>
  </g>
  <g id="Semibold-L" transform="matrix(1 0 0 1 1966.97 1556)">
   <path d="M 76.2695 29.7852 C 111.914 29.7852 141.309 0.439453 141.309 -35.2051 C 141.309 -70.8496 111.865 -100.244 76.2695 -100.244 C 40.625 -100.244 11.2793 -70.8496 11.2793 -35.2051 C 11.2793 0.439453 40.6738 29.7852 76.2695 29.7852 Z M 85.4492 -5.61523 C 82.1289 -5.61523 80.0781 -7.71484 80.0781 -11.5723 L 80.0781 -17.334 L 58.2031 -17.334 C 53.4668 -17.334 50.4883 -20.1172 50.4883 -24.4629 C 50.4883 -26.4648 50.9766 -28.3691 52.2461 -30.8105 C 56.8359 -38.5254 64.5508 -50.1953 70.4102 -59.1797 C 73.3887 -64.0137 76.5137 -65.8203 81.8848 -65.8203 C 87.207 -65.8203 90.918 -62.5488 90.918 -57.9102 L 90.918 -27.0508 L 95.2148 -27.0508 C 98.4375 -27.0508 100.439 -25.1465 100.439 -22.168 C 100.439 -19.2871 98.3887 -17.334 95.2148 -17.334 L 90.918 -17.334 L 90.918 -11.5723 C 90.918 -7.71484 88.8672 -5.61523 85.4492 -5.61523 Z M 80.0781 -27.0508 L 80.0781 -56.4941 L 79.5898 -56.4941 C 73.877 -47.6074 65.7715 -34.9609 61.5234 -27.4902 L 61.5234 -27.0508 Z"/>
  </g>
  <g id="Medium-L" transform="matrix(1 0 0 1 1670.87 1556)">
   <path d="M 75.6836 29.1992 C 110.938 29.1992 140.088 0.0488281 140.088 -35.2051 C 140.088 -70.459 110.889 -99.6094 75.6348 -99.6094 C 40.3809 -99.6094 11.2793 -70.459 11.2793 -35.2051 C 11.2793 0.0488281 40.3809 29.1992 75.6836 29.1992 Z M 84.8145 -5.71289 C 81.8359 -5.71289 79.9805 -7.66602 79.9805 -11.1328 L 79.9805 -17.7246 L 57.2754 -17.7246 C 53.0273 -17.7246 50.3418 -20.3125 50.3418 -24.2676 C 50.3418 -26.123 50.7812 -27.7832 52.002 -29.9805 C 56.9336 -38.1348 65.2344 -50.6348 71.3867 -59.9609 C 74.1211 -64.209 76.9531 -65.8203 81.6406 -65.8203 C 86.4746 -65.8203 89.7461 -62.9395 89.7461 -58.7891 L 89.7461 -26.5137 L 94.6289 -26.5137 C 97.4121 -26.5137 99.1699 -24.7559 99.1699 -22.1191 C 99.1699 -19.5312 97.3633 -17.7246 94.5801 -17.7246 L 89.7461 -17.7246 L 89.7461 -11.1328 C 89.7461 -7.61719 87.9395 -5.71289 84.8145 -5.71289 Z M 79.9805 -26.5137 L 79.9805 -57.3242 L 79.541 -57.3242 C 73.5352 -48.1445 64.6973 -34.668 60.2051 -26.9531 L 60.2051 -26.5137 Z"/>
  </g>
  <g id="Regular-L" transform="matrix(1 0 0 1 1374.97 1556)">
   <path d="M 74.8535 28.3691 C 109.668 28.3691 138.477 -0.390625 138.477 -35.2051 C 138.477 -70.0195 109.619 -98.7793 74.8047 -98.7793 C 40.0391 -98.7793 11.2793 -70.0195 11.2793 -35.2051 C 11.2793 -0.390625 40.0879 28.3691 74.8535 28.3691 Z M 83.9844 -5.85938 C 81.4453 -5.85938 79.8828 -7.61719 79.8828 -10.5469 L 79.8828 -18.3105 L 56.1035 -18.3105 C 52.4414 -18.3105 50.1465 -20.5566 50.1465 -23.9746 C 50.1465 -25.6348 50.5371 -27.0508 51.6602 -28.9062 C 56.9824 -37.5977 66.2109 -51.2207 72.7051 -60.9375 C 75.0488 -64.4531 77.4902 -65.8203 81.3965 -65.8203 C 85.498 -65.8203 88.2324 -63.4277 88.2324 -59.8633 L 88.2324 -25.7812 L 93.7988 -25.7812 C 96.0938 -25.7812 97.5586 -24.2676 97.5586 -22.0215 C 97.5586 -19.873 96.0449 -18.3105 93.7988 -18.3105 L 88.2324 -18.3105 L 88.2324 -10.5469 C 88.2324 -7.56836 86.7188 -5.85938 83.9844 -5.85938 Z M 79.8828 -25.7812 L 79.8828 -58.3496 L 79.4434 -58.3496 C 73.0957 -48.877 63.3301 -34.3262 58.5449 -26.1719 L 58.5449 -25.7812 Z"/>
  </g>
  <g id="Light-L" transform="matrix(1 0 0 1 1079.18 1556)">
   <path d="M 73.9258 27.4902 C 108.301 27.4902 136.621 -0.830078 136.621 -35.1562 C 136.621 -69.5312 108.252 -97.8516 73.9258 -97.8516 C 39.5508 -97.8516 11.2793 -69.5312 11.2793 -35.1562 C 11.2793 -0.830078 39.5996 27.4902 73.9258 27.4902 Z M 82.9102 -6.29883 C 80.957 -6.29883 79.7363 -7.71484 79.7363 -9.91211 L 79.7363 -19.3359 L 55.6152 -19.3359 C 52.5879 -19.3359 50.7812 -21.1426 50.7812 -23.877 C 50.7812 -25.1953 51.123 -26.3184 51.9531 -27.6855 C 57.1777 -36.1816 67.9199 -52.0508 74.1211 -61.2305 C 75.9766 -64.0137 77.8809 -65.0879 80.8594 -65.0879 C 84.1309 -65.0879 86.2305 -63.1836 86.2305 -60.3516 L 86.2305 -25.2441 L 92.627 -25.2441 C 94.4336 -25.2441 95.6055 -24.0234 95.6055 -22.3145 C 95.6055 -20.6055 94.4336 -19.3359 92.627 -19.3359 L 86.2305 -19.3359 L 86.2305 -9.91211 C 86.2305 -7.66602 85.0098 -6.29883 82.9102 -6.29883 Z M 79.7363 -25.2441 L 79.7363 -58.9355 L 79.3457 -58.9355 C 73.7793 -50.6836 61.9141 -33.0566 57.4707 -25.6348 L 57.4707 -25.2441 Z"/>
  </g>
  <g id="Thin-L" transform="matrix(1 0 0 1 783.693 1556)">
   <path d="M 72.7051 26.3184 C 106.494 26.3184 134.18 -1.36719 134.18 -35.1074 C 134.18 -68.8965 106.494 -96.582 72.7051 -96.582 C 38.9648 -96.582 11.2793 -68.8965 11.2793 -35.1074 C 11.2793 -1.36719 38.9648 26.3184 72.7051 26.3184 Z M 81.543 -6.93359 C 80.3711 -6.93359 79.541 -7.8125 79.541 -9.0332 L 79.541 -20.752 L 54.9805 -20.752 C 52.7832 -20.752 51.6113 -21.875 51.6113 -23.7305 C 51.6113 -24.5605 51.9043 -25.3906 52.3438 -26.123 C 57.373 -34.3262 70.166 -53.2227 75.9277 -61.5723 C 77.1973 -63.4277 78.3691 -64.0625 80.127 -64.0625 C 82.2754 -64.0625 83.5449 -62.8418 83.5449 -60.9863 L 83.5449 -24.5117 L 91.1133 -24.5117 C 92.2852 -24.5117 93.0176 -23.6816 93.0176 -22.6562 C 93.0176 -21.582 92.2852 -20.752 91.1133 -20.752 L 83.5449 -20.752 L 83.5449 -9.0332 C 83.5449 -7.8125 82.8125 -6.93359 81.543 -6.93359 Z M 79.541 -24.5117 L 79.541 -59.668 L 79.1992 -59.668 C 74.6582 -53.125 60.0098 -31.4453 56.0547 -24.8535 L 56.0547 -24.5117 Z"/>
  </g>
  <g id="Ultralight-L" transform="matrix(1 0 0 1 487.616 1556)">
   <path d="M 72.1191 25.7324 C 105.566 25.7324 132.91 -1.61133 132.91 -35.1074 C 132.91 -68.5547 105.566 -95.8984 72.1191 -95.8984 C 38.623 -95.8984 11.2793 -68.5547 11.2793 -35.1074 C 11.2793 -1.61133 38.623 25.7324 72.1191 25.7324 Z M 80.8105 -7.27539 C 80.0293 -7.27539 79.4434 -7.86133 79.4434 -8.59375 L 79.4434 -21.4844 L 54.6387 -21.4844 C 52.8809 -21.4844 52.002 -22.2656 52.002 -23.6328 C 52.002 -24.2676 52.3438 -24.9023 52.5391 -25.293 C 57.4707 -33.3496 71.3379 -53.8086 76.8555 -61.7188 C 77.832 -63.1348 78.6133 -63.5742 79.7852 -63.5742 C 81.3477 -63.5742 82.1777 -62.6953 82.1777 -61.3281 L 82.1777 -24.1699 L 90.3809 -24.1699 C 91.1621 -24.1699 91.6992 -23.5352 91.6992 -22.8027 C 91.6992 -22.0703 91.1621 -21.4844 90.3809 -21.4844 L 82.1777 -21.4844 L 82.1777 -8.59375 C 82.1777 -7.86133 81.6406 -7.27539 80.8105 -7.27539 Z M 79.4434 -24.1699 L 79.4434 -60.0586 L 79.1016 -60.0586 C 75.0977 -54.3457 59.082 -30.6152 55.3223 -24.4629 L 55.3223 -24.1699 Z"/>
  </g>
  <g id="Black-M" transform="matrix(1 0 0 1 2870.97 1126)">
   <path d="M 62.4023 18.457 C 91.9922 18.457 116.113 -5.61523 116.113 -35.2051 C 116.113 -64.7949 91.9922 -88.8672 62.4023 -88.8672 C 32.8125 -88.8672 8.74023 -64.7949 8.74023 -35.2051 C 8.74023 -5.61523 32.8125 18.457 62.4023 18.457 Z M 69.5312 -11.9629 C 65.2832 -11.9629 62.5488 -14.3555 62.5488 -19.2383 L 62.5488 -19.2871 L 50.3418 -19.2871 C 44.2383 -19.2871 40.3809 -22.6562 40.3809 -28.125 C 40.3809 -30.3711 40.9668 -33.0078 42.2852 -36.1816 C 43.75 -39.6484 46.5332 -44.6777 49.1211 -49.2676 C 53.0762 -56.1523 56.9824 -58.5449 64.4043 -58.5449 C 71.3379 -58.5449 76.5625 -53.9551 76.5625 -47.9004 L 76.5625 -32.0801 L 77.002 -32.0801 C 81.6406 -32.0801 84.375 -29.6387 84.375 -25.6836 C 84.375 -21.7285 81.5918 -19.2871 76.9043 -19.2871 L 76.5625 -19.2871 L 76.5625 -19.2383 C 76.5625 -14.3555 73.7793 -11.9629 69.5312 -11.9629 Z M 62.5488 -32.0801 L 62.5488 -47.168 L 62.0117 -47.168 C 59.668 -42.3828 56.6895 -36.084 55.0781 -32.4707 L 55.0781 -32.0801 Z"/>
  </g>
  <g id="Heavy-M" transform="matrix(1 0 0 1 2575.19 1126)">
   <path d="M 61.5234 17.5781 C 90.5273 17.5781 114.258 -6.15234 114.258 -35.2051 C 114.258 -64.2578 90.5273 -87.9883 61.4746 -87.9883 C 32.4707 -87.9883 8.74023 -64.2578 8.74023 -35.2051 C 8.74023 -6.15234 32.4707 17.5781 61.5234 17.5781 Z M 68.6035 -12.0117 C 64.8438 -12.0117 62.4023 -14.209 62.4023 -18.6035 L 62.4023 -19.7754 L 48.7793 -19.7754 C 43.3594 -19.7754 39.9414 -22.8516 39.9414 -27.7832 C 39.9414 -29.834 40.4785 -32.1289 41.6992 -34.9609 C 43.8477 -39.209 47.4121 -45.2637 50.6348 -50.6348 C 54.1504 -56.5918 57.666 -58.7402 64.1602 -58.7402 C 70.3125 -58.7402 74.9023 -54.6875 74.9023 -49.3652 L 74.9023 -31.2012 L 76.123 -31.2012 C 80.1758 -31.2012 82.5684 -29.0039 82.5684 -25.4883 C 82.5684 -22.0215 80.127 -19.7754 76.0742 -19.7754 L 74.9023 -19.7754 L 74.9023 -18.6035 C 74.9023 -14.209 72.4609 -12.0117 68.6035 -12.0117 Z M 62.4023 -31.2012 L 62.4023 -48.4863 L 61.9629 -48.4863 C 58.8867 -42.9688 55.0781 -35.8887 52.9297 -31.543 L 52.9297 -31.2012 Z"/>
  </g>
  <g id="Bold-M" transform="matrix(1 0 0 1 2279.5 1126)">
   <path d="M 60.498 16.5039 C 88.8672 16.5039 112.207 -6.78711 112.207 -35.2051 C 112.207 -63.623 88.8672 -86.9629 60.4492 -86.9629 C 32.0312 -86.9629 8.74023 -63.623 8.74023 -35.2051 C 8.74023 -6.78711 32.0801 16.5039 60.498 16.5039 Z M 67.5781 -12.0605 C 64.3555 -12.0605 62.2559 -14.0625 62.2559 -17.8711 L 62.2559 -20.4102 L 47.0703 -20.4102 C 42.3828 -20.4102 39.4531 -23.0957 39.4531 -27.3438 C 39.4531 -29.248 39.8926 -31.1523 41.0645 -33.5938 C 43.8965 -38.7207 48.4375 -45.8984 52.3438 -52.1484 C 55.3223 -57.1289 58.3984 -58.9844 63.916 -58.9844 C 69.1895 -58.9844 73.0469 -55.5664 73.0469 -50.9766 L 73.0469 -30.1758 L 75.1465 -30.1758 C 78.5156 -30.1758 80.5664 -28.2715 80.5664 -25.293 C 80.5664 -22.3145 78.4668 -20.4102 75.1465 -20.4102 L 73.0469 -20.4102 L 73.0469 -17.8711 C 73.0469 -14.0137 70.9473 -12.0605 67.5781 -12.0605 Z M 62.2559 -30.1758 L 62.2559 -50 L 61.8164 -50 C 58.0078 -43.6035 53.2715 -35.6445 50.5371 -30.5176 L 50.5371 -30.1758 Z"/>
  </g>
  <g id="Semibold-M" transform="matrix(1 0 0 1 1983.5 1126)">
   <path d="M 59.7656 15.8203 C 87.7441 15.8203 110.791 -7.22656 110.791 -35.2051 C 110.791 -63.1836 87.6953 -86.2793 59.7656 -86.2793 C 31.7871 -86.2793 8.74023 -63.1836 8.74023 -35.2051 C 8.74023 -7.22656 31.7871 15.8203 59.7656 15.8203 Z M 66.8945 -12.1094 C 63.9648 -12.1094 62.1582 -13.9648 62.1582 -17.334 L 62.1582 -20.8008 L 45.8496 -20.8008 C 41.748 -20.8008 39.1113 -23.2422 39.1113 -27.0508 C 39.1113 -28.8086 39.502 -30.5176 40.625 -32.666 C 43.9941 -38.4277 49.1211 -46.3379 53.5156 -53.1738 C 56.1523 -57.4707 58.9355 -59.1309 63.7207 -59.1309 C 68.4082 -59.1309 71.7773 -56.1523 71.7773 -52.0996 L 71.7773 -29.4434 L 74.5117 -29.4434 C 77.3926 -29.4434 79.1504 -27.7344 79.1504 -25.0977 C 79.1504 -22.5098 77.3438 -20.8008 74.4629 -20.8008 L 71.7773 -20.8008 L 71.7773 -17.334 C 71.7773 -13.916 69.9219 -12.1094 66.8945 -12.1094 Z M 62.1582 -29.4434 L 62.1582 -51.0254 L 61.7676 -51.0254 C 57.373 -43.9941 52.0508 -35.498 48.877 -29.7852 L 48.877 -29.4434 Z"/>
  </g>
  <g id="Medium-M" transform="matrix(1 0 0 1 1687.3 1126)">
   <path d="M 59.2285 15.2832 C 86.9141 15.2832 109.766 -7.56836 109.766 -35.2051 C 109.766 -62.8906 86.8652 -85.7422 59.1797 -85.7422 C 31.543 -85.7422 8.74023 -62.8906 8.74023 -35.2051 C 8.74023 -7.56836 31.5918 15.2832 59.2285 15.2832 Z M 66.3574 -12.1582 C 63.7207 -12.1582 62.0605 -13.8672 62.0605 -16.9434 L 62.0605 -21.0938 L 44.9707 -21.0938 C 41.2109 -21.0938 38.8184 -23.3887 38.8184 -26.8555 C 38.8184 -28.4668 39.209 -29.9805 40.2832 -31.9336 C 44.043 -38.1836 49.6582 -46.6797 54.3945 -54.0039 C 56.7871 -57.7637 59.3262 -59.2285 63.5742 -59.2285 C 67.8223 -59.2285 70.8008 -56.6406 70.8008 -52.9297 L 70.8008 -28.9062 L 73.9746 -28.9062 C 76.5137 -28.9062 78.125 -27.3438 78.125 -25 C 78.125 -22.7051 76.4648 -21.0938 73.9746 -21.0938 L 70.8008 -21.0938 L 70.8008 -16.9434 C 70.8008 -13.8184 69.1895 -12.1582 66.3574 -12.1582 Z M 62.0605 -28.9062 L 62.0605 -51.8066 L 61.7188 -51.8066 C 56.8848 -44.3359 51.123 -35.4004 47.6074 -29.248 L 47.6074 -28.9062 Z"/>
  </g>
  <g id="Regular-M" transform="matrix(1 0 0 1 1391.3 1126)">
   <path d="M 58.5449 14.5508 C 85.791 14.5508 108.35 -8.00781 108.35 -35.2539 C 108.35 -62.4512 85.7422 -85.0586 58.4961 -85.0586 C 31.2988 -85.0586 8.74023 -62.4512 8.74023 -35.2539 C 8.74023 -8.00781 31.3477 14.5508 58.5449 14.5508 Z M 65.6738 -12.1582 C 63.3789 -12.1582 61.9629 -13.7695 61.9629 -16.4551 L 61.9629 -21.5332 L 43.7988 -21.5332 C 40.5762 -21.5332 38.4766 -23.5352 38.4766 -26.5625 C 38.4766 -28.0762 38.8184 -29.2969 39.8926 -31.0059 C 44.0918 -37.8418 50.3418 -47.1191 55.5664 -55.0293 C 57.6172 -58.1055 59.8145 -59.375 63.3789 -59.375 C 67.041 -59.375 69.5312 -57.2266 69.5312 -54.0527 L 69.5312 -28.2227 L 73.3398 -28.2227 C 75.3906 -28.2227 76.7578 -26.8555 76.7578 -24.8535 C 76.7578 -22.9004 75.3418 -21.5332 73.3398 -21.5332 L 69.5312 -21.5332 L 69.5312 -16.4551 C 69.5312 -13.7207 68.1641 -12.1582 65.6738 -12.1582 Z M 61.9629 -28.2227 L 61.9629 -52.832 L 61.6211 -52.832 C 56.2988 -44.7754 49.9023 -35.2051 45.9961 -28.5645 L 45.9961 -28.2227 Z"/>
  </g>
  <g id="Light-M" transform="matrix(1 0 0 1 1095.42 1126)">
   <path d="M 57.7148 13.7695 C 84.5215 13.7695 106.689 -8.39844 106.689 -35.2051 C 106.689 -62.0117 84.5215 -84.1797 57.666 -84.1797 C 30.8594 -84.1797 8.74023 -62.0117 8.74023 -35.2051 C 8.74023 -8.39844 30.9082 13.7695 57.7148 13.7695 Z M 64.7461 -12.5977 C 62.9395 -12.5977 61.8652 -13.8672 61.8652 -15.8691 L 61.8652 -22.4609 L 43.3105 -22.4609 C 40.7227 -22.4609 39.0625 -24.0234 39.0625 -26.4648 C 39.0625 -27.6367 39.3555 -28.6621 40.1367 -29.9316 C 44.2383 -36.5723 51.8555 -47.9004 56.7871 -55.2734 C 58.4473 -57.7148 60.1562 -58.6914 62.8906 -58.6914 C 65.8203 -58.6914 67.7246 -56.9824 67.7246 -54.4922 L 67.7246 -27.7344 L 72.3145 -27.7344 C 73.9258 -27.7344 75 -26.6602 75 -25.0977 C 75 -23.584 73.877 -22.4609 72.3145 -22.4609 L 67.7246 -22.4609 L 67.7246 -15.8691 C 67.7246 -13.8184 66.6504 -12.5977 64.7461 -12.5977 Z M 61.8652 -27.7344 L 61.8652 -53.3203 L 61.5234 -53.3203 C 56.8848 -46.3867 48.6328 -34.1309 45.0195 -28.0273 L 45.0195 -27.7344 Z"/>
  </g>
  <g id="Thin-M" transform="matrix(1 0 0 1 799.806 1126)">
   <path d="M 56.6406 12.7441 C 82.9102 12.7441 104.492 -8.83789 104.492 -35.1562 C 104.492 -61.4746 82.9102 -83.0566 56.5918 -83.0566 C 30.3223 -83.0566 8.74023 -61.4746 8.74023 -35.1562 C 8.74023 -8.83789 30.3223 12.7441 56.6406 12.7441 Z M 63.4766 -13.1836 C 62.4023 -13.1836 61.6699 -13.9648 61.6699 -15.1367 L 61.6699 -23.6816 L 42.7246 -23.6816 C 40.8691 -23.6816 39.7949 -24.707 39.7949 -26.3672 C 39.7949 -27.0996 40.0879 -27.832 40.4785 -28.5156 C 44.4336 -34.9121 53.9062 -48.9258 58.4473 -55.5664 C 59.5703 -57.1777 60.6445 -57.8125 62.2559 -57.8125 C 64.1602 -57.8125 65.332 -56.6895 65.332 -55.0781 L 65.332 -27.0996 L 70.9473 -27.0996 C 71.9727 -27.0996 72.6562 -26.3672 72.6562 -25.3906 C 72.6562 -24.4629 71.9727 -23.6816 70.9473 -23.6816 L 65.332 -23.6816 L 65.332 -15.1367 C 65.332 -13.9648 64.6484 -13.1836 63.4766 -13.1836 Z M 61.6699 -27.0996 L 61.6699 -54.0039 L 61.4258 -54.0039 C 57.666 -48.584 46.9238 -32.666 43.75 -27.3438 L 43.75 -27.0996 Z"/>
  </g>
  <g id="Ultralight-M" transform="matrix(1 0 0 1 503.656 1126)">
   <path d="M 56.0547 12.207 C 82.0801 12.207 103.369 -9.08203 103.369 -35.1562 C 103.369 -61.1816 82.0801 -82.4707 56.0547 -82.4707 C 30.0293 -82.4707 8.74023 -61.1816 8.74023 -35.1562 C 8.74023 -9.08203 30.0293 12.207 56.0547 12.207 Z M 62.8418 -13.4766 C 62.1094 -13.4766 61.5723 -14.0137 61.5723 -14.7461 L 61.5723 -24.3652 L 42.4316 -24.3652 C 40.9668 -24.3652 40.1855 -25.0488 40.1855 -26.2695 C 40.1855 -26.8066 40.4297 -27.3926 40.6738 -27.7832 C 44.5312 -34.082 54.9316 -49.4629 59.2773 -55.7129 C 60.1562 -56.9336 60.8398 -57.3242 61.9629 -57.3242 C 63.3301 -57.3242 64.1113 -56.543 64.1113 -55.3711 L 64.1113 -26.7578 L 70.2637 -26.7578 C 70.9961 -26.7578 71.4844 -26.2207 71.4844 -25.5371 C 71.4844 -24.9023 70.9961 -24.3652 70.2637 -24.3652 L 64.1113 -24.3652 L 64.1113 -14.7461 C 64.1113 -14.0137 63.623 -13.4766 62.8418 -13.4766 Z M 61.5723 -26.7578 L 61.5723 -54.3457 L 61.3281 -54.3457 C 58.0566 -49.707 46.0449 -31.8848 43.0664 -27.002 L 43.0664 -26.7578 Z"/>
  </g>
  <g id="Black-S" transform="matrix(1 0 0 1 2884.57 696)">
   <path d="M 48.8281 6.78711 C 71.9727 6.78711 90.8203 -12.0605 90.8203 -35.2051 C 90.8203 -58.3496 71.9727 -77.1973 48.8281 -77.1973 C 25.6836 -77.1973 6.83594 -58.3496 6.83594 -35.2051 C 6.83594 -12.0605 25.6836 6.78711 48.8281 6.78711 Z M 54.3945 -16.9922 C 51.123 -16.9922 48.9746 -18.8477 48.9746 -22.6562 L 48.9746 -22.7539 L 39.3066 -22.7539 C 34.5703 -22.7539 31.5918 -25.3906 31.5918 -29.6387 C 31.5918 -31.3965 32.0312 -33.4473 33.0566 -35.8887 C 34.2773 -38.6719 36.4746 -42.6758 38.5742 -46.3379 C 41.6504 -51.6602 44.6777 -53.5156 50.4395 -53.5156 C 55.8105 -53.5156 59.8633 -49.9512 59.8633 -45.2637 L 59.8633 -32.7148 L 60.2539 -32.7148 C 63.8672 -32.7148 65.9668 -30.8105 65.9668 -27.7344 C 65.9668 -24.6582 63.8184 -22.7539 60.2051 -22.7539 L 59.8633 -22.7539 L 59.8633 -22.6562 C 59.8633 -18.8477 57.7148 -16.9922 54.3945 -16.9922 Z M 48.9746 -32.7148 L 48.9746 -44.6777 L 48.584 -44.6777 C 46.6797 -40.8691 44.2871 -35.8887 42.9688 -33.0078 L 42.9688 -32.7148 Z"/>
  </g>
  <g id="Heavy-S" transform="matrix(1 0 0 1 2588.47 696)">
   <path d="M 48.2422 6.15234 C 70.9961 6.15234 89.5996 -12.4512 89.5996 -35.2051 C 89.5996 -57.959 70.9961 -76.6113 48.1934 -76.6113 C 25.4395 -76.6113 6.83594 -57.959 6.83594 -35.2051 C 6.83594 -12.4512 25.4395 6.15234 48.2422 6.15234 Z M 53.8086 -16.9922 C 50.8301 -16.9922 48.877 -18.75 48.877 -22.2168 L 48.877 -23.0469 L 38.1836 -23.0469 C 33.8867 -23.0469 31.2012 -25.4883 31.2012 -29.3457 C 31.2012 -31.0059 31.5918 -32.8613 32.6172 -35.0586 C 34.3262 -38.4766 37.0117 -43.0176 39.5996 -47.3633 C 42.3828 -52.0508 45.166 -53.7598 50.293 -53.7598 C 55.1758 -53.7598 58.7891 -50.5859 58.7891 -46.3379 L 58.7891 -32.0801 L 59.7168 -32.0801 C 62.8906 -32.0801 64.7949 -30.3223 64.7949 -27.5391 C 64.7949 -24.8047 62.8418 -23.0469 59.668 -23.0469 L 58.7891 -23.0469 L 58.7891 -22.2168 C 58.7891 -18.7012 56.8848 -16.9922 53.8086 -16.9922 Z M 48.877 -32.0801 L 48.877 -45.6543 L 48.5352 -45.6543 C 45.9961 -41.1133 43.2129 -35.8398 41.4551 -32.373 L 41.4551 -32.0801 Z"/>
  </g>
  <g id="Bold-S" transform="matrix(1 0 0 1 2292.44 696)">
   <path d="M 47.5586 5.46875 C 69.873 5.46875 88.2324 -12.8906 88.2324 -35.2051 C 88.2324 -57.5684 69.873 -75.9277 47.5098 -75.9277 C 25.1953 -75.9277 6.83594 -57.5684 6.83594 -35.2051 C 6.83594 -12.8906 25.1953 5.46875 47.5586 5.46875 Z M 53.1738 -16.9922 C 50.4883 -16.9922 48.7793 -18.6035 48.7793 -21.7285 L 48.7793 -23.3887 L 36.9141 -23.3887 C 33.1543 -23.3887 30.7129 -25.5859 30.7129 -29.0527 C 30.7129 -30.6152 31.1035 -32.1777 32.0801 -34.1797 C 34.375 -38.2812 37.5488 -43.4082 40.7227 -48.4863 C 43.1641 -52.4902 45.7031 -54.0039 50.1465 -54.0039 C 54.4922 -54.0039 57.6172 -51.2695 57.6172 -47.5098 L 57.6172 -31.3477 L 59.082 -31.3477 C 61.8164 -31.3477 63.4766 -29.7852 63.4766 -27.3438 C 63.4766 -24.9512 61.7676 -23.3887 59.082 -23.3887 L 57.6172 -23.3887 L 57.6172 -21.7285 C 57.6172 -18.6035 55.9082 -16.9922 53.1738 -16.9922 Z M 48.7793 -31.3477 L 48.7793 -46.7285 L 48.4375 -46.7285 C 45.2148 -41.4062 41.9922 -35.8398 39.6973 -31.6406 L 39.6973 -31.3477 Z"/>
  </g>
  <g id="Semibold-S" transform="matrix(1 0 0 1 1996.2 696)">
   <path d="M 47.0703 4.98047 C 69.0918 4.98047 87.3047 -13.1836 87.3047 -35.2539 C 87.3047 -57.2754 69.0918 -75.4883 47.0215 -75.4883 C 25 -75.4883 6.83594 -57.2754 6.83594 -35.2539 C 6.83594 -13.1836 25.0488 4.98047 47.0703 4.98047 Z M 52.6855 -16.9922 C 50.2441 -16.9922 48.7305 -18.5059 48.7305 -21.3867 L 48.7305 -23.6328 L 36.0352 -23.6328 C 32.6172 -23.6328 30.4199 -25.6836 30.4199 -28.8574 C 30.4199 -30.3223 30.7617 -31.7383 31.7383 -33.5449 C 34.375 -38.1348 37.9883 -43.7012 41.5527 -49.2676 C 43.75 -52.832 46.0449 -54.1992 50.0488 -54.1992 C 54.0039 -54.1992 56.7871 -51.709 56.7871 -48.3398 L 56.7871 -30.8105 L 58.6914 -30.8105 C 61.084 -30.8105 62.5488 -29.4434 62.5488 -27.2461 C 62.5488 -25.0488 61.0352 -23.6328 58.6426 -23.6328 L 56.7871 -23.6328 L 56.7871 -21.3867 C 56.7871 -18.5059 55.2734 -16.9922 52.6855 -16.9922 Z M 48.7305 -30.8105 L 48.7305 -47.4609 L 48.3887 -47.4609 C 44.7266 -41.5527 41.1621 -35.791 38.5254 -31.1035 L 38.5254 -30.8105 Z"/>
  </g>
  <g id="Medium-S" transform="matrix(1 0 0 1 1699.83 696)">
   <path d="M 46.7285 4.63867 C 68.5547 4.63867 86.6211 -13.4277 86.6211 -35.2539 C 86.6211 -57.0312 68.5059 -75.1465 46.6797 -75.1465 C 24.8535 -75.1465 6.83594 -57.0312 6.83594 -35.2539 C 6.83594 -13.4277 24.9023 4.63867 46.7285 4.63867 Z M 52.3438 -16.9434 C 50.0488 -16.9434 48.6816 -18.457 48.6816 -21.1426 L 48.6816 -23.7793 L 35.3516 -23.7793 C 32.2266 -23.7793 30.1758 -25.7324 30.1758 -28.7109 C 30.1758 -30.127 30.5176 -31.3477 31.4453 -33.0566 C 34.4238 -38.0371 38.2812 -43.8965 42.1387 -49.8535 C 44.1406 -53.0273 46.3379 -54.2969 50 -54.2969 C 53.6133 -54.2969 56.1523 -52.0996 56.1523 -48.9746 L 56.1523 -30.4688 L 58.3496 -30.4688 C 60.498 -30.4688 61.8652 -29.1504 61.8652 -27.0996 C 61.8652 -25.1465 60.4492 -23.7793 58.3496 -23.7793 L 56.1523 -23.7793 L 56.1523 -21.1426 C 56.1523 -18.4082 54.7363 -16.9434 52.3438 -16.9434 Z M 48.6816 -30.4688 L 48.6816 -48.0469 L 48.3887 -48.0469 C 44.3359 -41.6992 40.5273 -35.791 37.6465 -30.7617 L 37.6465 -30.4688 Z"/>
  </g>
  <g id="Regular-S" transform="matrix(1 0 0 1 1403.58 696)">
   <path d="M 46.2402 4.15039 C 67.7734 4.15039 85.6934 -13.7207 85.6934 -35.2539 C 85.6934 -56.7871 67.7246 -74.6582 46.1914 -74.6582 C 24.707 -74.6582 6.83594 -56.7871 6.83594 -35.2539 C 6.83594 -13.7207 24.7559 4.15039 46.2402 4.15039 Z M 51.9043 -16.9434 C 49.8535 -16.9434 48.6328 -18.3594 48.6328 -20.8008 L 48.6328 -24.0234 L 34.5215 -24.0234 C 31.6895 -24.0234 29.8828 -25.8301 29.8828 -28.5156 C 29.8828 -29.834 30.1758 -30.9082 31.1035 -32.4707 C 34.4238 -37.8906 38.6719 -44.1406 42.9199 -50.6348 C 44.7266 -53.3691 46.6797 -54.4922 49.8535 -54.4922 C 53.125 -54.4922 55.3223 -52.5391 55.3223 -49.7559 L 55.3223 -29.9316 L 57.959 -29.9316 C 59.7656 -29.9316 60.9375 -28.7598 60.9375 -27.002 C 60.9375 -25.2441 59.7168 -24.0234 57.959 -24.0234 L 55.3223 -24.0234 L 55.3223 -20.8008 C 55.3223 -18.3105 54.1016 -16.9434 51.9043 -16.9434 Z M 48.6328 -29.9316 L 48.6328 -48.7793 L 48.3398 -48.7793 C 43.7988 -41.8945 39.6973 -35.7422 36.4746 -30.2246 L 36.4746 -29.9316 Z"/>
  </g>
  <g id="Light-S" transform="matrix(1 0 0 1 1107.6 696)">
   <path d="M 45.5078 3.4668 C 66.6992 3.4668 84.2285 -14.0625 84.2285 -35.2051 C 84.2285 -56.3965 66.6504 -73.9258 45.5078 -73.9258 C 24.3164 -73.9258 6.83594 -56.3965 6.83594 -35.2051 C 6.83594 -14.0625 24.3652 3.4668 45.5078 3.4668 Z M 51.0742 -17.334 C 49.4629 -17.334 48.4863 -18.457 48.4863 -20.3125 L 48.4863 -24.8535 L 34.082 -24.8535 C 31.8359 -24.8535 30.3711 -26.2695 30.3711 -28.418 C 30.3711 -29.4434 30.6152 -30.3223 31.3477 -31.4941 C 34.5703 -36.7676 40.0391 -44.873 43.9941 -50.8301 C 45.459 -53.0273 46.9727 -53.9062 49.4629 -53.9062 C 52.0508 -53.9062 53.7598 -52.3438 53.7598 -50.1465 L 53.7598 -29.541 L 57.0312 -29.541 C 58.4961 -29.541 59.4238 -28.5645 59.4238 -27.1973 C 59.4238 -25.8301 58.4473 -24.8535 57.0312 -24.8535 L 53.7598 -24.8535 L 53.7598 -20.3125 C 53.7598 -18.4082 52.7832 -17.334 51.0742 -17.334 Z M 48.4863 -29.541 L 48.4863 -49.2188 L 48.2422 -49.2188 C 44.3359 -43.3594 38.5742 -34.7656 35.6445 -29.7852 L 35.6445 -29.541 Z"/>
  </g>
  <g id="Thin-S" transform="matrix(1 0 0 1 811.867 696)">
   <path d="M 44.5801 2.53906 C 65.2832 2.53906 82.2754 -14.4531 82.2754 -35.2051 C 82.2754 -55.9082 65.2344 -72.9004 44.5312 -72.9004 C 23.8281 -72.9004 6.83594 -55.9082 6.83594 -35.2051 C 6.83594 -14.4531 23.877 2.53906 44.5801 2.53906 Z M 49.9512 -17.8223 C 48.9746 -17.8223 48.3398 -18.5547 48.3398 -19.6289 L 48.3398 -25.9766 L 33.5938 -25.9766 C 31.9824 -25.9766 31.0059 -26.8555 31.0059 -28.3203 C 31.0059 -28.9551 31.25 -29.5898 31.6406 -30.2246 C 34.7656 -35.3027 41.8457 -45.752 45.459 -51.0742 C 46.4355 -52.5391 47.4121 -53.0762 48.877 -53.0762 C 50.5859 -53.0762 51.6113 -52.0996 51.6113 -50.6348 L 51.6113 -28.9551 L 55.8594 -28.9551 C 56.7383 -28.9551 57.373 -28.3203 57.373 -27.4414 C 57.373 -26.6113 56.7383 -25.9766 55.8594 -25.9766 L 51.6113 -25.9766 L 51.6113 -19.6289 C 51.6113 -18.5059 51.0254 -17.8223 49.9512 -17.8223 Z M 48.3398 -28.9551 L 48.3398 -49.8047 L 48.1445 -49.8047 C 45.0195 -45.2637 37.0605 -33.4961 34.5215 -29.1992 L 34.5215 -28.9551 Z"/>
  </g>
  <g id="Ultralight-S" transform="matrix(1 0 0 1 515.644 696)">
   <path d="M 44.043 2.05078 C 64.502 2.05078 81.2988 -14.6973 81.2988 -35.1562 C 81.2988 -55.6152 64.502 -72.3633 44.043 -72.3633 C 23.584 -72.3633 6.83594 -55.6152 6.83594 -35.1562 C 6.83594 -14.6973 23.584 2.05078 44.043 2.05078 Z M 49.4141 -18.1152 C 48.7305 -18.1152 48.2422 -18.6035 48.2422 -19.2871 L 48.2422 -26.5137 L 33.3008 -26.5137 C 32.0801 -26.5137 31.3477 -27.1973 31.3477 -28.2227 C 31.3477 -28.7109 31.5918 -29.1992 31.7871 -29.5898 C 34.8633 -34.5703 42.7734 -46.2402 46.1914 -51.2207 C 46.9727 -52.2949 47.6074 -52.6855 48.584 -52.6855 C 49.8535 -52.6855 50.5371 -52.002 50.5371 -50.9277 L 50.5371 -28.6621 L 55.2246 -28.6621 C 55.8594 -28.6621 56.2988 -28.2227 56.2988 -27.5879 C 56.2988 -27.002 55.8594 -26.5137 55.2246 -26.5137 L 50.5371 -26.5137 L 50.5371 -19.2871 C 50.5371 -18.6035 50.0977 -18.1152 49.4141 -18.1152 Z M 48.2422 -28.6621 L 48.2422 -50.1465 L 48.0469 -50.1465 C 45.3613 -46.2402 36.3281 -32.8125 33.9355 -28.8574 L 33.9355 -28.6621 Z"/>
  </g>
 </g>
</svg>
