<?xml version="1.0" encoding="UTF-8"?>
<!--Generator: Apple Native CoreSVG 123-->
<!DOCTYPE svg
PUBLIC "-//W3C//DTD SVG 1.1//EN"
       "http://www.w3.org/Graphics/SVG/1.1/DTD/svg11.dtd">
<svg version="1.1" xmlns="http://www.w3.org/2000/svg" xmlns:xlink="http://www.w3.org/1999/xlink" width="3300" height="2200">
 <!--glyph: "uni1006A8.medium", point size: 100.000000, font version: "Version 15.0d7e11", template writer version: "5"-->
 <g id="Notes">
  <rect height="2200" id="artboard" style="fill:white;opacity:1" width="3300" x="0" y="0"/>
  <line id="" style="fill:none;stroke:black;opacity:1;stroke-width:0.5;" x1="263" x2="3036" y1="292" y2="292"/>
  <text style="stroke:none;fill:black;font-family:-apple-system,&quot;SF Pro Display&quot;,&quot;SF Pro Text&quot;,Helvetica,sans-serif;font-weight:bold;" transform="matrix(1 0 0 1 263 322)">Weight/Scale Variations</text>
  <text style="stroke:none;fill:black;font-family:-apple-system,&quot;SF Pro Display&quot;,&quot;SF Pro Text&quot;,Helvetica,sans-serif;text-anchor:middle;" transform="matrix(1 0 0 1 559.711 322)">Ultralight</text>
  <text style="stroke:none;fill:black;font-family:-apple-system,&quot;SF Pro Display&quot;,&quot;SF Pro Text&quot;,Helvetica,sans-serif;text-anchor:middle;" transform="matrix(1 0 0 1 856.422 322)">Thin</text>
  <text style="stroke:none;fill:black;font-family:-apple-system,&quot;SF Pro Display&quot;,&quot;SF Pro Text&quot;,Helvetica,sans-serif;text-anchor:middle;" transform="matrix(1 0 0 1 1153.13 322)">Light</text>
  <text style="stroke:none;fill:black;font-family:-apple-system,&quot;SF Pro Display&quot;,&quot;SF Pro Text&quot;,Helvetica,sans-serif;text-anchor:middle;" transform="matrix(1 0 0 1 1449.84 322)">Regular</text>
  <text style="stroke:none;fill:black;font-family:-apple-system,&quot;SF Pro Display&quot;,&quot;SF Pro Text&quot;,Helvetica,sans-serif;text-anchor:middle;" transform="matrix(1 0 0 1 1746.56 322)">Medium</text>
  <text style="stroke:none;fill:black;font-family:-apple-system,&quot;SF Pro Display&quot;,&quot;SF Pro Text&quot;,Helvetica,sans-serif;text-anchor:middle;" transform="matrix(1 0 0 1 2043.27 322)">Semibold</text>
  <text style="stroke:none;fill:black;font-family:-apple-system,&quot;SF Pro Display&quot;,&quot;SF Pro Text&quot;,Helvetica,sans-serif;text-anchor:middle;" transform="matrix(1 0 0 1 2339.98 322)">Bold</text>
  <text style="stroke:none;fill:black;font-family:-apple-system,&quot;SF Pro Display&quot;,&quot;SF Pro Text&quot;,Helvetica,sans-serif;text-anchor:middle;" transform="matrix(1 0 0 1 2636.69 322)">Heavy</text>
  <text style="stroke:none;fill:black;font-family:-apple-system,&quot;SF Pro Display&quot;,&quot;SF Pro Text&quot;,Helvetica,sans-serif;text-anchor:middle;" transform="matrix(1 0 0 1 2933.4 322)">Black</text>
  <line id="" style="fill:none;stroke:black;opacity:1;stroke-width:0.5;" x1="263" x2="3036" y1="1903" y2="1903"/>
  <g id="" transform="matrix(1 0 0 1 263 1933)">
   <path d="M 9.24805 0.830078 C 13.5547 0.830078 17.1387 -2.74414 17.1387 -7.05078 C 17.1387 -11.3574 13.5449 -14.9316 9.23828 -14.9316 C 4.94141 -14.9316 1.36719 -11.3574 1.36719 -7.05078 C 1.36719 -2.74414 4.95117 0.830078 9.24805 0.830078 Z M 9.24805 -0.654297 C 5.70312 -0.654297 2.87109 -3.49609 2.87109 -7.05078 C 2.87109 -10.6055 5.69336 -13.4473 9.23828 -13.4473 C 12.793 -13.4473 15.6348 -10.6055 15.6445 -7.05078 C 15.6543 -3.49609 12.8027 -0.654297 9.24805 -0.654297 Z M 9.22852 -3.42773 C 9.69727 -3.42773 9.9707 -3.74023 9.9707 -4.25781 L 9.9707 -6.31836 L 12.1973 -6.31836 C 12.6953 -6.31836 13.0371 -6.57227 13.0371 -7.04102 C 13.0371 -7.51953 12.7148 -7.7832 12.1973 -7.7832 L 9.9707 -7.7832 L 9.9707 -10.0098 C 9.9707 -10.5273 9.69727 -10.8496 9.22852 -10.8496 C 8.75977 -10.8496 8.50586 -10.5078 8.50586 -10.0098 L 8.50586 -7.7832 L 6.29883 -7.7832 C 5.78125 -7.7832 5.44922 -7.51953 5.44922 -7.04102 C 5.44922 -6.57227 5.80078 -6.31836 6.29883 -6.31836 L 8.50586 -6.31836 L 8.50586 -4.25781 C 8.50586 -3.75977 8.75977 -3.42773 9.22852 -3.42773 Z"/>
  </g>
  <g id="" transform="matrix(1 0 0 1 281.506 1933)">
   <path d="M 11.709 2.91016 C 17.1582 2.91016 21.6699 -1.60156 21.6699 -7.05078 C 21.6699 -12.4902 17.1484 -17.0117 11.6992 -17.0117 C 6.25977 -17.0117 1.74805 -12.4902 1.74805 -7.05078 C 1.74805 -1.60156 6.26953 2.91016 11.709 2.91016 Z M 11.709 1.25 C 7.09961 1.25 3.41797 -2.44141 3.41797 -7.05078 C 3.41797 -11.6504 7.08984 -15.3516 11.6992 -15.3516 C 16.3086 -15.3516 20 -11.6504 20.0098 -7.05078 C 20.0195 -2.44141 16.3184 1.25 11.709 1.25 Z M 11.6895 -2.41211 C 12.207 -2.41211 12.5195 -2.77344 12.5195 -3.33984 L 12.5195 -6.23047 L 15.5762 -6.23047 C 16.123 -6.23047 16.5039 -6.51367 16.5039 -7.03125 C 16.5039 -7.55859 16.1426 -7.86133 15.5762 -7.86133 L 12.5195 -7.86133 L 12.5195 -10.9277 C 12.5195 -11.5039 12.207 -11.8555 11.6895 -11.8555 C 11.1719 -11.8555 10.8789 -11.4844 10.8789 -10.9277 L 10.8789 -7.86133 L 7.83203 -7.86133 C 7.26562 -7.86133 6.89453 -7.55859 6.89453 -7.03125 C 6.89453 -6.51367 7.28516 -6.23047 7.83203 -6.23047 L 10.8789 -6.23047 L 10.8789 -3.33984 C 10.8789 -2.79297 11.1719 -2.41211 11.6895 -2.41211 Z"/>
  </g>
  <g id="" transform="matrix(1 0 0 1 304.924 1933)">
   <path d="M 14.9707 5.67383 C 21.9336 5.67383 27.6953 -0.078125 27.6953 -7.04102 C 27.6953 -14.0039 21.9238 -19.7559 14.9609 -19.7559 C 8.00781 -19.7559 2.25586 -14.0039 2.25586 -7.04102 C 2.25586 -0.078125 8.01758 5.67383 14.9707 5.67383 Z M 14.9707 3.85742 C 8.93555 3.85742 4.08203 -1.00586 4.08203 -7.04102 C 4.08203 -13.0762 8.92578 -17.9395 14.9609 -17.9395 C 21.0059 -17.9395 25.8594 -13.0762 25.8691 -7.04102 C 25.8789 -1.00586 21.0156 3.85742 14.9707 3.85742 Z M 14.9512 -1.06445 C 15.5176 -1.06445 15.8691 -1.45508 15.8691 -2.06055 L 15.8691 -6.13281 L 20.1074 -6.13281 C 20.6934 -6.13281 21.1133 -6.46484 21.1133 -7.02148 C 21.1133 -7.59766 20.7227 -7.93945 20.1074 -7.93945 L 15.8691 -7.93945 L 15.8691 -12.1875 C 15.8691 -12.8027 15.5176 -13.1934 14.9512 -13.1934 C 14.3848 -13.1934 14.0625 -12.7832 14.0625 -12.1875 L 14.0625 -7.93945 L 9.83398 -7.93945 C 9.21875 -7.93945 8.80859 -7.59766 8.80859 -7.02148 C 8.80859 -6.46484 9.23828 -6.13281 9.83398 -6.13281 L 14.0625 -6.13281 L 14.0625 -2.06055 C 14.0625 -1.47461 14.3848 -1.06445 14.9512 -1.06445 Z"/>
  </g>
  <text style="stroke:none;fill:black;font-family:-apple-system,&quot;SF Pro Display&quot;,&quot;SF Pro Text&quot;,Helvetica,sans-serif;font-weight:bold;" transform="matrix(1 0 0 1 263 1953)">Design Variations</text>
  <text style="stroke:none;fill:black;font-family:-apple-system,&quot;SF Pro Display&quot;,&quot;SF Pro Text&quot;,Helvetica,sans-serif;" transform="matrix(1 0 0 1 263 1971)">Symbols are supported in up to nine weights and three scales.</text>
  <text style="stroke:none;fill:black;font-family:-apple-system,&quot;SF Pro Display&quot;,&quot;SF Pro Text&quot;,Helvetica,sans-serif;" transform="matrix(1 0 0 1 263 1989)">For optimal layout with text and other symbols, vertically align</text>
  <text style="stroke:none;fill:black;font-family:-apple-system,&quot;SF Pro Display&quot;,&quot;SF Pro Text&quot;,Helvetica,sans-serif;" transform="matrix(1 0 0 1 263 2007)">symbols with the adjacent text.</text>
  <rect height="14" id="" style="fill:#00AEEF;stroke:none;opacity:0.4;" width="3" x="776" y="1919"/>
  <g id="" transform="matrix(1 0 0 1 779 1933)">
   <path d="M 10.5273 0 L 12.373 0 L 7.17773 -14.0918 L 5.43945 -14.0918 L 0.244141 0 L 2.08984 0 L 3.50586 -4.0332 L 9.11133 -4.0332 Z M 6.2793 -11.9531 L 6.33789 -11.9531 L 8.59375 -5.52734 L 4.02344 -5.52734 Z"/>
  </g>
  <rect height="14" id="" style="fill:#00AEEF;stroke:none;opacity:0.4;" width="3" x="791.617" y="1919"/>
  <text style="stroke:none;fill:black;font-family:-apple-system,&quot;SF Pro Display&quot;,&quot;SF Pro Text&quot;,Helvetica,sans-serif;font-weight:bold;" transform="matrix(1 0 0 1 776 1953)">Margins</text>
  <text style="stroke:none;fill:black;font-family:-apple-system,&quot;SF Pro Display&quot;,&quot;SF Pro Text&quot;,Helvetica,sans-serif;" transform="matrix(1 0 0 1 776 1971)">Leading and trailing margins on the left and right side of each symbol</text>
  <text style="stroke:none;fill:black;font-family:-apple-system,&quot;SF Pro Display&quot;,&quot;SF Pro Text&quot;,Helvetica,sans-serif;" transform="matrix(1 0 0 1 776 1989)">can be adjusted by modifying the width of the blue rectangles.</text>
  <text style="stroke:none;fill:black;font-family:-apple-system,&quot;SF Pro Display&quot;,&quot;SF Pro Text&quot;,Helvetica,sans-serif;" transform="matrix(1 0 0 1 776 2007)">Modifications are automatically applied proportionally to all</text>
  <text style="stroke:none;fill:black;font-family:-apple-system,&quot;SF Pro Display&quot;,&quot;SF Pro Text&quot;,Helvetica,sans-serif;" transform="matrix(1 0 0 1 776 2025)">scales and weights.</text>
  <g id="" transform="matrix(1 0 0 1 1289 1933)">
   <path d="M 2.83203 3.11523 L 4.375 4.6582 C 5.22461 5.48828 6.19141 5.41992 7.06055 4.46289 L 17.2754 -6.66016 C 17.7051 -6.36719 18.0957 -6.37695 18.5645 -6.47461 L 19.6094 -6.68945 L 20.3027 -5.99609 L 20.2539 -5.47852 C 20.1855 -4.95117 20.3516 -4.53125 20.8496 -4.0332 L 21.6602 -3.22266 C 22.168 -2.71484 22.8223 -2.68555 23.3008 -3.16406 L 26.5527 -6.41602 C 27.0312 -6.89453 27.0117 -7.54883 26.5039 -8.05664 L 25.6836 -8.87695 C 25.1855 -9.375 24.7754 -9.55078 24.2383 -9.47266 L 23.7109 -9.41406 L 23.0566 -10.0781 L 23.3398 -11.2207 C 23.4863 -11.7871 23.3398 -12.2559 22.7148 -12.8613 L 20.3027 -15.2539 C 16.7578 -18.7793 12.2266 -18.6719 9.11133 -15.5371 C 8.69141 -15.1074 8.64258 -14.5215 8.91602 -14.0918 C 9.15039 -13.7207 9.62891 -13.4961 10.2734 -13.6621 C 11.7871 -14.043 13.3008 -13.9258 14.7852 -12.9199 L 14.1602 -11.3379 C 13.9258 -10.752 13.9453 -10.2734 14.1797 -9.83398 L 3.01758 0.439453 C 2.08008 1.30859 1.97266 2.25586 2.83203 3.11523 Z M 10.6738 -15.1465 C 13.3398 -17.1387 16.6504 -16.8262 19.0527 -14.4141 L 21.6797 -11.8066 C 21.9141 -11.5723 21.9434 -11.3867 21.8848 -11.0938 L 21.5039 -9.53125 L 23.0762 -7.95898 L 24.043 -8.04688 C 24.3262 -8.07617 24.4141 -8.05664 24.6387 -7.83203 L 25.2637 -7.20703 L 22.5098 -4.46289 L 21.8848 -5.07812 C 21.6602 -5.30273 21.6406 -5.40039 21.6699 -5.68359 L 21.7578 -6.64062 L 20.1953 -8.20312 L 18.5742 -7.89062 C 18.291 -7.83203 18.1445 -7.83203 17.9102 -8.07617 L 15.7324 -10.2539 C 15.5078 -10.4883 15.4785 -10.625 15.6055 -10.9473 L 16.5527 -13.2227 C 14.9512 -14.7559 12.8418 -15.6055 10.8008 -14.9512 C 10.7129 -14.9219 10.6445 -14.9414 10.6152 -14.9805 C 10.5859 -15.0293 10.5859 -15.0781 10.6738 -15.1465 Z M 4.10156 2.41211 C 3.61328 1.91406 3.78906 1.61133 4.12109 1.30859 L 15.0781 -8.80859 L 16.3086 -7.57812 L 6.15234 3.34961 C 5.84961 3.68164 5.46875 3.7793 5.06836 3.37891 Z"/>
  </g>
  <text style="stroke:none;fill:black;font-family:-apple-system,&quot;SF Pro Display&quot;,&quot;SF Pro Text&quot;,Helvetica,sans-serif;font-weight:bold;" transform="matrix(1 0 0 1 1289 1953)">Exporting</text>
  <text style="stroke:none;fill:black;font-family:-apple-system,&quot;SF Pro Display&quot;,&quot;SF Pro Text&quot;,Helvetica,sans-serif;" transform="matrix(1 0 0 1 1289 1971)">Symbols should be outlined when exporting to ensure the</text>
  <text style="stroke:none;fill:black;font-family:-apple-system,&quot;SF Pro Display&quot;,&quot;SF Pro Text&quot;,Helvetica,sans-serif;" transform="matrix(1 0 0 1 1289 1989)">design is preserved when submitting to Xcode.</text>
  <text id="template-version" style="stroke:none;fill:black;font-family:-apple-system,&quot;SF Pro Display&quot;,&quot;SF Pro Text&quot;,Helvetica,sans-serif;text-anchor:end;" transform="matrix(1 0 0 1 3036 1933)">Template v.1.0</text>
  <text style="stroke:none;fill:black;font-family:-apple-system,&quot;SF Pro Display&quot;,&quot;SF Pro Text&quot;,Helvetica,sans-serif;text-anchor:end;" transform="matrix(1 0 0 1 3036 1951)">Generated from 40.circle.fill</text>
  <text style="stroke:none;fill:black;font-family:-apple-system,&quot;SF Pro Display&quot;,&quot;SF Pro Text&quot;,Helvetica,sans-serif;text-anchor:end;" transform="matrix(1 0 0 1 3036 1969)">Typeset at 100 points</text>
  <text style="stroke:none;fill:black;font-family:-apple-system,&quot;SF Pro Display&quot;,&quot;SF Pro Text&quot;,Helvetica,sans-serif;" transform="matrix(1 0 0 1 263 726)">Small</text>
  <text style="stroke:none;fill:black;font-family:-apple-system,&quot;SF Pro Display&quot;,&quot;SF Pro Text&quot;,Helvetica,sans-serif;" transform="matrix(1 0 0 1 263 1156)">Medium</text>
  <text style="stroke:none;fill:black;font-family:-apple-system,&quot;SF Pro Display&quot;,&quot;SF Pro Text&quot;,Helvetica,sans-serif;" transform="matrix(1 0 0 1 263 1586)">Large</text>
 </g>
 <g id="Guides">
  <g id="H-reference" style="fill:#27AAE1;stroke:none;" transform="matrix(1 0 0 1 339 696)">
   <path d="M 54.9316 0 L 57.666 0 L 30.5664 -70.459 L 28.0762 -70.459 L 0.976562 0 L 3.66211 0 L 12.9395 -24.4629 L 45.7031 -24.4629 Z M 29.1992 -67.0898 L 29.4434 -67.0898 L 44.8242 -26.709 L 13.8184 -26.709 Z"/>
  </g>
  <line id="Baseline-S" style="fill:none;stroke:#27AAE1;opacity:1;stroke-width:0.577;" x1="263" x2="3036" y1="696" y2="696"/>
  <line id="Capline-S" style="fill:none;stroke:#27AAE1;opacity:1;stroke-width:0.577;" x1="263" x2="3036" y1="625.541" y2="625.541"/>
  <g id="H-reference" style="fill:#27AAE1;stroke:none;" transform="matrix(1 0 0 1 339 1126)">
   <path d="M 54.9316 0 L 57.666 0 L 30.5664 -70.459 L 28.0762 -70.459 L 0.976562 0 L 3.66211 0 L 12.9395 -24.4629 L 45.7031 -24.4629 Z M 29.1992 -67.0898 L 29.4434 -67.0898 L 44.8242 -26.709 L 13.8184 -26.709 Z"/>
  </g>
  <line id="Baseline-M" style="fill:none;stroke:#27AAE1;opacity:1;stroke-width:0.577;" x1="263" x2="3036" y1="1126" y2="1126"/>
  <line id="Capline-M" style="fill:none;stroke:#27AAE1;opacity:1;stroke-width:0.577;" x1="263" x2="3036" y1="1055.54" y2="1055.54"/>
  <g id="H-reference" style="fill:#27AAE1;stroke:none;" transform="matrix(1 0 0 1 339 1556)">
   <path d="M 54.9316 0 L 57.666 0 L 30.5664 -70.459 L 28.0762 -70.459 L 0.976562 0 L 3.66211 0 L 12.9395 -24.4629 L 45.7031 -24.4629 Z M 29.1992 -67.0898 L 29.4434 -67.0898 L 44.8242 -26.709 L 13.8184 -26.709 Z"/>
  </g>
  <line id="Baseline-L" style="fill:none;stroke:#27AAE1;opacity:1;stroke-width:0.577;" x1="263" x2="3036" y1="1556" y2="1556"/>
  <line id="Capline-L" style="fill:none;stroke:#27AAE1;opacity:1;stroke-width:0.577;" x1="263" x2="3036" y1="1485.54" y2="1485.54"/>
  <rect height="119.336" id="left-margin" style="fill:#00AEEF;stroke:none;opacity:0.4;" width="8.74023" x="1391.3" y="1030.79"/>
  <rect height="119.336" id="right-margin" style="fill:#00AEEF;stroke:none;opacity:0.4;" width="8.74023" x="1499.65" y="1030.79"/>
 </g>
 <g id="Symbols">
  <g id="Black-L" transform="matrix(1 0 0 1 2854.05 1556)">
   <path d="M 79.3457 32.8613 C 116.748 32.8613 147.412 2.19727 147.412 -35.2051 C 147.412 -72.6074 116.748 -103.271 79.2969 -103.271 C 41.8945 -103.271 11.2793 -72.6074 11.2793 -35.2051 C 11.2793 2.19727 41.9434 32.8613 79.3457 32.8613 Z M 67.2363 -9.47266 C 63.916 -9.47266 61.7188 -11.7676 61.7188 -15.0391 L 61.7188 -19.1406 L 49.3652 -19.1406 C 44.4824 -19.1406 41.8457 -21.9238 41.8457 -26.6602 C 41.8457 -29.4922 42.5293 -32.0312 43.5059 -34.5703 C 45.5566 -39.7949 49.0723 -47.6562 52.2949 -53.8574 C 54.834 -58.7891 58.0566 -61.084 63.5254 -61.084 C 69.6777 -61.084 72.8027 -57.4219 72.8027 -51.5137 L 72.8027 -29.7852 L 73.9746 -29.7852 C 77.1484 -29.7852 78.9551 -27.6367 78.9551 -24.4141 C 78.9551 -21.1914 77.1484 -19.2383 73.9746 -19.2383 L 72.8027 -19.2383 L 72.8027 -15.0391 C 72.8027 -11.7676 70.7031 -9.47266 67.2363 -9.47266 Z M 100.391 -9.47266 C 90.1367 -9.47266 83.3984 -17.4805 83.3984 -35.2539 C 83.3984 -53.0273 90.1367 -61.084 100.391 -61.084 C 110.449 -61.084 117.676 -53.0273 117.676 -35.2539 C 117.676 -17.4805 110.449 -9.47266 100.391 -9.47266 Z M 61.7188 -29.6387 L 61.7188 -49.3164 L 61.5234 -49.3164 C 58.7891 -43.3105 55.6152 -34.8633 53.6133 -29.9316 L 53.6133 -29.6387 Z M 100.537 -21.5332 C 103.418 -21.5332 105.225 -25.1953 105.225 -35.2539 C 105.225 -45.3125 103.418 -49.0234 100.537 -49.0234 C 97.7051 -49.0234 95.8496 -45.3125 95.8496 -35.2539 C 95.8496 -25.1953 97.7051 -21.5332 100.537 -21.5332 Z"/>
  </g>
  <g id="Heavy-L" transform="matrix(1 0 0 1 2558.39 1556)">
   <path d="M 78.2715 31.7871 C 115.088 31.7871 145.312 1.61133 145.312 -35.2051 C 145.312 -72.0215 115.039 -102.197 78.2715 -102.197 C 41.4551 -102.197 11.2793 -72.0215 11.2793 -35.2051 C 11.2793 1.61133 41.5039 31.7871 78.2715 31.7871 Z M 65.8691 -8.93555 C 62.793 -8.93555 60.8398 -11.084 60.8398 -14.1113 L 60.8398 -19.2871 L 46.6309 -19.2871 C 42.1387 -19.2871 39.6484 -21.8262 39.6484 -26.1719 C 39.6484 -28.7109 40.2832 -30.957 41.2598 -33.3496 C 43.8965 -39.1602 48.4375 -48.2422 52.1973 -55.127 C 54.5898 -59.6191 57.5684 -61.6699 62.5 -61.6699 C 68.0176 -61.6699 70.9473 -58.3496 70.9473 -53.0762 L 70.9473 -28.9062 L 72.8516 -28.9062 C 75.7812 -28.9062 77.4414 -27.002 77.4414 -24.0723 C 77.4414 -21.0938 75.7812 -19.3359 72.8516 -19.3359 L 70.9473 -19.3359 L 70.9473 -14.1113 C 70.9473 -11.0352 69.043 -8.93555 65.8691 -8.93555 Z M 99.9023 -8.88672 C 89.4043 -8.88672 82.4219 -17.5781 82.4219 -35.2539 C 82.4219 -52.9297 89.4043 -61.6699 99.9023 -61.6699 C 110.254 -61.6699 117.529 -52.9297 117.529 -35.2539 C 117.529 -17.5781 110.254 -8.88672 99.9023 -8.88672 Z M 60.8398 -28.8574 L 60.8398 -50.8301 L 60.5957 -50.8301 C 57.3242 -44.2871 52.8809 -34.5703 50.4395 -29.1016 L 50.4395 -28.8574 Z M 100 -19.7266 C 103.857 -19.7266 106.25 -24.5117 106.25 -35.2539 C 106.25 -46.0449 103.809 -50.7812 100 -50.7812 C 96.1914 -50.7812 93.75 -46.0449 93.75 -35.2539 C 93.75 -24.5117 96.1914 -19.7266 100 -19.7266 Z"/>
  </g>
  <g id="Bold-L" transform="matrix(1 0 0 1 2262.88 1556)">
   <path d="M 77.0996 30.6152 C 113.232 30.6152 142.92 0.878906 142.92 -35.2051 C 142.92 -71.3379 113.184 -101.025 77.0508 -101.025 C 40.9668 -101.025 11.2793 -71.3379 11.2793 -35.2051 C 11.2793 0.878906 41.0156 30.6152 77.0996 30.6152 Z M 64.3066 -8.30078 C 61.5234 -8.30078 59.8145 -10.3027 59.8145 -13.0371 L 59.8145 -19.4336 L 43.5547 -19.4336 C 39.5508 -19.4336 37.207 -21.7285 37.207 -25.6836 C 37.207 -27.832 37.7441 -29.7852 38.7207 -31.9336 C 41.9922 -38.4277 47.7051 -48.877 52.0996 -56.4941 C 54.3457 -60.5469 56.9824 -62.3047 61.377 -62.3047 C 66.1133 -62.3047 68.8965 -59.4238 68.8965 -54.7852 L 68.8965 -27.9785 L 71.6309 -27.9785 C 74.2188 -27.9785 75.7812 -26.3184 75.7812 -23.6816 C 75.7812 -21.0449 74.2676 -19.4824 71.6309 -19.4824 L 68.8965 -19.4824 L 68.8965 -13.0371 C 68.8965 -10.2539 67.1875 -8.30078 64.3066 -8.30078 Z M 99.3164 -8.25195 C 88.5254 -8.25195 81.3965 -17.6758 81.3965 -35.2539 C 81.3965 -52.832 88.5254 -62.3047 99.3164 -62.3047 C 110.059 -62.3047 117.383 -52.832 117.383 -35.2539 C 117.383 -17.6758 110.059 -8.25195 99.3164 -8.25195 Z M 99.4141 -17.7734 C 104.297 -17.7734 107.422 -23.7305 107.422 -35.2539 C 107.422 -46.7773 104.297 -52.7832 99.4141 -52.7832 C 94.5801 -52.7832 91.4062 -46.7773 91.4062 -35.2539 C 91.4062 -23.7305 94.5801 -17.7734 99.4141 -17.7734 Z M 59.8145 -27.9297 L 59.8145 -52.4902 L 59.5703 -52.4902 C 55.6641 -45.3613 49.8535 -34.2285 46.9238 -28.1738 L 46.9238 -27.9297 Z"/>
  </g>
  <g id="Semibold-L" transform="matrix(1 0 0 1 1966.97 1556)">
   <path d="M 76.2695 29.7852 C 111.914 29.7852 141.309 0.439453 141.309 -35.2051 C 141.309 -70.8496 111.865 -100.244 76.2695 -100.244 C 40.625 -100.244 11.2793 -70.8496 11.2793 -35.2051 C 11.2793 0.439453 40.6738 29.7852 76.2695 29.7852 Z M 63.2324 -7.91016 C 60.6445 -7.91016 59.1309 -9.7168 59.1309 -12.3047 L 59.1309 -19.5312 L 41.4551 -19.5312 C 37.793 -19.5312 35.5469 -21.6309 35.5469 -25.293 C 35.5469 -27.2461 35.9863 -28.9551 36.9629 -30.957 C 40.7227 -37.9395 47.2656 -49.3164 52.0508 -57.4707 C 54.1504 -61.1816 56.5918 -62.7441 60.5957 -62.7441 C 64.8438 -62.7441 67.4316 -60.1074 67.4316 -56.0059 L 67.4316 -27.3438 L 70.8008 -27.3438 C 73.1934 -27.3438 74.6094 -25.8301 74.6094 -23.3887 C 74.6094 -20.9961 73.1934 -19.5312 70.8008 -19.5312 L 67.4316 -19.5312 L 67.4316 -12.3047 C 67.4316 -9.7168 65.918 -7.91016 63.2324 -7.91016 Z M 98.9746 -7.76367 C 87.9883 -7.76367 80.6641 -17.7734 80.6641 -35.2539 C 80.6641 -52.7832 87.9883 -62.7441 98.9746 -62.7441 C 109.863 -62.7441 117.285 -52.7832 117.285 -35.2539 C 117.285 -17.7734 109.863 -7.76367 98.9746 -7.76367 Z M 99.0234 -16.4062 C 104.639 -16.4062 108.203 -23.1934 108.203 -35.2539 C 108.203 -47.3145 104.59 -54.1504 99.0234 -54.1504 C 93.4082 -54.1504 89.7949 -47.3145 89.7949 -35.2539 C 89.7949 -23.1934 93.4082 -16.4062 99.0234 -16.4062 Z M 59.1309 -27.2949 L 59.1309 -53.6621 L 58.8379 -53.6621 C 54.541 -46.0938 47.7539 -34.0332 44.4824 -27.5391 L 44.4824 -27.2949 Z"/>
  </g>
  <g id="Medium-L" transform="matrix(1 0 0 1 1670.87 1556)">
   <path d="M 75.6836 29.1992 C 110.938 29.1992 140.088 0.0488281 140.088 -35.2051 C 140.088 -70.459 110.889 -99.6094 75.6348 -99.6094 C 40.3809 -99.6094 11.2793 -70.459 11.2793 -35.2051 C 11.2793 0.0488281 40.3809 29.1992 75.6836 29.1992 Z M 62.4512 -7.56836 C 59.9609 -7.56836 58.5938 -9.32617 58.5938 -11.7676 L 58.5938 -19.5801 L 39.8438 -19.5801 C 36.4258 -19.5801 34.2773 -21.582 34.2773 -25.0488 C 34.2773 -26.8066 34.668 -28.3203 35.5957 -30.2246 C 39.7461 -37.5977 46.875 -49.707 52.002 -58.1543 C 54.0039 -61.6699 56.2988 -63.0859 59.9609 -63.0859 C 63.8672 -63.0859 66.3574 -60.6934 66.3574 -56.8848 L 66.3574 -26.8555 L 70.166 -26.8555 C 72.3633 -26.8555 73.7305 -25.4395 73.7305 -23.1934 C 73.7305 -20.9473 72.4121 -19.6289 70.166 -19.6289 L 66.3574 -19.6289 L 66.3574 -11.7676 C 66.3574 -9.27734 64.9414 -7.56836 62.4512 -7.56836 Z M 98.6816 -7.4707 C 87.5 -7.4707 80.127 -17.8223 80.127 -35.2539 C 80.127 -52.6855 87.5 -63.0859 98.6816 -63.0859 C 109.766 -63.0859 117.236 -52.6855 117.236 -35.2539 C 117.236 -17.8223 109.766 -7.4707 98.6816 -7.4707 Z M 98.6816 -15.332 C 104.883 -15.332 108.789 -22.8027 108.789 -35.2539 C 108.789 -47.7539 104.834 -55.1758 98.6816 -55.1758 C 92.5781 -55.1758 88.5742 -47.7539 88.5742 -35.2539 C 88.5742 -22.8027 92.5781 -15.332 98.6816 -15.332 Z M 58.5938 -26.8066 L 58.5938 -54.541 L 58.3008 -54.541 C 53.7109 -46.6309 46.1914 -33.8379 42.627 -27.0996 L 42.627 -26.8066 Z"/>
  </g>
  <g id="Regular-L" transform="matrix(1 0 0 1 1374.97 1556)">
   <path d="M 74.8535 28.3691 C 109.668 28.3691 138.477 -0.390625 138.477 -35.2051 C 138.477 -70.0195 109.619 -98.7793 74.8047 -98.7793 C 40.0391 -98.7793 11.2793 -70.0195 11.2793 -35.2051 C 11.2793 -0.390625 40.0879 28.3691 74.8535 28.3691 Z M 61.377 -7.17773 C 59.1309 -7.17773 57.9102 -8.78906 57.9102 -11.0352 L 57.9102 -19.6777 L 37.7441 -19.6777 C 34.668 -19.6777 32.6172 -21.4844 32.6172 -24.6582 C 32.6172 -26.2207 32.959 -27.4902 33.8867 -29.248 C 38.4766 -37.1094 46.3867 -50.1465 51.9043 -59.1309 C 53.8086 -62.3047 55.8594 -63.5254 59.1797 -63.5254 C 62.5977 -63.5254 64.9414 -61.377 64.9414 -58.1055 L 64.9414 -26.1719 L 69.3359 -26.1719 C 71.3379 -26.1719 72.6074 -24.9512 72.6074 -22.9004 C 72.6074 -20.8496 71.3379 -19.6777 69.3359 -19.6777 L 64.9414 -19.6777 L 64.9414 -11.0352 C 64.9414 -8.74023 63.7207 -7.17773 61.377 -7.17773 Z M 98.291 -6.98242 C 86.9629 -6.98242 79.4434 -17.9199 79.4434 -35.2539 C 79.4434 -52.6367 86.9629 -63.5254 98.291 -63.5254 C 109.619 -63.5254 117.139 -52.6367 117.139 -35.2539 C 117.139 -17.9199 109.619 -6.98242 98.291 -6.98242 Z M 98.291 -14.0137 C 105.176 -14.0137 109.57 -22.2656 109.57 -35.2539 C 109.57 -48.291 105.127 -56.543 98.291 -56.543 C 91.4551 -56.543 87.0117 -48.291 87.0117 -35.2539 C 87.0117 -22.2656 91.4551 -14.0137 98.291 -14.0137 Z M 57.9102 -26.1719 L 57.9102 -55.7129 L 57.6172 -55.7129 C 52.5879 -47.3633 44.0918 -33.6426 40.2344 -26.4648 L 40.2344 -26.1719 Z"/>
  </g>
  <g id="Light-L" transform="matrix(1 0 0 1 1079.18 1556)">
   <path d="M 73.9258 27.4902 C 108.301 27.4902 136.621 -0.830078 136.621 -35.1562 C 136.621 -69.5312 108.252 -97.8516 73.9258 -97.8516 C 39.5508 -97.8516 11.2793 -69.5312 11.2793 -35.1562 C 11.2793 -0.830078 39.5996 27.4902 73.9258 27.4902 Z M 60.2539 -7.56836 C 58.4961 -7.56836 57.4707 -8.83789 57.4707 -10.5957 L 57.4707 -20.459 L 36.0352 -20.459 C 33.4961 -20.459 31.7383 -21.9238 31.7383 -24.5605 C 31.7383 -25.7324 32.0312 -26.8555 32.7148 -28.1738 C 37.5 -35.8887 47.168 -51.123 52.5879 -59.668 C 54.1992 -62.2559 55.8594 -63.2324 58.4961 -63.2324 C 61.2305 -63.2324 63.1348 -61.5234 63.1348 -58.8379 L 63.1348 -25.7812 L 68.6523 -25.7812 C 70.2637 -25.7812 71.2891 -24.7559 71.2891 -23.0957 C 71.2891 -21.4355 70.3125 -20.459 68.6523 -20.459 L 63.1348 -20.459 L 63.1348 -10.5957 C 63.1348 -8.78906 62.1094 -7.56836 60.2539 -7.56836 Z M 97.3145 -7.32422 C 86.084 -7.32422 78.5645 -18.3105 78.5645 -35.2539 C 78.5645 -52.2461 86.084 -63.2324 97.3145 -63.2324 C 108.545 -63.2324 116.113 -52.2461 116.113 -35.2539 C 116.113 -18.3105 108.545 -7.32422 97.3145 -7.32422 Z M 97.3145 -12.9395 C 104.98 -12.9395 110.107 -21.8262 110.107 -35.2539 C 110.107 -48.7305 104.932 -57.5684 97.3145 -57.5684 C 89.6973 -57.5684 84.5703 -48.7305 84.5703 -35.2539 C 84.5703 -21.8262 89.6973 -12.9395 97.3145 -12.9395 Z M 57.4707 -25.7812 L 57.4707 -56.8359 L 57.2266 -56.8359 C 52.4902 -49.4141 41.748 -32.7148 37.9395 -25.9766 L 37.9395 -25.7812 Z"/>
  </g>
  <g id="Thin-L" transform="matrix(1 0 0 1 783.693 1556)">
   <path d="M 72.7051 26.3184 C 106.494 26.3184 134.18 -1.36719 134.18 -35.1074 C 134.18 -68.8965 106.494 -96.582 72.7051 -96.582 C 38.9648 -96.582 11.2793 -68.8965 11.2793 -35.1074 C 11.2793 -1.36719 38.9648 26.3184 72.7051 26.3184 Z M 58.7891 -8.10547 C 57.666 -8.10547 56.8848 -8.88672 56.8848 -10.0586 L 56.8848 -21.4844 L 33.8379 -21.4844 C 31.8848 -21.4844 30.5664 -22.5098 30.5664 -24.3652 C 30.5664 -25.1465 30.8105 -26.0254 31.2012 -26.709 C 36.2305 -34.3262 48.1445 -52.4414 53.5156 -60.4004 C 54.7363 -62.207 55.8594 -62.793 57.6172 -62.793 C 59.4238 -62.793 60.7422 -61.6699 60.7422 -59.8633 L 60.7422 -25.1953 L 67.7246 -25.1953 C 68.8477 -25.1953 69.5801 -24.4141 69.5801 -23.291 C 69.5801 -22.2168 68.8965 -21.4844 67.7246 -21.4844 L 60.7422 -21.4844 L 60.7422 -10.0586 C 60.7422 -8.88672 60.0098 -8.10547 58.7891 -8.10547 Z M 96.0449 -7.71484 C 84.9121 -7.71484 77.3926 -18.7988 77.3926 -35.2539 C 77.3926 -51.709 84.9121 -62.793 96.0449 -62.793 C 107.129 -62.793 114.746 -51.709 114.746 -35.2539 C 114.746 -18.7988 107.129 -7.71484 96.0449 -7.71484 Z M 96.0449 -11.5723 C 104.736 -11.5723 110.742 -21.1914 110.742 -35.2539 C 110.742 -49.3652 104.688 -58.9355 96.0449 -58.9355 C 87.4023 -58.9355 81.3477 -49.3652 81.3477 -35.2539 C 81.3477 -21.1914 87.4023 -11.5723 96.0449 -11.5723 Z M 56.8848 -25.1953 L 56.8848 -58.3496 L 56.6895 -58.3496 C 52.3926 -52.0996 38.623 -31.543 34.9121 -25.3906 L 34.9121 -25.1953 Z"/>
  </g>
  <g id="Ultralight-L" transform="matrix(1 0 0 1 487.616 1556)">
   <path d="M 72.1191 25.7324 C 105.566 25.7324 132.91 -1.61133 132.91 -35.1074 C 132.91 -68.5547 105.566 -95.8984 72.1191 -95.8984 C 38.623 -95.8984 11.2793 -68.5547 11.2793 -35.1074 C 11.2793 -1.61133 38.623 25.7324 72.1191 25.7324 Z M 58.0566 -8.39844 C 57.2266 -8.39844 56.5918 -8.88672 56.5918 -9.81445 L 56.5918 -22.0215 L 32.666 -22.0215 C 31.0547 -22.0215 29.9805 -22.8027 29.9805 -24.2676 C 29.9805 -24.8047 30.1758 -25.5859 30.4688 -25.9766 C 35.5957 -33.4961 48.6816 -53.125 53.9551 -60.791 C 54.9805 -62.207 55.8105 -62.5977 57.1289 -62.5977 C 58.5449 -62.5977 59.5215 -61.7676 59.5215 -60.3516 L 59.5215 -24.9023 L 67.2852 -24.9023 C 68.1152 -24.9023 68.6523 -24.2676 68.6523 -23.4375 C 68.6523 -22.6074 68.2129 -22.0215 67.2852 -22.0215 L 59.5215 -22.0215 L 59.5215 -9.81445 C 59.5215 -8.88672 58.9355 -8.39844 58.0566 -8.39844 Z M 95.4102 -7.95898 C 84.3262 -7.95898 76.7578 -19.0918 76.7578 -35.2539 C 76.7578 -51.4648 84.3262 -62.5977 95.4102 -62.5977 C 106.396 -62.5977 114.062 -51.4648 114.062 -35.2539 C 114.062 -19.0918 106.396 -7.95898 95.4102 -7.95898 Z M 95.4102 -10.8887 C 104.59 -10.8887 111.084 -20.8984 111.084 -35.2539 C 111.084 -49.6582 104.59 -59.668 95.4102 -59.668 C 86.2305 -59.668 79.7363 -49.6582 79.7363 -35.2539 C 79.7363 -20.8984 86.2305 -10.8887 95.4102 -10.8887 Z M 56.5918 -24.9023 L 56.5918 -59.1309 L 56.4453 -59.1309 C 52.3438 -53.4668 37.0605 -30.957 33.3496 -25.0488 L 33.3496 -24.9023 Z"/>
  </g>
  <g id="Black-M" transform="matrix(1 0 0 1 2870.97 1126)">
   <path d="M 62.4023 18.457 C 91.9922 18.457 116.113 -5.61523 116.113 -35.2051 C 116.113 -64.7949 91.9922 -88.8672 62.4023 -88.8672 C 32.8125 -88.8672 8.74023 -64.7949 8.74023 -35.2051 C 8.74023 -5.61523 32.8125 18.457 62.4023 18.457 Z M 53.418 -16.2109 C 50.7324 -16.2109 48.8281 -18.0176 48.8281 -20.6543 L 48.8281 -22.998 L 41.0645 -22.998 C 36.9141 -22.998 34.8633 -25.2441 34.8633 -29.1504 C 34.8633 -31.5918 35.498 -33.8379 36.1816 -35.8398 C 37.0605 -38.9648 39.2578 -44.5801 41.0156 -48.291 C 43.0176 -52.3926 45.7031 -54.2969 50.293 -54.2969 C 55.5664 -54.2969 57.959 -51.2207 57.959 -46.1426 L 57.959 -31.8848 L 58.4473 -31.8848 C 61.084 -31.8848 62.5 -30.0781 62.5 -27.3926 C 62.5 -24.7559 61.084 -23.1445 58.4473 -23.1445 L 57.959 -23.1445 L 57.959 -20.6543 C 57.959 -18.0176 56.1523 -16.2109 53.418 -16.2109 Z M 77.9297 -16.2109 C 70.4102 -16.2109 65.3809 -21.5332 65.3809 -35.2539 C 65.3809 -48.9746 70.4102 -54.2969 77.9297 -54.2969 C 85.3027 -54.2969 90.7715 -48.9746 90.7715 -35.2539 C 90.7715 -21.5332 85.3027 -16.2109 77.9297 -16.2109 Z M 48.8281 -31.7871 L 48.8281 -44.7266 L 48.7305 -44.7266 C 47.4609 -41.3086 45.5078 -34.8633 44.5801 -31.9824 L 44.5801 -31.7871 Z M 78.125 -26.416 C 79.4922 -26.416 80.4688 -28.1738 80.4688 -35.2539 C 80.4688 -42.3828 79.4922 -44.0918 78.125 -44.0918 C 76.7578 -44.0918 75.7812 -42.3828 75.7812 -35.2539 C 75.7812 -28.1738 76.7578 -26.416 78.125 -26.416 Z"/>
  </g>
  <g id="Heavy-M" transform="matrix(1 0 0 1 2575.19 1126)">
   <path d="M 61.5234 17.5781 C 90.5273 17.5781 114.258 -6.15234 114.258 -35.2051 C 114.258 -64.2578 90.5273 -87.9883 61.4746 -87.9883 C 32.4707 -87.9883 8.74023 -64.2578 8.74023 -35.2051 C 8.74023 -6.15234 32.4707 17.5781 61.5234 17.5781 Z M 52.1973 -15.5273 C 49.6582 -15.5273 47.9492 -17.2363 47.9492 -19.7266 L 47.9492 -22.9492 L 38.5254 -22.9492 C 34.7168 -22.9492 32.7148 -25.0488 32.7148 -28.6621 C 32.7148 -30.8594 33.252 -32.8613 33.9844 -34.7656 C 35.4492 -38.5742 38.3789 -44.9707 40.7227 -49.5117 C 42.627 -53.2715 45.1172 -55.0293 49.3164 -55.0293 C 54.0527 -55.0293 56.3965 -52.2461 56.3965 -47.6562 L 56.3965 -31.1035 L 57.4219 -31.1035 C 59.8633 -31.1035 61.2305 -29.4434 61.2305 -26.9531 C 61.2305 -24.5117 59.8633 -23.0469 57.4219 -23.0469 L 56.3965 -23.0469 L 56.3965 -19.7266 C 56.3965 -17.2363 54.7852 -15.5273 52.1973 -15.5273 Z M 77.6367 -15.4785 C 69.8242 -15.4785 64.5996 -21.582 64.5996 -35.2539 C 64.5996 -48.9746 69.8242 -55.0293 77.6367 -55.0293 C 85.3516 -55.0293 90.918 -48.9746 90.918 -35.2539 C 90.918 -21.582 85.3516 -15.4785 77.6367 -15.4785 Z M 47.9492 -31.0059 L 47.9492 -46.0938 L 47.8027 -46.0938 C 45.8984 -41.7969 43.1641 -34.7656 41.748 -31.2012 L 41.748 -31.0059 Z M 77.7832 -24.7559 C 79.9805 -24.7559 81.4453 -27.4902 81.4453 -35.2539 C 81.4453 -43.0176 79.9805 -45.752 77.7832 -45.752 C 75.5859 -45.752 74.1699 -43.0176 74.1699 -35.2539 C 74.1699 -27.4902 75.5859 -24.7559 77.7832 -24.7559 Z"/>
  </g>
  <g id="Bold-M" transform="matrix(1 0 0 1 2279.5 1126)">
   <path d="M 60.498 16.5039 C 88.8672 16.5039 112.207 -6.78711 112.207 -35.2051 C 112.207 -63.623 88.8672 -86.9629 60.4492 -86.9629 C 32.0312 -86.9629 8.74023 -63.623 8.74023 -35.2051 C 8.74023 -6.78711 32.0801 16.5039 60.498 16.5039 Z M 50.7812 -14.7461 C 48.4375 -14.7461 46.9727 -16.3574 46.9727 -18.6523 L 46.9727 -22.8516 L 35.6445 -22.8516 C 32.2266 -22.8516 30.3223 -24.8047 30.3223 -28.125 C 30.3223 -30.0293 30.8105 -31.7383 31.543 -33.5449 C 33.6914 -38.1836 37.4023 -45.4102 40.4297 -50.8789 C 42.2363 -54.2969 44.4824 -55.8105 48.2422 -55.8105 C 52.3926 -55.8105 54.6875 -53.3203 54.6875 -49.3164 L 54.6875 -30.1758 L 56.2988 -30.1758 C 58.4961 -30.1758 59.7656 -28.7598 59.7656 -26.5137 C 59.7656 -24.2676 58.4961 -22.9492 56.2988 -22.9492 L 54.6875 -22.9492 L 54.6875 -18.6523 C 54.6875 -16.3574 53.2227 -14.7461 50.7812 -14.7461 Z M 77.3438 -14.6973 C 69.1406 -14.6973 63.7207 -21.582 63.7207 -35.2539 C 63.7207 -48.9746 69.1406 -55.8105 77.3438 -55.8105 C 85.4492 -55.8105 91.0645 -48.9746 91.0645 -35.2539 C 91.0645 -21.582 85.4492 -14.6973 77.3438 -14.6973 Z M 77.4414 -22.9004 C 80.5664 -22.9004 82.5684 -26.8066 82.5684 -35.2539 C 82.5684 -43.7012 80.5176 -47.6074 77.4414 -47.6074 C 74.3164 -47.6074 72.3145 -43.7012 72.3145 -35.2539 C 72.3145 -26.8066 74.3164 -22.9004 77.4414 -22.9004 Z M 46.9727 -30.127 L 46.9727 -47.6074 L 46.7773 -47.6074 C 44.1406 -42.3828 40.5273 -34.668 38.5254 -30.3223 L 38.5254 -30.127 Z"/>
  </g>
  <g id="Semibold-M" transform="matrix(1 0 0 1 1983.5 1126)">
   <path d="M 59.7656 15.8203 C 87.7441 15.8203 110.791 -7.22656 110.791 -35.2051 C 110.791 -63.1836 87.6953 -86.2793 59.7656 -86.2793 C 31.7871 -86.2793 8.74023 -63.1836 8.74023 -35.2051 C 8.74023 -7.22656 31.7871 15.8203 59.7656 15.8203 Z M 49.8535 -14.209 C 47.6074 -14.209 46.2891 -15.7715 46.2891 -17.9688 L 46.2891 -22.8027 L 33.6426 -22.8027 C 30.5176 -22.8027 28.6621 -24.6582 28.6621 -27.7832 C 28.6621 -29.4922 29.0527 -30.957 29.834 -32.7148 C 32.4707 -37.8906 36.7188 -45.7031 40.2344 -51.8066 C 41.9922 -55.0293 44.0918 -56.3965 47.5098 -56.3965 C 51.2695 -56.3965 53.4668 -54.1016 53.4668 -50.4883 L 53.4668 -29.541 L 55.4688 -29.541 C 57.5195 -29.541 58.7402 -28.2715 58.7402 -26.1719 C 58.7402 -24.0723 57.5195 -22.8516 55.4688 -22.8516 L 53.4668 -22.8516 L 53.4668 -17.9688 C 53.4668 -15.7227 52.1484 -14.209 49.8535 -14.209 Z M 77.0996 -14.1602 C 68.7012 -14.1602 63.1348 -21.582 63.1348 -35.2539 C 63.1348 -48.9258 68.7012 -56.3965 77.0996 -56.3965 C 85.498 -56.3965 91.2109 -48.9258 91.2109 -35.2539 C 91.2109 -21.582 85.498 -14.1602 77.0996 -14.1602 Z M 77.1484 -21.6309 C 80.957 -21.6309 83.3008 -26.3184 83.3008 -35.2539 C 83.3008 -44.1895 80.9082 -48.9258 77.1484 -48.9258 C 73.3887 -48.9258 71.0449 -44.1895 71.0449 -35.2539 C 71.0449 -26.3184 73.3887 -21.6309 77.1484 -21.6309 Z M 46.2891 -29.541 L 46.2891 -48.6328 L 46.0938 -48.6328 C 42.9199 -42.7734 38.6719 -34.6191 36.3281 -29.7363 L 36.3281 -29.541 Z"/>
  </g>
  <g id="Medium-M" transform="matrix(1 0 0 1 1687.3 1126)">
   <path d="M 59.2285 15.2832 C 86.9141 15.2832 109.766 -7.56836 109.766 -35.2051 C 109.766 -62.8906 86.8652 -85.7422 59.1797 -85.7422 C 31.543 -85.7422 8.74023 -62.8906 8.74023 -35.2051 C 8.74023 -7.56836 31.5918 15.2832 59.2285 15.2832 Z M 49.1211 -13.7695 C 46.9727 -13.7695 45.8008 -15.332 45.8008 -17.4316 L 45.8008 -22.8027 L 32.1289 -22.8027 C 29.248 -22.8027 27.4414 -24.5117 27.4414 -27.4902 C 27.4414 -29.0527 27.7832 -30.3711 28.5645 -32.0312 C 31.543 -37.6465 36.1816 -45.8984 40.0391 -52.4902 C 41.748 -55.5176 43.75 -56.7871 46.9727 -56.7871 C 50.3906 -56.7871 52.5391 -54.6875 52.5391 -51.3672 L 52.5391 -29.1016 L 54.8828 -29.1016 C 56.8359 -29.1016 58.0078 -27.8809 58.0078 -25.9277 C 58.0078 -23.9746 56.8359 -22.8027 54.8828 -22.8027 L 52.5391 -22.8027 L 52.5391 -17.4316 C 52.5391 -15.2832 51.3184 -13.7695 49.1211 -13.7695 Z M 76.9531 -13.7207 C 68.3105 -13.7207 62.6465 -21.582 62.6465 -35.2539 C 62.6465 -48.9258 68.3105 -56.7871 76.9531 -56.7871 C 85.498 -56.7871 91.2598 -48.9258 91.2598 -35.2539 C 91.2598 -21.582 85.498 -13.7207 76.9531 -13.7207 Z M 76.9531 -20.6543 C 81.25 -20.6543 83.8867 -25.9277 83.8867 -35.2539 C 83.8867 -44.5801 81.2012 -49.9023 76.9531 -49.9023 C 72.7539 -49.9023 70.0684 -44.5801 70.0684 -35.2539 C 70.0684 -25.9277 72.7539 -20.6543 76.9531 -20.6543 Z M 45.8008 -29.0527 L 45.8008 -49.4141 L 45.5566 -49.4141 C 41.9922 -43.0664 37.3047 -34.5703 34.668 -29.2969 L 34.668 -29.0527 Z"/>
  </g>
  <g id="Regular-M" transform="matrix(1 0 0 1 1391.3 1126)">
   <path d="M 58.5449 14.5508 C 85.791 14.5508 108.35 -8.00781 108.35 -35.2539 C 108.35 -62.4512 85.7422 -85.0586 58.4961 -85.0586 C 31.2988 -85.0586 8.74023 -62.4512 8.74023 -35.2539 C 8.74023 -8.00781 31.3477 14.5508 58.5449 14.5508 Z M 48.1934 -13.2324 C 46.1914 -13.2324 45.1172 -14.6973 45.1172 -16.6992 L 45.1172 -22.7539 L 30.1758 -22.7539 C 27.5391 -22.7539 25.7812 -24.3652 25.7812 -27.1484 C 25.7812 -28.5156 26.0742 -29.6387 26.9043 -31.2012 C 30.3711 -37.3535 35.5469 -46.1914 39.8438 -53.418 C 41.5039 -56.25 43.3105 -57.3242 46.2402 -57.3242 C 49.2676 -57.3242 51.3672 -55.4199 51.3672 -52.5391 L 51.3672 -28.4668 L 54.1016 -28.4668 C 55.8594 -28.4668 57.0312 -27.4414 57.0312 -25.5859 C 57.0312 -23.7793 55.9082 -22.7539 54.1016 -22.7539 L 51.3672 -22.7539 L 51.3672 -16.6992 C 51.3672 -14.6484 50.293 -13.2324 48.1934 -13.2324 Z M 76.709 -13.1836 C 67.8711 -13.1836 62.0605 -21.582 62.0605 -35.2539 C 62.0605 -48.9258 67.8711 -57.3242 76.709 -57.3242 C 85.5469 -57.3242 91.3574 -48.9258 91.3574 -35.2539 C 91.3574 -21.582 85.5469 -13.1836 76.709 -13.1836 Z M 76.709 -19.3359 C 81.6406 -19.3359 84.6191 -25.4395 84.6191 -35.2539 C 84.6191 -45.0684 81.5918 -51.1719 76.709 -51.1719 C 71.8262 -51.1719 68.7988 -45.0684 68.7988 -35.2539 C 68.7988 -25.4395 71.8262 -19.3359 76.709 -19.3359 Z M 45.1172 -28.4668 L 45.1172 -50.4395 L 44.873 -50.4395 C 40.7715 -43.457 35.498 -34.4727 32.4707 -28.7109 L 32.4707 -28.4668 Z"/>
  </g>
  <g id="Light-M" transform="matrix(1 0 0 1 1095.42 1126)">
   <path d="M 57.7148 13.7695 C 84.5215 13.7695 106.689 -8.39844 106.689 -35.2051 C 106.689 -62.0117 84.5215 -84.1797 57.666 -84.1797 C 30.8594 -84.1797 8.74023 -62.0117 8.74023 -35.2051 C 8.74023 -8.39844 30.9082 13.7695 57.7148 13.7695 Z M 47.2168 -13.623 C 45.6055 -13.623 44.7266 -14.7461 44.7266 -16.3574 L 44.7266 -23.4375 L 28.7109 -23.4375 C 26.4648 -23.4375 25 -24.7559 25 -27.002 C 25 -28.0762 25.2441 -29.0527 25.8789 -30.2246 C 29.4922 -36.2793 36.2305 -47.1191 40.4785 -53.9062 C 41.8457 -56.2012 43.3105 -57.0801 45.6543 -57.0801 C 48.0469 -57.0801 49.707 -55.5176 49.707 -53.1738 L 49.707 -28.0762 L 53.5156 -28.0762 C 54.9316 -28.0762 55.8594 -27.1973 55.8594 -25.7324 C 55.8594 -24.2676 54.9316 -23.4375 53.5156 -23.4375 L 49.707 -23.4375 L 49.707 -16.3574 C 49.707 -14.6973 48.8281 -13.623 47.2168 -13.623 Z M 75.8789 -13.4766 C 67.0898 -13.4766 61.2793 -21.9238 61.2793 -35.2539 C 61.2793 -48.584 67.0898 -57.0801 75.8789 -57.0801 C 84.5703 -57.0801 90.4297 -48.584 90.4297 -35.2539 C 90.4297 -21.9238 84.5703 -13.4766 75.8789 -13.4766 Z M 75.8789 -18.4082 C 81.4453 -18.4082 85.1074 -25.0488 85.1074 -35.2539 C 85.1074 -45.5078 81.4453 -52.0996 75.8789 -52.0996 C 70.3125 -52.0996 66.6016 -45.5078 66.6016 -35.2539 C 66.6016 -25.0488 70.3125 -18.4082 75.8789 -18.4082 Z M 44.7266 -28.0762 L 44.7266 -51.4648 L 44.4824 -51.4648 C 40.7227 -45.3125 33.3984 -33.6914 30.4199 -28.2715 L 30.4199 -28.0762 Z"/>
  </g>
  <g id="Thin-M" transform="matrix(1 0 0 1 799.806 1126)">
   <path d="M 56.6406 12.7441 C 82.9102 12.7441 104.492 -8.83789 104.492 -35.1562 C 104.492 -61.4746 82.9102 -83.0566 56.5918 -83.0566 C 30.3223 -83.0566 8.74023 -61.4746 8.74023 -35.1562 C 8.74023 -8.83789 30.3223 12.7441 56.6406 12.7441 Z M 45.8984 -14.1113 C 44.873 -14.1113 44.1895 -14.7949 44.1895 -15.8691 L 44.1895 -24.3652 L 26.709 -24.3652 C 25.0488 -24.3652 23.9258 -25.2441 23.9258 -26.8555 C 23.9258 -27.5391 24.1699 -28.2715 24.5117 -28.9551 C 28.3691 -34.8633 37.1094 -48.291 41.2598 -54.5898 C 42.2852 -56.1523 43.2617 -56.6895 44.8242 -56.6895 C 46.4355 -56.6895 47.5586 -55.7129 47.5586 -54.1016 L 47.5586 -27.5879 L 52.6855 -27.5879 C 53.6621 -27.5879 54.2969 -26.9043 54.2969 -25.9277 C 54.2969 -24.9512 53.7109 -24.3652 52.6855 -24.3652 L 47.5586 -24.3652 L 47.5586 -15.8691 C 47.5586 -14.7949 46.9727 -14.1113 45.8984 -14.1113 Z M 74.707 -13.8184 C 66.0645 -13.8184 60.2051 -22.4121 60.2051 -35.2539 C 60.2051 -48.1445 66.0645 -56.6895 74.707 -56.6895 C 83.3008 -56.6895 89.209 -48.1445 89.209 -35.2539 C 89.209 -22.4121 83.3008 -13.8184 74.707 -13.8184 Z M 74.707 -17.1875 C 81.2012 -17.1875 85.6934 -24.4629 85.6934 -35.2539 C 85.6934 -46.0449 81.2012 -53.3203 74.707 -53.3203 C 68.2129 -53.3203 63.7695 -46.0449 63.7695 -35.2539 C 63.7695 -24.4629 68.2129 -17.1875 74.707 -17.1875 Z M 44.1895 -27.5879 L 44.1895 -52.832 L 44.043 -52.832 C 40.625 -47.7051 30.6152 -32.6172 27.7344 -27.7344 L 27.7344 -27.5879 Z"/>
  </g>
  <g id="Ultralight-M" transform="matrix(1 0 0 1 503.656 1126)">
   <path d="M 56.0547 12.207 C 82.0801 12.207 103.369 -9.08203 103.369 -35.1562 C 103.369 -61.1816 82.0801 -82.4707 56.0547 -82.4707 C 30.0293 -82.4707 8.74023 -61.1816 8.74023 -35.1562 C 8.74023 -9.08203 30.0293 12.207 56.0547 12.207 Z M 45.2148 -14.3555 C 44.4824 -14.3555 43.9453 -14.8438 43.9453 -15.625 L 43.9453 -24.8047 L 25.6836 -24.8047 C 24.3164 -24.8047 23.3887 -25.4883 23.3887 -26.7578 C 23.3887 -27.2461 23.584 -27.8809 23.8281 -28.2715 C 27.7832 -34.1309 37.5488 -48.877 41.6992 -54.9316 C 42.5293 -56.1523 43.2617 -56.4941 44.4336 -56.4941 C 45.6543 -56.4941 46.4844 -55.7617 46.4844 -54.541 L 46.4844 -27.3438 L 52.2949 -27.3438 C 52.9785 -27.3438 53.4668 -26.7578 53.4668 -26.0254 C 53.4668 -25.293 53.0762 -24.8047 52.2949 -24.8047 L 46.4844 -24.8047 L 46.4844 -15.625 C 46.4844 -14.8438 45.9961 -14.3555 45.2148 -14.3555 Z M 74.1211 -14.0137 C 65.5273 -14.0137 59.668 -22.6074 59.668 -35.2539 C 59.668 -47.9004 65.5273 -56.4941 74.1211 -56.4941 C 82.666 -56.4941 88.5742 -47.9004 88.5742 -35.2539 C 88.5742 -22.6074 82.666 -14.0137 74.1211 -14.0137 Z M 74.1211 -16.5527 C 81.1035 -16.5527 85.9863 -24.2188 85.9863 -35.2539 C 85.9863 -46.3379 81.1035 -53.9551 74.1211 -53.9551 C 67.1875 -53.9551 62.3047 -46.3379 62.3047 -35.2539 C 62.3047 -24.2188 67.1875 -16.5527 74.1211 -16.5527 Z M 43.9453 -27.3438 L 43.9453 -53.5156 L 43.7988 -53.5156 C 40.5762 -48.9258 29.1992 -32.0801 26.3184 -27.4414 L 26.3184 -27.3438 Z"/>
  </g>
  <g id="Black-S" transform="matrix(1 0 0 1 2884.57 696)">
   <path d="M 48.8281 6.78711 C 71.9727 6.78711 90.8203 -12.0605 90.8203 -35.2051 C 90.8203 -58.3496 71.9727 -77.1973 48.8281 -77.1973 C 25.6836 -77.1973 6.83594 -58.3496 6.83594 -35.2051 C 6.83594 -12.0605 25.6836 6.78711 48.8281 6.78711 Z M 41.748 -20.2637 C 39.6484 -20.2637 38.1836 -21.6797 38.1836 -23.7305 L 38.1836 -25.6348 L 31.9824 -25.6348 C 28.7598 -25.6348 27.1484 -27.3926 27.1484 -30.4199 C 27.1484 -32.3242 27.6367 -34.082 28.1738 -35.6445 C 28.9062 -38.1348 30.6641 -42.5781 32.0801 -45.5566 C 33.6426 -48.7305 35.7422 -50.2441 39.3066 -50.2441 C 43.4082 -50.2441 45.3125 -47.8516 45.3125 -43.8965 L 45.3125 -32.5684 L 45.7031 -32.5684 C 47.7539 -32.5684 48.877 -31.1523 48.877 -29.0527 C 48.877 -27.002 47.7539 -25.7324 45.7031 -25.7324 L 45.3125 -25.7324 L 45.3125 -23.7305 C 45.3125 -21.6797 43.8965 -20.2637 41.748 -20.2637 Z M 61.0352 -20.2637 C 55.127 -20.2637 51.1719 -24.5117 51.1719 -35.2539 C 51.1719 -45.9961 55.127 -50.2441 61.0352 -50.2441 C 66.8457 -50.2441 71.1426 -45.9961 71.1426 -35.2539 C 71.1426 -24.5117 66.8457 -20.2637 61.0352 -20.2637 Z M 38.1836 -32.4707 L 38.1836 -42.7734 L 38.0859 -42.7734 C 37.0605 -39.9902 35.498 -34.9609 34.7168 -32.6172 L 34.7168 -32.4707 Z M 61.1816 -28.2227 C 62.3047 -28.2227 63.0859 -29.6387 63.0859 -35.2539 C 63.0859 -40.8691 62.3047 -42.2852 61.1816 -42.2852 C 60.0586 -42.2852 59.2773 -40.8691 59.2773 -35.2539 C 59.2773 -29.6387 60.0586 -28.2227 61.1816 -28.2227 Z"/>
  </g>
  <g id="Heavy-S" transform="matrix(1 0 0 1 2588.47 696)">
   <path d="M 48.2422 6.15234 C 70.9961 6.15234 89.5996 -12.4512 89.5996 -35.2051 C 89.5996 -57.959 70.9961 -76.6113 48.1934 -76.6113 C 25.4395 -76.6113 6.83594 -57.959 6.83594 -35.2051 C 6.83594 -12.4512 25.4395 6.15234 48.2422 6.15234 Z M 40.918 -19.6777 C 38.8672 -19.6777 37.5488 -21.0938 37.5488 -23.0469 L 37.5488 -25.4883 L 30.1758 -25.4883 C 27.1973 -25.4883 25.5859 -27.1973 25.5859 -30.0781 C 25.5859 -31.8359 26.0254 -33.3984 26.6113 -34.9121 C 27.7832 -37.9883 29.9316 -42.7734 31.7871 -46.4355 C 33.3496 -49.4141 35.3027 -50.8301 38.6719 -50.8301 C 42.4316 -50.8301 44.2871 -48.584 44.2871 -44.9707 L 44.2871 -31.9824 L 44.9707 -31.9824 C 46.9238 -31.9824 47.998 -30.7129 47.998 -28.7109 C 47.998 -26.7578 46.9238 -25.5859 44.9707 -25.5859 L 44.2871 -25.5859 L 44.2871 -23.0469 C 44.2871 -21.0938 42.9688 -19.6777 40.918 -19.6777 Z M 60.8887 -19.6777 C 54.7363 -19.6777 50.6348 -24.4629 50.6348 -35.2539 C 50.6348 -46.0449 54.7363 -50.8301 60.8887 -50.8301 C 66.9922 -50.8301 71.3379 -46.0449 71.3379 -35.2539 C 71.3379 -24.4629 66.9922 -19.6777 60.8887 -19.6777 Z M 37.5488 -31.9336 L 37.5488 -43.7012 L 37.4512 -43.7012 C 35.8398 -40.1855 33.9355 -34.9609 32.7637 -32.0801 L 32.7637 -31.9336 Z M 61.0352 -27.0508 C 62.6953 -27.0508 63.7695 -29.1992 63.7695 -35.2539 C 63.7695 -41.3086 62.6953 -43.457 61.0352 -43.457 C 59.3262 -43.457 58.252 -41.3086 58.252 -35.2539 C 58.252 -29.1992 59.3262 -27.0508 61.0352 -27.0508 Z"/>
  </g>
  <g id="Bold-S" transform="matrix(1 0 0 1 2292.44 696)">
   <path d="M 47.5586 5.46875 C 69.873 5.46875 88.2324 -12.8906 88.2324 -35.2051 C 88.2324 -57.5684 69.873 -75.9277 47.5098 -75.9277 C 25.1953 -75.9277 6.83594 -57.5684 6.83594 -35.2051 C 6.83594 -12.8906 25.1953 5.46875 47.5586 5.46875 Z M 39.9902 -19.043 C 38.0371 -19.043 36.8652 -20.4102 36.8652 -22.3145 L 36.8652 -25.3906 L 28.1738 -25.3906 C 25.4395 -25.3906 23.877 -26.9531 23.877 -29.6875 C 23.877 -31.25 24.2188 -32.6172 24.8535 -34.082 C 26.5625 -37.793 29.1016 -42.9688 31.4941 -47.4121 C 33.0078 -50.1953 34.8145 -51.4648 37.9395 -51.4648 C 41.3086 -51.4648 43.1641 -49.4141 43.1641 -46.1914 L 43.1641 -31.3477 L 44.1895 -31.3477 C 45.9961 -31.3477 47.0703 -30.1758 47.0703 -28.3203 C 47.0703 -26.5137 45.9961 -25.4395 44.1895 -25.4395 L 43.1641 -25.4395 L 43.1641 -22.3145 C 43.1641 -20.4102 41.9922 -19.043 39.9902 -19.043 Z M 60.791 -19.043 C 54.3457 -19.043 50.0977 -24.4629 50.0977 -35.2539 C 50.0977 -46.0449 54.3457 -51.4648 60.791 -51.4648 C 67.1387 -51.4648 71.582 -46.0449 71.582 -35.2539 C 71.582 -24.4629 67.1387 -19.043 60.791 -19.043 Z M 60.8398 -25.7324 C 63.1836 -25.7324 64.5996 -28.7109 64.5996 -35.2539 C 64.5996 -41.7969 63.1348 -44.7754 60.8398 -44.7754 C 58.5449 -44.7754 57.1289 -41.7969 57.1289 -35.2539 C 57.1289 -28.7109 58.5449 -25.7324 60.8398 -25.7324 Z M 36.8652 -31.2988 L 36.8652 -44.7266 L 36.6699 -44.7266 C 34.5215 -40.3809 32.1777 -35.0098 30.5664 -31.4453 L 30.5664 -31.2988 Z"/>
  </g>
  <g id="Semibold-S" transform="matrix(1 0 0 1 1996.2 696)">
   <path d="M 47.0703 4.98047 C 69.0918 4.98047 87.3047 -13.1836 87.3047 -35.2539 C 87.3047 -57.2754 69.0918 -75.4883 47.0215 -75.4883 C 25 -75.4883 6.83594 -57.2754 6.83594 -35.2539 C 6.83594 -13.1836 25.0488 4.98047 47.0703 4.98047 Z M 39.3555 -18.6035 C 37.4512 -18.6035 36.377 -19.9707 36.377 -21.7773 L 36.377 -25.293 L 26.8066 -25.293 C 24.2188 -25.293 22.6562 -26.8066 22.6562 -29.3945 C 22.6562 -30.8594 22.998 -32.0801 23.6816 -33.5449 C 25.6836 -37.6465 28.5156 -43.1152 31.2988 -48.0957 C 32.7637 -50.7812 34.5215 -51.9043 37.4023 -51.9043 C 40.5273 -51.9043 42.3828 -50 42.3828 -47.0215 L 42.3828 -30.9082 L 43.6523 -30.9082 C 45.3613 -30.9082 46.3867 -29.834 46.3867 -28.0762 C 46.3867 -26.3184 45.3613 -25.293 43.6523 -25.293 L 42.3828 -25.293 L 42.3828 -21.7773 C 42.3828 -19.9219 41.2598 -18.6035 39.3555 -18.6035 Z M 60.6934 -18.6035 C 54.0527 -18.6035 49.707 -24.4141 49.707 -35.2539 C 49.707 -46.0938 54.0527 -51.9043 60.6934 -51.9043 C 67.2852 -51.9043 71.7285 -46.0938 71.7285 -35.2539 C 71.7285 -24.4141 67.2852 -18.6035 60.6934 -18.6035 Z M 60.7422 -24.8047 C 63.4766 -24.8047 65.1367 -28.3691 65.1367 -35.2539 C 65.1367 -42.1387 63.4766 -45.7031 60.7422 -45.7031 C 58.0078 -45.7031 56.2988 -42.1387 56.2988 -35.2539 C 56.2988 -28.3691 58.0078 -24.8047 60.7422 -24.8047 Z M 36.377 -30.8594 L 36.377 -45.4102 L 36.1816 -45.4102 C 33.5938 -40.5273 30.957 -35.0098 29.0527 -31.0547 L 29.0527 -30.8594 Z"/>
  </g>
  <g id="Medium-S" transform="matrix(1 0 0 1 1699.83 696)">
   <path d="M 46.7285 4.63867 C 68.5547 4.63867 86.6211 -13.4277 86.6211 -35.2539 C 86.6211 -57.0312 68.5059 -75.1465 46.6797 -75.1465 C 24.8535 -75.1465 6.83594 -57.0312 6.83594 -35.2539 C 6.83594 -13.4277 24.9023 4.63867 46.7285 4.63867 Z M 38.8672 -18.2617 C 37.0117 -18.2617 36.0352 -19.5801 36.0352 -21.3867 L 36.0352 -25.1953 L 25.7324 -25.1953 C 23.291 -25.1953 21.7773 -26.6602 21.7773 -29.1992 C 21.7773 -30.5664 22.0703 -31.6406 22.7539 -33.1055 C 25.0488 -37.5488 28.0762 -43.2617 31.1035 -48.584 C 32.5684 -51.1719 34.2773 -52.2461 37.0117 -52.2461 C 39.9414 -52.2461 41.7969 -50.4395 41.7969 -47.6074 L 41.7969 -30.5664 L 43.2129 -30.5664 C 44.873 -30.5664 45.8984 -29.541 45.8984 -27.8809 C 45.8984 -26.1719 44.873 -25.2441 43.2129 -25.2441 L 41.7969 -25.2441 L 41.7969 -21.3867 C 41.7969 -19.5801 40.7715 -18.2617 38.8672 -18.2617 Z M 60.5957 -18.2617 C 53.8086 -18.2617 49.3652 -24.4141 49.3652 -35.2539 C 49.3652 -46.0938 53.8086 -52.2461 60.5957 -52.2461 C 67.3828 -52.2461 71.875 -46.0938 71.875 -35.2539 C 71.875 -24.4141 67.3828 -18.2617 60.5957 -18.2617 Z M 60.6445 -24.1211 C 63.7207 -24.1211 65.5273 -28.125 65.5273 -35.2539 C 65.5273 -42.3828 63.6719 -46.3867 60.6445 -46.3867 C 57.5684 -46.3867 55.7129 -42.3828 55.7129 -35.2539 C 55.7129 -28.125 57.5684 -24.1211 60.6445 -24.1211 Z M 36.0352 -30.5176 L 36.0352 -45.9473 L 35.791 -45.9473 C 32.9102 -40.6738 30.0293 -35.0098 27.9297 -30.7129 L 27.9297 -30.5176 Z"/>
  </g>
  <g id="Regular-S" transform="matrix(1 0 0 1 1403.58 696)">
   <path d="M 46.2402 4.15039 C 67.7734 4.15039 85.6934 -13.7207 85.6934 -35.2539 C 85.6934 -56.7871 67.7246 -74.6582 46.1914 -74.6582 C 24.707 -74.6582 6.83594 -56.7871 6.83594 -35.2539 C 6.83594 -13.7207 24.7559 4.15039 46.2402 4.15039 Z M 38.2324 -17.8223 C 36.4258 -17.8223 35.5469 -19.1406 35.5469 -20.8984 L 35.5469 -25.0977 L 24.3652 -25.0977 C 22.1191 -25.0977 20.5566 -26.5137 20.5566 -28.9551 C 20.5566 -30.1758 20.8008 -31.1035 21.582 -32.5684 C 24.1699 -37.4512 27.4902 -43.4082 30.9082 -49.2676 C 32.3242 -51.709 33.9355 -52.6855 36.5234 -52.6855 C 39.1602 -52.6855 41.0156 -50.9766 41.0156 -48.4375 L 41.0156 -30.127 L 42.6758 -30.127 C 44.2383 -30.127 45.2148 -29.1992 45.2148 -27.5879 C 45.2148 -26.0254 44.2383 -25.0977 42.6758 -25.0977 L 41.0156 -25.0977 L 41.0156 -20.8984 C 41.0156 -19.0918 40.0391 -17.8223 38.2324 -17.8223 Z M 60.498 -17.8223 C 53.5645 -17.8223 48.9746 -24.3652 48.9746 -35.2539 C 48.9746 -46.1426 53.5645 -52.6855 60.498 -52.6855 C 67.4805 -52.6855 72.0215 -46.1426 72.0215 -35.2539 C 72.0215 -24.3652 67.4805 -17.8223 60.498 -17.8223 Z M 60.498 -23.2422 C 64.0137 -23.2422 66.0645 -27.7832 66.0645 -35.2539 C 66.0645 -42.7246 63.9648 -47.2656 60.498 -47.2656 C 57.0312 -47.2656 54.9316 -42.7246 54.9316 -35.2539 C 54.9316 -27.7832 57.0312 -23.2422 60.498 -23.2422 Z M 35.5469 -30.127 L 35.5469 -46.6309 L 35.3027 -46.6309 C 31.9824 -40.8203 28.8086 -35.0098 26.416 -30.3223 L 26.416 -30.127 Z"/>
  </g>
  <g id="Light-S" transform="matrix(1 0 0 1 1107.6 696)">
   <path d="M 45.5078 3.4668 C 66.6992 3.4668 84.2285 -14.0625 84.2285 -35.2051 C 84.2285 -56.3965 66.6504 -73.9258 45.5078 -73.9258 C 24.3164 -73.9258 6.83594 -56.3965 6.83594 -35.2051 C 6.83594 -14.0625 24.3652 3.4668 45.5078 3.4668 Z M 37.3535 -18.1641 C 35.9375 -18.1641 35.2051 -19.1895 35.2051 -20.5566 L 35.2051 -25.7324 L 23.0469 -25.7324 C 21.1426 -25.7324 19.873 -26.8555 19.873 -28.8574 C 19.873 -29.7852 20.0684 -30.6152 20.6543 -31.6895 C 23.4375 -36.4746 28.0762 -44.1895 31.4453 -49.707 C 32.6172 -51.6602 33.9355 -52.4414 35.9863 -52.4414 C 38.0859 -52.4414 39.5508 -51.0742 39.5508 -49.0234 L 39.5508 -29.7852 L 42.1387 -29.7852 C 43.4082 -29.7852 44.1895 -29.0039 44.1895 -27.7344 C 44.1895 -26.4648 43.4082 -25.7324 42.1387 -25.7324 L 39.5508 -25.7324 L 39.5508 -20.5566 C 39.5508 -19.1406 38.8184 -18.1641 37.3535 -18.1641 Z M 59.7656 -18.0664 C 52.832 -18.0664 48.291 -24.6582 48.291 -35.2539 C 48.291 -45.8496 52.832 -52.4414 59.7656 -52.4414 C 66.6504 -52.4414 71.1914 -45.8496 71.1914 -35.2539 C 71.1914 -24.6582 66.6504 -18.0664 59.7656 -18.0664 Z M 59.7656 -22.4121 C 63.8672 -22.4121 66.5039 -27.3926 66.5039 -35.2539 C 66.5039 -43.1152 63.8184 -48.0957 59.7656 -48.0957 C 55.6641 -48.0957 53.0273 -43.1152 53.0273 -35.2539 C 53.0273 -27.3926 55.6641 -22.4121 59.7656 -22.4121 Z M 35.2051 -29.7852 L 35.2051 -47.5586 L 35.0098 -47.5586 C 31.9336 -42.4316 26.9531 -34.3262 24.6094 -29.9316 L 24.6094 -29.7852 Z"/>
  </g>
  <g id="Thin-S" transform="matrix(1 0 0 1 811.867 696)">
   <path d="M 44.5801 2.53906 C 65.2832 2.53906 82.2754 -14.4531 82.2754 -35.2051 C 82.2754 -55.9082 65.2344 -72.9004 44.5312 -72.9004 C 23.8281 -72.9004 6.83594 -55.9082 6.83594 -35.2051 C 6.83594 -14.4531 23.877 2.53906 44.5801 2.53906 Z M 36.1816 -18.5547 C 35.3027 -18.5547 34.7168 -19.1895 34.7168 -20.166 L 34.7168 -26.5137 L 21.2891 -26.5137 C 19.873 -26.5137 18.9453 -27.2949 18.9453 -28.7109 C 18.9453 -29.2969 19.1406 -29.9316 19.4824 -30.5664 C 22.4121 -35.2051 28.9062 -45.2148 32.1777 -50.2441 C 33.0566 -51.6602 33.8867 -52.0996 35.2539 -52.0996 C 36.6699 -52.0996 37.6953 -51.2207 37.6953 -49.8535 L 37.6953 -29.3457 L 41.4062 -29.3457 C 42.2852 -29.3457 42.8223 -28.7598 42.8223 -27.9297 C 42.8223 -27.0508 42.2852 -26.5137 41.4062 -26.5137 L 37.6953 -26.5137 L 37.6953 -20.166 C 37.6953 -19.1895 37.1582 -18.5547 36.1816 -18.5547 Z M 58.7402 -18.4082 C 51.9531 -18.4082 47.3633 -25.0977 47.3633 -35.2539 C 47.3633 -45.4102 51.9531 -52.0996 58.7402 -52.0996 C 65.5273 -52.0996 70.1172 -45.4102 70.1172 -35.2539 C 70.1172 -25.0977 65.5273 -18.4082 58.7402 -18.4082 Z M 58.7402 -21.3379 C 63.6719 -21.3379 66.9922 -26.9043 66.9922 -35.2539 C 66.9922 -43.6035 63.6719 -49.1699 58.7402 -49.1699 C 53.8574 -49.1699 50.4883 -43.6035 50.4883 -35.2539 C 50.4883 -26.9043 53.8574 -21.3379 58.7402 -21.3379 Z M 34.7168 -29.3457 L 34.7168 -48.7305 L 34.5703 -48.7305 C 31.8359 -44.5312 24.5117 -33.3984 22.2168 -29.4434 L 22.2168 -29.3457 Z"/>
  </g>
  <g id="Ultralight-S" transform="matrix(1 0 0 1 515.644 696)">
   <path d="M 44.043 2.05078 C 64.502 2.05078 81.2988 -14.6973 81.2988 -35.1562 C 81.2988 -55.6152 64.502 -72.3633 44.043 -72.3633 C 23.584 -72.3633 6.83594 -55.6152 6.83594 -35.1562 C 6.83594 -14.6973 23.584 2.05078 44.043 2.05078 Z M 35.5957 -18.7988 C 34.9609 -18.7988 34.4727 -19.2383 34.4727 -19.9219 L 34.4727 -26.9531 L 20.3613 -26.9531 C 19.2383 -26.9531 18.457 -27.5391 18.457 -28.6133 C 18.457 -29.0527 18.6035 -29.5898 18.8477 -29.9805 C 21.875 -34.5703 29.2969 -45.752 32.5195 -50.5859 C 33.252 -51.6113 33.8867 -51.9531 34.9121 -51.9531 C 35.9375 -51.9531 36.7188 -51.3184 36.7188 -50.2441 L 36.7188 -29.1016 L 41.0645 -29.1016 C 41.6992 -29.1016 42.0898 -28.6621 42.0898 -28.0273 C 42.0898 -27.3926 41.748 -26.9531 41.0645 -26.9531 L 36.7188 -26.9531 L 36.7188 -19.9219 C 36.7188 -19.2383 36.2793 -18.7988 35.5957 -18.7988 Z M 58.2031 -18.5547 C 51.4648 -18.5547 46.875 -25.293 46.875 -35.2539 C 46.875 -45.2148 51.4648 -51.9531 58.2031 -51.9531 C 64.9414 -51.9531 69.5801 -45.2148 69.5801 -35.2539 C 69.5801 -25.293 64.9414 -18.5547 58.2031 -18.5547 Z M 58.2031 -20.8008 C 63.5742 -20.8008 67.2852 -26.6602 67.2852 -35.2539 C 67.2852 -43.8477 63.5254 -49.707 58.2031 -49.707 C 52.8809 -49.707 49.1699 -43.8477 49.1699 -35.2539 C 49.1699 -26.6602 52.8809 -20.8008 58.2031 -20.8008 Z M 34.4727 -29.1016 L 34.4727 -49.3652 L 34.375 -49.3652 C 31.7871 -45.6543 23.2422 -32.9102 20.9961 -29.1992 L 20.9961 -29.1016 Z"/>
  </g>
 </g>
</svg>
