<?xml version="1.0" encoding="UTF-8"?>
<!--Generator: Apple Native CoreSVG 123-->
<!DOCTYPE svg
PUBLIC "-//W3C//DTD SVG 1.1//EN"
       "http://www.w3.org/Graphics/SVG/1.1/DTD/svg11.dtd">
<svg version="1.1" xmlns="http://www.w3.org/2000/svg" xmlns:xlink="http://www.w3.org/1999/xlink" width="3300" height="2200">
 <!--glyph: "uni1006AA.medium", point size: 100.000000, font version: "Version 15.0d7e11", template writer version: "5"-->
 <g id="Notes">
  <rect height="2200" id="artboard" style="fill:white;opacity:1" width="3300" x="0" y="0"/>
  <line id="" style="fill:none;stroke:black;opacity:1;stroke-width:0.5;" x1="263" x2="3036" y1="292" y2="292"/>
  <text style="stroke:none;fill:black;font-family:-apple-system,&quot;SF Pro Display&quot;,&quot;SF Pro Text&quot;,Helvetica,sans-serif;font-weight:bold;" transform="matrix(1 0 0 1 263 322)">Weight/Scale Variations</text>
  <text style="stroke:none;fill:black;font-family:-apple-system,&quot;SF Pro Display&quot;,&quot;SF Pro Text&quot;,Helvetica,sans-serif;text-anchor:middle;" transform="matrix(1 0 0 1 559.711 322)">Ultralight</text>
  <text style="stroke:none;fill:black;font-family:-apple-system,&quot;SF Pro Display&quot;,&quot;SF Pro Text&quot;,Helvetica,sans-serif;text-anchor:middle;" transform="matrix(1 0 0 1 856.422 322)">Thin</text>
  <text style="stroke:none;fill:black;font-family:-apple-system,&quot;SF Pro Display&quot;,&quot;SF Pro Text&quot;,Helvetica,sans-serif;text-anchor:middle;" transform="matrix(1 0 0 1 1153.13 322)">Light</text>
  <text style="stroke:none;fill:black;font-family:-apple-system,&quot;SF Pro Display&quot;,&quot;SF Pro Text&quot;,Helvetica,sans-serif;text-anchor:middle;" transform="matrix(1 0 0 1 1449.84 322)">Regular</text>
  <text style="stroke:none;fill:black;font-family:-apple-system,&quot;SF Pro Display&quot;,&quot;SF Pro Text&quot;,Helvetica,sans-serif;text-anchor:middle;" transform="matrix(1 0 0 1 1746.56 322)">Medium</text>
  <text style="stroke:none;fill:black;font-family:-apple-system,&quot;SF Pro Display&quot;,&quot;SF Pro Text&quot;,Helvetica,sans-serif;text-anchor:middle;" transform="matrix(1 0 0 1 2043.27 322)">Semibold</text>
  <text style="stroke:none;fill:black;font-family:-apple-system,&quot;SF Pro Display&quot;,&quot;SF Pro Text&quot;,Helvetica,sans-serif;text-anchor:middle;" transform="matrix(1 0 0 1 2339.98 322)">Bold</text>
  <text style="stroke:none;fill:black;font-family:-apple-system,&quot;SF Pro Display&quot;,&quot;SF Pro Text&quot;,Helvetica,sans-serif;text-anchor:middle;" transform="matrix(1 0 0 1 2636.69 322)">Heavy</text>
  <text style="stroke:none;fill:black;font-family:-apple-system,&quot;SF Pro Display&quot;,&quot;SF Pro Text&quot;,Helvetica,sans-serif;text-anchor:middle;" transform="matrix(1 0 0 1 2933.4 322)">Black</text>
  <line id="" style="fill:none;stroke:black;opacity:1;stroke-width:0.5;" x1="263" x2="3036" y1="1903" y2="1903"/>
  <g id="" transform="matrix(1 0 0 1 263 1933)">
   <path d="M 9.24805 0.830078 C 13.5547 0.830078 17.1387 -2.74414 17.1387 -7.05078 C 17.1387 -11.3574 13.5449 -14.9316 9.23828 -14.9316 C 4.94141 -14.9316 1.36719 -11.3574 1.36719 -7.05078 C 1.36719 -2.74414 4.95117 0.830078 9.24805 0.830078 Z M 9.24805 -0.654297 C 5.70312 -0.654297 2.87109 -3.49609 2.87109 -7.05078 C 2.87109 -10.6055 5.69336 -13.4473 9.23828 -13.4473 C 12.793 -13.4473 15.6348 -10.6055 15.6445 -7.05078 C 15.6543 -3.49609 12.8027 -0.654297 9.24805 -0.654297 Z M 9.22852 -3.42773 C 9.69727 -3.42773 9.9707 -3.74023 9.9707 -4.25781 L 9.9707 -6.31836 L 12.1973 -6.31836 C 12.6953 -6.31836 13.0371 -6.57227 13.0371 -7.04102 C 13.0371 -7.51953 12.7148 -7.7832 12.1973 -7.7832 L 9.9707 -7.7832 L 9.9707 -10.0098 C 9.9707 -10.5273 9.69727 -10.8496 9.22852 -10.8496 C 8.75977 -10.8496 8.50586 -10.5078 8.50586 -10.0098 L 8.50586 -7.7832 L 6.29883 -7.7832 C 5.78125 -7.7832 5.44922 -7.51953 5.44922 -7.04102 C 5.44922 -6.57227 5.80078 -6.31836 6.29883 -6.31836 L 8.50586 -6.31836 L 8.50586 -4.25781 C 8.50586 -3.75977 8.75977 -3.42773 9.22852 -3.42773 Z"/>
  </g>
  <g id="" transform="matrix(1 0 0 1 281.506 1933)">
   <path d="M 11.709 2.91016 C 17.1582 2.91016 21.6699 -1.60156 21.6699 -7.05078 C 21.6699 -12.4902 17.1484 -17.0117 11.6992 -17.0117 C 6.25977 -17.0117 1.74805 -12.4902 1.74805 -7.05078 C 1.74805 -1.60156 6.26953 2.91016 11.709 2.91016 Z M 11.709 1.25 C 7.09961 1.25 3.41797 -2.44141 3.41797 -7.05078 C 3.41797 -11.6504 7.08984 -15.3516 11.6992 -15.3516 C 16.3086 -15.3516 20 -11.6504 20.0098 -7.05078 C 20.0195 -2.44141 16.3184 1.25 11.709 1.25 Z M 11.6895 -2.41211 C 12.207 -2.41211 12.5195 -2.77344 12.5195 -3.33984 L 12.5195 -6.23047 L 15.5762 -6.23047 C 16.123 -6.23047 16.5039 -6.51367 16.5039 -7.03125 C 16.5039 -7.55859 16.1426 -7.86133 15.5762 -7.86133 L 12.5195 -7.86133 L 12.5195 -10.9277 C 12.5195 -11.5039 12.207 -11.8555 11.6895 -11.8555 C 11.1719 -11.8555 10.8789 -11.4844 10.8789 -10.9277 L 10.8789 -7.86133 L 7.83203 -7.86133 C 7.26562 -7.86133 6.89453 -7.55859 6.89453 -7.03125 C 6.89453 -6.51367 7.28516 -6.23047 7.83203 -6.23047 L 10.8789 -6.23047 L 10.8789 -3.33984 C 10.8789 -2.79297 11.1719 -2.41211 11.6895 -2.41211 Z"/>
  </g>
  <g id="" transform="matrix(1 0 0 1 304.924 1933)">
   <path d="M 14.9707 5.67383 C 21.9336 5.67383 27.6953 -0.078125 27.6953 -7.04102 C 27.6953 -14.0039 21.9238 -19.7559 14.9609 -19.7559 C 8.00781 -19.7559 2.25586 -14.0039 2.25586 -7.04102 C 2.25586 -0.078125 8.01758 5.67383 14.9707 5.67383 Z M 14.9707 3.85742 C 8.93555 3.85742 4.08203 -1.00586 4.08203 -7.04102 C 4.08203 -13.0762 8.92578 -17.9395 14.9609 -17.9395 C 21.0059 -17.9395 25.8594 -13.0762 25.8691 -7.04102 C 25.8789 -1.00586 21.0156 3.85742 14.9707 3.85742 Z M 14.9512 -1.06445 C 15.5176 -1.06445 15.8691 -1.45508 15.8691 -2.06055 L 15.8691 -6.13281 L 20.1074 -6.13281 C 20.6934 -6.13281 21.1133 -6.46484 21.1133 -7.02148 C 21.1133 -7.59766 20.7227 -7.93945 20.1074 -7.93945 L 15.8691 -7.93945 L 15.8691 -12.1875 C 15.8691 -12.8027 15.5176 -13.1934 14.9512 -13.1934 C 14.3848 -13.1934 14.0625 -12.7832 14.0625 -12.1875 L 14.0625 -7.93945 L 9.83398 -7.93945 C 9.21875 -7.93945 8.80859 -7.59766 8.80859 -7.02148 C 8.80859 -6.46484 9.23828 -6.13281 9.83398 -6.13281 L 14.0625 -6.13281 L 14.0625 -2.06055 C 14.0625 -1.47461 14.3848 -1.06445 14.9512 -1.06445 Z"/>
  </g>
  <text style="stroke:none;fill:black;font-family:-apple-system,&quot;SF Pro Display&quot;,&quot;SF Pro Text&quot;,Helvetica,sans-serif;font-weight:bold;" transform="matrix(1 0 0 1 263 1953)">Design Variations</text>
  <text style="stroke:none;fill:black;font-family:-apple-system,&quot;SF Pro Display&quot;,&quot;SF Pro Text&quot;,Helvetica,sans-serif;" transform="matrix(1 0 0 1 263 1971)">Symbols are supported in up to nine weights and three scales.</text>
  <text style="stroke:none;fill:black;font-family:-apple-system,&quot;SF Pro Display&quot;,&quot;SF Pro Text&quot;,Helvetica,sans-serif;" transform="matrix(1 0 0 1 263 1989)">For optimal layout with text and other symbols, vertically align</text>
  <text style="stroke:none;fill:black;font-family:-apple-system,&quot;SF Pro Display&quot;,&quot;SF Pro Text&quot;,Helvetica,sans-serif;" transform="matrix(1 0 0 1 263 2007)">symbols with the adjacent text.</text>
  <rect height="14" id="" style="fill:#00AEEF;stroke:none;opacity:0.4;" width="3" x="776" y="1919"/>
  <g id="" transform="matrix(1 0 0 1 779 1933)">
   <path d="M 10.5273 0 L 12.373 0 L 7.17773 -14.0918 L 5.43945 -14.0918 L 0.244141 0 L 2.08984 0 L 3.50586 -4.0332 L 9.11133 -4.0332 Z M 6.2793 -11.9531 L 6.33789 -11.9531 L 8.59375 -5.52734 L 4.02344 -5.52734 Z"/>
  </g>
  <rect height="14" id="" style="fill:#00AEEF;stroke:none;opacity:0.4;" width="3" x="791.617" y="1919"/>
  <text style="stroke:none;fill:black;font-family:-apple-system,&quot;SF Pro Display&quot;,&quot;SF Pro Text&quot;,Helvetica,sans-serif;font-weight:bold;" transform="matrix(1 0 0 1 776 1953)">Margins</text>
  <text style="stroke:none;fill:black;font-family:-apple-system,&quot;SF Pro Display&quot;,&quot;SF Pro Text&quot;,Helvetica,sans-serif;" transform="matrix(1 0 0 1 776 1971)">Leading and trailing margins on the left and right side of each symbol</text>
  <text style="stroke:none;fill:black;font-family:-apple-system,&quot;SF Pro Display&quot;,&quot;SF Pro Text&quot;,Helvetica,sans-serif;" transform="matrix(1 0 0 1 776 1989)">can be adjusted by modifying the width of the blue rectangles.</text>
  <text style="stroke:none;fill:black;font-family:-apple-system,&quot;SF Pro Display&quot;,&quot;SF Pro Text&quot;,Helvetica,sans-serif;" transform="matrix(1 0 0 1 776 2007)">Modifications are automatically applied proportionally to all</text>
  <text style="stroke:none;fill:black;font-family:-apple-system,&quot;SF Pro Display&quot;,&quot;SF Pro Text&quot;,Helvetica,sans-serif;" transform="matrix(1 0 0 1 776 2025)">scales and weights.</text>
  <g id="" transform="matrix(1 0 0 1 1289 1933)">
   <path d="M 2.83203 3.11523 L 4.375 4.6582 C 5.22461 5.48828 6.19141 5.41992 7.06055 4.46289 L 17.2754 -6.66016 C 17.7051 -6.36719 18.0957 -6.37695 18.5645 -6.47461 L 19.6094 -6.68945 L 20.3027 -5.99609 L 20.2539 -5.47852 C 20.1855 -4.95117 20.3516 -4.53125 20.8496 -4.0332 L 21.6602 -3.22266 C 22.168 -2.71484 22.8223 -2.68555 23.3008 -3.16406 L 26.5527 -6.41602 C 27.0312 -6.89453 27.0117 -7.54883 26.5039 -8.05664 L 25.6836 -8.87695 C 25.1855 -9.375 24.7754 -9.55078 24.2383 -9.47266 L 23.7109 -9.41406 L 23.0566 -10.0781 L 23.3398 -11.2207 C 23.4863 -11.7871 23.3398 -12.2559 22.7148 -12.8613 L 20.3027 -15.2539 C 16.7578 -18.7793 12.2266 -18.6719 9.11133 -15.5371 C 8.69141 -15.1074 8.64258 -14.5215 8.91602 -14.0918 C 9.15039 -13.7207 9.62891 -13.4961 10.2734 -13.6621 C 11.7871 -14.043 13.3008 -13.9258 14.7852 -12.9199 L 14.1602 -11.3379 C 13.9258 -10.752 13.9453 -10.2734 14.1797 -9.83398 L 3.01758 0.439453 C 2.08008 1.30859 1.97266 2.25586 2.83203 3.11523 Z M 10.6738 -15.1465 C 13.3398 -17.1387 16.6504 -16.8262 19.0527 -14.4141 L 21.6797 -11.8066 C 21.9141 -11.5723 21.9434 -11.3867 21.8848 -11.0938 L 21.5039 -9.53125 L 23.0762 -7.95898 L 24.043 -8.04688 C 24.3262 -8.07617 24.4141 -8.05664 24.6387 -7.83203 L 25.2637 -7.20703 L 22.5098 -4.46289 L 21.8848 -5.07812 C 21.6602 -5.30273 21.6406 -5.40039 21.6699 -5.68359 L 21.7578 -6.64062 L 20.1953 -8.20312 L 18.5742 -7.89062 C 18.291 -7.83203 18.1445 -7.83203 17.9102 -8.07617 L 15.7324 -10.2539 C 15.5078 -10.4883 15.4785 -10.625 15.6055 -10.9473 L 16.5527 -13.2227 C 14.9512 -14.7559 12.8418 -15.6055 10.8008 -14.9512 C 10.7129 -14.9219 10.6445 -14.9414 10.6152 -14.9805 C 10.5859 -15.0293 10.5859 -15.0781 10.6738 -15.1465 Z M 4.10156 2.41211 C 3.61328 1.91406 3.78906 1.61133 4.12109 1.30859 L 15.0781 -8.80859 L 16.3086 -7.57812 L 6.15234 3.34961 C 5.84961 3.68164 5.46875 3.7793 5.06836 3.37891 Z"/>
  </g>
  <text style="stroke:none;fill:black;font-family:-apple-system,&quot;SF Pro Display&quot;,&quot;SF Pro Text&quot;,Helvetica,sans-serif;font-weight:bold;" transform="matrix(1 0 0 1 1289 1953)">Exporting</text>
  <text style="stroke:none;fill:black;font-family:-apple-system,&quot;SF Pro Display&quot;,&quot;SF Pro Text&quot;,Helvetica,sans-serif;" transform="matrix(1 0 0 1 1289 1971)">Symbols should be outlined when exporting to ensure the</text>
  <text style="stroke:none;fill:black;font-family:-apple-system,&quot;SF Pro Display&quot;,&quot;SF Pro Text&quot;,Helvetica,sans-serif;" transform="matrix(1 0 0 1 1289 1989)">design is preserved when submitting to Xcode.</text>
  <text id="template-version" style="stroke:none;fill:black;font-family:-apple-system,&quot;SF Pro Display&quot;,&quot;SF Pro Text&quot;,Helvetica,sans-serif;text-anchor:end;" transform="matrix(1 0 0 1 3036 1933)">Template v.1.0</text>
  <text style="stroke:none;fill:black;font-family:-apple-system,&quot;SF Pro Display&quot;,&quot;SF Pro Text&quot;,Helvetica,sans-serif;text-anchor:end;" transform="matrix(1 0 0 1 3036 1951)">Generated from 41.circle.fill</text>
  <text style="stroke:none;fill:black;font-family:-apple-system,&quot;SF Pro Display&quot;,&quot;SF Pro Text&quot;,Helvetica,sans-serif;text-anchor:end;" transform="matrix(1 0 0 1 3036 1969)">Typeset at 100 points</text>
  <text style="stroke:none;fill:black;font-family:-apple-system,&quot;SF Pro Display&quot;,&quot;SF Pro Text&quot;,Helvetica,sans-serif;" transform="matrix(1 0 0 1 263 726)">Small</text>
  <text style="stroke:none;fill:black;font-family:-apple-system,&quot;SF Pro Display&quot;,&quot;SF Pro Text&quot;,Helvetica,sans-serif;" transform="matrix(1 0 0 1 263 1156)">Medium</text>
  <text style="stroke:none;fill:black;font-family:-apple-system,&quot;SF Pro Display&quot;,&quot;SF Pro Text&quot;,Helvetica,sans-serif;" transform="matrix(1 0 0 1 263 1586)">Large</text>
 </g>
 <g id="Guides">
  <g id="H-reference" style="fill:#27AAE1;stroke:none;" transform="matrix(1 0 0 1 339 696)">
   <path d="M 54.9316 0 L 57.666 0 L 30.5664 -70.459 L 28.0762 -70.459 L 0.976562 0 L 3.66211 0 L 12.9395 -24.4629 L 45.7031 -24.4629 Z M 29.1992 -67.0898 L 29.4434 -67.0898 L 44.8242 -26.709 L 13.8184 -26.709 Z"/>
  </g>
  <line id="Baseline-S" style="fill:none;stroke:#27AAE1;opacity:1;stroke-width:0.577;" x1="263" x2="3036" y1="696" y2="696"/>
  <line id="Capline-S" style="fill:none;stroke:#27AAE1;opacity:1;stroke-width:0.577;" x1="263" x2="3036" y1="625.541" y2="625.541"/>
  <g id="H-reference" style="fill:#27AAE1;stroke:none;" transform="matrix(1 0 0 1 339 1126)">
   <path d="M 54.9316 0 L 57.666 0 L 30.5664 -70.459 L 28.0762 -70.459 L 0.976562 0 L 3.66211 0 L 12.9395 -24.4629 L 45.7031 -24.4629 Z M 29.1992 -67.0898 L 29.4434 -67.0898 L 44.8242 -26.709 L 13.8184 -26.709 Z"/>
  </g>
  <line id="Baseline-M" style="fill:none;stroke:#27AAE1;opacity:1;stroke-width:0.577;" x1="263" x2="3036" y1="1126" y2="1126"/>
  <line id="Capline-M" style="fill:none;stroke:#27AAE1;opacity:1;stroke-width:0.577;" x1="263" x2="3036" y1="1055.54" y2="1055.54"/>
  <g id="H-reference" style="fill:#27AAE1;stroke:none;" transform="matrix(1 0 0 1 339 1556)">
   <path d="M 54.9316 0 L 57.666 0 L 30.5664 -70.459 L 28.0762 -70.459 L 0.976562 0 L 3.66211 0 L 12.9395 -24.4629 L 45.7031 -24.4629 Z M 29.1992 -67.0898 L 29.4434 -67.0898 L 44.8242 -26.709 L 13.8184 -26.709 Z"/>
  </g>
  <line id="Baseline-L" style="fill:none;stroke:#27AAE1;opacity:1;stroke-width:0.577;" x1="263" x2="3036" y1="1556" y2="1556"/>
  <line id="Capline-L" style="fill:none;stroke:#27AAE1;opacity:1;stroke-width:0.577;" x1="263" x2="3036" y1="1485.54" y2="1485.54"/>
  <rect height="119.336" id="left-margin" style="fill:#00AEEF;stroke:none;opacity:0.4;" width="8.74023" x="1391.3" y="1030.79"/>
  <rect height="119.336" id="right-margin" style="fill:#00AEEF;stroke:none;opacity:0.4;" width="8.74023" x="1499.65" y="1030.79"/>
 </g>
 <g id="Symbols">
  <g id="Black-L" transform="matrix(1 0 0 1 2854.05 1556)">
   <path d="M 79.3457 32.8613 C 116.748 32.8613 147.412 2.19727 147.412 -35.2051 C 147.412 -72.6074 116.748 -103.271 79.2969 -103.271 C 41.8945 -103.271 11.2793 -72.6074 11.2793 -35.2051 C 11.2793 2.19727 41.9434 32.8613 79.3457 32.8613 Z M 69.6289 -9.47266 C 66.2598 -9.47266 64.1602 -11.7676 64.1602 -15.0391 L 64.1602 -19.1406 L 51.7578 -19.1406 C 46.875 -19.1406 44.1895 -21.9238 44.1895 -26.6602 C 44.1895 -29.4922 44.873 -32.0312 45.8496 -34.5703 C 47.998 -39.7949 51.416 -47.6562 54.6875 -53.8574 C 57.1777 -58.7891 60.4004 -61.084 65.9668 -61.084 C 72.0703 -61.084 75.2441 -57.4219 75.2441 -51.5137 L 75.2441 -29.7852 L 76.3672 -29.7852 C 79.4922 -29.7852 81.2988 -27.6367 81.2988 -24.4141 C 81.2988 -21.1914 79.4922 -19.2383 76.3672 -19.2383 L 75.2441 -19.2383 L 75.2441 -15.0391 C 75.2441 -11.7676 73.0469 -9.47266 69.6289 -9.47266 Z M 104.102 -9.66797 C 99.9512 -9.66797 97.9492 -12.1094 97.9492 -16.8457 L 97.9492 -45.8496 L 97.6562 -45.8496 L 94.7266 -42.9199 C 93.1152 -41.1133 91.8945 -40.3809 89.8438 -40.3809 C 87.0605 -40.3809 84.8633 -42.7246 84.8633 -45.5566 C 84.8633 -47.998 85.791 -49.707 88.1836 -51.8066 L 94.5312 -57.3242 C 97.7539 -60.2051 99.8535 -60.9863 102.539 -60.9863 C 107.568 -60.9863 110.205 -57.959 110.205 -52.832 L 110.205 -16.8457 C 110.205 -12.1094 108.154 -9.66797 104.102 -9.66797 Z M 64.1602 -29.6387 L 64.1602 -49.3164 L 63.916 -49.3164 C 61.1816 -43.3105 57.959 -34.8633 55.957 -29.9316 L 55.957 -29.6387 Z"/>
  </g>
  <g id="Heavy-L" transform="matrix(1 0 0 1 2558.39 1556)">
   <path d="M 78.2715 31.7871 C 115.088 31.7871 145.312 1.61133 145.312 -35.2051 C 145.312 -72.0215 115.039 -102.197 78.2715 -102.197 C 41.4551 -102.197 11.2793 -72.0215 11.2793 -35.2051 C 11.2793 1.61133 41.5039 31.7871 78.2715 31.7871 Z M 68.6035 -8.93555 C 65.5273 -8.93555 63.623 -11.084 63.623 -14.1113 L 63.623 -19.2871 L 49.4141 -19.2871 C 44.9219 -19.2871 42.3828 -21.8262 42.3828 -26.1719 C 42.3828 -28.7109 43.0176 -30.957 43.9941 -33.3496 C 46.6797 -39.1602 51.1719 -48.2422 54.9805 -55.127 C 57.3242 -59.6191 60.3027 -61.6699 65.332 -61.6699 C 70.8008 -61.6699 73.7305 -58.3496 73.7305 -53.0762 L 73.7305 -28.9062 L 75.6348 -28.9062 C 78.5156 -28.9062 80.1758 -27.002 80.1758 -24.0723 C 80.1758 -21.0938 78.5156 -19.3359 75.6348 -19.3359 L 73.7305 -19.3359 L 73.7305 -14.1113 C 73.7305 -11.0352 71.7773 -8.93555 68.6035 -8.93555 Z M 103.467 -9.17969 C 99.8047 -9.17969 97.9492 -11.377 97.9492 -15.5273 L 97.9492 -47.7539 L 97.6074 -47.7539 L 93.457 -44.1406 C 91.9434 -42.5293 90.8691 -41.9922 89.0625 -41.9922 C 86.5723 -41.9922 84.4727 -44.1406 84.4727 -46.7773 C 84.4727 -48.9746 85.4004 -50.4883 87.5 -52.3438 L 94.9219 -58.252 C 97.8027 -60.791 99.707 -61.4746 102.197 -61.4746 C 106.592 -61.4746 109.033 -58.7402 109.033 -54.2969 L 109.033 -15.5273 C 109.033 -11.377 107.129 -9.17969 103.467 -9.17969 Z M 63.623 -28.8574 L 63.623 -50.8301 L 63.3301 -50.8301 C 60.0586 -44.2871 55.6152 -34.5703 53.1738 -29.1016 L 53.1738 -28.8574 Z"/>
  </g>
  <g id="Bold-L" transform="matrix(1 0 0 1 2262.88 1556)">
   <path d="M 77.0996 30.6152 C 113.232 30.6152 142.92 0.878906 142.92 -35.2051 C 142.92 -71.3379 113.184 -101.025 77.0508 -101.025 C 40.9668 -101.025 11.2793 -71.3379 11.2793 -35.2051 C 11.2793 0.878906 41.0156 30.6152 77.0996 30.6152 Z M 67.4316 -8.30078 C 64.6973 -8.30078 63.0371 -10.3027 63.0371 -13.0371 L 63.0371 -19.4336 L 46.7285 -19.4336 C 42.7734 -19.4336 40.3809 -21.6797 40.3809 -25.6348 C 40.3809 -27.832 40.918 -29.7852 41.8457 -31.9336 C 45.2148 -38.4277 50.9277 -48.877 55.2734 -56.4941 C 57.4707 -60.5469 60.1074 -62.3047 64.5996 -62.3047 C 69.2871 -62.3047 72.0215 -59.4238 72.0215 -54.7852 L 72.0215 -27.9785 L 74.8535 -27.9785 C 77.3926 -27.9785 78.9551 -26.3184 78.9551 -23.6816 C 78.9551 -21.0449 77.3926 -19.4824 74.8535 -19.4824 L 72.0215 -19.4824 L 72.0215 -13.0371 C 72.0215 -10.2539 70.3613 -8.30078 67.4316 -8.30078 Z M 102.783 -8.69141 C 99.6582 -8.69141 97.9004 -10.5957 97.9004 -14.1113 L 97.9004 -49.9023 L 97.6074 -49.9023 L 92.041 -45.5078 C 90.625 -44.1406 89.7461 -43.75 88.2324 -43.75 C 86.0352 -43.75 84.082 -45.7031 84.082 -48.0957 C 84.082 -50.0488 84.9121 -51.416 86.7188 -52.8809 L 95.3125 -59.2773 C 97.9004 -61.377 99.5117 -62.0605 101.807 -62.0605 C 105.518 -62.0605 107.666 -59.668 107.666 -55.9082 L 107.666 -14.1113 C 107.666 -10.5957 105.957 -8.69141 102.783 -8.69141 Z M 63.0371 -27.9297 L 63.0371 -52.4902 L 62.6953 -52.4902 C 58.8379 -45.3613 52.9785 -34.2285 50.0977 -28.1738 L 50.0977 -27.9297 Z"/>
  </g>
  <g id="Semibold-L" transform="matrix(1 0 0 1 1966.97 1556)">
   <path d="M 76.2695 29.7852 C 111.914 29.7852 141.309 0.439453 141.309 -35.2051 C 141.309 -70.8496 111.865 -100.244 76.2695 -100.244 C 40.625 -100.244 11.2793 -70.8496 11.2793 -35.2051 C 11.2793 0.439453 40.6738 29.7852 76.2695 29.7852 Z M 66.6504 -7.91016 C 64.1113 -7.91016 62.5977 -9.7168 62.5977 -12.3047 L 62.5977 -19.5312 L 44.873 -19.5312 C 41.2598 -19.5312 39.0137 -21.6309 39.0137 -25.293 C 39.0137 -27.2461 39.4531 -28.9551 40.3809 -30.957 C 44.2383 -37.9395 50.7324 -49.3164 55.5176 -57.4707 C 57.5684 -61.1816 60.0098 -62.7441 64.0625 -62.7441 C 68.3105 -62.7441 70.8984 -60.1074 70.8984 -56.0059 L 70.8984 -27.3438 L 74.2676 -27.3438 C 76.6113 -27.3438 78.0762 -25.8301 78.0762 -23.3887 C 78.0762 -20.9961 76.6113 -19.5312 74.2676 -19.5312 L 70.8984 -19.5312 L 70.8984 -12.3047 C 70.8984 -9.7168 69.3848 -7.91016 66.6504 -7.91016 Z M 102.295 -8.30078 C 99.5117 -8.30078 97.9004 -10.0586 97.9004 -13.0859 L 97.9004 -51.3672 L 97.5586 -51.3672 L 91.1133 -46.4844 C 89.6973 -45.2637 88.9648 -44.9707 87.6465 -44.9707 C 85.6445 -44.9707 83.8379 -46.7773 83.8379 -48.9746 C 83.8379 -50.7812 84.6191 -52.002 86.1816 -53.2715 L 95.6055 -59.9609 C 97.9492 -61.8164 99.4141 -62.4512 101.514 -62.4512 C 104.785 -62.4512 106.738 -60.3027 106.738 -57.0312 L 106.738 -13.0859 C 106.738 -10.0586 105.127 -8.30078 102.295 -8.30078 Z M 62.5977 -27.2949 L 62.5977 -53.6621 L 62.3047 -53.6621 C 58.0078 -46.0938 51.1719 -33.9844 47.9492 -27.5391 L 47.9492 -27.2949 Z"/>
  </g>
  <g id="Medium-L" transform="matrix(1 0 0 1 1670.87 1556)">
   <path d="M 75.6836 29.1992 C 110.938 29.1992 140.088 0.0488281 140.088 -35.2051 C 140.088 -70.459 110.889 -99.6094 75.6348 -99.6094 C 40.3809 -99.6094 11.2793 -70.459 11.2793 -35.2051 C 11.2793 0.0488281 40.3809 29.1992 75.6836 29.1992 Z M 66.0645 -7.56836 C 63.6719 -7.56836 62.3047 -9.32617 62.3047 -11.7676 L 62.3047 -19.5801 L 43.5059 -19.5801 C 40.1367 -19.5801 37.9395 -21.5332 37.9395 -25 C 37.9395 -26.8066 38.3789 -28.3203 39.3066 -30.2246 C 43.457 -37.5977 50.5859 -49.707 55.6641 -58.1543 C 57.666 -61.6699 59.9609 -63.0859 63.6719 -63.0859 C 67.5293 -63.0859 70.0195 -60.6934 70.0195 -56.8848 L 70.0195 -26.8555 L 73.877 -26.8555 C 76.0254 -26.8555 77.3926 -25.4395 77.3926 -23.1934 C 77.3926 -20.9473 76.0254 -19.6289 73.877 -19.6289 L 70.0195 -19.6289 L 70.0195 -11.7676 C 70.0195 -9.27734 68.6035 -7.56836 66.0645 -7.56836 Z M 101.904 -8.00781 C 99.4629 -8.00781 97.9004 -9.66797 97.9004 -12.3535 L 97.9004 -52.4902 L 97.5586 -52.4902 L 90.3809 -47.2168 C 89.0137 -46.0938 88.3789 -45.8984 87.207 -45.8984 C 85.3516 -45.8984 83.6426 -47.6074 83.6426 -49.707 C 83.6426 -51.3184 84.375 -52.4902 85.791 -53.5645 L 95.8008 -60.5469 C 97.9492 -62.1582 99.3164 -62.7441 101.318 -62.7441 C 104.199 -62.7441 106.055 -60.791 106.055 -57.8613 L 106.055 -12.3535 C 106.055 -9.66797 104.541 -8.00781 101.904 -8.00781 Z M 62.3047 -26.8066 L 62.3047 -54.541 L 61.9629 -54.541 C 57.373 -46.6309 49.8047 -33.8379 46.3379 -27.0996 L 46.3379 -26.8066 Z"/>
  </g>
  <g id="Regular-L" transform="matrix(1 0 0 1 1374.97 1556)">
   <path d="M 74.8535 28.3691 C 109.668 28.3691 138.477 -0.390625 138.477 -35.2051 C 138.477 -70.0195 109.619 -98.7793 74.8047 -98.7793 C 40.0391 -98.7793 11.2793 -70.0195 11.2793 -35.2051 C 11.2793 -0.390625 40.0879 28.3691 74.8535 28.3691 Z M 65.2832 -7.17773 C 63.1348 -7.17773 61.8652 -8.78906 61.8652 -11.0352 L 61.8652 -19.6777 L 41.6992 -19.6777 C 38.6719 -19.6777 36.5723 -21.4844 36.5723 -24.6582 C 36.5723 -26.2207 36.9141 -27.4902 37.8418 -29.248 C 42.4805 -37.1094 50.3906 -50.1465 55.8594 -59.1309 C 57.7637 -62.3047 59.8145 -63.5254 63.1836 -63.5254 C 66.5527 -63.5254 68.8477 -61.377 68.8477 -58.1055 L 68.8477 -26.1719 L 73.3398 -26.1719 C 75.2441 -26.1719 76.5625 -24.9512 76.5625 -22.9004 C 76.5625 -20.8496 75.293 -19.6777 73.3398 -19.6777 L 68.8477 -19.6777 L 68.8477 -11.0352 C 68.8477 -8.74023 67.6758 -7.17773 65.2832 -7.17773 Z M 101.465 -7.66602 C 99.3164 -7.66602 97.9004 -9.13086 97.9004 -11.377 L 97.9004 -53.9551 L 97.5586 -53.9551 L 89.4043 -48.1445 C 88.1348 -47.168 87.5977 -47.1191 86.6699 -47.1191 C 84.9609 -47.1191 83.3496 -48.6328 83.3496 -50.5859 C 83.3496 -52.0996 84.0332 -53.125 85.3027 -53.9551 L 96.0938 -61.2305 C 97.998 -62.5977 99.1699 -63.1348 101.074 -63.1348 C 103.467 -63.1348 105.127 -61.4258 105.127 -58.9355 L 105.127 -11.377 C 105.127 -9.13086 103.711 -7.66602 101.465 -7.66602 Z M 61.8652 -26.1719 L 61.8652 -55.7129 L 61.5234 -55.7129 C 56.543 -47.3633 47.998 -33.5938 44.1895 -26.4648 L 44.1895 -26.1719 Z"/>
  </g>
  <g id="Light-L" transform="matrix(1 0 0 1 1079.18 1556)">
   <path d="M 73.9258 27.4902 C 108.301 27.4902 136.621 -0.830078 136.621 -35.1562 C 136.621 -69.5312 108.252 -97.8516 73.9258 -97.8516 C 39.5508 -97.8516 11.2793 -69.5312 11.2793 -35.1562 C 11.2793 -0.830078 39.5996 27.4902 73.9258 27.4902 Z M 64.4531 -7.56836 C 62.793 -7.56836 61.6699 -8.83789 61.6699 -10.5957 L 61.6699 -20.459 L 40.2832 -20.459 C 37.6953 -20.459 35.9863 -21.875 35.9863 -24.5117 C 35.9863 -25.7324 36.2793 -26.8555 37.0117 -28.1738 C 41.7969 -35.8887 51.4648 -51.123 56.8359 -59.668 C 58.3984 -62.2559 60.1074 -63.2324 62.793 -63.2324 C 65.4785 -63.2324 67.334 -61.5234 67.334 -58.8379 L 67.334 -25.7812 L 72.9004 -25.7812 C 74.4629 -25.7812 75.5371 -24.707 75.5371 -23.0957 C 75.5371 -21.4355 74.5117 -20.459 72.9004 -20.459 L 67.334 -20.459 L 67.334 -10.5957 C 67.334 -8.78906 66.3574 -7.56836 64.4531 -7.56836 Z M 100.293 -7.86133 C 98.6328 -7.86133 97.4121 -9.0332 97.4121 -10.8398 L 97.4121 -55.4199 L 97.1191 -55.4199 L 87.4512 -48.877 C 86.5723 -48.1934 86.1328 -48.1934 85.4004 -48.1934 C 84.0332 -48.1934 82.7637 -49.4141 82.7637 -50.9277 C 82.7637 -52.0996 83.252 -52.8809 84.2773 -53.5645 L 96.0938 -61.4258 C 97.5098 -62.4023 98.4375 -62.793 99.9512 -62.793 C 101.855 -62.793 103.223 -61.4746 103.223 -59.5215 L 103.223 -10.8398 C 103.223 -9.0332 102.1 -7.86133 100.293 -7.86133 Z M 61.6699 -25.7812 L 61.6699 -56.8359 L 61.4258 -56.8359 C 56.7383 -49.4141 45.9473 -32.666 42.1875 -25.9766 L 42.1875 -25.7812 Z"/>
  </g>
  <g id="Thin-L" transform="matrix(1 0 0 1 783.693 1556)">
   <path d="M 72.7051 26.3184 C 106.494 26.3184 134.18 -1.36719 134.18 -35.1074 C 134.18 -68.8965 106.494 -96.582 72.7051 -96.582 C 38.9648 -96.582 11.2793 -68.8965 11.2793 -35.1074 C 11.2793 -1.36719 38.9648 26.3184 72.7051 26.3184 Z M 63.3789 -8.10547 C 62.3047 -8.10547 61.4258 -8.88672 61.4258 -10.0586 L 61.4258 -21.4844 L 38.4766 -21.4844 C 36.4746 -21.4844 35.2051 -22.4121 35.2051 -24.3164 C 35.2051 -25.1465 35.4492 -26.0254 35.8398 -26.709 C 40.8691 -34.3262 52.832 -52.4414 58.1543 -60.4004 C 59.2773 -62.207 60.498 -62.793 62.2559 -62.793 C 64.0625 -62.793 65.2832 -61.6699 65.2832 -59.8633 L 65.2832 -25.1953 L 72.3633 -25.1953 C 73.3887 -25.1953 74.2188 -24.3652 74.2188 -23.291 C 74.2188 -22.2168 73.4863 -21.4844 72.3633 -21.4844 L 65.2832 -21.4844 L 65.2832 -10.0586 C 65.2832 -8.88672 64.6484 -8.10547 63.3789 -8.10547 Z M 98.7305 -8.1543 C 97.6562 -8.1543 96.7773 -8.93555 96.7773 -10.1074 L 96.7773 -57.4219 L 96.5332 -57.4219 L 84.9121 -49.8047 C 84.4727 -49.5605 84.2285 -49.5605 83.7891 -49.5605 C 82.7637 -49.5605 81.9336 -50.3906 81.9336 -51.3184 C 81.9336 -52.0996 82.2266 -52.6367 82.959 -53.0762 L 96.0449 -61.6699 C 96.875 -62.207 97.5098 -62.4023 98.4375 -62.4023 C 99.7559 -62.4023 100.635 -61.5234 100.635 -60.2539 L 100.635 -10.1074 C 100.635 -8.93555 100 -8.1543 98.7305 -8.1543 Z M 61.4258 -25.1953 L 61.4258 -58.3496 L 61.2793 -58.3496 C 57.0312 -52.0996 43.2129 -31.4941 39.5508 -25.3906 L 39.5508 -25.1953 Z"/>
  </g>
  <g id="Ultralight-L" transform="matrix(1 0 0 1 487.616 1556)">
   <path d="M 72.1191 25.7324 C 105.566 25.7324 132.91 -1.61133 132.91 -35.1074 C 132.91 -68.5547 105.566 -95.8984 72.1191 -95.8984 C 38.623 -95.8984 11.2793 -68.5547 11.2793 -35.1074 C 11.2793 -1.61133 38.623 25.7324 72.1191 25.7324 Z M 62.793 -8.39844 C 62.0605 -8.39844 61.3281 -8.88672 61.3281 -9.81445 L 61.3281 -22.0215 L 37.5488 -22.0215 C 35.8398 -22.0215 34.8145 -22.7051 34.8145 -24.2188 C 34.8145 -24.8047 35.0586 -25.5859 35.3027 -25.9766 C 40.4297 -33.4961 53.5156 -53.125 58.7891 -60.791 C 59.7656 -62.207 60.6445 -62.5977 61.9629 -62.5977 C 63.3789 -62.5977 64.2578 -61.7676 64.2578 -60.3516 L 64.2578 -24.9023 L 72.1191 -24.9023 C 72.8516 -24.9023 73.5352 -24.1699 73.5352 -23.4375 C 73.5352 -22.6074 72.9492 -22.0215 72.1191 -22.0215 L 64.2578 -22.0215 L 64.2578 -9.81445 C 64.2578 -8.88672 63.7695 -8.39844 62.793 -8.39844 Z M 97.9004 -8.30078 C 97.168 -8.30078 96.4355 -8.83789 96.4355 -9.76562 L 96.4355 -58.4473 L 96.2402 -58.4473 L 83.5938 -50.293 C 83.3984 -50.2441 83.252 -50.2441 82.9102 -50.2441 C 82.1289 -50.2441 81.543 -50.8789 81.543 -51.5137 C 81.543 -52.0996 81.7383 -52.4902 82.2754 -52.832 L 96.0449 -61.7676 C 96.5332 -62.0605 97.0215 -62.207 97.7051 -62.207 C 98.6328 -62.207 99.3652 -61.5723 99.3652 -60.6445 L 99.3652 -9.76562 C 99.3652 -8.83789 98.877 -8.30078 97.9004 -8.30078 Z M 61.3281 -24.9023 L 61.3281 -59.1309 L 61.1816 -59.1309 C 57.1777 -53.4668 41.7969 -30.8594 38.2324 -25.0488 L 38.2324 -24.9023 Z"/>
  </g>
  <g id="Black-M" transform="matrix(1 0 0 1 2870.97 1126)">
   <path d="M 62.4023 18.457 C 91.9922 18.457 116.113 -5.61523 116.113 -35.2051 C 116.113 -64.7949 91.9922 -88.8672 62.4023 -88.8672 C 32.8125 -88.8672 8.74023 -64.7949 8.74023 -35.2051 C 8.74023 -5.61523 32.8125 18.457 62.4023 18.457 Z M 80.8594 -16.2109 C 77.2949 -16.2109 75.6348 -18.2129 75.6348 -22.4121 L 75.6348 -41.6504 L 75.4883 -41.6504 L 74.0234 -39.8926 C 72.8516 -38.3789 71.7773 -37.6465 69.9707 -37.6465 C 67.627 -37.6465 65.918 -39.5508 65.918 -41.7969 C 65.918 -43.7988 66.6504 -45.2637 68.75 -47.2168 L 72.7539 -51.1719 C 75.3906 -53.7598 77.1973 -54.3457 79.3457 -54.3457 C 83.8379 -54.3457 85.9863 -51.7578 85.9863 -47.2168 L 85.9863 -22.4121 C 85.9863 -18.2129 84.375 -16.2109 80.8594 -16.2109 Z M 54.8828 -16.2109 C 52.1973 -16.2109 50.3418 -18.0176 50.3418 -20.6543 L 50.3418 -22.998 L 42.5781 -22.998 C 38.4766 -22.998 36.3281 -25.2441 36.3281 -29.1504 C 36.3281 -31.5918 36.9629 -33.8379 37.6465 -35.8398 C 38.5742 -38.9648 40.7227 -44.5801 42.5293 -48.291 C 44.4824 -52.3926 47.168 -54.2969 51.8066 -54.2969 C 57.0801 -54.2969 59.5215 -51.2207 59.5215 -46.1426 L 59.5215 -31.8848 L 59.9121 -31.8848 C 62.5488 -31.8848 63.9648 -30.0781 63.9648 -27.3926 C 63.9648 -24.7559 62.5488 -23.1445 59.9121 -23.1445 L 59.5215 -23.1445 L 59.5215 -20.6543 C 59.5215 -18.0176 57.6172 -16.2109 54.8828 -16.2109 Z M 50.3418 -31.7871 L 50.3418 -44.7266 L 50.2441 -44.7266 C 49.0234 -41.3086 46.9727 -34.8633 46.0449 -31.9824 L 46.0449 -31.7871 Z"/>
  </g>
  <g id="Heavy-M" transform="matrix(1 0 0 1 2575.19 1126)">
   <path d="M 61.5234 17.5781 C 90.5273 17.5781 114.258 -6.15234 114.258 -35.2051 C 114.258 -64.2578 90.5273 -87.9883 61.4746 -87.9883 C 32.4707 -87.9883 8.74023 -64.2578 8.74023 -35.2051 C 8.74023 -6.15234 32.4707 17.5781 61.5234 17.5781 Z M 53.9551 -15.5273 C 51.4648 -15.5273 49.8047 -17.2363 49.8047 -19.7266 L 49.8047 -22.9492 L 40.332 -22.9492 C 36.5723 -22.9492 34.5215 -25.0488 34.5215 -28.6621 C 34.5215 -30.8594 35.0586 -32.8613 35.791 -34.7656 C 37.3535 -38.5742 40.1855 -44.9707 42.5781 -49.5117 C 44.4336 -53.2715 46.9238 -55.0293 51.1719 -55.0293 C 55.9082 -55.0293 58.252 -52.2461 58.252 -47.6562 L 58.252 -31.1035 L 59.2285 -31.1035 C 61.6699 -31.1035 63.0371 -29.4434 63.0371 -26.9531 C 63.0371 -24.5117 61.6699 -23.0469 59.2285 -23.0469 L 58.252 -23.0469 L 58.252 -19.7266 C 58.252 -17.2363 56.5918 -15.5273 53.9551 -15.5273 Z M 80.5176 -15.625 C 77.2949 -15.625 75.7812 -17.4316 75.7812 -21.1426 L 75.7812 -43.3594 L 75.5859 -43.3594 L 73.1934 -41.0645 C 72.0215 -39.6973 71.0449 -39.1113 69.4824 -39.1113 C 67.334 -39.1113 65.6738 -40.918 65.6738 -43.0176 C 65.6738 -44.873 66.4062 -46.1914 68.2617 -47.8516 L 73.1934 -52.1484 C 75.5859 -54.3945 77.2461 -54.9805 79.248 -54.9805 C 83.1543 -54.9805 85.2051 -52.6367 85.2051 -48.6328 L 85.2051 -21.1426 C 85.2051 -17.4316 83.6426 -15.625 80.5176 -15.625 Z M 49.8047 -31.0059 L 49.8047 -46.0938 L 49.6582 -46.0938 C 47.7539 -41.7969 44.9707 -34.7656 43.5059 -31.2012 L 43.5059 -31.0059 Z"/>
  </g>
  <g id="Bold-M" transform="matrix(1 0 0 1 2279.5 1126)">
   <path d="M 60.498 16.5039 C 88.8672 16.5039 112.207 -6.78711 112.207 -35.2051 C 112.207 -63.623 88.8672 -86.9629 60.4492 -86.9629 C 32.0312 -86.9629 8.74023 -63.623 8.74023 -35.2051 C 8.74023 -6.78711 32.0801 16.5039 60.498 16.5039 Z M 52.9785 -14.7461 C 50.6348 -14.7461 49.2188 -16.3574 49.2188 -18.6523 L 49.2188 -22.8516 L 37.8418 -22.8516 C 34.4727 -22.8516 32.5195 -24.8047 32.5195 -28.125 C 32.5195 -30.0293 32.959 -31.7383 33.7402 -33.5449 C 35.9375 -38.1836 39.5996 -45.4102 42.627 -50.8789 C 44.4336 -54.2969 46.6797 -55.8105 50.4883 -55.8105 C 54.6387 -55.8105 56.8848 -53.3203 56.8848 -49.3164 L 56.8848 -30.1758 L 58.4961 -30.1758 C 60.6445 -30.1758 61.9629 -28.7598 61.9629 -26.5137 C 61.9629 -24.2676 60.6445 -22.9492 58.4961 -22.9492 L 56.8848 -22.9492 L 56.8848 -18.6523 C 56.8848 -16.3574 55.3711 -14.7461 52.9785 -14.7461 Z M 80.0781 -14.9414 C 77.3438 -14.9414 75.8789 -16.6504 75.8789 -19.7266 L 75.8789 -45.2637 L 75.6836 -45.2637 L 72.2168 -42.3828 C 71.0449 -41.1621 70.2637 -40.7227 68.8965 -40.7227 C 67.041 -40.7227 65.4297 -42.3828 65.4297 -44.3848 C 65.4297 -46.0449 66.1133 -47.2168 67.6758 -48.584 L 73.6328 -53.2227 C 75.8301 -55.127 77.2461 -55.6641 79.1504 -55.6641 C 82.4707 -55.6641 84.2773 -53.6133 84.2773 -50.2441 L 84.2773 -19.7266 C 84.2773 -16.6504 82.8613 -14.9414 80.0781 -14.9414 Z M 49.2188 -30.127 L 49.2188 -47.6074 L 48.9746 -47.6074 C 46.3379 -42.3828 42.6758 -34.668 40.7227 -30.3223 L 40.7227 -30.127 Z"/>
  </g>
  <g id="Semibold-M" transform="matrix(1 0 0 1 1983.5 1126)">
   <path d="M 59.7656 15.8203 C 87.7441 15.8203 110.791 -7.22656 110.791 -35.2051 C 110.791 -63.1836 87.6953 -86.2793 59.7656 -86.2793 C 31.7871 -86.2793 8.74023 -63.1836 8.74023 -35.2051 C 8.74023 -7.22656 31.7871 15.8203 59.7656 15.8203 Z M 52.2949 -14.209 C 50.0977 -14.209 48.7793 -15.7715 48.7793 -17.9688 L 48.7793 -22.8027 L 36.1328 -22.8027 C 33.0078 -22.8027 31.1035 -24.6094 31.1035 -27.7344 C 31.1035 -29.4922 31.4941 -30.957 32.2754 -32.7148 C 34.9609 -37.8906 39.209 -45.7031 42.6758 -51.8066 C 44.3848 -55.0293 46.5332 -56.3965 50.0488 -56.3965 C 53.7109 -56.3965 55.9082 -54.1016 55.9082 -50.4883 L 55.9082 -29.541 L 57.959 -29.541 C 59.9609 -29.541 61.1816 -28.2715 61.1816 -26.1719 C 61.1816 -24.0723 59.9609 -22.8516 57.959 -22.8516 L 55.9082 -22.8516 L 55.9082 -17.9688 C 55.9082 -15.7227 54.5898 -14.209 52.2949 -14.209 Z M 79.7852 -14.502 C 77.3438 -14.502 75.9766 -16.0645 75.9766 -18.75 L 75.9766 -46.582 L 75.7324 -46.582 L 71.5332 -43.2617 C 70.3613 -42.1387 69.6777 -41.8945 68.5059 -41.8945 C 66.7969 -41.8945 65.2344 -43.4082 65.2344 -45.3125 C 65.2344 -46.875 65.918 -47.9492 67.334 -49.0723 L 73.9258 -53.9551 C 75.9766 -55.6641 77.2461 -56.1523 79.1016 -56.1523 C 81.9824 -56.1523 83.6426 -54.2969 83.6426 -51.3672 L 83.6426 -18.75 C 83.6426 -16.0645 82.2754 -14.502 79.7852 -14.502 Z M 48.7793 -29.541 L 48.7793 -48.6328 L 48.5352 -48.6328 C 45.3613 -42.7734 41.1133 -34.6191 38.7695 -29.7363 L 38.7695 -29.541 Z"/>
  </g>
  <g id="Medium-M" transform="matrix(1 0 0 1 1687.3 1126)">
   <path d="M 59.2285 15.2832 C 86.9141 15.2832 109.766 -7.56836 109.766 -35.2051 C 109.766 -62.8906 86.8652 -85.7422 59.1797 -85.7422 C 31.543 -85.7422 8.74023 -62.8906 8.74023 -35.2051 C 8.74023 -7.56836 31.5918 15.2832 59.2285 15.2832 Z M 51.7578 -13.7695 C 49.6582 -13.7695 48.4863 -15.332 48.4863 -17.4316 L 48.4863 -22.8027 L 34.8145 -22.8027 C 31.9336 -22.8027 30.0781 -24.5117 30.0781 -27.4902 C 30.0781 -29.0527 30.4199 -30.3711 31.2012 -32.0312 C 34.2285 -37.6465 38.8672 -45.8984 42.7246 -52.4902 C 44.3848 -55.5176 46.3867 -56.7871 49.6582 -56.7871 C 53.0273 -56.7871 55.1758 -54.6875 55.1758 -51.3672 L 55.1758 -29.1016 L 57.5684 -29.1016 C 59.4238 -29.1016 60.6445 -27.8809 60.6445 -25.9277 C 60.6445 -23.9746 59.4727 -22.8027 57.5684 -22.8027 L 55.1758 -22.8027 L 55.1758 -17.4316 C 55.1758 -15.2832 53.9551 -13.7695 51.7578 -13.7695 Z M 79.5898 -14.1602 C 77.3926 -14.1602 76.0254 -15.625 76.0254 -18.0176 L 76.0254 -47.5586 L 75.7812 -47.5586 L 71.0449 -43.9453 C 69.873 -42.9199 69.2383 -42.7246 68.2129 -42.7246 C 66.6016 -42.7246 65.1367 -44.1895 65.1367 -46.0449 C 65.1367 -47.4609 65.7715 -48.4863 67.041 -49.4629 L 74.1699 -54.541 C 76.0742 -56.0059 77.2461 -56.543 79.0527 -56.543 C 81.5918 -56.543 83.2031 -54.834 83.2031 -52.1973 L 83.2031 -18.0176 C 83.2031 -15.625 81.8359 -14.1602 79.5898 -14.1602 Z M 48.4863 -29.0527 L 48.4863 -49.4141 L 48.1934 -49.4141 C 44.6289 -43.0664 39.9414 -34.5703 37.3047 -29.2969 L 37.3047 -29.0527 Z"/>
  </g>
  <g id="Regular-M" transform="matrix(1 0 0 1 1391.3 1126)">
   <path d="M 58.5449 14.5508 C 85.791 14.5508 108.35 -8.00781 108.35 -35.2539 C 108.35 -62.4512 85.7422 -85.0586 58.4961 -85.0586 C 31.2988 -85.0586 8.74023 -62.4512 8.74023 -35.2539 C 8.74023 -8.00781 31.3477 14.5508 58.5449 14.5508 Z M 51.0742 -13.2324 C 49.1211 -13.2324 48.0469 -14.6973 48.0469 -16.6992 L 48.0469 -22.7539 L 33.1055 -22.7539 C 30.4688 -22.7539 28.7109 -24.3164 28.7109 -27.0996 C 28.7109 -28.5156 28.9551 -29.6387 29.7852 -31.2012 C 33.3008 -37.3535 38.4766 -46.1914 42.7246 -53.418 C 44.3848 -56.25 46.1914 -57.3242 49.2188 -57.3242 C 52.1484 -57.3242 54.248 -55.4199 54.248 -52.5391 L 54.248 -28.4668 L 57.0312 -28.4668 C 58.7891 -28.4668 59.9121 -27.3926 59.9121 -25.5859 C 59.9121 -23.7793 58.7891 -22.7539 57.0312 -22.7539 L 54.248 -22.7539 L 54.248 -16.6992 C 54.248 -14.6484 53.1738 -13.2324 51.0742 -13.2324 Z M 79.2969 -13.7207 C 77.3926 -13.7207 76.123 -15.0391 76.123 -17.041 L 76.123 -48.877 L 75.8301 -48.877 L 70.4102 -44.8242 C 69.2383 -43.8965 68.7012 -43.8477 67.8711 -43.8477 C 66.4062 -43.8477 64.9414 -45.2148 64.9414 -46.9727 C 64.9414 -48.291 65.5762 -49.2188 66.6504 -49.9512 L 74.4629 -55.2734 C 76.2695 -56.4941 77.2461 -57.0312 78.9551 -57.0312 C 81.1035 -57.0312 82.5684 -55.5176 82.5684 -53.3203 L 82.5684 -17.041 C 82.5684 -15.0391 81.2988 -13.7207 79.2969 -13.7207 Z M 48.0469 -28.4668 L 48.0469 -50.4395 L 47.7539 -50.4395 C 43.7012 -43.457 38.3789 -34.4727 35.4004 -28.7109 L 35.4004 -28.4668 Z"/>
  </g>
  <g id="Light-M" transform="matrix(1 0 0 1 1095.42 1126)">
   <path d="M 57.7148 13.7695 C 84.5215 13.7695 106.689 -8.39844 106.689 -35.2051 C 106.689 -62.0117 84.5215 -84.1797 57.666 -84.1797 C 30.8594 -84.1797 8.74023 -62.0117 8.74023 -35.2051 C 8.74023 -8.39844 30.9082 13.7695 57.7148 13.7695 Z M 50.3418 -13.623 C 48.8281 -13.623 47.9004 -14.7461 47.9004 -16.3574 L 47.9004 -23.4375 L 31.8359 -23.4375 C 29.6387 -23.4375 28.1738 -24.707 28.1738 -27.002 C 28.1738 -28.0762 28.418 -29.0527 29.0527 -30.2246 C 32.666 -36.2793 39.4043 -47.1191 43.6035 -53.9062 C 44.9707 -56.2012 46.4844 -57.0801 48.8281 -57.0801 C 51.2207 -57.0801 52.8809 -55.5176 52.8809 -53.1738 L 52.8809 -28.0762 L 56.6895 -28.0762 C 58.0566 -28.0762 58.9844 -27.1973 58.9844 -25.7324 C 58.9844 -24.2676 58.1055 -23.4375 56.6895 -23.4375 L 52.8809 -23.4375 L 52.8809 -16.3574 C 52.8809 -14.6973 52.002 -13.623 50.3418 -13.623 Z M 78.2227 -13.916 C 76.7578 -13.916 75.6836 -14.9902 75.6836 -16.5527 L 75.6836 -50.2441 L 75.4395 -50.2441 L 68.6523 -45.459 C 67.7734 -44.8242 67.4316 -44.7754 66.748 -44.7754 C 65.5273 -44.7754 64.4043 -45.8984 64.4043 -47.2168 C 64.4043 -48.291 64.8926 -49.0234 65.7715 -49.6094 L 74.4629 -55.4199 C 75.7812 -56.3477 76.6113 -56.7383 77.9297 -56.7383 C 79.6875 -56.7383 80.8594 -55.5664 80.8594 -53.8086 L 80.8594 -16.5527 C 80.8594 -14.9902 79.834 -13.916 78.2227 -13.916 Z M 47.9004 -28.0762 L 47.9004 -51.4648 L 47.6562 -51.4648 C 43.8965 -45.3125 36.5234 -33.6426 33.5938 -28.2715 L 33.5938 -28.0762 Z"/>
  </g>
  <g id="Thin-M" transform="matrix(1 0 0 1 799.806 1126)">
   <path d="M 56.6406 12.7441 C 82.9102 12.7441 104.492 -8.83789 104.492 -35.1562 C 104.492 -61.4746 82.9102 -83.0566 56.5918 -83.0566 C 30.3223 -83.0566 8.74023 -61.4746 8.74023 -35.1562 C 8.74023 -8.83789 30.3223 12.7441 56.6406 12.7441 Z M 49.3652 -14.1113 C 48.3887 -14.1113 47.6562 -14.7949 47.6562 -15.8691 L 47.6562 -24.3652 L 30.2246 -24.3652 C 28.5156 -24.3652 27.4414 -25.1953 27.4414 -26.8066 C 27.4414 -27.5391 27.6855 -28.2715 28.0273 -28.9551 C 31.8848 -34.8633 40.625 -48.291 44.7754 -54.5898 C 45.752 -56.1523 46.7773 -56.6895 48.3398 -56.6895 C 49.9512 -56.6895 51.0254 -55.7129 51.0254 -54.1016 L 51.0254 -27.5879 L 56.2012 -27.5879 C 57.1289 -27.5879 57.8125 -26.8555 57.8125 -25.9277 C 57.8125 -24.9512 57.1777 -24.3652 56.2012 -24.3652 L 51.0254 -24.3652 L 51.0254 -15.8691 C 51.0254 -14.7949 50.4883 -14.1113 49.3652 -14.1113 Z M 76.8555 -14.209 C 75.8789 -14.209 75.1465 -14.8926 75.1465 -15.918 L 75.1465 -52.002 L 74.9512 -52.002 L 66.3574 -46.3379 C 65.918 -46.0449 65.7227 -46.0449 65.2832 -46.0449 C 64.4043 -46.0449 63.6719 -46.7285 63.6719 -47.6074 C 63.6719 -48.291 63.9648 -48.7793 64.5996 -49.1699 L 74.4629 -55.6641 C 75.1953 -56.1523 75.7812 -56.3965 76.6113 -56.3965 C 77.7344 -56.3965 78.5645 -55.6152 78.5645 -54.4434 L 78.5645 -15.918 C 78.5645 -14.8926 77.9297 -14.209 76.8555 -14.209 Z M 47.6562 -27.5879 L 47.6562 -52.832 L 47.5098 -52.832 C 44.1406 -47.7051 34.082 -32.5684 31.25 -27.7344 L 31.25 -27.5879 Z"/>
  </g>
  <g id="Ultralight-M" transform="matrix(1 0 0 1 503.656 1126)">
   <path d="M 56.0547 12.207 C 82.0801 12.207 103.369 -9.08203 103.369 -35.1562 C 103.369 -61.1816 82.0801 -82.4707 56.0547 -82.4707 C 30.0293 -82.4707 8.74023 -61.1816 8.74023 -35.1562 C 8.74023 -9.08203 30.0293 12.207 56.0547 12.207 Z M 48.8281 -14.3555 C 48.1934 -14.3555 47.5586 -14.8438 47.5586 -15.625 L 47.5586 -24.8047 L 29.3457 -24.8047 C 27.9297 -24.8047 27.0996 -25.4395 27.0996 -26.709 C 27.0996 -27.2461 27.2949 -27.8809 27.5391 -28.2715 C 31.4453 -34.1309 41.2598 -48.877 45.3613 -54.9316 C 46.1914 -56.1523 46.9727 -56.4941 48.0957 -56.4941 C 49.3164 -56.4941 50.0977 -55.7617 50.0977 -54.541 L 50.0977 -27.3438 L 55.957 -27.3438 C 56.6406 -27.3438 57.1777 -26.709 57.1777 -26.0254 C 57.1777 -25.293 56.6895 -24.8047 55.957 -24.8047 L 50.0977 -24.8047 L 50.0977 -15.625 C 50.0977 -14.8438 49.707 -14.3555 48.8281 -14.3555 Z M 76.123 -14.3066 C 75.4395 -14.3066 74.8535 -14.7949 74.8535 -15.625 L 74.8535 -52.9297 L 74.6582 -52.9297 L 65.1855 -46.7773 C 64.9414 -46.6309 64.8438 -46.6309 64.502 -46.6309 C 63.8672 -46.6309 63.3301 -47.2168 63.3301 -47.8027 C 63.3301 -48.291 63.4766 -48.6328 63.9648 -48.9746 L 74.4141 -55.7617 C 74.9023 -56.0547 75.3418 -56.2012 75.9277 -56.2012 C 76.7578 -56.2012 77.3926 -55.6641 77.3926 -54.7852 L 77.3926 -15.625 C 77.3926 -14.7949 76.9531 -14.3066 76.123 -14.3066 Z M 47.5586 -27.3438 L 47.5586 -53.5156 L 47.4609 -53.5156 C 44.2871 -48.9258 32.8125 -32.0312 30.0293 -27.4414 L 30.0293 -27.3438 Z"/>
  </g>
  <g id="Black-S" transform="matrix(1 0 0 1 2884.57 696)">
   <path d="M 48.8281 6.78711 C 71.9727 6.78711 90.8203 -12.0605 90.8203 -35.2051 C 90.8203 -58.3496 71.9727 -77.1973 48.8281 -77.1973 C 25.6836 -77.1973 6.83594 -58.3496 6.83594 -35.2051 C 6.83594 -12.0605 25.6836 6.78711 48.8281 6.78711 Z M 42.9199 -20.2637 C 40.8203 -20.2637 39.4043 -21.6797 39.4043 -23.7305 L 39.4043 -25.6348 L 33.2031 -25.6348 C 29.9805 -25.6348 28.3203 -27.3926 28.3203 -30.4199 C 28.3203 -32.3242 28.8086 -34.082 29.3457 -35.6445 C 30.127 -38.1348 31.8359 -42.5781 33.3008 -45.5566 C 34.8145 -48.7305 36.9141 -50.2441 40.5273 -50.2441 C 44.6289 -50.2441 46.5332 -47.8516 46.5332 -43.8965 L 46.5332 -32.5684 L 46.875 -32.5684 C 48.9258 -32.5684 50.0488 -31.1523 50.0488 -29.0527 C 50.0488 -27.002 48.9258 -25.7324 46.875 -25.7324 L 46.5332 -25.7324 L 46.5332 -23.7305 C 46.5332 -21.6797 45.0684 -20.2637 42.9199 -20.2637 Z M 63.3301 -20.2637 C 60.5469 -20.2637 59.2773 -21.8262 59.2773 -25.0977 L 59.2773 -40.3809 L 59.1309 -40.3809 L 57.959 -38.9648 C 57.0312 -37.793 56.2012 -37.207 54.7852 -37.207 C 52.9785 -37.207 51.6113 -38.7207 51.6113 -40.4785 C 51.6113 -42.041 52.1973 -43.1641 53.8086 -44.6777 L 57.0312 -47.8027 C 59.082 -49.8047 60.498 -50.2441 62.1582 -50.2441 C 65.625 -50.2441 67.334 -48.2422 67.334 -44.7266 L 67.334 -25.0977 C 67.334 -21.8262 66.0645 -20.2637 63.3301 -20.2637 Z M 39.4043 -32.4707 L 39.4043 -42.7734 L 39.3066 -42.7734 C 38.2812 -39.9902 36.6699 -34.9609 35.8887 -32.6172 L 35.8887 -32.4707 Z"/>
  </g>
  <g id="Heavy-S" transform="matrix(1 0 0 1 2588.47 696)">
   <path d="M 48.2422 6.15234 C 70.9961 6.15234 89.5996 -12.4512 89.5996 -35.2051 C 89.5996 -57.959 70.9961 -76.6113 48.1934 -76.6113 C 25.4395 -76.6113 6.83594 -57.959 6.83594 -35.2051 C 6.83594 -12.4512 25.4395 6.15234 48.2422 6.15234 Z M 42.334 -19.6777 C 40.2832 -19.6777 39.0137 -21.0938 39.0137 -23.0469 L 39.0137 -25.4883 L 31.6406 -25.4883 C 28.6133 -25.4883 27.002 -27.1973 27.002 -30.0781 C 27.002 -31.8359 27.4414 -33.3984 28.0273 -34.9121 C 29.248 -37.9883 31.3477 -42.7734 33.252 -46.4355 C 34.7168 -49.4141 36.7188 -50.8301 40.0879 -50.8301 C 43.8477 -50.8301 45.752 -48.584 45.752 -44.9707 L 45.752 -31.9824 L 46.3867 -31.9824 C 48.3398 -31.9824 49.4141 -30.7129 49.4141 -28.7109 C 49.4141 -26.7578 48.3398 -25.5859 46.3867 -25.5859 L 45.752 -25.5859 L 45.752 -23.0469 C 45.752 -21.0938 44.3848 -19.6777 42.334 -19.6777 Z M 63.1836 -19.7754 C 60.6445 -19.7754 59.4238 -21.2891 59.4238 -24.1699 L 59.4238 -41.5527 L 59.2285 -41.5527 L 57.4707 -39.7949 C 56.543 -38.6719 55.7617 -38.2324 54.541 -38.2324 C 52.832 -38.2324 51.5137 -39.6484 51.5137 -41.3574 C 51.5137 -42.8711 52.0996 -43.8965 53.5156 -45.2148 L 57.3242 -48.5352 C 59.2773 -50.3418 60.5957 -50.7812 62.207 -50.7812 C 65.2832 -50.7812 66.8945 -48.9258 66.8945 -45.752 L 66.8945 -24.1699 C 66.8945 -21.2891 65.6738 -19.7754 63.1836 -19.7754 Z M 39.0137 -31.9336 L 39.0137 -43.7012 L 38.8672 -43.7012 C 37.3047 -40.1855 35.3027 -34.9609 34.1797 -32.0801 L 34.1797 -31.9336 Z"/>
  </g>
  <g id="Bold-S" transform="matrix(1 0 0 1 2292.44 696)">
   <path d="M 47.5586 5.46875 C 69.873 5.46875 88.2324 -12.8906 88.2324 -35.2051 C 88.2324 -57.5684 69.873 -75.9277 47.5098 -75.9277 C 25.1953 -75.9277 6.83594 -57.5684 6.83594 -35.2051 C 6.83594 -12.8906 25.1953 5.46875 47.5586 5.46875 Z M 41.6504 -19.043 C 39.7461 -19.043 38.5742 -20.4102 38.5742 -22.3145 L 38.5742 -25.3906 L 29.8828 -25.3906 C 27.1484 -25.3906 25.5371 -26.9531 25.5371 -29.6875 C 25.5371 -31.25 25.8789 -32.6172 26.5137 -34.082 C 28.2715 -37.793 30.7617 -42.9688 33.1543 -47.4121 C 34.6191 -50.1953 36.4746 -51.4648 39.5996 -51.4648 C 42.9688 -51.4648 44.8242 -49.4141 44.8242 -46.1914 L 44.8242 -31.3477 L 45.8496 -31.3477 C 47.6562 -31.3477 48.7305 -30.1758 48.7305 -28.3203 C 48.7305 -26.5137 47.6562 -25.4395 45.8496 -25.4395 L 44.8242 -25.4395 L 44.8242 -22.3145 C 44.8242 -20.4102 43.6523 -19.043 41.6504 -19.043 Z M 62.9883 -19.2871 C 60.7422 -19.2871 59.5703 -20.6543 59.5703 -23.1445 L 59.5703 -42.8223 L 59.375 -42.8223 L 56.9824 -40.7227 C 55.957 -39.6973 55.3223 -39.3555 54.248 -39.3555 C 52.6855 -39.3555 51.3672 -40.7227 51.3672 -42.3828 C 51.3672 -43.75 51.9531 -44.7266 53.2227 -45.8008 L 57.666 -49.3164 C 59.5215 -50.8789 60.6445 -51.3672 62.2559 -51.3672 C 64.9414 -51.3672 66.4062 -49.6582 66.4062 -46.9238 L 66.4062 -23.1445 C 66.4062 -20.6543 65.2344 -19.2871 62.9883 -19.2871 Z M 38.5742 -31.2988 L 38.5742 -44.7266 L 38.3789 -44.7266 C 36.1816 -40.3809 33.8379 -35.0098 32.2266 -31.4453 L 32.2266 -31.2988 Z"/>
  </g>
  <g id="Semibold-S" transform="matrix(1 0 0 1 1996.2 696)">
   <path d="M 47.0703 4.98047 C 69.0918 4.98047 87.3047 -13.1836 87.3047 -35.2539 C 87.3047 -57.2754 69.0918 -75.4883 47.0215 -75.4883 C 25 -75.4883 6.83594 -57.2754 6.83594 -35.2539 C 6.83594 -13.1836 25.0488 4.98047 47.0703 4.98047 Z M 41.1621 -18.6035 C 39.3066 -18.6035 38.2324 -19.9707 38.2324 -21.7773 L 38.2324 -25.293 L 28.6621 -25.293 C 26.0742 -25.293 24.5117 -26.8066 24.5117 -29.3945 C 24.5117 -30.8594 24.8047 -32.0801 25.4883 -33.5449 C 27.5879 -37.6465 30.3711 -43.1152 33.1055 -48.0957 C 34.5703 -50.7812 36.3281 -51.9043 39.3066 -51.9043 C 42.3828 -51.9043 44.2383 -50 44.2383 -47.0215 L 44.2383 -30.9082 L 45.5078 -30.9082 C 47.168 -30.9082 48.2422 -29.834 48.2422 -28.0762 C 48.2422 -26.3184 47.168 -25.293 45.5078 -25.293 L 44.2383 -25.293 L 44.2383 -21.7773 C 44.2383 -19.9219 43.1152 -18.6035 41.1621 -18.6035 Z M 62.8418 -18.8965 C 60.791 -18.8965 59.668 -20.2148 59.668 -22.4609 L 59.668 -43.7012 L 59.4727 -43.7012 L 56.5918 -41.3086 C 55.5664 -40.3809 54.9805 -40.1855 54.0527 -40.1855 C 52.5879 -40.1855 51.2695 -41.4551 51.2695 -43.0664 C 51.2695 -44.3848 51.8555 -45.2637 53.0273 -46.1914 L 57.9102 -49.9023 C 59.668 -51.2695 60.7422 -51.7578 62.3047 -51.7578 C 64.6973 -51.7578 66.0645 -50.1953 66.0645 -47.7539 L 66.0645 -22.4609 C 66.0645 -20.2148 64.8926 -18.8965 62.8418 -18.8965 Z M 38.2324 -30.8594 L 38.2324 -45.4102 L 38.0371 -45.4102 C 35.4492 -40.5273 32.7637 -35.0098 30.9082 -31.0547 L 30.9082 -30.8594 Z"/>
  </g>
  <g id="Medium-S" transform="matrix(1 0 0 1 1699.83 696)">
   <path d="M 46.7285 4.63867 C 68.5547 4.63867 86.6211 -13.4277 86.6211 -35.2539 C 86.6211 -57.0312 68.5059 -75.1465 46.6797 -75.1465 C 24.8535 -75.1465 6.83594 -57.0312 6.83594 -35.2539 C 6.83594 -13.4277 24.9023 4.63867 46.7285 4.63867 Z M 40.8203 -18.2617 C 39.0137 -18.2617 38.0371 -19.5801 38.0371 -21.3867 L 38.0371 -25.1953 L 27.7344 -25.1953 C 25.293 -25.1953 23.7305 -26.6602 23.7305 -29.1992 C 23.7305 -30.5664 24.0234 -31.6406 24.707 -33.1055 C 27.0508 -37.5488 30.0781 -43.2617 33.1055 -48.584 C 34.5215 -51.1719 36.2305 -52.2461 39.0625 -52.2461 C 41.8945 -52.2461 43.75 -50.4395 43.75 -47.6074 L 43.75 -30.5664 L 45.2148 -30.5664 C 46.8262 -30.5664 47.8516 -29.541 47.8516 -27.8809 C 47.8516 -26.1719 46.8262 -25.2441 45.2148 -25.2441 L 43.75 -25.2441 L 43.75 -21.3867 C 43.75 -19.5801 42.7246 -18.2617 40.8203 -18.2617 Z M 62.7441 -18.6523 C 60.8887 -18.6523 59.7656 -19.873 59.7656 -21.9238 L 59.7656 -44.3848 L 59.5215 -44.3848 L 56.3477 -41.7969 C 55.2734 -40.918 54.7363 -40.7715 53.9062 -40.7715 C 52.4902 -40.7715 51.2207 -41.9922 51.2207 -43.6035 C 51.2207 -44.8242 51.8066 -45.7031 52.832 -46.5332 L 58.1055 -50.293 C 59.7656 -51.6113 60.791 -52.0508 62.3047 -52.0508 C 64.502 -52.0508 65.8203 -50.5859 65.8203 -48.3398 L 65.8203 -21.9238 C 65.8203 -19.873 64.6973 -18.6523 62.7441 -18.6523 Z M 38.0371 -30.5176 L 38.0371 -45.9473 L 37.793 -45.9473 C 34.8633 -40.6738 31.9824 -35.0098 29.8828 -30.7129 L 29.8828 -30.5176 Z"/>
  </g>
  <g id="Regular-S" transform="matrix(1 0 0 1 1403.58 696)">
   <path d="M 46.2402 4.15039 C 67.7734 4.15039 85.6934 -13.7207 85.6934 -35.2539 C 85.6934 -56.7871 67.7246 -74.6582 46.1914 -74.6582 C 24.707 -74.6582 6.83594 -56.7871 6.83594 -35.2539 C 6.83594 -13.7207 24.7559 4.15039 46.2402 4.15039 Z M 40.3809 -17.8223 C 38.623 -17.8223 37.6953 -19.1406 37.6953 -20.8984 L 37.6953 -25.0977 L 26.5137 -25.0977 C 24.2676 -25.0977 22.7051 -26.5137 22.7051 -28.9551 C 22.7051 -30.1758 22.9492 -31.1035 23.7305 -32.5684 C 26.3672 -37.4512 29.6875 -43.4082 33.0566 -49.2676 C 34.4727 -51.709 36.084 -52.6855 38.7207 -52.6855 C 41.3086 -52.6855 43.1641 -50.9766 43.1641 -48.4375 L 43.1641 -30.127 L 44.873 -30.127 C 46.3867 -30.127 47.3633 -29.1992 47.3633 -27.5879 C 47.3633 -26.0254 46.3867 -25.0977 44.873 -25.0977 L 43.1641 -25.0977 L 43.1641 -20.8984 C 43.1641 -19.0918 42.1875 -17.8223 40.3809 -17.8223 Z M 62.6465 -18.3105 C 60.9375 -18.3105 59.8633 -19.4824 59.8633 -21.1914 L 59.8633 -45.2637 L 59.6191 -45.2637 L 55.957 -42.4316 C 54.8828 -41.6016 54.4434 -41.5527 53.6621 -41.5527 C 52.3926 -41.5527 51.123 -42.7246 51.123 -44.2871 C 51.123 -45.459 51.709 -46.2402 52.6367 -46.9238 L 58.3496 -50.8789 C 59.9609 -52.002 60.8398 -52.4414 62.3535 -52.4414 C 64.209 -52.4414 65.5273 -51.0742 65.5273 -49.1699 L 65.5273 -21.1914 C 65.5273 -19.4824 64.3555 -18.3105 62.6465 -18.3105 Z M 37.6953 -30.127 L 37.6953 -46.6309 L 37.4512 -46.6309 C 34.1309 -40.8203 30.957 -35.0098 28.5645 -30.3223 L 28.5645 -30.127 Z"/>
  </g>
  <g id="Light-S" transform="matrix(1 0 0 1 1107.6 696)">
   <path d="M 45.5078 3.4668 C 66.6992 3.4668 84.2285 -14.0625 84.2285 -35.2051 C 84.2285 -56.3965 66.6504 -73.9258 45.5078 -73.9258 C 24.3164 -73.9258 6.83594 -56.3965 6.83594 -35.2051 C 6.83594 -14.0625 24.3652 3.4668 45.5078 3.4668 Z M 39.6973 -18.1641 C 38.3301 -18.1641 37.5488 -19.1895 37.5488 -20.5566 L 37.5488 -25.7324 L 25.4395 -25.7324 C 23.5352 -25.7324 22.2656 -26.8555 22.2656 -28.8086 C 22.2656 -29.7852 22.4609 -30.6152 23.0469 -31.6895 C 25.8301 -36.4746 30.5176 -44.1895 33.8379 -49.707 C 35.0098 -51.6602 36.2793 -52.4414 38.3789 -52.4414 C 40.4785 -52.4414 41.9434 -51.0742 41.9434 -49.0234 L 41.9434 -29.7852 L 44.5312 -29.7852 C 45.752 -29.7852 46.582 -29.0039 46.582 -27.7344 C 46.582 -26.4648 45.752 -25.7324 44.5312 -25.7324 L 41.9434 -25.7324 L 41.9434 -20.5566 C 41.9434 -19.1406 41.1621 -18.1641 39.6973 -18.1641 Z M 61.6699 -18.457 C 60.3516 -18.457 59.4727 -19.3848 59.4727 -20.8008 L 59.4727 -46.4844 L 59.2773 -46.4844 L 54.4434 -43.0176 C 53.6621 -42.3828 53.2715 -42.3828 52.6855 -42.3828 C 51.6602 -42.3828 50.6348 -43.3105 50.6348 -44.5312 C 50.6348 -45.459 51.0742 -46.0938 51.8555 -46.6309 L 58.3496 -51.0254 C 59.5215 -51.8555 60.2539 -52.1973 61.4258 -52.1973 C 62.9395 -52.1973 63.9648 -51.123 63.9648 -49.6094 L 63.9648 -20.8008 C 63.9648 -19.3848 63.0859 -18.457 61.6699 -18.457 Z M 37.5488 -29.7852 L 37.5488 -47.5586 L 37.3535 -47.5586 C 34.2773 -42.4316 29.2969 -34.3262 27.002 -29.9316 L 27.002 -29.7852 Z"/>
  </g>
  <g id="Thin-S" transform="matrix(1 0 0 1 811.867 696)">
   <path d="M 44.5801 2.53906 C 65.2832 2.53906 82.2754 -14.4531 82.2754 -35.2051 C 82.2754 -55.9082 65.2344 -72.9004 44.5312 -72.9004 C 23.8281 -72.9004 6.83594 -55.9082 6.83594 -35.2051 C 6.83594 -14.4531 23.877 2.53906 44.5801 2.53906 Z M 38.8184 -18.5547 C 37.9883 -18.5547 37.4023 -19.1895 37.4023 -20.166 L 37.4023 -26.5137 L 23.9746 -26.5137 C 22.5586 -26.5137 21.6309 -27.2461 21.6309 -28.6621 C 21.6309 -29.2969 21.8262 -29.9316 22.168 -30.5664 C 25.0977 -35.2051 31.5918 -45.2148 34.8633 -50.2441 C 35.6934 -51.6602 36.5723 -52.0996 37.9883 -52.0996 C 39.3555 -52.0996 40.332 -51.2207 40.332 -49.8535 L 40.332 -29.3457 L 44.1406 -29.3457 C 44.9219 -29.3457 45.5078 -28.7598 45.5078 -27.9297 C 45.5078 -27.0508 44.9707 -26.5137 44.1406 -26.5137 L 40.332 -26.5137 L 40.332 -20.166 C 40.332 -19.1895 39.8438 -18.5547 38.8184 -18.5547 Z M 60.4492 -18.7012 C 59.6191 -18.7012 58.9844 -19.2871 58.9844 -20.2148 L 58.9844 -48.0469 L 58.7891 -48.0469 L 52.3926 -43.75 C 52.002 -43.457 51.8066 -43.457 51.416 -43.457 C 50.6836 -43.457 50 -44.0918 50 -44.873 C 50 -45.459 50.293 -45.8984 50.8301 -46.2402 L 58.3008 -51.1719 C 59.0332 -51.6602 59.5215 -51.8555 60.2539 -51.8555 C 61.2793 -51.8555 61.9629 -51.1719 61.9629 -50.1465 L 61.9629 -20.2148 C 61.9629 -19.2871 61.4258 -18.7012 60.4492 -18.7012 Z M 37.4023 -29.3457 L 37.4023 -48.7305 L 37.2559 -48.7305 C 34.5215 -44.5312 27.1484 -33.3496 24.9023 -29.4434 L 24.9023 -29.3457 Z"/>
  </g>
  <g id="Ultralight-S" transform="matrix(1 0 0 1 515.644 696)">
   <path d="M 44.043 2.05078 C 64.502 2.05078 81.2988 -14.6973 81.2988 -35.1562 C 81.2988 -55.6152 64.502 -72.3633 44.043 -72.3633 C 23.584 -72.3633 6.83594 -55.6152 6.83594 -35.1562 C 6.83594 -14.6973 23.584 2.05078 44.043 2.05078 Z M 38.3789 -18.7988 C 37.793 -18.7988 37.2559 -19.2383 37.2559 -19.9219 L 37.2559 -26.9531 L 23.2422 -26.9531 C 22.0215 -26.9531 21.2891 -27.4902 21.2891 -28.5645 C 21.2891 -29.0527 21.4844 -29.5898 21.6797 -29.9805 C 24.7559 -34.5703 32.1289 -45.752 35.4004 -50.5859 C 36.0352 -51.6113 36.7188 -51.9531 37.7441 -51.9531 C 38.8184 -51.9531 39.502 -51.3184 39.502 -50.2441 L 39.502 -29.1016 L 43.8965 -29.1016 C 44.4824 -29.1016 44.9707 -28.6133 44.9707 -28.0273 C 44.9707 -27.3926 44.5312 -26.9531 43.8965 -26.9531 L 39.502 -26.9531 L 39.502 -19.9219 C 39.502 -19.2383 39.1113 -18.7988 38.3789 -18.7988 Z M 59.8145 -18.7988 C 59.2285 -18.7988 58.6914 -19.2383 58.6914 -19.9219 L 58.6914 -48.8281 L 58.5449 -48.8281 L 51.3672 -44.1406 C 51.123 -43.9941 51.0254 -43.9941 50.7324 -43.9941 C 50.1465 -43.9941 49.707 -44.4824 49.707 -45.0195 C 49.707 -45.459 49.8535 -45.8008 50.293 -46.0449 L 58.3008 -51.3184 C 58.7402 -51.5625 59.1309 -51.709 59.668 -51.709 C 60.4004 -51.709 60.9375 -51.2207 60.9375 -50.4883 L 60.9375 -19.9219 C 60.9375 -19.2383 60.5469 -18.7988 59.8145 -18.7988 Z M 37.2559 -29.1016 L 37.2559 -49.3652 L 37.1582 -49.3652 C 34.6191 -45.6543 26.0254 -32.8613 23.8281 -29.1992 L 23.8281 -29.1016 Z"/>
  </g>
 </g>
</svg>
