<?xml version="1.0" encoding="UTF-8"?>
<!--Generator: Apple Native CoreSVG 123-->
<!DOCTYPE svg
PUBLIC "-//W3C//DTD SVG 1.1//EN"
       "http://www.w3.org/Graphics/SVG/1.1/DTD/svg11.dtd">
<svg version="1.1" xmlns="http://www.w3.org/2000/svg" xmlns:xlink="http://www.w3.org/1999/xlink" width="3300" height="2200">
 <!--glyph: "uni1006AC.medium", point size: 100.000000, font version: "Version 15.0d7e11", template writer version: "5"-->
 <g id="Notes">
  <rect height="2200" id="artboard" style="fill:white;opacity:1" width="3300" x="0" y="0"/>
  <line id="" style="fill:none;stroke:black;opacity:1;stroke-width:0.5;" x1="263" x2="3036" y1="292" y2="292"/>
  <text style="stroke:none;fill:black;font-family:-apple-system,&quot;SF Pro Display&quot;,&quot;SF Pro Text&quot;,Helvetica,sans-serif;font-weight:bold;" transform="matrix(1 0 0 1 263 322)">Weight/Scale Variations</text>
  <text style="stroke:none;fill:black;font-family:-apple-system,&quot;SF Pro Display&quot;,&quot;SF Pro Text&quot;,Helvetica,sans-serif;text-anchor:middle;" transform="matrix(1 0 0 1 559.711 322)">Ultralight</text>
  <text style="stroke:none;fill:black;font-family:-apple-system,&quot;SF Pro Display&quot;,&quot;SF Pro Text&quot;,Helvetica,sans-serif;text-anchor:middle;" transform="matrix(1 0 0 1 856.422 322)">Thin</text>
  <text style="stroke:none;fill:black;font-family:-apple-system,&quot;SF Pro Display&quot;,&quot;SF Pro Text&quot;,Helvetica,sans-serif;text-anchor:middle;" transform="matrix(1 0 0 1 1153.13 322)">Light</text>
  <text style="stroke:none;fill:black;font-family:-apple-system,&quot;SF Pro Display&quot;,&quot;SF Pro Text&quot;,Helvetica,sans-serif;text-anchor:middle;" transform="matrix(1 0 0 1 1449.84 322)">Regular</text>
  <text style="stroke:none;fill:black;font-family:-apple-system,&quot;SF Pro Display&quot;,&quot;SF Pro Text&quot;,Helvetica,sans-serif;text-anchor:middle;" transform="matrix(1 0 0 1 1746.56 322)">Medium</text>
  <text style="stroke:none;fill:black;font-family:-apple-system,&quot;SF Pro Display&quot;,&quot;SF Pro Text&quot;,Helvetica,sans-serif;text-anchor:middle;" transform="matrix(1 0 0 1 2043.27 322)">Semibold</text>
  <text style="stroke:none;fill:black;font-family:-apple-system,&quot;SF Pro Display&quot;,&quot;SF Pro Text&quot;,Helvetica,sans-serif;text-anchor:middle;" transform="matrix(1 0 0 1 2339.98 322)">Bold</text>
  <text style="stroke:none;fill:black;font-family:-apple-system,&quot;SF Pro Display&quot;,&quot;SF Pro Text&quot;,Helvetica,sans-serif;text-anchor:middle;" transform="matrix(1 0 0 1 2636.69 322)">Heavy</text>
  <text style="stroke:none;fill:black;font-family:-apple-system,&quot;SF Pro Display&quot;,&quot;SF Pro Text&quot;,Helvetica,sans-serif;text-anchor:middle;" transform="matrix(1 0 0 1 2933.4 322)">Black</text>
  <line id="" style="fill:none;stroke:black;opacity:1;stroke-width:0.5;" x1="263" x2="3036" y1="1903" y2="1903"/>
  <g id="" transform="matrix(1 0 0 1 263 1933)">
   <path d="M 9.24805 0.830078 C 13.5547 0.830078 17.1387 -2.74414 17.1387 -7.05078 C 17.1387 -11.3574 13.5449 -14.9316 9.23828 -14.9316 C 4.94141 -14.9316 1.36719 -11.3574 1.36719 -7.05078 C 1.36719 -2.74414 4.95117 0.830078 9.24805 0.830078 Z M 9.24805 -0.654297 C 5.70312 -0.654297 2.87109 -3.49609 2.87109 -7.05078 C 2.87109 -10.6055 5.69336 -13.4473 9.23828 -13.4473 C 12.793 -13.4473 15.6348 -10.6055 15.6445 -7.05078 C 15.6543 -3.49609 12.8027 -0.654297 9.24805 -0.654297 Z M 9.22852 -3.42773 C 9.69727 -3.42773 9.9707 -3.74023 9.9707 -4.25781 L 9.9707 -6.31836 L 12.1973 -6.31836 C 12.6953 -6.31836 13.0371 -6.57227 13.0371 -7.04102 C 13.0371 -7.51953 12.7148 -7.7832 12.1973 -7.7832 L 9.9707 -7.7832 L 9.9707 -10.0098 C 9.9707 -10.5273 9.69727 -10.8496 9.22852 -10.8496 C 8.75977 -10.8496 8.50586 -10.5078 8.50586 -10.0098 L 8.50586 -7.7832 L 6.29883 -7.7832 C 5.78125 -7.7832 5.44922 -7.51953 5.44922 -7.04102 C 5.44922 -6.57227 5.80078 -6.31836 6.29883 -6.31836 L 8.50586 -6.31836 L 8.50586 -4.25781 C 8.50586 -3.75977 8.75977 -3.42773 9.22852 -3.42773 Z"/>
  </g>
  <g id="" transform="matrix(1 0 0 1 281.506 1933)">
   <path d="M 11.709 2.91016 C 17.1582 2.91016 21.6699 -1.60156 21.6699 -7.05078 C 21.6699 -12.4902 17.1484 -17.0117 11.6992 -17.0117 C 6.25977 -17.0117 1.74805 -12.4902 1.74805 -7.05078 C 1.74805 -1.60156 6.26953 2.91016 11.709 2.91016 Z M 11.709 1.25 C 7.09961 1.25 3.41797 -2.44141 3.41797 -7.05078 C 3.41797 -11.6504 7.08984 -15.3516 11.6992 -15.3516 C 16.3086 -15.3516 20 -11.6504 20.0098 -7.05078 C 20.0195 -2.44141 16.3184 1.25 11.709 1.25 Z M 11.6895 -2.41211 C 12.207 -2.41211 12.5195 -2.77344 12.5195 -3.33984 L 12.5195 -6.23047 L 15.5762 -6.23047 C 16.123 -6.23047 16.5039 -6.51367 16.5039 -7.03125 C 16.5039 -7.55859 16.1426 -7.86133 15.5762 -7.86133 L 12.5195 -7.86133 L 12.5195 -10.9277 C 12.5195 -11.5039 12.207 -11.8555 11.6895 -11.8555 C 11.1719 -11.8555 10.8789 -11.4844 10.8789 -10.9277 L 10.8789 -7.86133 L 7.83203 -7.86133 C 7.26562 -7.86133 6.89453 -7.55859 6.89453 -7.03125 C 6.89453 -6.51367 7.28516 -6.23047 7.83203 -6.23047 L 10.8789 -6.23047 L 10.8789 -3.33984 C 10.8789 -2.79297 11.1719 -2.41211 11.6895 -2.41211 Z"/>
  </g>
  <g id="" transform="matrix(1 0 0 1 304.924 1933)">
   <path d="M 14.9707 5.67383 C 21.9336 5.67383 27.6953 -0.078125 27.6953 -7.04102 C 27.6953 -14.0039 21.9238 -19.7559 14.9609 -19.7559 C 8.00781 -19.7559 2.25586 -14.0039 2.25586 -7.04102 C 2.25586 -0.078125 8.01758 5.67383 14.9707 5.67383 Z M 14.9707 3.85742 C 8.93555 3.85742 4.08203 -1.00586 4.08203 -7.04102 C 4.08203 -13.0762 8.92578 -17.9395 14.9609 -17.9395 C 21.0059 -17.9395 25.8594 -13.0762 25.8691 -7.04102 C 25.8789 -1.00586 21.0156 3.85742 14.9707 3.85742 Z M 14.9512 -1.06445 C 15.5176 -1.06445 15.8691 -1.45508 15.8691 -2.06055 L 15.8691 -6.13281 L 20.1074 -6.13281 C 20.6934 -6.13281 21.1133 -6.46484 21.1133 -7.02148 C 21.1133 -7.59766 20.7227 -7.93945 20.1074 -7.93945 L 15.8691 -7.93945 L 15.8691 -12.1875 C 15.8691 -12.8027 15.5176 -13.1934 14.9512 -13.1934 C 14.3848 -13.1934 14.0625 -12.7832 14.0625 -12.1875 L 14.0625 -7.93945 L 9.83398 -7.93945 C 9.21875 -7.93945 8.80859 -7.59766 8.80859 -7.02148 C 8.80859 -6.46484 9.23828 -6.13281 9.83398 -6.13281 L 14.0625 -6.13281 L 14.0625 -2.06055 C 14.0625 -1.47461 14.3848 -1.06445 14.9512 -1.06445 Z"/>
  </g>
  <text style="stroke:none;fill:black;font-family:-apple-system,&quot;SF Pro Display&quot;,&quot;SF Pro Text&quot;,Helvetica,sans-serif;font-weight:bold;" transform="matrix(1 0 0 1 263 1953)">Design Variations</text>
  <text style="stroke:none;fill:black;font-family:-apple-system,&quot;SF Pro Display&quot;,&quot;SF Pro Text&quot;,Helvetica,sans-serif;" transform="matrix(1 0 0 1 263 1971)">Symbols are supported in up to nine weights and three scales.</text>
  <text style="stroke:none;fill:black;font-family:-apple-system,&quot;SF Pro Display&quot;,&quot;SF Pro Text&quot;,Helvetica,sans-serif;" transform="matrix(1 0 0 1 263 1989)">For optimal layout with text and other symbols, vertically align</text>
  <text style="stroke:none;fill:black;font-family:-apple-system,&quot;SF Pro Display&quot;,&quot;SF Pro Text&quot;,Helvetica,sans-serif;" transform="matrix(1 0 0 1 263 2007)">symbols with the adjacent text.</text>
  <rect height="14" id="" style="fill:#00AEEF;stroke:none;opacity:0.4;" width="3" x="776" y="1919"/>
  <g id="" transform="matrix(1 0 0 1 779 1933)">
   <path d="M 10.5273 0 L 12.373 0 L 7.17773 -14.0918 L 5.43945 -14.0918 L 0.244141 0 L 2.08984 0 L 3.50586 -4.0332 L 9.11133 -4.0332 Z M 6.2793 -11.9531 L 6.33789 -11.9531 L 8.59375 -5.52734 L 4.02344 -5.52734 Z"/>
  </g>
  <rect height="14" id="" style="fill:#00AEEF;stroke:none;opacity:0.4;" width="3" x="791.617" y="1919"/>
  <text style="stroke:none;fill:black;font-family:-apple-system,&quot;SF Pro Display&quot;,&quot;SF Pro Text&quot;,Helvetica,sans-serif;font-weight:bold;" transform="matrix(1 0 0 1 776 1953)">Margins</text>
  <text style="stroke:none;fill:black;font-family:-apple-system,&quot;SF Pro Display&quot;,&quot;SF Pro Text&quot;,Helvetica,sans-serif;" transform="matrix(1 0 0 1 776 1971)">Leading and trailing margins on the left and right side of each symbol</text>
  <text style="stroke:none;fill:black;font-family:-apple-system,&quot;SF Pro Display&quot;,&quot;SF Pro Text&quot;,Helvetica,sans-serif;" transform="matrix(1 0 0 1 776 1989)">can be adjusted by modifying the width of the blue rectangles.</text>
  <text style="stroke:none;fill:black;font-family:-apple-system,&quot;SF Pro Display&quot;,&quot;SF Pro Text&quot;,Helvetica,sans-serif;" transform="matrix(1 0 0 1 776 2007)">Modifications are automatically applied proportionally to all</text>
  <text style="stroke:none;fill:black;font-family:-apple-system,&quot;SF Pro Display&quot;,&quot;SF Pro Text&quot;,Helvetica,sans-serif;" transform="matrix(1 0 0 1 776 2025)">scales and weights.</text>
  <g id="" transform="matrix(1 0 0 1 1289 1933)">
   <path d="M 2.83203 3.11523 L 4.375 4.6582 C 5.22461 5.48828 6.19141 5.41992 7.06055 4.46289 L 17.2754 -6.66016 C 17.7051 -6.36719 18.0957 -6.37695 18.5645 -6.47461 L 19.6094 -6.68945 L 20.3027 -5.99609 L 20.2539 -5.47852 C 20.1855 -4.95117 20.3516 -4.53125 20.8496 -4.0332 L 21.6602 -3.22266 C 22.168 -2.71484 22.8223 -2.68555 23.3008 -3.16406 L 26.5527 -6.41602 C 27.0312 -6.89453 27.0117 -7.54883 26.5039 -8.05664 L 25.6836 -8.87695 C 25.1855 -9.375 24.7754 -9.55078 24.2383 -9.47266 L 23.7109 -9.41406 L 23.0566 -10.0781 L 23.3398 -11.2207 C 23.4863 -11.7871 23.3398 -12.2559 22.7148 -12.8613 L 20.3027 -15.2539 C 16.7578 -18.7793 12.2266 -18.6719 9.11133 -15.5371 C 8.69141 -15.1074 8.64258 -14.5215 8.91602 -14.0918 C 9.15039 -13.7207 9.62891 -13.4961 10.2734 -13.6621 C 11.7871 -14.043 13.3008 -13.9258 14.7852 -12.9199 L 14.1602 -11.3379 C 13.9258 -10.752 13.9453 -10.2734 14.1797 -9.83398 L 3.01758 0.439453 C 2.08008 1.30859 1.97266 2.25586 2.83203 3.11523 Z M 10.6738 -15.1465 C 13.3398 -17.1387 16.6504 -16.8262 19.0527 -14.4141 L 21.6797 -11.8066 C 21.9141 -11.5723 21.9434 -11.3867 21.8848 -11.0938 L 21.5039 -9.53125 L 23.0762 -7.95898 L 24.043 -8.04688 C 24.3262 -8.07617 24.4141 -8.05664 24.6387 -7.83203 L 25.2637 -7.20703 L 22.5098 -4.46289 L 21.8848 -5.07812 C 21.6602 -5.30273 21.6406 -5.40039 21.6699 -5.68359 L 21.7578 -6.64062 L 20.1953 -8.20312 L 18.5742 -7.89062 C 18.291 -7.83203 18.1445 -7.83203 17.9102 -8.07617 L 15.7324 -10.2539 C 15.5078 -10.4883 15.4785 -10.625 15.6055 -10.9473 L 16.5527 -13.2227 C 14.9512 -14.7559 12.8418 -15.6055 10.8008 -14.9512 C 10.7129 -14.9219 10.6445 -14.9414 10.6152 -14.9805 C 10.5859 -15.0293 10.5859 -15.0781 10.6738 -15.1465 Z M 4.10156 2.41211 C 3.61328 1.91406 3.78906 1.61133 4.12109 1.30859 L 15.0781 -8.80859 L 16.3086 -7.57812 L 6.15234 3.34961 C 5.84961 3.68164 5.46875 3.7793 5.06836 3.37891 Z"/>
  </g>
  <text style="stroke:none;fill:black;font-family:-apple-system,&quot;SF Pro Display&quot;,&quot;SF Pro Text&quot;,Helvetica,sans-serif;font-weight:bold;" transform="matrix(1 0 0 1 1289 1953)">Exporting</text>
  <text style="stroke:none;fill:black;font-family:-apple-system,&quot;SF Pro Display&quot;,&quot;SF Pro Text&quot;,Helvetica,sans-serif;" transform="matrix(1 0 0 1 1289 1971)">Symbols should be outlined when exporting to ensure the</text>
  <text style="stroke:none;fill:black;font-family:-apple-system,&quot;SF Pro Display&quot;,&quot;SF Pro Text&quot;,Helvetica,sans-serif;" transform="matrix(1 0 0 1 1289 1989)">design is preserved when submitting to Xcode.</text>
  <text id="template-version" style="stroke:none;fill:black;font-family:-apple-system,&quot;SF Pro Display&quot;,&quot;SF Pro Text&quot;,Helvetica,sans-serif;text-anchor:end;" transform="matrix(1 0 0 1 3036 1933)">Template v.1.0</text>
  <text style="stroke:none;fill:black;font-family:-apple-system,&quot;SF Pro Display&quot;,&quot;SF Pro Text&quot;,Helvetica,sans-serif;text-anchor:end;" transform="matrix(1 0 0 1 3036 1951)">Generated from 42.circle.fill</text>
  <text style="stroke:none;fill:black;font-family:-apple-system,&quot;SF Pro Display&quot;,&quot;SF Pro Text&quot;,Helvetica,sans-serif;text-anchor:end;" transform="matrix(1 0 0 1 3036 1969)">Typeset at 100 points</text>
  <text style="stroke:none;fill:black;font-family:-apple-system,&quot;SF Pro Display&quot;,&quot;SF Pro Text&quot;,Helvetica,sans-serif;" transform="matrix(1 0 0 1 263 726)">Small</text>
  <text style="stroke:none;fill:black;font-family:-apple-system,&quot;SF Pro Display&quot;,&quot;SF Pro Text&quot;,Helvetica,sans-serif;" transform="matrix(1 0 0 1 263 1156)">Medium</text>
  <text style="stroke:none;fill:black;font-family:-apple-system,&quot;SF Pro Display&quot;,&quot;SF Pro Text&quot;,Helvetica,sans-serif;" transform="matrix(1 0 0 1 263 1586)">Large</text>
 </g>
 <g id="Guides">
  <g id="H-reference" style="fill:#27AAE1;stroke:none;" transform="matrix(1 0 0 1 339 696)">
   <path d="M 54.9316 0 L 57.666 0 L 30.5664 -70.459 L 28.0762 -70.459 L 0.976562 0 L 3.66211 0 L 12.9395 -24.4629 L 45.7031 -24.4629 Z M 29.1992 -67.0898 L 29.4434 -67.0898 L 44.8242 -26.709 L 13.8184 -26.709 Z"/>
  </g>
  <line id="Baseline-S" style="fill:none;stroke:#27AAE1;opacity:1;stroke-width:0.577;" x1="263" x2="3036" y1="696" y2="696"/>
  <line id="Capline-S" style="fill:none;stroke:#27AAE1;opacity:1;stroke-width:0.577;" x1="263" x2="3036" y1="625.541" y2="625.541"/>
  <g id="H-reference" style="fill:#27AAE1;stroke:none;" transform="matrix(1 0 0 1 339 1126)">
   <path d="M 54.9316 0 L 57.666 0 L 30.5664 -70.459 L 28.0762 -70.459 L 0.976562 0 L 3.66211 0 L 12.9395 -24.4629 L 45.7031 -24.4629 Z M 29.1992 -67.0898 L 29.4434 -67.0898 L 44.8242 -26.709 L 13.8184 -26.709 Z"/>
  </g>
  <line id="Baseline-M" style="fill:none;stroke:#27AAE1;opacity:1;stroke-width:0.577;" x1="263" x2="3036" y1="1126" y2="1126"/>
  <line id="Capline-M" style="fill:none;stroke:#27AAE1;opacity:1;stroke-width:0.577;" x1="263" x2="3036" y1="1055.54" y2="1055.54"/>
  <g id="H-reference" style="fill:#27AAE1;stroke:none;" transform="matrix(1 0 0 1 339 1556)">
   <path d="M 54.9316 0 L 57.666 0 L 30.5664 -70.459 L 28.0762 -70.459 L 0.976562 0 L 3.66211 0 L 12.9395 -24.4629 L 45.7031 -24.4629 Z M 29.1992 -67.0898 L 29.4434 -67.0898 L 44.8242 -26.709 L 13.8184 -26.709 Z"/>
  </g>
  <line id="Baseline-L" style="fill:none;stroke:#27AAE1;opacity:1;stroke-width:0.577;" x1="263" x2="3036" y1="1556" y2="1556"/>
  <line id="Capline-L" style="fill:none;stroke:#27AAE1;opacity:1;stroke-width:0.577;" x1="263" x2="3036" y1="1485.54" y2="1485.54"/>
  <rect height="119.336" id="left-margin" style="fill:#00AEEF;stroke:none;opacity:0.4;" width="8.74023" x="1391.3" y="1030.79"/>
  <rect height="119.336" id="right-margin" style="fill:#00AEEF;stroke:none;opacity:0.4;" width="8.74023" x="1499.65" y="1030.79"/>
 </g>
 <g id="Symbols">
  <g id="Black-L" transform="matrix(1 0 0 1 2854.05 1556)">
   <path d="M 79.3457 32.8613 C 116.748 32.8613 147.412 2.19727 147.412 -35.2051 C 147.412 -72.6074 116.748 -103.271 79.2969 -103.271 C 41.8945 -103.271 11.2793 -72.6074 11.2793 -35.2051 C 11.2793 2.19727 41.9434 32.8613 79.3457 32.8613 Z M 67.7246 -9.47266 C 64.3555 -9.47266 62.2559 -11.7676 62.2559 -15.0391 L 62.2559 -19.1406 L 49.8535 -19.1406 C 44.9707 -19.1406 42.2852 -21.9238 42.2852 -26.6602 C 42.2852 -29.4922 43.0176 -32.0312 43.9941 -34.5703 C 46.0938 -39.7949 49.5605 -47.6562 52.7832 -53.8574 C 55.3223 -58.7891 58.5938 -61.084 64.0625 -61.084 C 70.2148 -61.084 73.3398 -57.4219 73.3398 -51.5137 L 73.3398 -29.7852 L 74.4141 -29.7852 C 77.6367 -29.7852 79.3945 -27.6367 79.3945 -24.4141 C 79.3945 -21.1914 77.6367 -19.2383 74.4141 -19.2383 L 73.3398 -19.2383 L 73.3398 -15.0391 C 73.3398 -11.7676 71.1914 -9.47266 67.7246 -9.47266 Z M 89.6973 -10.5469 C 86.3281 -10.5469 83.7402 -12.8418 83.7402 -16.6016 C 83.7402 -18.8965 84.5215 -20.8984 86.7188 -23.3398 L 97.998 -36.7188 C 100.879 -40.0879 103.271 -42.4316 103.271 -45.4102 C 103.271 -47.8516 101.27 -49.7559 98.584 -49.7559 C 96.1914 -49.7559 94.3359 -48.3398 93.457 -45.8008 C 92.627 -43.5059 91.1133 -41.8945 88.1348 -41.8945 C 84.9609 -41.8945 82.959 -44.0918 82.959 -47.2168 C 82.959 -48.3887 83.1055 -49.3164 83.3984 -50.3418 C 85.2051 -56.7383 91.5527 -61.084 98.877 -61.084 C 108.447 -61.084 114.307 -55.0293 114.404 -46.5332 C 114.453 -40.7227 111.67 -36.2793 106.885 -30.7129 L 100 -22.7539 L 100 -22.1191 L 110.01 -22.1191 C 113.525 -22.1191 115.869 -20.0684 115.869 -16.5039 C 115.869 -12.7441 113.525 -10.5469 110.01 -10.5469 Z M 62.2559 -29.6387 L 62.2559 -49.3164 L 62.0117 -49.3164 C 59.2773 -43.3105 56.1035 -34.8633 54.1016 -29.9316 L 54.1016 -29.6387 Z"/>
  </g>
  <g id="Heavy-L" transform="matrix(1 0 0 1 2558.39 1556)">
   <path d="M 78.2715 31.7871 C 115.088 31.7871 145.312 1.61133 145.312 -35.2051 C 145.312 -72.0215 115.039 -102.197 78.2715 -102.197 C 41.4551 -102.197 11.2793 -72.0215 11.2793 -35.2051 C 11.2793 1.61133 41.5039 31.7871 78.2715 31.7871 Z M 66.3086 -8.93555 C 63.1836 -8.93555 61.3281 -11.084 61.3281 -14.1113 L 61.3281 -19.2871 L 47.0703 -19.2871 C 42.627 -19.2871 40.0879 -21.8262 40.0879 -26.1719 C 40.0879 -28.7109 40.7227 -30.957 41.6504 -33.3496 C 44.3359 -39.1602 48.877 -48.2422 52.6367 -55.127 C 55.0293 -59.6191 58.0078 -61.6699 62.9883 -61.6699 C 68.457 -61.6699 71.4355 -58.3496 71.4355 -53.0762 L 71.4355 -28.9062 L 73.291 -28.9062 C 76.2207 -28.9062 77.8809 -27.002 77.8809 -24.0723 C 77.8809 -21.0938 76.2207 -19.3359 73.291 -19.3359 L 71.4355 -19.3359 L 71.4355 -14.1113 C 71.4355 -11.0352 69.5312 -8.93555 66.3086 -8.93555 Z M 88.3301 -10.0586 C 85.2539 -10.0586 82.959 -12.1094 82.959 -15.4785 C 82.959 -17.4805 83.6914 -19.2871 85.5469 -21.3867 L 98.4375 -36.5723 C 101.416 -40.0879 104.004 -42.7246 104.004 -46.0449 C 104.004 -49.1699 101.562 -51.416 98.1445 -51.416 C 95.0684 -51.416 92.7734 -49.6582 91.748 -46.4844 C 90.9668 -44.3359 89.5996 -42.8223 86.9141 -42.8223 C 83.9844 -42.8223 82.1777 -44.873 82.1777 -47.7539 C 82.1777 -48.7793 82.3242 -49.6582 82.5684 -50.6348 C 84.3262 -57.1289 90.8691 -61.6699 98.291 -61.6699 C 108.057 -61.6699 114.062 -55.6641 114.16 -47.0215 C 114.209 -41.1133 111.279 -36.6211 106.396 -30.957 L 97.9004 -21.0938 L 97.9004 -20.5078 L 110.352 -20.5078 C 113.525 -20.5078 115.625 -18.6035 115.625 -15.3809 C 115.625 -12.0117 113.525 -10.0586 110.352 -10.0586 Z M 61.3281 -28.8574 L 61.3281 -50.8301 L 61.0352 -50.8301 C 57.7637 -44.2871 53.3203 -34.5703 50.8789 -29.1016 L 50.8789 -28.8574 Z"/>
  </g>
  <g id="Bold-L" transform="matrix(1 0 0 1 2262.88 1556)">
   <path d="M 77.0996 30.6152 C 113.232 30.6152 142.92 0.878906 142.92 -35.2051 C 142.92 -71.3379 113.184 -101.025 77.0508 -101.025 C 40.9668 -101.025 11.2793 -71.3379 11.2793 -35.2051 C 11.2793 0.878906 41.0156 30.6152 77.0996 30.6152 Z M 64.6973 -8.30078 C 61.9141 -8.30078 60.2539 -10.3027 60.2539 -13.0371 L 60.2539 -19.4336 L 43.9453 -19.4336 C 39.9902 -19.4336 37.5977 -21.6797 37.5977 -25.6348 C 37.5977 -27.832 38.1836 -29.7852 39.0625 -31.9336 C 42.4316 -38.4277 48.1445 -48.877 52.4902 -56.4941 C 54.7363 -60.5469 57.373 -62.3047 61.7676 -62.3047 C 66.5527 -62.3047 69.2871 -59.4238 69.2871 -54.7852 L 69.2871 -27.9785 L 72.0215 -27.9785 C 74.6094 -27.9785 76.1719 -26.3184 76.1719 -23.6816 C 76.1719 -21.0449 74.6582 -19.4824 72.0215 -19.4824 L 69.2871 -19.4824 L 69.2871 -13.0371 C 69.2871 -10.2539 67.627 -8.30078 64.6973 -8.30078 Z M 86.8164 -9.47266 C 84.0332 -9.47266 82.0801 -11.2793 82.0801 -14.209 C 82.0801 -15.9668 82.7148 -17.4316 84.2285 -19.1895 L 98.877 -36.4258 C 102.051 -40.0879 104.785 -43.1152 104.785 -46.7285 C 104.785 -50.5859 101.904 -53.2715 97.7051 -53.2715 C 93.8477 -53.2715 91.0156 -51.1719 89.8926 -47.2656 C 89.1602 -45.2148 87.9395 -43.8965 85.5469 -43.8965 C 82.959 -43.8965 81.2988 -45.7031 81.2988 -48.3398 C 81.2988 -49.2676 81.4453 -50.0977 81.6895 -50.9766 C 83.3984 -57.6172 90.0879 -62.3047 97.7051 -62.3047 C 107.568 -62.3047 113.818 -56.3477 113.916 -47.6074 C 113.916 -41.5527 110.84 -36.9629 105.859 -31.25 L 95.5078 -19.1895 L 95.5078 -18.6523 L 110.791 -18.6523 C 113.477 -18.6523 115.332 -16.9922 115.332 -14.1602 C 115.332 -11.2305 113.477 -9.47266 110.791 -9.47266 Z M 60.2539 -27.9297 L 60.2539 -52.4902 L 59.9609 -52.4902 C 56.1035 -45.3613 50.2441 -34.2285 47.3145 -28.1738 L 47.3145 -27.9297 Z"/>
  </g>
  <g id="Semibold-L" transform="matrix(1 0 0 1 1966.97 1556)">
   <path d="M 76.2695 29.7852 C 111.914 29.7852 141.309 0.439453 141.309 -35.2051 C 141.309 -70.8496 111.865 -100.244 76.2695 -100.244 C 40.625 -100.244 11.2793 -70.8496 11.2793 -35.2051 C 11.2793 0.439453 40.6738 29.7852 76.2695 29.7852 Z M 63.623 -7.91016 C 60.9863 -7.91016 59.5215 -9.7168 59.5215 -12.3047 L 59.5215 -19.5312 L 41.748 -19.5312 C 38.1836 -19.5312 35.8887 -21.6309 35.8887 -25.293 C 35.8887 -27.2461 36.377 -28.9551 37.3047 -30.957 C 41.1133 -37.9395 47.6074 -49.3164 52.3438 -57.4707 C 54.541 -61.1816 56.9336 -62.7441 60.9375 -62.7441 C 65.2344 -62.7441 67.8223 -60.1074 67.8223 -56.0059 L 67.8223 -27.3438 L 71.1426 -27.3438 C 73.5352 -27.3438 75 -25.8301 75 -23.3887 C 75 -20.9961 73.5352 -19.5312 71.1426 -19.5312 L 67.8223 -19.5312 L 67.8223 -12.3047 C 67.8223 -9.7168 66.3086 -7.91016 63.623 -7.91016 Z M 85.7422 -9.0332 C 83.2031 -9.0332 81.4941 -10.7422 81.4941 -13.3789 C 81.4941 -14.8926 82.0312 -16.2109 83.3008 -17.627 L 99.1699 -36.2793 C 102.441 -40.1367 105.371 -43.3594 105.371 -47.2168 C 105.371 -51.6113 102.148 -54.5898 97.4121 -54.5898 C 92.9688 -54.5898 89.8438 -52.1484 88.5742 -47.8027 C 87.8906 -45.8496 86.7676 -44.6289 84.6191 -44.6289 C 82.2266 -44.6289 80.7129 -46.2891 80.7129 -48.7305 C 80.7129 -49.6094 80.8594 -50.3418 81.0547 -51.2207 C 82.7637 -57.9102 89.5508 -62.7441 97.2656 -62.7441 C 107.275 -62.7441 113.672 -56.8359 113.721 -47.9492 C 113.721 -41.8945 110.498 -37.2559 105.518 -31.3965 L 93.8477 -17.8711 L 93.8477 -17.3828 L 111.084 -17.3828 C 113.477 -17.3828 115.137 -15.8691 115.137 -13.3301 C 115.137 -10.6934 113.477 -9.0332 111.084 -9.0332 Z M 59.5215 -27.2949 L 59.5215 -53.6621 L 59.2285 -53.6621 C 54.9316 -46.0938 48.0957 -33.9844 44.8242 -27.5391 L 44.8242 -27.2949 Z"/>
  </g>
  <g id="Medium-L" transform="matrix(1 0 0 1 1670.87 1556)">
   <path d="M 75.6836 29.1992 C 110.938 29.1992 140.088 0.0488281 140.088 -35.2051 C 140.088 -70.459 110.889 -99.6094 75.6348 -99.6094 C 40.3809 -99.6094 11.2793 -70.459 11.2793 -35.2051 C 11.2793 0.0488281 40.3809 29.1992 75.6836 29.1992 Z M 62.7441 -7.56836 C 60.3027 -7.56836 58.9355 -9.32617 58.9355 -11.7676 L 58.9355 -19.5801 L 40.1367 -19.5801 C 36.7676 -19.5801 34.6191 -21.5332 34.6191 -25 C 34.6191 -26.8066 35.0586 -28.3203 35.9375 -30.2246 C 40.0879 -37.5977 47.2168 -49.707 52.2949 -58.1543 C 54.3457 -61.6699 56.5918 -63.0859 60.3027 -63.0859 C 64.209 -63.0859 66.6992 -60.6934 66.6992 -56.8848 L 66.6992 -26.8555 L 70.5078 -26.8555 C 72.7051 -26.8555 74.0723 -25.4395 74.0723 -23.1934 C 74.0723 -20.9473 72.7539 -19.6289 70.5078 -19.6289 L 66.6992 -19.6289 L 66.6992 -11.7676 C 66.6992 -9.27734 65.2832 -7.56836 62.7441 -7.56836 Z M 84.9609 -8.74023 C 82.6172 -8.74023 81.0547 -10.3027 81.0547 -12.6953 C 81.0547 -14.0625 81.4941 -15.2344 82.6172 -16.5039 L 99.4141 -36.2305 C 102.783 -40.1367 105.762 -43.5547 105.762 -47.6074 C 105.762 -52.3438 102.344 -55.5664 97.168 -55.5664 C 92.334 -55.5664 88.916 -52.9297 87.5977 -48.1934 C 86.9141 -46.3379 85.8887 -45.166 83.9355 -45.166 C 81.6406 -45.166 80.2734 -46.7285 80.2734 -49.0234 C 80.2734 -49.8535 80.4199 -50.5859 80.5664 -51.416 C 82.2266 -58.1543 89.1113 -63.0859 96.9727 -63.0859 C 107.031 -63.0859 113.525 -57.2266 113.574 -48.2422 C 113.574 -42.0898 110.303 -37.4512 105.225 -31.543 L 92.627 -16.8945 L 92.627 -16.4551 L 111.279 -16.4551 C 113.477 -16.4551 114.99 -15.0391 114.99 -12.6465 C 114.99 -10.3027 113.477 -8.74023 111.279 -8.74023 Z M 58.9355 -26.8066 L 58.9355 -54.541 L 58.6426 -54.541 C 54.0527 -46.6309 46.4844 -33.8379 42.9688 -27.0996 L 42.9688 -26.8066 Z"/>
  </g>
  <g id="Regular-L" transform="matrix(1 0 0 1 1374.97 1556)">
   <path d="M 74.8535 28.3691 C 109.668 28.3691 138.477 -0.390625 138.477 -35.2051 C 138.477 -70.0195 109.619 -98.7793 74.8047 -98.7793 C 40.0391 -98.7793 11.2793 -70.0195 11.2793 -35.2051 C 11.2793 -0.390625 40.0879 28.3691 74.8535 28.3691 Z M 61.6699 -7.17773 C 59.4238 -7.17773 58.2031 -8.78906 58.2031 -11.0352 L 58.2031 -19.6777 L 37.9883 -19.6777 C 34.9609 -19.6777 32.959 -21.4844 32.959 -24.6582 C 32.959 -26.2207 33.3008 -27.4902 34.1797 -29.248 C 38.7695 -37.1094 46.7285 -50.1465 52.1484 -59.1309 C 54.1504 -62.3047 56.1523 -63.5254 59.4727 -63.5254 C 62.8906 -63.5254 65.2344 -61.377 65.2344 -58.1055 L 65.2344 -26.1719 L 69.6289 -26.1719 C 71.6309 -26.1719 72.9004 -24.9512 72.9004 -22.9004 C 72.9004 -20.8496 71.6797 -19.6777 69.6289 -19.6777 L 65.2344 -19.6777 L 65.2344 -11.0352 C 65.2344 -8.74023 64.0137 -7.17773 61.6699 -7.17773 Z M 83.9355 -8.34961 C 81.7871 -8.34961 80.4199 -9.7168 80.4199 -11.8652 C 80.4199 -13.0371 80.8594 -14.0137 81.6895 -14.9902 L 99.707 -36.084 C 103.174 -40.1367 106.299 -43.7988 106.299 -48.0957 C 106.299 -53.3691 102.588 -56.8359 96.8262 -56.8359 C 91.5039 -56.8359 87.6953 -53.9551 86.3281 -48.7305 C 85.6445 -46.9727 84.7656 -45.8984 83.0078 -45.8984 C 80.9082 -45.8984 79.6875 -47.3145 79.6875 -49.4629 C 79.6875 -50.1465 79.834 -50.8301 79.9316 -51.6113 C 81.5918 -58.4961 88.623 -63.5254 96.5332 -63.5254 C 106.738 -63.5254 113.379 -57.666 113.379 -48.6328 C 113.379 -42.4316 110.01 -37.6953 104.883 -31.7383 L 91.0156 -15.5762 L 91.0156 -15.1855 L 111.572 -15.1855 C 113.428 -15.1855 114.795 -13.916 114.795 -11.8164 C 114.795 -9.76562 113.428 -8.34961 111.572 -8.34961 Z M 58.2031 -26.1719 L 58.2031 -55.7129 L 57.9102 -55.7129 C 52.8809 -47.3633 44.3848 -33.5938 40.5273 -26.4648 L 40.5273 -26.1719 Z"/>
  </g>
  <g id="Light-L" transform="matrix(1 0 0 1 1079.18 1556)">
   <path d="M 73.9258 27.4902 C 108.301 27.4902 136.621 -0.830078 136.621 -35.1562 C 136.621 -69.5312 108.252 -97.8516 73.9258 -97.8516 C 39.5508 -97.8516 11.2793 -69.5312 11.2793 -35.1562 C 11.2793 -0.830078 39.5996 27.4902 73.9258 27.4902 Z M 60.498 -7.56836 C 58.7402 -7.56836 57.7148 -8.83789 57.7148 -10.5957 L 57.7148 -20.459 L 36.2793 -20.459 C 33.7402 -20.459 31.9824 -21.875 31.9824 -24.5117 C 31.9824 -25.7324 32.2754 -26.8555 33.0078 -28.1738 C 37.7441 -35.8887 47.4121 -51.123 52.832 -59.668 C 54.4922 -62.2559 56.1035 -63.2324 58.7402 -63.2324 C 61.4746 -63.2324 63.3789 -61.5234 63.3789 -58.8379 L 63.3789 -25.7812 L 68.8965 -25.7812 C 70.5078 -25.7812 71.5332 -24.707 71.5332 -23.0957 C 71.5332 -21.4355 70.5566 -20.459 68.8965 -20.459 L 63.3789 -20.459 L 63.3789 -10.5957 C 63.3789 -8.78906 62.3535 -7.56836 60.498 -7.56836 Z M 82.8125 -8.44727 C 81.0059 -8.44727 79.8828 -9.57031 79.8828 -11.377 C 79.8828 -12.4023 80.1758 -13.1836 80.8594 -13.9648 L 99.6582 -35.8887 C 103.516 -40.3809 106.201 -43.9453 106.201 -48.291 C 106.201 -54.0039 102.1 -57.7637 95.7031 -57.7637 C 89.6484 -57.7637 85.3027 -54.248 84.2773 -48.6816 C 83.8379 -47.168 83.0566 -46.2402 81.4941 -46.2402 C 79.7852 -46.2402 78.7598 -47.4609 78.7598 -49.1699 C 78.7598 -49.8047 78.8574 -50.3906 79.0039 -51.1719 C 80.4688 -58.1543 87.4512 -63.2324 95.5566 -63.2324 C 105.42 -63.2324 111.963 -57.4707 111.963 -48.584 C 111.963 -42.8223 108.936 -38.2324 103.467 -31.8848 L 88.3789 -14.3066 L 88.3789 -14.0137 L 110.84 -14.0137 C 112.402 -14.0137 113.477 -12.9395 113.477 -11.2793 C 113.477 -9.61914 112.402 -8.44727 110.84 -8.44727 Z M 57.7148 -25.7812 L 57.7148 -56.8359 L 57.4707 -56.8359 C 52.7344 -49.4141 41.9922 -32.666 38.1836 -25.9766 L 38.1836 -25.7812 Z"/>
  </g>
  <g id="Thin-L" transform="matrix(1 0 0 1 783.693 1556)">
   <path d="M 72.7051 26.3184 C 106.494 26.3184 134.18 -1.36719 134.18 -35.1074 C 134.18 -68.8965 106.494 -96.582 72.7051 -96.582 C 38.9648 -96.582 11.2793 -68.8965 11.2793 -35.1074 C 11.2793 -1.36719 38.9648 26.3184 72.7051 26.3184 Z M 58.9844 -8.10547 C 57.8613 -8.10547 57.0312 -8.88672 57.0312 -10.0586 L 57.0312 -21.4844 L 33.9844 -21.4844 C 32.0801 -21.4844 30.7617 -22.4121 30.7617 -24.3164 C 30.7617 -25.1465 31.0059 -26.0254 31.3965 -26.709 C 36.4258 -34.3262 48.3398 -52.4414 53.6621 -60.4004 C 54.9316 -62.207 56.0059 -62.793 57.7637 -62.793 C 59.6191 -62.793 60.8887 -61.6699 60.8887 -59.8633 L 60.8887 -25.1953 L 67.9199 -25.1953 C 68.9941 -25.1953 69.7266 -24.3652 69.7266 -23.291 C 69.7266 -22.2168 69.0918 -21.4844 67.9199 -21.4844 L 60.8887 -21.4844 L 60.8887 -10.0586 C 60.8887 -8.88672 60.2051 -8.10547 58.9844 -8.10547 Z M 81.2988 -8.59375 C 79.9805 -8.59375 79.1016 -9.42383 79.1016 -10.7422 C 79.1016 -11.6211 79.2969 -12.0605 79.7852 -12.6465 L 99.6094 -35.5957 C 103.955 -40.6738 106.055 -44.1895 106.055 -48.5352 C 106.055 -54.8828 101.514 -58.9844 94.2383 -58.9844 C 87.207 -58.9844 82.0801 -54.6387 81.543 -48.6328 C 81.3965 -47.4121 80.8105 -46.7285 79.541 -46.7285 C 78.2715 -46.7285 77.5391 -47.6074 77.5391 -48.7793 C 77.5391 -49.3652 77.6367 -49.8047 77.7344 -50.5371 C 79.0039 -57.666 85.9863 -62.793 94.2383 -62.793 C 103.711 -62.793 110.107 -57.2266 110.107 -48.5352 C 110.107 -43.4082 107.568 -38.9648 101.611 -32.0801 L 84.9121 -12.6465 L 84.9121 -12.4512 L 109.814 -12.4512 C 111.035 -12.4512 111.719 -11.6699 111.719 -10.5469 C 111.719 -9.47266 111.035 -8.59375 109.814 -8.59375 Z M 57.0312 -25.1953 L 57.0312 -58.3496 L 56.8848 -58.3496 C 52.5879 -52.0996 38.8184 -31.4941 35.1074 -25.3906 L 35.1074 -25.1953 Z"/>
  </g>
  <g id="Ultralight-L" transform="matrix(1 0 0 1 487.616 1556)">
   <path d="M 72.1191 25.7324 C 105.566 25.7324 132.91 -1.61133 132.91 -35.1074 C 132.91 -68.5547 105.566 -95.8984 72.1191 -95.8984 C 38.623 -95.8984 11.2793 -68.5547 11.2793 -35.1074 C 11.2793 -1.61133 38.623 25.7324 72.1191 25.7324 Z M 58.2031 -8.39844 C 57.373 -8.39844 56.7383 -8.88672 56.7383 -9.81445 L 56.7383 -22.0215 L 32.8125 -22.0215 C 31.2012 -22.0215 30.127 -22.7051 30.127 -24.2188 C 30.127 -24.8047 30.3223 -25.5859 30.5664 -25.9766 C 35.6934 -33.4961 48.8281 -53.125 54.1016 -60.791 C 55.127 -62.207 55.957 -62.5977 57.2754 -62.5977 C 58.6914 -62.5977 59.668 -61.7676 59.668 -60.3516 L 59.668 -24.9023 L 67.4316 -24.9023 C 68.2617 -24.9023 68.7988 -24.1699 68.7988 -23.4375 C 68.7988 -22.6074 68.3594 -22.0215 67.4316 -22.0215 L 59.668 -22.0215 L 59.668 -9.81445 C 59.668 -8.88672 59.082 -8.39844 58.2031 -8.39844 Z M 80.5664 -8.69141 C 79.4434 -8.69141 78.7109 -9.32617 78.7109 -10.4004 C 78.7109 -11.1816 78.8574 -11.5234 79.1992 -11.9141 L 99.5605 -35.4492 C 104.199 -40.8203 105.957 -44.3359 105.957 -48.6816 C 105.957 -55.3711 101.221 -59.6191 93.5059 -59.6191 C 85.9375 -59.6191 80.4688 -54.834 80.1758 -48.584 C 80.1758 -47.5586 79.6387 -46.9727 78.5156 -46.9727 C 77.4902 -46.9727 76.9043 -47.7051 76.9043 -48.6328 C 76.9043 -49.1699 77.002 -49.5117 77.0508 -50.2441 C 78.2227 -57.4219 85.2051 -62.5977 93.5547 -62.5977 C 102.881 -62.5977 109.18 -57.0801 109.18 -48.5352 C 109.18 -43.7012 106.885 -39.3066 100.635 -32.1777 L 83.1055 -11.7676 L 83.1055 -11.6211 L 109.326 -11.6211 C 110.352 -11.6211 110.791 -10.9863 110.791 -10.1562 C 110.791 -9.42383 110.352 -8.69141 109.326 -8.69141 Z M 56.7383 -24.9023 L 56.7383 -59.1309 L 56.5918 -59.1309 C 52.4902 -53.4668 37.207 -30.8594 33.4961 -25.0488 L 33.4961 -24.9023 Z"/>
  </g>
  <g id="Black-M" transform="matrix(1 0 0 1 2870.97 1126)">
   <path d="M 62.4023 18.457 C 91.9922 18.457 116.113 -5.61523 116.113 -35.2051 C 116.113 -64.7949 91.9922 -88.8672 62.4023 -88.8672 C 32.8125 -88.8672 8.74023 -64.7949 8.74023 -35.2051 C 8.74023 -5.61523 32.8125 18.457 62.4023 18.457 Z M 53.7598 -16.2109 C 51.0742 -16.2109 49.2676 -18.0176 49.2676 -20.6543 L 49.2676 -22.998 L 41.5039 -22.998 C 37.3535 -22.998 35.2539 -25.2441 35.2539 -29.1504 C 35.2539 -31.5918 35.9375 -33.8379 36.5723 -35.8398 C 37.5 -38.9648 39.6973 -44.5801 41.4551 -48.291 C 43.457 -52.3926 46.1426 -54.2969 50.7324 -54.2969 C 56.0059 -54.2969 58.3984 -51.2207 58.3984 -46.1426 L 58.3984 -31.8848 L 58.8379 -31.8848 C 61.4258 -31.8848 62.8906 -30.0781 62.8906 -27.3926 C 62.8906 -24.7559 61.4258 -23.1445 58.8379 -23.1445 L 58.3984 -23.1445 L 58.3984 -20.6543 C 58.3984 -18.0176 56.5918 -16.2109 53.7598 -16.2109 Z M 70.752 -16.8945 C 67.9199 -16.8945 65.625 -18.7988 65.625 -22.0215 C 65.625 -24.1211 66.3086 -25.8789 68.3594 -28.125 L 75.3906 -36.4746 C 77.6367 -39.0625 79.0039 -40.4785 79.0039 -42.3828 C 79.0039 -43.6035 77.7832 -44.7266 76.3672 -44.7266 C 75.0488 -44.7266 73.9258 -43.7988 73.584 -42.4805 C 73.0469 -40.6738 71.7285 -39.3066 69.1406 -39.3066 C 66.5039 -39.3066 64.7949 -41.1621 64.7949 -43.6523 C 64.7949 -44.6777 64.9414 -45.4102 65.1855 -46.2891 C 66.5527 -51.1719 71.2891 -54.2969 76.8066 -54.2969 C 83.8867 -54.2969 88.0859 -49.6582 88.2324 -43.3105 C 88.2812 -39.1602 86.5234 -35.8887 82.7148 -31.4941 L 78.9551 -27.1484 L 78.9551 -26.6602 L 84.3262 -26.6602 C 87.4512 -26.6602 89.4043 -24.9023 89.4043 -21.875 C 89.4043 -18.7012 87.4512 -16.8945 84.3262 -16.8945 Z M 49.2676 -31.7871 L 49.2676 -44.7266 L 49.1699 -44.7266 C 47.9004 -41.3086 45.8984 -34.8633 45.0195 -31.9824 L 45.0195 -31.7871 Z"/>
  </g>
  <g id="Heavy-M" transform="matrix(1 0 0 1 2575.19 1126)">
   <path d="M 61.5234 17.5781 C 90.5273 17.5781 114.258 -6.15234 114.258 -35.2051 C 114.258 -64.2578 90.5273 -87.9883 61.4746 -87.9883 C 32.4707 -87.9883 8.74023 -64.2578 8.74023 -35.2051 C 8.74023 -6.15234 32.4707 17.5781 61.5234 17.5781 Z M 52.5391 -15.5273 C 50 -15.5273 48.3398 -17.2363 48.3398 -19.7266 L 48.3398 -22.9492 L 38.8672 -22.9492 C 35.1074 -22.9492 33.0566 -25.0488 33.0566 -28.6621 C 33.0566 -30.8594 33.6914 -32.8613 34.3262 -34.7656 C 35.8887 -38.5742 38.7695 -44.9707 41.1133 -49.5117 C 43.0664 -53.2715 45.5078 -55.0293 49.707 -55.0293 C 54.4434 -55.0293 56.8359 -52.2461 56.8359 -47.6562 L 56.8359 -31.1035 L 57.7637 -31.1035 C 60.2051 -31.1035 61.5723 -29.4434 61.5723 -26.9531 C 61.5723 -24.5117 60.2051 -23.0469 57.7637 -23.0469 L 56.8359 -23.0469 L 56.8359 -19.7266 C 56.8359 -17.2363 55.1758 -15.5273 52.5391 -15.5273 Z M 69.5312 -16.2598 C 66.9434 -16.2598 64.9414 -18.0664 64.9414 -20.9473 C 64.9414 -22.7539 65.5762 -24.3164 67.2852 -26.2695 L 75.8301 -36.3281 C 78.125 -39.0137 79.834 -40.7715 79.834 -43.0176 C 79.834 -44.873 78.2715 -46.2891 76.2207 -46.2891 C 74.3164 -46.2891 72.8516 -45.166 72.2656 -43.2129 C 71.7285 -41.5039 70.5078 -40.2344 68.2129 -40.2344 C 65.7715 -40.2344 64.209 -41.9434 64.209 -44.3359 C 64.209 -45.2148 64.3555 -45.9473 64.5508 -46.7285 C 65.918 -51.709 70.8008 -55.0293 76.4648 -55.0293 C 83.7891 -55.0293 88.2324 -50.3906 88.3301 -43.8477 C 88.3789 -39.502 86.377 -36.084 82.5684 -31.7383 L 77.3438 -25.6348 L 77.3438 -25.1953 L 84.9121 -25.1953 C 87.6953 -25.1953 89.502 -23.584 89.502 -20.8496 C 89.502 -17.9688 87.6953 -16.2598 84.9121 -16.2598 Z M 48.3398 -31.0059 L 48.3398 -46.0938 L 48.1934 -46.0938 C 46.2891 -41.7969 43.5059 -34.7656 42.0898 -31.2012 L 42.0898 -31.0059 Z"/>
  </g>
  <g id="Bold-M" transform="matrix(1 0 0 1 2279.5 1126)">
   <path d="M 60.498 16.5039 C 88.8672 16.5039 112.207 -6.78711 112.207 -35.2051 C 112.207 -63.623 88.8672 -86.9629 60.4492 -86.9629 C 32.0312 -86.9629 8.74023 -63.623 8.74023 -35.2051 C 8.74023 -6.78711 32.0801 16.5039 60.498 16.5039 Z M 51.123 -14.7461 C 48.7793 -14.7461 47.3145 -16.3574 47.3145 -18.6523 L 47.3145 -22.8516 L 35.9863 -22.8516 C 32.6172 -22.8516 30.6641 -24.8047 30.6641 -28.125 C 30.6641 -30.0293 31.1523 -31.7383 31.8848 -33.5449 C 34.0332 -38.1836 37.7441 -45.4102 40.7715 -50.8789 C 42.5781 -54.2969 44.8242 -55.8105 48.6328 -55.8105 C 52.7832 -55.8105 55.0293 -53.3203 55.0293 -49.3164 L 55.0293 -30.1758 L 56.5918 -30.1758 C 58.7891 -30.1758 60.1074 -28.7598 60.1074 -26.5137 C 60.1074 -24.2676 58.7891 -22.9492 56.5918 -22.9492 L 55.0293 -22.9492 L 55.0293 -18.6523 C 55.0293 -16.3574 53.5645 -14.7461 51.123 -14.7461 Z M 68.2129 -15.625 C 65.8691 -15.625 64.1602 -17.1875 64.1602 -19.7266 C 64.1602 -21.2402 64.6973 -22.5586 66.0645 -24.1211 L 76.3672 -36.2305 C 78.7109 -39.0137 80.7129 -41.1133 80.7129 -43.7012 C 80.7129 -46.2402 78.7598 -48.0957 76.0254 -48.0957 C 73.4863 -48.0957 71.6309 -46.6797 70.8496 -44.0918 C 70.2148 -42.4316 69.1895 -41.3086 67.1387 -41.3086 C 64.9414 -41.3086 63.5742 -42.8223 63.5742 -45.0195 C 63.5742 -45.8496 63.6719 -46.4844 63.8672 -47.2656 C 65.2344 -52.2949 70.3125 -55.8105 76.123 -55.8105 C 83.6914 -55.8105 88.3789 -51.1719 88.4277 -44.4824 C 88.4766 -39.8438 86.1816 -36.377 82.373 -31.9824 L 75.4883 -23.9746 L 75.4883 -23.5352 L 85.5957 -23.5352 C 87.9883 -23.5352 89.5508 -22.0703 89.5508 -19.6289 C 89.5508 -17.1387 87.9883 -15.625 85.5957 -15.625 Z M 47.3145 -30.127 L 47.3145 -47.6074 L 47.1191 -47.6074 C 44.4824 -42.3828 40.8203 -34.668 38.8672 -30.3223 L 38.8672 -30.127 Z"/>
  </g>
  <g id="Semibold-M" transform="matrix(1 0 0 1 1983.5 1126)">
   <path d="M 59.7656 15.8203 C 87.7441 15.8203 110.791 -7.22656 110.791 -35.2051 C 110.791 -63.1836 87.6953 -86.2793 59.7656 -86.2793 C 31.7871 -86.2793 8.74023 -63.1836 8.74023 -35.2051 C 8.74023 -7.22656 31.7871 15.8203 59.7656 15.8203 Z M 50.1465 -14.209 C 47.9004 -14.209 46.6309 -15.7715 46.6309 -17.9688 L 46.6309 -22.8027 L 33.9355 -22.8027 C 30.8594 -22.8027 29.0039 -24.6094 29.0039 -27.7344 C 29.0039 -29.4922 29.3945 -30.957 30.1758 -32.7148 C 32.8125 -37.8906 37.0605 -45.7031 40.4785 -51.8066 C 42.2852 -55.0293 44.3848 -56.3965 47.8516 -56.3965 C 51.5625 -56.3965 53.8086 -54.1016 53.8086 -50.4883 L 53.8086 -29.541 L 55.8105 -29.541 C 57.8613 -29.541 59.082 -28.2715 59.082 -26.1719 C 59.082 -24.0723 57.8613 -22.8516 55.8105 -22.8516 L 53.8086 -22.8516 L 53.8086 -17.9688 C 53.8086 -15.7227 52.4902 -14.209 50.1465 -14.209 Z M 67.2852 -15.1367 C 65.1367 -15.1367 63.623 -16.6016 63.623 -18.8477 C 63.623 -20.166 64.0625 -21.3379 65.2344 -22.6562 L 76.709 -36.1816 C 79.1016 -38.9648 81.3477 -41.3574 81.3477 -44.1895 C 81.3477 -47.2168 79.1504 -49.3164 75.8789 -49.3164 C 72.9492 -49.3164 70.8008 -47.7051 69.8242 -44.6777 C 69.1895 -43.0664 68.2617 -42.041 66.4551 -42.041 C 64.3555 -42.041 63.0859 -43.457 63.0859 -45.5078 C 63.0859 -46.2402 63.1836 -46.875 63.3789 -47.6074 C 64.7461 -52.7344 69.9219 -56.3965 75.8301 -56.3965 C 83.5938 -56.3965 88.4766 -51.7578 88.5254 -44.9219 C 88.5742 -40.1367 86.0352 -36.5234 82.2754 -32.1289 L 74.2188 -22.8027 L 74.2188 -22.3633 L 86.084 -22.3633 C 88.1836 -22.3633 89.6484 -21.0449 89.6484 -18.8477 C 89.6484 -16.5527 88.1836 -15.1367 86.084 -15.1367 Z M 46.6309 -29.541 L 46.6309 -48.6328 L 46.3867 -48.6328 C 43.2129 -42.7734 39.0137 -34.6191 36.6211 -29.7363 L 36.6211 -29.541 Z"/>
  </g>
  <g id="Medium-M" transform="matrix(1 0 0 1 1687.3 1126)">
   <path d="M 59.2285 15.2832 C 86.9141 15.2832 109.766 -7.56836 109.766 -35.2051 C 109.766 -62.8906 86.8652 -85.7422 59.1797 -85.7422 C 31.543 -85.7422 8.74023 -62.8906 8.74023 -35.2051 C 8.74023 -7.56836 31.5918 15.2832 59.2285 15.2832 Z M 49.4141 -13.7695 C 47.2656 -13.7695 46.0938 -15.332 46.0938 -17.4316 L 46.0938 -22.8027 L 32.4219 -22.8027 C 29.541 -22.8027 27.7344 -24.5117 27.7344 -27.4902 C 27.7344 -29.0527 28.0762 -30.3711 28.8574 -32.0312 C 31.8359 -37.6465 36.5234 -45.8984 40.332 -52.4902 C 42.0898 -55.5176 43.9941 -56.7871 47.2656 -56.7871 C 50.6836 -56.7871 52.832 -54.6875 52.832 -51.3672 L 52.832 -29.1016 L 55.1758 -29.1016 C 57.1289 -29.1016 58.3008 -27.8809 58.3008 -25.9277 C 58.3008 -23.9746 57.1289 -22.8027 55.1758 -22.8027 L 52.832 -22.8027 L 52.832 -17.4316 C 52.832 -15.2832 51.6113 -13.7695 49.4141 -13.7695 Z M 66.6016 -14.7949 C 64.5508 -14.7949 63.1836 -16.1133 63.1836 -18.2129 C 63.1836 -19.3848 63.623 -20.459 64.5996 -21.582 L 76.9531 -36.1328 C 79.3945 -38.9648 81.8359 -41.5039 81.8359 -44.5801 C 81.8359 -47.9492 79.3945 -50.2441 75.7812 -50.2441 C 72.5098 -50.2441 70.166 -48.5352 69.043 -45.1172 C 68.4082 -43.5547 67.5781 -42.5781 65.8691 -42.5781 C 63.916 -42.5781 62.7441 -43.8965 62.7441 -45.8984 C 62.7441 -46.582 62.8418 -47.2168 62.9883 -47.8516 C 64.3555 -53.0273 69.6777 -56.7871 75.6348 -56.7871 C 83.5449 -56.7871 88.5742 -52.1973 88.5742 -45.2148 C 88.623 -40.2832 85.9375 -36.6699 82.1777 -32.2754 L 73.2422 -21.875 L 73.2422 -21.4844 L 86.4258 -21.4844 C 88.3301 -21.4844 89.6484 -20.3125 89.6484 -18.2129 C 89.6484 -16.1133 88.3301 -14.7949 86.4258 -14.7949 Z M 46.0938 -29.0527 L 46.0938 -49.4141 L 45.8496 -49.4141 C 42.2852 -43.0664 37.5977 -34.5703 34.9121 -29.2969 L 34.9121 -29.0527 Z"/>
  </g>
  <g id="Regular-M" transform="matrix(1 0 0 1 1391.3 1126)">
   <path d="M 58.5449 14.5508 C 85.791 14.5508 108.35 -8.00781 108.35 -35.2539 C 108.35 -62.4512 85.7422 -85.0586 58.4961 -85.0586 C 31.2988 -85.0586 8.74023 -62.4512 8.74023 -35.2539 C 8.74023 -8.00781 31.3477 14.5508 58.5449 14.5508 Z M 48.4375 -13.2324 C 46.4355 -13.2324 45.4102 -14.6973 45.4102 -16.6992 L 45.4102 -22.7539 L 30.4199 -22.7539 C 27.832 -22.7539 26.0742 -24.3164 26.0742 -27.0996 C 26.0742 -28.5156 26.3672 -29.6387 27.1973 -31.2012 C 30.6152 -37.3535 35.791 -46.1914 40.0879 -53.418 C 41.748 -56.25 43.5547 -57.3242 46.5332 -57.3242 C 49.5117 -57.3242 51.6113 -55.4199 51.6113 -52.5391 L 51.6113 -28.4668 L 54.3945 -28.4668 C 56.1523 -28.4668 57.2754 -27.3926 57.2754 -25.5859 C 57.2754 -23.7793 56.1523 -22.7539 54.3945 -22.7539 L 51.6113 -22.7539 L 51.6113 -16.6992 C 51.6113 -14.6484 50.5371 -13.2324 48.4375 -13.2324 Z M 65.6738 -14.3555 C 63.8184 -14.3555 62.6465 -15.5273 62.6465 -17.3828 C 62.6465 -18.3594 63.0371 -19.2383 63.7695 -20.1172 L 77.2949 -36.0352 C 79.7852 -38.916 82.4707 -41.748 82.4707 -45.0684 C 82.4707 -48.877 79.7852 -51.4648 75.6836 -51.4648 C 71.9727 -51.4648 69.3359 -49.5605 68.0664 -45.7031 C 67.4316 -44.1895 66.6504 -43.3105 65.1855 -43.3105 C 63.3789 -43.3105 62.3047 -44.5312 62.3047 -46.3867 C 62.3047 -46.9727 62.4023 -47.6074 62.5 -48.1934 C 63.8672 -53.4668 69.2871 -57.3242 75.3906 -57.3242 C 83.4473 -57.3242 88.6719 -52.7344 88.6719 -45.6543 C 88.6719 -40.5762 85.8398 -36.8164 82.0801 -32.4219 L 72.0215 -20.752 L 72.0215 -20.3613 L 86.9141 -20.3613 C 88.5254 -20.3613 89.7461 -19.2871 89.7461 -17.3828 C 89.7461 -15.5273 88.5254 -14.3555 86.9141 -14.3555 Z M 45.4102 -28.4668 L 45.4102 -50.4395 L 45.1172 -50.4395 C 41.0645 -43.457 35.791 -34.4727 32.7148 -28.7109 L 32.7148 -28.4668 Z"/>
  </g>
  <g id="Light-M" transform="matrix(1 0 0 1 1095.42 1126)">
   <path d="M 57.7148 13.7695 C 84.5215 13.7695 106.689 -8.39844 106.689 -35.2051 C 106.689 -62.0117 84.5215 -84.1797 57.666 -84.1797 C 30.8594 -84.1797 8.74023 -62.0117 8.74023 -35.2051 C 8.74023 -8.39844 30.9082 13.7695 57.7148 13.7695 Z M 47.4121 -13.623 C 45.8496 -13.623 44.9707 -14.7461 44.9707 -16.3574 L 44.9707 -23.4375 L 28.8574 -23.4375 C 26.709 -23.4375 25.1953 -24.707 25.1953 -27.002 C 25.1953 -28.0762 25.4883 -29.0527 26.123 -30.2246 C 29.6875 -36.2793 36.4258 -47.1191 40.625 -53.9062 C 42.041 -56.2012 43.5059 -57.0801 45.8496 -57.0801 C 48.291 -57.0801 49.9512 -55.5176 49.9512 -53.1738 L 49.9512 -28.0762 L 53.7109 -28.0762 C 55.127 -28.0762 56.0547 -27.1973 56.0547 -25.7324 C 56.0547 -24.2676 55.1758 -23.4375 53.7109 -23.4375 L 49.9512 -23.4375 L 49.9512 -16.3574 C 49.9512 -14.6973 49.0723 -13.623 47.4121 -13.623 Z M 64.6973 -14.4531 C 63.1348 -14.4531 62.1582 -15.4297 62.1582 -16.9434 C 62.1582 -17.8223 62.4512 -18.5059 63.0371 -19.1895 L 77.2461 -35.8398 C 80.0781 -39.1113 82.373 -41.8945 82.373 -45.2637 C 82.373 -49.5117 79.3457 -52.2949 74.6582 -52.2949 C 70.3125 -52.2949 67.1875 -49.8047 66.2109 -45.6543 C 65.7715 -44.3848 65.1367 -43.6035 63.8184 -43.6035 C 62.3535 -43.6035 61.4746 -44.6289 61.4746 -46.1426 C 61.4746 -46.6797 61.5723 -47.168 61.6699 -47.8027 C 62.8906 -53.125 68.3105 -57.0801 74.5117 -57.0801 C 82.2754 -57.0801 87.4023 -52.5879 87.4023 -45.6055 C 87.4023 -40.918 84.9121 -37.3047 80.8105 -32.5684 L 69.6777 -19.5801 L 69.6777 -19.3359 L 86.2305 -19.3359 C 87.5977 -19.3359 88.5254 -18.4082 88.5254 -16.8945 C 88.5254 -15.4297 87.5977 -14.4531 86.2305 -14.4531 Z M 44.9707 -28.0762 L 44.9707 -51.4648 L 44.7266 -51.4648 C 40.918 -45.3125 33.6426 -33.6426 30.6152 -28.2715 L 30.6152 -28.0762 Z"/>
  </g>
  <g id="Thin-M" transform="matrix(1 0 0 1 799.806 1126)">
   <path d="M 56.6406 12.7441 C 82.9102 12.7441 104.492 -8.83789 104.492 -35.1562 C 104.492 -61.4746 82.9102 -83.0566 56.5918 -83.0566 C 30.3223 -83.0566 8.74023 -61.4746 8.74023 -35.1562 C 8.74023 -8.83789 30.3223 12.7441 56.6406 12.7441 Z M 46.0449 -14.1113 C 45.0195 -14.1113 44.3359 -14.7949 44.3359 -15.8691 L 44.3359 -24.3652 L 26.8555 -24.3652 C 25.1953 -24.3652 24.1211 -25.1953 24.1211 -26.8066 C 24.1211 -27.5391 24.3164 -28.2715 24.6582 -28.9551 C 28.5156 -34.8633 37.2559 -48.291 41.4062 -54.5898 C 42.4805 -56.1523 43.4082 -56.6895 44.9707 -56.6895 C 46.6309 -56.6895 47.7539 -55.7129 47.7539 -54.1016 L 47.7539 -27.5879 L 52.832 -27.5879 C 53.8086 -27.5879 54.4434 -26.8555 54.4434 -25.9277 C 54.4434 -24.9512 53.8574 -24.3652 52.832 -24.3652 L 47.7539 -24.3652 L 47.7539 -15.8691 C 47.7539 -14.7949 47.1191 -14.1113 46.0449 -14.1113 Z M 63.3301 -14.5508 C 62.207 -14.5508 61.4746 -15.2832 61.4746 -16.4062 C 61.4746 -17.0898 61.6699 -17.5293 62.0605 -18.0176 L 77.1973 -35.5957 C 80.4688 -39.3555 82.2266 -42.1387 82.2266 -45.5078 C 82.2266 -50.293 78.8086 -53.3691 73.3887 -53.3691 C 68.1152 -53.3691 64.3066 -50.1953 63.8184 -45.6055 C 63.623 -44.6289 63.0859 -44.043 62.0605 -44.043 C 60.9863 -44.043 60.3516 -44.7754 60.3516 -45.8008 C 60.3516 -46.2891 60.4492 -46.6797 60.498 -47.2168 C 61.5234 -52.7344 66.9434 -56.6895 73.291 -56.6895 C 80.7617 -56.6895 85.7422 -52.3438 85.7422 -45.5566 C 85.7422 -41.4551 83.6914 -37.9395 79.1504 -32.7637 L 66.5527 -18.0664 L 66.5527 -17.9199 L 85.3027 -17.9199 C 86.3281 -17.9199 86.9629 -17.2363 86.9629 -16.2598 C 86.9629 -15.332 86.3281 -14.5508 85.3027 -14.5508 Z M 44.3359 -27.5879 L 44.3359 -52.832 L 44.1895 -52.832 C 40.7715 -47.7051 30.7617 -32.5684 27.8809 -27.7344 L 27.8809 -27.5879 Z"/>
  </g>
  <g id="Ultralight-M" transform="matrix(1 0 0 1 503.656 1126)">
   <path d="M 56.0547 12.207 C 82.0801 12.207 103.369 -9.08203 103.369 -35.1562 C 103.369 -61.1816 82.0801 -82.4707 56.0547 -82.4707 C 30.0293 -82.4707 8.74023 -61.1816 8.74023 -35.1562 C 8.74023 -9.08203 30.0293 12.207 56.0547 12.207 Z M 45.3125 -14.3555 C 44.6289 -14.3555 44.043 -14.8438 44.043 -15.625 L 44.043 -24.8047 L 25.7812 -24.8047 C 24.4629 -24.8047 23.5352 -25.4395 23.5352 -26.709 C 23.5352 -27.2461 23.7305 -27.8809 23.9746 -28.2715 C 27.8809 -34.1309 37.6953 -48.877 41.7969 -54.9316 C 42.6758 -56.1523 43.4082 -56.4941 44.5312 -56.4941 C 45.752 -56.4941 46.582 -55.7617 46.582 -54.541 L 46.582 -27.3438 L 52.3926 -27.3438 C 53.125 -27.3438 53.6133 -26.709 53.6133 -26.0254 C 53.6133 -25.293 53.1738 -24.8047 52.3926 -24.8047 L 46.582 -24.8047 L 46.582 -15.625 C 46.582 -14.8438 46.0938 -14.3555 45.3125 -14.3555 Z M 62.6465 -14.6484 C 61.7188 -14.6484 61.1328 -15.1855 61.1328 -16.1133 C 61.1328 -16.6992 61.2305 -17.041 61.5723 -17.3828 L 77.1484 -35.4492 C 80.6641 -39.502 82.1289 -42.2363 82.1289 -45.6055 C 82.1289 -50.6836 78.5156 -53.9551 72.7051 -53.9551 C 66.9922 -53.9551 62.8418 -50.3418 62.5488 -45.6055 C 62.5 -44.7266 62.0605 -44.2383 61.1328 -44.2383 C 60.3027 -44.2383 59.8145 -44.873 59.8145 -45.6543 C 59.8145 -46.0938 59.8633 -46.3867 59.9121 -46.9727 C 60.8398 -52.4902 66.2598 -56.4941 72.7051 -56.4941 C 79.9805 -56.4941 84.9121 -52.1973 84.9121 -45.5566 C 84.9121 -41.6992 83.0566 -38.2812 78.2715 -32.8613 L 64.9414 -17.334 L 64.9414 -17.1875 L 84.8633 -17.1875 C 85.7422 -17.1875 86.1328 -16.6504 86.1328 -15.918 C 86.1328 -15.2344 85.7422 -14.6484 84.8633 -14.6484 Z M 44.043 -27.3438 L 44.043 -53.5156 L 43.9453 -53.5156 C 40.7227 -48.9258 29.2969 -32.0312 26.4648 -27.4414 L 26.4648 -27.3438 Z"/>
  </g>
  <g id="Black-S" transform="matrix(1 0 0 1 2884.57 696)">
   <path d="M 48.8281 6.78711 C 71.9727 6.78711 90.8203 -12.0605 90.8203 -35.2051 C 90.8203 -58.3496 71.9727 -77.1973 48.8281 -77.1973 C 25.6836 -77.1973 6.83594 -58.3496 6.83594 -35.2051 C 6.83594 -12.0605 25.6836 6.78711 48.8281 6.78711 Z M 42.041 -20.2637 C 39.9414 -20.2637 38.5254 -21.6797 38.5254 -23.7305 L 38.5254 -25.6348 L 32.3242 -25.6348 C 29.1016 -25.6348 27.4414 -27.3926 27.4414 -30.4199 C 27.4414 -32.3242 27.9785 -34.082 28.4668 -35.6445 C 29.248 -38.1348 31.0059 -42.5781 32.4219 -45.5566 C 33.9844 -48.7305 36.084 -50.2441 39.6484 -50.2441 C 43.75 -50.2441 45.6543 -47.8516 45.6543 -43.8965 L 45.6543 -32.5684 L 45.9961 -32.5684 C 48.0469 -32.5684 49.1699 -31.1523 49.1699 -29.0527 C 49.1699 -27.002 48.0469 -25.7324 45.9961 -25.7324 L 45.6543 -25.7324 L 45.6543 -23.7305 C 45.6543 -21.6797 44.2383 -20.2637 42.041 -20.2637 Z M 55.3223 -20.8008 C 53.125 -20.8008 51.3672 -22.3145 51.3672 -24.8047 C 51.3672 -26.416 51.9043 -27.7832 53.4668 -29.541 L 59.082 -36.1816 C 60.8398 -38.2324 61.9629 -39.3555 61.9629 -40.8691 C 61.9629 -41.8945 60.9863 -42.7734 59.8145 -42.7734 C 58.7402 -42.7734 57.8613 -42.041 57.5684 -40.9668 C 57.1289 -39.5508 56.1035 -38.4766 54.1016 -38.4766 C 52.0508 -38.4766 50.7324 -39.9414 50.7324 -41.8945 C 50.7324 -42.6758 50.8301 -43.2617 51.0254 -43.9453 C 52.0996 -47.7539 55.8105 -50.2441 60.1562 -50.2441 C 65.7227 -50.2441 69.043 -46.582 69.1406 -41.6016 C 69.1895 -38.3301 67.7734 -35.7422 64.7949 -32.3242 L 61.7676 -28.8086 L 61.7676 -28.418 L 66.1133 -28.418 C 68.5547 -28.418 70.0684 -27.0508 70.0684 -24.707 C 70.0684 -22.2168 68.5547 -20.8008 66.1133 -20.8008 Z M 38.5254 -32.4707 L 38.5254 -42.7734 L 38.4277 -42.7734 C 37.4023 -39.9902 35.791 -34.9609 35.0586 -32.6172 L 35.0586 -32.4707 Z"/>
  </g>
  <g id="Heavy-S" transform="matrix(1 0 0 1 2588.47 696)">
   <path d="M 48.2422 6.15234 C 70.9961 6.15234 89.5996 -12.4512 89.5996 -35.2051 C 89.5996 -57.959 70.9961 -76.6113 48.1934 -76.6113 C 25.4395 -76.6113 6.83594 -57.959 6.83594 -35.2051 C 6.83594 -12.4512 25.4395 6.15234 48.2422 6.15234 Z M 41.2109 -19.6777 C 39.1602 -19.6777 37.8906 -21.0938 37.8906 -23.0469 L 37.8906 -25.4883 L 30.5176 -25.4883 C 27.4902 -25.4883 25.8789 -27.1973 25.8789 -30.0781 C 25.8789 -31.8359 26.3672 -33.3984 26.9043 -34.9121 C 28.125 -37.9883 30.2246 -42.7734 32.1289 -46.4355 C 33.6426 -49.4141 35.6445 -50.8301 38.9648 -50.8301 C 42.7246 -50.8301 44.6289 -48.584 44.6289 -44.9707 L 44.6289 -31.9824 L 45.2637 -31.9824 C 47.2168 -31.9824 48.291 -30.7129 48.291 -28.7109 C 48.291 -26.7578 47.2168 -25.5859 45.2637 -25.5859 L 44.6289 -25.5859 L 44.6289 -23.0469 C 44.6289 -21.0938 43.3105 -19.6777 41.2109 -19.6777 Z M 54.541 -20.3125 C 52.4414 -20.3125 50.8789 -21.7285 50.8789 -24.0234 C 50.8789 -25.4395 51.3672 -26.6602 52.7344 -28.1738 L 59.4238 -36.1328 C 61.1816 -38.1836 62.5977 -39.5508 62.5977 -41.3574 C 62.5977 -42.7734 61.377 -43.8965 59.8145 -43.8965 C 58.3496 -43.8965 57.2754 -43.0664 56.7871 -41.5527 C 56.2988 -40.1855 55.3711 -39.1602 53.5156 -39.1602 C 51.6113 -39.1602 50.3906 -40.5273 50.3906 -42.4316 C 50.3906 -43.1152 50.4883 -43.7012 50.6348 -44.3359 C 51.709 -48.1934 55.5664 -50.8301 60.0098 -50.8301 C 65.7715 -50.8301 69.2871 -47.168 69.3359 -42.041 C 69.3848 -38.5254 67.7734 -35.8398 64.7949 -32.4707 L 60.791 -27.7832 L 60.791 -27.3926 L 66.6504 -27.3926 C 68.8477 -27.3926 70.2637 -26.123 70.2637 -23.9746 C 70.2637 -21.6797 68.8477 -20.3125 66.6504 -20.3125 Z M 37.8906 -31.9336 L 37.8906 -43.7012 L 37.7441 -43.7012 C 36.1816 -40.1855 34.1797 -34.9609 33.0566 -32.0801 L 33.0566 -31.9336 Z"/>
  </g>
  <g id="Bold-S" transform="matrix(1 0 0 1 2292.44 696)">
   <path d="M 47.5586 5.46875 C 69.873 5.46875 88.2324 -12.8906 88.2324 -35.2051 C 88.2324 -57.5684 69.873 -75.9277 47.5098 -75.9277 C 25.1953 -75.9277 6.83594 -57.5684 6.83594 -35.2051 C 6.83594 -12.8906 25.1953 5.46875 47.5586 5.46875 Z M 40.2344 -19.043 C 38.3301 -19.043 37.1582 -20.4102 37.1582 -22.3145 L 37.1582 -25.3906 L 28.4668 -25.3906 C 25.7324 -25.3906 24.1211 -26.9531 24.1211 -29.6875 C 24.1211 -31.25 24.5117 -32.6172 25.1465 -34.082 C 26.8555 -37.793 29.3945 -42.9688 31.7383 -47.4121 C 33.252 -50.1953 35.1074 -51.4648 38.1836 -51.4648 C 41.6016 -51.4648 43.457 -49.4141 43.457 -46.1914 L 43.457 -31.3477 L 44.4336 -31.3477 C 46.2402 -31.3477 47.3145 -30.1758 47.3145 -28.3203 C 47.3145 -26.5137 46.2402 -25.4395 44.4336 -25.4395 L 43.457 -25.4395 L 43.457 -22.3145 C 43.457 -20.4102 42.2852 -19.043 40.2344 -19.043 Z M 53.6133 -19.8242 C 51.709 -19.8242 50.3418 -21.0938 50.3418 -23.1445 C 50.3418 -24.3652 50.7812 -25.4395 51.9043 -26.709 L 59.8145 -36.084 C 61.5723 -38.1348 63.2812 -39.7949 63.2812 -41.8457 C 63.2812 -43.75 61.8164 -45.166 59.7656 -45.166 C 57.959 -45.166 56.6406 -44.1895 55.9082 -42.1875 C 55.3711 -40.8691 54.541 -39.9414 52.8809 -39.9414 C 51.0742 -39.9414 49.9512 -41.2109 49.9512 -43.0176 C 49.9512 -43.6523 50.0488 -44.1895 50.1953 -44.7754 C 51.3184 -48.7305 55.2734 -51.4648 59.8145 -51.4648 C 65.8203 -51.4648 69.5801 -47.8027 69.6289 -42.4805 C 69.6289 -38.7695 67.7246 -35.9863 64.8438 -32.666 L 59.668 -26.6113 L 59.668 -26.2695 L 67.2363 -26.2695 C 69.1895 -26.2695 70.459 -25.0977 70.459 -23.0957 C 70.459 -21.0449 69.1895 -19.8242 67.2363 -19.8242 Z M 37.1582 -31.2988 L 37.1582 -44.7266 L 36.9629 -44.7266 C 34.8145 -40.3809 32.4219 -35.0098 30.8594 -31.4453 L 30.8594 -31.2988 Z"/>
  </g>
  <g id="Semibold-S" transform="matrix(1 0 0 1 1996.2 696)">
   <path d="M 47.0703 4.98047 C 69.0918 4.98047 87.3047 -13.1836 87.3047 -35.2539 C 87.3047 -57.2754 69.0918 -75.4883 47.0215 -75.4883 C 25 -75.4883 6.83594 -57.2754 6.83594 -35.2539 C 6.83594 -13.1836 25.0488 4.98047 47.0703 4.98047 Z M 39.5996 -18.6035 C 37.6953 -18.6035 36.6699 -19.9707 36.6699 -21.7773 L 36.6699 -25.293 L 27.0508 -25.293 C 24.4629 -25.293 22.9004 -26.8066 22.9004 -29.3945 C 22.9004 -30.8594 23.2422 -32.0801 23.9258 -33.5449 C 25.9766 -37.6465 28.7598 -43.1152 31.4941 -48.0957 C 33.0078 -50.7812 34.7656 -51.9043 37.6953 -51.9043 C 40.7715 -51.9043 42.627 -50 42.627 -47.0215 L 42.627 -30.9082 L 43.8965 -30.9082 C 45.6055 -30.9082 46.6309 -29.834 46.6309 -28.0762 C 46.6309 -26.3184 45.6055 -25.293 43.8965 -25.293 L 42.627 -25.293 L 42.627 -21.7773 C 42.627 -19.9219 41.5527 -18.6035 39.5996 -18.6035 Z M 53.0273 -19.4336 C 51.2207 -19.4336 50 -20.6543 50 -22.5098 C 50 -23.584 50.3906 -24.5605 51.3184 -25.6348 L 60.1074 -36.0352 C 61.8652 -38.0859 63.7695 -39.9902 63.7695 -42.2363 C 63.7695 -44.4336 62.1582 -46.0449 59.7656 -46.0449 C 57.666 -46.0449 56.1523 -44.9707 55.2734 -42.6758 C 54.7363 -41.3574 53.9551 -40.4785 52.4414 -40.4785 C 50.7324 -40.4785 49.6582 -41.6504 49.6582 -43.4082 C 49.6582 -43.9941 49.7559 -44.5312 49.9023 -45.0684 C 51.0254 -49.0723 55.127 -51.9043 59.7168 -51.9043 C 65.8691 -51.9043 69.7266 -48.2422 69.7754 -42.8223 C 69.7754 -38.916 67.7246 -36.084 64.8438 -32.7637 L 58.8867 -25.8301 L 58.8867 -25.4883 L 67.6758 -25.4883 C 69.3848 -25.4883 70.6055 -24.4141 70.6055 -22.5098 C 70.6055 -20.6055 69.3848 -19.4336 67.6758 -19.4336 Z M 36.6699 -30.8594 L 36.6699 -45.4102 L 36.4746 -45.4102 C 33.8379 -40.5273 31.2012 -35.0098 29.2969 -31.0547 L 29.2969 -30.8594 Z"/>
  </g>
  <g id="Medium-S" transform="matrix(1 0 0 1 1699.83 696)">
   <path d="M 46.7285 4.63867 C 68.5547 4.63867 86.6211 -13.4277 86.6211 -35.2539 C 86.6211 -57.0312 68.5059 -75.1465 46.6797 -75.1465 C 24.8535 -75.1465 6.83594 -57.0312 6.83594 -35.2539 C 6.83594 -13.4277 24.9023 4.63867 46.7285 4.63867 Z M 39.1113 -18.2617 C 37.2559 -18.2617 36.2793 -19.5801 36.2793 -21.3867 L 36.2793 -25.1953 L 25.9766 -25.1953 C 23.5352 -25.1953 22.0215 -26.6602 22.0215 -29.1992 C 22.0215 -30.5664 22.3145 -31.6406 22.998 -33.1055 C 25.293 -37.5488 28.3203 -43.2617 31.3477 -48.584 C 32.8125 -51.1719 34.4727 -52.2461 37.3047 -52.2461 C 40.1855 -52.2461 42.041 -50.4395 42.041 -47.6074 L 42.041 -30.5664 L 43.457 -30.5664 C 45.1172 -30.5664 46.1426 -29.541 46.1426 -27.8809 C 46.1426 -26.1719 45.1172 -25.2441 43.457 -25.2441 L 42.041 -25.2441 L 42.041 -21.3867 C 42.041 -19.5801 41.0156 -18.2617 39.1113 -18.2617 Z M 52.5391 -19.1895 C 50.8301 -19.1895 49.707 -20.3125 49.707 -22.0703 C 49.707 -23.0469 50.0488 -23.9258 50.8789 -24.8535 L 60.3027 -35.9863 C 62.0605 -38.0371 64.1602 -40.0879 64.1602 -42.4805 C 64.1602 -44.9707 62.3535 -46.6797 59.7656 -46.6797 C 57.4707 -46.6797 55.8105 -45.5566 54.834 -43.0176 C 54.248 -41.6992 53.5156 -40.8691 52.1484 -40.8691 C 50.4883 -40.8691 49.4629 -41.9922 49.4629 -43.7012 C 49.4629 -44.2383 49.5605 -44.7754 49.6582 -45.3125 C 50.8301 -49.3164 54.9805 -52.2461 59.6191 -52.2461 C 65.918 -52.2461 69.873 -48.584 69.9219 -43.0664 C 69.9219 -39.0625 67.6758 -36.1816 64.8926 -32.8613 L 58.3008 -25.2441 L 58.3008 -24.9023 L 67.9688 -24.9023 C 69.5801 -24.9023 70.7031 -23.877 70.7031 -22.0703 C 70.7031 -20.2637 69.5801 -19.1895 67.9688 -19.1895 Z M 36.2793 -30.5176 L 36.2793 -45.9473 L 36.0352 -45.9473 C 33.1543 -40.6738 30.2734 -35.0098 28.125 -30.7129 L 28.125 -30.5176 Z"/>
  </g>
  <g id="Regular-S" transform="matrix(1 0 0 1 1403.58 696)">
   <path d="M 46.2402 4.15039 C 67.7734 4.15039 85.6934 -13.7207 85.6934 -35.2539 C 85.6934 -56.7871 67.7246 -74.6582 46.1914 -74.6582 C 24.707 -74.6582 6.83594 -56.7871 6.83594 -35.2539 C 6.83594 -13.7207 24.7559 4.15039 46.2402 4.15039 Z M 38.4766 -17.8223 C 36.6699 -17.8223 35.791 -19.1406 35.791 -20.8984 L 35.791 -25.0977 L 24.5605 -25.0977 C 22.3145 -25.0977 20.8008 -26.5137 20.8008 -28.9551 C 20.8008 -30.1758 21.0449 -31.1035 21.8262 -32.5684 C 24.4141 -37.4512 27.7344 -43.4082 31.1035 -49.2676 C 32.5684 -51.709 34.1309 -52.6855 36.7676 -52.6855 C 39.4043 -52.6855 41.2598 -50.9766 41.2598 -48.4375 L 41.2598 -30.127 L 42.9199 -30.127 C 44.4824 -30.127 45.459 -29.1992 45.459 -27.5879 C 45.459 -26.0254 44.4824 -25.0977 42.9199 -25.0977 L 41.2598 -25.0977 L 41.2598 -20.8984 C 41.2598 -19.0918 40.2832 -17.8223 38.4766 -17.8223 Z M 51.9531 -18.7988 C 50.3418 -18.7988 49.3164 -19.873 49.3164 -21.4844 C 49.3164 -22.2656 49.6582 -23.0957 50.3418 -23.8281 L 60.5957 -35.9375 C 62.3535 -38.0371 64.6484 -40.2832 64.6484 -42.8711 C 64.6484 -45.6543 62.6953 -47.5586 59.7656 -47.5586 C 57.1777 -47.5586 55.3711 -46.3379 54.1992 -43.457 C 53.6133 -42.1875 52.9297 -41.4062 51.709 -41.4062 C 50.1465 -41.4062 49.1699 -42.4316 49.1699 -44.0918 C 49.1699 -44.5801 49.2676 -45.1172 49.3652 -45.6055 C 50.5371 -49.6582 54.7852 -52.6855 59.4727 -52.6855 C 65.918 -52.6855 70.0684 -49.0234 70.0684 -43.4082 C 70.0684 -39.209 67.6758 -36.2793 64.8926 -32.959 L 57.5684 -24.4141 L 57.5684 -24.1211 L 68.4082 -24.1211 C 69.7754 -24.1211 70.8496 -23.1445 70.8496 -21.4844 C 70.8496 -19.873 69.7754 -18.7988 68.4082 -18.7988 Z M 35.791 -30.127 L 35.791 -46.6309 L 35.5469 -46.6309 C 32.2266 -40.8203 29.0527 -35.0098 26.6113 -30.3223 L 26.6113 -30.127 Z"/>
  </g>
  <g id="Light-S" transform="matrix(1 0 0 1 1107.6 696)">
   <path d="M 45.5078 3.4668 C 66.6992 3.4668 84.2285 -14.0625 84.2285 -35.2051 C 84.2285 -56.3965 66.6504 -73.9258 45.5078 -73.9258 C 24.3164 -73.9258 6.83594 -56.3965 6.83594 -35.2051 C 6.83594 -14.0625 24.3652 3.4668 45.5078 3.4668 Z M 37.5488 -18.1641 C 36.1328 -18.1641 35.3516 -19.1895 35.3516 -20.5566 L 35.3516 -25.7324 L 23.1934 -25.7324 C 21.3379 -25.7324 20.0684 -26.8555 20.0684 -28.8086 C 20.0684 -29.7852 20.2637 -30.6152 20.8496 -31.6895 C 23.6328 -36.4746 28.2715 -44.1895 31.5918 -49.707 C 32.8125 -51.6602 34.082 -52.4414 36.1816 -52.4414 C 38.2812 -52.4414 39.7461 -51.0742 39.7461 -49.0234 L 39.7461 -29.7852 L 42.334 -29.7852 C 43.5547 -29.7852 44.3848 -29.0039 44.3848 -27.7344 C 44.3848 -26.4648 43.6035 -25.7324 42.334 -25.7324 L 39.7461 -25.7324 L 39.7461 -20.5566 C 39.7461 -19.1406 39.0137 -18.1641 37.5488 -18.1641 Z M 51.0254 -18.8965 C 49.707 -18.8965 48.877 -19.7754 48.877 -21.0938 C 48.877 -21.7773 49.1211 -22.4121 49.6582 -23.0469 L 60.5469 -35.791 C 62.5977 -38.1836 64.5508 -40.4297 64.5508 -43.0176 C 64.5508 -46.1914 62.3047 -48.291 58.8867 -48.291 C 55.7129 -48.291 53.4668 -46.582 52.5879 -43.4082 C 52.1484 -42.334 51.6113 -41.6992 50.4883 -41.6992 C 49.2188 -41.6992 48.4375 -42.5293 48.4375 -43.8965 C 48.4375 -44.3359 48.5352 -44.7754 48.6328 -45.2148 C 49.6094 -49.3652 53.8574 -52.4414 58.6914 -52.4414 C 64.8926 -52.4414 68.9453 -48.877 68.9453 -43.3594 C 68.9453 -39.5508 66.8457 -36.6699 63.7695 -33.1055 L 55.4688 -23.4375 L 55.4688 -23.1445 L 67.8223 -23.1445 C 68.9453 -23.1445 69.8242 -22.3633 69.8242 -21.0449 C 69.8242 -19.7754 68.9453 -18.8965 67.8223 -18.8965 Z M 35.3516 -29.7852 L 35.3516 -47.5586 L 35.2051 -47.5586 C 32.1289 -42.4316 27.1484 -34.3262 24.8047 -29.9316 L 24.8047 -29.7852 Z"/>
  </g>
  <g id="Thin-S" transform="matrix(1 0 0 1 811.867 696)">
   <path d="M 44.5801 2.53906 C 65.2832 2.53906 82.2754 -14.4531 82.2754 -35.2051 C 82.2754 -55.9082 65.2344 -72.9004 44.5312 -72.9004 C 23.8281 -72.9004 6.83594 -55.9082 6.83594 -35.2051 C 6.83594 -14.4531 23.877 2.53906 44.5801 2.53906 Z M 36.3281 -18.5547 C 35.4004 -18.5547 34.8633 -19.1895 34.8633 -20.166 L 34.8633 -26.5137 L 21.3867 -26.5137 C 20.0195 -26.5137 19.0918 -27.2461 19.0918 -28.6621 C 19.0918 -29.2969 19.2383 -29.9316 19.5801 -30.5664 C 22.5586 -35.2051 29.0039 -45.2148 32.2754 -50.2441 C 33.1543 -51.6602 34.0332 -52.0996 35.4004 -52.0996 C 36.8164 -52.0996 37.793 -51.2207 37.793 -49.8535 L 37.793 -29.3457 L 41.5527 -29.3457 C 42.3828 -29.3457 42.9688 -28.7598 42.9688 -27.9297 C 42.9688 -27.0508 42.4316 -26.5137 41.5527 -26.5137 L 37.793 -26.5137 L 37.793 -20.166 C 37.793 -19.1895 37.2559 -18.5547 36.3281 -18.5547 Z M 49.8535 -18.9941 C 48.9258 -18.9941 48.291 -19.6289 48.291 -20.6055 C 48.291 -21.1426 48.4375 -21.5332 48.7793 -21.9727 L 60.498 -35.5469 C 62.9395 -38.4277 64.4531 -40.5762 64.4531 -43.2129 C 64.4531 -46.875 61.8164 -49.2188 57.7148 -49.2188 C 53.7598 -49.2188 50.9277 -46.875 50.4395 -43.4082 C 50.2441 -42.5293 49.8047 -42.041 48.9258 -42.041 C 48.0469 -42.041 47.5098 -42.6758 47.5098 -43.6035 C 47.5098 -43.9941 47.5586 -44.2871 47.6074 -44.7266 C 48.4375 -49.0234 52.6855 -52.0996 57.666 -52.0996 C 63.5742 -52.0996 67.4805 -48.6816 67.4805 -43.3594 C 67.4805 -39.9902 65.7715 -37.2559 62.3047 -33.252 L 52.7344 -22.0703 L 52.7344 -21.9238 L 66.9922 -21.9238 C 67.8711 -21.9238 68.4082 -21.3379 68.4082 -20.5078 C 68.4082 -19.6777 67.8711 -18.9941 66.9922 -18.9941 Z M 34.8633 -29.3457 L 34.8633 -48.7305 L 34.7168 -48.7305 C 31.9824 -44.5312 24.6582 -33.3496 22.3633 -29.4434 L 22.3633 -29.3457 Z"/>
  </g>
  <g id="Ultralight-S" transform="matrix(1 0 0 1 515.644 696)">
   <path d="M 44.043 2.05078 C 64.502 2.05078 81.2988 -14.6973 81.2988 -35.1562 C 81.2988 -55.6152 64.502 -72.3633 44.043 -72.3633 C 23.584 -72.3633 6.83594 -55.6152 6.83594 -35.1562 C 6.83594 -14.6973 23.584 2.05078 44.043 2.05078 Z M 35.6934 -18.7988 C 35.0586 -18.7988 34.5703 -19.2383 34.5703 -19.9219 L 34.5703 -26.9531 L 20.459 -26.9531 C 19.3359 -26.9531 18.5547 -27.4902 18.5547 -28.5645 C 18.5547 -29.0527 18.7012 -29.5898 18.9453 -29.9805 C 22.0215 -34.5703 29.3945 -45.752 32.6172 -50.5859 C 33.3496 -51.6113 33.9844 -51.9531 35.0098 -51.9531 C 36.084 -51.9531 36.8164 -51.3184 36.8164 -50.2441 L 36.8164 -29.1016 L 41.1621 -29.1016 C 41.7969 -29.1016 42.1875 -28.6133 42.1875 -28.0273 C 42.1875 -27.3926 41.8457 -26.9531 41.1621 -26.9531 L 36.8164 -26.9531 L 36.8164 -19.9219 C 36.8164 -19.2383 36.377 -18.7988 35.6934 -18.7988 Z M 49.2676 -19.0918 C 48.4863 -19.0918 47.9492 -19.5312 47.9492 -20.3125 C 47.9492 -20.8496 48.0957 -21.0938 48.3398 -21.4355 L 60.4492 -35.4492 C 63.1348 -38.5254 64.3555 -40.7227 64.3555 -43.3105 C 64.3555 -47.2168 61.5723 -49.7559 57.1289 -49.7559 C 52.7832 -49.7559 49.6094 -47.0215 49.3164 -43.3594 C 49.2676 -42.627 48.877 -42.2363 48.1445 -42.2363 C 47.4121 -42.2363 46.9727 -42.7734 46.9727 -43.457 C 46.9727 -43.7988 47.0215 -44.043 47.0703 -44.4824 C 47.8516 -48.8281 52.0996 -51.9531 57.1289 -51.9531 C 62.8418 -51.9531 66.748 -48.584 66.748 -43.3105 C 66.748 -40.2344 65.2344 -37.5488 61.5723 -33.3496 L 51.3184 -21.3867 L 51.3184 -21.2891 L 66.6016 -21.2891 C 67.334 -21.2891 67.6758 -20.8008 67.6758 -20.166 C 67.6758 -19.5801 67.334 -19.0918 66.6016 -19.0918 Z M 34.5703 -29.1016 L 34.5703 -49.3652 L 34.4727 -49.3652 C 31.8848 -45.6543 23.3398 -32.8613 21.0938 -29.1992 L 21.0938 -29.1016 Z"/>
  </g>
 </g>
</svg>
