<?xml version="1.0" encoding="UTF-8"?>
<!--Generator: Apple Native CoreSVG 123-->
<!DOCTYPE svg
PUBLIC "-//W3C//DTD SVG 1.1//EN"
       "http://www.w3.org/Graphics/SVG/1.1/DTD/svg11.dtd">
<svg version="1.1" xmlns="http://www.w3.org/2000/svg" xmlns:xlink="http://www.w3.org/1999/xlink" width="3300" height="2200">
 <!--glyph: "uni1006AE.medium", point size: 100.000000, font version: "Version 15.0d7e11", template writer version: "5"-->
 <g id="Notes">
  <rect height="2200" id="artboard" style="fill:white;opacity:1" width="3300" x="0" y="0"/>
  <line id="" style="fill:none;stroke:black;opacity:1;stroke-width:0.5;" x1="263" x2="3036" y1="292" y2="292"/>
  <text style="stroke:none;fill:black;font-family:-apple-system,&quot;SF Pro Display&quot;,&quot;SF Pro Text&quot;,Helvetica,sans-serif;font-weight:bold;" transform="matrix(1 0 0 1 263 322)">Weight/Scale Variations</text>
  <text style="stroke:none;fill:black;font-family:-apple-system,&quot;SF Pro Display&quot;,&quot;SF Pro Text&quot;,Helvetica,sans-serif;text-anchor:middle;" transform="matrix(1 0 0 1 559.711 322)">Ultralight</text>
  <text style="stroke:none;fill:black;font-family:-apple-system,&quot;SF Pro Display&quot;,&quot;SF Pro Text&quot;,Helvetica,sans-serif;text-anchor:middle;" transform="matrix(1 0 0 1 856.422 322)">Thin</text>
  <text style="stroke:none;fill:black;font-family:-apple-system,&quot;SF Pro Display&quot;,&quot;SF Pro Text&quot;,Helvetica,sans-serif;text-anchor:middle;" transform="matrix(1 0 0 1 1153.13 322)">Light</text>
  <text style="stroke:none;fill:black;font-family:-apple-system,&quot;SF Pro Display&quot;,&quot;SF Pro Text&quot;,Helvetica,sans-serif;text-anchor:middle;" transform="matrix(1 0 0 1 1449.84 322)">Regular</text>
  <text style="stroke:none;fill:black;font-family:-apple-system,&quot;SF Pro Display&quot;,&quot;SF Pro Text&quot;,Helvetica,sans-serif;text-anchor:middle;" transform="matrix(1 0 0 1 1746.56 322)">Medium</text>
  <text style="stroke:none;fill:black;font-family:-apple-system,&quot;SF Pro Display&quot;,&quot;SF Pro Text&quot;,Helvetica,sans-serif;text-anchor:middle;" transform="matrix(1 0 0 1 2043.27 322)">Semibold</text>
  <text style="stroke:none;fill:black;font-family:-apple-system,&quot;SF Pro Display&quot;,&quot;SF Pro Text&quot;,Helvetica,sans-serif;text-anchor:middle;" transform="matrix(1 0 0 1 2339.98 322)">Bold</text>
  <text style="stroke:none;fill:black;font-family:-apple-system,&quot;SF Pro Display&quot;,&quot;SF Pro Text&quot;,Helvetica,sans-serif;text-anchor:middle;" transform="matrix(1 0 0 1 2636.69 322)">Heavy</text>
  <text style="stroke:none;fill:black;font-family:-apple-system,&quot;SF Pro Display&quot;,&quot;SF Pro Text&quot;,Helvetica,sans-serif;text-anchor:middle;" transform="matrix(1 0 0 1 2933.4 322)">Black</text>
  <line id="" style="fill:none;stroke:black;opacity:1;stroke-width:0.5;" x1="263" x2="3036" y1="1903" y2="1903"/>
  <g id="" transform="matrix(1 0 0 1 263 1933)">
   <path d="M 9.24805 0.830078 C 13.5547 0.830078 17.1387 -2.74414 17.1387 -7.05078 C 17.1387 -11.3574 13.5449 -14.9316 9.23828 -14.9316 C 4.94141 -14.9316 1.36719 -11.3574 1.36719 -7.05078 C 1.36719 -2.74414 4.95117 0.830078 9.24805 0.830078 Z M 9.24805 -0.654297 C 5.70312 -0.654297 2.87109 -3.49609 2.87109 -7.05078 C 2.87109 -10.6055 5.69336 -13.4473 9.23828 -13.4473 C 12.793 -13.4473 15.6348 -10.6055 15.6445 -7.05078 C 15.6543 -3.49609 12.8027 -0.654297 9.24805 -0.654297 Z M 9.22852 -3.42773 C 9.69727 -3.42773 9.9707 -3.74023 9.9707 -4.25781 L 9.9707 -6.31836 L 12.1973 -6.31836 C 12.6953 -6.31836 13.0371 -6.57227 13.0371 -7.04102 C 13.0371 -7.51953 12.7148 -7.7832 12.1973 -7.7832 L 9.9707 -7.7832 L 9.9707 -10.0098 C 9.9707 -10.5273 9.69727 -10.8496 9.22852 -10.8496 C 8.75977 -10.8496 8.50586 -10.5078 8.50586 -10.0098 L 8.50586 -7.7832 L 6.29883 -7.7832 C 5.78125 -7.7832 5.44922 -7.51953 5.44922 -7.04102 C 5.44922 -6.57227 5.80078 -6.31836 6.29883 -6.31836 L 8.50586 -6.31836 L 8.50586 -4.25781 C 8.50586 -3.75977 8.75977 -3.42773 9.22852 -3.42773 Z"/>
  </g>
  <g id="" transform="matrix(1 0 0 1 281.506 1933)">
   <path d="M 11.709 2.91016 C 17.1582 2.91016 21.6699 -1.60156 21.6699 -7.05078 C 21.6699 -12.4902 17.1484 -17.0117 11.6992 -17.0117 C 6.25977 -17.0117 1.74805 -12.4902 1.74805 -7.05078 C 1.74805 -1.60156 6.26953 2.91016 11.709 2.91016 Z M 11.709 1.25 C 7.09961 1.25 3.41797 -2.44141 3.41797 -7.05078 C 3.41797 -11.6504 7.08984 -15.3516 11.6992 -15.3516 C 16.3086 -15.3516 20 -11.6504 20.0098 -7.05078 C 20.0195 -2.44141 16.3184 1.25 11.709 1.25 Z M 11.6895 -2.41211 C 12.207 -2.41211 12.5195 -2.77344 12.5195 -3.33984 L 12.5195 -6.23047 L 15.5762 -6.23047 C 16.123 -6.23047 16.5039 -6.51367 16.5039 -7.03125 C 16.5039 -7.55859 16.1426 -7.86133 15.5762 -7.86133 L 12.5195 -7.86133 L 12.5195 -10.9277 C 12.5195 -11.5039 12.207 -11.8555 11.6895 -11.8555 C 11.1719 -11.8555 10.8789 -11.4844 10.8789 -10.9277 L 10.8789 -7.86133 L 7.83203 -7.86133 C 7.26562 -7.86133 6.89453 -7.55859 6.89453 -7.03125 C 6.89453 -6.51367 7.28516 -6.23047 7.83203 -6.23047 L 10.8789 -6.23047 L 10.8789 -3.33984 C 10.8789 -2.79297 11.1719 -2.41211 11.6895 -2.41211 Z"/>
  </g>
  <g id="" transform="matrix(1 0 0 1 304.924 1933)">
   <path d="M 14.9707 5.67383 C 21.9336 5.67383 27.6953 -0.078125 27.6953 -7.04102 C 27.6953 -14.0039 21.9238 -19.7559 14.9609 -19.7559 C 8.00781 -19.7559 2.25586 -14.0039 2.25586 -7.04102 C 2.25586 -0.078125 8.01758 5.67383 14.9707 5.67383 Z M 14.9707 3.85742 C 8.93555 3.85742 4.08203 -1.00586 4.08203 -7.04102 C 4.08203 -13.0762 8.92578 -17.9395 14.9609 -17.9395 C 21.0059 -17.9395 25.8594 -13.0762 25.8691 -7.04102 C 25.8789 -1.00586 21.0156 3.85742 14.9707 3.85742 Z M 14.9512 -1.06445 C 15.5176 -1.06445 15.8691 -1.45508 15.8691 -2.06055 L 15.8691 -6.13281 L 20.1074 -6.13281 C 20.6934 -6.13281 21.1133 -6.46484 21.1133 -7.02148 C 21.1133 -7.59766 20.7227 -7.93945 20.1074 -7.93945 L 15.8691 -7.93945 L 15.8691 -12.1875 C 15.8691 -12.8027 15.5176 -13.1934 14.9512 -13.1934 C 14.3848 -13.1934 14.0625 -12.7832 14.0625 -12.1875 L 14.0625 -7.93945 L 9.83398 -7.93945 C 9.21875 -7.93945 8.80859 -7.59766 8.80859 -7.02148 C 8.80859 -6.46484 9.23828 -6.13281 9.83398 -6.13281 L 14.0625 -6.13281 L 14.0625 -2.06055 C 14.0625 -1.47461 14.3848 -1.06445 14.9512 -1.06445 Z"/>
  </g>
  <text style="stroke:none;fill:black;font-family:-apple-system,&quot;SF Pro Display&quot;,&quot;SF Pro Text&quot;,Helvetica,sans-serif;font-weight:bold;" transform="matrix(1 0 0 1 263 1953)">Design Variations</text>
  <text style="stroke:none;fill:black;font-family:-apple-system,&quot;SF Pro Display&quot;,&quot;SF Pro Text&quot;,Helvetica,sans-serif;" transform="matrix(1 0 0 1 263 1971)">Symbols are supported in up to nine weights and three scales.</text>
  <text style="stroke:none;fill:black;font-family:-apple-system,&quot;SF Pro Display&quot;,&quot;SF Pro Text&quot;,Helvetica,sans-serif;" transform="matrix(1 0 0 1 263 1989)">For optimal layout with text and other symbols, vertically align</text>
  <text style="stroke:none;fill:black;font-family:-apple-system,&quot;SF Pro Display&quot;,&quot;SF Pro Text&quot;,Helvetica,sans-serif;" transform="matrix(1 0 0 1 263 2007)">symbols with the adjacent text.</text>
  <rect height="14" id="" style="fill:#00AEEF;stroke:none;opacity:0.4;" width="3" x="776" y="1919"/>
  <g id="" transform="matrix(1 0 0 1 779 1933)">
   <path d="M 10.5273 0 L 12.373 0 L 7.17773 -14.0918 L 5.43945 -14.0918 L 0.244141 0 L 2.08984 0 L 3.50586 -4.0332 L 9.11133 -4.0332 Z M 6.2793 -11.9531 L 6.33789 -11.9531 L 8.59375 -5.52734 L 4.02344 -5.52734 Z"/>
  </g>
  <rect height="14" id="" style="fill:#00AEEF;stroke:none;opacity:0.4;" width="3" x="791.617" y="1919"/>
  <text style="stroke:none;fill:black;font-family:-apple-system,&quot;SF Pro Display&quot;,&quot;SF Pro Text&quot;,Helvetica,sans-serif;font-weight:bold;" transform="matrix(1 0 0 1 776 1953)">Margins</text>
  <text style="stroke:none;fill:black;font-family:-apple-system,&quot;SF Pro Display&quot;,&quot;SF Pro Text&quot;,Helvetica,sans-serif;" transform="matrix(1 0 0 1 776 1971)">Leading and trailing margins on the left and right side of each symbol</text>
  <text style="stroke:none;fill:black;font-family:-apple-system,&quot;SF Pro Display&quot;,&quot;SF Pro Text&quot;,Helvetica,sans-serif;" transform="matrix(1 0 0 1 776 1989)">can be adjusted by modifying the width of the blue rectangles.</text>
  <text style="stroke:none;fill:black;font-family:-apple-system,&quot;SF Pro Display&quot;,&quot;SF Pro Text&quot;,Helvetica,sans-serif;" transform="matrix(1 0 0 1 776 2007)">Modifications are automatically applied proportionally to all</text>
  <text style="stroke:none;fill:black;font-family:-apple-system,&quot;SF Pro Display&quot;,&quot;SF Pro Text&quot;,Helvetica,sans-serif;" transform="matrix(1 0 0 1 776 2025)">scales and weights.</text>
  <g id="" transform="matrix(1 0 0 1 1289 1933)">
   <path d="M 2.83203 3.11523 L 4.375 4.6582 C 5.22461 5.48828 6.19141 5.41992 7.06055 4.46289 L 17.2754 -6.66016 C 17.7051 -6.36719 18.0957 -6.37695 18.5645 -6.47461 L 19.6094 -6.68945 L 20.3027 -5.99609 L 20.2539 -5.47852 C 20.1855 -4.95117 20.3516 -4.53125 20.8496 -4.0332 L 21.6602 -3.22266 C 22.168 -2.71484 22.8223 -2.68555 23.3008 -3.16406 L 26.5527 -6.41602 C 27.0312 -6.89453 27.0117 -7.54883 26.5039 -8.05664 L 25.6836 -8.87695 C 25.1855 -9.375 24.7754 -9.55078 24.2383 -9.47266 L 23.7109 -9.41406 L 23.0566 -10.0781 L 23.3398 -11.2207 C 23.4863 -11.7871 23.3398 -12.2559 22.7148 -12.8613 L 20.3027 -15.2539 C 16.7578 -18.7793 12.2266 -18.6719 9.11133 -15.5371 C 8.69141 -15.1074 8.64258 -14.5215 8.91602 -14.0918 C 9.15039 -13.7207 9.62891 -13.4961 10.2734 -13.6621 C 11.7871 -14.043 13.3008 -13.9258 14.7852 -12.9199 L 14.1602 -11.3379 C 13.9258 -10.752 13.9453 -10.2734 14.1797 -9.83398 L 3.01758 0.439453 C 2.08008 1.30859 1.97266 2.25586 2.83203 3.11523 Z M 10.6738 -15.1465 C 13.3398 -17.1387 16.6504 -16.8262 19.0527 -14.4141 L 21.6797 -11.8066 C 21.9141 -11.5723 21.9434 -11.3867 21.8848 -11.0938 L 21.5039 -9.53125 L 23.0762 -7.95898 L 24.043 -8.04688 C 24.3262 -8.07617 24.4141 -8.05664 24.6387 -7.83203 L 25.2637 -7.20703 L 22.5098 -4.46289 L 21.8848 -5.07812 C 21.6602 -5.30273 21.6406 -5.40039 21.6699 -5.68359 L 21.7578 -6.64062 L 20.1953 -8.20312 L 18.5742 -7.89062 C 18.291 -7.83203 18.1445 -7.83203 17.9102 -8.07617 L 15.7324 -10.2539 C 15.5078 -10.4883 15.4785 -10.625 15.6055 -10.9473 L 16.5527 -13.2227 C 14.9512 -14.7559 12.8418 -15.6055 10.8008 -14.9512 C 10.7129 -14.9219 10.6445 -14.9414 10.6152 -14.9805 C 10.5859 -15.0293 10.5859 -15.0781 10.6738 -15.1465 Z M 4.10156 2.41211 C 3.61328 1.91406 3.78906 1.61133 4.12109 1.30859 L 15.0781 -8.80859 L 16.3086 -7.57812 L 6.15234 3.34961 C 5.84961 3.68164 5.46875 3.7793 5.06836 3.37891 Z"/>
  </g>
  <text style="stroke:none;fill:black;font-family:-apple-system,&quot;SF Pro Display&quot;,&quot;SF Pro Text&quot;,Helvetica,sans-serif;font-weight:bold;" transform="matrix(1 0 0 1 1289 1953)">Exporting</text>
  <text style="stroke:none;fill:black;font-family:-apple-system,&quot;SF Pro Display&quot;,&quot;SF Pro Text&quot;,Helvetica,sans-serif;" transform="matrix(1 0 0 1 1289 1971)">Symbols should be outlined when exporting to ensure the</text>
  <text style="stroke:none;fill:black;font-family:-apple-system,&quot;SF Pro Display&quot;,&quot;SF Pro Text&quot;,Helvetica,sans-serif;" transform="matrix(1 0 0 1 1289 1989)">design is preserved when submitting to Xcode.</text>
  <text id="template-version" style="stroke:none;fill:black;font-family:-apple-system,&quot;SF Pro Display&quot;,&quot;SF Pro Text&quot;,Helvetica,sans-serif;text-anchor:end;" transform="matrix(1 0 0 1 3036 1933)">Template v.1.0</text>
  <text style="stroke:none;fill:black;font-family:-apple-system,&quot;SF Pro Display&quot;,&quot;SF Pro Text&quot;,Helvetica,sans-serif;text-anchor:end;" transform="matrix(1 0 0 1 3036 1951)">Generated from 43.circle.fill</text>
  <text style="stroke:none;fill:black;font-family:-apple-system,&quot;SF Pro Display&quot;,&quot;SF Pro Text&quot;,Helvetica,sans-serif;text-anchor:end;" transform="matrix(1 0 0 1 3036 1969)">Typeset at 100 points</text>
  <text style="stroke:none;fill:black;font-family:-apple-system,&quot;SF Pro Display&quot;,&quot;SF Pro Text&quot;,Helvetica,sans-serif;" transform="matrix(1 0 0 1 263 726)">Small</text>
  <text style="stroke:none;fill:black;font-family:-apple-system,&quot;SF Pro Display&quot;,&quot;SF Pro Text&quot;,Helvetica,sans-serif;" transform="matrix(1 0 0 1 263 1156)">Medium</text>
  <text style="stroke:none;fill:black;font-family:-apple-system,&quot;SF Pro Display&quot;,&quot;SF Pro Text&quot;,Helvetica,sans-serif;" transform="matrix(1 0 0 1 263 1586)">Large</text>
 </g>
 <g id="Guides">
  <g id="H-reference" style="fill:#27AAE1;stroke:none;" transform="matrix(1 0 0 1 339 696)">
   <path d="M 54.9316 0 L 57.666 0 L 30.5664 -70.459 L 28.0762 -70.459 L 0.976562 0 L 3.66211 0 L 12.9395 -24.4629 L 45.7031 -24.4629 Z M 29.1992 -67.0898 L 29.4434 -67.0898 L 44.8242 -26.709 L 13.8184 -26.709 Z"/>
  </g>
  <line id="Baseline-S" style="fill:none;stroke:#27AAE1;opacity:1;stroke-width:0.577;" x1="263" x2="3036" y1="696" y2="696"/>
  <line id="Capline-S" style="fill:none;stroke:#27AAE1;opacity:1;stroke-width:0.577;" x1="263" x2="3036" y1="625.541" y2="625.541"/>
  <g id="H-reference" style="fill:#27AAE1;stroke:none;" transform="matrix(1 0 0 1 339 1126)">
   <path d="M 54.9316 0 L 57.666 0 L 30.5664 -70.459 L 28.0762 -70.459 L 0.976562 0 L 3.66211 0 L 12.9395 -24.4629 L 45.7031 -24.4629 Z M 29.1992 -67.0898 L 29.4434 -67.0898 L 44.8242 -26.709 L 13.8184 -26.709 Z"/>
  </g>
  <line id="Baseline-M" style="fill:none;stroke:#27AAE1;opacity:1;stroke-width:0.577;" x1="263" x2="3036" y1="1126" y2="1126"/>
  <line id="Capline-M" style="fill:none;stroke:#27AAE1;opacity:1;stroke-width:0.577;" x1="263" x2="3036" y1="1055.54" y2="1055.54"/>
  <g id="H-reference" style="fill:#27AAE1;stroke:none;" transform="matrix(1 0 0 1 339 1556)">
   <path d="M 54.9316 0 L 57.666 0 L 30.5664 -70.459 L 28.0762 -70.459 L 0.976562 0 L 3.66211 0 L 12.9395 -24.4629 L 45.7031 -24.4629 Z M 29.1992 -67.0898 L 29.4434 -67.0898 L 44.8242 -26.709 L 13.8184 -26.709 Z"/>
  </g>
  <line id="Baseline-L" style="fill:none;stroke:#27AAE1;opacity:1;stroke-width:0.577;" x1="263" x2="3036" y1="1556" y2="1556"/>
  <line id="Capline-L" style="fill:none;stroke:#27AAE1;opacity:1;stroke-width:0.577;" x1="263" x2="3036" y1="1485.54" y2="1485.54"/>
  <rect height="119.336" id="left-margin" style="fill:#00AEEF;stroke:none;opacity:0.4;" width="8.74023" x="1391.3" y="1030.79"/>
  <rect height="119.336" id="right-margin" style="fill:#00AEEF;stroke:none;opacity:0.4;" width="8.74023" x="1499.65" y="1030.79"/>
 </g>
 <g id="Symbols">
  <g id="Black-L" transform="matrix(1 0 0 1 2854.05 1556)">
   <path d="M 79.3457 32.8613 C 116.748 32.8613 147.412 2.19727 147.412 -35.2051 C 147.412 -72.6074 116.748 -103.271 79.2969 -103.271 C 41.8945 -103.271 11.2793 -72.6074 11.2793 -35.2051 C 11.2793 2.19727 41.9434 32.8613 79.3457 32.8613 Z M 67.5293 -9.47266 C 64.209 -9.47266 62.1094 -11.7676 62.1094 -15.0391 L 62.1094 -19.1406 L 49.707 -19.1406 C 44.7266 -19.1406 42.0898 -21.9238 42.0898 -26.6602 C 42.0898 -29.4922 42.7734 -32.0312 43.7988 -34.5703 C 45.8984 -39.7949 49.3164 -47.6562 52.5879 -53.8574 C 55.0781 -58.7891 58.3496 -61.084 63.8672 -61.084 C 70.0195 -61.084 73.1445 -57.4219 73.1445 -51.5137 L 73.1445 -29.7852 L 74.2676 -29.7852 C 77.3926 -29.7852 79.1992 -27.6367 79.1992 -24.4141 C 79.1992 -21.1914 77.3926 -19.2383 74.2676 -19.2383 L 73.1445 -19.2383 L 73.1445 -15.0391 C 73.1445 -11.7676 70.9473 -9.47266 67.5293 -9.47266 Z M 99.3164 -9.47266 C 91.6016 -9.47266 84.8633 -14.2578 83.3496 -19.4336 C 83.0566 -20.5078 82.8613 -21.4355 82.8613 -22.5098 C 82.8613 -25.9277 85.498 -27.832 88.0371 -27.832 C 90.332 -27.832 91.9922 -26.8555 93.1641 -24.9023 C 94.7266 -22.168 96.9238 -20.8984 99.5117 -20.8984 C 102.441 -20.8984 104.443 -22.9492 104.443 -25.3418 C 104.443 -28.125 102.588 -29.8828 99.4141 -29.8828 L 98.4375 -29.8828 C 94.5312 -29.8828 92.7246 -32.2754 92.7246 -35.5957 C 92.7246 -38.9648 94.873 -41.3574 98.4375 -41.3574 L 99.3164 -41.3574 C 102.197 -41.3574 103.711 -43.4082 103.711 -45.7031 C 103.711 -48.3887 101.807 -50.0977 99.3164 -50.0977 C 96.7285 -50.0977 95.0195 -48.7793 93.5547 -46.0938 C 92.5293 -44.2383 90.9668 -43.0176 88.4766 -43.0176 C 85.5469 -43.0176 83.4961 -45.0195 83.4961 -48.3398 C 83.4961 -49.5117 83.6914 -50.5371 84.2285 -51.9043 C 85.791 -56.1523 91.3086 -61.084 99.5117 -61.084 C 109.521 -61.084 115.967 -55.7129 115.967 -47.5098 C 115.967 -42.4316 112.451 -37.6953 107.861 -36.9141 L 107.861 -36.377 C 113.33 -35.9375 117.09 -30.8105 117.09 -24.5605 C 117.09 -15.4297 110.107 -9.47266 99.3164 -9.47266 Z M 62.1094 -29.6387 L 62.1094 -49.3164 L 61.8164 -49.3164 C 59.082 -43.3105 55.9082 -34.8633 53.8574 -29.9316 L 53.8574 -29.6387 Z"/>
  </g>
  <g id="Heavy-L" transform="matrix(1 0 0 1 2558.39 1556)">
   <path d="M 78.2715 31.7871 C 115.088 31.7871 145.312 1.61133 145.312 -35.2051 C 145.312 -72.0215 115.039 -102.197 78.2715 -102.197 C 41.4551 -102.197 11.2793 -72.0215 11.2793 -35.2051 C 11.2793 1.61133 41.5039 31.7871 78.2715 31.7871 Z M 66.2109 -8.93555 C 63.1348 -8.93555 61.2305 -11.084 61.2305 -14.1113 L 61.2305 -19.2871 L 47.0215 -19.2871 C 42.5293 -19.2871 39.9902 -21.8262 39.9902 -26.1719 C 39.9902 -28.7109 40.625 -30.957 41.6016 -33.3496 C 44.2871 -39.1602 48.7793 -48.2422 52.5879 -55.127 C 54.9316 -59.6191 57.9102 -61.6699 62.9395 -61.6699 C 68.4082 -61.6699 71.3379 -58.3496 71.3379 -53.0762 L 71.3379 -28.9062 L 73.2422 -28.9062 C 76.123 -28.9062 77.7832 -27.002 77.7832 -24.0723 C 77.7832 -21.0938 76.123 -19.3359 73.2422 -19.3359 L 71.3379 -19.3359 L 71.3379 -14.1113 C 71.3379 -11.0352 69.3848 -8.93555 66.2109 -8.93555 Z M 98.877 -8.88672 C 90.918 -8.88672 84.1309 -13.8184 82.5195 -19.1895 C 82.2754 -20.166 82.0312 -21.0449 82.0312 -22.0703 C 82.0312 -25.1953 84.4238 -27.002 86.8164 -27.002 C 88.9648 -27.002 90.4785 -25.9766 91.5527 -24.0723 C 93.1641 -20.8496 95.8008 -19.1895 99.0234 -19.1895 C 102.881 -19.1895 105.518 -21.7285 105.518 -24.8535 C 105.518 -28.3203 103.076 -30.5664 99.0723 -30.5664 L 97.3145 -30.5664 C 93.8965 -30.5664 92.1875 -32.7148 92.1875 -35.7422 C 92.1875 -38.8184 94.1406 -40.918 97.3145 -40.918 L 98.9258 -40.918 C 102.441 -40.918 104.541 -43.4082 104.541 -46.3867 C 104.541 -49.5605 102.148 -51.709 98.9258 -51.709 C 95.6543 -51.709 93.5059 -50.0488 92.041 -46.8262 C 91.1621 -44.9219 89.7461 -43.7988 87.4023 -43.7988 C 84.668 -43.7988 82.8125 -45.6543 82.8125 -48.7305 C 82.8125 -49.8047 82.959 -50.7324 83.4473 -51.9531 C 85.0098 -56.7383 90.8203 -61.6699 99.0723 -61.6699 C 109.033 -61.6699 115.625 -56.1523 115.625 -47.9492 C 115.625 -42.627 111.914 -37.6465 107.08 -36.8652 L 107.08 -36.377 C 112.842 -35.8887 116.895 -30.6152 116.895 -24.2188 C 116.895 -14.9902 109.717 -8.88672 98.877 -8.88672 Z M 61.2305 -28.8574 L 61.2305 -50.8301 L 60.9863 -50.8301 C 57.7148 -44.2871 53.2227 -34.5703 50.7812 -29.1016 L 50.7812 -28.8574 Z"/>
  </g>
  <g id="Bold-L" transform="matrix(1 0 0 1 2262.88 1556)">
   <path d="M 77.0996 30.6152 C 113.232 30.6152 142.92 0.878906 142.92 -35.2051 C 142.92 -71.3379 113.184 -101.025 77.0508 -101.025 C 40.9668 -101.025 11.2793 -71.3379 11.2793 -35.2051 C 11.2793 0.878906 41.0156 30.6152 77.0996 30.6152 Z M 64.7461 -8.30078 C 61.9629 -8.30078 60.3027 -10.3027 60.3027 -13.0371 L 60.3027 -19.4336 L 43.9941 -19.4336 C 40.0391 -19.4336 37.6465 -21.7285 37.6465 -25.6836 C 37.6465 -27.832 38.1836 -29.7852 39.1113 -31.9336 C 42.5293 -38.4277 48.1934 -48.877 52.5391 -56.4941 C 54.7363 -60.5469 57.4219 -62.3047 61.8652 -62.3047 C 66.6016 -62.3047 69.3359 -59.4238 69.3359 -54.7852 L 69.3359 -27.9785 L 72.1191 -27.9785 C 74.6582 -27.9785 76.2207 -26.3184 76.2207 -23.6816 C 76.2207 -21.0449 74.707 -19.4824 72.1191 -19.4824 L 69.3359 -19.4824 L 69.3359 -13.0371 C 69.3359 -10.2539 67.627 -8.30078 64.7461 -8.30078 Z M 98.3398 -8.25195 C 90.0879 -8.25195 83.252 -13.3301 81.6406 -18.8965 C 81.3477 -19.8242 81.1523 -20.6055 81.1523 -21.582 C 81.1523 -24.3164 83.2031 -26.0254 85.4492 -26.0254 C 87.4512 -26.0254 88.7695 -25.0488 89.6973 -23.0957 C 91.4062 -19.3359 94.4824 -17.2852 98.4863 -17.2852 C 103.369 -17.2852 106.689 -20.3613 106.689 -24.3652 C 106.689 -28.5645 103.564 -31.3477 98.6816 -31.3477 L 96.0938 -31.3477 C 93.1641 -31.3477 91.6016 -33.252 91.6016 -35.8887 C 91.6016 -38.623 93.3105 -40.4297 96.0938 -40.4297 L 98.4863 -40.4297 C 102.734 -40.4297 105.469 -43.3594 105.469 -47.1191 C 105.469 -50.9277 102.539 -53.4668 98.4863 -53.4668 C 94.4336 -53.4668 91.7969 -51.416 90.3809 -47.6562 C 89.5996 -45.7031 88.3301 -44.6777 86.2305 -44.6777 C 83.7402 -44.6777 82.0312 -46.3867 82.0312 -49.1211 C 82.0312 -50.0977 82.1289 -50.9277 82.5195 -52.0508 C 84.1309 -57.4219 90.2344 -62.3047 98.6328 -62.3047 C 108.496 -62.3047 115.186 -56.6895 115.186 -48.4375 C 115.186 -42.8223 111.279 -37.6465 106.201 -36.8164 L 106.201 -36.377 C 112.305 -35.791 116.65 -30.4199 116.65 -23.8281 C 116.65 -14.5508 109.277 -8.25195 98.3398 -8.25195 Z M 60.3027 -27.9297 L 60.3027 -52.4902 L 60.0098 -52.4902 C 56.1523 -45.3613 50.293 -34.2285 47.3633 -28.1738 L 47.3633 -27.9297 Z"/>
  </g>
  <g id="Semibold-L" transform="matrix(1 0 0 1 1966.97 1556)">
   <path d="M 76.2695 29.7852 C 111.914 29.7852 141.309 0.439453 141.309 -35.2051 C 141.309 -70.8496 111.865 -100.244 76.2695 -100.244 C 40.625 -100.244 11.2793 -70.8496 11.2793 -35.2051 C 11.2793 0.439453 40.6738 29.7852 76.2695 29.7852 Z M 63.7207 -7.91016 C 61.1816 -7.91016 59.668 -9.7168 59.668 -12.3047 L 59.668 -19.5312 L 41.9434 -19.5312 C 38.3301 -19.5312 36.0352 -21.6309 36.0352 -25.293 C 36.0352 -27.2461 36.5234 -28.9551 37.4512 -30.957 C 41.2598 -37.9395 47.8027 -49.3164 52.5391 -57.4707 C 54.6387 -61.1816 57.0801 -62.7441 61.1328 -62.7441 C 65.332 -62.7441 67.9688 -60.1074 67.9688 -56.0059 L 67.9688 -27.3438 L 71.3379 -27.3438 C 73.6816 -27.3438 75.0977 -25.8301 75.0977 -23.3887 C 75.0977 -20.9961 73.6816 -19.5312 71.3379 -19.5312 L 67.9688 -19.5312 L 67.9688 -12.3047 C 67.9688 -9.7168 66.4062 -7.91016 63.7207 -7.91016 Z M 97.998 -7.76367 C 89.5508 -7.76367 82.666 -12.9883 81.0059 -18.7012 C 80.7129 -19.5801 80.5664 -20.3125 80.5664 -21.2891 C 80.5664 -23.7305 82.373 -25.3418 84.5215 -25.3418 C 86.377 -25.3418 87.5977 -24.4141 88.4766 -22.4609 C 90.1855 -18.3105 93.6035 -15.9668 98.0957 -15.9668 C 103.711 -15.9668 107.52 -19.4336 107.52 -23.9746 C 107.52 -28.7109 103.906 -31.8848 98.4375 -31.8848 L 95.2148 -31.8848 C 92.627 -31.8848 91.2109 -33.5938 91.2109 -35.9863 C 91.2109 -38.4766 92.7734 -40.1367 95.2148 -40.1367 L 98.1445 -40.1367 C 102.93 -40.1367 106.104 -43.3594 106.104 -47.6074 C 106.104 -51.8555 102.832 -54.6875 98.1445 -54.6875 C 93.6035 -54.6875 90.625 -52.3926 89.2578 -48.2422 C 88.5254 -46.2891 87.4023 -45.3125 85.4004 -45.3125 C 83.0566 -45.3125 81.543 -46.9238 81.543 -49.4141 C 81.543 -50.3418 81.5918 -51.0742 81.8848 -52.0996 C 83.4961 -57.8613 89.8438 -62.7441 98.291 -62.7441 C 108.154 -62.7441 114.941 -57.0312 114.941 -48.7793 C 114.941 -42.9688 110.84 -37.6465 105.566 -36.7676 L 105.566 -36.377 C 111.914 -35.7422 116.504 -30.2734 116.504 -23.5352 C 116.504 -14.2578 108.984 -7.76367 97.998 -7.76367 Z M 59.668 -27.2949 L 59.668 -53.6621 L 59.375 -53.6621 C 55.0781 -46.0938 48.2422 -34.0332 44.9707 -27.5391 L 44.9707 -27.2949 Z"/>
  </g>
  <g id="Medium-L" transform="matrix(1 0 0 1 1670.87 1556)">
   <path d="M 75.6836 29.1992 C 110.938 29.1992 140.088 0.0488281 140.088 -35.2051 C 140.088 -70.459 110.889 -99.6094 75.6348 -99.6094 C 40.3809 -99.6094 11.2793 -70.459 11.2793 -35.2051 C 11.2793 0.0488281 40.3809 29.1992 75.6836 29.1992 Z M 62.9883 -7.56836 C 60.5469 -7.56836 59.1797 -9.32617 59.1797 -11.7676 L 59.1797 -19.5801 L 40.3809 -19.5801 C 37.0117 -19.5801 34.8145 -21.582 34.8145 -25.0488 C 34.8145 -26.8066 35.2051 -28.3203 36.1816 -30.2246 C 40.332 -37.5977 47.4609 -49.707 52.5391 -58.1543 C 54.541 -61.6699 56.8359 -63.0859 60.5469 -63.0859 C 64.4043 -63.0859 66.8945 -60.6934 66.8945 -56.8848 L 66.8945 -26.8555 L 70.752 -26.8555 C 72.9004 -26.8555 74.2676 -25.4395 74.2676 -23.1934 C 74.2676 -20.9473 72.9492 -19.6289 70.752 -19.6289 L 66.8945 -19.6289 L 66.8945 -11.7676 C 66.8945 -9.27734 65.4785 -7.56836 62.9883 -7.56836 Z M 97.7539 -7.4707 C 89.1113 -7.4707 82.2266 -12.6953 80.5176 -18.5547 C 80.2734 -19.4336 80.0781 -20.0684 80.0781 -20.9961 C 80.0781 -23.291 81.7383 -24.8047 83.7891 -24.8047 C 85.5957 -24.8047 86.7188 -23.877 87.5 -21.9727 C 89.2578 -17.5293 92.9199 -14.9902 97.8027 -14.9902 C 104.004 -14.9902 108.154 -18.75 108.154 -23.7305 C 108.154 -28.8086 104.199 -32.2754 98.2422 -32.2754 L 94.5801 -32.2754 C 92.2363 -32.2754 90.918 -33.8867 90.918 -36.0352 C 90.918 -38.3789 92.334 -39.8926 94.5801 -39.8926 L 97.9004 -39.8926 C 103.076 -39.8926 106.641 -43.3594 106.641 -47.998 C 106.641 -52.5391 103.027 -55.6152 97.9004 -55.6152 C 92.9688 -55.6152 89.7461 -53.125 88.3789 -48.6328 C 87.7441 -46.6797 86.6699 -45.752 84.8145 -45.752 C 82.5195 -45.752 81.1035 -47.3145 81.1035 -49.6094 C 81.1035 -50.4883 81.2012 -51.2207 81.3965 -52.1484 C 83.0566 -58.2031 89.502 -63.0859 98.0957 -63.0859 C 107.861 -63.0859 114.697 -57.3242 114.697 -49.0234 C 114.697 -43.0664 110.498 -37.6465 105.078 -36.7676 L 105.078 -36.377 C 111.621 -35.7422 116.406 -30.1758 116.406 -23.3398 C 116.406 -14.0137 108.74 -7.4707 97.7539 -7.4707 Z M 59.1797 -26.8066 L 59.1797 -54.541 L 58.8379 -54.541 C 54.248 -46.6309 46.6797 -33.8379 43.2129 -27.0996 L 43.2129 -26.8066 Z"/>
  </g>
  <g id="Regular-L" transform="matrix(1 0 0 1 1374.97 1556)">
   <path d="M 74.8535 28.3691 C 109.668 28.3691 138.477 -0.390625 138.477 -35.2051 C 138.477 -70.0195 109.619 -98.7793 74.8047 -98.7793 C 40.0391 -98.7793 11.2793 -70.0195 11.2793 -35.2051 C 11.2793 -0.390625 40.0879 28.3691 74.8535 28.3691 Z M 61.9629 -7.17773 C 59.7656 -7.17773 58.5449 -8.78906 58.5449 -11.0352 L 58.5449 -19.6777 L 38.3301 -19.6777 C 35.3027 -19.6777 33.252 -21.4844 33.252 -24.6582 C 33.252 -26.2207 33.5938 -27.4902 34.4727 -29.248 C 39.1113 -37.1094 47.0703 -50.1465 52.4902 -59.1309 C 54.4434 -62.3047 56.4941 -63.5254 59.8145 -63.5254 C 63.1836 -63.5254 65.5273 -61.377 65.5273 -58.1055 L 65.5273 -26.1719 L 69.9707 -26.1719 C 71.9238 -26.1719 73.1934 -24.9512 73.1934 -22.9004 C 73.1934 -20.8496 71.9727 -19.6777 69.9707 -19.6777 L 65.5273 -19.6777 L 65.5273 -11.0352 C 65.5273 -8.74023 64.3066 -7.17773 61.9629 -7.17773 Z M 97.4121 -6.98242 C 88.5742 -6.98242 81.6406 -12.3535 79.8828 -18.4082 C 79.6387 -19.1895 79.4922 -19.7754 79.4922 -20.6543 C 79.4922 -22.7051 80.957 -24.1699 82.8613 -24.1699 C 84.5703 -24.1699 85.5469 -23.2422 86.2305 -21.3379 C 88.0371 -16.5039 92.041 -13.6719 97.4609 -13.6719 C 104.297 -13.6719 108.936 -17.8223 108.936 -23.3887 C 108.936 -28.9551 104.541 -32.8125 97.998 -32.8125 L 93.7012 -32.8125 C 91.748 -32.8125 90.4785 -34.2285 90.4785 -36.1328 C 90.4785 -38.2324 91.7969 -39.5508 93.7012 -39.5508 L 97.6074 -39.5508 C 103.223 -39.5508 107.275 -43.3594 107.275 -48.4863 C 107.275 -53.4668 103.32 -56.8359 97.6074 -56.8359 C 92.1387 -56.8359 88.5742 -54.0527 87.207 -49.2188 C 86.6699 -47.2168 85.7422 -46.3379 83.9844 -46.3379 C 81.8848 -46.3379 80.6152 -47.8027 80.6152 -49.9023 C 80.6152 -50.7324 80.6152 -51.3672 80.8105 -52.1973 C 82.4707 -58.6914 89.1113 -63.5254 97.7539 -63.5254 C 107.52 -63.5254 114.453 -57.666 114.453 -49.3652 C 114.453 -43.2129 110.059 -37.5977 104.492 -36.7188 L 104.492 -36.377 C 111.23 -35.6934 116.211 -30.0293 116.211 -23.0957 C 116.211 -13.6719 108.447 -6.98242 97.4121 -6.98242 Z M 58.5449 -26.1719 L 58.5449 -55.7129 L 58.2031 -55.7129 C 53.1738 -47.3633 44.6777 -33.6426 40.8691 -26.4648 L 40.8691 -26.1719 Z"/>
  </g>
  <g id="Light-L" transform="matrix(1 0 0 1 1079.18 1556)">
   <path d="M 73.9258 27.4902 C 108.301 27.4902 136.621 -0.830078 136.621 -35.1562 C 136.621 -69.5312 108.252 -97.8516 73.9258 -97.8516 C 39.5508 -97.8516 11.2793 -69.5312 11.2793 -35.1562 C 11.2793 -0.830078 39.5996 27.4902 73.9258 27.4902 Z M 61.0352 -7.56836 C 59.2773 -7.56836 58.252 -8.83789 58.252 -10.5957 L 58.252 -20.459 L 36.8164 -20.459 C 34.2773 -20.459 32.5195 -21.9238 32.5195 -24.5605 C 32.5195 -25.7324 32.8125 -26.8555 33.4961 -28.1738 C 38.2812 -35.8887 47.9492 -51.123 53.3691 -59.668 C 54.9805 -62.2559 56.6406 -63.2324 59.3262 -63.2324 C 62.0117 -63.2324 63.916 -61.5234 63.916 -58.8379 L 63.916 -25.7812 L 69.4336 -25.7812 C 70.9961 -25.7812 72.0703 -24.7559 72.0703 -23.0957 C 72.0703 -21.4355 71.0449 -20.459 69.4336 -20.459 L 63.916 -20.459 L 63.916 -10.5957 C 63.916 -8.78906 62.8906 -7.56836 61.0352 -7.56836 Z M 96.3867 -7.32422 C 87.7441 -7.32422 81.0059 -12.5 79.1504 -18.457 C 78.9062 -19.1406 78.7598 -19.7266 78.7598 -20.5078 C 78.7598 -22.168 79.9316 -23.3887 81.543 -23.3887 C 83.0078 -23.3887 83.7891 -22.6074 84.3262 -20.9961 C 86.1816 -15.8691 90.7227 -12.793 96.3867 -12.793 C 103.906 -12.793 108.936 -17.1875 108.936 -23.291 C 108.936 -29.1992 104.004 -33.4473 97.0703 -33.4473 L 92.2363 -33.4473 C 90.5762 -33.4473 89.5996 -34.6191 89.5996 -36.1816 C 89.5996 -37.8906 90.625 -38.9648 92.2363 -38.9648 L 96.6309 -38.9648 C 102.734 -38.9648 107.178 -43.1152 107.178 -48.6816 C 107.178 -54.1016 102.832 -57.7637 96.4844 -57.7637 C 90.5273 -57.7637 86.5723 -54.5898 85.4004 -49.5605 C 84.9609 -47.8516 84.1309 -47.1191 82.666 -47.1191 C 80.8594 -47.1191 79.8828 -48.3398 79.8828 -50.0977 C 79.8828 -50.7812 79.9316 -51.416 80.0781 -52.1484 C 81.6895 -58.6914 88.3789 -63.2324 96.582 -63.2324 C 106.201 -63.2324 113.037 -57.4707 113.037 -49.3164 C 113.037 -43.2129 108.545 -37.5977 102.881 -36.6211 L 102.881 -36.377 C 109.717 -35.6445 114.844 -29.9805 114.844 -23.0957 C 114.844 -13.916 107.178 -7.32422 96.3867 -7.32422 Z M 58.252 -25.7812 L 58.252 -56.8359 L 57.959 -56.8359 C 53.2715 -49.4141 42.4805 -32.7148 38.7207 -25.9766 L 38.7207 -25.7812 Z"/>
  </g>
  <g id="Thin-L" transform="matrix(1 0 0 1 783.693 1556)">
   <path d="M 72.7051 26.3184 C 106.494 26.3184 134.18 -1.36719 134.18 -35.1074 C 134.18 -68.8965 106.494 -96.582 72.7051 -96.582 C 38.9648 -96.582 11.2793 -68.8965 11.2793 -35.1074 C 11.2793 -1.36719 38.9648 26.3184 72.7051 26.3184 Z M 59.7656 -8.10547 C 58.6426 -8.10547 57.8613 -8.88672 57.8613 -10.0586 L 57.8613 -21.4844 L 34.8145 -21.4844 C 32.8613 -21.4844 31.543 -22.5098 31.543 -24.3652 C 31.543 -25.1465 31.7871 -26.0254 32.2266 -26.709 C 37.207 -34.3262 49.1699 -52.4414 54.4922 -60.4004 C 55.7129 -62.207 56.8359 -62.793 58.5938 -62.793 C 60.4492 -62.793 61.7188 -61.6699 61.7188 -59.8633 L 61.7188 -25.1953 L 68.75 -25.1953 C 69.8242 -25.1953 70.5566 -24.4141 70.5566 -23.291 C 70.5566 -22.2168 69.873 -21.4844 68.75 -21.4844 L 61.7188 -21.4844 L 61.7188 -10.0586 C 61.7188 -8.88672 60.9863 -8.10547 59.7656 -8.10547 Z M 95.0195 -7.71484 C 86.6699 -7.71484 80.127 -12.6953 78.2227 -18.5059 C 77.9785 -19.043 77.7832 -19.6289 77.7832 -20.3125 C 77.7832 -21.4844 78.6133 -22.3633 79.7852 -22.3633 C 80.9082 -22.3633 81.4453 -21.7285 81.8359 -20.5078 C 83.6914 -14.9902 89.0137 -11.5723 95.0195 -11.5723 C 103.418 -11.5723 108.936 -16.3574 108.936 -23.1445 C 108.936 -29.4922 103.32 -34.3262 95.8008 -34.3262 L 90.2832 -34.3262 C 89.0625 -34.3262 88.3789 -35.0586 88.3789 -36.2305 C 88.3789 -37.4023 89.1113 -38.1348 90.2832 -38.1348 L 95.3613 -38.1348 C 102.1 -38.1348 107.08 -42.8223 107.08 -48.877 C 107.08 -54.9316 102.246 -58.9844 94.9707 -58.9844 C 88.4766 -58.9844 83.9355 -55.3223 82.959 -50 C 82.666 -48.6328 82.0312 -48.0957 80.957 -48.0957 C 79.4922 -48.0957 78.9062 -49.0234 78.9062 -50.3418 C 78.9062 -50.8301 79.0039 -51.5137 79.1504 -52.0996 C 80.7129 -58.6914 87.4512 -62.793 95.0195 -62.793 C 104.395 -62.793 111.182 -57.2266 111.182 -49.2676 C 111.182 -43.2129 106.592 -37.5488 100.732 -36.5234 L 100.732 -36.377 C 107.666 -35.5957 113.037 -29.8828 113.037 -23.0957 C 113.037 -14.209 105.518 -7.71484 95.0195 -7.71484 Z M 57.8613 -25.1953 L 57.8613 -58.3496 L 57.666 -58.3496 C 53.3691 -52.0996 39.5508 -31.543 35.8887 -25.3906 L 35.8887 -25.1953 Z"/>
  </g>
  <g id="Ultralight-L" transform="matrix(1 0 0 1 487.616 1556)">
   <path d="M 72.1191 25.7324 C 105.566 25.7324 132.91 -1.61133 132.91 -35.1074 C 132.91 -68.5547 105.566 -95.8984 72.1191 -95.8984 C 38.623 -95.8984 11.2793 -68.5547 11.2793 -35.1074 C 11.2793 -1.61133 38.623 25.7324 72.1191 25.7324 Z M 59.1309 -8.39844 C 58.3496 -8.39844 57.666 -8.88672 57.666 -9.81445 L 57.666 -22.0215 L 33.7891 -22.0215 C 32.1777 -22.0215 31.0547 -22.8027 31.0547 -24.2676 C 31.0547 -24.8047 31.2988 -25.5859 31.543 -25.9766 C 36.6699 -33.4961 49.7559 -53.125 55.0781 -60.791 C 56.1035 -62.207 56.9336 -62.5977 58.252 -62.5977 C 59.6191 -62.5977 60.5957 -61.7676 60.5957 -60.3516 L 60.5957 -24.9023 L 68.3594 -24.9023 C 69.1895 -24.9023 69.7754 -24.2676 69.7754 -23.4375 C 69.7754 -22.6074 69.2871 -22.0215 68.3594 -22.0215 L 60.5957 -22.0215 L 60.5957 -9.81445 C 60.5957 -8.88672 60.0098 -8.39844 59.1309 -8.39844 Z M 94.3359 -7.95898 C 86.1328 -7.95898 79.6387 -12.793 77.7344 -18.5547 C 77.4902 -18.9941 77.2949 -19.5801 77.2949 -20.166 C 77.2949 -21.0938 77.9297 -21.8262 78.8574 -21.8262 C 79.834 -21.8262 80.2734 -21.2891 80.5176 -20.2637 C 82.373 -14.5508 88.1348 -10.9375 94.3359 -10.9375 C 103.174 -10.9375 108.887 -15.918 108.887 -23.0957 C 108.887 -29.6387 102.93 -34.7656 95.166 -34.7656 L 89.3066 -34.7656 C 88.2812 -34.7656 87.793 -35.3027 87.793 -36.2305 C 87.793 -37.1582 88.3301 -37.7441 89.3066 -37.7441 L 94.6777 -37.7441 C 101.758 -37.7441 107.031 -42.6758 107.031 -48.9746 C 107.031 -55.3223 101.904 -59.6191 94.2383 -59.6191 C 87.4023 -59.6191 82.6172 -55.7129 81.6895 -50.2441 C 81.4941 -49.0723 80.957 -48.6328 80.0781 -48.6328 C 78.8086 -48.6328 78.418 -49.3652 78.418 -50.4395 C 78.418 -50.8789 78.5156 -51.5137 78.6621 -52.0508 C 80.1758 -58.6914 86.9629 -62.5977 94.1895 -62.5977 C 103.467 -62.5977 110.205 -57.0801 110.205 -49.2676 C 110.205 -43.2129 105.615 -37.5 99.6094 -36.4258 L 99.6094 -36.377 C 106.641 -35.5957 112.061 -29.8828 112.061 -23.1445 C 112.061 -14.3555 104.639 -7.95898 94.3359 -7.95898 Z M 57.666 -24.9023 L 57.666 -59.1309 L 57.5195 -59.1309 C 53.4668 -53.4668 38.0859 -30.957 34.4727 -25.0488 L 34.4727 -24.9023 Z"/>
  </g>
  <g id="Black-M" transform="matrix(1 0 0 1 2870.97 1126)">
   <path d="M 62.4023 18.457 C 91.9922 18.457 116.113 -5.61523 116.113 -35.2051 C 116.113 -64.7949 91.9922 -88.8672 62.4023 -88.8672 C 32.8125 -88.8672 8.74023 -64.7949 8.74023 -35.2051 C 8.74023 -5.61523 32.8125 18.457 62.4023 18.457 Z M 53.6133 -16.2109 C 50.9277 -16.2109 49.0723 -18.0176 49.0723 -20.6543 L 49.0723 -22.998 L 41.3086 -22.998 C 37.1094 -22.998 35.0586 -25.2441 35.0586 -29.1504 C 35.0586 -31.5918 35.6934 -33.8379 36.377 -35.8398 C 37.3047 -38.9648 39.4531 -44.5801 41.2598 -48.291 C 43.1641 -52.3926 45.8984 -54.2969 50.5371 -54.2969 C 55.8105 -54.2969 58.252 -51.2207 58.252 -46.1426 L 58.252 -31.8848 L 58.6426 -31.8848 C 61.2793 -31.8848 62.6953 -30.0781 62.6953 -27.3926 C 62.6953 -24.7559 61.2793 -23.1445 58.6426 -23.1445 L 58.252 -23.1445 L 58.252 -20.6543 C 58.252 -18.0176 56.3477 -16.2109 53.6133 -16.2109 Z M 77.0508 -16.2109 C 71.5332 -16.2109 66.4551 -19.6777 65.332 -23.3398 C 65.0879 -24.2188 64.8926 -25 64.8926 -25.8789 C 64.8926 -28.7598 67.1387 -30.2734 69.1406 -30.2734 C 71.0449 -30.2734 72.4121 -29.541 73.3887 -28.1738 C 74.5117 -26.6113 75.9766 -25.9277 77.2461 -25.9277 C 78.6133 -25.9277 79.4922 -27.002 79.4922 -28.125 C 79.4922 -29.5898 78.6133 -30.4688 77.002 -30.4688 C 73.5352 -30.4688 72.0703 -32.4707 72.0703 -35.3516 C 72.0703 -38.1836 73.877 -40.1855 77.002 -40.1855 C 78.6133 -40.1855 79.1992 -41.5039 79.1992 -42.5293 C 79.1992 -44.1406 78.1738 -45.1172 76.9043 -45.1172 C 75.5859 -45.1172 74.6582 -44.3848 73.5352 -42.8711 C 72.6562 -41.5527 71.3379 -40.625 69.3359 -40.625 C 66.9434 -40.625 65.2344 -42.1875 65.2344 -45.0195 C 65.2344 -45.9473 65.4297 -46.8262 66.0156 -48.0469 C 67.1387 -50.6348 71.0938 -54.2969 77.0508 -54.2969 C 84.7656 -54.2969 89.5996 -50.3418 89.5996 -44.1406 C 89.5996 -40.5273 87.1582 -37.1094 83.7891 -36.5723 L 83.7891 -36.1328 C 87.6953 -35.8398 90.2832 -32.0312 90.2832 -27.4414 C 90.2832 -20.5566 85.2051 -16.2109 77.0508 -16.2109 Z M 49.0723 -31.7871 L 49.0723 -44.7266 L 48.9746 -44.7266 C 47.7051 -41.3086 45.7031 -34.8633 44.7754 -31.9824 L 44.7754 -31.7871 Z"/>
  </g>
  <g id="Heavy-M" transform="matrix(1 0 0 1 2575.19 1126)">
   <path d="M 61.5234 17.5781 C 90.5273 17.5781 114.258 -6.15234 114.258 -35.2051 C 114.258 -64.2578 90.5273 -87.9883 61.4746 -87.9883 C 32.4707 -87.9883 8.74023 -64.2578 8.74023 -35.2051 C 8.74023 -6.15234 32.4707 17.5781 61.5234 17.5781 Z M 52.3926 -15.5273 C 49.9023 -15.5273 48.2422 -17.2363 48.2422 -19.7266 L 48.2422 -22.9492 L 38.7695 -22.9492 C 34.9609 -22.9492 32.959 -25.0488 32.959 -28.6621 C 32.959 -30.8594 33.4961 -32.8613 34.2285 -34.7656 C 35.7422 -38.5742 38.623 -44.9707 41.0156 -49.5117 C 42.8711 -53.2715 45.3613 -55.0293 49.6094 -55.0293 C 54.3457 -55.0293 56.6895 -52.2461 56.6895 -47.6562 L 56.6895 -31.1035 L 57.666 -31.1035 C 60.0586 -31.1035 61.4258 -29.4434 61.4258 -26.9531 C 61.4258 -24.5117 60.0586 -23.0469 57.666 -23.0469 L 56.6895 -23.0469 L 56.6895 -19.7266 C 56.6895 -17.2363 54.9805 -15.5273 52.3926 -15.5273 Z M 76.8066 -15.4785 C 70.9473 -15.4785 65.7715 -19.1406 64.5996 -23.0469 C 64.3555 -23.877 64.209 -24.6094 64.209 -25.4395 C 64.209 -28.0762 66.2598 -29.541 68.1641 -29.541 C 69.9219 -29.541 71.1914 -28.7598 72.1191 -27.3438 C 73.291 -25.293 75.0488 -24.3164 76.9531 -24.3164 C 79.1992 -24.3164 80.6641 -25.8301 80.6641 -27.6367 C 80.6641 -29.7363 79.248 -31.0547 76.8555 -31.0547 L 76.1719 -31.0547 C 73.0957 -31.0547 71.7285 -32.9102 71.7285 -35.498 C 71.7285 -38.0859 73.3887 -39.8926 76.1719 -39.8926 L 76.8066 -39.8926 C 79.0039 -39.8926 80.127 -41.5039 80.127 -43.2129 C 80.127 -45.2637 78.6621 -46.582 76.7578 -46.582 C 74.8047 -46.582 73.4863 -45.6055 72.3633 -43.5547 C 71.582 -42.1875 70.3613 -41.3086 68.5059 -41.3086 C 66.2598 -41.3086 64.6973 -42.7734 64.6973 -45.3613 C 64.6973 -46.2402 64.8438 -47.0215 65.2832 -48.0957 C 66.4551 -51.3184 70.7031 -55.0293 76.9043 -55.0293 C 84.6191 -55.0293 89.5996 -50.9277 89.5996 -44.6289 C 89.5996 -40.7715 86.9141 -37.1094 83.3496 -36.5234 L 83.3496 -36.1328 C 87.5488 -35.791 90.4297 -31.8359 90.4297 -27.0508 C 90.4297 -20.0195 85.1074 -15.4785 76.8066 -15.4785 Z M 48.2422 -31.0059 L 48.2422 -46.0938 L 48.0957 -46.0938 C 46.1914 -41.7969 43.4082 -34.7656 41.9434 -31.2012 L 41.9434 -31.0059 Z"/>
  </g>
  <g id="Bold-M" transform="matrix(1 0 0 1 2279.5 1126)">
   <path d="M 60.498 16.5039 C 88.8672 16.5039 112.207 -6.78711 112.207 -35.2051 C 112.207 -63.623 88.8672 -86.9629 60.4492 -86.9629 C 32.0312 -86.9629 8.74023 -63.623 8.74023 -35.2051 C 8.74023 -6.78711 32.0801 16.5039 60.498 16.5039 Z M 51.0742 -14.7461 C 48.7305 -14.7461 47.3145 -16.3574 47.3145 -18.6523 L 47.3145 -22.8516 L 35.9375 -22.8516 C 32.5195 -22.8516 30.6152 -24.8047 30.6152 -28.125 C 30.6152 -30.0293 31.0547 -31.7383 31.8359 -33.5449 C 34.0332 -38.1836 37.6953 -45.4102 40.7227 -50.8789 C 42.5293 -54.2969 44.7754 -55.8105 48.584 -55.8105 C 52.7344 -55.8105 54.9805 -53.3203 54.9805 -49.3164 L 54.9805 -30.1758 L 56.5918 -30.1758 C 58.7402 -30.1758 60.0586 -28.7598 60.0586 -26.5137 C 60.0586 -24.2676 58.7402 -22.9492 56.5918 -22.9492 L 54.9805 -22.9492 L 54.9805 -18.6523 C 54.9805 -16.3574 53.5156 -14.7461 51.0742 -14.7461 Z M 76.5625 -14.6973 C 70.3125 -14.6973 65.0391 -18.5547 63.8184 -22.7539 C 63.623 -23.4863 63.4277 -24.1699 63.4277 -24.9512 C 63.4277 -27.2949 65.2344 -28.6621 67.041 -28.6621 C 68.7012 -28.6621 69.8242 -27.9297 70.6543 -26.416 C 71.9238 -23.8281 74.0234 -22.5098 76.6602 -22.5098 C 79.834 -22.5098 81.9824 -24.5605 81.9824 -27.0996 C 81.9824 -29.9316 79.9805 -31.7383 76.709 -31.7383 L 75.2441 -31.7383 C 72.6562 -31.7383 71.3867 -33.3984 71.3867 -35.6445 C 71.3867 -37.9883 72.8516 -39.5508 75.2441 -39.5508 L 76.6113 -39.5508 C 79.4434 -39.5508 81.2012 -41.5527 81.2012 -43.9941 C 81.2012 -46.582 79.248 -48.291 76.6113 -48.291 C 73.9258 -48.291 72.2168 -46.9238 71.0938 -44.3848 C 70.4102 -42.8711 69.3359 -42.041 67.5781 -42.041 C 65.4785 -42.041 64.0625 -43.457 64.0625 -45.752 C 64.0625 -46.582 64.1602 -47.2656 64.502 -48.1934 C 65.7227 -52.002 70.2637 -55.8105 76.7578 -55.8105 C 84.4238 -55.8105 89.5508 -51.5625 89.5508 -45.166 C 89.5508 -40.9668 86.6211 -37.1094 82.8613 -36.5234 L 82.8613 -36.1328 C 87.4023 -35.6934 90.5762 -31.6406 90.5762 -26.6113 C 90.5762 -19.4824 85.0098 -14.6973 76.5625 -14.6973 Z M 47.3145 -30.127 L 47.3145 -47.6074 L 47.0703 -47.6074 C 44.4336 -42.3828 40.7715 -34.668 38.8184 -30.3223 L 38.8184 -30.127 Z"/>
  </g>
  <g id="Semibold-M" transform="matrix(1 0 0 1 1983.5 1126)">
   <path d="M 59.7656 15.8203 C 87.7441 15.8203 110.791 -7.22656 110.791 -35.2051 C 110.791 -63.1836 87.6953 -86.2793 59.7656 -86.2793 C 31.7871 -86.2793 8.74023 -63.1836 8.74023 -35.2051 C 8.74023 -7.22656 31.7871 15.8203 59.7656 15.8203 Z M 50.1465 -14.209 C 47.9492 -14.209 46.6797 -15.7715 46.6797 -17.9688 L 46.6797 -22.8027 L 33.9844 -22.8027 C 30.8594 -22.8027 29.0039 -24.6582 29.0039 -27.7832 C 29.0039 -29.4922 29.3945 -30.957 30.1758 -32.7148 C 32.8613 -37.8906 37.0605 -45.7031 40.5273 -51.8066 C 42.2852 -55.0293 44.3848 -56.3965 47.9004 -56.3965 C 51.6113 -56.3965 53.8086 -54.1016 53.8086 -50.4883 L 53.8086 -29.541 L 55.8105 -29.541 C 57.8613 -29.541 59.082 -28.2715 59.082 -26.1719 C 59.082 -24.0723 57.8613 -22.8516 55.8105 -22.8516 L 53.8086 -22.8516 L 53.8086 -17.9688 C 53.8086 -15.7227 52.4414 -14.209 50.1465 -14.209 Z M 76.3672 -14.1602 C 69.873 -14.1602 64.5508 -18.1152 63.2812 -22.5098 C 63.0859 -23.2422 62.9395 -23.8281 62.9395 -24.6094 C 62.9395 -26.7578 64.502 -28.125 66.3086 -28.125 C 67.8711 -28.125 68.8965 -27.3438 69.6777 -25.7812 C 70.9473 -22.8516 73.291 -21.2402 76.4648 -21.2402 C 80.2734 -21.2402 82.8613 -23.6328 82.8613 -26.7578 C 82.8613 -30.0293 80.4688 -32.1777 76.6602 -32.1777 L 74.6094 -32.1777 C 72.3145 -32.1777 71.0938 -33.6914 71.0938 -35.7422 C 71.0938 -37.8906 72.4609 -39.3555 74.6094 -39.3555 L 76.4648 -39.3555 C 79.7852 -39.3555 81.8848 -41.6016 81.8848 -44.4824 C 81.8848 -47.4609 79.6387 -49.4141 76.4648 -49.4141 C 73.3398 -49.4141 71.3379 -47.8516 70.2148 -44.9219 C 69.5801 -43.3594 68.6035 -42.5293 66.9434 -42.5293 C 64.9414 -42.5293 63.623 -43.8965 63.623 -45.9961 C 63.623 -46.8262 63.7207 -47.4121 63.9648 -48.291 C 65.2344 -52.5391 69.9707 -56.3965 76.6113 -56.3965 C 84.3262 -56.3965 89.502 -52.002 89.502 -45.5566 C 89.502 -41.1621 86.4258 -37.1094 82.5195 -36.4746 L 82.5195 -36.1328 C 87.2559 -35.6934 90.6738 -31.4941 90.6738 -26.3184 C 90.6738 -19.0918 84.9121 -14.1602 76.3672 -14.1602 Z M 46.6797 -29.541 L 46.6797 -48.6328 L 46.4355 -48.6328 C 43.2617 -42.7734 39.0137 -34.6191 36.6699 -29.7363 L 36.6699 -29.541 Z"/>
  </g>
  <g id="Medium-M" transform="matrix(1 0 0 1 1687.3 1126)">
   <path d="M 59.2285 15.2832 C 86.9141 15.2832 109.766 -7.56836 109.766 -35.2051 C 109.766 -62.8906 86.8652 -85.7422 59.1797 -85.7422 C 31.543 -85.7422 8.74023 -62.8906 8.74023 -35.2051 C 8.74023 -7.56836 31.5918 15.2832 59.2285 15.2832 Z M 49.4629 -13.7695 C 47.3633 -13.7695 46.1914 -15.332 46.1914 -17.4316 L 46.1914 -22.8027 L 32.5195 -22.8027 C 29.6387 -22.8027 27.7832 -24.5117 27.7832 -27.4902 C 27.7832 -29.0527 28.125 -30.3711 28.9062 -32.0312 C 31.9336 -37.6465 36.5723 -45.8984 40.3809 -52.4902 C 42.0898 -55.5176 44.0918 -56.7871 47.3633 -56.7871 C 50.7324 -56.7871 52.8809 -54.6875 52.8809 -51.3672 L 52.8809 -29.1016 L 55.2734 -29.1016 C 57.1777 -29.1016 58.3496 -27.8809 58.3496 -25.9277 C 58.3496 -23.9746 57.1777 -22.8027 55.2734 -22.8027 L 52.8809 -22.8027 L 52.8809 -17.4316 C 52.8809 -15.2832 51.6602 -13.7695 49.4629 -13.7695 Z M 76.2207 -13.7207 C 69.5312 -13.7207 64.1602 -17.8223 62.8418 -22.3633 C 62.6465 -23.0469 62.5 -23.6328 62.5 -24.3652 C 62.5 -26.3672 63.9648 -27.6855 65.7227 -27.6855 C 67.2363 -27.6855 68.2129 -26.9043 68.8965 -25.293 C 70.2637 -22.0703 72.7539 -20.3125 76.3184 -20.3125 C 80.6152 -20.3125 83.5449 -22.998 83.5449 -26.4648 C 83.5449 -30.127 80.8594 -32.5195 76.5625 -32.5195 L 74.1211 -32.5195 C 72.0703 -32.5195 70.8984 -33.9355 70.8984 -35.791 C 70.8984 -37.8418 72.168 -39.1602 74.1211 -39.1602 L 76.3672 -39.1602 C 79.9805 -39.1602 82.4707 -41.6016 82.4707 -44.9219 C 82.4707 -48.0957 79.9316 -50.293 76.416 -50.293 C 72.9004 -50.293 70.6543 -48.584 69.5312 -45.3125 C 68.9941 -43.7012 68.0664 -42.9199 66.4551 -42.9199 C 64.5508 -42.9199 63.2812 -44.2383 63.2812 -46.2402 C 63.2812 -46.9727 63.3301 -47.5586 63.5742 -48.3398 C 64.8438 -52.8809 69.7754 -56.7871 76.5625 -56.7871 C 84.2285 -56.7871 89.502 -52.2949 89.502 -45.8496 C 89.502 -41.2598 86.3281 -37.1094 82.2266 -36.4746 L 82.2266 -36.1328 C 87.207 -35.6445 90.7715 -31.3965 90.7715 -26.0742 C 90.7715 -18.7988 84.8633 -13.7207 76.2207 -13.7207 Z M 46.1914 -29.0527 L 46.1914 -49.4141 L 45.8984 -49.4141 C 42.334 -43.0664 37.6465 -34.5703 35.0098 -29.2969 L 35.0098 -29.0527 Z"/>
  </g>
  <g id="Regular-M" transform="matrix(1 0 0 1 1391.3 1126)">
   <path d="M 58.5449 14.5508 C 85.791 14.5508 108.35 -8.00781 108.35 -35.2539 C 108.35 -62.4512 85.7422 -85.0586 58.4961 -85.0586 C 31.2988 -85.0586 8.74023 -62.4512 8.74023 -35.2539 C 8.74023 -8.00781 31.3477 14.5508 58.5449 14.5508 Z M 48.584 -13.2324 C 46.582 -13.2324 45.5566 -14.6973 45.5566 -16.6992 L 45.5566 -22.7539 L 30.5664 -22.7539 C 27.9785 -22.7539 26.1719 -24.3652 26.1719 -27.1484 C 26.1719 -28.5156 26.4648 -29.6387 27.2949 -31.2012 C 30.7617 -37.3535 35.9375 -46.1914 40.2344 -53.418 C 41.8457 -56.25 43.7012 -57.3242 46.6797 -57.3242 C 49.6094 -57.3242 51.709 -55.4199 51.709 -52.5391 L 51.709 -28.4668 L 54.541 -28.4668 C 56.25 -28.4668 57.373 -27.4414 57.373 -25.5859 C 57.373 -23.7793 56.25 -22.7539 54.541 -22.7539 L 51.709 -22.7539 L 51.709 -16.6992 C 51.709 -14.6484 50.6348 -13.2324 48.584 -13.2324 Z M 76.0742 -13.1836 C 69.0918 -13.1836 63.6719 -17.4316 62.3047 -22.168 C 62.1094 -22.8027 62.0117 -23.291 62.0117 -24.0234 C 62.0117 -25.8301 63.2812 -27.0996 64.9902 -27.0996 C 66.4062 -27.0996 67.2852 -26.3184 67.9199 -24.6582 C 69.2871 -21.0938 72.0703 -19.043 76.123 -19.043 C 81.0547 -19.043 84.4727 -22.0703 84.4727 -26.0742 C 84.4727 -30.2734 81.3477 -33.0078 76.4648 -33.0078 L 73.4863 -33.0078 C 71.7773 -33.0078 70.6543 -34.2773 70.6543 -35.8887 C 70.6543 -37.7441 71.7773 -38.916 73.4863 -38.916 L 76.2207 -38.916 C 80.2734 -38.916 83.1543 -41.6504 83.1543 -45.4102 C 83.1543 -48.9746 80.3223 -51.4648 76.2695 -51.4648 C 72.2656 -51.4648 69.7754 -49.5117 68.6523 -45.8496 C 68.1641 -44.1895 67.334 -43.4082 65.8203 -43.4082 C 64.0137 -43.4082 62.8906 -44.6777 62.8906 -46.4844 C 62.8906 -47.2168 62.8906 -47.7051 62.9883 -48.3887 C 64.3555 -53.418 69.4824 -57.3242 76.416 -57.3242 C 84.082 -57.3242 89.502 -52.7344 89.502 -46.1914 C 89.502 -41.4551 86.1328 -37.1094 81.8848 -36.4258 L 81.8848 -36.1328 C 87.0605 -35.5957 90.8691 -31.25 90.8691 -25.7812 C 90.8691 -18.4082 84.7656 -13.1836 76.0742 -13.1836 Z M 45.5566 -28.4668 L 45.5566 -50.4395 L 45.2148 -50.4395 C 41.1621 -43.457 35.8398 -34.4727 32.8613 -28.7109 L 32.8613 -28.4668 Z"/>
  </g>
  <g id="Light-M" transform="matrix(1 0 0 1 1095.42 1126)">
   <path d="M 57.7148 13.7695 C 84.5215 13.7695 106.689 -8.39844 106.689 -35.2051 C 106.689 -62.0117 84.5215 -84.1797 57.666 -84.1797 C 30.8594 -84.1797 8.74023 -62.0117 8.74023 -35.2051 C 8.74023 -8.39844 30.9082 13.7695 57.7148 13.7695 Z M 47.7051 -13.623 C 46.1426 -13.623 45.2637 -14.7461 45.2637 -16.3574 L 45.2637 -23.4375 L 29.1992 -23.4375 C 27.0508 -23.4375 25.5371 -24.7559 25.5371 -27.002 C 25.5371 -28.0762 25.7812 -29.0527 26.416 -30.2246 C 30.0293 -36.2793 36.7676 -47.1191 40.9668 -53.9062 C 42.3828 -56.2012 43.7988 -57.0801 46.1914 -57.0801 C 48.584 -57.0801 50.2441 -55.5176 50.2441 -53.1738 L 50.2441 -28.0762 L 54.0527 -28.0762 C 55.4199 -28.0762 56.3477 -27.1973 56.3477 -25.7324 C 56.3477 -24.2676 55.4688 -23.4375 54.0527 -23.4375 L 50.2441 -23.4375 L 50.2441 -16.3574 C 50.2441 -14.6973 49.3652 -13.623 47.7051 -13.623 Z M 75.1465 -13.4766 C 68.3594 -13.4766 63.0859 -17.5293 61.6699 -22.2168 C 61.4746 -22.7539 61.3281 -23.2422 61.3281 -23.877 C 61.3281 -25.3418 62.4023 -26.416 63.7695 -26.416 C 65.0391 -26.416 65.7227 -25.7324 66.2109 -24.3652 C 67.627 -20.5078 70.8984 -18.2129 75.1953 -18.2129 C 80.7129 -18.2129 84.4238 -21.5332 84.4238 -26.0254 C 84.4238 -30.4688 80.8594 -33.5938 75.6348 -33.5938 L 72.168 -33.5938 C 70.7031 -33.5938 69.8242 -34.5703 69.8242 -35.9375 C 69.8242 -37.4512 70.752 -38.3789 72.168 -38.3789 L 75.3418 -38.3789 C 79.834 -38.3789 83.1055 -41.4551 83.1055 -45.5566 C 83.1055 -49.5605 79.9316 -52.2949 75.293 -52.2949 C 70.8984 -52.2949 68.0176 -50 66.9922 -46.1914 C 66.6016 -44.7266 65.918 -44.0918 64.6484 -44.0918 C 63.1348 -44.0918 62.207 -45.1172 62.207 -46.6797 C 62.207 -47.2656 62.2559 -47.7539 62.4023 -48.3398 C 63.6719 -53.418 68.8477 -57.0801 75.3906 -57.0801 C 82.9102 -57.0801 88.2324 -52.5879 88.2324 -46.1914 C 88.2324 -41.4551 84.8145 -37.0605 80.4688 -36.377 L 80.4688 -36.1328 C 85.6934 -35.5957 89.5996 -31.2012 89.5996 -25.8301 C 89.5996 -18.6035 83.6426 -13.4766 75.1465 -13.4766 Z M 45.2637 -28.0762 L 45.2637 -51.4648 L 45.0195 -51.4648 C 41.2598 -45.3125 33.8867 -33.6914 30.957 -28.2715 L 30.957 -28.0762 Z"/>
  </g>
  <g id="Thin-M" transform="matrix(1 0 0 1 799.806 1126)">
   <path d="M 56.6406 12.7441 C 82.9102 12.7441 104.492 -8.83789 104.492 -35.1562 C 104.492 -61.4746 82.9102 -83.0566 56.5918 -83.0566 C 30.3223 -83.0566 8.74023 -61.4746 8.74023 -35.1562 C 8.74023 -8.83789 30.3223 12.7441 56.6406 12.7441 Z M 46.582 -14.1113 C 45.6055 -14.1113 44.9219 -14.7949 44.9219 -15.8691 L 44.9219 -24.3652 L 27.3926 -24.3652 C 25.7812 -24.3652 24.6582 -25.2441 24.6582 -26.8555 C 24.6582 -27.5391 24.8535 -28.2715 25.2441 -28.9551 C 29.0527 -34.8633 37.8418 -48.291 41.9922 -54.5898 C 43.0176 -56.1523 43.9941 -56.6895 45.5566 -56.6895 C 47.168 -56.6895 48.291 -55.7129 48.291 -54.1016 L 48.291 -27.5879 L 53.418 -27.5879 C 54.3457 -27.5879 54.9805 -26.9043 54.9805 -25.9277 C 54.9805 -24.9512 54.4434 -24.3652 53.418 -24.3652 L 48.291 -24.3652 L 48.291 -15.8691 C 48.291 -14.7949 47.6562 -14.1113 46.582 -14.1113 Z M 73.9258 -13.8184 C 67.3828 -13.8184 62.2559 -17.7246 60.791 -22.2656 C 60.6445 -22.7051 60.498 -23.1445 60.498 -23.6816 C 60.498 -24.707 61.2305 -25.4883 62.207 -25.4883 C 63.1348 -25.4883 63.623 -24.9512 63.9648 -23.9258 C 65.3809 -19.7266 69.3359 -17.1387 73.9258 -17.1387 C 80.2734 -17.1387 84.4238 -20.8008 84.4238 -25.8789 C 84.4238 -30.7129 80.2246 -34.3262 74.5117 -34.3262 L 70.4102 -34.3262 C 69.3359 -34.3262 68.75 -35.0098 68.75 -35.9863 C 68.75 -37.0117 69.3848 -37.6465 70.4102 -37.6465 L 74.1699 -37.6465 C 79.248 -37.6465 83.0078 -41.1621 83.0078 -45.752 C 83.0078 -50.293 79.3457 -53.3691 73.9258 -53.3691 C 68.9941 -53.3691 65.625 -50.6348 64.7949 -46.582 C 64.5508 -45.459 64.0137 -45.0195 63.1348 -45.0195 C 61.9141 -45.0195 61.377 -45.752 61.377 -46.875 C 61.377 -47.3145 61.4258 -47.8027 61.5234 -48.291 C 62.7441 -53.418 67.9688 -56.6895 73.9746 -56.6895 C 81.2988 -56.6895 86.5723 -52.3438 86.5723 -46.1426 C 86.5723 -41.4551 83.0566 -37.0117 78.5156 -36.2305 L 78.5156 -36.1328 C 83.8867 -35.5469 87.9883 -31.1035 87.9883 -25.8301 C 87.9883 -18.8477 82.1289 -13.8184 73.9258 -13.8184 Z M 44.9219 -27.5879 L 44.9219 -52.832 L 44.7754 -52.832 C 41.3574 -47.7051 31.2988 -32.6172 28.418 -27.7344 L 28.418 -27.5879 Z"/>
  </g>
  <g id="Ultralight-M" transform="matrix(1 0 0 1 503.656 1126)">
   <path d="M 56.0547 12.207 C 82.0801 12.207 103.369 -9.08203 103.369 -35.1562 C 103.369 -61.1816 82.0801 -82.4707 56.0547 -82.4707 C 30.0293 -82.4707 8.74023 -61.1816 8.74023 -35.1562 C 8.74023 -9.08203 30.0293 12.207 56.0547 12.207 Z M 46.0449 -14.3555 C 45.3125 -14.3555 44.7266 -14.8438 44.7266 -15.625 L 44.7266 -24.8047 L 26.5137 -24.8047 C 25.1465 -24.8047 24.2188 -25.4883 24.2188 -26.7578 C 24.2188 -27.2461 24.4141 -27.8809 24.6582 -28.2715 C 28.5645 -34.1309 38.3789 -48.877 42.4805 -54.9316 C 43.3594 -56.1523 44.0918 -56.4941 45.2148 -56.4941 C 46.4355 -56.4941 47.3145 -55.7617 47.3145 -54.541 L 47.3145 -27.3438 L 53.0762 -27.3438 C 53.8086 -27.3438 54.2969 -26.7578 54.2969 -26.0254 C 54.2969 -25.293 53.8574 -24.8047 53.0762 -24.8047 L 47.3145 -24.8047 L 47.3145 -15.625 C 47.3145 -14.8438 46.8262 -14.3555 46.0449 -14.3555 Z M 73.3398 -14.0137 C 66.8945 -14.0137 61.8652 -17.8223 60.3516 -22.3145 C 60.2051 -22.6562 60.0586 -23.0957 60.0586 -23.584 C 60.0586 -24.4141 60.5957 -25 61.377 -25 C 62.207 -25 62.5488 -24.5605 62.793 -23.7305 C 64.2578 -19.3359 68.5547 -16.6016 73.3398 -16.6016 C 80.0293 -16.6016 84.4238 -20.4102 84.4238 -25.8301 C 84.4238 -30.8594 79.8828 -34.7168 73.9258 -34.7168 L 69.4824 -34.7168 C 68.6523 -34.7168 68.2129 -35.2051 68.2129 -35.9863 C 68.2129 -36.8164 68.7012 -37.3047 69.4824 -37.3047 L 73.584 -37.3047 C 78.9551 -37.3047 82.959 -41.0645 82.959 -45.8496 C 82.959 -50.6836 79.1016 -53.9551 73.2422 -53.9551 C 68.0664 -53.9551 64.4043 -50.9766 63.6719 -46.8262 C 63.4766 -45.8008 63.0859 -45.459 62.3535 -45.459 C 61.2793 -45.459 60.9375 -46.0449 60.9375 -46.9727 C 60.9375 -47.3633 60.9863 -47.8516 61.1328 -48.291 C 62.3047 -53.418 67.5293 -56.4941 73.2422 -56.4941 C 80.4688 -56.4941 85.6934 -52.1973 85.6934 -46.0938 C 85.6934 -41.4551 82.1289 -37.0117 77.5391 -36.1816 L 77.5391 -36.1328 C 82.959 -35.498 87.1582 -31.1035 87.1582 -25.8301 C 87.1582 -18.9941 81.3477 -14.0137 73.3398 -14.0137 Z M 44.7266 -27.3438 L 44.7266 -53.5156 L 44.6289 -53.5156 C 41.4062 -48.9258 29.9316 -32.0801 27.1484 -27.4414 L 27.1484 -27.3438 Z"/>
  </g>
  <g id="Black-S" transform="matrix(1 0 0 1 2884.57 696)">
   <path d="M 48.8281 6.78711 C 71.9727 6.78711 90.8203 -12.0605 90.8203 -35.2051 C 90.8203 -58.3496 71.9727 -77.1973 48.8281 -77.1973 C 25.6836 -77.1973 6.83594 -58.3496 6.83594 -35.2051 C 6.83594 -12.0605 25.6836 6.78711 48.8281 6.78711 Z M 41.8945 -20.2637 C 39.7949 -20.2637 38.3789 -21.6797 38.3789 -23.7305 L 38.3789 -25.6348 L 32.1777 -25.6348 C 28.9062 -25.6348 27.2949 -27.3926 27.2949 -30.4199 C 27.2949 -32.3242 27.7832 -34.082 28.3203 -35.6445 C 29.1016 -38.1348 30.8105 -42.5781 32.2754 -45.5566 C 33.7891 -48.7305 35.8887 -50.2441 39.502 -50.2441 C 43.6035 -50.2441 45.5078 -47.8516 45.5078 -43.8965 L 45.5078 -32.5684 L 45.8496 -32.5684 C 47.9004 -32.5684 49.0234 -31.1523 49.0234 -29.0527 C 49.0234 -27.002 47.9004 -25.7324 45.8496 -25.7324 L 45.5078 -25.7324 L 45.5078 -23.7305 C 45.5078 -21.6797 44.043 -20.2637 41.8945 -20.2637 Z M 60.3516 -20.2637 C 56.0059 -20.2637 52.002 -22.998 51.123 -25.8789 C 50.9277 -26.5625 50.7812 -27.1973 50.7812 -27.8809 C 50.7812 -30.127 52.5391 -31.2988 54.1016 -31.2988 C 55.5664 -31.2988 56.6406 -30.7129 57.4219 -29.6387 C 58.3008 -28.3691 59.4727 -27.832 60.498 -27.832 C 61.6211 -27.832 62.3535 -28.7109 62.3535 -29.6387 C 62.3535 -30.8105 61.6211 -31.543 60.3027 -31.543 L 60.2539 -31.543 C 57.5684 -31.543 56.4453 -33.1055 56.4453 -35.3516 C 56.4453 -37.5488 57.8613 -39.1113 60.2539 -39.1113 L 60.3027 -39.1113 C 61.6211 -39.1113 62.1094 -40.1367 62.1094 -41.0156 C 62.1094 -42.2852 61.2793 -43.0664 60.2539 -43.0664 C 59.1797 -43.0664 58.3984 -42.4805 57.5195 -41.2598 C 56.8359 -40.2344 55.8105 -39.502 54.248 -39.502 C 52.3926 -39.502 51.0742 -40.7227 51.0742 -42.9199 C 51.0742 -43.6523 51.2207 -44.3359 51.6602 -45.2637 C 52.5391 -47.3633 55.6641 -50.2441 60.3516 -50.2441 C 66.4062 -50.2441 70.2148 -47.1191 70.2148 -42.2363 C 70.2148 -39.4043 68.2617 -36.7188 65.625 -36.2793 L 65.625 -35.9375 C 68.7012 -35.6934 70.752 -32.7148 70.752 -29.1016 C 70.752 -23.6816 66.748 -20.2637 60.3516 -20.2637 Z M 38.3789 -32.4707 L 38.3789 -42.7734 L 38.2812 -42.7734 C 37.2559 -39.9902 35.6445 -34.9609 34.8633 -32.6172 L 34.8633 -32.4707 Z"/>
  </g>
  <g id="Heavy-S" transform="matrix(1 0 0 1 2588.47 696)">
   <path d="M 48.2422 6.15234 C 70.9961 6.15234 89.5996 -12.4512 89.5996 -35.2051 C 89.5996 -57.959 70.9961 -76.6113 48.1934 -76.6113 C 25.4395 -76.6113 6.83594 -57.959 6.83594 -35.2051 C 6.83594 -12.4512 25.4395 6.15234 48.2422 6.15234 Z M 41.0645 -19.6777 C 39.0625 -19.6777 37.793 -21.0938 37.793 -23.0469 L 37.793 -25.4883 L 30.3711 -25.4883 C 27.3438 -25.4883 25.7812 -27.1973 25.7812 -30.0781 C 25.7812 -31.8359 26.1719 -33.3984 26.7578 -34.9121 C 28.0273 -37.9883 30.0781 -42.7734 31.9824 -46.4355 C 33.4961 -49.4141 35.498 -50.8301 38.8672 -50.8301 C 42.627 -50.8301 44.4824 -48.584 44.4824 -44.9707 L 44.4824 -31.9824 L 45.166 -31.9824 C 47.0703 -31.9824 48.1934 -30.7129 48.1934 -28.7109 C 48.1934 -26.7578 47.0703 -25.5859 45.166 -25.5859 L 44.4824 -25.5859 L 44.4824 -23.0469 C 44.4824 -21.0938 43.1641 -19.6777 41.0645 -19.6777 Z M 60.2539 -19.6777 C 55.6641 -19.6777 51.5625 -22.5586 50.6348 -25.6836 C 50.4883 -26.3184 50.3418 -26.9043 50.3418 -27.5879 C 50.3418 -29.6387 51.9531 -30.8105 53.4668 -30.8105 C 54.8828 -30.8105 55.9082 -30.1758 56.6406 -29.0527 C 57.5684 -27.4414 58.8867 -26.6602 60.4004 -26.6602 C 62.1094 -26.6602 63.2324 -27.8809 63.2324 -29.2969 C 63.2324 -30.9082 62.1582 -31.9336 60.3027 -31.9336 L 59.7656 -31.9336 C 57.373 -31.9336 56.2988 -33.3984 56.2988 -35.4492 C 56.2988 -37.5 57.6172 -38.9648 59.7656 -38.9648 L 60.2539 -38.9648 C 61.9629 -38.9648 62.8418 -40.1855 62.8418 -41.5039 C 62.8418 -43.1152 61.7188 -44.1406 60.2539 -44.1406 C 58.7402 -44.1406 57.7148 -43.3594 56.8359 -41.748 C 56.2012 -40.625 55.2734 -39.9414 53.7598 -39.9414 C 51.9531 -39.9414 50.7324 -41.1133 50.7324 -43.1641 C 50.7324 -43.8965 50.8301 -44.4824 51.1719 -45.3125 C 52.0996 -47.8516 55.4688 -50.8301 60.3516 -50.8301 C 66.4062 -50.8301 70.3125 -47.5586 70.3125 -42.627 C 70.3125 -39.5508 68.2129 -36.7188 65.4297 -36.2793 L 65.4297 -35.9375 C 68.75 -35.6445 70.9961 -32.5684 70.9961 -28.8086 C 70.9961 -23.291 66.7969 -19.6777 60.2539 -19.6777 Z M 37.793 -31.9336 L 37.793 -43.7012 L 37.6465 -43.7012 C 36.084 -40.1855 34.082 -34.9609 32.9102 -32.0801 L 32.9102 -31.9336 Z"/>
  </g>
  <g id="Bold-S" transform="matrix(1 0 0 1 2292.44 696)">
   <path d="M 47.5586 5.46875 C 69.873 5.46875 88.2324 -12.8906 88.2324 -35.2051 C 88.2324 -57.5684 69.873 -75.9277 47.5098 -75.9277 C 25.1953 -75.9277 6.83594 -57.5684 6.83594 -35.2051 C 6.83594 -12.8906 25.1953 5.46875 47.5586 5.46875 Z M 40.1855 -19.043 C 38.2324 -19.043 37.1094 -20.4102 37.1094 -22.3145 L 37.1094 -25.3906 L 28.3691 -25.3906 C 25.6348 -25.3906 24.0234 -26.9531 24.0234 -29.6875 C 24.0234 -31.25 24.4141 -32.6172 25.0488 -34.082 C 26.7578 -37.793 29.2969 -42.9688 31.6895 -47.4121 C 33.1543 -50.1953 35.0098 -51.4648 38.1348 -51.4648 C 41.5039 -51.4648 43.3594 -49.4141 43.3594 -46.1914 L 43.3594 -31.3477 L 44.3848 -31.3477 C 46.1914 -31.3477 47.2168 -30.1758 47.2168 -28.3203 C 47.2168 -26.5137 46.1914 -25.4395 44.3848 -25.4395 L 43.3594 -25.4395 L 43.3594 -22.3145 C 43.3594 -20.4102 42.1387 -19.043 40.1855 -19.043 Z M 60.2051 -19.043 C 55.2246 -19.043 51.0742 -22.1191 50.0977 -25.4395 C 49.9512 -26.0254 49.8047 -26.5625 49.8047 -27.1973 C 49.8047 -29.1016 51.2695 -30.2246 52.7832 -30.2246 C 54.1504 -30.2246 55.0781 -29.6387 55.7129 -28.3691 C 56.6895 -26.416 58.252 -25.3906 60.3027 -25.3906 C 62.6465 -25.3906 64.2578 -26.9531 64.2578 -28.8574 C 64.2578 -31.0059 62.793 -32.373 60.3027 -32.373 L 59.2285 -32.373 C 57.1289 -32.373 56.1035 -33.7402 56.1035 -35.5469 C 56.1035 -37.4512 57.2754 -38.7695 59.2285 -38.7695 L 60.2051 -38.7695 C 62.3535 -38.7695 63.623 -40.2344 63.623 -42.0898 C 63.623 -43.9941 62.207 -45.3125 60.2539 -45.3125 C 58.252 -45.3125 56.9824 -44.3359 56.0547 -42.334 C 55.5176 -41.1133 54.6387 -40.4297 53.1738 -40.4297 C 51.5137 -40.4297 50.293 -41.5527 50.293 -43.457 C 50.293 -44.1406 50.3906 -44.6777 50.6836 -45.4102 C 51.6113 -48.4375 55.1758 -51.4648 60.3516 -51.4648 C 66.4551 -51.4648 70.459 -48.0957 70.459 -43.0176 C 70.459 -39.7461 68.1641 -36.7188 65.2344 -36.2305 L 65.2344 -35.9375 C 68.7988 -35.5957 71.2891 -32.4219 71.2891 -28.4668 C 71.2891 -22.8027 66.8457 -19.043 60.2051 -19.043 Z M 37.1094 -31.2988 L 37.1094 -44.7266 L 36.9141 -44.7266 C 34.7168 -40.3809 32.3242 -35.0098 30.7617 -31.4453 L 30.7617 -31.2988 Z"/>
  </g>
  <g id="Semibold-S" transform="matrix(1 0 0 1 1996.2 696)">
   <path d="M 47.0703 4.98047 C 69.0918 4.98047 87.3047 -13.1836 87.3047 -35.2539 C 87.3047 -57.2754 69.0918 -75.4883 47.0215 -75.4883 C 25 -75.4883 6.83594 -57.2754 6.83594 -35.2539 C 6.83594 -13.1836 25.0488 4.98047 47.0703 4.98047 Z M 39.5508 -18.6035 C 37.6953 -18.6035 36.6211 -19.9707 36.6211 -21.7773 L 36.6211 -25.293 L 27.002 -25.293 C 24.4629 -25.293 22.8516 -26.8066 22.8516 -29.3945 C 22.8516 -30.8594 23.1934 -32.0801 23.877 -33.5449 C 25.9277 -37.6465 28.7109 -43.1152 31.4941 -48.0957 C 32.959 -50.7812 34.7168 -51.9043 37.6465 -51.9043 C 40.7227 -51.9043 42.5781 -50 42.5781 -47.0215 L 42.5781 -30.9082 L 43.8477 -30.9082 C 45.5566 -30.9082 46.582 -29.834 46.582 -28.0762 C 46.582 -26.3184 45.5566 -25.293 43.8477 -25.293 L 42.5781 -25.293 L 42.5781 -21.7773 C 42.5781 -19.9219 41.4551 -18.6035 39.5508 -18.6035 Z M 60.1074 -18.6035 C 54.9805 -18.6035 50.7324 -21.7773 49.7559 -25.2441 C 49.6094 -25.8789 49.4629 -26.3184 49.4629 -26.9531 C 49.4629 -28.7598 50.8301 -29.8828 52.2949 -29.8828 C 53.6133 -29.8828 54.4922 -29.1992 55.127 -27.9297 C 56.1035 -25.6836 57.7637 -24.5117 60.2051 -24.5117 C 63.0371 -24.5117 64.9414 -26.3184 64.9414 -28.6133 C 64.9414 -31.1035 63.1836 -32.666 60.3027 -32.666 L 58.8379 -32.666 C 56.9824 -32.666 55.957 -33.9355 55.957 -35.6445 C 55.957 -37.4023 57.0801 -38.623 58.8379 -38.623 L 60.1562 -38.623 C 62.6465 -38.623 64.209 -40.2832 64.209 -42.4805 C 64.209 -44.6289 62.5488 -46.0938 60.2539 -46.0938 C 57.9102 -46.0938 56.4453 -45.0195 55.5176 -42.7246 C 55.0293 -41.4062 54.1992 -40.7227 52.7832 -40.7227 C 51.1719 -40.7227 50.0488 -41.8945 50.0488 -43.6523 C 50.0488 -44.2871 50.0977 -44.7754 50.293 -45.459 C 51.3184 -48.7793 55.0293 -51.9043 60.3516 -51.9043 C 66.4551 -51.9043 70.5566 -48.4375 70.5566 -43.3105 C 70.5566 -39.8926 68.1641 -36.7188 65.0879 -36.2305 L 65.0879 -35.9375 C 68.7988 -35.5957 71.4355 -32.3242 71.4355 -28.2227 C 71.4355 -22.5098 66.8945 -18.6035 60.1074 -18.6035 Z M 36.6211 -30.8594 L 36.6211 -45.4102 L 36.377 -45.4102 C 33.7891 -40.5273 31.1523 -35.0098 29.248 -31.0547 L 29.248 -30.8594 Z"/>
  </g>
  <g id="Medium-S" transform="matrix(1 0 0 1 1699.83 696)">
   <path d="M 46.7285 4.63867 C 68.5547 4.63867 86.6211 -13.4277 86.6211 -35.2539 C 86.6211 -57.0312 68.5059 -75.1465 46.6797 -75.1465 C 24.8535 -75.1465 6.83594 -57.0312 6.83594 -35.2539 C 6.83594 -13.4277 24.9023 4.63867 46.7285 4.63867 Z M 39.0625 -18.2617 C 37.2559 -18.2617 36.2793 -19.5801 36.2793 -21.3867 L 36.2793 -25.1953 L 25.9766 -25.1953 C 23.5352 -25.1953 21.9727 -26.6602 21.9727 -29.1992 C 21.9727 -30.5664 22.2656 -31.6406 22.9492 -33.1055 C 25.293 -37.5488 28.3203 -43.2617 31.3477 -48.584 C 32.7637 -51.1719 34.4727 -52.2461 37.2559 -52.2461 C 40.1367 -52.2461 41.9922 -50.4395 41.9922 -47.6074 L 41.9922 -30.5664 L 43.457 -30.5664 C 45.0684 -30.5664 46.0938 -29.541 46.0938 -27.8809 C 46.0938 -26.1719 45.0684 -25.2441 43.457 -25.2441 L 41.9922 -25.2441 L 41.9922 -21.3867 C 41.9922 -19.5801 40.9668 -18.2617 39.0625 -18.2617 Z M 60.0586 -18.2617 C 54.7363 -18.2617 50.4883 -21.5332 49.4629 -25.1465 C 49.3164 -25.7324 49.2188 -26.1719 49.2188 -26.7578 C 49.2188 -28.4668 50.4395 -29.5898 51.9531 -29.5898 C 53.2227 -29.5898 54.0527 -28.9062 54.6387 -27.5391 C 55.6641 -25.1465 57.4219 -23.8281 60.1562 -23.8281 C 63.2812 -23.8281 65.4785 -25.8301 65.4785 -28.3691 C 65.4785 -31.1523 63.5254 -32.9102 60.3027 -32.9102 L 58.5449 -32.9102 C 56.8848 -32.9102 55.8594 -34.1309 55.8594 -35.6934 C 55.8594 -37.4023 56.9336 -38.5254 58.5449 -38.5254 L 60.1562 -38.5254 C 62.8418 -38.5254 64.5996 -40.332 64.5996 -42.7734 C 64.5996 -45.1172 62.793 -46.7285 60.2539 -46.7285 C 57.6172 -46.7285 56.0547 -45.5078 55.127 -43.0176 C 54.6387 -41.6504 53.8574 -40.9668 52.4902 -40.9668 C 50.9277 -40.9668 49.8535 -42.0898 49.8535 -43.7988 C 49.8535 -44.4336 49.8535 -44.873 50 -45.5078 C 51.0742 -49.0723 54.8828 -52.2461 60.4004 -52.2461 C 66.4551 -52.2461 70.6055 -48.6816 70.6055 -43.5547 C 70.6055 -39.9414 68.1152 -36.7188 64.9902 -36.2305 L 64.9902 -35.9375 C 68.8477 -35.5469 71.582 -32.2266 71.582 -28.0762 C 71.582 -22.2656 66.9434 -18.2617 60.0586 -18.2617 Z M 36.2793 -30.5176 L 36.2793 -45.9473 L 36.0352 -45.9473 C 33.1055 -40.6738 30.2246 -35.0098 28.125 -30.7129 L 28.125 -30.5176 Z"/>
  </g>
  <g id="Regular-S" transform="matrix(1 0 0 1 1403.58 696)">
   <path d="M 46.2402 4.15039 C 67.7734 4.15039 85.6934 -13.7207 85.6934 -35.2539 C 85.6934 -56.7871 67.7246 -74.6582 46.1914 -74.6582 C 24.707 -74.6582 6.83594 -56.7871 6.83594 -35.2539 C 6.83594 -13.7207 24.7559 4.15039 46.2402 4.15039 Z M 38.4277 -17.8223 C 36.7188 -17.8223 35.791 -19.1406 35.791 -20.8984 L 35.791 -25.0977 L 24.6094 -25.0977 C 22.3633 -25.0977 20.8008 -26.5137 20.8008 -28.9551 C 20.8008 -30.1758 21.0449 -31.1035 21.7773 -32.5684 C 24.4629 -37.4512 27.7832 -43.4082 31.1035 -49.2676 C 32.5684 -51.709 34.1309 -52.6855 36.7676 -52.6855 C 39.4043 -52.6855 41.2109 -50.9766 41.2109 -48.4375 L 41.2109 -30.127 L 42.9199 -30.127 C 44.4336 -30.127 45.459 -29.1992 45.459 -27.5879 C 45.459 -26.0254 44.4336 -25.0977 42.9199 -25.0977 L 41.2109 -25.0977 L 41.2109 -20.8984 C 41.2109 -19.0918 40.2832 -17.8223 38.4277 -17.8223 Z M 60.0098 -17.8223 C 54.4922 -17.8223 50.1465 -21.1914 49.1211 -24.9512 C 48.9746 -25.5371 48.877 -25.9277 48.877 -26.5625 C 48.877 -28.0762 50 -29.1992 51.4648 -29.1992 C 52.7344 -29.1992 53.4668 -28.5156 54.0527 -27.0996 C 55.127 -24.4141 56.9824 -22.9492 60.0586 -22.9492 C 63.6719 -22.9492 66.1621 -25.1953 66.1621 -28.125 C 66.1621 -31.25 63.916 -33.2031 60.3027 -33.2031 L 58.2031 -33.2031 C 56.7383 -33.2031 55.7129 -34.3262 55.7129 -35.7422 C 55.7129 -37.3535 56.7383 -38.3789 58.2031 -38.3789 L 60.1074 -38.3789 C 63.1348 -38.3789 65.1855 -40.332 65.1855 -43.1152 C 65.1855 -45.752 63.1348 -47.5586 60.2539 -47.5586 C 57.3242 -47.5586 55.5176 -46.1914 54.5898 -43.4082 C 54.1504 -41.9922 53.418 -41.3086 52.0996 -41.3086 C 50.5859 -41.3086 49.5605 -42.3828 49.5605 -43.9941 C 49.5605 -44.5801 49.5605 -44.9707 49.6582 -45.5566 C 50.7324 -49.4629 54.7363 -52.6855 60.4004 -52.6855 C 66.4551 -52.6855 70.7031 -49.0234 70.7031 -43.8477 C 70.7031 -40.0879 68.1152 -36.7188 64.8438 -36.2305 L 64.8438 -35.9375 C 68.8965 -35.5469 71.7773 -32.1289 71.7773 -27.832 C 71.7773 -21.9727 66.9434 -17.8223 60.0098 -17.8223 Z M 35.791 -30.127 L 35.791 -46.6309 L 35.498 -46.6309 C 32.1777 -40.8203 29.0527 -35.0098 26.6602 -30.3223 L 26.6602 -30.127 Z"/>
  </g>
  <g id="Light-S" transform="matrix(1 0 0 1 1107.6 696)">
   <path d="M 45.5078 3.4668 C 66.6992 3.4668 84.2285 -14.0625 84.2285 -35.2051 C 84.2285 -56.3965 66.6504 -73.9258 45.5078 -73.9258 C 24.3164 -73.9258 6.83594 -56.3965 6.83594 -35.2051 C 6.83594 -14.0625 24.3652 3.4668 45.5078 3.4668 Z M 37.6953 -18.1641 C 36.3281 -18.1641 35.5469 -19.1895 35.5469 -20.5566 L 35.5469 -25.7324 L 23.3887 -25.7324 C 21.5332 -25.7324 20.2148 -26.8555 20.2148 -28.8574 C 20.2148 -29.7852 20.459 -30.6152 20.9961 -31.6895 C 23.7793 -36.4746 28.4668 -44.1895 31.7871 -49.707 C 33.0078 -51.6602 34.2773 -52.4414 36.377 -52.4414 C 38.4277 -52.4414 39.9414 -51.0742 39.9414 -49.0234 L 39.9414 -29.7852 L 42.5293 -29.7852 C 43.75 -29.7852 44.5312 -29.0039 44.5312 -27.7344 C 44.5312 -26.4648 43.75 -25.7324 42.5293 -25.7324 L 39.9414 -25.7324 L 39.9414 -20.5566 C 39.9414 -19.1406 39.1602 -18.1641 37.6953 -18.1641 Z M 59.2285 -18.0664 C 53.8086 -18.0664 49.6094 -21.3379 48.5352 -25 C 48.3887 -25.4883 48.291 -25.8789 48.291 -26.416 C 48.291 -27.6855 49.2188 -28.5645 50.4395 -28.5645 C 51.4648 -28.5645 52.0508 -28.0273 52.5391 -26.8066 C 53.6133 -23.9258 55.957 -22.2168 59.2285 -22.2168 C 63.3789 -22.2168 66.1621 -24.707 66.1621 -28.0273 C 66.1621 -31.3965 63.5254 -33.6914 59.5703 -33.6914 L 57.0312 -33.6914 C 55.8105 -33.6914 55.0293 -34.6191 55.0293 -35.791 C 55.0293 -37.0605 55.8105 -37.8906 57.0312 -37.8906 L 59.3262 -37.8906 C 62.6953 -37.8906 65.1367 -40.1855 65.1367 -43.2617 C 65.1367 -46.2402 62.7441 -48.291 59.3262 -48.291 C 56.0547 -48.291 53.9551 -46.6309 53.125 -43.7012 C 52.7832 -42.4805 52.1973 -41.8945 51.0742 -41.8945 C 49.8047 -41.8945 48.9746 -42.8223 48.9746 -44.1406 C 48.9746 -44.6289 49.0234 -45.0195 49.1211 -45.5078 C 50.1465 -49.4629 54.1504 -52.4414 59.4238 -52.4414 C 65.3809 -52.4414 69.5801 -48.877 69.5801 -43.7988 C 69.5801 -40.0879 66.9434 -36.6699 63.5742 -36.1328 L 63.5742 -35.9375 C 67.6758 -35.498 70.7031 -32.0801 70.7031 -27.832 C 70.7031 -22.1191 65.9668 -18.0664 59.2285 -18.0664 Z M 35.5469 -29.7852 L 35.5469 -47.5586 L 35.3516 -47.5586 C 32.2754 -42.4316 27.2949 -34.3262 24.9512 -29.9316 L 24.9512 -29.7852 Z"/>
  </g>
  <g id="Thin-S" transform="matrix(1 0 0 1 811.867 696)">
   <path d="M 44.5801 2.53906 C 65.2832 2.53906 82.2754 -14.4531 82.2754 -35.2051 C 82.2754 -55.9082 65.2344 -72.9004 44.5312 -72.9004 C 23.8281 -72.9004 6.83594 -55.9082 6.83594 -35.2051 C 6.83594 -14.4531 23.877 2.53906 44.5801 2.53906 Z M 36.7188 -18.5547 C 35.8398 -18.5547 35.2539 -19.1895 35.2539 -20.166 L 35.2539 -26.5137 L 21.8262 -26.5137 C 20.4102 -26.5137 19.4824 -27.2949 19.4824 -28.7109 C 19.4824 -29.2969 19.6289 -29.9316 19.9707 -30.5664 C 22.9492 -35.2051 29.4434 -45.2148 32.666 -50.2441 C 33.5449 -51.6602 34.4238 -52.0996 35.791 -52.0996 C 37.207 -52.0996 38.1836 -51.2207 38.1836 -49.8535 L 38.1836 -29.3457 L 41.9434 -29.3457 C 42.7734 -29.3457 43.3594 -28.7598 43.3594 -27.9297 C 43.3594 -27.0508 42.8223 -26.5137 41.9434 -26.5137 L 38.1836 -26.5137 L 38.1836 -20.166 C 38.1836 -19.1895 37.6465 -18.5547 36.7188 -18.5547 Z M 58.1543 -18.4082 C 52.9785 -18.4082 48.9258 -21.4844 47.8027 -25.0488 C 47.6562 -25.4395 47.5586 -25.7812 47.5586 -26.2207 C 47.5586 -27.0996 48.1934 -27.7832 49.0234 -27.7832 C 49.8047 -27.7832 50.2441 -27.3438 50.5371 -26.4648 C 51.6602 -23.2422 54.6387 -21.2891 58.1543 -21.2891 C 62.9395 -21.2891 66.1133 -24.0723 66.1133 -27.9297 C 66.1133 -31.6406 62.9395 -34.375 58.5938 -34.375 L 55.4688 -34.375 C 54.5898 -34.375 54.0527 -34.9609 54.0527 -35.791 C 54.0527 -36.7188 54.6387 -37.2559 55.4688 -37.2559 L 58.3008 -37.2559 C 62.207 -37.2559 65.0391 -39.9414 65.0391 -43.457 C 65.0391 -46.875 62.2559 -49.2188 58.1543 -49.2188 C 54.3945 -49.2188 51.8555 -47.168 51.1719 -44.043 C 50.9766 -43.1152 50.5371 -42.7246 49.7559 -42.7246 C 48.7305 -42.7246 48.2422 -43.3594 48.2422 -44.2871 C 48.2422 -44.6777 48.291 -45.0684 48.3887 -45.5078 C 49.3164 -49.4629 53.418 -52.0996 58.2031 -52.0996 C 63.9648 -52.0996 68.1152 -48.6816 68.1152 -43.7988 C 68.1152 -40.0879 65.3809 -36.6699 61.8652 -36.0352 L 61.8652 -35.9375 C 66.0645 -35.498 69.2383 -32.0312 69.2383 -27.8809 C 69.2383 -22.3633 64.5996 -18.4082 58.1543 -18.4082 Z M 35.2539 -29.3457 L 35.2539 -48.7305 L 35.1074 -48.7305 C 32.373 -44.5312 25 -33.3984 22.7539 -29.4434 L 22.7539 -29.3457 Z"/>
  </g>
  <g id="Ultralight-S" transform="matrix(1 0 0 1 515.644 696)">
   <path d="M 44.043 2.05078 C 64.502 2.05078 81.2988 -14.6973 81.2988 -35.1562 C 81.2988 -55.6152 64.502 -72.3633 44.043 -72.3633 C 23.584 -72.3633 6.83594 -55.6152 6.83594 -35.1562 C 6.83594 -14.6973 23.584 2.05078 44.043 2.05078 Z M 36.1816 -18.7988 C 35.5469 -18.7988 35.1074 -19.2383 35.1074 -19.9219 L 35.1074 -26.9531 L 20.9961 -26.9531 C 19.873 -26.9531 19.0918 -27.5391 19.0918 -28.6133 C 19.0918 -29.0527 19.2383 -29.5898 19.4336 -29.9805 C 22.5098 -34.5703 29.9316 -45.752 33.1543 -50.5859 C 33.8867 -51.6113 34.5215 -51.9531 35.498 -51.9531 C 36.5723 -51.9531 37.3047 -51.3184 37.3047 -50.2441 L 37.3047 -29.1016 L 41.6504 -29.1016 C 42.2852 -29.1016 42.7246 -28.6621 42.7246 -28.0273 C 42.7246 -27.3926 42.334 -26.9531 41.6504 -26.9531 L 37.3047 -26.9531 L 37.3047 -19.9219 C 37.3047 -19.2383 36.9141 -18.7988 36.1816 -18.7988 Z M 57.6172 -18.5547 C 52.5391 -18.5547 48.584 -21.582 47.4121 -25.0977 C 47.2656 -25.3906 47.168 -25.7324 47.168 -26.123 C 47.168 -26.8066 47.6562 -27.3438 48.291 -27.3438 C 48.9746 -27.3438 49.2676 -27.002 49.5117 -26.2695 C 50.6348 -22.9004 53.9062 -20.752 57.6172 -20.752 C 62.7441 -20.752 66.1133 -23.7305 66.1133 -27.8809 C 66.1133 -31.7383 62.6465 -34.7168 58.0566 -34.7168 L 54.6875 -34.7168 C 53.9551 -34.7168 53.5645 -35.1562 53.5645 -35.8398 C 53.5645 -36.5234 54.0039 -36.9629 54.6875 -36.9629 L 57.7637 -36.9629 C 61.9141 -36.9629 64.9902 -39.8438 64.9902 -43.5547 C 64.9902 -47.2168 62.0117 -49.7559 57.5684 -49.7559 C 53.5645 -49.7559 50.7812 -47.5098 50.1953 -44.2383 C 50 -43.4082 49.6582 -43.1152 49.0234 -43.1152 C 48.1934 -43.1152 47.8516 -43.6523 47.8516 -44.4336 C 47.8516 -44.7266 47.9004 -45.1172 47.998 -45.459 C 48.9258 -49.4629 53.0273 -51.9531 57.5684 -51.9531 C 63.2324 -51.9531 67.3828 -48.584 67.3828 -43.75 C 67.3828 -40.0879 64.5996 -36.6211 60.9863 -35.9863 L 60.9863 -35.9375 C 65.2344 -35.4492 68.5059 -31.9824 68.5059 -27.8809 C 68.5059 -22.4609 63.916 -18.5547 57.6172 -18.5547 Z M 35.1074 -29.1016 L 35.1074 -49.3652 L 35.0098 -49.3652 C 32.4219 -45.6543 23.8281 -32.9102 21.582 -29.1992 L 21.582 -29.1016 Z"/>
  </g>
 </g>
</svg>
