<?xml version="1.0" encoding="UTF-8"?>
<!--Generator: Apple Native CoreSVG 123-->
<!DOCTYPE svg
PUBLIC "-//W3C//DTD SVG 1.1//EN"
       "http://www.w3.org/Graphics/SVG/1.1/DTD/svg11.dtd">
<svg version="1.1" xmlns="http://www.w3.org/2000/svg" xmlns:xlink="http://www.w3.org/1999/xlink" width="3300" height="2200">
 <!--glyph: "uni1006B0.medium", point size: 100.000000, font version: "Version 15.0d7e11", template writer version: "5"-->
 <g id="Notes">
  <rect height="2200" id="artboard" style="fill:white;opacity:1" width="3300" x="0" y="0"/>
  <line id="" style="fill:none;stroke:black;opacity:1;stroke-width:0.5;" x1="263" x2="3036" y1="292" y2="292"/>
  <text style="stroke:none;fill:black;font-family:-apple-system,&quot;SF Pro Display&quot;,&quot;SF Pro Text&quot;,Helvetica,sans-serif;font-weight:bold;" transform="matrix(1 0 0 1 263 322)">Weight/Scale Variations</text>
  <text style="stroke:none;fill:black;font-family:-apple-system,&quot;SF Pro Display&quot;,&quot;SF Pro Text&quot;,Helvetica,sans-serif;text-anchor:middle;" transform="matrix(1 0 0 1 559.711 322)">Ultralight</text>
  <text style="stroke:none;fill:black;font-family:-apple-system,&quot;SF Pro Display&quot;,&quot;SF Pro Text&quot;,Helvetica,sans-serif;text-anchor:middle;" transform="matrix(1 0 0 1 856.422 322)">Thin</text>
  <text style="stroke:none;fill:black;font-family:-apple-system,&quot;SF Pro Display&quot;,&quot;SF Pro Text&quot;,Helvetica,sans-serif;text-anchor:middle;" transform="matrix(1 0 0 1 1153.13 322)">Light</text>
  <text style="stroke:none;fill:black;font-family:-apple-system,&quot;SF Pro Display&quot;,&quot;SF Pro Text&quot;,Helvetica,sans-serif;text-anchor:middle;" transform="matrix(1 0 0 1 1449.84 322)">Regular</text>
  <text style="stroke:none;fill:black;font-family:-apple-system,&quot;SF Pro Display&quot;,&quot;SF Pro Text&quot;,Helvetica,sans-serif;text-anchor:middle;" transform="matrix(1 0 0 1 1746.56 322)">Medium</text>
  <text style="stroke:none;fill:black;font-family:-apple-system,&quot;SF Pro Display&quot;,&quot;SF Pro Text&quot;,Helvetica,sans-serif;text-anchor:middle;" transform="matrix(1 0 0 1 2043.27 322)">Semibold</text>
  <text style="stroke:none;fill:black;font-family:-apple-system,&quot;SF Pro Display&quot;,&quot;SF Pro Text&quot;,Helvetica,sans-serif;text-anchor:middle;" transform="matrix(1 0 0 1 2339.98 322)">Bold</text>
  <text style="stroke:none;fill:black;font-family:-apple-system,&quot;SF Pro Display&quot;,&quot;SF Pro Text&quot;,Helvetica,sans-serif;text-anchor:middle;" transform="matrix(1 0 0 1 2636.69 322)">Heavy</text>
  <text style="stroke:none;fill:black;font-family:-apple-system,&quot;SF Pro Display&quot;,&quot;SF Pro Text&quot;,Helvetica,sans-serif;text-anchor:middle;" transform="matrix(1 0 0 1 2933.4 322)">Black</text>
  <line id="" style="fill:none;stroke:black;opacity:1;stroke-width:0.5;" x1="263" x2="3036" y1="1903" y2="1903"/>
  <g id="" transform="matrix(1 0 0 1 263 1933)">
   <path d="M 9.24805 0.830078 C 13.5547 0.830078 17.1387 -2.74414 17.1387 -7.05078 C 17.1387 -11.3574 13.5449 -14.9316 9.23828 -14.9316 C 4.94141 -14.9316 1.36719 -11.3574 1.36719 -7.05078 C 1.36719 -2.74414 4.95117 0.830078 9.24805 0.830078 Z M 9.24805 -0.654297 C 5.70312 -0.654297 2.87109 -3.49609 2.87109 -7.05078 C 2.87109 -10.6055 5.69336 -13.4473 9.23828 -13.4473 C 12.793 -13.4473 15.6348 -10.6055 15.6445 -7.05078 C 15.6543 -3.49609 12.8027 -0.654297 9.24805 -0.654297 Z M 9.22852 -3.42773 C 9.69727 -3.42773 9.9707 -3.74023 9.9707 -4.25781 L 9.9707 -6.31836 L 12.1973 -6.31836 C 12.6953 -6.31836 13.0371 -6.57227 13.0371 -7.04102 C 13.0371 -7.51953 12.7148 -7.7832 12.1973 -7.7832 L 9.9707 -7.7832 L 9.9707 -10.0098 C 9.9707 -10.5273 9.69727 -10.8496 9.22852 -10.8496 C 8.75977 -10.8496 8.50586 -10.5078 8.50586 -10.0098 L 8.50586 -7.7832 L 6.29883 -7.7832 C 5.78125 -7.7832 5.44922 -7.51953 5.44922 -7.04102 C 5.44922 -6.57227 5.80078 -6.31836 6.29883 -6.31836 L 8.50586 -6.31836 L 8.50586 -4.25781 C 8.50586 -3.75977 8.75977 -3.42773 9.22852 -3.42773 Z"/>
  </g>
  <g id="" transform="matrix(1 0 0 1 281.506 1933)">
   <path d="M 11.709 2.91016 C 17.1582 2.91016 21.6699 -1.60156 21.6699 -7.05078 C 21.6699 -12.4902 17.1484 -17.0117 11.6992 -17.0117 C 6.25977 -17.0117 1.74805 -12.4902 1.74805 -7.05078 C 1.74805 -1.60156 6.26953 2.91016 11.709 2.91016 Z M 11.709 1.25 C 7.09961 1.25 3.41797 -2.44141 3.41797 -7.05078 C 3.41797 -11.6504 7.08984 -15.3516 11.6992 -15.3516 C 16.3086 -15.3516 20 -11.6504 20.0098 -7.05078 C 20.0195 -2.44141 16.3184 1.25 11.709 1.25 Z M 11.6895 -2.41211 C 12.207 -2.41211 12.5195 -2.77344 12.5195 -3.33984 L 12.5195 -6.23047 L 15.5762 -6.23047 C 16.123 -6.23047 16.5039 -6.51367 16.5039 -7.03125 C 16.5039 -7.55859 16.1426 -7.86133 15.5762 -7.86133 L 12.5195 -7.86133 L 12.5195 -10.9277 C 12.5195 -11.5039 12.207 -11.8555 11.6895 -11.8555 C 11.1719 -11.8555 10.8789 -11.4844 10.8789 -10.9277 L 10.8789 -7.86133 L 7.83203 -7.86133 C 7.26562 -7.86133 6.89453 -7.55859 6.89453 -7.03125 C 6.89453 -6.51367 7.28516 -6.23047 7.83203 -6.23047 L 10.8789 -6.23047 L 10.8789 -3.33984 C 10.8789 -2.79297 11.1719 -2.41211 11.6895 -2.41211 Z"/>
  </g>
  <g id="" transform="matrix(1 0 0 1 304.924 1933)">
   <path d="M 14.9707 5.67383 C 21.9336 5.67383 27.6953 -0.078125 27.6953 -7.04102 C 27.6953 -14.0039 21.9238 -19.7559 14.9609 -19.7559 C 8.00781 -19.7559 2.25586 -14.0039 2.25586 -7.04102 C 2.25586 -0.078125 8.01758 5.67383 14.9707 5.67383 Z M 14.9707 3.85742 C 8.93555 3.85742 4.08203 -1.00586 4.08203 -7.04102 C 4.08203 -13.0762 8.92578 -17.9395 14.9609 -17.9395 C 21.0059 -17.9395 25.8594 -13.0762 25.8691 -7.04102 C 25.8789 -1.00586 21.0156 3.85742 14.9707 3.85742 Z M 14.9512 -1.06445 C 15.5176 -1.06445 15.8691 -1.45508 15.8691 -2.06055 L 15.8691 -6.13281 L 20.1074 -6.13281 C 20.6934 -6.13281 21.1133 -6.46484 21.1133 -7.02148 C 21.1133 -7.59766 20.7227 -7.93945 20.1074 -7.93945 L 15.8691 -7.93945 L 15.8691 -12.1875 C 15.8691 -12.8027 15.5176 -13.1934 14.9512 -13.1934 C 14.3848 -13.1934 14.0625 -12.7832 14.0625 -12.1875 L 14.0625 -7.93945 L 9.83398 -7.93945 C 9.21875 -7.93945 8.80859 -7.59766 8.80859 -7.02148 C 8.80859 -6.46484 9.23828 -6.13281 9.83398 -6.13281 L 14.0625 -6.13281 L 14.0625 -2.06055 C 14.0625 -1.47461 14.3848 -1.06445 14.9512 -1.06445 Z"/>
  </g>
  <text style="stroke:none;fill:black;font-family:-apple-system,&quot;SF Pro Display&quot;,&quot;SF Pro Text&quot;,Helvetica,sans-serif;font-weight:bold;" transform="matrix(1 0 0 1 263 1953)">Design Variations</text>
  <text style="stroke:none;fill:black;font-family:-apple-system,&quot;SF Pro Display&quot;,&quot;SF Pro Text&quot;,Helvetica,sans-serif;" transform="matrix(1 0 0 1 263 1971)">Symbols are supported in up to nine weights and three scales.</text>
  <text style="stroke:none;fill:black;font-family:-apple-system,&quot;SF Pro Display&quot;,&quot;SF Pro Text&quot;,Helvetica,sans-serif;" transform="matrix(1 0 0 1 263 1989)">For optimal layout with text and other symbols, vertically align</text>
  <text style="stroke:none;fill:black;font-family:-apple-system,&quot;SF Pro Display&quot;,&quot;SF Pro Text&quot;,Helvetica,sans-serif;" transform="matrix(1 0 0 1 263 2007)">symbols with the adjacent text.</text>
  <rect height="14" id="" style="fill:#00AEEF;stroke:none;opacity:0.4;" width="3" x="776" y="1919"/>
  <g id="" transform="matrix(1 0 0 1 779 1933)">
   <path d="M 10.5273 0 L 12.373 0 L 7.17773 -14.0918 L 5.43945 -14.0918 L 0.244141 0 L 2.08984 0 L 3.50586 -4.0332 L 9.11133 -4.0332 Z M 6.2793 -11.9531 L 6.33789 -11.9531 L 8.59375 -5.52734 L 4.02344 -5.52734 Z"/>
  </g>
  <rect height="14" id="" style="fill:#00AEEF;stroke:none;opacity:0.4;" width="3" x="791.617" y="1919"/>
  <text style="stroke:none;fill:black;font-family:-apple-system,&quot;SF Pro Display&quot;,&quot;SF Pro Text&quot;,Helvetica,sans-serif;font-weight:bold;" transform="matrix(1 0 0 1 776 1953)">Margins</text>
  <text style="stroke:none;fill:black;font-family:-apple-system,&quot;SF Pro Display&quot;,&quot;SF Pro Text&quot;,Helvetica,sans-serif;" transform="matrix(1 0 0 1 776 1971)">Leading and trailing margins on the left and right side of each symbol</text>
  <text style="stroke:none;fill:black;font-family:-apple-system,&quot;SF Pro Display&quot;,&quot;SF Pro Text&quot;,Helvetica,sans-serif;" transform="matrix(1 0 0 1 776 1989)">can be adjusted by modifying the width of the blue rectangles.</text>
  <text style="stroke:none;fill:black;font-family:-apple-system,&quot;SF Pro Display&quot;,&quot;SF Pro Text&quot;,Helvetica,sans-serif;" transform="matrix(1 0 0 1 776 2007)">Modifications are automatically applied proportionally to all</text>
  <text style="stroke:none;fill:black;font-family:-apple-system,&quot;SF Pro Display&quot;,&quot;SF Pro Text&quot;,Helvetica,sans-serif;" transform="matrix(1 0 0 1 776 2025)">scales and weights.</text>
  <g id="" transform="matrix(1 0 0 1 1289 1933)">
   <path d="M 2.83203 3.11523 L 4.375 4.6582 C 5.22461 5.48828 6.19141 5.41992 7.06055 4.46289 L 17.2754 -6.66016 C 17.7051 -6.36719 18.0957 -6.37695 18.5645 -6.47461 L 19.6094 -6.68945 L 20.3027 -5.99609 L 20.2539 -5.47852 C 20.1855 -4.95117 20.3516 -4.53125 20.8496 -4.0332 L 21.6602 -3.22266 C 22.168 -2.71484 22.8223 -2.68555 23.3008 -3.16406 L 26.5527 -6.41602 C 27.0312 -6.89453 27.0117 -7.54883 26.5039 -8.05664 L 25.6836 -8.87695 C 25.1855 -9.375 24.7754 -9.55078 24.2383 -9.47266 L 23.7109 -9.41406 L 23.0566 -10.0781 L 23.3398 -11.2207 C 23.4863 -11.7871 23.3398 -12.2559 22.7148 -12.8613 L 20.3027 -15.2539 C 16.7578 -18.7793 12.2266 -18.6719 9.11133 -15.5371 C 8.69141 -15.1074 8.64258 -14.5215 8.91602 -14.0918 C 9.15039 -13.7207 9.62891 -13.4961 10.2734 -13.6621 C 11.7871 -14.043 13.3008 -13.9258 14.7852 -12.9199 L 14.1602 -11.3379 C 13.9258 -10.752 13.9453 -10.2734 14.1797 -9.83398 L 3.01758 0.439453 C 2.08008 1.30859 1.97266 2.25586 2.83203 3.11523 Z M 10.6738 -15.1465 C 13.3398 -17.1387 16.6504 -16.8262 19.0527 -14.4141 L 21.6797 -11.8066 C 21.9141 -11.5723 21.9434 -11.3867 21.8848 -11.0938 L 21.5039 -9.53125 L 23.0762 -7.95898 L 24.043 -8.04688 C 24.3262 -8.07617 24.4141 -8.05664 24.6387 -7.83203 L 25.2637 -7.20703 L 22.5098 -4.46289 L 21.8848 -5.07812 C 21.6602 -5.30273 21.6406 -5.40039 21.6699 -5.68359 L 21.7578 -6.64062 L 20.1953 -8.20312 L 18.5742 -7.89062 C 18.291 -7.83203 18.1445 -7.83203 17.9102 -8.07617 L 15.7324 -10.2539 C 15.5078 -10.4883 15.4785 -10.625 15.6055 -10.9473 L 16.5527 -13.2227 C 14.9512 -14.7559 12.8418 -15.6055 10.8008 -14.9512 C 10.7129 -14.9219 10.6445 -14.9414 10.6152 -14.9805 C 10.5859 -15.0293 10.5859 -15.0781 10.6738 -15.1465 Z M 4.10156 2.41211 C 3.61328 1.91406 3.78906 1.61133 4.12109 1.30859 L 15.0781 -8.80859 L 16.3086 -7.57812 L 6.15234 3.34961 C 5.84961 3.68164 5.46875 3.7793 5.06836 3.37891 Z"/>
  </g>
  <text style="stroke:none;fill:black;font-family:-apple-system,&quot;SF Pro Display&quot;,&quot;SF Pro Text&quot;,Helvetica,sans-serif;font-weight:bold;" transform="matrix(1 0 0 1 1289 1953)">Exporting</text>
  <text style="stroke:none;fill:black;font-family:-apple-system,&quot;SF Pro Display&quot;,&quot;SF Pro Text&quot;,Helvetica,sans-serif;" transform="matrix(1 0 0 1 1289 1971)">Symbols should be outlined when exporting to ensure the</text>
  <text style="stroke:none;fill:black;font-family:-apple-system,&quot;SF Pro Display&quot;,&quot;SF Pro Text&quot;,Helvetica,sans-serif;" transform="matrix(1 0 0 1 1289 1989)">design is preserved when submitting to Xcode.</text>
  <text id="template-version" style="stroke:none;fill:black;font-family:-apple-system,&quot;SF Pro Display&quot;,&quot;SF Pro Text&quot;,Helvetica,sans-serif;text-anchor:end;" transform="matrix(1 0 0 1 3036 1933)">Template v.1.0</text>
  <text style="stroke:none;fill:black;font-family:-apple-system,&quot;SF Pro Display&quot;,&quot;SF Pro Text&quot;,Helvetica,sans-serif;text-anchor:end;" transform="matrix(1 0 0 1 3036 1951)">Generated from 44.circle.fill</text>
  <text style="stroke:none;fill:black;font-family:-apple-system,&quot;SF Pro Display&quot;,&quot;SF Pro Text&quot;,Helvetica,sans-serif;text-anchor:end;" transform="matrix(1 0 0 1 3036 1969)">Typeset at 100 points</text>
  <text style="stroke:none;fill:black;font-family:-apple-system,&quot;SF Pro Display&quot;,&quot;SF Pro Text&quot;,Helvetica,sans-serif;" transform="matrix(1 0 0 1 263 726)">Small</text>
  <text style="stroke:none;fill:black;font-family:-apple-system,&quot;SF Pro Display&quot;,&quot;SF Pro Text&quot;,Helvetica,sans-serif;" transform="matrix(1 0 0 1 263 1156)">Medium</text>
  <text style="stroke:none;fill:black;font-family:-apple-system,&quot;SF Pro Display&quot;,&quot;SF Pro Text&quot;,Helvetica,sans-serif;" transform="matrix(1 0 0 1 263 1586)">Large</text>
 </g>
 <g id="Guides">
  <g id="H-reference" style="fill:#27AAE1;stroke:none;" transform="matrix(1 0 0 1 339 696)">
   <path d="M 54.9316 0 L 57.666 0 L 30.5664 -70.459 L 28.0762 -70.459 L 0.976562 0 L 3.66211 0 L 12.9395 -24.4629 L 45.7031 -24.4629 Z M 29.1992 -67.0898 L 29.4434 -67.0898 L 44.8242 -26.709 L 13.8184 -26.709 Z"/>
  </g>
  <line id="Baseline-S" style="fill:none;stroke:#27AAE1;opacity:1;stroke-width:0.577;" x1="263" x2="3036" y1="696" y2="696"/>
  <line id="Capline-S" style="fill:none;stroke:#27AAE1;opacity:1;stroke-width:0.577;" x1="263" x2="3036" y1="625.541" y2="625.541"/>
  <g id="H-reference" style="fill:#27AAE1;stroke:none;" transform="matrix(1 0 0 1 339 1126)">
   <path d="M 54.9316 0 L 57.666 0 L 30.5664 -70.459 L 28.0762 -70.459 L 0.976562 0 L 3.66211 0 L 12.9395 -24.4629 L 45.7031 -24.4629 Z M 29.1992 -67.0898 L 29.4434 -67.0898 L 44.8242 -26.709 L 13.8184 -26.709 Z"/>
  </g>
  <line id="Baseline-M" style="fill:none;stroke:#27AAE1;opacity:1;stroke-width:0.577;" x1="263" x2="3036" y1="1126" y2="1126"/>
  <line id="Capline-M" style="fill:none;stroke:#27AAE1;opacity:1;stroke-width:0.577;" x1="263" x2="3036" y1="1055.54" y2="1055.54"/>
  <g id="H-reference" style="fill:#27AAE1;stroke:none;" transform="matrix(1 0 0 1 339 1556)">
   <path d="M 54.9316 0 L 57.666 0 L 30.5664 -70.459 L 28.0762 -70.459 L 0.976562 0 L 3.66211 0 L 12.9395 -24.4629 L 45.7031 -24.4629 Z M 29.1992 -67.0898 L 29.4434 -67.0898 L 44.8242 -26.709 L 13.8184 -26.709 Z"/>
  </g>
  <line id="Baseline-L" style="fill:none;stroke:#27AAE1;opacity:1;stroke-width:0.577;" x1="263" x2="3036" y1="1556" y2="1556"/>
  <line id="Capline-L" style="fill:none;stroke:#27AAE1;opacity:1;stroke-width:0.577;" x1="263" x2="3036" y1="1485.54" y2="1485.54"/>
  <rect height="119.336" id="left-margin" style="fill:#00AEEF;stroke:none;opacity:0.4;" width="8.74023" x="1391.3" y="1030.79"/>
  <rect height="119.336" id="right-margin" style="fill:#00AEEF;stroke:none;opacity:0.4;" width="8.74023" x="1499.65" y="1030.79"/>
 </g>
 <g id="Symbols">
  <g id="Black-L" transform="matrix(1 0 0 1 2854.05 1556)">
   <path d="M 79.3457 32.8613 C 116.748 32.8613 147.412 2.19727 147.412 -35.2051 C 147.412 -72.6074 116.748 -103.271 79.2969 -103.271 C 41.8945 -103.271 11.2793 -72.6074 11.2793 -35.2051 C 11.2793 2.19727 41.9434 32.8613 79.3457 32.8613 Z M 65.9668 -9.47266 C 62.5977 -9.47266 60.498 -11.7676 60.498 -15.0391 L 60.498 -19.1406 L 48.0957 -19.1406 C 43.1641 -19.1406 40.4785 -21.9238 40.4785 -26.6602 C 40.4785 -29.4922 41.2109 -32.0312 42.1875 -34.5703 C 44.2871 -39.7949 47.7539 -47.6562 51.0254 -53.8574 C 53.5156 -58.7891 56.7383 -61.084 62.3047 -61.084 C 68.4082 -61.084 71.582 -57.4219 71.582 -51.5137 L 71.582 -29.7852 L 72.6562 -29.7852 C 75.8301 -29.7852 77.6367 -27.6367 77.6367 -24.4141 C 77.6367 -21.1914 75.8301 -19.2383 72.6562 -19.2383 L 71.582 -19.2383 L 71.582 -15.0391 C 71.582 -11.7676 69.3848 -9.47266 65.9668 -9.47266 Z M 106.885 -9.47266 C 103.516 -9.47266 101.416 -11.7676 101.416 -15.0391 L 101.416 -19.1406 L 89.0137 -19.1406 C 84.1309 -19.1406 81.3965 -21.9238 81.3965 -26.6602 C 81.3965 -29.4922 82.1289 -32.0312 83.1055 -34.5703 C 85.2051 -39.7949 88.6719 -47.6562 91.9434 -53.8574 C 94.4336 -58.7891 97.6562 -61.084 103.223 -61.084 C 109.375 -61.084 112.451 -57.4219 112.451 -51.5137 L 112.451 -29.7852 L 113.574 -29.7852 C 116.748 -29.7852 118.555 -27.6367 118.555 -24.4141 C 118.555 -21.1914 116.748 -19.2383 113.574 -19.2383 L 112.451 -19.2383 L 112.451 -15.0391 C 112.451 -11.7676 110.303 -9.47266 106.885 -9.47266 Z M 60.498 -29.6387 L 60.498 -49.3164 L 60.2539 -49.3164 C 57.4707 -43.3105 54.2969 -34.8633 52.2949 -29.9316 L 52.2949 -29.6387 Z M 101.416 -29.6387 L 101.416 -49.3164 L 101.172 -49.3164 C 98.4375 -43.3105 95.2148 -34.8633 93.2129 -29.9316 L 93.2129 -29.6387 Z"/>
  </g>
  <g id="Heavy-L" transform="matrix(1 0 0 1 2558.39 1556)">
   <path d="M 78.2715 31.7871 C 115.088 31.7871 145.312 1.61133 145.312 -35.2051 C 145.312 -72.0215 115.039 -102.197 78.2715 -102.197 C 41.4551 -102.197 11.2793 -72.0215 11.2793 -35.2051 C 11.2793 1.61133 41.5039 31.7871 78.2715 31.7871 Z M 64.6484 -8.93555 C 61.5723 -8.93555 59.668 -11.084 59.668 -14.1113 L 59.668 -19.2871 L 45.4102 -19.2871 C 40.918 -19.2871 38.4277 -21.8262 38.4277 -26.1719 C 38.4277 -28.7109 39.0625 -30.957 39.9902 -33.3496 C 42.7246 -39.1602 47.2168 -48.2422 50.9766 -55.127 C 53.3691 -59.6191 56.2988 -61.6699 61.3281 -61.6699 C 66.8457 -61.6699 69.7754 -58.3496 69.7754 -53.0762 L 69.7754 -28.9062 L 71.6309 -28.9062 C 74.5605 -28.9062 76.2207 -27.002 76.2207 -24.0723 C 76.2207 -21.0938 74.5605 -19.3359 71.6309 -19.3359 L 69.7754 -19.3359 L 69.7754 -14.1113 C 69.7754 -11.0352 67.8223 -8.93555 64.6484 -8.93555 Z M 106.689 -8.93555 C 103.564 -8.93555 101.709 -11.084 101.709 -14.1113 L 101.709 -19.2871 L 87.4512 -19.2871 C 83.0078 -19.2871 80.4199 -21.8262 80.4199 -26.1719 C 80.4199 -28.7109 81.0547 -30.957 82.0312 -33.3496 C 84.7168 -39.1602 89.209 -48.2422 93.0176 -55.127 C 95.3613 -59.6191 98.3398 -61.6699 103.369 -61.6699 C 108.838 -61.6699 111.768 -58.3496 111.768 -53.0762 L 111.768 -28.9062 L 113.672 -28.9062 C 116.602 -28.9062 118.262 -27.002 118.262 -24.0723 C 118.262 -21.0938 116.602 -19.3359 113.672 -19.3359 L 111.768 -19.3359 L 111.768 -14.1113 C 111.768 -11.0352 109.863 -8.93555 106.689 -8.93555 Z M 59.668 -28.8574 L 59.668 -50.8301 L 59.4238 -50.8301 C 56.1035 -44.2871 51.6602 -34.5703 49.2188 -29.1016 L 49.2188 -28.8574 Z M 101.709 -28.8574 L 101.709 -50.8301 L 101.416 -50.8301 C 98.1445 -44.2871 93.7012 -34.5703 91.2109 -29.1016 L 91.2109 -28.8574 Z"/>
  </g>
  <g id="Bold-L" transform="matrix(1 0 0 1 2262.88 1556)">
   <path d="M 77.0996 30.6152 C 113.232 30.6152 142.92 0.878906 142.92 -35.2051 C 142.92 -71.3379 113.184 -101.025 77.0508 -101.025 C 40.9668 -101.025 11.2793 -71.3379 11.2793 -35.2051 C 11.2793 0.878906 41.0156 30.6152 77.0996 30.6152 Z M 63.1836 -8.30078 C 60.4004 -8.30078 58.7402 -10.3027 58.7402 -13.0371 L 58.7402 -19.4336 L 42.4316 -19.4336 C 38.4277 -19.4336 36.084 -21.6797 36.084 -25.6348 C 36.084 -27.832 36.6211 -29.7852 37.5488 -31.9336 C 40.918 -38.4277 46.6309 -48.877 50.9766 -56.4941 C 53.2227 -60.5469 55.8105 -62.3047 60.2539 -62.3047 C 65.0391 -62.3047 67.7734 -59.4238 67.7734 -54.7852 L 67.7734 -27.9785 L 70.5078 -27.9785 C 73.0957 -27.9785 74.6582 -26.3184 74.6582 -23.6816 C 74.6582 -21.0449 73.1445 -19.4824 70.5078 -19.4824 L 67.7734 -19.4824 L 67.7734 -13.0371 C 67.7734 -10.2539 66.0645 -8.30078 63.1836 -8.30078 Z M 106.445 -8.30078 C 103.662 -8.30078 102.002 -10.3027 102.002 -13.0371 L 102.002 -19.4336 L 85.6934 -19.4336 C 81.7383 -19.4336 79.3457 -21.6797 79.3457 -25.6348 C 79.3457 -27.832 79.8828 -29.7852 80.8105 -31.9336 C 84.1797 -38.4277 89.8926 -48.877 94.2383 -56.4941 C 96.4844 -60.5469 99.0723 -62.3047 103.516 -62.3047 C 108.301 -62.3047 111.035 -59.4238 111.035 -54.7852 L 111.035 -27.9785 L 113.77 -27.9785 C 116.357 -27.9785 117.92 -26.3184 117.92 -23.6816 C 117.92 -21.0449 116.406 -19.4824 113.77 -19.4824 L 111.035 -19.4824 L 111.035 -13.0371 C 111.035 -10.2539 109.326 -8.30078 106.445 -8.30078 Z M 58.7402 -27.9297 L 58.7402 -52.4902 L 58.4473 -52.4902 C 54.541 -45.3613 48.7305 -34.2285 45.752 -28.1738 L 45.752 -27.9297 Z M 102.002 -27.9297 L 102.002 -52.4902 L 101.709 -52.4902 C 97.8027 -45.3613 91.9922 -34.2285 89.0137 -28.1738 L 89.0137 -27.9297 Z"/>
  </g>
  <g id="Semibold-L" transform="matrix(1 0 0 1 1966.97 1556)">
   <path d="M 76.2695 29.7852 C 111.914 29.7852 141.309 0.439453 141.309 -35.2051 C 141.309 -70.8496 111.865 -100.244 76.2695 -100.244 C 40.625 -100.244 11.2793 -70.8496 11.2793 -35.2051 C 11.2793 0.439453 40.6738 29.7852 76.2695 29.7852 Z M 62.207 -7.91016 C 59.5703 -7.91016 58.1055 -9.7168 58.1055 -12.3047 L 58.1055 -19.5312 L 40.3809 -19.5312 C 36.7188 -19.5312 34.4727 -21.6309 34.4727 -25.293 C 34.4727 -27.2461 34.9609 -28.9551 35.8398 -30.957 C 39.6973 -37.9395 46.1914 -49.3164 50.9766 -57.4707 C 53.0762 -61.1816 55.4688 -62.7441 59.5215 -62.7441 C 63.8184 -62.7441 66.4062 -60.1074 66.4062 -56.0059 L 66.4062 -27.3438 L 69.7266 -27.3438 C 72.1191 -27.3438 73.584 -25.8301 73.584 -23.3887 C 73.584 -20.9961 72.168 -19.5312 69.7266 -19.5312 L 66.4062 -19.5312 L 66.4062 -12.3047 C 66.4062 -9.7168 64.8926 -7.91016 62.207 -7.91016 Z M 106.299 -7.91016 C 103.711 -7.91016 102.197 -9.7168 102.197 -12.3047 L 102.197 -19.5312 L 84.4727 -19.5312 C 80.8594 -19.5312 78.5645 -21.6309 78.5645 -25.293 C 78.5645 -27.2461 79.0527 -28.9551 79.9805 -30.957 C 83.7891 -37.9395 90.332 -49.3164 95.0684 -57.4707 C 97.2168 -61.1816 99.6094 -62.7441 103.662 -62.7441 C 107.91 -62.7441 110.498 -60.1074 110.498 -56.0059 L 110.498 -27.3438 L 113.867 -27.3438 C 116.26 -27.3438 117.676 -25.8301 117.676 -23.3887 C 117.676 -20.9961 116.26 -19.5312 113.867 -19.5312 L 110.498 -19.5312 L 110.498 -12.3047 C 110.498 -9.7168 108.984 -7.91016 106.299 -7.91016 Z M 58.1055 -27.2949 L 58.1055 -53.6621 L 57.8125 -53.6621 C 53.4668 -46.0938 46.6797 -33.9844 43.4082 -27.5391 L 43.4082 -27.2949 Z M 102.197 -27.2949 L 102.197 -53.6621 L 101.904 -53.6621 C 97.5586 -46.0938 90.8203 -33.9844 87.5 -27.5391 L 87.5 -27.2949 Z"/>
  </g>
  <g id="Medium-L" transform="matrix(1 0 0 1 1670.87 1556)">
   <path d="M 75.6836 29.1992 C 110.938 29.1992 140.088 0.0488281 140.088 -35.2051 C 140.088 -70.459 110.889 -99.6094 75.6348 -99.6094 C 40.3809 -99.6094 11.2793 -70.459 11.2793 -35.2051 C 11.2793 0.0488281 40.3809 29.1992 75.6836 29.1992 Z M 61.4258 -7.56836 C 58.9844 -7.56836 57.6172 -9.32617 57.6172 -11.7676 L 57.6172 -19.5801 L 38.8184 -19.5801 C 35.4492 -19.5801 33.252 -21.5332 33.252 -25 C 33.252 -26.8066 33.6914 -28.3203 34.5703 -30.2246 C 38.7695 -37.5977 45.8984 -49.707 50.9277 -58.1543 C 53.0273 -61.6699 55.2246 -63.0859 58.9844 -63.0859 C 62.8906 -63.0859 65.3809 -60.6934 65.3809 -56.8848 L 65.3809 -26.8555 L 69.1406 -26.8555 C 71.3867 -26.8555 72.7539 -25.4395 72.7539 -23.1934 C 72.7539 -20.9473 71.3867 -19.6289 69.1406 -19.6289 L 65.3809 -19.6289 L 65.3809 -11.7676 C 65.3809 -9.27734 63.9648 -7.56836 61.4258 -7.56836 Z M 106.201 -7.56836 C 103.76 -7.56836 102.344 -9.32617 102.344 -11.7676 L 102.344 -19.5801 L 83.5449 -19.5801 C 80.2246 -19.5801 77.9785 -21.5332 77.9785 -25 C 77.9785 -26.8066 78.4668 -28.3203 79.3457 -30.2246 C 83.4961 -37.5977 90.625 -49.707 95.7031 -58.1543 C 97.7539 -61.6699 100 -63.0859 103.76 -63.0859 C 107.617 -63.0859 110.059 -60.6934 110.059 -56.8848 L 110.059 -26.8555 L 113.916 -26.8555 C 116.113 -26.8555 117.529 -25.4395 117.529 -23.1934 C 117.529 -20.9473 116.162 -19.6289 113.916 -19.6289 L 110.059 -19.6289 L 110.059 -11.7676 C 110.059 -9.27734 108.74 -7.56836 106.201 -7.56836 Z M 57.6172 -26.8066 L 57.6172 -54.541 L 57.3242 -54.541 C 52.6367 -46.6309 45.166 -33.8379 41.6016 -27.0996 L 41.6016 -26.8066 Z M 102.344 -26.8066 L 102.344 -54.541 L 102.051 -54.541 C 97.4121 -46.6309 89.8926 -33.8379 86.377 -27.0996 L 86.377 -26.8066 Z"/>
  </g>
  <g id="Regular-L" transform="matrix(1 0 0 1 1374.97 1556)">
   <path d="M 74.8535 28.3691 C 109.668 28.3691 138.477 -0.390625 138.477 -35.2051 C 138.477 -70.0195 109.619 -98.7793 74.8047 -98.7793 C 40.0391 -98.7793 11.2793 -70.0195 11.2793 -35.2051 C 11.2793 -0.390625 40.0879 28.3691 74.8535 28.3691 Z M 60.4492 -7.17773 C 58.2031 -7.17773 56.9824 -8.78906 56.9824 -11.0352 L 56.9824 -19.6777 L 36.7676 -19.6777 C 33.7402 -19.6777 31.6406 -21.4844 31.6406 -24.6582 C 31.6406 -26.2207 32.0312 -27.4902 32.9102 -29.248 C 37.5488 -37.1094 45.459 -50.1465 50.9277 -59.1309 C 52.8809 -62.3047 54.8828 -63.5254 58.252 -63.5254 C 61.6699 -63.5254 64.0137 -61.377 64.0137 -58.1055 L 64.0137 -26.1719 L 68.4082 -26.1719 C 70.4102 -26.1719 71.6797 -24.9512 71.6797 -22.9004 C 71.6797 -20.8496 70.4102 -19.6777 68.4082 -19.6777 L 64.0137 -19.6777 L 64.0137 -11.0352 C 64.0137 -8.74023 62.793 -7.17773 60.4492 -7.17773 Z M 106.055 -7.17773 C 103.809 -7.17773 102.588 -8.78906 102.588 -11.0352 L 102.588 -19.6777 L 82.373 -19.6777 C 79.3457 -19.6777 77.2461 -21.4844 77.2461 -24.6582 C 77.2461 -26.2207 77.6367 -27.4902 78.5156 -29.248 C 83.1055 -37.1094 91.0645 -50.1465 96.5332 -59.1309 C 98.4863 -62.3047 100.488 -63.5254 103.857 -63.5254 C 107.227 -63.5254 109.57 -61.377 109.57 -58.1055 L 109.57 -26.1719 L 114.014 -26.1719 C 116.016 -26.1719 117.285 -24.9512 117.285 -22.9004 C 117.285 -20.8496 116.016 -19.6777 114.014 -19.6777 L 109.57 -19.6777 L 109.57 -11.0352 C 109.57 -8.74023 108.35 -7.17773 106.055 -7.17773 Z M 56.9824 -26.1719 L 56.9824 -55.7129 L 56.6895 -55.7129 C 51.6113 -47.3633 43.1152 -33.5938 39.2578 -26.4648 L 39.2578 -26.1719 Z M 102.588 -26.1719 L 102.588 -55.7129 L 102.246 -55.7129 C 97.2168 -47.3633 88.7207 -33.5938 84.8633 -26.4648 L 84.8633 -26.1719 Z"/>
  </g>
  <g id="Light-L" transform="matrix(1 0 0 1 1079.18 1556)">
   <path d="M 73.9258 27.4902 C 108.301 27.4902 136.621 -0.830078 136.621 -35.1562 C 136.621 -69.5312 108.252 -97.8516 73.9258 -97.8516 C 39.5508 -97.8516 11.2793 -69.5312 11.2793 -35.1562 C 11.2793 -0.830078 39.5996 27.4902 73.9258 27.4902 Z M 59.7656 -7.56836 C 57.959 -7.56836 56.9336 -8.83789 56.9336 -10.5957 L 56.9336 -20.459 L 35.498 -20.459 C 32.959 -20.459 31.2012 -21.875 31.2012 -24.5117 C 31.2012 -25.7324 31.543 -26.8555 32.1777 -28.1738 C 36.9629 -35.8887 46.6309 -51.123 52.0508 -59.668 C 53.7109 -62.2559 55.3223 -63.2324 58.0078 -63.2324 C 60.6934 -63.2324 62.5977 -61.5234 62.5977 -58.8379 L 62.5977 -25.7812 L 68.1152 -25.7812 C 69.7266 -25.7812 70.8008 -24.707 70.8008 -23.0957 C 70.8008 -21.4355 69.7754 -20.459 68.1152 -20.459 L 62.5977 -20.459 L 62.5977 -10.5957 C 62.5977 -8.78906 61.5723 -7.56836 59.7656 -7.56836 Z M 105.322 -7.56836 C 103.564 -7.56836 102.539 -8.83789 102.539 -10.5957 L 102.539 -20.459 L 81.1035 -20.459 C 78.5645 -20.459 76.8066 -21.875 76.8066 -24.5117 C 76.8066 -25.7324 77.1484 -26.8555 77.7832 -28.1738 C 82.5684 -35.8887 92.2363 -51.123 97.6562 -59.668 C 99.3164 -62.2559 100.928 -63.2324 103.564 -63.2324 C 106.299 -63.2324 108.154 -61.5234 108.154 -58.8379 L 108.154 -25.7812 L 113.721 -25.7812 C 115.332 -25.7812 116.357 -24.707 116.357 -23.0957 C 116.357 -21.4355 115.381 -20.459 113.721 -20.459 L 108.154 -20.459 L 108.154 -10.5957 C 108.154 -8.78906 107.178 -7.56836 105.322 -7.56836 Z M 56.9336 -25.7812 L 56.9336 -56.8359 L 56.6895 -56.8359 C 51.9531 -49.4141 41.1621 -32.666 37.4023 -25.9766 L 37.4023 -25.7812 Z M 102.539 -25.7812 L 102.539 -56.8359 L 102.295 -56.8359 C 97.5586 -49.4141 86.7676 -32.666 83.0078 -25.9766 L 83.0078 -25.7812 Z"/>
  </g>
  <g id="Thin-L" transform="matrix(1 0 0 1 783.693 1556)">
   <path d="M 72.7051 26.3184 C 106.494 26.3184 134.18 -1.36719 134.18 -35.1074 C 134.18 -68.8965 106.494 -96.582 72.7051 -96.582 C 38.9648 -96.582 11.2793 -68.8965 11.2793 -35.1074 C 11.2793 -1.36719 38.9648 26.3184 72.7051 26.3184 Z M 58.7891 -8.10547 C 57.666 -8.10547 56.8848 -8.88672 56.8848 -10.0586 L 56.8848 -21.4844 L 33.8379 -21.4844 C 31.8848 -21.4844 30.5664 -22.4121 30.5664 -24.3164 C 30.5664 -25.1465 30.8594 -26.0254 31.25 -26.709 C 36.2305 -34.3262 48.1934 -52.4414 53.5156 -60.4004 C 54.7363 -62.207 55.8594 -62.793 57.6172 -62.793 C 59.4727 -62.793 60.7422 -61.6699 60.7422 -59.8633 L 60.7422 -25.1953 L 67.7734 -25.1953 C 68.8477 -25.1953 69.5801 -24.3652 69.5801 -23.291 C 69.5801 -22.2168 68.9453 -21.4844 67.7734 -21.4844 L 60.7422 -21.4844 L 60.7422 -10.0586 C 60.7422 -8.88672 60.0098 -8.10547 58.7891 -8.10547 Z M 104.395 -8.10547 C 103.271 -8.10547 102.49 -8.88672 102.49 -10.0586 L 102.49 -21.4844 L 79.4434 -21.4844 C 77.4902 -21.4844 76.1719 -22.4121 76.1719 -24.3164 C 76.1719 -25.1465 76.416 -26.0254 76.8555 -26.709 C 81.8359 -34.3262 93.7988 -52.4414 99.1211 -60.4004 C 100.342 -62.207 101.465 -62.793 103.223 -62.793 C 105.078 -62.793 106.348 -61.6699 106.348 -59.8633 L 106.348 -25.1953 L 113.33 -25.1953 C 114.453 -25.1953 115.186 -24.3652 115.186 -23.291 C 115.186 -22.2168 114.502 -21.4844 113.33 -21.4844 L 106.348 -21.4844 L 106.348 -10.0586 C 106.348 -8.88672 105.615 -8.10547 104.395 -8.10547 Z M 56.8848 -25.1953 L 56.8848 -58.3496 L 56.6895 -58.3496 C 52.3926 -52.0996 38.5742 -31.4941 34.9121 -25.3906 L 34.9121 -25.1953 Z M 102.49 -25.1953 L 102.49 -58.3496 L 102.295 -58.3496 C 97.998 -52.0996 84.1797 -31.4941 80.5176 -25.3906 L 80.5176 -25.1953 Z"/>
  </g>
  <g id="Ultralight-L" transform="matrix(1 0 0 1 487.616 1556)">
   <path d="M 72.1191 25.7324 C 105.566 25.7324 132.91 -1.61133 132.91 -35.1074 C 132.91 -68.5547 105.566 -95.8984 72.1191 -95.8984 C 38.623 -95.8984 11.2793 -68.5547 11.2793 -35.1074 C 11.2793 -1.61133 38.623 25.7324 72.1191 25.7324 Z M 58.3496 -8.39844 C 57.5195 -8.39844 56.8848 -8.88672 56.8848 -9.81445 L 56.8848 -22.0215 L 33.0078 -22.0215 C 31.3477 -22.0215 30.2734 -22.7051 30.2734 -24.2188 C 30.2734 -24.8047 30.4688 -25.5859 30.7617 -25.9766 C 35.8887 -33.4961 48.9746 -53.125 54.248 -60.791 C 55.2734 -62.207 56.1035 -62.5977 57.4219 -62.5977 C 58.8379 -62.5977 59.8145 -61.7676 59.8145 -60.3516 L 59.8145 -24.9023 L 67.5781 -24.9023 C 68.4082 -24.9023 68.9453 -24.1699 68.9453 -23.4375 C 68.9453 -22.6074 68.5059 -22.0215 67.5781 -22.0215 L 59.8145 -22.0215 L 59.8145 -9.81445 C 59.8145 -8.88672 59.2285 -8.39844 58.3496 -8.39844 Z M 103.955 -8.39844 C 103.125 -8.39844 102.441 -8.88672 102.441 -9.81445 L 102.441 -22.0215 L 78.5645 -22.0215 C 76.9531 -22.0215 75.8789 -22.7051 75.8789 -24.2188 C 75.8789 -24.8047 76.0742 -25.5859 76.3672 -25.9766 C 81.4453 -33.4961 94.5801 -53.125 99.8535 -60.791 C 100.879 -62.207 101.709 -62.5977 103.027 -62.5977 C 104.443 -62.5977 105.42 -61.7676 105.42 -60.3516 L 105.42 -24.9023 L 113.184 -24.9023 C 114.014 -24.9023 114.551 -24.1699 114.551 -23.4375 C 114.551 -22.6074 114.062 -22.0215 113.184 -22.0215 L 105.42 -22.0215 L 105.42 -9.81445 C 105.42 -8.88672 104.834 -8.39844 103.955 -8.39844 Z M 56.8848 -24.9023 L 56.8848 -59.1309 L 56.7383 -59.1309 C 52.6367 -53.4668 37.2559 -30.8594 33.6914 -25.0488 L 33.6914 -24.9023 Z M 102.441 -24.9023 L 102.441 -59.1309 L 102.344 -59.1309 C 98.2422 -53.4668 82.8613 -30.8594 79.248 -25.0488 L 79.248 -24.9023 Z"/>
  </g>
  <g id="Black-M" transform="matrix(1 0 0 1 2870.97 1126)">
   <path d="M 62.4023 18.457 C 91.9922 18.457 116.113 -5.61523 116.113 -35.2051 C 116.113 -64.7949 91.9922 -88.8672 62.4023 -88.8672 C 32.8125 -88.8672 8.74023 -64.7949 8.74023 -35.2051 C 8.74023 -5.61523 32.8125 18.457 62.4023 18.457 Z M 52.4902 -16.2109 C 49.8047 -16.2109 47.9492 -18.0176 47.9492 -20.6543 L 47.9492 -22.998 L 40.1855 -22.998 C 35.9863 -22.998 33.9355 -25.2441 33.9355 -29.1504 C 33.9355 -31.5918 34.5703 -33.8379 35.2539 -35.8398 C 36.1816 -38.9648 38.3301 -44.5801 40.1367 -48.291 C 42.0898 -52.3926 44.7754 -54.2969 49.4141 -54.2969 C 54.6875 -54.2969 57.1289 -51.2207 57.1289 -46.1426 L 57.1289 -31.8848 L 57.5195 -31.8848 C 60.1562 -31.8848 61.5723 -30.0781 61.5723 -27.3926 C 61.5723 -24.7559 60.1562 -23.1445 57.5195 -23.1445 L 57.1289 -23.1445 L 57.1289 -20.6543 C 57.1289 -18.0176 55.2246 -16.2109 52.4902 -16.2109 Z M 82.7148 -16.2109 C 80.0293 -16.2109 78.2227 -18.0176 78.2227 -20.6543 L 78.2227 -22.998 L 70.459 -22.998 C 66.3086 -22.998 64.1602 -25.2441 64.1602 -29.1504 C 64.1602 -31.5918 64.7949 -33.8379 65.4785 -35.8398 C 66.4062 -38.9648 68.5547 -44.5801 70.3613 -48.291 C 72.3145 -52.3926 75 -54.2969 79.6387 -54.2969 C 84.9121 -54.2969 87.3535 -51.2207 87.3535 -46.1426 L 87.3535 -31.8848 L 87.7441 -31.8848 C 90.3809 -31.8848 91.7969 -30.0781 91.7969 -27.3926 C 91.7969 -24.7559 90.3809 -23.1445 87.7441 -23.1445 L 87.3535 -23.1445 L 87.3535 -20.6543 C 87.3535 -18.0176 85.4492 -16.2109 82.7148 -16.2109 Z M 47.9492 -31.7871 L 47.9492 -44.7266 L 47.8516 -44.7266 C 46.6309 -41.3086 44.5801 -34.8633 43.6523 -31.9824 L 43.6523 -31.7871 Z M 78.2227 -31.7871 L 78.2227 -44.7266 L 78.0762 -44.7266 C 76.8555 -41.3086 74.8047 -34.8633 73.877 -31.9824 L 73.877 -31.7871 Z"/>
  </g>
  <g id="Heavy-M" transform="matrix(1 0 0 1 2575.19 1126)">
   <path d="M 61.5234 17.5781 C 90.5273 17.5781 114.258 -6.15234 114.258 -35.2051 C 114.258 -64.2578 90.5273 -87.9883 61.4746 -87.9883 C 32.4707 -87.9883 8.74023 -64.2578 8.74023 -35.2051 C 8.74023 -6.15234 32.4707 17.5781 61.5234 17.5781 Z M 51.2207 -15.5273 C 48.7305 -15.5273 47.0703 -17.2363 47.0703 -19.7266 L 47.0703 -22.9492 L 37.5977 -22.9492 C 33.7891 -22.9492 31.7871 -25.0488 31.7871 -28.6621 C 31.7871 -30.8594 32.3242 -32.8613 33.0566 -34.7656 C 34.5703 -38.5742 37.4512 -44.9707 39.8438 -49.5117 C 41.6992 -53.2715 44.1895 -55.0293 48.4375 -55.0293 C 53.1738 -55.0293 55.5176 -52.2461 55.5176 -47.6562 L 55.5176 -31.1035 L 56.4941 -31.1035 C 58.9355 -31.1035 60.3027 -29.4434 60.3027 -26.9531 C 60.3027 -24.5117 58.9355 -23.0469 56.4941 -23.0469 L 55.5176 -23.0469 L 55.5176 -19.7266 C 55.5176 -17.2363 53.8574 -15.5273 51.2207 -15.5273 Z M 82.666 -15.5273 C 80.127 -15.5273 78.5156 -17.2363 78.5156 -19.7266 L 78.5156 -22.9492 L 69.043 -22.9492 C 65.2832 -22.9492 63.2324 -25.0488 63.2324 -28.6621 C 63.2324 -30.8594 63.7695 -32.8613 64.502 -34.7656 C 66.0156 -38.5742 68.8965 -44.9707 71.2891 -49.5117 C 73.1445 -53.2715 75.6348 -55.0293 79.8828 -55.0293 C 84.6191 -55.0293 86.9629 -52.2461 86.9629 -47.6562 L 86.9629 -31.1035 L 87.9395 -31.1035 C 90.332 -31.1035 91.6992 -29.4434 91.6992 -26.9531 C 91.6992 -24.5117 90.332 -23.0469 87.9395 -23.0469 L 86.9629 -23.0469 L 86.9629 -19.7266 C 86.9629 -17.2363 85.2539 -15.5273 82.666 -15.5273 Z M 47.0703 -31.0059 L 47.0703 -46.0938 L 46.9238 -46.0938 C 45.0195 -41.7969 42.2363 -34.7656 40.7715 -31.2012 L 40.7715 -31.0059 Z M 78.5156 -31.0059 L 78.5156 -46.0938 L 78.3691 -46.0938 C 76.416 -41.7969 73.6816 -34.7656 72.2168 -31.2012 L 72.2168 -31.0059 Z"/>
  </g>
  <g id="Bold-M" transform="matrix(1 0 0 1 2279.5 1126)">
   <path d="M 60.498 16.5039 C 88.8672 16.5039 112.207 -6.78711 112.207 -35.2051 C 112.207 -63.623 88.8672 -86.9629 60.4492 -86.9629 C 32.0312 -86.9629 8.74023 -63.623 8.74023 -35.2051 C 8.74023 -6.78711 32.0801 16.5039 60.498 16.5039 Z M 49.8535 -14.7461 C 47.5098 -14.7461 46.0938 -16.3574 46.0938 -18.6523 L 46.0938 -22.8516 L 34.7168 -22.8516 C 31.2988 -22.8516 29.3457 -24.8047 29.3457 -28.125 C 29.3457 -30.0293 29.834 -31.7383 30.5664 -33.5449 C 32.8125 -38.1836 36.4746 -45.4102 39.502 -50.8789 C 41.3086 -54.2969 43.5547 -55.8105 47.3633 -55.8105 C 51.5137 -55.8105 53.7598 -53.3203 53.7598 -49.3164 L 53.7598 -30.1758 L 55.3223 -30.1758 C 57.5195 -30.1758 58.8379 -28.7598 58.8379 -26.5137 C 58.8379 -24.2676 57.5684 -22.9492 55.3223 -22.9492 L 53.7598 -22.9492 L 53.7598 -18.6523 C 53.7598 -16.3574 52.2949 -14.7461 49.8535 -14.7461 Z M 82.666 -14.7461 C 80.2734 -14.7461 78.8574 -16.3574 78.8574 -18.6523 L 78.8574 -22.8516 L 67.4805 -22.8516 C 64.1113 -22.8516 62.1582 -24.8047 62.1582 -28.125 C 62.1582 -30.0293 62.6465 -31.7383 63.3789 -33.5449 C 65.5762 -38.1836 69.2383 -45.4102 72.2656 -50.8789 C 74.0723 -54.2969 76.3184 -55.8105 80.127 -55.8105 C 84.2773 -55.8105 86.5234 -53.3203 86.5234 -49.3164 L 86.5234 -30.1758 L 88.1348 -30.1758 C 90.332 -30.1758 91.6016 -28.7598 91.6016 -26.5137 C 91.6016 -24.2676 90.332 -22.9492 88.1348 -22.9492 L 86.5234 -22.9492 L 86.5234 -18.6523 C 86.5234 -16.3574 85.0586 -14.7461 82.666 -14.7461 Z M 46.0938 -30.127 L 46.0938 -47.6074 L 45.8984 -47.6074 C 43.2129 -42.3828 39.5508 -34.668 37.5488 -30.3223 L 37.5488 -30.127 Z M 78.8574 -30.127 L 78.8574 -47.6074 L 78.6621 -47.6074 C 75.9766 -42.3828 72.3633 -34.668 70.3613 -30.3223 L 70.3613 -30.127 Z"/>
  </g>
  <g id="Semibold-M" transform="matrix(1 0 0 1 1983.5 1126)">
   <path d="M 59.7656 15.8203 C 87.7441 15.8203 110.791 -7.22656 110.791 -35.2051 C 110.791 -63.1836 87.6953 -86.2793 59.7656 -86.2793 C 31.7871 -86.2793 8.74023 -63.1836 8.74023 -35.2051 C 8.74023 -7.22656 31.7871 15.8203 59.7656 15.8203 Z M 48.9258 -14.209 C 46.6797 -14.209 45.3613 -15.7715 45.3613 -17.9688 L 45.3613 -22.8027 L 32.7148 -22.8027 C 29.5898 -22.8027 27.6855 -24.6094 27.6855 -27.7344 C 27.6855 -29.4922 28.125 -30.957 28.9062 -32.7148 C 31.543 -37.8906 35.791 -45.7031 39.2578 -51.8066 C 41.0156 -55.0293 43.1152 -56.3965 46.6309 -56.3965 C 50.3418 -56.3965 52.5391 -54.1016 52.5391 -50.4883 L 52.5391 -29.541 L 54.541 -29.541 C 56.5918 -29.541 57.8125 -28.2715 57.8125 -26.1719 C 57.8125 -24.0723 56.5918 -22.8516 54.541 -22.8516 L 52.5391 -22.8516 L 52.5391 -17.9688 C 52.5391 -15.7227 51.2207 -14.209 48.9258 -14.209 Z M 82.6172 -14.209 C 80.3711 -14.209 79.1016 -15.7715 79.1016 -17.9688 L 79.1016 -22.8027 L 66.4062 -22.8027 C 63.3301 -22.8027 61.4258 -24.6094 61.4258 -27.7344 C 61.4258 -29.4922 61.8652 -30.957 62.5977 -32.7148 C 65.2832 -37.8906 69.4824 -45.7031 72.9492 -51.8066 C 74.7559 -55.0293 76.8066 -56.3965 80.3223 -56.3965 C 84.0332 -56.3965 86.2305 -54.1016 86.2305 -50.4883 L 86.2305 -29.541 L 88.2812 -29.541 C 90.2832 -29.541 91.5527 -28.2715 91.5527 -26.1719 C 91.5527 -24.0723 90.332 -22.8516 88.2812 -22.8516 L 86.2305 -22.8516 L 86.2305 -17.9688 C 86.2305 -15.7227 84.9121 -14.209 82.6172 -14.209 Z M 45.3613 -29.541 L 45.3613 -48.6328 L 45.166 -48.6328 C 41.9434 -42.7734 37.7441 -34.6191 35.3516 -29.7363 L 35.3516 -29.541 Z M 79.1016 -29.541 L 79.1016 -48.6328 L 78.8574 -48.6328 C 75.6836 -42.7734 71.4355 -34.6191 69.0918 -29.7363 L 69.0918 -29.541 Z"/>
  </g>
  <g id="Medium-M" transform="matrix(1 0 0 1 1687.3 1126)">
   <path d="M 59.2285 15.2832 C 86.9141 15.2832 109.766 -7.56836 109.766 -35.2051 C 109.766 -62.8906 86.8652 -85.7422 59.1797 -85.7422 C 31.543 -85.7422 8.74023 -62.8906 8.74023 -35.2051 C 8.74023 -7.56836 31.5918 15.2832 59.2285 15.2832 Z M 48.1934 -13.7695 C 46.0449 -13.7695 44.873 -15.332 44.873 -17.4316 L 44.873 -22.8027 L 31.2012 -22.8027 C 28.3203 -22.8027 26.416 -24.5117 26.416 -27.4902 C 26.416 -29.0527 26.8066 -30.3711 27.5879 -32.0312 C 30.6152 -37.6465 35.2539 -45.8984 39.0625 -52.4902 C 40.8203 -55.5176 42.7734 -56.7871 46.0449 -56.7871 C 49.4629 -56.7871 51.6113 -54.6875 51.6113 -51.3672 L 51.6113 -29.1016 L 53.9551 -29.1016 C 55.8594 -29.1016 57.0801 -27.8809 57.0801 -25.9277 C 57.0801 -23.9746 55.8594 -22.8027 53.9551 -22.8027 L 51.6113 -22.8027 L 51.6113 -17.4316 C 51.6113 -15.2832 50.3906 -13.7695 48.1934 -13.7695 Z M 82.6172 -13.7695 C 80.4688 -13.7695 79.2969 -15.332 79.2969 -17.4316 L 79.2969 -22.8027 L 65.5762 -22.8027 C 62.7441 -22.8027 60.8398 -24.5117 60.8398 -27.4902 C 60.8398 -29.0527 61.2305 -30.3711 62.0117 -32.0312 C 65.0391 -37.6465 69.6777 -45.8984 73.4863 -52.4902 C 75.2441 -55.5176 77.1973 -56.7871 80.4688 -56.7871 C 83.8867 -56.7871 85.9863 -54.6875 85.9863 -51.3672 L 85.9863 -29.1016 L 88.3789 -29.1016 C 90.2832 -29.1016 91.4551 -27.8809 91.4551 -25.9277 C 91.4551 -23.9746 90.2832 -22.8027 88.3789 -22.8027 L 85.9863 -22.8027 L 85.9863 -17.4316 C 85.9863 -15.2832 84.8145 -13.7695 82.6172 -13.7695 Z M 44.873 -29.0527 L 44.873 -49.4141 L 44.6289 -49.4141 C 41.0156 -43.0664 36.3281 -34.5703 33.6914 -29.2969 L 33.6914 -29.0527 Z M 79.2969 -29.0527 L 79.2969 -49.4141 L 79.0527 -49.4141 C 75.4395 -43.0664 70.752 -34.5703 68.1152 -29.2969 L 68.1152 -29.0527 Z"/>
  </g>
  <g id="Regular-M" transform="matrix(1 0 0 1 1391.3 1126)">
   <path d="M 58.5449 14.5508 C 85.791 14.5508 108.35 -8.00781 108.35 -35.2539 C 108.35 -62.4512 85.7422 -85.0586 58.4961 -85.0586 C 31.2988 -85.0586 8.74023 -62.4512 8.74023 -35.2539 C 8.74023 -8.00781 31.3477 14.5508 58.5449 14.5508 Z M 47.2656 -13.2324 C 45.2148 -13.2324 44.1895 -14.6973 44.1895 -16.6992 L 44.1895 -22.7539 L 29.1992 -22.7539 C 26.6113 -22.7539 24.8047 -24.3164 24.8047 -27.0996 C 24.8047 -28.5156 25.1465 -29.6387 25.9277 -31.2012 C 29.3945 -37.3535 34.5703 -46.1914 38.8672 -53.418 C 40.5273 -56.25 42.334 -57.3242 45.3125 -57.3242 C 48.291 -57.3242 50.3906 -55.4199 50.3906 -52.5391 L 50.3906 -28.4668 L 53.1738 -28.4668 C 54.9316 -28.4668 56.0547 -27.3926 56.0547 -25.5859 C 56.0547 -23.7793 54.9316 -22.7539 53.1738 -22.7539 L 50.3906 -22.7539 L 50.3906 -16.6992 C 50.3906 -14.6484 49.3164 -13.2324 47.2656 -13.2324 Z M 82.5684 -13.2324 C 80.5664 -13.2324 79.4922 -14.6973 79.4922 -16.6992 L 79.4922 -22.7539 L 64.5508 -22.7539 C 61.9629 -22.7539 60.1074 -24.3164 60.1074 -27.0996 C 60.1074 -28.5156 60.4492 -29.6387 61.2305 -31.2012 C 64.7461 -37.3535 69.9219 -46.1914 74.1699 -53.418 C 75.8789 -56.25 77.6367 -57.3242 80.6641 -57.3242 C 83.6426 -57.3242 85.6934 -55.4199 85.6934 -52.5391 L 85.6934 -28.4668 L 88.4766 -28.4668 C 90.2832 -28.4668 91.4062 -27.3926 91.4062 -25.5859 C 91.4062 -23.7793 90.2832 -22.7539 88.4766 -22.7539 L 85.6934 -22.7539 L 85.6934 -16.6992 C 85.6934 -14.6484 84.668 -13.2324 82.5684 -13.2324 Z M 44.1895 -28.4668 L 44.1895 -50.4395 L 43.8965 -50.4395 C 39.7949 -43.457 34.5215 -34.4727 31.4941 -28.7109 L 31.4941 -28.4668 Z M 79.4922 -28.4668 L 79.4922 -50.4395 L 79.248 -50.4395 C 75.1465 -43.457 69.873 -34.4727 66.8457 -28.7109 L 66.8457 -28.4668 Z"/>
  </g>
  <g id="Light-M" transform="matrix(1 0 0 1 1095.42 1126)">
   <path d="M 57.7148 13.7695 C 84.5215 13.7695 106.689 -8.39844 106.689 -35.2051 C 106.689 -62.0117 84.5215 -84.1797 57.666 -84.1797 C 30.8594 -84.1797 8.74023 -62.0117 8.74023 -35.2051 C 8.74023 -8.39844 30.9082 13.7695 57.7148 13.7695 Z M 46.6309 -13.623 C 45.0195 -13.623 44.1406 -14.7461 44.1406 -16.3574 L 44.1406 -23.4375 L 28.0762 -23.4375 C 25.8789 -23.4375 24.3652 -24.707 24.3652 -27.002 C 24.3652 -28.0762 24.6582 -29.0527 25.2441 -30.2246 C 28.9062 -36.2793 35.6445 -47.1191 39.8438 -53.9062 C 41.2598 -56.2012 42.6758 -57.0801 45.0684 -57.0801 C 47.4609 -57.0801 49.1211 -55.5176 49.1211 -53.1738 L 49.1211 -28.0762 L 52.9297 -28.0762 C 54.3457 -28.0762 55.2734 -27.1973 55.2734 -25.7324 C 55.2734 -24.2676 54.3457 -23.4375 52.9297 -23.4375 L 49.1211 -23.4375 L 49.1211 -16.3574 C 49.1211 -14.6973 48.2422 -13.623 46.6309 -13.623 Z M 81.9336 -13.623 C 80.3711 -13.623 79.4922 -14.7461 79.4922 -16.3574 L 79.4922 -23.4375 L 63.4277 -23.4375 C 61.2305 -23.4375 59.7168 -24.707 59.7168 -27.002 C 59.7168 -28.0762 60.0098 -29.0527 60.5957 -30.2246 C 64.2578 -36.2793 70.9473 -47.1191 75.1953 -53.9062 C 76.6113 -56.2012 78.0273 -57.0801 80.4199 -57.0801 C 82.8125 -57.0801 84.4727 -55.5176 84.4727 -53.1738 L 84.4727 -28.0762 L 88.2324 -28.0762 C 89.6973 -28.0762 90.5762 -27.1973 90.5762 -25.7324 C 90.5762 -24.2676 89.6973 -23.4375 88.2324 -23.4375 L 84.4727 -23.4375 L 84.4727 -16.3574 C 84.4727 -14.6973 83.5938 -13.623 81.9336 -13.623 Z M 44.1406 -28.0762 L 44.1406 -51.4648 L 43.9453 -51.4648 C 40.0879 -45.3125 32.7637 -33.6426 29.834 -28.2715 L 29.834 -28.0762 Z M 79.4922 -28.0762 L 79.4922 -51.4648 L 79.248 -51.4648 C 75.4395 -45.3125 68.1152 -33.6426 65.1367 -28.2715 L 65.1367 -28.0762 Z"/>
  </g>
  <g id="Thin-M" transform="matrix(1 0 0 1 799.806 1126)">
   <path d="M 56.6406 12.7441 C 82.9102 12.7441 104.492 -8.83789 104.492 -35.1562 C 104.492 -61.4746 82.9102 -83.0566 56.5918 -83.0566 C 30.3223 -83.0566 8.74023 -61.4746 8.74023 -35.1562 C 8.74023 -8.83789 30.3223 12.7441 56.6406 12.7441 Z M 45.8008 -14.1113 C 44.7754 -14.1113 44.0918 -14.7949 44.0918 -15.8691 L 44.0918 -24.3652 L 26.5625 -24.3652 C 24.9512 -24.3652 23.8281 -25.1953 23.8281 -26.8066 C 23.8281 -27.5391 24.0723 -28.2715 24.4141 -28.9551 C 28.2227 -34.8633 37.0117 -48.291 41.1621 -54.5898 C 42.1875 -56.1523 43.1641 -56.6895 44.7266 -56.6895 C 46.3379 -56.6895 47.4609 -55.7129 47.4609 -54.1016 L 47.4609 -27.5879 L 52.5879 -27.5879 C 53.5645 -27.5879 54.1992 -26.8555 54.1992 -25.9277 C 54.1992 -24.9512 53.6133 -24.3652 52.5879 -24.3652 L 47.4609 -24.3652 L 47.4609 -15.8691 C 47.4609 -14.7949 46.875 -14.1113 45.8008 -14.1113 Z M 81.1035 -14.1113 C 80.0781 -14.1113 79.4434 -14.7949 79.4434 -15.8691 L 79.4434 -24.3652 L 61.9141 -24.3652 C 60.3027 -24.3652 59.1797 -25.1953 59.1797 -26.8066 C 59.1797 -27.5391 59.375 -28.2715 59.7656 -28.9551 C 63.5742 -34.8633 72.3633 -48.291 76.5137 -54.5898 C 77.5391 -56.1523 78.5156 -56.6895 80.0781 -56.6895 C 81.6895 -56.6895 82.8125 -55.7129 82.8125 -54.1016 L 82.8125 -27.5879 L 87.9395 -27.5879 C 88.8672 -27.5879 89.502 -26.8555 89.502 -25.9277 C 89.502 -24.9512 88.916 -24.3652 87.9395 -24.3652 L 82.8125 -24.3652 L 82.8125 -15.8691 C 82.8125 -14.7949 82.1777 -14.1113 81.1035 -14.1113 Z M 44.0918 -27.5879 L 44.0918 -52.832 L 43.9453 -52.832 C 40.5273 -47.7051 30.4688 -32.5684 27.5879 -27.7344 L 27.5879 -27.5879 Z M 79.4434 -27.5879 L 79.4434 -52.832 L 79.2969 -52.832 C 75.8301 -47.7051 65.8203 -32.5684 62.9395 -27.7344 L 62.9395 -27.5879 Z"/>
  </g>
  <g id="Ultralight-M" transform="matrix(1 0 0 1 503.656 1126)">
   <path d="M 56.0547 12.207 C 82.0801 12.207 103.369 -9.08203 103.369 -35.1562 C 103.369 -61.1816 82.0801 -82.4707 56.0547 -82.4707 C 30.0293 -82.4707 8.74023 -61.1816 8.74023 -35.1562 C 8.74023 -9.08203 30.0293 12.207 56.0547 12.207 Z M 45.3613 -14.3555 C 44.6289 -14.3555 44.0918 -14.8438 44.0918 -15.625 L 44.0918 -24.8047 L 25.8301 -24.8047 C 24.4629 -24.8047 23.5352 -25.4395 23.5352 -26.709 C 23.5352 -27.2461 23.7305 -27.8809 23.9746 -28.2715 C 27.9297 -34.1309 37.6953 -48.877 41.8457 -54.9316 C 42.6758 -56.1523 43.4082 -56.4941 44.5801 -56.4941 C 45.8008 -56.4941 46.6309 -55.7617 46.6309 -54.541 L 46.6309 -27.3438 L 52.3926 -27.3438 C 53.125 -27.3438 53.6133 -26.709 53.6133 -26.0254 C 53.6133 -25.293 53.2227 -24.8047 52.3926 -24.8047 L 46.6309 -24.8047 L 46.6309 -15.625 C 46.6309 -14.8438 46.1426 -14.3555 45.3613 -14.3555 Z M 80.7129 -14.3555 C 79.9805 -14.3555 79.3945 -14.8438 79.3945 -15.625 L 79.3945 -24.8047 L 61.1328 -24.8047 C 59.8145 -24.8047 58.8867 -25.4395 58.8867 -26.709 C 58.8867 -27.2461 59.082 -27.8809 59.3262 -28.2715 C 63.2324 -34.1309 73.0469 -48.877 77.1484 -54.9316 C 78.0273 -56.1523 78.7598 -56.4941 79.8828 -56.4941 C 81.1035 -56.4941 81.9824 -55.7617 81.9824 -54.541 L 81.9824 -27.3438 L 87.7441 -27.3438 C 88.4766 -27.3438 88.9648 -26.709 88.9648 -26.0254 C 88.9648 -25.293 88.5254 -24.8047 87.7441 -24.8047 L 81.9824 -24.8047 L 81.9824 -15.625 C 81.9824 -14.8438 81.4941 -14.3555 80.7129 -14.3555 Z M 44.0918 -27.3438 L 44.0918 -53.5156 L 43.9453 -53.5156 C 40.7227 -48.9258 29.2969 -32.0312 26.4648 -27.4414 L 26.4648 -27.3438 Z M 79.3945 -27.3438 L 79.3945 -53.5156 L 79.2969 -53.5156 C 76.0742 -48.9258 64.5996 -32.0312 61.8164 -27.4414 L 61.8164 -27.3438 Z"/>
  </g>
  <g id="Black-S" transform="matrix(1 0 0 1 2884.57 696)">
   <path d="M 48.8281 6.78711 C 71.9727 6.78711 90.8203 -12.0605 90.8203 -35.2051 C 90.8203 -58.3496 71.9727 -77.1973 48.8281 -77.1973 C 25.6836 -77.1973 6.83594 -58.3496 6.83594 -35.2051 C 6.83594 -12.0605 25.6836 6.78711 48.8281 6.78711 Z M 41.0156 -20.2637 C 38.916 -20.2637 37.5 -21.6797 37.5 -23.7305 L 37.5 -25.6348 L 31.2988 -25.6348 C 28.0273 -25.6348 26.416 -27.3926 26.416 -30.4199 C 26.416 -32.3242 26.9043 -34.082 27.4414 -35.6445 C 28.2227 -38.1348 29.9316 -42.5781 31.3965 -45.5566 C 32.9102 -48.7305 35.0098 -50.2441 38.623 -50.2441 C 42.7246 -50.2441 44.6289 -47.8516 44.6289 -43.8965 L 44.6289 -32.5684 L 44.9707 -32.5684 C 47.0215 -32.5684 48.1445 -31.1523 48.1445 -29.0527 C 48.1445 -27.002 47.0215 -25.7324 44.9707 -25.7324 L 44.6289 -25.7324 L 44.6289 -23.7305 C 44.6289 -21.6797 43.1641 -20.2637 41.0156 -20.2637 Z M 64.7949 -20.2637 C 62.6953 -20.2637 61.2793 -21.6797 61.2793 -23.7305 L 61.2793 -25.6348 L 55.0781 -25.6348 C 51.8555 -25.6348 50.1953 -27.3926 50.1953 -30.4199 C 50.1953 -32.3242 50.6836 -34.082 51.2207 -35.6445 C 52.002 -38.1348 53.7109 -42.5781 55.1758 -45.5566 C 56.6895 -48.7305 58.7891 -50.2441 62.4023 -50.2441 C 66.5039 -50.2441 68.4082 -47.8516 68.4082 -43.8965 L 68.4082 -32.5684 L 68.75 -32.5684 C 70.8008 -32.5684 71.9238 -31.1523 71.9238 -29.0527 C 71.9238 -27.002 70.8008 -25.7324 68.75 -25.7324 L 68.4082 -25.7324 L 68.4082 -23.7305 C 68.4082 -21.6797 66.9434 -20.2637 64.7949 -20.2637 Z M 37.5 -32.4707 L 37.5 -42.7734 L 37.4023 -42.7734 C 36.377 -39.9902 34.7656 -34.9609 33.9844 -32.6172 L 33.9844 -32.4707 Z M 61.2793 -32.4707 L 61.2793 -42.7734 L 61.1816 -42.7734 C 60.1562 -39.9902 58.5449 -34.9609 57.7637 -32.6172 L 57.7637 -32.4707 Z"/>
  </g>
  <g id="Heavy-S" transform="matrix(1 0 0 1 2588.47 696)">
   <path d="M 48.2422 6.15234 C 70.9961 6.15234 89.5996 -12.4512 89.5996 -35.2051 C 89.5996 -57.959 70.9961 -76.6113 48.1934 -76.6113 C 25.4395 -76.6113 6.83594 -57.959 6.83594 -35.2051 C 6.83594 -12.4512 25.4395 6.15234 48.2422 6.15234 Z M 40.1367 -19.6777 C 38.1348 -19.6777 36.8164 -21.0938 36.8164 -23.0469 L 36.8164 -25.4883 L 29.4434 -25.4883 C 26.416 -25.4883 24.8047 -27.1973 24.8047 -30.0781 C 24.8047 -31.8359 25.2441 -33.3984 25.8301 -34.9121 C 27.0508 -37.9883 29.1504 -42.7734 31.0547 -46.4355 C 32.5684 -49.4141 34.5215 -50.8301 37.8906 -50.8301 C 41.6504 -50.8301 43.5547 -48.584 43.5547 -44.9707 L 43.5547 -31.9824 L 44.1895 -31.9824 C 46.1426 -31.9824 47.2168 -30.7129 47.2168 -28.7109 C 47.2168 -26.7578 46.1426 -25.5859 44.1895 -25.5859 L 43.5547 -25.5859 L 43.5547 -23.0469 C 43.5547 -21.0938 42.2363 -19.6777 40.1367 -19.6777 Z M 64.8438 -19.6777 C 62.793 -19.6777 61.5234 -21.0938 61.5234 -23.0469 L 61.5234 -25.4883 L 54.1504 -25.4883 C 51.1719 -25.4883 49.5117 -27.1973 49.5117 -30.0781 C 49.5117 -31.8359 49.9512 -33.3984 50.5371 -34.9121 C 51.7578 -37.9883 53.8574 -42.7734 55.7617 -46.4355 C 57.2754 -49.4141 59.2285 -50.8301 62.5977 -50.8301 C 66.3574 -50.8301 68.2617 -48.584 68.2617 -44.9707 L 68.2617 -31.9824 L 68.8965 -31.9824 C 70.8496 -31.9824 71.9238 -30.7129 71.9238 -28.7109 C 71.9238 -26.7578 70.8496 -25.5859 68.8965 -25.5859 L 68.2617 -25.5859 L 68.2617 -23.0469 C 68.2617 -21.0938 66.8945 -19.6777 64.8438 -19.6777 Z M 36.8164 -31.9336 L 36.8164 -43.7012 L 36.6699 -43.7012 C 35.1074 -40.1855 33.1543 -34.9609 31.9824 -32.0801 L 31.9824 -31.9336 Z M 61.5234 -31.9336 L 61.5234 -43.7012 L 61.377 -43.7012 C 59.8145 -40.1855 57.8613 -34.9609 56.6895 -32.0801 L 56.6895 -31.9336 Z"/>
  </g>
  <g id="Bold-S" transform="matrix(1 0 0 1 2292.44 696)">
   <path d="M 47.5586 5.46875 C 69.873 5.46875 88.2324 -12.8906 88.2324 -35.2051 C 88.2324 -57.5684 69.873 -75.9277 47.5098 -75.9277 C 25.1953 -75.9277 6.83594 -57.5684 6.83594 -35.2051 C 6.83594 -12.8906 25.1953 5.46875 47.5586 5.46875 Z M 39.1602 -19.043 C 37.207 -19.043 36.0352 -20.4102 36.0352 -22.3145 L 36.0352 -25.3906 L 27.3438 -25.3906 C 24.6094 -25.3906 22.998 -26.9531 22.998 -29.6875 C 22.998 -31.25 23.3887 -32.6172 24.0234 -34.082 C 25.7324 -37.793 28.2715 -42.9688 30.6641 -47.4121 C 32.1777 -50.1953 33.9844 -51.4648 37.1094 -51.4648 C 40.4785 -51.4648 42.3828 -49.4141 42.3828 -46.1914 L 42.3828 -31.3477 L 43.3594 -31.3477 C 45.166 -31.3477 46.2402 -30.1758 46.2402 -28.3203 C 46.2402 -26.5137 45.166 -25.4395 43.3594 -25.4395 L 42.3828 -25.4395 L 42.3828 -22.3145 C 42.3828 -20.4102 41.1621 -19.043 39.1602 -19.043 Z M 64.8926 -19.043 C 62.9395 -19.043 61.7676 -20.4102 61.7676 -22.3145 L 61.7676 -25.3906 L 53.0762 -25.3906 C 50.3418 -25.3906 48.7305 -26.9531 48.7305 -29.6875 C 48.7305 -31.25 49.1211 -32.6172 49.7559 -34.082 C 51.4648 -37.793 54.0039 -42.9688 56.3965 -47.4121 C 57.9102 -50.1953 59.7168 -51.4648 62.8418 -51.4648 C 66.2109 -51.4648 68.0664 -49.4141 68.0664 -46.1914 L 68.0664 -31.3477 L 69.0918 -31.3477 C 70.8984 -31.3477 71.9727 -30.1758 71.9727 -28.3203 C 71.9727 -26.5137 70.8984 -25.4395 69.0918 -25.4395 L 68.0664 -25.4395 L 68.0664 -22.3145 C 68.0664 -20.4102 66.8945 -19.043 64.8926 -19.043 Z M 36.0352 -31.2988 L 36.0352 -44.7266 L 35.8887 -44.7266 C 33.6914 -40.3809 31.3477 -35.0098 29.7363 -31.4453 L 29.7363 -31.2988 Z M 61.7676 -31.2988 L 61.7676 -44.7266 L 61.6211 -44.7266 C 59.4238 -40.3809 57.0801 -35.0098 55.4688 -31.4453 L 55.4688 -31.2988 Z"/>
  </g>
  <g id="Semibold-S" transform="matrix(1 0 0 1 1996.2 696)">
   <path d="M 47.0703 4.98047 C 69.0918 4.98047 87.3047 -13.1836 87.3047 -35.2539 C 87.3047 -57.2754 69.0918 -75.4883 47.0215 -75.4883 C 25 -75.4883 6.83594 -57.2754 6.83594 -35.2539 C 6.83594 -13.1836 25.0488 4.98047 47.0703 4.98047 Z M 38.4766 -18.6035 C 36.6211 -18.6035 35.5469 -19.9707 35.5469 -21.7773 L 35.5469 -25.293 L 25.9277 -25.293 C 23.3398 -25.293 21.7773 -26.8066 21.7773 -29.3945 C 21.7773 -30.8594 22.1191 -32.0801 22.7539 -33.5449 C 24.8535 -37.6465 27.6367 -43.1152 30.4199 -48.0957 C 31.8848 -50.7812 33.5938 -51.9043 36.5723 -51.9043 C 39.6484 -51.9043 41.5527 -50 41.5527 -47.0215 L 41.5527 -30.9082 L 42.7734 -30.9082 C 44.4824 -30.9082 45.5078 -29.834 45.5078 -28.0762 C 45.5078 -26.3184 44.4824 -25.293 42.7734 -25.293 L 41.5527 -25.293 L 41.5527 -21.7773 C 41.5527 -19.9219 40.4297 -18.6035 38.4766 -18.6035 Z M 64.9414 -18.6035 C 63.0371 -18.6035 61.9629 -19.9707 61.9629 -21.7773 L 61.9629 -25.293 L 52.3438 -25.293 C 49.8047 -25.293 48.2422 -26.8066 48.2422 -29.3945 C 48.2422 -30.8594 48.584 -32.0801 49.2188 -33.5449 C 51.2695 -37.6465 54.1016 -43.1152 56.8359 -48.0957 C 58.3496 -50.7812 60.0586 -51.9043 62.9883 -51.9043 C 66.1133 -51.9043 67.9199 -50 67.9199 -47.0215 L 67.9199 -30.9082 L 69.2383 -30.9082 C 70.9473 -30.9082 71.9727 -29.834 71.9727 -28.0762 C 71.9727 -26.3184 70.9473 -25.293 69.2383 -25.293 L 67.9199 -25.293 L 67.9199 -21.7773 C 67.9199 -19.9219 66.8457 -18.6035 64.9414 -18.6035 Z M 35.5469 -30.8594 L 35.5469 -45.4102 L 35.3516 -45.4102 C 32.7148 -40.5273 30.0781 -35.0098 28.1738 -31.0547 L 28.1738 -30.8594 Z M 61.9629 -30.8594 L 61.9629 -45.4102 L 61.7676 -45.4102 C 59.1797 -40.5273 56.543 -35.0098 54.6387 -31.0547 L 54.6387 -30.8594 Z"/>
  </g>
  <g id="Medium-S" transform="matrix(1 0 0 1 1699.83 696)">
   <path d="M 46.7285 4.63867 C 68.5547 4.63867 86.6211 -13.4277 86.6211 -35.2539 C 86.6211 -57.0312 68.5059 -75.1465 46.6797 -75.1465 C 24.8535 -75.1465 6.83594 -57.0312 6.83594 -35.2539 C 6.83594 -13.4277 24.9023 4.63867 46.7285 4.63867 Z M 37.9883 -18.2617 C 36.1328 -18.2617 35.1562 -19.5801 35.1562 -21.3867 L 35.1562 -25.1953 L 24.8535 -25.1953 C 22.4121 -25.1953 20.8496 -26.6602 20.8496 -29.1992 C 20.8496 -30.5664 21.1426 -31.6406 21.8262 -33.1055 C 24.1699 -37.5488 27.1973 -43.2617 30.2246 -48.584 C 31.6895 -51.1719 33.3496 -52.2461 36.1328 -52.2461 C 39.0625 -52.2461 40.918 -50.4395 40.918 -47.6074 L 40.918 -30.5664 L 42.334 -30.5664 C 43.9941 -30.5664 45.0195 -29.541 45.0195 -27.8809 C 45.0195 -26.1719 43.9941 -25.2441 42.334 -25.2441 L 40.918 -25.2441 L 40.918 -21.3867 C 40.918 -19.5801 39.8438 -18.2617 37.9883 -18.2617 Z M 64.9414 -18.2617 C 63.1348 -18.2617 62.1094 -19.5801 62.1094 -21.3867 L 62.1094 -25.1953 L 51.8066 -25.1953 C 49.4141 -25.1953 47.8027 -26.6602 47.8027 -29.1992 C 47.8027 -30.5664 48.1445 -31.6406 48.8281 -33.1055 C 51.123 -37.5488 54.1504 -43.2617 57.1777 -48.584 C 58.6426 -51.1719 60.3027 -52.2461 63.1348 -52.2461 C 66.0156 -52.2461 67.8711 -50.4395 67.8711 -47.6074 L 67.8711 -30.5664 L 69.3359 -30.5664 C 70.9473 -30.5664 71.9727 -29.541 71.9727 -27.8809 C 71.9727 -26.1719 70.9473 -25.2441 69.3359 -25.2441 L 67.8711 -25.2441 L 67.8711 -21.3867 C 67.8711 -19.5801 66.8457 -18.2617 64.9414 -18.2617 Z M 35.1562 -30.5176 L 35.1562 -45.9473 L 34.9121 -45.9473 C 31.9824 -40.6738 29.1504 -35.0098 27.002 -30.7129 L 27.002 -30.5176 Z M 62.1094 -30.5176 L 62.1094 -45.9473 L 61.9141 -45.9473 C 58.9355 -40.6738 56.1035 -35.0098 54.0039 -30.7129 L 54.0039 -30.5176 Z"/>
  </g>
  <g id="Regular-S" transform="matrix(1 0 0 1 1403.58 696)">
   <path d="M 46.2402 4.15039 C 67.7734 4.15039 85.6934 -13.7207 85.6934 -35.2539 C 85.6934 -56.7871 67.7246 -74.6582 46.1914 -74.6582 C 24.707 -74.6582 6.83594 -56.7871 6.83594 -35.2539 C 6.83594 -13.7207 24.7559 4.15039 46.2402 4.15039 Z M 37.3047 -17.8223 C 35.498 -17.8223 34.6191 -19.1406 34.6191 -20.8984 L 34.6191 -25.0977 L 23.3887 -25.0977 C 21.1914 -25.0977 19.6289 -26.5137 19.6289 -28.9551 C 19.6289 -30.1758 19.9219 -31.1035 20.6055 -32.5684 C 23.2422 -37.4512 26.5625 -43.4082 29.9316 -49.2676 C 31.3965 -51.709 32.959 -52.6855 35.5957 -52.6855 C 38.2324 -52.6855 40.0879 -50.9766 40.0879 -48.4375 L 40.0879 -30.127 L 41.748 -30.127 C 43.3105 -30.127 44.2871 -29.1992 44.2871 -27.5879 C 44.2871 -26.0254 43.3105 -25.0977 41.748 -25.0977 L 40.0879 -25.0977 L 40.0879 -20.8984 C 40.0879 -19.0918 39.1602 -17.8223 37.3047 -17.8223 Z M 64.9902 -17.8223 C 63.1836 -17.8223 62.3047 -19.1406 62.3047 -20.8984 L 62.3047 -25.0977 L 51.0742 -25.0977 C 48.877 -25.0977 47.3145 -26.5137 47.3145 -28.9551 C 47.3145 -30.1758 47.6074 -31.1035 48.291 -32.5684 C 50.9277 -37.4512 54.248 -43.4082 57.6172 -49.2676 C 59.082 -51.709 60.6445 -52.6855 63.2812 -52.6855 C 65.918 -52.6855 67.7246 -50.9766 67.7246 -48.4375 L 67.7246 -30.127 L 69.4336 -30.127 C 70.9961 -30.127 71.9727 -29.1992 71.9727 -27.5879 C 71.9727 -26.0254 70.9961 -25.0977 69.4336 -25.0977 L 67.7246 -25.0977 L 67.7246 -20.8984 C 67.7246 -19.0918 66.8457 -17.8223 64.9902 -17.8223 Z M 34.6191 -30.127 L 34.6191 -46.6309 L 34.375 -46.6309 C 31.0059 -40.8203 27.8809 -35.0098 25.4883 -30.3223 L 25.4883 -30.127 Z M 62.3047 -30.127 L 62.3047 -46.6309 L 62.0605 -46.6309 C 58.6914 -40.8203 55.5664 -35.0098 53.1738 -30.3223 L 53.1738 -30.127 Z"/>
  </g>
  <g id="Light-S" transform="matrix(1 0 0 1 1107.6 696)">
   <path d="M 45.5078 3.4668 C 66.6992 3.4668 84.2285 -14.0625 84.2285 -35.2051 C 84.2285 -56.3965 66.6504 -73.9258 45.5078 -73.9258 C 24.3164 -73.9258 6.83594 -56.3965 6.83594 -35.2051 C 6.83594 -14.0625 24.3652 3.4668 45.5078 3.4668 Z M 36.7676 -18.1641 C 35.3516 -18.1641 34.5703 -19.1895 34.5703 -20.5566 L 34.5703 -25.7324 L 22.4121 -25.7324 C 20.5566 -25.7324 19.2383 -26.8555 19.2383 -28.8086 C 19.2383 -29.7852 19.4824 -30.6152 20.0195 -31.6895 C 22.8027 -36.4746 27.4902 -44.1895 30.8105 -49.707 C 32.0312 -51.6602 33.3008 -52.4414 35.4004 -52.4414 C 37.5 -52.4414 38.9648 -51.0742 38.9648 -49.0234 L 38.9648 -29.7852 L 41.5527 -29.7852 C 42.7734 -29.7852 43.6035 -29.0039 43.6035 -27.7344 C 43.6035 -26.4648 42.8223 -25.7324 41.5527 -25.7324 L 38.9648 -25.7324 L 38.9648 -20.5566 C 38.9648 -19.1406 38.1836 -18.1641 36.7676 -18.1641 Z M 64.4531 -18.1641 C 63.0371 -18.1641 62.2559 -19.1895 62.2559 -20.5566 L 62.2559 -25.7324 L 50.0977 -25.7324 C 48.2422 -25.7324 46.9238 -26.8555 46.9238 -28.8086 C 46.9238 -29.7852 47.168 -30.6152 47.7051 -31.6895 C 50.4883 -36.4746 55.1758 -44.1895 58.4961 -49.707 C 59.7168 -51.6602 60.9863 -52.4414 63.0859 -52.4414 C 65.1855 -52.4414 66.6504 -51.0742 66.6504 -49.0234 L 66.6504 -29.7852 L 69.2383 -29.7852 C 70.459 -29.7852 71.2891 -29.0039 71.2891 -27.7344 C 71.2891 -26.4648 70.5078 -25.7324 69.2383 -25.7324 L 66.6504 -25.7324 L 66.6504 -20.5566 C 66.6504 -19.1406 65.8691 -18.1641 64.4531 -18.1641 Z M 34.5703 -29.7852 L 34.5703 -47.5586 L 34.375 -47.5586 C 31.2988 -42.4316 26.3672 -34.3262 23.9746 -29.9316 L 23.9746 -29.7852 Z M 62.2559 -29.7852 L 62.2559 -47.5586 L 62.0605 -47.5586 C 58.9844 -42.4316 54.0527 -34.3262 51.6602 -29.9316 L 51.6602 -29.7852 Z"/>
  </g>
  <g id="Thin-S" transform="matrix(1 0 0 1 811.867 696)">
   <path d="M 44.5801 2.53906 C 65.2832 2.53906 82.2754 -14.4531 82.2754 -35.2051 C 82.2754 -55.9082 65.2344 -72.9004 44.5312 -72.9004 C 23.8281 -72.9004 6.83594 -55.9082 6.83594 -35.2051 C 6.83594 -14.4531 23.877 2.53906 44.5801 2.53906 Z M 36.0352 -18.5547 C 35.1074 -18.5547 34.5703 -19.1895 34.5703 -20.166 L 34.5703 -26.5137 L 21.0938 -26.5137 C 19.7266 -26.5137 18.75 -27.2461 18.75 -28.6621 C 18.75 -29.2969 18.9453 -29.9316 19.2871 -30.5664 C 22.2656 -35.2051 28.7109 -45.2148 31.9824 -50.2441 C 32.8613 -51.6602 33.6914 -52.0996 35.1074 -52.0996 C 36.5234 -52.0996 37.5 -51.2207 37.5 -49.8535 L 37.5 -29.3457 L 41.2598 -29.3457 C 42.0898 -29.3457 42.627 -28.7598 42.627 -27.9297 C 42.627 -27.0508 42.1387 -26.5137 41.2598 -26.5137 L 37.5 -26.5137 L 37.5 -20.166 C 37.5 -19.1895 36.9629 -18.5547 36.0352 -18.5547 Z M 63.7207 -18.5547 C 62.793 -18.5547 62.2559 -19.1895 62.2559 -20.166 L 62.2559 -26.5137 L 48.7793 -26.5137 C 47.4121 -26.5137 46.4355 -27.2461 46.4355 -28.6621 C 46.4355 -29.2969 46.6309 -29.9316 46.9727 -30.5664 C 49.9512 -35.2051 56.3965 -45.2148 59.668 -50.2441 C 60.5469 -51.6602 61.377 -52.0996 62.793 -52.0996 C 64.209 -52.0996 65.1855 -51.2207 65.1855 -49.8535 L 65.1855 -29.3457 L 68.9453 -29.3457 C 69.7754 -29.3457 70.3125 -28.7598 70.3125 -27.9297 C 70.3125 -27.0508 69.8242 -26.5137 68.9453 -26.5137 L 65.1855 -26.5137 L 65.1855 -20.166 C 65.1855 -19.1895 64.6484 -18.5547 63.7207 -18.5547 Z M 34.5703 -29.3457 L 34.5703 -48.7305 L 34.4238 -48.7305 C 31.6406 -44.5312 24.3164 -33.3496 22.0215 -29.4434 L 22.0215 -29.3457 Z M 62.2559 -29.3457 L 62.2559 -48.7305 L 62.1094 -48.7305 C 59.3262 -44.5312 52.002 -33.3496 49.707 -29.4434 L 49.707 -29.3457 Z"/>
  </g>
  <g id="Ultralight-S" transform="matrix(1 0 0 1 515.644 696)">
   <path d="M 44.043 2.05078 C 64.502 2.05078 81.2988 -14.6973 81.2988 -35.1562 C 81.2988 -55.6152 64.502 -72.3633 44.043 -72.3633 C 23.584 -72.3633 6.83594 -55.6152 6.83594 -35.1562 C 6.83594 -14.6973 23.584 2.05078 44.043 2.05078 Z M 35.6445 -18.7988 C 35.0098 -18.7988 34.5215 -19.2383 34.5215 -19.9219 L 34.5215 -26.9531 L 20.4102 -26.9531 C 19.2871 -26.9531 18.5059 -27.4902 18.5059 -28.5645 C 18.5059 -29.0527 18.6523 -29.5898 18.8965 -29.9805 C 21.9238 -34.5703 29.3457 -45.752 32.5684 -50.5859 C 33.3008 -51.6113 33.9355 -51.9531 34.9609 -51.9531 C 35.9863 -51.9531 36.7676 -51.3184 36.7676 -50.2441 L 36.7676 -29.1016 L 41.1133 -29.1016 C 41.748 -29.1016 42.1387 -28.6133 42.1387 -28.0273 C 42.1387 -27.3926 41.7969 -26.9531 41.1133 -26.9531 L 36.7676 -26.9531 L 36.7676 -19.9219 C 36.7676 -19.2383 36.3281 -18.7988 35.6445 -18.7988 Z M 63.3301 -18.7988 C 62.6953 -18.7988 62.207 -19.2383 62.207 -19.9219 L 62.207 -26.9531 L 48.0957 -26.9531 C 46.9727 -26.9531 46.1914 -27.4902 46.1914 -28.5645 C 46.1914 -29.0527 46.3379 -29.5898 46.582 -29.9805 C 49.6094 -34.5703 57.0312 -45.752 60.2539 -50.5859 C 60.9863 -51.6113 61.6211 -51.9531 62.6465 -51.9531 C 63.6719 -51.9531 64.4531 -51.3184 64.4531 -50.2441 L 64.4531 -29.1016 L 68.7988 -29.1016 C 69.4336 -29.1016 69.8242 -28.6133 69.8242 -28.0273 C 69.8242 -27.3926 69.4824 -26.9531 68.7988 -26.9531 L 64.4531 -26.9531 L 64.4531 -19.9219 C 64.4531 -19.2383 64.0137 -18.7988 63.3301 -18.7988 Z M 34.5215 -29.1016 L 34.5215 -49.3652 L 34.4238 -49.3652 C 31.8359 -45.6543 23.2422 -32.8613 21.0449 -29.1992 L 21.0449 -29.1016 Z M 62.207 -29.1016 L 62.207 -49.3652 L 62.1094 -49.3652 C 59.5215 -45.6543 50.9277 -32.8613 48.7305 -29.1992 L 48.7305 -29.1016 Z"/>
  </g>
 </g>
</svg>
