<?xml version="1.0" encoding="UTF-8"?>
<!--Generator: Apple Native CoreSVG 123-->
<!DOCTYPE svg
PUBLIC "-//W3C//DTD SVG 1.1//EN"
       "http://www.w3.org/Graphics/SVG/1.1/DTD/svg11.dtd">
<svg version="1.1" xmlns="http://www.w3.org/2000/svg" xmlns:xlink="http://www.w3.org/1999/xlink" width="3300" height="2200">
 <!--glyph: "uni1006B2.medium", point size: 100.000000, font version: "Version 15.0d7e11", template writer version: "5"-->
 <g id="Notes">
  <rect height="2200" id="artboard" style="fill:white;opacity:1" width="3300" x="0" y="0"/>
  <line id="" style="fill:none;stroke:black;opacity:1;stroke-width:0.5;" x1="263" x2="3036" y1="292" y2="292"/>
  <text style="stroke:none;fill:black;font-family:-apple-system,&quot;SF Pro Display&quot;,&quot;SF Pro Text&quot;,Helvetica,sans-serif;font-weight:bold;" transform="matrix(1 0 0 1 263 322)">Weight/Scale Variations</text>
  <text style="stroke:none;fill:black;font-family:-apple-system,&quot;SF Pro Display&quot;,&quot;SF Pro Text&quot;,Helvetica,sans-serif;text-anchor:middle;" transform="matrix(1 0 0 1 559.711 322)">Ultralight</text>
  <text style="stroke:none;fill:black;font-family:-apple-system,&quot;SF Pro Display&quot;,&quot;SF Pro Text&quot;,Helvetica,sans-serif;text-anchor:middle;" transform="matrix(1 0 0 1 856.422 322)">Thin</text>
  <text style="stroke:none;fill:black;font-family:-apple-system,&quot;SF Pro Display&quot;,&quot;SF Pro Text&quot;,Helvetica,sans-serif;text-anchor:middle;" transform="matrix(1 0 0 1 1153.13 322)">Light</text>
  <text style="stroke:none;fill:black;font-family:-apple-system,&quot;SF Pro Display&quot;,&quot;SF Pro Text&quot;,Helvetica,sans-serif;text-anchor:middle;" transform="matrix(1 0 0 1 1449.84 322)">Regular</text>
  <text style="stroke:none;fill:black;font-family:-apple-system,&quot;SF Pro Display&quot;,&quot;SF Pro Text&quot;,Helvetica,sans-serif;text-anchor:middle;" transform="matrix(1 0 0 1 1746.56 322)">Medium</text>
  <text style="stroke:none;fill:black;font-family:-apple-system,&quot;SF Pro Display&quot;,&quot;SF Pro Text&quot;,Helvetica,sans-serif;text-anchor:middle;" transform="matrix(1 0 0 1 2043.27 322)">Semibold</text>
  <text style="stroke:none;fill:black;font-family:-apple-system,&quot;SF Pro Display&quot;,&quot;SF Pro Text&quot;,Helvetica,sans-serif;text-anchor:middle;" transform="matrix(1 0 0 1 2339.98 322)">Bold</text>
  <text style="stroke:none;fill:black;font-family:-apple-system,&quot;SF Pro Display&quot;,&quot;SF Pro Text&quot;,Helvetica,sans-serif;text-anchor:middle;" transform="matrix(1 0 0 1 2636.69 322)">Heavy</text>
  <text style="stroke:none;fill:black;font-family:-apple-system,&quot;SF Pro Display&quot;,&quot;SF Pro Text&quot;,Helvetica,sans-serif;text-anchor:middle;" transform="matrix(1 0 0 1 2933.4 322)">Black</text>
  <line id="" style="fill:none;stroke:black;opacity:1;stroke-width:0.5;" x1="263" x2="3036" y1="1903" y2="1903"/>
  <g id="" transform="matrix(1 0 0 1 263 1933)">
   <path d="M 9.24805 0.830078 C 13.5547 0.830078 17.1387 -2.74414 17.1387 -7.05078 C 17.1387 -11.3574 13.5449 -14.9316 9.23828 -14.9316 C 4.94141 -14.9316 1.36719 -11.3574 1.36719 -7.05078 C 1.36719 -2.74414 4.95117 0.830078 9.24805 0.830078 Z M 9.24805 -0.654297 C 5.70312 -0.654297 2.87109 -3.49609 2.87109 -7.05078 C 2.87109 -10.6055 5.69336 -13.4473 9.23828 -13.4473 C 12.793 -13.4473 15.6348 -10.6055 15.6445 -7.05078 C 15.6543 -3.49609 12.8027 -0.654297 9.24805 -0.654297 Z M 9.22852 -3.42773 C 9.69727 -3.42773 9.9707 -3.74023 9.9707 -4.25781 L 9.9707 -6.31836 L 12.1973 -6.31836 C 12.6953 -6.31836 13.0371 -6.57227 13.0371 -7.04102 C 13.0371 -7.51953 12.7148 -7.7832 12.1973 -7.7832 L 9.9707 -7.7832 L 9.9707 -10.0098 C 9.9707 -10.5273 9.69727 -10.8496 9.22852 -10.8496 C 8.75977 -10.8496 8.50586 -10.5078 8.50586 -10.0098 L 8.50586 -7.7832 L 6.29883 -7.7832 C 5.78125 -7.7832 5.44922 -7.51953 5.44922 -7.04102 C 5.44922 -6.57227 5.80078 -6.31836 6.29883 -6.31836 L 8.50586 -6.31836 L 8.50586 -4.25781 C 8.50586 -3.75977 8.75977 -3.42773 9.22852 -3.42773 Z"/>
  </g>
  <g id="" transform="matrix(1 0 0 1 281.506 1933)">
   <path d="M 11.709 2.91016 C 17.1582 2.91016 21.6699 -1.60156 21.6699 -7.05078 C 21.6699 -12.4902 17.1484 -17.0117 11.6992 -17.0117 C 6.25977 -17.0117 1.74805 -12.4902 1.74805 -7.05078 C 1.74805 -1.60156 6.26953 2.91016 11.709 2.91016 Z M 11.709 1.25 C 7.09961 1.25 3.41797 -2.44141 3.41797 -7.05078 C 3.41797 -11.6504 7.08984 -15.3516 11.6992 -15.3516 C 16.3086 -15.3516 20 -11.6504 20.0098 -7.05078 C 20.0195 -2.44141 16.3184 1.25 11.709 1.25 Z M 11.6895 -2.41211 C 12.207 -2.41211 12.5195 -2.77344 12.5195 -3.33984 L 12.5195 -6.23047 L 15.5762 -6.23047 C 16.123 -6.23047 16.5039 -6.51367 16.5039 -7.03125 C 16.5039 -7.55859 16.1426 -7.86133 15.5762 -7.86133 L 12.5195 -7.86133 L 12.5195 -10.9277 C 12.5195 -11.5039 12.207 -11.8555 11.6895 -11.8555 C 11.1719 -11.8555 10.8789 -11.4844 10.8789 -10.9277 L 10.8789 -7.86133 L 7.83203 -7.86133 C 7.26562 -7.86133 6.89453 -7.55859 6.89453 -7.03125 C 6.89453 -6.51367 7.28516 -6.23047 7.83203 -6.23047 L 10.8789 -6.23047 L 10.8789 -3.33984 C 10.8789 -2.79297 11.1719 -2.41211 11.6895 -2.41211 Z"/>
  </g>
  <g id="" transform="matrix(1 0 0 1 304.924 1933)">
   <path d="M 14.9707 5.67383 C 21.9336 5.67383 27.6953 -0.078125 27.6953 -7.04102 C 27.6953 -14.0039 21.9238 -19.7559 14.9609 -19.7559 C 8.00781 -19.7559 2.25586 -14.0039 2.25586 -7.04102 C 2.25586 -0.078125 8.01758 5.67383 14.9707 5.67383 Z M 14.9707 3.85742 C 8.93555 3.85742 4.08203 -1.00586 4.08203 -7.04102 C 4.08203 -13.0762 8.92578 -17.9395 14.9609 -17.9395 C 21.0059 -17.9395 25.8594 -13.0762 25.8691 -7.04102 C 25.8789 -1.00586 21.0156 3.85742 14.9707 3.85742 Z M 14.9512 -1.06445 C 15.5176 -1.06445 15.8691 -1.45508 15.8691 -2.06055 L 15.8691 -6.13281 L 20.1074 -6.13281 C 20.6934 -6.13281 21.1133 -6.46484 21.1133 -7.02148 C 21.1133 -7.59766 20.7227 -7.93945 20.1074 -7.93945 L 15.8691 -7.93945 L 15.8691 -12.1875 C 15.8691 -12.8027 15.5176 -13.1934 14.9512 -13.1934 C 14.3848 -13.1934 14.0625 -12.7832 14.0625 -12.1875 L 14.0625 -7.93945 L 9.83398 -7.93945 C 9.21875 -7.93945 8.80859 -7.59766 8.80859 -7.02148 C 8.80859 -6.46484 9.23828 -6.13281 9.83398 -6.13281 L 14.0625 -6.13281 L 14.0625 -2.06055 C 14.0625 -1.47461 14.3848 -1.06445 14.9512 -1.06445 Z"/>
  </g>
  <text style="stroke:none;fill:black;font-family:-apple-system,&quot;SF Pro Display&quot;,&quot;SF Pro Text&quot;,Helvetica,sans-serif;font-weight:bold;" transform="matrix(1 0 0 1 263 1953)">Design Variations</text>
  <text style="stroke:none;fill:black;font-family:-apple-system,&quot;SF Pro Display&quot;,&quot;SF Pro Text&quot;,Helvetica,sans-serif;" transform="matrix(1 0 0 1 263 1971)">Symbols are supported in up to nine weights and three scales.</text>
  <text style="stroke:none;fill:black;font-family:-apple-system,&quot;SF Pro Display&quot;,&quot;SF Pro Text&quot;,Helvetica,sans-serif;" transform="matrix(1 0 0 1 263 1989)">For optimal layout with text and other symbols, vertically align</text>
  <text style="stroke:none;fill:black;font-family:-apple-system,&quot;SF Pro Display&quot;,&quot;SF Pro Text&quot;,Helvetica,sans-serif;" transform="matrix(1 0 0 1 263 2007)">symbols with the adjacent text.</text>
  <rect height="14" id="" style="fill:#00AEEF;stroke:none;opacity:0.4;" width="3" x="776" y="1919"/>
  <g id="" transform="matrix(1 0 0 1 779 1933)">
   <path d="M 10.5273 0 L 12.373 0 L 7.17773 -14.0918 L 5.43945 -14.0918 L 0.244141 0 L 2.08984 0 L 3.50586 -4.0332 L 9.11133 -4.0332 Z M 6.2793 -11.9531 L 6.33789 -11.9531 L 8.59375 -5.52734 L 4.02344 -5.52734 Z"/>
  </g>
  <rect height="14" id="" style="fill:#00AEEF;stroke:none;opacity:0.4;" width="3" x="791.617" y="1919"/>
  <text style="stroke:none;fill:black;font-family:-apple-system,&quot;SF Pro Display&quot;,&quot;SF Pro Text&quot;,Helvetica,sans-serif;font-weight:bold;" transform="matrix(1 0 0 1 776 1953)">Margins</text>
  <text style="stroke:none;fill:black;font-family:-apple-system,&quot;SF Pro Display&quot;,&quot;SF Pro Text&quot;,Helvetica,sans-serif;" transform="matrix(1 0 0 1 776 1971)">Leading and trailing margins on the left and right side of each symbol</text>
  <text style="stroke:none;fill:black;font-family:-apple-system,&quot;SF Pro Display&quot;,&quot;SF Pro Text&quot;,Helvetica,sans-serif;" transform="matrix(1 0 0 1 776 1989)">can be adjusted by modifying the width of the blue rectangles.</text>
  <text style="stroke:none;fill:black;font-family:-apple-system,&quot;SF Pro Display&quot;,&quot;SF Pro Text&quot;,Helvetica,sans-serif;" transform="matrix(1 0 0 1 776 2007)">Modifications are automatically applied proportionally to all</text>
  <text style="stroke:none;fill:black;font-family:-apple-system,&quot;SF Pro Display&quot;,&quot;SF Pro Text&quot;,Helvetica,sans-serif;" transform="matrix(1 0 0 1 776 2025)">scales and weights.</text>
  <g id="" transform="matrix(1 0 0 1 1289 1933)">
   <path d="M 2.83203 3.11523 L 4.375 4.6582 C 5.22461 5.48828 6.19141 5.41992 7.06055 4.46289 L 17.2754 -6.66016 C 17.7051 -6.36719 18.0957 -6.37695 18.5645 -6.47461 L 19.6094 -6.68945 L 20.3027 -5.99609 L 20.2539 -5.47852 C 20.1855 -4.95117 20.3516 -4.53125 20.8496 -4.0332 L 21.6602 -3.22266 C 22.168 -2.71484 22.8223 -2.68555 23.3008 -3.16406 L 26.5527 -6.41602 C 27.0312 -6.89453 27.0117 -7.54883 26.5039 -8.05664 L 25.6836 -8.87695 C 25.1855 -9.375 24.7754 -9.55078 24.2383 -9.47266 L 23.7109 -9.41406 L 23.0566 -10.0781 L 23.3398 -11.2207 C 23.4863 -11.7871 23.3398 -12.2559 22.7148 -12.8613 L 20.3027 -15.2539 C 16.7578 -18.7793 12.2266 -18.6719 9.11133 -15.5371 C 8.69141 -15.1074 8.64258 -14.5215 8.91602 -14.0918 C 9.15039 -13.7207 9.62891 -13.4961 10.2734 -13.6621 C 11.7871 -14.043 13.3008 -13.9258 14.7852 -12.9199 L 14.1602 -11.3379 C 13.9258 -10.752 13.9453 -10.2734 14.1797 -9.83398 L 3.01758 0.439453 C 2.08008 1.30859 1.97266 2.25586 2.83203 3.11523 Z M 10.6738 -15.1465 C 13.3398 -17.1387 16.6504 -16.8262 19.0527 -14.4141 L 21.6797 -11.8066 C 21.9141 -11.5723 21.9434 -11.3867 21.8848 -11.0938 L 21.5039 -9.53125 L 23.0762 -7.95898 L 24.043 -8.04688 C 24.3262 -8.07617 24.4141 -8.05664 24.6387 -7.83203 L 25.2637 -7.20703 L 22.5098 -4.46289 L 21.8848 -5.07812 C 21.6602 -5.30273 21.6406 -5.40039 21.6699 -5.68359 L 21.7578 -6.64062 L 20.1953 -8.20312 L 18.5742 -7.89062 C 18.291 -7.83203 18.1445 -7.83203 17.9102 -8.07617 L 15.7324 -10.2539 C 15.5078 -10.4883 15.4785 -10.625 15.6055 -10.9473 L 16.5527 -13.2227 C 14.9512 -14.7559 12.8418 -15.6055 10.8008 -14.9512 C 10.7129 -14.9219 10.6445 -14.9414 10.6152 -14.9805 C 10.5859 -15.0293 10.5859 -15.0781 10.6738 -15.1465 Z M 4.10156 2.41211 C 3.61328 1.91406 3.78906 1.61133 4.12109 1.30859 L 15.0781 -8.80859 L 16.3086 -7.57812 L 6.15234 3.34961 C 5.84961 3.68164 5.46875 3.7793 5.06836 3.37891 Z"/>
  </g>
  <text style="stroke:none;fill:black;font-family:-apple-system,&quot;SF Pro Display&quot;,&quot;SF Pro Text&quot;,Helvetica,sans-serif;font-weight:bold;" transform="matrix(1 0 0 1 1289 1953)">Exporting</text>
  <text style="stroke:none;fill:black;font-family:-apple-system,&quot;SF Pro Display&quot;,&quot;SF Pro Text&quot;,Helvetica,sans-serif;" transform="matrix(1 0 0 1 1289 1971)">Symbols should be outlined when exporting to ensure the</text>
  <text style="stroke:none;fill:black;font-family:-apple-system,&quot;SF Pro Display&quot;,&quot;SF Pro Text&quot;,Helvetica,sans-serif;" transform="matrix(1 0 0 1 1289 1989)">design is preserved when submitting to Xcode.</text>
  <text id="template-version" style="stroke:none;fill:black;font-family:-apple-system,&quot;SF Pro Display&quot;,&quot;SF Pro Text&quot;,Helvetica,sans-serif;text-anchor:end;" transform="matrix(1 0 0 1 3036 1933)">Template v.1.0</text>
  <text style="stroke:none;fill:black;font-family:-apple-system,&quot;SF Pro Display&quot;,&quot;SF Pro Text&quot;,Helvetica,sans-serif;text-anchor:end;" transform="matrix(1 0 0 1 3036 1951)">Generated from 45.circle.fill</text>
  <text style="stroke:none;fill:black;font-family:-apple-system,&quot;SF Pro Display&quot;,&quot;SF Pro Text&quot;,Helvetica,sans-serif;text-anchor:end;" transform="matrix(1 0 0 1 3036 1969)">Typeset at 100 points</text>
  <text style="stroke:none;fill:black;font-family:-apple-system,&quot;SF Pro Display&quot;,&quot;SF Pro Text&quot;,Helvetica,sans-serif;" transform="matrix(1 0 0 1 263 726)">Small</text>
  <text style="stroke:none;fill:black;font-family:-apple-system,&quot;SF Pro Display&quot;,&quot;SF Pro Text&quot;,Helvetica,sans-serif;" transform="matrix(1 0 0 1 263 1156)">Medium</text>
  <text style="stroke:none;fill:black;font-family:-apple-system,&quot;SF Pro Display&quot;,&quot;SF Pro Text&quot;,Helvetica,sans-serif;" transform="matrix(1 0 0 1 263 1586)">Large</text>
 </g>
 <g id="Guides">
  <g id="H-reference" style="fill:#27AAE1;stroke:none;" transform="matrix(1 0 0 1 339 696)">
   <path d="M 54.9316 0 L 57.666 0 L 30.5664 -70.459 L 28.0762 -70.459 L 0.976562 0 L 3.66211 0 L 12.9395 -24.4629 L 45.7031 -24.4629 Z M 29.1992 -67.0898 L 29.4434 -67.0898 L 44.8242 -26.709 L 13.8184 -26.709 Z"/>
  </g>
  <line id="Baseline-S" style="fill:none;stroke:#27AAE1;opacity:1;stroke-width:0.577;" x1="263" x2="3036" y1="696" y2="696"/>
  <line id="Capline-S" style="fill:none;stroke:#27AAE1;opacity:1;stroke-width:0.577;" x1="263" x2="3036" y1="625.541" y2="625.541"/>
  <g id="H-reference" style="fill:#27AAE1;stroke:none;" transform="matrix(1 0 0 1 339 1126)">
   <path d="M 54.9316 0 L 57.666 0 L 30.5664 -70.459 L 28.0762 -70.459 L 0.976562 0 L 3.66211 0 L 12.9395 -24.4629 L 45.7031 -24.4629 Z M 29.1992 -67.0898 L 29.4434 -67.0898 L 44.8242 -26.709 L 13.8184 -26.709 Z"/>
  </g>
  <line id="Baseline-M" style="fill:none;stroke:#27AAE1;opacity:1;stroke-width:0.577;" x1="263" x2="3036" y1="1126" y2="1126"/>
  <line id="Capline-M" style="fill:none;stroke:#27AAE1;opacity:1;stroke-width:0.577;" x1="263" x2="3036" y1="1055.54" y2="1055.54"/>
  <g id="H-reference" style="fill:#27AAE1;stroke:none;" transform="matrix(1 0 0 1 339 1556)">
   <path d="M 54.9316 0 L 57.666 0 L 30.5664 -70.459 L 28.0762 -70.459 L 0.976562 0 L 3.66211 0 L 12.9395 -24.4629 L 45.7031 -24.4629 Z M 29.1992 -67.0898 L 29.4434 -67.0898 L 44.8242 -26.709 L 13.8184 -26.709 Z"/>
  </g>
  <line id="Baseline-L" style="fill:none;stroke:#27AAE1;opacity:1;stroke-width:0.577;" x1="263" x2="3036" y1="1556" y2="1556"/>
  <line id="Capline-L" style="fill:none;stroke:#27AAE1;opacity:1;stroke-width:0.577;" x1="263" x2="3036" y1="1485.54" y2="1485.54"/>
  <rect height="119.336" id="left-margin" style="fill:#00AEEF;stroke:none;opacity:0.4;" width="8.74023" x="1391.3" y="1030.79"/>
  <rect height="119.336" id="right-margin" style="fill:#00AEEF;stroke:none;opacity:0.4;" width="8.74023" x="1499.65" y="1030.79"/>
 </g>
 <g id="Symbols">
  <g id="Black-L" transform="matrix(1 0 0 1 2854.05 1556)">
   <path d="M 79.3457 32.8613 C 116.748 32.8613 147.412 2.19727 147.412 -35.2051 C 147.412 -72.6074 116.748 -103.271 79.2969 -103.271 C 41.8945 -103.271 11.2793 -72.6074 11.2793 -35.2051 C 11.2793 2.19727 41.9434 32.8613 79.3457 32.8613 Z M 67.041 -9.47266 C 63.7207 -9.47266 61.5723 -11.7676 61.5723 -15.0391 L 61.5723 -19.1406 L 49.1699 -19.1406 C 44.2871 -19.1406 41.6016 -21.9238 41.6016 -26.6602 C 41.6016 -29.4922 42.334 -32.0312 43.3105 -34.5703 C 45.3613 -39.7949 48.877 -47.6562 52.1484 -53.8574 C 54.5898 -58.7891 57.8613 -61.084 63.4277 -61.084 C 69.5312 -61.084 72.6074 -57.4219 72.6074 -51.5137 L 72.6074 -29.7852 L 73.7793 -29.7852 C 76.9531 -29.7852 78.7598 -27.6367 78.7598 -24.4141 C 78.7598 -21.1914 76.9531 -19.2383 73.7793 -19.2383 L 72.6074 -19.2383 L 72.6074 -15.0391 C 72.6074 -11.7676 70.459 -9.47266 67.041 -9.47266 Z M 98.8281 -9.47266 C 91.2598 -9.47266 85.8887 -13.7207 84.1797 -17.4316 C 83.5449 -18.7012 83.3984 -19.7754 83.3984 -20.9473 C 83.3984 -24.1211 85.791 -26.3672 88.6719 -26.3672 C 91.1621 -26.3672 92.2852 -24.8535 93.5059 -23.6328 C 95.0195 -21.875 96.7285 -20.2148 99.5117 -20.2148 C 103.076 -20.2148 105.469 -22.9492 105.469 -26.9531 C 105.469 -30.4199 103.223 -33.2031 100.098 -33.2031 C 98.1934 -33.2031 97.0215 -32.5684 95.2637 -31.3477 C 93.75 -30.2734 92.2852 -29.541 89.3555 -29.541 C 85.5957 -29.541 83.2031 -32.0312 83.3984 -36.1328 L 84.3262 -52.7832 C 84.668 -57.3242 86.9629 -59.9609 91.0645 -59.9609 L 110.01 -59.9609 C 113.379 -59.9609 115.332 -58.1543 115.332 -54.7363 C 115.332 -51.3672 113.232 -49.3652 110.01 -49.3652 L 94.6777 -49.3652 L 93.8965 -38.3301 L 94.0918 -38.3301 C 95.8984 -41.0645 99.4629 -42.7734 103.125 -42.7734 C 110.693 -42.7734 116.992 -37.1094 116.992 -27.5391 C 116.992 -16.4551 110.205 -9.47266 98.8281 -9.47266 Z M 61.5723 -29.6387 L 61.5723 -49.3164 L 61.3281 -49.3164 C 58.5449 -43.3105 55.4199 -34.8633 53.418 -29.9316 L 53.418 -29.6387 Z"/>
  </g>
  <g id="Heavy-L" transform="matrix(1 0 0 1 2558.39 1556)">
   <path d="M 78.2715 31.7871 C 115.088 31.7871 145.312 1.61133 145.312 -35.2051 C 145.312 -72.0215 115.039 -102.197 78.2715 -102.197 C 41.4551 -102.197 11.2793 -72.0215 11.2793 -35.2051 C 11.2793 1.61133 41.5039 31.7871 78.2715 31.7871 Z M 65.6738 -8.93555 C 62.5977 -8.93555 60.6934 -11.084 60.6934 -14.1113 L 60.6934 -19.2871 L 46.4355 -19.2871 C 41.9922 -19.2871 39.502 -21.8262 39.502 -26.1719 C 39.502 -28.7109 40.0879 -30.957 41.0645 -33.3496 C 43.75 -39.1602 48.291 -48.2422 52.0508 -55.127 C 54.3945 -59.6191 57.373 -61.6699 62.4023 -61.6699 C 67.8711 -61.6699 70.8008 -58.3496 70.8008 -53.0762 L 70.8008 -28.9062 L 72.7539 -28.9062 C 75.5859 -28.9062 77.2949 -27.002 77.2949 -24.0723 C 77.2949 -21.0938 75.6348 -19.3359 72.7539 -19.3359 L 70.8008 -19.3359 L 70.8008 -14.1113 C 70.8008 -11.0352 68.8477 -8.93555 65.6738 -8.93555 Z M 98.291 -8.88672 C 90.5762 -8.88672 84.9121 -13.1836 83.1543 -17.3828 C 82.6172 -18.5059 82.4707 -19.5312 82.4707 -20.6543 C 82.4707 -23.5352 84.6191 -25.5859 87.2559 -25.5859 C 89.502 -25.5859 90.625 -24.2188 91.6992 -22.9004 C 93.3105 -20.5566 95.6055 -18.6523 98.9258 -18.6523 C 103.271 -18.6523 106.201 -21.8262 106.201 -26.5625 C 106.201 -30.7617 103.418 -34.082 99.5605 -34.082 C 97.3633 -34.082 95.8496 -33.3008 93.7988 -31.6895 C 92.2363 -30.5176 90.8691 -29.834 88.2324 -29.834 C 84.7168 -29.834 82.4707 -32.2266 82.666 -36.084 L 83.7891 -53.8574 C 84.082 -58.0566 86.3281 -60.5469 90.1855 -60.5469 L 110.156 -60.5469 C 113.135 -60.5469 114.893 -58.8379 114.893 -55.7617 C 114.893 -52.7344 113.037 -50.8789 110.156 -50.8789 L 93.1152 -50.8789 L 92.1875 -38.1836 L 92.4316 -38.1836 C 94.3359 -41.0156 98.1934 -42.8223 102.051 -42.8223 C 110.254 -42.8223 116.699 -36.7676 116.699 -27.0996 C 116.699 -15.918 109.717 -8.88672 98.291 -8.88672 Z M 60.6934 -28.8574 L 60.6934 -50.8301 L 60.4004 -50.8301 C 57.1289 -44.2871 52.7344 -34.5703 50.293 -29.1016 L 50.293 -28.8574 Z"/>
  </g>
  <g id="Bold-L" transform="matrix(1 0 0 1 2262.88 1556)">
   <path d="M 77.0996 30.6152 C 113.232 30.6152 142.92 0.878906 142.92 -35.2051 C 142.92 -71.3379 113.184 -101.025 77.0508 -101.025 C 40.9668 -101.025 11.2793 -71.3379 11.2793 -35.2051 C 11.2793 0.878906 41.0156 30.6152 77.0996 30.6152 Z M 64.1602 -8.30078 C 61.377 -8.30078 59.7168 -10.3027 59.7168 -13.0371 L 59.7168 -19.4336 L 43.4082 -19.4336 C 39.4531 -19.4336 37.1094 -21.7285 37.1094 -25.6836 C 37.1094 -27.832 37.5977 -29.7852 38.5742 -31.9336 C 41.8945 -38.4277 47.6074 -48.877 52.002 -56.4941 C 54.1504 -60.5469 56.8359 -62.3047 61.2793 -62.3047 C 66.0156 -62.3047 68.75 -59.4238 68.75 -54.7852 L 68.75 -27.9785 L 71.5332 -27.9785 C 74.1211 -27.9785 75.6348 -26.3184 75.6348 -23.6816 C 75.6348 -21.0449 74.1211 -19.4824 71.5332 -19.4824 L 68.75 -19.4824 L 68.75 -13.0371 C 68.75 -10.2539 67.041 -8.30078 64.1602 -8.30078 Z M 97.7051 -8.25195 C 89.7461 -8.25195 83.8379 -12.5488 82.0312 -17.2852 C 81.543 -18.3105 81.3965 -19.2871 81.3965 -20.3125 C 81.3965 -22.8516 83.252 -24.707 85.6445 -24.707 C 87.5977 -24.707 88.7207 -23.5352 89.7461 -22.0215 C 91.4062 -19.043 94.3848 -16.8945 98.291 -16.8945 C 103.467 -16.8945 107.031 -20.5566 107.031 -26.1719 C 107.031 -31.1523 103.711 -35.0098 98.9746 -35.0098 C 96.3867 -35.0098 94.5801 -34.1309 92.1387 -32.0801 C 90.5273 -30.7617 89.2578 -30.1758 86.9141 -30.1758 C 83.6914 -30.1758 81.6895 -32.4219 81.8848 -35.9863 L 83.2031 -55.0781 C 83.4961 -58.8867 85.5957 -61.1816 89.209 -61.1816 L 110.303 -61.1816 C 112.842 -61.1816 114.453 -59.5703 114.453 -56.9336 C 114.453 -54.2969 112.744 -52.5879 110.303 -52.5879 L 91.4062 -52.5879 L 90.332 -37.9883 L 90.5762 -37.9883 C 92.5781 -40.9668 96.7285 -42.9199 100.879 -42.9199 C 109.766 -42.9199 116.357 -36.377 116.357 -26.5625 C 116.357 -15.2832 109.131 -8.25195 97.7051 -8.25195 Z M 59.7168 -27.9297 L 59.7168 -52.4902 L 59.4238 -52.4902 C 55.5176 -45.3613 49.707 -34.2285 46.7773 -28.1738 L 46.7773 -27.9297 Z"/>
  </g>
  <g id="Semibold-L" transform="matrix(1 0 0 1 1966.97 1556)">
   <path d="M 76.2695 29.7852 C 111.914 29.7852 141.309 0.439453 141.309 -35.2051 C 141.309 -70.8496 111.865 -100.244 76.2695 -100.244 C 40.625 -100.244 11.2793 -70.8496 11.2793 -35.2051 C 11.2793 0.439453 40.6738 29.7852 76.2695 29.7852 Z M 63.1348 -7.91016 C 60.5469 -7.91016 59.0332 -9.7168 59.0332 -12.3047 L 59.0332 -19.5312 L 41.3086 -19.5312 C 37.6953 -19.5312 35.4492 -21.6309 35.4492 -25.293 C 35.4492 -27.2461 35.8887 -28.9551 36.8164 -30.957 C 40.625 -37.9395 47.168 -49.3164 51.9531 -57.4707 C 54.0039 -61.1816 56.4453 -62.7441 60.5469 -62.7441 C 64.7461 -62.7441 67.334 -60.1074 67.334 -56.0059 L 67.334 -27.3438 L 70.752 -27.3438 C 73.0469 -27.3438 74.5117 -25.8301 74.5117 -23.3887 C 74.5117 -20.9961 73.0957 -19.5312 70.752 -19.5312 L 67.334 -19.5312 L 67.334 -12.3047 C 67.334 -9.7168 65.8203 -7.91016 63.1348 -7.91016 Z M 97.3145 -7.76367 C 89.1602 -7.76367 83.1055 -12.1582 81.25 -17.1875 C 80.8105 -18.1641 80.6641 -19.0918 80.6641 -20.1172 C 80.6641 -22.4121 82.3242 -24.1211 84.5215 -24.1211 C 86.2793 -24.1211 87.4023 -23.0469 88.3789 -21.4355 C 90.0879 -18.0176 93.5059 -15.7227 97.8516 -15.7227 C 103.564 -15.7227 107.568 -19.6777 107.568 -25.8789 C 107.568 -31.4453 103.906 -35.6934 98.584 -35.6934 C 95.752 -35.6934 93.7012 -34.668 91.0156 -32.3242 C 89.3555 -30.957 88.1836 -30.4199 86.0352 -30.4199 C 83.0078 -30.4199 81.1523 -32.5195 81.2988 -35.9375 L 82.8125 -55.957 C 83.0566 -59.4727 85.1074 -61.5723 88.5254 -61.5723 L 110.4 -61.5723 C 112.646 -61.5723 114.111 -60.1074 114.111 -57.7637 C 114.111 -55.3223 112.549 -53.8086 110.4 -53.8086 L 90.2344 -53.8086 L 89.0625 -37.8906 L 89.3066 -37.8906 C 91.4062 -40.918 95.752 -42.9688 100.049 -42.9688 C 109.424 -42.9688 116.162 -36.1328 116.162 -26.1719 C 116.162 -14.8438 108.74 -7.76367 97.3145 -7.76367 Z M 59.0332 -27.2949 L 59.0332 -53.6621 L 58.6914 -53.6621 C 54.4434 -46.0938 47.6074 -34.0332 44.3848 -27.5391 L 44.3848 -27.2949 Z"/>
  </g>
  <g id="Medium-L" transform="matrix(1 0 0 1 1670.87 1556)">
   <path d="M 75.6836 29.1992 C 110.938 29.1992 140.088 0.0488281 140.088 -35.2051 C 140.088 -70.459 110.889 -99.6094 75.6348 -99.6094 C 40.3809 -99.6094 11.2793 -70.459 11.2793 -35.2051 C 11.2793 0.0488281 40.3809 29.1992 75.6836 29.1992 Z M 62.3535 -7.56836 C 59.9121 -7.56836 58.5449 -9.32617 58.5449 -11.7676 L 58.5449 -19.5801 L 39.7461 -19.5801 C 36.377 -19.5801 34.1797 -21.582 34.1797 -25.0488 C 34.1797 -26.8066 34.6191 -28.3203 35.5469 -30.2246 C 39.6973 -37.5977 46.8262 -49.707 51.9043 -58.1543 C 53.9062 -61.6699 56.2012 -63.0859 59.9609 -63.0859 C 63.7695 -63.0859 66.2598 -60.6934 66.2598 -56.8848 L 66.2598 -26.8555 L 70.1172 -26.8555 C 72.2656 -26.8555 73.6816 -25.4395 73.6816 -23.1934 C 73.6816 -20.9473 72.3145 -19.6289 70.1172 -19.6289 L 66.2598 -19.6289 L 66.2598 -11.7676 C 66.2598 -9.27734 64.8438 -7.56836 62.3535 -7.56836 Z M 96.9727 -7.4707 C 88.7695 -7.4707 82.5684 -11.8652 80.6641 -17.1387 C 80.2734 -18.0176 80.0781 -18.9453 80.0781 -19.9219 C 80.0781 -22.0703 81.6406 -23.6328 83.6914 -23.6328 C 85.3027 -23.6328 86.4258 -22.6562 87.3047 -20.9961 C 89.0625 -17.2363 92.8711 -14.7949 97.5098 -14.7949 C 103.662 -14.7949 108.008 -18.9941 108.008 -25.6836 C 108.008 -31.6406 104.004 -36.1816 98.291 -36.1816 C 95.2637 -36.1816 93.0176 -35.1074 90.1855 -32.5195 C 88.4766 -31.1035 87.3047 -30.6152 85.3516 -30.6152 C 82.5195 -30.6152 80.7129 -32.6172 80.9082 -35.8887 L 82.4707 -56.5918 C 82.7148 -59.9121 84.7656 -61.9141 88.0371 -61.9141 L 110.498 -61.9141 C 112.5 -61.9141 113.867 -60.498 113.867 -58.3496 C 113.867 -56.1523 112.451 -54.6875 110.498 -54.6875 L 89.3066 -54.6875 L 88.0371 -37.793 L 88.3301 -37.793 C 90.4785 -40.8691 95.0195 -43.0176 99.4629 -43.0176 C 109.131 -43.0176 115.967 -35.9375 115.967 -25.8789 C 115.967 -14.5508 108.447 -7.4707 96.9727 -7.4707 Z M 58.5449 -26.8066 L 58.5449 -54.541 L 58.2031 -54.541 C 53.6133 -46.6309 46.0449 -33.8379 42.5781 -27.0996 L 42.5781 -26.8066 Z"/>
  </g>
  <g id="Regular-L" transform="matrix(1 0 0 1 1374.97 1556)">
   <path d="M 74.8535 28.3691 C 109.668 28.3691 138.477 -0.390625 138.477 -35.2051 C 138.477 -70.0195 109.619 -98.7793 74.8047 -98.7793 C 40.0391 -98.7793 11.2793 -70.0195 11.2793 -35.2051 C 11.2793 -0.390625 40.0879 28.3691 74.8535 28.3691 Z M 61.3281 -7.17773 C 59.0332 -7.17773 57.9102 -8.78906 57.9102 -11.0352 L 57.9102 -19.6777 L 37.6465 -19.6777 C 34.668 -19.6777 32.5684 -21.4844 32.5684 -24.6582 C 32.5684 -26.2207 32.9102 -27.4902 33.8379 -29.248 C 38.4277 -37.1094 46.3867 -50.1465 51.8555 -59.1309 C 53.7109 -62.3047 55.8105 -63.5254 59.1797 -63.5254 C 62.5 -63.5254 64.8926 -61.377 64.8926 -58.1055 L 64.8926 -26.1719 L 69.2871 -26.1719 C 71.2402 -26.1719 72.5586 -24.9512 72.5586 -22.9004 C 72.5586 -20.8496 71.2891 -19.6777 69.2871 -19.6777 L 64.8926 -19.6777 L 64.8926 -11.0352 C 64.8926 -8.74023 63.623 -7.17773 61.3281 -7.17773 Z M 96.582 -6.98242 C 88.1836 -6.98242 81.8359 -11.4258 79.8828 -17.0898 C 79.541 -17.8711 79.3457 -18.75 79.3457 -19.6777 C 79.3457 -21.6309 80.7129 -23.0469 82.6172 -23.0469 C 84.0332 -23.0469 85.1562 -22.168 85.9863 -20.4102 C 87.7441 -16.2109 92.041 -13.5742 97.0703 -13.5742 C 103.809 -13.5742 108.545 -18.1641 108.545 -25.3906 C 108.545 -31.9336 104.199 -36.8164 97.9004 -36.8164 C 94.5801 -36.8164 92.1387 -35.6445 89.0625 -32.8125 C 87.3047 -31.2988 86.2305 -30.8594 84.4727 -30.8594 C 81.8359 -30.8594 80.1758 -32.7637 80.3711 -35.791 L 82.0801 -57.4219 C 82.3242 -60.498 84.2773 -62.3535 87.3535 -62.3535 L 110.645 -62.3535 C 112.305 -62.3535 113.525 -60.9863 113.525 -59.1309 C 113.525 -57.1777 112.256 -55.8594 110.645 -55.8594 L 88.1348 -55.8594 L 86.7676 -37.6465 L 87.0605 -37.6465 C 89.2578 -40.8203 94.043 -43.0664 98.6328 -43.0664 C 108.838 -43.0664 115.723 -35.6445 115.723 -25.5371 C 115.723 -14.1113 108.057 -6.98242 96.582 -6.98242 Z M 57.9102 -26.1719 L 57.9102 -55.7129 L 57.5195 -55.7129 C 52.4902 -47.3633 43.9941 -33.6426 40.1855 -26.4648 L 40.1855 -26.1719 Z"/>
  </g>
  <g id="Light-L" transform="matrix(1 0 0 1 1079.18 1556)">
   <path d="M 73.9258 27.4902 C 108.301 27.4902 136.621 -0.830078 136.621 -35.1562 C 136.621 -69.5312 108.252 -97.8516 73.9258 -97.8516 C 39.5508 -97.8516 11.2793 -69.5312 11.2793 -35.1562 C 11.2793 -0.830078 39.5996 27.4902 73.9258 27.4902 Z M 60.7422 -7.56836 C 58.9844 -7.56836 57.959 -8.83789 57.959 -10.5957 L 57.959 -20.459 L 36.5234 -20.459 C 33.9844 -20.459 32.2266 -21.9238 32.2266 -24.5605 C 32.2266 -25.7324 32.5195 -26.8555 33.2031 -28.1738 C 37.9883 -35.8887 47.6562 -51.123 53.0762 -59.668 C 54.6387 -62.2559 56.3477 -63.2324 58.9844 -63.2324 C 61.7188 -63.2324 63.5742 -61.5234 63.5742 -58.8379 L 63.5742 -25.7812 L 69.1406 -25.7812 C 70.7031 -25.7812 71.7773 -24.7559 71.7773 -23.0957 C 71.7773 -21.4355 70.752 -20.459 69.1406 -20.459 L 63.5742 -20.459 L 63.5742 -10.5957 C 63.5742 -8.78906 62.5977 -7.56836 60.7422 -7.56836 Z M 95.8984 -7.32422 C 87.4023 -7.32422 81.2988 -11.9141 79.2969 -17.6758 C 79.0039 -18.4082 78.8574 -19.043 78.8574 -19.8242 C 78.8574 -21.3867 80.0293 -22.5098 81.4941 -22.5098 C 82.7148 -22.5098 83.6426 -21.7285 84.2285 -20.2637 C 85.8887 -15.7227 90.7227 -12.6953 96.3867 -12.6953 C 103.662 -12.6953 108.936 -17.8223 108.936 -25.4395 C 108.936 -32.6172 104.053 -37.8906 97.0215 -37.8906 C 93.2129 -37.8906 90.2344 -36.5234 86.7676 -33.0078 C 85.4492 -31.7871 84.6191 -31.3965 83.1543 -31.3965 C 81.0547 -31.3965 79.7363 -32.959 79.8828 -35.3516 L 81.6895 -58.3984 C 81.8848 -60.791 83.4473 -62.3047 85.8887 -62.3047 L 109.912 -62.3047 C 111.279 -62.3047 112.402 -61.2305 112.402 -59.7168 C 112.402 -58.1543 111.279 -57.0801 109.912 -57.0801 L 86.7188 -57.0801 L 85.2051 -37.207 L 85.4004 -37.207 C 87.9395 -40.7227 92.8223 -42.9688 97.6074 -42.9688 C 107.715 -42.9688 114.697 -35.5957 114.697 -25.5371 C 114.697 -14.4531 107.129 -7.32422 95.8984 -7.32422 Z M 57.959 -25.7812 L 57.959 -56.8359 L 57.6172 -56.8359 C 52.9785 -49.4141 42.1875 -32.7148 38.4277 -25.9766 L 38.4277 -25.7812 Z"/>
  </g>
  <g id="Thin-L" transform="matrix(1 0 0 1 783.693 1556)">
   <path d="M 72.7051 26.3184 C 106.494 26.3184 134.18 -1.36719 134.18 -35.1074 C 134.18 -68.8965 106.494 -96.582 72.7051 -96.582 C 38.9648 -96.582 11.2793 -68.8965 11.2793 -35.1074 C 11.2793 -1.36719 38.9648 26.3184 72.7051 26.3184 Z M 59.9609 -8.10547 C 58.8379 -8.10547 58.0566 -8.88672 58.0566 -10.0586 L 58.0566 -21.4844 L 35.0098 -21.4844 C 33.0566 -21.4844 31.7383 -22.5098 31.7383 -24.3652 C 31.7383 -25.1465 31.9824 -26.0254 32.4219 -26.709 C 37.4023 -34.3262 49.3652 -52.4414 54.6875 -60.4004 C 55.8594 -62.207 57.0312 -62.793 58.7891 -62.793 C 60.6445 -62.793 61.9141 -61.6699 61.9141 -59.8633 L 61.9141 -25.1953 L 68.8965 -25.1953 C 70.0195 -25.1953 70.752 -24.4141 70.752 -23.291 C 70.752 -22.2168 70.0684 -21.4844 68.8965 -21.4844 L 61.9141 -21.4844 L 61.9141 -10.0586 C 61.9141 -8.88672 61.1816 -8.10547 59.9609 -8.10547 Z M 94.9707 -7.71484 C 86.3281 -7.71484 80.5664 -12.5 78.5645 -18.5059 C 78.3203 -19.0918 78.2227 -19.4824 78.2227 -19.9707 C 78.2227 -21.0938 79.1016 -21.7773 80.0293 -21.7773 C 81.0547 -21.7773 81.5918 -21.0938 81.9336 -20.0684 C 83.4473 -15.0391 88.9648 -11.5234 95.459 -11.5234 C 103.418 -11.5234 109.424 -17.3828 109.424 -25.5371 C 109.424 -33.4961 103.809 -39.3066 95.8496 -39.3066 C 91.3574 -39.3066 87.6953 -37.6465 83.7402 -33.252 C 83.0078 -32.4219 82.4707 -32.1777 81.4453 -32.1777 C 80.0781 -32.1777 79.1504 -33.2031 79.248 -34.7656 L 81.2012 -59.6191 C 81.2988 -61.2305 82.3242 -62.3047 83.9844 -62.3047 L 108.984 -62.3047 C 109.961 -62.3047 110.84 -61.5723 110.84 -60.498 C 110.84 -59.375 109.961 -58.6426 108.984 -58.6426 L 84.8145 -58.6426 L 83.1055 -36.6211 L 83.2031 -36.6211 C 86.1328 -40.5273 91.1621 -42.8711 96.2402 -42.8711 C 106.25 -42.8711 113.281 -35.5469 113.281 -25.5859 C 113.281 -14.8926 105.859 -7.71484 94.9707 -7.71484 Z M 58.0566 -25.1953 L 58.0566 -58.3496 L 57.8125 -58.3496 C 53.5645 -52.0996 39.7461 -31.543 36.084 -25.3906 L 36.084 -25.1953 Z"/>
  </g>
  <g id="Ultralight-L" transform="matrix(1 0 0 1 487.616 1556)">
   <path d="M 72.1191 25.7324 C 105.566 25.7324 132.91 -1.61133 132.91 -35.1074 C 132.91 -68.5547 105.566 -95.8984 72.1191 -95.8984 C 38.623 -95.8984 11.2793 -68.5547 11.2793 -35.1074 C 11.2793 -1.61133 38.623 25.7324 72.1191 25.7324 Z M 59.5703 -8.39844 C 58.7891 -8.39844 58.1055 -8.88672 58.1055 -9.81445 L 58.1055 -22.0215 L 34.2285 -22.0215 C 32.6172 -22.0215 31.4941 -22.8027 31.4941 -24.2676 C 31.4941 -24.8047 31.7383 -25.5859 31.9824 -25.9766 C 37.1094 -33.4961 50.1953 -53.125 55.5176 -60.791 C 56.4453 -62.207 57.373 -62.5977 58.6914 -62.5977 C 60.0586 -62.5977 61.0352 -61.7676 61.0352 -60.3516 L 61.0352 -24.9023 L 68.7988 -24.9023 C 69.6289 -24.9023 70.2148 -24.2676 70.2148 -23.4375 C 70.2148 -22.6074 69.7266 -22.0215 68.7988 -22.0215 L 61.0352 -22.0215 L 61.0352 -9.81445 C 61.0352 -8.88672 60.4492 -8.39844 59.5703 -8.39844 Z M 94.5312 -7.95898 C 85.791 -7.95898 80.1758 -12.8418 78.1738 -18.8965 C 77.9297 -19.4336 77.8809 -19.6777 77.8809 -20.0195 C 77.8809 -20.9473 78.6133 -21.4355 79.2969 -21.4355 C 80.1758 -21.4355 80.5664 -20.8008 80.7617 -19.9219 C 82.1777 -14.6973 88.0371 -10.9375 95.0195 -10.9375 C 103.32 -10.9375 109.668 -17.1387 109.668 -25.5371 C 109.668 -33.9844 103.711 -40.0391 95.2637 -40.0391 C 90.4297 -40.0391 86.4258 -38.1836 82.1777 -33.3984 C 81.7871 -32.7637 81.3477 -32.5684 80.5664 -32.5684 C 79.541 -32.5684 78.8574 -33.3008 78.9062 -34.4727 L 80.957 -60.2539 C 81.0059 -61.4258 81.7871 -62.3047 83.0078 -62.3047 L 108.496 -62.3047 C 109.326 -62.3047 110.059 -61.7188 110.059 -60.8887 C 110.059 -60.0098 109.326 -59.4727 108.496 -59.4727 L 83.8379 -59.4727 L 82.0312 -36.3281 L 82.0801 -36.3281 C 85.2051 -40.4785 90.332 -42.8223 95.5566 -42.8223 C 105.469 -42.8223 112.598 -35.498 112.598 -25.6348 C 112.598 -15.1367 105.225 -7.95898 94.5312 -7.95898 Z M 58.1055 -24.9023 L 58.1055 -59.1309 L 57.8613 -59.1309 C 53.9062 -53.4668 38.5254 -30.957 34.9121 -25.0488 L 34.9121 -24.9023 Z"/>
  </g>
  <g id="Black-M" transform="matrix(1 0 0 1 2870.97 1126)">
   <path d="M 62.4023 18.457 C 91.9922 18.457 116.113 -5.61523 116.113 -35.2051 C 116.113 -64.7949 91.9922 -88.8672 62.4023 -88.8672 C 32.8125 -88.8672 8.74023 -64.7949 8.74023 -35.2051 C 8.74023 -5.61523 32.8125 18.457 62.4023 18.457 Z M 53.4668 -16.2109 C 50.7812 -16.2109 48.9258 -18.0176 48.9258 -20.6543 L 48.9258 -22.998 L 41.1621 -22.998 C 37.0117 -22.998 34.9609 -25.2441 34.9609 -29.1504 C 34.9609 -31.5918 35.5957 -33.8379 36.2793 -35.8398 C 37.1582 -38.9648 39.3555 -44.5801 41.1621 -48.291 C 43.0664 -52.3926 45.752 -54.2969 50.3906 -54.2969 C 55.7129 -54.2969 58.0566 -51.2207 58.0566 -46.1426 L 58.0566 -31.8848 L 58.5449 -31.8848 C 61.1328 -31.8848 62.5977 -30.0781 62.5977 -27.3926 C 62.5977 -24.7559 61.1328 -23.1445 58.5449 -23.1445 L 58.0566 -23.1445 L 58.0566 -20.6543 C 58.0566 -18.0176 56.25 -16.2109 53.4668 -16.2109 Z M 76.9531 -16.2109 C 71.2891 -16.2109 67.5293 -19.5312 66.3086 -21.875 C 65.7227 -22.9492 65.6738 -23.7793 65.6738 -24.6582 C 65.6738 -27.2949 67.7246 -29.1504 70.0684 -29.1504 C 72.2656 -29.1504 72.998 -27.7832 73.9258 -27.1484 C 74.9512 -26.416 75.7324 -25.2441 77.5391 -25.2441 C 79.5898 -25.2441 80.957 -27.0996 80.957 -29.2969 C 80.957 -31.3965 79.5898 -33.1055 77.832 -33.1055 C 76.5137 -33.1055 75.7324 -32.666 74.5605 -31.8848 C 73.7305 -31.3477 72.6074 -30.7129 70.1172 -30.7129 C 67.1387 -30.7129 65.1855 -32.6172 65.332 -35.791 L 65.8691 -47.8516 C 66.1133 -51.5137 67.7734 -53.6621 70.9961 -53.6621 L 84.668 -53.6621 C 87.6953 -53.6621 89.3066 -52.1973 89.3066 -49.2676 C 89.3066 -46.3867 87.5488 -44.7266 84.668 -44.7266 L 74.6582 -44.7266 L 74.1699 -37.6465 L 74.2676 -37.6465 C 75.7324 -39.7461 78.125 -40.918 80.8105 -40.918 C 85.791 -40.918 90.4785 -37.1094 90.4785 -29.9316 C 90.4785 -21.6309 85.5957 -16.2109 76.9531 -16.2109 Z M 48.9258 -31.7871 L 48.9258 -44.7266 L 48.7793 -44.7266 C 47.5586 -41.3086 45.6055 -34.8633 44.6777 -31.9824 L 44.6777 -31.7871 Z"/>
  </g>
  <g id="Heavy-M" transform="matrix(1 0 0 1 2575.19 1126)">
   <path d="M 61.5234 17.5781 C 90.5273 17.5781 114.258 -6.15234 114.258 -35.2051 C 114.258 -64.2578 90.5273 -87.9883 61.4746 -87.9883 C 32.4707 -87.9883 8.74023 -64.2578 8.74023 -35.2051 C 8.74023 -6.15234 32.4707 17.5781 61.5234 17.5781 Z M 52.1484 -15.5273 C 49.6094 -15.5273 47.9492 -17.2363 47.9492 -19.7266 L 47.9492 -22.9492 L 38.4766 -22.9492 C 34.7168 -22.9492 32.7148 -25.0488 32.7148 -28.6621 C 32.7148 -30.8594 33.252 -32.8613 33.9844 -34.7656 C 35.4492 -38.5742 38.3789 -44.9707 40.7715 -49.5117 C 42.627 -53.2715 45.1172 -55.0293 49.3652 -55.0293 C 54.1016 -55.0293 56.3965 -52.2461 56.3965 -47.6562 L 56.3965 -31.1035 L 57.4219 -31.1035 C 59.8145 -31.1035 61.1816 -29.4434 61.1816 -26.9531 C 61.1816 -24.5117 59.8145 -23.0469 57.4219 -23.0469 L 56.3965 -23.0469 L 56.3965 -19.7266 C 56.3965 -17.2363 54.7363 -15.5273 52.1484 -15.5273 Z M 76.5625 -15.4785 C 70.7031 -15.4785 66.6504 -18.7988 65.332 -21.6309 C 64.8438 -22.6074 64.7461 -23.4375 64.7461 -24.2676 C 64.7461 -26.709 66.6016 -28.418 68.7988 -28.418 C 70.752 -28.418 71.5332 -27.1973 72.4609 -26.3672 C 73.584 -25.0977 74.8535 -23.7793 77.0508 -23.7793 C 79.7852 -23.7793 81.6895 -25.9277 81.6895 -28.9062 C 81.6895 -31.5918 79.8828 -33.7402 77.4902 -33.7402 C 75.9277 -33.7402 74.9512 -33.252 73.5352 -32.1777 C 72.5098 -31.4453 71.4355 -30.9082 69.1895 -30.9082 C 66.3574 -30.9082 64.5508 -32.7637 64.6484 -35.8398 L 65.3809 -48.7793 C 65.625 -52.2461 67.334 -54.248 70.4102 -54.248 L 85.0098 -54.248 C 87.6465 -54.248 89.1602 -52.8809 89.1602 -50.2441 C 89.1602 -47.6074 87.5488 -46.0938 85.0098 -46.0938 L 73.3398 -46.0938 L 72.7539 -37.5488 L 72.9004 -37.5488 C 74.3652 -39.7461 77.0508 -41.0156 79.9316 -41.0156 C 85.5957 -41.0156 90.4297 -36.7676 90.4297 -29.4434 C 90.4297 -20.9473 85.3027 -15.4785 76.5625 -15.4785 Z M 47.9492 -31.0059 L 47.9492 -46.0938 L 47.7539 -46.0938 C 45.8984 -41.7969 43.1152 -34.7656 41.6992 -31.2012 L 41.6992 -31.0059 Z"/>
  </g>
  <g id="Bold-M" transform="matrix(1 0 0 1 2279.5 1126)">
   <path d="M 60.498 16.5039 C 88.8672 16.5039 112.207 -6.78711 112.207 -35.2051 C 112.207 -63.623 88.8672 -86.9629 60.4492 -86.9629 C 32.0312 -86.9629 8.74023 -63.623 8.74023 -35.2051 C 8.74023 -6.78711 32.0801 16.5039 60.498 16.5039 Z M 50.6836 -14.7461 C 48.291 -14.7461 46.875 -16.3574 46.875 -18.6523 L 46.875 -22.8516 L 35.498 -22.8516 C 32.1289 -22.8516 30.1758 -24.8047 30.1758 -28.125 C 30.1758 -30.0293 30.6641 -31.7383 31.3965 -33.5449 C 33.5938 -38.1836 37.3047 -45.4102 40.332 -50.8789 C 42.0898 -54.2969 44.3848 -55.8105 48.1934 -55.8105 C 52.2949 -55.8105 54.541 -53.3203 54.541 -49.3164 L 54.541 -30.1758 L 56.1523 -30.1758 C 58.3496 -30.1758 59.6191 -28.7598 59.6191 -26.5137 C 59.6191 -24.2676 58.3496 -22.9492 56.1523 -22.9492 L 54.541 -22.9492 L 54.541 -18.6523 C 54.541 -16.3574 53.0762 -14.7461 50.6836 -14.7461 Z M 76.0742 -14.6973 C 70.0684 -14.6973 65.625 -18.0176 64.2578 -21.3379 C 63.8184 -22.2168 63.7207 -23.0469 63.7207 -23.877 C 63.7207 -26.0254 65.332 -27.6367 67.334 -27.6367 C 69.043 -27.6367 69.9219 -26.5625 70.752 -25.5371 C 72.0215 -23.584 73.9258 -22.1191 76.5625 -22.1191 C 80.0781 -22.1191 82.4707 -24.6094 82.4707 -28.4668 C 82.4707 -31.8359 80.2246 -34.4727 77.0996 -34.4727 C 75.293 -34.4727 74.1211 -33.8867 72.4609 -32.5684 C 71.1914 -31.5918 70.166 -31.1035 68.1641 -31.1035 C 65.4785 -31.1035 63.8184 -32.9102 63.916 -35.8887 L 64.8438 -49.8535 C 65.0879 -53.0762 66.7969 -54.9316 69.7266 -54.9316 L 85.4004 -54.9316 C 87.6465 -54.9316 89.0137 -53.6621 89.0137 -51.3672 C 89.0137 -49.0234 87.5488 -47.6562 85.4004 -47.6562 L 71.875 -47.6562 L 71.1426 -37.5 L 71.3379 -37.5 C 72.8516 -39.6973 75.8789 -41.1621 78.9062 -41.1621 C 85.3516 -41.1621 90.3809 -36.3281 90.3809 -28.8086 C 90.3809 -20.166 84.9609 -14.6973 76.0742 -14.6973 Z M 46.875 -30.127 L 46.875 -47.6074 L 46.6309 -47.6074 C 43.9941 -42.3828 40.3809 -34.668 38.3789 -30.3223 L 38.3789 -30.127 Z"/>
  </g>
  <g id="Semibold-M" transform="matrix(1 0 0 1 1983.5 1126)">
   <path d="M 59.7656 15.8203 C 87.7441 15.8203 110.791 -7.22656 110.791 -35.2051 C 110.791 -63.1836 87.6953 -86.2793 59.7656 -86.2793 C 31.7871 -86.2793 8.74023 -63.1836 8.74023 -35.2051 C 8.74023 -7.22656 31.7871 15.8203 59.7656 15.8203 Z M 49.6094 -14.209 C 47.4121 -14.209 46.1426 -15.7715 46.1426 -17.9688 L 46.1426 -22.8027 L 33.4473 -22.8027 C 30.3711 -22.8027 28.4668 -24.6582 28.4668 -27.7832 C 28.4668 -29.4922 28.8574 -30.957 29.6387 -32.7148 C 32.2754 -37.8906 36.5234 -45.7031 39.9902 -51.8066 C 41.748 -55.0293 43.8477 -56.3965 47.3633 -56.3965 C 51.0742 -56.3965 53.2227 -54.1016 53.2227 -50.4883 L 53.2227 -29.541 L 55.3223 -29.541 C 57.3242 -29.541 58.5449 -28.2715 58.5449 -26.1719 C 58.5449 -24.0723 57.3242 -22.8516 55.3223 -22.8516 L 53.2227 -22.8516 L 53.2227 -17.9688 C 53.2227 -15.7227 51.9043 -14.209 49.6094 -14.209 Z M 75.7812 -14.1602 C 69.5801 -14.1602 64.9414 -17.4805 63.5254 -21.1426 C 63.1348 -21.9727 63.0371 -22.7539 63.0371 -23.584 C 63.0371 -25.5859 64.4531 -27.0508 66.3574 -27.0508 C 67.8711 -27.0508 68.7988 -26.123 69.6289 -24.9023 C 70.9473 -22.5586 73.2422 -20.9473 76.2207 -20.9473 C 80.2246 -20.9473 83.0078 -23.7305 83.0078 -28.125 C 83.0078 -31.9824 80.4199 -34.9609 76.8066 -34.9609 C 74.8535 -34.9609 73.4863 -34.3262 71.6797 -32.8125 C 70.3125 -31.6895 69.2871 -31.25 67.4316 -31.25 C 64.8926 -31.25 63.2812 -33.0078 63.4277 -35.8887 L 64.4531 -50.5859 C 64.6973 -53.6133 66.4062 -55.4199 69.2871 -55.4199 L 85.6445 -55.4199 C 87.6465 -55.4199 88.8672 -54.1504 88.8672 -52.0996 C 88.8672 -50 87.5488 -48.6816 85.6445 -48.6816 L 70.8984 -48.6816 L 70.0684 -37.4512 L 70.2637 -37.4512 C 71.7773 -39.6973 75.0488 -41.2109 78.2227 -41.2109 C 85.2051 -41.2109 90.3809 -36.084 90.3809 -28.418 C 90.3809 -19.6289 84.7168 -14.1602 75.7812 -14.1602 Z M 46.1426 -29.541 L 46.1426 -48.6328 L 45.8496 -48.6328 C 42.6758 -42.7734 38.4766 -34.6191 36.1328 -29.7363 L 36.1328 -29.541 Z"/>
  </g>
  <g id="Medium-M" transform="matrix(1 0 0 1 1687.3 1126)">
   <path d="M 59.2285 15.2832 C 86.9141 15.2832 109.766 -7.56836 109.766 -35.2051 C 109.766 -62.8906 86.8652 -85.7422 59.1797 -85.7422 C 31.543 -85.7422 8.74023 -62.8906 8.74023 -35.2051 C 8.74023 -7.56836 31.5918 15.2832 59.2285 15.2832 Z M 48.8281 -13.7695 C 46.7285 -13.7695 45.5566 -15.332 45.5566 -17.4316 L 45.5566 -22.8027 L 31.8848 -22.8027 C 29.0039 -22.8027 27.1484 -24.5117 27.1484 -27.4902 C 27.1484 -29.0527 27.4902 -30.3711 28.3203 -32.0312 C 31.2988 -37.6465 35.9863 -45.8984 39.7949 -52.4902 C 41.4551 -55.5176 43.457 -56.7871 46.7773 -56.7871 C 50.1465 -56.7871 52.2461 -54.6875 52.2461 -51.3672 L 52.2461 -29.1016 L 54.6387 -29.1016 C 56.543 -29.1016 57.7148 -27.8809 57.7148 -25.9277 C 57.7148 -23.9746 56.543 -22.8027 54.6387 -22.8027 L 52.2461 -22.8027 L 52.2461 -17.4316 C 52.2461 -15.2832 51.0742 -13.7695 48.8281 -13.7695 Z M 75.5371 -13.7207 C 69.2383 -13.7207 64.4043 -17.041 62.9395 -20.9961 C 62.6465 -21.7773 62.5 -22.5586 62.5 -23.3887 C 62.5 -25.2441 63.8184 -26.6113 65.625 -26.6113 C 66.9922 -26.6113 67.9688 -25.8301 68.75 -24.4629 C 70.1172 -21.8262 72.7539 -20.1172 75.9766 -20.1172 C 80.3711 -20.1172 83.3984 -23.0469 83.3984 -27.8809 C 83.3984 -32.1289 80.6152 -35.3516 76.6113 -35.3516 C 74.5605 -35.3516 73.0469 -34.6191 71.0938 -32.959 C 69.6289 -31.7871 68.6035 -31.3477 66.8945 -31.3477 C 64.4531 -31.3477 62.8906 -33.1055 63.0371 -35.8887 L 64.1602 -51.1719 C 64.4043 -54.0527 66.1621 -55.7617 68.9453 -55.7617 L 85.8887 -55.7617 C 87.5977 -55.7617 88.7695 -54.541 88.7695 -52.6855 C 88.7695 -50.7324 87.5488 -49.5117 85.8887 -49.5117 L 70.1172 -49.5117 L 69.2383 -37.4023 L 69.4824 -37.4023 C 70.9961 -39.6484 74.4141 -41.2598 77.7344 -41.2598 C 85.1074 -41.2598 90.332 -35.8887 90.332 -28.0762 C 90.332 -19.1895 84.5215 -13.7207 75.5371 -13.7207 Z M 45.5566 -29.0527 L 45.5566 -49.4141 L 45.2637 -49.4141 C 41.6992 -43.0664 37.0117 -34.5703 34.375 -29.2969 L 34.375 -29.0527 Z"/>
  </g>
  <g id="Regular-M" transform="matrix(1 0 0 1 1391.3 1126)">
   <path d="M 58.5449 14.5508 C 85.791 14.5508 108.35 -8.00781 108.35 -35.2539 C 108.35 -62.4512 85.7422 -85.0586 58.4961 -85.0586 C 31.2988 -85.0586 8.74023 -62.4512 8.74023 -35.2539 C 8.74023 -8.00781 31.3477 14.5508 58.5449 14.5508 Z M 47.8516 -13.2324 C 45.8008 -13.2324 44.8242 -14.6973 44.8242 -16.6992 L 44.8242 -22.7539 L 29.834 -22.7539 C 27.2461 -22.7539 25.4395 -24.3652 25.4395 -27.1484 C 25.4395 -28.5156 25.7324 -29.6387 26.5625 -31.2012 C 30.0293 -37.3535 35.2051 -46.1914 39.502 -53.418 C 41.1133 -56.25 42.9688 -57.3242 45.9473 -57.3242 C 48.9258 -57.3242 50.9766 -55.4199 50.9766 -52.5391 L 50.9766 -28.4668 L 53.8086 -28.4668 C 55.5176 -28.4668 56.6406 -27.4414 56.6406 -25.5859 C 56.6406 -23.7793 55.5176 -22.7539 53.8086 -22.7539 L 50.9766 -22.7539 L 50.9766 -16.6992 C 50.9766 -14.6484 49.9023 -13.2324 47.8516 -13.2324 Z M 75.2441 -13.1836 C 68.7988 -13.1836 63.7207 -16.5039 62.207 -20.8008 C 61.9629 -21.4844 61.7676 -22.2656 61.7676 -23.1445 C 61.7676 -24.8047 62.9395 -26.0742 64.6484 -26.0742 C 65.8203 -26.0742 66.8457 -25.3906 67.627 -23.877 C 69.0918 -20.8008 72.0703 -18.9453 75.6348 -18.9453 C 80.5176 -18.9453 83.9355 -22.168 83.9355 -27.5879 C 83.9355 -32.2754 80.8594 -35.8398 76.3672 -35.8398 C 74.1211 -35.8398 72.4609 -35.0586 70.3125 -33.252 C 68.7012 -31.8848 67.7734 -31.4941 66.2109 -31.4941 C 63.8184 -31.4941 62.4023 -33.2031 62.5488 -35.9375 L 63.8184 -51.9043 C 64.0137 -54.6387 65.7715 -56.25 68.5059 -56.25 L 86.1328 -56.25 C 87.5977 -56.25 88.6719 -55.0781 88.6719 -53.418 C 88.6719 -51.709 87.5488 -50.5371 86.1328 -50.5371 L 69.1406 -50.5371 L 68.1641 -37.3535 L 68.4082 -37.3535 C 69.9707 -39.6484 73.584 -41.3574 77.0508 -41.3574 C 84.9609 -41.3574 90.2832 -35.5957 90.2832 -27.6855 C 90.2832 -18.6523 84.2773 -13.1836 75.2441 -13.1836 Z M 44.8242 -28.4668 L 44.8242 -50.4395 L 44.4824 -50.4395 C 40.4297 -43.457 35.1562 -34.4727 32.1289 -28.7109 L 32.1289 -28.4668 Z"/>
  </g>
  <g id="Light-M" transform="matrix(1 0 0 1 1095.42 1126)">
   <path d="M 57.7148 13.7695 C 84.5215 13.7695 106.689 -8.39844 106.689 -35.2051 C 106.689 -62.0117 84.5215 -84.1797 57.666 -84.1797 C 30.8594 -84.1797 8.74023 -62.0117 8.74023 -35.2051 C 8.74023 -8.39844 30.9082 13.7695 57.7148 13.7695 Z M 47.3145 -13.623 C 45.752 -13.623 44.873 -14.7461 44.873 -16.3574 L 44.873 -23.4375 L 28.8086 -23.4375 C 26.6113 -23.4375 25.0977 -24.7559 25.0977 -27.002 C 25.0977 -28.0762 25.3906 -29.0527 26.0254 -30.2246 C 29.6387 -36.2793 36.377 -47.1191 40.5762 -53.9062 C 41.9434 -56.2012 43.4082 -57.0801 45.8008 -57.0801 C 48.1934 -57.0801 49.8535 -55.5176 49.8535 -53.1738 L 49.8535 -28.0762 L 53.6621 -28.0762 C 55.0293 -28.0762 55.957 -27.1973 55.957 -25.7324 C 55.957 -24.2676 55.0781 -23.4375 53.6621 -23.4375 L 49.8535 -23.4375 L 49.8535 -16.3574 C 49.8535 -14.6973 48.9746 -13.623 47.3145 -13.623 Z M 74.6094 -13.4766 C 68.0664 -13.4766 63.2324 -16.9434 61.7188 -21.3379 C 61.4746 -21.9727 61.3281 -22.5586 61.3281 -23.2422 C 61.3281 -24.6094 62.3047 -25.5859 63.6719 -25.5859 C 64.6973 -25.5859 65.4785 -24.9512 66.0645 -23.7305 C 67.3828 -20.3125 70.8984 -18.1641 75 -18.1641 C 80.3711 -18.1641 84.2773 -21.875 84.2773 -27.6367 C 84.2773 -32.8613 80.7129 -36.8164 75.5859 -36.8164 C 72.8516 -36.8164 70.752 -35.8398 68.2617 -33.3984 C 67.041 -32.3242 66.3086 -32.0312 65.0391 -32.0312 C 63.1836 -32.0312 62.0117 -33.3984 62.1094 -35.5469 L 63.4766 -52.7344 C 63.623 -54.8828 65.0391 -56.25 67.2363 -56.25 L 85.498 -56.25 C 86.7188 -56.25 87.5977 -55.2734 87.5977 -53.9551 C 87.5977 -52.5879 86.6699 -51.6113 85.498 -51.6113 L 67.8223 -51.6113 L 66.748 -36.9629 L 66.9434 -36.9629 C 68.75 -39.5508 72.4609 -41.2598 76.123 -41.2598 C 83.9844 -41.2598 89.3555 -35.5469 89.3555 -27.7344 C 89.3555 -18.9941 83.4473 -13.4766 74.6094 -13.4766 Z M 44.873 -28.0762 L 44.873 -51.4648 L 44.5801 -51.4648 C 40.8203 -45.3125 33.4961 -33.6914 30.5664 -28.2715 L 30.5664 -28.0762 Z"/>
  </g>
  <g id="Thin-M" transform="matrix(1 0 0 1 799.806 1126)">
   <path d="M 56.6406 12.7441 C 82.9102 12.7441 104.492 -8.83789 104.492 -35.1562 C 104.492 -61.4746 82.9102 -83.0566 56.5918 -83.0566 C 30.3223 -83.0566 8.74023 -61.4746 8.74023 -35.1562 C 8.74023 -8.83789 30.3223 12.7441 56.6406 12.7441 Z M 46.6309 -14.1113 C 45.6055 -14.1113 44.9707 -14.7949 44.9707 -15.8691 L 44.9707 -24.3652 L 27.4414 -24.3652 C 25.8301 -24.3652 24.707 -25.2441 24.707 -26.8555 C 24.707 -27.5391 24.9023 -28.2715 25.293 -28.9551 C 29.1016 -34.8633 37.8906 -48.291 42.041 -54.5898 C 43.0176 -56.1523 44.043 -56.6895 45.6055 -56.6895 C 47.2168 -56.6895 48.3398 -55.7129 48.3398 -54.1016 L 48.3398 -27.5879 L 53.4668 -27.5879 C 54.3945 -27.5879 55.0293 -26.9043 55.0293 -25.9277 C 55.0293 -24.9512 54.4434 -24.3652 53.4668 -24.3652 L 48.3398 -24.3652 L 48.3398 -15.8691 C 48.3398 -14.7949 47.7051 -14.1113 46.6309 -14.1113 Z M 73.8281 -13.8184 C 67.1387 -13.8184 62.5977 -17.4805 61.0352 -22.0703 C 60.8398 -22.5586 60.7422 -22.9492 60.7422 -23.3398 C 60.7422 -24.3652 61.4746 -24.9512 62.3535 -24.9512 C 63.1836 -24.9512 63.6719 -24.4141 64.0137 -23.5352 C 65.1855 -19.7266 69.3359 -17.1387 74.1699 -17.1387 C 80.1758 -17.1387 84.7168 -21.4844 84.7168 -27.6855 C 84.7168 -33.6914 80.5176 -38.0859 74.5605 -38.0859 C 71.1914 -38.0859 68.5059 -36.8652 65.5273 -33.6426 C 64.8438 -32.9102 64.3555 -32.7148 63.4766 -32.7148 C 62.2559 -32.7148 61.4746 -33.5938 61.5234 -35.0098 L 63.0371 -53.8574 C 63.1348 -55.2734 64.0625 -56.2012 65.5273 -56.2012 L 84.668 -56.2012 C 85.498 -56.2012 86.2305 -55.5664 86.2305 -54.6387 C 86.2305 -53.6621 85.498 -53.0273 84.668 -53.0273 L 66.1133 -53.0273 L 64.8438 -36.4258 L 64.9414 -36.4258 C 67.1387 -39.4043 70.9961 -41.1621 74.9023 -41.1621 C 82.666 -41.1621 88.0859 -35.498 88.0859 -27.7832 C 88.0859 -19.3848 82.3242 -13.8184 73.8281 -13.8184 Z M 44.9707 -27.5879 L 44.9707 -52.832 L 44.7754 -52.832 C 41.4062 -47.7051 31.3477 -32.6172 28.4668 -27.7344 L 28.4668 -27.5879 Z"/>
  </g>
  <g id="Ultralight-M" transform="matrix(1 0 0 1 503.656 1126)">
   <path d="M 56.0547 12.207 C 82.0801 12.207 103.369 -9.08203 103.369 -35.1562 C 103.369 -61.1816 82.0801 -82.4707 56.0547 -82.4707 C 30.0293 -82.4707 8.74023 -61.1816 8.74023 -35.1562 C 8.74023 -9.08203 30.0293 12.207 56.0547 12.207 Z M 46.2891 -14.3555 C 45.5566 -14.3555 45.0195 -14.8438 45.0195 -15.625 L 45.0195 -24.8047 L 26.7578 -24.8047 C 25.3906 -24.8047 24.5117 -25.4883 24.5117 -26.7578 C 24.5117 -27.2461 24.6582 -27.8809 24.9023 -28.2715 C 28.8574 -34.1309 38.6719 -48.877 42.7734 -54.9316 C 43.5547 -56.1523 44.3359 -56.4941 45.5078 -56.4941 C 46.7285 -56.4941 47.5586 -55.7617 47.5586 -54.541 L 47.5586 -27.3438 L 53.3691 -27.3438 C 54.1016 -27.3438 54.5898 -26.7578 54.5898 -26.0254 C 54.5898 -25.293 54.1504 -24.8047 53.3691 -24.8047 L 47.5586 -24.8047 L 47.5586 -15.625 C 47.5586 -14.8438 47.0703 -14.3555 46.2891 -14.3555 Z M 73.3887 -14.0137 C 66.6504 -14.0137 62.2559 -17.7734 60.6934 -22.4609 C 60.498 -22.9004 60.4492 -23.1445 60.4492 -23.4375 C 60.4492 -24.2188 61.0352 -24.6582 61.6699 -24.6582 C 62.4023 -24.6582 62.7441 -24.1211 62.9395 -23.3887 C 64.0625 -19.3848 68.5059 -16.6016 73.7793 -16.6016 C 80.0781 -16.6016 84.9121 -21.2891 84.9121 -27.7344 C 84.9121 -34.1309 80.4199 -38.7207 74.0234 -38.7207 C 70.3613 -38.7207 67.334 -37.3535 64.1602 -33.7891 C 63.7207 -33.252 63.3789 -33.0566 62.6953 -33.0566 C 61.8164 -33.0566 61.1816 -33.6914 61.2793 -34.7168 L 62.8418 -54.4434 C 62.8906 -55.4688 63.5254 -56.2012 64.6484 -56.2012 L 84.2285 -56.2012 C 84.9121 -56.2012 85.5469 -55.7129 85.5469 -54.9805 C 85.5469 -54.248 84.9121 -53.7598 84.2285 -53.7598 L 65.2832 -53.7598 L 63.8672 -36.1816 L 63.916 -36.1816 C 66.3086 -39.3066 70.2637 -41.1133 74.2676 -41.1133 C 81.9824 -41.1133 87.4512 -35.4492 87.4512 -27.7832 C 87.4512 -19.5801 81.7383 -14.0137 73.3887 -14.0137 Z M 45.0195 -27.3438 L 45.0195 -53.5156 L 44.8242 -53.5156 C 41.6504 -48.9258 30.2246 -32.0801 27.3926 -27.4414 L 27.3926 -27.3438 Z"/>
  </g>
  <g id="Black-S" transform="matrix(1 0 0 1 2884.57 696)">
   <path d="M 48.8281 6.78711 C 71.9727 6.78711 90.8203 -12.0605 90.8203 -35.2051 C 90.8203 -58.3496 71.9727 -77.1973 48.8281 -77.1973 C 25.6836 -77.1973 6.83594 -58.3496 6.83594 -35.2051 C 6.83594 -12.0605 25.6836 6.78711 48.8281 6.78711 Z M 41.7969 -20.2637 C 39.6973 -20.2637 38.2324 -21.6797 38.2324 -23.7305 L 38.2324 -25.6348 L 32.0312 -25.6348 C 28.8086 -25.6348 27.1973 -27.3926 27.1973 -30.4199 C 27.1973 -32.3242 27.6855 -34.082 28.2227 -35.6445 C 28.9551 -38.1348 30.7129 -42.5781 32.1777 -45.5566 C 33.6914 -48.7305 35.791 -50.2441 39.4043 -50.2441 C 43.5059 -50.2441 45.3613 -47.8516 45.3613 -43.8965 L 45.3613 -32.5684 L 45.752 -32.5684 C 47.8027 -32.5684 48.9258 -31.1523 48.9258 -29.0527 C 48.9258 -27.002 47.8027 -25.7324 45.752 -25.7324 L 45.3613 -25.7324 L 45.3613 -23.7305 C 45.3613 -21.6797 43.9453 -20.2637 41.7969 -20.2637 Z M 60.2539 -20.2637 C 55.8105 -20.2637 52.832 -22.8516 51.8555 -24.7559 C 51.416 -25.5859 51.3672 -26.2207 51.3672 -26.9043 C 51.3672 -28.9551 52.9785 -30.4199 54.7852 -30.4199 C 56.4941 -30.4199 57.0801 -29.3457 57.8125 -28.8574 C 58.6426 -28.2227 59.2773 -27.2949 60.6934 -27.2949 C 62.3535 -27.2949 63.4766 -28.7598 63.4766 -30.5664 C 63.4766 -32.2266 62.3535 -33.5938 60.9375 -33.5938 C 59.9121 -33.5938 59.2773 -33.252 58.3496 -32.6172 C 57.666 -32.1777 56.7871 -31.6895 54.8828 -31.6895 C 52.5391 -31.6895 51.0254 -33.2031 51.123 -35.6934 L 51.5625 -45.166 C 51.7578 -48.0469 53.0762 -49.707 55.5664 -49.707 L 66.3574 -49.707 C 68.7012 -49.707 69.9707 -48.584 69.9707 -46.2891 C 69.9707 -44.043 68.6035 -42.7734 66.3574 -42.7734 L 58.3984 -42.7734 L 58.0078 -37.1094 L 58.1055 -37.1094 C 59.2285 -38.7695 61.1328 -39.6973 63.2324 -39.6973 C 67.1875 -39.6973 70.8984 -36.6699 70.8984 -31.0547 C 70.8984 -24.5117 67.041 -20.2637 60.2539 -20.2637 Z M 38.2324 -32.4707 L 38.2324 -42.7734 L 38.1348 -42.7734 C 37.1094 -39.9902 35.5469 -34.9609 34.7656 -32.6172 L 34.7656 -32.4707 Z"/>
  </g>
  <g id="Heavy-S" transform="matrix(1 0 0 1 2588.47 696)">
   <path d="M 48.2422 6.15234 C 70.9961 6.15234 89.5996 -12.4512 89.5996 -35.2051 C 89.5996 -57.959 70.9961 -76.6113 48.1934 -76.6113 C 25.4395 -76.6113 6.83594 -57.959 6.83594 -35.2051 C 6.83594 -12.4512 25.4395 6.15234 48.2422 6.15234 Z M 40.8203 -19.6777 C 38.8184 -19.6777 37.5 -21.0938 37.5 -23.0469 L 37.5 -25.4883 L 30.127 -25.4883 C 27.0996 -25.4883 25.5371 -27.1973 25.5371 -30.0781 C 25.5371 -31.8359 25.9277 -33.3984 26.5137 -34.9121 C 27.7344 -37.9883 29.834 -42.7734 31.7383 -46.4355 C 33.252 -49.4141 35.2539 -50.8301 38.623 -50.8301 C 42.3828 -50.8301 44.1895 -48.584 44.1895 -44.9707 L 44.1895 -31.9824 L 44.9219 -31.9824 C 46.8262 -31.9824 47.9492 -30.7129 47.9492 -28.7109 C 47.9492 -26.7578 46.8262 -25.5859 44.9219 -25.5859 L 44.1895 -25.5859 L 44.1895 -23.0469 C 44.1895 -21.0938 42.9199 -19.6777 40.8203 -19.6777 Z M 60.0098 -19.6777 C 55.4199 -19.6777 52.1973 -22.2656 51.1719 -24.5117 C 50.7812 -25.293 50.7324 -25.9277 50.7324 -26.6113 C 50.7324 -28.5156 52.1973 -29.9316 53.9062 -29.9316 C 55.4688 -29.9316 56.1035 -28.9551 56.8359 -28.2715 C 57.7637 -27.2461 58.7402 -26.2695 60.4004 -26.2695 C 62.5488 -26.2695 63.9648 -27.9297 63.9648 -30.2246 C 63.9648 -32.3242 62.5977 -33.9844 60.7422 -33.9844 C 59.6191 -33.9844 58.8867 -33.5938 57.8125 -32.8613 C 56.9336 -32.2266 56.0547 -31.7871 54.2969 -31.7871 C 52.002 -31.7871 50.5371 -33.3008 50.6836 -35.7422 L 51.2207 -45.8008 C 51.416 -48.584 52.7832 -50.1953 55.2734 -50.1953 L 66.6992 -50.1953 C 68.7988 -50.1953 69.9707 -49.0723 69.9707 -46.9727 C 69.9707 -44.9219 68.7012 -43.7012 66.6992 -43.7012 L 57.5684 -43.7012 L 57.0801 -37.1094 L 57.2266 -37.1094 C 58.3008 -38.7695 60.4492 -39.7949 62.6465 -39.7949 C 67.1387 -39.7949 70.9473 -36.4258 70.9473 -30.6641 C 70.9473 -23.9258 66.8945 -19.6777 60.0098 -19.6777 Z M 37.5 -31.9336 L 37.5 -43.7012 L 37.3535 -43.7012 C 35.791 -40.1855 33.8379 -34.9609 32.666 -32.0801 L 32.666 -31.9336 Z"/>
  </g>
  <g id="Bold-S" transform="matrix(1 0 0 1 2292.44 696)">
   <path d="M 47.5586 5.46875 C 69.873 5.46875 88.2324 -12.8906 88.2324 -35.2051 C 88.2324 -57.5684 69.873 -75.9277 47.5098 -75.9277 C 25.1953 -75.9277 6.83594 -57.5684 6.83594 -35.2051 C 6.83594 -12.8906 25.1953 5.46875 47.5586 5.46875 Z M 39.7461 -19.043 C 37.793 -19.043 36.6699 -20.4102 36.6699 -22.3145 L 36.6699 -25.3906 L 27.9297 -25.3906 C 25.2441 -25.3906 23.6328 -26.9531 23.6328 -29.6875 C 23.6328 -31.25 23.9746 -32.6172 24.6582 -34.082 C 26.3184 -37.793 28.8574 -42.9688 31.2988 -47.4121 C 32.7637 -50.1953 34.6191 -51.4648 37.7441 -51.4648 C 41.0645 -51.4648 42.9199 -49.4141 42.9199 -46.1914 L 42.9199 -31.3477 L 43.9941 -31.3477 C 45.752 -31.3477 46.8262 -30.1758 46.8262 -28.3203 C 46.8262 -26.5137 45.752 -25.4395 43.9941 -25.4395 L 42.9199 -25.4395 L 42.9199 -22.3145 C 42.9199 -20.4102 41.748 -19.043 39.7461 -19.043 Z M 59.7656 -19.043 C 55.0293 -19.043 51.5137 -21.6309 50.4395 -24.2188 C 50.0977 -24.9023 50 -25.5859 50 -26.3184 C 50 -28.0762 51.3184 -29.3457 52.9297 -29.3457 C 54.2969 -29.3457 55.0293 -28.5156 55.7617 -27.6367 C 56.7871 -26.1719 58.1543 -25.0977 60.1074 -25.0977 C 62.7441 -25.0977 64.5508 -26.9531 64.5508 -29.8828 C 64.5508 -32.4219 62.8906 -34.4238 60.5469 -34.4238 C 59.2773 -34.4238 58.4473 -33.9844 57.2266 -33.1055 C 56.1523 -32.2754 55.2734 -31.8848 53.6621 -31.8848 C 51.416 -31.8848 50.0488 -33.3984 50.1465 -35.8398 L 50.8301 -46.5332 C 51.0254 -49.1699 52.4902 -50.6836 54.9316 -50.6836 L 67.0898 -50.6836 C 68.8965 -50.6836 69.9707 -49.6094 69.9707 -47.7539 C 69.9707 -45.8984 68.7988 -44.7266 67.0898 -44.7266 L 56.5918 -44.7266 L 56.0547 -37.1094 L 56.2012 -37.1094 C 57.3242 -38.7695 59.668 -39.8926 62.0117 -39.8926 C 67.0898 -39.8926 71.0449 -36.084 71.0449 -30.1758 C 71.0449 -23.291 66.748 -19.043 59.7656 -19.043 Z M 36.6699 -31.2988 L 36.6699 -44.7266 L 36.4746 -44.7266 C 34.2773 -40.3809 31.9336 -35.0098 30.3711 -31.4453 L 30.3711 -31.2988 Z"/>
  </g>
  <g id="Semibold-S" transform="matrix(1 0 0 1 1996.2 696)">
   <path d="M 47.0703 4.98047 C 69.0918 4.98047 87.3047 -13.1836 87.3047 -35.2539 C 87.3047 -57.2754 69.0918 -75.4883 47.0215 -75.4883 C 25 -75.4883 6.83594 -57.2754 6.83594 -35.2539 C 6.83594 -13.1836 25.0488 4.98047 47.0703 4.98047 Z M 39.0137 -18.6035 C 37.1094 -18.6035 36.084 -19.9707 36.084 -21.7773 L 36.084 -25.293 L 26.4648 -25.293 C 23.9258 -25.293 22.3145 -26.8066 22.3145 -29.3945 C 22.3145 -30.8594 22.6562 -32.0801 23.3398 -33.5449 C 25.3906 -37.6465 28.2227 -43.1152 30.957 -48.0957 C 32.4219 -50.7812 34.1797 -51.9043 37.1094 -51.9043 C 40.1855 -51.9043 42.041 -50 42.041 -47.0215 L 42.041 -30.9082 L 43.3594 -30.9082 C 45.0195 -30.9082 46.0449 -29.834 46.0449 -28.0762 C 46.0449 -26.3184 45.0195 -25.293 43.3594 -25.293 L 42.041 -25.293 L 42.041 -21.7773 C 42.041 -19.9219 40.9668 -18.6035 39.0137 -18.6035 Z M 59.5703 -18.6035 C 54.7363 -18.6035 51.0254 -21.1426 49.9023 -24.0234 C 49.6094 -24.6582 49.5117 -25.3418 49.5117 -26.0742 C 49.5117 -27.7344 50.6836 -28.9551 52.2949 -28.9551 C 53.5156 -28.9551 54.2969 -28.2227 55.0293 -27.1973 C 56.1035 -25.4395 57.7637 -24.2676 59.9121 -24.2676 C 62.8906 -24.2676 64.8926 -26.3184 64.8926 -29.6387 C 64.8926 -32.4707 63.0859 -34.7168 60.4004 -34.7168 C 59.0332 -34.7168 58.1543 -34.2773 56.7871 -33.252 C 55.6152 -32.3242 54.7363 -31.9336 53.1738 -31.9336 C 51.0254 -31.9336 49.707 -33.4473 49.8047 -35.8887 L 50.5859 -47.0215 C 50.7812 -49.5605 52.2461 -51.0742 54.6875 -51.0742 L 67.334 -51.0742 C 68.9453 -51.0742 69.9707 -50 69.9707 -48.291 C 69.9707 -46.582 68.8965 -45.459 67.334 -45.459 L 55.9082 -45.459 L 55.3223 -37.1094 L 55.5176 -37.1094 C 56.5918 -38.7695 59.1309 -39.9414 61.5723 -39.9414 C 67.0898 -39.9414 71.0938 -35.8887 71.0938 -29.8828 C 71.0938 -22.9004 66.6016 -18.6035 59.5703 -18.6035 Z M 36.084 -30.8594 L 36.084 -45.4102 L 35.8398 -45.4102 C 33.252 -40.5273 30.6152 -35.0098 28.7598 -31.0547 L 28.7598 -30.8594 Z"/>
  </g>
  <g id="Medium-S" transform="matrix(1 0 0 1 1699.83 696)">
   <path d="M 46.7285 4.63867 C 68.5547 4.63867 86.6211 -13.4277 86.6211 -35.2539 C 86.6211 -57.0312 68.5059 -75.1465 46.6797 -75.1465 C 24.8535 -75.1465 6.83594 -57.0312 6.83594 -35.2539 C 6.83594 -13.4277 24.9023 4.63867 46.7285 4.63867 Z M 38.4277 -18.2617 C 36.6211 -18.2617 35.6445 -19.5801 35.6445 -21.3867 L 35.6445 -25.1953 L 25.3418 -25.1953 C 22.9492 -25.1953 21.3379 -26.6602 21.3379 -29.1992 C 21.3379 -30.5664 21.6309 -31.6406 22.3633 -33.1055 C 24.6582 -37.5488 27.6855 -43.2617 30.7129 -48.584 C 32.1289 -51.1719 33.8379 -52.2461 36.6699 -52.2461 C 39.5508 -52.2461 41.3574 -50.4395 41.3574 -47.6074 L 41.3574 -30.5664 L 42.8711 -30.5664 C 44.4824 -30.5664 45.459 -29.541 45.459 -27.8809 C 45.459 -26.1719 44.4824 -25.2441 42.8711 -25.2441 L 41.3574 -25.2441 L 41.3574 -21.3867 C 41.3574 -19.5801 40.332 -18.2617 38.4277 -18.2617 Z M 59.4238 -18.2617 C 54.541 -18.2617 50.6348 -20.8008 49.5117 -23.877 C 49.2188 -24.4629 49.1211 -25.1953 49.1211 -25.9277 C 49.1211 -27.4902 50.1953 -28.6621 51.7578 -28.6621 C 52.9297 -28.6621 53.7598 -28.0273 54.4434 -26.8555 C 55.5664 -24.9023 57.4219 -23.6816 59.7168 -23.6816 C 63.0371 -23.6816 65.1855 -25.7812 65.1855 -29.4434 C 65.1855 -32.5684 63.2324 -34.9609 60.3027 -34.9609 C 58.8867 -34.9609 57.9102 -34.4727 56.4941 -33.3984 C 55.1758 -32.373 54.2969 -31.9824 52.832 -31.9824 C 50.7324 -31.9824 49.4141 -33.4961 49.5605 -35.9375 L 50.3906 -47.4121 C 50.5859 -49.9023 52.0996 -51.3672 54.541 -51.3672 L 67.5293 -51.3672 C 68.9941 -51.3672 69.9707 -50.293 69.9707 -48.7305 C 69.9707 -47.0703 68.9453 -45.9961 67.5293 -45.9961 L 55.4199 -45.9961 L 54.7852 -37.1094 L 54.9805 -37.1094 C 56.0547 -38.7695 58.6914 -39.9902 61.2305 -39.9902 C 67.041 -39.9902 71.1426 -35.7422 71.1426 -29.6387 C 71.1426 -22.5586 66.5527 -18.2617 59.4238 -18.2617 Z M 35.6445 -30.5176 L 35.6445 -45.9473 L 35.4004 -45.9473 C 32.4707 -40.6738 29.5898 -35.0098 27.5391 -30.7129 L 27.5391 -30.5176 Z"/>
  </g>
  <g id="Regular-S" transform="matrix(1 0 0 1 1403.58 696)">
   <path d="M 46.2402 4.15039 C 67.7734 4.15039 85.6934 -13.7207 85.6934 -35.2539 C 85.6934 -56.7871 67.7246 -74.6582 46.1914 -74.6582 C 24.707 -74.6582 6.83594 -56.7871 6.83594 -35.2539 C 6.83594 -13.7207 24.7559 4.15039 46.2402 4.15039 Z M 37.6953 -17.8223 C 35.9375 -17.8223 35.0586 -19.1406 35.0586 -20.8984 L 35.0586 -25.0977 L 23.877 -25.0977 C 21.6309 -25.0977 20.0684 -26.5137 20.0684 -28.9551 C 20.0684 -30.1758 20.3125 -31.1035 21.0449 -32.5684 C 23.7305 -37.4512 27.0508 -43.4082 30.3711 -49.2676 C 31.8359 -51.709 33.3984 -52.6855 36.084 -52.6855 C 38.6719 -52.6855 40.4785 -50.9766 40.4785 -48.4375 L 40.4785 -30.127 L 42.2363 -30.127 C 43.7012 -30.127 44.7266 -29.1992 44.7266 -27.5879 C 44.7266 -26.0254 43.75 -25.0977 42.2363 -25.0977 L 40.4785 -25.0977 L 40.4785 -20.8984 C 40.4785 -19.0918 39.5508 -17.8223 37.6953 -17.8223 Z M 59.2285 -17.8223 C 54.248 -17.8223 50.1465 -20.3613 48.9746 -23.6816 C 48.7305 -24.2188 48.6328 -24.9512 48.6328 -25.6836 C 48.6328 -27.1484 49.6094 -28.2715 51.123 -28.2715 C 52.0996 -28.2715 53.0273 -27.7344 53.7109 -26.416 C 54.9316 -24.1699 57.0312 -22.8516 59.5215 -22.8516 C 63.1836 -22.8516 65.5762 -25.1465 65.5762 -29.1992 C 65.5762 -32.6172 63.4277 -35.2539 60.2051 -35.2539 C 58.6426 -35.2539 57.6172 -34.7168 56.0547 -33.5938 C 54.6387 -32.373 53.7598 -32.0801 52.3926 -32.0801 C 50.3418 -32.0801 49.0723 -33.5938 49.2188 -35.9863 L 50.1465 -47.9004 C 50.3418 -50.293 51.9043 -51.709 54.2969 -51.709 L 67.7734 -51.709 C 69.043 -51.709 69.9707 -50.6836 69.9707 -49.2676 C 69.9707 -47.7539 68.9941 -46.6797 67.7734 -46.6797 L 54.7852 -46.6797 L 54.0527 -37.1094 L 54.2969 -37.1094 C 55.3711 -38.7695 58.1543 -40.0879 60.791 -40.0879 C 67.041 -40.0879 71.1914 -35.5469 71.1914 -29.2969 C 71.1914 -22.1191 66.4062 -17.8223 59.2285 -17.8223 Z M 35.0586 -30.127 L 35.0586 -46.6309 L 34.7656 -46.6309 C 31.4453 -40.8203 28.3203 -35.0098 25.9277 -30.3223 L 25.9277 -30.127 Z"/>
  </g>
  <g id="Light-S" transform="matrix(1 0 0 1 1107.6 696)">
   <path d="M 45.5078 3.4668 C 66.6992 3.4668 84.2285 -14.0625 84.2285 -35.2051 C 84.2285 -56.3965 66.6504 -73.9258 45.5078 -73.9258 C 24.3164 -73.9258 6.83594 -56.3965 6.83594 -35.2051 C 6.83594 -14.0625 24.3652 3.4668 45.5078 3.4668 Z M 37.2559 -18.1641 C 35.8398 -18.1641 35.1074 -19.1895 35.1074 -20.5566 L 35.1074 -25.7324 L 22.9492 -25.7324 C 21.0938 -25.7324 19.7754 -26.8555 19.7754 -28.8574 C 19.7754 -29.7852 20.0195 -30.6152 20.5566 -31.6895 C 23.3887 -36.4746 28.0273 -44.1895 31.3477 -49.707 C 32.5195 -51.6602 33.8379 -52.4414 35.9375 -52.4414 C 37.9883 -52.4414 39.502 -51.0742 39.502 -49.0234 L 39.502 -29.7852 L 42.0898 -29.7852 C 43.3105 -29.7852 44.0918 -29.0039 44.0918 -27.7344 C 44.0918 -26.4648 43.3105 -25.7324 42.0898 -25.7324 L 39.502 -25.7324 L 39.502 -20.5566 C 39.502 -19.1406 38.7207 -18.1641 37.2559 -18.1641 Z M 58.6914 -18.0664 C 53.6133 -18.0664 49.707 -20.752 48.5352 -24.1699 C 48.3398 -24.6582 48.1934 -25.1953 48.1934 -25.7812 C 48.1934 -27.002 49.0723 -27.8809 50.2441 -27.8809 C 51.123 -27.8809 51.8066 -27.3438 52.3438 -26.2695 C 53.418 -23.7305 56.0059 -22.168 58.9844 -22.168 C 63.0371 -22.168 65.8691 -24.9023 65.8691 -29.248 C 65.8691 -33.1543 63.2812 -36.084 59.4727 -36.084 C 57.5684 -36.084 56.1035 -35.4004 54.248 -33.7402 C 53.1738 -32.8125 52.4902 -32.5195 51.3672 -32.5195 C 49.7559 -32.5195 48.7305 -33.7402 48.8281 -35.6445 L 49.8535 -48.6328 C 50 -50.5371 51.2207 -51.709 53.125 -51.709 L 67.2363 -51.709 C 68.2617 -51.709 69.043 -50.8789 69.043 -49.707 C 69.043 -48.4863 68.2129 -47.6562 67.2363 -47.6562 L 53.6133 -47.6562 L 52.832 -36.7676 L 52.9785 -36.7676 C 54.2969 -38.6719 57.1777 -39.9902 59.9609 -39.9902 C 66.1621 -39.9902 70.3613 -35.498 70.3613 -29.3457 C 70.3613 -22.3633 65.6738 -18.0664 58.6914 -18.0664 Z M 35.1074 -29.7852 L 35.1074 -47.5586 L 34.8633 -47.5586 C 31.8359 -42.4316 26.8555 -34.3262 24.5117 -29.9316 L 24.5117 -29.7852 Z"/>
  </g>
  <g id="Thin-S" transform="matrix(1 0 0 1 811.867 696)">
   <path d="M 44.5801 2.53906 C 65.2832 2.53906 82.2754 -14.4531 82.2754 -35.2051 C 82.2754 -55.9082 65.2344 -72.9004 44.5312 -72.9004 C 23.8281 -72.9004 6.83594 -55.9082 6.83594 -35.2051 C 6.83594 -14.4531 23.877 2.53906 44.5801 2.53906 Z M 36.6699 -18.5547 C 35.7422 -18.5547 35.2051 -19.1895 35.2051 -20.166 L 35.2051 -26.5137 L 21.7773 -26.5137 C 20.3613 -26.5137 19.4336 -27.2949 19.4336 -28.7109 C 19.4336 -29.2969 19.5801 -29.9316 19.9219 -30.5664 C 22.9004 -35.2051 29.3945 -45.2148 32.6172 -50.2441 C 33.4961 -51.6602 34.375 -52.0996 35.7422 -52.0996 C 37.1582 -52.0996 38.1348 -51.2207 38.1348 -49.8535 L 38.1348 -29.3457 L 41.8945 -29.3457 C 42.7246 -29.3457 43.3105 -28.7598 43.3105 -27.9297 C 43.3105 -27.0508 42.7734 -26.5137 41.8945 -26.5137 L 38.1348 -26.5137 L 38.1348 -20.166 C 38.1348 -19.1895 37.5977 -18.5547 36.6699 -18.5547 Z M 57.959 -18.4082 C 52.7832 -18.4082 49.1699 -21.2402 47.9492 -24.8047 C 47.7539 -25.1953 47.7051 -25.5371 47.7051 -25.8789 C 47.7051 -26.7578 48.3398 -27.2949 49.0723 -27.2949 C 49.7559 -27.2949 50.2441 -26.8555 50.5371 -26.0742 C 51.4648 -23.1934 54.5898 -21.2402 58.252 -21.2402 C 62.8418 -21.2402 66.2598 -24.5605 66.2598 -29.2969 C 66.2598 -33.8867 63.0859 -37.207 58.5938 -37.207 C 56.1035 -37.207 54.1016 -36.2793 51.8555 -33.9355 C 51.2207 -33.3008 50.7812 -33.1055 50.0488 -33.1055 C 48.9258 -33.1055 48.2422 -33.8867 48.3398 -35.1562 L 49.4629 -49.6094 C 49.5605 -50.8789 50.3418 -51.6602 51.6602 -51.6602 L 66.5039 -51.6602 C 67.2363 -51.6602 67.8223 -51.123 67.8223 -50.293 C 67.8223 -49.4629 67.1875 -48.9258 66.5039 -48.9258 L 52.1484 -48.9258 L 51.1719 -36.2793 L 51.2695 -36.2793 C 52.8809 -38.5254 55.9082 -39.8926 58.8867 -39.8926 C 64.9902 -39.8926 69.2383 -35.4492 69.2383 -29.3457 C 69.2383 -22.7051 64.6973 -18.4082 57.959 -18.4082 Z M 35.2051 -29.3457 L 35.2051 -48.7305 L 35.0098 -48.7305 C 32.3242 -44.5312 24.9512 -33.3984 22.7051 -29.4434 L 22.7051 -29.3457 Z"/>
  </g>
  <g id="Ultralight-S" transform="matrix(1 0 0 1 515.644 696)">
   <path d="M 44.043 2.05078 C 64.502 2.05078 81.2988 -14.6973 81.2988 -35.1562 C 81.2988 -55.6152 64.502 -72.3633 44.043 -72.3633 C 23.584 -72.3633 6.83594 -55.6152 6.83594 -35.1562 C 6.83594 -14.6973 23.584 2.05078 44.043 2.05078 Z M 36.3281 -18.7988 C 35.6934 -18.7988 35.2539 -19.2383 35.2539 -19.9219 L 35.2539 -26.9531 L 21.1426 -26.9531 C 20.0195 -26.9531 19.2383 -27.5391 19.2383 -28.6133 C 19.2383 -29.0527 19.3848 -29.5898 19.6289 -29.9805 C 22.6562 -34.5703 30.0781 -45.752 33.3008 -50.5859 C 33.9844 -51.6113 34.668 -51.9531 35.6445 -51.9531 C 36.7188 -51.9531 37.4512 -51.3184 37.4512 -50.2441 L 37.4512 -29.1016 L 41.7969 -29.1016 C 42.4316 -29.1016 42.8711 -28.6621 42.8711 -28.0273 C 42.8711 -27.3926 42.4805 -26.9531 41.7969 -26.9531 L 37.4512 -26.9531 L 37.4512 -19.9219 C 37.4512 -19.2383 37.0605 -18.7988 36.3281 -18.7988 Z M 57.6172 -18.5547 C 52.3438 -18.5547 48.8281 -21.4844 47.6074 -25.0977 C 47.4609 -25.4883 47.4121 -25.6836 47.4121 -25.9766 C 47.4121 -26.6602 47.9492 -27.002 48.4863 -27.002 C 49.0723 -27.002 49.4141 -26.6113 49.5605 -25.9766 C 50.4883 -22.9004 53.8574 -20.752 57.9102 -20.752 C 62.7441 -20.752 66.4551 -24.3652 66.4551 -29.3457 C 66.4551 -34.2285 62.9883 -37.793 58.1055 -37.793 C 55.3711 -37.793 53.0762 -36.7676 50.6348 -34.0332 C 50.2441 -33.5938 49.9023 -33.4473 49.3164 -33.4473 C 48.5352 -33.4473 47.998 -34.0332 48.0469 -34.9121 L 49.2676 -50.1465 C 49.3164 -51.0254 49.9023 -51.6602 50.8789 -51.6602 L 66.1133 -51.6602 C 66.6992 -51.6602 67.1875 -51.2207 67.1875 -50.6348 C 67.1875 -50 66.6504 -49.5605 66.1133 -49.5605 L 51.3672 -49.5605 L 50.293 -36.0352 L 50.3418 -36.0352 C 52.1484 -38.4277 55.2246 -39.8438 58.3496 -39.8438 C 64.4043 -39.8438 68.7012 -35.4004 68.7012 -29.3945 C 68.7012 -22.9004 64.1602 -18.5547 57.6172 -18.5547 Z M 35.2539 -29.1016 L 35.2539 -49.3652 L 35.1074 -49.3652 C 32.5684 -45.6543 23.9746 -32.9102 21.7285 -29.1992 L 21.7285 -29.1016 Z"/>
  </g>
 </g>
</svg>
