<?xml version="1.0" encoding="UTF-8"?>
<!--Generator: Apple Native CoreSVG 123-->
<!DOCTYPE svg
PUBLIC "-//W3C//DTD SVG 1.1//EN"
       "http://www.w3.org/Graphics/SVG/1.1/DTD/svg11.dtd">
<svg version="1.1" xmlns="http://www.w3.org/2000/svg" xmlns:xlink="http://www.w3.org/1999/xlink" width="3300" height="2200">
 <!--glyph: "uni1006B4.medium", point size: 100.000000, font version: "Version 15.0d7e11", template writer version: "5"-->
 <g id="Notes">
  <rect height="2200" id="artboard" style="fill:white;opacity:1" width="3300" x="0" y="0"/>
  <line id="" style="fill:none;stroke:black;opacity:1;stroke-width:0.5;" x1="263" x2="3036" y1="292" y2="292"/>
  <text style="stroke:none;fill:black;font-family:-apple-system,&quot;SF Pro Display&quot;,&quot;SF Pro Text&quot;,Helvetica,sans-serif;font-weight:bold;" transform="matrix(1 0 0 1 263 322)">Weight/Scale Variations</text>
  <text style="stroke:none;fill:black;font-family:-apple-system,&quot;SF Pro Display&quot;,&quot;SF Pro Text&quot;,Helvetica,sans-serif;text-anchor:middle;" transform="matrix(1 0 0 1 559.711 322)">Ultralight</text>
  <text style="stroke:none;fill:black;font-family:-apple-system,&quot;SF Pro Display&quot;,&quot;SF Pro Text&quot;,Helvetica,sans-serif;text-anchor:middle;" transform="matrix(1 0 0 1 856.422 322)">Thin</text>
  <text style="stroke:none;fill:black;font-family:-apple-system,&quot;SF Pro Display&quot;,&quot;SF Pro Text&quot;,Helvetica,sans-serif;text-anchor:middle;" transform="matrix(1 0 0 1 1153.13 322)">Light</text>
  <text style="stroke:none;fill:black;font-family:-apple-system,&quot;SF Pro Display&quot;,&quot;SF Pro Text&quot;,Helvetica,sans-serif;text-anchor:middle;" transform="matrix(1 0 0 1 1449.84 322)">Regular</text>
  <text style="stroke:none;fill:black;font-family:-apple-system,&quot;SF Pro Display&quot;,&quot;SF Pro Text&quot;,Helvetica,sans-serif;text-anchor:middle;" transform="matrix(1 0 0 1 1746.56 322)">Medium</text>
  <text style="stroke:none;fill:black;font-family:-apple-system,&quot;SF Pro Display&quot;,&quot;SF Pro Text&quot;,Helvetica,sans-serif;text-anchor:middle;" transform="matrix(1 0 0 1 2043.27 322)">Semibold</text>
  <text style="stroke:none;fill:black;font-family:-apple-system,&quot;SF Pro Display&quot;,&quot;SF Pro Text&quot;,Helvetica,sans-serif;text-anchor:middle;" transform="matrix(1 0 0 1 2339.98 322)">Bold</text>
  <text style="stroke:none;fill:black;font-family:-apple-system,&quot;SF Pro Display&quot;,&quot;SF Pro Text&quot;,Helvetica,sans-serif;text-anchor:middle;" transform="matrix(1 0 0 1 2636.69 322)">Heavy</text>
  <text style="stroke:none;fill:black;font-family:-apple-system,&quot;SF Pro Display&quot;,&quot;SF Pro Text&quot;,Helvetica,sans-serif;text-anchor:middle;" transform="matrix(1 0 0 1 2933.4 322)">Black</text>
  <line id="" style="fill:none;stroke:black;opacity:1;stroke-width:0.5;" x1="263" x2="3036" y1="1903" y2="1903"/>
  <g id="" transform="matrix(1 0 0 1 263 1933)">
   <path d="M 9.24805 0.830078 C 13.5547 0.830078 17.1387 -2.74414 17.1387 -7.05078 C 17.1387 -11.3574 13.5449 -14.9316 9.23828 -14.9316 C 4.94141 -14.9316 1.36719 -11.3574 1.36719 -7.05078 C 1.36719 -2.74414 4.95117 0.830078 9.24805 0.830078 Z M 9.24805 -0.654297 C 5.70312 -0.654297 2.87109 -3.49609 2.87109 -7.05078 C 2.87109 -10.6055 5.69336 -13.4473 9.23828 -13.4473 C 12.793 -13.4473 15.6348 -10.6055 15.6445 -7.05078 C 15.6543 -3.49609 12.8027 -0.654297 9.24805 -0.654297 Z M 9.22852 -3.42773 C 9.69727 -3.42773 9.9707 -3.74023 9.9707 -4.25781 L 9.9707 -6.31836 L 12.1973 -6.31836 C 12.6953 -6.31836 13.0371 -6.57227 13.0371 -7.04102 C 13.0371 -7.51953 12.7148 -7.7832 12.1973 -7.7832 L 9.9707 -7.7832 L 9.9707 -10.0098 C 9.9707 -10.5273 9.69727 -10.8496 9.22852 -10.8496 C 8.75977 -10.8496 8.50586 -10.5078 8.50586 -10.0098 L 8.50586 -7.7832 L 6.29883 -7.7832 C 5.78125 -7.7832 5.44922 -7.51953 5.44922 -7.04102 C 5.44922 -6.57227 5.80078 -6.31836 6.29883 -6.31836 L 8.50586 -6.31836 L 8.50586 -4.25781 C 8.50586 -3.75977 8.75977 -3.42773 9.22852 -3.42773 Z"/>
  </g>
  <g id="" transform="matrix(1 0 0 1 281.506 1933)">
   <path d="M 11.709 2.91016 C 17.1582 2.91016 21.6699 -1.60156 21.6699 -7.05078 C 21.6699 -12.4902 17.1484 -17.0117 11.6992 -17.0117 C 6.25977 -17.0117 1.74805 -12.4902 1.74805 -7.05078 C 1.74805 -1.60156 6.26953 2.91016 11.709 2.91016 Z M 11.709 1.25 C 7.09961 1.25 3.41797 -2.44141 3.41797 -7.05078 C 3.41797 -11.6504 7.08984 -15.3516 11.6992 -15.3516 C 16.3086 -15.3516 20 -11.6504 20.0098 -7.05078 C 20.0195 -2.44141 16.3184 1.25 11.709 1.25 Z M 11.6895 -2.41211 C 12.207 -2.41211 12.5195 -2.77344 12.5195 -3.33984 L 12.5195 -6.23047 L 15.5762 -6.23047 C 16.123 -6.23047 16.5039 -6.51367 16.5039 -7.03125 C 16.5039 -7.55859 16.1426 -7.86133 15.5762 -7.86133 L 12.5195 -7.86133 L 12.5195 -10.9277 C 12.5195 -11.5039 12.207 -11.8555 11.6895 -11.8555 C 11.1719 -11.8555 10.8789 -11.4844 10.8789 -10.9277 L 10.8789 -7.86133 L 7.83203 -7.86133 C 7.26562 -7.86133 6.89453 -7.55859 6.89453 -7.03125 C 6.89453 -6.51367 7.28516 -6.23047 7.83203 -6.23047 L 10.8789 -6.23047 L 10.8789 -3.33984 C 10.8789 -2.79297 11.1719 -2.41211 11.6895 -2.41211 Z"/>
  </g>
  <g id="" transform="matrix(1 0 0 1 304.924 1933)">
   <path d="M 14.9707 5.67383 C 21.9336 5.67383 27.6953 -0.078125 27.6953 -7.04102 C 27.6953 -14.0039 21.9238 -19.7559 14.9609 -19.7559 C 8.00781 -19.7559 2.25586 -14.0039 2.25586 -7.04102 C 2.25586 -0.078125 8.01758 5.67383 14.9707 5.67383 Z M 14.9707 3.85742 C 8.93555 3.85742 4.08203 -1.00586 4.08203 -7.04102 C 4.08203 -13.0762 8.92578 -17.9395 14.9609 -17.9395 C 21.0059 -17.9395 25.8594 -13.0762 25.8691 -7.04102 C 25.8789 -1.00586 21.0156 3.85742 14.9707 3.85742 Z M 14.9512 -1.06445 C 15.5176 -1.06445 15.8691 -1.45508 15.8691 -2.06055 L 15.8691 -6.13281 L 20.1074 -6.13281 C 20.6934 -6.13281 21.1133 -6.46484 21.1133 -7.02148 C 21.1133 -7.59766 20.7227 -7.93945 20.1074 -7.93945 L 15.8691 -7.93945 L 15.8691 -12.1875 C 15.8691 -12.8027 15.5176 -13.1934 14.9512 -13.1934 C 14.3848 -13.1934 14.0625 -12.7832 14.0625 -12.1875 L 14.0625 -7.93945 L 9.83398 -7.93945 C 9.21875 -7.93945 8.80859 -7.59766 8.80859 -7.02148 C 8.80859 -6.46484 9.23828 -6.13281 9.83398 -6.13281 L 14.0625 -6.13281 L 14.0625 -2.06055 C 14.0625 -1.47461 14.3848 -1.06445 14.9512 -1.06445 Z"/>
  </g>
  <text style="stroke:none;fill:black;font-family:-apple-system,&quot;SF Pro Display&quot;,&quot;SF Pro Text&quot;,Helvetica,sans-serif;font-weight:bold;" transform="matrix(1 0 0 1 263 1953)">Design Variations</text>
  <text style="stroke:none;fill:black;font-family:-apple-system,&quot;SF Pro Display&quot;,&quot;SF Pro Text&quot;,Helvetica,sans-serif;" transform="matrix(1 0 0 1 263 1971)">Symbols are supported in up to nine weights and three scales.</text>
  <text style="stroke:none;fill:black;font-family:-apple-system,&quot;SF Pro Display&quot;,&quot;SF Pro Text&quot;,Helvetica,sans-serif;" transform="matrix(1 0 0 1 263 1989)">For optimal layout with text and other symbols, vertically align</text>
  <text style="stroke:none;fill:black;font-family:-apple-system,&quot;SF Pro Display&quot;,&quot;SF Pro Text&quot;,Helvetica,sans-serif;" transform="matrix(1 0 0 1 263 2007)">symbols with the adjacent text.</text>
  <rect height="14" id="" style="fill:#00AEEF;stroke:none;opacity:0.4;" width="3" x="776" y="1919"/>
  <g id="" transform="matrix(1 0 0 1 779 1933)">
   <path d="M 10.5273 0 L 12.373 0 L 7.17773 -14.0918 L 5.43945 -14.0918 L 0.244141 0 L 2.08984 0 L 3.50586 -4.0332 L 9.11133 -4.0332 Z M 6.2793 -11.9531 L 6.33789 -11.9531 L 8.59375 -5.52734 L 4.02344 -5.52734 Z"/>
  </g>
  <rect height="14" id="" style="fill:#00AEEF;stroke:none;opacity:0.4;" width="3" x="791.617" y="1919"/>
  <text style="stroke:none;fill:black;font-family:-apple-system,&quot;SF Pro Display&quot;,&quot;SF Pro Text&quot;,Helvetica,sans-serif;font-weight:bold;" transform="matrix(1 0 0 1 776 1953)">Margins</text>
  <text style="stroke:none;fill:black;font-family:-apple-system,&quot;SF Pro Display&quot;,&quot;SF Pro Text&quot;,Helvetica,sans-serif;" transform="matrix(1 0 0 1 776 1971)">Leading and trailing margins on the left and right side of each symbol</text>
  <text style="stroke:none;fill:black;font-family:-apple-system,&quot;SF Pro Display&quot;,&quot;SF Pro Text&quot;,Helvetica,sans-serif;" transform="matrix(1 0 0 1 776 1989)">can be adjusted by modifying the width of the blue rectangles.</text>
  <text style="stroke:none;fill:black;font-family:-apple-system,&quot;SF Pro Display&quot;,&quot;SF Pro Text&quot;,Helvetica,sans-serif;" transform="matrix(1 0 0 1 776 2007)">Modifications are automatically applied proportionally to all</text>
  <text style="stroke:none;fill:black;font-family:-apple-system,&quot;SF Pro Display&quot;,&quot;SF Pro Text&quot;,Helvetica,sans-serif;" transform="matrix(1 0 0 1 776 2025)">scales and weights.</text>
  <g id="" transform="matrix(1 0 0 1 1289 1933)">
   <path d="M 2.83203 3.11523 L 4.375 4.6582 C 5.22461 5.48828 6.19141 5.41992 7.06055 4.46289 L 17.2754 -6.66016 C 17.7051 -6.36719 18.0957 -6.37695 18.5645 -6.47461 L 19.6094 -6.68945 L 20.3027 -5.99609 L 20.2539 -5.47852 C 20.1855 -4.95117 20.3516 -4.53125 20.8496 -4.0332 L 21.6602 -3.22266 C 22.168 -2.71484 22.8223 -2.68555 23.3008 -3.16406 L 26.5527 -6.41602 C 27.0312 -6.89453 27.0117 -7.54883 26.5039 -8.05664 L 25.6836 -8.87695 C 25.1855 -9.375 24.7754 -9.55078 24.2383 -9.47266 L 23.7109 -9.41406 L 23.0566 -10.0781 L 23.3398 -11.2207 C 23.4863 -11.7871 23.3398 -12.2559 22.7148 -12.8613 L 20.3027 -15.2539 C 16.7578 -18.7793 12.2266 -18.6719 9.11133 -15.5371 C 8.69141 -15.1074 8.64258 -14.5215 8.91602 -14.0918 C 9.15039 -13.7207 9.62891 -13.4961 10.2734 -13.6621 C 11.7871 -14.043 13.3008 -13.9258 14.7852 -12.9199 L 14.1602 -11.3379 C 13.9258 -10.752 13.9453 -10.2734 14.1797 -9.83398 L 3.01758 0.439453 C 2.08008 1.30859 1.97266 2.25586 2.83203 3.11523 Z M 10.6738 -15.1465 C 13.3398 -17.1387 16.6504 -16.8262 19.0527 -14.4141 L 21.6797 -11.8066 C 21.9141 -11.5723 21.9434 -11.3867 21.8848 -11.0938 L 21.5039 -9.53125 L 23.0762 -7.95898 L 24.043 -8.04688 C 24.3262 -8.07617 24.4141 -8.05664 24.6387 -7.83203 L 25.2637 -7.20703 L 22.5098 -4.46289 L 21.8848 -5.07812 C 21.6602 -5.30273 21.6406 -5.40039 21.6699 -5.68359 L 21.7578 -6.64062 L 20.1953 -8.20312 L 18.5742 -7.89062 C 18.291 -7.83203 18.1445 -7.83203 17.9102 -8.07617 L 15.7324 -10.2539 C 15.5078 -10.4883 15.4785 -10.625 15.6055 -10.9473 L 16.5527 -13.2227 C 14.9512 -14.7559 12.8418 -15.6055 10.8008 -14.9512 C 10.7129 -14.9219 10.6445 -14.9414 10.6152 -14.9805 C 10.5859 -15.0293 10.5859 -15.0781 10.6738 -15.1465 Z M 4.10156 2.41211 C 3.61328 1.91406 3.78906 1.61133 4.12109 1.30859 L 15.0781 -8.80859 L 16.3086 -7.57812 L 6.15234 3.34961 C 5.84961 3.68164 5.46875 3.7793 5.06836 3.37891 Z"/>
  </g>
  <text style="stroke:none;fill:black;font-family:-apple-system,&quot;SF Pro Display&quot;,&quot;SF Pro Text&quot;,Helvetica,sans-serif;font-weight:bold;" transform="matrix(1 0 0 1 1289 1953)">Exporting</text>
  <text style="stroke:none;fill:black;font-family:-apple-system,&quot;SF Pro Display&quot;,&quot;SF Pro Text&quot;,Helvetica,sans-serif;" transform="matrix(1 0 0 1 1289 1971)">Symbols should be outlined when exporting to ensure the</text>
  <text style="stroke:none;fill:black;font-family:-apple-system,&quot;SF Pro Display&quot;,&quot;SF Pro Text&quot;,Helvetica,sans-serif;" transform="matrix(1 0 0 1 1289 1989)">design is preserved when submitting to Xcode.</text>
  <text id="template-version" style="stroke:none;fill:black;font-family:-apple-system,&quot;SF Pro Display&quot;,&quot;SF Pro Text&quot;,Helvetica,sans-serif;text-anchor:end;" transform="matrix(1 0 0 1 3036 1933)">Template v.1.0</text>
  <text style="stroke:none;fill:black;font-family:-apple-system,&quot;SF Pro Display&quot;,&quot;SF Pro Text&quot;,Helvetica,sans-serif;text-anchor:end;" transform="matrix(1 0 0 1 3036 1951)">Generated from 46.circle.fill</text>
  <text style="stroke:none;fill:black;font-family:-apple-system,&quot;SF Pro Display&quot;,&quot;SF Pro Text&quot;,Helvetica,sans-serif;text-anchor:end;" transform="matrix(1 0 0 1 3036 1969)">Typeset at 100 points</text>
  <text style="stroke:none;fill:black;font-family:-apple-system,&quot;SF Pro Display&quot;,&quot;SF Pro Text&quot;,Helvetica,sans-serif;" transform="matrix(1 0 0 1 263 726)">Small</text>
  <text style="stroke:none;fill:black;font-family:-apple-system,&quot;SF Pro Display&quot;,&quot;SF Pro Text&quot;,Helvetica,sans-serif;" transform="matrix(1 0 0 1 263 1156)">Medium</text>
  <text style="stroke:none;fill:black;font-family:-apple-system,&quot;SF Pro Display&quot;,&quot;SF Pro Text&quot;,Helvetica,sans-serif;" transform="matrix(1 0 0 1 263 1586)">Large</text>
 </g>
 <g id="Guides">
  <g id="H-reference" style="fill:#27AAE1;stroke:none;" transform="matrix(1 0 0 1 339 696)">
   <path d="M 54.9316 0 L 57.666 0 L 30.5664 -70.459 L 28.0762 -70.459 L 0.976562 0 L 3.66211 0 L 12.9395 -24.4629 L 45.7031 -24.4629 Z M 29.1992 -67.0898 L 29.4434 -67.0898 L 44.8242 -26.709 L 13.8184 -26.709 Z"/>
  </g>
  <line id="Baseline-S" style="fill:none;stroke:#27AAE1;opacity:1;stroke-width:0.577;" x1="263" x2="3036" y1="696" y2="696"/>
  <line id="Capline-S" style="fill:none;stroke:#27AAE1;opacity:1;stroke-width:0.577;" x1="263" x2="3036" y1="625.541" y2="625.541"/>
  <g id="H-reference" style="fill:#27AAE1;stroke:none;" transform="matrix(1 0 0 1 339 1126)">
   <path d="M 54.9316 0 L 57.666 0 L 30.5664 -70.459 L 28.0762 -70.459 L 0.976562 0 L 3.66211 0 L 12.9395 -24.4629 L 45.7031 -24.4629 Z M 29.1992 -67.0898 L 29.4434 -67.0898 L 44.8242 -26.709 L 13.8184 -26.709 Z"/>
  </g>
  <line id="Baseline-M" style="fill:none;stroke:#27AAE1;opacity:1;stroke-width:0.577;" x1="263" x2="3036" y1="1126" y2="1126"/>
  <line id="Capline-M" style="fill:none;stroke:#27AAE1;opacity:1;stroke-width:0.577;" x1="263" x2="3036" y1="1055.54" y2="1055.54"/>
  <g id="H-reference" style="fill:#27AAE1;stroke:none;" transform="matrix(1 0 0 1 339 1556)">
   <path d="M 54.9316 0 L 57.666 0 L 30.5664 -70.459 L 28.0762 -70.459 L 0.976562 0 L 3.66211 0 L 12.9395 -24.4629 L 45.7031 -24.4629 Z M 29.1992 -67.0898 L 29.4434 -67.0898 L 44.8242 -26.709 L 13.8184 -26.709 Z"/>
  </g>
  <line id="Baseline-L" style="fill:none;stroke:#27AAE1;opacity:1;stroke-width:0.577;" x1="263" x2="3036" y1="1556" y2="1556"/>
  <line id="Capline-L" style="fill:none;stroke:#27AAE1;opacity:1;stroke-width:0.577;" x1="263" x2="3036" y1="1485.54" y2="1485.54"/>
  <rect height="119.336" id="left-margin" style="fill:#00AEEF;stroke:none;opacity:0.4;" width="8.74023" x="1391.3" y="1030.79"/>
  <rect height="119.336" id="right-margin" style="fill:#00AEEF;stroke:none;opacity:0.4;" width="8.74023" x="1499.65" y="1030.79"/>
 </g>
 <g id="Symbols">
  <g id="Black-L" transform="matrix(1 0 0 1 2854.05 1556)">
   <path d="M 79.3457 32.8613 C 116.748 32.8613 147.412 2.19727 147.412 -35.2051 C 147.412 -72.6074 116.748 -103.271 79.2969 -103.271 C 41.8945 -103.271 11.2793 -72.6074 11.2793 -35.2051 C 11.2793 2.19727 41.9434 32.8613 79.3457 32.8613 Z M 67.0898 -9.47266 C 63.7207 -9.47266 61.5723 -11.7676 61.5723 -15.0391 L 61.5723 -19.1406 L 49.1699 -19.1406 C 44.2871 -19.1406 41.6504 -21.9238 41.6504 -26.6602 C 41.6504 -29.4922 42.334 -32.0312 43.3105 -34.5703 C 45.4102 -39.7949 48.877 -47.6562 52.0996 -53.8574 C 54.6387 -58.7891 57.8613 -61.084 63.4277 -61.084 C 69.5312 -61.084 72.6562 -57.4219 72.6562 -51.5137 L 72.6562 -29.7852 L 73.8281 -29.7852 C 76.9531 -29.7852 78.7598 -27.6367 78.7598 -24.4141 C 78.7598 -21.1914 76.9531 -19.2383 73.8281 -19.2383 L 72.6562 -19.2383 L 72.6562 -15.0391 C 72.6562 -11.7676 70.5078 -9.47266 67.0898 -9.47266 Z M 100.391 -9.42383 C 93.7012 -9.42383 88.0371 -12.3535 85.0098 -18.8965 C 83.1055 -23.1445 82.0312 -28.6133 82.0312 -34.9121 C 82.0312 -52.0508 90.2832 -61.084 101.416 -61.084 C 108.057 -61.084 112.695 -58.0566 114.453 -54.4434 C 115.088 -53.125 115.43 -52.002 115.43 -50.5371 C 115.43 -47.6074 112.988 -45.8008 110.498 -45.8008 C 108.252 -45.8008 106.934 -46.6309 105.957 -47.9004 C 104.736 -49.1699 103.369 -50.3906 101.025 -50.3906 C 96.875 -50.3906 93.6523 -45.9473 93.6523 -39.4043 C 93.6523 -38.2324 93.7012 -37.5488 93.7988 -36.8652 L 94.1895 -36.8652 C 95.6543 -40.0391 98.6328 -42.8223 103.809 -42.8223 C 110.742 -42.8223 116.992 -37.3047 116.992 -27.6367 C 116.992 -16.5039 110.303 -9.42383 100.391 -9.42383 Z M 61.5723 -29.6387 L 61.5723 -49.3164 L 61.3281 -49.3164 C 58.5938 -43.3105 55.4199 -34.8633 53.418 -29.9316 L 53.418 -29.6387 Z M 99.8047 -19.7754 C 102.979 -19.7754 105.225 -22.4609 105.225 -26.4648 C 105.225 -30.3711 102.93 -33.0566 99.8047 -33.0566 C 96.4355 -33.0566 94.1406 -30.3711 94.1406 -26.5137 C 94.1406 -22.4609 96.4355 -19.7754 99.8047 -19.7754 Z"/>
  </g>
  <g id="Heavy-L" transform="matrix(1 0 0 1 2558.39 1556)">
   <path d="M 78.2715 31.7871 C 115.088 31.7871 145.312 1.61133 145.312 -35.2051 C 145.312 -72.0215 115.039 -102.197 78.2715 -102.197 C 41.4551 -102.197 11.2793 -72.0215 11.2793 -35.2051 C 11.2793 1.61133 41.5039 31.7871 78.2715 31.7871 Z M 65.7227 -8.93555 C 62.6465 -8.93555 60.6934 -11.084 60.6934 -14.1113 L 60.6934 -19.2871 L 46.4844 -19.2871 C 42.041 -19.2871 39.502 -21.8262 39.502 -26.1719 C 39.502 -28.7109 40.1367 -30.957 41.1133 -33.3496 C 43.75 -39.1602 48.291 -48.2422 52.0508 -55.127 C 54.4434 -59.6191 57.4219 -61.6699 62.4512 -61.6699 C 67.9199 -61.6699 70.8008 -58.3496 70.8008 -53.0762 L 70.8008 -28.9062 L 72.7539 -28.9062 C 75.6348 -28.9062 77.2949 -27.002 77.2949 -24.0723 C 77.2949 -21.0938 75.6348 -19.3359 72.7539 -19.3359 L 70.8008 -19.3359 L 70.8008 -14.1113 C 70.8008 -11.0352 68.8965 -8.93555 65.7227 -8.93555 Z M 99.8047 -8.83789 C 93.0176 -8.83789 87.4512 -11.7188 84.375 -18.2129 C 82.373 -22.4609 81.25 -27.9785 81.25 -34.6191 C 81.25 -52.3926 89.4043 -61.6699 100.879 -61.6699 C 107.764 -61.6699 112.598 -58.3496 114.307 -54.541 C 114.844 -53.3691 115.137 -52.3926 115.137 -51.0742 C 115.137 -48.3887 112.988 -46.7285 110.693 -46.7285 C 108.643 -46.7285 107.422 -47.5098 106.445 -48.8281 C 105.029 -50.5371 103.271 -51.9043 100.537 -51.9043 C 95.459 -51.9043 91.748 -46.582 91.748 -38.4277 C 91.748 -37.5 91.7969 -36.9141 91.8457 -36.3281 L 92.2363 -36.3281 C 93.7988 -39.8438 97.2168 -42.9199 102.832 -42.9199 C 110.254 -42.9199 116.846 -37.207 116.846 -27.2461 C 116.846 -15.918 109.961 -8.83789 99.8047 -8.83789 Z M 60.6934 -28.8574 L 60.6934 -50.8301 L 60.4492 -50.8301 C 57.1777 -44.2871 52.7344 -34.5703 50.293 -29.1016 L 50.293 -28.8574 Z M 99.3164 -18.2617 C 103.369 -18.2617 106.152 -21.4355 106.152 -26.2207 C 106.152 -30.8594 103.271 -34.0332 99.3164 -34.0332 C 95.166 -34.0332 92.2852 -30.8594 92.2852 -26.2695 C 92.2852 -21.5332 95.166 -18.2617 99.3164 -18.2617 Z"/>
  </g>
  <g id="Bold-L" transform="matrix(1 0 0 1 2262.88 1556)">
   <path d="M 77.0996 30.6152 C 113.232 30.6152 142.92 0.878906 142.92 -35.2051 C 142.92 -71.3379 113.184 -101.025 77.0508 -101.025 C 40.9668 -101.025 11.2793 -71.3379 11.2793 -35.2051 C 11.2793 0.878906 41.0156 30.6152 77.0996 30.6152 Z M 64.209 -8.30078 C 61.4258 -8.30078 59.7656 -10.3027 59.7656 -13.0371 L 59.7656 -19.4336 L 43.457 -19.4336 C 39.502 -19.4336 37.1094 -21.7285 37.1094 -25.6836 C 37.1094 -27.832 37.6465 -29.7852 38.623 -31.9336 C 41.9434 -38.4277 47.6562 -48.877 52.002 -56.4941 C 54.1992 -60.5469 56.8848 -62.3047 61.3281 -62.3047 C 66.0645 -62.3047 68.75 -59.4238 68.75 -54.7852 L 68.75 -27.9785 L 71.582 -27.9785 C 74.1211 -27.9785 75.6836 -26.3184 75.6836 -23.6816 C 75.6836 -21.0449 74.1699 -19.4824 71.582 -19.4824 L 68.75 -19.4824 L 68.75 -13.0371 C 68.75 -10.2539 67.0898 -8.30078 64.209 -8.30078 Z M 99.1699 -8.20312 C 92.2852 -8.20312 86.7188 -10.9863 83.6426 -17.3828 C 81.543 -21.6309 80.3711 -27.2949 80.3711 -34.3262 C 80.3711 -52.7344 88.3789 -62.3047 100.293 -62.3047 C 107.471 -62.3047 112.451 -58.6914 114.111 -54.6875 C 114.6 -53.7109 114.844 -52.7832 114.844 -51.6602 C 114.844 -49.2676 112.988 -47.7539 110.938 -47.7539 C 109.033 -47.7539 107.91 -48.5352 106.934 -49.8535 C 105.42 -52.002 103.223 -53.6133 99.9512 -53.6133 C 93.8477 -53.6133 89.5996 -47.2656 89.5996 -37.3047 C 89.5996 -36.6211 89.6484 -36.1816 89.6973 -35.6934 L 90.0391 -35.6934 C 91.6992 -39.6973 95.6543 -43.0176 101.758 -43.0176 C 109.668 -43.0176 116.65 -37.0605 116.65 -26.7578 C 116.65 -15.2344 109.521 -8.20312 99.1699 -8.20312 Z M 59.7656 -27.9297 L 59.7656 -52.4902 L 59.4238 -52.4902 C 55.5664 -45.3613 49.7559 -34.2285 46.8262 -28.1738 L 46.8262 -27.9297 Z M 98.7305 -16.6016 C 103.76 -16.6016 107.129 -20.2637 107.129 -25.9766 C 107.129 -31.4453 103.711 -35.1562 98.7793 -35.1562 C 93.7012 -35.1562 90.2344 -31.3965 90.2344 -26.0254 C 90.2344 -20.459 93.75 -16.6016 98.7305 -16.6016 Z"/>
  </g>
  <g id="Semibold-L" transform="matrix(1 0 0 1 1966.97 1556)">
   <path d="M 76.2695 29.7852 C 111.914 29.7852 141.309 0.439453 141.309 -35.2051 C 141.309 -70.8496 111.865 -100.244 76.2695 -100.244 C 40.625 -100.244 11.2793 -70.8496 11.2793 -35.2051 C 11.2793 0.439453 40.6738 29.7852 76.2695 29.7852 Z M 63.1836 -7.91016 C 60.5957 -7.91016 59.082 -9.7168 59.082 -12.3047 L 59.082 -19.5312 L 41.3574 -19.5312 C 37.7441 -19.5312 35.498 -21.6309 35.498 -25.293 C 35.498 -27.2461 35.9375 -28.9551 36.9141 -30.957 C 40.7227 -37.9395 47.2168 -49.3164 51.9531 -57.4707 C 54.0527 -61.1816 56.543 -62.7441 60.5469 -62.7441 C 64.7949 -62.7441 67.3828 -60.1074 67.3828 -56.0059 L 67.3828 -27.3438 L 70.752 -27.3438 C 73.0957 -27.3438 74.5605 -25.8301 74.5605 -23.3887 C 74.5605 -20.9961 73.1445 -19.5312 70.752 -19.5312 L 67.3828 -19.5312 L 67.3828 -12.3047 C 67.3828 -9.7168 65.8691 -7.91016 63.1836 -7.91016 Z M 98.7305 -7.76367 C 91.7969 -7.76367 86.2793 -10.498 83.1055 -16.8457 C 80.957 -21.0938 79.7852 -26.8066 79.7852 -34.082 C 79.7852 -52.9785 87.6953 -62.7441 99.8535 -62.7441 C 107.275 -62.7441 112.402 -58.8867 114.014 -54.7852 C 114.404 -53.9062 114.648 -53.0762 114.648 -52.0996 C 114.648 -49.8535 113.037 -48.4375 111.084 -48.4375 C 109.277 -48.4375 108.252 -49.2188 107.324 -50.5859 C 105.713 -53.0273 103.125 -54.7852 99.5605 -54.7852 C 92.7246 -54.7852 88.1348 -47.7539 88.1348 -36.5723 C 88.1348 -36.0352 88.1836 -35.6934 88.1836 -35.3027 L 88.5742 -35.3027 C 90.2832 -39.5508 94.5801 -43.1152 101.025 -43.1152 C 109.326 -43.1152 116.553 -37.0117 116.553 -26.416 C 116.553 -14.7949 109.229 -7.76367 98.7305 -7.76367 Z M 59.082 -27.2949 L 59.082 -53.6621 L 58.7402 -53.6621 C 54.4434 -46.0938 47.7051 -34.0332 44.4336 -27.5391 L 44.4336 -27.2949 Z M 98.3887 -15.4297 C 104.053 -15.4297 107.812 -19.4824 107.812 -25.7812 C 107.812 -31.8359 103.955 -35.8887 98.3887 -35.8887 C 92.7246 -35.8887 88.8184 -31.7383 88.8184 -25.8301 C 88.8184 -19.7266 92.7246 -15.4297 98.3887 -15.4297 Z"/>
  </g>
  <g id="Medium-L" transform="matrix(1 0 0 1 1670.87 1556)">
   <path d="M 75.6836 29.1992 C 110.938 29.1992 140.088 0.0488281 140.088 -35.2051 C 140.088 -70.459 110.889 -99.6094 75.6348 -99.6094 C 40.3809 -99.6094 11.2793 -70.459 11.2793 -35.2051 C 11.2793 0.0488281 40.3809 29.1992 75.6836 29.1992 Z M 62.3535 -7.56836 C 59.9609 -7.56836 58.5938 -9.32617 58.5938 -11.7676 L 58.5938 -19.5801 L 39.7461 -19.5801 C 36.4258 -19.5801 34.2285 -21.582 34.2285 -25.0488 C 34.2285 -26.8066 34.668 -28.3203 35.5957 -30.2246 C 39.7461 -37.5977 46.875 -49.707 51.9043 -58.1543 C 53.9551 -61.6699 56.25 -63.0859 59.9609 -63.0859 C 63.8184 -63.0859 66.3086 -60.6934 66.3086 -56.8848 L 66.3086 -26.8555 L 70.166 -26.8555 C 72.3145 -26.8555 73.6816 -25.4395 73.6816 -23.1934 C 73.6816 -20.9473 72.3633 -19.6289 70.166 -19.6289 L 66.3086 -19.6289 L 66.3086 -11.7676 C 66.3086 -9.27734 64.9414 -7.56836 62.3535 -7.56836 Z M 98.3887 -7.42188 C 91.4551 -7.42188 85.8887 -10.1562 82.7148 -16.4551 C 80.5176 -20.7031 79.3457 -26.4648 79.3457 -33.9355 C 79.3457 -53.1738 87.1582 -63.0859 99.5605 -63.0859 C 107.129 -63.0859 112.305 -59.082 113.916 -54.8828 C 114.307 -54.0527 114.502 -53.2715 114.502 -52.3926 C 114.502 -50.3418 113.037 -48.9258 111.182 -48.9258 C 109.473 -48.9258 108.496 -49.707 107.568 -51.123 C 105.908 -53.8086 103.076 -55.6641 99.2676 -55.6641 C 91.8945 -55.6641 87.0117 -48.0957 87.0117 -35.9863 C 87.0117 -35.5957 87.0117 -35.3516 87.0605 -35.0098 L 87.4023 -35.0098 C 89.1602 -39.4531 93.75 -43.1641 100.439 -43.1641 C 109.033 -43.1641 116.455 -36.9141 116.455 -26.1719 C 116.455 -14.4531 108.984 -7.42188 98.3887 -7.42188 Z M 58.5938 -26.8066 L 58.5938 -54.541 L 58.252 -54.541 C 53.6133 -46.6309 46.0938 -33.8379 42.627 -27.0996 L 42.627 -26.8066 Z M 98.0957 -14.5508 C 104.297 -14.5508 108.35 -18.8477 108.35 -25.6348 C 108.35 -32.0801 104.15 -36.4746 98.0957 -36.4746 C 91.9922 -36.4746 87.7441 -32.0312 87.7441 -25.6836 C 87.7441 -19.1406 91.9922 -14.5508 98.0957 -14.5508 Z"/>
  </g>
  <g id="Regular-L" transform="matrix(1 0 0 1 1374.97 1556)">
   <path d="M 74.8535 28.3691 C 109.668 28.3691 138.477 -0.390625 138.477 -35.2051 C 138.477 -70.0195 109.619 -98.7793 74.8047 -98.7793 C 40.0391 -98.7793 11.2793 -70.0195 11.2793 -35.2051 C 11.2793 -0.390625 40.0879 28.3691 74.8535 28.3691 Z M 61.3281 -7.17773 C 59.1309 -7.17773 57.9102 -8.78906 57.9102 -11.0352 L 57.9102 -19.6777 L 37.6953 -19.6777 C 34.7168 -19.6777 32.6172 -21.4844 32.6172 -24.6582 C 32.6172 -26.2207 32.959 -27.4902 33.8867 -29.248 C 38.5254 -37.1094 46.4355 -50.1465 51.9043 -59.1309 C 53.8086 -62.3047 55.9082 -63.5254 59.2285 -63.5254 C 62.5488 -63.5254 64.8926 -61.377 64.8926 -58.1055 L 64.8926 -26.1719 L 69.3359 -26.1719 C 71.2891 -26.1719 72.6074 -24.9512 72.6074 -22.9004 C 72.6074 -20.8496 71.3379 -19.6777 69.3359 -19.6777 L 64.8926 -19.6777 L 64.8926 -11.0352 C 64.8926 -8.74023 63.7207 -7.17773 61.3281 -7.17773 Z M 97.9492 -6.93359 C 90.918 -6.93359 85.4492 -9.66797 82.2266 -15.918 C 79.9316 -20.166 78.7598 -25.9766 78.7598 -33.6914 C 78.7598 -53.418 86.4746 -63.5254 99.1699 -63.5254 C 106.934 -63.5254 112.256 -59.2773 113.818 -54.9805 C 114.111 -54.2969 114.307 -53.5645 114.307 -52.832 C 114.307 -50.9277 113.037 -49.6582 111.377 -49.6582 C 109.766 -49.6582 108.887 -50.3906 107.959 -51.8066 C 106.152 -54.7852 103.027 -56.8359 98.877 -56.8359 C 90.7715 -56.8359 85.5469 -48.584 85.5469 -35.2051 L 85.5469 -34.5703 L 85.9375 -34.5703 C 87.7441 -39.3066 92.6758 -43.2617 99.707 -43.2617 C 108.643 -43.2617 116.309 -36.8652 116.309 -25.8301 C 116.309 -14.0137 108.691 -6.93359 97.9492 -6.93359 Z M 57.9102 -26.1719 L 57.9102 -55.7129 L 57.5684 -55.7129 C 52.5391 -47.3633 44.043 -33.6426 40.2344 -26.4648 L 40.2344 -26.1719 Z M 97.7051 -13.3789 C 104.541 -13.3789 109.033 -18.0664 109.033 -25.4395 C 109.033 -32.4707 104.443 -37.207 97.7539 -37.207 C 91.0156 -37.207 86.3281 -32.373 86.3281 -25.5371 C 86.3281 -18.4082 91.0156 -13.3789 97.7051 -13.3789 Z"/>
  </g>
  <g id="Light-L" transform="matrix(1 0 0 1 1079.18 1556)">
   <path d="M 73.9258 27.4902 C 108.301 27.4902 136.621 -0.830078 136.621 -35.1562 C 136.621 -69.5312 108.252 -97.8516 73.9258 -97.8516 C 39.5508 -97.8516 11.2793 -69.5312 11.2793 -35.1562 C 11.2793 -0.830078 39.5996 27.4902 73.9258 27.4902 Z M 60.1074 -7.56836 C 58.3984 -7.56836 57.373 -8.83789 57.373 -10.5957 L 57.373 -20.459 L 35.8887 -20.459 C 33.3496 -20.459 31.5918 -21.9238 31.5918 -24.5605 C 31.5918 -25.7324 31.9824 -26.8555 32.666 -28.1738 C 37.4512 -35.8887 47.0703 -51.123 52.4414 -59.668 C 54.1016 -62.2559 55.7617 -63.2324 58.3984 -63.2324 C 61.084 -63.2324 62.9883 -61.5234 62.9883 -58.8379 L 62.9883 -25.7812 L 68.5547 -25.7812 C 70.1172 -25.7812 71.1426 -24.7559 71.1426 -23.0957 C 71.1426 -21.4355 70.166 -20.459 68.5547 -20.459 L 62.9883 -20.459 L 62.9883 -10.5957 C 62.9883 -8.78906 62.0117 -7.56836 60.1074 -7.56836 Z M 96.9238 -7.27539 C 89.502 -7.27539 84.1797 -10.3027 81.1523 -16.3574 C 78.9062 -20.6543 77.8809 -26.3672 77.8809 -33.6426 C 77.8809 -52.832 85.4004 -63.2324 97.998 -63.2324 C 106.055 -63.2324 111.426 -58.4473 112.842 -54.3945 C 113.086 -53.9062 113.232 -53.2715 113.232 -52.6855 C 113.232 -51.2207 112.256 -50.0977 110.791 -50.0977 C 109.521 -50.0977 108.789 -50.7812 108.105 -51.9043 C 106.104 -55.4688 102.49 -57.7637 97.8027 -57.7637 C 88.916 -57.7637 83.3496 -48.9746 83.3496 -34.4238 L 83.3496 -33.7891 L 83.5938 -33.7891 C 85.6934 -39.0137 91.2109 -42.9688 98.2422 -42.9688 C 107.666 -42.9688 115.186 -36.2793 115.186 -25.7324 C 115.186 -14.4043 107.666 -7.27539 96.9238 -7.27539 Z M 57.373 -25.7812 L 57.373 -56.8359 L 57.0801 -56.8359 C 52.3438 -49.4141 41.6016 -32.7148 37.8418 -25.9766 L 37.8418 -25.7812 Z M 96.7773 -12.5977 C 104.346 -12.5977 109.326 -17.5781 109.326 -25.3906 C 109.326 -32.9102 104.199 -37.9395 96.8262 -37.9395 C 89.4043 -37.9395 84.1797 -32.7637 84.1797 -25.4883 C 84.1797 -17.9199 89.4043 -12.5977 96.7773 -12.5977 Z"/>
  </g>
  <g id="Thin-L" transform="matrix(1 0 0 1 783.693 1556)">
   <path d="M 72.7051 26.3184 C 106.494 26.3184 134.18 -1.36719 134.18 -35.1074 C 134.18 -68.8965 106.494 -96.582 72.7051 -96.582 C 38.9648 -96.582 11.2793 -68.8965 11.2793 -35.1074 C 11.2793 -1.36719 38.9648 26.3184 72.7051 26.3184 Z M 58.4961 -8.10547 C 57.373 -8.10547 56.5918 -8.88672 56.5918 -10.0586 L 56.5918 -21.4844 L 33.5449 -21.4844 C 31.5918 -21.4844 30.2734 -22.5098 30.2734 -24.3652 C 30.2734 -25.1465 30.6152 -26.0254 31.0059 -26.709 C 36.0352 -34.3262 47.9004 -52.4414 53.2227 -60.4004 C 54.4434 -62.207 55.6152 -62.793 57.3242 -62.793 C 59.1797 -62.793 60.4492 -61.6699 60.4492 -59.8633 L 60.4492 -25.1953 L 67.4805 -25.1953 C 68.5547 -25.1953 69.2871 -24.4141 69.2871 -23.291 C 69.2871 -22.2168 68.6035 -21.4844 67.4805 -21.4844 L 60.4492 -21.4844 L 60.4492 -10.0586 C 60.4492 -8.88672 59.8145 -8.10547 58.4961 -8.10547 Z M 95.5078 -7.71484 C 87.5488 -7.71484 82.5684 -11.084 79.7852 -16.9434 C 77.5879 -21.2891 76.709 -26.9043 76.709 -33.5449 C 76.709 -52.0508 84.0332 -62.793 96.4355 -62.793 C 104.932 -62.793 110.4 -57.373 111.572 -53.6621 C 111.768 -53.3691 111.865 -52.8809 111.865 -52.5391 C 111.865 -51.5625 111.182 -50.7324 110.059 -50.7324 C 109.18 -50.7324 108.691 -51.3184 108.301 -52.0508 C 106.104 -56.3477 101.709 -58.9844 96.3867 -58.9844 C 86.4258 -58.9844 80.4199 -49.4629 80.4199 -33.3984 L 80.4199 -32.7148 L 80.5176 -32.7148 C 82.959 -38.5742 89.3066 -42.5293 96.3867 -42.5293 C 106.348 -42.5293 113.672 -35.498 113.672 -25.5859 C 113.672 -14.8926 106.299 -7.71484 95.5078 -7.71484 Z M 56.5918 -25.1953 L 56.5918 -58.3496 L 56.3965 -58.3496 C 52.0996 -52.0996 38.3789 -31.543 34.7168 -25.3906 L 34.7168 -25.1953 Z M 95.5566 -11.5234 C 104.004 -11.5234 109.766 -16.8945 109.766 -25.293 C 109.766 -33.4961 103.906 -38.8672 95.6543 -38.8672 C 87.3535 -38.8672 81.3477 -33.3008 81.3477 -25.3906 C 81.3477 -17.2852 87.2559 -11.5234 95.5566 -11.5234 Z"/>
  </g>
  <g id="Ultralight-L" transform="matrix(1 0 0 1 487.616 1556)">
   <path d="M 72.1191 25.7324 C 105.566 25.7324 132.91 -1.61133 132.91 -35.1074 C 132.91 -68.5547 105.566 -95.8984 72.1191 -95.8984 C 38.623 -95.8984 11.2793 -68.5547 11.2793 -35.1074 C 11.2793 -1.61133 38.623 25.7324 72.1191 25.7324 Z M 57.666 -8.39844 C 56.8848 -8.39844 56.2012 -8.88672 56.2012 -9.81445 L 56.2012 -22.0215 L 32.3242 -22.0215 C 30.7129 -22.0215 29.5898 -22.8027 29.5898 -24.2676 C 29.5898 -24.8047 29.9316 -25.5859 30.1758 -25.9766 C 35.3027 -33.4961 48.3398 -53.125 53.6133 -60.791 C 54.6387 -62.207 55.5664 -62.5977 56.7871 -62.5977 C 58.1543 -62.5977 59.1309 -61.7676 59.1309 -60.3516 L 59.1309 -24.9023 L 66.8945 -24.9023 C 67.7734 -24.9023 68.3105 -24.2676 68.3105 -23.4375 C 68.3105 -22.6074 67.8223 -22.0215 66.8945 -22.0215 L 59.1309 -22.0215 L 59.1309 -9.81445 C 59.1309 -8.88672 58.6426 -8.39844 57.666 -8.39844 Z M 94.8242 -7.95898 C 86.5723 -7.95898 81.7383 -11.5234 79.0527 -17.2363 C 76.9043 -21.582 76.123 -27.1973 76.123 -33.4961 C 76.123 -51.6602 83.3008 -62.5977 95.6543 -62.5977 C 104.346 -62.5977 109.863 -56.7871 110.938 -53.2715 C 111.084 -53.0762 111.133 -52.7344 111.133 -52.4414 C 111.133 -51.7578 110.645 -51.0254 109.717 -51.0254 C 108.984 -51.0254 108.643 -51.5625 108.398 -52.0996 C 106.104 -56.7871 101.318 -59.6191 95.7031 -59.6191 C 85.1074 -59.6191 78.9062 -49.707 78.9062 -32.8613 L 78.9062 -32.1777 L 78.9551 -32.1777 C 81.543 -38.3789 88.3301 -42.334 95.4102 -42.334 C 105.713 -42.334 112.891 -35.0586 112.891 -25.4883 C 112.891 -15.1367 105.615 -7.95898 94.8242 -7.95898 Z M 56.2012 -24.9023 L 56.2012 -59.1309 L 56.0547 -59.1309 C 52.002 -53.4668 36.6699 -30.957 33.1055 -25.0488 L 33.1055 -24.9023 Z M 94.9219 -10.9375 C 103.857 -10.9375 109.961 -16.5039 109.961 -25.293 C 109.961 -33.7891 103.76 -39.3555 95.0195 -39.3555 C 86.2793 -39.3555 79.8828 -33.5449 79.8828 -25.3418 C 79.8828 -16.9434 86.1816 -10.9375 94.9219 -10.9375 Z"/>
  </g>
  <g id="Black-M" transform="matrix(1 0 0 1 2870.97 1126)">
   <path d="M 62.4023 18.457 C 91.9922 18.457 116.113 -5.61523 116.113 -35.2051 C 116.113 -64.7949 91.9922 -88.8672 62.4023 -88.8672 C 32.8125 -88.8672 8.74023 -64.7949 8.74023 -35.2051 C 8.74023 -5.61523 32.8125 18.457 62.4023 18.457 Z M 53.125 -16.2109 C 50.4395 -16.2109 48.584 -18.0176 48.584 -20.6543 L 48.584 -22.998 L 40.8203 -22.998 C 36.6699 -22.998 34.6191 -25.2441 34.6191 -29.1504 C 34.6191 -31.5918 35.2539 -33.8379 35.9375 -35.8398 C 36.8164 -38.9648 39.0137 -44.5801 40.7227 -48.291 C 42.7246 -52.3926 45.4102 -54.2969 50.0977 -54.2969 C 55.3711 -54.2969 57.7148 -51.2207 57.7148 -46.1426 L 57.7148 -31.8848 L 58.2031 -31.8848 C 60.791 -31.8848 62.2559 -30.0781 62.2559 -27.3926 C 62.2559 -24.7559 60.791 -23.1445 58.2031 -23.1445 L 57.7148 -23.1445 L 57.7148 -20.6543 C 57.7148 -18.0176 55.9082 -16.2109 53.125 -16.2109 Z M 77.9785 -16.2109 C 72.7051 -16.2109 68.4082 -18.6523 66.2109 -23.7793 C 64.8926 -27.0508 64.1113 -31.1523 64.1113 -35.3516 C 64.1113 -47.5586 70.6055 -54.2969 78.6621 -54.2969 C 83.6426 -54.2969 87.0605 -52.0996 88.3789 -49.6094 C 88.916 -48.4863 89.2578 -47.6074 89.2578 -46.2891 C 89.2578 -43.8965 87.1094 -42.4805 85.0586 -42.4805 C 83.3008 -42.4805 82.2266 -43.1152 81.543 -43.8477 C 80.6641 -44.6289 79.8828 -45.4102 78.418 -45.4102 C 76.0254 -45.4102 73.9746 -42.8711 73.9746 -39.4043 C 73.9746 -38.1836 74.0234 -37.5 74.1211 -36.7676 L 74.3652 -36.7676 C 75.5371 -39.0137 77.5879 -40.7715 81.0059 -40.7715 C 85.9863 -40.7715 90.2832 -36.6699 90.2832 -29.8828 C 90.2832 -21.6797 85.4492 -16.2109 77.9785 -16.2109 Z M 48.584 -31.7871 L 48.584 -44.7266 L 48.4375 -44.7266 C 47.2168 -41.3086 45.2637 -34.8633 44.3359 -31.9824 L 44.3359 -31.7871 Z M 77.4902 -24.8535 C 79.1992 -24.8535 80.5176 -26.416 80.5176 -28.7598 C 80.5176 -31.0547 79.1992 -32.6172 77.4902 -32.6172 C 75.6348 -32.6172 74.2676 -31.0547 74.2676 -28.7598 C 74.2676 -26.3672 75.6348 -24.8535 77.4902 -24.8535 Z"/>
  </g>
  <g id="Heavy-M" transform="matrix(1 0 0 1 2575.19 1126)">
   <path d="M 61.5234 17.5781 C 90.5273 17.5781 114.258 -6.15234 114.258 -35.2051 C 114.258 -64.2578 90.5273 -87.9883 61.4746 -87.9883 C 32.4707 -87.9883 8.74023 -64.2578 8.74023 -35.2051 C 8.74023 -6.15234 32.4707 17.5781 61.5234 17.5781 Z M 52.002 -15.5273 C 49.4629 -15.5273 47.8027 -17.2363 47.8027 -19.7266 L 47.8027 -22.9492 L 38.3301 -22.9492 C 34.5215 -22.9492 32.5195 -25.0488 32.5195 -28.6621 C 32.5195 -30.8594 33.1055 -32.8613 33.7891 -34.7656 C 35.3027 -38.5742 38.1836 -44.9707 40.5273 -49.5117 C 42.4805 -53.2715 44.9707 -55.0293 49.2188 -55.0293 C 53.9062 -55.0293 56.25 -52.2461 56.25 -47.6562 L 56.25 -31.1035 L 57.2266 -31.1035 C 59.668 -31.1035 61.0352 -29.4434 61.0352 -26.9531 C 61.0352 -24.5117 59.668 -23.0469 57.2266 -23.0469 L 56.25 -23.0469 L 56.25 -19.7266 C 56.25 -17.2363 54.5898 -15.5273 52.002 -15.5273 Z M 77.6367 -15.4785 C 72.3633 -15.4785 68.0664 -17.8223 65.7715 -22.9004 C 64.3066 -26.1719 63.5254 -30.3711 63.5254 -35.0586 C 63.5254 -48.0469 69.9219 -55.0293 78.418 -55.0293 C 83.5938 -55.0293 87.1582 -52.6367 88.4766 -49.9023 C 88.9648 -48.877 89.209 -48.0957 89.209 -46.9238 C 89.209 -44.6777 87.3535 -43.3594 85.4004 -43.3594 C 83.7402 -43.3594 82.7637 -43.9453 82.0312 -44.8242 C 81.0547 -45.8984 79.9805 -46.8262 78.125 -46.8262 C 74.9023 -46.8262 72.4609 -43.457 72.4609 -38.5254 C 72.4609 -37.5488 72.5098 -36.9629 72.5586 -36.4258 L 72.8516 -36.4258 C 74.0234 -38.916 76.416 -40.9668 80.3223 -40.9668 C 85.6934 -40.9668 90.4297 -36.7188 90.4297 -29.4434 C 90.4297 -20.9473 85.3027 -15.4785 77.6367 -15.4785 Z M 47.8027 -31.0059 L 47.8027 -46.0938 L 47.6074 -46.0938 C 45.7031 -41.7969 42.9688 -34.7656 41.5527 -31.2012 L 41.5527 -31.0059 Z M 77.1973 -23.4375 C 79.6387 -23.4375 81.3965 -25.4395 81.3965 -28.4668 C 81.3965 -31.4941 79.6387 -33.4961 77.1973 -33.4961 C 74.6094 -33.4961 72.8516 -31.4453 72.8516 -28.5156 C 72.8516 -25.4395 74.6582 -23.4375 77.1973 -23.4375 Z"/>
  </g>
  <g id="Bold-M" transform="matrix(1 0 0 1 2279.5 1126)">
   <path d="M 60.498 16.5039 C 88.8672 16.5039 112.207 -6.78711 112.207 -35.2051 C 112.207 -63.623 88.8672 -86.9629 60.4492 -86.9629 C 32.0312 -86.9629 8.74023 -63.623 8.74023 -35.2051 C 8.74023 -6.78711 32.0801 16.5039 60.498 16.5039 Z M 50.6836 -14.7461 C 48.3398 -14.7461 46.875 -16.3574 46.875 -18.6523 L 46.875 -22.8516 L 35.5469 -22.8516 C 32.1777 -22.8516 30.2246 -24.8047 30.2246 -28.125 C 30.2246 -30.0293 30.6641 -31.7383 31.4453 -33.5449 C 33.6426 -38.1836 37.3047 -45.4102 40.332 -50.8789 C 42.1387 -54.2969 44.3848 -55.8105 48.1934 -55.8105 C 52.3438 -55.8105 54.541 -53.3203 54.541 -49.3164 L 54.541 -30.1758 L 56.2012 -30.1758 C 58.3496 -30.1758 59.668 -28.7598 59.668 -26.5137 C 59.668 -24.2676 58.3984 -22.9492 56.2012 -22.9492 L 54.541 -22.9492 L 54.541 -18.6523 C 54.541 -16.3574 53.125 -14.7461 50.6836 -14.7461 Z M 77.2461 -14.6484 C 72.0215 -14.6484 67.6758 -16.8457 65.2832 -21.875 C 63.7207 -25.1953 62.8418 -29.4922 62.8418 -34.7168 C 62.8418 -48.584 69.1406 -55.8105 78.0762 -55.8105 C 83.4961 -55.8105 87.2559 -53.2227 88.5742 -50.2441 C 88.9648 -49.3652 89.209 -48.584 89.209 -47.6074 C 89.209 -45.5566 87.5977 -44.2871 85.8398 -44.2871 C 84.2285 -44.2871 83.3008 -44.9219 82.5684 -45.9473 C 81.4941 -47.3145 80.0293 -48.4375 77.832 -48.4375 C 73.7305 -48.4375 70.8008 -44.1406 70.8008 -37.5488 C 70.8008 -36.8164 70.8008 -36.4258 70.8496 -35.9863 L 71.1426 -35.9863 C 72.3633 -38.8184 75.0977 -41.2109 79.541 -41.2109 C 85.3516 -41.2109 90.5273 -36.7676 90.5273 -28.9551 C 90.5273 -20.1172 85.1562 -14.6484 77.2461 -14.6484 Z M 46.875 -30.127 L 46.875 -47.6074 L 46.6797 -47.6074 C 44.043 -42.3828 40.4297 -34.668 38.4277 -30.3223 L 38.4277 -30.127 Z M 76.8555 -21.8262 C 80.1758 -21.8262 82.4219 -24.3164 82.4219 -28.2227 C 82.4219 -31.9336 80.127 -34.4727 76.8555 -34.4727 C 73.5352 -34.4727 71.1914 -31.9336 71.1914 -28.2227 C 71.1914 -24.4141 73.5352 -21.8262 76.8555 -21.8262 Z"/>
  </g>
  <g id="Semibold-M" transform="matrix(1 0 0 1 1983.5 1126)">
   <path d="M 59.7656 15.8203 C 87.7441 15.8203 110.791 -7.22656 110.791 -35.2051 C 110.791 -63.1836 87.6953 -86.2793 59.7656 -86.2793 C 31.7871 -86.2793 8.74023 -63.1836 8.74023 -35.2051 C 8.74023 -7.22656 31.7871 15.8203 59.7656 15.8203 Z M 49.8047 -14.209 C 47.6074 -14.209 46.2891 -15.7715 46.2891 -17.9688 L 46.2891 -22.8027 L 33.5938 -22.8027 C 30.5176 -22.8027 28.6133 -24.6582 28.6133 -27.7832 C 28.6133 -29.4922 29.0527 -30.957 29.834 -32.7148 C 32.4707 -37.8906 36.7188 -45.7031 40.1367 -51.8066 C 41.9434 -55.0293 44.043 -56.3965 47.5098 -56.3965 C 51.2207 -56.3965 53.418 -54.1016 53.418 -50.4883 L 53.418 -29.541 L 55.4688 -29.541 C 57.4707 -29.541 58.6914 -28.2715 58.6914 -26.1719 C 58.6914 -24.0723 57.4707 -22.8516 55.4688 -22.8516 L 53.418 -22.8516 L 53.418 -17.9688 C 53.418 -15.7227 52.0996 -14.209 49.8047 -14.209 Z M 77.002 -14.1113 C 71.7285 -14.1113 67.3828 -16.2109 64.9414 -21.1914 C 63.2812 -24.4629 62.3535 -28.9062 62.3535 -34.4727 C 62.3535 -48.9746 68.5547 -56.3965 77.8809 -56.3965 C 83.4473 -56.3965 87.3047 -53.6133 88.623 -50.4883 C 89.0137 -49.6582 89.209 -48.9746 89.209 -48.0957 C 89.209 -46.1914 87.7441 -44.9707 86.1328 -44.9707 C 84.6191 -44.9707 83.7402 -45.6055 82.9102 -46.6797 C 81.7871 -48.291 80.0781 -49.5117 77.5879 -49.5117 C 72.9004 -49.5117 69.6289 -44.5801 69.6289 -36.8652 C 69.6289 -36.377 69.6289 -36.0352 69.6289 -35.6934 L 69.9707 -35.6934 C 71.1914 -38.7207 74.2188 -41.3574 79.0039 -41.3574 C 85.1562 -41.3574 90.625 -36.7676 90.625 -28.6133 C 90.625 -19.5801 85.0098 -14.1113 77.002 -14.1113 Z M 46.2891 -29.541 L 46.2891 -48.6328 L 46.0449 -48.6328 C 42.8711 -42.7734 38.623 -34.6191 36.2793 -29.7363 L 36.2793 -29.541 Z M 76.6602 -20.7031 C 80.5176 -20.7031 83.1055 -23.584 83.1055 -28.0273 C 83.1055 -32.2754 80.4688 -35.1562 76.6602 -35.1562 C 72.7539 -35.1562 70.0684 -32.2266 70.0684 -28.0762 C 70.0684 -23.7305 72.7539 -20.7031 76.6602 -20.7031 Z"/>
  </g>
  <g id="Medium-M" transform="matrix(1 0 0 1 1687.3 1126)">
   <path d="M 59.2285 15.2832 C 86.9141 15.2832 109.766 -7.56836 109.766 -35.2051 C 109.766 -62.8906 86.8652 -85.7422 59.1797 -85.7422 C 31.543 -85.7422 8.74023 -62.8906 8.74023 -35.2051 C 8.74023 -7.56836 31.5918 15.2832 59.2285 15.2832 Z M 49.1211 -13.7695 C 47.0215 -13.7695 45.8008 -15.332 45.8008 -17.4316 L 45.8008 -22.8027 L 32.1289 -22.8027 C 29.248 -22.8027 27.3926 -24.5117 27.3926 -27.4902 C 27.3926 -29.0527 27.7832 -30.3711 28.5645 -32.0312 C 31.5918 -37.6465 36.2305 -45.8984 40.0391 -52.4902 C 41.748 -55.5176 43.75 -56.7871 47.0215 -56.7871 C 50.3906 -56.7871 52.5391 -54.6875 52.5391 -51.3672 L 52.5391 -29.1016 L 54.9316 -29.1016 C 56.7871 -29.1016 58.0078 -27.8809 58.0078 -25.9277 C 58.0078 -23.9746 56.8359 -22.8027 54.9316 -22.8027 L 52.5391 -22.8027 L 52.5391 -17.4316 C 52.5391 -15.2832 51.3184 -13.7695 49.1211 -13.7695 Z M 76.8066 -13.6719 C 71.5332 -13.6719 67.1875 -15.7227 64.6484 -20.7031 C 62.9395 -23.9746 61.9629 -28.418 61.9629 -34.3262 C 61.9629 -49.2676 68.1641 -56.7871 77.7344 -56.7871 C 83.3984 -56.7871 87.3535 -53.9551 88.6719 -50.6348 C 89.0137 -49.9023 89.209 -49.2188 89.209 -48.4863 C 89.209 -46.6309 87.8906 -45.459 86.3281 -45.459 C 84.8633 -45.459 84.0332 -46.0938 83.2031 -47.2656 C 81.9824 -49.0234 80.127 -50.3906 77.4414 -50.3906 C 72.2656 -50.3906 68.75 -44.9219 68.75 -36.3281 C 68.75 -35.9863 68.75 -35.7422 68.75 -35.4492 L 69.0918 -35.4492 C 70.3125 -38.6719 73.5352 -41.5039 78.6133 -41.5039 C 84.9609 -41.5039 90.7227 -36.8164 90.7227 -28.3691 C 90.7227 -19.1406 84.9609 -13.6719 76.8066 -13.6719 Z M 45.8008 -29.0527 L 45.8008 -49.4141 L 45.5566 -49.4141 C 41.9922 -43.0664 37.3047 -34.5703 34.668 -29.2969 L 34.668 -29.0527 Z M 76.4648 -19.873 C 80.8105 -19.873 83.6426 -22.998 83.6426 -27.8809 C 83.6426 -32.5195 80.7129 -35.6934 76.4648 -35.6934 C 72.168 -35.6934 69.2383 -32.4707 69.2383 -27.9297 C 69.2383 -23.1934 72.2168 -19.873 76.4648 -19.873 Z"/>
  </g>
  <g id="Regular-M" transform="matrix(1 0 0 1 1391.3 1126)">
   <path d="M 58.5449 14.5508 C 85.791 14.5508 108.35 -8.00781 108.35 -35.2539 C 108.35 -62.4512 85.7422 -85.0586 58.4961 -85.0586 C 31.2988 -85.0586 8.74023 -62.4512 8.74023 -35.2539 C 8.74023 -8.00781 31.3477 14.5508 58.5449 14.5508 Z M 48.2422 -13.2324 C 46.2891 -13.2324 45.2148 -14.6973 45.2148 -16.6992 L 45.2148 -22.7539 L 30.2246 -22.7539 C 27.6367 -22.7539 25.8301 -24.3652 25.8301 -27.1484 C 25.8301 -28.5156 26.123 -29.6387 26.9531 -31.2012 C 30.4688 -37.3535 35.6445 -46.1914 39.8926 -53.418 C 41.5527 -56.25 43.3594 -57.3242 46.3379 -57.3242 C 49.3164 -57.3242 51.416 -55.4199 51.416 -52.5391 L 51.416 -28.4668 L 54.1992 -28.4668 C 55.9082 -28.4668 57.0801 -27.4414 57.0801 -25.5859 C 57.0801 -23.7793 55.957 -22.7539 54.1992 -22.7539 L 51.416 -22.7539 L 51.416 -16.6992 C 51.416 -14.6484 50.3418 -13.2324 48.2422 -13.2324 Z M 76.5137 -13.1348 C 71.2891 -13.1348 66.8945 -15.0879 64.3066 -20.0195 C 62.5488 -23.291 61.5234 -27.832 61.5234 -34.082 C 61.5234 -49.6582 67.627 -57.3242 77.4902 -57.3242 C 83.3496 -57.3242 87.4512 -54.3457 88.7695 -50.8789 C 89.0137 -50.2441 89.1602 -49.5605 89.1602 -48.9258 C 89.1602 -47.2656 88.0371 -46.1426 86.6211 -46.1426 C 85.2051 -46.1426 84.4238 -46.7773 83.5938 -48.0469 C 82.2754 -50 80.1758 -51.4648 77.1973 -51.4648 C 71.4355 -51.4648 67.5781 -45.3613 67.5781 -35.6934 L 67.5781 -35.1562 L 67.9199 -35.1562 C 69.1895 -38.5742 72.6074 -41.6504 78.0762 -41.6504 C 84.7656 -41.6504 90.7715 -36.8164 90.7715 -28.0273 C 90.7715 -18.5547 84.8145 -13.1348 76.5137 -13.1348 Z M 45.2148 -28.4668 L 45.2148 -50.4395 L 44.873 -50.4395 C 40.8203 -43.457 35.5469 -34.4727 32.5684 -28.7109 L 32.5684 -28.4668 Z M 76.2695 -18.75 C 81.1523 -18.75 84.3262 -22.2168 84.3262 -27.6855 C 84.3262 -32.8613 81.0547 -36.3281 76.2695 -36.3281 C 71.3867 -36.3281 68.1152 -32.8125 68.1152 -27.7344 C 68.1152 -22.5098 71.4355 -18.75 76.2695 -18.75 Z"/>
  </g>
  <g id="Light-M" transform="matrix(1 0 0 1 1095.42 1126)">
   <path d="M 57.7148 13.7695 C 84.5215 13.7695 106.689 -8.39844 106.689 -35.2051 C 106.689 -62.0117 84.5215 -84.1797 57.666 -84.1797 C 30.8594 -84.1797 8.74023 -62.0117 8.74023 -35.2051 C 8.74023 -8.39844 30.9082 13.7695 57.7148 13.7695 Z M 47.1191 -13.623 C 45.6055 -13.623 44.7266 -14.7461 44.7266 -16.3574 L 44.7266 -23.4375 L 28.6133 -23.4375 C 26.4648 -23.4375 24.9512 -24.7559 24.9512 -27.002 C 24.9512 -28.0762 25.2441 -29.0527 25.8789 -30.2246 C 29.4922 -36.2793 36.1816 -47.1191 40.3809 -53.9062 C 41.7969 -56.2012 43.2617 -57.0801 45.6055 -57.0801 C 47.998 -57.0801 49.6582 -55.5176 49.6582 -53.1738 L 49.6582 -28.0762 L 53.4668 -28.0762 C 54.8828 -28.0762 55.7617 -27.1973 55.7617 -25.7324 C 55.7617 -24.2676 54.8828 -23.4375 53.4668 -23.4375 L 49.6582 -23.4375 L 49.6582 -16.3574 C 49.6582 -14.6973 48.8281 -13.623 47.1191 -13.623 Z M 75.5859 -13.4277 C 70.0195 -13.4277 65.8203 -15.625 63.3789 -20.4102 C 61.6211 -23.6816 60.7422 -28.1738 60.7422 -34.0332 C 60.7422 -49.1211 66.6504 -57.0801 76.4648 -57.0801 C 82.5684 -57.0801 86.7188 -53.6133 87.8906 -50.3418 C 88.0859 -49.8535 88.2324 -49.3164 88.2324 -48.8281 C 88.2324 -47.5098 87.3535 -46.5332 86.1328 -46.5332 C 84.9609 -46.5332 84.3262 -47.1191 83.6914 -48.1445 C 82.2754 -50.6348 79.6875 -52.2949 76.2695 -52.2949 C 69.7266 -52.2949 65.5762 -45.7031 65.5762 -34.9609 L 65.5762 -34.4727 L 65.8203 -34.4727 C 67.334 -38.2812 71.3379 -41.3574 76.8066 -41.3574 C 83.8867 -41.3574 89.7461 -36.2793 89.7461 -27.9297 C 89.7461 -18.8965 83.8867 -13.4277 75.5859 -13.4277 Z M 44.7266 -28.0762 L 44.7266 -51.4648 L 44.4336 -51.4648 C 40.6738 -45.3125 33.3496 -33.6914 30.4199 -28.2715 L 30.4199 -28.0762 Z M 75.4395 -18.0664 C 80.957 -18.0664 84.6191 -21.7773 84.6191 -27.6367 C 84.6191 -33.252 80.8594 -37.0117 75.4395 -37.0117 C 70.0195 -37.0117 66.2109 -33.1543 66.2109 -27.6855 C 66.2109 -22.0215 70.0195 -18.0664 75.4395 -18.0664 Z"/>
  </g>
  <g id="Thin-M" transform="matrix(1 0 0 1 799.806 1126)">
   <path d="M 56.6406 12.7441 C 82.9102 12.7441 104.492 -8.83789 104.492 -35.1562 C 104.492 -61.4746 82.9102 -83.0566 56.5918 -83.0566 C 30.3223 -83.0566 8.74023 -61.4746 8.74023 -35.1562 C 8.74023 -8.83789 30.3223 12.7441 56.6406 12.7441 Z M 45.7031 -14.1113 C 44.6777 -14.1113 44.043 -14.7949 44.043 -15.8691 L 44.043 -24.3652 L 26.5137 -24.3652 C 24.8535 -24.3652 23.7793 -25.2441 23.7793 -26.8555 C 23.7793 -27.5391 24.0234 -28.2715 24.3652 -28.9551 C 28.2227 -34.8633 36.9141 -48.291 41.0645 -54.5898 C 42.1387 -56.1523 43.1641 -56.6895 44.6777 -56.6895 C 46.2402 -56.6895 47.4121 -55.7129 47.4121 -54.1016 L 47.4121 -27.5879 L 52.4902 -27.5879 C 53.4668 -27.5879 54.1016 -26.9043 54.1016 -25.9277 C 54.1016 -24.9512 53.5156 -24.3652 52.4902 -24.3652 L 47.4121 -24.3652 L 47.4121 -15.8691 C 47.4121 -14.7949 46.8262 -14.1113 45.7031 -14.1113 Z M 74.3164 -13.8184 C 68.2617 -13.8184 64.3555 -16.3574 62.1094 -20.9473 C 60.4004 -24.2676 59.7168 -28.6621 59.7168 -33.9355 C 59.7168 -48.4375 65.4297 -56.6895 75.0977 -56.6895 C 81.5918 -56.6895 85.791 -52.6367 86.7676 -49.6582 C 86.9141 -49.3652 86.9629 -49.0234 86.9629 -48.6816 C 86.9629 -47.8027 86.4258 -47.0703 85.4492 -47.0703 C 84.668 -47.0703 84.2773 -47.5586 83.8867 -48.2422 C 82.2266 -51.416 79.0039 -53.3691 75 -53.3691 C 67.4805 -53.3691 62.9395 -46.1426 62.9395 -34.0332 L 62.9395 -33.5449 L 63.0859 -33.5449 C 64.8438 -37.9395 69.6289 -40.9668 75.0977 -40.9668 C 82.7148 -40.9668 88.4277 -35.5957 88.4277 -27.7832 C 88.4277 -19.3359 82.666 -13.8184 74.3164 -13.8184 Z M 44.043 -27.5879 L 44.043 -52.832 L 43.8477 -52.832 C 40.4297 -47.7051 30.4199 -32.6172 27.5879 -27.7344 L 27.5879 -27.5879 Z M 74.3164 -17.0898 C 80.6641 -17.0898 84.9609 -21.1426 84.9609 -27.5391 C 84.9609 -33.7891 80.6152 -37.8418 74.3652 -37.8418 C 68.1152 -37.8418 63.6719 -33.5938 63.6719 -27.6367 C 63.6719 -21.4355 68.1152 -17.0898 74.3164 -17.0898 Z"/>
  </g>
  <g id="Ultralight-M" transform="matrix(1 0 0 1 503.656 1126)">
   <path d="M 56.0547 12.207 C 82.0801 12.207 103.369 -9.08203 103.369 -35.1562 C 103.369 -61.1816 82.0801 -82.4707 56.0547 -82.4707 C 30.0293 -82.4707 8.74023 -61.1816 8.74023 -35.1562 C 8.74023 -9.08203 30.0293 12.207 56.0547 12.207 Z M 44.9707 -14.3555 C 44.2383 -14.3555 43.6523 -14.8438 43.6523 -15.625 L 43.6523 -24.8047 L 25.4395 -24.8047 C 24.0723 -24.8047 23.1445 -25.4883 23.1445 -26.7578 C 23.1445 -27.2461 23.3887 -27.8809 23.6328 -28.2715 C 27.5879 -34.1309 37.3047 -48.877 41.4062 -54.9316 C 42.2852 -56.1523 43.0664 -56.4941 44.1406 -56.4941 C 45.3613 -56.4941 46.2402 -55.7617 46.2402 -54.541 L 46.2402 -27.3438 L 52.002 -27.3438 C 52.7344 -27.3438 53.2227 -26.7578 53.2227 -26.0254 C 53.2227 -25.293 52.832 -24.8047 52.002 -24.8047 L 46.2402 -24.8047 L 46.2402 -15.625 C 46.2402 -14.8438 45.8008 -14.3555 44.9707 -14.3555 Z M 73.6816 -14.0137 C 67.3828 -14.0137 63.5742 -16.6992 61.4746 -21.1914 C 59.8145 -24.5605 59.1797 -28.9062 59.1797 -33.8867 C 59.1797 -48.0469 64.7949 -56.4941 74.3652 -56.4941 C 81.0547 -56.4941 85.3027 -52.0996 86.1816 -49.3164 C 86.2793 -49.1211 86.3281 -48.8281 86.3281 -48.584 C 86.3281 -47.998 85.9375 -47.3633 85.1074 -47.3633 C 84.5215 -47.3633 84.2285 -47.8027 83.9844 -48.291 C 82.2266 -51.8066 78.6621 -53.9551 74.3652 -53.9551 C 66.3574 -53.9551 61.6211 -46.3867 61.6211 -33.5449 L 61.6211 -33.0566 L 61.6699 -33.0566 C 63.623 -37.7441 68.75 -40.7715 74.2188 -40.7715 C 82.1289 -40.7715 87.6953 -35.2539 87.6953 -27.7344 C 87.6953 -19.5801 82.0312 -14.0137 73.6816 -14.0137 Z M 43.6523 -27.3438 L 43.6523 -53.5156 L 43.5547 -53.5156 C 40.332 -48.9258 28.9551 -32.0801 26.123 -27.4414 L 26.123 -27.3438 Z M 73.7793 -16.6016 C 80.5176 -16.6016 85.1562 -20.8496 85.1562 -27.5391 C 85.1562 -34.0332 80.4688 -38.2812 73.8281 -38.2812 C 67.1875 -38.2812 62.3535 -33.8379 62.3535 -27.5879 C 62.3535 -21.1426 67.1387 -16.6016 73.7793 -16.6016 Z"/>
  </g>
  <g id="Black-S" transform="matrix(1 0 0 1 2884.57 696)">
   <path d="M 48.8281 6.78711 C 71.9727 6.78711 90.8203 -12.0605 90.8203 -35.2051 C 90.8203 -58.3496 71.9727 -77.1973 48.8281 -77.1973 C 25.6836 -77.1973 6.83594 -58.3496 6.83594 -35.2051 C 6.83594 -12.0605 25.6836 6.78711 48.8281 6.78711 Z M 41.5527 -20.2637 C 39.4531 -20.2637 37.9883 -21.6797 37.9883 -23.7305 L 37.9883 -25.6348 L 31.7871 -25.6348 C 28.5645 -25.6348 26.9531 -27.3926 26.9531 -30.4199 C 26.9531 -32.3242 27.4414 -34.082 27.9785 -35.6445 C 28.7109 -38.1348 30.4688 -42.5781 31.8848 -45.5566 C 33.4473 -48.7305 35.5469 -50.2441 39.1602 -50.2441 C 43.2617 -50.2441 45.1172 -47.8516 45.1172 -43.8965 L 45.1172 -32.5684 L 45.5078 -32.5684 C 47.5586 -32.5684 48.6816 -31.1523 48.6816 -29.0527 C 48.6816 -27.002 47.5586 -25.7324 45.5078 -25.7324 L 45.1172 -25.7324 L 45.1172 -23.7305 C 45.1172 -21.6797 43.7012 -20.2637 41.5527 -20.2637 Z M 61.084 -20.2637 C 56.9336 -20.2637 53.5645 -22.168 51.8555 -26.1719 C 50.7812 -28.7598 50.1953 -31.9824 50.1953 -35.3027 C 50.1953 -44.9219 55.2734 -50.2441 61.6211 -50.2441 C 65.5273 -50.2441 68.2129 -48.4863 69.2383 -46.5332 C 69.6777 -45.6543 69.9219 -44.9707 69.9219 -43.9453 C 69.9219 -42.0898 68.2617 -40.9668 66.6504 -40.9668 C 65.2832 -40.9668 64.4531 -41.4551 63.916 -42.041 C 63.2324 -42.6758 62.5977 -43.3105 61.4258 -43.3105 C 59.4727 -43.3105 57.8613 -41.2598 57.8613 -38.4277 C 57.8613 -37.5 57.9102 -36.9629 57.959 -36.4258 L 58.1543 -36.4258 C 59.082 -38.1836 60.6934 -39.5996 63.4277 -39.5996 C 67.334 -39.5996 70.752 -36.377 70.752 -31.0059 C 70.752 -24.5605 66.9434 -20.2637 61.084 -20.2637 Z M 37.9883 -32.4707 L 37.9883 -42.7734 L 37.8906 -42.7734 C 36.8652 -39.9902 35.3027 -34.9609 34.5215 -32.6172 L 34.5215 -32.4707 Z M 60.6934 -27.002 C 62.0605 -27.002 63.1348 -28.2715 63.1348 -30.127 C 63.1348 -31.9824 62.0605 -33.252 60.6934 -33.252 C 59.1797 -33.252 58.1055 -31.9824 58.1055 -30.127 C 58.1055 -28.2227 59.1797 -27.002 60.6934 -27.002 Z"/>
  </g>
  <g id="Heavy-S" transform="matrix(1 0 0 1 2588.47 696)">
   <path d="M 48.2422 6.15234 C 70.9961 6.15234 89.5996 -12.4512 89.5996 -35.2051 C 89.5996 -57.959 70.9961 -76.6113 48.1934 -76.6113 C 25.4395 -76.6113 6.83594 -57.959 6.83594 -35.2051 C 6.83594 -12.4512 25.4395 6.15234 48.2422 6.15234 Z M 40.7715 -19.6777 C 38.7695 -19.6777 37.4512 -21.0938 37.4512 -23.0469 L 37.4512 -25.4883 L 30.0781 -25.4883 C 27.0508 -25.4883 25.4883 -27.1973 25.4883 -30.0781 C 25.4883 -31.8359 25.8789 -33.3984 26.4648 -34.9121 C 27.6855 -37.9883 29.7852 -42.7734 31.6895 -46.4355 C 33.2031 -49.4141 35.2051 -50.8301 38.5742 -50.8301 C 42.334 -50.8301 44.1895 -48.584 44.1895 -44.9707 L 44.1895 -31.9824 L 44.873 -31.9824 C 46.7773 -31.9824 47.9004 -30.7129 47.9004 -28.7109 C 47.9004 -26.7578 46.7773 -25.5859 44.873 -25.5859 L 44.1895 -25.5859 L 44.1895 -23.0469 C 44.1895 -21.0938 42.8711 -19.6777 40.7715 -19.6777 Z M 60.9375 -19.6777 C 56.8359 -19.6777 53.418 -21.4844 51.6113 -25.4395 C 50.4395 -28.0273 49.8047 -31.3477 49.8047 -35.0586 C 49.8047 -45.3613 54.834 -50.8301 61.5234 -50.8301 C 65.5762 -50.8301 68.3594 -48.9746 69.3848 -46.8262 C 69.7754 -45.9961 70.0195 -45.3613 70.0195 -44.4336 C 70.0195 -42.6758 68.5059 -41.6016 66.9922 -41.6016 C 65.6738 -41.6016 64.8438 -42.0898 64.2578 -42.7734 C 63.5254 -43.6035 62.6953 -44.2871 61.3281 -44.2871 C 58.8379 -44.2871 56.9336 -41.6992 56.9336 -37.8418 C 56.9336 -37.1094 56.9824 -36.6699 56.9824 -36.2305 L 57.2266 -36.2305 C 58.1543 -38.1348 59.9609 -39.7949 63.0371 -39.7949 C 67.1875 -39.7949 70.9473 -36.4746 70.9473 -30.6641 C 70.9473 -23.9746 66.9434 -19.6777 60.9375 -19.6777 Z M 37.4512 -31.9336 L 37.4512 -43.7012 L 37.3047 -43.7012 C 35.7422 -40.1855 33.7891 -34.9609 32.6172 -32.0801 L 32.6172 -31.9336 Z M 60.5469 -25.9766 C 62.4512 -25.9766 63.7695 -27.5391 63.7695 -29.9316 C 63.7695 -32.2754 62.4023 -33.8379 60.5469 -33.8379 C 58.5938 -33.8379 57.2266 -32.2754 57.2266 -29.9316 C 57.2266 -27.5879 58.5938 -25.9766 60.5469 -25.9766 Z"/>
  </g>
  <g id="Bold-S" transform="matrix(1 0 0 1 2292.44 696)">
   <path d="M 47.5586 5.46875 C 69.873 5.46875 88.2324 -12.8906 88.2324 -35.2051 C 88.2324 -57.5684 69.873 -75.9277 47.5098 -75.9277 C 25.1953 -75.9277 6.83594 -57.5684 6.83594 -35.2051 C 6.83594 -12.8906 25.1953 5.46875 47.5586 5.46875 Z M 39.9414 -19.043 C 37.9883 -19.043 36.8164 -20.4102 36.8164 -22.3145 L 36.8164 -25.3906 L 28.125 -25.3906 C 25.3906 -25.3906 23.8281 -26.9531 23.8281 -29.6875 C 23.8281 -31.25 24.1699 -32.6172 24.8047 -34.082 C 26.5137 -37.793 29.0527 -42.9688 31.4453 -47.4121 C 32.9102 -50.1953 34.7656 -51.4648 37.8906 -51.4648 C 41.2598 -51.4648 43.1152 -49.4141 43.1152 -46.1914 L 43.1152 -31.3477 L 44.1406 -31.3477 C 45.9473 -31.3477 46.9727 -30.1758 46.9727 -28.3203 C 46.9727 -26.5137 45.9473 -25.4395 44.1406 -25.4395 L 43.1152 -25.4395 L 43.1152 -22.3145 C 43.1152 -20.4102 41.9434 -19.043 39.9414 -19.043 Z M 60.7422 -18.9941 C 56.6895 -18.9941 53.2715 -20.6543 51.3672 -24.6582 C 50.0977 -27.1973 49.3652 -30.6152 49.3652 -34.8145 C 49.3652 -45.8496 54.3457 -51.4648 61.4258 -51.4648 C 65.5762 -51.4648 68.5059 -49.5117 69.5801 -47.1191 C 69.9219 -46.3867 70.1172 -45.8008 70.1172 -44.9707 C 70.1172 -43.3105 68.7988 -42.2852 67.3828 -42.2852 C 66.0645 -42.2852 65.2832 -42.7734 64.6484 -43.6523 C 63.8184 -44.5801 62.8418 -45.4102 61.1816 -45.4102 C 58.1055 -45.4102 55.8594 -42.1387 55.8594 -37.1582 C 55.8594 -36.6211 55.9082 -36.3281 55.9082 -35.9863 L 56.2012 -35.9863 C 57.0801 -38.0859 59.082 -39.9902 62.5977 -39.9902 C 67.0898 -39.9902 71.1914 -36.5723 71.1914 -30.3223 C 71.1914 -23.291 66.9434 -18.9941 60.7422 -18.9941 Z M 36.8164 -31.2988 L 36.8164 -44.7266 L 36.6211 -44.7266 C 34.4727 -40.3809 32.1289 -35.0098 30.5176 -31.4453 L 30.5176 -31.2988 Z M 60.4004 -24.8535 C 62.8906 -24.8535 64.502 -26.7578 64.502 -29.7363 C 64.502 -32.5684 62.8418 -34.5215 60.4004 -34.5215 C 57.9102 -34.5215 56.2012 -32.5684 56.2012 -29.7363 C 56.2012 -26.8555 57.9102 -24.8535 60.4004 -24.8535 Z"/>
  </g>
  <g id="Semibold-S" transform="matrix(1 0 0 1 1996.2 696)">
   <path d="M 47.0703 4.98047 C 69.0918 4.98047 87.3047 -13.1836 87.3047 -35.2539 C 87.3047 -57.2754 69.0918 -75.4883 47.0215 -75.4883 C 25 -75.4883 6.83594 -57.2754 6.83594 -35.2539 C 6.83594 -13.1836 25.0488 4.98047 47.0703 4.98047 Z M 39.3555 -18.6035 C 37.5 -18.6035 36.4258 -19.9707 36.4258 -21.7773 L 36.4258 -25.293 L 26.8066 -25.293 C 24.2188 -25.293 22.6562 -26.8066 22.6562 -29.3945 C 22.6562 -30.8594 22.998 -32.0801 23.6816 -33.5449 C 25.7324 -37.6465 28.5156 -43.1152 31.25 -48.0957 C 32.7637 -50.7812 34.5215 -51.9043 37.4512 -51.9043 C 40.5273 -51.9043 42.3828 -50 42.3828 -47.0215 L 42.3828 -30.9082 L 43.6523 -30.9082 C 45.3613 -30.9082 46.3867 -29.834 46.3867 -28.0762 C 46.3867 -26.3184 45.3613 -25.293 43.6523 -25.293 L 42.3828 -25.293 L 42.3828 -21.7773 C 42.3828 -19.9219 41.2598 -18.6035 39.3555 -18.6035 Z M 60.5957 -18.5547 C 56.6406 -18.5547 53.125 -20.1172 51.1719 -24.0723 C 49.8535 -26.6602 49.0723 -30.127 49.0723 -34.668 C 49.0723 -46.1914 54.0039 -51.9043 61.3281 -51.9043 C 65.625 -51.9043 68.6523 -49.9023 69.7266 -47.3633 C 70.0195 -46.6797 70.166 -46.0938 70.166 -45.3613 C 70.166 -43.75 68.9941 -42.7246 67.627 -42.7246 C 66.3574 -42.7246 65.625 -43.2617 64.9414 -44.2383 C 64.0625 -45.3125 62.8906 -46.1914 61.084 -46.1914 C 57.6172 -46.1914 55.1758 -42.4805 55.1758 -36.7188 C 55.1758 -36.3281 55.1758 -36.084 55.1758 -35.8398 L 55.4688 -35.8398 C 56.3477 -38.0371 58.5449 -40.1367 62.3047 -40.1367 C 66.9922 -40.1367 71.3379 -36.6211 71.3379 -30.0781 C 71.3379 -22.8516 66.8945 -18.5547 60.5957 -18.5547 Z M 36.4258 -30.8594 L 36.4258 -45.4102 L 36.1816 -45.4102 C 33.5938 -40.5273 30.957 -35.0098 29.0527 -31.0547 L 29.0527 -30.8594 Z M 60.3027 -24.0723 C 63.1836 -24.0723 65.0391 -26.2207 65.0391 -29.5898 C 65.0391 -32.8125 63.0859 -34.9609 60.3027 -34.9609 C 57.4219 -34.9609 55.5176 -32.7637 55.5176 -29.6387 C 55.5176 -26.3672 57.4707 -24.0723 60.3027 -24.0723 Z"/>
  </g>
  <g id="Medium-S" transform="matrix(1 0 0 1 1699.83 696)">
   <path d="M 46.7285 4.63867 C 68.5547 4.63867 86.6211 -13.4277 86.6211 -35.2539 C 86.6211 -57.0312 68.5059 -75.1465 46.6797 -75.1465 C 24.8535 -75.1465 6.83594 -57.0312 6.83594 -35.2539 C 6.83594 -13.4277 24.9023 4.63867 46.7285 4.63867 Z M 38.8672 -18.2617 C 37.0605 -18.2617 36.084 -19.5801 36.084 -21.3867 L 36.084 -25.1953 L 25.7812 -25.1953 C 23.3887 -25.1953 21.7773 -26.6602 21.7773 -29.1992 C 21.7773 -30.5664 22.0703 -31.6406 22.8027 -33.1055 C 25.0977 -37.5488 28.125 -43.2617 31.1523 -48.584 C 32.6172 -51.1719 34.2773 -52.2461 37.1094 -52.2461 C 39.9902 -52.2461 41.7969 -50.4395 41.7969 -47.6074 L 41.7969 -30.5664 L 43.3105 -30.5664 C 44.9219 -30.5664 45.8984 -29.541 45.8984 -27.8809 C 45.8984 -26.1719 44.9219 -25.2441 43.3105 -25.2441 L 41.7969 -25.2441 L 41.7969 -21.3867 C 41.7969 -19.5801 40.7715 -18.2617 38.8672 -18.2617 Z M 60.5469 -18.2129 C 56.543 -18.2129 53.0762 -19.7266 51.0254 -23.6816 C 49.6582 -26.2207 48.877 -29.7363 48.877 -34.5215 C 48.877 -46.4355 53.7598 -52.2461 61.2793 -52.2461 C 65.625 -52.2461 68.7012 -50.1953 69.8242 -47.5098 C 70.0684 -46.875 70.2637 -46.2891 70.2637 -45.6543 C 70.2637 -44.0918 69.1406 -43.1152 67.8223 -43.1152 C 66.5527 -43.1152 65.8691 -43.6035 65.1367 -44.6777 C 64.209 -45.8496 62.9883 -46.7773 61.0352 -46.7773 C 57.2754 -46.7773 54.5898 -42.7246 54.5898 -36.377 C 54.5898 -36.084 54.6387 -35.9375 54.6387 -35.6934 L 54.9316 -35.6934 C 55.8105 -38.0371 58.1055 -40.2344 62.0605 -40.2344 C 66.8945 -40.2344 71.4844 -36.6699 71.4844 -29.8828 C 71.4844 -22.4609 66.8945 -18.2129 60.5469 -18.2129 Z M 36.084 -30.5176 L 36.084 -45.9473 L 35.8398 -45.9473 C 32.9102 -40.6738 30.0781 -35.0098 27.9785 -30.7129 L 27.9785 -30.5176 Z M 60.2051 -23.4863 C 63.3789 -23.4863 65.4297 -25.8301 65.4297 -29.4922 C 65.4297 -32.959 63.3301 -35.3516 60.2539 -35.3516 C 57.0801 -35.3516 54.9805 -32.959 54.9805 -29.541 C 54.9805 -25.9766 57.1289 -23.4863 60.2051 -23.4863 Z"/>
  </g>
  <g id="Regular-S" transform="matrix(1 0 0 1 1403.58 696)">
   <path d="M 46.2402 4.15039 C 67.7734 4.15039 85.6934 -13.7207 85.6934 -35.2539 C 85.6934 -56.7871 67.7246 -74.6582 46.1914 -74.6582 C 24.707 -74.6582 6.83594 -56.7871 6.83594 -35.2539 C 6.83594 -13.7207 24.7559 4.15039 46.2402 4.15039 Z M 38.3301 -17.8223 C 36.5723 -17.8223 35.6445 -19.1406 35.6445 -20.8984 L 35.6445 -25.0977 L 24.4629 -25.0977 C 22.2168 -25.0977 20.6543 -26.5137 20.6543 -28.9551 C 20.6543 -30.1758 20.8984 -31.1035 21.6309 -32.5684 C 24.3164 -37.4512 27.6367 -43.4082 31.0059 -49.2676 C 32.4219 -51.709 34.0332 -52.6855 36.6699 -52.6855 C 39.2578 -52.6855 41.1133 -50.9766 41.1133 -48.4375 L 41.1133 -30.127 L 42.8223 -30.127 C 44.3359 -30.127 45.3125 -29.1992 45.3125 -27.5879 C 45.3125 -26.0254 44.3359 -25.0977 42.8223 -25.0977 L 41.1133 -25.0977 L 41.1133 -20.8984 C 41.1133 -19.0918 40.1367 -17.8223 38.3301 -17.8223 Z M 60.4004 -17.7734 C 56.4941 -17.7734 52.9297 -19.1895 50.8301 -23.0957 C 49.4141 -25.6348 48.584 -29.248 48.584 -34.375 C 48.584 -46.7773 53.418 -52.6855 61.2305 -52.6855 C 65.6738 -52.6855 68.8477 -50.5859 69.9219 -47.7051 C 70.166 -47.168 70.3125 -46.582 70.3125 -46.0449 C 70.3125 -44.5312 69.3359 -43.5547 68.0664 -43.5547 C 66.8457 -43.5547 66.1621 -44.0918 65.3809 -45.2148 C 64.4531 -46.5332 63.0371 -47.5586 60.9375 -47.5586 C 56.7871 -47.5586 53.9062 -43.0176 53.9062 -35.9375 L 53.9062 -35.5469 L 54.1992 -35.5469 C 55.0781 -37.9883 57.5195 -40.3809 61.7676 -40.3809 C 66.7969 -40.3809 71.6309 -36.7188 71.6309 -29.6387 C 71.6309 -22.0215 66.8945 -17.7734 60.4004 -17.7734 Z M 35.6445 -30.127 L 35.6445 -46.6309 L 35.4004 -46.6309 C 32.0312 -40.8203 28.9062 -35.0098 26.5137 -30.3223 L 26.5137 -30.127 Z M 60.1074 -22.7051 C 63.6719 -22.7051 65.918 -25.293 65.918 -29.3457 C 65.918 -33.1543 63.5742 -35.791 60.1074 -35.791 C 56.6406 -35.791 54.2969 -33.1543 54.2969 -29.3945 C 54.2969 -25.4883 56.6406 -22.7051 60.1074 -22.7051 Z"/>
  </g>
  <g id="Light-S" transform="matrix(1 0 0 1 1107.6 696)">
   <path d="M 45.5078 3.4668 C 66.6992 3.4668 84.2285 -14.0625 84.2285 -35.2051 C 84.2285 -56.3965 66.6504 -73.9258 45.5078 -73.9258 C 24.3164 -73.9258 6.83594 -56.3965 6.83594 -35.2051 C 6.83594 -14.0625 24.3652 3.4668 45.5078 3.4668 Z M 37.3535 -18.1641 C 35.9863 -18.1641 35.2051 -19.1895 35.2051 -20.5566 L 35.2051 -25.7324 L 23.0469 -25.7324 C 21.1914 -25.7324 19.873 -26.8555 19.873 -28.8574 C 19.873 -29.7852 20.1172 -30.6152 20.6543 -31.6895 C 23.4863 -36.4746 28.125 -44.1895 31.4453 -49.707 C 32.6172 -51.6602 33.9355 -52.4414 35.9863 -52.4414 C 38.0859 -52.4414 39.5508 -51.0742 39.5508 -49.0234 L 39.5508 -29.7852 L 42.1387 -29.7852 C 43.3594 -29.7852 44.1895 -29.0039 44.1895 -27.7344 C 44.1895 -26.4648 43.4082 -25.7324 42.1387 -25.7324 L 39.5508 -25.7324 L 39.5508 -20.5566 C 39.5508 -19.1406 38.8184 -18.1641 37.3535 -18.1641 Z M 59.5703 -18.0176 C 55.3223 -18.0176 51.9531 -19.6777 50 -23.4375 C 48.6328 -26.0254 47.8516 -29.5898 47.8516 -34.3262 C 47.8516 -46.3379 52.5879 -52.4414 60.3027 -52.4414 C 64.9902 -52.4414 68.2129 -49.9023 69.1895 -47.2656 C 69.3848 -46.8262 69.4824 -46.3867 69.4824 -45.9473 C 69.4824 -44.7266 68.7012 -43.9453 67.627 -43.9453 C 66.6504 -43.9453 66.1133 -44.3848 65.5273 -45.3125 C 64.4531 -47.0703 62.5977 -48.291 60.1074 -48.291 C 55.2734 -48.291 52.1484 -43.3105 52.1484 -35.3027 L 52.1484 -34.9121 L 52.3926 -34.9121 C 53.418 -37.7441 56.3477 -40.1367 60.6445 -40.1367 C 66.0156 -40.1367 70.7031 -36.2793 70.7031 -29.541 C 70.7031 -22.3145 66.0645 -18.0176 59.5703 -18.0176 Z M 35.2051 -29.7852 L 35.2051 -47.5586 L 34.9609 -47.5586 C 31.8848 -42.4316 26.9531 -34.3262 24.6094 -29.9316 L 24.6094 -29.7852 Z M 59.375 -22.0215 C 63.4766 -22.0215 66.1621 -24.8535 66.1621 -29.2969 C 66.1621 -33.4961 63.4277 -36.377 59.4238 -36.377 C 55.3711 -36.377 52.5879 -33.4473 52.5879 -29.3457 C 52.5879 -25.0488 55.3711 -22.0215 59.375 -22.0215 Z"/>
  </g>
  <g id="Thin-S" transform="matrix(1 0 0 1 811.867 696)">
   <path d="M 44.5801 2.53906 C 65.2832 2.53906 82.2754 -14.4531 82.2754 -35.2051 C 82.2754 -55.9082 65.2344 -72.9004 44.5312 -72.9004 C 23.8281 -72.9004 6.83594 -55.9082 6.83594 -35.2051 C 6.83594 -14.4531 23.877 2.53906 44.5801 2.53906 Z M 36.084 -18.5547 C 35.1562 -18.5547 34.6191 -19.1895 34.6191 -20.166 L 34.6191 -26.5137 L 21.1426 -26.5137 C 19.7754 -26.5137 18.8477 -27.2949 18.8477 -28.7109 C 18.8477 -29.2969 19.043 -29.9316 19.3848 -30.5664 C 22.3633 -35.2051 28.7598 -45.2148 32.0312 -50.2441 C 32.9102 -51.6602 33.8379 -52.0996 35.1562 -52.0996 C 36.5723 -52.0996 37.5488 -51.2207 37.5488 -49.8535 L 37.5488 -29.3457 L 41.3086 -29.3457 C 42.1387 -29.3457 42.6758 -28.7598 42.6758 -27.9297 C 42.6758 -27.0508 42.1875 -26.5137 41.3086 -26.5137 L 37.5488 -26.5137 L 37.5488 -20.166 C 37.5488 -19.1895 37.0605 -18.5547 36.084 -18.5547 Z M 58.4473 -18.3594 C 53.8086 -18.3594 50.6836 -20.3125 48.877 -23.9258 C 47.5586 -26.5137 46.9727 -29.9805 46.9727 -34.2285 C 46.9727 -45.7031 51.4648 -52.0996 59.082 -52.0996 C 64.1113 -52.0996 67.3828 -49.0234 68.1641 -46.6797 C 68.3105 -46.4355 68.3594 -46.0938 68.3594 -45.8008 C 68.3594 -45.0195 67.8711 -44.4336 67.0898 -44.4336 C 66.4062 -44.4336 66.0156 -44.8242 65.6738 -45.4102 C 64.4043 -47.7539 62.0117 -49.2188 58.9844 -49.2188 C 53.3203 -49.2188 49.8047 -43.7012 49.8047 -34.4727 L 49.8047 -34.082 L 49.9512 -34.082 C 51.2695 -37.4023 54.8828 -39.7949 59.1309 -39.7949 C 64.9902 -39.7949 69.5312 -35.6445 69.5312 -29.4434 C 69.5312 -22.7051 64.9902 -18.3594 58.4473 -18.3594 Z M 34.6191 -29.3457 L 34.6191 -48.7305 L 34.4727 -48.7305 C 31.7383 -44.5312 24.3652 -33.3984 22.1191 -29.4434 L 22.1191 -29.3457 Z M 58.4473 -21.1914 C 63.2324 -21.1914 66.5039 -24.3164 66.5039 -29.248 C 66.5039 -33.9844 63.1836 -37.1094 58.4473 -37.1094 C 53.7109 -37.1094 50.3418 -33.8867 50.3418 -29.2969 C 50.3418 -24.5605 53.7109 -21.1914 58.4473 -21.1914 Z"/>
  </g>
  <g id="Ultralight-S" transform="matrix(1 0 0 1 515.644 696)">
   <path d="M 44.043 2.05078 C 64.502 2.05078 81.2988 -14.6973 81.2988 -35.1562 C 81.2988 -55.6152 64.502 -72.3633 44.043 -72.3633 C 23.584 -72.3633 6.83594 -55.6152 6.83594 -35.1562 C 6.83594 -14.6973 23.584 2.05078 44.043 2.05078 Z M 35.4004 -18.7988 C 34.7656 -18.7988 34.2773 -19.2383 34.2773 -19.9219 L 34.2773 -26.9531 L 20.2148 -26.9531 C 19.043 -26.9531 18.3105 -27.5391 18.3105 -28.6133 C 18.3105 -29.0527 18.5059 -29.5898 18.7012 -29.9805 C 21.7773 -34.5703 29.1016 -45.752 32.373 -50.5859 C 33.0566 -51.6113 33.7402 -51.9531 34.7168 -51.9531 C 35.791 -51.9531 36.5234 -51.3184 36.5234 -50.2441 L 36.5234 -29.1016 L 40.8691 -29.1016 C 41.5039 -29.1016 41.9434 -28.6621 41.9434 -28.0273 C 41.9434 -27.3926 41.5527 -26.9531 40.8691 -26.9531 L 36.5234 -26.9531 L 36.5234 -19.9219 C 36.5234 -19.2383 36.1328 -18.7988 35.4004 -18.7988 Z M 57.9102 -18.5547 C 53.0273 -18.5547 50 -20.6055 48.3398 -24.1699 C 47.0215 -26.8066 46.4844 -30.2246 46.4844 -34.1797 C 46.4844 -45.3613 50.9277 -51.9531 58.4473 -51.9531 C 63.623 -51.9531 66.9434 -48.584 67.627 -46.3379 C 67.7734 -46.1914 67.8223 -45.9473 67.8223 -45.7031 C 67.8223 -45.166 67.4316 -44.6777 66.748 -44.6777 C 66.2598 -44.6777 65.9668 -45.0195 65.7715 -45.459 C 64.4043 -48.0957 61.6699 -49.7559 58.4473 -49.7559 C 52.2949 -49.7559 48.6328 -43.8965 48.6328 -34.0332 L 48.6328 -33.6426 L 48.6816 -33.6426 C 50.1465 -37.2559 54.1016 -39.6484 58.3984 -39.6484 C 64.4531 -39.6484 68.8965 -35.3027 68.8965 -29.3457 C 68.8965 -22.9004 64.4531 -18.5547 57.9102 -18.5547 Z M 34.2773 -29.1016 L 34.2773 -49.3652 L 34.1797 -49.3652 C 31.5918 -45.6543 23.0469 -32.9102 20.8496 -29.1992 L 20.8496 -29.1016 Z M 57.9102 -20.752 C 63.1348 -20.752 66.6504 -24.0234 66.6504 -29.1992 C 66.6504 -34.2285 63.0859 -37.5 57.959 -37.5 C 52.8809 -37.5 49.1699 -34.082 49.1699 -29.248 C 49.1699 -24.2676 52.832 -20.752 57.9102 -20.752 Z"/>
  </g>
 </g>
</svg>
