<?xml version="1.0" encoding="UTF-8"?>
<!--Generator: Apple Native CoreSVG 123-->
<!DOCTYPE svg
PUBLIC "-//W3C//DTD SVG 1.1//EN"
       "http://www.w3.org/Graphics/SVG/1.1/DTD/svg11.dtd">
<svg version="1.1" xmlns="http://www.w3.org/2000/svg" xmlns:xlink="http://www.w3.org/1999/xlink" width="3300" height="2200">
 <!--glyph: "uni1006B6.medium", point size: 100.000000, font version: "Version 15.0d7e11", template writer version: "5"-->
 <g id="Notes">
  <rect height="2200" id="artboard" style="fill:white;opacity:1" width="3300" x="0" y="0"/>
  <line id="" style="fill:none;stroke:black;opacity:1;stroke-width:0.5;" x1="263" x2="3036" y1="292" y2="292"/>
  <text style="stroke:none;fill:black;font-family:-apple-system,&quot;SF Pro Display&quot;,&quot;SF Pro Text&quot;,Helvetica,sans-serif;font-weight:bold;" transform="matrix(1 0 0 1 263 322)">Weight/Scale Variations</text>
  <text style="stroke:none;fill:black;font-family:-apple-system,&quot;SF Pro Display&quot;,&quot;SF Pro Text&quot;,Helvetica,sans-serif;text-anchor:middle;" transform="matrix(1 0 0 1 559.711 322)">Ultralight</text>
  <text style="stroke:none;fill:black;font-family:-apple-system,&quot;SF Pro Display&quot;,&quot;SF Pro Text&quot;,Helvetica,sans-serif;text-anchor:middle;" transform="matrix(1 0 0 1 856.422 322)">Thin</text>
  <text style="stroke:none;fill:black;font-family:-apple-system,&quot;SF Pro Display&quot;,&quot;SF Pro Text&quot;,Helvetica,sans-serif;text-anchor:middle;" transform="matrix(1 0 0 1 1153.13 322)">Light</text>
  <text style="stroke:none;fill:black;font-family:-apple-system,&quot;SF Pro Display&quot;,&quot;SF Pro Text&quot;,Helvetica,sans-serif;text-anchor:middle;" transform="matrix(1 0 0 1 1449.84 322)">Regular</text>
  <text style="stroke:none;fill:black;font-family:-apple-system,&quot;SF Pro Display&quot;,&quot;SF Pro Text&quot;,Helvetica,sans-serif;text-anchor:middle;" transform="matrix(1 0 0 1 1746.56 322)">Medium</text>
  <text style="stroke:none;fill:black;font-family:-apple-system,&quot;SF Pro Display&quot;,&quot;SF Pro Text&quot;,Helvetica,sans-serif;text-anchor:middle;" transform="matrix(1 0 0 1 2043.27 322)">Semibold</text>
  <text style="stroke:none;fill:black;font-family:-apple-system,&quot;SF Pro Display&quot;,&quot;SF Pro Text&quot;,Helvetica,sans-serif;text-anchor:middle;" transform="matrix(1 0 0 1 2339.98 322)">Bold</text>
  <text style="stroke:none;fill:black;font-family:-apple-system,&quot;SF Pro Display&quot;,&quot;SF Pro Text&quot;,Helvetica,sans-serif;text-anchor:middle;" transform="matrix(1 0 0 1 2636.69 322)">Heavy</text>
  <text style="stroke:none;fill:black;font-family:-apple-system,&quot;SF Pro Display&quot;,&quot;SF Pro Text&quot;,Helvetica,sans-serif;text-anchor:middle;" transform="matrix(1 0 0 1 2933.4 322)">Black</text>
  <line id="" style="fill:none;stroke:black;opacity:1;stroke-width:0.5;" x1="263" x2="3036" y1="1903" y2="1903"/>
  <g id="" transform="matrix(1 0 0 1 263 1933)">
   <path d="M 9.24805 0.830078 C 13.5547 0.830078 17.1387 -2.74414 17.1387 -7.05078 C 17.1387 -11.3574 13.5449 -14.9316 9.23828 -14.9316 C 4.94141 -14.9316 1.36719 -11.3574 1.36719 -7.05078 C 1.36719 -2.74414 4.95117 0.830078 9.24805 0.830078 Z M 9.24805 -0.654297 C 5.70312 -0.654297 2.87109 -3.49609 2.87109 -7.05078 C 2.87109 -10.6055 5.69336 -13.4473 9.23828 -13.4473 C 12.793 -13.4473 15.6348 -10.6055 15.6445 -7.05078 C 15.6543 -3.49609 12.8027 -0.654297 9.24805 -0.654297 Z M 9.22852 -3.42773 C 9.69727 -3.42773 9.9707 -3.74023 9.9707 -4.25781 L 9.9707 -6.31836 L 12.1973 -6.31836 C 12.6953 -6.31836 13.0371 -6.57227 13.0371 -7.04102 C 13.0371 -7.51953 12.7148 -7.7832 12.1973 -7.7832 L 9.9707 -7.7832 L 9.9707 -10.0098 C 9.9707 -10.5273 9.69727 -10.8496 9.22852 -10.8496 C 8.75977 -10.8496 8.50586 -10.5078 8.50586 -10.0098 L 8.50586 -7.7832 L 6.29883 -7.7832 C 5.78125 -7.7832 5.44922 -7.51953 5.44922 -7.04102 C 5.44922 -6.57227 5.80078 -6.31836 6.29883 -6.31836 L 8.50586 -6.31836 L 8.50586 -4.25781 C 8.50586 -3.75977 8.75977 -3.42773 9.22852 -3.42773 Z"/>
  </g>
  <g id="" transform="matrix(1 0 0 1 281.506 1933)">
   <path d="M 11.709 2.91016 C 17.1582 2.91016 21.6699 -1.60156 21.6699 -7.05078 C 21.6699 -12.4902 17.1484 -17.0117 11.6992 -17.0117 C 6.25977 -17.0117 1.74805 -12.4902 1.74805 -7.05078 C 1.74805 -1.60156 6.26953 2.91016 11.709 2.91016 Z M 11.709 1.25 C 7.09961 1.25 3.41797 -2.44141 3.41797 -7.05078 C 3.41797 -11.6504 7.08984 -15.3516 11.6992 -15.3516 C 16.3086 -15.3516 20 -11.6504 20.0098 -7.05078 C 20.0195 -2.44141 16.3184 1.25 11.709 1.25 Z M 11.6895 -2.41211 C 12.207 -2.41211 12.5195 -2.77344 12.5195 -3.33984 L 12.5195 -6.23047 L 15.5762 -6.23047 C 16.123 -6.23047 16.5039 -6.51367 16.5039 -7.03125 C 16.5039 -7.55859 16.1426 -7.86133 15.5762 -7.86133 L 12.5195 -7.86133 L 12.5195 -10.9277 C 12.5195 -11.5039 12.207 -11.8555 11.6895 -11.8555 C 11.1719 -11.8555 10.8789 -11.4844 10.8789 -10.9277 L 10.8789 -7.86133 L 7.83203 -7.86133 C 7.26562 -7.86133 6.89453 -7.55859 6.89453 -7.03125 C 6.89453 -6.51367 7.28516 -6.23047 7.83203 -6.23047 L 10.8789 -6.23047 L 10.8789 -3.33984 C 10.8789 -2.79297 11.1719 -2.41211 11.6895 -2.41211 Z"/>
  </g>
  <g id="" transform="matrix(1 0 0 1 304.924 1933)">
   <path d="M 14.9707 5.67383 C 21.9336 5.67383 27.6953 -0.078125 27.6953 -7.04102 C 27.6953 -14.0039 21.9238 -19.7559 14.9609 -19.7559 C 8.00781 -19.7559 2.25586 -14.0039 2.25586 -7.04102 C 2.25586 -0.078125 8.01758 5.67383 14.9707 5.67383 Z M 14.9707 3.85742 C 8.93555 3.85742 4.08203 -1.00586 4.08203 -7.04102 C 4.08203 -13.0762 8.92578 -17.9395 14.9609 -17.9395 C 21.0059 -17.9395 25.8594 -13.0762 25.8691 -7.04102 C 25.8789 -1.00586 21.0156 3.85742 14.9707 3.85742 Z M 14.9512 -1.06445 C 15.5176 -1.06445 15.8691 -1.45508 15.8691 -2.06055 L 15.8691 -6.13281 L 20.1074 -6.13281 C 20.6934 -6.13281 21.1133 -6.46484 21.1133 -7.02148 C 21.1133 -7.59766 20.7227 -7.93945 20.1074 -7.93945 L 15.8691 -7.93945 L 15.8691 -12.1875 C 15.8691 -12.8027 15.5176 -13.1934 14.9512 -13.1934 C 14.3848 -13.1934 14.0625 -12.7832 14.0625 -12.1875 L 14.0625 -7.93945 L 9.83398 -7.93945 C 9.21875 -7.93945 8.80859 -7.59766 8.80859 -7.02148 C 8.80859 -6.46484 9.23828 -6.13281 9.83398 -6.13281 L 14.0625 -6.13281 L 14.0625 -2.06055 C 14.0625 -1.47461 14.3848 -1.06445 14.9512 -1.06445 Z"/>
  </g>
  <text style="stroke:none;fill:black;font-family:-apple-system,&quot;SF Pro Display&quot;,&quot;SF Pro Text&quot;,Helvetica,sans-serif;font-weight:bold;" transform="matrix(1 0 0 1 263 1953)">Design Variations</text>
  <text style="stroke:none;fill:black;font-family:-apple-system,&quot;SF Pro Display&quot;,&quot;SF Pro Text&quot;,Helvetica,sans-serif;" transform="matrix(1 0 0 1 263 1971)">Symbols are supported in up to nine weights and three scales.</text>
  <text style="stroke:none;fill:black;font-family:-apple-system,&quot;SF Pro Display&quot;,&quot;SF Pro Text&quot;,Helvetica,sans-serif;" transform="matrix(1 0 0 1 263 1989)">For optimal layout with text and other symbols, vertically align</text>
  <text style="stroke:none;fill:black;font-family:-apple-system,&quot;SF Pro Display&quot;,&quot;SF Pro Text&quot;,Helvetica,sans-serif;" transform="matrix(1 0 0 1 263 2007)">symbols with the adjacent text.</text>
  <rect height="14" id="" style="fill:#00AEEF;stroke:none;opacity:0.4;" width="3" x="776" y="1919"/>
  <g id="" transform="matrix(1 0 0 1 779 1933)">
   <path d="M 10.5273 0 L 12.373 0 L 7.17773 -14.0918 L 5.43945 -14.0918 L 0.244141 0 L 2.08984 0 L 3.50586 -4.0332 L 9.11133 -4.0332 Z M 6.2793 -11.9531 L 6.33789 -11.9531 L 8.59375 -5.52734 L 4.02344 -5.52734 Z"/>
  </g>
  <rect height="14" id="" style="fill:#00AEEF;stroke:none;opacity:0.4;" width="3" x="791.617" y="1919"/>
  <text style="stroke:none;fill:black;font-family:-apple-system,&quot;SF Pro Display&quot;,&quot;SF Pro Text&quot;,Helvetica,sans-serif;font-weight:bold;" transform="matrix(1 0 0 1 776 1953)">Margins</text>
  <text style="stroke:none;fill:black;font-family:-apple-system,&quot;SF Pro Display&quot;,&quot;SF Pro Text&quot;,Helvetica,sans-serif;" transform="matrix(1 0 0 1 776 1971)">Leading and trailing margins on the left and right side of each symbol</text>
  <text style="stroke:none;fill:black;font-family:-apple-system,&quot;SF Pro Display&quot;,&quot;SF Pro Text&quot;,Helvetica,sans-serif;" transform="matrix(1 0 0 1 776 1989)">can be adjusted by modifying the width of the blue rectangles.</text>
  <text style="stroke:none;fill:black;font-family:-apple-system,&quot;SF Pro Display&quot;,&quot;SF Pro Text&quot;,Helvetica,sans-serif;" transform="matrix(1 0 0 1 776 2007)">Modifications are automatically applied proportionally to all</text>
  <text style="stroke:none;fill:black;font-family:-apple-system,&quot;SF Pro Display&quot;,&quot;SF Pro Text&quot;,Helvetica,sans-serif;" transform="matrix(1 0 0 1 776 2025)">scales and weights.</text>
  <g id="" transform="matrix(1 0 0 1 1289 1933)">
   <path d="M 2.83203 3.11523 L 4.375 4.6582 C 5.22461 5.48828 6.19141 5.41992 7.06055 4.46289 L 17.2754 -6.66016 C 17.7051 -6.36719 18.0957 -6.37695 18.5645 -6.47461 L 19.6094 -6.68945 L 20.3027 -5.99609 L 20.2539 -5.47852 C 20.1855 -4.95117 20.3516 -4.53125 20.8496 -4.0332 L 21.6602 -3.22266 C 22.168 -2.71484 22.8223 -2.68555 23.3008 -3.16406 L 26.5527 -6.41602 C 27.0312 -6.89453 27.0117 -7.54883 26.5039 -8.05664 L 25.6836 -8.87695 C 25.1855 -9.375 24.7754 -9.55078 24.2383 -9.47266 L 23.7109 -9.41406 L 23.0566 -10.0781 L 23.3398 -11.2207 C 23.4863 -11.7871 23.3398 -12.2559 22.7148 -12.8613 L 20.3027 -15.2539 C 16.7578 -18.7793 12.2266 -18.6719 9.11133 -15.5371 C 8.69141 -15.1074 8.64258 -14.5215 8.91602 -14.0918 C 9.15039 -13.7207 9.62891 -13.4961 10.2734 -13.6621 C 11.7871 -14.043 13.3008 -13.9258 14.7852 -12.9199 L 14.1602 -11.3379 C 13.9258 -10.752 13.9453 -10.2734 14.1797 -9.83398 L 3.01758 0.439453 C 2.08008 1.30859 1.97266 2.25586 2.83203 3.11523 Z M 10.6738 -15.1465 C 13.3398 -17.1387 16.6504 -16.8262 19.0527 -14.4141 L 21.6797 -11.8066 C 21.9141 -11.5723 21.9434 -11.3867 21.8848 -11.0938 L 21.5039 -9.53125 L 23.0762 -7.95898 L 24.043 -8.04688 C 24.3262 -8.07617 24.4141 -8.05664 24.6387 -7.83203 L 25.2637 -7.20703 L 22.5098 -4.46289 L 21.8848 -5.07812 C 21.6602 -5.30273 21.6406 -5.40039 21.6699 -5.68359 L 21.7578 -6.64062 L 20.1953 -8.20312 L 18.5742 -7.89062 C 18.291 -7.83203 18.1445 -7.83203 17.9102 -8.07617 L 15.7324 -10.2539 C 15.5078 -10.4883 15.4785 -10.625 15.6055 -10.9473 L 16.5527 -13.2227 C 14.9512 -14.7559 12.8418 -15.6055 10.8008 -14.9512 C 10.7129 -14.9219 10.6445 -14.9414 10.6152 -14.9805 C 10.5859 -15.0293 10.5859 -15.0781 10.6738 -15.1465 Z M 4.10156 2.41211 C 3.61328 1.91406 3.78906 1.61133 4.12109 1.30859 L 15.0781 -8.80859 L 16.3086 -7.57812 L 6.15234 3.34961 C 5.84961 3.68164 5.46875 3.7793 5.06836 3.37891 Z"/>
  </g>
  <text style="stroke:none;fill:black;font-family:-apple-system,&quot;SF Pro Display&quot;,&quot;SF Pro Text&quot;,Helvetica,sans-serif;font-weight:bold;" transform="matrix(1 0 0 1 1289 1953)">Exporting</text>
  <text style="stroke:none;fill:black;font-family:-apple-system,&quot;SF Pro Display&quot;,&quot;SF Pro Text&quot;,Helvetica,sans-serif;" transform="matrix(1 0 0 1 1289 1971)">Symbols should be outlined when exporting to ensure the</text>
  <text style="stroke:none;fill:black;font-family:-apple-system,&quot;SF Pro Display&quot;,&quot;SF Pro Text&quot;,Helvetica,sans-serif;" transform="matrix(1 0 0 1 1289 1989)">design is preserved when submitting to Xcode.</text>
  <text id="template-version" style="stroke:none;fill:black;font-family:-apple-system,&quot;SF Pro Display&quot;,&quot;SF Pro Text&quot;,Helvetica,sans-serif;text-anchor:end;" transform="matrix(1 0 0 1 3036 1933)">Template v.1.0</text>
  <text style="stroke:none;fill:black;font-family:-apple-system,&quot;SF Pro Display&quot;,&quot;SF Pro Text&quot;,Helvetica,sans-serif;text-anchor:end;" transform="matrix(1 0 0 1 3036 1951)">Generated from 47.circle.fill</text>
  <text style="stroke:none;fill:black;font-family:-apple-system,&quot;SF Pro Display&quot;,&quot;SF Pro Text&quot;,Helvetica,sans-serif;text-anchor:end;" transform="matrix(1 0 0 1 3036 1969)">Typeset at 100 points</text>
  <text style="stroke:none;fill:black;font-family:-apple-system,&quot;SF Pro Display&quot;,&quot;SF Pro Text&quot;,Helvetica,sans-serif;" transform="matrix(1 0 0 1 263 726)">Small</text>
  <text style="stroke:none;fill:black;font-family:-apple-system,&quot;SF Pro Display&quot;,&quot;SF Pro Text&quot;,Helvetica,sans-serif;" transform="matrix(1 0 0 1 263 1156)">Medium</text>
  <text style="stroke:none;fill:black;font-family:-apple-system,&quot;SF Pro Display&quot;,&quot;SF Pro Text&quot;,Helvetica,sans-serif;" transform="matrix(1 0 0 1 263 1586)">Large</text>
 </g>
 <g id="Guides">
  <g id="H-reference" style="fill:#27AAE1;stroke:none;" transform="matrix(1 0 0 1 339 696)">
   <path d="M 54.9316 0 L 57.666 0 L 30.5664 -70.459 L 28.0762 -70.459 L 0.976562 0 L 3.66211 0 L 12.9395 -24.4629 L 45.7031 -24.4629 Z M 29.1992 -67.0898 L 29.4434 -67.0898 L 44.8242 -26.709 L 13.8184 -26.709 Z"/>
  </g>
  <line id="Baseline-S" style="fill:none;stroke:#27AAE1;opacity:1;stroke-width:0.577;" x1="263" x2="3036" y1="696" y2="696"/>
  <line id="Capline-S" style="fill:none;stroke:#27AAE1;opacity:1;stroke-width:0.577;" x1="263" x2="3036" y1="625.541" y2="625.541"/>
  <g id="H-reference" style="fill:#27AAE1;stroke:none;" transform="matrix(1 0 0 1 339 1126)">
   <path d="M 54.9316 0 L 57.666 0 L 30.5664 -70.459 L 28.0762 -70.459 L 0.976562 0 L 3.66211 0 L 12.9395 -24.4629 L 45.7031 -24.4629 Z M 29.1992 -67.0898 L 29.4434 -67.0898 L 44.8242 -26.709 L 13.8184 -26.709 Z"/>
  </g>
  <line id="Baseline-M" style="fill:none;stroke:#27AAE1;opacity:1;stroke-width:0.577;" x1="263" x2="3036" y1="1126" y2="1126"/>
  <line id="Capline-M" style="fill:none;stroke:#27AAE1;opacity:1;stroke-width:0.577;" x1="263" x2="3036" y1="1055.54" y2="1055.54"/>
  <g id="H-reference" style="fill:#27AAE1;stroke:none;" transform="matrix(1 0 0 1 339 1556)">
   <path d="M 54.9316 0 L 57.666 0 L 30.5664 -70.459 L 28.0762 -70.459 L 0.976562 0 L 3.66211 0 L 12.9395 -24.4629 L 45.7031 -24.4629 Z M 29.1992 -67.0898 L 29.4434 -67.0898 L 44.8242 -26.709 L 13.8184 -26.709 Z"/>
  </g>
  <line id="Baseline-L" style="fill:none;stroke:#27AAE1;opacity:1;stroke-width:0.577;" x1="263" x2="3036" y1="1556" y2="1556"/>
  <line id="Capline-L" style="fill:none;stroke:#27AAE1;opacity:1;stroke-width:0.577;" x1="263" x2="3036" y1="1485.54" y2="1485.54"/>
  <rect height="119.336" id="left-margin" style="fill:#00AEEF;stroke:none;opacity:0.4;" width="8.74023" x="1391.3" y="1030.79"/>
  <rect height="119.336" id="right-margin" style="fill:#00AEEF;stroke:none;opacity:0.4;" width="8.74023" x="1499.65" y="1030.79"/>
 </g>
 <g id="Symbols">
  <g id="Black-L" transform="matrix(1 0 0 1 2854.05 1556)">
   <path d="M 79.3457 32.8613 C 116.748 32.8613 147.412 2.19727 147.412 -35.2051 C 147.412 -72.6074 116.748 -103.271 79.2969 -103.271 C 41.8945 -103.271 11.2793 -72.6074 11.2793 -35.2051 C 11.2793 2.19727 41.9434 32.8613 79.3457 32.8613 Z M 68.2617 -9.47266 C 64.9414 -9.47266 62.7441 -11.7676 62.7441 -15.0391 L 62.7441 -19.1406 L 50.3418 -19.1406 C 45.459 -19.1406 42.7734 -21.9238 42.7734 -26.6602 C 42.7734 -29.4922 43.5059 -32.0312 44.4336 -34.5703 C 46.582 -39.7949 50.0488 -47.6562 53.2715 -53.8574 C 55.8105 -58.7891 59.082 -61.084 64.5508 -61.084 C 70.7031 -61.084 73.8281 -57.4219 73.8281 -51.5137 L 73.8281 -29.7852 L 74.9023 -29.7852 C 78.0762 -29.7852 79.8828 -27.6367 79.8828 -24.4141 C 79.8828 -21.1914 78.0762 -19.2383 74.9023 -19.2383 L 73.8281 -19.2383 L 73.8281 -15.0391 C 73.8281 -11.7676 71.6797 -9.47266 68.2617 -9.47266 Z M 94.3848 -9.66797 C 90.5762 -9.66797 87.6465 -12.3047 87.6465 -16.3086 C 87.6465 -18.0176 87.9883 -19.2383 88.8184 -20.8008 L 102.49 -48.0469 L 102.49 -48.4863 L 88.5742 -48.4863 C 85.1562 -48.4863 82.1777 -50.4883 82.1777 -54.1992 C 82.1777 -57.959 85.0098 -60.0098 88.5742 -60.0098 L 107.861 -60.0098 C 113.77 -60.0098 116.406 -56.3965 116.406 -52.1484 C 116.406 -50.4395 116.016 -48.7305 115.186 -46.8262 L 100.977 -14.9902 C 99.4141 -11.4258 97.8516 -9.66797 94.3848 -9.66797 Z M 62.7441 -29.6387 L 62.7441 -49.3164 L 62.5 -49.3164 C 59.7656 -43.3105 56.5918 -34.8633 54.5898 -29.9316 L 54.5898 -29.6387 Z"/>
  </g>
  <g id="Heavy-L" transform="matrix(1 0 0 1 2558.39 1556)">
   <path d="M 78.2715 31.7871 C 115.088 31.7871 145.312 1.61133 145.312 -35.2051 C 145.312 -72.0215 115.039 -102.197 78.2715 -102.197 C 41.4551 -102.197 11.2793 -72.0215 11.2793 -35.2051 C 11.2793 1.61133 41.5039 31.7871 78.2715 31.7871 Z M 66.6016 -8.93555 C 63.5254 -8.93555 61.5723 -11.084 61.5723 -14.1113 L 61.5723 -19.2871 L 47.3633 -19.2871 C 42.9199 -19.2871 40.332 -21.8262 40.332 -26.1719 C 40.332 -28.7109 41.0156 -30.957 41.9434 -33.3496 C 44.6289 -39.1602 49.1699 -48.2422 52.9297 -55.127 C 55.3223 -59.6191 58.3008 -61.6699 63.2812 -61.6699 C 68.75 -61.6699 71.6797 -58.3496 71.6797 -53.0762 L 71.6797 -28.9062 L 73.584 -28.9062 C 76.4648 -28.9062 78.125 -27.002 78.125 -24.0723 C 78.125 -21.0938 76.4648 -19.3359 73.584 -19.3359 L 71.6797 -19.3359 L 71.6797 -14.1113 C 71.6797 -11.0352 69.7754 -8.93555 66.6016 -8.93555 Z M 93.0176 -9.17969 C 89.5996 -9.17969 87.0117 -11.5723 87.0117 -15.1367 C 87.0117 -16.6992 87.3047 -17.7734 88.0371 -19.1895 L 103.516 -49.8047 L 103.516 -50.2441 L 87.1094 -50.2441 C 84.0332 -50.2441 81.4453 -52.0508 81.4453 -55.3711 C 81.4453 -58.6914 83.8867 -60.5469 87.1094 -60.5469 L 108.301 -60.5469 C 113.525 -60.5469 116.064 -57.2754 116.064 -53.3691 C 116.064 -51.8066 115.723 -50.1953 114.893 -48.3398 L 98.9746 -13.916 C 97.5586 -10.7422 96.0449 -9.17969 93.0176 -9.17969 Z M 61.5723 -28.8574 L 61.5723 -50.8301 L 61.3281 -50.8301 C 58.0078 -44.2871 53.6133 -34.5703 51.1719 -29.1016 L 51.1719 -28.8574 Z"/>
  </g>
  <g id="Bold-L" transform="matrix(1 0 0 1 2262.88 1556)">
   <path d="M 77.0996 30.6152 C 113.232 30.6152 142.92 0.878906 142.92 -35.2051 C 142.92 -71.3379 113.184 -101.025 77.0508 -101.025 C 40.9668 -101.025 11.2793 -71.3379 11.2793 -35.2051 C 11.2793 0.878906 41.0156 30.6152 77.0996 30.6152 Z M 64.7949 -8.30078 C 61.9629 -8.30078 60.3027 -10.3027 60.3027 -13.0371 L 60.3027 -19.4336 L 43.9941 -19.4336 C 40.0391 -19.4336 37.6465 -21.6797 37.6465 -25.6348 C 37.6465 -27.832 38.2324 -29.7852 39.1113 -31.9336 C 42.4805 -38.4277 48.1934 -48.877 52.5391 -56.4941 C 54.7852 -60.5469 57.4219 -62.3047 61.8164 -62.3047 C 66.6016 -62.3047 69.3359 -59.4238 69.3359 -54.7852 L 69.3359 -27.9785 L 72.0703 -27.9785 C 74.6582 -27.9785 76.1719 -26.3184 76.1719 -23.6816 C 76.1719 -21.0449 74.6582 -19.4824 72.0703 -19.4824 L 69.3359 -19.4824 L 69.3359 -13.0371 C 69.3359 -10.2539 67.627 -8.30078 64.7949 -8.30078 Z M 91.5527 -8.64258 C 88.5742 -8.64258 86.2793 -10.791 86.2793 -13.8184 C 86.2793 -15.2344 86.5234 -16.1621 87.1582 -17.4316 L 104.639 -51.709 L 104.639 -52.1484 L 85.4492 -52.1484 C 82.7637 -52.1484 80.5664 -53.8086 80.5664 -56.6895 C 80.5664 -59.5215 82.666 -61.1816 85.4492 -61.1816 L 108.789 -61.1816 C 113.281 -61.1816 115.674 -58.3008 115.674 -54.7363 C 115.674 -53.3203 115.381 -51.9043 114.502 -50.0488 L 96.6797 -12.6953 C 95.4102 -9.96094 94.0918 -8.64258 91.5527 -8.64258 Z M 60.3027 -27.9297 L 60.3027 -52.4902 L 60.0098 -52.4902 C 56.1035 -45.3613 50.293 -34.2285 47.3633 -28.1738 L 47.3633 -27.9297 Z"/>
  </g>
  <g id="Semibold-L" transform="matrix(1 0 0 1 1966.97 1556)">
   <path d="M 76.2695 29.7852 C 111.914 29.7852 141.309 0.439453 141.309 -35.2051 C 141.309 -70.8496 111.865 -100.244 76.2695 -100.244 C 40.625 -100.244 11.2793 -70.8496 11.2793 -35.2051 C 11.2793 0.439453 40.6738 29.7852 76.2695 29.7852 Z M 63.5254 -7.91016 C 60.9375 -7.91016 59.375 -9.7168 59.375 -12.3047 L 59.375 -19.5312 L 41.6504 -19.5312 C 38.0371 -19.5312 35.791 -21.6309 35.791 -25.293 C 35.791 -27.2461 36.2793 -28.9551 37.1582 -30.957 C 40.9668 -37.9395 47.5098 -49.3164 52.2461 -57.4707 C 54.3945 -61.1816 56.8359 -62.7441 60.8398 -62.7441 C 65.0879 -62.7441 67.6758 -60.1074 67.6758 -56.0059 L 67.6758 -27.3438 L 71.0449 -27.3438 C 73.3887 -27.3438 74.8535 -25.8301 74.8535 -23.3887 C 74.8535 -20.9961 73.3887 -19.5312 71.0449 -19.5312 L 67.6758 -19.5312 L 67.6758 -12.3047 C 67.6758 -9.7168 66.1621 -7.91016 63.5254 -7.91016 Z M 90.5273 -8.25195 C 87.8418 -8.25195 85.791 -10.2051 85.791 -12.9395 C 85.791 -14.209 85.9863 -15.0879 86.5723 -16.1621 L 105.42 -53.0762 L 105.42 -53.5156 L 84.3262 -53.5156 C 81.8848 -53.5156 80.0293 -55.0293 80.0293 -57.5684 C 80.0293 -60.0586 81.8359 -61.6211 84.3262 -61.6211 L 109.082 -61.6211 C 113.135 -61.6211 115.43 -58.9844 115.43 -55.6641 C 115.43 -54.3457 115.137 -53.0762 114.258 -51.2207 L 95.166 -11.8652 C 93.9941 -9.42383 92.7246 -8.25195 90.5273 -8.25195 Z M 59.375 -27.2949 L 59.375 -53.6621 L 59.1309 -53.6621 C 54.7852 -46.0938 47.998 -33.9844 44.7266 -27.5391 L 44.7266 -27.2949 Z"/>
  </g>
  <g id="Medium-L" transform="matrix(1 0 0 1 1670.87 1556)">
   <path d="M 75.6836 29.1992 C 110.938 29.1992 140.088 0.0488281 140.088 -35.2051 C 140.088 -70.459 110.889 -99.6094 75.6348 -99.6094 C 40.3809 -99.6094 11.2793 -70.459 11.2793 -35.2051 C 11.2793 0.0488281 40.3809 29.1992 75.6836 29.1992 Z M 62.5488 -7.56836 C 60.1074 -7.56836 58.7402 -9.32617 58.7402 -11.7676 L 58.7402 -19.5801 L 39.8926 -19.5801 C 36.5723 -19.5801 34.375 -21.5332 34.375 -25 C 34.375 -26.8066 34.8145 -28.3203 35.6934 -30.2246 C 39.8438 -37.5977 47.0215 -49.707 52.0508 -58.1543 C 54.1504 -61.6699 56.3477 -63.0859 60.1074 -63.0859 C 63.9648 -63.0859 66.4551 -60.6934 66.4551 -56.8848 L 66.4551 -26.8555 L 70.2637 -26.8555 C 72.4609 -26.8555 73.8281 -25.4395 73.8281 -23.1934 C 73.8281 -20.9473 72.4609 -19.6289 70.2637 -19.6289 L 66.4551 -19.6289 L 66.4551 -11.7676 C 66.4551 -9.27734 65.0391 -7.56836 62.5488 -7.56836 Z M 89.7461 -7.95898 C 87.3047 -7.95898 85.4004 -9.81445 85.4004 -12.2559 C 85.4004 -13.4277 85.5469 -14.209 86.1328 -15.2344 L 106.006 -54.1016 L 106.006 -54.541 L 83.4473 -54.541 C 81.2012 -54.541 79.5898 -55.957 79.5898 -58.252 C 79.5898 -60.498 81.1523 -61.9629 83.4473 -61.9629 L 109.326 -61.9629 C 112.988 -61.9629 115.186 -59.5215 115.186 -56.3965 C 115.186 -55.127 114.941 -53.9551 114.062 -52.0996 L 93.9453 -11.2793 C 92.8711 -8.98438 91.6504 -7.95898 89.7461 -7.95898 Z M 58.7402 -26.8066 L 58.7402 -54.541 L 58.4473 -54.541 C 53.7598 -46.6309 46.2891 -33.8379 42.7246 -27.0996 L 42.7246 -26.8066 Z"/>
  </g>
  <g id="Regular-L" transform="matrix(1 0 0 1 1374.97 1556)">
   <path d="M 74.8535 28.3691 C 109.668 28.3691 138.477 -0.390625 138.477 -35.2051 C 138.477 -70.0195 109.619 -98.7793 74.8047 -98.7793 C 40.0391 -98.7793 11.2793 -70.0195 11.2793 -35.2051 C 11.2793 -0.390625 40.0879 28.3691 74.8535 28.3691 Z M 61.2793 -7.17773 C 59.0332 -7.17773 57.8125 -8.78906 57.8125 -11.0352 L 57.8125 -19.6777 L 37.5977 -19.6777 C 34.6191 -19.6777 32.5195 -21.4844 32.5195 -24.6582 C 32.5195 -26.2207 32.9102 -27.4902 33.7891 -29.248 C 38.3789 -37.1094 46.3379 -50.1465 51.8066 -59.1309 C 53.7598 -62.3047 55.7617 -63.5254 59.1309 -63.5254 C 62.5 -63.5254 64.7949 -61.377 64.7949 -58.1055 L 64.7949 -26.1719 L 69.2383 -26.1719 C 71.1914 -26.1719 72.5098 -24.9512 72.5098 -22.9004 C 72.5098 -20.8496 71.2402 -19.6777 69.2383 -19.6777 L 64.7949 -19.6777 L 64.7949 -11.0352 C 64.7949 -8.74023 63.5742 -7.17773 61.2793 -7.17773 Z M 88.7207 -7.61719 C 86.5723 -7.61719 84.9121 -9.22852 84.9121 -11.377 C 84.9121 -12.4023 85.0098 -13.1348 85.5469 -14.0137 L 106.787 -55.4199 L 106.787 -55.8594 L 82.3242 -55.8594 C 80.3223 -55.8594 79.0039 -57.1289 79.0039 -59.1309 C 79.0039 -61.084 80.3223 -62.4023 82.3242 -62.4023 L 109.668 -62.4023 C 112.793 -62.4023 114.941 -60.2051 114.941 -57.3242 C 114.941 -56.1523 114.746 -55.0781 113.818 -53.2227 L 92.4316 -10.4492 C 91.4551 -8.44727 90.332 -7.61719 88.7207 -7.61719 Z M 57.8125 -26.1719 L 57.8125 -55.7129 L 57.5195 -55.7129 C 52.4414 -47.3633 44.043 -33.5938 40.1367 -26.4648 L 40.1367 -26.1719 Z"/>
  </g>
  <g id="Light-L" transform="matrix(1 0 0 1 1079.18 1556)">
   <path d="M 73.9258 27.4902 C 108.301 27.4902 136.621 -0.830078 136.621 -35.1562 C 136.621 -69.5312 108.252 -97.8516 73.9258 -97.8516 C 39.5508 -97.8516 11.2793 -69.5312 11.2793 -35.1562 C 11.2793 -0.830078 39.5996 27.4902 73.9258 27.4902 Z M 60.2539 -7.56836 C 58.4961 -7.56836 57.4707 -8.83789 57.4707 -10.5957 L 57.4707 -20.459 L 35.9863 -20.459 C 33.4473 -20.459 31.6895 -21.875 31.6895 -24.5117 C 31.6895 -25.7324 32.0312 -26.8555 32.7148 -28.1738 C 37.5 -35.8887 47.168 -51.123 52.5391 -59.668 C 54.1992 -62.2559 55.8105 -63.2324 58.4961 -63.2324 C 61.2305 -63.2324 63.0859 -61.5234 63.0859 -58.8379 L 63.0859 -25.7812 L 68.6035 -25.7812 C 70.2148 -25.7812 71.2402 -24.707 71.2402 -23.0957 C 71.2402 -21.4355 70.2637 -20.459 68.6035 -20.459 L 63.0859 -20.459 L 63.0859 -10.5957 C 63.0859 -8.78906 62.0605 -7.56836 60.2539 -7.56836 Z M 87.2559 -7.86133 C 85.498 -7.86133 84.1797 -9.17969 84.1797 -10.8398 C 84.1797 -11.6211 84.2773 -12.207 84.668 -12.9395 L 107.031 -56.6406 L 107.031 -56.9824 L 80.957 -56.9824 C 79.248 -56.9824 78.1738 -58.0566 78.1738 -59.668 C 78.1738 -61.2793 79.248 -62.3535 80.957 -62.3535 L 109.033 -62.3535 C 111.67 -62.3535 113.477 -60.5957 113.477 -58.252 C 113.477 -57.2754 113.281 -56.4453 112.598 -54.9316 L 90.2344 -10.0586 C 89.4531 -8.49609 88.5742 -7.86133 87.2559 -7.86133 Z M 57.4707 -25.7812 L 57.4707 -56.8359 L 57.1777 -56.8359 C 52.4414 -49.4141 41.748 -32.666 37.8906 -25.9766 L 37.8906 -25.7812 Z"/>
  </g>
  <g id="Thin-L" transform="matrix(1 0 0 1 783.693 1556)">
   <path d="M 72.7051 26.3184 C 106.494 26.3184 134.18 -1.36719 134.18 -35.1074 C 134.18 -68.8965 106.494 -96.582 72.7051 -96.582 C 38.9648 -96.582 11.2793 -68.8965 11.2793 -35.1074 C 11.2793 -1.36719 38.9648 26.3184 72.7051 26.3184 Z M 58.8379 -8.10547 C 57.7148 -8.10547 56.9336 -8.88672 56.9336 -10.0586 L 56.9336 -21.4844 L 33.8867 -21.4844 C 31.9336 -21.4844 30.6152 -22.4121 30.6152 -24.3164 C 30.6152 -25.1465 30.9082 -26.0254 31.2988 -26.709 C 36.2793 -34.3262 48.2422 -52.4414 53.5645 -60.4004 C 54.7852 -62.207 55.9082 -62.793 57.666 -62.793 C 59.5215 -62.793 60.791 -61.6699 60.791 -59.8633 L 60.791 -25.1953 L 67.7734 -25.1953 C 68.8965 -25.1953 69.6289 -24.3652 69.6289 -23.291 C 69.6289 -22.2168 68.9453 -21.4844 67.7734 -21.4844 L 60.791 -21.4844 L 60.791 -10.0586 C 60.791 -8.88672 60.0586 -8.10547 58.8379 -8.10547 Z M 85.3027 -8.1543 C 84.0332 -8.1543 83.252 -9.08203 83.252 -10.1074 C 83.252 -10.5957 83.3496 -10.9863 83.5449 -11.4746 L 107.324 -58.252 L 107.324 -58.4961 L 79.1016 -58.4961 C 77.832 -58.4961 77.0996 -59.2285 77.0996 -60.4004 C 77.0996 -61.5234 77.832 -62.3047 79.1016 -62.3047 L 108.252 -62.3047 C 110.205 -62.3047 111.572 -61.1816 111.572 -59.4727 C 111.572 -58.7402 111.426 -58.252 110.938 -57.1777 L 87.3047 -9.57031 C 86.8652 -8.54492 86.2793 -8.1543 85.3027 -8.1543 Z M 56.9336 -25.1953 L 56.9336 -58.3496 L 56.7383 -58.3496 C 52.4414 -52.0996 38.7207 -31.4941 34.9609 -25.3906 L 34.9609 -25.1953 Z"/>
  </g>
  <g id="Ultralight-L" transform="matrix(1 0 0 1 487.616 1556)">
   <path d="M 72.1191 25.7324 C 105.566 25.7324 132.91 -1.61133 132.91 -35.1074 C 132.91 -68.5547 105.566 -95.8984 72.1191 -95.8984 C 38.623 -95.8984 11.2793 -68.5547 11.2793 -35.1074 C 11.2793 -1.61133 38.623 25.7324 72.1191 25.7324 Z M 58.1543 -8.39844 C 57.3242 -8.39844 56.6895 -8.88672 56.6895 -9.81445 L 56.6895 -22.0215 L 32.8125 -22.0215 C 31.1523 -22.0215 30.0781 -22.7051 30.0781 -24.2188 C 30.0781 -24.8047 30.2734 -25.5859 30.5664 -25.9766 C 35.6934 -33.4961 48.7793 -53.125 54.0527 -60.791 C 55.0781 -62.207 55.9082 -62.5977 57.2266 -62.5977 C 58.6426 -62.5977 59.6191 -61.7676 59.6191 -60.3516 L 59.6191 -24.9023 L 67.3828 -24.9023 C 68.2129 -24.9023 68.7988 -24.1699 68.7988 -23.4375 C 68.7988 -22.6074 68.3105 -22.0215 67.3828 -22.0215 L 59.6191 -22.0215 L 59.6191 -9.81445 C 59.6191 -8.88672 59.0332 -8.39844 58.1543 -8.39844 Z M 84.2773 -8.34961 C 83.3008 -8.34961 82.7637 -9.0332 82.7637 -9.76562 C 82.7637 -10.1074 82.8613 -10.3516 82.959 -10.6934 L 107.471 -59.082 L 107.471 -59.2773 L 78.125 -59.2773 C 77.0996 -59.2773 76.5625 -59.8633 76.5625 -60.791 C 76.5625 -61.6211 77.0996 -62.2559 78.125 -62.2559 L 107.812 -62.2559 C 109.424 -62.2559 110.596 -61.4746 110.596 -60.1074 C 110.596 -59.5215 110.449 -59.1797 110.107 -58.3496 L 85.8398 -9.32617 C 85.498 -8.59375 85.1074 -8.34961 84.2773 -8.34961 Z M 56.6895 -24.9023 L 56.6895 -59.1309 L 56.543 -59.1309 C 52.4414 -53.4668 37.1582 -30.8594 33.4961 -25.0488 L 33.4961 -24.9023 Z"/>
  </g>
  <g id="Black-M" transform="matrix(1 0 0 1 2870.97 1126)">
   <path d="M 62.4023 18.457 C 91.9922 18.457 116.113 -5.61523 116.113 -35.2051 C 116.113 -64.7949 91.9922 -88.8672 62.4023 -88.8672 C 32.8125 -88.8672 8.74023 -64.7949 8.74023 -35.2051 C 8.74023 -5.61523 32.8125 18.457 62.4023 18.457 Z M 54.541 -16.2109 C 51.8555 -16.2109 50 -18.0176 50 -20.6543 L 50 -22.998 L 42.2363 -22.998 C 38.0859 -22.998 35.9375 -25.2441 35.9375 -29.1504 C 35.9375 -31.5918 36.6699 -33.8379 37.2559 -35.8398 C 38.1836 -38.9648 40.4297 -44.5801 42.1387 -48.291 C 44.1406 -52.3926 46.8262 -54.2969 51.416 -54.2969 C 56.6895 -54.2969 59.1309 -51.2207 59.1309 -46.1426 L 59.1309 -31.8848 L 59.5215 -31.8848 C 62.1582 -31.8848 63.623 -30.0781 63.623 -27.3926 C 63.623 -24.7559 62.1582 -23.1445 59.5215 -23.1445 L 59.1309 -23.1445 L 59.1309 -20.6543 C 59.1309 -18.0176 57.3242 -16.2109 54.541 -16.2109 Z M 74.1211 -16.2109 C 70.8496 -16.2109 68.4082 -18.4082 68.4082 -21.8262 C 68.4082 -23.291 68.75 -24.2676 69.4336 -25.5859 L 78.1738 -43.457 L 78.1738 -43.7988 L 69.873 -43.7988 C 66.9922 -43.7988 64.2578 -45.4102 64.2578 -48.6816 C 64.2578 -51.9531 66.7969 -53.6621 69.873 -53.6621 L 82.7148 -53.6621 C 87.8906 -53.6621 89.9414 -50.6348 89.9414 -47.2168 C 89.9414 -45.8008 89.5508 -44.3848 89.0625 -43.0664 L 79.7852 -20.8008 C 78.5645 -17.7734 77.2949 -16.2109 74.1211 -16.2109 Z M 50 -31.7871 L 50 -44.7266 L 49.8535 -44.7266 C 48.6328 -41.3086 46.6309 -34.8633 45.752 -31.9824 L 45.752 -31.7871 Z"/>
  </g>
  <g id="Heavy-M" transform="matrix(1 0 0 1 2575.19 1126)">
   <path d="M 61.5234 17.5781 C 90.5273 17.5781 114.258 -6.15234 114.258 -35.2051 C 114.258 -64.2578 90.5273 -87.9883 61.4746 -87.9883 C 32.4707 -87.9883 8.74023 -64.2578 8.74023 -35.2051 C 8.74023 -6.15234 32.4707 17.5781 61.5234 17.5781 Z M 53.0273 -15.5273 C 50.4883 -15.5273 48.8281 -17.2363 48.8281 -19.7266 L 48.8281 -22.9492 L 39.3555 -22.9492 C 35.5957 -22.9492 33.5449 -25.0488 33.5449 -28.6621 C 33.5449 -30.8594 34.1309 -32.8613 34.8145 -34.7656 C 36.3281 -38.5742 39.2578 -44.9707 41.6016 -49.5117 C 43.5059 -53.2715 45.9961 -55.0293 50.1953 -55.0293 C 54.9316 -55.0293 57.2754 -52.2461 57.2754 -47.6562 L 57.2754 -31.1035 L 58.252 -31.1035 C 60.6445 -31.1035 62.0117 -29.4434 62.0117 -26.9531 C 62.0117 -24.5117 60.6445 -23.0469 58.252 -23.0469 L 57.2754 -23.0469 L 57.2754 -19.7266 C 57.2754 -17.2363 55.6152 -15.5273 53.0273 -15.5273 Z M 73.0469 -15.5762 C 70.1172 -15.5762 67.9199 -17.627 67.9199 -20.7031 C 67.9199 -22.0215 68.1641 -22.9492 68.7988 -24.1699 L 79.248 -45.0684 L 79.248 -45.3613 L 68.6035 -45.3613 C 66.0156 -45.3613 63.6719 -46.875 63.6719 -49.8047 C 63.6719 -52.6855 65.8691 -54.248 68.6035 -54.248 L 83.3496 -54.248 C 87.8906 -54.248 89.8926 -51.5137 89.8926 -48.291 C 89.8926 -46.9727 89.5996 -45.6543 89.0137 -44.2871 L 78.1738 -19.7266 C 77.002 -16.9922 75.7812 -15.5762 73.0469 -15.5762 Z M 48.8281 -31.0059 L 48.8281 -46.0938 L 48.6816 -46.0938 C 46.7285 -41.7969 43.9941 -34.7656 42.5781 -31.2012 L 42.5781 -31.0059 Z"/>
  </g>
  <g id="Bold-M" transform="matrix(1 0 0 1 2279.5 1126)">
   <path d="M 60.498 16.5039 C 88.8672 16.5039 112.207 -6.78711 112.207 -35.2051 C 112.207 -63.623 88.8672 -86.9629 60.4492 -86.9629 C 32.0312 -86.9629 8.74023 -63.623 8.74023 -35.2051 C 8.74023 -6.78711 32.0801 16.5039 60.498 16.5039 Z M 51.3184 -14.7461 C 48.9746 -14.7461 47.5098 -16.3574 47.5098 -18.6523 L 47.5098 -22.8516 L 36.1328 -22.8516 C 32.7637 -22.8516 30.8105 -24.8047 30.8105 -28.125 C 30.8105 -30.0293 31.2988 -31.7383 32.0312 -33.5449 C 34.2285 -38.1836 37.9395 -45.4102 40.918 -50.8789 C 42.7734 -54.2969 45.0195 -55.8105 48.7793 -55.8105 C 52.9297 -55.8105 55.1758 -53.3203 55.1758 -49.3164 L 55.1758 -30.1758 L 56.7871 -30.1758 C 58.9355 -30.1758 60.2539 -28.7598 60.2539 -26.5137 C 60.2539 -24.2676 58.9844 -22.9492 56.7871 -22.9492 L 55.1758 -22.9492 L 55.1758 -18.6523 C 55.1758 -16.3574 53.7109 -14.7461 51.3184 -14.7461 Z M 71.875 -14.9414 C 69.2871 -14.9414 67.2852 -16.748 67.2852 -19.4336 C 67.2852 -20.6543 67.5293 -21.4355 68.1152 -22.5098 L 80.4199 -46.8262 L 80.4199 -47.168 L 67.2363 -47.168 C 64.8926 -47.168 62.9883 -48.5352 62.9883 -51.0742 C 62.9883 -53.5645 64.8438 -54.9805 67.2363 -54.9805 L 84.0332 -54.9805 C 87.9883 -54.9805 89.8926 -52.4902 89.8926 -49.5117 C 89.8926 -48.291 89.6484 -47.1191 88.9648 -45.6543 L 76.3184 -18.5059 C 75.2441 -16.1133 74.1211 -14.9414 71.875 -14.9414 Z M 47.5098 -30.127 L 47.5098 -47.6074 L 47.3145 -47.6074 C 44.6289 -42.3828 41.0156 -34.668 39.0625 -30.3223 L 39.0625 -30.127 Z"/>
  </g>
  <g id="Semibold-M" transform="matrix(1 0 0 1 1983.5 1126)">
   <path d="M 59.7656 15.8203 C 87.7441 15.8203 110.791 -7.22656 110.791 -35.2051 C 110.791 -63.1836 87.6953 -86.2793 59.7656 -86.2793 C 31.7871 -86.2793 8.74023 -63.1836 8.74023 -35.2051 C 8.74023 -7.22656 31.7871 15.8203 59.7656 15.8203 Z M 50.1465 -14.209 C 47.9492 -14.209 46.6309 -15.7715 46.6309 -17.9688 L 46.6309 -22.8027 L 33.9355 -22.8027 C 30.8594 -22.8027 28.9551 -24.6094 28.9551 -27.7344 C 28.9551 -29.4922 29.3945 -30.957 30.127 -32.7148 C 32.8125 -37.8906 37.0117 -45.7031 40.4785 -51.8066 C 42.2852 -55.0293 44.3359 -56.3965 47.8516 -56.3965 C 51.5625 -56.3965 53.7598 -54.1016 53.7598 -50.4883 L 53.7598 -29.541 L 55.7617 -29.541 C 57.8125 -29.541 59.0332 -28.2715 59.0332 -26.1719 C 59.0332 -24.0723 57.8125 -22.8516 55.7617 -22.8516 L 53.7598 -22.8516 L 53.7598 -17.9688 C 53.7598 -15.7227 52.4414 -14.209 50.1465 -14.209 Z M 71.0449 -14.502 C 68.7012 -14.502 66.8945 -16.1621 66.8945 -18.5547 C 66.8945 -19.6777 67.0898 -20.4102 67.627 -21.3867 L 81.2012 -48.0469 L 81.2012 -48.3887 L 66.2598 -48.3887 C 64.1602 -48.3887 62.5 -49.707 62.5 -51.9043 C 62.5 -54.1504 64.1113 -55.4688 66.2598 -55.4688 L 84.4727 -55.4688 C 87.9883 -55.4688 89.8926 -53.1738 89.8926 -50.3418 C 89.8926 -49.2188 89.6484 -48.0957 88.9648 -46.582 L 75.0977 -17.6758 C 74.0723 -15.5273 72.998 -14.502 71.0449 -14.502 Z M 46.6309 -29.541 L 46.6309 -48.6328 L 46.3867 -48.6328 C 43.1641 -42.7734 38.9648 -34.6191 36.6211 -29.7363 L 36.6211 -29.541 Z"/>
  </g>
  <g id="Medium-M" transform="matrix(1 0 0 1 1687.3 1126)">
   <path d="M 59.2285 15.2832 C 86.9141 15.2832 109.766 -7.56836 109.766 -35.2051 C 109.766 -62.8906 86.8652 -85.7422 59.1797 -85.7422 C 31.543 -85.7422 8.74023 -62.8906 8.74023 -35.2051 C 8.74023 -7.56836 31.5918 15.2832 59.2285 15.2832 Z M 49.2676 -13.7695 C 47.1191 -13.7695 45.9473 -15.332 45.9473 -17.4316 L 45.9473 -22.8027 L 32.2754 -22.8027 C 29.3945 -22.8027 27.4902 -24.5117 27.4902 -27.4902 C 27.4902 -29.0527 27.9297 -30.3711 28.6621 -32.0312 C 31.6895 -37.6465 36.3281 -45.8984 40.1367 -52.4902 C 41.8945 -55.5176 43.8477 -56.7871 47.1191 -56.7871 C 50.5371 -56.7871 52.6367 -54.6875 52.6367 -51.3672 L 52.6367 -29.1016 L 55.0293 -29.1016 C 56.8848 -29.1016 58.1055 -27.8809 58.1055 -25.9277 C 58.1055 -23.9746 56.9336 -22.8027 55.0293 -22.8027 L 52.6367 -22.8027 L 52.6367 -17.4316 C 52.6367 -15.2832 51.416 -13.7695 49.2676 -13.7695 Z M 70.4102 -14.1602 C 68.2617 -14.1602 66.6016 -15.7227 66.6016 -17.9199 C 66.6016 -18.9453 66.748 -19.6289 67.2363 -20.5566 L 81.8359 -48.9746 L 81.8359 -49.3164 L 65.5762 -49.3164 C 63.623 -49.3164 62.1582 -50.5371 62.1582 -52.5879 C 62.1582 -54.5898 63.5742 -55.8105 65.5762 -55.8105 L 84.8633 -55.8105 C 88.0371 -55.8105 89.8926 -53.6621 89.8926 -50.9766 C 89.8926 -49.9023 89.6973 -48.877 88.9648 -47.3145 L 74.1211 -17.041 C 73.1445 -15.0879 72.1191 -14.1602 70.4102 -14.1602 Z M 45.9473 -29.0527 L 45.9473 -49.4141 L 45.7031 -49.4141 C 42.0898 -43.0664 37.4512 -34.5703 34.7656 -29.2969 L 34.7656 -29.0527 Z"/>
  </g>
  <g id="Regular-M" transform="matrix(1 0 0 1 1391.3 1126)">
   <path d="M 58.5449 14.5508 C 85.791 14.5508 108.35 -8.00781 108.35 -35.2539 C 108.35 -62.4512 85.7422 -85.0586 58.4961 -85.0586 C 31.2988 -85.0586 8.74023 -62.4512 8.74023 -35.2539 C 8.74023 -8.00781 31.3477 14.5508 58.5449 14.5508 Z M 48.0957 -13.2324 C 46.0938 -13.2324 45.0195 -14.6973 45.0195 -16.6992 L 45.0195 -22.7539 L 30.0781 -22.7539 C 27.4902 -22.7539 25.6348 -24.3164 25.6348 -27.0996 C 25.6348 -28.5156 25.9766 -29.6387 26.7578 -31.2012 C 30.2734 -37.3535 35.4492 -46.1914 39.6973 -53.418 C 41.4062 -56.25 43.1641 -57.3242 46.1914 -57.3242 C 49.1699 -57.3242 51.2207 -55.4199 51.2207 -52.5391 L 51.2207 -28.4668 L 54.0039 -28.4668 C 55.7617 -28.4668 56.8848 -27.3926 56.8848 -25.5859 C 56.8848 -23.7793 55.7617 -22.7539 54.0039 -22.7539 L 51.2207 -22.7539 L 51.2207 -16.6992 C 51.2207 -14.6484 50.1465 -13.2324 48.0957 -13.2324 Z M 69.6289 -13.6719 C 67.7246 -13.6719 66.2109 -15.1367 66.2109 -17.041 C 66.2109 -17.9688 66.3086 -18.6523 66.748 -19.4336 L 82.6172 -50.1953 L 82.6172 -50.5371 L 64.5996 -50.5371 C 62.8418 -50.5371 61.6699 -51.709 61.6699 -53.418 C 61.6699 -55.1758 62.8418 -56.2988 64.5996 -56.2988 L 85.3027 -56.2988 C 88.0859 -56.2988 89.8926 -54.3457 89.8926 -51.8066 C 89.8926 -50.7812 89.6973 -49.8535 88.916 -48.2422 L 72.9004 -16.2109 C 71.9727 -14.4531 70.9961 -13.6719 69.6289 -13.6719 Z M 45.0195 -28.4668 L 45.0195 -50.4395 L 44.7754 -50.4395 C 40.6738 -43.457 35.4004 -34.4727 32.373 -28.7109 L 32.373 -28.4668 Z"/>
  </g>
  <g id="Light-M" transform="matrix(1 0 0 1 1095.42 1126)">
   <path d="M 57.7148 13.7695 C 84.5215 13.7695 106.689 -8.39844 106.689 -35.2051 C 106.689 -62.0117 84.5215 -84.1797 57.666 -84.1797 C 30.8594 -84.1797 8.74023 -62.0117 8.74023 -35.2051 C 8.74023 -8.39844 30.9082 13.7695 57.7148 13.7695 Z M 47.168 -13.623 C 45.5566 -13.623 44.6777 -14.7461 44.6777 -16.3574 L 44.6777 -23.4375 L 28.6133 -23.4375 C 26.4648 -23.4375 24.9512 -24.707 24.9512 -27.002 C 24.9512 -28.0762 25.1953 -29.0527 25.8301 -30.2246 C 29.4434 -36.2793 36.1816 -47.1191 40.3809 -53.9062 C 41.7969 -56.2012 43.2129 -57.0801 45.6055 -57.0801 C 47.998 -57.0801 49.6582 -55.5176 49.6582 -53.1738 L 49.6582 -28.0762 L 53.4668 -28.0762 C 54.834 -28.0762 55.7617 -27.1973 55.7617 -25.7324 C 55.7617 -24.2676 54.8828 -23.4375 53.4668 -23.4375 L 49.6582 -23.4375 L 49.6582 -16.3574 C 49.6582 -14.6973 48.7793 -13.623 47.168 -13.623 Z M 68.2617 -13.916 C 66.748 -13.916 65.5762 -15.0879 65.5762 -16.5527 C 65.5762 -17.2852 65.6738 -17.8223 66.0156 -18.457 L 82.8125 -51.2695 L 82.8125 -51.5625 L 63.3789 -51.5625 C 61.9141 -51.5625 60.9375 -52.4902 60.9375 -53.9062 C 60.9375 -55.3223 61.9141 -56.25 63.3789 -56.25 L 84.7656 -56.25 C 87.0605 -56.25 88.5742 -54.7363 88.5742 -52.6367 C 88.5742 -51.8066 88.4277 -51.0742 87.793 -49.7559 L 70.8984 -15.918 C 70.2148 -14.502 69.4336 -13.916 68.2617 -13.916 Z M 44.6777 -28.0762 L 44.6777 -51.4648 L 44.4824 -51.4648 C 40.6738 -45.3125 33.3496 -33.6426 30.3711 -28.2715 L 30.3711 -28.0762 Z"/>
  </g>
  <g id="Thin-M" transform="matrix(1 0 0 1 799.806 1126)">
   <path d="M 56.6406 12.7441 C 82.9102 12.7441 104.492 -8.83789 104.492 -35.1562 C 104.492 -61.4746 82.9102 -83.0566 56.5918 -83.0566 C 30.3223 -83.0566 8.74023 -61.4746 8.74023 -35.1562 C 8.74023 -8.83789 30.3223 12.7441 56.6406 12.7441 Z M 45.8984 -14.1113 C 44.873 -14.1113 44.2383 -14.7949 44.2383 -15.8691 L 44.2383 -24.3652 L 26.709 -24.3652 C 25.0977 -24.3652 23.9746 -25.1953 23.9746 -26.8066 C 23.9746 -27.5391 24.1699 -28.2715 24.5605 -28.9551 C 28.3691 -34.8633 37.1582 -48.291 41.3086 -54.5898 C 42.334 -56.1523 43.3105 -56.6895 44.873 -56.6895 C 46.4844 -56.6895 47.6074 -55.7129 47.6074 -54.1016 L 47.6074 -27.5879 L 52.7344 -27.5879 C 53.6621 -27.5879 54.2969 -26.8555 54.2969 -25.9277 C 54.2969 -24.9512 53.7109 -24.3652 52.7344 -24.3652 L 47.6074 -24.3652 L 47.6074 -15.8691 C 47.6074 -14.7949 46.9727 -14.1113 45.8984 -14.1113 Z M 66.5527 -14.209 C 65.4297 -14.209 64.7461 -14.9902 64.7461 -15.918 C 64.7461 -16.3574 64.7949 -16.6992 64.9902 -17.1387 L 83.1055 -52.7344 L 83.1055 -52.9297 L 61.6699 -52.9297 C 60.6445 -52.9297 60.0098 -53.5645 60.0098 -54.5898 C 60.0098 -55.5176 60.6445 -56.2012 61.6699 -56.2012 L 84.0332 -56.2012 C 85.6934 -56.2012 86.8652 -55.2246 86.8652 -53.7598 C 86.8652 -53.125 86.7676 -52.6855 86.3281 -51.7578 L 68.3105 -15.4785 C 67.8711 -14.5508 67.3828 -14.209 66.5527 -14.209 Z M 44.2383 -27.5879 L 44.2383 -52.832 L 44.0918 -52.832 C 40.6738 -47.7051 30.6641 -32.5684 27.7344 -27.7344 L 27.7344 -27.5879 Z"/>
  </g>
  <g id="Ultralight-M" transform="matrix(1 0 0 1 503.656 1126)">
   <path d="M 56.0547 12.207 C 82.0801 12.207 103.369 -9.08203 103.369 -35.1562 C 103.369 -61.1816 82.0801 -82.4707 56.0547 -82.4707 C 30.0293 -82.4707 8.74023 -61.1816 8.74023 -35.1562 C 8.74023 -9.08203 30.0293 12.207 56.0547 12.207 Z M 45.2637 -14.3555 C 44.5312 -14.3555 43.9941 -14.8438 43.9941 -15.625 L 43.9941 -24.8047 L 25.7324 -24.8047 C 24.3652 -24.8047 23.4863 -25.4395 23.4863 -26.709 C 23.4863 -27.2461 23.6328 -27.8809 23.877 -28.2715 C 27.832 -34.1309 37.6465 -48.877 41.748 -54.9316 C 42.627 -56.1523 43.3105 -56.4941 44.4824 -56.4941 C 45.7031 -56.4941 46.5332 -55.7617 46.5332 -54.541 L 46.5332 -27.3438 L 52.3438 -27.3438 C 53.0762 -27.3438 53.5645 -26.709 53.5645 -26.0254 C 53.5645 -25.293 53.125 -24.8047 52.3438 -24.8047 L 46.5332 -24.8047 L 46.5332 -15.625 C 46.5332 -14.8438 46.0449 -14.3555 45.2637 -14.3555 Z M 65.625 -14.3555 C 64.7949 -14.3555 64.3066 -14.9414 64.3066 -15.625 C 64.3066 -15.918 64.3555 -16.1621 64.502 -16.4551 L 83.252 -53.4668 L 83.252 -53.6621 L 60.8398 -53.6621 C 59.9609 -53.6621 59.4727 -54.1504 59.4727 -54.9316 C 59.4727 -55.6641 59.9609 -56.2012 60.8398 -56.2012 L 83.6914 -56.2012 C 85.0098 -56.2012 86.0352 -55.4688 86.0352 -54.2969 C 86.0352 -53.8086 85.8887 -53.5156 85.5957 -52.7832 L 66.9434 -15.2344 C 66.6504 -14.5508 66.3086 -14.3555 65.625 -14.3555 Z M 43.9941 -27.3438 L 43.9941 -53.5156 L 43.8965 -53.5156 C 40.6738 -48.9258 29.248 -32.0312 26.416 -27.4414 L 26.416 -27.3438 Z"/>
  </g>
  <g id="Black-S" transform="matrix(1 0 0 1 2884.57 696)">
   <path d="M 48.8281 6.78711 C 71.9727 6.78711 90.8203 -12.0605 90.8203 -35.2051 C 90.8203 -58.3496 71.9727 -77.1973 48.8281 -77.1973 C 25.6836 -77.1973 6.83594 -58.3496 6.83594 -35.2051 C 6.83594 -12.0605 25.6836 6.78711 48.8281 6.78711 Z M 42.627 -20.2637 C 40.5273 -20.2637 39.0625 -21.6797 39.0625 -23.7305 L 39.0625 -25.6348 L 32.8613 -25.6348 C 29.6387 -25.6348 27.9785 -27.3926 27.9785 -30.4199 C 27.9785 -32.3242 28.5156 -34.082 29.0039 -35.6445 C 29.7852 -38.1348 31.543 -42.5781 32.959 -45.5566 C 34.5215 -48.7305 36.6211 -50.2441 40.1855 -50.2441 C 44.2871 -50.2441 46.1914 -47.8516 46.1914 -43.8965 L 46.1914 -32.5684 L 46.5332 -32.5684 C 48.584 -32.5684 49.707 -31.1523 49.707 -29.0527 C 49.707 -27.002 48.584 -25.7324 46.5332 -25.7324 L 46.1914 -25.7324 L 46.1914 -23.7305 C 46.1914 -21.6797 44.7754 -20.2637 42.627 -20.2637 Z M 58.0078 -20.2637 C 55.4688 -20.2637 53.5645 -21.9727 53.5645 -24.6582 C 53.5645 -25.7812 53.8086 -26.5625 54.3457 -27.5879 L 61.3281 -41.7969 L 61.3281 -42.041 L 54.6387 -42.041 C 52.3926 -42.041 50.293 -43.3105 50.293 -45.8496 C 50.293 -48.3887 52.2461 -49.707 54.6387 -49.707 L 64.8438 -49.707 C 68.8477 -49.707 70.459 -47.3633 70.459 -44.6777 C 70.459 -43.6035 70.166 -42.4805 69.7754 -41.4551 L 62.4023 -23.8281 C 61.4258 -21.4844 60.4492 -20.2637 58.0078 -20.2637 Z M 39.0625 -32.4707 L 39.0625 -42.7734 L 38.9648 -42.7734 C 37.9395 -39.9902 36.3281 -34.9609 35.5957 -32.6172 L 35.5957 -32.4707 Z"/>
  </g>
  <g id="Heavy-S" transform="matrix(1 0 0 1 2588.47 696)">
   <path d="M 48.2422 6.15234 C 70.9961 6.15234 89.5996 -12.4512 89.5996 -35.2051 C 89.5996 -57.959 70.9961 -76.6113 48.1934 -76.6113 C 25.4395 -76.6113 6.83594 -57.959 6.83594 -35.2051 C 6.83594 -12.4512 25.4395 6.15234 48.2422 6.15234 Z M 41.5527 -19.6777 C 39.5508 -19.6777 38.2324 -21.0938 38.2324 -23.0469 L 38.2324 -25.4883 L 30.8105 -25.4883 C 27.832 -25.4883 26.2207 -27.1973 26.2207 -30.0781 C 26.2207 -31.8359 26.6602 -33.3984 27.1973 -34.9121 C 28.418 -37.9883 30.5664 -42.7734 32.4219 -46.4355 C 33.9844 -49.4141 35.9375 -50.8301 39.3066 -50.8301 C 43.0664 -50.8301 44.9219 -48.584 44.9219 -44.9707 L 44.9219 -31.9824 L 45.6055 -31.9824 C 47.5098 -31.9824 48.6328 -30.7129 48.6328 -28.7109 C 48.6328 -26.7578 47.5098 -25.5859 45.6055 -25.5859 L 44.9219 -25.5859 L 44.9219 -23.0469 C 44.9219 -21.0938 43.6523 -19.6777 41.5527 -19.6777 Z M 57.3242 -19.7754 C 55.0293 -19.7754 53.2227 -21.3867 53.2227 -23.8281 C 53.2227 -24.9023 53.418 -25.6348 53.9551 -26.5625 L 62.1094 -42.8711 L 62.1094 -43.1641 L 53.8086 -43.1641 C 51.7578 -43.1641 49.9023 -44.3359 49.9023 -46.6309 C 49.9023 -48.9258 51.6602 -50.1953 53.8086 -50.1953 L 65.3809 -50.1953 C 68.9941 -50.1953 70.6055 -47.998 70.6055 -45.4102 C 70.6055 -44.3848 70.3613 -43.3105 69.873 -42.2363 L 61.377 -23.0469 C 60.4492 -20.8984 59.4727 -19.7754 57.3242 -19.7754 Z M 38.2324 -31.9336 L 38.2324 -43.7012 L 38.0859 -43.7012 C 36.5234 -40.1855 34.5215 -34.9609 33.3984 -32.0801 L 33.3984 -31.9336 Z"/>
  </g>
  <g id="Bold-S" transform="matrix(1 0 0 1 2292.44 696)">
   <path d="M 47.5586 5.46875 C 69.873 5.46875 88.2324 -12.8906 88.2324 -35.2051 C 88.2324 -57.5684 69.873 -75.9277 47.5098 -75.9277 C 25.1953 -75.9277 6.83594 -57.5684 6.83594 -35.2051 C 6.83594 -12.8906 25.1953 5.46875 47.5586 5.46875 Z M 40.3809 -19.043 C 38.4277 -19.043 37.2559 -20.4102 37.2559 -22.3145 L 37.2559 -25.3906 L 28.5645 -25.3906 C 25.8301 -25.3906 24.2188 -26.9531 24.2188 -29.6875 C 24.2188 -31.25 24.6094 -32.6172 25.1953 -34.082 C 26.9531 -37.793 29.4922 -42.9688 31.8848 -47.4121 C 33.3984 -50.1953 35.2051 -51.4648 38.3301 -51.4648 C 41.6992 -51.4648 43.5547 -49.4141 43.5547 -46.1914 L 43.5547 -31.3477 L 44.5801 -31.3477 C 46.3379 -31.3477 47.4121 -30.1758 47.4121 -28.3203 C 47.4121 -26.5137 46.3379 -25.4395 44.5801 -25.4395 L 43.5547 -25.4395 L 43.5547 -22.3145 C 43.5547 -20.4102 42.334 -19.043 40.3809 -19.043 Z M 56.5918 -19.2383 C 54.4922 -19.2383 52.8809 -20.752 52.8809 -22.9492 C 52.8809 -23.9258 53.0273 -24.6094 53.5156 -25.4395 L 62.9883 -44.0918 L 62.9883 -44.3848 L 52.9297 -44.3848 C 51.0254 -44.3848 49.4629 -45.5078 49.4629 -47.5586 C 49.4629 -49.5605 50.9766 -50.7324 52.9297 -50.7324 L 65.9668 -50.7324 C 69.1406 -50.7324 70.752 -48.6816 70.752 -46.2402 C 70.752 -45.2637 70.5078 -44.2871 69.9707 -43.0664 L 60.2051 -22.168 C 59.3262 -20.2148 58.3984 -19.2383 56.5918 -19.2383 Z M 37.2559 -31.2988 L 37.2559 -44.7266 L 37.1094 -44.7266 C 34.9121 -40.3809 32.5195 -35.0098 30.957 -31.4453 L 30.957 -31.2988 Z"/>
  </g>
  <g id="Semibold-S" transform="matrix(1 0 0 1 1996.2 696)">
   <path d="M 47.0703 4.98047 C 69.0918 4.98047 87.3047 -13.1836 87.3047 -35.2539 C 87.3047 -57.2754 69.0918 -75.4883 47.0215 -75.4883 C 25 -75.4883 6.83594 -57.2754 6.83594 -35.2539 C 6.83594 -13.1836 25.0488 4.98047 47.0703 4.98047 Z M 39.5508 -18.6035 C 37.6953 -18.6035 36.5723 -19.9707 36.5723 -21.7773 L 36.5723 -25.293 L 27.002 -25.293 C 24.4141 -25.293 22.8516 -26.8066 22.8516 -29.3945 C 22.8516 -30.8594 23.1934 -32.0801 23.8281 -33.5449 C 25.8789 -37.6465 28.7109 -43.1152 31.4453 -48.0957 C 32.959 -50.7812 34.7168 -51.9043 37.6465 -51.9043 C 40.7227 -51.9043 42.5781 -50 42.5781 -47.0215 L 42.5781 -30.9082 L 43.8477 -30.9082 C 45.5078 -30.9082 46.582 -29.834 46.582 -28.0762 C 46.582 -26.3184 45.5078 -25.293 43.8477 -25.293 L 42.5781 -25.293 L 42.5781 -21.7773 C 42.5781 -19.9219 41.4551 -18.6035 39.5508 -18.6035 Z M 56.0547 -18.8965 C 54.1504 -18.8965 52.5879 -20.3125 52.5879 -22.3145 C 52.5879 -23.2422 52.7344 -23.877 53.2227 -24.707 L 63.5742 -44.9219 L 63.5742 -45.2637 L 52.2949 -45.2637 C 50.5371 -45.2637 49.1699 -46.3379 49.1699 -48.1445 C 49.1699 -50 50.5371 -51.123 52.2949 -51.123 L 66.4062 -51.123 C 69.2871 -51.123 70.8496 -49.1699 70.8496 -46.8262 C 70.8496 -45.8984 70.6543 -44.9219 70.0684 -43.6523 L 59.4238 -21.582 C 58.5938 -19.7754 57.666 -18.8965 56.0547 -18.8965 Z M 36.5723 -30.8594 L 36.5723 -45.4102 L 36.4258 -45.4102 C 33.7891 -40.5273 31.1523 -35.0098 29.248 -31.0547 L 29.248 -30.8594 Z"/>
  </g>
  <g id="Medium-S" transform="matrix(1 0 0 1 1699.83 696)">
   <path d="M 46.7285 4.63867 C 68.5547 4.63867 86.6211 -13.4277 86.6211 -35.2539 C 86.6211 -57.0312 68.5059 -75.1465 46.6797 -75.1465 C 24.8535 -75.1465 6.83594 -57.0312 6.83594 -35.2539 C 6.83594 -13.4277 24.9023 4.63867 46.7285 4.63867 Z M 38.9648 -18.2617 C 37.1094 -18.2617 36.084 -19.5801 36.084 -21.3867 L 36.084 -25.1953 L 25.7812 -25.1953 C 23.3887 -25.1953 21.7773 -26.6602 21.7773 -29.1992 C 21.7773 -30.5664 22.1191 -31.6406 22.8027 -33.1055 C 25.0977 -37.5488 28.1738 -43.2617 31.1523 -48.584 C 32.666 -51.1719 34.3262 -52.2461 37.1094 -52.2461 C 40.0391 -52.2461 41.8457 -50.4395 41.8457 -47.6074 L 41.8457 -30.5664 L 43.3105 -30.5664 C 44.9219 -30.5664 45.8984 -29.541 45.8984 -27.8809 C 45.8984 -26.1719 44.9219 -25.2441 43.3105 -25.2441 L 41.8457 -25.2441 L 41.8457 -21.3867 C 41.8457 -19.5801 40.8203 -18.2617 38.9648 -18.2617 Z M 55.6641 -18.6035 C 53.8574 -18.6035 52.3926 -19.9707 52.3926 -21.8262 C 52.3926 -22.7539 52.5391 -23.3398 52.9785 -24.1211 L 64.0137 -45.5566 L 64.0137 -45.8984 L 51.8555 -45.8984 C 50.1953 -45.8984 48.9746 -46.9238 48.9746 -48.6328 C 48.9746 -50.3418 50.1465 -51.3672 51.8555 -51.3672 L 66.6992 -51.3672 C 69.3359 -51.3672 70.9473 -49.5117 70.9473 -47.2656 C 70.9473 -46.3379 70.752 -45.459 70.1172 -44.0918 L 58.8379 -21.0938 C 58.0078 -19.3848 57.0801 -18.6035 55.6641 -18.6035 Z M 36.084 -30.5176 L 36.084 -45.9473 L 35.8887 -45.9473 C 32.959 -40.6738 30.0781 -35.0098 27.9785 -30.7129 L 27.9785 -30.5176 Z"/>
  </g>
  <g id="Regular-S" transform="matrix(1 0 0 1 1403.58 696)">
   <path d="M 46.2402 4.15039 C 67.7734 4.15039 85.6934 -13.7207 85.6934 -35.2539 C 85.6934 -56.7871 67.7246 -74.6582 46.1914 -74.6582 C 24.707 -74.6582 6.83594 -56.7871 6.83594 -35.2539 C 6.83594 -13.7207 24.7559 4.15039 46.2402 4.15039 Z M 38.1348 -17.8223 C 36.3281 -17.8223 35.4492 -19.1406 35.4492 -20.8984 L 35.4492 -25.0977 L 24.2188 -25.0977 C 22.0215 -25.0977 20.459 -26.5137 20.459 -28.9551 C 20.459 -30.1758 20.752 -31.1035 21.4355 -32.5684 C 24.0723 -37.4512 27.3926 -43.4082 30.7617 -49.2676 C 32.2266 -51.709 33.7891 -52.6855 36.4258 -52.6855 C 39.0625 -52.6855 40.8691 -50.9766 40.8691 -48.4375 L 40.8691 -30.127 L 42.5781 -30.127 C 44.0918 -30.127 45.0684 -29.1992 45.0684 -27.5879 C 45.0684 -26.0254 44.0918 -25.0977 42.5781 -25.0977 L 40.8691 -25.0977 L 40.8691 -20.8984 C 40.8691 -19.0918 39.9414 -17.8223 38.1348 -17.8223 Z M 55.1758 -18.2617 C 53.5156 -18.2617 52.1484 -19.5312 52.1484 -21.1914 C 52.1484 -22.0703 52.2461 -22.6074 52.6855 -23.3398 L 64.6484 -46.3867 L 64.6484 -46.7285 L 51.2207 -46.7285 C 49.707 -46.7285 48.6816 -47.7539 48.6816 -49.2676 C 48.6816 -50.7812 49.707 -51.7578 51.2207 -51.7578 L 67.0898 -51.7578 C 69.4824 -51.7578 71.0449 -50 71.0449 -47.8516 C 71.0449 -46.9238 70.8984 -46.0938 70.166 -44.6777 L 58.0566 -20.5078 C 57.2266 -18.9453 56.3477 -18.2617 55.1758 -18.2617 Z M 35.4492 -30.127 L 35.4492 -46.6309 L 35.2051 -46.6309 C 31.8359 -40.8203 28.7109 -35.0098 26.3184 -30.3223 L 26.3184 -30.127 Z"/>
  </g>
  <g id="Light-S" transform="matrix(1 0 0 1 1107.6 696)">
   <path d="M 45.5078 3.4668 C 66.6992 3.4668 84.2285 -14.0625 84.2285 -35.2051 C 84.2285 -56.3965 66.6504 -73.9258 45.5078 -73.9258 C 24.3164 -73.9258 6.83594 -56.3965 6.83594 -35.2051 C 6.83594 -14.0625 24.3652 3.4668 45.5078 3.4668 Z M 37.3047 -18.1641 C 35.8887 -18.1641 35.1562 -19.1895 35.1562 -20.5566 L 35.1562 -25.7324 L 22.9492 -25.7324 C 21.0938 -25.7324 19.7754 -26.8555 19.7754 -28.8086 C 19.7754 -29.7852 20.0195 -30.6152 20.6055 -31.6895 C 23.3887 -36.4746 28.0762 -44.1895 31.3477 -49.707 C 32.5684 -51.6602 33.8379 -52.4414 35.9375 -52.4414 C 38.0371 -52.4414 39.502 -51.0742 39.502 -49.0234 L 39.502 -29.7852 L 42.0898 -29.7852 C 43.3105 -29.7852 44.0918 -29.0039 44.0918 -27.7344 C 44.0918 -26.4648 43.3105 -25.7324 42.0898 -25.7324 L 39.502 -25.7324 L 39.502 -20.5566 C 39.502 -19.1406 38.7207 -18.1641 37.3047 -18.1641 Z M 54.0039 -18.457 C 52.6367 -18.457 51.6113 -19.4824 51.6113 -20.8008 C 51.6113 -21.4355 51.6602 -21.875 52.002 -22.4609 L 64.7949 -47.3633 L 64.7949 -47.6562 L 50.0977 -47.6562 C 48.877 -47.6562 47.998 -48.4375 47.998 -49.707 C 47.998 -50.9277 48.877 -51.709 50.0977 -51.709 L 66.6016 -51.709 C 68.5547 -51.709 69.873 -50.3418 69.873 -48.584 C 69.873 -47.8516 69.7754 -47.168 69.1895 -45.9961 L 56.2988 -20.2148 C 55.6641 -18.9941 54.9805 -18.457 54.0039 -18.457 Z M 35.1562 -29.7852 L 35.1562 -47.5586 L 34.9609 -47.5586 C 31.8359 -42.4316 26.9043 -34.3262 24.5605 -29.9316 L 24.5605 -29.7852 Z"/>
  </g>
  <g id="Thin-S" transform="matrix(1 0 0 1 811.867 696)">
   <path d="M 44.5801 2.53906 C 65.2832 2.53906 82.2754 -14.4531 82.2754 -35.2051 C 82.2754 -55.9082 65.2344 -72.9004 44.5312 -72.9004 C 23.8281 -72.9004 6.83594 -55.9082 6.83594 -35.2051 C 6.83594 -14.4531 23.877 2.53906 44.5801 2.53906 Z M 36.1816 -18.5547 C 35.3027 -18.5547 34.7168 -19.1895 34.7168 -20.166 L 34.7168 -26.5137 L 21.2891 -26.5137 C 19.9219 -26.5137 18.9453 -27.2461 18.9453 -28.6621 C 18.9453 -29.2969 19.1406 -29.9316 19.4824 -30.5664 C 22.4121 -35.2051 28.9062 -45.2148 32.1777 -50.2441 C 33.0566 -51.6602 33.8867 -52.0996 35.3027 -52.0996 C 36.7188 -52.0996 37.6953 -51.2207 37.6953 -49.8535 L 37.6953 -29.3457 L 41.4551 -29.3457 C 42.2852 -29.3457 42.8223 -28.7598 42.8223 -27.9297 C 42.8223 -27.0508 42.2852 -26.5137 41.4551 -26.5137 L 37.6953 -26.5137 L 37.6953 -20.166 C 37.6953 -19.1895 37.1582 -18.5547 36.1816 -18.5547 Z M 52.4414 -18.7012 C 51.5137 -18.7012 50.8789 -19.3848 50.8789 -20.2148 C 50.8789 -20.6543 50.9277 -20.9473 51.123 -21.2891 L 65.0391 -48.6328 L 65.0391 -48.8281 L 48.6328 -48.8281 C 47.7539 -48.8281 47.168 -49.4141 47.168 -50.2441 C 47.168 -51.0742 47.7539 -51.709 48.6328 -51.709 L 65.9668 -51.709 C 67.3828 -51.709 68.4082 -50.7812 68.4082 -49.5117 C 68.4082 -49.0234 68.2617 -48.584 67.9199 -47.8027 L 54.0039 -19.8242 C 53.6133 -18.9941 53.1738 -18.7012 52.4414 -18.7012 Z M 34.7168 -29.3457 L 34.7168 -48.7305 L 34.6191 -48.7305 C 31.8359 -44.5312 24.5117 -33.3496 22.2168 -29.4434 L 22.2168 -29.3457 Z"/>
  </g>
  <g id="Ultralight-S" transform="matrix(1 0 0 1 515.644 696)">
   <path d="M 44.043 2.05078 C 64.502 2.05078 81.2988 -14.6973 81.2988 -35.1562 C 81.2988 -55.6152 64.502 -72.3633 44.043 -72.3633 C 23.584 -72.3633 6.83594 -55.6152 6.83594 -35.1562 C 6.83594 -14.6973 23.584 2.05078 44.043 2.05078 Z M 35.6445 -18.7988 C 34.9609 -18.7988 34.5215 -19.2383 34.5215 -19.9219 L 34.5215 -26.9531 L 20.4102 -26.9531 C 19.2871 -26.9531 18.5059 -27.4902 18.5059 -28.5645 C 18.5059 -29.0527 18.6523 -29.5898 18.8965 -29.9805 C 21.9238 -34.5703 29.3457 -45.752 32.5684 -50.5859 C 33.3008 -51.6113 33.9355 -51.9531 34.9609 -51.9531 C 35.9863 -51.9531 36.7188 -51.3184 36.7188 -50.2441 L 36.7188 -29.1016 L 41.1133 -29.1016 C 41.748 -29.1016 42.1387 -28.6133 42.1387 -28.0273 C 42.1387 -27.3926 41.748 -26.9531 41.1133 -26.9531 L 36.7188 -26.9531 L 36.7188 -19.9219 C 36.7188 -19.2383 36.3281 -18.7988 35.6445 -18.7988 Z M 51.6602 -18.7988 C 50.9277 -18.7988 50.4883 -19.3359 50.4883 -19.9219 C 50.4883 -20.2148 50.5371 -20.4102 50.6348 -20.7031 L 65.1367 -49.3164 L 65.1367 -49.4629 L 47.9004 -49.4629 C 47.168 -49.4629 46.7285 -49.9023 46.7285 -50.5859 C 46.7285 -51.2207 47.168 -51.6602 47.9004 -51.6602 L 65.6738 -51.6602 C 66.7969 -51.6602 67.627 -51.0254 67.627 -50.0488 C 67.627 -49.6094 67.5293 -49.3652 67.2363 -48.7305 L 52.832 -19.6289 C 52.5391 -19.043 52.1973 -18.7988 51.6602 -18.7988 Z M 34.5215 -29.1016 L 34.5215 -49.3652 L 34.4238 -49.3652 C 31.8359 -45.6543 23.291 -32.8613 21.0449 -29.1992 L 21.0449 -29.1016 Z"/>
  </g>
 </g>
</svg>
