<?xml version="1.0" encoding="UTF-8"?>
<!--Generator: Apple Native CoreSVG 123-->
<!DOCTYPE svg
PUBLIC "-//W3C//DTD SVG 1.1//EN"
       "http://www.w3.org/Graphics/SVG/1.1/DTD/svg11.dtd">
<svg version="1.1" xmlns="http://www.w3.org/2000/svg" xmlns:xlink="http://www.w3.org/1999/xlink" width="3300" height="2200">
 <!--glyph: "uni1006B8.medium", point size: 100.000000, font version: "Version 15.0d7e11", template writer version: "5"-->
 <g id="Notes">
  <rect height="2200" id="artboard" style="fill:white;opacity:1" width="3300" x="0" y="0"/>
  <line id="" style="fill:none;stroke:black;opacity:1;stroke-width:0.5;" x1="263" x2="3036" y1="292" y2="292"/>
  <text style="stroke:none;fill:black;font-family:-apple-system,&quot;SF Pro Display&quot;,&quot;SF Pro Text&quot;,Helvetica,sans-serif;font-weight:bold;" transform="matrix(1 0 0 1 263 322)">Weight/Scale Variations</text>
  <text style="stroke:none;fill:black;font-family:-apple-system,&quot;SF Pro Display&quot;,&quot;SF Pro Text&quot;,Helvetica,sans-serif;text-anchor:middle;" transform="matrix(1 0 0 1 559.711 322)">Ultralight</text>
  <text style="stroke:none;fill:black;font-family:-apple-system,&quot;SF Pro Display&quot;,&quot;SF Pro Text&quot;,Helvetica,sans-serif;text-anchor:middle;" transform="matrix(1 0 0 1 856.422 322)">Thin</text>
  <text style="stroke:none;fill:black;font-family:-apple-system,&quot;SF Pro Display&quot;,&quot;SF Pro Text&quot;,Helvetica,sans-serif;text-anchor:middle;" transform="matrix(1 0 0 1 1153.13 322)">Light</text>
  <text style="stroke:none;fill:black;font-family:-apple-system,&quot;SF Pro Display&quot;,&quot;SF Pro Text&quot;,Helvetica,sans-serif;text-anchor:middle;" transform="matrix(1 0 0 1 1449.84 322)">Regular</text>
  <text style="stroke:none;fill:black;font-family:-apple-system,&quot;SF Pro Display&quot;,&quot;SF Pro Text&quot;,Helvetica,sans-serif;text-anchor:middle;" transform="matrix(1 0 0 1 1746.56 322)">Medium</text>
  <text style="stroke:none;fill:black;font-family:-apple-system,&quot;SF Pro Display&quot;,&quot;SF Pro Text&quot;,Helvetica,sans-serif;text-anchor:middle;" transform="matrix(1 0 0 1 2043.27 322)">Semibold</text>
  <text style="stroke:none;fill:black;font-family:-apple-system,&quot;SF Pro Display&quot;,&quot;SF Pro Text&quot;,Helvetica,sans-serif;text-anchor:middle;" transform="matrix(1 0 0 1 2339.98 322)">Bold</text>
  <text style="stroke:none;fill:black;font-family:-apple-system,&quot;SF Pro Display&quot;,&quot;SF Pro Text&quot;,Helvetica,sans-serif;text-anchor:middle;" transform="matrix(1 0 0 1 2636.69 322)">Heavy</text>
  <text style="stroke:none;fill:black;font-family:-apple-system,&quot;SF Pro Display&quot;,&quot;SF Pro Text&quot;,Helvetica,sans-serif;text-anchor:middle;" transform="matrix(1 0 0 1 2933.4 322)">Black</text>
  <line id="" style="fill:none;stroke:black;opacity:1;stroke-width:0.5;" x1="263" x2="3036" y1="1903" y2="1903"/>
  <g id="" transform="matrix(1 0 0 1 263 1933)">
   <path d="M 9.24805 0.830078 C 13.5547 0.830078 17.1387 -2.74414 17.1387 -7.05078 C 17.1387 -11.3574 13.5449 -14.9316 9.23828 -14.9316 C 4.94141 -14.9316 1.36719 -11.3574 1.36719 -7.05078 C 1.36719 -2.74414 4.95117 0.830078 9.24805 0.830078 Z M 9.24805 -0.654297 C 5.70312 -0.654297 2.87109 -3.49609 2.87109 -7.05078 C 2.87109 -10.6055 5.69336 -13.4473 9.23828 -13.4473 C 12.793 -13.4473 15.6348 -10.6055 15.6445 -7.05078 C 15.6543 -3.49609 12.8027 -0.654297 9.24805 -0.654297 Z M 9.22852 -3.42773 C 9.69727 -3.42773 9.9707 -3.74023 9.9707 -4.25781 L 9.9707 -6.31836 L 12.1973 -6.31836 C 12.6953 -6.31836 13.0371 -6.57227 13.0371 -7.04102 C 13.0371 -7.51953 12.7148 -7.7832 12.1973 -7.7832 L 9.9707 -7.7832 L 9.9707 -10.0098 C 9.9707 -10.5273 9.69727 -10.8496 9.22852 -10.8496 C 8.75977 -10.8496 8.50586 -10.5078 8.50586 -10.0098 L 8.50586 -7.7832 L 6.29883 -7.7832 C 5.78125 -7.7832 5.44922 -7.51953 5.44922 -7.04102 C 5.44922 -6.57227 5.80078 -6.31836 6.29883 -6.31836 L 8.50586 -6.31836 L 8.50586 -4.25781 C 8.50586 -3.75977 8.75977 -3.42773 9.22852 -3.42773 Z"/>
  </g>
  <g id="" transform="matrix(1 0 0 1 281.506 1933)">
   <path d="M 11.709 2.91016 C 17.1582 2.91016 21.6699 -1.60156 21.6699 -7.05078 C 21.6699 -12.4902 17.1484 -17.0117 11.6992 -17.0117 C 6.25977 -17.0117 1.74805 -12.4902 1.74805 -7.05078 C 1.74805 -1.60156 6.26953 2.91016 11.709 2.91016 Z M 11.709 1.25 C 7.09961 1.25 3.41797 -2.44141 3.41797 -7.05078 C 3.41797 -11.6504 7.08984 -15.3516 11.6992 -15.3516 C 16.3086 -15.3516 20 -11.6504 20.0098 -7.05078 C 20.0195 -2.44141 16.3184 1.25 11.709 1.25 Z M 11.6895 -2.41211 C 12.207 -2.41211 12.5195 -2.77344 12.5195 -3.33984 L 12.5195 -6.23047 L 15.5762 -6.23047 C 16.123 -6.23047 16.5039 -6.51367 16.5039 -7.03125 C 16.5039 -7.55859 16.1426 -7.86133 15.5762 -7.86133 L 12.5195 -7.86133 L 12.5195 -10.9277 C 12.5195 -11.5039 12.207 -11.8555 11.6895 -11.8555 C 11.1719 -11.8555 10.8789 -11.4844 10.8789 -10.9277 L 10.8789 -7.86133 L 7.83203 -7.86133 C 7.26562 -7.86133 6.89453 -7.55859 6.89453 -7.03125 C 6.89453 -6.51367 7.28516 -6.23047 7.83203 -6.23047 L 10.8789 -6.23047 L 10.8789 -3.33984 C 10.8789 -2.79297 11.1719 -2.41211 11.6895 -2.41211 Z"/>
  </g>
  <g id="" transform="matrix(1 0 0 1 304.924 1933)">
   <path d="M 14.9707 5.67383 C 21.9336 5.67383 27.6953 -0.078125 27.6953 -7.04102 C 27.6953 -14.0039 21.9238 -19.7559 14.9609 -19.7559 C 8.00781 -19.7559 2.25586 -14.0039 2.25586 -7.04102 C 2.25586 -0.078125 8.01758 5.67383 14.9707 5.67383 Z M 14.9707 3.85742 C 8.93555 3.85742 4.08203 -1.00586 4.08203 -7.04102 C 4.08203 -13.0762 8.92578 -17.9395 14.9609 -17.9395 C 21.0059 -17.9395 25.8594 -13.0762 25.8691 -7.04102 C 25.8789 -1.00586 21.0156 3.85742 14.9707 3.85742 Z M 14.9512 -1.06445 C 15.5176 -1.06445 15.8691 -1.45508 15.8691 -2.06055 L 15.8691 -6.13281 L 20.1074 -6.13281 C 20.6934 -6.13281 21.1133 -6.46484 21.1133 -7.02148 C 21.1133 -7.59766 20.7227 -7.93945 20.1074 -7.93945 L 15.8691 -7.93945 L 15.8691 -12.1875 C 15.8691 -12.8027 15.5176 -13.1934 14.9512 -13.1934 C 14.3848 -13.1934 14.0625 -12.7832 14.0625 -12.1875 L 14.0625 -7.93945 L 9.83398 -7.93945 C 9.21875 -7.93945 8.80859 -7.59766 8.80859 -7.02148 C 8.80859 -6.46484 9.23828 -6.13281 9.83398 -6.13281 L 14.0625 -6.13281 L 14.0625 -2.06055 C 14.0625 -1.47461 14.3848 -1.06445 14.9512 -1.06445 Z"/>
  </g>
  <text style="stroke:none;fill:black;font-family:-apple-system,&quot;SF Pro Display&quot;,&quot;SF Pro Text&quot;,Helvetica,sans-serif;font-weight:bold;" transform="matrix(1 0 0 1 263 1953)">Design Variations</text>
  <text style="stroke:none;fill:black;font-family:-apple-system,&quot;SF Pro Display&quot;,&quot;SF Pro Text&quot;,Helvetica,sans-serif;" transform="matrix(1 0 0 1 263 1971)">Symbols are supported in up to nine weights and three scales.</text>
  <text style="stroke:none;fill:black;font-family:-apple-system,&quot;SF Pro Display&quot;,&quot;SF Pro Text&quot;,Helvetica,sans-serif;" transform="matrix(1 0 0 1 263 1989)">For optimal layout with text and other symbols, vertically align</text>
  <text style="stroke:none;fill:black;font-family:-apple-system,&quot;SF Pro Display&quot;,&quot;SF Pro Text&quot;,Helvetica,sans-serif;" transform="matrix(1 0 0 1 263 2007)">symbols with the adjacent text.</text>
  <rect height="14" id="" style="fill:#00AEEF;stroke:none;opacity:0.4;" width="3" x="776" y="1919"/>
  <g id="" transform="matrix(1 0 0 1 779 1933)">
   <path d="M 10.5273 0 L 12.373 0 L 7.17773 -14.0918 L 5.43945 -14.0918 L 0.244141 0 L 2.08984 0 L 3.50586 -4.0332 L 9.11133 -4.0332 Z M 6.2793 -11.9531 L 6.33789 -11.9531 L 8.59375 -5.52734 L 4.02344 -5.52734 Z"/>
  </g>
  <rect height="14" id="" style="fill:#00AEEF;stroke:none;opacity:0.4;" width="3" x="791.617" y="1919"/>
  <text style="stroke:none;fill:black;font-family:-apple-system,&quot;SF Pro Display&quot;,&quot;SF Pro Text&quot;,Helvetica,sans-serif;font-weight:bold;" transform="matrix(1 0 0 1 776 1953)">Margins</text>
  <text style="stroke:none;fill:black;font-family:-apple-system,&quot;SF Pro Display&quot;,&quot;SF Pro Text&quot;,Helvetica,sans-serif;" transform="matrix(1 0 0 1 776 1971)">Leading and trailing margins on the left and right side of each symbol</text>
  <text style="stroke:none;fill:black;font-family:-apple-system,&quot;SF Pro Display&quot;,&quot;SF Pro Text&quot;,Helvetica,sans-serif;" transform="matrix(1 0 0 1 776 1989)">can be adjusted by modifying the width of the blue rectangles.</text>
  <text style="stroke:none;fill:black;font-family:-apple-system,&quot;SF Pro Display&quot;,&quot;SF Pro Text&quot;,Helvetica,sans-serif;" transform="matrix(1 0 0 1 776 2007)">Modifications are automatically applied proportionally to all</text>
  <text style="stroke:none;fill:black;font-family:-apple-system,&quot;SF Pro Display&quot;,&quot;SF Pro Text&quot;,Helvetica,sans-serif;" transform="matrix(1 0 0 1 776 2025)">scales and weights.</text>
  <g id="" transform="matrix(1 0 0 1 1289 1933)">
   <path d="M 2.83203 3.11523 L 4.375 4.6582 C 5.22461 5.48828 6.19141 5.41992 7.06055 4.46289 L 17.2754 -6.66016 C 17.7051 -6.36719 18.0957 -6.37695 18.5645 -6.47461 L 19.6094 -6.68945 L 20.3027 -5.99609 L 20.2539 -5.47852 C 20.1855 -4.95117 20.3516 -4.53125 20.8496 -4.0332 L 21.6602 -3.22266 C 22.168 -2.71484 22.8223 -2.68555 23.3008 -3.16406 L 26.5527 -6.41602 C 27.0312 -6.89453 27.0117 -7.54883 26.5039 -8.05664 L 25.6836 -8.87695 C 25.1855 -9.375 24.7754 -9.55078 24.2383 -9.47266 L 23.7109 -9.41406 L 23.0566 -10.0781 L 23.3398 -11.2207 C 23.4863 -11.7871 23.3398 -12.2559 22.7148 -12.8613 L 20.3027 -15.2539 C 16.7578 -18.7793 12.2266 -18.6719 9.11133 -15.5371 C 8.69141 -15.1074 8.64258 -14.5215 8.91602 -14.0918 C 9.15039 -13.7207 9.62891 -13.4961 10.2734 -13.6621 C 11.7871 -14.043 13.3008 -13.9258 14.7852 -12.9199 L 14.1602 -11.3379 C 13.9258 -10.752 13.9453 -10.2734 14.1797 -9.83398 L 3.01758 0.439453 C 2.08008 1.30859 1.97266 2.25586 2.83203 3.11523 Z M 10.6738 -15.1465 C 13.3398 -17.1387 16.6504 -16.8262 19.0527 -14.4141 L 21.6797 -11.8066 C 21.9141 -11.5723 21.9434 -11.3867 21.8848 -11.0938 L 21.5039 -9.53125 L 23.0762 -7.95898 L 24.043 -8.04688 C 24.3262 -8.07617 24.4141 -8.05664 24.6387 -7.83203 L 25.2637 -7.20703 L 22.5098 -4.46289 L 21.8848 -5.07812 C 21.6602 -5.30273 21.6406 -5.40039 21.6699 -5.68359 L 21.7578 -6.64062 L 20.1953 -8.20312 L 18.5742 -7.89062 C 18.291 -7.83203 18.1445 -7.83203 17.9102 -8.07617 L 15.7324 -10.2539 C 15.5078 -10.4883 15.4785 -10.625 15.6055 -10.9473 L 16.5527 -13.2227 C 14.9512 -14.7559 12.8418 -15.6055 10.8008 -14.9512 C 10.7129 -14.9219 10.6445 -14.9414 10.6152 -14.9805 C 10.5859 -15.0293 10.5859 -15.0781 10.6738 -15.1465 Z M 4.10156 2.41211 C 3.61328 1.91406 3.78906 1.61133 4.12109 1.30859 L 15.0781 -8.80859 L 16.3086 -7.57812 L 6.15234 3.34961 C 5.84961 3.68164 5.46875 3.7793 5.06836 3.37891 Z"/>
  </g>
  <text style="stroke:none;fill:black;font-family:-apple-system,&quot;SF Pro Display&quot;,&quot;SF Pro Text&quot;,Helvetica,sans-serif;font-weight:bold;" transform="matrix(1 0 0 1 1289 1953)">Exporting</text>
  <text style="stroke:none;fill:black;font-family:-apple-system,&quot;SF Pro Display&quot;,&quot;SF Pro Text&quot;,Helvetica,sans-serif;" transform="matrix(1 0 0 1 1289 1971)">Symbols should be outlined when exporting to ensure the</text>
  <text style="stroke:none;fill:black;font-family:-apple-system,&quot;SF Pro Display&quot;,&quot;SF Pro Text&quot;,Helvetica,sans-serif;" transform="matrix(1 0 0 1 1289 1989)">design is preserved when submitting to Xcode.</text>
  <text id="template-version" style="stroke:none;fill:black;font-family:-apple-system,&quot;SF Pro Display&quot;,&quot;SF Pro Text&quot;,Helvetica,sans-serif;text-anchor:end;" transform="matrix(1 0 0 1 3036 1933)">Template v.1.0</text>
  <text style="stroke:none;fill:black;font-family:-apple-system,&quot;SF Pro Display&quot;,&quot;SF Pro Text&quot;,Helvetica,sans-serif;text-anchor:end;" transform="matrix(1 0 0 1 3036 1951)">Generated from 48.circle.fill</text>
  <text style="stroke:none;fill:black;font-family:-apple-system,&quot;SF Pro Display&quot;,&quot;SF Pro Text&quot;,Helvetica,sans-serif;text-anchor:end;" transform="matrix(1 0 0 1 3036 1969)">Typeset at 100 points</text>
  <text style="stroke:none;fill:black;font-family:-apple-system,&quot;SF Pro Display&quot;,&quot;SF Pro Text&quot;,Helvetica,sans-serif;" transform="matrix(1 0 0 1 263 726)">Small</text>
  <text style="stroke:none;fill:black;font-family:-apple-system,&quot;SF Pro Display&quot;,&quot;SF Pro Text&quot;,Helvetica,sans-serif;" transform="matrix(1 0 0 1 263 1156)">Medium</text>
  <text style="stroke:none;fill:black;font-family:-apple-system,&quot;SF Pro Display&quot;,&quot;SF Pro Text&quot;,Helvetica,sans-serif;" transform="matrix(1 0 0 1 263 1586)">Large</text>
 </g>
 <g id="Guides">
  <g id="H-reference" style="fill:#27AAE1;stroke:none;" transform="matrix(1 0 0 1 339 696)">
   <path d="M 54.9316 0 L 57.666 0 L 30.5664 -70.459 L 28.0762 -70.459 L 0.976562 0 L 3.66211 0 L 12.9395 -24.4629 L 45.7031 -24.4629 Z M 29.1992 -67.0898 L 29.4434 -67.0898 L 44.8242 -26.709 L 13.8184 -26.709 Z"/>
  </g>
  <line id="Baseline-S" style="fill:none;stroke:#27AAE1;opacity:1;stroke-width:0.577;" x1="263" x2="3036" y1="696" y2="696"/>
  <line id="Capline-S" style="fill:none;stroke:#27AAE1;opacity:1;stroke-width:0.577;" x1="263" x2="3036" y1="625.541" y2="625.541"/>
  <g id="H-reference" style="fill:#27AAE1;stroke:none;" transform="matrix(1 0 0 1 339 1126)">
   <path d="M 54.9316 0 L 57.666 0 L 30.5664 -70.459 L 28.0762 -70.459 L 0.976562 0 L 3.66211 0 L 12.9395 -24.4629 L 45.7031 -24.4629 Z M 29.1992 -67.0898 L 29.4434 -67.0898 L 44.8242 -26.709 L 13.8184 -26.709 Z"/>
  </g>
  <line id="Baseline-M" style="fill:none;stroke:#27AAE1;opacity:1;stroke-width:0.577;" x1="263" x2="3036" y1="1126" y2="1126"/>
  <line id="Capline-M" style="fill:none;stroke:#27AAE1;opacity:1;stroke-width:0.577;" x1="263" x2="3036" y1="1055.54" y2="1055.54"/>
  <g id="H-reference" style="fill:#27AAE1;stroke:none;" transform="matrix(1 0 0 1 339 1556)">
   <path d="M 54.9316 0 L 57.666 0 L 30.5664 -70.459 L 28.0762 -70.459 L 0.976562 0 L 3.66211 0 L 12.9395 -24.4629 L 45.7031 -24.4629 Z M 29.1992 -67.0898 L 29.4434 -67.0898 L 44.8242 -26.709 L 13.8184 -26.709 Z"/>
  </g>
  <line id="Baseline-L" style="fill:none;stroke:#27AAE1;opacity:1;stroke-width:0.577;" x1="263" x2="3036" y1="1556" y2="1556"/>
  <line id="Capline-L" style="fill:none;stroke:#27AAE1;opacity:1;stroke-width:0.577;" x1="263" x2="3036" y1="1485.54" y2="1485.54"/>
  <rect height="119.336" id="left-margin" style="fill:#00AEEF;stroke:none;opacity:0.4;" width="8.74023" x="1391.3" y="1030.79"/>
  <rect height="119.336" id="right-margin" style="fill:#00AEEF;stroke:none;opacity:0.4;" width="8.74023" x="1499.65" y="1030.79"/>
 </g>
 <g id="Symbols">
  <g id="Black-L" transform="matrix(1 0 0 1 2854.05 1556)">
   <path d="M 79.3457 32.8613 C 116.748 32.8613 147.412 2.19727 147.412 -35.2051 C 147.412 -72.6074 116.748 -103.271 79.2969 -103.271 C 41.8945 -103.271 11.2793 -72.6074 11.2793 -35.2051 C 11.2793 2.19727 41.9434 32.8613 79.3457 32.8613 Z M 66.3086 -9.47266 C 62.9395 -9.47266 60.8398 -11.7676 60.8398 -15.0391 L 60.8398 -19.1406 L 48.4375 -19.1406 C 43.5547 -19.1406 40.8691 -21.9238 40.8691 -26.6602 C 40.8691 -29.4922 41.6016 -32.0312 42.5781 -34.5703 C 44.6777 -39.7949 48.0957 -47.6562 51.3672 -53.8574 C 53.8574 -58.7891 57.0801 -61.084 62.6465 -61.084 C 68.7988 -61.084 71.9238 -57.4219 71.9238 -51.5137 L 71.9238 -29.7852 L 72.998 -29.7852 C 76.1719 -29.7852 77.9785 -27.6367 77.9785 -24.4141 C 77.9785 -21.1914 76.1719 -19.2383 72.998 -19.2383 L 71.9238 -19.2383 L 71.9238 -15.0391 C 71.9238 -11.7676 69.7266 -9.47266 66.3086 -9.47266 Z M 100.293 -9.47266 C 89.4531 -9.47266 82.2754 -15.332 82.2754 -24.1699 C 82.2754 -30.5664 86.2305 -34.9609 91.8457 -36.4258 L 91.8457 -36.9141 C 87.4512 -38.0859 84.1309 -42.1875 84.1309 -47.6562 C 84.1309 -55.7129 90.625 -61.084 100.342 -61.084 C 110.01 -61.084 116.504 -55.7129 116.504 -47.6562 C 116.504 -42.1875 113.184 -38.0371 108.838 -36.9141 L 108.838 -36.4258 C 114.453 -34.9609 118.311 -30.6152 118.311 -24.1699 C 118.311 -15.332 111.133 -9.47266 100.293 -9.47266 Z M 100.342 -41.5039 C 103.223 -41.5039 105.078 -43.5547 105.078 -46.3867 C 105.078 -49.1699 103.174 -51.2207 100.342 -51.2207 C 97.5098 -51.2207 95.5566 -49.1699 95.5566 -46.3867 C 95.5566 -43.5547 97.4121 -41.5039 100.342 -41.5039 Z M 60.8398 -29.6387 L 60.8398 -49.3164 L 60.5957 -49.3164 C 57.8613 -43.3105 54.6875 -34.8633 52.6367 -29.9316 L 52.6367 -29.6387 Z M 100.391 -19.4336 C 103.662 -19.4336 106.055 -21.875 106.055 -25.1465 C 106.055 -28.5156 103.711 -31.0059 100.391 -31.0059 C 96.9727 -31.0059 94.6289 -28.5156 94.6289 -25.1465 C 94.6289 -21.875 96.9727 -19.4336 100.391 -19.4336 Z"/>
  </g>
  <g id="Heavy-L" transform="matrix(1 0 0 1 2558.39 1556)">
   <path d="M 78.2715 31.7871 C 115.088 31.7871 145.312 1.61133 145.312 -35.2051 C 145.312 -72.0215 115.039 -102.197 78.2715 -102.197 C 41.4551 -102.197 11.2793 -72.0215 11.2793 -35.2051 C 11.2793 1.61133 41.5039 31.7871 78.2715 31.7871 Z M 65.0391 -8.93555 C 61.9629 -8.93555 60.0586 -11.084 60.0586 -14.1113 L 60.0586 -19.2871 L 45.8008 -19.2871 C 41.3574 -19.2871 38.8184 -21.8262 38.8184 -26.1719 C 38.8184 -28.7109 39.502 -30.957 40.4297 -33.3496 C 43.1152 -39.1602 47.6074 -48.2422 51.3672 -55.127 C 53.7598 -59.6191 56.6895 -61.6699 61.7188 -61.6699 C 67.2363 -61.6699 70.166 -58.3496 70.166 -53.0762 L 70.166 -28.9062 L 72.0703 -28.9062 C 74.9512 -28.9062 76.6602 -27.002 76.6602 -24.0723 C 76.6602 -21.0938 74.9512 -19.3359 72.0703 -19.3359 L 70.166 -19.3359 L 70.166 -14.1113 C 70.166 -11.0352 68.2129 -8.93555 65.0391 -8.93555 Z M 99.8047 -8.88672 C 88.8672 -8.88672 81.543 -14.8926 81.543 -23.877 C 81.543 -30.3711 85.5957 -35.0098 91.5527 -36.4746 L 91.5527 -36.9629 C 86.7188 -38.2324 83.4473 -42.4805 83.4473 -47.998 C 83.4473 -56.1523 90.0879 -61.6699 99.8535 -61.6699 C 109.619 -61.6699 116.26 -56.1523 116.26 -47.998 C 116.26 -42.4805 112.939 -38.1836 108.203 -36.9629 L 108.203 -36.4746 C 114.16 -35.0098 118.115 -30.4199 118.115 -23.9258 C 118.115 -14.9414 110.742 -8.88672 99.8047 -8.88672 Z M 99.8535 -41.0156 C 103.418 -41.0156 105.811 -43.457 105.811 -46.875 C 105.811 -50.2441 103.369 -52.6855 99.8535 -52.6855 C 96.3379 -52.6855 93.8965 -50.2441 93.8965 -46.875 C 93.8965 -43.457 96.2891 -41.0156 99.8535 -41.0156 Z M 60.0586 -28.8574 L 60.0586 -50.8301 L 59.8145 -50.8301 C 56.543 -44.2871 52.0996 -34.5703 49.6094 -29.1016 L 49.6094 -28.8574 Z M 99.9023 -17.9199 C 104.053 -17.9199 107.031 -20.8008 107.031 -24.7559 C 107.031 -28.7598 104.102 -31.6406 99.9023 -31.6406 C 95.7031 -31.6406 92.7246 -28.7109 92.7246 -24.7559 C 92.7246 -20.8008 95.7031 -17.9199 99.9023 -17.9199 Z"/>
  </g>
  <g id="Bold-L" transform="matrix(1 0 0 1 2262.88 1556)">
   <path d="M 77.0996 30.6152 C 113.232 30.6152 142.92 0.878906 142.92 -35.2051 C 142.92 -71.3379 113.184 -101.025 77.0508 -101.025 C 40.9668 -101.025 11.2793 -71.3379 11.2793 -35.2051 C 11.2793 0.878906 41.0156 30.6152 77.0996 30.6152 Z M 63.623 -8.30078 C 60.8398 -8.30078 59.1797 -10.3027 59.1797 -13.0371 L 59.1797 -19.4336 L 42.8711 -19.4336 C 38.916 -19.4336 36.5723 -21.7285 36.5723 -25.6836 C 36.5723 -27.832 37.1094 -29.7852 38.0371 -31.9336 C 41.4062 -38.4277 47.0703 -48.877 51.416 -56.4941 C 53.6621 -60.5469 56.25 -62.3047 60.7422 -62.3047 C 65.4785 -62.3047 68.2617 -59.4238 68.2617 -54.7852 L 68.2617 -27.9785 L 70.9961 -27.9785 C 73.584 -27.9785 75.0977 -26.3184 75.0977 -23.6816 C 75.0977 -21.0449 73.584 -19.4824 70.9961 -19.4824 L 68.2617 -19.4824 L 68.2617 -13.0371 C 68.2617 -10.2539 66.5527 -8.30078 63.623 -8.30078 Z M 99.2676 -8.25195 C 88.1836 -8.25195 80.7617 -14.4043 80.7617 -23.584 C 80.7617 -30.127 84.8633 -35.1074 91.1621 -36.5234 L 91.1621 -36.9629 C 85.9375 -38.4277 82.666 -42.8223 82.666 -48.3887 C 82.666 -56.6406 89.502 -62.3047 99.3164 -62.3047 C 109.18 -62.3047 115.967 -56.6406 115.967 -48.3887 C 115.967 -42.8223 112.646 -38.3301 107.52 -36.9629 L 107.52 -36.5234 C 113.77 -35.1074 117.871 -30.1758 117.871 -23.6328 C 117.871 -14.4531 110.303 -8.25195 99.2676 -8.25195 Z M 99.3164 -40.4785 C 103.613 -40.4785 106.592 -43.4082 106.592 -47.4609 C 106.592 -51.4648 103.613 -54.3457 99.3164 -54.3457 C 95.0195 -54.3457 92.041 -51.4648 92.041 -47.4609 C 92.041 -43.4082 95.0195 -40.4785 99.3164 -40.4785 Z M 59.1797 -27.9297 L 59.1797 -52.4902 L 58.9355 -52.4902 C 55.0293 -45.3613 49.1699 -34.2285 46.2402 -28.1738 L 46.2402 -27.9297 Z M 99.3652 -16.2598 C 104.443 -16.2598 108.105 -19.5801 108.105 -24.3164 C 108.105 -29.0039 104.492 -32.373 99.3652 -32.373 C 94.2383 -32.373 90.5762 -28.9551 90.5762 -24.3164 C 90.5762 -19.5801 94.2383 -16.2598 99.3652 -16.2598 Z"/>
  </g>
  <g id="Semibold-L" transform="matrix(1 0 0 1 1966.97 1556)">
   <path d="M 76.2695 29.7852 C 111.914 29.7852 141.309 0.439453 141.309 -35.2051 C 141.309 -70.8496 111.865 -100.244 76.2695 -100.244 C 40.625 -100.244 11.2793 -70.8496 11.2793 -35.2051 C 11.2793 0.439453 40.6738 29.7852 76.2695 29.7852 Z M 62.6953 -7.91016 C 60.0586 -7.91016 58.5938 -9.7168 58.5938 -12.3047 L 58.5938 -19.5312 L 40.8203 -19.5312 C 37.2559 -19.5312 35.0098 -21.6309 35.0098 -25.293 C 35.0098 -27.2461 35.4492 -28.9551 36.4258 -30.957 C 40.1855 -37.9395 46.6797 -49.3164 51.4648 -57.4707 C 53.5645 -61.1816 55.957 -62.7441 60.0098 -62.7441 C 64.3066 -62.7441 66.8945 -60.1074 66.8945 -56.0059 L 66.8945 -27.3438 L 70.2148 -27.3438 C 72.6074 -27.3438 74.0723 -25.8301 74.0723 -23.3887 C 74.0723 -20.9961 72.6562 -19.5312 70.2148 -19.5312 L 66.8945 -19.5312 L 66.8945 -12.3047 C 66.8945 -9.7168 65.3809 -7.91016 62.6953 -7.91016 Z M 98.877 -7.76367 C 87.7441 -7.76367 80.1758 -14.0625 80.1758 -23.3887 C 80.1758 -29.9805 84.375 -35.1562 90.918 -36.5723 L 90.918 -36.9629 C 85.4004 -38.5742 82.1289 -43.0664 82.1289 -48.6328 C 82.1289 -57.0312 89.0625 -62.7441 98.9746 -62.7441 C 108.838 -62.7441 115.771 -57.0312 115.771 -48.6328 C 115.771 -43.0664 112.451 -38.4277 107.031 -36.9629 L 107.031 -36.5723 C 113.525 -35.1562 117.676 -30.0293 117.676 -23.4375 C 117.676 -14.1602 110.059 -7.76367 98.877 -7.76367 Z M 98.9746 -40.0879 C 103.76 -40.0879 107.129 -43.3594 107.129 -47.8516 C 107.129 -52.3438 103.76 -55.4688 98.9746 -55.4688 C 94.1406 -55.4688 90.7715 -52.3438 90.7715 -47.8516 C 90.7715 -43.3594 94.1406 -40.0879 98.9746 -40.0879 Z M 58.5938 -27.2949 L 58.5938 -53.6621 L 58.3008 -53.6621 C 54.0039 -46.0938 47.2168 -34.0332 43.8965 -27.5391 L 43.8965 -27.2949 Z M 99.0234 -15.0879 C 104.688 -15.0879 108.838 -18.7988 108.838 -23.9746 C 108.838 -29.1504 104.785 -32.8613 99.0234 -32.8613 C 93.2617 -32.8613 89.1113 -29.1016 89.1113 -23.9746 C 89.1113 -18.7988 93.2617 -15.0879 99.0234 -15.0879 Z"/>
  </g>
  <g id="Medium-L" transform="matrix(1 0 0 1 1670.87 1556)">
   <path d="M 75.6836 29.1992 C 110.938 29.1992 140.088 0.0488281 140.088 -35.2051 C 140.088 -70.459 110.889 -99.6094 75.6348 -99.6094 C 40.3809 -99.6094 11.2793 -70.459 11.2793 -35.2051 C 11.2793 0.0488281 40.3809 29.1992 75.6836 29.1992 Z M 61.9629 -7.56836 C 59.4727 -7.56836 58.1055 -9.32617 58.1055 -11.7676 L 58.1055 -19.5801 L 39.3066 -19.5801 C 35.9375 -19.5801 33.7891 -21.582 33.7891 -25.0488 C 33.7891 -26.8066 34.2285 -28.3203 35.1562 -30.2246 C 39.3066 -37.5977 46.3867 -49.707 51.4648 -58.1543 C 53.5156 -61.6699 55.7617 -63.0859 59.5215 -63.0859 C 63.3789 -63.0859 65.8691 -60.6934 65.8691 -56.8848 L 65.8691 -26.8555 L 69.6777 -26.8555 C 71.875 -26.8555 73.2422 -25.4395 73.2422 -23.1934 C 73.2422 -20.9473 71.9238 -19.6289 69.6777 -19.6289 L 65.8691 -19.6289 L 65.8691 -11.7676 C 65.8691 -9.27734 64.502 -7.56836 61.9629 -7.56836 Z M 98.584 -7.4707 C 87.3535 -7.4707 79.7852 -13.8184 79.7852 -23.2422 C 79.7852 -29.8828 83.9844 -35.2051 90.7227 -36.5723 L 90.7227 -37.0117 C 85.0098 -38.6719 81.7383 -43.2129 81.7383 -48.877 C 81.7383 -57.2754 88.7207 -63.0859 98.6816 -63.0859 C 108.594 -63.0859 115.625 -57.2754 115.625 -48.877 C 115.625 -43.2129 112.305 -38.5254 106.641 -37.0117 L 106.641 -36.5723 C 113.379 -35.2051 117.578 -29.8828 117.578 -23.291 C 117.578 -13.8672 109.814 -7.4707 98.584 -7.4707 Z M 98.6816 -39.7949 C 103.906 -39.7949 107.52 -43.3105 107.52 -48.1445 C 107.52 -52.9785 103.906 -56.3477 98.6816 -56.3477 C 93.457 -56.3477 89.7949 -52.9785 89.7949 -48.1445 C 89.7949 -43.3105 93.457 -39.7949 98.6816 -39.7949 Z M 58.1055 -26.8066 L 58.1055 -54.541 L 57.8125 -54.541 C 53.2227 -46.6309 45.7031 -33.8379 42.1387 -27.0996 L 42.1387 -26.8066 Z M 98.7305 -14.209 C 104.932 -14.209 109.424 -18.1641 109.424 -23.7305 C 109.424 -29.248 104.98 -33.252 98.7305 -33.252 C 92.4805 -33.252 87.9883 -29.248 87.9883 -23.7305 C 87.9883 -18.1641 92.4805 -14.209 98.7305 -14.209 Z"/>
  </g>
  <g id="Regular-L" transform="matrix(1 0 0 1 1374.97 1556)">
   <path d="M 74.8535 28.3691 C 109.668 28.3691 138.477 -0.390625 138.477 -35.2051 C 138.477 -70.0195 109.619 -98.7793 74.8047 -98.7793 C 40.0391 -98.7793 11.2793 -70.0195 11.2793 -35.2051 C 11.2793 -0.390625 40.0879 28.3691 74.8535 28.3691 Z M 60.9863 -7.17773 C 58.7402 -7.17773 57.5195 -8.78906 57.5195 -11.0352 L 57.5195 -19.6777 L 37.3047 -19.6777 C 34.2773 -19.6777 32.2266 -21.4844 32.2266 -24.6582 C 32.2266 -26.2207 32.5684 -27.4902 33.5449 -29.248 C 38.0859 -37.1094 46.0449 -50.1465 51.4648 -59.1309 C 53.4668 -62.3047 55.4688 -63.5254 58.7891 -63.5254 C 62.207 -63.5254 64.5508 -61.377 64.5508 -58.1055 L 64.5508 -26.1719 L 68.9453 -26.1719 C 70.9473 -26.1719 72.2168 -24.9512 72.2168 -22.9004 C 72.2168 -20.8496 70.9961 -19.6777 68.9453 -19.6777 L 64.5508 -19.6777 L 64.5508 -11.0352 C 64.5508 -8.74023 63.3301 -7.17773 60.9863 -7.17773 Z M 98.2422 -6.98242 C 86.9141 -6.98242 79.1992 -13.4766 79.1992 -22.998 C 79.1992 -29.6875 83.4961 -35.2539 90.4785 -36.6211 L 90.4785 -37.0117 C 84.4727 -38.8184 81.2012 -43.457 81.2012 -49.1211 C 81.2012 -57.6172 88.3301 -63.5254 98.3398 -63.5254 C 108.301 -63.5254 115.43 -57.6172 115.43 -49.1211 C 115.43 -43.457 112.109 -38.623 106.152 -37.0117 L 106.152 -36.6211 C 113.135 -35.2539 117.383 -29.7363 117.383 -23.0469 C 117.383 -13.5742 109.521 -6.98242 98.2422 -6.98242 Z M 98.3398 -39.4043 C 104.053 -39.4043 108.057 -43.2617 108.057 -48.5352 C 108.057 -53.8086 104.053 -57.4707 98.3398 -57.4707 C 92.5293 -57.4707 88.5742 -53.8086 88.5742 -48.5352 C 88.5742 -43.2617 92.5781 -39.4043 98.3398 -39.4043 Z M 57.5195 -26.1719 L 57.5195 -55.7129 L 57.2266 -55.7129 C 52.1973 -47.3633 43.7012 -33.6426 39.8438 -26.4648 L 39.8438 -26.1719 Z M 98.3887 -13.0859 C 105.176 -13.0859 110.156 -17.334 110.156 -23.4375 C 110.156 -29.4434 105.273 -33.7402 98.3887 -33.7402 C 91.5039 -33.7402 86.5234 -29.3945 86.5234 -23.4375 C 86.5234 -17.334 91.5039 -13.0859 98.3887 -13.0859 Z"/>
  </g>
  <g id="Light-L" transform="matrix(1 0 0 1 1079.18 1556)">
   <path d="M 73.9258 27.4902 C 108.301 27.4902 136.621 -0.830078 136.621 -35.1562 C 136.621 -69.5312 108.252 -97.8516 73.9258 -97.8516 C 39.5508 -97.8516 11.2793 -69.5312 11.2793 -35.1562 C 11.2793 -0.830078 39.5996 27.4902 73.9258 27.4902 Z M 60.0586 -7.56836 C 58.3008 -7.56836 57.2754 -8.83789 57.2754 -10.5957 L 57.2754 -20.459 L 35.8398 -20.459 C 33.3008 -20.459 31.543 -21.9238 31.543 -24.5605 C 31.543 -25.7324 31.8848 -26.8555 32.6172 -28.1738 C 37.3535 -35.8887 46.9727 -51.123 52.3926 -59.668 C 54.0527 -62.2559 55.6641 -63.2324 58.3008 -63.2324 C 61.0352 -63.2324 62.9395 -61.5234 62.9395 -58.8379 L 62.9395 -25.7812 L 68.457 -25.7812 C 70.0684 -25.7812 71.0938 -24.7559 71.0938 -23.0957 C 71.0938 -21.4355 70.1172 -20.459 68.457 -20.459 L 62.9395 -20.459 L 62.9395 -10.5957 C 62.9395 -8.78906 61.9629 -7.56836 60.0586 -7.56836 Z M 97.2168 -7.32422 C 86.1328 -7.32422 78.3691 -13.7695 78.3691 -23.1445 C 78.3691 -29.7363 82.8613 -35.3027 89.6484 -36.6211 L 89.6484 -37.0117 C 83.8379 -38.7207 80.3711 -43.4082 80.3711 -48.9746 C 80.3711 -57.373 87.4512 -63.2324 97.3145 -63.2324 C 107.08 -63.2324 114.209 -57.373 114.209 -48.9746 C 114.209 -43.4082 110.645 -38.5742 104.883 -37.0117 L 104.883 -36.6211 C 111.67 -35.3027 116.162 -29.7852 116.162 -23.1934 C 116.162 -13.8672 108.301 -7.32422 97.2168 -7.32422 Z M 97.3145 -39.0137 C 103.711 -39.0137 108.252 -43.0664 108.252 -48.6328 C 108.252 -54.2969 103.76 -58.2031 97.3145 -58.2031 C 90.7715 -58.2031 86.3281 -54.2969 86.3281 -48.6328 C 86.3281 -43.0664 90.8203 -39.0137 97.3145 -39.0137 Z M 57.2754 -25.7812 L 57.2754 -56.8359 L 57.0312 -56.8359 C 52.2949 -49.4141 41.5527 -32.7148 37.793 -25.9766 L 37.793 -25.7812 Z M 97.3145 -12.3535 C 104.932 -12.3535 110.449 -16.9434 110.449 -23.3887 C 110.449 -29.6875 104.98 -34.2285 97.3145 -34.2285 C 89.6484 -34.2285 84.1797 -29.6387 84.1797 -23.3887 C 84.1797 -16.9434 89.6484 -12.3535 97.3145 -12.3535 Z"/>
  </g>
  <g id="Thin-L" transform="matrix(1 0 0 1 783.693 1556)">
   <path d="M 72.7051 26.3184 C 106.494 26.3184 134.18 -1.36719 134.18 -35.1074 C 134.18 -68.8965 106.494 -96.582 72.7051 -96.582 C 38.9648 -96.582 11.2793 -68.8965 11.2793 -35.1074 C 11.2793 -1.36719 38.9648 26.3184 72.7051 26.3184 Z M 58.8867 -8.10547 C 57.7637 -8.10547 56.9824 -8.88672 56.9824 -10.0586 L 56.9824 -21.4844 L 33.8867 -21.4844 C 31.9824 -21.4844 30.6641 -22.5098 30.6641 -24.3652 C 30.6641 -25.1465 30.9082 -26.0254 31.3965 -26.709 C 36.377 -34.3262 48.2422 -52.4414 53.5645 -60.4004 C 54.834 -62.207 55.9082 -62.793 57.666 -62.793 C 59.5215 -62.793 60.8398 -61.6699 60.8398 -59.8633 L 60.8398 -25.1953 L 67.8223 -25.1953 C 68.9453 -25.1953 69.6289 -24.4141 69.6289 -23.291 C 69.6289 -22.2168 68.9941 -21.4844 67.8223 -21.4844 L 60.8398 -21.4844 L 60.8398 -10.0586 C 60.8398 -8.88672 60.1562 -8.10547 58.8867 -8.10547 Z M 95.8984 -7.71484 C 85.0586 -7.71484 77.2949 -14.1602 77.2949 -23.3398 C 77.2949 -29.7852 82.0312 -35.3516 88.5254 -36.6211 L 88.5254 -36.9629 C 83.0078 -38.6719 79.2969 -43.4082 79.2969 -48.8281 C 79.2969 -57.0801 86.2793 -62.793 95.8984 -62.793 C 105.469 -62.793 112.549 -57.0801 112.549 -48.8281 C 112.549 -43.4082 108.691 -38.5254 103.223 -36.9629 L 103.223 -36.6211 C 109.814 -35.3516 114.551 -29.7852 114.551 -23.3398 C 114.551 -14.2578 106.592 -7.71484 95.8984 -7.71484 Z M 95.8984 -38.4766 C 103.32 -38.4766 108.447 -42.8223 108.447 -48.8281 C 108.447 -54.9805 103.369 -59.2285 95.8984 -59.2285 C 88.3789 -59.2285 83.3008 -54.9805 83.3008 -48.8281 C 83.3008 -42.8223 88.4766 -38.4766 95.8984 -38.4766 Z M 56.9824 -25.1953 L 56.9824 -58.3496 L 56.7871 -58.3496 C 52.4902 -52.0996 38.7207 -31.543 35.0586 -25.3906 L 35.0586 -25.1953 Z M 95.9473 -11.3281 C 104.59 -11.3281 110.84 -16.3574 110.84 -23.291 C 110.84 -30.0293 104.59 -34.9121 95.9473 -34.9121 C 87.207 -34.9121 81.0059 -30.0293 81.0059 -23.291 C 81.0059 -16.3574 87.207 -11.3281 95.9473 -11.3281 Z"/>
  </g>
  <g id="Ultralight-L" transform="matrix(1 0 0 1 487.616 1556)">
   <path d="M 72.1191 25.7324 C 105.566 25.7324 132.91 -1.61133 132.91 -35.1074 C 132.91 -68.5547 105.566 -95.8984 72.1191 -95.8984 C 38.623 -95.8984 11.2793 -68.5547 11.2793 -35.1074 C 11.2793 -1.61133 38.623 25.7324 72.1191 25.7324 Z M 58.252 -8.39844 C 57.4707 -8.39844 56.7871 -8.88672 56.7871 -9.81445 L 56.7871 -22.0215 L 32.9102 -22.0215 C 31.2988 -22.0215 30.1758 -22.8027 30.1758 -24.2676 C 30.1758 -24.8047 30.4199 -25.5859 30.7617 -25.9766 C 35.8887 -33.4961 48.9258 -53.125 54.1992 -60.791 C 55.2246 -62.207 56.0547 -62.5977 57.373 -62.5977 C 58.7402 -62.5977 59.7168 -61.7676 59.7168 -60.3516 L 59.7168 -24.9023 L 67.4805 -24.9023 C 68.3105 -24.9023 68.8965 -24.2676 68.8965 -23.4375 C 68.8965 -22.6074 68.4082 -22.0215 67.4805 -22.0215 L 59.7168 -22.0215 L 59.7168 -9.81445 C 59.7168 -8.88672 59.2285 -8.39844 58.252 -8.39844 Z M 95.2148 -7.95898 C 84.5215 -7.95898 76.709 -14.3555 76.709 -23.3887 C 76.709 -29.834 81.5918 -35.3516 87.9883 -36.6211 L 87.9883 -36.9629 C 82.5684 -38.623 78.7109 -43.4082 78.7109 -48.7305 C 78.7109 -56.8848 85.6934 -62.5977 95.2148 -62.5977 C 104.639 -62.5977 111.719 -56.8848 111.719 -48.7305 C 111.719 -43.4082 107.715 -38.4766 102.393 -36.9629 L 102.393 -36.6211 C 108.838 -35.3516 113.721 -29.7852 113.721 -23.3887 C 113.721 -14.4531 105.762 -7.95898 95.2148 -7.95898 Z M 95.2148 -38.1836 C 103.076 -38.1836 108.545 -42.6758 108.545 -48.9258 C 108.545 -55.2734 103.174 -59.7168 95.2148 -59.7168 C 87.1582 -59.7168 81.7871 -55.2734 81.7871 -48.9258 C 81.7871 -42.6758 87.2559 -38.1836 95.2148 -38.1836 Z M 56.7871 -24.9023 L 56.7871 -59.1309 L 56.6406 -59.1309 C 52.5879 -53.4668 37.2559 -30.957 33.6914 -25.0488 L 33.6914 -24.9023 Z M 95.2148 -10.8398 C 104.395 -10.8398 110.986 -16.0645 110.986 -23.291 C 110.986 -30.2246 104.395 -35.2539 95.2148 -35.2539 C 85.9375 -35.2539 79.4434 -30.2246 79.4434 -23.291 C 79.4434 -16.0645 85.9375 -10.8398 95.2148 -10.8398 Z"/>
  </g>
  <g id="Black-M" transform="matrix(1 0 0 1 2870.97 1126)">
   <path d="M 62.4023 18.457 C 91.9922 18.457 116.113 -5.61523 116.113 -35.2051 C 116.113 -64.7949 91.9922 -88.8672 62.4023 -88.8672 C 32.8125 -88.8672 8.74023 -64.7949 8.74023 -35.2051 C 8.74023 -5.61523 32.8125 18.457 62.4023 18.457 Z M 52.5879 -16.2109 C 49.9023 -16.2109 48.0957 -18.0176 48.0957 -20.6543 L 48.0957 -22.998 L 40.332 -22.998 C 36.1816 -22.998 34.0332 -25.2441 34.0332 -29.1504 C 34.0332 -31.5918 34.7656 -33.8379 35.3516 -35.8398 C 36.2793 -38.9648 38.4277 -44.5801 40.2344 -48.291 C 42.1875 -52.3926 44.873 -54.2969 49.5117 -54.2969 C 54.7852 -54.2969 57.2266 -51.2207 57.2266 -46.1426 L 57.2266 -31.8848 L 57.6172 -31.8848 C 60.2539 -31.8848 61.6699 -30.0781 61.6699 -27.3926 C 61.6699 -24.7559 60.2539 -23.1445 57.6172 -23.1445 L 57.2266 -23.1445 L 57.2266 -20.6543 C 57.2266 -18.0176 55.3223 -16.2109 52.5879 -16.2109 Z M 77.8809 -16.2109 C 69.7266 -16.2109 64.3066 -20.5566 64.3066 -27.0508 C 64.3066 -31.9336 67.3828 -34.9609 71.1914 -36.084 L 71.1914 -36.5234 C 68.3594 -37.1582 65.6738 -40.2344 65.6738 -44.3359 C 65.6738 -50.3418 70.5078 -54.2969 77.8809 -54.2969 C 85.1562 -54.2969 89.9902 -50.3418 89.9902 -44.3359 C 89.9902 -40.2344 87.3047 -37.1582 84.5215 -36.5234 L 84.5215 -36.084 C 88.3789 -34.9609 91.3574 -31.9336 91.3574 -27.0508 C 91.3574 -20.5566 85.9375 -16.2109 77.8809 -16.2109 Z M 77.8809 -40.5273 C 79.5898 -40.5273 80.6152 -41.6992 80.6152 -43.2617 C 80.6152 -44.8242 79.4922 -46.0449 77.8809 -46.0449 C 76.1719 -46.0449 75.0977 -44.8242 75.0977 -43.2617 C 75.0977 -41.6992 76.123 -40.5273 77.8809 -40.5273 Z M 48.0957 -31.7871 L 48.0957 -44.7266 L 47.9492 -44.7266 C 46.7285 -41.3086 44.7266 -34.8633 43.75 -31.9824 L 43.75 -31.7871 Z M 77.8809 -24.6094 C 79.7363 -24.6094 81.0059 -26.0742 81.0059 -27.9297 C 81.0059 -29.8828 79.7363 -31.3477 77.8809 -31.3477 C 75.9277 -31.3477 74.6582 -29.8828 74.6582 -27.9297 C 74.6582 -26.0742 75.9277 -24.6094 77.8809 -24.6094 Z"/>
  </g>
  <g id="Heavy-M" transform="matrix(1 0 0 1 2575.19 1126)">
   <path d="M 61.5234 17.5781 C 90.5273 17.5781 114.258 -6.15234 114.258 -35.2051 C 114.258 -64.2578 90.5273 -87.9883 61.4746 -87.9883 C 32.4707 -87.9883 8.74023 -64.2578 8.74023 -35.2051 C 8.74023 -6.15234 32.4707 17.5781 61.5234 17.5781 Z M 51.4648 -15.5273 C 48.9258 -15.5273 47.2656 -17.2363 47.2656 -19.7266 L 47.2656 -22.9492 L 37.8418 -22.9492 C 34.0332 -22.9492 31.9824 -25.0488 31.9824 -28.6621 C 31.9824 -30.8594 32.6172 -32.8613 33.252 -34.7656 C 34.8145 -38.5742 37.6465 -44.9707 40.0391 -49.5117 C 41.9434 -53.2715 44.3848 -55.0293 48.6328 -55.0293 C 53.3691 -55.0293 55.7617 -52.2461 55.7617 -47.6562 L 55.7617 -31.1035 L 56.6895 -31.1035 C 59.1309 -31.1035 60.498 -29.4434 60.498 -26.9531 C 60.498 -24.5117 59.1309 -23.0469 56.6895 -23.0469 L 55.7617 -23.0469 L 55.7617 -19.7266 C 55.7617 -17.2363 54.0527 -15.5273 51.4648 -15.5273 Z M 77.5879 -15.4785 C 69.2871 -15.4785 63.7207 -20.0195 63.7207 -26.7578 C 63.7207 -31.6895 66.8457 -35.0098 71.0449 -36.1328 L 71.0449 -36.5234 C 67.7734 -37.3535 65.1367 -40.5273 65.1367 -44.7266 C 65.1367 -50.9277 70.166 -55.0293 77.5879 -55.0293 C 85.0098 -55.0293 90.0391 -50.9277 90.0391 -44.7266 C 90.0391 -40.5273 87.4023 -37.3535 84.1797 -36.5234 L 84.1797 -36.1328 C 88.3789 -35.0098 91.4062 -31.6895 91.4062 -26.7578 C 91.4062 -20.0195 85.8887 -15.4785 77.5879 -15.4785 Z M 77.5879 -40.0879 C 79.8828 -40.0879 81.2988 -41.6504 81.2988 -43.75 C 81.2988 -45.8984 79.834 -47.4609 77.5879 -47.4609 C 75.3418 -47.4609 73.877 -45.8984 73.877 -43.75 C 73.877 -41.6504 75.293 -40.0879 77.5879 -40.0879 Z M 47.2656 -31.0059 L 47.2656 -46.0938 L 47.1191 -46.0938 C 45.2148 -41.7969 42.4316 -34.7656 41.0156 -31.2012 L 41.0156 -31.0059 Z M 77.6367 -23.1934 C 80.1758 -23.1934 81.9824 -25 81.9824 -27.5391 C 81.9824 -30.0781 80.2246 -31.9336 77.6367 -31.9336 C 75 -31.9336 73.1934 -30.0293 73.1934 -27.5391 C 73.1934 -25 75 -23.1934 77.6367 -23.1934 Z"/>
  </g>
  <g id="Bold-M" transform="matrix(1 0 0 1 2279.5 1126)">
   <path d="M 60.498 16.5039 C 88.8672 16.5039 112.207 -6.78711 112.207 -35.2051 C 112.207 -63.623 88.8672 -86.9629 60.4492 -86.9629 C 32.0312 -86.9629 8.74023 -63.623 8.74023 -35.2051 C 8.74023 -6.78711 32.0801 16.5039 60.498 16.5039 Z M 50.1953 -14.7461 C 47.8516 -14.7461 46.3867 -16.3574 46.3867 -18.6523 L 46.3867 -22.8516 L 35.0098 -22.8516 C 31.6406 -22.8516 29.7363 -24.8047 29.7363 -28.125 C 29.7363 -30.0293 30.2246 -31.7383 30.957 -33.5449 C 33.1055 -38.1836 36.7676 -45.4102 39.7949 -50.8789 C 41.6504 -54.2969 43.8477 -55.8105 47.7051 -55.8105 C 51.8066 -55.8105 54.1016 -53.3203 54.1016 -49.3164 L 54.1016 -30.1758 L 55.6641 -30.1758 C 57.8613 -30.1758 59.1309 -28.7598 59.1309 -26.5137 C 59.1309 -24.2676 57.8613 -22.9492 55.6641 -22.9492 L 54.1016 -22.9492 L 54.1016 -18.6523 C 54.1016 -16.3574 52.5879 -14.7461 50.1953 -14.7461 Z M 77.2949 -14.6973 C 68.75 -14.6973 63.0859 -19.3848 63.0859 -26.3672 C 63.0859 -31.4453 66.2109 -35.1074 70.8984 -36.1816 L 70.8984 -36.5723 C 67.0898 -37.5977 64.5508 -40.918 64.5508 -45.2148 C 64.5508 -51.5137 69.7266 -55.8105 77.3438 -55.8105 C 84.8633 -55.8105 90.0879 -51.5137 90.0879 -45.2148 C 90.0879 -40.918 87.5 -37.5488 83.7402 -36.5723 L 83.7402 -36.1816 C 88.4277 -35.1074 91.5039 -31.4453 91.5039 -26.416 C 91.5039 -19.4336 85.791 -14.6973 77.2949 -14.6973 Z M 77.3438 -39.5996 C 80.1758 -39.5996 82.1289 -41.6016 82.1289 -44.3359 C 82.1289 -47.0703 80.1758 -49.0234 77.3438 -49.0234 C 74.4629 -49.0234 72.5098 -47.0703 72.5098 -44.3359 C 72.5098 -41.6016 74.4141 -39.5996 77.3438 -39.5996 Z M 46.3867 -30.127 L 46.3867 -47.6074 L 46.1914 -47.6074 C 43.5547 -42.3828 39.8926 -34.668 37.8906 -30.3223 L 37.8906 -30.127 Z M 77.3438 -21.5332 C 80.7129 -21.5332 83.1055 -23.8281 83.1055 -27.0508 C 83.1055 -30.2246 80.7617 -32.5684 77.3438 -32.5684 C 73.9258 -32.5684 71.5332 -30.2246 71.5332 -27.0508 C 71.5332 -23.8281 73.9258 -21.5332 77.3438 -21.5332 Z"/>
  </g>
  <g id="Semibold-M" transform="matrix(1 0 0 1 1983.5 1126)">
   <path d="M 59.7656 15.8203 C 87.7441 15.8203 110.791 -7.22656 110.791 -35.2051 C 110.791 -63.1836 87.6953 -86.2793 59.7656 -86.2793 C 31.7871 -86.2793 8.74023 -63.1836 8.74023 -35.2051 C 8.74023 -7.22656 31.7871 15.8203 59.7656 15.8203 Z M 49.3164 -14.209 C 47.0703 -14.209 45.8008 -15.7715 45.8008 -17.9688 L 45.8008 -22.8027 L 33.1055 -22.8027 C 30.0293 -22.8027 28.125 -24.6582 28.125 -27.7832 C 28.125 -29.4922 28.5645 -30.957 29.3457 -32.7148 C 31.9824 -37.8906 36.1816 -45.7031 39.6484 -51.8066 C 41.4551 -55.0293 43.5059 -56.3965 47.0215 -56.3965 C 50.7324 -56.3965 52.9297 -54.1016 52.9297 -50.4883 L 52.9297 -29.541 L 54.9316 -29.541 C 56.9824 -29.541 58.2031 -28.2715 58.2031 -26.1719 C 58.2031 -24.0723 56.9824 -22.8516 54.9316 -22.8516 L 52.9297 -22.8516 L 52.9297 -17.9688 C 52.9297 -15.7227 51.6113 -14.209 49.3164 -14.209 Z M 77.0508 -14.1602 C 68.4082 -14.1602 62.6465 -18.9453 62.6465 -26.123 C 62.6465 -31.25 65.7715 -35.1562 70.752 -36.2305 L 70.752 -36.5723 C 66.6016 -37.7441 64.1113 -41.1621 64.1113 -45.5078 C 64.1113 -51.9531 69.4336 -56.3965 77.1484 -56.3965 C 84.8145 -56.3965 90.0879 -51.9531 90.0879 -45.5078 C 90.0879 -41.1621 87.5488 -37.6465 83.4961 -36.5723 L 83.4961 -36.2305 C 88.4277 -35.1562 91.5527 -31.25 91.5527 -26.1719 C 91.5527 -18.9941 85.6934 -14.1602 77.0508 -14.1602 Z M 77.1484 -39.3066 C 80.4199 -39.3066 82.666 -41.6016 82.666 -44.7754 C 82.666 -47.9004 80.4199 -50.0977 77.1484 -50.0977 C 73.8281 -50.0977 71.5332 -47.9004 71.5332 -44.7754 C 71.5332 -41.6016 73.8281 -39.3066 77.1484 -39.3066 Z M 45.8008 -29.541 L 45.8008 -48.6328 L 45.5566 -48.6328 C 42.3828 -42.7734 38.1348 -34.6191 35.791 -29.7363 L 35.791 -29.541 Z M 77.1484 -20.459 C 81.0547 -20.459 83.8867 -23.0469 83.8867 -26.709 C 83.8867 -30.3711 81.1035 -33.0078 77.1484 -33.0078 C 73.2422 -33.0078 70.4102 -30.3223 70.4102 -26.709 C 70.4102 -23.0469 73.2422 -20.459 77.1484 -20.459 Z"/>
  </g>
  <g id="Medium-M" transform="matrix(1 0 0 1 1687.3 1126)">
   <path d="M 59.2285 15.2832 C 86.9141 15.2832 109.766 -7.56836 109.766 -35.2051 C 109.766 -62.8906 86.8652 -85.7422 59.1797 -85.7422 C 31.543 -85.7422 8.74023 -62.8906 8.74023 -35.2051 C 8.74023 -7.56836 31.5918 15.2832 59.2285 15.2832 Z M 48.6328 -13.7695 C 46.4844 -13.7695 45.3125 -15.332 45.3125 -17.4316 L 45.3125 -22.8027 L 31.6406 -22.8027 C 28.7598 -22.8027 26.9531 -24.5117 26.9531 -27.4902 C 26.9531 -29.0527 27.2949 -30.3711 28.125 -32.0312 C 31.1035 -37.6465 35.7422 -45.8984 39.5508 -52.4902 C 41.2598 -55.5176 43.2129 -56.7871 46.4844 -56.7871 C 49.9023 -56.7871 52.0508 -54.6875 52.0508 -51.3672 L 52.0508 -29.1016 L 54.3945 -29.1016 C 56.3477 -29.1016 57.5195 -27.8809 57.5195 -25.9277 C 57.5195 -23.9746 56.3477 -22.8027 54.3945 -22.8027 L 52.0508 -22.8027 L 52.0508 -17.4316 C 52.0508 -15.2832 50.8789 -13.7695 48.6328 -13.7695 Z M 76.9043 -13.7207 C 68.1641 -13.7207 62.3047 -18.6523 62.3047 -25.9277 C 62.3047 -31.1035 65.4785 -35.1562 70.7031 -36.2793 L 70.7031 -36.6211 C 66.2598 -37.8906 63.8184 -41.3574 63.8184 -45.752 C 63.8184 -52.2949 69.2383 -56.7871 77.002 -56.7871 C 84.7168 -56.7871 90.1367 -52.2949 90.1367 -45.752 C 90.1367 -41.3574 87.6465 -37.793 83.252 -36.6211 L 83.252 -36.2793 C 88.4277 -35.1562 91.6016 -31.1523 91.6016 -25.9766 C 91.6016 -18.7012 85.6445 -13.7207 76.9043 -13.7207 Z M 77.002 -39.0137 C 80.5664 -39.0137 83.1055 -41.5527 83.1055 -45.0684 C 83.1055 -48.5352 80.5664 -50.9277 77.002 -50.9277 C 73.3398 -50.9277 70.8496 -48.5352 70.8496 -45.0684 C 70.8496 -41.5527 73.3398 -39.0137 77.002 -39.0137 Z M 45.3125 -29.0527 L 45.3125 -49.4141 L 45.0684 -49.4141 C 41.5039 -43.0664 36.8164 -34.5703 34.1309 -29.2969 L 34.1309 -29.0527 Z M 77.002 -19.5801 C 81.2988 -19.5801 84.4727 -22.4121 84.4727 -26.4648 C 84.4727 -30.4688 81.3965 -33.3496 77.002 -33.3496 C 72.6562 -33.3496 69.5312 -30.4199 69.5312 -26.4648 C 69.5312 -22.4121 72.6562 -19.5801 77.002 -19.5801 Z"/>
  </g>
  <g id="Regular-M" transform="matrix(1 0 0 1 1391.3 1126)">
   <path d="M 58.5449 14.5508 C 85.791 14.5508 108.35 -8.00781 108.35 -35.2539 C 108.35 -62.4512 85.7422 -85.0586 58.4961 -85.0586 C 31.2988 -85.0586 8.74023 -62.4512 8.74023 -35.2539 C 8.74023 -8.00781 31.3477 14.5508 58.5449 14.5508 Z M 47.7539 -13.2324 C 45.752 -13.2324 44.7266 -14.6973 44.7266 -16.6992 L 44.7266 -22.7539 L 29.7363 -22.7539 C 27.1484 -22.7539 25.3906 -24.3652 25.3906 -27.1484 C 25.3906 -28.5156 25.6836 -29.6387 26.5137 -31.2012 C 29.9316 -37.3535 35.1074 -46.1914 39.4043 -53.418 C 41.0645 -56.25 42.8711 -57.3242 45.8496 -57.3242 C 48.8281 -57.3242 50.9277 -55.4199 50.9277 -52.5391 L 50.9277 -28.4668 L 53.7109 -28.4668 C 55.4688 -28.4668 56.5918 -27.4414 56.5918 -25.5859 C 56.5918 -23.7793 55.4688 -22.7539 53.7109 -22.7539 L 50.9277 -22.7539 L 50.9277 -16.6992 C 50.9277 -14.6484 49.8535 -13.2324 47.7539 -13.2324 Z M 76.709 -13.1836 C 67.8223 -13.1836 61.8652 -18.2129 61.8652 -25.6836 C 61.8652 -30.9082 65.0391 -35.2051 70.5566 -36.3281 L 70.5566 -36.6211 C 65.8203 -38.0371 63.4277 -41.6016 63.4277 -46.0938 C 63.4277 -52.7344 68.9453 -57.3242 76.8066 -57.3242 C 84.6191 -57.3242 90.1855 -52.7344 90.1855 -46.0938 C 90.1855 -41.6016 87.6953 -37.8906 83.0078 -36.6211 L 83.0078 -36.3281 C 88.4766 -35.2051 91.6504 -30.957 91.6504 -25.7324 C 91.6504 -18.2617 85.5957 -13.1836 76.709 -13.1836 Z M 76.8066 -38.7207 C 80.8105 -38.7207 83.6426 -41.5527 83.6426 -45.459 C 83.6426 -49.3164 80.8105 -52.002 76.8066 -52.002 C 72.7539 -52.002 69.9219 -49.3164 69.9219 -45.459 C 69.9219 -41.5527 72.7539 -38.7207 76.8066 -38.7207 Z M 44.7266 -28.4668 L 44.7266 -50.4395 L 44.4336 -50.4395 C 40.3809 -43.457 35.1074 -34.4727 32.0312 -28.7109 L 32.0312 -28.4668 Z M 76.8555 -18.5059 C 81.6406 -18.5059 85.2051 -21.6309 85.2051 -26.123 C 85.2051 -30.5664 81.7383 -33.7891 76.8555 -33.7891 C 71.9727 -33.7891 68.4082 -30.5176 68.4082 -26.123 C 68.4082 -21.6309 71.9727 -18.5059 76.8555 -18.5059 Z"/>
  </g>
  <g id="Light-M" transform="matrix(1 0 0 1 1095.42 1126)">
   <path d="M 57.7148 13.7695 C 84.5215 13.7695 106.689 -8.39844 106.689 -35.2051 C 106.689 -62.0117 84.5215 -84.1797 57.666 -84.1797 C 30.8594 -84.1797 8.74023 -62.0117 8.74023 -35.2051 C 8.74023 -8.39844 30.9082 13.7695 57.7148 13.7695 Z M 46.9727 -13.623 C 45.3613 -13.623 44.4824 -14.7461 44.4824 -16.3574 L 44.4824 -23.4375 L 28.418 -23.4375 C 26.2695 -23.4375 24.7559 -24.7559 24.7559 -27.002 C 24.7559 -28.0762 25 -29.0527 25.6836 -30.2246 C 29.2969 -36.2793 35.9863 -47.1191 40.1855 -53.9062 C 41.6016 -56.2012 43.0176 -57.0801 45.4102 -57.0801 C 47.8027 -57.0801 49.5117 -55.5176 49.5117 -53.1738 L 49.5117 -28.0762 L 53.2715 -28.0762 C 54.6875 -28.0762 55.6152 -27.1973 55.6152 -25.7324 C 55.6152 -24.2676 54.7363 -23.4375 53.2715 -23.4375 L 49.5117 -23.4375 L 49.5117 -16.3574 C 49.5117 -14.6973 48.6328 -13.623 46.9727 -13.623 Z M 75.7812 -13.4766 C 67.0898 -13.4766 61.1328 -18.457 61.1328 -25.8301 C 61.1328 -30.957 64.502 -35.2539 69.8242 -36.3281 L 69.8242 -36.6211 C 65.2344 -37.9883 62.6465 -41.6016 62.6465 -45.9473 C 62.6465 -52.4902 68.1641 -57.0801 75.8789 -57.0801 C 83.5449 -57.0801 89.0625 -52.4902 89.0625 -45.9473 C 89.0625 -41.6016 86.377 -37.8418 81.8359 -36.6211 L 81.8359 -36.3281 C 87.207 -35.2539 90.5762 -31.0059 90.5762 -25.8301 C 90.5762 -18.5547 84.4727 -13.4766 75.7812 -13.4766 Z M 75.8789 -38.3301 C 80.5176 -38.3301 83.7891 -41.3574 83.7891 -45.5566 C 83.7891 -49.8047 80.5664 -52.6855 75.8789 -52.6855 C 71.1426 -52.6855 67.8711 -49.8047 67.8711 -45.5566 C 67.8711 -41.3574 71.1426 -38.3301 75.8789 -38.3301 Z M 44.4824 -28.0762 L 44.4824 -51.4648 L 44.2871 -51.4648 C 40.4785 -45.3125 33.1543 -33.6914 30.2246 -28.2715 L 30.2246 -28.0762 Z M 75.8789 -17.8223 C 81.4453 -17.8223 85.498 -21.2402 85.498 -26.0742 C 85.498 -30.8105 81.4941 -34.2285 75.8789 -34.2285 C 70.3125 -34.2285 66.2598 -30.8105 66.2598 -26.0742 C 66.2598 -21.2402 70.3125 -17.8223 75.8789 -17.8223 Z"/>
  </g>
  <g id="Thin-M" transform="matrix(1 0 0 1 799.806 1126)">
   <path d="M 56.6406 12.7441 C 82.9102 12.7441 104.492 -8.83789 104.492 -35.1562 C 104.492 -61.4746 82.9102 -83.0566 56.5918 -83.0566 C 30.3223 -83.0566 8.74023 -61.4746 8.74023 -35.1562 C 8.74023 -8.83789 30.3223 12.7441 56.6406 12.7441 Z M 45.8984 -14.1113 C 44.873 -14.1113 44.1895 -14.7949 44.1895 -15.8691 L 44.1895 -24.3652 L 26.709 -24.3652 C 25.0488 -24.3652 23.9746 -25.2441 23.9746 -26.8555 C 23.9746 -27.5391 24.1699 -28.2715 24.6094 -28.9551 C 28.418 -34.8633 37.1094 -48.291 41.2598 -54.5898 C 42.334 -56.1523 43.2617 -56.6895 44.8242 -56.6895 C 46.4844 -56.6895 47.6074 -55.7129 47.6074 -54.1016 L 47.6074 -27.5879 L 52.6855 -27.5879 C 53.6621 -27.5879 54.2969 -26.9043 54.2969 -25.9277 C 54.2969 -24.9512 53.7109 -24.3652 52.6855 -24.3652 L 47.6074 -24.3652 L 47.6074 -15.8691 C 47.6074 -14.7949 47.0215 -14.1113 45.8984 -14.1113 Z M 74.6094 -13.8184 C 66.1621 -13.8184 60.1074 -18.8477 60.1074 -25.9766 C 60.1074 -31.0059 63.7695 -35.3027 68.8477 -36.3281 L 68.8477 -36.5723 C 64.502 -37.8906 61.6699 -41.5527 61.6699 -45.8008 C 61.6699 -52.2461 67.1387 -56.6895 74.6094 -56.6895 C 82.0801 -56.6895 87.5977 -52.2461 87.5977 -45.8008 C 87.5977 -41.5527 84.668 -37.793 80.3711 -36.5723 L 80.3711 -36.3281 C 85.498 -35.3027 89.1113 -31.0059 89.1113 -25.9766 C 89.1113 -18.8965 83.0078 -13.8184 74.6094 -13.8184 Z M 74.6094 -37.8418 C 80.1758 -37.8418 83.9844 -41.1621 83.9844 -45.7031 C 83.9844 -50.3906 80.2246 -53.6133 74.6094 -53.6133 C 68.9941 -53.6133 65.2344 -50.3906 65.2344 -45.7031 C 65.2344 -41.1621 69.043 -37.8418 74.6094 -37.8418 Z M 44.1895 -27.5879 L 44.1895 -52.832 L 44.043 -52.832 C 40.625 -47.7051 30.6152 -32.6172 27.7832 -27.7344 L 27.7832 -27.5879 Z M 74.6582 -16.9434 C 81.1035 -16.9434 85.791 -20.7031 85.791 -26.0254 C 85.791 -31.1035 81.1523 -34.8633 74.6582 -34.8633 C 68.1152 -34.8633 63.4766 -31.1035 63.4766 -26.0254 C 63.4766 -20.7031 68.1152 -16.9434 74.6582 -16.9434 Z"/>
  </g>
  <g id="Ultralight-M" transform="matrix(1 0 0 1 503.656 1126)">
   <path d="M 56.0547 12.207 C 82.0801 12.207 103.369 -9.08203 103.369 -35.1562 C 103.369 -61.1816 82.0801 -82.4707 56.0547 -82.4707 C 30.0293 -82.4707 8.74023 -61.1816 8.74023 -35.1562 C 8.74023 -9.08203 30.0293 12.207 56.0547 12.207 Z M 45.3613 -14.3555 C 44.6289 -14.3555 44.043 -14.8438 44.043 -15.625 L 44.043 -24.8047 L 25.8301 -24.8047 C 24.4629 -24.8047 23.5352 -25.4883 23.5352 -26.7578 C 23.5352 -27.2461 23.7305 -27.8809 24.0234 -28.2715 C 27.9785 -34.1309 37.6953 -48.877 41.7969 -54.9316 C 42.6758 -56.1523 43.4082 -56.4941 44.5312 -56.4941 C 45.752 -56.4941 46.6309 -55.7617 46.6309 -54.541 L 46.6309 -27.3438 L 52.3926 -27.3438 C 53.125 -27.3438 53.6133 -26.7578 53.6133 -26.0254 C 53.6133 -25.293 53.1738 -24.8047 52.3926 -24.8047 L 46.6309 -24.8047 L 46.6309 -15.625 C 46.6309 -14.8438 46.1914 -14.3555 45.3613 -14.3555 Z M 74.0234 -14.0137 C 65.6738 -14.0137 59.6191 -18.9941 59.6191 -26.0254 C 59.6191 -31.0059 63.3789 -35.3027 68.3594 -36.3281 L 68.3594 -36.5723 C 64.1113 -37.8906 61.1816 -41.5527 61.1816 -45.7031 C 61.1816 -52.0996 66.6016 -56.4941 74.0234 -56.4941 C 81.3477 -56.4941 86.8164 -52.0996 86.8164 -45.7031 C 86.8164 -41.5527 83.7891 -37.7441 79.5898 -36.5723 L 79.5898 -36.3281 C 84.6191 -35.3027 88.3789 -31.0059 88.3789 -26.0254 C 88.3789 -19.0918 82.2266 -14.0137 74.0234 -14.0137 Z M 74.0234 -37.5977 C 79.9805 -37.5977 84.082 -41.0645 84.082 -45.8008 C 84.082 -50.6836 80.0293 -54.0527 74.0234 -54.0527 C 67.9199 -54.0527 63.8672 -50.6836 63.8672 -45.8008 C 63.8672 -41.0645 67.9688 -37.5977 74.0234 -37.5977 Z M 44.043 -27.3438 L 44.043 -53.5156 L 43.9453 -53.5156 C 40.7227 -48.9258 29.3457 -32.0801 26.5137 -27.4414 L 26.5137 -27.3438 Z M 74.0234 -16.4551 C 80.957 -16.4551 85.9863 -20.459 85.9863 -25.9766 C 85.9863 -31.2988 80.957 -35.1562 74.0234 -35.1562 C 66.9922 -35.1562 62.0117 -31.2988 62.0117 -25.9766 C 62.0117 -20.459 66.9922 -16.4551 74.0234 -16.4551 Z"/>
  </g>
  <g id="Black-S" transform="matrix(1 0 0 1 2884.57 696)">
   <path d="M 48.8281 6.78711 C 71.9727 6.78711 90.8203 -12.0605 90.8203 -35.2051 C 90.8203 -58.3496 71.9727 -77.1973 48.8281 -77.1973 C 25.6836 -77.1973 6.83594 -58.3496 6.83594 -35.2051 C 6.83594 -12.0605 25.6836 6.78711 48.8281 6.78711 Z M 41.1133 -20.2637 C 39.0137 -20.2637 37.5977 -21.6797 37.5977 -23.7305 L 37.5977 -25.6348 L 31.3965 -25.6348 C 28.1738 -25.6348 26.5137 -27.3926 26.5137 -30.4199 C 26.5137 -32.3242 27.0508 -34.082 27.5391 -35.6445 C 28.3203 -38.1348 30.0293 -42.5781 31.4941 -45.5566 C 33.0078 -48.7305 35.1074 -50.2441 38.7207 -50.2441 C 42.8223 -50.2441 44.7266 -47.8516 44.7266 -43.8965 L 44.7266 -32.5684 L 45.0684 -32.5684 C 47.1191 -32.5684 48.2422 -31.1523 48.2422 -29.0527 C 48.2422 -27.002 47.1191 -25.7324 45.0684 -25.7324 L 44.7266 -25.7324 L 44.7266 -23.7305 C 44.7266 -21.6797 43.2617 -20.2637 41.1133 -20.2637 Z M 60.9863 -20.2637 C 54.5898 -20.2637 50.3418 -23.6816 50.3418 -28.8086 C 50.3418 -32.6172 52.7344 -35.0098 55.7617 -35.8887 L 55.7617 -36.2305 C 53.5156 -36.7676 51.416 -39.1602 51.416 -42.3828 C 51.416 -47.1191 55.2246 -50.2441 60.9863 -50.2441 C 66.6992 -50.2441 70.5078 -47.1191 70.5078 -42.3828 C 70.5078 -39.1602 68.4082 -36.7676 66.2109 -36.2305 L 66.2109 -35.8887 C 69.2383 -35.0098 71.582 -32.6172 71.582 -28.8086 C 71.582 -23.6816 67.334 -20.2637 60.9863 -20.2637 Z M 60.9863 -39.3555 C 62.3535 -39.3555 63.1836 -40.2832 63.1836 -41.5527 C 63.1836 -42.8223 62.3047 -43.7988 60.9863 -43.7988 C 59.6191 -43.7988 58.7402 -42.8223 58.7402 -41.5527 C 58.7402 -40.2832 59.5703 -39.3555 60.9863 -39.3555 Z M 37.5977 -32.4707 L 37.5977 -42.7734 L 37.5 -42.7734 C 36.4746 -39.9902 34.8633 -34.9609 34.082 -32.6172 L 34.082 -32.4707 Z M 60.9863 -26.8066 C 62.5 -26.8066 63.5254 -27.9785 63.5254 -29.4922 C 63.5254 -31.0547 62.5 -32.2266 60.9863 -32.2266 C 59.4238 -32.2266 58.3984 -31.0547 58.3984 -29.4922 C 58.3984 -27.9785 59.4238 -26.8066 60.9863 -26.8066 Z"/>
  </g>
  <g id="Heavy-S" transform="matrix(1 0 0 1 2588.47 696)">
   <path d="M 48.2422 6.15234 C 70.9961 6.15234 89.5996 -12.4512 89.5996 -35.2051 C 89.5996 -57.959 70.9961 -76.6113 48.1934 -76.6113 C 25.4395 -76.6113 6.83594 -57.959 6.83594 -35.2051 C 6.83594 -12.4512 25.4395 6.15234 48.2422 6.15234 Z M 40.332 -19.6777 C 38.3301 -19.6777 37.0117 -21.0938 37.0117 -23.0469 L 37.0117 -25.4883 L 29.6387 -25.4883 C 26.6602 -25.4883 25 -27.1973 25 -30.0781 C 25 -31.8359 25.4883 -33.3984 26.0254 -34.9121 C 27.2461 -37.9883 29.3457 -42.7734 31.25 -46.4355 C 32.7637 -49.4141 34.7168 -50.8301 38.0859 -50.8301 C 41.8457 -50.8301 43.75 -48.584 43.75 -44.9707 L 43.75 -31.9824 L 44.3848 -31.9824 C 46.3379 -31.9824 47.4121 -30.7129 47.4121 -28.7109 C 47.4121 -26.7578 46.3379 -25.5859 44.3848 -25.5859 L 43.75 -25.5859 L 43.75 -23.0469 C 43.75 -21.0938 42.4316 -19.6777 40.332 -19.6777 Z M 60.8887 -19.6777 C 54.3457 -19.6777 50 -23.2422 50 -28.5645 C 50 -32.4219 52.3926 -35.0586 55.7129 -35.9375 L 55.7129 -36.2305 C 53.125 -36.9141 51.0742 -39.4043 51.0742 -42.7246 C 51.0742 -47.5586 55.0293 -50.8301 60.8887 -50.8301 C 66.748 -50.8301 70.6543 -47.5586 70.6543 -42.7246 C 70.6543 -39.4043 68.6035 -36.9141 66.0645 -36.2305 L 66.0645 -35.9375 C 69.3848 -35.0586 71.7773 -32.4219 71.7773 -28.5645 C 71.7773 -23.2422 67.3828 -19.6777 60.8887 -19.6777 Z M 60.8887 -39.0625 C 62.5977 -39.0625 63.7207 -40.2832 63.7207 -41.9434 C 63.7207 -43.6035 62.5488 -44.8242 60.8887 -44.8242 C 59.1797 -44.8242 58.0566 -43.6035 58.0566 -41.9434 C 58.0566 -40.2832 59.1309 -39.0625 60.8887 -39.0625 Z M 37.0117 -31.9336 L 37.0117 -43.7012 L 36.8652 -43.7012 C 35.3027 -40.1855 33.3496 -34.9609 32.1777 -32.0801 L 32.1777 -31.9336 Z M 60.8887 -25.7812 C 62.8906 -25.7812 64.2578 -27.1973 64.2578 -29.1504 C 64.2578 -31.1523 62.8906 -32.6172 60.8887 -32.6172 C 58.8867 -32.6172 57.5195 -31.1523 57.5195 -29.1504 C 57.5195 -27.1973 58.8867 -25.7812 60.8887 -25.7812 Z"/>
  </g>
  <g id="Bold-S" transform="matrix(1 0 0 1 2292.44 696)">
   <path d="M 47.5586 5.46875 C 69.873 5.46875 88.2324 -12.8906 88.2324 -35.2051 C 88.2324 -57.5684 69.873 -75.9277 47.5098 -75.9277 C 25.1953 -75.9277 6.83594 -57.5684 6.83594 -35.2051 C 6.83594 -12.8906 25.1953 5.46875 47.5586 5.46875 Z M 39.4531 -19.043 C 37.5 -19.043 36.377 -20.4102 36.377 -22.3145 L 36.377 -25.3906 L 27.6367 -25.3906 C 24.9512 -25.3906 23.3398 -26.9531 23.3398 -29.6875 C 23.3398 -31.25 23.7305 -32.6172 24.3652 -34.082 C 26.0254 -37.793 28.5645 -42.9688 30.957 -47.4121 C 32.4707 -50.1953 34.2773 -51.4648 37.4023 -51.4648 C 40.7715 -51.4648 42.6758 -49.4141 42.6758 -46.1914 L 42.6758 -31.3477 L 43.6523 -31.3477 C 45.459 -31.3477 46.5332 -30.1758 46.5332 -28.3203 C 46.5332 -26.5137 45.459 -25.4395 43.6523 -25.4395 L 42.6758 -25.4395 L 42.6758 -22.3145 C 42.6758 -20.4102 41.4551 -19.043 39.4531 -19.043 Z M 60.7422 -19.043 C 54.0039 -19.043 49.5605 -22.7051 49.5605 -28.2715 C 49.5605 -32.2266 52.002 -35.1074 55.7129 -35.9863 L 55.7129 -36.2793 C 52.6855 -37.1094 50.7324 -39.6973 50.7324 -43.0664 C 50.7324 -48.0957 54.7852 -51.4648 60.791 -51.4648 C 66.748 -51.4648 70.8496 -48.0957 70.8496 -43.0664 C 70.8496 -39.6973 68.8477 -37.0605 65.8691 -36.2793 L 65.8691 -35.9863 C 69.5801 -35.1074 71.9727 -32.2754 71.9727 -28.2715 C 71.9727 -22.7539 67.4805 -19.043 60.7422 -19.043 Z M 60.791 -38.7207 C 62.8906 -38.7207 64.3066 -40.2832 64.3066 -42.3828 C 64.3066 -44.4336 62.8906 -45.9473 60.791 -45.9473 C 58.6914 -45.9473 57.2266 -44.4336 57.2266 -42.3828 C 57.2266 -40.2832 58.6426 -38.7207 60.791 -38.7207 Z M 36.377 -31.2988 L 36.377 -44.7266 L 36.1816 -44.7266 C 34.0332 -40.3809 31.6406 -35.0098 30.0293 -31.4453 L 30.0293 -31.2988 Z M 60.8398 -24.6094 C 63.2812 -24.6094 65.0879 -26.3672 65.0879 -28.8086 C 65.0879 -31.25 63.3301 -33.0566 60.8398 -33.0566 C 58.3008 -33.0566 56.4941 -31.25 56.4941 -28.8086 C 56.4941 -26.3672 58.3008 -24.6094 60.8398 -24.6094 Z"/>
  </g>
  <g id="Semibold-S" transform="matrix(1 0 0 1 1996.2 696)">
   <path d="M 47.0703 4.98047 C 69.0918 4.98047 87.3047 -13.1836 87.3047 -35.2539 C 87.3047 -57.2754 69.0918 -75.4883 47.0215 -75.4883 C 25 -75.4883 6.83594 -57.2754 6.83594 -35.2539 C 6.83594 -13.1836 25.0488 4.98047 47.0703 4.98047 Z M 38.8672 -18.6035 C 36.9629 -18.6035 35.8887 -19.9707 35.8887 -21.7773 L 35.8887 -25.293 L 26.3184 -25.293 C 23.7305 -25.293 22.168 -26.8066 22.168 -29.3945 C 22.168 -30.8594 22.5098 -32.0801 23.1934 -33.5449 C 25.2441 -37.6465 28.0273 -43.1152 30.7617 -48.0957 C 32.2754 -50.7812 33.9844 -51.9043 36.9629 -51.9043 C 40.0391 -51.9043 41.8945 -50 41.8945 -47.0215 L 41.8945 -30.9082 L 43.1641 -30.9082 C 44.873 -30.9082 45.8984 -29.834 45.8984 -28.0762 C 45.8984 -26.3184 44.873 -25.293 43.1641 -25.293 L 41.8945 -25.293 L 41.8945 -21.7773 C 41.8945 -19.9219 40.8203 -18.6035 38.8672 -18.6035 Z M 60.6445 -18.6035 C 53.8086 -18.6035 49.3164 -22.3633 49.3164 -28.0762 C 49.3164 -32.0801 51.709 -35.1562 55.6641 -36.0352 L 55.6641 -36.2793 C 52.3438 -37.207 50.4883 -39.8926 50.4883 -43.3594 C 50.4883 -48.4375 54.6387 -51.9043 60.7422 -51.9043 C 66.7969 -51.9043 70.9473 -48.4375 70.9473 -43.3594 C 70.9473 -39.8926 69.043 -37.1582 65.7715 -36.2793 L 65.7715 -36.0352 C 69.7266 -35.1562 72.1191 -32.1289 72.1191 -28.0762 C 72.1191 -22.4121 67.5293 -18.6035 60.6445 -18.6035 Z M 60.7422 -38.5254 C 63.0859 -38.5254 64.7461 -40.2832 64.7461 -42.6758 C 64.7461 -45.0195 63.0859 -46.6797 60.7422 -46.6797 C 58.3496 -46.6797 56.6895 -45.0195 56.6895 -42.6758 C 56.6895 -40.2832 58.3496 -38.5254 60.7422 -38.5254 Z M 35.8887 -30.8594 L 35.8887 -45.4102 L 35.6934 -45.4102 C 33.1055 -40.5273 30.4688 -35.0098 28.5645 -31.0547 L 28.5645 -30.8594 Z M 60.7422 -23.8281 C 63.5742 -23.8281 65.6738 -25.7812 65.6738 -28.5645 C 65.6738 -31.3477 63.623 -33.3496 60.7422 -33.3496 C 57.8613 -33.3496 55.8105 -31.2988 55.8105 -28.5645 C 55.8105 -25.7812 57.8613 -23.8281 60.7422 -23.8281 Z"/>
  </g>
  <g id="Medium-S" transform="matrix(1 0 0 1 1699.83 696)">
   <path d="M 46.7285 4.63867 C 68.5547 4.63867 86.6211 -13.4277 86.6211 -35.2539 C 86.6211 -57.0312 68.5059 -75.1465 46.6797 -75.1465 C 24.8535 -75.1465 6.83594 -57.0312 6.83594 -35.2539 C 6.83594 -13.4277 24.9023 4.63867 46.7285 4.63867 Z M 38.4277 -18.2617 C 36.5723 -18.2617 35.5469 -19.5801 35.5469 -21.3867 L 35.5469 -25.1953 L 25.2441 -25.1953 C 22.8516 -25.1953 21.2891 -26.6602 21.2891 -29.1992 C 21.2891 -30.5664 21.582 -31.6406 22.3145 -33.1055 C 24.6094 -37.5488 27.6367 -43.2617 30.6152 -48.584 C 32.1289 -51.1719 33.7891 -52.2461 36.5723 -52.2461 C 39.502 -52.2461 41.3574 -50.4395 41.3574 -47.6074 L 41.3574 -30.5664 L 42.7734 -30.5664 C 44.4336 -30.5664 45.4102 -29.541 45.4102 -27.8809 C 45.4102 -26.1719 44.4336 -25.2441 42.7734 -25.2441 L 41.3574 -25.2441 L 41.3574 -21.3867 C 41.3574 -19.5801 40.2832 -18.2617 38.4277 -18.2617 Z M 60.5957 -18.2617 C 53.6621 -18.2617 49.0723 -22.1191 49.0723 -27.8809 C 49.0723 -31.9824 51.5137 -35.1562 55.6641 -36.0352 L 55.6641 -36.3281 C 52.0996 -37.3047 50.293 -40.0391 50.293 -43.5059 C 50.293 -48.6816 54.541 -52.2461 60.6445 -52.2461 C 66.7969 -52.2461 71.0449 -48.6816 71.0449 -43.5059 C 71.0449 -40.0391 69.1406 -37.2559 65.6738 -36.3281 L 65.6738 -36.0352 C 69.7754 -35.1562 72.2168 -32.0312 72.2168 -27.9297 C 72.2168 -22.168 67.5293 -18.2617 60.5957 -18.2617 Z M 60.6445 -38.3301 C 63.2324 -38.3301 65.0391 -40.2832 65.0391 -42.8711 C 65.0391 -45.459 63.2324 -47.2656 60.6445 -47.2656 C 58.1055 -47.2656 56.2988 -45.459 56.2988 -42.8711 C 56.2988 -40.2832 58.1055 -38.3301 60.6445 -38.3301 Z M 35.5469 -30.5176 L 35.5469 -45.9473 L 35.3516 -45.9473 C 32.4219 -40.6738 29.5898 -35.0098 27.4414 -30.7129 L 27.4414 -30.5176 Z M 60.6934 -23.2422 C 63.7695 -23.2422 66.0645 -25.3418 66.0645 -28.3691 C 66.0645 -31.3965 63.8672 -33.5449 60.6934 -33.5449 C 57.5684 -33.5449 55.2734 -31.3477 55.2734 -28.3691 C 55.2734 -25.3418 57.5684 -23.2422 60.6934 -23.2422 Z"/>
  </g>
  <g id="Regular-S" transform="matrix(1 0 0 1 1403.58 696)">
   <path d="M 46.2402 4.15039 C 67.7734 4.15039 85.6934 -13.7207 85.6934 -35.2539 C 85.6934 -56.7871 67.7246 -74.6582 46.1914 -74.6582 C 24.707 -74.6582 6.83594 -56.7871 6.83594 -35.2539 C 6.83594 -13.7207 24.7559 4.15039 46.2402 4.15039 Z M 37.793 -17.8223 C 36.0352 -17.8223 35.1074 -19.1406 35.1074 -20.8984 L 35.1074 -25.0977 L 23.9258 -25.0977 C 21.6797 -25.0977 20.166 -26.5137 20.166 -28.9551 C 20.166 -30.1758 20.4102 -31.1035 21.1426 -32.5684 C 23.7793 -37.4512 27.0996 -43.4082 30.4688 -49.2676 C 31.9336 -51.709 33.4961 -52.6855 36.1328 -52.6855 C 38.7695 -52.6855 40.5762 -50.9766 40.5762 -48.4375 L 40.5762 -30.127 L 42.2852 -30.127 C 43.8477 -30.127 44.8242 -29.1992 44.8242 -27.5879 C 44.8242 -26.0254 43.8477 -25.0977 42.2852 -25.0977 L 40.5762 -25.0977 L 40.5762 -20.8984 C 40.5762 -19.0918 39.6484 -17.8223 37.793 -17.8223 Z M 60.498 -17.8223 C 53.4668 -17.8223 48.8281 -21.7773 48.8281 -27.6855 C 48.8281 -31.8359 51.2207 -35.2051 55.6641 -36.084 L 55.6641 -36.3281 C 51.8066 -37.4512 50.0488 -40.2344 50.0488 -43.7988 C 50.0488 -49.0234 54.3945 -52.6855 60.5957 -52.6855 C 66.8457 -52.6855 71.1426 -49.0234 71.1426 -43.7988 C 71.1426 -40.2344 69.3359 -37.3535 65.5273 -36.3281 L 65.5273 -36.084 C 69.9219 -35.2051 72.3633 -31.8848 72.3633 -27.7344 C 72.3633 -21.8262 67.5781 -17.8223 60.498 -17.8223 Z M 60.5957 -38.1348 C 63.4277 -38.1348 65.4297 -40.2344 65.4297 -43.1641 C 65.4297 -46.0449 63.4277 -48.0469 60.5957 -48.0469 C 57.7637 -48.0469 55.7617 -46.0449 55.7617 -43.1641 C 55.7617 -40.2344 57.7637 -38.1348 60.5957 -38.1348 Z M 35.1074 -30.127 L 35.1074 -46.6309 L 34.8633 -46.6309 C 31.543 -40.8203 28.418 -35.0098 25.9766 -30.3223 L 25.9766 -30.127 Z M 60.6445 -22.4609 C 64.0625 -22.4609 66.6504 -24.7559 66.6504 -28.125 C 66.6504 -31.4941 64.1602 -33.8379 60.6445 -33.8379 C 57.1777 -33.8379 54.5898 -31.4453 54.5898 -28.125 C 54.5898 -24.7559 57.1777 -22.4609 60.6445 -22.4609 Z"/>
  </g>
  <g id="Light-S" transform="matrix(1 0 0 1 1107.6 696)">
   <path d="M 45.5078 3.4668 C 66.6992 3.4668 84.2285 -14.0625 84.2285 -35.2051 C 84.2285 -56.3965 66.6504 -73.9258 45.5078 -73.9258 C 24.3164 -73.9258 6.83594 -56.3965 6.83594 -35.2051 C 6.83594 -14.0625 24.3652 3.4668 45.5078 3.4668 Z M 37.1094 -18.1641 C 35.6934 -18.1641 34.9121 -19.1895 34.9121 -20.5566 L 34.9121 -25.7324 L 22.7539 -25.7324 C 20.8984 -25.7324 19.6289 -26.8555 19.6289 -28.8574 C 19.6289 -29.7852 19.8242 -30.6152 20.4102 -31.6895 C 23.1934 -36.4746 27.832 -44.1895 31.1523 -49.707 C 32.373 -51.6602 33.6426 -52.4414 35.7422 -52.4414 C 37.8418 -52.4414 39.3066 -51.0742 39.3066 -49.0234 L 39.3066 -29.7852 L 41.8945 -29.7852 C 43.1152 -29.7852 43.9453 -29.0039 43.9453 -27.7344 C 43.9453 -26.4648 43.1641 -25.7324 41.8945 -25.7324 L 39.3066 -25.7324 L 39.3066 -20.5566 C 39.3066 -19.1406 38.5742 -18.1641 37.1094 -18.1641 Z M 59.7168 -18.0664 C 52.832 -18.0664 48.1445 -22.0215 48.1445 -27.7832 C 48.1445 -31.8848 50.7324 -35.2539 54.9805 -36.084 L 54.9805 -36.3281 C 51.3184 -37.4023 49.3652 -40.2344 49.3652 -43.7012 C 49.3652 -48.8281 53.6621 -52.4414 59.7656 -52.4414 C 65.8691 -52.4414 70.166 -48.8281 70.166 -43.7012 C 70.166 -40.2344 68.1641 -37.3047 64.5508 -36.3281 L 64.5508 -36.084 C 68.7988 -35.2539 71.3867 -31.8848 71.3867 -27.832 C 71.3867 -22.0703 66.6016 -18.0664 59.7168 -18.0664 Z M 59.7656 -37.793 C 63.1836 -37.793 65.5762 -40.0879 65.5762 -43.2617 C 65.5762 -46.4844 63.1836 -48.6328 59.7656 -48.6328 C 56.3477 -48.6328 53.9551 -46.4844 53.9551 -43.2617 C 53.9551 -40.0879 56.3477 -37.793 59.7656 -37.793 Z M 34.9121 -29.7852 L 34.9121 -47.5586 L 34.7168 -47.5586 C 31.6406 -42.4316 26.709 -34.3262 24.3652 -29.9316 L 24.3652 -29.7852 Z M 59.8145 -21.875 C 63.8672 -21.875 66.8457 -24.4141 66.8457 -28.0762 C 66.8457 -31.6895 63.916 -34.2773 59.8145 -34.2773 C 55.7129 -34.2773 52.7344 -31.6406 52.7344 -28.0762 C 52.7344 -24.4141 55.7129 -21.875 59.8145 -21.875 Z"/>
  </g>
  <g id="Thin-S" transform="matrix(1 0 0 1 811.867 696)">
   <path d="M 44.5801 2.53906 C 65.2832 2.53906 82.2754 -14.4531 82.2754 -35.2051 C 82.2754 -55.9082 65.2344 -72.9004 44.5312 -72.9004 C 23.8281 -72.9004 6.83594 -55.9082 6.83594 -35.2051 C 6.83594 -14.4531 23.877 2.53906 44.5801 2.53906 Z M 36.1328 -18.5547 C 35.2539 -18.5547 34.668 -19.1895 34.668 -20.166 L 34.668 -26.5137 L 21.2402 -26.5137 C 19.873 -26.5137 18.8965 -27.2949 18.8965 -28.7109 C 18.8965 -29.2969 19.0918 -29.9316 19.4824 -30.5664 C 22.4121 -35.2051 28.8574 -45.2148 32.1289 -50.2441 C 33.0078 -51.6602 33.8379 -52.0996 35.2539 -52.0996 C 36.6699 -52.0996 37.6465 -51.2207 37.6465 -49.8535 L 37.6465 -29.3457 L 41.4062 -29.3457 C 42.2363 -29.3457 42.7734 -28.7598 42.7734 -27.9297 C 42.7734 -27.0508 42.2852 -26.5137 41.4062 -26.5137 L 37.6465 -26.5137 L 37.6465 -20.166 C 37.6465 -19.1895 37.1582 -18.5547 36.1328 -18.5547 Z M 58.6914 -18.4082 C 52.002 -18.4082 47.2656 -22.3145 47.2656 -27.9297 C 47.2656 -31.8848 50.0977 -35.2539 54.1016 -36.084 L 54.1016 -36.2793 C 50.6836 -37.3535 48.4863 -40.1855 48.4863 -43.5547 C 48.4863 -48.584 52.7832 -52.0996 58.6914 -52.0996 C 64.5996 -52.0996 68.8965 -48.584 68.8965 -43.5547 C 68.8965 -40.1855 66.6504 -37.2559 63.2324 -36.2793 L 63.2324 -36.084 C 67.2852 -35.2539 70.1172 -31.9336 70.1172 -27.9297 C 70.1172 -22.3633 65.2832 -18.4082 58.6914 -18.4082 Z M 58.6914 -37.4023 C 62.8418 -37.4023 65.7715 -39.9414 65.7715 -43.4082 C 65.7715 -46.9727 62.8906 -49.4629 58.6914 -49.4629 C 54.4434 -49.4629 51.6113 -46.9727 51.6113 -43.4082 C 51.6113 -39.9414 54.4922 -37.4023 58.6914 -37.4023 Z M 34.668 -29.3457 L 34.668 -48.7305 L 34.5703 -48.7305 C 31.7871 -44.5312 24.4629 -33.3984 22.2168 -29.4434 L 22.2168 -29.3457 Z M 58.6914 -21.0449 C 63.623 -21.0449 67.1387 -23.9746 67.1387 -28.0273 C 67.1387 -31.9336 63.623 -34.8145 58.6914 -34.8145 C 53.7598 -34.8145 50.2441 -31.9336 50.2441 -28.0273 C 50.2441 -23.9746 53.7598 -21.0449 58.6914 -21.0449 Z"/>
  </g>
  <g id="Ultralight-S" transform="matrix(1 0 0 1 515.644 696)">
   <path d="M 44.043 2.05078 C 64.502 2.05078 81.2988 -14.6973 81.2988 -35.1562 C 81.2988 -55.6152 64.502 -72.3633 44.043 -72.3633 C 23.584 -72.3633 6.83594 -55.6152 6.83594 -35.1562 C 6.83594 -14.6973 23.584 2.05078 44.043 2.05078 Z M 35.6445 -18.7988 C 35.0098 -18.7988 34.5703 -19.2383 34.5703 -19.9219 L 34.5703 -26.9531 L 20.459 -26.9531 C 19.3359 -26.9531 18.5547 -27.5391 18.5547 -28.6133 C 18.5547 -29.0527 18.7012 -29.5898 18.9453 -29.9805 C 22.0215 -34.5703 29.3945 -45.752 32.6172 -50.5859 C 33.3496 -51.6113 33.9355 -51.9531 34.9609 -51.9531 C 36.0352 -51.9531 36.7676 -51.3184 36.7676 -50.2441 L 36.7676 -29.1016 L 41.1133 -29.1016 C 41.748 -29.1016 42.1875 -28.6621 42.1875 -28.0273 C 42.1875 -27.3926 41.7969 -26.9531 41.1133 -26.9531 L 36.7676 -26.9531 L 36.7676 -19.9219 C 36.7676 -19.2383 36.377 -18.7988 35.6445 -18.7988 Z M 58.1543 -18.5547 C 51.5625 -18.5547 46.8262 -22.4609 46.8262 -28.0273 C 46.8262 -31.9336 49.7559 -35.3027 53.6621 -36.084 L 53.6621 -36.2793 C 50.3418 -37.3047 48.0469 -40.1855 48.0469 -43.457 C 48.0469 -48.4863 52.2949 -51.9531 58.1543 -51.9531 C 63.916 -51.9531 68.2129 -48.4863 68.2129 -43.457 C 68.2129 -40.1855 65.8691 -37.207 62.5488 -36.2793 L 62.5488 -36.084 C 66.5527 -35.3027 69.4336 -31.9336 69.4336 -28.0273 C 69.4336 -22.5098 64.5996 -18.5547 58.1543 -18.5547 Z M 58.1543 -37.1582 C 62.6953 -37.1582 65.8691 -39.7949 65.8691 -43.5059 C 65.8691 -47.2656 62.7441 -49.8535 58.1543 -49.8535 C 53.5156 -49.8535 50.3906 -47.2656 50.3906 -43.5059 C 50.3906 -39.7949 53.5156 -37.1582 58.1543 -37.1582 Z M 34.5703 -29.1016 L 34.5703 -49.3652 L 34.4238 -49.3652 C 31.8848 -45.6543 23.291 -32.9102 21.0938 -29.1992 L 21.0938 -29.1016 Z M 58.1543 -20.6543 C 63.4766 -20.6543 67.2852 -23.7305 67.2852 -27.9785 C 67.2852 -32.0801 63.4766 -35.1074 58.1543 -35.1074 C 52.7832 -35.1074 48.9746 -32.0801 48.9746 -27.9785 C 48.9746 -23.7305 52.7832 -20.6543 58.1543 -20.6543 Z"/>
  </g>
 </g>
</svg>
