<?xml version="1.0" encoding="UTF-8"?>
<!--Generator: Apple Native CoreSVG 123-->
<!DOCTYPE svg
PUBLIC "-//W3C//DTD SVG 1.1//EN"
       "http://www.w3.org/Graphics/SVG/1.1/DTD/svg11.dtd">
<svg version="1.1" xmlns="http://www.w3.org/2000/svg" xmlns:xlink="http://www.w3.org/1999/xlink" width="3300" height="2200">
 <!--glyph: "uni1006BA.medium", point size: 100.000000, font version: "Version 15.0d7e11", template writer version: "5"-->
 <g id="Notes">
  <rect height="2200" id="artboard" style="fill:white;opacity:1" width="3300" x="0" y="0"/>
  <line id="" style="fill:none;stroke:black;opacity:1;stroke-width:0.5;" x1="263" x2="3036" y1="292" y2="292"/>
  <text style="stroke:none;fill:black;font-family:-apple-system,&quot;SF Pro Display&quot;,&quot;SF Pro Text&quot;,Helvetica,sans-serif;font-weight:bold;" transform="matrix(1 0 0 1 263 322)">Weight/Scale Variations</text>
  <text style="stroke:none;fill:black;font-family:-apple-system,&quot;SF Pro Display&quot;,&quot;SF Pro Text&quot;,Helvetica,sans-serif;text-anchor:middle;" transform="matrix(1 0 0 1 559.711 322)">Ultralight</text>
  <text style="stroke:none;fill:black;font-family:-apple-system,&quot;SF Pro Display&quot;,&quot;SF Pro Text&quot;,Helvetica,sans-serif;text-anchor:middle;" transform="matrix(1 0 0 1 856.422 322)">Thin</text>
  <text style="stroke:none;fill:black;font-family:-apple-system,&quot;SF Pro Display&quot;,&quot;SF Pro Text&quot;,Helvetica,sans-serif;text-anchor:middle;" transform="matrix(1 0 0 1 1153.13 322)">Light</text>
  <text style="stroke:none;fill:black;font-family:-apple-system,&quot;SF Pro Display&quot;,&quot;SF Pro Text&quot;,Helvetica,sans-serif;text-anchor:middle;" transform="matrix(1 0 0 1 1449.84 322)">Regular</text>
  <text style="stroke:none;fill:black;font-family:-apple-system,&quot;SF Pro Display&quot;,&quot;SF Pro Text&quot;,Helvetica,sans-serif;text-anchor:middle;" transform="matrix(1 0 0 1 1746.56 322)">Medium</text>
  <text style="stroke:none;fill:black;font-family:-apple-system,&quot;SF Pro Display&quot;,&quot;SF Pro Text&quot;,Helvetica,sans-serif;text-anchor:middle;" transform="matrix(1 0 0 1 2043.27 322)">Semibold</text>
  <text style="stroke:none;fill:black;font-family:-apple-system,&quot;SF Pro Display&quot;,&quot;SF Pro Text&quot;,Helvetica,sans-serif;text-anchor:middle;" transform="matrix(1 0 0 1 2339.98 322)">Bold</text>
  <text style="stroke:none;fill:black;font-family:-apple-system,&quot;SF Pro Display&quot;,&quot;SF Pro Text&quot;,Helvetica,sans-serif;text-anchor:middle;" transform="matrix(1 0 0 1 2636.69 322)">Heavy</text>
  <text style="stroke:none;fill:black;font-family:-apple-system,&quot;SF Pro Display&quot;,&quot;SF Pro Text&quot;,Helvetica,sans-serif;text-anchor:middle;" transform="matrix(1 0 0 1 2933.4 322)">Black</text>
  <line id="" style="fill:none;stroke:black;opacity:1;stroke-width:0.5;" x1="263" x2="3036" y1="1903" y2="1903"/>
  <g id="" transform="matrix(1 0 0 1 263 1933)">
   <path d="M 9.24805 0.830078 C 13.5547 0.830078 17.1387 -2.74414 17.1387 -7.05078 C 17.1387 -11.3574 13.5449 -14.9316 9.23828 -14.9316 C 4.94141 -14.9316 1.36719 -11.3574 1.36719 -7.05078 C 1.36719 -2.74414 4.95117 0.830078 9.24805 0.830078 Z M 9.24805 -0.654297 C 5.70312 -0.654297 2.87109 -3.49609 2.87109 -7.05078 C 2.87109 -10.6055 5.69336 -13.4473 9.23828 -13.4473 C 12.793 -13.4473 15.6348 -10.6055 15.6445 -7.05078 C 15.6543 -3.49609 12.8027 -0.654297 9.24805 -0.654297 Z M 9.22852 -3.42773 C 9.69727 -3.42773 9.9707 -3.74023 9.9707 -4.25781 L 9.9707 -6.31836 L 12.1973 -6.31836 C 12.6953 -6.31836 13.0371 -6.57227 13.0371 -7.04102 C 13.0371 -7.51953 12.7148 -7.7832 12.1973 -7.7832 L 9.9707 -7.7832 L 9.9707 -10.0098 C 9.9707 -10.5273 9.69727 -10.8496 9.22852 -10.8496 C 8.75977 -10.8496 8.50586 -10.5078 8.50586 -10.0098 L 8.50586 -7.7832 L 6.29883 -7.7832 C 5.78125 -7.7832 5.44922 -7.51953 5.44922 -7.04102 C 5.44922 -6.57227 5.80078 -6.31836 6.29883 -6.31836 L 8.50586 -6.31836 L 8.50586 -4.25781 C 8.50586 -3.75977 8.75977 -3.42773 9.22852 -3.42773 Z"/>
  </g>
  <g id="" transform="matrix(1 0 0 1 281.506 1933)">
   <path d="M 11.709 2.91016 C 17.1582 2.91016 21.6699 -1.60156 21.6699 -7.05078 C 21.6699 -12.4902 17.1484 -17.0117 11.6992 -17.0117 C 6.25977 -17.0117 1.74805 -12.4902 1.74805 -7.05078 C 1.74805 -1.60156 6.26953 2.91016 11.709 2.91016 Z M 11.709 1.25 C 7.09961 1.25 3.41797 -2.44141 3.41797 -7.05078 C 3.41797 -11.6504 7.08984 -15.3516 11.6992 -15.3516 C 16.3086 -15.3516 20 -11.6504 20.0098 -7.05078 C 20.0195 -2.44141 16.3184 1.25 11.709 1.25 Z M 11.6895 -2.41211 C 12.207 -2.41211 12.5195 -2.77344 12.5195 -3.33984 L 12.5195 -6.23047 L 15.5762 -6.23047 C 16.123 -6.23047 16.5039 -6.51367 16.5039 -7.03125 C 16.5039 -7.55859 16.1426 -7.86133 15.5762 -7.86133 L 12.5195 -7.86133 L 12.5195 -10.9277 C 12.5195 -11.5039 12.207 -11.8555 11.6895 -11.8555 C 11.1719 -11.8555 10.8789 -11.4844 10.8789 -10.9277 L 10.8789 -7.86133 L 7.83203 -7.86133 C 7.26562 -7.86133 6.89453 -7.55859 6.89453 -7.03125 C 6.89453 -6.51367 7.28516 -6.23047 7.83203 -6.23047 L 10.8789 -6.23047 L 10.8789 -3.33984 C 10.8789 -2.79297 11.1719 -2.41211 11.6895 -2.41211 Z"/>
  </g>
  <g id="" transform="matrix(1 0 0 1 304.924 1933)">
   <path d="M 14.9707 5.67383 C 21.9336 5.67383 27.6953 -0.078125 27.6953 -7.04102 C 27.6953 -14.0039 21.9238 -19.7559 14.9609 -19.7559 C 8.00781 -19.7559 2.25586 -14.0039 2.25586 -7.04102 C 2.25586 -0.078125 8.01758 5.67383 14.9707 5.67383 Z M 14.9707 3.85742 C 8.93555 3.85742 4.08203 -1.00586 4.08203 -7.04102 C 4.08203 -13.0762 8.92578 -17.9395 14.9609 -17.9395 C 21.0059 -17.9395 25.8594 -13.0762 25.8691 -7.04102 C 25.8789 -1.00586 21.0156 3.85742 14.9707 3.85742 Z M 14.9512 -1.06445 C 15.5176 -1.06445 15.8691 -1.45508 15.8691 -2.06055 L 15.8691 -6.13281 L 20.1074 -6.13281 C 20.6934 -6.13281 21.1133 -6.46484 21.1133 -7.02148 C 21.1133 -7.59766 20.7227 -7.93945 20.1074 -7.93945 L 15.8691 -7.93945 L 15.8691 -12.1875 C 15.8691 -12.8027 15.5176 -13.1934 14.9512 -13.1934 C 14.3848 -13.1934 14.0625 -12.7832 14.0625 -12.1875 L 14.0625 -7.93945 L 9.83398 -7.93945 C 9.21875 -7.93945 8.80859 -7.59766 8.80859 -7.02148 C 8.80859 -6.46484 9.23828 -6.13281 9.83398 -6.13281 L 14.0625 -6.13281 L 14.0625 -2.06055 C 14.0625 -1.47461 14.3848 -1.06445 14.9512 -1.06445 Z"/>
  </g>
  <text style="stroke:none;fill:black;font-family:-apple-system,&quot;SF Pro Display&quot;,&quot;SF Pro Text&quot;,Helvetica,sans-serif;font-weight:bold;" transform="matrix(1 0 0 1 263 1953)">Design Variations</text>
  <text style="stroke:none;fill:black;font-family:-apple-system,&quot;SF Pro Display&quot;,&quot;SF Pro Text&quot;,Helvetica,sans-serif;" transform="matrix(1 0 0 1 263 1971)">Symbols are supported in up to nine weights and three scales.</text>
  <text style="stroke:none;fill:black;font-family:-apple-system,&quot;SF Pro Display&quot;,&quot;SF Pro Text&quot;,Helvetica,sans-serif;" transform="matrix(1 0 0 1 263 1989)">For optimal layout with text and other symbols, vertically align</text>
  <text style="stroke:none;fill:black;font-family:-apple-system,&quot;SF Pro Display&quot;,&quot;SF Pro Text&quot;,Helvetica,sans-serif;" transform="matrix(1 0 0 1 263 2007)">symbols with the adjacent text.</text>
  <rect height="14" id="" style="fill:#00AEEF;stroke:none;opacity:0.4;" width="3" x="776" y="1919"/>
  <g id="" transform="matrix(1 0 0 1 779 1933)">
   <path d="M 10.5273 0 L 12.373 0 L 7.17773 -14.0918 L 5.43945 -14.0918 L 0.244141 0 L 2.08984 0 L 3.50586 -4.0332 L 9.11133 -4.0332 Z M 6.2793 -11.9531 L 6.33789 -11.9531 L 8.59375 -5.52734 L 4.02344 -5.52734 Z"/>
  </g>
  <rect height="14" id="" style="fill:#00AEEF;stroke:none;opacity:0.4;" width="3" x="791.617" y="1919"/>
  <text style="stroke:none;fill:black;font-family:-apple-system,&quot;SF Pro Display&quot;,&quot;SF Pro Text&quot;,Helvetica,sans-serif;font-weight:bold;" transform="matrix(1 0 0 1 776 1953)">Margins</text>
  <text style="stroke:none;fill:black;font-family:-apple-system,&quot;SF Pro Display&quot;,&quot;SF Pro Text&quot;,Helvetica,sans-serif;" transform="matrix(1 0 0 1 776 1971)">Leading and trailing margins on the left and right side of each symbol</text>
  <text style="stroke:none;fill:black;font-family:-apple-system,&quot;SF Pro Display&quot;,&quot;SF Pro Text&quot;,Helvetica,sans-serif;" transform="matrix(1 0 0 1 776 1989)">can be adjusted by modifying the width of the blue rectangles.</text>
  <text style="stroke:none;fill:black;font-family:-apple-system,&quot;SF Pro Display&quot;,&quot;SF Pro Text&quot;,Helvetica,sans-serif;" transform="matrix(1 0 0 1 776 2007)">Modifications are automatically applied proportionally to all</text>
  <text style="stroke:none;fill:black;font-family:-apple-system,&quot;SF Pro Display&quot;,&quot;SF Pro Text&quot;,Helvetica,sans-serif;" transform="matrix(1 0 0 1 776 2025)">scales and weights.</text>
  <g id="" transform="matrix(1 0 0 1 1289 1933)">
   <path d="M 2.83203 3.11523 L 4.375 4.6582 C 5.22461 5.48828 6.19141 5.41992 7.06055 4.46289 L 17.2754 -6.66016 C 17.7051 -6.36719 18.0957 -6.37695 18.5645 -6.47461 L 19.6094 -6.68945 L 20.3027 -5.99609 L 20.2539 -5.47852 C 20.1855 -4.95117 20.3516 -4.53125 20.8496 -4.0332 L 21.6602 -3.22266 C 22.168 -2.71484 22.8223 -2.68555 23.3008 -3.16406 L 26.5527 -6.41602 C 27.0312 -6.89453 27.0117 -7.54883 26.5039 -8.05664 L 25.6836 -8.87695 C 25.1855 -9.375 24.7754 -9.55078 24.2383 -9.47266 L 23.7109 -9.41406 L 23.0566 -10.0781 L 23.3398 -11.2207 C 23.4863 -11.7871 23.3398 -12.2559 22.7148 -12.8613 L 20.3027 -15.2539 C 16.7578 -18.7793 12.2266 -18.6719 9.11133 -15.5371 C 8.69141 -15.1074 8.64258 -14.5215 8.91602 -14.0918 C 9.15039 -13.7207 9.62891 -13.4961 10.2734 -13.6621 C 11.7871 -14.043 13.3008 -13.9258 14.7852 -12.9199 L 14.1602 -11.3379 C 13.9258 -10.752 13.9453 -10.2734 14.1797 -9.83398 L 3.01758 0.439453 C 2.08008 1.30859 1.97266 2.25586 2.83203 3.11523 Z M 10.6738 -15.1465 C 13.3398 -17.1387 16.6504 -16.8262 19.0527 -14.4141 L 21.6797 -11.8066 C 21.9141 -11.5723 21.9434 -11.3867 21.8848 -11.0938 L 21.5039 -9.53125 L 23.0762 -7.95898 L 24.043 -8.04688 C 24.3262 -8.07617 24.4141 -8.05664 24.6387 -7.83203 L 25.2637 -7.20703 L 22.5098 -4.46289 L 21.8848 -5.07812 C 21.6602 -5.30273 21.6406 -5.40039 21.6699 -5.68359 L 21.7578 -6.64062 L 20.1953 -8.20312 L 18.5742 -7.89062 C 18.291 -7.83203 18.1445 -7.83203 17.9102 -8.07617 L 15.7324 -10.2539 C 15.5078 -10.4883 15.4785 -10.625 15.6055 -10.9473 L 16.5527 -13.2227 C 14.9512 -14.7559 12.8418 -15.6055 10.8008 -14.9512 C 10.7129 -14.9219 10.6445 -14.9414 10.6152 -14.9805 C 10.5859 -15.0293 10.5859 -15.0781 10.6738 -15.1465 Z M 4.10156 2.41211 C 3.61328 1.91406 3.78906 1.61133 4.12109 1.30859 L 15.0781 -8.80859 L 16.3086 -7.57812 L 6.15234 3.34961 C 5.84961 3.68164 5.46875 3.7793 5.06836 3.37891 Z"/>
  </g>
  <text style="stroke:none;fill:black;font-family:-apple-system,&quot;SF Pro Display&quot;,&quot;SF Pro Text&quot;,Helvetica,sans-serif;font-weight:bold;" transform="matrix(1 0 0 1 1289 1953)">Exporting</text>
  <text style="stroke:none;fill:black;font-family:-apple-system,&quot;SF Pro Display&quot;,&quot;SF Pro Text&quot;,Helvetica,sans-serif;" transform="matrix(1 0 0 1 1289 1971)">Symbols should be outlined when exporting to ensure the</text>
  <text style="stroke:none;fill:black;font-family:-apple-system,&quot;SF Pro Display&quot;,&quot;SF Pro Text&quot;,Helvetica,sans-serif;" transform="matrix(1 0 0 1 1289 1989)">design is preserved when submitting to Xcode.</text>
  <text id="template-version" style="stroke:none;fill:black;font-family:-apple-system,&quot;SF Pro Display&quot;,&quot;SF Pro Text&quot;,Helvetica,sans-serif;text-anchor:end;" transform="matrix(1 0 0 1 3036 1933)">Template v.1.0</text>
  <text style="stroke:none;fill:black;font-family:-apple-system,&quot;SF Pro Display&quot;,&quot;SF Pro Text&quot;,Helvetica,sans-serif;text-anchor:end;" transform="matrix(1 0 0 1 3036 1951)">Generated from 49.circle.fill</text>
  <text style="stroke:none;fill:black;font-family:-apple-system,&quot;SF Pro Display&quot;,&quot;SF Pro Text&quot;,Helvetica,sans-serif;text-anchor:end;" transform="matrix(1 0 0 1 3036 1969)">Typeset at 100 points</text>
  <text style="stroke:none;fill:black;font-family:-apple-system,&quot;SF Pro Display&quot;,&quot;SF Pro Text&quot;,Helvetica,sans-serif;" transform="matrix(1 0 0 1 263 726)">Small</text>
  <text style="stroke:none;fill:black;font-family:-apple-system,&quot;SF Pro Display&quot;,&quot;SF Pro Text&quot;,Helvetica,sans-serif;" transform="matrix(1 0 0 1 263 1156)">Medium</text>
  <text style="stroke:none;fill:black;font-family:-apple-system,&quot;SF Pro Display&quot;,&quot;SF Pro Text&quot;,Helvetica,sans-serif;" transform="matrix(1 0 0 1 263 1586)">Large</text>
 </g>
 <g id="Guides">
  <g id="H-reference" style="fill:#27AAE1;stroke:none;" transform="matrix(1 0 0 1 339 696)">
   <path d="M 54.9316 0 L 57.666 0 L 30.5664 -70.459 L 28.0762 -70.459 L 0.976562 0 L 3.66211 0 L 12.9395 -24.4629 L 45.7031 -24.4629 Z M 29.1992 -67.0898 L 29.4434 -67.0898 L 44.8242 -26.709 L 13.8184 -26.709 Z"/>
  </g>
  <line id="Baseline-S" style="fill:none;stroke:#27AAE1;opacity:1;stroke-width:0.577;" x1="263" x2="3036" y1="696" y2="696"/>
  <line id="Capline-S" style="fill:none;stroke:#27AAE1;opacity:1;stroke-width:0.577;" x1="263" x2="3036" y1="625.541" y2="625.541"/>
  <g id="H-reference" style="fill:#27AAE1;stroke:none;" transform="matrix(1 0 0 1 339 1126)">
   <path d="M 54.9316 0 L 57.666 0 L 30.5664 -70.459 L 28.0762 -70.459 L 0.976562 0 L 3.66211 0 L 12.9395 -24.4629 L 45.7031 -24.4629 Z M 29.1992 -67.0898 L 29.4434 -67.0898 L 44.8242 -26.709 L 13.8184 -26.709 Z"/>
  </g>
  <line id="Baseline-M" style="fill:none;stroke:#27AAE1;opacity:1;stroke-width:0.577;" x1="263" x2="3036" y1="1126" y2="1126"/>
  <line id="Capline-M" style="fill:none;stroke:#27AAE1;opacity:1;stroke-width:0.577;" x1="263" x2="3036" y1="1055.54" y2="1055.54"/>
  <g id="H-reference" style="fill:#27AAE1;stroke:none;" transform="matrix(1 0 0 1 339 1556)">
   <path d="M 54.9316 0 L 57.666 0 L 30.5664 -70.459 L 28.0762 -70.459 L 0.976562 0 L 3.66211 0 L 12.9395 -24.4629 L 45.7031 -24.4629 Z M 29.1992 -67.0898 L 29.4434 -67.0898 L 44.8242 -26.709 L 13.8184 -26.709 Z"/>
  </g>
  <line id="Baseline-L" style="fill:none;stroke:#27AAE1;opacity:1;stroke-width:0.577;" x1="263" x2="3036" y1="1556" y2="1556"/>
  <line id="Capline-L" style="fill:none;stroke:#27AAE1;opacity:1;stroke-width:0.577;" x1="263" x2="3036" y1="1485.54" y2="1485.54"/>
  <rect height="119.336" id="left-margin" style="fill:#00AEEF;stroke:none;opacity:0.4;" width="8.74023" x="1391.3" y="1030.79"/>
  <rect height="119.336" id="right-margin" style="fill:#00AEEF;stroke:none;opacity:0.4;" width="8.74023" x="1499.65" y="1030.79"/>
 </g>
 <g id="Symbols">
  <g id="Black-L" transform="matrix(1 0 0 1 2854.05 1556)">
   <path d="M 79.3457 32.8613 C 116.748 32.8613 147.412 2.19727 147.412 -35.2051 C 147.412 -72.6074 116.748 -103.271 79.2969 -103.271 C 41.8945 -103.271 11.2793 -72.6074 11.2793 -35.2051 C 11.2793 2.19727 41.9434 32.8613 79.3457 32.8613 Z M 66.8945 -9.47266 C 63.5742 -9.47266 61.377 -11.7676 61.377 -15.0391 L 61.377 -19.1406 L 48.9746 -19.1406 C 44.0918 -19.1406 41.4062 -21.9238 41.4062 -26.6602 C 41.4062 -29.4922 42.1875 -32.0312 43.1152 -34.5703 C 45.2148 -39.7949 48.6816 -47.6562 51.9043 -53.8574 C 54.4434 -58.7891 57.7148 -61.084 63.1836 -61.084 C 69.3359 -61.084 72.4609 -57.4219 72.4609 -51.5137 L 72.4609 -29.7852 L 73.6328 -29.7852 C 76.8066 -29.7852 78.6133 -27.6367 78.6133 -24.4141 C 78.6133 -21.1914 76.8066 -19.2383 73.6328 -19.2383 L 72.4609 -19.2383 L 72.4609 -15.0391 C 72.4609 -11.7676 70.3125 -9.47266 66.8945 -9.47266 Z M 98.9746 -9.47266 C 91.1133 -9.47266 86.4258 -13.0371 85.0098 -16.4062 C 84.4727 -17.6758 84.1309 -18.8477 84.1309 -19.873 C 84.1309 -22.7539 86.1328 -24.9023 89.2578 -24.9023 C 90.8203 -24.9023 92.4805 -24.2676 93.9453 -22.5098 C 95.2148 -20.9961 96.6309 -20.166 98.7793 -20.166 C 104.346 -20.166 106.494 -27.1484 106.494 -34.2285 L 106.201 -34.2285 C 104.932 -30.2734 101.514 -27.7344 96.4844 -27.7344 C 88.3789 -27.7344 82.666 -33.7891 82.666 -43.4082 C 82.666 -54.4434 89.502 -61.084 99.6094 -61.084 C 111.963 -61.084 117.773 -51.709 117.773 -36.7676 C 117.773 -19.3848 111.182 -9.47266 98.9746 -9.47266 Z M 99.9512 -37.4512 C 103.32 -37.4512 105.615 -40.1367 105.615 -44.043 C 105.615 -48.0469 103.271 -50.7324 99.9512 -50.7324 C 96.7773 -50.7324 94.4824 -48.0957 94.4824 -44.043 C 94.4824 -40.1367 96.7773 -37.4512 99.9512 -37.4512 Z M 61.377 -29.6387 L 61.377 -49.3164 L 61.1328 -49.3164 C 58.3984 -43.3105 55.2734 -34.8633 53.2715 -29.9316 L 53.2715 -29.6387 Z"/>
  </g>
  <g id="Heavy-L" transform="matrix(1 0 0 1 2558.39 1556)">
   <path d="M 78.2715 31.7871 C 115.088 31.7871 145.312 1.61133 145.312 -35.2051 C 145.312 -72.0215 115.039 -102.197 78.2715 -102.197 C 41.4551 -102.197 11.2793 -72.0215 11.2793 -35.2051 C 11.2793 1.61133 41.5039 31.7871 78.2715 31.7871 Z M 65.4785 -8.93555 C 62.4023 -8.93555 60.4492 -11.084 60.4492 -14.1113 L 60.4492 -19.2871 L 46.2402 -19.2871 C 41.7969 -19.2871 39.2578 -21.8262 39.2578 -26.1719 C 39.2578 -28.7109 39.8926 -30.957 40.8203 -33.3496 C 43.5059 -39.1602 48.0469 -48.2422 51.8066 -55.127 C 54.1992 -59.6191 57.1777 -61.6699 62.1582 -61.6699 C 67.627 -61.6699 70.6055 -58.3496 70.6055 -53.0762 L 70.6055 -28.9062 L 72.5098 -28.9062 C 75.3906 -28.9062 77.0996 -27.002 77.0996 -24.0723 C 77.0996 -21.0938 75.3906 -19.3359 72.5098 -19.3359 L 70.6055 -19.3359 L 70.6055 -14.1113 C 70.6055 -11.0352 68.6523 -8.93555 65.4785 -8.93555 Z M 98.5352 -8.88672 C 90.5273 -8.88672 85.6445 -12.7441 84.2773 -16.1621 C 83.7402 -17.334 83.4473 -18.457 83.4473 -19.4336 C 83.4473 -22.1191 85.3027 -24.0723 88.0859 -24.0723 C 89.6484 -24.0723 91.1621 -23.3887 92.5293 -21.6797 C 93.8477 -19.7754 95.752 -18.6035 98.3887 -18.6035 C 104.541 -18.6035 107.471 -25.8301 107.422 -34.6191 L 107.129 -34.6191 C 105.664 -30.4199 101.953 -27.5879 96.3867 -27.5879 C 88.0859 -27.5879 81.9336 -33.7891 81.9336 -43.7012 C 81.9336 -54.834 88.916 -61.6699 99.2188 -61.6699 C 111.523 -61.6699 117.627 -52.3926 117.627 -36.9629 C 117.627 -18.8965 110.938 -8.88672 98.5352 -8.88672 Z M 99.5605 -36.4258 C 103.662 -36.4258 106.592 -39.6973 106.592 -44.2871 C 106.592 -49.0234 103.662 -52.2461 99.5605 -52.2461 C 95.5078 -52.2461 92.6758 -49.0723 92.6758 -44.3359 C 92.6758 -39.6973 95.5566 -36.4258 99.5605 -36.4258 Z M 60.4492 -28.8574 L 60.4492 -50.8301 L 60.2051 -50.8301 C 56.9336 -44.2871 52.5391 -34.5703 50.0977 -29.1016 L 50.0977 -28.8574 Z"/>
  </g>
  <g id="Bold-L" transform="matrix(1 0 0 1 2262.88 1556)">
   <path d="M 77.0996 30.6152 C 113.232 30.6152 142.92 0.878906 142.92 -35.2051 C 142.92 -71.3379 113.184 -101.025 77.0508 -101.025 C 40.9668 -101.025 11.2793 -71.3379 11.2793 -35.2051 C 11.2793 0.878906 41.0156 30.6152 77.0996 30.6152 Z M 63.916 -8.30078 C 61.1328 -8.30078 59.4238 -10.3027 59.4238 -13.0371 L 59.4238 -19.4336 L 43.1152 -19.4336 C 39.1602 -19.4336 36.8164 -21.7285 36.8164 -25.6836 C 36.8164 -27.832 37.3535 -29.7852 38.2812 -31.9336 C 41.6016 -38.4277 47.3633 -48.877 51.709 -56.4941 C 53.9551 -60.5469 56.5918 -62.3047 60.9863 -62.3047 C 65.7227 -62.3047 68.5059 -59.4238 68.5059 -54.7852 L 68.5059 -27.9785 L 71.2402 -27.9785 C 73.8281 -27.9785 75.3906 -26.3184 75.3906 -23.6816 C 75.3906 -21.0449 73.877 -19.4824 71.2402 -19.4824 L 68.5059 -19.4824 L 68.5059 -13.0371 C 68.5059 -10.2539 66.7969 -8.30078 63.916 -8.30078 Z M 98.0469 -8.25195 C 89.8438 -8.25195 84.7656 -12.4512 83.4473 -15.918 C 82.959 -16.9922 82.666 -18.0176 82.666 -18.9453 C 82.666 -21.3867 84.3262 -23.1445 86.7676 -23.1445 C 88.3301 -23.1445 89.6973 -22.4609 90.918 -20.752 C 92.3828 -18.4082 94.7754 -16.8945 97.9004 -16.8945 C 104.785 -16.8945 108.545 -24.4141 108.496 -35.1074 L 108.154 -35.1074 C 106.543 -30.6152 102.49 -27.4414 96.2891 -27.4414 C 87.793 -27.4414 81.1035 -33.7891 81.1035 -44.0918 C 81.1035 -55.2734 88.2324 -62.3047 98.7793 -62.3047 C 110.986 -62.3047 117.529 -53.125 117.529 -37.1582 C 117.529 -18.3594 110.693 -8.25195 98.0469 -8.25195 Z M 99.1211 -35.3027 C 104.102 -35.3027 107.617 -39.1602 107.617 -44.5312 C 107.617 -50.0488 104.053 -53.9551 99.1211 -53.9551 C 94.1406 -53.9551 90.6738 -50.1953 90.6738 -44.5801 C 90.6738 -39.1602 94.1406 -35.3027 99.1211 -35.3027 Z M 59.4238 -27.9297 L 59.4238 -52.4902 L 59.1797 -52.4902 C 55.2734 -45.3613 49.4629 -34.2285 46.5332 -28.1738 L 46.5332 -27.9297 Z"/>
  </g>
  <g id="Semibold-L" transform="matrix(1 0 0 1 1966.97 1556)">
   <path d="M 76.2695 29.7852 C 111.914 29.7852 141.309 0.439453 141.309 -35.2051 C 141.309 -70.8496 111.865 -100.244 76.2695 -100.244 C 40.625 -100.244 11.2793 -70.8496 11.2793 -35.2051 C 11.2793 0.439453 40.6738 29.7852 76.2695 29.7852 Z M 62.8418 -7.91016 C 60.2539 -7.91016 58.7402 -9.7168 58.7402 -12.3047 L 58.7402 -19.5312 L 40.9668 -19.5312 C 37.4023 -19.5312 35.1562 -21.6309 35.1562 -25.293 C 35.1562 -27.2461 35.5957 -28.9551 36.5234 -30.957 C 40.332 -37.9395 46.8262 -49.3164 51.6113 -57.4707 C 53.7598 -61.1816 56.2012 -62.7441 60.1562 -62.7441 C 64.4531 -62.7441 67.041 -60.1074 67.041 -56.0059 L 67.041 -27.3438 L 70.4102 -27.3438 C 72.7539 -27.3438 74.2188 -25.8301 74.2188 -23.3887 C 74.2188 -20.9961 72.8027 -19.5312 70.4102 -19.5312 L 67.041 -19.5312 L 67.041 -12.3047 C 67.041 -9.7168 65.5273 -7.91016 62.8418 -7.91016 Z M 97.7051 -7.76367 C 89.3555 -7.76367 84.1797 -12.207 82.8613 -15.7227 C 82.4219 -16.748 82.1289 -17.7246 82.1289 -18.6035 C 82.1289 -20.8496 83.6426 -22.5098 85.8398 -22.5098 C 87.4023 -22.5098 88.6719 -21.8262 89.7949 -20.1172 C 91.3086 -17.4316 94.0918 -15.7227 97.6074 -15.7227 C 104.98 -15.7227 109.277 -23.4375 109.18 -35.4004 L 108.887 -35.4004 C 107.129 -30.7129 102.832 -27.2949 96.1914 -27.2949 C 87.5488 -27.2949 80.5664 -33.7891 80.5664 -44.3359 C 80.5664 -55.5664 87.7441 -62.7441 98.4375 -62.7441 C 110.645 -62.7441 117.432 -53.6621 117.432 -37.2559 C 117.432 -17.9688 110.498 -7.76367 97.7051 -7.76367 Z M 98.7793 -34.5215 C 104.395 -34.5215 108.398 -38.7695 108.398 -44.7266 C 108.398 -50.7812 104.346 -55.127 98.8281 -55.127 C 93.1641 -55.127 89.2578 -50.9766 89.2578 -44.7754 C 89.2578 -38.7695 93.2129 -34.5215 98.7793 -34.5215 Z M 58.7402 -27.2949 L 58.7402 -53.6621 L 58.4473 -53.6621 C 54.1504 -46.0938 47.3633 -34.0332 44.0918 -27.5391 L 44.0918 -27.2949 Z"/>
  </g>
  <g id="Medium-L" transform="matrix(1 0 0 1 1670.87 1556)">
   <path d="M 75.6836 29.1992 C 110.938 29.1992 140.088 0.0488281 140.088 -35.2051 C 140.088 -70.459 110.889 -99.6094 75.6348 -99.6094 C 40.3809 -99.6094 11.2793 -70.459 11.2793 -35.2051 C 11.2793 0.0488281 40.3809 29.1992 75.6836 29.1992 Z M 62.0117 -7.56836 C 59.5703 -7.56836 58.2031 -9.32617 58.2031 -11.7676 L 58.2031 -19.5801 L 39.3555 -19.5801 C 36.0352 -19.5801 33.8867 -21.582 33.8867 -25.0488 C 33.8867 -26.8066 34.2773 -28.3203 35.2051 -30.2246 C 39.3066 -37.5977 46.4844 -49.707 51.5625 -58.1543 C 53.6133 -61.6699 55.8594 -63.0859 59.5703 -63.0859 C 63.4277 -63.0859 65.9668 -60.6934 65.9668 -56.8848 L 65.9668 -26.8555 L 69.7266 -26.8555 C 71.9727 -26.8555 73.3398 -25.4395 73.3398 -23.1934 C 73.3398 -20.9473 71.9727 -19.6289 69.7266 -19.6289 L 65.9668 -19.6289 L 65.9668 -11.7676 C 65.9668 -9.27734 64.5508 -7.56836 62.0117 -7.56836 Z M 97.4121 -7.4707 C 89.0137 -7.4707 83.6914 -12.0605 82.4219 -15.625 C 82.0312 -16.5527 81.7383 -17.5293 81.7383 -18.3105 C 81.7383 -20.459 83.1055 -22.0215 85.1562 -22.0215 C 86.7188 -22.0215 87.8906 -21.3379 88.9648 -19.6289 C 90.5273 -16.748 93.5547 -14.8438 97.3633 -14.8438 C 105.078 -14.8438 109.814 -22.7051 109.766 -35.6445 L 109.424 -35.6445 C 107.568 -30.8105 103.125 -27.2461 96.1426 -27.2461 C 87.4023 -27.2461 80.127 -33.7891 80.127 -44.4824 C 80.127 -55.7617 87.4023 -63.0859 98.2422 -63.0859 C 110.352 -63.0859 117.383 -54.0527 117.383 -37.3535 C 117.383 -17.6758 110.4 -7.4707 97.4121 -7.4707 Z M 98.584 -33.8867 C 104.639 -33.8867 108.936 -38.4766 108.936 -44.8242 C 108.936 -51.3672 104.541 -56.0059 98.6328 -56.0059 C 92.4316 -56.0059 88.2324 -51.5625 88.2324 -44.9219 C 88.2324 -38.4766 92.4805 -33.8867 98.584 -33.8867 Z M 58.2031 -26.8066 L 58.2031 -54.541 L 57.9102 -54.541 C 53.2715 -46.6309 45.752 -33.8379 42.2363 -27.0996 L 42.2363 -26.8066 Z"/>
  </g>
  <g id="Regular-L" transform="matrix(1 0 0 1 1374.97 1556)">
   <path d="M 74.8535 28.3691 C 109.668 28.3691 138.477 -0.390625 138.477 -35.2051 C 138.477 -70.0195 109.619 -98.7793 74.8047 -98.7793 C 40.0391 -98.7793 11.2793 -70.0195 11.2793 -35.2051 C 11.2793 -0.390625 40.0879 28.3691 74.8535 28.3691 Z M 60.9375 -7.17773 C 58.6914 -7.17773 57.4707 -8.78906 57.4707 -11.0352 L 57.4707 -19.6777 L 37.2559 -19.6777 C 34.2773 -19.6777 32.2266 -21.4844 32.2266 -24.6582 C 32.2266 -26.2207 32.5684 -27.4902 33.4473 -29.248 C 38.0371 -37.1094 45.9961 -50.1465 51.5137 -59.1309 C 53.418 -62.3047 55.4688 -63.5254 58.7891 -63.5254 C 62.1582 -63.5254 64.502 -61.377 64.502 -58.1055 L 64.502 -26.1719 L 68.8965 -26.1719 C 70.8984 -26.1719 72.168 -24.9512 72.168 -22.9004 C 72.168 -20.8496 70.9473 -19.6777 68.8965 -19.6777 L 64.502 -19.6777 L 64.502 -11.0352 C 64.502 -8.74023 63.2812 -7.17773 60.9375 -7.17773 Z M 97.1191 -6.98242 C 88.5254 -6.98242 83.1055 -11.8164 81.8359 -15.4297 C 81.4941 -16.3086 81.2012 -17.2363 81.2012 -17.9688 C 81.2012 -19.9707 82.4707 -21.3867 84.2773 -21.3867 C 85.8398 -21.3867 86.9141 -20.7031 87.8418 -18.9941 C 89.502 -15.8203 92.8711 -13.6719 97.0215 -13.6719 C 105.273 -13.6719 110.547 -21.7285 110.449 -35.9375 L 110.107 -35.9375 C 108.105 -30.957 103.467 -27.0996 96.0938 -27.0996 C 87.1582 -27.0996 79.5898 -33.7891 79.5898 -44.7266 C 79.5898 -56.1035 86.9629 -63.5254 97.9004 -63.5254 C 110.01 -63.5254 117.285 -54.541 117.285 -37.5 C 117.285 -17.334 110.205 -6.98242 97.1191 -6.98242 Z M 98.2422 -33.1055 C 104.932 -33.1055 109.668 -38.1348 109.668 -45.0195 C 109.668 -52.0996 104.834 -57.1777 98.291 -57.1777 C 91.5039 -57.1777 86.8652 -52.3438 86.8652 -45.1172 C 86.8652 -38.1348 91.5039 -33.1055 98.2422 -33.1055 Z M 57.4707 -26.1719 L 57.4707 -55.7129 L 57.1777 -55.7129 C 52.1484 -47.3633 43.6523 -33.6426 39.8438 -26.4648 L 39.8438 -26.1719 Z"/>
  </g>
  <g id="Light-L" transform="matrix(1 0 0 1 1079.18 1556)">
   <path d="M 73.9258 27.4902 C 108.301 27.4902 136.621 -0.830078 136.621 -35.1562 C 136.621 -69.5312 108.252 -97.8516 73.9258 -97.8516 C 39.5508 -97.8516 11.2793 -69.5312 11.2793 -35.1562 C 11.2793 -0.830078 39.5996 27.4902 73.9258 27.4902 Z M 60.1074 -7.56836 C 58.3496 -7.56836 57.3242 -8.83789 57.3242 -10.5957 L 57.3242 -20.459 L 35.8887 -20.459 C 33.3496 -20.459 31.5918 -21.9238 31.5918 -24.5605 C 31.5918 -25.7324 31.8848 -26.8555 32.6172 -28.1738 C 37.3535 -35.8887 47.0215 -51.123 52.4414 -59.668 C 54.0527 -62.2559 55.7129 -63.2324 58.3496 -63.2324 C 61.084 -63.2324 62.9883 -61.5234 62.9883 -58.8379 L 62.9883 -25.7812 L 68.5059 -25.7812 C 70.1172 -25.7812 71.1426 -24.7559 71.1426 -23.0957 C 71.1426 -21.4355 70.166 -20.459 68.5059 -20.459 L 62.9883 -20.459 L 62.9883 -10.5957 C 62.9883 -8.78906 61.9629 -7.56836 60.1074 -7.56836 Z M 96.3379 -7.32422 C 88.5742 -7.32422 83.0566 -11.7676 81.4453 -15.2832 C 81.0059 -16.2109 80.6641 -17.1875 80.6641 -18.0664 C 80.6641 -19.6289 81.6406 -20.752 83.1543 -20.752 C 84.4727 -20.752 85.3027 -20.1172 86.084 -18.6523 C 87.8418 -15.0879 91.6992 -12.7441 96.3379 -12.7441 C 105.371 -12.7441 110.986 -21.0938 110.889 -36.7676 L 110.645 -36.7676 C 108.35 -31.1035 103.271 -27.3438 95.6543 -27.3438 C 86.4258 -27.3438 78.9551 -34.375 78.9551 -44.873 C 78.9551 -55.8105 86.4746 -63.2324 97.2168 -63.2324 C 108.936 -63.2324 116.357 -54.6875 116.357 -37.9395 C 116.357 -17.5293 109.375 -7.32422 96.3379 -7.32422 Z M 97.3633 -32.2754 C 104.688 -32.2754 110.01 -37.6953 110.01 -45.0684 C 110.01 -52.5391 104.639 -58.0078 97.4609 -58.0078 C 90.0391 -58.0078 84.7656 -52.7832 84.7656 -45.2148 C 84.7656 -37.6953 89.9414 -32.2754 97.3633 -32.2754 Z M 57.3242 -25.7812 L 57.3242 -56.8359 L 57.0801 -56.8359 C 52.3438 -49.4141 41.6016 -32.7148 37.793 -25.9766 L 37.793 -25.7812 Z"/>
  </g>
  <g id="Thin-L" transform="matrix(1 0 0 1 783.693 1556)">
   <path d="M 72.7051 26.3184 C 106.494 26.3184 134.18 -1.36719 134.18 -35.1074 C 134.18 -68.8965 106.494 -96.582 72.7051 -96.582 C 38.9648 -96.582 11.2793 -68.8965 11.2793 -35.1074 C 11.2793 -1.36719 38.9648 26.3184 72.7051 26.3184 Z M 59.0332 -8.10547 C 57.8613 -8.10547 57.0801 -8.88672 57.0801 -10.0586 L 57.0801 -21.4844 L 34.0332 -21.4844 C 32.1289 -21.4844 30.8105 -22.5098 30.8105 -24.3652 C 30.8105 -25.1465 31.0547 -26.0254 31.4453 -26.709 C 36.4258 -34.3262 48.3887 -52.4414 53.7109 -60.4004 C 54.9316 -62.207 56.0547 -62.793 57.8125 -62.793 C 59.668 -62.793 60.9375 -61.6699 60.9375 -59.8633 L 60.9375 -25.1953 L 67.9688 -25.1953 C 69.043 -25.1953 69.7754 -24.4141 69.7754 -23.291 C 69.7754 -22.2168 69.1406 -21.4844 67.9688 -21.4844 L 60.9375 -21.4844 L 60.9375 -10.0586 C 60.9375 -8.88672 60.2539 -8.10547 59.0332 -8.10547 Z M 95.3613 -7.71484 C 88.623 -7.71484 83.0078 -11.6699 80.957 -15.1367 C 80.3711 -16.0645 79.9316 -17.1875 79.9316 -18.1152 C 79.9316 -19.1406 80.5664 -19.9707 81.6406 -19.9707 C 82.666 -19.9707 83.1543 -19.3359 83.7402 -18.1641 C 85.5957 -14.1113 90.1855 -11.4746 95.4102 -11.4746 C 105.566 -11.4746 111.523 -20.2148 111.475 -37.793 L 111.377 -37.793 C 108.594 -31.2988 102.979 -27.6367 95.1172 -27.6367 C 85.4004 -27.6367 78.1738 -35.1562 78.1738 -45.0195 C 78.1738 -55.4199 85.8398 -62.793 96.2891 -62.793 C 107.52 -62.793 115.186 -54.834 115.186 -38.5742 C 115.186 -17.7734 108.252 -7.71484 95.3613 -7.71484 Z M 96.1914 -31.1523 C 104.395 -31.1523 110.498 -37.1582 110.498 -45.166 C 110.498 -53.1738 104.346 -59.082 96.3379 -59.082 C 88.0859 -59.082 82.0312 -53.3691 82.0312 -45.3125 C 82.0312 -37.1582 87.8906 -31.1523 96.1914 -31.1523 Z M 57.0801 -25.1953 L 57.0801 -58.3496 L 56.9336 -58.3496 C 52.6367 -52.0996 38.8672 -31.543 35.1562 -25.3906 L 35.1562 -25.1953 Z"/>
  </g>
  <g id="Ultralight-L" transform="matrix(1 0 0 1 487.616 1556)">
   <path d="M 72.1191 25.7324 C 105.566 25.7324 132.91 -1.61133 132.91 -35.1074 C 132.91 -68.5547 105.566 -95.8984 72.1191 -95.8984 C 38.623 -95.8984 11.2793 -68.5547 11.2793 -35.1074 C 11.2793 -1.61133 38.623 25.7324 72.1191 25.7324 Z M 58.4473 -8.39844 C 57.666 -8.39844 56.9824 -8.88672 56.9824 -9.81445 L 56.9824 -22.0215 L 33.1055 -22.0215 C 31.4941 -22.0215 30.3711 -22.8027 30.3711 -24.2676 C 30.3711 -24.8047 30.6152 -25.5859 30.8594 -25.9766 C 35.9863 -33.4961 49.0723 -53.125 54.3945 -60.791 C 55.4199 -62.207 56.25 -62.5977 57.5684 -62.5977 C 58.9355 -62.5977 59.9121 -61.7676 59.9121 -60.3516 L 59.9121 -24.9023 L 67.6758 -24.9023 C 68.5059 -24.9023 69.0918 -24.2676 69.0918 -23.4375 C 69.0918 -22.6074 68.6035 -22.0215 67.6758 -22.0215 L 59.9121 -22.0215 L 59.9121 -9.81445 C 59.9121 -8.88672 59.3262 -8.39844 58.4473 -8.39844 Z M 94.8242 -7.95898 C 88.6719 -7.95898 83.0078 -11.6211 80.7129 -15.0391 C 80.0293 -16.0156 79.541 -17.1875 79.541 -18.1641 C 79.541 -18.8965 80.0293 -19.5312 80.8594 -19.5312 C 81.7871 -19.5312 82.0801 -18.8965 82.5195 -17.9688 C 84.4727 -13.623 89.4043 -10.8398 94.9219 -10.8398 C 105.664 -10.8398 111.768 -19.7754 111.768 -38.3301 L 111.719 -38.3301 C 108.74 -31.3965 102.783 -27.7832 94.873 -27.7832 C 84.8633 -27.7832 77.7344 -35.5469 77.7344 -45.1172 C 77.7344 -55.1758 85.498 -62.5977 95.8008 -62.5977 C 106.787 -62.5977 114.551 -54.9316 114.551 -38.8672 C 114.551 -17.8711 107.666 -7.95898 94.8242 -7.95898 Z M 95.6055 -30.5664 C 104.248 -30.5664 110.693 -36.9141 110.693 -45.166 C 110.693 -53.5156 104.15 -59.668 95.752 -59.668 C 87.1094 -59.668 80.6641 -53.6621 80.6641 -45.3613 C 80.6641 -36.9141 86.8652 -30.5664 95.6055 -30.5664 Z M 56.9824 -24.9023 L 56.9824 -59.1309 L 56.8359 -59.1309 C 52.7832 -53.4668 37.4512 -30.957 33.7891 -25.0488 L 33.7891 -24.9023 Z"/>
  </g>
  <g id="Black-M" transform="matrix(1 0 0 1 2870.97 1126)">
   <path d="M 62.4023 18.457 C 91.9922 18.457 116.113 -5.61523 116.113 -35.2051 C 116.113 -64.7949 91.9922 -88.8672 62.4023 -88.8672 C 32.8125 -88.8672 8.74023 -64.7949 8.74023 -35.2051 C 8.74023 -5.61523 32.8125 18.457 62.4023 18.457 Z M 53.3203 -16.2109 C 50.5859 -16.2109 48.7305 -18.0176 48.7305 -20.6543 L 48.7305 -22.998 L 40.9668 -22.998 C 36.8164 -22.998 34.7168 -25.2441 34.7168 -29.1504 C 34.7168 -31.5918 35.4004 -33.8379 35.9863 -35.8398 C 36.9629 -38.9648 39.1602 -44.5801 40.8691 -48.291 C 42.8711 -52.3926 45.6055 -54.2969 50.1465 -54.2969 C 55.4199 -54.2969 57.8613 -51.2207 57.8613 -46.1426 L 57.8613 -31.8848 L 58.3496 -31.8848 C 60.9863 -31.8848 62.4023 -30.0781 62.4023 -27.3926 C 62.4023 -24.7559 60.9863 -23.1445 58.3496 -23.1445 L 57.8613 -23.1445 L 57.8613 -20.6543 C 57.8613 -18.0176 56.0547 -16.2109 53.3203 -16.2109 Z M 76.8555 -16.2109 C 71.4355 -16.2109 68.0176 -18.4082 66.6992 -20.8984 C 66.1133 -22.0215 65.8203 -23.0469 65.8203 -23.9746 C 65.8203 -26.2695 67.5293 -28.0273 70.166 -28.0273 C 71.2402 -28.0273 72.5586 -27.5391 73.8281 -26.3184 C 74.707 -25.4395 75.4883 -25.0977 76.7578 -25.0977 C 80.6641 -25.0977 81.4453 -30.3223 81.4941 -34.3262 L 81.3477 -34.3262 C 80.4199 -31.25 77.9297 -29.7363 74.6582 -29.7363 C 68.457 -29.7363 64.6973 -34.4238 64.6973 -41.2109 C 64.6973 -49.4141 69.9219 -54.2969 77.3926 -54.2969 C 86.8164 -54.2969 90.918 -47.168 90.918 -36.4258 C 90.918 -23.7305 85.9863 -16.2109 76.8555 -16.2109 Z M 77.5391 -37.8906 C 79.4434 -37.8906 80.7617 -39.4531 80.7617 -41.7969 C 80.7617 -44.1406 79.4434 -45.6543 77.5391 -45.6543 C 75.8789 -45.6543 74.5605 -44.0918 74.5605 -41.7969 C 74.5605 -39.4531 75.8789 -37.8906 77.5391 -37.8906 Z M 48.7305 -31.7871 L 48.7305 -44.7266 L 48.584 -44.7266 C 47.3633 -41.3086 45.4102 -34.8633 44.4824 -31.9824 L 44.4824 -31.7871 Z"/>
  </g>
  <g id="Heavy-M" transform="matrix(1 0 0 1 2575.19 1126)">
   <path d="M 61.5234 17.5781 C 90.5273 17.5781 114.258 -6.15234 114.258 -35.2051 C 114.258 -64.2578 90.5273 -87.9883 61.4746 -87.9883 C 32.4707 -87.9883 8.74023 -64.2578 8.74023 -35.2051 C 8.74023 -6.15234 32.4707 17.5781 61.5234 17.5781 Z M 51.9531 -15.5273 C 49.4629 -15.5273 47.7539 -17.2363 47.7539 -19.7266 L 47.7539 -22.9492 L 38.2812 -22.9492 C 34.5215 -22.9492 32.4707 -25.0488 32.4707 -28.6621 C 32.4707 -30.8594 33.0566 -32.8613 33.7402 -34.7656 C 35.2539 -38.5742 38.1836 -44.9707 40.5273 -49.5117 C 42.4316 -53.2715 44.9219 -55.0293 49.1211 -55.0293 C 53.8574 -55.0293 56.2012 -52.2461 56.2012 -47.6562 L 56.2012 -31.1035 L 57.2266 -31.1035 C 59.668 -31.1035 61.0352 -29.4434 61.0352 -26.9531 C 61.0352 -24.5117 59.668 -23.0469 57.2266 -23.0469 L 56.2012 -23.0469 L 56.2012 -19.7266 C 56.2012 -17.2363 54.5898 -15.5273 51.9531 -15.5273 Z M 76.6113 -15.4785 C 70.752 -15.4785 67.1875 -18.1152 65.9668 -20.6543 C 65.4785 -21.6797 65.2344 -22.6074 65.2344 -23.4863 C 65.2344 -25.6348 66.748 -27.2949 69.1406 -27.2949 C 70.3125 -27.2949 71.5332 -26.7578 72.7051 -25.4883 C 73.6816 -24.3164 74.8047 -23.6816 76.4648 -23.6816 C 80.8594 -23.6816 82.373 -29.1016 82.4219 -34.5703 L 82.2266 -34.5703 C 81.1523 -31.3965 78.4668 -29.541 74.6582 -29.541 C 68.3594 -29.541 64.0625 -34.2773 64.0625 -41.5039 C 64.0625 -49.9023 69.3848 -55.0293 77.0996 -55.0293 C 86.6211 -55.0293 91.0156 -47.8516 91.0156 -36.5234 C 91.0156 -23.1445 85.9863 -15.4785 76.6113 -15.4785 Z M 77.3438 -37.0117 C 79.8828 -37.0117 81.6895 -39.0625 81.6895 -42.041 C 81.6895 -45.0684 79.8828 -47.1191 77.3438 -47.1191 C 74.9023 -47.1191 73.0957 -45.0684 73.0957 -42.041 C 73.0957 -39.0625 74.9023 -37.0117 77.3438 -37.0117 Z M 47.7539 -31.0059 L 47.7539 -46.0938 L 47.6074 -46.0938 C 45.7031 -41.7969 42.9688 -34.7656 41.5039 -31.2012 L 41.5039 -31.0059 Z"/>
  </g>
  <g id="Bold-M" transform="matrix(1 0 0 1 2279.5 1126)">
   <path d="M 60.498 16.5039 C 88.8672 16.5039 112.207 -6.78711 112.207 -35.2051 C 112.207 -63.623 88.8672 -86.9629 60.4492 -86.9629 C 32.0312 -86.9629 8.74023 -63.623 8.74023 -35.2051 C 8.74023 -6.78711 32.0801 16.5039 60.498 16.5039 Z M 50.4883 -14.7461 C 48.1445 -14.7461 46.6797 -16.3574 46.6797 -18.6523 L 46.6797 -22.8516 L 35.3027 -22.8516 C 31.9336 -22.8516 29.9805 -24.8047 29.9805 -28.125 C 29.9805 -30.0293 30.4688 -31.7383 31.2012 -33.5449 C 33.3984 -38.1836 37.1094 -45.4102 40.1367 -50.8789 C 41.9434 -54.2969 44.1895 -55.8105 47.9492 -55.8105 C 52.0996 -55.8105 54.3457 -53.3203 54.3457 -49.3164 L 54.3457 -30.1758 L 55.957 -30.1758 C 58.2031 -30.1758 59.4727 -28.7598 59.4727 -26.5137 C 59.4727 -24.2676 58.2031 -22.9492 55.957 -22.9492 L 54.3457 -22.9492 L 54.3457 -18.6523 C 54.3457 -16.3574 52.9297 -14.7461 50.4883 -14.7461 Z M 76.2695 -14.6973 C 70.0195 -14.6973 66.2109 -17.7734 65.1855 -20.4102 C 64.7949 -21.2891 64.5508 -22.168 64.5508 -22.9004 C 64.5508 -24.9512 65.918 -26.416 68.0664 -26.416 C 69.2871 -26.416 70.4102 -25.9277 71.4355 -24.5605 C 72.5098 -22.998 74.0723 -22.0703 76.1719 -22.0703 C 81.0547 -22.0703 83.4473 -27.7344 83.4473 -34.8145 L 83.2031 -34.8145 C 82.0312 -31.543 79.1016 -29.2969 74.6582 -29.2969 C 68.2129 -29.2969 63.3789 -34.082 63.3789 -41.8457 C 63.3789 -50.4883 68.7988 -55.8105 76.8066 -55.8105 C 86.3281 -55.8105 91.1621 -48.6328 91.1621 -36.5723 C 91.1621 -22.5098 85.9375 -14.6973 76.2695 -14.6973 Z M 77.0996 -35.9863 C 80.4199 -35.9863 82.7637 -38.5742 82.7637 -42.2852 C 82.7637 -46.0938 80.4199 -48.7305 77.0996 -48.7305 C 73.8281 -48.7305 71.5332 -46.1426 71.5332 -42.334 C 71.5332 -38.5742 73.8281 -35.9863 77.0996 -35.9863 Z M 46.6797 -30.127 L 46.6797 -47.6074 L 46.4844 -47.6074 C 43.8477 -42.3828 40.2344 -34.668 38.2324 -30.3223 L 38.2324 -30.127 Z"/>
  </g>
  <g id="Semibold-M" transform="matrix(1 0 0 1 1983.5 1126)">
   <path d="M 59.7656 15.8203 C 87.7441 15.8203 110.791 -7.22656 110.791 -35.2051 C 110.791 -63.1836 87.6953 -86.2793 59.7656 -86.2793 C 31.7871 -86.2793 8.74023 -63.1836 8.74023 -35.2051 C 8.74023 -7.22656 31.7871 15.8203 59.7656 15.8203 Z M 49.4629 -14.209 C 47.2656 -14.209 45.9473 -15.7715 45.9473 -17.9688 L 45.9473 -22.8027 L 33.252 -22.8027 C 30.1758 -22.8027 28.2715 -24.6582 28.2715 -27.7832 C 28.2715 -29.4922 28.7109 -30.957 29.4922 -32.7148 C 32.1289 -37.8906 36.377 -45.7031 39.8438 -51.8066 C 41.6016 -55.0293 43.7012 -56.3965 47.168 -56.3965 C 50.8789 -56.3965 53.0762 -54.1016 53.0762 -50.4883 L 53.0762 -29.541 L 55.127 -29.541 C 57.1777 -29.541 58.3984 -28.2715 58.3984 -26.1719 C 58.3984 -24.0723 57.1777 -22.8516 55.127 -22.8516 L 53.0762 -22.8516 L 53.0762 -17.9688 C 53.0762 -15.7227 51.7578 -14.209 49.4629 -14.209 Z M 76.0742 -14.1602 C 69.4824 -14.1602 65.5762 -17.5293 64.5996 -20.2637 C 64.3066 -21.0449 64.0625 -21.8262 64.0625 -22.5098 C 64.0625 -24.4629 65.3809 -25.8789 67.2852 -25.8789 C 68.5547 -25.8789 69.6289 -25.3418 70.6055 -23.9258 C 71.7285 -22.1191 73.5352 -20.9961 75.9766 -20.9961 C 81.25 -20.9961 84.1797 -26.7578 84.1309 -35.0098 L 83.8867 -35.0098 C 82.6172 -31.6406 79.541 -29.1016 74.707 -29.1016 C 68.1641 -29.1016 62.8906 -33.9844 62.8906 -42.0898 C 62.8906 -50.8789 68.3594 -56.3965 76.6113 -56.3965 C 86.1816 -56.3965 91.2598 -49.1699 91.2598 -36.6211 C 91.2598 -22.0215 85.9375 -14.1602 76.0742 -14.1602 Z M 76.9531 -35.3027 C 80.8105 -35.3027 83.4961 -38.2812 83.4961 -42.4805 C 83.4961 -46.7773 80.7617 -49.8047 76.9531 -49.8047 C 73.0469 -49.8047 70.4102 -46.9238 70.4102 -42.5293 C 70.4102 -38.2812 73.0957 -35.3027 76.9531 -35.3027 Z M 45.9473 -29.541 L 45.9473 -48.6328 L 45.7031 -48.6328 C 42.5293 -42.7734 38.3301 -34.6191 35.9863 -29.7363 L 35.9863 -29.541 Z"/>
  </g>
  <g id="Medium-M" transform="matrix(1 0 0 1 1687.3 1126)">
   <path d="M 59.2285 15.2832 C 86.9141 15.2832 109.766 -7.56836 109.766 -35.2051 C 109.766 -62.8906 86.8652 -85.7422 59.1797 -85.7422 C 31.543 -85.7422 8.74023 -62.8906 8.74023 -35.2051 C 8.74023 -7.56836 31.5918 15.2832 59.2285 15.2832 Z M 48.7305 -13.7695 C 46.582 -13.7695 45.3613 -15.332 45.3613 -17.4316 L 45.3613 -22.8027 L 31.6895 -22.8027 C 28.8086 -22.8027 27.002 -24.5117 27.002 -27.4902 C 27.002 -29.0527 27.3438 -30.3711 28.1738 -32.0312 C 31.1523 -37.6465 35.791 -45.8984 39.6484 -52.4902 C 41.3574 -55.5176 43.3105 -56.7871 46.582 -56.7871 C 50 -56.7871 52.1484 -54.6875 52.1484 -51.3672 L 52.1484 -29.1016 L 54.4922 -29.1016 C 56.3965 -29.1016 57.5684 -27.8809 57.5684 -25.9277 C 57.5684 -23.9746 56.3965 -22.8027 54.4922 -22.8027 L 52.1484 -22.8027 L 52.1484 -17.4316 C 52.1484 -15.2832 50.9277 -13.7695 48.7305 -13.7695 Z M 75.8789 -13.7207 C 69.0918 -13.7207 65.0879 -17.3828 64.1602 -20.1172 C 63.916 -20.8496 63.7207 -21.582 63.7207 -22.2168 C 63.7207 -24.0723 64.9414 -25.4395 66.6992 -25.4395 C 67.9688 -25.4395 69.043 -24.9023 69.9219 -23.4863 C 71.0938 -21.4844 73.1445 -20.166 75.8301 -20.166 C 81.3477 -20.166 84.7168 -26.0742 84.668 -35.1562 L 84.375 -35.1562 C 83.1055 -31.7383 79.8828 -29.0039 74.707 -29.0039 C 68.0664 -29.0039 62.5 -33.8867 62.5 -42.2852 C 62.5 -51.1719 68.0664 -56.7871 76.4648 -56.7871 C 86.0352 -56.7871 91.3086 -49.6094 91.3086 -36.6699 C 91.3086 -21.6797 85.9375 -13.7207 75.8789 -13.7207 Z M 76.8066 -34.7656 C 81.0547 -34.7656 84.082 -38.0371 84.082 -42.5781 C 84.082 -47.3145 81.0059 -50.6836 76.8555 -50.6836 C 72.4609 -50.6836 69.5801 -47.5098 69.5801 -42.6758 C 69.5801 -38.0371 72.5098 -34.7656 76.8066 -34.7656 Z M 45.3613 -29.0527 L 45.3613 -49.4141 L 45.1172 -49.4141 C 41.5527 -43.0664 36.9141 -34.5703 34.2285 -29.2969 L 34.2285 -29.0527 Z"/>
  </g>
  <g id="Regular-M" transform="matrix(1 0 0 1 1391.3 1126)">
   <path d="M 58.5449 14.5508 C 85.791 14.5508 108.35 -8.00781 108.35 -35.2539 C 108.35 -62.4512 85.7422 -85.0586 58.4961 -85.0586 C 31.2988 -85.0586 8.74023 -62.4512 8.74023 -35.2539 C 8.74023 -8.00781 31.3477 14.5508 58.5449 14.5508 Z M 47.7051 -13.2324 C 45.7031 -13.2324 44.6289 -14.6973 44.6289 -16.6992 L 44.6289 -22.7539 L 29.6875 -22.7539 C 27.0508 -22.7539 25.293 -24.3652 25.293 -27.1484 C 25.293 -28.5156 25.5859 -29.6387 26.416 -31.2012 C 29.8828 -37.3535 35.0586 -46.1914 39.3555 -53.418 C 41.0156 -56.25 42.8223 -57.3242 45.752 -57.3242 C 48.7793 -57.3242 50.8789 -55.4199 50.8789 -52.5391 L 50.8789 -28.4668 L 53.6133 -28.4668 C 55.4199 -28.4668 56.543 -27.4414 56.543 -25.5859 C 56.543 -23.7793 55.4199 -22.7539 53.6133 -22.7539 L 50.8789 -22.7539 L 50.8789 -16.6992 C 50.8789 -14.6484 49.8047 -13.2324 47.7051 -13.2324 Z M 75.6836 -13.1836 C 68.6035 -13.1836 64.4531 -17.1387 63.623 -19.9707 C 63.4277 -20.6055 63.2324 -21.2891 63.2324 -21.8262 C 63.2324 -23.584 64.3555 -24.8535 65.918 -24.8535 C 67.2852 -24.8535 68.2617 -24.3164 69.0918 -22.8516 C 70.3125 -20.6055 72.6562 -19.043 75.5859 -19.043 C 81.4941 -19.043 85.4492 -25.1465 85.3516 -35.3516 L 85.0586 -35.3516 C 83.6914 -31.8359 80.3223 -28.8086 74.707 -28.8086 C 68.0176 -28.8086 62.0117 -33.7402 62.0117 -42.5293 C 62.0117 -51.5625 67.6758 -57.3242 76.2695 -57.3242 C 85.8398 -57.3242 91.4062 -50.1465 91.4062 -36.7188 C 91.4062 -21.2402 85.8887 -13.1836 75.6836 -13.1836 Z M 76.6602 -34.082 C 81.4453 -34.082 84.7656 -37.6953 84.7656 -42.7734 C 84.7656 -47.998 81.3965 -51.7578 76.6602 -51.7578 C 71.7285 -51.7578 68.5059 -48.2422 68.5059 -42.8711 C 68.5059 -37.6953 71.7773 -34.082 76.6602 -34.082 Z M 44.6289 -28.4668 L 44.6289 -50.4395 L 44.3848 -50.4395 C 40.2832 -43.457 35.0098 -34.4727 32.0312 -28.7109 L 32.0312 -28.4668 Z"/>
  </g>
  <g id="Light-M" transform="matrix(1 0 0 1 1095.42 1126)">
   <path d="M 57.7148 13.7695 C 84.5215 13.7695 106.689 -8.39844 106.689 -35.2051 C 106.689 -62.0117 84.5215 -84.1797 57.666 -84.1797 C 30.8594 -84.1797 8.74023 -62.0117 8.74023 -35.2051 C 8.74023 -8.39844 30.9082 13.7695 57.7148 13.7695 Z M 46.9727 -13.623 C 45.3613 -13.623 44.4824 -14.7461 44.4824 -16.3574 L 44.4824 -23.4375 L 28.418 -23.4375 C 26.2207 -23.4375 24.7559 -24.7559 24.7559 -27.002 C 24.7559 -28.0762 25 -29.0527 25.6348 -30.2246 C 29.248 -36.2793 35.9863 -47.1191 40.2344 -53.9062 C 41.6016 -56.2012 43.0664 -57.0801 45.4102 -57.0801 C 47.8027 -57.0801 49.5117 -55.5176 49.5117 -53.1738 L 49.5117 -28.0762 L 53.2715 -28.0762 C 54.6875 -28.0762 55.6152 -27.1973 55.6152 -25.7324 C 55.6152 -24.2676 54.7363 -23.4375 53.2715 -23.4375 L 49.5117 -23.4375 L 49.5117 -16.3574 C 49.5117 -14.6973 48.6328 -13.623 46.9727 -13.623 Z M 75 -13.4766 C 68.6523 -13.4766 64.4043 -17.0898 63.2812 -19.8242 C 62.9883 -20.5078 62.7441 -21.2891 62.7441 -21.875 C 62.7441 -23.291 63.623 -24.3164 64.9414 -24.3164 C 66.0645 -24.3164 66.8457 -23.7793 67.4805 -22.5586 C 68.8477 -19.9219 71.582 -18.2129 74.9512 -18.2129 C 81.6406 -18.2129 85.791 -24.5605 85.7422 -36.0352 L 85.5469 -36.0352 C 83.8379 -31.9336 80.127 -29.0039 74.3164 -29.0039 C 67.2852 -29.0039 61.4746 -34.2773 61.4746 -42.627 C 61.4746 -51.3184 67.2363 -57.0801 75.6348 -57.0801 C 84.9121 -57.0801 90.5762 -50.2441 90.5762 -37.1582 C 90.5762 -21.4355 85.1562 -13.4766 75 -13.4766 Z M 75.8301 -33.3008 C 81.25 -33.3008 85.1074 -37.3535 85.1074 -42.8223 C 85.1074 -48.4375 81.1523 -52.4902 75.9277 -52.4902 C 70.4102 -52.4902 66.6504 -48.6328 66.6504 -42.9199 C 66.6504 -37.3535 70.4102 -33.3008 75.8301 -33.3008 Z M 44.4824 -28.0762 L 44.4824 -51.4648 L 44.2871 -51.4648 C 40.4785 -45.3125 33.1543 -33.6914 30.2246 -28.2715 L 30.2246 -28.0762 Z"/>
  </g>
  <g id="Thin-M" transform="matrix(1 0 0 1 799.806 1126)">
   <path d="M 56.6406 12.7441 C 82.9102 12.7441 104.492 -8.83789 104.492 -35.1562 C 104.492 -61.4746 82.9102 -83.0566 56.5918 -83.0566 C 30.3223 -83.0566 8.74023 -61.4746 8.74023 -35.1562 C 8.74023 -8.83789 30.3223 12.7441 56.6406 12.7441 Z M 45.9961 -14.1113 C 44.9707 -14.1113 44.2871 -14.7949 44.2871 -15.8691 L 44.2871 -24.3652 L 26.7578 -24.3652 C 25.1465 -24.3652 24.0234 -25.2441 24.0234 -26.8555 C 24.0234 -27.5391 24.2676 -28.2715 24.6094 -28.9551 C 28.418 -34.8633 37.207 -48.291 41.3574 -54.5898 C 42.3828 -56.1523 43.3594 -56.6895 44.9219 -56.6895 C 46.5332 -56.6895 47.6562 -55.7129 47.6562 -54.1016 L 47.6562 -27.5879 L 52.7832 -27.5879 C 53.7598 -27.5879 54.3945 -26.9043 54.3945 -25.9277 C 54.3945 -24.9512 53.8086 -24.3652 52.7832 -24.3652 L 47.6562 -24.3652 L 47.6562 -15.8691 C 47.6562 -14.7949 47.0703 -14.1113 45.9961 -14.1113 Z M 74.1211 -13.8184 C 68.6523 -13.8184 64.3555 -16.9922 62.8418 -19.6777 C 62.4023 -20.4102 62.1094 -21.2402 62.1094 -21.9727 C 62.1094 -22.8516 62.6465 -23.584 63.5742 -23.584 C 64.4531 -23.584 64.9414 -23.0469 65.3809 -22.1191 C 66.8457 -19.0918 70.2148 -17.0898 74.1211 -17.0898 C 81.7871 -17.0898 86.2793 -23.7793 86.2793 -37.0117 L 86.1816 -37.0117 C 84.082 -32.1289 79.834 -29.2969 73.8281 -29.2969 C 66.4062 -29.2969 60.7422 -35.0098 60.7422 -42.7734 C 60.7422 -50.9277 66.6504 -56.6895 74.8047 -56.6895 C 83.6426 -56.6895 89.502 -50.3906 89.502 -37.6953 C 89.502 -21.6309 84.1309 -13.8184 74.1211 -13.8184 Z M 74.8047 -32.3242 C 80.957 -32.3242 85.498 -36.8652 85.498 -42.9199 C 85.498 -49.0234 80.9082 -53.5156 74.9023 -53.5156 C 68.7012 -53.5156 64.1602 -49.1699 64.1602 -43.0176 C 64.1602 -36.8652 68.5547 -32.3242 74.8047 -32.3242 Z M 44.2871 -27.5879 L 44.2871 -52.832 L 44.1406 -52.832 C 40.7227 -47.7051 30.7129 -32.6172 27.832 -27.7344 L 27.832 -27.5879 Z"/>
  </g>
  <g id="Ultralight-M" transform="matrix(1 0 0 1 503.656 1126)">
   <path d="M 56.0547 12.207 C 82.0801 12.207 103.369 -9.08203 103.369 -35.1562 C 103.369 -61.1816 82.0801 -82.4707 56.0547 -82.4707 C 30.0293 -82.4707 8.74023 -61.1816 8.74023 -35.1562 C 8.74023 -9.08203 30.0293 12.207 56.0547 12.207 Z M 45.459 -14.3555 C 44.7266 -14.3555 44.1895 -14.8438 44.1895 -15.625 L 44.1895 -24.8047 L 25.9277 -24.8047 C 24.6094 -24.8047 23.6816 -25.4883 23.6816 -26.7578 C 23.6816 -27.2461 23.877 -27.8809 24.0723 -28.2715 C 28.0273 -34.1309 37.8418 -48.877 41.9434 -54.9316 C 42.8223 -56.1523 43.5059 -56.4941 44.6777 -56.4941 C 45.8984 -56.4941 46.7285 -55.7617 46.7285 -54.541 L 46.7285 -27.3438 L 52.5391 -27.3438 C 53.2715 -27.3438 53.7598 -26.7578 53.7598 -26.0254 C 53.7598 -25.293 53.3203 -24.8047 52.5391 -24.8047 L 46.7285 -24.8047 L 46.7285 -15.625 C 46.7285 -14.8438 46.2402 -14.3555 45.459 -14.3555 Z M 73.6328 -14.0137 C 68.7012 -14.0137 64.3555 -16.9434 62.6465 -19.6289 C 62.1094 -20.3613 61.7676 -21.2402 61.7676 -21.9727 C 61.7676 -22.6562 62.1582 -23.1934 62.8906 -23.1934 C 63.623 -23.1934 63.9648 -22.7051 64.3066 -21.9238 C 65.8203 -18.6523 69.5312 -16.5039 73.7305 -16.5039 C 81.8359 -16.5039 86.5234 -23.3887 86.5234 -37.5 L 86.4746 -37.5 C 84.2285 -32.2266 79.7363 -29.3945 73.584 -29.3945 C 65.918 -29.3945 60.4004 -35.3516 60.4004 -42.8711 C 60.4004 -50.7812 66.3574 -56.4941 74.4141 -56.4941 C 82.959 -56.4941 88.9648 -50.4883 88.9648 -37.9395 C 88.9648 -21.7285 83.5938 -14.0137 73.6328 -14.0137 Z M 74.2676 -31.7871 C 80.8594 -31.7871 85.7422 -36.6211 85.7422 -42.9199 C 85.7422 -49.3164 80.7617 -54.0039 74.3652 -54.0039 C 67.8223 -54.0039 62.9395 -49.4141 62.9395 -43.0664 C 62.9395 -36.6211 67.627 -31.7871 74.2676 -31.7871 Z M 44.1895 -27.3438 L 44.1895 -53.5156 L 44.0918 -53.5156 C 40.8691 -48.9258 29.4434 -32.0801 26.6113 -27.4414 L 26.6113 -27.3438 Z"/>
  </g>
  <g id="Black-S" transform="matrix(1 0 0 1 2884.57 696)">
   <path d="M 48.8281 6.78711 C 71.9727 6.78711 90.8203 -12.0605 90.8203 -35.2051 C 90.8203 -58.3496 71.9727 -77.1973 48.8281 -77.1973 C 25.6836 -77.1973 6.83594 -58.3496 6.83594 -35.2051 C 6.83594 -12.0605 25.6836 6.78711 48.8281 6.78711 Z M 41.6504 -20.2637 C 39.5508 -20.2637 38.0859 -21.6797 38.0859 -23.7305 L 38.0859 -25.6348 L 31.8848 -25.6348 C 28.6621 -25.6348 27.002 -27.3926 27.002 -30.4199 C 27.002 -32.3242 27.5391 -34.082 28.0273 -35.6445 C 28.8086 -38.1348 30.5664 -42.5781 31.9824 -45.5566 C 33.5449 -48.7305 35.6445 -50.2441 39.209 -50.2441 C 43.3105 -50.2441 45.2148 -47.8516 45.2148 -43.8965 L 45.2148 -32.5684 L 45.6055 -32.5684 C 47.6562 -32.5684 48.7793 -31.1523 48.7793 -29.0527 C 48.7793 -27.002 47.6562 -25.7324 45.6055 -25.7324 L 45.2148 -25.7324 L 45.2148 -23.7305 C 45.2148 -21.6797 43.7988 -20.2637 41.6504 -20.2637 Z M 60.2051 -20.2637 C 55.9082 -20.2637 53.2227 -22.0215 52.1973 -23.9746 C 51.7578 -24.8535 51.5137 -25.6348 51.5137 -26.3672 C 51.5137 -28.1738 52.832 -29.541 54.8828 -29.541 C 55.7617 -29.541 56.7871 -29.1504 57.7637 -28.1738 C 58.4473 -27.4902 59.082 -27.1973 60.1074 -27.1973 C 63.1836 -27.1973 63.8672 -31.2988 63.916 -34.5215 L 63.7695 -34.5215 C 63.0371 -32.1289 61.084 -30.9082 58.4961 -30.9082 C 53.6133 -30.9082 50.6348 -34.5703 50.6348 -39.9414 C 50.6348 -46.3867 54.7363 -50.2441 60.5957 -50.2441 C 68.0176 -50.2441 71.2402 -44.6289 71.2402 -36.1816 C 71.2402 -26.1719 67.3828 -20.2637 60.2051 -20.2637 Z M 60.7422 -37.2559 C 62.2559 -37.2559 63.3301 -38.5254 63.3301 -40.3809 C 63.3301 -42.2852 62.2559 -43.5059 60.7422 -43.5059 C 59.375 -43.5059 58.3008 -42.2363 58.3008 -40.3809 C 58.3008 -38.5254 59.375 -37.2559 60.7422 -37.2559 Z M 38.0859 -32.4707 L 38.0859 -42.7734 L 37.9883 -42.7734 C 36.9629 -39.9902 35.4004 -34.9609 34.6191 -32.6172 L 34.6191 -32.4707 Z"/>
  </g>
  <g id="Heavy-S" transform="matrix(1 0 0 1 2588.47 696)">
   <path d="M 48.2422 6.15234 C 70.9961 6.15234 89.5996 -12.4512 89.5996 -35.2051 C 89.5996 -57.959 70.9961 -76.6113 48.1934 -76.6113 C 25.4395 -76.6113 6.83594 -57.959 6.83594 -35.2051 C 6.83594 -12.4512 25.4395 6.15234 48.2422 6.15234 Z M 40.7227 -19.6777 C 38.7207 -19.6777 37.3535 -21.0938 37.3535 -23.0469 L 37.3535 -25.4883 L 29.9805 -25.4883 C 27.002 -25.4883 25.3906 -27.1973 25.3906 -30.0781 C 25.3906 -31.8359 25.8301 -33.3984 26.3672 -34.9121 C 27.5879 -37.9883 29.7363 -42.7734 31.5918 -46.4355 C 33.1543 -49.4141 35.1074 -50.8301 38.4766 -50.8301 C 42.2363 -50.8301 44.0918 -48.584 44.0918 -44.9707 L 44.0918 -31.9824 L 44.7754 -31.9824 C 46.7285 -31.9824 47.8027 -30.7129 47.8027 -28.7109 C 47.8027 -26.7578 46.7285 -25.5859 44.7754 -25.5859 L 44.0918 -25.5859 L 44.0918 -23.0469 C 44.0918 -21.0938 42.8223 -19.6777 40.7227 -19.6777 Z M 60.0586 -19.6777 C 55.3711 -19.6777 52.5879 -21.7773 51.6602 -23.8281 C 51.3184 -24.6094 51.123 -25.3418 51.123 -25.9766 C 51.123 -27.7344 52.3438 -29.0039 54.248 -29.0039 C 55.1758 -29.0039 56.1523 -28.6133 57.0801 -27.5879 C 57.8125 -26.6602 58.6914 -26.2207 59.9609 -26.2207 C 63.3301 -26.2207 64.5508 -30.4199 64.5508 -34.6191 L 64.4043 -34.6191 C 63.623 -32.2266 61.5234 -30.7129 58.5449 -30.7129 C 53.6133 -30.7129 50.1953 -34.375 50.1953 -40.1855 C 50.1953 -46.8262 54.3945 -50.8301 60.4492 -50.8301 C 67.9688 -50.8301 71.4355 -45.166 71.4355 -36.1816 C 71.4355 -25.6836 67.4316 -19.6777 60.0586 -19.6777 Z M 60.6445 -36.6699 C 62.6465 -36.6699 64.0137 -38.2324 64.0137 -40.5762 C 64.0137 -42.9199 62.6465 -44.5312 60.6445 -44.5312 C 58.7891 -44.5312 57.4219 -42.9199 57.4219 -40.5762 C 57.4219 -38.2324 58.7891 -36.6699 60.6445 -36.6699 Z M 37.3535 -31.9336 L 37.3535 -43.7012 L 37.2559 -43.7012 C 35.6445 -40.1855 33.7402 -34.9609 32.5684 -32.0801 L 32.5684 -31.9336 Z"/>
  </g>
  <g id="Bold-S" transform="matrix(1 0 0 1 2292.44 696)">
   <path d="M 47.5586 5.46875 C 69.873 5.46875 88.2324 -12.8906 88.2324 -35.2051 C 88.2324 -57.5684 69.873 -75.9277 47.5098 -75.9277 C 25.1953 -75.9277 6.83594 -57.5684 6.83594 -35.2051 C 6.83594 -12.8906 25.1953 5.46875 47.5586 5.46875 Z M 39.6973 -19.043 C 37.7441 -19.043 36.5723 -20.4102 36.5723 -22.3145 L 36.5723 -25.3906 L 27.8809 -25.3906 C 25.1465 -25.3906 23.5352 -26.9531 23.5352 -29.6875 C 23.5352 -31.25 23.9258 -32.6172 24.5605 -34.082 C 26.2695 -37.793 28.7598 -42.9688 31.2012 -47.4121 C 32.666 -50.1953 34.5215 -51.4648 37.5977 -51.4648 C 40.9668 -51.4648 42.8711 -49.4141 42.8711 -46.1914 L 42.8711 -31.3477 L 43.8965 -31.3477 C 45.7031 -31.3477 46.7773 -30.1758 46.7773 -28.3203 C 46.7773 -26.5137 45.7031 -25.4395 43.8965 -25.4395 L 42.8711 -25.4395 L 42.8711 -22.3145 C 42.8711 -20.4102 41.6992 -19.043 39.6973 -19.043 Z M 59.9121 -19.043 C 54.834 -19.043 51.8555 -21.5332 51.0742 -23.6328 C 50.8301 -24.3164 50.6348 -24.9512 50.6348 -25.5371 C 50.6348 -27.2461 51.8066 -28.4668 53.5156 -28.4668 C 54.541 -28.4668 55.4688 -28.0273 56.2988 -26.9531 C 57.1289 -25.7812 58.252 -25.0977 59.8145 -25.0977 C 63.4766 -25.0977 65.332 -29.4434 65.2832 -34.7656 L 65.0879 -34.7656 C 64.2578 -32.3242 62.0605 -30.5176 58.5938 -30.5176 C 53.6133 -30.5176 49.7559 -34.1797 49.7559 -40.4297 C 49.7559 -47.2656 53.9551 -51.4648 60.3516 -51.4648 C 67.8711 -51.4648 71.6309 -45.752 71.6309 -36.1816 C 71.6309 -25.1953 67.5293 -19.043 59.9121 -19.043 Z M 60.5957 -35.9863 C 63.0859 -35.9863 64.7949 -37.9395 64.7949 -40.7715 C 64.7949 -43.6523 63.0371 -45.6543 60.5957 -45.6543 C 58.1055 -45.6543 56.4453 -43.75 56.4453 -40.7715 C 56.4453 -37.9395 58.1543 -35.9863 60.5957 -35.9863 Z M 36.5723 -31.2988 L 36.5723 -44.7266 L 36.377 -44.7266 C 34.2285 -40.3809 31.8848 -35.0098 30.2734 -31.4453 L 30.2734 -31.2988 Z"/>
  </g>
  <g id="Semibold-S" transform="matrix(1 0 0 1 1996.2 696)">
   <path d="M 47.0703 4.98047 C 69.0918 4.98047 87.3047 -13.1836 87.3047 -35.2539 C 87.3047 -57.2754 69.0918 -75.4883 47.0215 -75.4883 C 25 -75.4883 6.83594 -57.2754 6.83594 -35.2539 C 6.83594 -13.1836 25.0488 4.98047 47.0703 4.98047 Z M 38.9648 -18.6035 C 37.1094 -18.6035 35.9863 -19.9707 35.9863 -21.7773 L 35.9863 -25.293 L 26.416 -25.293 C 23.8281 -25.293 22.2656 -26.8066 22.2656 -29.3945 C 22.2656 -30.8594 22.6074 -32.0801 23.291 -33.5449 C 25.293 -37.6465 28.125 -43.1152 30.9082 -48.0957 C 32.373 -50.7812 34.1309 -51.9043 37.0605 -51.9043 C 40.1367 -51.9043 41.9922 -50 41.9922 -47.0215 L 41.9922 -30.9082 L 43.2617 -30.9082 C 44.9707 -30.9082 45.9961 -29.834 45.9961 -28.0762 C 45.9961 -26.3184 44.9707 -25.293 43.2617 -25.293 L 41.9922 -25.293 L 41.9922 -21.7773 C 41.9922 -19.9219 40.918 -18.6035 38.9648 -18.6035 Z M 59.8145 -18.6035 C 54.3945 -18.6035 51.3672 -21.3867 50.6836 -23.5352 C 50.4883 -24.1211 50.3418 -24.7559 50.3418 -25.2441 C 50.3418 -26.8555 51.416 -28.0273 53.0273 -28.0273 C 54.0527 -28.0273 54.9805 -27.6367 55.8105 -26.4648 C 56.6406 -25.1465 57.959 -24.3164 59.7168 -24.3164 C 63.5742 -24.3164 65.8203 -28.7598 65.7715 -34.8145 L 65.5762 -34.8145 C 64.6973 -32.373 62.4023 -30.3711 58.6426 -30.3711 C 53.6133 -30.3711 49.4141 -34.082 49.4141 -40.5762 C 49.4141 -47.6074 53.7109 -51.9043 60.2051 -51.9043 C 67.8223 -51.9043 71.7773 -46.1426 71.7773 -36.1816 C 71.7773 -24.8047 67.5781 -18.6035 59.8145 -18.6035 Z M 60.5469 -35.498 C 63.3789 -35.498 65.332 -37.7441 65.332 -40.8691 C 65.332 -44.1406 63.3301 -46.4355 60.5469 -46.4355 C 57.6172 -46.4355 55.7617 -44.2871 55.7617 -40.918 C 55.7617 -37.7441 57.7148 -35.498 60.5469 -35.498 Z M 35.9863 -30.8594 L 35.9863 -45.4102 L 35.791 -45.4102 C 33.2031 -40.5273 30.5664 -35.0098 28.7109 -31.0547 L 28.7109 -30.8594 Z"/>
  </g>
  <g id="Medium-S" transform="matrix(1 0 0 1 1699.83 696)">
   <path d="M 46.7285 4.63867 C 68.5547 4.63867 86.6211 -13.4277 86.6211 -35.2539 C 86.6211 -57.0312 68.5059 -75.1465 46.6797 -75.1465 C 24.8535 -75.1465 6.83594 -57.0312 6.83594 -35.2539 C 6.83594 -13.4277 24.9023 4.63867 46.7285 4.63867 Z M 38.4277 -18.2617 C 36.5723 -18.2617 35.5957 -19.5801 35.5957 -21.3867 L 35.5957 -25.1953 L 25.293 -25.1953 C 22.8516 -25.1953 21.3379 -26.6602 21.3379 -29.1992 C 21.3379 -30.5664 21.6309 -31.6406 22.3145 -33.1055 C 24.6094 -37.5488 27.6367 -43.2617 30.7129 -48.584 C 32.1289 -51.1719 33.8379 -52.2461 36.6211 -52.2461 C 39.502 -52.2461 41.3574 -50.4395 41.3574 -47.6074 L 41.3574 -30.5664 L 42.7734 -30.5664 C 44.4336 -30.5664 45.459 -29.541 45.459 -27.8809 C 45.459 -26.1719 44.4336 -25.2441 42.7734 -25.2441 L 41.3574 -25.2441 L 41.3574 -21.3867 C 41.3574 -19.5801 40.332 -18.2617 38.4277 -18.2617 Z M 59.7168 -18.2617 C 54.1016 -18.2617 50.9766 -21.2402 50.3906 -23.4375 C 50.2441 -24.0234 50.0977 -24.5605 50.0977 -25 C 50.0977 -26.6113 51.123 -27.7344 52.6367 -27.7344 C 53.7109 -27.7344 54.6387 -27.3438 55.4199 -26.123 C 56.2988 -24.707 57.7148 -23.7305 59.6191 -23.7305 C 63.6719 -23.7305 66.2598 -28.2715 66.1621 -34.9121 L 65.918 -34.9121 C 65.0391 -32.4219 62.6465 -30.2734 58.6426 -30.2734 C 53.6133 -30.2734 49.1699 -33.9355 49.1699 -40.7227 C 49.1699 -47.8516 53.4668 -52.2461 60.1562 -52.2461 C 67.7734 -52.2461 71.875 -46.4355 71.875 -36.1816 C 71.875 -24.5605 67.627 -18.2617 59.7168 -18.2617 Z M 60.498 -35.1562 C 63.5742 -35.1562 65.7227 -37.5488 65.7227 -40.9668 C 65.7227 -44.5312 63.5742 -47.0215 60.498 -47.0215 C 57.2754 -47.0215 55.2246 -44.6777 55.2246 -41.0156 C 55.2246 -37.5488 57.373 -35.1562 60.498 -35.1562 Z M 35.5957 -30.5176 L 35.5957 -45.9473 L 35.3516 -45.9473 C 32.4707 -40.6738 29.5898 -35.0098 27.4902 -30.7129 L 27.4902 -30.5176 Z"/>
  </g>
  <g id="Regular-S" transform="matrix(1 0 0 1 1403.58 696)">
   <path d="M 46.2402 4.15039 C 67.7734 4.15039 85.6934 -13.7207 85.6934 -35.2539 C 85.6934 -56.7871 67.7246 -74.6582 46.1914 -74.6582 C 24.707 -74.6582 6.83594 -56.7871 6.83594 -35.2539 C 6.83594 -13.7207 24.7559 4.15039 46.2402 4.15039 Z M 37.7441 -17.8223 C 35.9375 -17.8223 35.0586 -19.1406 35.0586 -20.8984 L 35.0586 -25.0977 L 23.8281 -25.0977 C 21.582 -25.0977 20.0684 -26.5137 20.0684 -28.9551 C 20.0684 -30.1758 20.3125 -31.1035 21.0938 -32.5684 C 23.6816 -37.4512 27.002 -43.4082 30.4199 -49.2676 C 31.8359 -51.709 33.4473 -52.6855 36.0352 -52.6855 C 38.6719 -52.6855 40.5273 -50.9766 40.5273 -48.4375 L 40.5273 -30.127 L 42.1875 -30.127 C 43.75 -30.127 44.7266 -29.1992 44.7266 -27.5879 C 44.7266 -26.0254 43.75 -25.0977 42.1875 -25.0977 L 40.5273 -25.0977 L 40.5273 -20.8984 C 40.5273 -19.0918 39.5508 -17.8223 37.7441 -17.8223 Z M 59.6191 -17.8223 C 53.7109 -17.8223 50.4883 -21.0938 50 -23.3398 C 49.9023 -23.8281 49.7559 -24.3164 49.7559 -24.707 C 49.7559 -26.2695 50.7812 -27.3438 52.1484 -27.3438 C 53.2715 -27.3438 54.1504 -26.9043 54.8828 -25.6836 C 55.8105 -24.0723 57.4219 -22.9492 59.5215 -22.9492 C 63.7695 -22.9492 66.748 -27.5879 66.6504 -34.9609 L 66.4062 -34.9609 C 65.4785 -32.4707 62.9883 -30.127 58.6914 -30.127 C 53.6133 -30.127 48.8281 -33.8379 48.8281 -40.8691 C 48.8281 -48.1445 53.2227 -52.6855 60.0586 -52.6855 C 67.7246 -52.6855 71.9727 -46.8262 71.9727 -36.1816 C 71.9727 -24.2188 67.6758 -17.8223 59.6191 -17.8223 Z M 60.4004 -34.7168 C 63.8672 -34.7168 66.2598 -37.3535 66.2598 -41.1133 C 66.2598 -45.0195 63.8184 -47.8027 60.4492 -47.8027 C 56.8359 -47.8027 54.541 -45.2148 54.541 -41.1621 C 54.541 -37.3535 56.9336 -34.7168 60.4004 -34.7168 Z M 35.0586 -30.127 L 35.0586 -46.6309 L 34.8145 -46.6309 C 31.4941 -40.8203 28.3203 -35.0098 25.9277 -30.3223 L 25.9277 -30.127 Z"/>
  </g>
  <g id="Light-S" transform="matrix(1 0 0 1 1107.6 696)">
   <path d="M 45.5078 3.4668 C 66.6992 3.4668 84.2285 -14.0625 84.2285 -35.2051 C 84.2285 -56.3965 66.6504 -73.9258 45.5078 -73.9258 C 24.3164 -73.9258 6.83594 -56.3965 6.83594 -35.2051 C 6.83594 -14.0625 24.3652 3.4668 45.5078 3.4668 Z M 37.0605 -18.1641 C 35.6445 -18.1641 34.9121 -19.1895 34.9121 -20.5566 L 34.9121 -25.7324 L 22.7539 -25.7324 C 20.8496 -25.7324 19.5801 -26.8555 19.5801 -28.8574 C 19.5801 -29.7852 19.8242 -30.6152 20.3613 -31.6895 C 23.1445 -36.4746 27.832 -44.1895 31.1523 -49.707 C 32.373 -51.6602 33.6426 -52.4414 35.6934 -52.4414 C 37.8418 -52.4414 39.3066 -51.0742 39.3066 -49.0234 L 39.3066 -29.7852 L 41.8457 -29.7852 C 43.1152 -29.7852 43.8965 -29.0039 43.8965 -27.7344 C 43.8965 -26.4648 43.1152 -25.7324 41.8457 -25.7324 L 39.3066 -25.7324 L 39.3066 -20.5566 C 39.3066 -19.1406 38.5254 -18.1641 37.0605 -18.1641 Z M 59.0332 -18.0664 C 53.7598 -18.0664 50.4395 -21.0449 49.707 -23.2422 C 49.5117 -23.7305 49.3164 -24.3164 49.3164 -24.7559 C 49.3164 -25.9766 50.0977 -26.8555 51.2207 -26.8555 C 52.1973 -26.8555 52.8809 -26.4648 53.4668 -25.3906 C 54.4922 -23.4863 56.4941 -22.2168 58.9844 -22.2168 C 63.8672 -22.2168 67.0898 -27.0996 66.9922 -35.5957 L 66.7969 -35.5957 C 65.625 -32.6172 62.8418 -30.2734 58.3496 -30.2734 C 52.9785 -30.2734 48.3398 -34.2773 48.3398 -40.9668 C 48.3398 -47.9004 52.832 -52.4414 59.5215 -52.4414 C 66.8945 -52.4414 71.2891 -46.9238 71.2891 -36.5723 C 71.2891 -24.3652 66.9922 -18.0664 59.0332 -18.0664 Z M 59.7168 -34.0332 C 63.7207 -34.0332 66.5527 -37.0117 66.5527 -41.1621 C 66.5527 -45.4102 63.6719 -48.4863 59.7656 -48.4863 C 55.6641 -48.4863 52.8809 -45.5566 52.8809 -41.2109 C 52.8809 -37.0117 55.6641 -34.0332 59.7168 -34.0332 Z M 34.9121 -29.7852 L 34.9121 -47.5586 L 34.7168 -47.5586 C 31.6406 -42.4316 26.6602 -34.3262 24.3652 -29.9316 L 24.3652 -29.7852 Z"/>
  </g>
  <g id="Thin-S" transform="matrix(1 0 0 1 811.867 696)">
   <path d="M 44.5801 2.53906 C 65.2832 2.53906 82.2754 -14.4531 82.2754 -35.2051 C 82.2754 -55.9082 65.2344 -72.9004 44.5312 -72.9004 C 23.8281 -72.9004 6.83594 -55.9082 6.83594 -35.2051 C 6.83594 -14.4531 23.877 2.53906 44.5801 2.53906 Z M 36.1816 -18.5547 C 35.3027 -18.5547 34.7168 -19.1895 34.7168 -20.166 L 34.7168 -26.5137 L 21.2891 -26.5137 C 19.9219 -26.5137 18.9453 -27.2949 18.9453 -28.7109 C 18.9453 -29.2969 19.1406 -29.9316 19.4824 -30.5664 C 22.4121 -35.2051 28.9062 -45.2148 32.1777 -50.2441 C 33.0566 -51.6602 33.8867 -52.0996 35.3027 -52.0996 C 36.7188 -52.0996 37.6953 -51.2207 37.6953 -49.8535 L 37.6953 -29.3457 L 41.4551 -29.3457 C 42.2852 -29.3457 42.8223 -28.7598 42.8223 -27.9297 C 42.8223 -27.0508 42.334 -26.5137 41.4551 -26.5137 L 37.6953 -26.5137 L 37.6953 -20.166 C 37.6953 -19.1895 37.1582 -18.5547 36.1816 -18.5547 Z M 58.2031 -18.4082 C 53.7598 -18.4082 50.4395 -20.9473 49.3164 -23.0957 C 49.0234 -23.6328 48.7793 -24.2676 48.7793 -24.8047 C 48.7793 -25.6348 49.2676 -26.2207 50.0488 -26.2207 C 50.7812 -26.2207 51.2207 -25.8301 51.6113 -25.0488 C 52.7344 -22.7539 55.2734 -21.2402 58.252 -21.2402 C 64.0137 -21.2402 67.4805 -26.416 67.4805 -36.4258 L 67.3828 -36.4258 C 65.8203 -32.7637 62.5977 -30.5176 57.959 -30.5176 C 52.1973 -30.5176 47.7051 -34.9121 47.7051 -41.1133 C 47.7051 -47.6074 52.3438 -52.0996 58.7891 -52.0996 C 65.7715 -52.0996 70.3125 -47.0703 70.3125 -37.0605 C 70.3125 -24.5117 66.1133 -18.4082 58.2031 -18.4082 Z M 58.7891 -33.1543 C 63.4766 -33.1543 66.8945 -36.6211 66.8945 -41.2109 C 66.8945 -45.8984 63.4277 -49.3652 58.8867 -49.3652 C 54.1504 -49.3652 50.7324 -46.0449 50.7324 -41.3086 C 50.7324 -36.6211 54.0527 -33.1543 58.7891 -33.1543 Z M 34.7168 -29.3457 L 34.7168 -48.7305 L 34.6191 -48.7305 C 31.8359 -44.5312 24.5117 -33.3984 22.2168 -29.4434 L 22.2168 -29.3457 Z"/>
  </g>
  <g id="Ultralight-S" transform="matrix(1 0 0 1 515.644 696)">
   <path d="M 44.043 2.05078 C 64.502 2.05078 81.2988 -14.6973 81.2988 -35.1562 C 81.2988 -55.6152 64.502 -72.3633 44.043 -72.3633 C 23.584 -72.3633 6.83594 -55.6152 6.83594 -35.1562 C 6.83594 -14.6973 23.584 2.05078 44.043 2.05078 Z M 35.7422 -18.7988 C 35.1074 -18.7988 34.6191 -19.2383 34.6191 -19.9219 L 34.6191 -26.9531 L 20.5566 -26.9531 C 19.3848 -26.9531 18.6523 -27.5391 18.6523 -28.6133 C 18.6523 -29.0527 18.7988 -29.5898 18.9941 -29.9805 C 22.0703 -34.5703 29.4434 -45.752 32.7148 -50.5859 C 33.3984 -51.6113 34.0332 -51.9531 35.0586 -51.9531 C 36.1328 -51.9531 36.8652 -51.3184 36.8652 -50.2441 L 36.8652 -29.1016 L 41.2109 -29.1016 C 41.8457 -29.1016 42.2852 -28.6621 42.2852 -28.0273 C 42.2852 -27.3926 41.8945 -26.9531 41.2109 -26.9531 L 36.8652 -26.9531 L 36.8652 -19.9219 C 36.8652 -19.2383 36.4258 -18.7988 35.7422 -18.7988 Z M 57.8125 -18.5547 C 53.8086 -18.5547 50.3906 -20.8984 49.1211 -22.998 C 48.7305 -23.584 48.4375 -24.2676 48.4375 -24.8535 C 48.4375 -25.4395 48.8281 -25.9277 49.4629 -25.9277 C 50.0488 -25.9277 50.3418 -25.4883 50.6348 -24.8535 C 51.8066 -22.3633 54.6387 -20.7031 57.8613 -20.7031 C 64.1113 -20.7031 67.7246 -26.0742 67.7246 -36.8652 L 67.6758 -36.8652 C 65.918 -32.8613 62.5 -30.6152 57.7148 -30.6152 C 51.7578 -30.6152 47.4121 -35.2539 47.4121 -41.2109 C 47.4121 -47.4609 52.0508 -51.9531 58.3984 -51.9531 C 65.1855 -51.9531 69.8242 -47.168 69.8242 -37.3047 C 69.8242 -24.6582 65.625 -18.5547 57.8125 -18.5547 Z M 58.3008 -32.666 C 63.3789 -32.666 67.0898 -36.377 67.0898 -41.2598 C 67.0898 -46.1914 63.3301 -49.8047 58.3984 -49.8047 C 53.3691 -49.8047 49.6094 -46.2891 49.6094 -41.3574 C 49.6094 -36.377 53.2227 -32.666 58.3008 -32.666 Z M 34.6191 -29.1016 L 34.6191 -49.3652 L 34.5215 -49.3652 C 31.9336 -45.6543 23.3887 -32.9102 21.1426 -29.1992 L 21.1426 -29.1016 Z"/>
  </g>
 </g>
</svg>
