<?xml version="1.0" encoding="UTF-8"?>
<!--Generator: Apple Native CoreSVG 123-->
<!DOCTYPE svg
PUBLIC "-//W3C//DTD SVG 1.1//EN"
       "http://www.w3.org/Graphics/SVG/1.1/DTD/svg11.dtd">
<svg version="1.1" xmlns="http://www.w3.org/2000/svg" xmlns:xlink="http://www.w3.org/1999/xlink" width="3300" height="2200">
 <!--glyph: "uni100043.medium", point size: 100.000000, font version: "Version 15.0d7e11", template writer version: "5"-->
 <g id="Notes">
  <rect height="2200" id="artboard" style="fill:white;opacity:1" width="3300" x="0" y="0"/>
  <line id="" style="fill:none;stroke:black;opacity:1;stroke-width:0.5;" x1="263" x2="3036" y1="292" y2="292"/>
  <text style="stroke:none;fill:black;font-family:-apple-system,&quot;SF Pro Display&quot;,&quot;SF Pro Text&quot;,Helvetica,sans-serif;font-weight:bold;" transform="matrix(1 0 0 1 263 322)">Weight/Scale Variations</text>
  <text style="stroke:none;fill:black;font-family:-apple-system,&quot;SF Pro Display&quot;,&quot;SF Pro Text&quot;,Helvetica,sans-serif;text-anchor:middle;" transform="matrix(1 0 0 1 559.711 322)">Ultralight</text>
  <text style="stroke:none;fill:black;font-family:-apple-system,&quot;SF Pro Display&quot;,&quot;SF Pro Text&quot;,Helvetica,sans-serif;text-anchor:middle;" transform="matrix(1 0 0 1 856.422 322)">Thin</text>
  <text style="stroke:none;fill:black;font-family:-apple-system,&quot;SF Pro Display&quot;,&quot;SF Pro Text&quot;,Helvetica,sans-serif;text-anchor:middle;" transform="matrix(1 0 0 1 1153.13 322)">Light</text>
  <text style="stroke:none;fill:black;font-family:-apple-system,&quot;SF Pro Display&quot;,&quot;SF Pro Text&quot;,Helvetica,sans-serif;text-anchor:middle;" transform="matrix(1 0 0 1 1449.84 322)">Regular</text>
  <text style="stroke:none;fill:black;font-family:-apple-system,&quot;SF Pro Display&quot;,&quot;SF Pro Text&quot;,Helvetica,sans-serif;text-anchor:middle;" transform="matrix(1 0 0 1 1746.56 322)">Medium</text>
  <text style="stroke:none;fill:black;font-family:-apple-system,&quot;SF Pro Display&quot;,&quot;SF Pro Text&quot;,Helvetica,sans-serif;text-anchor:middle;" transform="matrix(1 0 0 1 2043.27 322)">Semibold</text>
  <text style="stroke:none;fill:black;font-family:-apple-system,&quot;SF Pro Display&quot;,&quot;SF Pro Text&quot;,Helvetica,sans-serif;text-anchor:middle;" transform="matrix(1 0 0 1 2339.98 322)">Bold</text>
  <text style="stroke:none;fill:black;font-family:-apple-system,&quot;SF Pro Display&quot;,&quot;SF Pro Text&quot;,Helvetica,sans-serif;text-anchor:middle;" transform="matrix(1 0 0 1 2636.69 322)">Heavy</text>
  <text style="stroke:none;fill:black;font-family:-apple-system,&quot;SF Pro Display&quot;,&quot;SF Pro Text&quot;,Helvetica,sans-serif;text-anchor:middle;" transform="matrix(1 0 0 1 2933.4 322)">Black</text>
  <line id="" style="fill:none;stroke:black;opacity:1;stroke-width:0.5;" x1="263" x2="3036" y1="1903" y2="1903"/>
  <g id="" transform="matrix(1 0 0 1 263 1933)">
   <path d="M 9.24805 0.830078 C 13.5547 0.830078 17.1387 -2.74414 17.1387 -7.05078 C 17.1387 -11.3574 13.5449 -14.9316 9.23828 -14.9316 C 4.94141 -14.9316 1.36719 -11.3574 1.36719 -7.05078 C 1.36719 -2.74414 4.95117 0.830078 9.24805 0.830078 Z M 9.24805 -0.654297 C 5.70312 -0.654297 2.87109 -3.49609 2.87109 -7.05078 C 2.87109 -10.6055 5.69336 -13.4473 9.23828 -13.4473 C 12.793 -13.4473 15.6348 -10.6055 15.6445 -7.05078 C 15.6543 -3.49609 12.8027 -0.654297 9.24805 -0.654297 Z M 9.22852 -3.42773 C 9.69727 -3.42773 9.9707 -3.74023 9.9707 -4.25781 L 9.9707 -6.31836 L 12.1973 -6.31836 C 12.6953 -6.31836 13.0371 -6.57227 13.0371 -7.04102 C 13.0371 -7.51953 12.7148 -7.7832 12.1973 -7.7832 L 9.9707 -7.7832 L 9.9707 -10.0098 C 9.9707 -10.5273 9.69727 -10.8496 9.22852 -10.8496 C 8.75977 -10.8496 8.50586 -10.5078 8.50586 -10.0098 L 8.50586 -7.7832 L 6.29883 -7.7832 C 5.78125 -7.7832 5.44922 -7.51953 5.44922 -7.04102 C 5.44922 -6.57227 5.80078 -6.31836 6.29883 -6.31836 L 8.50586 -6.31836 L 8.50586 -4.25781 C 8.50586 -3.75977 8.75977 -3.42773 9.22852 -3.42773 Z"/>
  </g>
  <g id="" transform="matrix(1 0 0 1 281.506 1933)">
   <path d="M 11.709 2.91016 C 17.1582 2.91016 21.6699 -1.60156 21.6699 -7.05078 C 21.6699 -12.4902 17.1484 -17.0117 11.6992 -17.0117 C 6.25977 -17.0117 1.74805 -12.4902 1.74805 -7.05078 C 1.74805 -1.60156 6.26953 2.91016 11.709 2.91016 Z M 11.709 1.25 C 7.09961 1.25 3.41797 -2.44141 3.41797 -7.05078 C 3.41797 -11.6504 7.08984 -15.3516 11.6992 -15.3516 C 16.3086 -15.3516 20 -11.6504 20.0098 -7.05078 C 20.0195 -2.44141 16.3184 1.25 11.709 1.25 Z M 11.6895 -2.41211 C 12.207 -2.41211 12.5195 -2.77344 12.5195 -3.33984 L 12.5195 -6.23047 L 15.5762 -6.23047 C 16.123 -6.23047 16.5039 -6.51367 16.5039 -7.03125 C 16.5039 -7.55859 16.1426 -7.86133 15.5762 -7.86133 L 12.5195 -7.86133 L 12.5195 -10.9277 C 12.5195 -11.5039 12.207 -11.8555 11.6895 -11.8555 C 11.1719 -11.8555 10.8789 -11.4844 10.8789 -10.9277 L 10.8789 -7.86133 L 7.83203 -7.86133 C 7.26562 -7.86133 6.89453 -7.55859 6.89453 -7.03125 C 6.89453 -6.51367 7.28516 -6.23047 7.83203 -6.23047 L 10.8789 -6.23047 L 10.8789 -3.33984 C 10.8789 -2.79297 11.1719 -2.41211 11.6895 -2.41211 Z"/>
  </g>
  <g id="" transform="matrix(1 0 0 1 304.924 1933)">
   <path d="M 14.9707 5.67383 C 21.9336 5.67383 27.6953 -0.078125 27.6953 -7.04102 C 27.6953 -14.0039 21.9238 -19.7559 14.9609 -19.7559 C 8.00781 -19.7559 2.25586 -14.0039 2.25586 -7.04102 C 2.25586 -0.078125 8.01758 5.67383 14.9707 5.67383 Z M 14.9707 3.85742 C 8.93555 3.85742 4.08203 -1.00586 4.08203 -7.04102 C 4.08203 -13.0762 8.92578 -17.9395 14.9609 -17.9395 C 21.0059 -17.9395 25.8594 -13.0762 25.8691 -7.04102 C 25.8789 -1.00586 21.0156 3.85742 14.9707 3.85742 Z M 14.9512 -1.06445 C 15.5176 -1.06445 15.8691 -1.45508 15.8691 -2.06055 L 15.8691 -6.13281 L 20.1074 -6.13281 C 20.6934 -6.13281 21.1133 -6.46484 21.1133 -7.02148 C 21.1133 -7.59766 20.7227 -7.93945 20.1074 -7.93945 L 15.8691 -7.93945 L 15.8691 -12.1875 C 15.8691 -12.8027 15.5176 -13.1934 14.9512 -13.1934 C 14.3848 -13.1934 14.0625 -12.7832 14.0625 -12.1875 L 14.0625 -7.93945 L 9.83398 -7.93945 C 9.21875 -7.93945 8.80859 -7.59766 8.80859 -7.02148 C 8.80859 -6.46484 9.23828 -6.13281 9.83398 -6.13281 L 14.0625 -6.13281 L 14.0625 -2.06055 C 14.0625 -1.47461 14.3848 -1.06445 14.9512 -1.06445 Z"/>
  </g>
  <text style="stroke:none;fill:black;font-family:-apple-system,&quot;SF Pro Display&quot;,&quot;SF Pro Text&quot;,Helvetica,sans-serif;font-weight:bold;" transform="matrix(1 0 0 1 263 1953)">Design Variations</text>
  <text style="stroke:none;fill:black;font-family:-apple-system,&quot;SF Pro Display&quot;,&quot;SF Pro Text&quot;,Helvetica,sans-serif;" transform="matrix(1 0 0 1 263 1971)">Symbols are supported in up to nine weights and three scales.</text>
  <text style="stroke:none;fill:black;font-family:-apple-system,&quot;SF Pro Display&quot;,&quot;SF Pro Text&quot;,Helvetica,sans-serif;" transform="matrix(1 0 0 1 263 1989)">For optimal layout with text and other symbols, vertically align</text>
  <text style="stroke:none;fill:black;font-family:-apple-system,&quot;SF Pro Display&quot;,&quot;SF Pro Text&quot;,Helvetica,sans-serif;" transform="matrix(1 0 0 1 263 2007)">symbols with the adjacent text.</text>
  <rect height="14" id="" style="fill:#00AEEF;stroke:none;opacity:0.4;" width="3" x="776" y="1919"/>
  <g id="" transform="matrix(1 0 0 1 779 1933)">
   <path d="M 10.5273 0 L 12.373 0 L 7.17773 -14.0918 L 5.43945 -14.0918 L 0.244141 0 L 2.08984 0 L 3.50586 -4.0332 L 9.11133 -4.0332 Z M 6.2793 -11.9531 L 6.33789 -11.9531 L 8.59375 -5.52734 L 4.02344 -5.52734 Z"/>
  </g>
  <rect height="14" id="" style="fill:#00AEEF;stroke:none;opacity:0.4;" width="3" x="791.617" y="1919"/>
  <text style="stroke:none;fill:black;font-family:-apple-system,&quot;SF Pro Display&quot;,&quot;SF Pro Text&quot;,Helvetica,sans-serif;font-weight:bold;" transform="matrix(1 0 0 1 776 1953)">Margins</text>
  <text style="stroke:none;fill:black;font-family:-apple-system,&quot;SF Pro Display&quot;,&quot;SF Pro Text&quot;,Helvetica,sans-serif;" transform="matrix(1 0 0 1 776 1971)">Leading and trailing margins on the left and right side of each symbol</text>
  <text style="stroke:none;fill:black;font-family:-apple-system,&quot;SF Pro Display&quot;,&quot;SF Pro Text&quot;,Helvetica,sans-serif;" transform="matrix(1 0 0 1 776 1989)">can be adjusted by modifying the width of the blue rectangles.</text>
  <text style="stroke:none;fill:black;font-family:-apple-system,&quot;SF Pro Display&quot;,&quot;SF Pro Text&quot;,Helvetica,sans-serif;" transform="matrix(1 0 0 1 776 2007)">Modifications are automatically applied proportionally to all</text>
  <text style="stroke:none;fill:black;font-family:-apple-system,&quot;SF Pro Display&quot;,&quot;SF Pro Text&quot;,Helvetica,sans-serif;" transform="matrix(1 0 0 1 776 2025)">scales and weights.</text>
  <g id="" transform="matrix(1 0 0 1 1289 1933)">
   <path d="M 2.83203 3.11523 L 4.375 4.6582 C 5.22461 5.48828 6.19141 5.41992 7.06055 4.46289 L 17.2754 -6.66016 C 17.7051 -6.36719 18.0957 -6.37695 18.5645 -6.47461 L 19.6094 -6.68945 L 20.3027 -5.99609 L 20.2539 -5.47852 C 20.1855 -4.95117 20.3516 -4.53125 20.8496 -4.0332 L 21.6602 -3.22266 C 22.168 -2.71484 22.8223 -2.68555 23.3008 -3.16406 L 26.5527 -6.41602 C 27.0312 -6.89453 27.0117 -7.54883 26.5039 -8.05664 L 25.6836 -8.87695 C 25.1855 -9.375 24.7754 -9.55078 24.2383 -9.47266 L 23.7109 -9.41406 L 23.0566 -10.0781 L 23.3398 -11.2207 C 23.4863 -11.7871 23.3398 -12.2559 22.7148 -12.8613 L 20.3027 -15.2539 C 16.7578 -18.7793 12.2266 -18.6719 9.11133 -15.5371 C 8.69141 -15.1074 8.64258 -14.5215 8.91602 -14.0918 C 9.15039 -13.7207 9.62891 -13.4961 10.2734 -13.6621 C 11.7871 -14.043 13.3008 -13.9258 14.7852 -12.9199 L 14.1602 -11.3379 C 13.9258 -10.752 13.9453 -10.2734 14.1797 -9.83398 L 3.01758 0.439453 C 2.08008 1.30859 1.97266 2.25586 2.83203 3.11523 Z M 10.6738 -15.1465 C 13.3398 -17.1387 16.6504 -16.8262 19.0527 -14.4141 L 21.6797 -11.8066 C 21.9141 -11.5723 21.9434 -11.3867 21.8848 -11.0938 L 21.5039 -9.53125 L 23.0762 -7.95898 L 24.043 -8.04688 C 24.3262 -8.07617 24.4141 -8.05664 24.6387 -7.83203 L 25.2637 -7.20703 L 22.5098 -4.46289 L 21.8848 -5.07812 C 21.6602 -5.30273 21.6406 -5.40039 21.6699 -5.68359 L 21.7578 -6.64062 L 20.1953 -8.20312 L 18.5742 -7.89062 C 18.291 -7.83203 18.1445 -7.83203 17.9102 -8.07617 L 15.7324 -10.2539 C 15.5078 -10.4883 15.4785 -10.625 15.6055 -10.9473 L 16.5527 -13.2227 C 14.9512 -14.7559 12.8418 -15.6055 10.8008 -14.9512 C 10.7129 -14.9219 10.6445 -14.9414 10.6152 -14.9805 C 10.5859 -15.0293 10.5859 -15.0781 10.6738 -15.1465 Z M 4.10156 2.41211 C 3.61328 1.91406 3.78906 1.61133 4.12109 1.30859 L 15.0781 -8.80859 L 16.3086 -7.57812 L 6.15234 3.34961 C 5.84961 3.68164 5.46875 3.7793 5.06836 3.37891 Z"/>
  </g>
  <text style="stroke:none;fill:black;font-family:-apple-system,&quot;SF Pro Display&quot;,&quot;SF Pro Text&quot;,Helvetica,sans-serif;font-weight:bold;" transform="matrix(1 0 0 1 1289 1953)">Exporting</text>
  <text style="stroke:none;fill:black;font-family:-apple-system,&quot;SF Pro Display&quot;,&quot;SF Pro Text&quot;,Helvetica,sans-serif;" transform="matrix(1 0 0 1 1289 1971)">Symbols should be outlined when exporting to ensure the</text>
  <text style="stroke:none;fill:black;font-family:-apple-system,&quot;SF Pro Display&quot;,&quot;SF Pro Text&quot;,Helvetica,sans-serif;" transform="matrix(1 0 0 1 1289 1989)">design is preserved when submitting to Xcode.</text>
  <text id="template-version" style="stroke:none;fill:black;font-family:-apple-system,&quot;SF Pro Display&quot;,&quot;SF Pro Text&quot;,Helvetica,sans-serif;text-anchor:end;" transform="matrix(1 0 0 1 3036 1933)">Template v.1.0</text>
  <text style="stroke:none;fill:black;font-family:-apple-system,&quot;SF Pro Display&quot;,&quot;SF Pro Text&quot;,Helvetica,sans-serif;text-anchor:end;" transform="matrix(1 0 0 1 3036 1951)">Generated from 5.circle.fill</text>
  <text style="stroke:none;fill:black;font-family:-apple-system,&quot;SF Pro Display&quot;,&quot;SF Pro Text&quot;,Helvetica,sans-serif;text-anchor:end;" transform="matrix(1 0 0 1 3036 1969)">Typeset at 100 points</text>
  <text style="stroke:none;fill:black;font-family:-apple-system,&quot;SF Pro Display&quot;,&quot;SF Pro Text&quot;,Helvetica,sans-serif;" transform="matrix(1 0 0 1 263 726)">Small</text>
  <text style="stroke:none;fill:black;font-family:-apple-system,&quot;SF Pro Display&quot;,&quot;SF Pro Text&quot;,Helvetica,sans-serif;" transform="matrix(1 0 0 1 263 1156)">Medium</text>
  <text style="stroke:none;fill:black;font-family:-apple-system,&quot;SF Pro Display&quot;,&quot;SF Pro Text&quot;,Helvetica,sans-serif;" transform="matrix(1 0 0 1 263 1586)">Large</text>
 </g>
 <g id="Guides">
  <g id="H-reference" style="fill:#27AAE1;stroke:none;" transform="matrix(1 0 0 1 339 696)">
   <path d="M 54.9316 0 L 57.666 0 L 30.5664 -70.459 L 28.0762 -70.459 L 0.976562 0 L 3.66211 0 L 12.9395 -24.4629 L 45.7031 -24.4629 Z M 29.1992 -67.0898 L 29.4434 -67.0898 L 44.8242 -26.709 L 13.8184 -26.709 Z"/>
  </g>
  <line id="Baseline-S" style="fill:none;stroke:#27AAE1;opacity:1;stroke-width:0.577;" x1="263" x2="3036" y1="696" y2="696"/>
  <line id="Capline-S" style="fill:none;stroke:#27AAE1;opacity:1;stroke-width:0.577;" x1="263" x2="3036" y1="625.541" y2="625.541"/>
  <g id="H-reference" style="fill:#27AAE1;stroke:none;" transform="matrix(1 0 0 1 339 1126)">
   <path d="M 54.9316 0 L 57.666 0 L 30.5664 -70.459 L 28.0762 -70.459 L 0.976562 0 L 3.66211 0 L 12.9395 -24.4629 L 45.7031 -24.4629 Z M 29.1992 -67.0898 L 29.4434 -67.0898 L 44.8242 -26.709 L 13.8184 -26.709 Z"/>
  </g>
  <line id="Baseline-M" style="fill:none;stroke:#27AAE1;opacity:1;stroke-width:0.577;" x1="263" x2="3036" y1="1126" y2="1126"/>
  <line id="Capline-M" style="fill:none;stroke:#27AAE1;opacity:1;stroke-width:0.577;" x1="263" x2="3036" y1="1055.54" y2="1055.54"/>
  <g id="H-reference" style="fill:#27AAE1;stroke:none;" transform="matrix(1 0 0 1 339 1556)">
   <path d="M 54.9316 0 L 57.666 0 L 30.5664 -70.459 L 28.0762 -70.459 L 0.976562 0 L 3.66211 0 L 12.9395 -24.4629 L 45.7031 -24.4629 Z M 29.1992 -67.0898 L 29.4434 -67.0898 L 44.8242 -26.709 L 13.8184 -26.709 Z"/>
  </g>
  <line id="Baseline-L" style="fill:none;stroke:#27AAE1;opacity:1;stroke-width:0.577;" x1="263" x2="3036" y1="1556" y2="1556"/>
  <line id="Capline-L" style="fill:none;stroke:#27AAE1;opacity:1;stroke-width:0.577;" x1="263" x2="3036" y1="1485.54" y2="1485.54"/>
  <rect height="119.336" id="left-margin" style="fill:#00AEEF;stroke:none;opacity:0.4;" width="8.74023" x="1391.3" y="1030.79"/>
  <rect height="119.336" id="right-margin" style="fill:#00AEEF;stroke:none;opacity:0.4;" width="8.74023" x="1499.65" y="1030.79"/>
 </g>
 <g id="Symbols">
  <g id="Black-L" transform="matrix(1 0 0 1 2854.05 1556)">
   <path d="M 79.3457 32.8613 C 116.748 32.8613 147.412 2.19727 147.412 -35.2051 C 147.412 -72.6074 116.748 -103.271 79.2969 -103.271 C 41.8945 -103.271 11.2793 -72.6074 11.2793 -35.2051 C 11.2793 2.19727 41.9434 32.8613 79.3457 32.8613 Z M 80.127 -4.78516 C 67.9688 -4.78516 59.8145 -8.54492 57.2266 -14.502 C 56.6895 -15.7227 56.4453 -16.9922 56.4453 -18.3594 C 56.4453 -22.5586 59.4238 -25.3418 64.5508 -25.3418 C 68.2617 -25.3418 70.2637 -24.1211 71.875 -22.7539 C 73.8281 -20.752 76.0254 -19.2871 79.5898 -19.2871 C 83.6914 -19.2871 86.6699 -22.2656 86.6699 -26.123 C 86.6699 -30.0293 84.1309 -32.666 80.2734 -32.666 C 77.9785 -32.666 76.3672 -31.9824 74.4629 -30.9082 C 72.3145 -29.7852 70.3125 -28.9551 66.8457 -28.9551 C 59.8633 -28.9551 56.3965 -32.4219 56.7871 -38.8184 L 57.9102 -54.9316 C 58.2031 -60.4492 62.0117 -64.1602 67.7734 -64.1602 L 95.0195 -64.1602 C 100.049 -64.1602 102.881 -61.7676 102.881 -57.373 C 102.881 -53.0762 99.9023 -50.4883 95.0195 -50.4883 L 72.9492 -50.4883 L 72.1191 -39.9902 L 73.0469 -39.9902 C 75 -43.3594 80.2246 -45.7031 86.0352 -45.7031 C 97.8027 -45.7031 105.566 -38.1836 105.566 -26.6602 C 105.566 -13.2324 95.7031 -4.78516 80.127 -4.78516 Z"/>
  </g>
  <g id="Heavy-L" transform="matrix(1 0 0 1 2558.39 1556)">
   <path d="M 78.2715 31.7871 C 115.088 31.7871 145.312 1.61133 145.312 -35.2051 C 145.312 -72.0215 115.039 -102.197 78.2715 -102.197 C 41.4551 -102.197 11.2793 -72.0215 11.2793 -35.2051 C 11.2793 1.61133 41.5039 31.7871 78.2715 31.7871 Z M 78.9062 -4.73633 C 67.2363 -4.73633 59.2773 -8.64258 56.7383 -14.7949 C 56.25 -15.918 55.957 -17.0898 55.957 -18.3594 C 55.957 -22.0703 58.6426 -24.5605 63.0859 -24.5605 C 66.3086 -24.5605 68.1641 -23.4375 69.6289 -21.9238 C 71.582 -19.3359 74.4141 -17.5293 78.5156 -17.5293 C 83.3984 -17.5293 87.0117 -21.1426 87.0117 -25.8301 C 87.0117 -30.6152 83.8867 -33.8379 79.248 -33.8379 C 76.6113 -33.8379 74.7559 -33.0078 72.4609 -31.4453 C 70.3125 -30.2246 68.5059 -29.4434 65.332 -29.4434 C 59.2773 -29.4434 56.2012 -32.6172 56.543 -38.2324 L 57.8125 -55.957 C 58.1055 -60.9375 61.5723 -64.2578 66.8457 -64.2578 L 94.0918 -64.2578 C 98.3887 -64.2578 100.879 -62.0605 100.879 -58.252 C 100.879 -54.4434 98.291 -52.1484 94.0918 -52.1484 L 71.0449 -52.1484 L 70.0195 -39.5996 L 70.8496 -39.5996 C 72.9004 -43.0664 78.2227 -45.3613 83.8867 -45.3613 C 95.6543 -45.3613 103.467 -37.793 103.467 -26.2695 C 103.467 -13.1348 93.8477 -4.73633 78.9062 -4.73633 Z"/>
  </g>
  <g id="Bold-L" transform="matrix(1 0 0 1 2262.88 1556)">
   <path d="M 77.0996 30.6152 C 113.232 30.6152 142.92 0.878906 142.92 -35.2051 C 142.92 -71.3379 113.184 -101.025 77.0508 -101.025 C 40.9668 -101.025 11.2793 -71.3379 11.2793 -35.2051 C 11.2793 0.878906 41.0156 30.6152 77.0996 30.6152 Z M 77.5391 -4.73633 C 66.4062 -4.73633 58.6426 -8.78906 56.1523 -15.0879 C 55.7129 -16.1133 55.4688 -17.1875 55.4688 -18.3594 C 55.4688 -21.582 57.7148 -23.7305 61.4258 -23.7305 C 64.1602 -23.7305 65.8203 -22.6562 67.0898 -21.0449 C 69.0918 -17.7734 72.6074 -15.5762 77.2949 -15.5762 C 83.1055 -15.5762 87.4023 -19.8242 87.4023 -25.5371 C 87.4023 -31.25 83.6914 -35.1074 78.0762 -35.1074 C 75.0977 -35.1074 72.9004 -34.1797 70.2637 -32.0801 C 68.1152 -30.6641 66.4551 -30.0293 63.6719 -30.0293 C 58.6426 -30.0293 55.957 -32.8125 56.25 -37.5977 L 57.7148 -57.0312 C 58.0078 -61.4746 61.1328 -64.3555 65.8203 -64.3555 L 93.0176 -64.3555 C 96.5332 -64.3555 98.6816 -62.4023 98.6816 -59.2285 C 98.6816 -56.0059 96.4355 -54.0039 93.0176 -54.0039 L 68.8965 -54.0039 L 67.6758 -39.209 L 68.3594 -39.209 C 70.5566 -42.6758 75.9277 -45.0195 81.4941 -45.0195 C 93.1641 -45.0195 101.172 -37.3047 101.172 -25.8789 C 101.172 -13.0371 91.7969 -4.73633 77.5391 -4.73633 Z"/>
  </g>
  <g id="Semibold-L" transform="matrix(1 0 0 1 1966.97 1556)">
   <path d="M 76.2695 29.7852 C 111.914 29.7852 141.309 0.439453 141.309 -35.2051 C 141.309 -70.8496 111.865 -100.244 76.2695 -100.244 C 40.625 -100.244 11.2793 -70.8496 11.2793 -35.2051 C 11.2793 0.439453 40.6738 29.7852 76.2695 29.7852 Z M 76.6113 -4.73633 C 65.8203 -4.73633 58.252 -8.83789 55.7617 -15.332 C 55.3711 -16.2598 55.0781 -17.2852 55.0781 -18.4082 C 55.0781 -21.1914 57.1289 -23.1445 60.3027 -23.1445 C 62.6465 -23.1445 64.209 -22.1191 65.3809 -20.4102 C 67.334 -16.6504 71.3867 -14.209 76.4648 -14.209 C 82.9102 -14.209 87.6953 -18.9453 87.6953 -25.293 C 87.6953 -31.6895 83.4961 -35.9863 77.2949 -35.9863 C 74.0234 -35.9863 71.6309 -34.9609 68.75 -32.5195 C 66.5527 -31.0059 65.0879 -30.4199 62.5488 -30.4199 C 58.2031 -30.4199 55.8105 -32.959 56.0547 -37.207 L 57.666 -57.8125 C 57.959 -61.8652 60.791 -64.4043 65.1367 -64.4043 L 92.2852 -64.4043 C 95.2637 -64.4043 97.1191 -62.6465 97.1191 -59.9121 C 97.1191 -57.1289 95.2148 -55.2734 92.2852 -55.2734 L 67.4316 -55.2734 L 66.0156 -38.9648 L 66.6016 -38.9648 C 68.9941 -42.4316 74.3652 -44.7754 79.834 -44.7754 C 91.5039 -44.7754 99.5605 -37.0117 99.5605 -25.5859 C 99.5605 -12.9395 90.3809 -4.73633 76.6113 -4.73633 Z"/>
  </g>
  <g id="Medium-L" transform="matrix(1 0 0 1 1670.87 1556)">
   <path d="M 75.6836 29.1992 C 110.938 29.1992 140.088 0.0488281 140.088 -35.2051 C 140.088 -70.459 110.889 -99.6094 75.6348 -99.6094 C 40.3809 -99.6094 11.2793 -70.459 11.2793 -35.2051 C 11.2793 0.0488281 40.3809 29.1992 75.6836 29.1992 Z M 75.9277 -4.6875 C 65.3809 -4.6875 57.9102 -8.93555 55.4688 -15.4785 C 55.127 -16.4062 54.834 -17.334 54.834 -18.4082 C 54.834 -20.9473 56.6895 -22.7051 59.4727 -22.7051 C 61.4746 -22.7051 62.9395 -21.7285 64.0625 -19.9707 C 66.0156 -15.8691 70.459 -13.1836 75.8301 -13.1836 C 82.7148 -13.1836 87.8906 -18.2617 87.8906 -25.1465 C 87.8906 -32.0312 83.3984 -36.6699 76.709 -36.6699 C 73.2422 -36.6699 70.6543 -35.5469 67.5781 -32.8125 C 65.3809 -31.25 64.0137 -30.7129 61.6699 -30.7129 C 57.8613 -30.7129 55.6641 -33.0566 55.9082 -36.8652 L 57.6172 -58.3984 C 57.9102 -62.1582 60.5469 -64.4531 64.5996 -64.4531 L 91.748 -64.4531 C 94.2871 -64.4531 95.9473 -62.8418 95.9473 -60.4004 C 95.9473 -57.9102 94.2383 -56.25 91.748 -56.25 L 66.3086 -56.25 L 64.7949 -38.7695 L 65.332 -38.7695 C 67.7734 -42.2363 73.1934 -44.5801 78.5645 -44.5801 C 90.2344 -44.5801 98.3398 -36.7676 98.3398 -25.3418 C 98.3398 -12.8906 89.3066 -4.6875 75.9277 -4.6875 Z"/>
  </g>
  <g id="Regular-L" transform="matrix(1 0 0 1 1374.97 1556)">
   <path d="M 74.8535 28.3691 C 109.668 28.3691 138.477 -0.390625 138.477 -35.2051 C 138.477 -70.0195 109.619 -98.7793 74.8047 -98.7793 C 40.0391 -98.7793 11.2793 -70.0195 11.2793 -35.2051 C 11.2793 -0.390625 40.0879 28.3691 74.8535 28.3691 Z M 75 -4.6875 C 64.8438 -4.6875 57.5195 -8.98438 55.0781 -15.6738 C 54.7852 -16.5527 54.4922 -17.4316 54.4922 -18.4082 C 54.4922 -20.5566 56.0547 -22.1191 58.3496 -22.1191 C 60.0098 -22.1191 61.377 -21.1914 62.3535 -19.3359 C 64.3066 -14.7461 69.2383 -11.8164 75 -11.8164 C 82.5195 -11.8164 88.1836 -17.4316 88.1836 -24.9512 C 88.1836 -32.4219 83.2031 -37.5488 75.9277 -37.5488 C 72.2168 -37.5488 69.4336 -36.377 66.0645 -33.252 C 63.8672 -31.543 62.6465 -31.0547 60.5469 -31.0547 C 57.4219 -31.0547 55.5176 -33.2031 55.7129 -36.4258 L 57.5684 -59.1797 C 57.8125 -62.5488 60.2051 -64.5508 63.8672 -64.5508 L 91.0156 -64.5508 C 93.0664 -64.5508 94.4336 -63.0859 94.4336 -61.084 C 94.4336 -58.9844 93.0176 -57.5195 91.0156 -57.5195 L 64.8438 -57.5195 L 63.1836 -38.4766 L 63.623 -38.4766 C 66.1621 -41.9922 71.6309 -44.3359 76.9531 -44.3359 C 88.5254 -44.3359 96.7285 -36.4258 96.7285 -25.0488 C 96.7285 -12.793 87.8906 -4.6875 75 -4.6875 Z"/>
  </g>
  <g id="Light-L" transform="matrix(1 0 0 1 1079.18 1556)">
   <path d="M 73.9258 27.4902 C 108.301 27.4902 136.621 -0.830078 136.621 -35.1562 C 136.621 -69.5312 108.252 -97.8516 73.9258 -97.8516 C 39.5508 -97.8516 11.2793 -69.5312 11.2793 -35.1562 C 11.2793 -0.830078 39.5996 27.4902 73.9258 27.4902 Z M 74.0234 -5.46875 C 64.2578 -5.46875 57.2754 -10.0098 55.127 -16.6504 C 54.8828 -17.334 54.6875 -17.9688 54.6875 -18.75 C 54.6875 -20.459 55.9082 -21.6309 57.666 -21.6309 C 59.0332 -21.6309 60.1074 -20.8984 60.791 -19.3359 C 62.5488 -14.4531 67.9199 -11.1328 74.2188 -11.1328 C 82.1289 -11.1328 88.0859 -17.041 88.0859 -25 C 88.0859 -32.959 82.7148 -38.3789 74.9023 -38.3789 C 70.6543 -38.3789 67.4805 -37.0117 63.7695 -33.2031 C 62.1582 -31.8848 61.2305 -31.4941 59.5703 -31.4941 C 57.1289 -31.4941 55.6641 -33.1543 55.8594 -35.6445 L 57.8125 -59.7168 C 58.0078 -62.3535 59.8145 -63.9648 62.6465 -63.9648 L 89.7949 -63.9648 C 91.4551 -63.9648 92.5781 -62.793 92.5781 -61.1816 C 92.5781 -59.5703 91.4551 -58.3984 89.7949 -58.3984 L 63.5254 -58.3984 L 61.8164 -37.6953 L 62.207 -37.6953 C 64.9414 -41.4062 70.3613 -43.8477 75.6348 -43.8477 C 86.8164 -43.8477 94.6777 -36.1328 94.6777 -25.1465 C 94.6777 -13.3301 86.3281 -5.46875 74.0234 -5.46875 Z"/>
  </g>
  <g id="Thin-L" transform="matrix(1 0 0 1 783.693 1556)">
   <path d="M 72.7051 26.3184 C 106.494 26.3184 134.18 -1.36719 134.18 -35.1074 C 134.18 -68.8965 106.494 -96.582 72.7051 -96.582 C 38.9648 -96.582 11.2793 -68.8965 11.2793 -35.1074 C 11.2793 -1.36719 38.9648 26.3184 72.7051 26.3184 Z M 72.7539 -6.44531 C 63.5254 -6.44531 56.9824 -11.2793 55.1758 -17.9688 C 55.0781 -18.3594 54.9805 -18.75 54.9805 -19.2383 C 54.9805 -20.2637 55.7129 -21.0449 56.7871 -21.0449 C 57.7637 -21.0449 58.4473 -20.5078 58.7891 -19.3359 C 60.1562 -14.0137 66.1133 -10.2051 73.1445 -10.2051 C 81.6406 -10.2051 87.9395 -16.5039 87.9395 -25.0977 C 87.9395 -33.6426 82.0801 -39.5508 73.5352 -39.5508 C 68.6035 -39.5508 64.9414 -37.8418 60.7422 -33.2031 C 59.9121 -32.3242 59.375 -32.0801 58.3496 -32.0801 C 56.7871 -32.0801 55.9082 -33.1055 56.0059 -34.5703 L 58.1055 -60.4004 C 58.252 -62.1582 59.2773 -63.2324 60.9863 -63.2324 L 88.2324 -63.2324 C 89.3555 -63.2324 90.0879 -62.4023 90.0879 -61.377 C 90.0879 -60.3027 89.3555 -59.5215 88.2324 -59.5215 L 61.8164 -59.5215 L 59.9609 -36.6211 L 60.2539 -36.6211 C 63.3301 -40.6738 68.6523 -43.1641 73.9746 -43.1641 C 84.5215 -43.1641 91.9922 -35.6934 91.9922 -25.1953 C 91.9922 -14.0137 84.2285 -6.44531 72.7539 -6.44531 Z"/>
  </g>
  <g id="Ultralight-L" transform="matrix(1 0 0 1 487.616 1556)">
   <path d="M 72.1191 25.7324 C 105.566 25.7324 132.91 -1.61133 132.91 -35.1074 C 132.91 -68.5547 105.566 -95.8984 72.1191 -95.8984 C 38.623 -95.8984 11.2793 -68.5547 11.2793 -35.1074 C 11.2793 -1.61133 38.623 25.7324 72.1191 25.7324 Z M 72.0703 -6.98242 C 63.1348 -6.98242 56.7871 -11.9629 55.2246 -18.6035 C 55.127 -18.8965 55.0781 -19.1406 55.0781 -19.4824 C 55.0781 -20.166 55.6152 -20.7031 56.3477 -20.7031 C 57.1289 -20.7031 57.5684 -20.3125 57.7637 -19.3359 C 58.9355 -13.7695 65.1855 -9.7168 72.6074 -9.7168 C 81.3477 -9.7168 87.8906 -16.2598 87.8906 -25.1465 C 87.8906 -33.9844 81.7383 -40.1367 72.8516 -40.1367 C 67.5293 -40.1367 63.623 -38.2812 59.1797 -33.1543 C 58.7402 -32.5684 58.4473 -32.373 57.7148 -32.373 C 56.6406 -32.373 56.0547 -33.1055 56.1035 -34.0332 L 58.252 -60.791 C 58.3984 -62.0605 58.9844 -62.8418 60.1562 -62.8418 L 87.4512 -62.8418 C 88.2812 -62.8418 88.8184 -62.207 88.8184 -61.4258 C 88.8184 -60.6934 88.2812 -60.0586 87.4512 -60.0586 L 60.9375 -60.0586 L 58.9844 -36.0352 L 59.2773 -36.0352 C 62.5 -40.332 67.8223 -42.8223 73.0957 -42.8223 C 83.3496 -42.8223 90.625 -35.498 90.625 -25.2441 C 90.625 -14.3555 83.1543 -6.98242 72.0703 -6.98242 Z"/>
  </g>
  <g id="Black-M" transform="matrix(1 0 0 1 2870.97 1126)">
   <path d="M 62.4023 18.457 C 91.9922 18.457 116.113 -5.61523 116.113 -35.2051 C 116.113 -64.7949 91.9922 -88.8672 62.4023 -88.8672 C 32.8125 -88.8672 8.74023 -64.7949 8.74023 -35.2051 C 8.74023 -5.61523 32.8125 18.457 62.4023 18.457 Z M 63.1836 -12.0605 C 53.3691 -12.0605 46.9238 -14.8926 45.0684 -19.3359 C 44.6289 -20.2637 44.4336 -21.2402 44.4336 -22.3145 C 44.4336 -25.9766 47.0215 -28.3203 51.6113 -28.3203 C 55.0293 -28.3203 56.5918 -27.3926 57.9102 -26.6113 C 59.2773 -25.7324 60.3516 -24.9023 62.7441 -24.9023 C 65.0391 -24.9023 66.6504 -26.5137 66.6504 -28.5645 C 66.6504 -30.7129 65.1855 -32.1777 63.0371 -32.1777 C 61.4258 -32.1777 60.4004 -31.6895 59.1309 -31.1523 C 57.8125 -30.6152 56.2012 -29.9316 53.3203 -29.9316 C 47.0703 -29.9316 44.0918 -32.8125 44.4336 -38.3301 L 45.1172 -49.4629 C 45.3613 -54.0039 48.3887 -57.2266 53.0762 -57.2266 L 74.3164 -57.2266 C 78.9062 -57.2266 81.4453 -55.2246 81.4453 -51.3184 C 81.4453 -47.4609 78.7598 -45.2637 74.3164 -45.2637 L 58.4473 -45.2637 L 57.959 -38.9648 L 58.8379 -38.9648 C 60.2539 -41.6992 64.2578 -43.5059 68.8965 -43.5059 C 77.832 -43.5059 83.5449 -37.8906 83.5449 -29.1504 C 83.5449 -18.6035 75.8301 -12.0605 63.1836 -12.0605 Z"/>
  </g>
  <g id="Heavy-M" transform="matrix(1 0 0 1 2575.19 1126)">
   <path d="M 61.5234 17.5781 C 90.5273 17.5781 114.258 -6.15234 114.258 -35.2051 C 114.258 -64.2578 90.5273 -87.9883 61.4746 -87.9883 C 32.4707 -87.9883 8.74023 -64.2578 8.74023 -35.2051 C 8.74023 -6.15234 32.4707 17.5781 61.5234 17.5781 Z M 62.1094 -11.8164 C 52.6855 -11.8164 46.3867 -14.7949 44.4824 -19.3848 C 44.0918 -20.2637 43.8965 -21.1914 43.8965 -22.2168 C 43.8965 -25.4883 46.1914 -27.6367 50.1953 -27.6367 C 53.1738 -27.6367 54.6387 -26.709 55.8594 -25.7324 C 57.2754 -24.2676 58.9355 -23.1445 61.7676 -23.1445 C 64.8438 -23.1445 67.041 -25.3906 67.041 -28.2227 C 67.041 -31.2012 65.0879 -33.2031 62.1582 -33.2031 C 60.3516 -33.2031 59.082 -32.6172 57.5684 -31.7383 C 56.1035 -31.0059 54.5898 -30.3711 51.9043 -30.3711 C 46.4844 -30.3711 43.8477 -33.0078 44.0918 -37.9395 L 44.9707 -50.3906 C 45.2148 -54.5898 48.0469 -57.4707 52.4414 -57.4707 L 73.584 -57.4707 C 77.5391 -57.4707 79.7363 -55.6152 79.7363 -52.2461 C 79.7363 -48.8281 77.3926 -46.875 73.584 -46.875 L 56.6895 -46.875 L 56.0059 -38.7695 L 56.7871 -38.7695 C 58.3008 -41.4551 62.3535 -43.2617 66.8457 -43.2617 C 75.8789 -43.2617 81.7871 -37.5488 81.7871 -28.7109 C 81.7871 -18.3594 74.2188 -11.8164 62.1094 -11.8164 Z"/>
  </g>
  <g id="Bold-M" transform="matrix(1 0 0 1 2279.5 1126)">
   <path d="M 60.498 16.5039 C 88.8672 16.5039 112.207 -6.78711 112.207 -35.2051 C 112.207 -63.623 88.8672 -86.9629 60.4492 -86.9629 C 32.0312 -86.9629 8.74023 -63.623 8.74023 -35.2051 C 8.74023 -6.78711 32.0801 16.5039 60.498 16.5039 Z M 60.9375 -11.5723 C 51.9531 -11.5723 45.8008 -14.6484 43.8477 -19.4336 C 43.5059 -20.2637 43.2617 -21.1914 43.2617 -22.168 C 43.2617 -24.9512 45.2637 -26.8555 48.584 -26.8555 C 51.0254 -26.8555 52.4414 -25.9766 53.5645 -24.7559 C 55.0781 -22.6562 57.373 -21.1914 60.6445 -21.1914 C 64.5996 -21.1914 67.5293 -24.0723 67.5293 -27.8809 C 67.5293 -31.7383 64.9902 -34.3262 61.2305 -34.3262 C 59.1309 -34.3262 57.6172 -33.6914 55.8105 -32.4219 C 54.1504 -31.3965 52.7832 -30.8594 50.3906 -30.8594 C 45.8496 -30.8594 43.5059 -33.252 43.75 -37.5 L 44.7754 -51.4648 C 45.0195 -55.2246 47.6562 -57.7637 51.6602 -57.7637 L 72.7539 -57.7637 C 75.9766 -57.7637 77.832 -56.1035 77.832 -53.2227 C 77.832 -50.3906 75.8789 -48.6328 72.7539 -48.6328 L 54.7363 -48.6328 L 53.8574 -38.5742 L 54.4922 -38.5742 C 56.1035 -41.2109 60.2539 -43.0176 64.5996 -43.0176 C 73.7305 -43.0176 79.834 -37.1094 79.834 -28.2227 C 79.834 -18.0664 72.4121 -11.5723 60.9375 -11.5723 Z"/>
  </g>
  <g id="Semibold-M" transform="matrix(1 0 0 1 1983.5 1126)">
   <path d="M 59.7656 15.8203 C 87.7441 15.8203 110.791 -7.22656 110.791 -35.2051 C 110.791 -63.1836 87.6953 -86.2793 59.7656 -86.2793 C 31.7871 -86.2793 8.74023 -63.1836 8.74023 -35.2051 C 8.74023 -7.22656 31.7871 15.8203 59.7656 15.8203 Z M 60.1074 -11.4258 C 51.4648 -11.4258 45.4102 -14.5508 43.457 -19.4824 C 43.0664 -20.3125 42.8711 -21.1426 42.8711 -22.0703 C 42.8711 -24.6094 44.6289 -26.2695 47.5098 -26.2695 C 49.6094 -26.2695 50.9277 -25.4395 51.9531 -24.1211 C 53.5156 -21.5332 56.2988 -19.8242 59.9121 -19.8242 C 64.4531 -19.8242 67.8223 -23.1934 67.8223 -27.6367 C 67.8223 -32.1289 64.8926 -35.1562 60.5469 -35.1562 C 58.3008 -35.1562 56.6406 -34.4238 54.6387 -32.8613 C 52.832 -31.6895 51.5137 -31.2012 49.3164 -31.2012 C 45.4102 -31.2012 43.3105 -33.3984 43.5059 -37.1582 L 44.6777 -52.1973 C 44.9219 -55.7129 47.3633 -57.959 51.123 -57.959 L 72.168 -57.959 C 74.9023 -57.959 76.5137 -56.4453 76.5137 -53.9551 C 76.5137 -51.4648 74.8047 -49.8535 72.168 -49.8535 L 53.3691 -49.8535 L 52.3926 -38.4277 L 52.8809 -38.4277 C 54.5898 -41.0645 58.7891 -42.8711 63.0371 -42.8711 C 72.2168 -42.8711 78.4668 -36.8164 78.4668 -27.8809 C 78.4668 -17.8711 71.1914 -11.4258 60.1074 -11.4258 Z"/>
  </g>
  <g id="Medium-M" transform="matrix(1 0 0 1 1687.3 1126)">
   <path d="M 59.2285 15.2832 C 86.9141 15.2832 109.766 -7.56836 109.766 -35.2051 C 109.766 -62.8906 86.8652 -85.7422 59.1797 -85.7422 C 31.543 -85.7422 8.74023 -62.8906 8.74023 -35.2051 C 8.74023 -7.56836 31.5918 15.2832 59.2285 15.2832 Z M 59.5215 -11.2793 C 51.0742 -11.2793 45.1172 -14.4531 43.1152 -19.4824 C 42.7734 -20.3125 42.5293 -21.1426 42.5293 -22.0703 C 42.5293 -24.3164 44.1406 -25.8789 46.6797 -25.8789 C 48.4863 -25.8789 49.7559 -25.0488 50.7812 -23.584 C 52.3926 -20.6543 55.5176 -18.7988 59.3262 -18.7988 C 64.3066 -18.7988 68.0664 -22.5098 68.0664 -27.4414 C 68.0664 -32.4219 64.8438 -35.7422 60.0586 -35.7422 C 57.666 -35.7422 55.8594 -35.0098 53.7109 -33.252 C 51.8066 -31.9336 50.5859 -31.4453 48.4863 -31.4453 C 45.0684 -31.4453 43.1152 -33.4961 43.3594 -36.9141 L 44.5801 -52.7344 C 44.8242 -56.0059 47.168 -58.1055 50.7324 -58.1055 L 71.7773 -58.1055 C 74.0723 -58.1055 75.5371 -56.6895 75.5371 -54.4922 C 75.5371 -52.2461 74.0234 -50.8301 71.7773 -50.8301 L 52.3438 -50.8301 L 51.2695 -38.3301 L 51.709 -38.3301 C 53.4668 -40.918 57.666 -42.7246 61.8652 -42.7246 C 71.0938 -42.7246 77.4414 -36.6211 77.4414 -27.6367 C 77.4414 -17.7734 70.2637 -11.2793 59.5215 -11.2793 Z"/>
  </g>
  <g id="Regular-M" transform="matrix(1 0 0 1 1391.3 1126)">
   <path d="M 58.5449 14.5508 C 85.791 14.5508 108.35 -8.00781 108.35 -35.2539 C 108.35 -62.4512 85.7422 -85.0586 58.4961 -85.0586 C 31.2988 -85.0586 8.74023 -62.4512 8.74023 -35.2539 C 8.74023 -8.00781 31.3477 14.5508 58.5449 14.5508 Z M 58.6914 -11.1328 C 50.5859 -11.1328 44.7266 -14.3555 42.6758 -19.5312 C 42.3828 -20.3125 42.0898 -21.0938 42.0898 -21.9727 C 42.0898 -23.9258 43.5547 -25.3418 45.6055 -25.3418 C 47.0703 -25.3418 48.291 -24.5117 49.1699 -22.9004 C 50.8789 -19.5801 54.4434 -17.4805 58.5938 -17.4805 C 64.1602 -17.4805 68.3594 -21.6309 68.3594 -27.1973 C 68.3594 -32.7637 64.7949 -36.5234 59.4238 -36.5234 C 56.8359 -36.5234 54.8828 -35.7422 52.4902 -33.6914 C 50.4883 -32.1777 49.3652 -31.7871 47.4609 -31.7871 C 44.6289 -31.7871 42.9199 -33.6914 43.1152 -36.6211 L 44.4824 -53.4668 C 44.7266 -56.4453 46.875 -58.252 50.1953 -58.252 L 71.1914 -58.252 C 72.998 -58.252 74.2676 -56.9824 74.2676 -55.1758 C 74.2676 -53.3203 72.9492 -52.002 71.1914 -52.002 L 50.9766 -52.002 L 49.8047 -38.2324 L 50.1465 -38.2324 C 51.9531 -40.7715 56.25 -42.5781 60.3516 -42.5781 C 69.6289 -42.5781 76.123 -36.3281 76.123 -27.3438 C 76.123 -17.5781 69.043 -11.1328 58.6914 -11.1328 Z"/>
  </g>
  <g id="Light-M" transform="matrix(1 0 0 1 1095.42 1126)">
   <path d="M 57.7148 13.7695 C 84.5215 13.7695 106.689 -8.39844 106.689 -35.2051 C 106.689 -62.0117 84.5215 -84.1797 57.666 -84.1797 C 30.8594 -84.1797 8.74023 -62.0117 8.74023 -35.2051 C 8.74023 -8.39844 30.9082 13.7695 57.7148 13.7695 Z M 57.8125 -11.8164 C 50.0488 -11.8164 44.4824 -15.2344 42.7246 -20.4102 C 42.4805 -20.9961 42.2852 -21.6309 42.2852 -22.3145 C 42.2852 -23.8281 43.4082 -24.9023 44.9707 -24.9023 C 46.1914 -24.9023 47.1191 -24.2676 47.8027 -22.9004 C 49.2676 -19.2383 53.2227 -16.8457 57.8613 -16.8457 C 63.8184 -16.8457 68.3105 -21.2891 68.3105 -27.2949 C 68.3105 -33.252 64.3555 -37.3047 58.4961 -37.3047 C 55.4688 -37.3047 53.1738 -36.3281 50.4395 -33.6914 C 48.9258 -32.5195 48.0957 -32.1289 46.582 -32.1289 C 44.3848 -32.1289 43.0664 -33.6426 43.2129 -35.8887 L 44.6777 -53.9551 C 44.873 -56.3477 46.5332 -57.7637 49.1211 -57.7637 L 70.1172 -57.7637 C 71.582 -57.7637 72.5586 -56.7383 72.5586 -55.2734 C 72.5586 -53.8086 71.582 -52.7832 70.1172 -52.7832 L 49.8047 -52.7832 L 48.5352 -37.5 L 48.8281 -37.5 C 50.8789 -40.2832 55.0781 -42.0898 59.1797 -42.0898 C 68.0664 -42.0898 74.3164 -36.0352 74.3164 -27.3926 C 74.3164 -18.0176 67.627 -11.8164 57.8125 -11.8164 Z"/>
  </g>
  <g id="Thin-M" transform="matrix(1 0 0 1 799.806 1126)">
   <path d="M 56.6406 12.7441 C 82.9102 12.7441 104.492 -8.83789 104.492 -35.1562 C 104.492 -61.4746 82.9102 -83.0566 56.5918 -83.0566 C 30.3223 -83.0566 8.74023 -61.4746 8.74023 -35.1562 C 8.74023 -8.83789 30.3223 12.7441 56.6406 12.7441 Z M 56.6406 -12.6953 C 49.3652 -12.6953 44.1895 -16.4062 42.7246 -21.582 C 42.627 -21.9238 42.5293 -22.2656 42.5293 -22.7051 C 42.5293 -23.6816 43.2129 -24.3652 44.1895 -24.3652 C 45.0684 -24.3652 45.6543 -23.877 45.9961 -22.9004 C 47.1191 -18.8477 51.6113 -16.0156 56.9336 -16.0156 C 63.3789 -16.0156 68.1641 -20.8496 68.1641 -27.3438 C 68.1641 -33.8379 63.7207 -38.3301 57.2754 -38.3301 C 53.6133 -38.3301 50.8789 -37.0605 47.7051 -33.6426 C 46.9238 -32.9102 46.4355 -32.666 45.459 -32.666 C 44.0918 -32.666 43.3105 -33.5938 43.3594 -34.9609 L 44.9707 -54.5898 C 45.1172 -56.1523 46.0449 -57.0801 47.6562 -57.0801 L 68.75 -57.0801 C 69.7266 -57.0801 70.3613 -56.3477 70.3613 -55.4199 C 70.3613 -54.4922 69.6777 -53.8086 68.75 -53.8086 L 48.291 -53.8086 L 46.875 -36.5234 L 47.1191 -36.5234 C 49.4141 -39.5996 53.5645 -41.5039 57.7148 -41.5039 C 65.9668 -41.5039 71.875 -35.6934 71.875 -27.4414 C 71.875 -18.6523 65.7227 -12.6953 56.6406 -12.6953 Z"/>
  </g>
  <g id="Ultralight-M" transform="matrix(1 0 0 1 503.656 1126)">
   <path d="M 56.0547 12.207 C 82.0801 12.207 103.369 -9.08203 103.369 -35.1562 C 103.369 -61.1816 82.0801 -82.4707 56.0547 -82.4707 C 30.0293 -82.4707 8.74023 -61.1816 8.74023 -35.1562 C 8.74023 -9.08203 30.0293 12.207 56.0547 12.207 Z M 56.0547 -13.1836 C 49.0234 -13.1836 44.043 -16.9922 42.7734 -22.168 C 42.7246 -22.4121 42.6758 -22.6562 42.6758 -22.9492 C 42.6758 -23.584 43.1152 -24.0723 43.7988 -24.0723 C 44.4824 -24.0723 44.873 -23.7305 45.0684 -22.9004 C 46.0449 -18.6523 50.7812 -15.5762 56.4453 -15.5762 C 63.1348 -15.5762 68.1152 -20.6055 68.1152 -27.3926 C 68.1152 -34.1797 63.4277 -38.8672 56.6895 -38.8672 C 52.6855 -38.8672 49.707 -37.4512 46.3379 -33.6426 C 45.8496 -33.1055 45.5566 -32.9102 44.9219 -32.9102 C 43.9453 -32.9102 43.4082 -33.5938 43.457 -34.4727 L 45.0684 -54.9316 C 45.2148 -56.0547 45.8008 -56.7383 46.875 -56.7383 L 68.0176 -56.7383 C 68.75 -56.7383 69.2383 -56.2012 69.2383 -55.5176 C 69.2383 -54.8828 68.75 -54.2969 68.0176 -54.2969 L 47.5098 -54.2969 L 45.9961 -36.0352 L 46.2402 -36.0352 C 48.6816 -39.3066 52.7832 -41.2109 56.9336 -41.2109 C 64.9414 -41.2109 70.6543 -35.498 70.6543 -27.4902 C 70.6543 -18.9453 64.7461 -13.1836 56.0547 -13.1836 Z"/>
  </g>
  <g id="Black-S" transform="matrix(1 0 0 1 2884.57 696)">
   <path d="M 48.8281 6.78711 C 71.9727 6.78711 90.8203 -12.0605 90.8203 -35.2051 C 90.8203 -58.3496 71.9727 -77.1973 48.8281 -77.1973 C 25.6836 -77.1973 6.83594 -58.3496 6.83594 -35.2051 C 6.83594 -12.0605 25.6836 6.78711 48.8281 6.78711 Z M 49.4141 -17.041 C 41.748 -17.041 36.7188 -19.2871 35.2539 -22.7539 C 34.9121 -23.4863 34.7656 -24.2676 34.7656 -25.0977 C 34.7656 -27.9297 36.7676 -29.7852 40.332 -29.7852 C 42.9688 -29.7852 44.1895 -29.0527 45.2148 -28.418 C 46.2891 -27.6855 47.168 -27.002 49.0723 -27.002 C 50.9277 -27.002 52.2461 -28.3203 52.2461 -29.9805 C 52.2461 -31.7383 51.0742 -32.9102 49.3164 -32.9102 C 48.0469 -32.9102 47.2168 -32.5195 46.2402 -32.0801 C 45.166 -31.6406 43.8965 -31.1035 41.6504 -31.1035 C 36.8164 -31.1035 34.5215 -33.3496 34.7656 -37.6465 L 35.3027 -46.4355 C 35.498 -50 37.8906 -52.4902 41.5527 -52.4902 L 58.1543 -52.4902 C 61.7188 -52.4902 63.6719 -50.9277 63.6719 -47.9004 C 63.6719 -44.9219 61.6211 -43.2129 58.1543 -43.2129 L 45.6543 -43.2129 L 45.2637 -38.1348 L 45.9473 -38.1348 C 47.0703 -40.2832 50.1953 -41.6992 53.8086 -41.6992 C 60.8398 -41.6992 65.332 -37.3047 65.332 -30.4199 C 65.332 -22.168 59.2773 -17.041 49.4141 -17.041 Z"/>
  </g>
  <g id="Heavy-S" transform="matrix(1 0 0 1 2588.47 696)">
   <path d="M 48.2422 6.15234 C 70.9961 6.15234 89.5996 -12.4512 89.5996 -35.2051 C 89.5996 -57.959 70.9961 -76.6113 48.1934 -76.6113 C 25.4395 -76.6113 6.83594 -57.959 6.83594 -35.2051 C 6.83594 -12.4512 25.4395 6.15234 48.2422 6.15234 Z M 48.6816 -16.7969 C 41.3086 -16.7969 36.3281 -19.0918 34.8145 -22.7051 C 34.4727 -23.4375 34.3262 -24.1699 34.3262 -25 C 34.3262 -27.5879 36.1328 -29.2969 39.3066 -29.2969 C 41.6016 -29.2969 42.8223 -28.5645 43.7988 -27.7344 C 44.9707 -26.6113 46.2402 -25.7324 48.3887 -25.7324 C 50.8301 -25.7324 52.5879 -27.4902 52.5879 -29.7363 C 52.5879 -32.0312 51.0254 -33.5938 48.7793 -33.5938 C 47.3633 -33.5938 46.4355 -33.2031 45.2637 -32.5195 C 43.9941 -31.8848 42.8223 -31.3965 40.6738 -31.3965 C 36.4258 -31.3965 34.2773 -33.4961 34.5215 -37.4023 L 35.1562 -47.1191 C 35.3516 -50.4395 37.6465 -52.7344 41.1621 -52.7344 L 57.7148 -52.7344 C 60.791 -52.7344 62.5488 -51.2695 62.5488 -48.584 C 62.5488 -45.8984 60.7422 -44.3359 57.7148 -44.3359 L 44.4336 -44.3359 L 43.9453 -38.0859 L 44.5312 -38.0859 C 45.7031 -40.1855 48.877 -41.6016 52.3926 -41.6016 C 59.5215 -41.6016 64.209 -37.0605 64.209 -30.0781 C 64.209 -21.9238 58.2031 -16.7969 48.6816 -16.7969 Z"/>
  </g>
  <g id="Bold-S" transform="matrix(1 0 0 1 2292.44 696)">
   <path d="M 47.5586 5.46875 C 69.873 5.46875 88.2324 -12.8906 88.2324 -35.2051 C 88.2324 -57.5684 69.873 -75.9277 47.5098 -75.9277 C 25.1953 -75.9277 6.83594 -57.5684 6.83594 -35.2051 C 6.83594 -12.8906 25.1953 5.46875 47.5586 5.46875 Z M 47.9004 -16.5527 C 40.8203 -16.5527 35.9375 -18.8477 34.3262 -22.6074 C 34.0332 -23.3398 33.8379 -24.0723 33.8379 -24.9023 C 33.8379 -27.1973 35.4492 -28.7109 38.1836 -28.7109 C 40.1367 -28.7109 41.2598 -28.0273 42.1875 -27.002 C 43.457 -25.3906 45.2148 -24.3164 47.6562 -24.3164 C 50.6836 -24.3164 52.9297 -26.5137 52.9297 -29.4434 C 52.9297 -32.4219 51.0254 -34.375 48.1445 -34.375 C 46.6309 -34.375 45.5078 -33.9355 44.1895 -33.0566 C 42.7246 -32.1777 41.6016 -31.7383 39.5996 -31.7383 C 35.9375 -31.7383 34.0332 -33.6914 34.2285 -37.1582 L 35.0098 -47.8516 C 35.2051 -50.9766 37.4023 -53.0273 40.7227 -53.0273 L 57.2266 -53.0273 C 59.8145 -53.0273 61.3281 -51.6602 61.3281 -49.3652 C 61.3281 -47.0215 59.7168 -45.6055 57.2266 -45.6055 L 43.0664 -45.6055 L 42.4316 -38.0371 L 42.9199 -38.0371 C 44.1406 -40.0391 47.4121 -41.4551 50.8301 -41.4551 C 58.0566 -41.4551 62.9395 -36.7676 62.9395 -29.7363 C 62.9395 -21.6797 57.0312 -16.5527 47.9004 -16.5527 Z"/>
  </g>
  <g id="Semibold-S" transform="matrix(1 0 0 1 1996.2 696)">
   <path d="M 47.0703 4.98047 C 69.0918 4.98047 87.3047 -13.1836 87.3047 -35.2539 C 87.3047 -57.2754 69.0918 -75.4883 47.0215 -75.4883 C 25 -75.4883 6.83594 -57.2754 6.83594 -35.2539 C 6.83594 -13.1836 25.0488 4.98047 47.0703 4.98047 Z M 47.3633 -16.3574 C 40.4785 -16.3574 35.6445 -18.7012 33.9844 -22.5586 C 33.6914 -23.291 33.4961 -24.0234 33.4961 -24.8535 C 33.4961 -26.9043 35.0098 -28.3203 37.3535 -28.3203 C 39.0625 -28.3203 40.1855 -27.6367 41.1133 -26.4648 C 42.4316 -24.5605 44.4824 -23.3398 47.1191 -23.3398 C 50.5859 -23.3398 53.1738 -25.8789 53.1738 -29.248 C 53.1738 -32.666 50.9766 -34.9121 47.7051 -34.9121 C 46.0938 -34.9121 44.9219 -34.4238 43.4082 -33.3984 C 41.8457 -32.373 40.7227 -31.9336 38.8672 -31.9336 C 35.6445 -31.9336 33.8379 -33.7891 34.0332 -36.9629 L 34.9121 -48.3887 C 35.1074 -51.3184 37.207 -53.2227 40.3809 -53.2227 L 56.8848 -53.2227 C 59.082 -53.2227 60.4492 -51.9531 60.4492 -49.8535 C 60.4492 -47.8027 59.0332 -46.4844 56.8848 -46.4844 L 42.1387 -46.4844 L 41.4062 -37.9883 L 41.7969 -37.9883 C 43.1152 -39.9414 46.3867 -41.3574 49.707 -41.3574 C 57.0312 -41.3574 62.0605 -36.5723 62.0605 -29.4434 C 62.0605 -21.4844 56.2012 -16.3574 47.3633 -16.3574 Z"/>
  </g>
  <g id="Medium-S" transform="matrix(1 0 0 1 1699.83 696)">
   <path d="M 46.7285 4.63867 C 68.5547 4.63867 86.6211 -13.4277 86.6211 -35.2539 C 86.6211 -57.0312 68.5059 -75.1465 46.6797 -75.1465 C 24.8535 -75.1465 6.83594 -57.0312 6.83594 -35.2539 C 6.83594 -13.4277 24.9023 4.63867 46.7285 4.63867 Z M 46.9238 -16.2109 C 40.1855 -16.2109 35.4004 -18.6035 33.7402 -22.5586 C 33.4473 -23.2422 33.2031 -23.9746 33.2031 -24.7559 C 33.2031 -26.709 34.6191 -28.0273 36.7676 -28.0273 C 38.2812 -28.0273 39.4043 -27.3438 40.2832 -26.0742 C 41.6504 -23.9258 43.9453 -22.6074 46.7285 -22.6074 C 50.5371 -22.6074 53.3691 -25.3906 53.3691 -29.1016 C 53.3691 -32.8613 50.9766 -35.3516 47.4121 -35.3516 C 45.7031 -35.3516 44.4336 -34.8145 42.8711 -33.6914 C 41.1621 -32.5195 40.0879 -32.1289 38.2812 -32.1289 C 35.4004 -32.1289 33.6914 -33.8867 33.8867 -36.8164 L 34.8633 -48.7793 C 35.0586 -51.5625 37.0605 -53.3691 40.1855 -53.3691 L 56.6406 -53.3691 C 58.5938 -53.3691 59.8145 -52.1484 59.8145 -50.293 C 59.8145 -48.3887 58.4961 -47.168 56.6406 -47.168 L 41.4062 -47.168 L 40.625 -37.9395 L 40.9668 -37.9395 C 42.2852 -39.8926 45.6055 -41.2598 48.877 -41.2598 C 56.2988 -41.2598 61.377 -36.4258 61.377 -29.248 C 61.377 -21.3379 55.5664 -16.2109 46.9238 -16.2109 Z"/>
  </g>
  <g id="Regular-S" transform="matrix(1 0 0 1 1403.58 696)">
   <path d="M 46.2402 4.15039 C 67.7734 4.15039 85.6934 -13.7207 85.6934 -35.2539 C 85.6934 -56.7871 67.7246 -74.6582 46.1914 -74.6582 C 24.707 -74.6582 6.83594 -56.7871 6.83594 -35.2539 C 6.83594 -13.7207 24.7559 4.15039 46.2402 4.15039 Z M 46.3867 -16.0156 C 39.8438 -16.0156 35.1074 -18.457 33.3984 -22.5098 C 33.1055 -23.1934 32.9102 -23.9258 32.9102 -24.707 C 32.9102 -26.4648 34.1797 -27.6855 35.9863 -27.6855 C 37.2559 -27.6855 38.3301 -26.9531 39.209 -25.5859 C 40.625 -23.0957 43.2129 -21.6309 46.2402 -21.6309 C 50.4395 -21.6309 53.6133 -24.7559 53.6133 -28.9062 C 53.6133 -33.0566 50.9766 -35.8398 46.9727 -35.8398 C 45.2148 -35.8398 43.8477 -35.3516 42.0898 -34.0332 C 40.2832 -32.7148 39.2578 -32.3242 37.5488 -32.3242 C 35.0586 -32.3242 33.5449 -34.0332 33.6914 -36.6699 L 34.7656 -49.3164 C 34.9609 -51.9531 36.9141 -53.5156 39.8438 -53.5156 L 56.2988 -53.5156 C 57.8613 -53.5156 58.9844 -52.3926 58.9844 -50.7812 C 58.9844 -49.1699 57.8613 -47.998 56.2988 -47.998 L 40.4785 -47.998 L 39.5996 -37.9395 L 39.8926 -37.9395 C 41.2598 -39.7949 44.5801 -41.2109 47.8027 -41.2109 C 55.2734 -41.2109 60.498 -36.2305 60.498 -29.0039 C 60.498 -21.1426 54.7363 -16.0156 46.3867 -16.0156 Z"/>
  </g>
  <g id="Light-S" transform="matrix(1 0 0 1 1107.6 696)">
   <path d="M 45.5078 3.4668 C 66.6992 3.4668 84.2285 -14.0625 84.2285 -35.2051 C 84.2285 -56.3965 66.6504 -73.9258 45.5078 -73.9258 C 24.3164 -73.9258 6.83594 -56.3965 6.83594 -35.2051 C 6.83594 -14.0625 24.3652 3.4668 45.5078 3.4668 Z M 45.6055 -16.6016 C 39.4043 -16.6016 34.9121 -19.2383 33.4473 -23.291 C 33.2031 -23.8281 33.0566 -24.3652 33.0566 -25 C 33.0566 -26.3672 34.0332 -27.2949 35.4492 -27.2949 C 36.5234 -27.2949 37.3535 -26.709 37.9883 -25.5859 C 39.209 -22.8516 42.1387 -21.0938 45.6055 -21.0938 C 50.1465 -21.0938 53.5156 -24.4629 53.5156 -28.9551 C 53.5156 -33.4961 50.5371 -36.5723 46.1914 -36.5723 C 43.9453 -36.5723 42.2852 -35.8398 40.2832 -34.0332 C 38.916 -32.959 38.1348 -32.666 36.8164 -32.666 C 34.8633 -32.666 33.6914 -33.9844 33.7891 -36.0352 L 34.9121 -49.707 C 35.1074 -51.8066 36.5723 -53.0762 38.8672 -53.0762 L 55.3223 -53.0762 C 56.6406 -53.0762 57.4707 -52.1484 57.4707 -50.8789 C 57.4707 -49.6094 56.5918 -48.6816 55.3223 -48.6816 L 39.4531 -48.6816 L 38.4766 -37.2559 L 38.7207 -37.2559 C 40.2832 -39.3555 43.6035 -40.7715 46.8262 -40.7715 C 53.9062 -40.7715 58.8867 -35.9863 58.8867 -29.0527 C 58.8867 -21.582 53.5156 -16.6016 45.6055 -16.6016 Z"/>
  </g>
  <g id="Thin-S" transform="matrix(1 0 0 1 811.867 696)">
   <path d="M 44.5801 2.53906 C 65.2832 2.53906 82.2754 -14.4531 82.2754 -35.2051 C 82.2754 -55.9082 65.2344 -72.9004 44.5312 -72.9004 C 23.8281 -72.9004 6.83594 -55.9082 6.83594 -35.2051 C 6.83594 -14.4531 23.877 2.53906 44.5801 2.53906 Z M 44.5801 -17.4316 C 38.8184 -17.4316 34.668 -20.2637 33.4473 -24.3164 C 33.3496 -24.6094 33.252 -24.9512 33.252 -25.3418 C 33.252 -26.2207 33.8867 -26.8066 34.7656 -26.8066 C 35.498 -26.8066 36.0352 -26.416 36.377 -25.5859 C 37.3047 -22.5098 40.7227 -20.3613 44.7754 -20.3613 C 49.707 -20.3613 53.418 -24.0234 53.418 -29.0527 C 53.418 -34.0332 50.0488 -37.4512 45.1172 -37.4512 C 42.334 -37.4512 40.2832 -36.5234 37.8906 -33.9844 C 37.1094 -33.3008 36.6699 -33.1055 35.8398 -33.1055 C 34.6191 -33.1055 33.8379 -33.9844 33.9355 -35.2051 L 35.1562 -50.293 C 35.2539 -51.6602 36.1816 -52.4902 37.5977 -52.4902 L 54.1016 -52.4902 C 54.9805 -52.4902 55.5176 -51.8555 55.5176 -51.0254 C 55.5176 -50.1953 54.9316 -49.5605 54.1016 -49.5605 L 38.1348 -49.5605 L 37.0117 -36.4258 L 37.2559 -36.4258 C 39.0137 -38.8184 42.2363 -40.2832 45.459 -40.2832 C 52.0996 -40.2832 56.7871 -35.6445 56.7871 -29.1016 C 56.7871 -22.1191 51.8555 -17.4316 44.5801 -17.4316 Z"/>
  </g>
  <g id="Ultralight-S" transform="matrix(1 0 0 1 515.644 696)">
   <path d="M 44.043 2.05078 C 64.502 2.05078 81.2988 -14.6973 81.2988 -35.1562 C 81.2988 -55.6152 64.502 -72.3633 44.043 -72.3633 C 23.584 -72.3633 6.83594 -55.6152 6.83594 -35.1562 C 6.83594 -14.6973 23.584 2.05078 44.043 2.05078 Z M 44.043 -17.8223 C 38.4766 -17.8223 34.5703 -20.8008 33.4961 -24.8535 C 33.4473 -25.0488 33.3496 -25.293 33.3496 -25.5371 C 33.3496 -26.123 33.7891 -26.5625 34.4238 -26.5625 C 34.9609 -26.5625 35.3516 -26.2695 35.5469 -25.5859 C 36.377 -22.3145 39.9902 -19.9707 44.3359 -19.9707 C 49.5117 -19.9707 53.3691 -23.8281 53.3691 -29.1016 C 53.3691 -34.3262 49.7559 -37.9395 44.5801 -37.9395 C 41.5039 -37.9395 39.2578 -36.8652 36.6699 -33.9844 C 36.1816 -33.4961 35.9375 -33.3496 35.3027 -33.3496 C 34.4727 -33.3496 33.9844 -33.9355 34.0332 -34.7656 L 35.2539 -50.5859 C 35.4004 -51.5625 35.9375 -52.1484 36.9141 -52.1484 L 53.4668 -52.1484 C 54.1016 -52.1484 54.541 -51.709 54.541 -51.123 C 54.541 -50.5371 54.1016 -50.0488 53.4668 -50.0488 L 37.4023 -50.0488 L 36.2793 -35.9863 L 36.4746 -35.9863 C 38.3301 -38.4766 41.5527 -39.9902 44.7754 -39.9902 C 51.123 -39.9902 55.6641 -35.498 55.6641 -29.1504 C 55.6641 -22.4121 50.9766 -17.8223 44.043 -17.8223 Z"/>
  </g>
 </g>
</svg>
