<?xml version="1.0" encoding="UTF-8"?>
<!--Generator: Apple Native CoreSVG 123-->
<!DOCTYPE svg
PUBLIC "-//W3C//DTD SVG 1.1//EN"
       "http://www.w3.org/Graphics/SVG/1.1/DTD/svg11.dtd">
<svg version="1.1" xmlns="http://www.w3.org/2000/svg" xmlns:xlink="http://www.w3.org/1999/xlink" width="3300" height="2200">
 <!--glyph: "uni1006BC.medium", point size: 100.000000, font version: "Version 15.0d7e11", template writer version: "5"-->
 <g id="Notes">
  <rect height="2200" id="artboard" style="fill:white;opacity:1" width="3300" x="0" y="0"/>
  <line id="" style="fill:none;stroke:black;opacity:1;stroke-width:0.5;" x1="263" x2="3036" y1="292" y2="292"/>
  <text style="stroke:none;fill:black;font-family:-apple-system,&quot;SF Pro Display&quot;,&quot;SF Pro Text&quot;,Helvetica,sans-serif;font-weight:bold;" transform="matrix(1 0 0 1 263 322)">Weight/Scale Variations</text>
  <text style="stroke:none;fill:black;font-family:-apple-system,&quot;SF Pro Display&quot;,&quot;SF Pro Text&quot;,Helvetica,sans-serif;text-anchor:middle;" transform="matrix(1 0 0 1 559.711 322)">Ultralight</text>
  <text style="stroke:none;fill:black;font-family:-apple-system,&quot;SF Pro Display&quot;,&quot;SF Pro Text&quot;,Helvetica,sans-serif;text-anchor:middle;" transform="matrix(1 0 0 1 856.422 322)">Thin</text>
  <text style="stroke:none;fill:black;font-family:-apple-system,&quot;SF Pro Display&quot;,&quot;SF Pro Text&quot;,Helvetica,sans-serif;text-anchor:middle;" transform="matrix(1 0 0 1 1153.13 322)">Light</text>
  <text style="stroke:none;fill:black;font-family:-apple-system,&quot;SF Pro Display&quot;,&quot;SF Pro Text&quot;,Helvetica,sans-serif;text-anchor:middle;" transform="matrix(1 0 0 1 1449.84 322)">Regular</text>
  <text style="stroke:none;fill:black;font-family:-apple-system,&quot;SF Pro Display&quot;,&quot;SF Pro Text&quot;,Helvetica,sans-serif;text-anchor:middle;" transform="matrix(1 0 0 1 1746.56 322)">Medium</text>
  <text style="stroke:none;fill:black;font-family:-apple-system,&quot;SF Pro Display&quot;,&quot;SF Pro Text&quot;,Helvetica,sans-serif;text-anchor:middle;" transform="matrix(1 0 0 1 2043.27 322)">Semibold</text>
  <text style="stroke:none;fill:black;font-family:-apple-system,&quot;SF Pro Display&quot;,&quot;SF Pro Text&quot;,Helvetica,sans-serif;text-anchor:middle;" transform="matrix(1 0 0 1 2339.98 322)">Bold</text>
  <text style="stroke:none;fill:black;font-family:-apple-system,&quot;SF Pro Display&quot;,&quot;SF Pro Text&quot;,Helvetica,sans-serif;text-anchor:middle;" transform="matrix(1 0 0 1 2636.69 322)">Heavy</text>
  <text style="stroke:none;fill:black;font-family:-apple-system,&quot;SF Pro Display&quot;,&quot;SF Pro Text&quot;,Helvetica,sans-serif;text-anchor:middle;" transform="matrix(1 0 0 1 2933.4 322)">Black</text>
  <line id="" style="fill:none;stroke:black;opacity:1;stroke-width:0.5;" x1="263" x2="3036" y1="1903" y2="1903"/>
  <g id="" transform="matrix(1 0 0 1 263 1933)">
   <path d="M 9.24805 0.830078 C 13.5547 0.830078 17.1387 -2.74414 17.1387 -7.05078 C 17.1387 -11.3574 13.5449 -14.9316 9.23828 -14.9316 C 4.94141 -14.9316 1.36719 -11.3574 1.36719 -7.05078 C 1.36719 -2.74414 4.95117 0.830078 9.24805 0.830078 Z M 9.24805 -0.654297 C 5.70312 -0.654297 2.87109 -3.49609 2.87109 -7.05078 C 2.87109 -10.6055 5.69336 -13.4473 9.23828 -13.4473 C 12.793 -13.4473 15.6348 -10.6055 15.6445 -7.05078 C 15.6543 -3.49609 12.8027 -0.654297 9.24805 -0.654297 Z M 9.22852 -3.42773 C 9.69727 -3.42773 9.9707 -3.74023 9.9707 -4.25781 L 9.9707 -6.31836 L 12.1973 -6.31836 C 12.6953 -6.31836 13.0371 -6.57227 13.0371 -7.04102 C 13.0371 -7.51953 12.7148 -7.7832 12.1973 -7.7832 L 9.9707 -7.7832 L 9.9707 -10.0098 C 9.9707 -10.5273 9.69727 -10.8496 9.22852 -10.8496 C 8.75977 -10.8496 8.50586 -10.5078 8.50586 -10.0098 L 8.50586 -7.7832 L 6.29883 -7.7832 C 5.78125 -7.7832 5.44922 -7.51953 5.44922 -7.04102 C 5.44922 -6.57227 5.80078 -6.31836 6.29883 -6.31836 L 8.50586 -6.31836 L 8.50586 -4.25781 C 8.50586 -3.75977 8.75977 -3.42773 9.22852 -3.42773 Z"/>
  </g>
  <g id="" transform="matrix(1 0 0 1 281.506 1933)">
   <path d="M 11.709 2.91016 C 17.1582 2.91016 21.6699 -1.60156 21.6699 -7.05078 C 21.6699 -12.4902 17.1484 -17.0117 11.6992 -17.0117 C 6.25977 -17.0117 1.74805 -12.4902 1.74805 -7.05078 C 1.74805 -1.60156 6.26953 2.91016 11.709 2.91016 Z M 11.709 1.25 C 7.09961 1.25 3.41797 -2.44141 3.41797 -7.05078 C 3.41797 -11.6504 7.08984 -15.3516 11.6992 -15.3516 C 16.3086 -15.3516 20 -11.6504 20.0098 -7.05078 C 20.0195 -2.44141 16.3184 1.25 11.709 1.25 Z M 11.6895 -2.41211 C 12.207 -2.41211 12.5195 -2.77344 12.5195 -3.33984 L 12.5195 -6.23047 L 15.5762 -6.23047 C 16.123 -6.23047 16.5039 -6.51367 16.5039 -7.03125 C 16.5039 -7.55859 16.1426 -7.86133 15.5762 -7.86133 L 12.5195 -7.86133 L 12.5195 -10.9277 C 12.5195 -11.5039 12.207 -11.8555 11.6895 -11.8555 C 11.1719 -11.8555 10.8789 -11.4844 10.8789 -10.9277 L 10.8789 -7.86133 L 7.83203 -7.86133 C 7.26562 -7.86133 6.89453 -7.55859 6.89453 -7.03125 C 6.89453 -6.51367 7.28516 -6.23047 7.83203 -6.23047 L 10.8789 -6.23047 L 10.8789 -3.33984 C 10.8789 -2.79297 11.1719 -2.41211 11.6895 -2.41211 Z"/>
  </g>
  <g id="" transform="matrix(1 0 0 1 304.924 1933)">
   <path d="M 14.9707 5.67383 C 21.9336 5.67383 27.6953 -0.078125 27.6953 -7.04102 C 27.6953 -14.0039 21.9238 -19.7559 14.9609 -19.7559 C 8.00781 -19.7559 2.25586 -14.0039 2.25586 -7.04102 C 2.25586 -0.078125 8.01758 5.67383 14.9707 5.67383 Z M 14.9707 3.85742 C 8.93555 3.85742 4.08203 -1.00586 4.08203 -7.04102 C 4.08203 -13.0762 8.92578 -17.9395 14.9609 -17.9395 C 21.0059 -17.9395 25.8594 -13.0762 25.8691 -7.04102 C 25.8789 -1.00586 21.0156 3.85742 14.9707 3.85742 Z M 14.9512 -1.06445 C 15.5176 -1.06445 15.8691 -1.45508 15.8691 -2.06055 L 15.8691 -6.13281 L 20.1074 -6.13281 C 20.6934 -6.13281 21.1133 -6.46484 21.1133 -7.02148 C 21.1133 -7.59766 20.7227 -7.93945 20.1074 -7.93945 L 15.8691 -7.93945 L 15.8691 -12.1875 C 15.8691 -12.8027 15.5176 -13.1934 14.9512 -13.1934 C 14.3848 -13.1934 14.0625 -12.7832 14.0625 -12.1875 L 14.0625 -7.93945 L 9.83398 -7.93945 C 9.21875 -7.93945 8.80859 -7.59766 8.80859 -7.02148 C 8.80859 -6.46484 9.23828 -6.13281 9.83398 -6.13281 L 14.0625 -6.13281 L 14.0625 -2.06055 C 14.0625 -1.47461 14.3848 -1.06445 14.9512 -1.06445 Z"/>
  </g>
  <text style="stroke:none;fill:black;font-family:-apple-system,&quot;SF Pro Display&quot;,&quot;SF Pro Text&quot;,Helvetica,sans-serif;font-weight:bold;" transform="matrix(1 0 0 1 263 1953)">Design Variations</text>
  <text style="stroke:none;fill:black;font-family:-apple-system,&quot;SF Pro Display&quot;,&quot;SF Pro Text&quot;,Helvetica,sans-serif;" transform="matrix(1 0 0 1 263 1971)">Symbols are supported in up to nine weights and three scales.</text>
  <text style="stroke:none;fill:black;font-family:-apple-system,&quot;SF Pro Display&quot;,&quot;SF Pro Text&quot;,Helvetica,sans-serif;" transform="matrix(1 0 0 1 263 1989)">For optimal layout with text and other symbols, vertically align</text>
  <text style="stroke:none;fill:black;font-family:-apple-system,&quot;SF Pro Display&quot;,&quot;SF Pro Text&quot;,Helvetica,sans-serif;" transform="matrix(1 0 0 1 263 2007)">symbols with the adjacent text.</text>
  <rect height="14" id="" style="fill:#00AEEF;stroke:none;opacity:0.4;" width="3" x="776" y="1919"/>
  <g id="" transform="matrix(1 0 0 1 779 1933)">
   <path d="M 10.5273 0 L 12.373 0 L 7.17773 -14.0918 L 5.43945 -14.0918 L 0.244141 0 L 2.08984 0 L 3.50586 -4.0332 L 9.11133 -4.0332 Z M 6.2793 -11.9531 L 6.33789 -11.9531 L 8.59375 -5.52734 L 4.02344 -5.52734 Z"/>
  </g>
  <rect height="14" id="" style="fill:#00AEEF;stroke:none;opacity:0.4;" width="3" x="791.617" y="1919"/>
  <text style="stroke:none;fill:black;font-family:-apple-system,&quot;SF Pro Display&quot;,&quot;SF Pro Text&quot;,Helvetica,sans-serif;font-weight:bold;" transform="matrix(1 0 0 1 776 1953)">Margins</text>
  <text style="stroke:none;fill:black;font-family:-apple-system,&quot;SF Pro Display&quot;,&quot;SF Pro Text&quot;,Helvetica,sans-serif;" transform="matrix(1 0 0 1 776 1971)">Leading and trailing margins on the left and right side of each symbol</text>
  <text style="stroke:none;fill:black;font-family:-apple-system,&quot;SF Pro Display&quot;,&quot;SF Pro Text&quot;,Helvetica,sans-serif;" transform="matrix(1 0 0 1 776 1989)">can be adjusted by modifying the width of the blue rectangles.</text>
  <text style="stroke:none;fill:black;font-family:-apple-system,&quot;SF Pro Display&quot;,&quot;SF Pro Text&quot;,Helvetica,sans-serif;" transform="matrix(1 0 0 1 776 2007)">Modifications are automatically applied proportionally to all</text>
  <text style="stroke:none;fill:black;font-family:-apple-system,&quot;SF Pro Display&quot;,&quot;SF Pro Text&quot;,Helvetica,sans-serif;" transform="matrix(1 0 0 1 776 2025)">scales and weights.</text>
  <g id="" transform="matrix(1 0 0 1 1289 1933)">
   <path d="M 2.83203 3.11523 L 4.375 4.6582 C 5.22461 5.48828 6.19141 5.41992 7.06055 4.46289 L 17.2754 -6.66016 C 17.7051 -6.36719 18.0957 -6.37695 18.5645 -6.47461 L 19.6094 -6.68945 L 20.3027 -5.99609 L 20.2539 -5.47852 C 20.1855 -4.95117 20.3516 -4.53125 20.8496 -4.0332 L 21.6602 -3.22266 C 22.168 -2.71484 22.8223 -2.68555 23.3008 -3.16406 L 26.5527 -6.41602 C 27.0312 -6.89453 27.0117 -7.54883 26.5039 -8.05664 L 25.6836 -8.87695 C 25.1855 -9.375 24.7754 -9.55078 24.2383 -9.47266 L 23.7109 -9.41406 L 23.0566 -10.0781 L 23.3398 -11.2207 C 23.4863 -11.7871 23.3398 -12.2559 22.7148 -12.8613 L 20.3027 -15.2539 C 16.7578 -18.7793 12.2266 -18.6719 9.11133 -15.5371 C 8.69141 -15.1074 8.64258 -14.5215 8.91602 -14.0918 C 9.15039 -13.7207 9.62891 -13.4961 10.2734 -13.6621 C 11.7871 -14.043 13.3008 -13.9258 14.7852 -12.9199 L 14.1602 -11.3379 C 13.9258 -10.752 13.9453 -10.2734 14.1797 -9.83398 L 3.01758 0.439453 C 2.08008 1.30859 1.97266 2.25586 2.83203 3.11523 Z M 10.6738 -15.1465 C 13.3398 -17.1387 16.6504 -16.8262 19.0527 -14.4141 L 21.6797 -11.8066 C 21.9141 -11.5723 21.9434 -11.3867 21.8848 -11.0938 L 21.5039 -9.53125 L 23.0762 -7.95898 L 24.043 -8.04688 C 24.3262 -8.07617 24.4141 -8.05664 24.6387 -7.83203 L 25.2637 -7.20703 L 22.5098 -4.46289 L 21.8848 -5.07812 C 21.6602 -5.30273 21.6406 -5.40039 21.6699 -5.68359 L 21.7578 -6.64062 L 20.1953 -8.20312 L 18.5742 -7.89062 C 18.291 -7.83203 18.1445 -7.83203 17.9102 -8.07617 L 15.7324 -10.2539 C 15.5078 -10.4883 15.4785 -10.625 15.6055 -10.9473 L 16.5527 -13.2227 C 14.9512 -14.7559 12.8418 -15.6055 10.8008 -14.9512 C 10.7129 -14.9219 10.6445 -14.9414 10.6152 -14.9805 C 10.5859 -15.0293 10.5859 -15.0781 10.6738 -15.1465 Z M 4.10156 2.41211 C 3.61328 1.91406 3.78906 1.61133 4.12109 1.30859 L 15.0781 -8.80859 L 16.3086 -7.57812 L 6.15234 3.34961 C 5.84961 3.68164 5.46875 3.7793 5.06836 3.37891 Z"/>
  </g>
  <text style="stroke:none;fill:black;font-family:-apple-system,&quot;SF Pro Display&quot;,&quot;SF Pro Text&quot;,Helvetica,sans-serif;font-weight:bold;" transform="matrix(1 0 0 1 1289 1953)">Exporting</text>
  <text style="stroke:none;fill:black;font-family:-apple-system,&quot;SF Pro Display&quot;,&quot;SF Pro Text&quot;,Helvetica,sans-serif;" transform="matrix(1 0 0 1 1289 1971)">Symbols should be outlined when exporting to ensure the</text>
  <text style="stroke:none;fill:black;font-family:-apple-system,&quot;SF Pro Display&quot;,&quot;SF Pro Text&quot;,Helvetica,sans-serif;" transform="matrix(1 0 0 1 1289 1989)">design is preserved when submitting to Xcode.</text>
  <text id="template-version" style="stroke:none;fill:black;font-family:-apple-system,&quot;SF Pro Display&quot;,&quot;SF Pro Text&quot;,Helvetica,sans-serif;text-anchor:end;" transform="matrix(1 0 0 1 3036 1933)">Template v.1.0</text>
  <text style="stroke:none;fill:black;font-family:-apple-system,&quot;SF Pro Display&quot;,&quot;SF Pro Text&quot;,Helvetica,sans-serif;text-anchor:end;" transform="matrix(1 0 0 1 3036 1951)">Generated from 50.circle.fill</text>
  <text style="stroke:none;fill:black;font-family:-apple-system,&quot;SF Pro Display&quot;,&quot;SF Pro Text&quot;,Helvetica,sans-serif;text-anchor:end;" transform="matrix(1 0 0 1 3036 1969)">Typeset at 100 points</text>
  <text style="stroke:none;fill:black;font-family:-apple-system,&quot;SF Pro Display&quot;,&quot;SF Pro Text&quot;,Helvetica,sans-serif;" transform="matrix(1 0 0 1 263 726)">Small</text>
  <text style="stroke:none;fill:black;font-family:-apple-system,&quot;SF Pro Display&quot;,&quot;SF Pro Text&quot;,Helvetica,sans-serif;" transform="matrix(1 0 0 1 263 1156)">Medium</text>
  <text style="stroke:none;fill:black;font-family:-apple-system,&quot;SF Pro Display&quot;,&quot;SF Pro Text&quot;,Helvetica,sans-serif;" transform="matrix(1 0 0 1 263 1586)">Large</text>
 </g>
 <g id="Guides">
  <g id="H-reference" style="fill:#27AAE1;stroke:none;" transform="matrix(1 0 0 1 339 696)">
   <path d="M 54.9316 0 L 57.666 0 L 30.5664 -70.459 L 28.0762 -70.459 L 0.976562 0 L 3.66211 0 L 12.9395 -24.4629 L 45.7031 -24.4629 Z M 29.1992 -67.0898 L 29.4434 -67.0898 L 44.8242 -26.709 L 13.8184 -26.709 Z"/>
  </g>
  <line id="Baseline-S" style="fill:none;stroke:#27AAE1;opacity:1;stroke-width:0.577;" x1="263" x2="3036" y1="696" y2="696"/>
  <line id="Capline-S" style="fill:none;stroke:#27AAE1;opacity:1;stroke-width:0.577;" x1="263" x2="3036" y1="625.541" y2="625.541"/>
  <g id="H-reference" style="fill:#27AAE1;stroke:none;" transform="matrix(1 0 0 1 339 1126)">
   <path d="M 54.9316 0 L 57.666 0 L 30.5664 -70.459 L 28.0762 -70.459 L 0.976562 0 L 3.66211 0 L 12.9395 -24.4629 L 45.7031 -24.4629 Z M 29.1992 -67.0898 L 29.4434 -67.0898 L 44.8242 -26.709 L 13.8184 -26.709 Z"/>
  </g>
  <line id="Baseline-M" style="fill:none;stroke:#27AAE1;opacity:1;stroke-width:0.577;" x1="263" x2="3036" y1="1126" y2="1126"/>
  <line id="Capline-M" style="fill:none;stroke:#27AAE1;opacity:1;stroke-width:0.577;" x1="263" x2="3036" y1="1055.54" y2="1055.54"/>
  <g id="H-reference" style="fill:#27AAE1;stroke:none;" transform="matrix(1 0 0 1 339 1556)">
   <path d="M 54.9316 0 L 57.666 0 L 30.5664 -70.459 L 28.0762 -70.459 L 0.976562 0 L 3.66211 0 L 12.9395 -24.4629 L 45.7031 -24.4629 Z M 29.1992 -67.0898 L 29.4434 -67.0898 L 44.8242 -26.709 L 13.8184 -26.709 Z"/>
  </g>
  <line id="Baseline-L" style="fill:none;stroke:#27AAE1;opacity:1;stroke-width:0.577;" x1="263" x2="3036" y1="1556" y2="1556"/>
  <line id="Capline-L" style="fill:none;stroke:#27AAE1;opacity:1;stroke-width:0.577;" x1="263" x2="3036" y1="1485.54" y2="1485.54"/>
  <rect height="119.336" id="left-margin" style="fill:#00AEEF;stroke:none;opacity:0.4;" width="8.74023" x="1391.3" y="1030.79"/>
  <rect height="119.336" id="right-margin" style="fill:#00AEEF;stroke:none;opacity:0.4;" width="8.74023" x="1499.65" y="1030.79"/>
 </g>
 <g id="Symbols">
  <g id="Black-L" transform="matrix(1 0 0 1 2854.05 1556)">
   <path d="M 79.3457 32.8613 C 116.748 32.8613 147.412 2.19727 147.412 -35.2051 C 147.412 -72.6074 116.748 -103.271 79.2969 -103.271 C 41.8945 -103.271 11.2793 -72.6074 11.2793 -35.2051 C 11.2793 2.19727 41.9434 32.8613 79.3457 32.8613 Z M 100.195 -9.375 C 89.9414 -9.375 83.2031 -17.4316 83.2031 -35.2051 C 83.2031 -52.9785 89.9414 -60.9863 100.195 -60.9863 C 110.352 -60.9863 117.529 -52.9785 117.529 -35.2051 C 117.529 -17.4316 110.352 -9.375 100.195 -9.375 Z M 59.9121 -9.375 C 52.3438 -9.375 46.9238 -13.623 45.2148 -17.3828 C 44.6777 -18.6035 44.5312 -19.7266 44.5312 -20.8984 C 44.5312 -24.0234 46.875 -26.3184 49.707 -26.3184 C 52.2949 -26.3184 53.3691 -24.7559 54.541 -23.5352 C 56.1523 -21.8262 57.8125 -20.166 60.5957 -20.166 C 64.1602 -20.166 66.5527 -22.9004 66.5527 -26.8555 C 66.5527 -30.3223 64.2578 -33.1543 61.1816 -33.1543 C 59.2773 -33.1543 58.0566 -32.5195 56.2988 -31.25 C 54.8828 -30.1758 53.3691 -29.4434 50.4395 -29.4434 C 46.7285 -29.4434 44.2871 -31.9824 44.4336 -36.084 L 45.459 -52.6855 C 45.7031 -57.2266 47.998 -59.9121 52.1484 -59.9121 L 71.0449 -59.9121 C 74.4629 -59.9121 76.4648 -58.0566 76.4648 -54.6387 C 76.4648 -51.2695 74.3164 -49.2676 71.0449 -49.2676 L 55.7129 -49.2676 L 54.9316 -38.2812 L 55.1758 -38.2812 C 56.9824 -40.9668 60.498 -42.6758 64.209 -42.6758 C 71.7285 -42.6758 78.125 -37.0117 78.125 -27.4902 C 78.125 -16.4062 71.2891 -9.375 59.9121 -9.375 Z M 100.342 -21.4355 C 103.223 -21.4355 105.029 -25.1465 105.029 -35.2051 C 105.029 -45.2637 103.223 -48.9258 100.342 -48.9258 C 97.5098 -48.9258 95.6543 -45.2637 95.6543 -35.2051 C 95.6543 -25.1465 97.5098 -21.4355 100.342 -21.4355 Z"/>
  </g>
  <g id="Heavy-L" transform="matrix(1 0 0 1 2558.39 1556)">
   <path d="M 78.2715 31.7871 C 115.088 31.7871 145.312 1.61133 145.312 -35.2051 C 145.312 -72.0215 115.039 -102.197 78.2715 -102.197 C 41.4551 -102.197 11.2793 -72.0215 11.2793 -35.2051 C 11.2793 1.61133 41.5039 31.7871 78.2715 31.7871 Z M 99.8047 -8.78906 C 89.3066 -8.78906 82.373 -17.5293 82.373 -35.2051 C 82.373 -52.8809 89.3066 -61.5723 99.8047 -61.5723 C 110.254 -61.5723 117.48 -52.8809 117.48 -35.2051 C 117.48 -17.5293 110.254 -8.78906 99.8047 -8.78906 Z M 58.252 -8.78906 C 50.5371 -8.78906 44.873 -13.0859 43.1152 -17.2852 C 42.627 -18.457 42.4805 -19.4824 42.4805 -20.6055 C 42.4805 -23.4375 44.5801 -25.4883 47.2168 -25.4883 C 49.5117 -25.4883 50.5859 -24.1211 51.709 -22.8027 C 53.3203 -20.459 55.5664 -18.6035 58.8867 -18.6035 C 63.2324 -18.6035 66.1621 -21.7285 66.1621 -26.4648 C 66.1621 -30.7129 63.3789 -33.9844 59.5215 -33.9844 C 57.3242 -33.9844 55.8105 -33.252 53.7598 -31.5918 C 52.2461 -30.4199 50.8301 -29.7363 48.1934 -29.7363 C 44.6777 -29.7363 42.4316 -32.1289 42.627 -35.9863 L 43.7988 -53.8086 C 44.043 -58.0078 46.2891 -60.4492 50.1465 -60.4492 L 70.0684 -60.4492 C 73.0957 -60.4492 74.9023 -58.7402 74.9023 -55.7129 C 74.9023 -52.6367 72.998 -50.8301 70.0684 -50.8301 L 53.0762 -50.8301 L 52.1973 -38.0859 L 52.3926 -38.0859 C 54.2969 -40.918 58.1543 -42.7734 62.0117 -42.7734 C 70.2148 -42.7734 76.709 -36.6699 76.709 -27.002 C 76.709 -15.8203 69.6777 -8.78906 58.252 -8.78906 Z M 99.9512 -19.6777 C 103.76 -19.6777 106.201 -24.4141 106.201 -35.2051 C 106.201 -45.9473 103.76 -50.7324 99.9512 -50.7324 C 96.1426 -50.7324 93.7012 -45.9473 93.7012 -35.2051 C 93.7012 -24.4141 96.1426 -19.6777 99.9512 -19.6777 Z"/>
  </g>
  <g id="Bold-L" transform="matrix(1 0 0 1 2262.88 1556)">
   <path d="M 77.0996 30.6152 C 113.232 30.6152 142.92 0.878906 142.92 -35.2051 C 142.92 -71.3379 113.184 -101.025 77.0508 -101.025 C 40.9668 -101.025 11.2793 -71.3379 11.2793 -35.2051 C 11.2793 0.878906 41.0156 30.6152 77.0996 30.6152 Z M 99.3652 -8.1543 C 88.623 -8.1543 81.4453 -17.627 81.4453 -35.2051 C 81.4453 -52.7832 88.623 -62.207 99.3652 -62.207 C 110.107 -62.207 117.48 -52.7832 117.48 -35.2051 C 117.48 -17.627 110.107 -8.1543 99.3652 -8.1543 Z M 56.4453 -8.1543 C 48.4863 -8.1543 42.5781 -12.5 40.7715 -17.1875 C 40.332 -18.2129 40.1367 -19.1895 40.1367 -20.2637 C 40.1367 -22.8027 41.9922 -24.6094 44.3848 -24.6094 C 46.3379 -24.6094 47.4609 -23.4375 48.4863 -21.9727 C 50.1953 -18.9941 53.125 -16.8457 56.9824 -16.8457 C 62.207 -16.8457 65.7715 -20.459 65.7715 -26.0742 C 65.7715 -31.1035 62.4512 -34.9609 57.7148 -34.9609 C 55.127 -34.9609 53.3203 -34.0332 50.8789 -31.9824 C 49.2676 -30.7129 47.998 -30.127 45.6543 -30.127 C 42.4316 -30.127 40.4297 -32.3242 40.625 -35.8887 L 41.9922 -55.0293 C 42.1875 -58.8379 44.3359 -61.084 47.9004 -61.084 L 68.9941 -61.084 C 71.582 -61.084 73.1934 -59.4727 73.1934 -56.8848 C 73.1934 -54.1992 71.4844 -52.5391 68.9941 -52.5391 L 50.1465 -52.5391 L 49.0723 -37.9395 L 49.3164 -37.9395 C 51.2695 -40.8691 55.4688 -42.8223 59.6191 -42.8223 C 68.457 -42.8223 75.1465 -36.2793 75.1465 -26.4648 C 75.1465 -15.2344 67.8711 -8.1543 56.4453 -8.1543 Z M 99.4629 -17.6758 C 104.346 -17.6758 107.471 -23.6816 107.471 -35.2051 C 107.471 -46.7285 104.346 -52.6855 99.4629 -52.6855 C 94.6289 -52.6855 91.4551 -46.7285 91.4551 -35.2051 C 91.4551 -23.6816 94.6289 -17.6758 99.4629 -17.6758 Z"/>
  </g>
  <g id="Semibold-L" transform="matrix(1 0 0 1 1966.97 1556)">
   <path d="M 76.2695 29.7852 C 111.914 29.7852 141.309 0.439453 141.309 -35.2051 C 141.309 -70.8496 111.865 -100.244 76.2695 -100.244 C 40.625 -100.244 11.2793 -70.8496 11.2793 -35.2051 C 11.2793 0.439453 40.6738 29.7852 76.2695 29.7852 Z M 99.0723 -7.71484 C 88.0859 -7.71484 80.8105 -17.6758 80.8105 -35.2051 C 80.8105 -52.6855 88.0859 -62.6953 99.0723 -62.6953 C 110.059 -62.6953 117.48 -52.6855 117.48 -35.2051 C 117.48 -17.6758 110.059 -7.71484 99.0723 -7.71484 Z M 55.2246 -7.71484 C 47.0703 -7.71484 41.0156 -12.0605 39.1113 -17.0898 C 38.7207 -18.0664 38.5742 -18.9941 38.5742 -20.0195 C 38.5742 -22.3145 40.1855 -24.0234 42.4316 -24.0234 C 44.1895 -24.0234 45.3125 -22.9492 46.2402 -21.3867 C 47.998 -17.9688 51.416 -15.625 55.7129 -15.625 C 61.4746 -15.625 65.4785 -19.5801 65.4785 -25.7812 C 65.4785 -31.3477 61.7676 -35.5957 56.4453 -35.5957 C 53.6621 -35.5957 51.5625 -34.6191 48.9258 -32.2754 C 47.2656 -30.8594 46.0449 -30.3223 43.9453 -30.3223 C 40.918 -30.3223 39.0137 -32.4707 39.209 -35.8398 L 40.7227 -55.8594 C 40.918 -59.4238 43.0176 -61.5234 46.3867 -61.5234 L 68.2617 -61.5234 C 70.5566 -61.5234 72.0215 -60.0098 72.0215 -57.666 C 72.0215 -55.2734 70.459 -53.7109 68.2617 -53.7109 L 48.1445 -53.7109 L 46.9238 -37.793 L 47.168 -37.793 C 49.2188 -40.8203 53.6621 -42.9199 57.959 -42.9199 C 67.2852 -42.9199 74.0723 -36.0352 74.0723 -26.0742 C 74.0723 -14.7949 66.6016 -7.71484 55.2246 -7.71484 Z M 99.1699 -16.3086 C 104.785 -16.3086 108.35 -23.1445 108.35 -35.2051 C 108.35 -47.2656 104.736 -54.0527 99.1699 -54.0527 C 93.5547 -54.0527 89.9414 -47.2656 89.9414 -35.2051 C 89.9414 -23.1445 93.5547 -16.3086 99.1699 -16.3086 Z"/>
  </g>
  <g id="Medium-L" transform="matrix(1 0 0 1 1670.87 1556)">
   <path d="M 75.6836 29.1992 C 110.938 29.1992 140.088 0.0488281 140.088 -35.2051 C 140.088 -70.459 110.889 -99.6094 75.6348 -99.6094 C 40.3809 -99.6094 11.2793 -70.459 11.2793 -35.2051 C 11.2793 0.0488281 40.3809 29.1992 75.6836 29.1992 Z M 98.877 -7.37305 C 87.7441 -7.37305 80.3711 -17.7734 80.3711 -35.2051 C 80.3711 -52.6367 87.7441 -62.9883 98.877 -62.9883 C 110.01 -62.9883 117.432 -52.6367 117.432 -35.2051 C 117.432 -17.7734 110.01 -7.37305 98.877 -7.37305 Z M 54.248 -7.37305 C 45.9961 -7.37305 39.7949 -11.7676 37.8906 -17.041 C 37.5488 -17.9688 37.3535 -18.8477 37.3535 -19.8242 C 37.3535 -21.9727 38.8672 -23.5352 40.9668 -23.5352 C 42.5293 -23.5352 43.7012 -22.6074 44.5801 -20.9473 C 46.3379 -17.1875 50.0977 -14.6973 54.6875 -14.6973 C 60.9375 -14.6973 65.2832 -18.9453 65.2832 -25.5859 C 65.2832 -31.543 61.2793 -36.084 55.5176 -36.084 C 52.4902 -36.084 50.2441 -35.0098 47.4121 -32.4707 C 45.7031 -31.0059 44.5801 -30.5176 42.627 -30.5176 C 39.7461 -30.5176 37.9395 -32.5684 38.1836 -35.791 L 39.7461 -56.4941 C 39.9414 -59.8145 41.9922 -61.8164 45.2148 -61.8164 L 67.7246 -61.8164 C 69.7754 -61.8164 71.0938 -60.4004 71.0938 -58.3008 C 71.0938 -56.0547 69.6777 -54.5898 67.7246 -54.5898 L 46.582 -54.5898 L 45.3125 -37.6953 L 45.5566 -37.6953 C 47.6562 -40.8203 52.2461 -42.9199 56.6895 -42.9199 C 66.4062 -42.9199 73.2422 -35.8398 73.2422 -25.8301 C 73.2422 -14.4531 65.6738 -7.37305 54.248 -7.37305 Z M 98.877 -15.2832 C 105.078 -15.2832 109.033 -22.7051 109.033 -35.2051 C 109.033 -47.6562 105.029 -55.127 98.877 -55.127 C 92.7734 -55.127 88.7695 -47.6562 88.7695 -35.2051 C 88.7695 -22.7051 92.7734 -15.2832 98.877 -15.2832 Z"/>
  </g>
  <g id="Regular-L" transform="matrix(1 0 0 1 1374.97 1556)">
   <path d="M 74.8535 28.3691 C 109.668 28.3691 138.477 -0.390625 138.477 -35.2051 C 138.477 -70.0195 109.619 -98.7793 74.8047 -98.7793 C 40.0391 -98.7793 11.2793 -70.0195 11.2793 -35.2051 C 11.2793 -0.390625 40.0879 28.3691 74.8535 28.3691 Z M 98.584 -6.93359 C 87.2559 -6.93359 79.7363 -17.8223 79.7363 -35.2051 C 79.7363 -52.5391 87.2559 -63.4766 98.584 -63.4766 C 109.912 -63.4766 117.432 -52.5391 117.432 -35.2051 C 117.432 -17.8223 109.912 -6.93359 98.584 -6.93359 Z M 53.0273 -6.93359 C 44.6289 -6.93359 38.2324 -11.377 36.2793 -16.9922 C 35.9863 -17.8223 35.791 -18.6523 35.791 -19.6289 C 35.791 -21.5332 37.1094 -22.9492 39.0137 -22.9492 C 40.3809 -22.9492 41.5527 -22.1191 42.3828 -20.3613 C 44.1895 -16.1621 48.4375 -13.5254 53.418 -13.5254 C 60.2539 -13.5254 64.9902 -18.0664 64.9902 -25.293 C 64.9902 -31.8359 60.5957 -36.7676 54.2969 -36.7676 C 51.0254 -36.7676 48.5352 -35.5469 45.5078 -32.7148 C 43.7012 -31.2012 42.627 -30.7617 40.8691 -30.7617 C 38.1836 -30.7617 36.5723 -32.666 36.7676 -35.7422 L 38.4766 -57.373 C 38.6719 -60.4004 40.6738 -62.2559 43.7012 -62.2559 L 66.9922 -62.2559 C 68.75 -62.2559 69.9219 -60.9375 69.9219 -59.082 C 69.9219 -57.1289 68.6523 -55.7617 66.9922 -55.7617 L 44.5801 -55.7617 L 43.2129 -37.5977 L 43.457 -37.5977 C 45.6055 -40.7715 50.4395 -43.0176 55.0293 -43.0176 C 65.2344 -43.0176 72.168 -35.5957 72.168 -25.4395 C 72.168 -14.0137 64.4531 -6.93359 53.0273 -6.93359 Z M 98.584 -13.916 C 105.469 -13.916 109.863 -22.168 109.863 -35.2051 C 109.863 -48.1934 105.42 -56.4453 98.584 -56.4453 C 91.748 -56.4453 87.3047 -48.1934 87.3047 -35.2051 C 87.3047 -22.168 91.748 -13.916 98.584 -13.916 Z"/>
  </g>
  <g id="Light-L" transform="matrix(1 0 0 1 1079.18 1556)">
   <path d="M 73.9258 27.4902 C 108.301 27.4902 136.621 -0.830078 136.621 -35.1562 C 136.621 -69.5312 108.252 -97.8516 73.9258 -97.8516 C 39.5508 -97.8516 11.2793 -69.5312 11.2793 -35.1562 C 11.2793 -0.830078 39.5996 27.4902 73.9258 27.4902 Z M 98.0957 -7.22656 C 86.8164 -7.22656 79.2969 -18.2129 79.2969 -35.2051 C 79.2969 -52.1484 86.8164 -63.1348 98.0957 -63.1348 C 109.326 -63.1348 116.846 -52.1484 116.846 -35.2051 C 116.846 -18.2129 109.326 -7.22656 98.0957 -7.22656 Z M 52.3926 -7.22656 C 43.8965 -7.22656 37.6953 -11.8164 35.7422 -17.5781 C 35.498 -18.3105 35.3516 -18.9941 35.3516 -19.7266 C 35.3516 -21.3379 36.4258 -22.4121 37.9883 -22.4121 C 39.1602 -22.4121 40.0879 -21.6309 40.7227 -20.166 C 42.3828 -15.625 47.1191 -12.6465 52.7832 -12.6465 C 60.1074 -12.6465 65.4297 -17.7246 65.4297 -25.3418 C 65.4297 -32.5195 60.4492 -37.8418 53.4668 -37.8418 C 49.707 -37.8418 46.6309 -36.4258 43.2617 -32.9102 C 41.8945 -31.6895 41.0156 -31.3477 39.6484 -31.3477 C 37.5 -31.3477 36.1816 -32.8613 36.377 -35.3027 L 38.1836 -58.3008 C 38.3301 -60.7422 39.8926 -62.2559 42.2852 -62.2559 L 66.3086 -62.2559 C 67.7734 -62.2559 68.7988 -61.1816 68.7988 -59.6191 C 68.7988 -58.0566 67.7734 -56.9824 66.3086 -56.9824 L 43.2129 -56.9824 L 41.6504 -37.1582 L 41.8457 -37.1582 C 44.3359 -40.625 49.2188 -42.9199 54.0527 -42.9199 C 64.1602 -42.9199 71.1914 -35.5469 71.1914 -25.4883 C 71.1914 -14.3555 63.5254 -7.22656 52.3926 -7.22656 Z M 98.0957 -12.8906 C 105.762 -12.8906 110.84 -21.7285 110.84 -35.2051 C 110.84 -48.6328 105.713 -57.5195 98.0957 -57.5195 C 90.4785 -57.5195 85.3027 -48.6328 85.3027 -35.2051 C 85.3027 -21.7285 90.4785 -12.8906 98.0957 -12.8906 Z"/>
  </g>
  <g id="Thin-L" transform="matrix(1 0 0 1 783.693 1556)">
   <path d="M 72.7051 26.3184 C 106.494 26.3184 134.18 -1.36719 134.18 -35.1074 C 134.18 -68.8965 106.494 -96.582 72.7051 -96.582 C 38.9648 -96.582 11.2793 -68.8965 11.2793 -35.1074 C 11.2793 -1.36719 38.9648 26.3184 72.7051 26.3184 Z M 97.4121 -7.66602 C 86.2793 -7.66602 78.7598 -18.75 78.7598 -35.2051 C 78.7598 -51.6602 86.2793 -62.7441 97.4121 -62.7441 C 108.545 -62.7441 116.113 -51.6602 116.113 -35.2051 C 116.113 -18.75 108.545 -7.66602 97.4121 -7.66602 Z M 51.5625 -7.66602 C 42.9199 -7.66602 37.0117 -12.4512 35.0098 -18.4082 C 34.8633 -18.9941 34.7656 -19.3848 34.7656 -19.873 C 34.7656 -21.0449 35.5469 -21.7285 36.5723 -21.7285 C 37.5488 -21.7285 38.1836 -21.0449 38.4766 -19.9707 C 39.9902 -14.9414 45.4102 -11.4746 51.9531 -11.4746 C 59.9609 -11.4746 65.9668 -17.2852 65.9668 -25.4395 C 65.9668 -33.3984 60.3027 -39.2578 52.3438 -39.2578 C 47.9492 -39.2578 44.1895 -37.5488 40.2832 -33.2031 C 39.502 -32.373 38.916 -32.0801 37.9883 -32.0801 C 36.6211 -32.0801 35.6445 -33.1055 35.791 -34.7168 L 37.7441 -59.5703 C 37.8418 -61.1328 38.8184 -62.207 40.4785 -62.207 L 65.4785 -62.207 C 66.5527 -62.207 67.334 -61.4746 67.334 -60.4004 C 67.334 -59.3262 66.5527 -58.5938 65.4785 -58.5938 L 41.3574 -58.5938 L 39.6484 -36.5723 L 39.7461 -36.5723 C 42.627 -40.4785 47.6562 -42.7734 52.7344 -42.7734 C 62.7441 -42.7734 69.873 -35.4492 69.873 -25.5371 C 69.873 -14.7949 62.3535 -7.66602 51.5625 -7.66602 Z M 97.4121 -11.5234 C 106.104 -11.5234 112.109 -21.0938 112.109 -35.2051 C 112.109 -49.2676 106.055 -58.8867 97.4121 -58.8867 C 88.7695 -58.8867 82.7148 -49.2676 82.7148 -35.2051 C 82.7148 -21.0938 88.7695 -11.5234 97.4121 -11.5234 Z"/>
  </g>
  <g id="Ultralight-L" transform="matrix(1 0 0 1 487.616 1556)">
   <path d="M 72.1191 25.7324 C 105.566 25.7324 132.91 -1.61133 132.91 -35.1074 C 132.91 -68.5547 105.566 -95.8984 72.1191 -95.8984 C 38.623 -95.8984 11.2793 -68.5547 11.2793 -35.1074 C 11.2793 -1.61133 38.623 25.7324 72.1191 25.7324 Z M 97.0703 -7.86133 C 86.0352 -7.86133 78.4668 -18.9941 78.4668 -35.2051 C 78.4668 -51.3672 86.0352 -62.5 97.0703 -62.5 C 108.154 -62.5 115.723 -51.3672 115.723 -35.2051 C 115.723 -18.9941 108.154 -7.86133 97.0703 -7.86133 Z M 51.123 -7.86133 C 42.3828 -7.86133 36.6699 -12.7441 34.668 -18.7988 C 34.5215 -19.3359 34.4727 -19.6289 34.4727 -19.9219 C 34.4727 -20.8984 35.1074 -21.3379 35.8887 -21.3379 C 36.6699 -21.3379 37.1582 -20.7031 37.3535 -19.873 C 38.7695 -14.5996 44.5312 -10.8398 51.5137 -10.8398 C 59.9121 -10.8398 66.2598 -17.0898 66.2598 -25.4883 C 66.2598 -33.8867 60.2051 -39.9414 51.7578 -39.9414 C 47.0215 -39.9414 42.9199 -38.1348 38.7695 -33.3496 C 38.2812 -32.7148 37.8418 -32.4707 37.1582 -32.4707 C 36.1328 -32.4707 35.3516 -33.252 35.498 -34.4238 L 37.5488 -60.2051 C 37.6465 -61.3281 38.2812 -62.207 39.5508 -62.207 L 65.0391 -62.207 C 65.918 -62.207 66.5527 -61.6699 66.5527 -60.791 C 66.5527 -59.9609 65.918 -59.375 65.0391 -59.375 L 40.4297 -59.375 L 38.623 -36.2305 L 38.6719 -36.2305 C 41.748 -40.3809 46.8262 -42.7246 52.0508 -42.7246 C 62.0117 -42.7246 69.1895 -35.4004 69.1895 -25.5371 C 69.1895 -15.0391 61.7188 -7.86133 51.123 -7.86133 Z M 97.0703 -10.791 C 106.25 -10.791 112.744 -20.8008 112.744 -35.2051 C 112.744 -49.5605 106.25 -59.5703 97.0703 -59.5703 C 87.8906 -59.5703 81.3965 -49.5605 81.3965 -35.2051 C 81.3965 -20.8008 87.8906 -10.791 97.0703 -10.791 Z"/>
  </g>
  <g id="Black-M" transform="matrix(1 0 0 1 2870.97 1126)">
   <path d="M 62.4023 18.457 C 91.9922 18.457 116.113 -5.61523 116.113 -35.2051 C 116.113 -64.7949 91.9922 -88.8672 62.4023 -88.8672 C 32.8125 -88.8672 8.74023 -64.7949 8.74023 -35.2051 C 8.74023 -5.61523 32.8125 18.457 62.4023 18.457 Z M 77.8809 -16.1621 C 70.3613 -16.1621 65.332 -21.4844 65.332 -35.2051 C 65.332 -48.9258 70.3613 -54.248 77.8809 -54.248 C 85.3027 -54.248 90.8203 -48.9258 90.8203 -35.2051 C 90.8203 -21.4844 85.3027 -16.1621 77.8809 -16.1621 Z M 48.291 -16.1621 C 42.627 -16.1621 38.8672 -19.4336 37.5977 -21.8262 C 37.1094 -22.9004 37.0605 -23.7305 37.0605 -24.5605 C 37.0605 -27.1973 39.0625 -29.1016 41.4062 -29.1016 C 43.6523 -29.1016 44.3359 -27.6855 45.2637 -27.0996 C 46.3867 -26.3672 47.0703 -25.1953 48.9258 -25.1953 C 50.9277 -25.1953 52.2949 -27.002 52.2949 -29.248 C 52.2949 -31.3477 50.8789 -33.0078 49.1211 -33.0078 C 47.8516 -33.0078 47.0703 -32.6172 45.8984 -31.7871 C 45.1172 -31.25 43.8965 -30.6152 41.4551 -30.6152 C 38.5254 -30.6152 36.5234 -32.5684 36.6699 -35.7422 L 37.2559 -47.7539 C 37.4512 -51.4648 39.1113 -53.5645 42.3828 -53.5645 L 56.0059 -53.5645 C 59.0332 -53.5645 60.6934 -52.1484 60.6934 -49.1699 C 60.6934 -46.2891 58.8867 -44.6777 56.0059 -44.6777 L 45.9961 -44.6777 L 45.5078 -37.5488 L 45.6055 -37.5488 C 47.0703 -39.6973 49.4629 -40.8691 52.1484 -40.8691 C 57.0801 -40.8691 61.8652 -37.0605 61.8652 -29.8828 C 61.8652 -21.582 56.9336 -16.1621 48.291 -16.1621 Z M 78.0762 -26.3672 C 79.4434 -26.3672 80.3711 -28.0762 80.3711 -35.2051 C 80.3711 -42.2852 79.4434 -44.043 78.0762 -44.043 C 76.709 -44.043 75.7324 -42.2852 75.7324 -35.2051 C 75.7324 -28.0762 76.709 -26.3672 78.0762 -26.3672 Z"/>
  </g>
  <g id="Heavy-M" transform="matrix(1 0 0 1 2575.19 1126)">
   <path d="M 61.5234 17.5781 C 90.5273 17.5781 114.258 -6.15234 114.258 -35.2051 C 114.258 -64.2578 90.5273 -87.9883 61.4746 -87.9883 C 32.4707 -87.9883 8.74023 -64.2578 8.74023 -35.2051 C 8.74023 -6.15234 32.4707 17.5781 61.5234 17.5781 Z M 77.5879 -15.4297 C 69.7754 -15.4297 64.5508 -21.4844 64.5508 -35.2051 C 64.5508 -48.877 69.7754 -54.9805 77.5879 -54.9805 C 85.3516 -54.9805 90.918 -48.877 90.918 -35.2051 C 90.918 -21.4844 85.3516 -15.4297 77.5879 -15.4297 Z M 46.6797 -15.4297 C 40.8203 -15.4297 36.7676 -18.75 35.4492 -21.582 C 35.0098 -22.5586 34.9121 -23.3398 34.9121 -24.2188 C 34.9121 -26.6113 36.7188 -28.3691 38.916 -28.3691 C 40.918 -28.3691 41.6504 -27.1484 42.5781 -26.3184 C 43.75 -25 44.9707 -23.6816 47.2168 -23.6816 C 49.9023 -23.6816 51.8066 -25.8789 51.8066 -28.8574 C 51.8066 -31.543 50 -33.6914 47.6074 -33.6914 C 46.0449 -33.6914 45.0684 -33.1543 43.6523 -32.1289 C 42.6758 -31.3965 41.5527 -30.8105 39.3066 -30.8105 C 36.5234 -30.8105 34.668 -32.7148 34.7656 -35.791 L 35.5469 -48.7305 C 35.7422 -52.1973 37.4512 -54.1992 40.5273 -54.1992 L 55.127 -54.1992 C 57.7637 -54.1992 59.3262 -52.832 59.3262 -50.1953 C 59.3262 -47.5586 57.666 -46.0449 55.127 -46.0449 L 43.457 -46.0449 L 42.8711 -37.5 L 43.0176 -37.5 C 44.4824 -39.6484 47.168 -40.9668 50.0488 -40.9668 C 55.7129 -40.9668 60.5957 -36.6699 60.5957 -29.3457 C 60.5957 -20.8496 55.4199 -15.4297 46.6797 -15.4297 Z M 77.7344 -24.707 C 79.9316 -24.707 81.3965 -27.4414 81.3965 -35.2051 C 81.3965 -42.9688 79.9316 -45.7031 77.7344 -45.7031 C 75.5371 -45.7031 74.1211 -42.9688 74.1211 -35.2051 C 74.1211 -27.4414 75.5371 -24.707 77.7344 -24.707 Z"/>
  </g>
  <g id="Bold-M" transform="matrix(1 0 0 1 2279.5 1126)">
   <path d="M 60.498 16.5039 C 88.8672 16.5039 112.207 -6.78711 112.207 -35.2051 C 112.207 -63.623 88.8672 -86.9629 60.4492 -86.9629 C 32.0312 -86.9629 8.74023 -63.623 8.74023 -35.2051 C 8.74023 -6.78711 32.0801 16.5039 60.498 16.5039 Z M 77.2949 -14.6484 C 69.0918 -14.6484 63.6719 -21.4844 63.6719 -35.2051 C 63.6719 -48.877 69.0918 -55.7617 77.2949 -55.7617 C 85.4004 -55.7617 91.0645 -48.877 91.0645 -35.2051 C 91.0645 -21.4844 85.4004 -14.6484 77.2949 -14.6484 Z M 44.873 -14.6484 C 38.8184 -14.6484 34.375 -17.9688 33.0078 -21.2891 C 32.6172 -22.168 32.5195 -22.9492 32.5195 -23.8281 C 32.5195 -25.9766 34.082 -27.5391 36.1328 -27.5391 C 37.8418 -27.5391 38.6719 -26.5137 39.5508 -25.4395 C 40.8203 -23.5352 42.6758 -22.0215 45.3125 -22.0215 C 48.8281 -22.0215 51.2207 -24.5605 51.2207 -28.3691 C 51.2207 -31.7871 48.9746 -34.4238 45.8496 -34.4238 C 44.0918 -34.4238 42.8711 -33.7891 41.2109 -32.4707 C 39.9902 -31.543 38.916 -31.0547 36.9141 -31.0547 C 34.2773 -31.0547 32.5684 -32.8613 32.7148 -35.791 L 33.6426 -49.8047 C 33.7891 -53.0273 35.5469 -54.8828 38.5254 -54.8828 L 54.1504 -54.8828 C 56.3965 -54.8828 57.7637 -53.5645 57.7637 -51.2695 C 57.7637 -48.9746 56.2988 -47.5586 54.1504 -47.5586 L 40.6738 -47.5586 L 39.9414 -37.4512 L 40.0879 -37.4512 C 41.5527 -39.6484 44.6289 -41.0645 47.6562 -41.0645 C 54.1016 -41.0645 59.1797 -36.2793 59.1797 -28.7598 C 59.1797 -20.0684 53.7109 -14.6484 44.873 -14.6484 Z M 77.3926 -22.8516 C 80.5176 -22.8516 82.5195 -26.7578 82.5195 -35.2051 C 82.5195 -43.6523 80.4688 -47.5586 77.3926 -47.5586 C 74.2676 -47.5586 72.2656 -43.6523 72.2656 -35.2051 C 72.2656 -26.7578 74.2676 -22.8516 77.3926 -22.8516 Z"/>
  </g>
  <g id="Semibold-M" transform="matrix(1 0 0 1 1983.5 1126)">
   <path d="M 59.7656 15.8203 C 87.7441 15.8203 110.791 -7.22656 110.791 -35.2051 C 110.791 -63.1836 87.6953 -86.2793 59.7656 -86.2793 C 31.7871 -86.2793 8.74023 -63.1836 8.74023 -35.2051 C 8.74023 -7.22656 31.7871 15.8203 59.7656 15.8203 Z M 77.0508 -14.0625 C 68.6523 -14.0625 63.0859 -21.5332 63.0859 -35.2051 C 63.0859 -48.877 68.6523 -56.2988 77.0508 -56.2988 C 85.4492 -56.2988 91.1621 -48.877 91.1621 -35.2051 C 91.1621 -21.5332 85.4492 -14.0625 77.0508 -14.0625 Z M 43.6035 -14.0625 C 37.4023 -14.0625 32.7637 -17.4316 31.3477 -21.0938 C 31.0059 -21.875 30.8594 -22.7051 30.8594 -23.5352 C 30.8594 -25.5371 32.2754 -27.002 34.1797 -27.002 C 35.6934 -27.002 36.6211 -26.0742 37.4512 -24.8535 C 38.8184 -22.5098 41.0645 -20.8984 44.043 -20.8984 C 48.0469 -20.8984 50.8301 -23.6816 50.8301 -28.0762 C 50.8301 -31.9336 48.2422 -34.9121 44.6289 -34.9121 C 42.7246 -34.9121 41.3086 -34.2285 39.502 -32.7148 C 38.1348 -31.6406 37.1094 -31.2012 35.2539 -31.2012 C 32.7148 -31.2012 31.1035 -32.959 31.25 -35.8398 L 32.3242 -50.5371 C 32.4707 -53.5645 34.2285 -55.3711 37.1094 -55.3711 L 53.4668 -55.3711 C 55.4688 -55.3711 56.6895 -54.1016 56.6895 -52.0508 C 56.6895 -49.9512 55.3711 -48.6328 53.4668 -48.6328 L 38.7207 -48.6328 L 37.8906 -37.4023 L 38.0859 -37.4023 C 39.5996 -39.5996 42.8711 -41.1621 46.0449 -41.1621 C 53.0273 -41.1621 58.2031 -36.0352 58.2031 -28.3203 C 58.2031 -19.5312 52.5391 -14.0625 43.6035 -14.0625 Z M 77.0996 -21.5332 C 80.9082 -21.5332 83.252 -26.2695 83.252 -35.2051 C 83.252 -44.1406 80.8594 -48.8281 77.0996 -48.8281 C 73.3887 -48.8281 70.9961 -44.1406 70.9961 -35.2051 C 70.9961 -26.2695 73.3887 -21.5332 77.0996 -21.5332 Z"/>
  </g>
  <g id="Medium-M" transform="matrix(1 0 0 1 1687.3 1126)">
   <path d="M 59.2285 15.2832 C 86.9141 15.2832 109.766 -7.56836 109.766 -35.2051 C 109.766 -62.8906 86.8652 -85.7422 59.1797 -85.7422 C 31.543 -85.7422 8.74023 -62.8906 8.74023 -35.2051 C 8.74023 -7.56836 31.5918 15.2832 59.2285 15.2832 Z M 76.9043 -13.6719 C 68.3105 -13.6719 62.6465 -21.5332 62.6465 -35.2051 C 62.6465 -48.877 68.3105 -56.7383 76.9043 -56.7383 C 85.498 -56.7383 91.2598 -48.877 91.2598 -35.2051 C 91.2598 -21.5332 85.498 -13.6719 76.9043 -13.6719 Z M 42.6758 -13.6719 C 36.377 -13.6719 31.543 -16.9922 30.0781 -20.9473 C 29.7363 -21.6797 29.6387 -22.4609 29.6387 -23.3398 C 29.6387 -25.1953 30.9082 -26.5625 32.7637 -26.5625 C 34.1309 -26.5625 35.0586 -25.7324 35.8887 -24.4141 C 37.2559 -21.7285 39.8438 -20.0195 43.0176 -20.0195 C 47.5098 -20.0195 50.5371 -22.998 50.5371 -27.832 C 50.5371 -32.0312 47.7539 -35.3027 43.7012 -35.3027 C 41.6504 -35.3027 40.1855 -34.5703 38.1836 -32.9102 C 36.7188 -31.7383 35.7422 -31.2988 34.0332 -31.2988 C 31.543 -31.2988 30.0293 -33.0566 30.1758 -35.8398 L 31.2988 -51.123 C 31.4941 -54.0039 33.252 -55.7129 36.0352 -55.7129 L 52.9297 -55.7129 C 54.7363 -55.7129 55.9082 -54.4922 55.9082 -52.6367 C 55.9082 -50.6836 54.6875 -49.4141 52.9297 -49.4141 L 37.2559 -49.4141 L 36.377 -37.3535 L 36.5723 -37.3535 C 38.0859 -39.5996 41.5039 -41.2109 44.8242 -41.2109 C 52.1973 -41.2109 57.4707 -35.791 57.4707 -28.0273 C 57.4707 -19.1406 51.6113 -13.6719 42.6758 -13.6719 Z M 76.9531 -20.5566 C 81.2012 -20.5566 83.8379 -25.8789 83.8379 -35.2051 C 83.8379 -44.5312 81.1523 -49.8047 76.9531 -49.8047 C 72.7051 -49.8047 70.0195 -44.5312 70.0195 -35.2051 C 70.0195 -25.8789 72.7051 -20.5566 76.9531 -20.5566 Z"/>
  </g>
  <g id="Regular-M" transform="matrix(1 0 0 1 1391.3 1126)">
   <path d="M 58.5449 14.5508 C 85.791 14.5508 108.35 -8.00781 108.35 -35.2539 C 108.35 -62.4512 85.7422 -85.0586 58.4961 -85.0586 C 31.2988 -85.0586 8.74023 -62.4512 8.74023 -35.2539 C 8.74023 -8.00781 31.3477 14.5508 58.5449 14.5508 Z M 76.6602 -13.1348 C 67.8223 -13.1348 62.0117 -21.5332 62.0117 -35.2051 C 62.0117 -48.877 67.8223 -57.2754 76.6602 -57.2754 C 85.5469 -57.2754 91.3574 -48.877 91.3574 -35.2051 C 91.3574 -21.5332 85.5469 -13.1348 76.6602 -13.1348 Z M 41.4551 -13.1348 C 35.0098 -13.1348 29.9316 -16.4551 28.418 -20.752 C 28.125 -21.4355 27.9785 -22.2168 27.9785 -23.0469 C 27.9785 -24.7559 29.1504 -26.0254 30.8594 -26.0254 C 32.0312 -26.0254 33.0566 -25.3418 33.7891 -23.7793 C 35.2539 -20.752 38.2812 -18.8965 41.748 -18.8965 C 46.7285 -18.8965 50.1465 -22.1191 50.1465 -27.4902 C 50.1465 -32.2266 47.0215 -35.791 42.5293 -35.791 C 40.2832 -35.791 38.6719 -35.0098 36.5234 -33.1543 C 34.9121 -31.8359 33.9355 -31.4453 32.373 -31.4453 C 29.9805 -31.4453 28.5645 -33.1543 28.7598 -35.8887 L 30.0293 -51.8555 C 30.1758 -54.541 31.9824 -56.2012 34.668 -56.2012 L 52.2461 -56.2012 C 53.8086 -56.2012 54.834 -55.0293 54.834 -53.3691 C 54.834 -51.6602 53.7598 -50.4883 52.2461 -50.4883 L 35.3516 -50.4883 L 34.375 -37.3047 L 34.5703 -37.3047 C 36.084 -39.5996 39.7949 -41.3086 43.2129 -41.3086 C 51.123 -41.3086 56.4941 -35.5469 56.4941 -27.6367 C 56.4941 -18.6035 50.4395 -13.1348 41.4551 -13.1348 Z M 76.6602 -19.2871 C 81.5918 -19.2871 84.6191 -25.3906 84.6191 -35.2051 C 84.6191 -45.0195 81.543 -51.123 76.6602 -51.123 C 71.8262 -51.123 68.75 -45.0195 68.75 -35.2051 C 68.75 -25.3906 71.8262 -19.2871 76.6602 -19.2871 Z"/>
  </g>
  <g id="Light-M" transform="matrix(1 0 0 1 1095.42 1126)">
   <path d="M 57.7148 13.7695 C 84.5215 13.7695 106.689 -8.39844 106.689 -35.2051 C 106.689 -62.0117 84.5215 -84.1797 57.666 -84.1797 C 30.8594 -84.1797 8.74023 -62.0117 8.74023 -35.2051 C 8.74023 -8.39844 30.9082 13.7695 57.7148 13.7695 Z M 76.2207 -13.3789 C 67.4805 -13.3789 61.6699 -21.875 61.6699 -35.2051 C 61.6699 -48.5352 67.4805 -56.9824 76.2207 -56.9824 C 85.0098 -56.9824 90.8203 -48.5352 90.8203 -35.2051 C 90.8203 -21.875 85.0098 -13.3789 76.2207 -13.3789 Z M 40.8691 -13.3789 C 34.3262 -13.3789 29.4434 -16.8945 27.9297 -21.2891 C 27.7344 -21.875 27.5879 -22.5098 27.5879 -23.1445 C 27.5879 -24.5605 28.5156 -25.5371 29.8828 -25.5371 C 30.9082 -25.5371 31.7383 -24.9023 32.3242 -23.6328 C 33.6426 -20.2637 37.1094 -18.1152 41.1621 -18.1152 C 46.6309 -18.1152 50.4883 -21.8262 50.4883 -27.5391 C 50.4883 -32.8125 46.9238 -36.7676 41.7969 -36.7676 C 39.1113 -36.7676 37.0117 -35.791 34.5215 -33.3496 C 33.252 -32.2754 32.5195 -31.9336 31.2988 -31.9336 C 29.3945 -31.9336 28.2227 -33.3008 28.3691 -35.4492 L 29.7363 -52.6855 C 29.834 -54.834 31.25 -56.1523 33.3984 -56.1523 L 51.709 -56.1523 C 52.9297 -56.1523 53.8574 -55.2246 53.8574 -53.9062 C 53.8574 -52.4902 52.9297 -51.5625 51.709 -51.5625 L 34.082 -51.5625 L 32.959 -36.9141 L 33.1543 -36.9141 C 34.9121 -39.4531 38.6719 -41.2109 42.334 -41.2109 C 50.1953 -41.2109 55.6152 -35.498 55.6152 -27.6367 C 55.6152 -18.8965 49.6582 -13.3789 40.8691 -13.3789 Z M 76.2207 -18.3594 C 81.8359 -18.3594 85.4492 -24.9512 85.4492 -35.2051 C 85.4492 -45.4102 81.7871 -52.0508 76.2207 -52.0508 C 70.6543 -52.0508 66.9922 -45.4102 66.9922 -35.2051 C 66.9922 -24.9512 70.6543 -18.3594 76.2207 -18.3594 Z"/>
  </g>
  <g id="Thin-M" transform="matrix(1 0 0 1 799.806 1126)">
   <path d="M 56.6406 12.7441 C 82.9102 12.7441 104.492 -8.83789 104.492 -35.1562 C 104.492 -61.4746 82.9102 -83.0566 56.5918 -83.0566 C 30.3223 -83.0566 8.74023 -61.4746 8.74023 -35.1562 C 8.74023 -8.83789 30.3223 12.7441 56.6406 12.7441 Z M 75.6348 -13.7695 C 66.9922 -13.7695 61.1328 -22.3145 61.1328 -35.2051 C 61.1328 -48.0469 66.9922 -56.6406 75.6348 -56.6406 C 84.2773 -56.6406 90.1367 -48.0469 90.1367 -35.2051 C 90.1367 -22.3145 84.2773 -13.7695 75.6348 -13.7695 Z M 40.1367 -13.7695 C 33.4473 -13.7695 28.8574 -17.4316 27.2949 -22.0215 C 27.1484 -22.5098 27.0508 -22.8516 27.0508 -23.291 C 27.0508 -24.2676 27.7344 -24.9023 28.6621 -24.9023 C 29.4434 -24.9023 29.9805 -24.3652 30.3223 -23.4375 C 31.4941 -19.6777 35.5957 -17.041 40.4297 -17.041 C 46.4844 -17.041 51.0254 -21.4355 51.0254 -27.6367 C 51.0254 -33.6426 46.7773 -38.0371 40.8203 -38.0371 C 37.5488 -38.0371 34.7656 -36.7676 31.8848 -33.5938 C 31.1523 -32.8613 30.6152 -32.6172 29.834 -32.6172 C 28.5645 -32.6172 27.7344 -33.5449 27.8809 -34.9609 L 29.3457 -53.8086 C 29.4434 -55.2246 30.3223 -56.1523 31.7871 -56.1523 L 50.9277 -56.1523 C 51.8555 -56.1523 52.4902 -55.5176 52.4902 -54.5898 C 52.4902 -53.6133 51.8066 -52.9785 50.9277 -52.9785 L 32.4707 -52.9785 L 31.1523 -36.377 L 31.25 -36.377 C 33.3984 -39.3066 37.2559 -41.1133 41.1621 -41.1133 C 48.9258 -41.1133 54.4434 -35.4004 54.4434 -27.6855 C 54.4434 -19.2871 48.584 -13.7695 40.1367 -13.7695 Z M 75.6348 -17.1387 C 82.1289 -17.1387 86.6211 -24.4141 86.6211 -35.2051 C 86.6211 -45.9961 82.1289 -53.2715 75.6348 -53.2715 C 69.1406 -53.2715 64.6973 -45.9961 64.6973 -35.2051 C 64.6973 -24.4141 69.1406 -17.1387 75.6348 -17.1387 Z"/>
  </g>
  <g id="Ultralight-M" transform="matrix(1 0 0 1 503.656 1126)">
   <path d="M 56.0547 12.207 C 82.0801 12.207 103.369 -9.08203 103.369 -35.1562 C 103.369 -61.1816 82.0801 -82.4707 56.0547 -82.4707 C 30.0293 -82.4707 8.74023 -61.1816 8.74023 -35.1562 C 8.74023 -9.08203 30.0293 12.207 56.0547 12.207 Z M 75.3418 -13.9648 C 66.748 -13.9648 60.8887 -22.5586 60.8887 -35.2051 C 60.8887 -47.8516 66.748 -56.4453 75.3418 -56.4453 C 83.9355 -56.4453 89.7949 -47.8516 89.7949 -35.2051 C 89.7949 -22.5586 83.9355 -13.9648 75.3418 -13.9648 Z M 39.7461 -13.9648 C 33.0078 -13.9648 28.5156 -17.7246 26.9531 -22.4121 C 26.8555 -22.8027 26.8066 -23.0469 26.8066 -23.3398 C 26.8066 -24.1699 27.3438 -24.5605 28.0273 -24.5605 C 28.6621 -24.5605 29.1016 -24.0723 29.2969 -23.3398 C 30.4199 -19.3359 34.8145 -16.5039 40.0391 -16.5039 C 46.4355 -16.5039 51.2695 -21.2402 51.2695 -27.6367 C 51.2695 -34.0332 46.6797 -38.6719 40.2832 -38.6719 C 36.7188 -38.6719 33.6426 -37.3047 30.5176 -33.6914 C 30.0293 -33.1543 29.6875 -32.959 29.0527 -32.959 C 28.1738 -32.959 27.4902 -33.6426 27.5879 -34.668 L 29.1504 -54.3945 C 29.248 -55.4199 29.834 -56.1523 30.9082 -56.1523 L 50.5371 -56.1523 C 51.2695 -56.1523 51.8066 -55.6641 51.8066 -54.9316 C 51.8066 -54.1992 51.2695 -53.7109 50.5371 -53.7109 L 31.5918 -53.7109 L 30.2246 -36.1328 L 30.2734 -36.1328 C 32.6172 -39.2578 36.5234 -41.0645 40.5273 -41.0645 C 48.2422 -41.0645 53.8086 -35.4004 53.8086 -27.7344 C 53.8086 -19.5312 47.998 -13.9648 39.7461 -13.9648 Z M 75.3418 -16.5039 C 82.2754 -16.5039 87.207 -24.1211 87.207 -35.2051 C 87.207 -46.2402 82.2754 -53.9062 75.3418 -53.9062 C 68.4082 -53.9062 63.4766 -46.2402 63.4766 -35.2051 C 63.4766 -24.1211 68.4082 -16.5039 75.3418 -16.5039 Z"/>
  </g>
  <g id="Black-S" transform="matrix(1 0 0 1 2884.57 696)">
   <path d="M 48.8281 6.78711 C 71.9727 6.78711 90.8203 -12.0605 90.8203 -35.2051 C 90.8203 -58.3496 71.9727 -77.1973 48.8281 -77.1973 C 25.6836 -77.1973 6.83594 -58.3496 6.83594 -35.2051 C 6.83594 -12.0605 25.6836 6.78711 48.8281 6.78711 Z M 60.9863 -20.2148 C 55.0781 -20.2148 51.123 -24.4629 51.123 -35.2051 C 51.123 -45.9473 55.0781 -50.1953 60.9863 -50.1953 C 66.8457 -50.1953 71.1426 -45.9473 71.1426 -35.2051 C 71.1426 -24.4629 66.8457 -20.2148 60.9863 -20.2148 Z M 37.6953 -20.2148 C 33.252 -20.2148 30.2734 -22.8027 29.2969 -24.707 C 28.9062 -25.5371 28.8574 -26.1719 28.8574 -26.8555 C 28.8574 -28.9062 30.4199 -30.3711 32.2266 -30.3711 C 33.9844 -30.3711 34.5215 -29.2969 35.2539 -28.8086 C 36.1328 -28.1738 36.7188 -27.2461 38.1836 -27.2461 C 39.7949 -27.2461 40.918 -28.7109 40.918 -30.5176 C 40.918 -32.1777 39.7949 -33.5449 38.3789 -33.5449 C 37.3535 -33.5449 36.7188 -33.2031 35.791 -32.5684 C 35.1562 -32.1289 34.2285 -31.6406 32.3242 -31.6406 C 30.0293 -31.6406 28.4668 -33.1543 28.5645 -35.6445 L 29.0527 -45.1172 C 29.1992 -47.998 30.5176 -49.6582 33.0566 -49.6582 L 43.7988 -49.6582 C 46.1426 -49.6582 47.4609 -48.5352 47.4609 -46.2402 C 47.4609 -43.9941 46.0449 -42.7246 43.7988 -42.7246 L 35.8398 -42.7246 L 35.4492 -37.0605 L 35.5469 -37.0605 C 36.6699 -38.7207 38.5742 -39.6484 40.6738 -39.6484 C 44.6289 -39.6484 48.3887 -36.6211 48.3887 -31.0059 C 48.3887 -24.4629 44.4824 -20.2148 37.6953 -20.2148 Z M 61.1328 -28.1738 C 62.2559 -28.1738 63.0371 -29.5898 63.0371 -35.2051 C 63.0371 -40.8203 62.2559 -42.2363 61.1328 -42.2363 C 60.0098 -42.2363 59.2285 -40.8203 59.2285 -35.2051 C 59.2285 -29.5898 60.0098 -28.1738 61.1328 -28.1738 Z"/>
  </g>
  <g id="Heavy-S" transform="matrix(1 0 0 1 2588.47 696)">
   <path d="M 48.2422 6.15234 C 70.9961 6.15234 89.5996 -12.4512 89.5996 -35.2051 C 89.5996 -57.959 70.9961 -76.6113 48.1934 -76.6113 C 25.4395 -76.6113 6.83594 -57.959 6.83594 -35.2051 C 6.83594 -12.4512 25.4395 6.15234 48.2422 6.15234 Z M 60.8398 -19.6289 C 54.6387 -19.6289 50.5859 -24.4141 50.5859 -35.2051 C 50.5859 -45.9961 54.6387 -50.7812 60.8398 -50.7812 C 66.9434 -50.7812 71.2891 -45.9961 71.2891 -35.2051 C 71.2891 -24.4141 66.9434 -19.6289 60.8398 -19.6289 Z M 36.5234 -19.6289 C 31.9336 -19.6289 28.7109 -22.2168 27.6855 -24.4629 C 27.3438 -25.2441 27.2461 -25.8789 27.2461 -26.5625 C 27.2461 -28.4668 28.7109 -29.8828 30.4199 -29.8828 C 32.0312 -29.8828 32.6172 -28.9062 33.3496 -28.2227 C 34.3262 -27.1973 35.2539 -26.2207 36.9629 -26.2207 C 39.0625 -26.2207 40.4785 -27.8809 40.4785 -30.1758 C 40.4785 -32.2754 39.1113 -33.9355 37.2559 -33.9355 C 36.1328 -33.9355 35.4004 -33.5449 34.3262 -32.8125 C 33.4961 -32.1777 32.5684 -31.7383 30.8105 -31.7383 C 28.5645 -31.7383 27.0508 -33.252 27.1973 -35.6934 L 27.7832 -45.752 C 27.9297 -48.5352 29.2969 -50.1465 31.7871 -50.1465 L 43.2129 -50.1465 C 45.3125 -50.1465 46.5332 -49.0234 46.5332 -46.9238 C 46.5332 -44.873 45.2148 -43.6523 43.2129 -43.6523 L 34.0332 -43.6523 L 33.5938 -37.0605 L 33.6914 -37.0605 C 34.8145 -38.7207 36.9629 -39.7461 39.1602 -39.7461 C 43.6523 -39.7461 47.5098 -36.377 47.5098 -30.6152 C 47.5098 -23.877 43.4082 -19.6289 36.5234 -19.6289 Z M 60.9375 -27.002 C 62.5977 -27.002 63.7207 -29.1504 63.7207 -35.2051 C 63.7207 -41.2598 62.5977 -43.4082 60.9375 -43.4082 C 59.2773 -43.4082 58.1543 -41.2598 58.1543 -35.2051 C 58.1543 -29.1504 59.2773 -27.002 60.9375 -27.002 Z"/>
  </g>
  <g id="Bold-S" transform="matrix(1 0 0 1 2292.44 696)">
   <path d="M 47.5586 5.46875 C 69.873 5.46875 88.2324 -12.8906 88.2324 -35.2051 C 88.2324 -57.5684 69.873 -75.9277 47.5098 -75.9277 C 25.1953 -75.9277 6.83594 -57.5684 6.83594 -35.2051 C 6.83594 -12.8906 25.1953 5.46875 47.5586 5.46875 Z M 60.6445 -18.9941 C 54.1992 -18.9941 49.9512 -24.4141 49.9512 -35.2051 C 49.9512 -45.9961 54.1992 -51.416 60.6445 -51.416 C 67.041 -51.416 71.4844 -45.9961 71.4844 -35.2051 C 71.4844 -24.4141 67.041 -18.9941 60.6445 -18.9941 Z M 35.2051 -18.9941 C 30.4688 -18.9941 26.9531 -21.582 25.8789 -24.1699 C 25.5859 -24.8535 25.4883 -25.5371 25.4883 -26.2695 C 25.4883 -28.0273 26.7578 -29.2969 28.418 -29.2969 C 29.7852 -29.2969 30.5176 -28.4668 31.25 -27.5879 C 32.2754 -26.123 33.6426 -25.0488 35.5957 -25.0488 C 38.2324 -25.0488 39.9902 -26.9043 39.9902 -29.834 C 39.9902 -32.373 38.3301 -34.375 36.0352 -34.375 C 34.7656 -34.375 33.8867 -33.9355 32.666 -33.0566 C 31.6406 -32.2266 30.7617 -31.8359 29.1016 -31.8359 C 26.9043 -31.8359 25.4883 -33.3496 25.6348 -35.791 L 26.3672 -46.4844 C 26.5137 -49.1211 27.9297 -50.6348 30.4199 -50.6348 L 42.5293 -50.6348 C 44.3359 -50.6348 45.459 -49.5605 45.459 -47.7051 C 45.459 -45.8496 44.2871 -44.6777 42.5293 -44.6777 L 32.0801 -44.6777 L 31.4941 -37.0605 L 31.6406 -37.0605 C 32.7637 -38.7207 35.1074 -39.8438 37.5 -39.8438 C 42.5781 -39.8438 46.5332 -36.0352 46.5332 -30.127 C 46.5332 -23.2422 42.1875 -18.9941 35.2051 -18.9941 Z M 60.6934 -25.6836 C 63.0371 -25.6836 64.4531 -28.6621 64.4531 -35.2051 C 64.4531 -41.748 62.9883 -44.7266 60.6934 -44.7266 C 58.3984 -44.7266 56.9824 -41.748 56.9824 -35.2051 C 56.9824 -28.6621 58.3984 -25.6836 60.6934 -25.6836 Z"/>
  </g>
  <g id="Semibold-S" transform="matrix(1 0 0 1 1996.2 696)">
   <path d="M 47.0703 4.98047 C 69.0918 4.98047 87.3047 -13.1836 87.3047 -35.2539 C 87.3047 -57.2754 69.0918 -75.4883 47.0215 -75.4883 C 25 -75.4883 6.83594 -57.2754 6.83594 -35.2539 C 6.83594 -13.1836 25.0488 4.98047 47.0703 4.98047 Z M 60.498 -18.5547 C 53.8574 -18.5547 49.5117 -24.3652 49.5117 -35.2051 C 49.5117 -46.0449 53.8574 -51.8555 60.498 -51.8555 C 67.1387 -51.8555 71.582 -46.0449 71.582 -35.2051 C 71.582 -24.3652 67.1387 -18.5547 60.498 -18.5547 Z M 34.3262 -18.5547 C 29.4922 -18.5547 25.7812 -21.0938 24.6582 -23.9746 C 24.3652 -24.6094 24.2676 -25.293 24.2676 -26.0254 C 24.2676 -27.6855 25.4395 -28.9062 27.0508 -28.9062 C 28.2715 -28.9062 29.0527 -28.1738 29.7852 -27.1484 C 30.8594 -25.3906 32.5195 -24.2188 34.6191 -24.2188 C 37.6465 -24.2188 39.6484 -26.2695 39.6484 -29.5898 C 39.6484 -32.4219 37.8418 -34.668 35.1562 -34.668 C 33.7891 -34.668 32.8613 -34.2285 31.543 -33.2031 C 30.3711 -32.2754 29.4922 -31.8848 27.9297 -31.8848 C 25.7812 -31.8848 24.4141 -33.3984 24.5605 -35.8398 L 25.3418 -46.9727 C 25.4883 -49.5117 27.002 -51.0254 29.4434 -51.0254 L 42.041 -51.0254 C 43.7012 -51.0254 44.7266 -49.9512 44.7266 -48.2422 C 44.7266 -46.5332 43.6035 -45.4102 42.041 -45.4102 L 30.6641 -45.4102 L 30.0781 -37.0605 L 30.2246 -37.0605 C 31.2988 -38.7207 33.8867 -39.8926 36.3281 -39.8926 C 41.8457 -39.8926 45.8496 -35.8398 45.8496 -29.834 C 45.8496 -22.8516 41.3574 -18.5547 34.3262 -18.5547 Z M 60.5469 -24.7559 C 63.3301 -24.7559 64.9414 -28.3203 64.9414 -35.2051 C 64.9414 -42.0898 63.2812 -45.6543 60.5469 -45.6543 C 57.8125 -45.6543 56.1523 -42.0898 56.1523 -35.2051 C 56.1523 -28.3203 57.8125 -24.7559 60.5469 -24.7559 Z"/>
  </g>
  <g id="Medium-S" transform="matrix(1 0 0 1 1699.83 696)">
   <path d="M 46.7285 4.63867 C 68.5547 4.63867 86.6211 -13.4277 86.6211 -35.2539 C 86.6211 -57.0312 68.5059 -75.1465 46.6797 -75.1465 C 24.8535 -75.1465 6.83594 -57.0312 6.83594 -35.2539 C 6.83594 -13.4277 24.9023 4.63867 46.7285 4.63867 Z M 60.4004 -18.2129 C 53.6133 -18.2129 49.1699 -24.3652 49.1699 -35.2051 C 49.1699 -46.0449 53.6133 -52.1973 60.4004 -52.1973 C 67.1875 -52.1973 71.6797 -46.0449 71.6797 -35.2051 C 71.6797 -24.3652 67.1875 -18.2129 60.4004 -18.2129 Z M 33.6426 -18.2129 C 28.7109 -18.2129 24.8535 -20.752 23.7305 -23.8281 C 23.4375 -24.4141 23.3398 -25.1465 23.3398 -25.8789 C 23.3398 -27.4414 24.4141 -28.6133 25.9766 -28.6133 C 27.0996 -28.6133 27.9297 -27.9785 28.6621 -26.8066 C 29.7852 -24.8535 31.6406 -23.6328 33.8867 -23.6328 C 37.207 -23.6328 39.4043 -25.7324 39.4043 -29.3945 C 39.4043 -32.5195 37.4023 -34.9121 34.5215 -34.9121 C 33.0566 -34.9121 32.0801 -34.4238 30.7129 -33.3496 C 29.3945 -32.3242 28.5156 -31.9336 27.0508 -31.9336 C 24.9023 -31.9336 23.6328 -33.4473 23.7305 -35.8887 L 24.6094 -47.3633 C 24.7559 -49.8535 26.3184 -51.3184 28.7109 -51.3184 L 41.6992 -51.3184 C 43.2129 -51.3184 44.1895 -50.2441 44.1895 -48.6816 C 44.1895 -47.0215 43.1152 -45.9473 41.6992 -45.9473 L 29.6387 -45.9473 L 29.0039 -37.0605 L 29.1504 -37.0605 C 30.2246 -38.7207 32.9102 -39.9414 35.4492 -39.9414 C 41.2598 -39.9414 45.3613 -35.6934 45.3613 -29.5898 C 45.3613 -22.5098 40.7227 -18.2129 33.6426 -18.2129 Z M 60.4492 -24.0723 C 63.5254 -24.0723 65.332 -28.0762 65.332 -35.2051 C 65.332 -42.334 63.4766 -46.3379 60.4492 -46.3379 C 57.373 -46.3379 55.5176 -42.334 55.5176 -35.2051 C 55.5176 -28.0762 57.373 -24.0723 60.4492 -24.0723 Z"/>
  </g>
  <g id="Regular-S" transform="matrix(1 0 0 1 1403.58 696)">
   <path d="M 46.2402 4.15039 C 67.7734 4.15039 85.6934 -13.7207 85.6934 -35.2539 C 85.6934 -56.7871 67.7246 -74.6582 46.1914 -74.6582 C 24.707 -74.6582 6.83594 -56.7871 6.83594 -35.2539 C 6.83594 -13.7207 24.7559 4.15039 46.2402 4.15039 Z M 60.3027 -17.7734 C 53.3203 -17.7734 48.7793 -24.3164 48.7793 -35.2051 C 48.7793 -46.0938 53.3203 -52.6367 60.3027 -52.6367 C 67.2363 -52.6367 71.7773 -46.0938 71.7773 -35.2051 C 71.7773 -24.3164 67.2363 -17.7734 60.3027 -17.7734 Z M 32.7148 -17.7734 C 27.7344 -17.7734 23.6816 -20.3125 22.4609 -23.6328 C 22.2656 -24.1699 22.1191 -24.9023 22.1191 -25.6348 C 22.1191 -27.0996 23.0957 -28.2227 24.6094 -28.2227 C 25.5859 -28.2227 26.5137 -27.6855 27.1973 -26.3672 C 28.418 -24.1211 30.5176 -22.8027 32.959 -22.8027 C 36.6699 -22.8027 39.0625 -25.0977 39.0625 -29.1504 C 39.0625 -32.5684 36.9141 -35.2051 33.6914 -35.2051 C 32.1289 -35.2051 31.1035 -34.668 29.5898 -33.5449 C 28.125 -32.3242 27.2461 -32.0312 25.8789 -32.0312 C 23.7793 -32.0312 22.5586 -33.5449 22.7051 -35.9375 L 23.6328 -47.8516 C 23.7793 -50.2441 25.3906 -51.6602 27.7344 -51.6602 L 41.2109 -51.6602 C 42.5293 -51.6602 43.457 -50.6348 43.457 -49.2188 C 43.457 -47.7051 42.4805 -46.6309 41.2109 -46.6309 L 28.2715 -46.6309 L 27.5879 -37.0605 L 27.7344 -37.0605 C 28.8086 -38.7207 31.6895 -40.0391 34.2773 -40.0391 C 40.5273 -40.0391 44.6777 -35.498 44.6777 -29.248 C 44.6777 -22.0703 39.8926 -17.7734 32.7148 -17.7734 Z M 60.3027 -23.1934 C 63.8184 -23.1934 65.8691 -27.7344 65.8691 -35.2051 C 65.8691 -42.6758 63.7695 -47.2168 60.3027 -47.2168 C 56.7871 -47.2168 54.6875 -42.6758 54.6875 -35.2051 C 54.6875 -27.7344 56.7871 -23.1934 60.3027 -23.1934 Z"/>
  </g>
  <g id="Light-S" transform="matrix(1 0 0 1 1107.6 696)">
   <path d="M 45.5078 3.4668 C 66.6992 3.4668 84.2285 -14.0625 84.2285 -35.2051 C 84.2285 -56.3965 66.6504 -73.9258 45.5078 -73.9258 C 24.3164 -73.9258 6.83594 -56.3965 6.83594 -35.2051 C 6.83594 -14.0625 24.3652 3.4668 45.5078 3.4668 Z M 59.8633 -18.0176 C 52.9785 -18.0176 48.4375 -24.6094 48.4375 -35.2051 C 48.4375 -45.8008 52.9785 -52.3926 59.8633 -52.3926 C 66.7969 -52.3926 71.3379 -45.8008 71.3379 -35.2051 C 71.3379 -24.6094 66.7969 -18.0176 59.8633 -18.0176 Z M 32.2266 -18.0176 C 27.1484 -18.0176 23.2422 -20.7031 22.0703 -24.1211 C 21.875 -24.6094 21.7773 -25.1465 21.7773 -25.7324 C 21.7773 -26.9531 22.5586 -27.832 23.7793 -27.832 C 24.6094 -27.832 25.3418 -27.2949 25.8789 -26.2207 C 26.9531 -23.6816 29.4922 -22.1191 32.4707 -22.1191 C 36.5723 -22.1191 39.4043 -24.8535 39.4043 -29.1992 C 39.4043 -33.1055 36.8164 -36.0352 33.0078 -36.0352 C 31.1035 -36.0352 29.5898 -35.3516 27.7832 -33.6914 C 26.6602 -32.7637 26.0254 -32.4707 24.9023 -32.4707 C 23.2422 -32.4707 22.2168 -33.6914 22.3633 -35.5957 L 23.3887 -48.584 C 23.4863 -50.4883 24.7559 -51.6602 26.6602 -51.6602 L 40.7227 -51.6602 C 41.7969 -51.6602 42.5293 -50.8301 42.5293 -49.6582 C 42.5293 -48.4375 41.748 -47.6074 40.7227 -47.6074 L 27.1973 -47.6074 L 26.3672 -36.7188 L 26.5137 -36.7188 C 27.7832 -38.623 30.7129 -39.9414 33.4961 -39.9414 C 39.6973 -39.9414 43.8965 -35.4492 43.8965 -29.2969 C 43.8965 -22.3145 39.209 -18.0176 32.2266 -18.0176 Z M 59.8633 -22.3633 C 64.0137 -22.3633 66.6016 -27.3438 66.6016 -35.2051 C 66.6016 -43.0664 63.9648 -48.0469 59.8633 -48.0469 C 55.8105 -48.0469 53.1738 -43.0664 53.1738 -35.2051 C 53.1738 -27.3438 55.8105 -22.3633 59.8633 -22.3633 Z"/>
  </g>
  <g id="Thin-S" transform="matrix(1 0 0 1 811.867 696)">
   <path d="M 44.5801 2.53906 C 65.2832 2.53906 82.2754 -14.4531 82.2754 -35.2051 C 82.2754 -55.9082 65.2344 -72.9004 44.5312 -72.9004 C 23.8281 -72.9004 6.83594 -55.9082 6.83594 -35.2051 C 6.83594 -14.4531 23.877 2.53906 44.5801 2.53906 Z M 59.375 -18.3594 C 52.5879 -18.3594 47.998 -25.0488 47.998 -35.2051 C 47.998 -45.3613 52.5879 -52.0508 59.375 -52.0508 C 66.1621 -52.0508 70.752 -45.3613 70.752 -35.2051 C 70.752 -25.0488 66.1621 -18.3594 59.375 -18.3594 Z M 31.5918 -18.3594 C 26.3672 -18.3594 22.7051 -21.1914 21.4844 -24.7559 C 21.3867 -25.1465 21.2891 -25.4883 21.2891 -25.8301 C 21.2891 -26.709 21.875 -27.2461 22.6562 -27.2461 C 23.3398 -27.2461 23.8281 -26.8066 24.1211 -26.0254 C 25.0977 -23.1445 28.1738 -21.1914 31.8359 -21.1914 C 36.4746 -21.1914 39.8438 -24.5117 39.8438 -29.248 C 39.8438 -33.8379 36.6699 -37.1582 32.1289 -37.1582 C 29.6875 -37.1582 27.6367 -36.2305 25.4395 -33.8867 C 24.8047 -33.252 24.3652 -33.0566 23.6328 -33.0566 C 22.5098 -33.0566 21.8262 -33.8379 21.9238 -35.1074 L 23.0469 -49.5605 C 23.1445 -50.8301 23.9258 -51.6113 25.1953 -51.6113 L 40.0391 -51.6113 C 40.8203 -51.6113 41.3574 -51.0742 41.3574 -50.2441 C 41.3574 -49.4141 40.8203 -48.877 40.0391 -48.877 L 25.7324 -48.877 L 24.7559 -36.2305 L 24.8535 -36.2305 C 26.4648 -38.4766 29.4434 -39.8438 32.4707 -39.8438 C 38.5742 -39.8438 42.8711 -35.4004 42.8711 -29.2969 C 42.8711 -22.6562 38.2324 -18.3594 31.5918 -18.3594 Z M 59.375 -21.2891 C 64.2578 -21.2891 67.627 -26.8555 67.627 -35.2051 C 67.627 -43.5547 64.2578 -49.1211 59.375 -49.1211 C 54.4434 -49.1211 51.123 -43.5547 51.123 -35.2051 C 51.123 -26.8555 54.4434 -21.2891 59.375 -21.2891 Z"/>
  </g>
  <g id="Ultralight-S" transform="matrix(1 0 0 1 515.644 696)">
   <path d="M 44.043 2.05078 C 64.502 2.05078 81.2988 -14.6973 81.2988 -35.1562 C 81.2988 -55.6152 64.502 -72.3633 44.043 -72.3633 C 23.584 -72.3633 6.83594 -55.6152 6.83594 -35.1562 C 6.83594 -14.6973 23.584 2.05078 44.043 2.05078 Z M 59.082 -18.5059 C 52.3438 -18.5059 47.7539 -25.2441 47.7539 -35.2051 C 47.7539 -45.166 52.3438 -51.9043 59.082 -51.9043 C 65.8203 -51.9043 70.4102 -45.166 70.4102 -35.2051 C 70.4102 -25.2441 65.8203 -18.5059 59.082 -18.5059 Z M 31.25 -18.5059 C 25.9766 -18.5059 22.4121 -21.4355 21.1914 -25.0488 C 21.0938 -25.4395 21.0449 -25.6348 21.0449 -25.9277 C 21.0449 -26.6113 21.5332 -26.9531 22.1191 -26.9531 C 22.6562 -26.9531 23.0469 -26.5625 23.1934 -25.9277 C 24.1211 -22.8516 27.4414 -20.7031 31.4941 -20.7031 C 36.377 -20.7031 40.0879 -24.3164 40.0879 -29.2969 C 40.0879 -34.1797 36.5723 -37.7441 31.6895 -37.7441 C 28.9551 -37.7441 26.6602 -36.7188 24.2676 -33.9844 C 23.8281 -33.5449 23.4863 -33.3984 22.9492 -33.3984 C 22.168 -33.3984 21.582 -33.9844 21.6797 -34.8633 L 22.9004 -50.0977 C 22.9492 -50.9766 23.4863 -51.6113 24.4629 -51.6113 L 39.6973 -51.6113 C 40.2832 -51.6113 40.7715 -51.1719 40.7715 -50.5859 C 40.7715 -49.9512 40.2832 -49.5117 39.6973 -49.5117 L 25 -49.5117 L 23.9258 -35.9863 L 23.9746 -35.9863 C 25.7324 -38.3789 28.8086 -39.7949 31.9336 -39.7949 C 37.9883 -39.7949 42.334 -35.3516 42.334 -29.3457 C 42.334 -22.8516 37.7441 -18.5059 31.25 -18.5059 Z M 59.082 -20.752 C 64.4043 -20.752 68.1641 -26.6113 68.1641 -35.2051 C 68.1641 -43.7988 64.4043 -49.6582 59.082 -49.6582 C 53.7598 -49.6582 50.0488 -43.7988 50.0488 -35.2051 C 50.0488 -26.6113 53.7598 -20.752 59.082 -20.752 Z"/>
  </g>
 </g>
</svg>
