<?xml version="1.0" encoding="UTF-8"?>
<!--Generator: Apple Native CoreSVG 123-->
<!DOCTYPE svg
PUBLIC "-//W3C//DTD SVG 1.1//EN"
       "http://www.w3.org/Graphics/SVG/1.1/DTD/svg11.dtd">
<svg version="1.1" xmlns="http://www.w3.org/2000/svg" xmlns:xlink="http://www.w3.org/1999/xlink" width="3300" height="2200">
 <!--glyph: "uni100472.medium", point size: 100.000000, font version: "Version 15.0d7e11", template writer version: "5"-->
 <g id="Notes">
  <rect height="2200" id="artboard" style="fill:white;opacity:1" width="3300" x="0" y="0"/>
  <line id="" style="fill:none;stroke:black;opacity:1;stroke-width:0.5;" x1="263" x2="3036" y1="292" y2="292"/>
  <text style="stroke:none;fill:black;font-family:-apple-system,&quot;SF Pro Display&quot;,&quot;SF Pro Text&quot;,Helvetica,sans-serif;font-weight:bold;" transform="matrix(1 0 0 1 263 322)">Weight/Scale Variations</text>
  <text style="stroke:none;fill:black;font-family:-apple-system,&quot;SF Pro Display&quot;,&quot;SF Pro Text&quot;,Helvetica,sans-serif;text-anchor:middle;" transform="matrix(1 0 0 1 559.711 322)">Ultralight</text>
  <text style="stroke:none;fill:black;font-family:-apple-system,&quot;SF Pro Display&quot;,&quot;SF Pro Text&quot;,Helvetica,sans-serif;text-anchor:middle;" transform="matrix(1 0 0 1 856.422 322)">Thin</text>
  <text style="stroke:none;fill:black;font-family:-apple-system,&quot;SF Pro Display&quot;,&quot;SF Pro Text&quot;,Helvetica,sans-serif;text-anchor:middle;" transform="matrix(1 0 0 1 1153.13 322)">Light</text>
  <text style="stroke:none;fill:black;font-family:-apple-system,&quot;SF Pro Display&quot;,&quot;SF Pro Text&quot;,Helvetica,sans-serif;text-anchor:middle;" transform="matrix(1 0 0 1 1449.84 322)">Regular</text>
  <text style="stroke:none;fill:black;font-family:-apple-system,&quot;SF Pro Display&quot;,&quot;SF Pro Text&quot;,Helvetica,sans-serif;text-anchor:middle;" transform="matrix(1 0 0 1 1746.56 322)">Medium</text>
  <text style="stroke:none;fill:black;font-family:-apple-system,&quot;SF Pro Display&quot;,&quot;SF Pro Text&quot;,Helvetica,sans-serif;text-anchor:middle;" transform="matrix(1 0 0 1 2043.27 322)">Semibold</text>
  <text style="stroke:none;fill:black;font-family:-apple-system,&quot;SF Pro Display&quot;,&quot;SF Pro Text&quot;,Helvetica,sans-serif;text-anchor:middle;" transform="matrix(1 0 0 1 2339.98 322)">Bold</text>
  <text style="stroke:none;fill:black;font-family:-apple-system,&quot;SF Pro Display&quot;,&quot;SF Pro Text&quot;,Helvetica,sans-serif;text-anchor:middle;" transform="matrix(1 0 0 1 2636.69 322)">Heavy</text>
  <text style="stroke:none;fill:black;font-family:-apple-system,&quot;SF Pro Display&quot;,&quot;SF Pro Text&quot;,Helvetica,sans-serif;text-anchor:middle;" transform="matrix(1 0 0 1 2933.4 322)">Black</text>
  <line id="" style="fill:none;stroke:black;opacity:1;stroke-width:0.5;" x1="263" x2="3036" y1="1903" y2="1903"/>
  <g id="" transform="matrix(1 0 0 1 263 1933)">
   <path d="M 9.24805 0.830078 C 13.5547 0.830078 17.1387 -2.74414 17.1387 -7.05078 C 17.1387 -11.3574 13.5449 -14.9316 9.23828 -14.9316 C 4.94141 -14.9316 1.36719 -11.3574 1.36719 -7.05078 C 1.36719 -2.74414 4.95117 0.830078 9.24805 0.830078 Z M 9.24805 -0.654297 C 5.70312 -0.654297 2.87109 -3.49609 2.87109 -7.05078 C 2.87109 -10.6055 5.69336 -13.4473 9.23828 -13.4473 C 12.793 -13.4473 15.6348 -10.6055 15.6445 -7.05078 C 15.6543 -3.49609 12.8027 -0.654297 9.24805 -0.654297 Z M 9.22852 -3.42773 C 9.69727 -3.42773 9.9707 -3.74023 9.9707 -4.25781 L 9.9707 -6.31836 L 12.1973 -6.31836 C 12.6953 -6.31836 13.0371 -6.57227 13.0371 -7.04102 C 13.0371 -7.51953 12.7148 -7.7832 12.1973 -7.7832 L 9.9707 -7.7832 L 9.9707 -10.0098 C 9.9707 -10.5273 9.69727 -10.8496 9.22852 -10.8496 C 8.75977 -10.8496 8.50586 -10.5078 8.50586 -10.0098 L 8.50586 -7.7832 L 6.29883 -7.7832 C 5.78125 -7.7832 5.44922 -7.51953 5.44922 -7.04102 C 5.44922 -6.57227 5.80078 -6.31836 6.29883 -6.31836 L 8.50586 -6.31836 L 8.50586 -4.25781 C 8.50586 -3.75977 8.75977 -3.42773 9.22852 -3.42773 Z"/>
  </g>
  <g id="" transform="matrix(1 0 0 1 281.506 1933)">
   <path d="M 11.709 2.91016 C 17.1582 2.91016 21.6699 -1.60156 21.6699 -7.05078 C 21.6699 -12.4902 17.1484 -17.0117 11.6992 -17.0117 C 6.25977 -17.0117 1.74805 -12.4902 1.74805 -7.05078 C 1.74805 -1.60156 6.26953 2.91016 11.709 2.91016 Z M 11.709 1.25 C 7.09961 1.25 3.41797 -2.44141 3.41797 -7.05078 C 3.41797 -11.6504 7.08984 -15.3516 11.6992 -15.3516 C 16.3086 -15.3516 20 -11.6504 20.0098 -7.05078 C 20.0195 -2.44141 16.3184 1.25 11.709 1.25 Z M 11.6895 -2.41211 C 12.207 -2.41211 12.5195 -2.77344 12.5195 -3.33984 L 12.5195 -6.23047 L 15.5762 -6.23047 C 16.123 -6.23047 16.5039 -6.51367 16.5039 -7.03125 C 16.5039 -7.55859 16.1426 -7.86133 15.5762 -7.86133 L 12.5195 -7.86133 L 12.5195 -10.9277 C 12.5195 -11.5039 12.207 -11.8555 11.6895 -11.8555 C 11.1719 -11.8555 10.8789 -11.4844 10.8789 -10.9277 L 10.8789 -7.86133 L 7.83203 -7.86133 C 7.26562 -7.86133 6.89453 -7.55859 6.89453 -7.03125 C 6.89453 -6.51367 7.28516 -6.23047 7.83203 -6.23047 L 10.8789 -6.23047 L 10.8789 -3.33984 C 10.8789 -2.79297 11.1719 -2.41211 11.6895 -2.41211 Z"/>
  </g>
  <g id="" transform="matrix(1 0 0 1 304.924 1933)">
   <path d="M 14.9707 5.67383 C 21.9336 5.67383 27.6953 -0.078125 27.6953 -7.04102 C 27.6953 -14.0039 21.9238 -19.7559 14.9609 -19.7559 C 8.00781 -19.7559 2.25586 -14.0039 2.25586 -7.04102 C 2.25586 -0.078125 8.01758 5.67383 14.9707 5.67383 Z M 14.9707 3.85742 C 8.93555 3.85742 4.08203 -1.00586 4.08203 -7.04102 C 4.08203 -13.0762 8.92578 -17.9395 14.9609 -17.9395 C 21.0059 -17.9395 25.8594 -13.0762 25.8691 -7.04102 C 25.8789 -1.00586 21.0156 3.85742 14.9707 3.85742 Z M 14.9512 -1.06445 C 15.5176 -1.06445 15.8691 -1.45508 15.8691 -2.06055 L 15.8691 -6.13281 L 20.1074 -6.13281 C 20.6934 -6.13281 21.1133 -6.46484 21.1133 -7.02148 C 21.1133 -7.59766 20.7227 -7.93945 20.1074 -7.93945 L 15.8691 -7.93945 L 15.8691 -12.1875 C 15.8691 -12.8027 15.5176 -13.1934 14.9512 -13.1934 C 14.3848 -13.1934 14.0625 -12.7832 14.0625 -12.1875 L 14.0625 -7.93945 L 9.83398 -7.93945 C 9.21875 -7.93945 8.80859 -7.59766 8.80859 -7.02148 C 8.80859 -6.46484 9.23828 -6.13281 9.83398 -6.13281 L 14.0625 -6.13281 L 14.0625 -2.06055 C 14.0625 -1.47461 14.3848 -1.06445 14.9512 -1.06445 Z"/>
  </g>
  <text style="stroke:none;fill:black;font-family:-apple-system,&quot;SF Pro Display&quot;,&quot;SF Pro Text&quot;,Helvetica,sans-serif;font-weight:bold;" transform="matrix(1 0 0 1 263 1953)">Design Variations</text>
  <text style="stroke:none;fill:black;font-family:-apple-system,&quot;SF Pro Display&quot;,&quot;SF Pro Text&quot;,Helvetica,sans-serif;" transform="matrix(1 0 0 1 263 1971)">Symbols are supported in up to nine weights and three scales.</text>
  <text style="stroke:none;fill:black;font-family:-apple-system,&quot;SF Pro Display&quot;,&quot;SF Pro Text&quot;,Helvetica,sans-serif;" transform="matrix(1 0 0 1 263 1989)">For optimal layout with text and other symbols, vertically align</text>
  <text style="stroke:none;fill:black;font-family:-apple-system,&quot;SF Pro Display&quot;,&quot;SF Pro Text&quot;,Helvetica,sans-serif;" transform="matrix(1 0 0 1 263 2007)">symbols with the adjacent text.</text>
  <rect height="14" id="" style="fill:#00AEEF;stroke:none;opacity:0.4;" width="3" x="776" y="1919"/>
  <g id="" transform="matrix(1 0 0 1 779 1933)">
   <path d="M 10.5273 0 L 12.373 0 L 7.17773 -14.0918 L 5.43945 -14.0918 L 0.244141 0 L 2.08984 0 L 3.50586 -4.0332 L 9.11133 -4.0332 Z M 6.2793 -11.9531 L 6.33789 -11.9531 L 8.59375 -5.52734 L 4.02344 -5.52734 Z"/>
  </g>
  <rect height="14" id="" style="fill:#00AEEF;stroke:none;opacity:0.4;" width="3" x="791.617" y="1919"/>
  <text style="stroke:none;fill:black;font-family:-apple-system,&quot;SF Pro Display&quot;,&quot;SF Pro Text&quot;,Helvetica,sans-serif;font-weight:bold;" transform="matrix(1 0 0 1 776 1953)">Margins</text>
  <text style="stroke:none;fill:black;font-family:-apple-system,&quot;SF Pro Display&quot;,&quot;SF Pro Text&quot;,Helvetica,sans-serif;" transform="matrix(1 0 0 1 776 1971)">Leading and trailing margins on the left and right side of each symbol</text>
  <text style="stroke:none;fill:black;font-family:-apple-system,&quot;SF Pro Display&quot;,&quot;SF Pro Text&quot;,Helvetica,sans-serif;" transform="matrix(1 0 0 1 776 1989)">can be adjusted by modifying the width of the blue rectangles.</text>
  <text style="stroke:none;fill:black;font-family:-apple-system,&quot;SF Pro Display&quot;,&quot;SF Pro Text&quot;,Helvetica,sans-serif;" transform="matrix(1 0 0 1 776 2007)">Modifications are automatically applied proportionally to all</text>
  <text style="stroke:none;fill:black;font-family:-apple-system,&quot;SF Pro Display&quot;,&quot;SF Pro Text&quot;,Helvetica,sans-serif;" transform="matrix(1 0 0 1 776 2025)">scales and weights.</text>
  <g id="" transform="matrix(1 0 0 1 1289 1933)">
   <path d="M 2.83203 3.11523 L 4.375 4.6582 C 5.22461 5.48828 6.19141 5.41992 7.06055 4.46289 L 17.2754 -6.66016 C 17.7051 -6.36719 18.0957 -6.37695 18.5645 -6.47461 L 19.6094 -6.68945 L 20.3027 -5.99609 L 20.2539 -5.47852 C 20.1855 -4.95117 20.3516 -4.53125 20.8496 -4.0332 L 21.6602 -3.22266 C 22.168 -2.71484 22.8223 -2.68555 23.3008 -3.16406 L 26.5527 -6.41602 C 27.0312 -6.89453 27.0117 -7.54883 26.5039 -8.05664 L 25.6836 -8.87695 C 25.1855 -9.375 24.7754 -9.55078 24.2383 -9.47266 L 23.7109 -9.41406 L 23.0566 -10.0781 L 23.3398 -11.2207 C 23.4863 -11.7871 23.3398 -12.2559 22.7148 -12.8613 L 20.3027 -15.2539 C 16.7578 -18.7793 12.2266 -18.6719 9.11133 -15.5371 C 8.69141 -15.1074 8.64258 -14.5215 8.91602 -14.0918 C 9.15039 -13.7207 9.62891 -13.4961 10.2734 -13.6621 C 11.7871 -14.043 13.3008 -13.9258 14.7852 -12.9199 L 14.1602 -11.3379 C 13.9258 -10.752 13.9453 -10.2734 14.1797 -9.83398 L 3.01758 0.439453 C 2.08008 1.30859 1.97266 2.25586 2.83203 3.11523 Z M 10.6738 -15.1465 C 13.3398 -17.1387 16.6504 -16.8262 19.0527 -14.4141 L 21.6797 -11.8066 C 21.9141 -11.5723 21.9434 -11.3867 21.8848 -11.0938 L 21.5039 -9.53125 L 23.0762 -7.95898 L 24.043 -8.04688 C 24.3262 -8.07617 24.4141 -8.05664 24.6387 -7.83203 L 25.2637 -7.20703 L 22.5098 -4.46289 L 21.8848 -5.07812 C 21.6602 -5.30273 21.6406 -5.40039 21.6699 -5.68359 L 21.7578 -6.64062 L 20.1953 -8.20312 L 18.5742 -7.89062 C 18.291 -7.83203 18.1445 -7.83203 17.9102 -8.07617 L 15.7324 -10.2539 C 15.5078 -10.4883 15.4785 -10.625 15.6055 -10.9473 L 16.5527 -13.2227 C 14.9512 -14.7559 12.8418 -15.6055 10.8008 -14.9512 C 10.7129 -14.9219 10.6445 -14.9414 10.6152 -14.9805 C 10.5859 -15.0293 10.5859 -15.0781 10.6738 -15.1465 Z M 4.10156 2.41211 C 3.61328 1.91406 3.78906 1.61133 4.12109 1.30859 L 15.0781 -8.80859 L 16.3086 -7.57812 L 6.15234 3.34961 C 5.84961 3.68164 5.46875 3.7793 5.06836 3.37891 Z"/>
  </g>
  <text style="stroke:none;fill:black;font-family:-apple-system,&quot;SF Pro Display&quot;,&quot;SF Pro Text&quot;,Helvetica,sans-serif;font-weight:bold;" transform="matrix(1 0 0 1 1289 1953)">Exporting</text>
  <text style="stroke:none;fill:black;font-family:-apple-system,&quot;SF Pro Display&quot;,&quot;SF Pro Text&quot;,Helvetica,sans-serif;" transform="matrix(1 0 0 1 1289 1971)">Symbols should be outlined when exporting to ensure the</text>
  <text style="stroke:none;fill:black;font-family:-apple-system,&quot;SF Pro Display&quot;,&quot;SF Pro Text&quot;,Helvetica,sans-serif;" transform="matrix(1 0 0 1 1289 1989)">design is preserved when submitting to Xcode.</text>
  <text id="template-version" style="stroke:none;fill:black;font-family:-apple-system,&quot;SF Pro Display&quot;,&quot;SF Pro Text&quot;,Helvetica,sans-serif;text-anchor:end;" transform="matrix(1 0 0 1 3036 1933)">Template v.1.0</text>
  <text style="stroke:none;fill:black;font-family:-apple-system,&quot;SF Pro Display&quot;,&quot;SF Pro Text&quot;,Helvetica,sans-serif;text-anchor:end;" transform="matrix(1 0 0 1 3036 1951)">Generated from 6.alt.circle.fill</text>
  <text style="stroke:none;fill:black;font-family:-apple-system,&quot;SF Pro Display&quot;,&quot;SF Pro Text&quot;,Helvetica,sans-serif;text-anchor:end;" transform="matrix(1 0 0 1 3036 1969)">Typeset at 100 points</text>
  <text style="stroke:none;fill:black;font-family:-apple-system,&quot;SF Pro Display&quot;,&quot;SF Pro Text&quot;,Helvetica,sans-serif;" transform="matrix(1 0 0 1 263 726)">Small</text>
  <text style="stroke:none;fill:black;font-family:-apple-system,&quot;SF Pro Display&quot;,&quot;SF Pro Text&quot;,Helvetica,sans-serif;" transform="matrix(1 0 0 1 263 1156)">Medium</text>
  <text style="stroke:none;fill:black;font-family:-apple-system,&quot;SF Pro Display&quot;,&quot;SF Pro Text&quot;,Helvetica,sans-serif;" transform="matrix(1 0 0 1 263 1586)">Large</text>
 </g>
 <g id="Guides">
  <g id="H-reference" style="fill:#27AAE1;stroke:none;" transform="matrix(1 0 0 1 339 696)">
   <path d="M 54.9316 0 L 57.666 0 L 30.5664 -70.459 L 28.0762 -70.459 L 0.976562 0 L 3.66211 0 L 12.9395 -24.4629 L 45.7031 -24.4629 Z M 29.1992 -67.0898 L 29.4434 -67.0898 L 44.8242 -26.709 L 13.8184 -26.709 Z"/>
  </g>
  <line id="Baseline-S" style="fill:none;stroke:#27AAE1;opacity:1;stroke-width:0.577;" x1="263" x2="3036" y1="696" y2="696"/>
  <line id="Capline-S" style="fill:none;stroke:#27AAE1;opacity:1;stroke-width:0.577;" x1="263" x2="3036" y1="625.541" y2="625.541"/>
  <g id="H-reference" style="fill:#27AAE1;stroke:none;" transform="matrix(1 0 0 1 339 1126)">
   <path d="M 54.9316 0 L 57.666 0 L 30.5664 -70.459 L 28.0762 -70.459 L 0.976562 0 L 3.66211 0 L 12.9395 -24.4629 L 45.7031 -24.4629 Z M 29.1992 -67.0898 L 29.4434 -67.0898 L 44.8242 -26.709 L 13.8184 -26.709 Z"/>
  </g>
  <line id="Baseline-M" style="fill:none;stroke:#27AAE1;opacity:1;stroke-width:0.577;" x1="263" x2="3036" y1="1126" y2="1126"/>
  <line id="Capline-M" style="fill:none;stroke:#27AAE1;opacity:1;stroke-width:0.577;" x1="263" x2="3036" y1="1055.54" y2="1055.54"/>
  <g id="H-reference" style="fill:#27AAE1;stroke:none;" transform="matrix(1 0 0 1 339 1556)">
   <path d="M 54.9316 0 L 57.666 0 L 30.5664 -70.459 L 28.0762 -70.459 L 0.976562 0 L 3.66211 0 L 12.9395 -24.4629 L 45.7031 -24.4629 Z M 29.1992 -67.0898 L 29.4434 -67.0898 L 44.8242 -26.709 L 13.8184 -26.709 Z"/>
  </g>
  <line id="Baseline-L" style="fill:none;stroke:#27AAE1;opacity:1;stroke-width:0.577;" x1="263" x2="3036" y1="1556" y2="1556"/>
  <line id="Capline-L" style="fill:none;stroke:#27AAE1;opacity:1;stroke-width:0.577;" x1="263" x2="3036" y1="1485.54" y2="1485.54"/>
  <rect height="119.336" id="left-margin" style="fill:#00AEEF;stroke:none;opacity:0.4;" width="8.74023" x="1391.3" y="1030.79"/>
  <rect height="119.336" id="right-margin" style="fill:#00AEEF;stroke:none;opacity:0.4;" width="8.74023" x="1499.65" y="1030.79"/>
 </g>
 <g id="Symbols">
  <g id="Black-L" transform="matrix(1 0 0 1 2854.05 1556)">
   <path d="M 79.3457 32.8613 C 116.748 32.8613 147.412 2.19727 147.412 -35.2051 C 147.412 -72.6074 116.748 -103.271 79.2969 -103.271 C 41.8945 -103.271 11.2793 -72.6074 11.2793 -35.2051 C 11.2793 2.19727 41.9434 32.8613 79.3457 32.8613 Z M 107.373 -26.6602 C 107.373 -14.0137 97.0215 -4.6875 81.0059 -4.6875 C 64.5996 -4.6875 54.4434 -13.5254 54.4434 -27.8809 C 54.4434 -35.498 58.0078 -42.9688 63.4277 -49.9512 C 65.4785 -52.6855 69.1406 -57.4707 71.3867 -60.2539 C 73.6816 -63.0859 75.9766 -65.8691 80.9082 -65.8691 C 86.0352 -65.8691 88.916 -62.2559 88.9648 -58.5938 C 88.9648 -56.8359 88.3301 -55.1758 87.1582 -53.5156 C 85.3516 -51.1719 83.1055 -48.291 81.3965 -46.1914 C 80.2246 -44.6289 79.3457 -43.5059 78.3203 -41.9922 L 79.1504 -41.9434 C 80.957 -43.5547 84.668 -45.166 89.1602 -45.166 C 100.098 -45.166 107.373 -37.2559 107.373 -26.6602 Z M 72.6562 -25.6836 C 72.6562 -21.7773 76.2207 -18.8965 81.0059 -18.8965 C 85.9375 -18.8965 89.4531 -21.7773 89.4531 -25.6836 C 89.4531 -29.4922 85.9375 -32.3242 81.0059 -32.3242 C 76.2207 -32.3242 72.6562 -29.4922 72.6562 -25.6836 Z"/>
  </g>
  <g id="Heavy-L" transform="matrix(1 0 0 1 2558.39 1556)">
   <path d="M 78.2715 31.7871 C 115.088 31.7871 145.312 1.61133 145.312 -35.2051 C 145.312 -72.0215 115.039 -102.197 78.2715 -102.197 C 41.4551 -102.197 11.2793 -72.0215 11.2793 -35.2051 C 11.2793 1.61133 41.5039 31.7871 78.2715 31.7871 Z M 105.176 -26.2207 C 105.176 -13.7695 95.1172 -4.6875 79.7852 -4.6875 C 64.1602 -4.6875 54.2969 -13.4277 54.2969 -27.2461 C 54.2969 -34.7168 57.666 -42.0898 63.3789 -49.4629 C 65.5762 -52.4414 69.5312 -57.5684 72.2168 -60.9375 C 74.2676 -63.4277 76.2695 -65.8203 80.4199 -65.8203 C 85.0098 -65.8203 87.4512 -62.6953 87.5 -59.4727 C 87.5 -57.8613 86.9141 -56.3477 85.791 -54.8828 C 83.6426 -52.0508 80.7129 -48.3398 78.7109 -45.8496 C 77.3438 -44.043 76.5137 -42.8711 75.5371 -41.4551 L 76.3184 -41.4062 C 78.2715 -43.1641 82.1777 -44.7754 86.6699 -44.7754 C 97.7051 -44.7754 105.176 -36.8652 105.176 -26.2207 Z M 70.0684 -25.4395 C 70.0684 -20.752 74.2188 -17.2363 79.7852 -17.2363 C 85.4492 -17.2363 89.5996 -20.7031 89.5996 -25.3906 C 89.5996 -30.0293 85.4492 -33.4473 79.7852 -33.4473 C 74.2188 -33.4473 70.0684 -30.0293 70.0684 -25.4395 Z"/>
  </g>
  <g id="Bold-L" transform="matrix(1 0 0 1 2262.88 1556)">
   <path d="M 77.0996 30.6152 C 113.232 30.6152 142.92 0.878906 142.92 -35.2051 C 142.92 -71.3379 113.184 -101.025 77.0508 -101.025 C 40.9668 -101.025 11.2793 -71.3379 11.2793 -35.2051 C 11.2793 0.878906 41.0156 30.6152 77.0996 30.6152 Z M 102.686 -25.7812 C 102.686 -13.5254 92.9688 -4.6875 78.4668 -4.6875 C 63.6719 -4.6875 54.1016 -13.3301 54.1016 -26.5625 C 54.1016 -33.8379 57.2754 -41.0645 63.2812 -48.9258 C 65.7715 -52.1973 70.0195 -57.666 73.1934 -61.7188 C 74.8535 -63.8184 76.5625 -65.7715 79.9316 -65.7715 C 83.8867 -65.7715 85.8887 -63.1348 85.8887 -60.4492 C 85.8887 -59.0332 85.3027 -57.666 84.3262 -56.3477 C 81.7383 -52.9785 78.0273 -48.4375 75.7324 -45.459 C 74.1699 -43.3594 73.291 -42.2363 72.4609 -40.8691 L 73.1445 -40.7715 C 75.1953 -42.7246 79.3457 -44.3359 83.8379 -44.3359 C 95.0195 -44.3359 102.686 -36.4258 102.686 -25.7812 Z M 67.1387 -25.1953 C 67.1387 -19.5801 72.0215 -15.3809 78.4668 -15.3809 C 84.9609 -15.3809 89.7461 -19.5312 89.7461 -25.0977 C 89.7461 -30.6641 84.9609 -34.7168 78.418 -34.7168 C 71.9727 -34.7168 67.1387 -30.6641 67.1387 -25.1953 Z"/>
  </g>
  <g id="Semibold-L" transform="matrix(1 0 0 1 1966.97 1556)">
   <path d="M 76.2695 29.7852 C 111.914 29.7852 141.309 0.439453 141.309 -35.2051 C 141.309 -70.8496 111.865 -100.244 76.2695 -100.244 C 40.625 -100.244 11.2793 -70.8496 11.2793 -35.2051 C 11.2793 0.439453 40.6738 29.7852 76.2695 29.7852 Z M 100.977 -25.4883 C 100.977 -13.3789 91.5039 -4.63867 77.5391 -4.63867 C 63.3301 -4.63867 53.9551 -13.2324 53.9551 -26.123 C 53.9551 -33.252 57.0312 -40.3809 63.2812 -48.5352 C 65.8691 -52.0508 70.3613 -57.7637 73.877 -62.2559 C 75.293 -64.0625 76.7578 -65.7715 79.5898 -65.7715 C 83.1055 -65.7715 84.7656 -63.4277 84.7656 -61.1328 C 84.7656 -59.8145 84.2285 -58.5938 83.3008 -57.373 C 80.4199 -53.6621 76.2207 -48.4863 73.7305 -45.2148 C 71.9238 -42.9199 71.0938 -41.7969 70.3125 -40.4297 L 70.9473 -40.332 C 73.0957 -42.4316 77.4414 -44.043 81.8848 -44.043 C 93.1152 -44.043 100.977 -36.1328 100.977 -25.4883 Z M 65.1367 -25 C 65.1367 -18.75 70.5078 -14.0625 77.5391 -14.0625 C 84.6191 -14.0625 89.8438 -18.7012 89.8438 -24.9023 C 89.8438 -31.0547 84.6191 -35.5469 77.4414 -35.5469 C 70.4102 -35.5469 65.1367 -31.0547 65.1367 -25 Z"/>
  </g>
  <g id="Medium-L" transform="matrix(1 0 0 1 1670.87 1556)">
   <path d="M 75.6836 29.1992 C 110.938 29.1992 140.088 0.0488281 140.088 -35.2051 C 140.088 -70.459 110.889 -99.6094 75.6348 -99.6094 C 40.3809 -99.6094 11.2793 -70.459 11.2793 -35.2051 C 11.2793 0.0488281 40.3809 29.1992 75.6836 29.1992 Z M 99.6582 -25.2441 C 99.6582 -13.2324 90.3809 -4.63867 76.8066 -4.63867 C 63.0859 -4.63867 53.8574 -13.1836 53.8574 -25.7812 C 53.8574 -32.7637 56.8359 -39.8438 63.2324 -48.2422 C 65.9668 -51.9043 70.6055 -57.8125 74.4141 -62.6465 C 75.5859 -64.2578 76.9043 -65.7715 79.2969 -65.7715 C 82.4707 -65.7715 83.9355 -63.6719 83.9355 -61.6211 C 83.9355 -60.4004 83.3984 -59.3262 82.5195 -58.1543 C 79.3945 -54.1504 74.8047 -48.4863 72.168 -45.0195 C 70.2637 -42.5781 69.4336 -41.4062 68.6523 -40.1367 L 69.2871 -40.0391 C 71.5332 -42.1875 75.9766 -43.7988 80.4199 -43.7988 C 91.748 -43.7988 99.6582 -35.9375 99.6582 -25.2441 Z M 63.623 -24.8535 C 63.623 -18.1641 69.3359 -13.0859 76.8066 -13.0859 C 84.375 -13.0859 89.9414 -18.1152 89.9414 -24.7559 C 89.9414 -31.3477 84.375 -36.2305 76.7578 -36.2305 C 69.2383 -36.2305 63.623 -31.3965 63.623 -24.8535 Z"/>
  </g>
  <g id="Regular-L" transform="matrix(1 0 0 1 1374.97 1556)">
   <path d="M 74.8535 28.3691 C 109.668 28.3691 138.477 -0.390625 138.477 -35.2051 C 138.477 -70.0195 109.619 -98.7793 74.8047 -98.7793 C 40.0391 -98.7793 11.2793 -70.0195 11.2793 -35.2051 C 11.2793 -0.390625 40.0879 28.3691 74.8535 28.3691 Z M 97.9492 -24.9023 C 97.9492 -13.0371 88.916 -4.63867 75.8789 -4.63867 C 62.7441 -4.63867 53.7109 -13.0859 53.7109 -25.293 C 53.7109 -32.1777 56.543 -39.1602 63.1836 -47.8516 C 66.0645 -51.7578 70.8984 -57.8613 75.0488 -63.1836 C 76.0254 -64.502 77.1484 -65.7227 78.9551 -65.7227 C 81.6895 -65.7227 82.8125 -63.9648 82.8125 -62.3047 C 82.8125 -61.1816 82.3242 -60.2051 81.4941 -59.1797 C 78.125 -54.7852 72.998 -48.5352 70.1172 -44.7266 C 68.0664 -42.1387 67.2363 -40.9668 66.5527 -39.7461 L 67.1387 -39.5996 C 69.4336 -41.8945 74.0234 -43.5059 78.4668 -43.5059 C 89.8926 -43.5059 97.9492 -35.6445 97.9492 -24.9023 Z M 61.6699 -24.6582 C 61.6699 -17.3828 67.8223 -11.8164 75.8789 -11.8164 C 84.0332 -11.8164 90.0391 -17.2852 90.0391 -24.5605 C 90.0391 -31.7871 84.0332 -37.1094 75.8301 -37.1094 C 67.7246 -37.1094 61.6699 -31.8359 61.6699 -24.6582 Z"/>
  </g>
  <g id="Light-L" transform="matrix(1 0 0 1 1079.18 1556)">
   <path d="M 73.9258 27.4902 C 108.301 27.4902 136.621 -0.830078 136.621 -35.1562 C 136.621 -69.5312 108.252 -97.8516 73.9258 -97.8516 C 39.5508 -97.8516 11.2793 -69.5312 11.2793 -35.1562 C 11.2793 -0.830078 39.5996 27.4902 73.9258 27.4902 Z M 96.0449 -24.9512 C 96.0449 -13.5254 87.3535 -5.41992 74.9023 -5.41992 C 62.3535 -5.41992 53.6133 -13.623 53.6133 -25.293 C 53.6133 -31.9336 56.3965 -38.5742 62.8906 -47.0215 C 65.0391 -50.0488 71.1426 -57.6172 75.0488 -62.5977 C 75.9277 -63.7695 76.8555 -64.8926 78.3691 -64.8926 C 80.4688 -64.8926 81.3477 -63.4766 81.3477 -62.207 C 81.3477 -61.2793 80.9082 -60.498 80.2734 -59.7168 C 76.6602 -55.0781 70.4102 -47.5586 68.1641 -44.4336 C 66.1133 -41.8457 65.332 -40.7227 64.502 -39.3066 L 65.0391 -39.209 C 67.627 -41.6016 72.2168 -43.2129 76.7578 -43.2129 C 88.0371 -43.2129 96.0449 -35.5469 96.0449 -24.9512 Z M 59.8145 -24.8535 C 59.8145 -16.9922 66.3574 -11.084 74.9023 -11.084 C 83.5449 -11.084 89.8926 -16.8945 89.8926 -24.6582 C 89.8926 -32.4707 83.5449 -38.1348 74.7559 -38.1348 C 66.1621 -38.1348 59.8145 -32.5195 59.8145 -24.8535 Z"/>
  </g>
  <g id="Thin-L" transform="matrix(1 0 0 1 783.693 1556)">
   <path d="M 72.7051 26.3184 C 106.494 26.3184 134.18 -1.36719 134.18 -35.1074 C 134.18 -68.8965 106.494 -96.582 72.7051 -96.582 C 38.9648 -96.582 11.2793 -68.8965 11.2793 -35.1074 C 11.2793 -1.36719 38.9648 26.3184 72.7051 26.3184 Z M 93.5059 -24.9512 C 93.5059 -14.1113 85.2539 -6.44531 73.6328 -6.44531 C 61.8164 -6.44531 53.5156 -14.3555 53.5156 -25.293 C 53.5156 -31.5918 56.2012 -37.793 62.4512 -45.9473 C 63.7207 -47.7539 71.4844 -57.2266 75.0488 -61.7676 C 75.8789 -62.8418 76.4648 -63.7207 77.5879 -63.7207 C 78.8086 -63.7207 79.3457 -62.8418 79.3457 -62.0605 C 79.3457 -61.4258 79.0039 -60.8887 78.6133 -60.4004 C 74.707 -55.4199 67.041 -46.2402 65.5273 -44.043 C 63.5254 -41.4551 62.793 -40.4297 61.7676 -38.7695 L 62.2559 -38.7207 C 65.1855 -41.2598 69.7266 -42.7734 74.4629 -42.7734 C 85.5957 -42.7734 93.5059 -35.4004 93.5059 -24.9512 Z M 57.373 -25.1465 C 57.373 -16.5039 64.4043 -10.1074 73.6328 -10.1074 C 82.8613 -10.1074 89.6484 -16.3574 89.6484 -24.8535 C 89.6484 -33.3984 82.8613 -39.502 73.3887 -39.502 C 64.1113 -39.502 57.373 -33.4961 57.373 -25.1465 Z"/>
  </g>
  <g id="Ultralight-L" transform="matrix(1 0 0 1 487.616 1556)">
   <path d="M 72.1191 25.7324 C 105.566 25.7324 132.91 -1.61133 132.91 -35.1074 C 132.91 -68.5547 105.566 -95.8984 72.1191 -95.8984 C 38.623 -95.8984 11.2793 -68.5547 11.2793 -35.1074 C 11.2793 -1.61133 38.623 25.7324 72.1191 25.7324 Z M 92.1875 -25 C 92.1875 -14.4531 84.1797 -6.98242 72.9492 -6.98242 C 61.5723 -6.98242 53.4668 -14.6973 53.4668 -25.293 C 53.4668 -31.3965 56.1035 -37.4023 62.2559 -45.3613 C 63.0859 -46.6309 71.6797 -57.0312 75.0488 -61.377 C 75.8301 -62.4023 76.2207 -63.1348 77.1973 -63.1348 C 77.9297 -63.1348 78.3203 -62.5488 78.3203 -62.0117 C 78.3203 -61.5234 78.0273 -61.084 77.7832 -60.791 C 73.6816 -55.6152 65.2832 -45.5566 64.209 -43.8477 C 62.207 -41.3086 61.4746 -40.2344 60.4004 -38.5254 L 60.8398 -38.4277 C 63.916 -41.0645 68.5059 -42.5781 73.291 -42.5781 C 84.3262 -42.5781 92.1875 -35.3027 92.1875 -25 Z M 56.1035 -25.293 C 56.1035 -16.2598 63.3789 -9.61914 72.9492 -9.61914 C 82.5195 -9.61914 89.5508 -16.0645 89.5508 -24.9512 C 89.5508 -33.8867 82.5195 -40.1855 72.7051 -40.1855 C 63.0371 -40.1855 56.1035 -33.9844 56.1035 -25.293 Z"/>
  </g>
  <g id="Black-M" transform="matrix(1 0 0 1 2870.97 1126)">
   <path d="M 62.4023 18.457 C 91.9922 18.457 116.113 -5.61523 116.113 -35.2051 C 116.113 -64.7949 91.9922 -88.8672 62.4023 -88.8672 C 32.8125 -88.8672 8.74023 -64.7949 8.74023 -35.2051 C 8.74023 -5.61523 32.8125 18.457 62.4023 18.457 Z M 85.2051 -29.1504 C 85.2051 -19.3359 76.9531 -11.9629 63.8672 -11.9629 C 50.4883 -11.9629 42.4316 -18.8477 42.4316 -30.3223 C 42.4316 -36.3281 45.3613 -42.1387 49.0723 -46.875 C 50 -48.0957 53.125 -52.1973 54.1504 -53.3691 C 56.3477 -56.0059 58.3496 -58.5449 62.9883 -58.5449 C 67.3828 -58.5449 70.0195 -55.3711 70.1172 -52.0996 C 70.1172 -50.6836 69.5801 -49.2188 68.6523 -47.9004 C 67.627 -46.582 66.2109 -44.7266 65.5762 -43.9941 C 64.9902 -43.1641 64.3066 -42.2852 63.3789 -40.9668 L 64.0625 -40.9668 C 65.4297 -42.0898 68.0176 -43.2617 71.582 -43.2617 C 79.834 -43.2617 85.2051 -37.207 85.2051 -29.1504 Z M 58.7891 -28.2715 C 58.7891 -26.0254 60.9375 -24.4629 63.8672 -24.4629 C 66.8945 -24.4629 69.043 -26.0254 69.043 -28.2715 C 69.043 -30.4199 66.8945 -31.9824 63.8672 -31.9824 C 60.9375 -31.9824 58.7891 -30.4199 58.7891 -28.2715 Z"/>
  </g>
  <g id="Heavy-M" transform="matrix(1 0 0 1 2575.19 1126)">
   <path d="M 61.5234 17.5781 C 90.5273 17.5781 114.258 -6.15234 114.258 -35.2051 C 114.258 -64.2578 90.5273 -87.9883 61.4746 -87.9883 C 32.4707 -87.9883 8.74023 -64.2578 8.74023 -35.2051 C 8.74023 -6.15234 32.4707 17.5781 61.5234 17.5781 Z M 83.252 -28.7109 C 83.252 -18.9941 75.2441 -11.7676 62.793 -11.7676 C 50.0977 -11.7676 42.2363 -18.6035 42.2363 -29.6875 C 42.2363 -35.5469 45.0195 -41.3086 49.0723 -46.5332 C 50.4395 -48.3398 53.5156 -52.3438 55.0781 -54.2969 C 56.9824 -56.543 58.7402 -58.7402 62.6465 -58.7402 C 66.6016 -58.7402 68.8477 -55.957 68.8965 -53.0762 C 68.8965 -51.7578 68.4082 -50.4395 67.5293 -49.2188 C 66.1621 -47.4609 64.3066 -45.0684 63.2324 -43.7012 C 62.3535 -42.5781 61.6699 -41.6992 60.8398 -40.4785 L 61.4746 -40.4785 C 62.9395 -41.6992 65.7715 -42.9199 69.2871 -42.9199 C 77.6855 -42.9199 83.252 -36.8652 83.252 -28.7109 Z M 56.4453 -27.9297 C 56.4453 -24.9512 59.1797 -22.8027 62.793 -22.8027 C 66.5527 -22.8027 69.2383 -24.9512 69.2383 -27.9297 C 69.2383 -30.8594 66.5527 -32.959 62.793 -32.959 C 59.1309 -32.959 56.4453 -30.8594 56.4453 -27.9297 Z"/>
  </g>
  <g id="Bold-M" transform="matrix(1 0 0 1 2279.5 1126)">
   <path d="M 60.498 16.5039 C 88.8672 16.5039 112.207 -6.78711 112.207 -35.2051 C 112.207 -63.623 88.8672 -86.9629 60.4492 -86.9629 C 32.0312 -86.9629 8.74023 -63.623 8.74023 -35.2051 C 8.74023 -6.78711 32.0801 16.5039 60.498 16.5039 Z M 81.1035 -28.1738 C 81.1035 -18.5547 73.3887 -11.5234 61.6211 -11.5234 C 49.6582 -11.5234 42.041 -18.3105 42.041 -28.9551 C 42.041 -34.668 44.6289 -40.3809 49.1211 -46.1914 C 50.8789 -48.584 53.9551 -52.5879 56.1523 -55.3223 C 57.666 -57.1777 59.1797 -58.9355 62.2559 -58.9355 C 65.7227 -58.9355 67.5293 -56.5918 67.5781 -54.1992 C 67.5781 -52.9785 67.0898 -51.8066 66.2598 -50.6836 C 64.502 -48.3887 62.1094 -45.4102 60.5469 -43.4082 C 59.4238 -41.9434 58.7402 -41.0645 58.0566 -39.9414 L 58.6426 -39.8926 C 60.1562 -41.3086 63.2324 -42.5293 66.6992 -42.5293 C 75.293 -42.5293 81.1035 -36.4258 81.1035 -28.1738 Z M 53.8086 -27.5879 C 53.8086 -23.7793 57.1777 -20.9961 61.6211 -20.9961 C 66.1621 -20.9961 69.4824 -23.7793 69.4824 -27.5879 C 69.4824 -31.2988 66.1621 -34.0332 61.6211 -34.0332 C 57.1289 -34.0332 53.8086 -31.2988 53.8086 -27.5879 Z"/>
  </g>
  <g id="Semibold-M" transform="matrix(1 0 0 1 1983.5 1126)">
   <path d="M 59.7656 15.8203 C 87.7441 15.8203 110.791 -7.22656 110.791 -35.2051 C 110.791 -63.1836 87.6953 -86.2793 59.7656 -86.2793 C 31.7871 -86.2793 8.74023 -63.1836 8.74023 -35.2051 C 8.74023 -7.22656 31.7871 15.8203 59.7656 15.8203 Z M 79.5898 -27.832 C 79.5898 -18.2617 72.0703 -11.377 60.791 -11.377 C 49.3652 -11.377 41.8945 -18.1152 41.8945 -28.418 C 41.8945 -34.082 44.3848 -39.7461 49.1211 -45.9473 C 51.2207 -48.7305 54.2969 -52.6855 56.8848 -56.0059 C 58.1055 -57.5684 59.4238 -59.082 62.0117 -59.082 C 65.0879 -59.082 66.6504 -57.0312 66.6504 -54.9316 C 66.6504 -53.8086 66.2109 -52.7832 65.3809 -51.709 C 63.3789 -49.0723 60.6445 -45.7031 58.6914 -43.1641 C 57.4219 -41.5039 56.7383 -40.625 56.1035 -39.5996 L 56.6406 -39.502 C 58.252 -41.0156 61.4746 -42.2852 64.9414 -42.2852 C 73.6328 -42.2852 79.5898 -36.1328 79.5898 -27.832 Z M 52.002 -27.3438 C 52.002 -22.998 55.8105 -19.7266 60.791 -19.7266 C 65.8691 -19.7266 69.6289 -22.998 69.6289 -27.2949 C 69.6289 -31.5918 65.8691 -34.7656 60.791 -34.7656 C 55.7617 -34.7656 52.002 -31.6406 52.002 -27.3438 Z"/>
  </g>
  <g id="Medium-M" transform="matrix(1 0 0 1 1687.3 1126)">
   <path d="M 59.2285 15.2832 C 86.9141 15.2832 109.766 -7.56836 109.766 -35.2051 C 109.766 -62.8906 86.8652 -85.7422 59.1797 -85.7422 C 31.543 -85.7422 8.74023 -62.8906 8.74023 -35.2051 C 8.74023 -7.56836 31.5918 15.2832 59.2285 15.2832 Z M 78.4668 -27.5879 C 78.4668 -18.0664 71.0938 -11.2305 60.2051 -11.2305 C 49.1211 -11.2305 41.7969 -17.9688 41.7969 -28.0273 C 41.7969 -33.5938 44.1895 -39.2578 49.1211 -45.752 C 51.4648 -48.877 54.4922 -52.832 57.4219 -56.543 C 58.4473 -57.9102 59.668 -59.2285 61.8164 -59.2285 C 64.6484 -59.2285 65.9668 -57.373 65.9668 -55.5176 C 65.9668 -54.4434 65.4785 -53.4668 64.7461 -52.4902 C 62.5 -49.5605 59.5215 -45.8984 57.2754 -43.0176 C 55.8594 -41.1621 55.2246 -40.2832 54.6387 -39.3066 L 55.1758 -39.209 C 56.7871 -40.8203 60.1562 -42.0898 63.5742 -42.0898 C 72.3633 -42.0898 78.4668 -35.8887 78.4668 -27.5879 Z M 50.6348 -27.1484 C 50.6348 -22.3633 54.7363 -18.75 60.2051 -18.75 C 65.6738 -18.75 69.7266 -22.3633 69.7266 -27.1484 C 69.7266 -31.8359 65.6738 -35.3516 60.1562 -35.3516 C 54.7363 -35.3516 50.6348 -31.8359 50.6348 -27.1484 Z"/>
  </g>
  <g id="Regular-M" transform="matrix(1 0 0 1 1391.3 1126)">
   <path d="M 58.5449 14.5508 C 85.791 14.5508 108.35 -8.00781 108.35 -35.2539 C 108.35 -62.4512 85.7422 -85.0586 58.4961 -85.0586 C 31.2988 -85.0586 8.74023 -62.4512 8.74023 -35.2539 C 8.74023 -8.00781 31.3477 14.5508 58.5449 14.5508 Z M 77.002 -27.2461 C 77.002 -17.7734 69.7754 -11.084 59.375 -11.084 C 48.8281 -11.084 41.6504 -17.7734 41.6504 -27.5391 C 41.6504 -33.0078 43.8965 -38.623 49.1699 -45.5078 C 51.7578 -49.0234 54.7852 -52.9297 58.1543 -57.2754 C 58.9355 -58.3008 59.9609 -59.375 61.5234 -59.375 C 64.0137 -59.375 65.0391 -57.7637 65.0391 -56.25 C 65.0391 -55.2734 64.5996 -54.4434 63.8672 -53.4668 C 61.377 -50.2441 58.0078 -46.1426 55.4688 -42.7734 C 53.8574 -40.7227 53.2227 -39.8438 52.7344 -38.9648 L 53.2227 -38.8184 C 54.8828 -40.5273 58.4473 -41.8457 61.8164 -41.8457 C 70.7031 -41.8457 77.002 -35.5957 77.002 -27.2461 Z M 48.8281 -26.9531 C 48.8281 -21.582 53.418 -17.5293 59.375 -17.5293 C 65.3809 -17.5293 69.873 -21.582 69.873 -26.8555 C 69.873 -32.1777 65.3809 -36.084 59.3262 -36.084 C 53.3691 -36.084 48.8281 -32.1777 48.8281 -26.9531 Z"/>
  </g>
  <g id="Light-M" transform="matrix(1 0 0 1 1095.42 1126)">
   <path d="M 57.7148 13.7695 C 84.5215 13.7695 106.689 -8.39844 106.689 -35.2051 C 106.689 -62.0117 84.5215 -84.1797 57.666 -84.1797 C 30.8594 -84.1797 8.74023 -62.0117 8.74023 -35.2051 C 8.74023 -8.39844 30.9082 13.7695 57.7148 13.7695 Z M 75.293 -27.2461 C 75.293 -18.1641 68.3594 -11.7676 58.4961 -11.7676 C 48.4863 -11.7676 41.6016 -18.2617 41.6016 -27.5391 C 41.6016 -32.7637 43.7988 -38.0859 48.877 -44.7266 C 50.8789 -47.4609 55.0293 -52.6855 58.1543 -56.6895 C 58.8867 -57.666 59.668 -58.5938 60.9863 -58.5938 C 62.8906 -58.5938 63.7207 -57.373 63.7207 -56.1523 C 63.7207 -55.3711 63.3301 -54.6875 62.7441 -53.9551 C 60.0586 -50.4883 55.7129 -45.2148 53.7109 -42.5293 C 52.0996 -40.4785 51.4648 -39.5996 50.8789 -38.5742 L 51.3184 -38.4766 C 53.2227 -40.2832 56.7871 -41.5527 60.2539 -41.5527 C 69.043 -41.5527 75.293 -35.498 75.293 -27.2461 Z M 47.168 -27.0996 C 47.168 -21.2402 52.0996 -16.8457 58.4961 -16.8457 C 64.9414 -16.8457 69.7266 -21.1914 69.7266 -27.002 C 69.7266 -32.8125 64.9414 -37.0117 58.3984 -37.0117 C 51.9531 -37.0117 47.168 -32.8125 47.168 -27.0996 Z"/>
  </g>
  <g id="Thin-M" transform="matrix(1 0 0 1 799.806 1126)">
   <path d="M 56.6406 12.7441 C 82.9102 12.7441 104.492 -8.83789 104.492 -35.1562 C 104.492 -61.4746 82.9102 -83.0566 56.5918 -83.0566 C 30.3223 -83.0566 8.74023 -61.4746 8.74023 -35.1562 C 8.74023 -8.83789 30.3223 12.7441 56.6406 12.7441 Z M 72.998 -27.2949 C 72.998 -18.75 66.5039 -12.6953 57.3242 -12.6953 C 48.0469 -12.6953 41.5039 -18.8965 41.5039 -27.5391 C 41.5039 -32.4707 43.6035 -37.4023 48.4863 -43.75 C 49.707 -45.459 55.3223 -52.3438 58.1543 -55.957 C 58.8379 -56.8359 59.3262 -57.5684 60.3027 -57.5684 C 61.4258 -57.5684 61.9141 -56.7871 61.9141 -56.0547 C 61.9141 -55.5176 61.6211 -55.0293 61.2793 -54.5898 C 58.3008 -50.8301 52.6855 -44.043 51.3672 -42.1387 C 49.8047 -40.1367 49.2188 -39.3066 48.4863 -38.0859 L 48.877 -38.0371 C 51.0254 -39.9414 54.5898 -41.1621 58.2031 -41.1621 C 66.8457 -41.1621 72.998 -35.4004 72.998 -27.2949 Z M 44.9707 -27.3438 C 44.9707 -20.8008 50.3418 -15.9668 57.3242 -15.9668 C 64.3555 -15.9668 69.5312 -20.7031 69.5312 -27.1484 C 69.5312 -33.6426 64.3555 -38.2324 57.1777 -38.2324 C 50.0977 -38.2324 44.9707 -33.6914 44.9707 -27.3438 Z"/>
  </g>
  <g id="Ultralight-M" transform="matrix(1 0 0 1 503.656 1126)">
   <path d="M 56.0547 12.207 C 82.0801 12.207 103.369 -9.08203 103.369 -35.1562 C 103.369 -61.1816 82.0801 -82.4707 56.0547 -82.4707 C 30.0293 -82.4707 8.74023 -61.1816 8.74023 -35.1562 C 8.74023 -9.08203 30.0293 12.207 56.0547 12.207 Z M 71.8262 -27.2949 C 71.8262 -18.9941 65.5762 -13.1836 56.7383 -13.1836 C 47.8027 -13.1836 41.4551 -19.1895 41.4551 -27.5391 C 41.4551 -32.3242 43.5059 -37.0605 48.291 -43.2617 C 49.0723 -44.3848 55.5176 -52.1973 58.1543 -55.6152 C 58.7891 -56.3965 59.1309 -57.0312 59.9609 -57.0312 C 60.6445 -57.0312 61.0352 -56.4941 61.0352 -56.0059 C 61.0352 -55.5664 60.791 -55.2246 60.5469 -54.9316 C 57.4219 -50.9766 51.123 -43.457 50.1465 -41.9922 C 48.584 -39.9902 48.0469 -39.1602 47.2168 -37.8418 L 47.6074 -37.793 C 49.9023 -39.7949 53.4668 -40.9668 57.1289 -40.9668 C 65.7227 -40.9668 71.8262 -35.3027 71.8262 -27.2949 Z M 43.8477 -27.4902 C 43.8477 -20.6055 49.4141 -15.5273 56.7383 -15.5273 C 64.0625 -15.5273 69.4336 -20.459 69.4336 -27.2461 C 69.4336 -34.0332 64.0625 -38.8672 56.543 -38.8672 C 49.1699 -38.8672 43.8477 -34.1309 43.8477 -27.4902 Z"/>
  </g>
  <g id="Black-S" transform="matrix(1 0 0 1 2884.57 696)">
   <path d="M 48.8281 6.78711 C 71.9727 6.78711 90.8203 -12.0605 90.8203 -35.2051 C 90.8203 -58.3496 71.9727 -77.1973 48.8281 -77.1973 C 25.6836 -77.1973 6.83594 -58.3496 6.83594 -35.2051 C 6.83594 -12.0605 25.6836 6.78711 48.8281 6.78711 Z M 66.6016 -30.4199 C 66.6016 -22.7539 60.1562 -16.9922 49.9512 -16.9922 C 39.502 -16.9922 33.2031 -22.3633 33.2031 -31.3477 C 33.2031 -36.0352 35.498 -40.5762 38.4277 -44.3359 C 39.209 -45.3613 41.6504 -48.5352 42.4805 -49.5117 C 44.1895 -51.5625 45.752 -53.5156 49.3164 -53.5156 C 52.7344 -53.5156 54.7852 -51.0742 54.834 -48.5352 C 54.834 -47.4121 54.4434 -46.2891 53.7109 -45.2637 C 52.8809 -44.1895 51.7578 -42.7246 51.2207 -42.0898 C 50.7324 -41.4062 50.1953 -40.7227 49.4629 -39.6973 L 50 -39.6973 C 51.0742 -40.5762 53.125 -41.5039 55.9082 -41.5039 C 62.4023 -41.5039 66.6016 -36.7676 66.6016 -30.4199 Z M 45.8984 -29.7363 C 45.8984 -27.9297 47.6074 -26.6602 49.9512 -26.6602 C 52.3926 -26.6602 54.1016 -27.9297 54.1016 -29.7363 C 54.1016 -31.4941 52.3926 -32.7637 49.9512 -32.7637 C 47.6074 -32.7637 45.8984 -31.4941 45.8984 -29.7363 Z"/>
  </g>
  <g id="Heavy-S" transform="matrix(1 0 0 1 2588.47 696)">
   <path d="M 48.2422 6.15234 C 70.9961 6.15234 89.5996 -12.4512 89.5996 -35.2051 C 89.5996 -57.959 70.9961 -76.6113 48.1934 -76.6113 C 25.4395 -76.6113 6.83594 -57.959 6.83594 -35.2051 C 6.83594 -12.4512 25.4395 6.15234 48.2422 6.15234 Z M 65.332 -30.0781 C 65.332 -22.4121 59.0332 -16.748 49.2188 -16.748 C 39.2578 -16.748 33.0566 -22.1191 33.0566 -30.8594 C 33.0566 -35.4492 35.2539 -39.9902 38.4766 -44.1895 C 39.6484 -45.7031 41.9434 -48.6816 43.2129 -50.293 C 44.6777 -52.0508 46.0449 -53.7598 49.1211 -53.7598 C 52.2461 -53.7598 54.0527 -51.5625 54.0527 -49.3164 C 54.0527 -48.2422 53.6621 -47.2168 52.9785 -46.1914 C 51.9043 -44.8242 50.5371 -43.0664 49.6094 -41.8945 C 48.9258 -41.0156 48.3887 -40.2832 47.7539 -39.3555 L 48.2422 -39.3555 C 49.3652 -40.332 51.5625 -41.2598 54.2969 -41.2598 C 60.9375 -41.2598 65.332 -36.4746 65.332 -30.0781 Z M 44.2871 -29.4922 C 44.2871 -27.1484 46.3867 -25.4883 49.2188 -25.4883 C 52.1484 -25.4883 54.248 -27.1484 54.248 -29.4922 C 54.248 -31.7383 52.1484 -33.3984 49.2188 -33.3984 C 46.3867 -33.3984 44.2871 -31.7383 44.2871 -29.4922 Z"/>
  </g>
  <g id="Bold-S" transform="matrix(1 0 0 1 2292.44 696)">
   <path d="M 47.5586 5.46875 C 69.873 5.46875 88.2324 -12.8906 88.2324 -35.2051 C 88.2324 -57.5684 69.873 -75.9277 47.5098 -75.9277 C 25.1953 -75.9277 6.83594 -57.5684 6.83594 -35.2051 C 6.83594 -12.8906 25.1953 5.46875 47.5586 5.46875 Z M 63.8672 -29.6875 C 63.8672 -22.0703 57.7637 -16.5039 48.4375 -16.5039 C 38.9648 -16.5039 32.9102 -21.8262 32.9102 -30.2734 C 32.9102 -34.8145 34.9609 -39.3555 38.5254 -43.9941 C 40.0879 -46.0938 42.2363 -48.877 44.043 -51.123 C 45.166 -52.5879 46.4355 -54.0039 48.877 -54.0039 C 51.709 -54.0039 53.1738 -52.0996 53.2227 -50.1465 C 53.2227 -49.1699 52.832 -48.1934 52.1484 -47.2656 C 50.7812 -45.5078 49.1699 -43.457 47.7539 -41.6992 C 46.875 -40.5273 46.3379 -39.8438 45.8496 -39.0137 L 46.2891 -38.9648 C 47.4121 -40.0391 49.8535 -41.0156 52.5391 -41.0156 C 59.2773 -41.0156 63.8672 -36.1816 63.8672 -29.6875 Z M 42.4805 -29.1992 C 42.4805 -26.3184 45.0195 -24.1699 48.4375 -24.1699 C 51.9043 -24.1699 54.4434 -26.3184 54.4434 -29.1992 C 54.4434 -32.0312 51.9043 -34.082 48.4375 -34.082 C 45.0195 -34.082 42.4805 -32.0312 42.4805 -29.1992 Z"/>
  </g>
  <g id="Semibold-S" transform="matrix(1 0 0 1 1996.2 696)">
   <path d="M 47.0703 4.98047 C 69.0918 4.98047 87.3047 -13.1836 87.3047 -35.2539 C 87.3047 -57.2754 69.0918 -75.4883 47.0215 -75.4883 C 25 -75.4883 6.83594 -57.2754 6.83594 -35.2539 C 6.83594 -13.1836 25.0488 4.98047 47.0703 4.98047 Z M 62.8906 -29.4434 C 62.8906 -21.7773 56.8848 -16.3086 47.9004 -16.3086 C 38.7695 -16.3086 32.8125 -21.6309 32.8125 -29.8828 C 32.8125 -34.375 34.7656 -38.916 38.5742 -43.8477 C 40.4297 -46.3379 42.4316 -49.0234 44.5801 -51.709 C 45.5566 -52.9785 46.6797 -54.1992 48.7305 -54.1992 C 51.3672 -54.1992 52.5879 -52.4414 52.6367 -50.7324 C 52.6367 -49.8047 52.2461 -48.9258 51.5625 -47.998 C 50.0488 -45.9961 48.1934 -43.75 46.4844 -41.5527 C 45.5078 -40.2344 44.9707 -39.502 44.4824 -38.7695 L 44.9219 -38.6719 C 46.0938 -39.8438 48.6328 -40.8203 51.3184 -40.8203 C 58.1543 -40.8203 62.8906 -35.9375 62.8906 -29.4434 Z M 41.2109 -29.0039 C 41.2109 -25.7324 44.0918 -23.2422 47.9004 -23.2422 C 51.7578 -23.2422 54.5898 -25.7324 54.5898 -29.0039 C 54.5898 -32.1777 51.7578 -34.5703 47.9004 -34.5703 C 44.0918 -34.5703 41.2109 -32.1777 41.2109 -29.0039 Z"/>
  </g>
  <g id="Medium-S" transform="matrix(1 0 0 1 1699.83 696)">
   <path d="M 46.7285 4.63867 C 68.5547 4.63867 86.6211 -13.4277 86.6211 -35.2539 C 86.6211 -57.0312 68.5059 -75.1465 46.6797 -75.1465 C 24.8535 -75.1465 6.83594 -57.0312 6.83594 -35.2539 C 6.83594 -13.4277 24.9023 4.63867 46.7285 4.63867 Z M 62.1582 -29.1992 C 62.1582 -21.582 56.2012 -16.1621 47.4609 -16.1621 C 38.623 -16.1621 32.7637 -21.4844 32.7637 -29.5898 C 32.7637 -34.0332 34.6191 -38.5742 38.5742 -43.75 C 40.6738 -46.5332 42.5781 -49.1211 45.0195 -52.1484 C 45.8008 -53.2227 46.8262 -54.3457 48.584 -54.3457 C 51.0742 -54.3457 52.1484 -52.7344 52.1973 -51.1719 C 52.1973 -50.2441 51.8066 -49.4629 51.123 -48.584 C 49.4629 -46.3867 47.5098 -43.9453 45.5566 -41.4062 C 44.4336 -39.9902 43.8965 -39.2578 43.5059 -38.5742 L 43.8965 -38.4766 C 45.1172 -39.6973 47.7539 -40.7227 50.3906 -40.7227 C 57.3242 -40.7227 62.1582 -35.791 62.1582 -29.1992 Z M 40.2832 -28.8574 C 40.2832 -25.293 43.4082 -22.5586 47.4609 -22.5586 C 51.6113 -22.5586 54.6875 -25.293 54.6875 -28.8086 C 54.6875 -32.3242 51.6113 -34.9609 47.4609 -34.9609 C 43.4082 -34.9609 40.2832 -32.3242 40.2832 -28.8574 Z"/>
  </g>
  <g id="Regular-S" transform="matrix(1 0 0 1 1403.58 696)">
   <path d="M 46.2402 4.15039 C 67.7734 4.15039 85.6934 -13.7207 85.6934 -35.2539 C 85.6934 -56.7871 67.7246 -74.6582 46.1914 -74.6582 C 24.707 -74.6582 6.83594 -56.7871 6.83594 -35.2539 C 6.83594 -13.7207 24.7559 4.15039 46.2402 4.15039 Z M 61.1816 -28.9551 C 61.1816 -21.3379 55.3711 -15.9668 46.9238 -15.9668 C 38.4277 -15.9668 32.666 -21.3379 32.666 -29.1992 C 32.666 -33.5938 34.4727 -38.1348 38.623 -43.6523 C 40.9668 -46.7773 42.8223 -49.2188 45.5566 -52.7344 C 46.1914 -53.6133 47.0703 -54.541 48.4375 -54.541 C 50.6836 -54.541 51.6113 -53.125 51.6113 -51.7578 C 51.6113 -50.8789 51.2207 -50.1465 50.5371 -49.3164 C 48.7305 -46.875 46.582 -44.1895 44.2871 -41.2598 C 43.0176 -39.6484 42.5293 -38.916 42.1875 -38.3301 L 42.5781 -38.2324 C 43.7988 -39.502 46.582 -40.5273 49.1699 -40.5273 C 56.2012 -40.5273 61.1816 -35.5957 61.1816 -28.9551 Z M 39.0625 -28.6621 C 39.0625 -24.707 42.4805 -21.6797 46.9238 -21.6797 C 51.4648 -21.6797 54.834 -24.707 54.834 -28.6133 C 54.834 -32.5195 51.4648 -35.4492 46.9238 -35.4492 C 42.4805 -35.4492 39.0625 -32.5195 39.0625 -28.6621 Z"/>
  </g>
  <g id="Light-S" transform="matrix(1 0 0 1 1107.6 696)">
   <path d="M 45.5078 3.4668 C 66.6992 3.4668 84.2285 -14.0625 84.2285 -35.2051 C 84.2285 -56.3965 66.6504 -73.9258 45.5078 -73.9258 C 24.3164 -73.9258 6.83594 -56.3965 6.83594 -35.2051 C 6.83594 -14.0625 24.3652 3.4668 45.5078 3.4668 Z M 59.6191 -28.9551 C 59.6191 -21.7285 54.1016 -16.6016 46.1426 -16.6016 C 38.1348 -16.6016 32.6172 -21.7285 32.6172 -29.1992 C 32.6172 -33.3984 34.3262 -37.6953 38.3789 -42.9688 C 40.1855 -45.4102 43.0176 -49.0234 45.5566 -52.2461 C 46.1426 -53.0762 46.8262 -53.8086 47.998 -53.8086 C 49.707 -53.8086 50.3906 -52.7344 50.3906 -51.6602 C 50.3906 -50.9766 50.0977 -50.3906 49.5605 -49.707 C 47.5586 -47.0703 44.5312 -43.4082 42.7246 -41.0156 C 41.5039 -39.4531 40.9668 -38.7207 40.5762 -37.9883 L 40.918 -37.9395 C 42.334 -39.3066 45.1172 -40.2832 47.8027 -40.2832 C 54.7363 -40.2832 59.6191 -35.498 59.6191 -28.9551 Z M 37.5977 -28.8086 C 37.5977 -24.4141 41.3086 -21.0938 46.1426 -21.0938 C 51.0254 -21.0938 54.6875 -24.3652 54.6875 -28.7109 C 54.6875 -33.0566 51.0254 -36.2793 46.0938 -36.2793 C 41.2109 -36.2793 37.5977 -33.1055 37.5977 -28.8086 Z"/>
  </g>
  <g id="Thin-S" transform="matrix(1 0 0 1 811.867 696)">
   <path d="M 44.5801 2.53906 C 65.2832 2.53906 82.2754 -14.4531 82.2754 -35.2051 C 82.2754 -55.9082 65.2344 -72.9004 44.5312 -72.9004 C 23.8281 -72.9004 6.83594 -55.9082 6.83594 -35.2051 C 6.83594 -14.4531 23.877 2.53906 44.5801 2.53906 Z M 57.6172 -29.0039 C 57.6172 -22.2168 52.4414 -17.3828 45.1172 -17.3828 C 37.6953 -17.3828 32.5195 -22.3145 32.5195 -29.1992 C 32.5195 -33.1543 34.1797 -37.0605 38.0371 -42.0898 C 39.1602 -43.6035 43.2617 -48.7305 45.5566 -51.6113 C 46.0938 -52.3438 46.5332 -52.9297 47.3633 -52.9297 C 48.3887 -52.9297 48.8281 -52.2461 48.8281 -51.5625 C 48.8281 -51.0742 48.584 -50.6836 48.291 -50.293 C 45.9961 -47.3633 41.8457 -42.3828 40.6738 -40.7227 C 39.4531 -39.1602 38.9648 -38.4766 38.4277 -37.5977 L 38.7207 -37.5 C 40.3809 -39.0137 43.1641 -39.9414 45.9961 -39.9414 C 52.7832 -39.9414 57.6172 -35.4004 57.6172 -29.0039 Z M 35.6445 -29.0039 C 35.6445 -24.0234 39.7461 -20.3125 45.1172 -20.3125 C 50.5371 -20.3125 54.4922 -23.9746 54.4922 -28.8574 C 54.4922 -33.7891 50.5371 -37.3535 45.0195 -37.3535 C 39.5996 -37.3535 35.6445 -33.8379 35.6445 -29.0039 Z"/>
  </g>
  <g id="Ultralight-S" transform="matrix(1 0 0 1 515.644 696)">
   <path d="M 44.043 2.05078 C 64.502 2.05078 81.2988 -14.6973 81.2988 -35.1562 C 81.2988 -55.6152 64.502 -72.3633 44.043 -72.3633 C 23.584 -72.3633 6.83594 -55.6152 6.83594 -35.1562 C 6.83594 -14.6973 23.584 2.05078 44.043 2.05078 Z M 56.5918 -29.0039 C 56.5918 -22.4609 51.6113 -17.8223 44.5801 -17.8223 C 37.5 -17.8223 32.4707 -22.6074 32.4707 -29.1992 C 32.4707 -33.0078 34.082 -36.7188 37.8906 -41.6504 C 38.623 -42.6758 43.4082 -48.584 45.5566 -51.3184 C 46.0449 -51.9531 46.3867 -52.4414 47.0215 -52.4414 C 47.7051 -52.4414 48.0469 -51.9531 48.0469 -51.5137 C 48.0469 -51.1719 47.8516 -50.8301 47.6074 -50.5859 C 45.2148 -47.5098 40.4297 -41.8457 39.5996 -40.5762 C 38.3789 -39.0137 37.9395 -38.3789 37.3047 -37.3535 L 37.5977 -37.3047 C 39.4043 -38.8672 42.1875 -39.7949 45.0195 -39.7949 C 51.8066 -39.7949 56.5918 -35.3027 56.5918 -29.0039 Z M 34.668 -29.1016 C 34.668 -23.8281 38.9648 -19.9219 44.5801 -19.9219 C 50.2441 -19.9219 54.3945 -23.7305 54.3945 -28.9551 C 54.3945 -34.1797 50.2441 -37.8906 44.4824 -37.8906 C 38.7695 -37.8906 34.668 -34.2285 34.668 -29.1016 Z"/>
  </g>
 </g>
</svg>
