<?xml version="1.0" encoding="UTF-8"?>
<!--Generator: Apple Native CoreSVG 123-->
<!DOCTYPE svg
PUBLIC "-//W3C//DTD SVG 1.1//EN"
       "http://www.w3.org/Graphics/SVG/1.1/DTD/svg11.dtd">
<svg version="1.1" xmlns="http://www.w3.org/2000/svg" xmlns:xlink="http://www.w3.org/1999/xlink" width="3300" height="2200">
 <!--glyph: "uni100045.medium", point size: 100.000000, font version: "Version 15.0d7e11", template writer version: "5"-->
 <g id="Notes">
  <rect height="2200" id="artboard" style="fill:white;opacity:1" width="3300" x="0" y="0"/>
  <line id="" style="fill:none;stroke:black;opacity:1;stroke-width:0.5;" x1="263" x2="3036" y1="292" y2="292"/>
  <text style="stroke:none;fill:black;font-family:-apple-system,&quot;SF Pro Display&quot;,&quot;SF Pro Text&quot;,Helvetica,sans-serif;font-weight:bold;" transform="matrix(1 0 0 1 263 322)">Weight/Scale Variations</text>
  <text style="stroke:none;fill:black;font-family:-apple-system,&quot;SF Pro Display&quot;,&quot;SF Pro Text&quot;,Helvetica,sans-serif;text-anchor:middle;" transform="matrix(1 0 0 1 559.711 322)">Ultralight</text>
  <text style="stroke:none;fill:black;font-family:-apple-system,&quot;SF Pro Display&quot;,&quot;SF Pro Text&quot;,Helvetica,sans-serif;text-anchor:middle;" transform="matrix(1 0 0 1 856.422 322)">Thin</text>
  <text style="stroke:none;fill:black;font-family:-apple-system,&quot;SF Pro Display&quot;,&quot;SF Pro Text&quot;,Helvetica,sans-serif;text-anchor:middle;" transform="matrix(1 0 0 1 1153.13 322)">Light</text>
  <text style="stroke:none;fill:black;font-family:-apple-system,&quot;SF Pro Display&quot;,&quot;SF Pro Text&quot;,Helvetica,sans-serif;text-anchor:middle;" transform="matrix(1 0 0 1 1449.84 322)">Regular</text>
  <text style="stroke:none;fill:black;font-family:-apple-system,&quot;SF Pro Display&quot;,&quot;SF Pro Text&quot;,Helvetica,sans-serif;text-anchor:middle;" transform="matrix(1 0 0 1 1746.56 322)">Medium</text>
  <text style="stroke:none;fill:black;font-family:-apple-system,&quot;SF Pro Display&quot;,&quot;SF Pro Text&quot;,Helvetica,sans-serif;text-anchor:middle;" transform="matrix(1 0 0 1 2043.27 322)">Semibold</text>
  <text style="stroke:none;fill:black;font-family:-apple-system,&quot;SF Pro Display&quot;,&quot;SF Pro Text&quot;,Helvetica,sans-serif;text-anchor:middle;" transform="matrix(1 0 0 1 2339.98 322)">Bold</text>
  <text style="stroke:none;fill:black;font-family:-apple-system,&quot;SF Pro Display&quot;,&quot;SF Pro Text&quot;,Helvetica,sans-serif;text-anchor:middle;" transform="matrix(1 0 0 1 2636.69 322)">Heavy</text>
  <text style="stroke:none;fill:black;font-family:-apple-system,&quot;SF Pro Display&quot;,&quot;SF Pro Text&quot;,Helvetica,sans-serif;text-anchor:middle;" transform="matrix(1 0 0 1 2933.4 322)">Black</text>
  <line id="" style="fill:none;stroke:black;opacity:1;stroke-width:0.5;" x1="263" x2="3036" y1="1903" y2="1903"/>
  <g id="" transform="matrix(1 0 0 1 263 1933)">
   <path d="M 9.24805 0.830078 C 13.5547 0.830078 17.1387 -2.74414 17.1387 -7.05078 C 17.1387 -11.3574 13.5449 -14.9316 9.23828 -14.9316 C 4.94141 -14.9316 1.36719 -11.3574 1.36719 -7.05078 C 1.36719 -2.74414 4.95117 0.830078 9.24805 0.830078 Z M 9.24805 -0.654297 C 5.70312 -0.654297 2.87109 -3.49609 2.87109 -7.05078 C 2.87109 -10.6055 5.69336 -13.4473 9.23828 -13.4473 C 12.793 -13.4473 15.6348 -10.6055 15.6445 -7.05078 C 15.6543 -3.49609 12.8027 -0.654297 9.24805 -0.654297 Z M 9.22852 -3.42773 C 9.69727 -3.42773 9.9707 -3.74023 9.9707 -4.25781 L 9.9707 -6.31836 L 12.1973 -6.31836 C 12.6953 -6.31836 13.0371 -6.57227 13.0371 -7.04102 C 13.0371 -7.51953 12.7148 -7.7832 12.1973 -7.7832 L 9.9707 -7.7832 L 9.9707 -10.0098 C 9.9707 -10.5273 9.69727 -10.8496 9.22852 -10.8496 C 8.75977 -10.8496 8.50586 -10.5078 8.50586 -10.0098 L 8.50586 -7.7832 L 6.29883 -7.7832 C 5.78125 -7.7832 5.44922 -7.51953 5.44922 -7.04102 C 5.44922 -6.57227 5.80078 -6.31836 6.29883 -6.31836 L 8.50586 -6.31836 L 8.50586 -4.25781 C 8.50586 -3.75977 8.75977 -3.42773 9.22852 -3.42773 Z"/>
  </g>
  <g id="" transform="matrix(1 0 0 1 281.506 1933)">
   <path d="M 11.709 2.91016 C 17.1582 2.91016 21.6699 -1.60156 21.6699 -7.05078 C 21.6699 -12.4902 17.1484 -17.0117 11.6992 -17.0117 C 6.25977 -17.0117 1.74805 -12.4902 1.74805 -7.05078 C 1.74805 -1.60156 6.26953 2.91016 11.709 2.91016 Z M 11.709 1.25 C 7.09961 1.25 3.41797 -2.44141 3.41797 -7.05078 C 3.41797 -11.6504 7.08984 -15.3516 11.6992 -15.3516 C 16.3086 -15.3516 20 -11.6504 20.0098 -7.05078 C 20.0195 -2.44141 16.3184 1.25 11.709 1.25 Z M 11.6895 -2.41211 C 12.207 -2.41211 12.5195 -2.77344 12.5195 -3.33984 L 12.5195 -6.23047 L 15.5762 -6.23047 C 16.123 -6.23047 16.5039 -6.51367 16.5039 -7.03125 C 16.5039 -7.55859 16.1426 -7.86133 15.5762 -7.86133 L 12.5195 -7.86133 L 12.5195 -10.9277 C 12.5195 -11.5039 12.207 -11.8555 11.6895 -11.8555 C 11.1719 -11.8555 10.8789 -11.4844 10.8789 -10.9277 L 10.8789 -7.86133 L 7.83203 -7.86133 C 7.26562 -7.86133 6.89453 -7.55859 6.89453 -7.03125 C 6.89453 -6.51367 7.28516 -6.23047 7.83203 -6.23047 L 10.8789 -6.23047 L 10.8789 -3.33984 C 10.8789 -2.79297 11.1719 -2.41211 11.6895 -2.41211 Z"/>
  </g>
  <g id="" transform="matrix(1 0 0 1 304.924 1933)">
   <path d="M 14.9707 5.67383 C 21.9336 5.67383 27.6953 -0.078125 27.6953 -7.04102 C 27.6953 -14.0039 21.9238 -19.7559 14.9609 -19.7559 C 8.00781 -19.7559 2.25586 -14.0039 2.25586 -7.04102 C 2.25586 -0.078125 8.01758 5.67383 14.9707 5.67383 Z M 14.9707 3.85742 C 8.93555 3.85742 4.08203 -1.00586 4.08203 -7.04102 C 4.08203 -13.0762 8.92578 -17.9395 14.9609 -17.9395 C 21.0059 -17.9395 25.8594 -13.0762 25.8691 -7.04102 C 25.8789 -1.00586 21.0156 3.85742 14.9707 3.85742 Z M 14.9512 -1.06445 C 15.5176 -1.06445 15.8691 -1.45508 15.8691 -2.06055 L 15.8691 -6.13281 L 20.1074 -6.13281 C 20.6934 -6.13281 21.1133 -6.46484 21.1133 -7.02148 C 21.1133 -7.59766 20.7227 -7.93945 20.1074 -7.93945 L 15.8691 -7.93945 L 15.8691 -12.1875 C 15.8691 -12.8027 15.5176 -13.1934 14.9512 -13.1934 C 14.3848 -13.1934 14.0625 -12.7832 14.0625 -12.1875 L 14.0625 -7.93945 L 9.83398 -7.93945 C 9.21875 -7.93945 8.80859 -7.59766 8.80859 -7.02148 C 8.80859 -6.46484 9.23828 -6.13281 9.83398 -6.13281 L 14.0625 -6.13281 L 14.0625 -2.06055 C 14.0625 -1.47461 14.3848 -1.06445 14.9512 -1.06445 Z"/>
  </g>
  <text style="stroke:none;fill:black;font-family:-apple-system,&quot;SF Pro Display&quot;,&quot;SF Pro Text&quot;,Helvetica,sans-serif;font-weight:bold;" transform="matrix(1 0 0 1 263 1953)">Design Variations</text>
  <text style="stroke:none;fill:black;font-family:-apple-system,&quot;SF Pro Display&quot;,&quot;SF Pro Text&quot;,Helvetica,sans-serif;" transform="matrix(1 0 0 1 263 1971)">Symbols are supported in up to nine weights and three scales.</text>
  <text style="stroke:none;fill:black;font-family:-apple-system,&quot;SF Pro Display&quot;,&quot;SF Pro Text&quot;,Helvetica,sans-serif;" transform="matrix(1 0 0 1 263 1989)">For optimal layout with text and other symbols, vertically align</text>
  <text style="stroke:none;fill:black;font-family:-apple-system,&quot;SF Pro Display&quot;,&quot;SF Pro Text&quot;,Helvetica,sans-serif;" transform="matrix(1 0 0 1 263 2007)">symbols with the adjacent text.</text>
  <rect height="14" id="" style="fill:#00AEEF;stroke:none;opacity:0.4;" width="3" x="776" y="1919"/>
  <g id="" transform="matrix(1 0 0 1 779 1933)">
   <path d="M 10.5273 0 L 12.373 0 L 7.17773 -14.0918 L 5.43945 -14.0918 L 0.244141 0 L 2.08984 0 L 3.50586 -4.0332 L 9.11133 -4.0332 Z M 6.2793 -11.9531 L 6.33789 -11.9531 L 8.59375 -5.52734 L 4.02344 -5.52734 Z"/>
  </g>
  <rect height="14" id="" style="fill:#00AEEF;stroke:none;opacity:0.4;" width="3" x="791.617" y="1919"/>
  <text style="stroke:none;fill:black;font-family:-apple-system,&quot;SF Pro Display&quot;,&quot;SF Pro Text&quot;,Helvetica,sans-serif;font-weight:bold;" transform="matrix(1 0 0 1 776 1953)">Margins</text>
  <text style="stroke:none;fill:black;font-family:-apple-system,&quot;SF Pro Display&quot;,&quot;SF Pro Text&quot;,Helvetica,sans-serif;" transform="matrix(1 0 0 1 776 1971)">Leading and trailing margins on the left and right side of each symbol</text>
  <text style="stroke:none;fill:black;font-family:-apple-system,&quot;SF Pro Display&quot;,&quot;SF Pro Text&quot;,Helvetica,sans-serif;" transform="matrix(1 0 0 1 776 1989)">can be adjusted by modifying the width of the blue rectangles.</text>
  <text style="stroke:none;fill:black;font-family:-apple-system,&quot;SF Pro Display&quot;,&quot;SF Pro Text&quot;,Helvetica,sans-serif;" transform="matrix(1 0 0 1 776 2007)">Modifications are automatically applied proportionally to all</text>
  <text style="stroke:none;fill:black;font-family:-apple-system,&quot;SF Pro Display&quot;,&quot;SF Pro Text&quot;,Helvetica,sans-serif;" transform="matrix(1 0 0 1 776 2025)">scales and weights.</text>
  <g id="" transform="matrix(1 0 0 1 1289 1933)">
   <path d="M 2.83203 3.11523 L 4.375 4.6582 C 5.22461 5.48828 6.19141 5.41992 7.06055 4.46289 L 17.2754 -6.66016 C 17.7051 -6.36719 18.0957 -6.37695 18.5645 -6.47461 L 19.6094 -6.68945 L 20.3027 -5.99609 L 20.2539 -5.47852 C 20.1855 -4.95117 20.3516 -4.53125 20.8496 -4.0332 L 21.6602 -3.22266 C 22.168 -2.71484 22.8223 -2.68555 23.3008 -3.16406 L 26.5527 -6.41602 C 27.0312 -6.89453 27.0117 -7.54883 26.5039 -8.05664 L 25.6836 -8.87695 C 25.1855 -9.375 24.7754 -9.55078 24.2383 -9.47266 L 23.7109 -9.41406 L 23.0566 -10.0781 L 23.3398 -11.2207 C 23.4863 -11.7871 23.3398 -12.2559 22.7148 -12.8613 L 20.3027 -15.2539 C 16.7578 -18.7793 12.2266 -18.6719 9.11133 -15.5371 C 8.69141 -15.1074 8.64258 -14.5215 8.91602 -14.0918 C 9.15039 -13.7207 9.62891 -13.4961 10.2734 -13.6621 C 11.7871 -14.043 13.3008 -13.9258 14.7852 -12.9199 L 14.1602 -11.3379 C 13.9258 -10.752 13.9453 -10.2734 14.1797 -9.83398 L 3.01758 0.439453 C 2.08008 1.30859 1.97266 2.25586 2.83203 3.11523 Z M 10.6738 -15.1465 C 13.3398 -17.1387 16.6504 -16.8262 19.0527 -14.4141 L 21.6797 -11.8066 C 21.9141 -11.5723 21.9434 -11.3867 21.8848 -11.0938 L 21.5039 -9.53125 L 23.0762 -7.95898 L 24.043 -8.04688 C 24.3262 -8.07617 24.4141 -8.05664 24.6387 -7.83203 L 25.2637 -7.20703 L 22.5098 -4.46289 L 21.8848 -5.07812 C 21.6602 -5.30273 21.6406 -5.40039 21.6699 -5.68359 L 21.7578 -6.64062 L 20.1953 -8.20312 L 18.5742 -7.89062 C 18.291 -7.83203 18.1445 -7.83203 17.9102 -8.07617 L 15.7324 -10.2539 C 15.5078 -10.4883 15.4785 -10.625 15.6055 -10.9473 L 16.5527 -13.2227 C 14.9512 -14.7559 12.8418 -15.6055 10.8008 -14.9512 C 10.7129 -14.9219 10.6445 -14.9414 10.6152 -14.9805 C 10.5859 -15.0293 10.5859 -15.0781 10.6738 -15.1465 Z M 4.10156 2.41211 C 3.61328 1.91406 3.78906 1.61133 4.12109 1.30859 L 15.0781 -8.80859 L 16.3086 -7.57812 L 6.15234 3.34961 C 5.84961 3.68164 5.46875 3.7793 5.06836 3.37891 Z"/>
  </g>
  <text style="stroke:none;fill:black;font-family:-apple-system,&quot;SF Pro Display&quot;,&quot;SF Pro Text&quot;,Helvetica,sans-serif;font-weight:bold;" transform="matrix(1 0 0 1 1289 1953)">Exporting</text>
  <text style="stroke:none;fill:black;font-family:-apple-system,&quot;SF Pro Display&quot;,&quot;SF Pro Text&quot;,Helvetica,sans-serif;" transform="matrix(1 0 0 1 1289 1971)">Symbols should be outlined when exporting to ensure the</text>
  <text style="stroke:none;fill:black;font-family:-apple-system,&quot;SF Pro Display&quot;,&quot;SF Pro Text&quot;,Helvetica,sans-serif;" transform="matrix(1 0 0 1 1289 1989)">design is preserved when submitting to Xcode.</text>
  <text id="template-version" style="stroke:none;fill:black;font-family:-apple-system,&quot;SF Pro Display&quot;,&quot;SF Pro Text&quot;,Helvetica,sans-serif;text-anchor:end;" transform="matrix(1 0 0 1 3036 1933)">Template v.1.0</text>
  <text style="stroke:none;fill:black;font-family:-apple-system,&quot;SF Pro Display&quot;,&quot;SF Pro Text&quot;,Helvetica,sans-serif;text-anchor:end;" transform="matrix(1 0 0 1 3036 1951)">Generated from 6.circle.fill</text>
  <text style="stroke:none;fill:black;font-family:-apple-system,&quot;SF Pro Display&quot;,&quot;SF Pro Text&quot;,Helvetica,sans-serif;text-anchor:end;" transform="matrix(1 0 0 1 3036 1969)">Typeset at 100 points</text>
  <text style="stroke:none;fill:black;font-family:-apple-system,&quot;SF Pro Display&quot;,&quot;SF Pro Text&quot;,Helvetica,sans-serif;" transform="matrix(1 0 0 1 263 726)">Small</text>
  <text style="stroke:none;fill:black;font-family:-apple-system,&quot;SF Pro Display&quot;,&quot;SF Pro Text&quot;,Helvetica,sans-serif;" transform="matrix(1 0 0 1 263 1156)">Medium</text>
  <text style="stroke:none;fill:black;font-family:-apple-system,&quot;SF Pro Display&quot;,&quot;SF Pro Text&quot;,Helvetica,sans-serif;" transform="matrix(1 0 0 1 263 1586)">Large</text>
 </g>
 <g id="Guides">
  <g id="H-reference" style="fill:#27AAE1;stroke:none;" transform="matrix(1 0 0 1 339 696)">
   <path d="M 54.9316 0 L 57.666 0 L 30.5664 -70.459 L 28.0762 -70.459 L 0.976562 0 L 3.66211 0 L 12.9395 -24.4629 L 45.7031 -24.4629 Z M 29.1992 -67.0898 L 29.4434 -67.0898 L 44.8242 -26.709 L 13.8184 -26.709 Z"/>
  </g>
  <line id="Baseline-S" style="fill:none;stroke:#27AAE1;opacity:1;stroke-width:0.577;" x1="263" x2="3036" y1="696" y2="696"/>
  <line id="Capline-S" style="fill:none;stroke:#27AAE1;opacity:1;stroke-width:0.577;" x1="263" x2="3036" y1="625.541" y2="625.541"/>
  <g id="H-reference" style="fill:#27AAE1;stroke:none;" transform="matrix(1 0 0 1 339 1126)">
   <path d="M 54.9316 0 L 57.666 0 L 30.5664 -70.459 L 28.0762 -70.459 L 0.976562 0 L 3.66211 0 L 12.9395 -24.4629 L 45.7031 -24.4629 Z M 29.1992 -67.0898 L 29.4434 -67.0898 L 44.8242 -26.709 L 13.8184 -26.709 Z"/>
  </g>
  <line id="Baseline-M" style="fill:none;stroke:#27AAE1;opacity:1;stroke-width:0.577;" x1="263" x2="3036" y1="1126" y2="1126"/>
  <line id="Capline-M" style="fill:none;stroke:#27AAE1;opacity:1;stroke-width:0.577;" x1="263" x2="3036" y1="1055.54" y2="1055.54"/>
  <g id="H-reference" style="fill:#27AAE1;stroke:none;" transform="matrix(1 0 0 1 339 1556)">
   <path d="M 54.9316 0 L 57.666 0 L 30.5664 -70.459 L 28.0762 -70.459 L 0.976562 0 L 3.66211 0 L 12.9395 -24.4629 L 45.7031 -24.4629 Z M 29.1992 -67.0898 L 29.4434 -67.0898 L 44.8242 -26.709 L 13.8184 -26.709 Z"/>
  </g>
  <line id="Baseline-L" style="fill:none;stroke:#27AAE1;opacity:1;stroke-width:0.577;" x1="263" x2="3036" y1="1556" y2="1556"/>
  <line id="Capline-L" style="fill:none;stroke:#27AAE1;opacity:1;stroke-width:0.577;" x1="263" x2="3036" y1="1485.54" y2="1485.54"/>
  <rect height="119.336" id="left-margin" style="fill:#00AEEF;stroke:none;opacity:0.4;" width="8.74023" x="1391.3" y="1030.79"/>
  <rect height="119.336" id="right-margin" style="fill:#00AEEF;stroke:none;opacity:0.4;" width="8.74023" x="1499.65" y="1030.79"/>
 </g>
 <g id="Symbols">
  <g id="Black-L" transform="matrix(1 0 0 1 2854.05 1556)">
   <path d="M 79.3457 32.8613 C 116.748 32.8613 147.412 2.19727 147.412 -35.2051 C 147.412 -72.6074 116.748 -103.271 79.2969 -103.271 C 41.8945 -103.271 11.2793 -72.6074 11.2793 -35.2051 C 11.2793 2.19727 41.9434 32.8613 79.3457 32.8613 Z M 80.1758 -4.6875 C 70.1172 -4.6875 62.4512 -8.54492 57.9102 -15.7715 C 54.7363 -20.752 53.0762 -27.3438 53.0762 -35.498 C 53.0762 -55.1758 63.8184 -65.8691 81.7871 -65.8691 C 90.4297 -65.8691 97.7051 -62.8906 100.537 -58.3008 C 101.562 -56.7871 102.1 -55.1758 102.1 -53.3691 C 102.1 -49.5605 99.2188 -46.9727 94.9219 -46.9727 C 91.6016 -46.9727 89.7949 -48.1934 87.8418 -49.5117 C 86.084 -50.6348 84.5215 -51.8555 81.6406 -51.8555 C 75.6836 -51.8555 72.0703 -46.6309 72.0703 -39.4531 C 72.0703 -38.7207 72.1191 -37.9395 72.2656 -37.1094 L 72.9492 -37.1094 C 75.2441 -40.918 80.4199 -43.9941 86.8164 -43.9941 C 97.4609 -43.9941 105.322 -37.207 105.322 -26.2207 C 105.322 -12.8906 95.2148 -4.6875 80.1758 -4.6875 Z M 79.248 -18.7988 C 83.3496 -18.7988 86.1328 -21.582 86.1328 -25.7812 C 86.1328 -29.7363 83.3008 -32.666 79.248 -32.666 C 75.0977 -32.666 72.2656 -29.7363 72.2656 -25.8301 C 72.2656 -21.6309 75.1465 -18.7988 79.248 -18.7988 Z"/>
  </g>
  <g id="Heavy-L" transform="matrix(1 0 0 1 2558.39 1556)">
   <path d="M 78.2715 31.7871 C 115.088 31.7871 145.312 1.61133 145.312 -35.2051 C 145.312 -72.0215 115.039 -102.197 78.2715 -102.197 C 41.4551 -102.197 11.2793 -72.0215 11.2793 -35.2051 C 11.2793 1.61133 41.5039 31.7871 78.2715 31.7871 Z M 79.1992 -4.6875 C 69.7266 -4.6875 62.207 -8.34961 57.8125 -15.4297 C 54.7852 -20.2637 53.1738 -26.8066 53.1738 -35.0586 C 53.1738 -55.127 63.5254 -65.8691 80.7617 -65.8691 C 89.4043 -65.8691 96.5332 -62.5 99.1699 -57.9102 C 100 -56.543 100.488 -55.1758 100.488 -53.5645 C 100.488 -50.1953 97.9492 -47.8516 94.1895 -47.8516 C 91.2109 -47.8516 89.5508 -49.0723 87.6465 -50.4883 C 85.8398 -52.002 83.9355 -53.418 80.5664 -53.418 C 73.8281 -53.418 69.6289 -47.3145 69.6289 -38.5254 C 69.6289 -37.8906 69.6777 -37.2559 69.7266 -36.5723 L 70.3613 -36.5723 C 72.7051 -40.6738 77.8809 -44.043 84.8145 -44.043 C 95.3613 -44.043 103.516 -37.207 103.516 -25.9766 C 103.516 -12.7441 93.6523 -4.6875 79.1992 -4.6875 Z M 78.3691 -17.0898 C 83.4473 -17.0898 86.7676 -20.459 86.7676 -25.5371 C 86.7676 -30.3711 83.3496 -33.8379 78.3691 -33.8379 C 73.4375 -33.8379 69.9707 -30.3711 69.9707 -25.5859 C 69.9707 -20.6055 73.4375 -17.0898 78.3691 -17.0898 Z"/>
  </g>
  <g id="Bold-L" transform="matrix(1 0 0 1 2262.88 1556)">
   <path d="M 77.0996 30.6152 C 113.232 30.6152 142.92 0.878906 142.92 -35.2051 C 142.92 -71.3379 113.184 -101.025 77.0508 -101.025 C 40.9668 -101.025 11.2793 -71.3379 11.2793 -35.2051 C 11.2793 0.878906 41.0156 30.6152 77.0996 30.6152 Z M 78.0762 -4.6875 C 69.2383 -4.6875 61.9629 -8.10547 57.666 -15.0391 C 54.7852 -19.6777 53.2227 -26.2207 53.2227 -34.6191 C 53.2227 -55.0781 63.1836 -65.8691 79.6387 -65.8691 C 88.2324 -65.8691 95.2637 -62.1094 97.6074 -57.5195 C 98.291 -56.3477 98.6816 -55.127 98.6816 -53.8086 C 98.6816 -50.8789 96.4844 -48.9258 93.3594 -48.9258 C 90.7227 -48.9258 89.2578 -50.0488 87.4023 -51.5625 C 85.5957 -53.5156 83.252 -55.2246 79.3945 -55.2246 C 71.7773 -55.2246 66.8457 -48.1445 66.8457 -37.4512 C 66.8457 -36.9629 66.8945 -36.4746 66.9434 -35.9375 L 67.5293 -35.9375 C 69.8242 -40.3809 75 -44.0918 82.5684 -44.0918 C 93.0176 -44.0918 101.514 -37.1582 101.514 -25.6836 C 101.514 -12.5977 91.9434 -4.6875 78.0762 -4.6875 Z M 77.4414 -15.1855 C 83.4961 -15.1855 87.5 -19.1406 87.5 -25.293 C 87.5 -31.0547 83.3984 -35.1562 77.4414 -35.1562 C 71.5332 -35.1562 67.3828 -31.0059 67.3828 -25.3418 C 67.3828 -19.3848 71.582 -15.1855 77.4414 -15.1855 Z"/>
  </g>
  <g id="Semibold-L" transform="matrix(1 0 0 1 1966.97 1556)">
   <path d="M 76.2695 29.7852 C 111.914 29.7852 141.309 0.439453 141.309 -35.2051 C 141.309 -70.8496 111.865 -100.244 76.2695 -100.244 C 40.625 -100.244 11.2793 -70.8496 11.2793 -35.2051 C 11.2793 0.439453 40.6738 29.7852 76.2695 29.7852 Z M 77.2949 -4.63867 C 68.9453 -4.63867 61.7676 -7.91016 57.5684 -14.7949 C 54.834 -19.2871 53.2715 -25.8301 53.2715 -34.2773 C 53.2715 -55.0293 62.9883 -65.8691 78.8086 -65.8691 C 87.4512 -65.8691 94.4336 -61.8164 96.5332 -57.2266 C 97.0703 -56.1523 97.4121 -55.127 97.4121 -53.9551 C 97.4121 -51.3672 95.459 -49.6094 92.7734 -49.6094 C 90.3809 -49.6094 89.0625 -50.6836 87.2559 -52.3438 C 85.4004 -54.5898 82.7637 -56.4453 78.5645 -56.4453 C 70.3125 -56.4453 64.9414 -48.6816 64.9414 -36.7188 C 64.9414 -36.3281 64.9902 -35.9375 65.0391 -35.498 L 65.5273 -35.498 C 67.8711 -40.1367 73.0469 -44.0918 81.0059 -44.0918 C 91.4062 -44.0918 100.098 -37.1582 100.098 -25.4883 C 100.098 -12.5 90.7715 -4.63867 77.2949 -4.63867 Z M 76.7578 -13.8672 C 83.5449 -13.8672 87.9883 -18.2617 87.9883 -25.0977 C 87.9883 -31.543 83.3984 -36.0352 76.8066 -36.0352 C 70.2637 -36.0352 65.625 -31.4941 65.625 -25.1465 C 65.625 -18.5547 70.2637 -13.8672 76.7578 -13.8672 Z"/>
  </g>
  <g id="Medium-L" transform="matrix(1 0 0 1 1670.87 1556)">
   <path d="M 75.6836 29.1992 C 110.938 29.1992 140.088 0.0488281 140.088 -35.2051 C 140.088 -70.459 110.889 -99.6094 75.6348 -99.6094 C 40.3809 -99.6094 11.2793 -70.459 11.2793 -35.2051 C 11.2793 0.0488281 40.3809 29.1992 75.6836 29.1992 Z M 76.709 -4.63867 C 68.7012 -4.63867 61.6211 -7.76367 57.5195 -14.5996 C 54.834 -18.9941 53.3203 -25.4883 53.3203 -34.0332 C 53.3203 -55.0293 62.793 -65.8691 78.2227 -65.8691 C 86.8164 -65.8691 93.75 -61.6211 95.752 -56.9824 C 96.1914 -56.0547 96.4844 -55.127 96.4844 -54.1016 C 96.4844 -51.709 94.6777 -50.1465 92.334 -50.1465 C 90.1367 -50.1465 88.916 -51.1719 87.1582 -52.9297 C 85.2539 -55.3711 82.4219 -57.4219 77.9785 -57.4219 C 69.2383 -57.4219 63.5254 -49.1211 63.5254 -36.1816 C 63.5254 -35.8398 63.5254 -35.5469 63.5742 -35.2051 L 64.0625 -35.2051 C 66.3574 -39.9902 71.5332 -44.1406 79.834 -44.1406 C 90.2344 -44.1406 99.0234 -37.1582 99.0234 -25.3906 C 99.0234 -12.4023 89.8438 -4.63867 76.709 -4.63867 Z M 76.2695 -12.8418 C 83.5938 -12.8418 88.3301 -17.5781 88.3301 -24.9512 C 88.3301 -31.8848 83.4473 -36.7188 76.3184 -36.7188 C 69.2383 -36.7188 64.2578 -31.8359 64.2578 -25 C 64.2578 -17.9199 69.2871 -12.8418 76.2695 -12.8418 Z"/>
  </g>
  <g id="Regular-L" transform="matrix(1 0 0 1 1374.97 1556)">
   <path d="M 74.8535 28.3691 C 109.668 28.3691 138.477 -0.390625 138.477 -35.2051 C 138.477 -70.0195 109.619 -98.7793 74.8047 -98.7793 C 40.0391 -98.7793 11.2793 -70.0195 11.2793 -35.2051 C 11.2793 -0.390625 40.0879 28.3691 74.8535 28.3691 Z M 75.9277 -4.63867 C 68.3594 -4.63867 61.4258 -7.61719 57.4219 -14.3555 C 54.8828 -18.6035 53.3691 -25.0977 53.3691 -33.7402 C 53.3691 -54.9805 62.5488 -65.918 77.4414 -65.918 C 86.0352 -65.918 92.8711 -61.3281 94.6777 -56.6895 C 95.0195 -55.9082 95.2637 -55.0781 95.2637 -54.248 C 95.2637 -52.1973 93.7012 -50.8301 91.7969 -50.8301 C 89.7949 -50.8301 88.7207 -51.8555 86.9629 -53.6621 C 85.0586 -56.4453 81.9336 -58.6426 77.1484 -58.6426 C 67.8223 -58.6426 61.6699 -49.6582 61.6699 -35.4492 L 61.6699 -34.7656 L 62.1094 -34.7656 C 64.4043 -39.7949 69.5801 -44.1895 78.3203 -44.1895 C 88.623 -44.1895 97.6562 -37.1582 97.6562 -25.1953 C 97.6562 -12.3047 88.6719 -4.63867 75.9277 -4.63867 Z M 75.6348 -11.5723 C 83.6426 -11.5723 88.8184 -16.6992 88.8184 -24.7559 C 88.8184 -32.373 83.4473 -37.6465 75.6836 -37.6465 C 67.9688 -37.6465 62.5 -32.2754 62.5 -24.8535 C 62.5 -17.1387 68.0176 -11.5723 75.6348 -11.5723 Z"/>
  </g>
  <g id="Light-L" transform="matrix(1 0 0 1 1079.18 1556)">
   <path d="M 73.9258 27.4902 C 108.301 27.4902 136.621 -0.830078 136.621 -35.1562 C 136.621 -69.5312 108.252 -97.8516 73.9258 -97.8516 C 39.5508 -97.8516 11.2793 -69.5312 11.2793 -35.1562 C 11.2793 -0.830078 39.5996 27.4902 73.9258 27.4902 Z M 74.9512 -5.41992 C 67.4805 -5.41992 60.8398 -8.59375 57.1777 -15.0391 C 54.8828 -19.0918 53.5156 -25.4883 53.5156 -33.5938 C 53.5156 -54.0527 62.1094 -65.1367 76.2695 -65.1367 C 85.0098 -65.1367 91.4551 -60.1074 92.9688 -55.8105 C 93.2129 -55.1758 93.3594 -54.5898 93.3594 -53.9062 C 93.3594 -52.2949 92.1875 -51.2207 90.625 -51.2207 C 89.1113 -51.2207 88.2812 -52.002 87.0117 -53.5156 C 85.0586 -56.8848 81.1523 -59.375 76.0742 -59.375 C 66.2109 -59.375 59.9121 -49.9023 59.9121 -34.5215 L 59.9121 -33.8379 L 60.2539 -33.8379 C 62.8418 -39.3555 68.2129 -43.6523 76.8555 -43.6523 C 87.1094 -43.6523 95.6055 -36.4258 95.6055 -25.1465 C 95.6055 -12.9883 87.1582 -5.41992 74.9512 -5.41992 Z M 74.8047 -10.8887 C 83.252 -10.8887 88.7695 -16.3574 88.7695 -24.8047 C 88.7695 -32.8613 83.1055 -38.3789 74.9023 -38.3789 C 66.6992 -38.3789 60.8398 -32.7148 60.8398 -24.8535 C 60.8398 -16.748 66.6504 -10.8887 74.8047 -10.8887 Z"/>
  </g>
  <g id="Thin-L" transform="matrix(1 0 0 1 783.693 1556)">
   <path d="M 72.7051 26.3184 C 106.494 26.3184 134.18 -1.36719 134.18 -35.1074 C 134.18 -68.8965 106.494 -96.582 72.7051 -96.582 C 38.9648 -96.582 11.2793 -68.8965 11.2793 -35.1074 C 11.2793 -1.36719 38.9648 26.3184 72.7051 26.3184 Z M 73.6328 -6.44531 C 66.3574 -6.44531 60.1074 -9.86328 56.8848 -15.9668 C 54.8828 -19.7266 53.7109 -26.0254 53.7109 -33.4473 C 53.7109 -52.8809 61.5234 -64.1113 74.7559 -64.1113 C 83.5938 -64.1113 89.5996 -58.5449 90.6738 -54.6387 C 90.8203 -54.248 90.918 -53.9551 90.918 -53.4668 C 90.918 -52.3926 90.2344 -51.709 89.1113 -51.709 C 88.1836 -51.709 87.6953 -52.1973 87.0117 -53.3203 C 85.0098 -57.5195 80.127 -60.3516 74.6094 -60.3516 C 64.0625 -60.3516 57.5684 -50.293 57.5684 -33.3496 L 57.5684 -32.6172 L 57.8613 -32.6172 C 60.791 -38.7207 66.3574 -42.9199 74.9023 -42.9199 C 85.1562 -42.9199 92.9199 -35.498 92.9199 -25.1465 C 92.9199 -13.8672 85.1074 -6.44531 73.6328 -6.44531 Z M 73.6816 -10.0098 C 82.7637 -10.0098 88.7207 -15.8691 88.7207 -24.8047 C 88.7207 -33.4961 82.666 -39.3555 73.8281 -39.3555 C 64.9902 -39.3555 58.5938 -33.252 58.5938 -24.9023 C 58.5938 -16.2598 64.8926 -10.0098 73.6816 -10.0098 Z"/>
  </g>
  <g id="Ultralight-L" transform="matrix(1 0 0 1 487.616 1556)">
   <path d="M 72.1191 25.7324 C 105.566 25.7324 132.91 -1.61133 132.91 -35.1074 C 132.91 -68.5547 105.566 -95.8984 72.1191 -95.8984 C 38.623 -95.8984 11.2793 -68.5547 11.2793 -35.1074 C 11.2793 -1.61133 38.623 25.7324 72.1191 25.7324 Z M 72.9492 -6.98242 C 65.7715 -6.98242 59.7656 -10.498 56.7383 -16.4551 C 54.8828 -20.0684 53.8086 -26.3184 53.8086 -33.3984 C 53.8086 -52.2461 61.2305 -63.5742 73.9258 -63.5742 C 82.9102 -63.5742 88.6719 -57.7148 89.5508 -54.0527 C 89.5996 -53.7598 89.6484 -53.6133 89.6484 -53.2715 C 89.6484 -52.4414 89.209 -51.9531 88.3301 -51.9531 C 87.6953 -51.9531 87.3535 -52.2949 87.0605 -53.2227 C 85.0098 -57.8613 79.6387 -60.8398 73.877 -60.8398 C 62.9395 -60.8398 56.3965 -50.4883 56.3965 -32.7148 L 56.3965 -31.9824 L 56.5918 -31.9824 C 59.7656 -38.4277 65.4297 -42.5781 73.9258 -42.5781 C 84.1309 -42.5781 91.5039 -35.0586 91.5039 -25.1465 C 91.5039 -14.3555 84.0332 -6.98242 72.9492 -6.98242 Z M 73.0957 -9.57031 C 82.4707 -9.57031 88.7207 -15.625 88.7207 -24.8047 C 88.7207 -33.8379 82.4219 -39.8438 73.2422 -39.8438 C 64.1113 -39.8438 57.4707 -33.5449 57.4707 -24.9023 C 57.4707 -16.0156 64.0137 -9.57031 73.0957 -9.57031 Z"/>
  </g>
  <g id="Black-M" transform="matrix(1 0 0 1 2870.97 1126)">
   <path d="M 62.4023 18.457 C 91.9922 18.457 116.113 -5.61523 116.113 -35.2051 C 116.113 -64.7949 91.9922 -88.8672 62.4023 -88.8672 C 32.8125 -88.8672 8.74023 -64.7949 8.74023 -35.2051 C 8.74023 -5.61523 32.8125 18.457 62.4023 18.457 Z M 62.9883 -11.9629 C 54.4434 -11.9629 48.4375 -15.3809 44.873 -20.9961 C 42.3828 -24.9512 41.1621 -30.0293 41.1621 -35.9375 C 41.1621 -50.2441 49.6582 -58.5449 64.1602 -58.5449 C 70.9473 -58.5449 76.4648 -56.4941 78.8574 -53.1738 C 79.834 -51.8555 80.3223 -50.4395 80.3223 -48.8281 C 80.3223 -45.5566 77.8809 -43.2617 73.9746 -43.2617 C 71.1914 -43.2617 69.7266 -44.1895 68.3594 -44.873 C 67.041 -45.6055 65.918 -46.3379 64.1113 -46.3379 C 60.3027 -46.3379 58.252 -43.2129 58.252 -39.3066 C 58.252 -38.5742 58.3008 -37.793 58.4473 -36.9629 L 58.9844 -36.9629 C 60.9375 -39.7461 65.0391 -41.6504 69.2383 -41.6504 C 77.5391 -41.6504 82.959 -36.4258 82.959 -28.5645 C 82.959 -18.457 75.0488 -11.9629 62.9883 -11.9629 Z M 62.0605 -24.4629 C 64.3066 -24.4629 65.8691 -26.0254 65.8691 -28.2227 C 65.8691 -30.4199 64.3066 -32.0312 62.0605 -32.0312 C 59.7656 -32.0312 58.2031 -30.4199 58.2031 -28.2227 C 58.2031 -25.9277 59.7656 -24.4629 62.0605 -24.4629 Z"/>
  </g>
  <g id="Heavy-M" transform="matrix(1 0 0 1 2575.19 1126)">
   <path d="M 61.5234 17.5781 C 90.5273 17.5781 114.258 -6.15234 114.258 -35.2051 C 114.258 -64.2578 90.5273 -87.9883 61.4746 -87.9883 C 32.4707 -87.9883 8.74023 -64.2578 8.74023 -35.2051 C 8.74023 -6.15234 32.4707 17.5781 61.5234 17.5781 Z M 62.1094 -11.7676 C 54.1992 -11.7676 48.3398 -14.8926 44.8242 -20.459 C 42.4316 -24.2676 41.1621 -29.3457 41.1621 -35.498 C 41.1621 -50.4395 49.4141 -58.7402 63.3301 -58.7402 C 70.0684 -58.7402 75.6348 -56.3965 77.7832 -52.9785 C 78.6133 -51.8066 79.0527 -50.5371 79.0527 -49.1211 C 79.0527 -46.1914 76.8555 -44.1895 73.4375 -44.1895 C 70.8984 -44.1895 69.5312 -45.1172 68.1152 -45.9961 C 66.7969 -46.9727 65.4785 -47.9004 63.2324 -47.9004 C 58.6914 -47.9004 56.0059 -43.9453 56.0059 -38.5254 C 56.0059 -37.8906 56.0547 -37.2559 56.1523 -36.5723 L 56.6895 -36.5723 C 58.5449 -39.5996 62.5977 -41.8457 67.4316 -41.8457 C 75.6348 -41.8457 81.4941 -36.5723 81.4941 -28.3203 C 81.4941 -18.1641 73.7305 -11.7676 62.1094 -11.7676 Z M 61.377 -22.7539 C 64.502 -22.7539 66.6016 -24.8535 66.6016 -27.9785 C 66.6016 -30.957 64.4531 -33.1543 61.377 -33.1543 C 58.3008 -33.1543 56.1523 -30.957 56.1523 -27.9785 C 56.1523 -24.9023 58.3008 -22.7539 61.377 -22.7539 Z"/>
  </g>
  <g id="Bold-M" transform="matrix(1 0 0 1 2279.5 1126)">
   <path d="M 60.498 16.5039 C 88.8672 16.5039 112.207 -6.78711 112.207 -35.2051 C 112.207 -63.623 88.8672 -86.9629 60.4492 -86.9629 C 32.0312 -86.9629 8.74023 -63.623 8.74023 -35.2051 C 8.74023 -6.78711 32.0801 16.5039 60.498 16.5039 Z M 61.1816 -11.5234 C 53.9551 -11.5234 48.1934 -14.3066 44.7754 -19.8242 C 42.4805 -23.4863 41.2109 -28.6133 41.2109 -35.0098 C 41.2109 -50.6348 49.1699 -58.9844 62.4023 -58.9844 C 69.0918 -58.9844 74.6094 -56.2988 76.6113 -52.7832 C 77.2461 -51.7578 77.5879 -50.6836 77.5879 -49.4629 C 77.5879 -46.9238 75.6836 -45.2148 72.8516 -45.2148 C 70.6055 -45.2148 69.3359 -46.0938 67.8711 -47.2168 C 66.5039 -48.4863 64.9414 -49.6582 62.2559 -49.6582 C 56.8848 -49.6582 53.5156 -44.7266 53.5156 -37.5977 C 53.5156 -37.1582 53.5156 -36.6699 53.6133 -36.1816 L 54.0527 -36.1816 C 55.8594 -39.4043 59.8633 -42.041 65.3809 -42.041 C 73.5352 -42.041 79.8828 -36.7676 79.8828 -28.0273 C 79.8828 -17.7734 72.3145 -11.5234 61.1816 -11.5234 Z M 60.5957 -20.8496 C 64.6973 -20.8496 67.3828 -23.5352 67.3828 -27.6855 C 67.3828 -31.5918 64.5996 -34.375 60.5957 -34.375 C 56.5918 -34.375 53.8086 -31.543 53.8086 -27.6855 C 53.8086 -23.6816 56.6406 -20.8496 60.5957 -20.8496 Z"/>
  </g>
  <g id="Semibold-M" transform="matrix(1 0 0 1 1983.5 1126)">
   <path d="M 59.7656 15.8203 C 87.7441 15.8203 110.791 -7.22656 110.791 -35.2051 C 110.791 -63.1836 87.6953 -86.2793 59.7656 -86.2793 C 31.7871 -86.2793 8.74023 -63.1836 8.74023 -35.2051 C 8.74023 -7.22656 31.7871 15.8203 59.7656 15.8203 Z M 60.5469 -11.377 C 53.7598 -11.377 48.0957 -13.9648 44.7266 -19.3848 C 42.4805 -22.998 41.2109 -28.0762 41.2109 -34.7168 C 41.2109 -50.7812 49.0234 -59.1309 61.7676 -59.1309 C 68.4082 -59.1309 73.9746 -56.25 75.7812 -52.6367 C 76.3184 -51.709 76.6113 -50.7812 76.6113 -49.7559 C 76.6113 -47.4609 74.8535 -45.8984 72.4609 -45.8984 C 70.3613 -45.8984 69.2383 -46.8262 67.7246 -48.0957 C 66.3086 -49.5605 64.5996 -50.8301 61.5723 -50.8301 C 55.6641 -50.8301 51.8066 -45.2637 51.8066 -37.0117 C 51.8066 -36.6211 51.8066 -36.2793 51.8555 -35.8887 L 52.2949 -35.8887 C 54.0039 -39.2578 58.0078 -42.1875 63.9648 -42.1875 C 72.0703 -42.1875 78.8086 -36.9141 78.8086 -27.7832 C 78.8086 -17.5293 71.3379 -11.377 60.5469 -11.377 Z M 60.0586 -19.5312 C 64.7949 -19.5312 67.9199 -22.6562 67.9199 -27.4902 C 67.9199 -31.9824 64.6973 -35.2051 60.0586 -35.2051 C 55.4199 -35.2051 52.1973 -31.9824 52.1973 -27.4902 C 52.1973 -22.8516 55.4688 -19.5312 60.0586 -19.5312 Z"/>
  </g>
  <g id="Medium-M" transform="matrix(1 0 0 1 1687.3 1126)">
   <path d="M 59.2285 15.2832 C 86.9141 15.2832 109.766 -7.56836 109.766 -35.2051 C 109.766 -62.8906 86.8652 -85.7422 59.1797 -85.7422 C 31.543 -85.7422 8.74023 -62.8906 8.74023 -35.2051 C 8.74023 -7.56836 31.5918 15.2832 59.2285 15.2832 Z M 60.0586 -11.2305 C 53.6621 -11.2305 47.998 -13.6719 44.6777 -19.043 C 42.4805 -22.6074 41.2598 -27.6855 41.2598 -34.4238 C 41.2598 -50.9277 48.877 -59.2773 61.2793 -59.2773 C 67.9199 -59.2773 73.4375 -56.2012 75.1465 -52.4902 C 75.5859 -51.6602 75.8301 -50.8301 75.8301 -49.9023 C 75.8301 -47.8516 74.2676 -46.4355 72.168 -46.4355 C 70.2148 -46.4355 69.1406 -47.3145 67.5781 -48.7793 C 66.1621 -50.3418 64.3066 -51.7578 61.084 -51.7578 C 54.6875 -51.7578 50.4883 -45.7031 50.4883 -36.5234 C 50.4883 -36.2305 50.4883 -35.9863 50.5371 -35.6934 L 50.9277 -35.6934 C 52.6367 -39.1602 56.5918 -42.334 62.8906 -42.334 C 70.9473 -42.334 77.9297 -37.0117 77.9297 -27.6367 C 77.9297 -17.334 70.6055 -11.2305 60.0586 -11.2305 Z M 59.6191 -18.5547 C 64.8926 -18.5547 68.3105 -21.9727 68.3105 -27.2949 C 68.3105 -32.3242 64.7949 -35.8398 59.668 -35.8398 C 54.541 -35.8398 50.9766 -32.2754 50.9766 -27.3438 C 50.9766 -22.2168 54.5898 -18.5547 59.6191 -18.5547 Z"/>
  </g>
  <g id="Regular-M" transform="matrix(1 0 0 1 1391.3 1126)">
   <path d="M 58.5449 14.5508 C 85.791 14.5508 108.35 -8.00781 108.35 -35.2539 C 108.35 -62.4512 85.7422 -85.0586 58.4961 -85.0586 C 31.2988 -85.0586 8.74023 -62.4512 8.74023 -35.2539 C 8.74023 -8.00781 31.3477 14.5508 58.5449 14.5508 Z M 59.4238 -11.084 C 53.4668 -11.084 47.9004 -13.2812 44.6289 -18.6523 C 42.5293 -22.0703 41.2598 -27.1484 41.2598 -34.1309 C 41.2598 -51.0742 48.7305 -59.4238 60.6934 -59.4238 C 67.2363 -59.4238 72.8027 -56.1523 74.3652 -52.3926 C 74.6582 -51.6602 74.8535 -50.9277 74.8535 -50.1465 C 74.8535 -48.3398 73.4375 -47.1191 71.7773 -47.1191 C 69.9707 -47.1191 68.9941 -47.998 67.3828 -49.6094 C 65.918 -51.3672 63.9648 -52.9297 60.4004 -52.9297 C 53.4668 -52.9297 48.7793 -46.2402 48.7793 -35.8887 L 48.7793 -35.4004 L 49.1699 -35.4004 C 50.7812 -39.0137 54.7363 -42.4805 61.5234 -42.4805 C 69.5312 -42.4805 76.8555 -37.1094 76.8555 -27.4414 C 76.8555 -17.041 69.6289 -11.084 59.4238 -11.084 Z M 59.082 -17.2363 C 65.0391 -17.2363 68.8477 -21.0938 68.8477 -27.0996 C 68.8477 -32.7637 64.8926 -36.6699 59.1309 -36.6699 C 53.418 -36.6699 49.4141 -32.7148 49.4141 -27.1484 C 49.4141 -21.3867 53.4668 -17.2363 59.082 -17.2363 Z"/>
  </g>
  <g id="Light-M" transform="matrix(1 0 0 1 1095.42 1126)">
   <path d="M 57.7148 13.7695 C 84.5215 13.7695 106.689 -8.39844 106.689 -35.2051 C 106.689 -62.0117 84.5215 -84.1797 57.666 -84.1797 C 30.8594 -84.1797 8.74023 -62.0117 8.74023 -35.2051 C 8.74023 -8.39844 30.9082 13.7695 57.7148 13.7695 Z M 58.5449 -11.7676 C 52.6855 -11.7676 47.4121 -14.1602 44.4336 -19.2871 C 42.5293 -22.5098 41.4062 -27.4902 41.4062 -34.0332 C 41.4062 -50.2441 48.3398 -58.7402 59.6191 -58.7402 C 66.3086 -58.7402 71.5332 -55.0781 72.8027 -51.5625 C 73.0469 -51.0254 73.1934 -50.4883 73.1934 -49.8535 C 73.1934 -48.3887 72.1191 -47.4609 70.752 -47.4609 C 69.3359 -47.4609 68.6035 -48.1445 67.4316 -49.4629 C 65.918 -51.8066 63.2324 -53.6133 59.4238 -53.6133 C 52.002 -53.6133 47.2168 -46.4844 47.2168 -35.1074 L 47.2168 -34.5703 L 47.5098 -34.5703 C 49.4141 -38.623 53.4668 -41.9922 60.2051 -41.9922 C 68.2129 -41.9922 75 -36.4746 75 -27.4414 C 75 -17.6758 68.2129 -11.7676 58.5449 -11.7676 Z M 58.3496 -16.6504 C 64.6973 -16.6504 68.7988 -20.752 68.7988 -27.1484 C 68.7988 -33.1543 64.5508 -37.3535 58.3984 -37.3535 C 52.2461 -37.3535 47.9004 -33.1055 47.9004 -27.1973 C 47.9004 -21.0938 52.2461 -16.6504 58.3496 -16.6504 Z"/>
  </g>
  <g id="Thin-M" transform="matrix(1 0 0 1 799.806 1126)">
   <path d="M 56.6406 12.7441 C 82.9102 12.7441 104.492 -8.83789 104.492 -35.1562 C 104.492 -61.4746 82.9102 -83.0566 56.5918 -83.0566 C 30.3223 -83.0566 8.74023 -61.4746 8.74023 -35.1562 C 8.74023 -8.83789 30.3223 12.7441 56.6406 12.7441 Z M 57.373 -12.6953 C 51.6602 -12.6953 46.7773 -15.2832 44.1406 -20.1172 C 42.5293 -23.0957 41.5527 -27.9785 41.5527 -33.8867 C 41.5527 -49.1699 47.8027 -57.8125 58.252 -57.8125 C 65.0879 -57.8125 69.873 -53.6133 70.8008 -50.5371 C 70.8984 -50.1953 70.9961 -49.8535 70.9961 -49.4629 C 70.9961 -48.4863 70.3613 -47.9004 69.3848 -47.9004 C 68.5059 -47.9004 68.0664 -48.3398 67.4316 -49.3164 C 65.918 -52.3926 62.3535 -54.4922 58.1543 -54.4922 C 50.0977 -54.4922 45.1172 -46.8262 45.1172 -34.0332 L 45.1172 -33.4473 L 45.3613 -33.4473 C 47.5586 -38.0859 51.8555 -41.3574 58.4961 -41.3574 C 66.4062 -41.3574 72.6074 -35.6445 72.6074 -27.4414 C 72.6074 -18.5059 66.4062 -12.6953 57.373 -12.6953 Z M 57.3242 -15.8691 C 64.2578 -15.8691 68.7988 -20.3125 68.7988 -27.1484 C 68.7988 -33.7402 64.1602 -38.2324 57.4219 -38.2324 C 50.7324 -38.2324 45.8984 -33.5938 45.8984 -27.1973 C 45.8984 -20.6543 50.6836 -15.8691 57.3242 -15.8691 Z"/>
  </g>
  <g id="Ultralight-M" transform="matrix(1 0 0 1 503.656 1126)">
   <path d="M 56.0547 12.207 C 82.0801 12.207 103.369 -9.08203 103.369 -35.1562 C 103.369 -61.1816 82.0801 -82.4707 56.0547 -82.4707 C 30.0293 -82.4707 8.74023 -61.1816 8.74023 -35.1562 C 8.74023 -9.08203 30.0293 12.207 56.0547 12.207 Z M 56.7383 -13.1836 C 51.123 -13.1836 46.4355 -15.8691 43.9941 -20.5078 C 42.5293 -23.3887 41.6504 -28.2227 41.6504 -33.8379 C 41.6504 -48.6328 47.5586 -57.3242 57.5684 -57.3242 C 64.4531 -57.3242 68.9941 -52.8809 69.7266 -50 C 69.7754 -49.7559 69.873 -49.5605 69.873 -49.2676 C 69.873 -48.5352 69.4336 -48.0957 68.7012 -48.0957 C 68.1152 -48.0957 67.8223 -48.4375 67.4316 -49.2188 C 65.8691 -52.6855 61.8652 -54.9316 57.4707 -54.9316 C 49.1211 -54.9316 44.043 -46.9727 44.043 -33.4473 L 44.043 -32.9102 L 44.2383 -32.9102 C 46.6309 -37.793 50.9766 -41.0156 57.5684 -41.0156 C 65.5273 -41.0156 71.3379 -35.2051 71.3379 -27.3926 C 71.3379 -18.8965 65.4297 -13.1836 56.7383 -13.1836 Z M 56.8359 -15.4785 C 64.0137 -15.4785 68.75 -20.1172 68.75 -27.1484 C 68.75 -34.0332 63.9648 -38.6719 56.9336 -38.6719 C 49.9512 -38.6719 44.873 -33.8379 44.873 -27.2461 C 44.873 -20.4102 49.8535 -15.4785 56.8359 -15.4785 Z"/>
  </g>
  <g id="Black-S" transform="matrix(1 0 0 1 2884.57 696)">
   <path d="M 48.8281 6.78711 C 71.9727 6.78711 90.8203 -12.0605 90.8203 -35.2051 C 90.8203 -58.3496 71.9727 -77.1973 48.8281 -77.1973 C 25.6836 -77.1973 6.83594 -58.3496 6.83594 -35.2051 C 6.83594 -12.0605 25.6836 6.78711 48.8281 6.78711 Z M 49.2676 -16.9922 C 42.627 -16.9922 37.9395 -19.6289 35.1562 -24.0234 C 33.2031 -27.0996 32.2266 -31.1035 32.2266 -35.7422 C 32.2266 -47.0215 38.8672 -53.5156 50.1953 -53.5156 C 55.5176 -53.5156 59.8633 -51.9043 61.7188 -49.2676 C 62.4512 -48.2422 62.8418 -47.168 62.8418 -45.8984 C 62.8418 -43.3594 60.9375 -41.6016 57.9102 -41.6016 C 55.7617 -41.6016 54.5898 -42.334 53.5156 -42.8711 C 52.4902 -43.457 51.6113 -44.043 50.1465 -44.043 C 47.1191 -44.043 45.459 -41.5527 45.459 -38.3789 C 45.459 -37.793 45.5078 -37.207 45.6055 -36.5723 L 46.0449 -36.5723 C 47.5586 -38.7695 50.7812 -40.2832 54.1016 -40.2832 C 60.5957 -40.2832 64.8926 -36.1816 64.8926 -29.9805 C 64.8926 -22.0703 58.6914 -16.9922 49.2676 -16.9922 Z M 48.584 -26.6602 C 50.3906 -26.6602 51.6602 -27.9297 51.6602 -29.7363 C 51.6602 -31.4941 50.3906 -32.8125 48.584 -32.8125 C 46.7285 -32.8125 45.459 -31.4941 45.459 -29.7363 C 45.459 -27.8809 46.7285 -26.6602 48.584 -26.6602 Z"/>
  </g>
  <g id="Heavy-S" transform="matrix(1 0 0 1 2588.47 696)">
   <path d="M 48.2422 6.15234 C 70.9961 6.15234 89.5996 -12.4512 89.5996 -35.2051 C 89.5996 -57.959 70.9961 -76.6113 48.1934 -76.6113 C 25.4395 -76.6113 6.83594 -57.959 6.83594 -35.2051 C 6.83594 -12.4512 25.4395 6.15234 48.2422 6.15234 Z M 48.7305 -16.748 C 42.5293 -16.748 37.8906 -19.1406 35.1562 -23.5352 C 33.2031 -26.5625 32.2266 -30.5176 32.2266 -35.4492 C 32.2266 -47.2656 38.7695 -53.7598 49.707 -53.7598 C 54.9316 -53.7598 59.3262 -51.9531 61.084 -49.2188 C 61.7188 -48.291 62.0605 -47.3145 62.0605 -46.1914 C 62.0605 -43.8477 60.3027 -42.2363 57.6172 -42.2363 C 55.6152 -42.2363 54.4922 -43.0176 53.3203 -43.75 C 52.2949 -44.4336 51.3184 -45.166 49.6094 -45.166 C 46.0449 -45.166 43.9453 -42.0898 43.9453 -37.8418 C 43.9453 -37.3535 43.9453 -36.9141 44.043 -36.377 L 44.4336 -36.377 C 45.8984 -38.6719 49.0723 -40.4785 52.832 -40.4785 C 59.3262 -40.4785 64.0137 -36.377 64.0137 -29.7852 C 64.0137 -21.7285 57.8613 -16.748 48.7305 -16.748 Z M 48.1445 -25.4395 C 50.5859 -25.4395 52.1973 -27.0996 52.1973 -29.541 C 52.1973 -31.8848 50.5371 -33.5938 48.1445 -33.5938 C 45.7031 -33.5938 44.043 -31.8848 44.043 -29.541 C 44.043 -27.0996 45.7031 -25.4395 48.1445 -25.4395 Z"/>
  </g>
  <g id="Bold-S" transform="matrix(1 0 0 1 2292.44 696)">
   <path d="M 47.5586 5.46875 C 69.873 5.46875 88.2324 -12.8906 88.2324 -35.2051 C 88.2324 -57.5684 69.873 -75.9277 47.5098 -75.9277 C 25.1953 -75.9277 6.83594 -57.5684 6.83594 -35.2051 C 6.83594 -12.8906 25.1953 5.46875 47.5586 5.46875 Z M 48.1445 -16.5039 C 42.4316 -16.5039 37.8418 -18.6035 35.1074 -22.998 C 33.252 -25.9277 32.2266 -29.9316 32.2266 -35.0586 C 32.2266 -47.5098 38.623 -54.0039 49.1211 -54.0039 C 54.3457 -54.0039 58.7402 -52.002 60.3516 -49.1699 C 60.8398 -48.3398 61.1328 -47.4609 61.1328 -46.4844 C 61.1328 -44.4336 59.5703 -43.0176 57.3242 -43.0176 C 55.4688 -43.0176 54.3945 -43.75 53.1738 -44.7266 C 52.0508 -45.5566 51.0254 -46.4355 48.9746 -46.4355 C 44.873 -46.4355 42.2363 -42.627 42.2363 -37.2559 C 42.2363 -36.9141 42.2363 -36.5723 42.2852 -36.1816 L 42.6758 -36.1816 C 43.9941 -38.5742 47.1191 -40.7227 51.4648 -40.7227 C 57.8613 -40.7227 62.9883 -36.6211 62.9883 -29.541 C 62.9883 -21.3867 56.9336 -16.5039 48.1445 -16.5039 Z M 47.6074 -24.0723 C 50.7324 -24.0723 52.7832 -26.123 52.7832 -29.2969 C 52.7832 -32.2754 50.6836 -34.4238 47.6074 -34.4238 C 44.5801 -34.4238 42.4316 -32.2754 42.4316 -29.3457 C 42.4316 -26.2207 44.5801 -24.0723 47.6074 -24.0723 Z"/>
  </g>
  <g id="Semibold-S" transform="matrix(1 0 0 1 1996.2 696)">
   <path d="M 47.0703 4.98047 C 69.0918 4.98047 87.3047 -13.1836 87.3047 -35.2539 C 87.3047 -57.2754 69.0918 -75.4883 47.0215 -75.4883 C 25 -75.4883 6.83594 -57.2754 6.83594 -35.2539 C 6.83594 -13.1836 25.0488 4.98047 47.0703 4.98047 Z M 47.7051 -16.3086 C 42.3828 -16.3086 37.8418 -18.2617 35.1074 -22.6074 C 33.252 -25.4883 32.2266 -29.4922 32.2266 -34.8145 C 32.2266 -47.7051 38.5254 -54.1992 48.7305 -54.1992 C 53.9062 -54.1992 58.3496 -52.0508 59.8633 -49.1211 C 60.3027 -48.3398 60.5469 -47.5586 60.5469 -46.6797 C 60.5469 -44.7754 59.082 -43.5059 57.0801 -43.5059 C 55.3223 -43.5059 54.3457 -44.2871 53.0273 -45.4102 C 51.9043 -46.3379 50.7812 -47.2656 48.5352 -47.2656 C 44.043 -47.2656 41.0156 -43.0664 41.0156 -36.8652 C 41.0156 -36.5723 41.0645 -36.3281 41.0645 -36.0352 L 41.4551 -36.0352 C 42.7246 -38.5254 45.8008 -40.8691 50.4883 -40.8691 C 56.8359 -40.8691 62.3047 -36.7676 62.3047 -29.3945 C 62.3047 -21.1426 56.2988 -16.3086 47.7051 -16.3086 Z M 47.2656 -23.0957 C 50.8789 -23.0957 53.2227 -25.4395 53.2227 -29.1504 C 53.2227 -32.5684 50.7812 -35.0098 47.2656 -35.0098 C 43.7988 -35.0098 41.3574 -32.5684 41.3574 -29.1504 C 41.3574 -25.6348 43.7988 -23.0957 47.2656 -23.0957 Z"/>
  </g>
  <g id="Medium-S" transform="matrix(1 0 0 1 1699.83 696)">
   <path d="M 46.7285 4.63867 C 68.5547 4.63867 86.6211 -13.4277 86.6211 -35.2539 C 86.6211 -57.0312 68.5059 -75.1465 46.6797 -75.1465 C 24.8535 -75.1465 6.83594 -57.0312 6.83594 -35.2539 C 6.83594 -13.4277 24.9023 4.63867 46.7285 4.63867 Z M 47.4121 -16.1621 C 42.334 -16.1621 37.793 -17.9688 35.1074 -22.3145 C 33.3008 -25.1465 32.2266 -29.1504 32.2266 -34.668 C 32.2266 -47.8516 38.4766 -54.3457 48.4375 -54.3457 C 53.5645 -54.3457 58.0078 -52.0996 59.4727 -49.0723 C 59.8633 -48.3398 60.0586 -47.6074 60.0586 -46.875 C 60.0586 -45.0684 58.6914 -43.8965 56.9336 -43.8965 C 55.2246 -43.8965 54.2969 -44.6777 52.9297 -45.8984 C 51.8066 -46.9238 50.6348 -47.9492 48.2422 -47.9492 C 43.4082 -47.9492 40.1367 -43.3594 40.1367 -36.5723 C 40.1367 -36.3281 40.1367 -36.1328 40.1367 -35.8887 L 40.5273 -35.8887 C 41.748 -38.4766 44.7754 -40.9668 49.7559 -40.9668 C 56.1035 -40.9668 61.7676 -36.8652 61.7676 -29.2969 C 61.7676 -20.9473 55.8105 -16.1621 47.4121 -16.1621 Z M 47.0215 -22.3633 C 50.9766 -22.3633 53.5156 -24.9512 53.5156 -29.0039 C 53.5156 -32.8125 50.8789 -35.4492 47.0215 -35.4492 C 43.1641 -35.4492 40.4785 -32.7637 40.4785 -29.0527 C 40.4785 -25.1465 43.2129 -22.3633 47.0215 -22.3633 Z"/>
  </g>
  <g id="Regular-S" transform="matrix(1 0 0 1 1403.58 696)">
   <path d="M 46.2402 4.15039 C 67.7734 4.15039 85.6934 -13.7207 85.6934 -35.2539 C 85.6934 -56.7871 67.7246 -74.6582 46.1914 -74.6582 C 24.707 -74.6582 6.83594 -56.7871 6.83594 -35.2539 C 6.83594 -13.7207 24.7559 4.15039 46.2402 4.15039 Z M 46.9727 -15.9668 C 42.2852 -15.9668 37.7441 -17.627 35.0586 -21.9238 C 33.3008 -24.707 32.2266 -28.7109 32.2266 -34.4238 C 32.2266 -47.998 38.3789 -54.541 48.0469 -54.541 C 53.125 -54.541 57.6172 -52.1484 58.9844 -49.0234 C 59.2773 -48.3887 59.4727 -47.7539 59.4727 -47.0703 C 59.4727 -45.459 58.2031 -44.3848 56.7383 -44.3848 C 55.127 -44.3848 54.248 -45.166 52.7832 -46.582 C 51.6602 -47.6562 50.4395 -48.7793 47.8027 -48.7793 C 42.5781 -48.7793 38.9648 -43.75 38.9648 -36.1328 L 38.9648 -35.7422 L 39.3066 -35.7422 C 40.4785 -38.4277 43.457 -41.1133 48.8281 -41.1133 C 55.127 -41.1133 61.084 -37.0117 61.084 -29.1504 C 61.084 -20.7031 55.2246 -15.9668 46.9727 -15.9668 Z M 46.6797 -21.4355 C 51.123 -21.4355 53.9551 -24.3164 53.9551 -28.8574 C 53.9551 -33.0566 50.9766 -36.0352 46.6797 -36.0352 C 42.3828 -36.0352 39.4043 -33.0566 39.4043 -28.9062 C 39.4043 -24.5605 42.4316 -21.4355 46.6797 -21.4355 Z"/>
  </g>
  <g id="Light-S" transform="matrix(1 0 0 1 1107.6 696)">
   <path d="M 45.5078 3.4668 C 66.6992 3.4668 84.2285 -14.0625 84.2285 -35.2051 C 84.2285 -56.3965 66.6504 -73.9258 45.5078 -73.9258 C 24.3164 -73.9258 6.83594 -56.3965 6.83594 -35.2051 C 6.83594 -14.0625 24.3652 3.4668 45.5078 3.4668 Z M 46.1914 -16.6016 C 41.5527 -16.6016 37.3047 -18.3594 34.8633 -22.4609 C 33.3008 -25.0977 32.373 -29.0527 32.373 -34.3262 C 32.373 -47.3145 38.0371 -53.9062 47.1191 -53.9062 C 52.2949 -53.9062 56.4941 -51.1719 57.6172 -48.3398 C 57.8125 -47.8516 57.959 -47.3145 57.959 -46.8262 C 57.959 -45.5078 56.9824 -44.6777 55.8105 -44.6777 C 54.5898 -44.6777 53.9062 -45.3125 52.7832 -46.4355 C 51.6602 -48.0469 49.8047 -49.3652 46.9238 -49.3652 C 41.3086 -49.3652 37.5488 -43.9453 37.5488 -35.4492 L 37.5488 -35.0098 L 37.8418 -35.0098 C 39.209 -38.0371 42.3828 -40.7227 47.6562 -40.7227 C 53.9062 -40.7227 59.4727 -36.4746 59.4727 -29.1504 C 59.4727 -21.2402 53.9551 -16.6016 46.1914 -16.6016 Z M 45.9961 -20.8984 C 50.8301 -20.8984 53.9062 -24.0234 53.9062 -28.8574 C 53.9062 -33.4473 50.6836 -36.6211 45.9961 -36.6211 C 41.3574 -36.6211 38.0859 -33.3984 38.0859 -28.9062 C 38.0859 -24.2676 41.4062 -20.8984 45.9961 -20.8984 Z"/>
  </g>
  <g id="Thin-S" transform="matrix(1 0 0 1 811.867 696)">
   <path d="M 44.5801 2.53906 C 65.2832 2.53906 82.2754 -14.4531 82.2754 -35.2051 C 82.2754 -55.9082 65.2344 -72.9004 44.5312 -72.9004 C 23.8281 -72.9004 6.83594 -55.9082 6.83594 -35.2051 C 6.83594 -14.4531 23.877 2.53906 44.5801 2.53906 Z M 45.166 -17.3828 C 40.6738 -17.3828 36.7676 -19.3848 34.6191 -23.1934 C 33.3008 -25.5859 32.5195 -29.4434 32.5195 -34.2285 C 32.5195 -46.3379 37.5488 -53.125 45.8984 -53.125 C 51.2207 -53.125 55.0293 -49.9023 55.8105 -47.4121 C 55.957 -47.1191 56.0059 -46.8262 56.0059 -46.4844 C 56.0059 -45.6055 55.4199 -45.0684 54.6387 -45.0684 C 53.8574 -45.0684 53.418 -45.459 52.832 -46.2891 C 51.6113 -48.5352 49.0234 -50.1465 45.8008 -50.1465 C 39.5996 -50.1465 35.7422 -44.2383 35.7422 -34.4727 L 35.7422 -34.082 L 35.9375 -34.082 C 37.5977 -37.5488 40.918 -40.1367 46.1426 -40.1367 C 52.3438 -40.1367 57.3242 -35.7422 57.3242 -29.1016 C 57.3242 -21.9727 52.3438 -17.3828 45.166 -17.3828 Z M 45.1172 -20.2148 C 50.3906 -20.2148 53.9062 -23.6328 53.9062 -28.9062 C 53.9062 -33.9355 50.3418 -37.4023 45.166 -37.4023 C 40.0391 -37.4023 36.3281 -33.8379 36.3281 -28.9551 C 36.3281 -23.877 39.9902 -20.2148 45.1172 -20.2148 Z"/>
  </g>
  <g id="Ultralight-S" transform="matrix(1 0 0 1 515.644 696)">
   <path d="M 44.043 2.05078 C 64.502 2.05078 81.2988 -14.6973 81.2988 -35.1562 C 81.2988 -55.6152 64.502 -72.3633 44.043 -72.3633 C 23.584 -72.3633 6.83594 -55.6152 6.83594 -35.1562 C 6.83594 -14.6973 23.584 2.05078 44.043 2.05078 Z M 44.6289 -17.8223 C 40.1855 -17.8223 36.4258 -19.9219 34.5215 -23.584 C 33.3008 -25.8789 32.6172 -29.6875 32.6172 -34.1309 C 32.6172 -45.8496 37.3047 -52.6855 45.2637 -52.6855 C 50.6836 -52.6855 54.2969 -49.2676 54.8828 -46.9238 C 54.9805 -46.7285 55.0293 -46.5332 55.0293 -46.2891 C 55.0293 -45.6543 54.6387 -45.2637 54.0039 -45.2637 C 53.4668 -45.2637 53.1738 -45.5566 52.832 -46.1914 C 51.6113 -48.8281 48.584 -50.5371 45.2148 -50.5371 C 38.7207 -50.5371 34.7656 -44.3848 34.7656 -33.9844 L 34.7656 -33.5449 L 34.9609 -33.5449 C 36.7676 -37.3047 40.1855 -39.8438 45.3613 -39.8438 C 51.5625 -39.8438 56.2012 -35.3516 56.2012 -29.1016 C 56.2012 -22.3145 51.5137 -17.8223 44.6289 -17.8223 Z M 44.6289 -19.873 C 50.1953 -19.873 53.8574 -23.4375 53.8574 -28.9062 C 53.8574 -34.2285 50.1465 -37.793 44.7266 -37.793 C 39.3066 -37.793 35.4004 -34.082 35.4004 -28.9551 C 35.4004 -23.6816 39.2578 -19.873 44.6289 -19.873 Z"/>
  </g>
 </g>
</svg>
