<?xml version="1.0" encoding="UTF-8"?>
<!--Generator: Apple Native CoreSVG 123-->
<!DOCTYPE svg
PUBLIC "-//W3C//DTD SVG 1.1//EN"
       "http://www.w3.org/Graphics/SVG/1.1/DTD/svg11.dtd">
<svg version="1.1" xmlns="http://www.w3.org/2000/svg" xmlns:xlink="http://www.w3.org/1999/xlink" width="3300" height="2200">
 <!--glyph: "uni100047.medium", point size: 100.000000, font version: "Version 15.0d7e11", template writer version: "5"-->
 <g id="Notes">
  <rect height="2200" id="artboard" style="fill:white;opacity:1" width="3300" x="0" y="0"/>
  <line id="" style="fill:none;stroke:black;opacity:1;stroke-width:0.5;" x1="263" x2="3036" y1="292" y2="292"/>
  <text style="stroke:none;fill:black;font-family:-apple-system,&quot;SF Pro Display&quot;,&quot;SF Pro Text&quot;,Helvetica,sans-serif;font-weight:bold;" transform="matrix(1 0 0 1 263 322)">Weight/Scale Variations</text>
  <text style="stroke:none;fill:black;font-family:-apple-system,&quot;SF Pro Display&quot;,&quot;SF Pro Text&quot;,Helvetica,sans-serif;text-anchor:middle;" transform="matrix(1 0 0 1 559.711 322)">Ultralight</text>
  <text style="stroke:none;fill:black;font-family:-apple-system,&quot;SF Pro Display&quot;,&quot;SF Pro Text&quot;,Helvetica,sans-serif;text-anchor:middle;" transform="matrix(1 0 0 1 856.422 322)">Thin</text>
  <text style="stroke:none;fill:black;font-family:-apple-system,&quot;SF Pro Display&quot;,&quot;SF Pro Text&quot;,Helvetica,sans-serif;text-anchor:middle;" transform="matrix(1 0 0 1 1153.13 322)">Light</text>
  <text style="stroke:none;fill:black;font-family:-apple-system,&quot;SF Pro Display&quot;,&quot;SF Pro Text&quot;,Helvetica,sans-serif;text-anchor:middle;" transform="matrix(1 0 0 1 1449.84 322)">Regular</text>
  <text style="stroke:none;fill:black;font-family:-apple-system,&quot;SF Pro Display&quot;,&quot;SF Pro Text&quot;,Helvetica,sans-serif;text-anchor:middle;" transform="matrix(1 0 0 1 1746.56 322)">Medium</text>
  <text style="stroke:none;fill:black;font-family:-apple-system,&quot;SF Pro Display&quot;,&quot;SF Pro Text&quot;,Helvetica,sans-serif;text-anchor:middle;" transform="matrix(1 0 0 1 2043.27 322)">Semibold</text>
  <text style="stroke:none;fill:black;font-family:-apple-system,&quot;SF Pro Display&quot;,&quot;SF Pro Text&quot;,Helvetica,sans-serif;text-anchor:middle;" transform="matrix(1 0 0 1 2339.98 322)">Bold</text>
  <text style="stroke:none;fill:black;font-family:-apple-system,&quot;SF Pro Display&quot;,&quot;SF Pro Text&quot;,Helvetica,sans-serif;text-anchor:middle;" transform="matrix(1 0 0 1 2636.69 322)">Heavy</text>
  <text style="stroke:none;fill:black;font-family:-apple-system,&quot;SF Pro Display&quot;,&quot;SF Pro Text&quot;,Helvetica,sans-serif;text-anchor:middle;" transform="matrix(1 0 0 1 2933.4 322)">Black</text>
  <line id="" style="fill:none;stroke:black;opacity:1;stroke-width:0.5;" x1="263" x2="3036" y1="1903" y2="1903"/>
  <g id="" transform="matrix(1 0 0 1 263 1933)">
   <path d="M 9.24805 0.830078 C 13.5547 0.830078 17.1387 -2.74414 17.1387 -7.05078 C 17.1387 -11.3574 13.5449 -14.9316 9.23828 -14.9316 C 4.94141 -14.9316 1.36719 -11.3574 1.36719 -7.05078 C 1.36719 -2.74414 4.95117 0.830078 9.24805 0.830078 Z M 9.24805 -0.654297 C 5.70312 -0.654297 2.87109 -3.49609 2.87109 -7.05078 C 2.87109 -10.6055 5.69336 -13.4473 9.23828 -13.4473 C 12.793 -13.4473 15.6348 -10.6055 15.6445 -7.05078 C 15.6543 -3.49609 12.8027 -0.654297 9.24805 -0.654297 Z M 9.22852 -3.42773 C 9.69727 -3.42773 9.9707 -3.74023 9.9707 -4.25781 L 9.9707 -6.31836 L 12.1973 -6.31836 C 12.6953 -6.31836 13.0371 -6.57227 13.0371 -7.04102 C 13.0371 -7.51953 12.7148 -7.7832 12.1973 -7.7832 L 9.9707 -7.7832 L 9.9707 -10.0098 C 9.9707 -10.5273 9.69727 -10.8496 9.22852 -10.8496 C 8.75977 -10.8496 8.50586 -10.5078 8.50586 -10.0098 L 8.50586 -7.7832 L 6.29883 -7.7832 C 5.78125 -7.7832 5.44922 -7.51953 5.44922 -7.04102 C 5.44922 -6.57227 5.80078 -6.31836 6.29883 -6.31836 L 8.50586 -6.31836 L 8.50586 -4.25781 C 8.50586 -3.75977 8.75977 -3.42773 9.22852 -3.42773 Z"/>
  </g>
  <g id="" transform="matrix(1 0 0 1 281.506 1933)">
   <path d="M 11.709 2.91016 C 17.1582 2.91016 21.6699 -1.60156 21.6699 -7.05078 C 21.6699 -12.4902 17.1484 -17.0117 11.6992 -17.0117 C 6.25977 -17.0117 1.74805 -12.4902 1.74805 -7.05078 C 1.74805 -1.60156 6.26953 2.91016 11.709 2.91016 Z M 11.709 1.25 C 7.09961 1.25 3.41797 -2.44141 3.41797 -7.05078 C 3.41797 -11.6504 7.08984 -15.3516 11.6992 -15.3516 C 16.3086 -15.3516 20 -11.6504 20.0098 -7.05078 C 20.0195 -2.44141 16.3184 1.25 11.709 1.25 Z M 11.6895 -2.41211 C 12.207 -2.41211 12.5195 -2.77344 12.5195 -3.33984 L 12.5195 -6.23047 L 15.5762 -6.23047 C 16.123 -6.23047 16.5039 -6.51367 16.5039 -7.03125 C 16.5039 -7.55859 16.1426 -7.86133 15.5762 -7.86133 L 12.5195 -7.86133 L 12.5195 -10.9277 C 12.5195 -11.5039 12.207 -11.8555 11.6895 -11.8555 C 11.1719 -11.8555 10.8789 -11.4844 10.8789 -10.9277 L 10.8789 -7.86133 L 7.83203 -7.86133 C 7.26562 -7.86133 6.89453 -7.55859 6.89453 -7.03125 C 6.89453 -6.51367 7.28516 -6.23047 7.83203 -6.23047 L 10.8789 -6.23047 L 10.8789 -3.33984 C 10.8789 -2.79297 11.1719 -2.41211 11.6895 -2.41211 Z"/>
  </g>
  <g id="" transform="matrix(1 0 0 1 304.924 1933)">
   <path d="M 14.9707 5.67383 C 21.9336 5.67383 27.6953 -0.078125 27.6953 -7.04102 C 27.6953 -14.0039 21.9238 -19.7559 14.9609 -19.7559 C 8.00781 -19.7559 2.25586 -14.0039 2.25586 -7.04102 C 2.25586 -0.078125 8.01758 5.67383 14.9707 5.67383 Z M 14.9707 3.85742 C 8.93555 3.85742 4.08203 -1.00586 4.08203 -7.04102 C 4.08203 -13.0762 8.92578 -17.9395 14.9609 -17.9395 C 21.0059 -17.9395 25.8594 -13.0762 25.8691 -7.04102 C 25.8789 -1.00586 21.0156 3.85742 14.9707 3.85742 Z M 14.9512 -1.06445 C 15.5176 -1.06445 15.8691 -1.45508 15.8691 -2.06055 L 15.8691 -6.13281 L 20.1074 -6.13281 C 20.6934 -6.13281 21.1133 -6.46484 21.1133 -7.02148 C 21.1133 -7.59766 20.7227 -7.93945 20.1074 -7.93945 L 15.8691 -7.93945 L 15.8691 -12.1875 C 15.8691 -12.8027 15.5176 -13.1934 14.9512 -13.1934 C 14.3848 -13.1934 14.0625 -12.7832 14.0625 -12.1875 L 14.0625 -7.93945 L 9.83398 -7.93945 C 9.21875 -7.93945 8.80859 -7.59766 8.80859 -7.02148 C 8.80859 -6.46484 9.23828 -6.13281 9.83398 -6.13281 L 14.0625 -6.13281 L 14.0625 -2.06055 C 14.0625 -1.47461 14.3848 -1.06445 14.9512 -1.06445 Z"/>
  </g>
  <text style="stroke:none;fill:black;font-family:-apple-system,&quot;SF Pro Display&quot;,&quot;SF Pro Text&quot;,Helvetica,sans-serif;font-weight:bold;" transform="matrix(1 0 0 1 263 1953)">Design Variations</text>
  <text style="stroke:none;fill:black;font-family:-apple-system,&quot;SF Pro Display&quot;,&quot;SF Pro Text&quot;,Helvetica,sans-serif;" transform="matrix(1 0 0 1 263 1971)">Symbols are supported in up to nine weights and three scales.</text>
  <text style="stroke:none;fill:black;font-family:-apple-system,&quot;SF Pro Display&quot;,&quot;SF Pro Text&quot;,Helvetica,sans-serif;" transform="matrix(1 0 0 1 263 1989)">For optimal layout with text and other symbols, vertically align</text>
  <text style="stroke:none;fill:black;font-family:-apple-system,&quot;SF Pro Display&quot;,&quot;SF Pro Text&quot;,Helvetica,sans-serif;" transform="matrix(1 0 0 1 263 2007)">symbols with the adjacent text.</text>
  <rect height="14" id="" style="fill:#00AEEF;stroke:none;opacity:0.4;" width="3" x="776" y="1919"/>
  <g id="" transform="matrix(1 0 0 1 779 1933)">
   <path d="M 10.5273 0 L 12.373 0 L 7.17773 -14.0918 L 5.43945 -14.0918 L 0.244141 0 L 2.08984 0 L 3.50586 -4.0332 L 9.11133 -4.0332 Z M 6.2793 -11.9531 L 6.33789 -11.9531 L 8.59375 -5.52734 L 4.02344 -5.52734 Z"/>
  </g>
  <rect height="14" id="" style="fill:#00AEEF;stroke:none;opacity:0.4;" width="3" x="791.617" y="1919"/>
  <text style="stroke:none;fill:black;font-family:-apple-system,&quot;SF Pro Display&quot;,&quot;SF Pro Text&quot;,Helvetica,sans-serif;font-weight:bold;" transform="matrix(1 0 0 1 776 1953)">Margins</text>
  <text style="stroke:none;fill:black;font-family:-apple-system,&quot;SF Pro Display&quot;,&quot;SF Pro Text&quot;,Helvetica,sans-serif;" transform="matrix(1 0 0 1 776 1971)">Leading and trailing margins on the left and right side of each symbol</text>
  <text style="stroke:none;fill:black;font-family:-apple-system,&quot;SF Pro Display&quot;,&quot;SF Pro Text&quot;,Helvetica,sans-serif;" transform="matrix(1 0 0 1 776 1989)">can be adjusted by modifying the width of the blue rectangles.</text>
  <text style="stroke:none;fill:black;font-family:-apple-system,&quot;SF Pro Display&quot;,&quot;SF Pro Text&quot;,Helvetica,sans-serif;" transform="matrix(1 0 0 1 776 2007)">Modifications are automatically applied proportionally to all</text>
  <text style="stroke:none;fill:black;font-family:-apple-system,&quot;SF Pro Display&quot;,&quot;SF Pro Text&quot;,Helvetica,sans-serif;" transform="matrix(1 0 0 1 776 2025)">scales and weights.</text>
  <g id="" transform="matrix(1 0 0 1 1289 1933)">
   <path d="M 2.83203 3.11523 L 4.375 4.6582 C 5.22461 5.48828 6.19141 5.41992 7.06055 4.46289 L 17.2754 -6.66016 C 17.7051 -6.36719 18.0957 -6.37695 18.5645 -6.47461 L 19.6094 -6.68945 L 20.3027 -5.99609 L 20.2539 -5.47852 C 20.1855 -4.95117 20.3516 -4.53125 20.8496 -4.0332 L 21.6602 -3.22266 C 22.168 -2.71484 22.8223 -2.68555 23.3008 -3.16406 L 26.5527 -6.41602 C 27.0312 -6.89453 27.0117 -7.54883 26.5039 -8.05664 L 25.6836 -8.87695 C 25.1855 -9.375 24.7754 -9.55078 24.2383 -9.47266 L 23.7109 -9.41406 L 23.0566 -10.0781 L 23.3398 -11.2207 C 23.4863 -11.7871 23.3398 -12.2559 22.7148 -12.8613 L 20.3027 -15.2539 C 16.7578 -18.7793 12.2266 -18.6719 9.11133 -15.5371 C 8.69141 -15.1074 8.64258 -14.5215 8.91602 -14.0918 C 9.15039 -13.7207 9.62891 -13.4961 10.2734 -13.6621 C 11.7871 -14.043 13.3008 -13.9258 14.7852 -12.9199 L 14.1602 -11.3379 C 13.9258 -10.752 13.9453 -10.2734 14.1797 -9.83398 L 3.01758 0.439453 C 2.08008 1.30859 1.97266 2.25586 2.83203 3.11523 Z M 10.6738 -15.1465 C 13.3398 -17.1387 16.6504 -16.8262 19.0527 -14.4141 L 21.6797 -11.8066 C 21.9141 -11.5723 21.9434 -11.3867 21.8848 -11.0938 L 21.5039 -9.53125 L 23.0762 -7.95898 L 24.043 -8.04688 C 24.3262 -8.07617 24.4141 -8.05664 24.6387 -7.83203 L 25.2637 -7.20703 L 22.5098 -4.46289 L 21.8848 -5.07812 C 21.6602 -5.30273 21.6406 -5.40039 21.6699 -5.68359 L 21.7578 -6.64062 L 20.1953 -8.20312 L 18.5742 -7.89062 C 18.291 -7.83203 18.1445 -7.83203 17.9102 -8.07617 L 15.7324 -10.2539 C 15.5078 -10.4883 15.4785 -10.625 15.6055 -10.9473 L 16.5527 -13.2227 C 14.9512 -14.7559 12.8418 -15.6055 10.8008 -14.9512 C 10.7129 -14.9219 10.6445 -14.9414 10.6152 -14.9805 C 10.5859 -15.0293 10.5859 -15.0781 10.6738 -15.1465 Z M 4.10156 2.41211 C 3.61328 1.91406 3.78906 1.61133 4.12109 1.30859 L 15.0781 -8.80859 L 16.3086 -7.57812 L 6.15234 3.34961 C 5.84961 3.68164 5.46875 3.7793 5.06836 3.37891 Z"/>
  </g>
  <text style="stroke:none;fill:black;font-family:-apple-system,&quot;SF Pro Display&quot;,&quot;SF Pro Text&quot;,Helvetica,sans-serif;font-weight:bold;" transform="matrix(1 0 0 1 1289 1953)">Exporting</text>
  <text style="stroke:none;fill:black;font-family:-apple-system,&quot;SF Pro Display&quot;,&quot;SF Pro Text&quot;,Helvetica,sans-serif;" transform="matrix(1 0 0 1 1289 1971)">Symbols should be outlined when exporting to ensure the</text>
  <text style="stroke:none;fill:black;font-family:-apple-system,&quot;SF Pro Display&quot;,&quot;SF Pro Text&quot;,Helvetica,sans-serif;" transform="matrix(1 0 0 1 1289 1989)">design is preserved when submitting to Xcode.</text>
  <text id="template-version" style="stroke:none;fill:black;font-family:-apple-system,&quot;SF Pro Display&quot;,&quot;SF Pro Text&quot;,Helvetica,sans-serif;text-anchor:end;" transform="matrix(1 0 0 1 3036 1933)">Template v.1.0</text>
  <text style="stroke:none;fill:black;font-family:-apple-system,&quot;SF Pro Display&quot;,&quot;SF Pro Text&quot;,Helvetica,sans-serif;text-anchor:end;" transform="matrix(1 0 0 1 3036 1951)">Generated from 7.circle.fill</text>
  <text style="stroke:none;fill:black;font-family:-apple-system,&quot;SF Pro Display&quot;,&quot;SF Pro Text&quot;,Helvetica,sans-serif;text-anchor:end;" transform="matrix(1 0 0 1 3036 1969)">Typeset at 100 points</text>
  <text style="stroke:none;fill:black;font-family:-apple-system,&quot;SF Pro Display&quot;,&quot;SF Pro Text&quot;,Helvetica,sans-serif;" transform="matrix(1 0 0 1 263 726)">Small</text>
  <text style="stroke:none;fill:black;font-family:-apple-system,&quot;SF Pro Display&quot;,&quot;SF Pro Text&quot;,Helvetica,sans-serif;" transform="matrix(1 0 0 1 263 1156)">Medium</text>
  <text style="stroke:none;fill:black;font-family:-apple-system,&quot;SF Pro Display&quot;,&quot;SF Pro Text&quot;,Helvetica,sans-serif;" transform="matrix(1 0 0 1 263 1586)">Large</text>
 </g>
 <g id="Guides">
  <g id="H-reference" style="fill:#27AAE1;stroke:none;" transform="matrix(1 0 0 1 339 696)">
   <path d="M 54.9316 0 L 57.666 0 L 30.5664 -70.459 L 28.0762 -70.459 L 0.976562 0 L 3.66211 0 L 12.9395 -24.4629 L 45.7031 -24.4629 Z M 29.1992 -67.0898 L 29.4434 -67.0898 L 44.8242 -26.709 L 13.8184 -26.709 Z"/>
  </g>
  <line id="Baseline-S" style="fill:none;stroke:#27AAE1;opacity:1;stroke-width:0.577;" x1="263" x2="3036" y1="696" y2="696"/>
  <line id="Capline-S" style="fill:none;stroke:#27AAE1;opacity:1;stroke-width:0.577;" x1="263" x2="3036" y1="625.541" y2="625.541"/>
  <g id="H-reference" style="fill:#27AAE1;stroke:none;" transform="matrix(1 0 0 1 339 1126)">
   <path d="M 54.9316 0 L 57.666 0 L 30.5664 -70.459 L 28.0762 -70.459 L 0.976562 0 L 3.66211 0 L 12.9395 -24.4629 L 45.7031 -24.4629 Z M 29.1992 -67.0898 L 29.4434 -67.0898 L 44.8242 -26.709 L 13.8184 -26.709 Z"/>
  </g>
  <line id="Baseline-M" style="fill:none;stroke:#27AAE1;opacity:1;stroke-width:0.577;" x1="263" x2="3036" y1="1126" y2="1126"/>
  <line id="Capline-M" style="fill:none;stroke:#27AAE1;opacity:1;stroke-width:0.577;" x1="263" x2="3036" y1="1055.54" y2="1055.54"/>
  <g id="H-reference" style="fill:#27AAE1;stroke:none;" transform="matrix(1 0 0 1 339 1556)">
   <path d="M 54.9316 0 L 57.666 0 L 30.5664 -70.459 L 28.0762 -70.459 L 0.976562 0 L 3.66211 0 L 12.9395 -24.4629 L 45.7031 -24.4629 Z M 29.1992 -67.0898 L 29.4434 -67.0898 L 44.8242 -26.709 L 13.8184 -26.709 Z"/>
  </g>
  <line id="Baseline-L" style="fill:none;stroke:#27AAE1;opacity:1;stroke-width:0.577;" x1="263" x2="3036" y1="1556" y2="1556"/>
  <line id="Capline-L" style="fill:none;stroke:#27AAE1;opacity:1;stroke-width:0.577;" x1="263" x2="3036" y1="1485.54" y2="1485.54"/>
  <rect height="119.336" id="left-margin" style="fill:#00AEEF;stroke:none;opacity:0.4;" width="8.74023" x="1391.3" y="1030.79"/>
  <rect height="119.336" id="right-margin" style="fill:#00AEEF;stroke:none;opacity:0.4;" width="8.74023" x="1499.65" y="1030.79"/>
 </g>
 <g id="Symbols">
  <g id="Black-L" transform="matrix(1 0 0 1 2854.05 1556)">
   <path d="M 79.3457 32.8613 C 116.748 32.8613 147.412 2.19727 147.412 -35.2051 C 147.412 -72.6074 116.748 -103.271 79.2969 -103.271 C 41.8945 -103.271 11.2793 -72.6074 11.2793 -35.2051 C 11.2793 2.19727 41.9434 32.8613 79.3457 32.8613 Z M 72.9492 -4.78516 C 67.2852 -4.78516 63.4766 -8.05664 63.4766 -13.0371 C 63.4766 -15.2832 64.0625 -17.1387 65.1367 -18.8477 L 83.8867 -48.0957 L 83.8867 -48.877 L 62.9395 -48.877 C 57.7148 -48.877 54.3945 -51.7578 54.3945 -56.543 C 54.3945 -61.2305 57.666 -64.1602 62.9395 -64.1602 L 93.0664 -64.1602 C 100.488 -64.1602 105.029 -60.1074 105.029 -53.7109 C 105.029 -50.4395 104.15 -47.6074 102.002 -43.9941 L 82.3242 -11.2305 C 79.2969 -6.34766 77.002 -4.78516 72.9492 -4.78516 Z"/>
  </g>
  <g id="Heavy-L" transform="matrix(1 0 0 1 2558.39 1556)">
   <path d="M 78.2715 31.7871 C 115.088 31.7871 145.312 1.61133 145.312 -35.2051 C 145.312 -72.0215 115.039 -102.197 78.2715 -102.197 C 41.4551 -102.197 11.2793 -72.0215 11.2793 -35.2051 C 11.2793 1.61133 41.5039 31.7871 78.2715 31.7871 Z M 71.4844 -4.78516 C 66.6016 -4.78516 63.2324 -7.71484 63.2324 -12.0605 C 63.2324 -14.0625 63.7207 -15.625 64.6973 -17.1875 L 84.7656 -50.1953 L 84.7656 -50.8789 L 62.0605 -50.8789 C 57.5684 -50.8789 54.6875 -53.4668 54.6875 -57.5684 C 54.6875 -61.6699 57.5684 -64.2578 62.0605 -64.2578 L 92.5293 -64.2578 C 99.1211 -64.2578 103.174 -60.5957 103.174 -54.9805 C 103.174 -52.1484 102.441 -49.707 100.537 -46.4844 L 79.7363 -10.4492 C 77.1484 -6.20117 75.0488 -4.78516 71.4844 -4.78516 Z"/>
  </g>
  <g id="Bold-L" transform="matrix(1 0 0 1 2262.88 1556)">
   <path d="M 77.0996 30.6152 C 113.232 30.6152 142.92 0.878906 142.92 -35.2051 C 142.92 -71.3379 113.184 -101.025 77.0508 -101.025 C 40.9668 -101.025 11.2793 -71.3379 11.2793 -35.2051 C 11.2793 0.878906 41.0156 30.6152 77.0996 30.6152 Z M 69.9219 -4.78516 C 65.8203 -4.78516 62.9395 -7.27539 62.9395 -10.9863 C 62.9395 -12.6465 63.3789 -13.9648 64.1602 -15.332 L 85.6934 -52.5391 L 85.6934 -53.1738 L 61.0352 -53.1738 C 57.4219 -53.1738 55.0781 -55.3711 55.0781 -58.7891 C 55.0781 -62.1582 57.4219 -64.3555 61.0352 -64.3555 L 91.9922 -64.3555 C 97.6074 -64.3555 101.074 -61.1816 101.074 -56.3965 C 101.074 -54.1016 100.537 -52.0996 98.9258 -49.2676 L 76.8066 -9.57031 C 74.707 -6.00586 72.9004 -4.78516 69.9219 -4.78516 Z"/>
  </g>
  <g id="Semibold-L" transform="matrix(1 0 0 1 1966.97 1556)">
   <path d="M 76.2695 29.7852 C 111.914 29.7852 141.309 0.439453 141.309 -35.2051 C 141.309 -70.8496 111.865 -100.244 76.2695 -100.244 C 40.625 -100.244 11.2793 -70.8496 11.2793 -35.2051 C 11.2793 0.439453 40.6738 29.7852 76.2695 29.7852 Z M 68.7988 -4.83398 C 65.2832 -4.83398 62.7441 -6.98242 62.7441 -10.2051 C 62.7441 -11.6699 63.0859 -12.793 63.8184 -14.0625 L 86.3281 -54.1504 L 86.3281 -54.7852 L 60.3516 -54.7852 C 57.3242 -54.7852 55.3223 -56.6895 55.3223 -59.6191 C 55.3223 -62.5 57.3242 -64.4043 60.3516 -64.4043 L 91.6016 -64.4043 C 96.5332 -64.4043 99.6582 -61.5234 99.6582 -57.373 C 99.6582 -55.4688 99.2188 -53.7598 97.8027 -51.2207 L 74.8047 -8.98438 C 73.0469 -5.9082 71.4355 -4.83398 68.7988 -4.83398 Z"/>
  </g>
  <g id="Medium-L" transform="matrix(1 0 0 1 1670.87 1556)">
   <path d="M 75.6836 29.1992 C 110.938 29.1992 140.088 0.0488281 140.088 -35.2051 C 140.088 -70.459 110.889 -99.6094 75.6348 -99.6094 C 40.3809 -99.6094 11.2793 -70.459 11.2793 -35.2051 C 11.2793 0.0488281 40.3809 29.1992 75.6836 29.1992 Z M 67.9688 -4.83398 C 64.8926 -4.83398 62.5977 -6.78711 62.5977 -9.61914 C 62.5977 -10.9375 62.8906 -11.9141 63.5254 -13.0859 L 86.8164 -55.4199 L 86.8164 -55.957 L 59.8145 -55.957 C 57.2754 -55.957 55.5176 -57.7148 55.5176 -60.2539 C 55.5176 -62.7441 57.2266 -64.4531 59.8145 -64.4531 L 91.3086 -64.4531 C 95.752 -64.4531 98.584 -61.8164 98.584 -58.1055 C 98.584 -56.4941 98.2422 -54.9805 96.9238 -52.6855 L 73.291 -8.49609 C 71.8262 -5.81055 70.3125 -4.83398 67.9688 -4.83398 Z"/>
  </g>
  <g id="Regular-L" transform="matrix(1 0 0 1 1374.97 1556)">
   <path d="M 74.8535 28.3691 C 109.668 28.3691 138.477 -0.390625 138.477 -35.2051 C 138.477 -70.0195 109.619 -98.7793 74.8047 -98.7793 C 40.0391 -98.7793 11.2793 -70.0195 11.2793 -35.2051 C 11.2793 -0.390625 40.0879 28.3691 74.8535 28.3691 Z M 66.8945 -4.83398 C 64.3555 -4.83398 62.4023 -6.49414 62.4023 -8.88672 C 62.4023 -10.0098 62.6465 -10.791 63.1836 -11.8164 L 87.4512 -56.9824 L 87.4512 -57.5195 L 59.1309 -57.5195 C 57.1777 -57.5195 55.7617 -58.9844 55.7617 -61.084 C 55.7617 -63.0859 57.1289 -64.5508 59.1309 -64.5508 L 90.918 -64.5508 C 94.6777 -64.5508 97.168 -62.207 97.168 -59.082 C 97.168 -57.8125 96.9238 -56.6406 95.8496 -54.541 L 71.3379 -7.91016 C 70.166 -5.66406 68.8477 -4.83398 66.8945 -4.83398 Z"/>
  </g>
  <g id="Light-L" transform="matrix(1 0 0 1 1079.18 1556)">
   <path d="M 73.9258 27.4902 C 108.301 27.4902 136.621 -0.830078 136.621 -35.1562 C 136.621 -69.5312 108.252 -97.8516 73.9258 -97.8516 C 39.5508 -97.8516 11.2793 -69.5312 11.2793 -35.1562 C 11.2793 -0.830078 39.5996 27.4902 73.9258 27.4902 Z M 66.1621 -5.71289 C 64.1602 -5.71289 62.6953 -6.98242 62.6953 -8.83789 C 62.6953 -9.7168 62.8418 -10.3027 63.2812 -11.1328 L 87.8906 -57.9102 L 87.8906 -58.3984 L 58.7891 -58.3984 C 57.2266 -58.3984 56.1035 -59.5703 56.1035 -61.1816 C 56.1035 -62.793 57.1777 -63.9648 58.7891 -63.9648 L 90.2832 -63.9648 C 93.3594 -63.9648 95.3613 -62.1582 95.3613 -59.6191 C 95.3613 -58.5938 95.166 -57.666 94.3359 -56.0547 L 69.5801 -8.10547 C 68.7012 -6.34766 67.6758 -5.71289 66.1621 -5.71289 Z"/>
  </g>
  <g id="Thin-L" transform="matrix(1 0 0 1 783.693 1556)">
   <path d="M 72.7051 26.3184 C 106.494 26.3184 134.18 -1.36719 134.18 -35.1074 C 134.18 -68.8965 106.494 -96.582 72.7051 -96.582 C 38.9648 -96.582 11.2793 -68.8965 11.2793 -35.1074 C 11.2793 -1.36719 38.9648 26.3184 72.7051 26.3184 Z M 65.1855 -6.83594 C 63.916 -6.83594 63.0371 -7.61719 63.0371 -8.74023 C 63.0371 -9.32617 63.1348 -9.7168 63.4277 -10.2539 L 88.4766 -59.1309 L 88.4766 -59.5215 L 58.3496 -59.5215 C 57.2754 -59.5215 56.543 -60.3027 56.543 -61.377 C 56.543 -62.4023 57.2754 -63.2324 58.3496 -63.2324 L 89.502 -63.2324 C 91.6016 -63.2324 92.9688 -62.0605 92.9688 -60.4004 C 92.9688 -59.6191 92.8223 -59.0332 92.334 -58.0078 L 67.2852 -8.34961 C 66.748 -7.22656 66.1133 -6.83594 65.1855 -6.83594 Z"/>
  </g>
  <g id="Ultralight-L" transform="matrix(1 0 0 1 487.616 1556)">
   <path d="M 72.1191 25.7324 C 105.566 25.7324 132.91 -1.61133 132.91 -35.1074 C 132.91 -68.5547 105.566 -95.8984 72.1191 -95.8984 C 38.623 -95.8984 11.2793 -68.5547 11.2793 -35.1074 C 11.2793 -1.61133 38.623 25.7324 72.1191 25.7324 Z M 64.6973 -7.42188 C 63.8184 -7.42188 63.2324 -7.91016 63.2324 -8.69141 C 63.2324 -9.13086 63.2812 -9.375 63.5254 -9.81445 L 88.7695 -59.7656 L 88.7695 -60.0586 L 58.1543 -60.0586 C 57.2754 -60.0586 56.7383 -60.6934 56.7383 -61.4258 C 56.7383 -62.207 57.2754 -62.8418 58.1543 -62.8418 L 89.1113 -62.8418 C 90.7227 -62.8418 91.748 -62.0117 91.748 -60.791 C 91.748 -60.1562 91.6016 -59.7168 91.2598 -58.9844 L 66.1133 -8.44727 C 65.7227 -7.66602 65.332 -7.42188 64.6973 -7.42188 Z"/>
  </g>
  <g id="Black-M" transform="matrix(1 0 0 1 2870.97 1126)">
   <path d="M 62.4023 18.457 C 91.9922 18.457 116.113 -5.61523 116.113 -35.2051 C 116.113 -64.7949 91.9922 -88.8672 62.4023 -88.8672 C 32.8125 -88.8672 8.74023 -64.7949 8.74023 -35.2051 C 8.74023 -5.61523 32.8125 18.457 62.4023 18.457 Z M 58.0566 -12.0605 C 52.9785 -12.0605 49.6582 -14.9414 49.6582 -19.3359 C 49.6582 -21.2891 50.2441 -22.998 51.1719 -24.4629 L 64.1113 -42.8711 L 64.1113 -43.5059 L 49.8535 -43.5059 C 44.9219 -43.5059 41.8945 -46.0449 41.8945 -50.3418 C 41.8945 -54.6387 44.9219 -57.2266 49.8535 -57.2266 L 72.4609 -57.2266 C 79.0039 -57.2266 82.9102 -53.8574 82.9102 -48.1934 C 82.9102 -45.0684 82.0801 -42.4805 80.1758 -39.4531 L 66.3574 -17.7734 C 63.5742 -13.4277 61.6211 -12.0605 58.0566 -12.0605 Z"/>
  </g>
  <g id="Heavy-M" transform="matrix(1 0 0 1 2575.19 1126)">
   <path d="M 61.5234 17.5781 C 90.5273 17.5781 114.258 -6.15234 114.258 -35.2051 C 114.258 -64.2578 90.5273 -87.9883 61.4746 -87.9883 C 32.4707 -87.9883 8.74023 -64.2578 8.74023 -35.2051 C 8.74023 -6.15234 32.4707 17.5781 61.5234 17.5781 Z M 56.6895 -11.8652 C 52.2949 -11.8652 49.3164 -14.4043 49.3164 -18.2617 C 49.3164 -20.0195 49.8047 -21.4844 50.6348 -22.8027 L 64.9414 -44.9219 L 64.9414 -45.5078 L 48.9258 -45.5078 C 44.7754 -45.5078 42.1387 -47.7539 42.1387 -51.5137 C 42.1387 -55.1758 44.7266 -57.4707 48.9258 -57.4707 L 72.0703 -57.4707 C 77.8809 -57.4707 81.3477 -54.3945 81.3477 -49.4141 C 81.3477 -46.7773 80.6641 -44.5312 79.0039 -41.7969 L 63.9648 -16.8945 C 61.6211 -13.0859 59.8145 -11.8652 56.6895 -11.8652 Z"/>
  </g>
  <g id="Bold-M" transform="matrix(1 0 0 1 2279.5 1126)">
   <path d="M 60.498 16.5039 C 88.8672 16.5039 112.207 -6.78711 112.207 -35.2051 C 112.207 -63.623 88.8672 -86.9629 60.4492 -86.9629 C 32.0312 -86.9629 8.74023 -63.623 8.74023 -35.2051 C 8.74023 -6.78711 32.0801 16.5039 60.498 16.5039 Z M 55.127 -11.6211 C 51.5137 -11.6211 48.9258 -13.8184 48.9258 -17.0898 C 48.9258 -18.5547 49.3164 -19.7754 50.0488 -20.9473 L 65.8203 -47.2168 L 65.8203 -47.7539 L 47.9492 -47.7539 C 44.5801 -47.7539 42.4316 -49.707 42.4316 -52.7832 C 42.4316 -55.8105 44.5801 -57.7637 47.9492 -57.7637 L 71.6309 -57.7637 C 76.5625 -57.7637 79.6387 -54.9805 79.6387 -50.7812 C 79.6387 -48.6816 79.1016 -46.875 77.6855 -44.4336 L 61.3281 -15.8691 C 59.375 -12.6953 57.8125 -11.6211 55.127 -11.6211 Z"/>
  </g>
  <g id="Semibold-M" transform="matrix(1 0 0 1 1983.5 1126)">
   <path d="M 59.7656 15.8203 C 87.7441 15.8203 110.791 -7.22656 110.791 -35.2051 C 110.791 -63.1836 87.6953 -86.2793 59.7656 -86.2793 C 31.7871 -86.2793 8.74023 -63.1836 8.74023 -35.2051 C 8.74023 -7.22656 31.7871 15.8203 59.7656 15.8203 Z M 54.1016 -11.4746 C 50.9277 -11.4746 48.6816 -13.3789 48.6816 -16.2598 C 48.6816 -17.5781 48.9746 -18.6035 49.6094 -19.6777 L 66.4551 -48.8281 L 66.4551 -49.3164 L 47.2168 -49.3164 C 44.4824 -49.3164 42.627 -51.0254 42.627 -53.6621 C 42.627 -56.25 44.4336 -57.959 47.2168 -57.959 L 71.3379 -57.959 C 75.6836 -57.959 78.418 -55.4199 78.418 -51.709 C 78.418 -50 78.0273 -48.4375 76.7578 -46.2402 L 59.4727 -15.1855 C 57.8613 -12.4023 56.4453 -11.4746 54.1016 -11.4746 Z"/>
  </g>
  <g id="Medium-M" transform="matrix(1 0 0 1 1687.3 1126)">
   <path d="M 59.2285 15.2832 C 86.9141 15.2832 109.766 -7.56836 109.766 -35.2051 C 109.766 -62.8906 86.8652 -85.7422 59.1797 -85.7422 C 31.543 -85.7422 8.74023 -62.8906 8.74023 -35.2051 C 8.74023 -7.56836 31.5918 15.2832 59.2285 15.2832 Z M 53.3203 -11.377 C 50.5371 -11.377 48.4863 -13.0859 48.4863 -15.6738 C 48.4863 -16.8457 48.7305 -17.7246 49.3164 -18.7012 L 66.8945 -50 L 66.8945 -50.4883 L 46.6797 -50.4883 C 44.3848 -50.4883 42.8223 -52.002 42.8223 -54.2969 C 42.8223 -56.543 44.3848 -58.1055 46.6797 -58.1055 L 71.0938 -58.1055 C 75 -58.1055 77.5391 -55.7617 77.5391 -52.4414 C 77.5391 -50.9766 77.1973 -49.6582 76.0254 -47.6074 L 58.1055 -14.6484 C 56.7383 -12.207 55.3711 -11.377 53.3203 -11.377 Z"/>
  </g>
  <g id="Regular-M" transform="matrix(1 0 0 1 1391.3 1126)">
   <path d="M 58.5449 14.5508 C 85.791 14.5508 108.35 -8.00781 108.35 -35.2539 C 108.35 -62.4512 85.7422 -85.0586 58.4961 -85.0586 C 31.2988 -85.0586 8.74023 -62.4512 8.74023 -35.2539 C 8.74023 -8.00781 31.3477 14.5508 58.5449 14.5508 Z M 52.2461 -11.1816 C 50 -11.1816 48.1934 -12.6953 48.1934 -14.8438 C 48.1934 -15.8691 48.4375 -16.5527 48.877 -17.4316 L 67.5293 -51.5625 L 67.5293 -52.002 L 45.9961 -52.002 C 44.2871 -52.002 43.0176 -53.3203 43.0176 -55.1758 C 43.0176 -56.9824 44.2383 -58.252 45.9961 -58.252 L 70.8008 -58.252 C 74.1211 -58.252 76.3672 -56.1523 76.3672 -53.3691 C 76.3672 -52.2949 76.123 -51.2207 75.1465 -49.3652 L 56.25 -13.9648 C 55.2246 -11.9629 54.0039 -11.1816 52.2461 -11.1816 Z"/>
  </g>
  <g id="Light-M" transform="matrix(1 0 0 1 1095.42 1126)">
   <path d="M 57.7148 13.7695 C 84.5215 13.7695 106.689 -8.39844 106.689 -35.2051 C 106.689 -62.0117 84.5215 -84.1797 57.666 -84.1797 C 30.8594 -84.1797 8.74023 -62.0117 8.74023 -35.2051 C 8.74023 -8.39844 30.9082 13.7695 57.7148 13.7695 Z M 51.6113 -11.9629 C 49.8047 -11.9629 48.4375 -13.0859 48.4375 -14.7949 C 48.4375 -15.5762 48.6328 -16.1133 48.9746 -16.8457 L 67.9199 -52.3926 L 67.9199 -52.7832 L 45.7031 -52.7832 C 44.3359 -52.7832 43.3105 -53.8086 43.3105 -55.2734 C 43.3105 -56.7383 44.2871 -57.7637 45.7031 -57.7637 L 70.2637 -57.7637 C 72.9492 -57.7637 74.707 -56.1035 74.707 -53.9062 C 74.707 -52.9785 74.5117 -52.1484 73.7793 -50.6836 L 54.6875 -14.1113 C 53.9062 -12.5488 52.9785 -11.9629 51.6113 -11.9629 Z"/>
  </g>
  <g id="Thin-M" transform="matrix(1 0 0 1 799.806 1126)">
   <path d="M 56.6406 12.7441 C 82.9102 12.7441 104.492 -8.83789 104.492 -35.1562 C 104.492 -61.4746 82.9102 -83.0566 56.5918 -83.0566 C 30.3223 -83.0566 8.74023 -61.4746 8.74023 -35.1562 C 8.74023 -8.83789 30.3223 12.7441 56.6406 12.7441 Z M 50.7324 -12.9883 C 49.6094 -12.9883 48.7793 -13.6719 48.7793 -14.7461 C 48.7793 -15.2344 48.877 -15.5762 49.1211 -16.0645 L 68.457 -53.5156 L 68.457 -53.8086 L 45.3125 -53.8086 C 44.3848 -53.8086 43.7012 -54.4922 43.7012 -55.4199 C 43.7012 -56.3477 44.3359 -57.0801 45.3125 -57.0801 L 69.5312 -57.0801 C 71.3867 -57.0801 72.5586 -56.0547 72.5586 -54.5898 C 72.5586 -53.9062 72.4121 -53.3691 71.9727 -52.4414 L 52.6367 -14.3555 C 52.1484 -13.3301 51.5625 -12.9883 50.7324 -12.9883 Z"/>
  </g>
  <g id="Ultralight-M" transform="matrix(1 0 0 1 503.656 1126)">
   <path d="M 56.0547 12.207 C 82.0801 12.207 103.369 -9.08203 103.369 -35.1562 C 103.369 -61.1816 82.0801 -82.4707 56.0547 -82.4707 C 30.0293 -82.4707 8.74023 -61.1816 8.74023 -35.1562 C 8.74023 -9.08203 30.0293 12.207 56.0547 12.207 Z M 50.293 -13.4766 C 49.5117 -13.4766 48.9746 -13.9648 48.9746 -14.6973 C 48.9746 -15.0391 49.0234 -15.2832 49.1699 -15.6738 L 68.7012 -54.0527 L 68.7012 -54.2969 L 45.1172 -54.2969 C 44.3848 -54.2969 43.8965 -54.8828 43.8965 -55.5176 C 43.8965 -56.2012 44.3848 -56.7383 45.1172 -56.7383 L 69.1406 -56.7383 C 70.5566 -56.7383 71.4844 -56.0059 71.4844 -54.9316 C 71.4844 -54.3945 71.3379 -54.0039 71.0449 -53.3691 L 51.6113 -14.4531 C 51.2207 -13.7207 50.8789 -13.4766 50.293 -13.4766 Z"/>
  </g>
  <g id="Black-S" transform="matrix(1 0 0 1 2884.57 696)">
   <path d="M 48.8281 6.78711 C 71.9727 6.78711 90.8203 -12.0605 90.8203 -35.2051 C 90.8203 -58.3496 71.9727 -77.1973 48.8281 -77.1973 C 25.6836 -77.1973 6.83594 -58.3496 6.83594 -35.2051 C 6.83594 -12.0605 25.6836 6.78711 48.8281 6.78711 Z M 45.3613 -17.041 C 41.4551 -17.041 38.8672 -19.2871 38.8672 -22.7051 C 38.8672 -24.2188 39.3066 -25.5371 40.0391 -26.6602 L 50.293 -41.3574 L 50.293 -41.8457 L 38.9648 -41.8457 C 35.1562 -41.8457 32.8125 -43.8477 32.8125 -47.168 C 32.8125 -50.4883 35.1562 -52.4902 38.9648 -52.4902 L 56.7383 -52.4902 C 61.8164 -52.4902 64.8438 -49.8535 64.8438 -45.459 C 64.8438 -43.0664 64.209 -41.0645 62.7441 -38.7207 L 51.8066 -21.4844 C 49.6582 -18.1152 48.1445 -17.041 45.3613 -17.041 Z"/>
  </g>
  <g id="Heavy-S" transform="matrix(1 0 0 1 2588.47 696)">
   <path d="M 48.2422 6.15234 C 70.9961 6.15234 89.5996 -12.4512 89.5996 -35.2051 C 89.5996 -57.959 70.9961 -76.6113 48.1934 -76.6113 C 25.4395 -76.6113 6.83594 -57.959 6.83594 -35.2051 C 6.83594 -12.4512 25.4395 6.15234 48.2422 6.15234 Z M 44.3848 -16.7969 C 40.918 -16.7969 38.5742 -18.8477 38.5742 -21.875 C 38.5742 -23.2422 38.9648 -24.4141 39.5996 -25.4395 L 50.8789 -42.8223 L 50.8789 -43.3105 L 38.3301 -43.3105 C 35.0586 -43.3105 33.0078 -45.1172 33.0078 -48.0469 C 33.0078 -50.9277 35.0098 -52.7344 38.3301 -52.7344 L 56.4941 -52.7344 C 61.084 -52.7344 63.8184 -50.293 63.8184 -46.3379 C 63.8184 -44.2871 63.3301 -42.5293 61.9629 -40.3809 L 50.1465 -20.752 C 48.291 -17.7734 46.875 -16.7969 44.3848 -16.7969 Z"/>
  </g>
  <g id="Bold-S" transform="matrix(1 0 0 1 2292.44 696)">
   <path d="M 47.5586 5.46875 C 69.873 5.46875 88.2324 -12.8906 88.2324 -35.2051 C 88.2324 -57.5684 69.873 -75.9277 47.5098 -75.9277 C 25.1953 -75.9277 6.83594 -57.5684 6.83594 -35.2051 C 6.83594 -12.8906 25.1953 5.46875 47.5586 5.46875 Z M 43.3105 -16.5527 C 40.332 -16.5527 38.2324 -18.3105 38.2324 -20.9961 C 38.2324 -22.2168 38.5742 -23.1445 39.1602 -24.1211 L 51.5137 -44.4824 L 51.5137 -44.9219 L 37.5977 -44.9219 C 34.9121 -44.9219 33.1543 -46.4844 33.1543 -48.9746 C 33.1543 -51.4648 34.9121 -53.0273 37.5977 -53.0273 L 56.25 -53.0273 C 60.2539 -53.0273 62.6953 -50.7324 62.6953 -47.3145 C 62.6953 -45.6543 62.3047 -44.1895 61.1328 -42.1875 L 48.3398 -19.9707 C 46.7773 -17.3828 45.459 -16.5527 43.3105 -16.5527 Z"/>
  </g>
  <g id="Semibold-S" transform="matrix(1 0 0 1 1996.2 696)">
   <path d="M 47.0703 4.98047 C 69.0918 4.98047 87.3047 -13.1836 87.3047 -35.2539 C 87.3047 -57.2754 69.0918 -75.4883 47.0215 -75.4883 C 25 -75.4883 6.83594 -57.2754 6.83594 -35.2539 C 6.83594 -13.1836 25.0488 4.98047 47.0703 4.98047 Z M 42.5781 -16.3574 C 39.9414 -16.3574 38.0371 -17.9688 38.0371 -20.3613 C 38.0371 -21.4844 38.2812 -22.3145 38.8184 -23.1934 L 51.9531 -45.6543 L 51.9531 -46.0449 L 37.0605 -46.0449 C 34.8145 -46.0449 33.3008 -47.4609 33.3008 -49.6582 C 33.3008 -51.8066 34.8145 -53.2227 37.0605 -53.2227 L 56.0547 -53.2227 C 59.668 -53.2227 61.9629 -51.0742 61.9629 -47.998 C 61.9629 -46.582 61.6211 -45.3125 60.5469 -43.457 L 47.0703 -19.4336 C 45.7031 -17.1387 44.4824 -16.3574 42.5781 -16.3574 Z"/>
  </g>
  <g id="Medium-S" transform="matrix(1 0 0 1 1699.83 696)">
   <path d="M 46.7285 4.63867 C 68.5547 4.63867 86.6211 -13.4277 86.6211 -35.2539 C 86.6211 -57.0312 68.5059 -75.1465 46.6797 -75.1465 C 24.8535 -75.1465 6.83594 -57.0312 6.83594 -35.2539 C 6.83594 -13.4277 24.9023 4.63867 46.7285 4.63867 Z M 41.9922 -16.2109 C 39.6484 -16.2109 37.8418 -17.7246 37.8418 -19.873 C 37.8418 -20.8984 38.0859 -21.6309 38.5742 -22.5098 L 52.2461 -46.4844 L 52.2461 -46.9238 L 36.6699 -46.9238 C 34.7656 -46.9238 33.3984 -48.1934 33.3984 -50.1465 C 33.3984 -52.0508 34.7168 -53.3691 36.6699 -53.3691 L 55.9082 -53.3691 C 59.2285 -53.3691 61.377 -51.3184 61.377 -48.5352 C 61.377 -47.3145 61.084 -46.1914 60.1074 -44.4336 L 46.0938 -19.043 C 44.9219 -16.9434 43.75 -16.2109 41.9922 -16.2109 Z"/>
  </g>
  <g id="Regular-S" transform="matrix(1 0 0 1 1403.58 696)">
   <path d="M 46.2402 4.15039 C 67.7734 4.15039 85.6934 -13.7207 85.6934 -35.2539 C 85.6934 -56.7871 67.7246 -74.6582 46.1914 -74.6582 C 24.707 -74.6582 6.83594 -56.7871 6.83594 -35.2539 C 6.83594 -13.7207 24.7559 4.15039 46.2402 4.15039 Z M 41.2598 -16.0156 C 39.209 -16.0156 37.6465 -17.334 37.6465 -19.2871 C 37.6465 -20.166 37.8418 -20.8008 38.2324 -21.582 L 52.6855 -47.6562 L 52.6855 -47.998 L 36.1816 -47.998 C 34.668 -47.998 33.5449 -49.1699 33.5449 -50.7812 C 33.5449 -52.3926 34.6191 -53.5156 36.1816 -53.5156 L 55.7129 -53.5156 C 58.6426 -53.5156 60.5957 -51.6602 60.5957 -49.2188 C 60.5957 -48.2422 60.4004 -47.3145 59.5215 -45.6543 L 44.8242 -18.5059 C 43.8965 -16.6992 42.8223 -16.0156 41.2598 -16.0156 Z"/>
  </g>
  <g id="Light-S" transform="matrix(1 0 0 1 1107.6 696)">
   <path d="M 45.5078 3.4668 C 66.6992 3.4668 84.2285 -14.0625 84.2285 -35.2051 C 84.2285 -56.3965 66.6504 -73.9258 45.5078 -73.9258 C 24.3164 -73.9258 6.83594 -56.3965 6.83594 -35.2051 C 6.83594 -14.0625 24.3652 3.4668 45.5078 3.4668 Z M 40.6738 -16.6992 C 39.0625 -16.6992 37.8418 -17.7246 37.8418 -19.2383 C 37.8418 -19.9219 37.9883 -20.4102 38.3301 -21.0449 L 53.0273 -48.3887 L 53.0273 -48.6816 L 35.9375 -48.6816 C 34.7168 -48.6816 33.7891 -49.6094 33.7891 -50.8789 C 33.7891 -52.1484 34.668 -53.0762 35.9375 -53.0762 L 55.2246 -53.0762 C 57.6172 -53.0762 59.1309 -51.6113 59.1309 -49.6582 C 59.1309 -48.877 58.9844 -48.1445 58.3008 -46.8262 L 43.457 -18.6523 C 42.7246 -17.2363 41.8945 -16.6992 40.6738 -16.6992 Z"/>
  </g>
  <g id="Thin-S" transform="matrix(1 0 0 1 811.867 696)">
   <path d="M 44.5801 2.53906 C 65.2832 2.53906 82.2754 -14.4531 82.2754 -35.2051 C 82.2754 -55.9082 65.2344 -72.9004 44.5312 -72.9004 C 23.8281 -72.9004 6.83594 -55.9082 6.83594 -35.2051 C 6.83594 -14.4531 23.877 2.53906 44.5801 2.53906 Z M 39.8926 -17.5781 C 38.916 -17.5781 38.1348 -18.2129 38.1348 -19.1895 C 38.1348 -19.6289 38.2324 -19.9219 38.4277 -20.3613 L 53.5156 -49.3164 L 53.5156 -49.5605 L 35.5957 -49.5605 C 34.7168 -49.5605 34.1309 -50.1953 34.1309 -51.0254 C 34.1309 -51.8555 34.7168 -52.4902 35.5957 -52.4902 L 54.5898 -52.4902 C 56.2012 -52.4902 57.2754 -51.5625 57.2754 -50.2441 C 57.2754 -49.6582 57.1289 -49.2188 56.7383 -48.3887 L 41.6504 -18.7988 C 41.1621 -17.9199 40.6738 -17.5781 39.8926 -17.5781 Z"/>
  </g>
  <g id="Ultralight-S" transform="matrix(1 0 0 1 515.644 696)">
   <path d="M 44.043 2.05078 C 64.502 2.05078 81.2988 -14.6973 81.2988 -35.1562 C 81.2988 -55.6152 64.502 -72.3633 44.043 -72.3633 C 23.584 -72.3633 6.83594 -55.6152 6.83594 -35.1562 C 6.83594 -14.6973 23.584 2.05078 44.043 2.05078 Z M 39.502 -18.0664 C 38.7695 -18.0664 38.2812 -18.5059 38.2812 -19.1406 C 38.2812 -19.4824 38.3301 -19.6777 38.5254 -20.0195 L 53.7598 -49.8535 L 53.7598 -50.0488 L 35.4004 -50.0488 C 34.7656 -50.0488 34.3262 -50.5371 34.3262 -51.123 C 34.3262 -51.709 34.7656 -52.1484 35.4004 -52.1484 L 54.2969 -52.1484 C 55.4688 -52.1484 56.2988 -51.5137 56.2988 -50.5859 C 56.2988 -50.0977 56.1523 -49.7559 55.9082 -49.1699 L 40.6738 -18.9453 C 40.3809 -18.2617 40.0391 -18.0664 39.502 -18.0664 Z"/>
  </g>
 </g>
</svg>
