<?xml version="1.0" encoding="UTF-8"?>
<!--Generator: Apple Native CoreSVG 123-->
<!DOCTYPE svg
PUBLIC "-//W3C//DTD SVG 1.1//EN"
       "http://www.w3.org/Graphics/SVG/1.1/DTD/svg11.dtd">
<svg version="1.1" xmlns="http://www.w3.org/2000/svg" xmlns:xlink="http://www.w3.org/1999/xlink" width="3300" height="2200">
 <!--glyph: "uni100049.medium", point size: 100.000000, font version: "Version 15.0d7e11", template writer version: "5"-->
 <g id="Notes">
  <rect height="2200" id="artboard" style="fill:white;opacity:1" width="3300" x="0" y="0"/>
  <line id="" style="fill:none;stroke:black;opacity:1;stroke-width:0.5;" x1="263" x2="3036" y1="292" y2="292"/>
  <text style="stroke:none;fill:black;font-family:-apple-system,&quot;SF Pro Display&quot;,&quot;SF Pro Text&quot;,Helvetica,sans-serif;font-weight:bold;" transform="matrix(1 0 0 1 263 322)">Weight/Scale Variations</text>
  <text style="stroke:none;fill:black;font-family:-apple-system,&quot;SF Pro Display&quot;,&quot;SF Pro Text&quot;,Helvetica,sans-serif;text-anchor:middle;" transform="matrix(1 0 0 1 559.711 322)">Ultralight</text>
  <text style="stroke:none;fill:black;font-family:-apple-system,&quot;SF Pro Display&quot;,&quot;SF Pro Text&quot;,Helvetica,sans-serif;text-anchor:middle;" transform="matrix(1 0 0 1 856.422 322)">Thin</text>
  <text style="stroke:none;fill:black;font-family:-apple-system,&quot;SF Pro Display&quot;,&quot;SF Pro Text&quot;,Helvetica,sans-serif;text-anchor:middle;" transform="matrix(1 0 0 1 1153.13 322)">Light</text>
  <text style="stroke:none;fill:black;font-family:-apple-system,&quot;SF Pro Display&quot;,&quot;SF Pro Text&quot;,Helvetica,sans-serif;text-anchor:middle;" transform="matrix(1 0 0 1 1449.84 322)">Regular</text>
  <text style="stroke:none;fill:black;font-family:-apple-system,&quot;SF Pro Display&quot;,&quot;SF Pro Text&quot;,Helvetica,sans-serif;text-anchor:middle;" transform="matrix(1 0 0 1 1746.56 322)">Medium</text>
  <text style="stroke:none;fill:black;font-family:-apple-system,&quot;SF Pro Display&quot;,&quot;SF Pro Text&quot;,Helvetica,sans-serif;text-anchor:middle;" transform="matrix(1 0 0 1 2043.27 322)">Semibold</text>
  <text style="stroke:none;fill:black;font-family:-apple-system,&quot;SF Pro Display&quot;,&quot;SF Pro Text&quot;,Helvetica,sans-serif;text-anchor:middle;" transform="matrix(1 0 0 1 2339.98 322)">Bold</text>
  <text style="stroke:none;fill:black;font-family:-apple-system,&quot;SF Pro Display&quot;,&quot;SF Pro Text&quot;,Helvetica,sans-serif;text-anchor:middle;" transform="matrix(1 0 0 1 2636.69 322)">Heavy</text>
  <text style="stroke:none;fill:black;font-family:-apple-system,&quot;SF Pro Display&quot;,&quot;SF Pro Text&quot;,Helvetica,sans-serif;text-anchor:middle;" transform="matrix(1 0 0 1 2933.4 322)">Black</text>
  <line id="" style="fill:none;stroke:black;opacity:1;stroke-width:0.5;" x1="263" x2="3036" y1="1903" y2="1903"/>
  <g id="" transform="matrix(1 0 0 1 263 1933)">
   <path d="M 9.24805 0.830078 C 13.5547 0.830078 17.1387 -2.74414 17.1387 -7.05078 C 17.1387 -11.3574 13.5449 -14.9316 9.23828 -14.9316 C 4.94141 -14.9316 1.36719 -11.3574 1.36719 -7.05078 C 1.36719 -2.74414 4.95117 0.830078 9.24805 0.830078 Z M 9.24805 -0.654297 C 5.70312 -0.654297 2.87109 -3.49609 2.87109 -7.05078 C 2.87109 -10.6055 5.69336 -13.4473 9.23828 -13.4473 C 12.793 -13.4473 15.6348 -10.6055 15.6445 -7.05078 C 15.6543 -3.49609 12.8027 -0.654297 9.24805 -0.654297 Z M 9.22852 -3.42773 C 9.69727 -3.42773 9.9707 -3.74023 9.9707 -4.25781 L 9.9707 -6.31836 L 12.1973 -6.31836 C 12.6953 -6.31836 13.0371 -6.57227 13.0371 -7.04102 C 13.0371 -7.51953 12.7148 -7.7832 12.1973 -7.7832 L 9.9707 -7.7832 L 9.9707 -10.0098 C 9.9707 -10.5273 9.69727 -10.8496 9.22852 -10.8496 C 8.75977 -10.8496 8.50586 -10.5078 8.50586 -10.0098 L 8.50586 -7.7832 L 6.29883 -7.7832 C 5.78125 -7.7832 5.44922 -7.51953 5.44922 -7.04102 C 5.44922 -6.57227 5.80078 -6.31836 6.29883 -6.31836 L 8.50586 -6.31836 L 8.50586 -4.25781 C 8.50586 -3.75977 8.75977 -3.42773 9.22852 -3.42773 Z"/>
  </g>
  <g id="" transform="matrix(1 0 0 1 281.506 1933)">
   <path d="M 11.709 2.91016 C 17.1582 2.91016 21.6699 -1.60156 21.6699 -7.05078 C 21.6699 -12.4902 17.1484 -17.0117 11.6992 -17.0117 C 6.25977 -17.0117 1.74805 -12.4902 1.74805 -7.05078 C 1.74805 -1.60156 6.26953 2.91016 11.709 2.91016 Z M 11.709 1.25 C 7.09961 1.25 3.41797 -2.44141 3.41797 -7.05078 C 3.41797 -11.6504 7.08984 -15.3516 11.6992 -15.3516 C 16.3086 -15.3516 20 -11.6504 20.0098 -7.05078 C 20.0195 -2.44141 16.3184 1.25 11.709 1.25 Z M 11.6895 -2.41211 C 12.207 -2.41211 12.5195 -2.77344 12.5195 -3.33984 L 12.5195 -6.23047 L 15.5762 -6.23047 C 16.123 -6.23047 16.5039 -6.51367 16.5039 -7.03125 C 16.5039 -7.55859 16.1426 -7.86133 15.5762 -7.86133 L 12.5195 -7.86133 L 12.5195 -10.9277 C 12.5195 -11.5039 12.207 -11.8555 11.6895 -11.8555 C 11.1719 -11.8555 10.8789 -11.4844 10.8789 -10.9277 L 10.8789 -7.86133 L 7.83203 -7.86133 C 7.26562 -7.86133 6.89453 -7.55859 6.89453 -7.03125 C 6.89453 -6.51367 7.28516 -6.23047 7.83203 -6.23047 L 10.8789 -6.23047 L 10.8789 -3.33984 C 10.8789 -2.79297 11.1719 -2.41211 11.6895 -2.41211 Z"/>
  </g>
  <g id="" transform="matrix(1 0 0 1 304.924 1933)">
   <path d="M 14.9707 5.67383 C 21.9336 5.67383 27.6953 -0.078125 27.6953 -7.04102 C 27.6953 -14.0039 21.9238 -19.7559 14.9609 -19.7559 C 8.00781 -19.7559 2.25586 -14.0039 2.25586 -7.04102 C 2.25586 -0.078125 8.01758 5.67383 14.9707 5.67383 Z M 14.9707 3.85742 C 8.93555 3.85742 4.08203 -1.00586 4.08203 -7.04102 C 4.08203 -13.0762 8.92578 -17.9395 14.9609 -17.9395 C 21.0059 -17.9395 25.8594 -13.0762 25.8691 -7.04102 C 25.8789 -1.00586 21.0156 3.85742 14.9707 3.85742 Z M 14.9512 -1.06445 C 15.5176 -1.06445 15.8691 -1.45508 15.8691 -2.06055 L 15.8691 -6.13281 L 20.1074 -6.13281 C 20.6934 -6.13281 21.1133 -6.46484 21.1133 -7.02148 C 21.1133 -7.59766 20.7227 -7.93945 20.1074 -7.93945 L 15.8691 -7.93945 L 15.8691 -12.1875 C 15.8691 -12.8027 15.5176 -13.1934 14.9512 -13.1934 C 14.3848 -13.1934 14.0625 -12.7832 14.0625 -12.1875 L 14.0625 -7.93945 L 9.83398 -7.93945 C 9.21875 -7.93945 8.80859 -7.59766 8.80859 -7.02148 C 8.80859 -6.46484 9.23828 -6.13281 9.83398 -6.13281 L 14.0625 -6.13281 L 14.0625 -2.06055 C 14.0625 -1.47461 14.3848 -1.06445 14.9512 -1.06445 Z"/>
  </g>
  <text style="stroke:none;fill:black;font-family:-apple-system,&quot;SF Pro Display&quot;,&quot;SF Pro Text&quot;,Helvetica,sans-serif;font-weight:bold;" transform="matrix(1 0 0 1 263 1953)">Design Variations</text>
  <text style="stroke:none;fill:black;font-family:-apple-system,&quot;SF Pro Display&quot;,&quot;SF Pro Text&quot;,Helvetica,sans-serif;" transform="matrix(1 0 0 1 263 1971)">Symbols are supported in up to nine weights and three scales.</text>
  <text style="stroke:none;fill:black;font-family:-apple-system,&quot;SF Pro Display&quot;,&quot;SF Pro Text&quot;,Helvetica,sans-serif;" transform="matrix(1 0 0 1 263 1989)">For optimal layout with text and other symbols, vertically align</text>
  <text style="stroke:none;fill:black;font-family:-apple-system,&quot;SF Pro Display&quot;,&quot;SF Pro Text&quot;,Helvetica,sans-serif;" transform="matrix(1 0 0 1 263 2007)">symbols with the adjacent text.</text>
  <rect height="14" id="" style="fill:#00AEEF;stroke:none;opacity:0.4;" width="3" x="776" y="1919"/>
  <g id="" transform="matrix(1 0 0 1 779 1933)">
   <path d="M 10.5273 0 L 12.373 0 L 7.17773 -14.0918 L 5.43945 -14.0918 L 0.244141 0 L 2.08984 0 L 3.50586 -4.0332 L 9.11133 -4.0332 Z M 6.2793 -11.9531 L 6.33789 -11.9531 L 8.59375 -5.52734 L 4.02344 -5.52734 Z"/>
  </g>
  <rect height="14" id="" style="fill:#00AEEF;stroke:none;opacity:0.4;" width="3" x="791.617" y="1919"/>
  <text style="stroke:none;fill:black;font-family:-apple-system,&quot;SF Pro Display&quot;,&quot;SF Pro Text&quot;,Helvetica,sans-serif;font-weight:bold;" transform="matrix(1 0 0 1 776 1953)">Margins</text>
  <text style="stroke:none;fill:black;font-family:-apple-system,&quot;SF Pro Display&quot;,&quot;SF Pro Text&quot;,Helvetica,sans-serif;" transform="matrix(1 0 0 1 776 1971)">Leading and trailing margins on the left and right side of each symbol</text>
  <text style="stroke:none;fill:black;font-family:-apple-system,&quot;SF Pro Display&quot;,&quot;SF Pro Text&quot;,Helvetica,sans-serif;" transform="matrix(1 0 0 1 776 1989)">can be adjusted by modifying the width of the blue rectangles.</text>
  <text style="stroke:none;fill:black;font-family:-apple-system,&quot;SF Pro Display&quot;,&quot;SF Pro Text&quot;,Helvetica,sans-serif;" transform="matrix(1 0 0 1 776 2007)">Modifications are automatically applied proportionally to all</text>
  <text style="stroke:none;fill:black;font-family:-apple-system,&quot;SF Pro Display&quot;,&quot;SF Pro Text&quot;,Helvetica,sans-serif;" transform="matrix(1 0 0 1 776 2025)">scales and weights.</text>
  <g id="" transform="matrix(1 0 0 1 1289 1933)">
   <path d="M 2.83203 3.11523 L 4.375 4.6582 C 5.22461 5.48828 6.19141 5.41992 7.06055 4.46289 L 17.2754 -6.66016 C 17.7051 -6.36719 18.0957 -6.37695 18.5645 -6.47461 L 19.6094 -6.68945 L 20.3027 -5.99609 L 20.2539 -5.47852 C 20.1855 -4.95117 20.3516 -4.53125 20.8496 -4.0332 L 21.6602 -3.22266 C 22.168 -2.71484 22.8223 -2.68555 23.3008 -3.16406 L 26.5527 -6.41602 C 27.0312 -6.89453 27.0117 -7.54883 26.5039 -8.05664 L 25.6836 -8.87695 C 25.1855 -9.375 24.7754 -9.55078 24.2383 -9.47266 L 23.7109 -9.41406 L 23.0566 -10.0781 L 23.3398 -11.2207 C 23.4863 -11.7871 23.3398 -12.2559 22.7148 -12.8613 L 20.3027 -15.2539 C 16.7578 -18.7793 12.2266 -18.6719 9.11133 -15.5371 C 8.69141 -15.1074 8.64258 -14.5215 8.91602 -14.0918 C 9.15039 -13.7207 9.62891 -13.4961 10.2734 -13.6621 C 11.7871 -14.043 13.3008 -13.9258 14.7852 -12.9199 L 14.1602 -11.3379 C 13.9258 -10.752 13.9453 -10.2734 14.1797 -9.83398 L 3.01758 0.439453 C 2.08008 1.30859 1.97266 2.25586 2.83203 3.11523 Z M 10.6738 -15.1465 C 13.3398 -17.1387 16.6504 -16.8262 19.0527 -14.4141 L 21.6797 -11.8066 C 21.9141 -11.5723 21.9434 -11.3867 21.8848 -11.0938 L 21.5039 -9.53125 L 23.0762 -7.95898 L 24.043 -8.04688 C 24.3262 -8.07617 24.4141 -8.05664 24.6387 -7.83203 L 25.2637 -7.20703 L 22.5098 -4.46289 L 21.8848 -5.07812 C 21.6602 -5.30273 21.6406 -5.40039 21.6699 -5.68359 L 21.7578 -6.64062 L 20.1953 -8.20312 L 18.5742 -7.89062 C 18.291 -7.83203 18.1445 -7.83203 17.9102 -8.07617 L 15.7324 -10.2539 C 15.5078 -10.4883 15.4785 -10.625 15.6055 -10.9473 L 16.5527 -13.2227 C 14.9512 -14.7559 12.8418 -15.6055 10.8008 -14.9512 C 10.7129 -14.9219 10.6445 -14.9414 10.6152 -14.9805 C 10.5859 -15.0293 10.5859 -15.0781 10.6738 -15.1465 Z M 4.10156 2.41211 C 3.61328 1.91406 3.78906 1.61133 4.12109 1.30859 L 15.0781 -8.80859 L 16.3086 -7.57812 L 6.15234 3.34961 C 5.84961 3.68164 5.46875 3.7793 5.06836 3.37891 Z"/>
  </g>
  <text style="stroke:none;fill:black;font-family:-apple-system,&quot;SF Pro Display&quot;,&quot;SF Pro Text&quot;,Helvetica,sans-serif;font-weight:bold;" transform="matrix(1 0 0 1 1289 1953)">Exporting</text>
  <text style="stroke:none;fill:black;font-family:-apple-system,&quot;SF Pro Display&quot;,&quot;SF Pro Text&quot;,Helvetica,sans-serif;" transform="matrix(1 0 0 1 1289 1971)">Symbols should be outlined when exporting to ensure the</text>
  <text style="stroke:none;fill:black;font-family:-apple-system,&quot;SF Pro Display&quot;,&quot;SF Pro Text&quot;,Helvetica,sans-serif;" transform="matrix(1 0 0 1 1289 1989)">design is preserved when submitting to Xcode.</text>
  <text id="template-version" style="stroke:none;fill:black;font-family:-apple-system,&quot;SF Pro Display&quot;,&quot;SF Pro Text&quot;,Helvetica,sans-serif;text-anchor:end;" transform="matrix(1 0 0 1 3036 1933)">Template v.1.0</text>
  <text style="stroke:none;fill:black;font-family:-apple-system,&quot;SF Pro Display&quot;,&quot;SF Pro Text&quot;,Helvetica,sans-serif;text-anchor:end;" transform="matrix(1 0 0 1 3036 1951)">Generated from 8.circle.fill</text>
  <text style="stroke:none;fill:black;font-family:-apple-system,&quot;SF Pro Display&quot;,&quot;SF Pro Text&quot;,Helvetica,sans-serif;text-anchor:end;" transform="matrix(1 0 0 1 3036 1969)">Typeset at 100 points</text>
  <text style="stroke:none;fill:black;font-family:-apple-system,&quot;SF Pro Display&quot;,&quot;SF Pro Text&quot;,Helvetica,sans-serif;" transform="matrix(1 0 0 1 263 726)">Small</text>
  <text style="stroke:none;fill:black;font-family:-apple-system,&quot;SF Pro Display&quot;,&quot;SF Pro Text&quot;,Helvetica,sans-serif;" transform="matrix(1 0 0 1 263 1156)">Medium</text>
  <text style="stroke:none;fill:black;font-family:-apple-system,&quot;SF Pro Display&quot;,&quot;SF Pro Text&quot;,Helvetica,sans-serif;" transform="matrix(1 0 0 1 263 1586)">Large</text>
 </g>
 <g id="Guides">
  <g id="H-reference" style="fill:#27AAE1;stroke:none;" transform="matrix(1 0 0 1 339 696)">
   <path d="M 54.9316 0 L 57.666 0 L 30.5664 -70.459 L 28.0762 -70.459 L 0.976562 0 L 3.66211 0 L 12.9395 -24.4629 L 45.7031 -24.4629 Z M 29.1992 -67.0898 L 29.4434 -67.0898 L 44.8242 -26.709 L 13.8184 -26.709 Z"/>
  </g>
  <line id="Baseline-S" style="fill:none;stroke:#27AAE1;opacity:1;stroke-width:0.577;" x1="263" x2="3036" y1="696" y2="696"/>
  <line id="Capline-S" style="fill:none;stroke:#27AAE1;opacity:1;stroke-width:0.577;" x1="263" x2="3036" y1="625.541" y2="625.541"/>
  <g id="H-reference" style="fill:#27AAE1;stroke:none;" transform="matrix(1 0 0 1 339 1126)">
   <path d="M 54.9316 0 L 57.666 0 L 30.5664 -70.459 L 28.0762 -70.459 L 0.976562 0 L 3.66211 0 L 12.9395 -24.4629 L 45.7031 -24.4629 Z M 29.1992 -67.0898 L 29.4434 -67.0898 L 44.8242 -26.709 L 13.8184 -26.709 Z"/>
  </g>
  <line id="Baseline-M" style="fill:none;stroke:#27AAE1;opacity:1;stroke-width:0.577;" x1="263" x2="3036" y1="1126" y2="1126"/>
  <line id="Capline-M" style="fill:none;stroke:#27AAE1;opacity:1;stroke-width:0.577;" x1="263" x2="3036" y1="1055.54" y2="1055.54"/>
  <g id="H-reference" style="fill:#27AAE1;stroke:none;" transform="matrix(1 0 0 1 339 1556)">
   <path d="M 54.9316 0 L 57.666 0 L 30.5664 -70.459 L 28.0762 -70.459 L 0.976562 0 L 3.66211 0 L 12.9395 -24.4629 L 45.7031 -24.4629 Z M 29.1992 -67.0898 L 29.4434 -67.0898 L 44.8242 -26.709 L 13.8184 -26.709 Z"/>
  </g>
  <line id="Baseline-L" style="fill:none;stroke:#27AAE1;opacity:1;stroke-width:0.577;" x1="263" x2="3036" y1="1556" y2="1556"/>
  <line id="Capline-L" style="fill:none;stroke:#27AAE1;opacity:1;stroke-width:0.577;" x1="263" x2="3036" y1="1485.54" y2="1485.54"/>
  <rect height="119.336" id="left-margin" style="fill:#00AEEF;stroke:none;opacity:0.4;" width="8.74023" x="1391.3" y="1030.79"/>
  <rect height="119.336" id="right-margin" style="fill:#00AEEF;stroke:none;opacity:0.4;" width="8.74023" x="1499.65" y="1030.79"/>
 </g>
 <g id="Symbols">
  <g id="Black-L" transform="matrix(1 0 0 1 2854.05 1556)">
   <path d="M 79.3457 32.8613 C 116.748 32.8613 147.412 2.19727 147.412 -35.2051 C 147.412 -72.6074 116.748 -103.271 79.2969 -103.271 C 41.8945 -103.271 11.2793 -72.6074 11.2793 -35.2051 C 11.2793 2.19727 41.9434 32.8613 79.3457 32.8613 Z M 79.2969 -4.6875 C 62.5488 -4.6875 52.0996 -11.4746 52.0996 -22.5586 C 52.0996 -30.0293 57.3242 -35.4492 65.6738 -36.6211 L 65.6738 -37.3535 C 58.2031 -39.4043 54.5898 -43.5547 54.5898 -49.8047 C 54.5898 -59.5703 64.1602 -65.8691 79.2969 -65.8691 C 94.4824 -65.8691 104.053 -59.5703 104.053 -49.8047 C 104.053 -43.5547 100.391 -39.3555 92.9688 -37.3535 L 92.9688 -36.6211 C 101.27 -35.4492 106.543 -30.0293 106.543 -22.5586 C 106.543 -11.5234 96.0449 -4.6875 79.2969 -4.6875 Z M 79.2969 -42.1387 C 82.6172 -42.1387 85.0098 -44.4824 85.0098 -47.6562 C 85.0098 -50.7324 82.5195 -53.0762 79.2969 -53.0762 C 76.123 -53.0762 73.6328 -50.7324 73.6328 -47.6562 C 73.6328 -44.4824 76.0742 -42.1387 79.2969 -42.1387 Z M 79.3457 -17.4805 C 83.3984 -17.4805 86.3281 -20.2148 86.3281 -24.0234 C 86.3281 -27.832 83.4473 -30.6641 79.3457 -30.6641 C 75.293 -30.6641 72.3633 -27.832 72.3633 -24.0234 C 72.3633 -20.2148 75.2441 -17.4805 79.3457 -17.4805 Z"/>
  </g>
  <g id="Heavy-L" transform="matrix(1 0 0 1 2558.39 1556)">
   <path d="M 78.2715 31.7871 C 115.088 31.7871 145.312 1.61133 145.312 -35.2051 C 145.312 -72.0215 115.039 -102.197 78.2715 -102.197 C 41.4551 -102.197 11.2793 -72.0215 11.2793 -35.2051 C 11.2793 1.61133 41.5039 31.7871 78.2715 31.7871 Z M 78.2227 -4.6875 C 62.2559 -4.6875 52.1484 -11.5234 52.1484 -22.4121 C 52.1484 -29.834 57.373 -35.4004 65.5762 -36.6211 L 65.5762 -37.3047 C 58.3496 -39.3066 54.6387 -43.6523 54.6387 -49.9512 C 54.6387 -59.5703 63.916 -65.8691 78.2715 -65.8691 C 92.5781 -65.8691 101.855 -59.5703 101.855 -49.9512 C 101.855 -43.6523 98.0957 -39.2578 90.9668 -37.3047 L 90.9668 -36.6211 C 99.0723 -35.4004 104.346 -29.834 104.346 -22.4609 C 104.346 -11.5723 94.1406 -4.6875 78.2227 -4.6875 Z M 78.2715 -41.5527 C 82.373 -41.5527 85.3516 -44.3359 85.3516 -48.1445 C 85.3516 -51.8555 82.3242 -54.5898 78.2715 -54.5898 C 74.1699 -54.5898 71.1426 -51.8555 71.1426 -48.1445 C 71.1426 -44.3359 74.1699 -41.5527 78.2715 -41.5527 Z M 78.2715 -15.9668 C 83.3008 -15.9668 86.9141 -19.1895 86.9141 -23.6328 C 86.9141 -28.0762 83.3496 -31.3477 78.2715 -31.3477 C 73.291 -31.3477 69.6289 -28.0762 69.6289 -23.6328 C 69.6289 -19.1895 73.2422 -15.9668 78.2715 -15.9668 Z"/>
  </g>
  <g id="Bold-L" transform="matrix(1 0 0 1 2262.88 1556)">
   <path d="M 77.0996 30.6152 C 113.232 30.6152 142.92 0.878906 142.92 -35.2051 C 142.92 -71.3379 113.184 -101.025 77.0508 -101.025 C 40.9668 -101.025 11.2793 -71.3379 11.2793 -35.2051 C 11.2793 0.878906 41.0156 30.6152 77.0996 30.6152 Z M 77.002 -4.6875 C 61.9629 -4.6875 52.2461 -11.5723 52.2461 -22.2656 C 52.2461 -29.5898 57.4707 -35.3516 65.4785 -36.6699 L 65.4785 -37.207 C 58.4961 -39.209 54.6875 -43.8477 54.6875 -50.0488 C 54.6875 -59.5215 63.623 -65.8691 77.0508 -65.8691 C 90.5273 -65.8691 99.4629 -59.5215 99.4629 -50.0488 C 99.4629 -43.8477 95.5566 -39.1113 88.6719 -37.207 L 88.6719 -36.6699 C 96.6309 -35.3516 101.904 -29.6387 101.904 -22.3145 C 101.904 -11.6211 92.0898 -4.6875 77.002 -4.6875 Z M 77.0508 -40.918 C 82.1289 -40.918 85.7422 -44.1895 85.7422 -48.6816 C 85.7422 -53.0762 82.1289 -56.2988 77.0508 -56.2988 C 72.0215 -56.2988 68.3594 -53.0762 68.3594 -48.6816 C 68.3594 -44.1895 72.0215 -40.918 77.0508 -40.918 Z M 77.0996 -14.2578 C 83.1543 -14.2578 87.5488 -18.0176 87.5488 -23.2422 C 87.5488 -28.3691 83.2031 -32.1289 77.0996 -32.1289 C 71.0449 -32.1289 66.6504 -28.3203 66.6504 -23.2422 C 66.6504 -18.0176 71.0449 -14.2578 77.0996 -14.2578 Z"/>
  </g>
  <g id="Semibold-L" transform="matrix(1 0 0 1 1966.97 1556)">
   <path d="M 76.2695 29.7852 C 111.914 29.7852 141.309 0.439453 141.309 -35.2051 C 141.309 -70.8496 111.865 -100.244 76.2695 -100.244 C 40.625 -100.244 11.2793 -70.8496 11.2793 -35.2051 C 11.2793 0.439453 40.6738 29.7852 76.2695 29.7852 Z M 76.1719 -4.63867 C 61.7188 -4.63867 52.2949 -11.6211 52.2949 -22.168 C 52.2949 -29.3945 57.5195 -35.3027 65.3809 -36.6699 L 65.3809 -37.1582 C 58.5938 -39.1602 54.7363 -43.9453 54.7363 -50.1465 C 54.7363 -59.5215 63.4277 -65.8691 76.2695 -65.8691 C 89.0625 -65.8691 97.7539 -59.5215 97.7539 -50.1465 C 97.7539 -43.9453 93.7988 -39.0137 87.1094 -37.1582 L 87.1094 -36.6699 C 94.9707 -35.3027 100.195 -29.4434 100.195 -22.2168 C 100.195 -11.6699 90.625 -4.63867 76.1719 -4.63867 Z M 76.2695 -40.4785 C 81.9336 -40.4785 86.0352 -44.043 86.0352 -49.0234 C 86.0352 -53.9551 81.9824 -57.4707 76.2695 -57.4707 C 70.5566 -57.4707 66.4551 -53.9551 66.4551 -49.0234 C 66.4551 -44.043 70.5566 -40.4785 76.2695 -40.4785 Z M 76.2695 -13.0371 C 83.0566 -13.0371 87.9883 -17.1875 87.9883 -22.9492 C 87.9883 -28.5645 83.1543 -32.666 76.2695 -32.666 C 69.5312 -32.666 64.5508 -28.5156 64.5508 -22.9492 C 64.5508 -17.1875 69.4824 -13.0371 76.2695 -13.0371 Z"/>
  </g>
  <g id="Medium-L" transform="matrix(1 0 0 1 1670.87 1556)">
   <path d="M 75.6836 29.1992 C 110.938 29.1992 140.088 0.0488281 140.088 -35.2051 C 140.088 -70.459 110.889 -99.6094 75.6348 -99.6094 C 40.3809 -99.6094 11.2793 -70.459 11.2793 -35.2051 C 11.2793 0.0488281 40.3809 29.1992 75.6836 29.1992 Z M 75.5371 -4.63867 C 61.5723 -4.63867 52.3438 -11.6211 52.3438 -22.1191 C 52.3438 -29.2969 57.5684 -35.2539 65.332 -36.7188 L 65.332 -37.1582 C 58.6426 -39.1113 54.7363 -43.9941 54.7363 -50.1953 C 54.7363 -59.4727 63.2812 -65.8691 75.6348 -65.8691 C 87.9883 -65.8691 96.4844 -59.4727 96.4844 -50.1953 C 96.4844 -43.9941 92.4805 -38.9648 85.9375 -37.1582 L 85.9375 -36.7188 C 93.6523 -35.2539 98.9258 -29.3457 98.9258 -22.1191 C 98.9258 -11.6699 89.5508 -4.63867 75.5371 -4.63867 Z M 75.6348 -40.1367 C 81.8359 -40.1367 86.2305 -43.9453 86.2305 -49.3164 C 86.2305 -54.5898 81.8359 -58.3496 75.6348 -58.3496 C 69.3848 -58.3496 65.0391 -54.5898 65.0391 -49.3164 C 65.0391 -43.9453 69.4336 -40.1367 75.6348 -40.1367 Z M 75.6836 -12.1582 C 83.0078 -12.1582 88.3301 -16.6016 88.3301 -22.7051 C 88.3301 -28.7109 83.0566 -33.0566 75.6836 -33.0566 C 68.3594 -33.0566 62.9883 -28.6621 62.9883 -22.7051 C 62.9883 -16.6016 68.3105 -12.1582 75.6836 -12.1582 Z"/>
  </g>
  <g id="Regular-L" transform="matrix(1 0 0 1 1374.97 1556)">
   <path d="M 74.8535 28.3691 C 109.668 28.3691 138.477 -0.390625 138.477 -35.2051 C 138.477 -70.0195 109.619 -98.7793 74.8047 -98.7793 C 40.0391 -98.7793 11.2793 -70.0195 11.2793 -35.2051 C 11.2793 -0.390625 40.0879 28.3691 74.8535 28.3691 Z M 74.707 -4.63867 C 61.377 -4.63867 52.3926 -11.6699 52.3926 -21.9727 C 52.3926 -29.1504 57.5684 -35.2051 65.2832 -36.7188 L 65.2832 -37.1094 C 58.7891 -39.0137 54.7852 -44.0918 54.7852 -50.293 C 54.7852 -59.4727 63.0859 -65.918 74.8047 -65.918 C 86.5723 -65.918 94.8242 -59.4727 94.8242 -50.293 C 94.8242 -44.0918 90.7227 -38.916 84.375 -37.1094 L 84.375 -36.7188 C 91.9922 -35.2051 97.2656 -29.1992 97.2656 -22.0215 C 97.2656 -11.7188 88.0859 -4.63867 74.707 -4.63867 Z M 74.8047 -39.6973 C 81.6406 -39.6973 86.4746 -43.8477 86.4746 -49.6582 C 86.4746 -55.4199 81.6895 -59.4727 74.8047 -59.4727 C 67.9199 -59.4727 63.1348 -55.4199 63.1348 -49.6582 C 63.1348 -43.8477 68.0176 -39.6973 74.8047 -39.6973 Z M 74.8535 -10.9863 C 82.9102 -10.9863 88.7695 -15.7715 88.7695 -22.4121 C 88.7695 -28.9062 83.0078 -33.5938 74.8535 -33.5938 C 66.8457 -33.5938 60.9375 -28.8574 60.9375 -22.4121 C 60.9375 -15.7715 66.7969 -10.9863 74.8535 -10.9863 Z"/>
  </g>
  <g id="Light-L" transform="matrix(1 0 0 1 1079.18 1556)">
   <path d="M 73.9258 27.4902 C 108.301 27.4902 136.621 -0.830078 136.621 -35.1562 C 136.621 -69.5312 108.252 -97.8516 73.9258 -97.8516 C 39.5508 -97.8516 11.2793 -69.5312 11.2793 -35.1562 C 11.2793 -0.830078 39.5996 27.4902 73.9258 27.4902 Z M 73.8281 -5.41992 C 61.2305 -5.41992 52.6367 -12.3535 52.6367 -22.3145 C 52.6367 -29.248 57.7637 -35.2539 65.1367 -36.7188 L 65.1367 -37.0605 C 58.9355 -38.916 54.9316 -43.9453 54.9316 -49.9512 C 54.9316 -58.8379 62.8418 -65.1367 73.9258 -65.1367 C 85.0098 -65.1367 92.8711 -58.8379 92.8711 -49.9512 C 92.8711 -43.9453 88.8184 -38.8184 82.7148 -37.0605 L 82.7148 -36.7188 C 90.0391 -35.2539 95.2148 -29.2969 95.2148 -22.3633 C 95.2148 -12.4023 86.4258 -5.41992 73.8281 -5.41992 Z M 73.9258 -39.1602 C 81.1523 -39.1602 86.377 -43.5059 86.377 -49.5605 C 86.377 -55.6641 81.25 -59.9609 73.9258 -59.9609 C 66.5527 -59.9609 61.4746 -55.6641 61.4746 -49.5605 C 61.4746 -43.5059 66.6504 -39.1602 73.9258 -39.1602 Z M 73.9258 -10.5469 C 82.4707 -10.5469 88.6719 -15.5762 88.6719 -22.5586 C 88.6719 -29.3457 82.5684 -34.2285 73.9258 -34.2285 C 65.3809 -34.2285 59.1797 -29.2969 59.1797 -22.5586 C 59.1797 -15.5762 65.3809 -10.5469 73.9258 -10.5469 Z"/>
  </g>
  <g id="Thin-L" transform="matrix(1 0 0 1 783.693 1556)">
   <path d="M 72.7051 26.3184 C 106.494 26.3184 134.18 -1.36719 134.18 -35.1074 C 134.18 -68.8965 106.494 -96.582 72.7051 -96.582 C 38.9648 -96.582 11.2793 -68.8965 11.2793 -35.1074 C 11.2793 -1.36719 38.9648 26.3184 72.7051 26.3184 Z M 72.7051 -6.44531 C 61.084 -6.44531 52.9297 -13.2324 52.9297 -22.7539 C 52.9297 -29.4434 58.0078 -35.3516 64.9414 -36.7188 L 64.9414 -37.0605 C 59.1309 -38.7695 55.127 -43.75 55.127 -49.4629 C 55.127 -58.0078 62.5 -64.1113 72.7051 -64.1113 C 82.9102 -64.1113 90.2832 -58.0078 90.2832 -49.4629 C 90.2832 -43.75 86.2793 -38.6719 80.4688 -37.0605 L 80.4688 -36.7188 C 87.4023 -35.3516 92.4805 -29.4434 92.4805 -22.7539 C 92.4805 -13.3301 84.2285 -6.44531 72.7051 -6.44531 Z M 72.7051 -38.4277 C 80.5176 -38.4277 86.1816 -43.0176 86.1816 -49.4629 C 86.1816 -55.957 80.6641 -60.5469 72.7051 -60.5469 C 64.7461 -60.5469 59.2285 -55.957 59.2285 -49.4629 C 59.2285 -43.0176 64.8926 -38.4277 72.7051 -38.4277 Z M 72.7051 -10.0098 C 81.9336 -10.0098 88.5742 -15.332 88.5742 -22.7539 C 88.5742 -29.8828 81.9824 -35.0586 72.7051 -35.0586 C 63.4766 -35.0586 56.8359 -29.8828 56.8359 -22.7539 C 56.8359 -15.332 63.4766 -10.0098 72.7051 -10.0098 Z"/>
  </g>
  <g id="Ultralight-L" transform="matrix(1 0 0 1 487.616 1556)">
   <path d="M 72.1191 25.7324 C 105.566 25.7324 132.91 -1.61133 132.91 -35.1074 C 132.91 -68.5547 105.566 -95.8984 72.1191 -95.8984 C 38.623 -95.8984 11.2793 -68.5547 11.2793 -35.1074 C 11.2793 -1.61133 38.623 25.7324 72.1191 25.7324 Z M 72.1191 -6.98242 C 61.0352 -6.98242 53.0762 -13.7207 53.0762 -22.998 C 53.0762 -29.541 58.1543 -35.3516 64.8926 -36.7188 L 64.8926 -37.0117 C 59.2773 -38.6719 55.2246 -43.6523 55.2246 -49.2188 C 55.2246 -57.5684 62.3535 -63.5742 72.1191 -63.5742 C 81.8359 -63.5742 88.9648 -57.5684 88.9648 -49.2188 C 88.9648 -43.6523 84.9609 -38.623 79.3457 -37.0117 L 79.3457 -36.7188 C 86.084 -35.3516 91.1133 -29.4922 91.1133 -22.998 C 91.1133 -13.7695 83.1055 -6.98242 72.1191 -6.98242 Z M 72.1191 -38.0859 C 80.2246 -38.0859 86.084 -42.7734 86.084 -49.4141 C 86.084 -56.1035 80.3711 -60.8398 72.1191 -60.8398 C 63.8184 -60.8398 58.1055 -56.1035 58.1055 -49.4141 C 58.1055 -42.7734 64.0137 -38.0859 72.1191 -38.0859 Z M 72.1191 -9.7168 C 81.6895 -9.7168 88.5254 -15.1855 88.5254 -22.8516 C 88.5254 -30.1758 81.6406 -35.498 72.1191 -35.498 C 62.5 -35.498 55.6641 -30.1758 55.6641 -22.8516 C 55.6641 -15.1855 62.5 -9.7168 72.1191 -9.7168 Z"/>
  </g>
  <g id="Black-M" transform="matrix(1 0 0 1 2870.97 1126)">
   <path d="M 62.4023 18.457 C 91.9922 18.457 116.113 -5.61523 116.113 -35.2051 C 116.113 -64.7949 91.9922 -88.8672 62.4023 -88.8672 C 32.8125 -88.8672 8.74023 -64.7949 8.74023 -35.2051 C 8.74023 -5.61523 32.8125 18.457 62.4023 18.457 Z M 62.4023 -11.9629 C 48.7793 -11.9629 40.3809 -17.1387 40.3809 -25.7324 C 40.3809 -31.543 44.4336 -35.498 50.9277 -36.2305 L 50.9277 -36.9629 C 45.0195 -38.5254 42.334 -41.4062 42.334 -46.1914 C 42.334 -53.8086 49.9512 -58.5449 62.4023 -58.5449 C 74.9023 -58.5449 82.5195 -53.8086 82.5195 -46.1914 C 82.5195 -41.4062 79.834 -38.5254 73.877 -36.9629 L 73.877 -36.2305 C 80.3711 -35.498 84.4238 -31.543 84.4238 -25.7324 C 84.4238 -17.1387 76.0742 -11.9629 62.4023 -11.9629 Z M 62.4023 -41.1133 C 64.1113 -41.1133 65.332 -42.4316 65.332 -44.1895 C 65.332 -45.8496 63.9648 -47.2656 62.4023 -47.2656 C 60.8887 -47.2656 59.4727 -45.8496 59.4727 -44.1895 C 59.4727 -42.4316 60.791 -41.1133 62.4023 -41.1133 Z M 62.4023 -23.3398 C 64.5996 -23.3398 66.0645 -24.9023 66.0645 -27.1484 C 66.0645 -29.3945 64.5508 -31.1035 62.4023 -31.1035 C 60.2539 -31.1035 58.7402 -29.3945 58.7402 -27.1484 C 58.7402 -24.9023 60.2539 -23.3398 62.4023 -23.3398 Z"/>
  </g>
  <g id="Heavy-M" transform="matrix(1 0 0 1 2575.19 1126)">
   <path d="M 61.5234 17.5781 C 90.5273 17.5781 114.258 -6.15234 114.258 -35.2051 C 114.258 -64.2578 90.5273 -87.9883 61.4746 -87.9883 C 32.4707 -87.9883 8.74023 -64.2578 8.74023 -35.2051 C 8.74023 -6.15234 32.4707 17.5781 61.5234 17.5781 Z M 61.4746 -11.7676 C 48.4863 -11.7676 40.4297 -16.9922 40.4297 -25.5371 C 40.4297 -31.2988 44.4824 -35.4492 50.8789 -36.2793 L 50.8789 -36.8652 C 45.1172 -38.4277 42.334 -41.6016 42.334 -46.4355 C 42.334 -53.9551 49.7559 -58.7402 61.4746 -58.7402 C 73.2422 -58.7402 80.6152 -53.9551 80.6152 -46.4355 C 80.6152 -41.6016 77.832 -38.4277 72.1191 -36.8652 L 72.1191 -36.2793 C 78.5156 -35.4492 82.5684 -31.2988 82.5684 -25.5371 C 82.5684 -17.041 74.4629 -11.7676 61.4746 -11.7676 Z M 61.4746 -40.5762 C 63.9648 -40.5762 65.7715 -42.334 65.7715 -44.7266 C 65.7715 -47.0215 63.8672 -48.8281 61.4746 -48.8281 C 59.1309 -48.8281 57.2266 -47.0215 57.2266 -44.7266 C 57.2266 -42.334 59.082 -40.5762 61.4746 -40.5762 Z M 61.5234 -21.7773 C 64.5508 -21.7773 66.748 -23.8281 66.748 -26.709 C 66.748 -29.541 64.5508 -31.6895 61.5234 -31.6895 C 58.4473 -31.6895 56.25 -29.541 56.25 -26.709 C 56.25 -23.8281 58.4473 -21.7773 61.5234 -21.7773 Z"/>
  </g>
  <g id="Bold-M" transform="matrix(1 0 0 1 2279.5 1126)">
   <path d="M 60.498 16.5039 C 88.8672 16.5039 112.207 -6.78711 112.207 -35.2051 C 112.207 -63.623 88.8672 -86.9629 60.4492 -86.9629 C 32.0312 -86.9629 8.74023 -63.623 8.74023 -35.2051 C 8.74023 -6.78711 32.0801 16.5039 60.498 16.5039 Z M 60.4004 -11.5234 C 48.1934 -11.5234 40.4297 -16.8457 40.4297 -25.293 C 40.4297 -31.0059 44.4824 -35.3516 50.7812 -36.3281 L 50.7812 -36.8164 C 45.2148 -38.3789 42.334 -41.7969 42.334 -46.6309 C 42.334 -54.1016 49.4629 -58.9844 60.4492 -58.9844 C 71.4355 -58.9844 78.5645 -54.1016 78.5645 -46.6309 C 78.5645 -41.7969 75.6348 -38.3301 70.1172 -36.8164 L 70.1172 -36.3281 C 76.416 -35.3516 80.4688 -31.0059 80.4688 -25.293 C 80.4688 -16.8945 72.6562 -11.5234 60.4004 -11.5234 Z M 60.4492 -40.0391 C 63.8184 -40.0391 66.2109 -42.2852 66.2109 -45.3125 C 66.2109 -48.291 63.7695 -50.5371 60.4492 -50.5371 C 57.1289 -50.5371 54.6875 -48.291 54.6875 -45.3125 C 54.6875 -42.2852 57.1289 -40.0391 60.4492 -40.0391 Z M 60.498 -20.0195 C 64.502 -20.0195 67.4316 -22.6074 67.4316 -26.1719 C 67.4316 -29.7363 64.5508 -32.373 60.498 -32.373 C 56.4453 -32.373 53.4668 -29.7363 53.4668 -26.1719 C 53.4668 -22.6074 56.3965 -20.0195 60.498 -20.0195 Z"/>
  </g>
  <g id="Semibold-M" transform="matrix(1 0 0 1 1983.5 1126)">
   <path d="M 59.7656 15.8203 C 87.7441 15.8203 110.791 -7.22656 110.791 -35.2051 C 110.791 -63.1836 87.6953 -86.2793 59.7656 -86.2793 C 31.7871 -86.2793 8.74023 -63.1836 8.74023 -35.2051 C 8.74023 -7.22656 31.7871 15.8203 59.7656 15.8203 Z M 59.668 -11.377 C 47.998 -11.377 40.4297 -16.748 40.4297 -25.0977 C 40.4297 -30.8105 44.4824 -35.3027 50.7324 -36.3281 L 50.7324 -36.7676 C 45.3125 -38.3301 42.3828 -41.9434 42.3828 -46.8262 C 42.3828 -54.1992 49.3164 -59.1309 59.7656 -59.1309 C 70.166 -59.1309 77.0996 -54.1992 77.0996 -46.8262 C 77.0996 -41.9434 74.0723 -38.2324 68.75 -36.7676 L 68.75 -36.3281 C 74.9512 -35.3027 79.0527 -30.8105 79.0527 -25.1465 C 79.0527 -16.7969 71.3867 -11.377 59.668 -11.377 Z M 59.7656 -39.6484 C 63.7207 -39.6484 66.5527 -42.1875 66.5527 -45.752 C 66.5527 -49.2188 63.6719 -51.709 59.7656 -51.709 C 55.8105 -51.709 52.9297 -49.2188 52.9297 -45.752 C 52.9297 -42.1875 55.8105 -39.6484 59.7656 -39.6484 Z M 59.7656 -18.7988 C 64.502 -18.7988 67.9688 -21.7285 67.9688 -25.8301 C 67.9688 -29.8828 64.5508 -32.8125 59.7656 -32.8125 C 55.0293 -32.8125 51.5625 -29.834 51.5625 -25.8301 C 51.5625 -21.7285 55.0293 -18.7988 59.7656 -18.7988 Z"/>
  </g>
  <g id="Medium-M" transform="matrix(1 0 0 1 1687.3 1126)">
   <path d="M 59.2285 15.2832 C 86.9141 15.2832 109.766 -7.56836 109.766 -35.2051 C 109.766 -62.8906 86.8652 -85.7422 59.1797 -85.7422 C 31.543 -85.7422 8.74023 -62.8906 8.74023 -35.2051 C 8.74023 -7.56836 31.5918 15.2832 59.2285 15.2832 Z M 59.1309 -11.2305 C 47.8027 -11.2305 40.4297 -16.6504 40.4297 -24.9512 C 40.4297 -30.6152 44.5312 -35.2539 50.6836 -36.377 L 50.6836 -36.7188 C 45.3613 -38.2812 42.3828 -42.041 42.3828 -46.9238 C 42.3828 -54.248 49.1699 -59.2773 59.1797 -59.2773 C 69.2383 -59.2773 76.0254 -54.248 76.0254 -46.9238 C 76.0254 -42.041 72.9004 -38.1836 67.7246 -36.7188 L 67.7246 -36.377 C 73.877 -35.2539 77.9785 -30.6641 77.9785 -25 C 77.9785 -16.6992 70.459 -11.2305 59.1309 -11.2305 Z M 59.1797 -39.3555 C 63.623 -39.3555 66.7969 -42.1875 66.7969 -46.0449 C 66.7969 -49.8535 63.623 -52.5879 59.1797 -52.5879 C 54.7852 -52.5879 51.6113 -49.8535 51.6113 -46.0449 C 51.6113 -42.1875 54.7852 -39.3555 59.1797 -39.3555 Z M 59.2285 -17.8711 C 64.502 -17.8711 68.3105 -21.0938 68.3105 -25.5371 C 68.3105 -29.9805 64.5508 -33.1543 59.2285 -33.1543 C 54.0039 -33.1543 50.0977 -29.9316 50.0977 -25.5371 C 50.0977 -21.0938 53.9551 -17.8711 59.2285 -17.8711 Z"/>
  </g>
  <g id="Regular-M" transform="matrix(1 0 0 1 1391.3 1126)">
   <path d="M 58.5449 14.5508 C 85.791 14.5508 108.35 -8.00781 108.35 -35.2539 C 108.35 -62.4512 85.7422 -85.0586 58.4961 -85.0586 C 31.2988 -85.0586 8.74023 -62.4512 8.74023 -35.2539 C 8.74023 -8.00781 31.3477 14.5508 58.5449 14.5508 Z M 58.3984 -11.084 C 47.6074 -11.084 40.4297 -16.5527 40.4297 -24.8047 C 40.4297 -30.4199 44.5312 -35.1562 50.6348 -36.377 L 50.6348 -36.6699 C 45.459 -38.2324 42.3828 -42.1875 42.3828 -47.0703 C 42.3828 -54.3945 49.0234 -59.4238 58.4961 -59.4238 C 67.9688 -59.4238 74.6094 -54.3945 74.6094 -47.0703 C 74.6094 -42.1875 71.3867 -38.1348 66.3574 -36.6699 L 66.3574 -36.377 C 72.4121 -35.1562 76.5625 -30.4688 76.5625 -24.8535 C 76.5625 -16.6504 69.2383 -11.084 58.3984 -11.084 Z M 58.4961 -38.9648 C 63.5254 -38.9648 67.0898 -42.0898 67.0898 -46.4844 C 67.0898 -50.7324 63.5742 -53.7598 58.4961 -53.7598 C 53.418 -53.7598 49.9023 -50.7324 49.9023 -46.4844 C 49.9023 -42.0898 53.4668 -38.9648 58.4961 -38.9648 Z M 58.5449 -16.6992 C 64.4531 -16.6992 68.8477 -20.2637 68.8477 -25.1953 C 68.8477 -30.0781 64.5508 -33.5938 58.5449 -33.5938 C 52.6367 -33.5938 48.1934 -30.0293 48.1934 -25.1953 C 48.1934 -20.2637 52.5879 -16.6992 58.5449 -16.6992 Z"/>
  </g>
  <g id="Light-M" transform="matrix(1 0 0 1 1095.42 1126)">
   <path d="M 57.7148 13.7695 C 84.5215 13.7695 106.689 -8.39844 106.689 -35.2051 C 106.689 -62.0117 84.5215 -84.1797 57.666 -84.1797 C 30.8594 -84.1797 8.74023 -62.0117 8.74023 -35.2051 C 8.74023 -8.39844 30.9082 13.7695 57.7148 13.7695 Z M 57.6172 -11.7676 C 47.5098 -11.7676 40.6738 -17.1875 40.6738 -25.0977 C 40.6738 -30.5664 44.6777 -35.2051 50.5371 -36.377 L 50.5371 -36.6699 C 45.6055 -38.1348 42.5293 -42.041 42.5293 -46.7773 C 42.5293 -53.8086 48.7793 -58.7402 57.666 -58.7402 C 66.5527 -58.7402 72.8516 -53.8086 72.8516 -46.7773 C 72.8516 -42.041 69.6777 -38.0371 64.8438 -36.6699 L 64.8438 -36.377 C 70.6543 -35.2051 74.707 -30.5664 74.707 -25.0977 C 74.707 -17.2363 67.7246 -11.7676 57.6172 -11.7676 Z M 57.666 -38.5254 C 63.1348 -38.5254 66.9922 -41.7969 66.9922 -46.3867 C 66.9922 -50.9766 63.1836 -54.1992 57.666 -54.1992 C 52.1973 -54.1992 48.3887 -50.9766 48.3887 -46.3867 C 48.3887 -41.7969 52.2461 -38.5254 57.666 -38.5254 Z M 57.7148 -16.3086 C 64.1113 -16.3086 68.75 -20.1172 68.75 -25.3418 C 68.75 -30.4688 64.1602 -34.1797 57.7148 -34.1797 C 51.3184 -34.1797 46.6309 -30.4199 46.6309 -25.3418 C 46.6309 -20.1172 51.3184 -16.3086 57.7148 -16.3086 Z"/>
  </g>
  <g id="Thin-M" transform="matrix(1 0 0 1 799.806 1126)">
   <path d="M 56.6406 12.7441 C 82.9102 12.7441 104.492 -8.83789 104.492 -35.1562 C 104.492 -61.4746 82.9102 -83.0566 56.5918 -83.0566 C 30.3223 -83.0566 8.74023 -61.4746 8.74023 -35.1562 C 8.74023 -8.83789 30.3223 12.7441 56.6406 12.7441 Z M 56.5918 -12.6953 C 47.3633 -12.6953 40.9668 -17.9688 40.9668 -25.4883 C 40.9668 -30.7129 44.9219 -35.3027 50.3906 -36.377 L 50.3906 -36.6211 C 45.8008 -37.9883 42.6758 -41.8945 42.6758 -46.3867 C 42.6758 -53.0762 48.5352 -57.8125 56.5918 -57.8125 C 64.6973 -57.8125 70.5566 -53.0762 70.5566 -46.3867 C 70.5566 -41.8945 67.3828 -37.9395 62.8418 -36.6211 L 62.8418 -36.377 C 68.3105 -35.3027 72.2656 -30.7129 72.2656 -25.4883 C 72.2656 -18.0664 65.7715 -12.6953 56.5918 -12.6953 Z M 56.5918 -37.8418 C 62.5488 -37.8418 66.8457 -41.3574 66.8457 -46.2891 C 66.8457 -51.2207 62.6465 -54.6875 56.5918 -54.6875 C 50.5859 -54.6875 46.3867 -51.2207 46.3867 -46.2891 C 46.3867 -41.3574 50.6836 -37.8418 56.5918 -37.8418 Z M 56.6406 -15.8203 C 63.623 -15.8203 68.6523 -19.873 68.6523 -25.5371 C 68.6523 -30.957 63.623 -34.9121 56.6406 -34.9121 C 49.6094 -34.9121 44.5801 -30.957 44.5801 -25.5371 C 44.5801 -19.873 49.6094 -15.8203 56.6406 -15.8203 Z"/>
  </g>
  <g id="Ultralight-M" transform="matrix(1 0 0 1 503.656 1126)">
   <path d="M 56.0547 12.207 C 82.0801 12.207 103.369 -9.08203 103.369 -35.1562 C 103.369 -61.1816 82.0801 -82.4707 56.0547 -82.4707 C 30.0293 -82.4707 8.74023 -61.1816 8.74023 -35.1562 C 8.74023 -9.08203 30.0293 12.207 56.0547 12.207 Z M 56.0547 -13.1836 C 47.3145 -13.1836 41.1133 -18.4082 41.1133 -25.6836 C 41.1133 -30.7617 45.0195 -35.3027 50.293 -36.377 L 50.293 -36.6211 C 45.8984 -37.9395 42.7734 -41.7969 42.7734 -46.1426 C 42.7734 -52.6855 48.3887 -57.3242 56.0547 -57.3242 C 63.7695 -57.3242 69.3359 -52.6855 69.3359 -46.1426 C 69.3359 -41.7969 66.2109 -37.8906 61.8164 -36.6211 L 61.8164 -36.377 C 67.0898 -35.3027 71.0449 -30.7617 71.0449 -25.6836 C 71.0449 -18.457 64.7461 -13.1836 56.0547 -13.1836 Z M 56.0547 -37.5488 C 62.2559 -37.5488 66.748 -41.1621 66.748 -46.2402 C 66.748 -51.3672 62.4023 -54.9805 56.0547 -54.9805 C 49.7559 -54.9805 45.3613 -51.3672 45.3613 -46.2402 C 45.3613 -41.1621 49.8535 -37.5488 56.0547 -37.5488 Z M 56.0547 -15.5273 C 63.3789 -15.5273 68.6523 -19.7266 68.6523 -25.5859 C 68.6523 -31.25 63.3789 -35.3027 56.0547 -35.3027 C 48.7305 -35.3027 43.5059 -31.25 43.5059 -25.5859 C 43.5059 -19.7266 48.7305 -15.5273 56.0547 -15.5273 Z"/>
  </g>
  <g id="Black-S" transform="matrix(1 0 0 1 2884.57 696)">
   <path d="M 48.8281 6.78711 C 71.9727 6.78711 90.8203 -12.0605 90.8203 -35.2051 C 90.8203 -58.3496 71.9727 -77.1973 48.8281 -77.1973 C 25.6836 -77.1973 6.83594 -58.3496 6.83594 -35.2051 C 6.83594 -12.0605 25.6836 6.78711 48.8281 6.78711 Z M 48.8281 -16.9922 C 38.1836 -16.9922 31.6406 -21.0449 31.6406 -27.7832 C 31.6406 -32.3242 34.8145 -35.4492 39.8926 -36.0352 L 39.8926 -36.5723 C 35.2539 -37.793 33.1543 -40.0879 33.1543 -43.8477 C 33.1543 -49.8047 39.1113 -53.5156 48.8281 -53.5156 C 58.5449 -53.5156 64.502 -49.8047 64.502 -43.8477 C 64.502 -40.0879 62.4023 -37.793 57.7637 -36.5723 L 57.7637 -36.0352 C 62.8418 -35.4492 66.0156 -32.3242 66.0156 -27.7832 C 66.0156 -21.0449 59.4727 -16.9922 48.8281 -16.9922 Z M 48.8281 -39.7949 C 50.1953 -39.7949 51.2207 -40.8691 51.2207 -42.2852 C 51.2207 -43.6523 50.0977 -44.7754 48.8281 -44.7754 C 47.5586 -44.7754 46.4355 -43.6523 46.4355 -42.2852 C 46.4355 -40.8691 47.5098 -39.7949 48.8281 -39.7949 Z M 48.8281 -25.7812 C 50.5859 -25.7812 51.8066 -27.0508 51.8066 -28.8574 C 51.8066 -30.6641 50.5859 -32.0312 48.8281 -32.0312 C 47.0703 -32.0312 45.8496 -30.6641 45.8496 -28.8574 C 45.8496 -27.0508 47.0703 -25.7812 48.8281 -25.7812 Z"/>
  </g>
  <g id="Heavy-S" transform="matrix(1 0 0 1 2588.47 696)">
   <path d="M 48.2422 6.15234 C 70.9961 6.15234 89.5996 -12.4512 89.5996 -35.2051 C 89.5996 -57.959 70.9961 -76.6113 48.1934 -76.6113 C 25.4395 -76.6113 6.83594 -57.959 6.83594 -35.2051 C 6.83594 -12.4512 25.4395 6.15234 48.2422 6.15234 Z M 48.1934 -16.748 C 37.9883 -16.748 31.6406 -20.8496 31.6406 -27.5879 C 31.6406 -32.1289 34.8145 -35.4004 39.8438 -36.0352 L 39.8438 -36.5234 C 35.3027 -37.7441 33.1543 -40.2344 33.1543 -44.043 C 33.1543 -49.9512 38.9648 -53.7598 48.1934 -53.7598 C 57.4707 -53.7598 63.2812 -49.9512 63.2812 -44.043 C 63.2812 -40.2344 61.084 -37.7441 56.5918 -36.5234 L 56.5918 -36.0352 C 61.6211 -35.4004 64.7949 -32.1289 64.7949 -27.5879 C 64.7949 -20.8984 58.3984 -16.748 48.1934 -16.748 Z M 48.1934 -39.4531 C 50.1465 -39.4531 51.5625 -40.8691 51.5625 -42.7246 C 51.5625 -44.5312 50.0488 -45.8984 48.1934 -45.8984 C 46.3379 -45.8984 44.873 -44.5312 44.873 -42.7246 C 44.873 -40.8691 46.3379 -39.4531 48.1934 -39.4531 Z M 48.2422 -24.6094 C 50.5859 -24.6094 52.2949 -26.2207 52.2949 -28.5156 C 52.2949 -30.7617 50.6348 -32.4219 48.2422 -32.4219 C 45.8496 -32.4219 44.1406 -30.7129 44.1406 -28.5156 C 44.1406 -26.2207 45.8008 -24.6094 48.2422 -24.6094 Z"/>
  </g>
  <g id="Bold-S" transform="matrix(1 0 0 1 2292.44 696)">
   <path d="M 47.5586 5.46875 C 69.873 5.46875 88.2324 -12.8906 88.2324 -35.2051 C 88.2324 -57.5684 69.873 -75.9277 47.5098 -75.9277 C 25.1953 -75.9277 6.83594 -57.5684 6.83594 -35.2051 C 6.83594 -12.8906 25.1953 5.46875 47.5586 5.46875 Z M 47.4609 -16.5039 C 37.7441 -16.5039 31.5918 -20.6543 31.5918 -27.3438 C 31.5918 -31.8848 34.8145 -35.3027 39.7949 -36.084 L 39.7949 -36.4746 C 35.4004 -37.6953 33.1543 -40.4297 33.1543 -44.2871 C 33.1543 -50.1465 38.8184 -54.0039 47.5098 -54.0039 C 56.25 -54.0039 61.9141 -50.1465 61.9141 -44.2871 C 61.9141 -40.4297 59.5703 -37.6465 55.2246 -36.4746 L 55.2246 -36.084 C 60.2051 -35.3027 63.4277 -31.8848 63.4277 -27.3438 C 63.4277 -20.7031 57.2266 -16.5039 47.4609 -16.5039 Z M 47.5098 -39.1113 C 50.0977 -39.1113 51.9043 -40.8203 51.9043 -43.1641 C 51.9043 -45.459 50.0488 -47.168 47.5098 -47.168 C 45.0195 -47.168 43.1152 -45.459 43.1152 -43.1641 C 43.1152 -40.8203 44.9707 -39.1113 47.5098 -39.1113 Z M 47.5586 -23.3398 C 50.6348 -23.3398 52.8809 -25.3418 52.8809 -28.0762 C 52.8809 -30.8594 50.6836 -32.8613 47.5586 -32.8613 C 44.4336 -32.8613 42.1875 -30.8105 42.1875 -28.0762 C 42.1875 -25.3418 44.4336 -23.3398 47.5586 -23.3398 Z"/>
  </g>
  <g id="Semibold-S" transform="matrix(1 0 0 1 1996.2 696)">
   <path d="M 47.0703 4.98047 C 69.0918 4.98047 87.3047 -13.1836 87.3047 -35.2539 C 87.3047 -57.2754 69.0918 -75.4883 47.0215 -75.4883 C 25 -75.4883 6.83594 -57.2754 6.83594 -35.2539 C 6.83594 -13.1836 25.0488 4.98047 47.0703 4.98047 Z M 46.9727 -16.3086 C 37.5977 -16.3086 31.5918 -20.5566 31.5918 -27.1973 C 31.5918 -31.6895 34.8145 -35.2539 39.7949 -36.084 L 39.7949 -36.4258 C 35.4492 -37.6953 33.1543 -40.5273 33.1543 -44.4336 C 33.1543 -50.293 38.6719 -54.1992 47.0215 -54.1992 C 55.4199 -54.1992 60.9375 -50.293 60.9375 -44.4336 C 60.9375 -40.5273 58.5449 -37.5977 54.2969 -36.4258 L 54.2969 -36.084 C 59.2773 -35.2539 62.5 -31.7383 62.5 -27.1973 C 62.5 -20.5566 56.3965 -16.3086 46.9727 -16.3086 Z M 47.0215 -38.8672 C 50.0488 -38.8672 52.1973 -40.8203 52.1973 -43.5059 C 52.1973 -46.1426 50 -48.0469 47.0215 -48.0469 C 44.043 -48.0469 41.8945 -46.1426 41.8945 -43.5059 C 41.8945 -40.8203 44.043 -38.8672 47.0215 -38.8672 Z M 47.0703 -22.4609 C 50.6348 -22.4609 53.2715 -24.707 53.2715 -27.7832 C 53.2715 -30.9082 50.7324 -33.1543 47.0703 -33.1543 C 43.5059 -33.1543 40.8691 -30.8594 40.8691 -27.7832 C 40.8691 -24.707 43.457 -22.4609 47.0703 -22.4609 Z"/>
  </g>
  <g id="Medium-S" transform="matrix(1 0 0 1 1699.83 696)">
   <path d="M 46.7285 4.63867 C 68.5547 4.63867 86.6211 -13.4277 86.6211 -35.2539 C 86.6211 -57.0312 68.5059 -75.1465 46.6797 -75.1465 C 24.8535 -75.1465 6.83594 -57.0312 6.83594 -35.2539 C 6.83594 -13.4277 24.9023 4.63867 46.7285 4.63867 Z M 46.6309 -16.1621 C 37.5 -16.1621 31.5918 -20.459 31.5918 -27.0508 C 31.5918 -31.5918 34.8145 -35.2051 39.7461 -36.1328 L 39.7461 -36.4258 C 35.4492 -37.6465 33.1543 -40.625 33.1543 -44.5312 C 33.1543 -50.3906 38.623 -54.3457 46.6797 -54.3457 C 54.7852 -54.3457 60.2539 -50.3906 60.2539 -44.5312 C 60.2539 -40.625 57.7637 -37.5977 53.6133 -36.4258 L 53.6133 -36.1328 C 58.5449 -35.2051 61.7676 -31.5918 61.7676 -27.0996 C 61.7676 -20.459 55.7617 -16.1621 46.6309 -16.1621 Z M 46.6797 -38.6719 C 50 -38.6719 52.3438 -40.7715 52.3438 -43.75 C 52.3438 -46.6309 50 -48.7305 46.6797 -48.7305 C 43.3594 -48.7305 41.0156 -46.6309 41.0156 -43.75 C 41.0156 -40.7715 43.3594 -38.6719 46.6797 -38.6719 Z M 46.7285 -21.7773 C 50.6836 -21.7773 53.5645 -24.2188 53.5645 -27.5879 C 53.5645 -30.957 50.7324 -33.3984 46.7285 -33.3984 C 42.7734 -33.3984 39.8438 -30.9082 39.8438 -27.5879 C 39.8438 -24.2188 42.7246 -21.7773 46.7285 -21.7773 Z"/>
  </g>
  <g id="Regular-S" transform="matrix(1 0 0 1 1403.58 696)">
   <path d="M 46.2402 4.15039 C 67.7734 4.15039 85.6934 -13.7207 85.6934 -35.2539 C 85.6934 -56.7871 67.7246 -74.6582 46.1914 -74.6582 C 24.707 -74.6582 6.83594 -56.7871 6.83594 -35.2539 C 6.83594 -13.7207 24.7559 4.15039 46.2402 4.15039 Z M 46.1426 -15.9668 C 37.3535 -15.9668 31.5918 -20.3125 31.5918 -26.9043 C 31.5918 -31.3965 34.8145 -35.1562 39.7461 -36.1328 L 39.7461 -36.377 C 35.498 -37.6465 33.1055 -40.7715 33.1055 -44.6777 C 33.1055 -50.4883 38.4766 -54.541 46.1914 -54.541 C 53.9551 -54.541 59.2773 -50.4883 59.2773 -44.6777 C 59.2773 -40.7715 56.7871 -37.5488 52.6855 -36.377 L 52.6855 -36.1328 C 57.5684 -35.1562 60.8398 -31.4453 60.8398 -26.9531 C 60.8398 -20.3613 54.9316 -15.9668 46.1426 -15.9668 Z M 46.1914 -38.3789 C 50 -38.3789 52.6367 -40.7715 52.6367 -44.0918 C 52.6367 -47.3145 50 -49.5605 46.1914 -49.5605 C 42.4316 -49.5605 39.7949 -47.3145 39.7949 -44.0918 C 39.7949 -40.7715 42.4316 -38.3789 46.1914 -38.3789 Z M 46.2402 -20.8984 C 50.6836 -20.8984 53.9551 -23.584 53.9551 -27.2949 C 53.9551 -31.0059 50.7812 -33.6914 46.2402 -33.6914 C 41.8457 -33.6914 38.5254 -30.957 38.5254 -27.2949 C 38.5254 -23.584 41.7969 -20.8984 46.2402 -20.8984 Z"/>
  </g>
  <g id="Light-S" transform="matrix(1 0 0 1 1107.6 696)">
   <path d="M 45.5078 3.4668 C 66.6992 3.4668 84.2285 -14.0625 84.2285 -35.2051 C 84.2285 -56.3965 66.6504 -73.9258 45.5078 -73.9258 C 24.3164 -73.9258 6.83594 -56.3965 6.83594 -35.2051 C 6.83594 -14.0625 24.3652 3.4668 45.5078 3.4668 Z M 45.4102 -16.6016 C 37.2559 -16.6016 31.7871 -20.8496 31.7871 -27.1484 C 31.7871 -31.4941 34.9609 -35.2051 39.6484 -36.1328 L 39.6484 -36.377 C 35.6445 -37.5488 33.252 -40.625 33.252 -44.3848 C 33.252 -50 38.2812 -53.9062 45.5078 -53.9062 C 52.6855 -53.9062 57.7637 -50 57.7637 -44.3848 C 57.7637 -40.625 55.2246 -37.4512 51.3672 -36.377 L 51.3672 -36.1328 C 56.0059 -35.2051 59.2285 -31.543 59.2285 -27.1973 C 59.2285 -20.8984 53.6133 -16.6016 45.4102 -16.6016 Z M 45.5078 -37.9883 C 49.6094 -37.9883 52.5391 -40.4785 52.5391 -43.9941 C 52.5391 -47.4609 49.6582 -49.9023 45.5078 -49.9023 C 41.3574 -49.9023 38.4766 -47.4609 38.4766 -43.9941 C 38.4766 -40.4785 41.4062 -37.9883 45.5078 -37.9883 Z M 45.5078 -20.5566 C 50.3418 -20.5566 53.9062 -23.4375 53.9062 -27.4414 C 53.9062 -31.3477 50.4395 -34.1797 45.5078 -34.1797 C 40.6738 -34.1797 37.1094 -31.2988 37.1094 -27.4414 C 37.1094 -23.4375 40.6738 -20.5566 45.5078 -20.5566 Z"/>
  </g>
  <g id="Thin-S" transform="matrix(1 0 0 1 811.867 696)">
   <path d="M 44.5801 2.53906 C 65.2832 2.53906 82.2754 -14.4531 82.2754 -35.2051 C 82.2754 -55.9082 65.2344 -72.9004 44.5312 -72.9004 C 23.8281 -72.9004 6.83594 -55.9082 6.83594 -35.2051 C 6.83594 -14.4531 23.877 2.53906 44.5801 2.53906 Z M 44.5312 -17.3828 C 37.1582 -17.3828 32.0312 -21.582 32.0312 -27.4902 C 32.0312 -31.6406 35.1074 -35.2539 39.502 -36.1328 L 39.502 -36.3281 C 35.8398 -37.4512 33.3984 -40.4785 33.3984 -44.043 C 33.3984 -49.3652 38.0371 -53.125 44.5312 -53.125 C 51.0254 -53.125 55.7129 -49.3652 55.7129 -44.043 C 55.7129 -40.4785 53.2227 -37.3535 49.6094 -36.3281 L 49.6094 -36.1328 C 53.9551 -35.2539 57.0801 -31.6406 57.0801 -27.5391 C 57.0801 -21.6309 51.9043 -17.3828 44.5312 -17.3828 Z M 44.5312 -37.4023 C 49.1211 -37.4023 52.3926 -40.1367 52.3926 -43.8965 C 52.3926 -47.7051 49.1699 -50.3906 44.5312 -50.3906 C 39.9414 -50.3906 36.7188 -47.7051 36.7188 -43.8965 C 36.7188 -40.1367 39.9902 -37.4023 44.5312 -37.4023 Z M 44.5801 -20.1172 C 49.9512 -20.1172 53.8086 -23.2422 53.8086 -27.5879 C 53.8086 -31.7871 49.9512 -34.8145 44.5801 -34.8145 C 39.209 -34.8145 35.3027 -31.7871 35.3027 -27.5879 C 35.3027 -23.2422 39.1602 -20.1172 44.5801 -20.1172 Z"/>
  </g>
  <g id="Ultralight-S" transform="matrix(1 0 0 1 515.644 696)">
   <path d="M 44.043 2.05078 C 64.502 2.05078 81.2988 -14.6973 81.2988 -35.1562 C 81.2988 -55.6152 64.502 -72.3633 44.043 -72.3633 C 23.584 -72.3633 6.83594 -55.6152 6.83594 -35.1562 C 6.83594 -14.6973 23.584 2.05078 44.043 2.05078 Z M 44.043 -17.8223 C 37.0605 -17.8223 32.1289 -21.9238 32.1289 -27.6855 C 32.1289 -31.7383 35.2539 -35.3027 39.4043 -36.1328 L 39.4043 -36.3281 C 35.9375 -37.3535 33.4961 -40.3809 33.4961 -43.8477 C 33.4961 -49.0234 37.9395 -52.6855 44.043 -52.6855 C 50.1953 -52.6855 54.6387 -49.0234 54.6387 -43.8477 C 54.6387 -40.3809 52.1973 -37.3047 48.6816 -36.3281 L 48.6816 -36.1328 C 52.8809 -35.3027 55.957 -31.7383 55.957 -27.6855 C 55.957 -21.9727 50.9766 -17.8223 44.043 -17.8223 Z M 44.043 -37.1094 C 48.8281 -37.1094 52.2949 -39.9414 52.2949 -43.8477 C 52.2949 -47.8027 48.9258 -50.6348 44.043 -50.6348 C 39.1602 -50.6348 35.791 -47.8027 35.791 -43.8477 C 35.791 -39.9414 39.2578 -37.1094 44.043 -37.1094 Z M 44.043 -19.873 C 49.707 -19.873 53.7598 -23.1445 53.7598 -27.6855 C 53.7598 -32.0312 49.707 -35.1562 44.043 -35.1562 C 38.4277 -35.1562 34.3262 -32.0312 34.3262 -27.6855 C 34.3262 -23.1445 38.4277 -19.873 44.043 -19.873 Z"/>
  </g>
 </g>
</svg>
