<?xml version="1.0" encoding="UTF-8"?>
<!--Generator: Apple Native CoreSVG 123-->
<!DOCTYPE svg
PUBLIC "-//W3C//DTD SVG 1.1//EN"
       "http://www.w3.org/Graphics/SVG/1.1/DTD/svg11.dtd">
<svg version="1.1" xmlns="http://www.w3.org/2000/svg" xmlns:xlink="http://www.w3.org/1999/xlink" width="3300" height="2200">
 <!--glyph: "uni100474.medium", point size: 100.000000, font version: "Version 15.0d7e11", template writer version: "5"-->
 <g id="Notes">
  <rect height="2200" id="artboard" style="fill:white;opacity:1" width="3300" x="0" y="0"/>
  <line id="" style="fill:none;stroke:black;opacity:1;stroke-width:0.5;" x1="263" x2="3036" y1="292" y2="292"/>
  <text style="stroke:none;fill:black;font-family:-apple-system,&quot;SF Pro Display&quot;,&quot;SF Pro Text&quot;,Helvetica,sans-serif;font-weight:bold;" transform="matrix(1 0 0 1 263 322)">Weight/Scale Variations</text>
  <text style="stroke:none;fill:black;font-family:-apple-system,&quot;SF Pro Display&quot;,&quot;SF Pro Text&quot;,Helvetica,sans-serif;text-anchor:middle;" transform="matrix(1 0 0 1 559.711 322)">Ultralight</text>
  <text style="stroke:none;fill:black;font-family:-apple-system,&quot;SF Pro Display&quot;,&quot;SF Pro Text&quot;,Helvetica,sans-serif;text-anchor:middle;" transform="matrix(1 0 0 1 856.422 322)">Thin</text>
  <text style="stroke:none;fill:black;font-family:-apple-system,&quot;SF Pro Display&quot;,&quot;SF Pro Text&quot;,Helvetica,sans-serif;text-anchor:middle;" transform="matrix(1 0 0 1 1153.13 322)">Light</text>
  <text style="stroke:none;fill:black;font-family:-apple-system,&quot;SF Pro Display&quot;,&quot;SF Pro Text&quot;,Helvetica,sans-serif;text-anchor:middle;" transform="matrix(1 0 0 1 1449.84 322)">Regular</text>
  <text style="stroke:none;fill:black;font-family:-apple-system,&quot;SF Pro Display&quot;,&quot;SF Pro Text&quot;,Helvetica,sans-serif;text-anchor:middle;" transform="matrix(1 0 0 1 1746.56 322)">Medium</text>
  <text style="stroke:none;fill:black;font-family:-apple-system,&quot;SF Pro Display&quot;,&quot;SF Pro Text&quot;,Helvetica,sans-serif;text-anchor:middle;" transform="matrix(1 0 0 1 2043.27 322)">Semibold</text>
  <text style="stroke:none;fill:black;font-family:-apple-system,&quot;SF Pro Display&quot;,&quot;SF Pro Text&quot;,Helvetica,sans-serif;text-anchor:middle;" transform="matrix(1 0 0 1 2339.98 322)">Bold</text>
  <text style="stroke:none;fill:black;font-family:-apple-system,&quot;SF Pro Display&quot;,&quot;SF Pro Text&quot;,Helvetica,sans-serif;text-anchor:middle;" transform="matrix(1 0 0 1 2636.69 322)">Heavy</text>
  <text style="stroke:none;fill:black;font-family:-apple-system,&quot;SF Pro Display&quot;,&quot;SF Pro Text&quot;,Helvetica,sans-serif;text-anchor:middle;" transform="matrix(1 0 0 1 2933.4 322)">Black</text>
  <line id="" style="fill:none;stroke:black;opacity:1;stroke-width:0.5;" x1="263" x2="3036" y1="1903" y2="1903"/>
  <g id="" transform="matrix(1 0 0 1 263 1933)">
   <path d="M 9.24805 0.830078 C 13.5547 0.830078 17.1387 -2.74414 17.1387 -7.05078 C 17.1387 -11.3574 13.5449 -14.9316 9.23828 -14.9316 C 4.94141 -14.9316 1.36719 -11.3574 1.36719 -7.05078 C 1.36719 -2.74414 4.95117 0.830078 9.24805 0.830078 Z M 9.24805 -0.654297 C 5.70312 -0.654297 2.87109 -3.49609 2.87109 -7.05078 C 2.87109 -10.6055 5.69336 -13.4473 9.23828 -13.4473 C 12.793 -13.4473 15.6348 -10.6055 15.6445 -7.05078 C 15.6543 -3.49609 12.8027 -0.654297 9.24805 -0.654297 Z M 9.22852 -3.42773 C 9.69727 -3.42773 9.9707 -3.74023 9.9707 -4.25781 L 9.9707 -6.31836 L 12.1973 -6.31836 C 12.6953 -6.31836 13.0371 -6.57227 13.0371 -7.04102 C 13.0371 -7.51953 12.7148 -7.7832 12.1973 -7.7832 L 9.9707 -7.7832 L 9.9707 -10.0098 C 9.9707 -10.5273 9.69727 -10.8496 9.22852 -10.8496 C 8.75977 -10.8496 8.50586 -10.5078 8.50586 -10.0098 L 8.50586 -7.7832 L 6.29883 -7.7832 C 5.78125 -7.7832 5.44922 -7.51953 5.44922 -7.04102 C 5.44922 -6.57227 5.80078 -6.31836 6.29883 -6.31836 L 8.50586 -6.31836 L 8.50586 -4.25781 C 8.50586 -3.75977 8.75977 -3.42773 9.22852 -3.42773 Z"/>
  </g>
  <g id="" transform="matrix(1 0 0 1 281.506 1933)">
   <path d="M 11.709 2.91016 C 17.1582 2.91016 21.6699 -1.60156 21.6699 -7.05078 C 21.6699 -12.4902 17.1484 -17.0117 11.6992 -17.0117 C 6.25977 -17.0117 1.74805 -12.4902 1.74805 -7.05078 C 1.74805 -1.60156 6.26953 2.91016 11.709 2.91016 Z M 11.709 1.25 C 7.09961 1.25 3.41797 -2.44141 3.41797 -7.05078 C 3.41797 -11.6504 7.08984 -15.3516 11.6992 -15.3516 C 16.3086 -15.3516 20 -11.6504 20.0098 -7.05078 C 20.0195 -2.44141 16.3184 1.25 11.709 1.25 Z M 11.6895 -2.41211 C 12.207 -2.41211 12.5195 -2.77344 12.5195 -3.33984 L 12.5195 -6.23047 L 15.5762 -6.23047 C 16.123 -6.23047 16.5039 -6.51367 16.5039 -7.03125 C 16.5039 -7.55859 16.1426 -7.86133 15.5762 -7.86133 L 12.5195 -7.86133 L 12.5195 -10.9277 C 12.5195 -11.5039 12.207 -11.8555 11.6895 -11.8555 C 11.1719 -11.8555 10.8789 -11.4844 10.8789 -10.9277 L 10.8789 -7.86133 L 7.83203 -7.86133 C 7.26562 -7.86133 6.89453 -7.55859 6.89453 -7.03125 C 6.89453 -6.51367 7.28516 -6.23047 7.83203 -6.23047 L 10.8789 -6.23047 L 10.8789 -3.33984 C 10.8789 -2.79297 11.1719 -2.41211 11.6895 -2.41211 Z"/>
  </g>
  <g id="" transform="matrix(1 0 0 1 304.924 1933)">
   <path d="M 14.9707 5.67383 C 21.9336 5.67383 27.6953 -0.078125 27.6953 -7.04102 C 27.6953 -14.0039 21.9238 -19.7559 14.9609 -19.7559 C 8.00781 -19.7559 2.25586 -14.0039 2.25586 -7.04102 C 2.25586 -0.078125 8.01758 5.67383 14.9707 5.67383 Z M 14.9707 3.85742 C 8.93555 3.85742 4.08203 -1.00586 4.08203 -7.04102 C 4.08203 -13.0762 8.92578 -17.9395 14.9609 -17.9395 C 21.0059 -17.9395 25.8594 -13.0762 25.8691 -7.04102 C 25.8789 -1.00586 21.0156 3.85742 14.9707 3.85742 Z M 14.9512 -1.06445 C 15.5176 -1.06445 15.8691 -1.45508 15.8691 -2.06055 L 15.8691 -6.13281 L 20.1074 -6.13281 C 20.6934 -6.13281 21.1133 -6.46484 21.1133 -7.02148 C 21.1133 -7.59766 20.7227 -7.93945 20.1074 -7.93945 L 15.8691 -7.93945 L 15.8691 -12.1875 C 15.8691 -12.8027 15.5176 -13.1934 14.9512 -13.1934 C 14.3848 -13.1934 14.0625 -12.7832 14.0625 -12.1875 L 14.0625 -7.93945 L 9.83398 -7.93945 C 9.21875 -7.93945 8.80859 -7.59766 8.80859 -7.02148 C 8.80859 -6.46484 9.23828 -6.13281 9.83398 -6.13281 L 14.0625 -6.13281 L 14.0625 -2.06055 C 14.0625 -1.47461 14.3848 -1.06445 14.9512 -1.06445 Z"/>
  </g>
  <text style="stroke:none;fill:black;font-family:-apple-system,&quot;SF Pro Display&quot;,&quot;SF Pro Text&quot;,Helvetica,sans-serif;font-weight:bold;" transform="matrix(1 0 0 1 263 1953)">Design Variations</text>
  <text style="stroke:none;fill:black;font-family:-apple-system,&quot;SF Pro Display&quot;,&quot;SF Pro Text&quot;,Helvetica,sans-serif;" transform="matrix(1 0 0 1 263 1971)">Symbols are supported in up to nine weights and three scales.</text>
  <text style="stroke:none;fill:black;font-family:-apple-system,&quot;SF Pro Display&quot;,&quot;SF Pro Text&quot;,Helvetica,sans-serif;" transform="matrix(1 0 0 1 263 1989)">For optimal layout with text and other symbols, vertically align</text>
  <text style="stroke:none;fill:black;font-family:-apple-system,&quot;SF Pro Display&quot;,&quot;SF Pro Text&quot;,Helvetica,sans-serif;" transform="matrix(1 0 0 1 263 2007)">symbols with the adjacent text.</text>
  <rect height="14" id="" style="fill:#00AEEF;stroke:none;opacity:0.4;" width="3" x="776" y="1919"/>
  <g id="" transform="matrix(1 0 0 1 779 1933)">
   <path d="M 10.5273 0 L 12.373 0 L 7.17773 -14.0918 L 5.43945 -14.0918 L 0.244141 0 L 2.08984 0 L 3.50586 -4.0332 L 9.11133 -4.0332 Z M 6.2793 -11.9531 L 6.33789 -11.9531 L 8.59375 -5.52734 L 4.02344 -5.52734 Z"/>
  </g>
  <rect height="14" id="" style="fill:#00AEEF;stroke:none;opacity:0.4;" width="3" x="791.617" y="1919"/>
  <text style="stroke:none;fill:black;font-family:-apple-system,&quot;SF Pro Display&quot;,&quot;SF Pro Text&quot;,Helvetica,sans-serif;font-weight:bold;" transform="matrix(1 0 0 1 776 1953)">Margins</text>
  <text style="stroke:none;fill:black;font-family:-apple-system,&quot;SF Pro Display&quot;,&quot;SF Pro Text&quot;,Helvetica,sans-serif;" transform="matrix(1 0 0 1 776 1971)">Leading and trailing margins on the left and right side of each symbol</text>
  <text style="stroke:none;fill:black;font-family:-apple-system,&quot;SF Pro Display&quot;,&quot;SF Pro Text&quot;,Helvetica,sans-serif;" transform="matrix(1 0 0 1 776 1989)">can be adjusted by modifying the width of the blue rectangles.</text>
  <text style="stroke:none;fill:black;font-family:-apple-system,&quot;SF Pro Display&quot;,&quot;SF Pro Text&quot;,Helvetica,sans-serif;" transform="matrix(1 0 0 1 776 2007)">Modifications are automatically applied proportionally to all</text>
  <text style="stroke:none;fill:black;font-family:-apple-system,&quot;SF Pro Display&quot;,&quot;SF Pro Text&quot;,Helvetica,sans-serif;" transform="matrix(1 0 0 1 776 2025)">scales and weights.</text>
  <g id="" transform="matrix(1 0 0 1 1289 1933)">
   <path d="M 2.83203 3.11523 L 4.375 4.6582 C 5.22461 5.48828 6.19141 5.41992 7.06055 4.46289 L 17.2754 -6.66016 C 17.7051 -6.36719 18.0957 -6.37695 18.5645 -6.47461 L 19.6094 -6.68945 L 20.3027 -5.99609 L 20.2539 -5.47852 C 20.1855 -4.95117 20.3516 -4.53125 20.8496 -4.0332 L 21.6602 -3.22266 C 22.168 -2.71484 22.8223 -2.68555 23.3008 -3.16406 L 26.5527 -6.41602 C 27.0312 -6.89453 27.0117 -7.54883 26.5039 -8.05664 L 25.6836 -8.87695 C 25.1855 -9.375 24.7754 -9.55078 24.2383 -9.47266 L 23.7109 -9.41406 L 23.0566 -10.0781 L 23.3398 -11.2207 C 23.4863 -11.7871 23.3398 -12.2559 22.7148 -12.8613 L 20.3027 -15.2539 C 16.7578 -18.7793 12.2266 -18.6719 9.11133 -15.5371 C 8.69141 -15.1074 8.64258 -14.5215 8.91602 -14.0918 C 9.15039 -13.7207 9.62891 -13.4961 10.2734 -13.6621 C 11.7871 -14.043 13.3008 -13.9258 14.7852 -12.9199 L 14.1602 -11.3379 C 13.9258 -10.752 13.9453 -10.2734 14.1797 -9.83398 L 3.01758 0.439453 C 2.08008 1.30859 1.97266 2.25586 2.83203 3.11523 Z M 10.6738 -15.1465 C 13.3398 -17.1387 16.6504 -16.8262 19.0527 -14.4141 L 21.6797 -11.8066 C 21.9141 -11.5723 21.9434 -11.3867 21.8848 -11.0938 L 21.5039 -9.53125 L 23.0762 -7.95898 L 24.043 -8.04688 C 24.3262 -8.07617 24.4141 -8.05664 24.6387 -7.83203 L 25.2637 -7.20703 L 22.5098 -4.46289 L 21.8848 -5.07812 C 21.6602 -5.30273 21.6406 -5.40039 21.6699 -5.68359 L 21.7578 -6.64062 L 20.1953 -8.20312 L 18.5742 -7.89062 C 18.291 -7.83203 18.1445 -7.83203 17.9102 -8.07617 L 15.7324 -10.2539 C 15.5078 -10.4883 15.4785 -10.625 15.6055 -10.9473 L 16.5527 -13.2227 C 14.9512 -14.7559 12.8418 -15.6055 10.8008 -14.9512 C 10.7129 -14.9219 10.6445 -14.9414 10.6152 -14.9805 C 10.5859 -15.0293 10.5859 -15.0781 10.6738 -15.1465 Z M 4.10156 2.41211 C 3.61328 1.91406 3.78906 1.61133 4.12109 1.30859 L 15.0781 -8.80859 L 16.3086 -7.57812 L 6.15234 3.34961 C 5.84961 3.68164 5.46875 3.7793 5.06836 3.37891 Z"/>
  </g>
  <text style="stroke:none;fill:black;font-family:-apple-system,&quot;SF Pro Display&quot;,&quot;SF Pro Text&quot;,Helvetica,sans-serif;font-weight:bold;" transform="matrix(1 0 0 1 1289 1953)">Exporting</text>
  <text style="stroke:none;fill:black;font-family:-apple-system,&quot;SF Pro Display&quot;,&quot;SF Pro Text&quot;,Helvetica,sans-serif;" transform="matrix(1 0 0 1 1289 1971)">Symbols should be outlined when exporting to ensure the</text>
  <text style="stroke:none;fill:black;font-family:-apple-system,&quot;SF Pro Display&quot;,&quot;SF Pro Text&quot;,Helvetica,sans-serif;" transform="matrix(1 0 0 1 1289 1989)">design is preserved when submitting to Xcode.</text>
  <text id="template-version" style="stroke:none;fill:black;font-family:-apple-system,&quot;SF Pro Display&quot;,&quot;SF Pro Text&quot;,Helvetica,sans-serif;text-anchor:end;" transform="matrix(1 0 0 1 3036 1933)">Template v.1.0</text>
  <text style="stroke:none;fill:black;font-family:-apple-system,&quot;SF Pro Display&quot;,&quot;SF Pro Text&quot;,Helvetica,sans-serif;text-anchor:end;" transform="matrix(1 0 0 1 3036 1951)">Generated from 9.alt.circle.fill</text>
  <text style="stroke:none;fill:black;font-family:-apple-system,&quot;SF Pro Display&quot;,&quot;SF Pro Text&quot;,Helvetica,sans-serif;text-anchor:end;" transform="matrix(1 0 0 1 3036 1969)">Typeset at 100 points</text>
  <text style="stroke:none;fill:black;font-family:-apple-system,&quot;SF Pro Display&quot;,&quot;SF Pro Text&quot;,Helvetica,sans-serif;" transform="matrix(1 0 0 1 263 726)">Small</text>
  <text style="stroke:none;fill:black;font-family:-apple-system,&quot;SF Pro Display&quot;,&quot;SF Pro Text&quot;,Helvetica,sans-serif;" transform="matrix(1 0 0 1 263 1156)">Medium</text>
  <text style="stroke:none;fill:black;font-family:-apple-system,&quot;SF Pro Display&quot;,&quot;SF Pro Text&quot;,Helvetica,sans-serif;" transform="matrix(1 0 0 1 263 1586)">Large</text>
 </g>
 <g id="Guides">
  <g id="H-reference" style="fill:#27AAE1;stroke:none;" transform="matrix(1 0 0 1 339 696)">
   <path d="M 54.9316 0 L 57.666 0 L 30.5664 -70.459 L 28.0762 -70.459 L 0.976562 0 L 3.66211 0 L 12.9395 -24.4629 L 45.7031 -24.4629 Z M 29.1992 -67.0898 L 29.4434 -67.0898 L 44.8242 -26.709 L 13.8184 -26.709 Z"/>
  </g>
  <line id="Baseline-S" style="fill:none;stroke:#27AAE1;opacity:1;stroke-width:0.577;" x1="263" x2="3036" y1="696" y2="696"/>
  <line id="Capline-S" style="fill:none;stroke:#27AAE1;opacity:1;stroke-width:0.577;" x1="263" x2="3036" y1="625.541" y2="625.541"/>
  <g id="H-reference" style="fill:#27AAE1;stroke:none;" transform="matrix(1 0 0 1 339 1126)">
   <path d="M 54.9316 0 L 57.666 0 L 30.5664 -70.459 L 28.0762 -70.459 L 0.976562 0 L 3.66211 0 L 12.9395 -24.4629 L 45.7031 -24.4629 Z M 29.1992 -67.0898 L 29.4434 -67.0898 L 44.8242 -26.709 L 13.8184 -26.709 Z"/>
  </g>
  <line id="Baseline-M" style="fill:none;stroke:#27AAE1;opacity:1;stroke-width:0.577;" x1="263" x2="3036" y1="1126" y2="1126"/>
  <line id="Capline-M" style="fill:none;stroke:#27AAE1;opacity:1;stroke-width:0.577;" x1="263" x2="3036" y1="1055.54" y2="1055.54"/>
  <g id="H-reference" style="fill:#27AAE1;stroke:none;" transform="matrix(1 0 0 1 339 1556)">
   <path d="M 54.9316 0 L 57.666 0 L 30.5664 -70.459 L 28.0762 -70.459 L 0.976562 0 L 3.66211 0 L 12.9395 -24.4629 L 45.7031 -24.4629 Z M 29.1992 -67.0898 L 29.4434 -67.0898 L 44.8242 -26.709 L 13.8184 -26.709 Z"/>
  </g>
  <line id="Baseline-L" style="fill:none;stroke:#27AAE1;opacity:1;stroke-width:0.577;" x1="263" x2="3036" y1="1556" y2="1556"/>
  <line id="Capline-L" style="fill:none;stroke:#27AAE1;opacity:1;stroke-width:0.577;" x1="263" x2="3036" y1="1485.54" y2="1485.54"/>
  <rect height="119.336" id="left-margin" style="fill:#00AEEF;stroke:none;opacity:0.4;" width="8.74023" x="1391.3" y="1030.79"/>
  <rect height="119.336" id="right-margin" style="fill:#00AEEF;stroke:none;opacity:0.4;" width="8.74023" x="1499.65" y="1030.79"/>
 </g>
 <g id="Symbols">
  <g id="Black-L" transform="matrix(1 0 0 1 2854.05 1556)">
   <path d="M 79.3457 32.8613 C 116.748 32.8613 147.412 2.19727 147.412 -35.2051 C 147.412 -72.6074 116.748 -103.271 79.2969 -103.271 C 41.8945 -103.271 11.2793 -72.6074 11.2793 -35.2051 C 11.2793 2.19727 41.9434 32.8613 79.3457 32.8613 Z M 53.7109 -43.7988 C 53.7109 -56.6895 64.0137 -65.8691 80.0781 -65.8691 C 96.5332 -65.8691 106.738 -56.7871 106.738 -42.6758 C 106.738 -33.7402 103.418 -27.4902 97.3633 -19.0918 C 95.752 -16.9434 92.9688 -13.2324 90.918 -10.6934 C 88.1836 -7.17773 85.6445 -4.6875 80.6152 -4.6875 C 75.1465 -4.6875 71.7773 -8.25195 71.7773 -12.1094 C 71.7773 -14.9902 73.1445 -17.1387 74.707 -18.7988 C 76.0742 -20.4102 77.9785 -22.5586 79.6875 -24.5605 C 80.9082 -25.9766 82.1289 -27.3926 82.8125 -28.5156 L 81.9336 -28.5156 C 79.7852 -26.3672 76.0254 -25.3418 72.168 -25.3418 C 61.4258 -25.3418 53.7109 -33.2031 53.7109 -43.7988 Z M 71.6309 -44.7754 C 71.6309 -40.918 75.293 -38.0859 80.0781 -38.0859 C 84.9121 -38.0859 88.5742 -40.918 88.5742 -44.7754 C 88.5742 -48.7305 84.9121 -51.5137 80.0781 -51.5137 C 75.293 -51.5137 71.6309 -48.7305 71.6309 -44.7754 Z"/>
  </g>
  <g id="Heavy-L" transform="matrix(1 0 0 1 2558.39 1556)">
   <path d="M 78.2715 31.7871 C 115.088 31.7871 145.312 1.61133 145.312 -35.2051 C 145.312 -72.0215 115.039 -102.197 78.2715 -102.197 C 41.4551 -102.197 11.2793 -72.0215 11.2793 -35.2051 C 11.2793 1.61133 41.5039 31.7871 78.2715 31.7871 Z M 53.7598 -44.2383 C 53.7598 -56.8848 63.7695 -65.8691 79.1504 -65.8691 C 94.7754 -65.8691 104.736 -56.9824 104.736 -43.2617 C 104.736 -34.8145 101.514 -28.4668 95.5078 -20.166 C 93.5059 -17.5293 90.0879 -13.0371 87.7441 -10.1074 C 85.2051 -6.93359 83.1055 -4.73633 78.7109 -4.73633 C 73.9746 -4.73633 71.0938 -7.8125 71.0938 -11.1816 C 71.0938 -13.623 72.2656 -15.5273 73.6328 -17.041 C 75.7812 -19.6289 78.2715 -22.5098 80.3223 -25.0488 C 81.6406 -26.5625 82.7637 -27.9297 83.4961 -29.0527 L 82.6172 -29.0527 C 80.4199 -26.9043 76.416 -25.7324 72.4609 -25.7324 C 61.5723 -25.7324 53.7598 -33.5449 53.7598 -44.2383 Z M 69.3359 -45.0195 C 69.3359 -40.3809 73.5352 -36.9629 79.1504 -36.9629 C 84.7656 -36.9629 88.9648 -40.3809 88.9648 -45.0195 C 88.9648 -49.8047 84.7168 -53.2227 79.1504 -53.2227 C 73.5352 -53.2227 69.3359 -49.8047 69.3359 -45.0195 Z"/>
  </g>
  <g id="Bold-L" transform="matrix(1 0 0 1 2262.88 1556)">
   <path d="M 77.0996 30.6152 C 113.232 30.6152 142.92 0.878906 142.92 -35.2051 C 142.92 -71.3379 113.184 -101.025 77.0508 -101.025 C 40.9668 -101.025 11.2793 -71.3379 11.2793 -35.2051 C 11.2793 0.878906 41.0156 30.6152 77.0996 30.6152 Z M 53.8086 -44.7266 C 53.8086 -57.1289 63.4766 -65.8691 78.0762 -65.8691 C 92.8223 -65.8691 102.49 -57.1289 102.49 -43.9453 C 102.49 -35.9863 99.3652 -29.5898 93.3594 -21.3867 C 90.9668 -18.1641 86.9141 -12.8906 84.1309 -9.47266 C 81.9336 -6.68945 80.2246 -4.73633 76.6113 -4.73633 C 72.7051 -4.73633 70.3125 -7.32422 70.3125 -10.1562 C 70.3125 -12.1094 71.2402 -13.7207 72.4609 -15.0879 C 75.4883 -18.75 78.5645 -22.4609 81.0547 -25.5859 C 82.4219 -27.1973 83.4961 -28.5645 84.1797 -29.6875 L 83.3496 -29.6875 C 81.1035 -27.4414 76.9043 -26.1719 72.8027 -26.1719 C 61.7676 -26.1719 53.8086 -33.9844 53.8086 -44.7266 Z M 66.748 -45.3613 C 66.748 -39.7949 71.582 -35.7422 78.125 -35.7422 C 84.5703 -35.7422 89.4043 -39.7461 89.4043 -45.3125 C 89.4043 -50.9277 84.5215 -55.0781 78.0762 -55.0781 C 71.582 -55.0781 66.748 -50.9766 66.748 -45.3613 Z"/>
  </g>
  <g id="Semibold-L" transform="matrix(1 0 0 1 1966.97 1556)">
   <path d="M 76.2695 29.7852 C 111.914 29.7852 141.309 0.439453 141.309 -35.2051 C 141.309 -70.8496 111.865 -100.244 76.2695 -100.244 C 40.625 -100.244 11.2793 -70.8496 11.2793 -35.2051 C 11.2793 0.439453 40.6738 29.7852 76.2695 29.7852 Z M 53.8574 -45.0684 C 53.8574 -57.2754 63.3301 -65.8691 77.3438 -65.8691 C 91.5039 -65.8691 100.928 -57.2754 100.928 -44.3848 C 100.928 -36.8164 97.9004 -30.3711 91.8945 -22.2168 C 89.209 -18.6035 84.668 -12.7441 81.6895 -9.0332 C 79.6875 -6.49414 78.2715 -4.78516 75.1465 -4.78516 C 71.8262 -4.78516 69.7754 -6.98242 69.7754 -9.42383 C 69.7754 -11.084 70.5566 -12.5 71.6797 -13.7207 C 75.293 -18.1641 78.8086 -22.4121 81.5918 -25.9277 C 82.959 -27.6367 83.9844 -29.0039 84.668 -30.127 L 83.8379 -30.127 C 81.5918 -27.832 77.1973 -26.4648 72.998 -26.4648 C 61.8652 -26.4648 53.8574 -34.2773 53.8574 -45.0684 Z M 64.9902 -45.5566 C 64.9902 -39.4043 70.2637 -34.8633 77.3926 -34.8633 C 84.4238 -34.8633 89.7461 -39.3555 89.7461 -45.5078 C 89.7461 -51.7578 84.375 -56.3965 77.2949 -56.3965 C 70.2637 -56.3965 64.9902 -51.8066 64.9902 -45.5566 Z"/>
  </g>
  <g id="Medium-L" transform="matrix(1 0 0 1 1670.87 1556)">
   <path d="M 75.6836 29.1992 C 110.938 29.1992 140.088 0.0488281 140.088 -35.2051 C 140.088 -70.459 110.889 -99.6094 75.6348 -99.6094 C 40.3809 -99.6094 11.2793 -70.459 11.2793 -35.2051 C 11.2793 0.0488281 40.3809 29.1992 75.6836 29.1992 Z M 53.8574 -45.3125 C 53.8574 -57.373 63.1836 -65.8691 76.7578 -65.8691 C 90.4785 -65.8691 99.7559 -57.3242 99.7559 -44.7266 C 99.7559 -37.4512 96.8262 -30.957 90.8203 -22.8516 C 87.8906 -18.9453 83.0078 -12.6465 79.7852 -8.69141 C 77.9785 -6.34766 76.7578 -4.78516 74.0234 -4.78516 C 71.1426 -4.78516 69.3848 -6.73828 69.3848 -8.83789 C 69.3848 -10.3027 70.0684 -11.5723 71.0449 -12.6953 C 75.0977 -17.6758 78.9551 -22.3633 81.9824 -26.2207 C 83.3984 -27.9785 84.3262 -29.2969 85.0586 -30.4199 L 84.2285 -30.4688 C 81.9336 -28.125 77.4414 -26.6602 73.1445 -26.6602 C 61.9629 -26.6602 53.8574 -34.4727 53.8574 -45.3125 Z M 63.623 -45.752 C 63.623 -39.0625 69.2383 -34.2285 76.8555 -34.2285 C 84.3262 -34.2285 89.9902 -39.0137 89.9902 -45.6543 C 89.9902 -52.3438 84.2285 -57.373 76.7578 -57.373 C 69.2383 -57.373 63.623 -52.4414 63.623 -45.752 Z"/>
  </g>
  <g id="Regular-L" transform="matrix(1 0 0 1 1374.97 1556)">
   <path d="M 74.8535 28.3691 C 109.668 28.3691 138.477 -0.390625 138.477 -35.2051 C 138.477 -70.0195 109.619 -98.7793 74.8047 -98.7793 C 40.0391 -98.7793 11.2793 -70.0195 11.2793 -35.2051 C 11.2793 -0.390625 40.0879 28.3691 74.8535 28.3691 Z M 53.9062 -45.6055 C 53.9062 -57.5195 62.9883 -65.918 76.0254 -65.918 C 89.1602 -65.918 98.2422 -57.4707 98.2422 -45.166 C 98.2422 -38.2324 95.3613 -31.7383 89.3555 -23.6816 C 86.1816 -19.3848 80.8105 -12.5 77.3438 -8.25195 C 75.7324 -6.15234 74.8047 -4.78516 72.5586 -4.78516 C 70.2637 -4.78516 68.8477 -6.39648 68.8477 -8.1543 C 68.8477 -9.22852 69.3848 -10.3027 70.2148 -11.377 C 74.9023 -17.0898 79.1504 -22.3145 82.4707 -26.5625 C 83.9355 -28.418 84.8633 -29.7363 85.5469 -30.8594 L 84.7656 -30.9082 C 82.4219 -28.5156 77.7832 -26.9531 73.3887 -26.9531 C 62.1094 -26.9531 53.9062 -34.7656 53.9062 -45.6055 Z M 61.8652 -45.9473 C 61.8652 -38.6719 67.9199 -33.3984 76.123 -33.3984 C 84.2285 -33.3984 90.2832 -38.623 90.2832 -45.8496 C 90.2832 -53.1738 84.082 -58.6426 76.0254 -58.6426 C 67.9199 -58.6426 61.8652 -53.2227 61.8652 -45.9473 Z"/>
  </g>
  <g id="Light-L" transform="matrix(1 0 0 1 1079.18 1556)">
   <path d="M 73.9258 27.4902 C 108.301 27.4902 136.621 -0.830078 136.621 -35.1562 C 136.621 -69.5312 108.252 -97.8516 73.9258 -97.8516 C 39.5508 -97.8516 11.2793 -69.5312 11.2793 -35.1562 C 11.2793 -0.830078 39.5996 27.4902 73.9258 27.4902 Z M 54.4922 -45.6543 C 54.4922 -57.0801 63.1836 -65.1367 75.5859 -65.1367 C 88.0371 -65.1367 96.7773 -56.9824 96.7773 -45.3125 C 96.7773 -38.623 93.8965 -32.373 87.9395 -24.2676 C 85.1562 -20.5078 79.1504 -12.8418 75.7324 -8.49609 C 74.3652 -6.83594 73.584 -5.66406 71.8262 -5.66406 C 70.0195 -5.66406 68.9453 -6.93359 68.9453 -8.25195 C 68.9453 -9.17969 69.3848 -10.0098 70.0684 -10.8398 C 75.7812 -17.9199 79.9316 -23.0957 82.8125 -26.8555 C 84.3262 -28.7598 85.2051 -30.0293 86.0352 -31.3965 L 85.3516 -31.4453 C 82.8125 -28.9551 78.2227 -27.4414 73.6816 -27.4414 C 62.5 -27.4414 54.4922 -35.0586 54.4922 -45.6543 Z M 60.6445 -45.8984 C 60.6445 -38.1348 66.9922 -32.4707 75.7324 -32.4707 C 84.3262 -32.4707 90.625 -38.0371 90.625 -45.752 C 90.625 -53.5645 84.1309 -59.4238 75.5371 -59.4238 C 66.9922 -59.4238 60.6445 -53.6621 60.6445 -45.8984 Z"/>
  </g>
  <g id="Thin-L" transform="matrix(1 0 0 1 783.693 1556)">
   <path d="M 72.7051 26.3184 C 106.494 26.3184 134.18 -1.36719 134.18 -35.1074 C 134.18 -68.8965 106.494 -96.582 72.7051 -96.582 C 38.9648 -96.582 11.2793 -68.8965 11.2793 -35.1074 C 11.2793 -1.36719 38.9648 26.3184 72.7051 26.3184 Z M 55.2246 -45.7031 C 55.2246 -56.4941 63.4277 -64.1113 74.9512 -64.1113 C 86.6211 -64.1113 94.873 -56.3477 94.873 -45.459 C 94.873 -39.1602 91.9922 -33.2031 86.0352 -25 C 83.7891 -21.9238 77.002 -13.2812 73.5352 -8.88672 C 72.6074 -7.71484 72.0215 -6.83594 70.8008 -6.83594 C 69.6777 -6.83594 69.0918 -7.66602 69.0918 -8.44727 C 69.0918 -9.08203 69.4336 -9.61914 69.8242 -10.1074 C 76.9043 -18.9941 80.957 -24.1211 83.3008 -27.1973 C 84.8633 -29.248 85.6934 -30.4688 86.7188 -32.1289 L 86.1816 -32.1777 C 83.3496 -29.541 78.7598 -28.0273 74.0723 -28.0273 C 63.0859 -28.0273 55.2246 -35.4004 55.2246 -45.7031 Z M 59.082 -45.8008 C 59.082 -37.4023 65.7227 -31.2988 75.1953 -31.2988 C 84.4238 -31.2988 91.1133 -37.2559 91.1133 -45.6055 C 91.1133 -54.1016 84.1309 -60.498 74.9023 -60.498 C 65.7227 -60.498 59.082 -54.248 59.082 -45.8008 Z"/>
  </g>
  <g id="Ultralight-L" transform="matrix(1 0 0 1 487.616 1556)">
   <path d="M 72.1191 25.7324 C 105.566 25.7324 132.91 -1.61133 132.91 -35.1074 C 132.91 -68.5547 105.566 -95.8984 72.1191 -95.8984 C 38.623 -95.8984 11.2793 -68.5547 11.2793 -35.1074 C 11.2793 -1.61133 38.623 25.7324 72.1191 25.7324 Z M 55.6152 -45.752 C 55.6152 -56.2012 63.5254 -63.5742 74.6582 -63.5742 C 85.8887 -63.5742 93.8965 -56.0059 93.8965 -45.5078 C 93.8965 -39.4043 90.9668 -33.6426 85.0586 -25.3906 C 83.0566 -22.6562 75.8789 -13.5254 72.4121 -9.08203 C 71.7285 -8.1543 71.1914 -7.42188 70.3125 -7.42188 C 69.4824 -7.42188 69.1406 -8.00781 69.1406 -8.54492 C 69.1406 -9.0332 69.4336 -9.42383 69.6777 -9.76562 C 77.4902 -19.5312 81.4941 -24.6582 83.5449 -27.3926 C 85.1562 -29.541 85.9375 -30.7129 87.0605 -32.4707 L 86.5723 -32.5684 C 83.6426 -29.8828 79.0527 -28.3203 74.2676 -28.3203 C 63.3789 -28.3203 55.6152 -35.5957 55.6152 -45.752 Z M 58.252 -45.8008 C 58.252 -37.0117 65.0879 -30.7129 74.9023 -30.7129 C 84.4727 -30.7129 91.3086 -36.8652 91.3086 -45.5078 C 91.3086 -54.3945 84.1309 -61.0352 74.5605 -61.0352 C 65.0879 -61.0352 58.252 -54.541 58.252 -45.8008 Z"/>
  </g>
  <g id="Black-M" transform="matrix(1 0 0 1 2870.97 1126)">
   <path d="M 62.4023 18.457 C 91.9922 18.457 116.113 -5.61523 116.113 -35.2051 C 116.113 -64.7949 91.9922 -88.8672 62.4023 -88.8672 C 32.8125 -88.8672 8.74023 -64.7949 8.74023 -35.2051 C 8.74023 -5.61523 32.8125 18.457 62.4023 18.457 Z M 41.8457 -41.3086 C 41.8457 -51.3672 50.0488 -58.5449 63.0859 -58.5449 C 76.5625 -58.5449 84.6191 -51.4648 84.6191 -40.2344 C 84.6191 -32.8613 81.9336 -28.1738 77.2461 -21.582 C 76.709 -20.8496 75.0488 -18.6035 73.9258 -17.1387 C 71.582 -14.209 69.1895 -11.9629 64.6484 -11.9629 C 59.668 -11.9629 56.6406 -15.1855 56.6406 -18.6523 C 56.6406 -21.3379 57.9102 -23.1934 59.2285 -24.6094 C 59.8145 -25.2441 60.4492 -25.8789 61.0352 -26.5137 C 61.9629 -27.4902 62.9883 -28.6133 63.623 -29.541 L 62.9395 -29.541 C 61.2305 -27.9297 58.5938 -27.3438 55.7129 -27.3438 C 47.6562 -27.3438 41.8457 -33.3008 41.8457 -41.3086 Z M 58.0078 -42.1875 C 58.0078 -40.0391 60.2051 -38.4766 63.0859 -38.4766 C 66.1133 -38.4766 68.3105 -40.0391 68.3105 -42.1875 C 68.3105 -44.5312 66.1133 -45.9961 63.0859 -45.9961 C 60.2051 -45.9961 58.0078 -44.5312 58.0078 -42.1875 Z"/>
  </g>
  <g id="Heavy-M" transform="matrix(1 0 0 1 2575.19 1126)">
   <path d="M 61.5234 17.5781 C 90.5273 17.5781 114.258 -6.15234 114.258 -35.2051 C 114.258 -64.2578 90.5273 -87.9883 61.4746 -87.9883 C 32.4707 -87.9883 8.74023 -64.2578 8.74023 -35.2051 C 8.74023 -6.15234 32.4707 17.5781 61.5234 17.5781 Z M 41.748 -41.7969 C 41.748 -51.709 49.707 -58.7402 62.207 -58.7402 C 74.9512 -58.7402 82.8125 -51.8066 82.8125 -40.8691 C 82.8125 -33.9355 80.2246 -29.1504 75.5371 -22.6074 C 74.5117 -21.1914 72.3633 -18.3105 70.8496 -16.4551 C 68.7012 -13.7695 66.6992 -11.7676 62.7441 -11.7676 C 58.4473 -11.7676 55.8594 -14.5996 55.8594 -17.627 C 55.8594 -19.873 56.9336 -21.5332 58.1055 -22.8027 C 59.2773 -24.1699 60.5957 -25.6348 61.6699 -26.9531 C 62.6465 -28.0273 63.5742 -29.1016 64.1602 -30.0293 L 63.4766 -30.0293 C 61.8164 -28.3691 58.9355 -27.6367 55.957 -27.6367 C 47.7051 -27.6367 41.748 -33.6426 41.748 -41.7969 Z M 55.7617 -42.5293 C 55.7617 -39.5996 58.5449 -37.5 62.207 -37.5 C 65.8691 -37.5 68.6523 -39.5996 68.6523 -42.5293 C 68.6523 -45.5566 65.8691 -47.6562 62.207 -47.6562 C 58.5449 -47.6562 55.7617 -45.5566 55.7617 -42.5293 Z"/>
  </g>
  <g id="Bold-M" transform="matrix(1 0 0 1 2279.5 1126)">
   <path d="M 60.498 16.5039 C 88.8672 16.5039 112.207 -6.78711 112.207 -35.2051 C 112.207 -63.623 88.8672 -86.9629 60.4492 -86.9629 C 32.0312 -86.9629 8.74023 -63.623 8.74023 -35.2051 C 8.74023 -6.78711 32.0801 16.5039 60.498 16.5039 Z M 41.6504 -42.2852 C 41.6504 -52.0508 49.3652 -58.9844 61.1328 -58.9844 C 73.1445 -58.9844 80.8105 -52.0996 80.8105 -41.5527 C 80.8105 -35.1074 78.3203 -30.1758 73.6816 -23.7793 C 72.0215 -21.582 69.2871 -18.0176 67.3828 -15.625 C 65.5273 -13.2324 63.916 -11.5723 60.6445 -11.5723 C 57.1289 -11.5723 54.9805 -13.916 54.9805 -16.4062 C 54.9805 -18.2129 55.8105 -19.6777 56.8848 -20.8008 C 58.6914 -22.9492 60.6934 -25.3418 62.3535 -27.4414 C 63.3789 -28.6133 64.2578 -29.6875 64.7949 -30.5664 L 64.1113 -30.5664 C 62.4512 -28.8574 59.3262 -27.9297 56.2012 -27.9297 C 47.7539 -27.9297 41.6504 -33.9844 41.6504 -42.2852 Z M 53.3203 -42.8711 C 53.3203 -39.1113 56.6895 -36.377 61.1816 -36.377 C 65.6738 -36.377 69.043 -39.1113 69.043 -42.8711 C 69.043 -46.6797 65.625 -49.4629 61.1328 -49.4629 C 56.6895 -49.4629 53.3203 -46.7285 53.3203 -42.8711 Z"/>
  </g>
  <g id="Semibold-M" transform="matrix(1 0 0 1 1983.5 1126)">
   <path d="M 59.7656 15.8203 C 87.7441 15.8203 110.791 -7.22656 110.791 -35.2051 C 110.791 -63.1836 87.6953 -86.2793 59.7656 -86.2793 C 31.7871 -86.2793 8.74023 -63.1836 8.74023 -35.2051 C 8.74023 -7.22656 31.7871 15.8203 59.7656 15.8203 Z M 41.5527 -42.627 C 41.5527 -52.2949 49.1211 -59.1309 60.4492 -59.1309 C 71.875 -59.1309 79.3945 -52.3438 79.3945 -42.041 C 79.3945 -35.9375 77.002 -30.9082 72.3633 -24.5605 C 70.3613 -21.875 67.2363 -17.8223 65.0391 -15.0879 C 63.2812 -12.8906 62.0117 -11.4258 59.2285 -11.4258 C 56.2012 -11.4258 54.3457 -13.4277 54.3457 -15.5762 C 54.3457 -17.0898 55.0781 -18.3594 56.0059 -19.4336 C 58.252 -22.168 60.791 -25.1465 62.8418 -27.7832 C 63.916 -29.0039 64.7461 -30.0781 65.2344 -30.9082 L 64.5508 -30.9082 C 62.8906 -29.1992 59.5703 -28.1738 56.3965 -28.1738 C 47.8027 -28.1738 41.5527 -34.2773 41.5527 -42.627 Z M 51.6113 -43.1152 C 51.6113 -38.8184 55.4199 -35.6445 60.4492 -35.6445 C 65.4785 -35.6445 69.2871 -38.7695 69.2871 -43.1152 C 69.2871 -47.5098 65.4785 -50.7324 60.4492 -50.7324 C 55.4199 -50.7324 51.6113 -47.5098 51.6113 -43.1152 Z"/>
  </g>
  <g id="Medium-M" transform="matrix(1 0 0 1 1687.3 1126)">
   <path d="M 59.2285 15.2832 C 86.9141 15.2832 109.766 -7.56836 109.766 -35.2051 C 109.766 -62.8906 86.8652 -85.7422 59.1797 -85.7422 C 31.543 -85.7422 8.74023 -62.8906 8.74023 -35.2051 C 8.74023 -7.56836 31.5918 15.2832 59.2285 15.2832 Z M 41.5039 -42.9199 C 41.5039 -52.4902 48.9258 -59.2773 59.9121 -59.2773 C 70.9473 -59.2773 78.3691 -52.4902 78.3691 -42.4316 C 78.3691 -36.5234 76.0254 -31.4453 71.3867 -25.1465 C 69.043 -22.0703 65.625 -17.627 63.2324 -14.6973 C 61.6211 -12.6465 60.5469 -11.2793 58.1055 -11.2793 C 55.5176 -11.2793 53.9062 -13.0859 53.9062 -14.9902 C 53.9062 -16.2598 54.4922 -17.3828 55.3711 -18.4082 C 57.959 -21.5332 60.8398 -25 63.2324 -28.0273 C 64.3066 -29.3457 65.0879 -30.3711 65.5762 -31.2012 L 64.8926 -31.2012 C 63.1836 -29.4434 59.7656 -28.3203 56.543 -28.3203 C 47.8516 -28.3203 41.5039 -34.4727 41.5039 -42.9199 Z M 50.293 -43.3105 C 50.293 -38.5254 54.4434 -35.0586 59.9121 -35.0586 C 65.3809 -35.0586 69.4824 -38.5254 69.4824 -43.3105 C 69.4824 -48.0957 65.332 -51.6602 59.9121 -51.6602 C 54.4434 -51.6602 50.293 -48.1445 50.293 -43.3105 Z"/>
  </g>
  <g id="Regular-M" transform="matrix(1 0 0 1 1391.3 1126)">
   <path d="M 58.5449 14.5508 C 85.791 14.5508 108.35 -8.00781 108.35 -35.2539 C 108.35 -62.4512 85.7422 -85.0586 58.4961 -85.0586 C 31.2988 -85.0586 8.74023 -62.4512 8.74023 -35.2539 C 8.74023 -8.00781 31.3477 14.5508 58.5449 14.5508 Z M 41.4551 -43.2617 C 41.4551 -52.7832 48.6816 -59.4238 59.1797 -59.4238 C 69.7266 -59.4238 76.9531 -52.7344 76.9531 -42.8711 C 76.9531 -37.3535 74.7559 -32.1777 70.0684 -25.9766 C 67.3828 -22.3633 63.5742 -17.4316 60.8887 -14.1602 C 59.4238 -12.3047 58.6426 -11.1328 56.6895 -11.1328 C 54.5898 -11.1328 53.3203 -12.5977 53.3203 -14.1602 C 53.3203 -15.1367 53.7598 -16.1133 54.541 -17.041 C 57.5684 -20.7031 60.8887 -24.8047 63.7207 -28.3691 C 64.7949 -29.7363 65.5273 -30.7617 66.0156 -31.543 L 65.332 -31.543 C 63.623 -29.7852 60.0098 -28.5645 56.6895 -28.5645 C 47.9004 -28.5645 41.4551 -34.7168 41.4551 -43.2617 Z M 48.6328 -43.5547 C 48.6328 -38.2324 53.1738 -34.2773 59.2285 -34.2773 C 65.2344 -34.2773 69.7754 -38.1836 69.7754 -43.5547 C 69.7754 -48.877 65.1367 -52.9297 59.1797 -52.9297 C 53.1738 -52.9297 48.6328 -48.9258 48.6328 -43.5547 Z"/>
  </g>
  <g id="Light-M" transform="matrix(1 0 0 1 1095.42 1126)">
   <path d="M 57.7148 13.7695 C 84.5215 13.7695 106.689 -8.39844 106.689 -35.2051 C 106.689 -62.0117 84.5215 -84.1797 57.666 -84.1797 C 30.8594 -84.1797 8.74023 -62.0117 8.74023 -35.2051 C 8.74023 -8.39844 30.9082 13.7695 57.7148 13.7695 Z M 41.9434 -43.3105 C 41.9434 -52.3438 48.877 -58.7402 58.7891 -58.7402 C 68.75 -58.7402 75.6836 -52.2949 75.6836 -42.9688 C 75.6836 -37.6953 73.4375 -32.7148 68.7988 -26.4648 C 66.4551 -23.3398 62.1094 -17.7246 59.4238 -14.4043 C 58.252 -12.8906 57.5684 -11.9141 56.0059 -11.9141 C 54.3945 -11.9141 53.3691 -13.0859 53.3691 -14.2578 C 53.3691 -15.0879 53.7598 -15.8203 54.3945 -16.5527 C 58.3496 -21.4355 61.6211 -25.4883 64.0137 -28.6133 C 65.1855 -30.0781 65.8691 -31.0547 66.4551 -32.0312 L 65.8691 -32.0312 C 64.0137 -30.1758 60.4004 -28.9551 56.9824 -28.9551 C 48.2422 -28.9551 41.9434 -34.9609 41.9434 -43.3105 Z M 47.5586 -43.5059 C 47.5586 -37.7441 52.3438 -33.4961 58.8867 -33.4961 C 65.2832 -33.4961 70.0684 -37.6465 70.0684 -43.4082 C 70.0684 -49.2676 65.1855 -53.6133 58.7402 -53.6133 C 52.3438 -53.6133 47.5586 -49.3164 47.5586 -43.5059 Z"/>
  </g>
  <g id="Thin-M" transform="matrix(1 0 0 1 799.806 1126)">
   <path d="M 56.6406 12.7441 C 82.9102 12.7441 104.492 -8.83789 104.492 -35.1562 C 104.492 -61.4746 82.9102 -83.0566 56.5918 -83.0566 C 30.3223 -83.0566 8.74023 -61.4746 8.74023 -35.1562 C 8.74023 -8.83789 30.3223 12.7441 56.6406 12.7441 Z M 42.627 -43.3594 C 42.627 -51.8555 49.0723 -57.8125 58.252 -57.8125 C 67.4316 -57.8125 73.9258 -51.709 73.9258 -43.1152 C 73.9258 -38.1836 71.6797 -33.4961 67.0898 -27.1484 C 65.2344 -24.6094 60.1562 -18.1152 57.4707 -14.7461 C 56.6406 -13.7207 56.1523 -12.9395 55.0781 -12.9395 C 54.0527 -12.9395 53.5156 -13.7207 53.5156 -14.4531 C 53.5156 -14.9902 53.8086 -15.4785 54.1504 -15.918 C 59.375 -22.4121 62.5488 -26.416 64.4531 -28.9551 C 65.6738 -30.5176 66.3086 -31.4453 67.041 -32.666 L 66.6016 -32.7148 C 64.502 -30.7129 60.9375 -29.541 57.3242 -29.541 C 48.7793 -29.541 42.627 -35.3027 42.627 -43.3594 Z M 46.1426 -43.457 C 46.1426 -37.0605 51.2207 -32.4707 58.3984 -32.4707 C 65.3809 -32.4707 70.5078 -36.9629 70.5078 -43.3105 C 70.5078 -49.7559 65.1855 -54.5898 58.2031 -54.5898 C 51.2207 -54.5898 46.1426 -49.8535 46.1426 -43.457 Z"/>
  </g>
  <g id="Ultralight-M" transform="matrix(1 0 0 1 503.656 1126)">
   <path d="M 56.0547 12.207 C 82.0801 12.207 103.369 -9.08203 103.369 -35.1562 C 103.369 -61.1816 82.0801 -82.4707 56.0547 -82.4707 C 30.0293 -82.4707 8.74023 -61.1816 8.74023 -35.1562 C 8.74023 -9.08203 30.0293 12.207 56.0547 12.207 Z M 42.9688 -43.3594 C 42.9688 -51.5625 49.2188 -57.3242 57.959 -57.3242 C 66.7969 -57.3242 73.0469 -51.4648 73.0469 -43.1641 C 73.0469 -38.3789 70.8008 -33.8379 66.2109 -27.4902 C 64.5996 -25.293 59.1309 -18.3105 56.4453 -14.8926 C 55.8594 -14.1113 55.4199 -13.4766 54.6387 -13.4766 C 53.9062 -13.4766 53.5645 -14.0137 53.5645 -14.502 C 53.5645 -14.9414 53.8086 -15.2832 54.0527 -15.625 C 59.9121 -22.9004 62.9883 -26.9043 64.6484 -29.1016 C 65.918 -30.7129 66.5527 -31.6406 67.334 -32.959 L 66.9922 -33.0566 C 64.7461 -31.0059 61.1816 -29.7852 57.4707 -29.7852 C 49.0234 -29.7852 42.9688 -35.4492 42.9688 -43.3594 Z M 45.4102 -43.4082 C 45.4102 -36.7188 50.6348 -31.9336 58.1543 -31.9336 C 65.4785 -31.9336 70.7031 -36.6211 70.7031 -43.2129 C 70.7031 -50 65.1855 -55.0781 57.9102 -55.0781 C 50.6348 -55.0781 45.4102 -50.0977 45.4102 -43.4082 Z"/>
  </g>
  <g id="Black-S" transform="matrix(1 0 0 1 2884.57 696)">
   <path d="M 48.8281 6.78711 C 71.9727 6.78711 90.8203 -12.0605 90.8203 -35.2051 C 90.8203 -58.3496 71.9727 -77.1973 48.8281 -77.1973 C 25.6836 -77.1973 6.83594 -58.3496 6.83594 -35.2051 C 6.83594 -12.0605 25.6836 6.78711 48.8281 6.78711 Z M 32.7637 -40.0391 C 32.7637 -47.9004 39.1602 -53.5156 49.3652 -53.5156 C 59.8633 -53.5156 66.1621 -47.998 66.1621 -39.209 C 66.1621 -33.4473 64.0625 -29.7852 60.4004 -24.6094 C 59.9121 -23.9746 58.5938 -22.168 57.666 -20.9961 C 55.8594 -18.7012 54.0039 -16.9922 50.4883 -16.9922 C 46.6309 -16.9922 44.2871 -19.4824 44.2871 -22.168 C 44.2871 -24.2188 45.2637 -25.6836 46.2891 -26.7578 C 46.7773 -27.2949 47.3633 -27.8809 47.8516 -28.418 C 48.584 -29.1992 49.3652 -30.0781 49.8535 -30.8105 L 49.3164 -30.8105 C 47.998 -29.541 45.8984 -29.0527 43.6523 -29.0527 C 37.3047 -29.0527 32.7637 -33.7402 32.7637 -40.0391 Z M 45.2637 -40.7227 C 45.2637 -38.9648 47.0215 -37.6953 49.3652 -37.6953 C 51.7578 -37.6953 53.5156 -38.9648 53.5156 -40.7227 C 53.5156 -42.5781 51.7578 -43.7988 49.3652 -43.7988 C 47.0215 -43.7988 45.2637 -42.5781 45.2637 -40.7227 Z"/>
  </g>
  <g id="Heavy-S" transform="matrix(1 0 0 1 2588.47 696)">
   <path d="M 48.2422 6.15234 C 70.9961 6.15234 89.5996 -12.4512 89.5996 -35.2051 C 89.5996 -57.959 70.9961 -76.6113 48.1934 -76.6113 C 25.4395 -76.6113 6.83594 -57.959 6.83594 -35.2051 C 6.83594 -12.4512 25.4395 6.15234 48.2422 6.15234 Z M 32.6172 -40.3809 C 32.6172 -48.1934 38.916 -53.7598 48.6816 -53.7598 C 58.7402 -53.7598 64.9414 -48.291 64.9414 -39.6973 C 64.9414 -34.2285 62.8906 -30.4199 59.2285 -25.3418 C 58.3496 -24.1211 56.6895 -21.9238 55.4688 -20.4102 C 53.8086 -18.3105 52.2461 -16.748 49.1211 -16.748 C 45.752 -16.748 43.7012 -18.9453 43.7012 -21.3379 C 43.7012 -23.0957 44.5312 -24.4141 45.459 -25.4395 C 46.2891 -26.416 47.3633 -27.5879 48.291 -28.7109 C 49.0723 -29.5898 49.8047 -30.4199 50.2441 -31.1035 L 49.707 -31.1035 C 48.3887 -29.834 46.1426 -29.248 43.7988 -29.248 C 37.3047 -29.248 32.6172 -33.9844 32.6172 -40.3809 Z M 43.7012 -40.9668 C 43.7012 -38.6719 45.8496 -37.0117 48.7305 -37.0117 C 51.6113 -37.0117 53.7598 -38.6719 53.7598 -40.9668 C 53.7598 -43.3105 51.5625 -44.9707 48.6816 -44.9707 C 45.8496 -44.9707 43.7012 -43.3105 43.7012 -40.9668 Z"/>
  </g>
  <g id="Bold-S" transform="matrix(1 0 0 1 2292.44 696)">
   <path d="M 47.5586 5.46875 C 69.873 5.46875 88.2324 -12.8906 88.2324 -35.2051 C 88.2324 -57.5684 69.873 -75.9277 47.5098 -75.9277 C 25.1953 -75.9277 6.83594 -57.5684 6.83594 -35.2051 C 6.83594 -12.8906 25.1953 5.46875 47.5586 5.46875 Z M 32.4707 -40.7715 C 32.4707 -48.5352 38.623 -54.0039 47.9492 -54.0039 C 57.4707 -54.0039 63.5254 -48.584 63.5254 -40.1855 C 63.5254 -35.1074 61.6211 -31.1523 57.959 -26.1719 C 56.5918 -24.3164 54.541 -21.6309 53.0273 -19.7754 C 51.5137 -17.8223 50.2441 -16.5039 47.6074 -16.5039 C 44.7754 -16.5039 43.0176 -18.3594 43.0176 -20.4102 C 43.0176 -21.875 43.7012 -23.0469 44.5312 -23.9746 C 45.752 -25.3906 47.3633 -27.2949 48.8281 -29.0527 C 49.6094 -29.9805 50.293 -30.8105 50.6836 -31.4453 L 50.0977 -31.4453 C 48.8281 -30.1758 46.3867 -29.4434 43.9453 -29.4434 C 37.3047 -29.4434 32.4707 -34.2285 32.4707 -40.7715 Z M 41.9434 -41.2598 C 41.9434 -38.3789 44.5312 -36.2793 47.9492 -36.2793 C 51.416 -36.2793 54.0039 -38.3789 54.0039 -41.2598 C 54.0039 -44.1895 51.416 -46.2891 47.9492 -46.2891 C 44.5312 -46.2891 41.9434 -44.1895 41.9434 -41.2598 Z"/>
  </g>
  <g id="Semibold-S" transform="matrix(1 0 0 1 1996.2 696)">
   <path d="M 47.0703 4.98047 C 69.0918 4.98047 87.3047 -13.1836 87.3047 -35.2539 C 87.3047 -57.2754 69.0918 -75.4883 47.0215 -75.4883 C 25 -75.4883 6.83594 -57.2754 6.83594 -35.2539 C 6.83594 -13.1836 25.0488 4.98047 47.0703 4.98047 Z M 32.373 -41.0645 C 32.373 -48.7793 38.4277 -54.1992 47.4609 -54.1992 C 56.5918 -54.1992 62.5977 -48.7793 62.5977 -40.5273 C 62.5977 -35.6934 60.7422 -31.6895 57.0801 -26.709 C 55.3711 -24.4629 53.0762 -21.4844 51.3672 -19.3359 C 49.9023 -17.5293 48.877 -16.3086 46.5332 -16.3086 C 44.0918 -16.3086 42.5293 -17.9688 42.5293 -19.7754 C 42.5293 -20.9961 43.1152 -22.0703 43.8965 -22.998 C 45.3613 -24.707 47.3633 -27.0996 49.1699 -29.2969 C 49.9512 -30.2734 50.5859 -31.1035 50.9766 -31.6895 L 50.3906 -31.6895 C 49.1211 -30.3711 46.5332 -29.541 44.0918 -29.541 C 37.3047 -29.541 32.373 -34.375 32.373 -41.0645 Z M 40.7227 -41.4551 C 40.7227 -38.1836 43.6523 -35.791 47.4609 -35.791 C 51.2695 -35.791 54.1992 -38.1836 54.1992 -41.4551 C 54.1992 -44.7266 51.2695 -47.168 47.4609 -47.168 C 43.6523 -47.168 40.7227 -44.7754 40.7227 -41.4551 Z"/>
  </g>
  <g id="Medium-S" transform="matrix(1 0 0 1 1699.83 696)">
   <path d="M 46.7285 4.63867 C 68.5547 4.63867 86.6211 -13.4277 86.6211 -35.2539 C 86.6211 -57.0312 68.5059 -75.1465 46.6797 -75.1465 C 24.8535 -75.1465 6.83594 -57.0312 6.83594 -35.2539 C 6.83594 -13.4277 24.9023 4.63867 46.7285 4.63867 Z M 32.3242 -41.2598 C 32.3242 -48.9258 38.2812 -54.3457 47.0703 -54.3457 C 55.957 -54.3457 61.8652 -48.9258 61.8652 -40.8203 C 61.8652 -36.1328 60.0586 -32.0801 56.3965 -27.1484 C 54.4434 -24.5605 51.9531 -21.3379 50.0488 -19.043 C 48.6816 -17.2852 47.8027 -16.1621 45.752 -16.1621 C 43.5547 -16.1621 42.1875 -17.6758 42.1875 -19.2871 C 42.1875 -20.3613 42.6758 -21.3379 43.4082 -22.2168 C 45.0684 -24.1699 47.3633 -26.9043 49.4141 -29.4922 C 50.2441 -30.4688 50.8301 -31.2988 51.1719 -31.8848 L 50.6348 -31.8848 C 49.3652 -30.5664 46.6797 -29.6875 44.1895 -29.6875 C 37.3047 -29.6875 32.3242 -34.5215 32.3242 -41.2598 Z M 39.7949 -41.6016 C 39.7949 -38.0371 42.9688 -35.4004 47.0703 -35.4004 C 51.1719 -35.4004 54.2969 -38.0371 54.2969 -41.6016 C 54.2969 -45.166 51.1719 -47.8516 47.0703 -47.8516 C 42.9688 -47.8516 39.7949 -45.2148 39.7949 -41.6016 Z"/>
  </g>
  <g id="Regular-S" transform="matrix(1 0 0 1 1403.58 696)">
   <path d="M 46.2402 4.15039 C 67.7734 4.15039 85.6934 -13.7207 85.6934 -35.2539 C 85.6934 -56.7871 67.7246 -74.6582 46.1914 -74.6582 C 24.707 -74.6582 6.83594 -56.7871 6.83594 -35.2539 C 6.83594 -13.7207 24.7559 4.15039 46.2402 4.15039 Z M 32.2266 -41.5039 C 32.2266 -49.1699 38.0859 -54.541 46.582 -54.541 C 55.0781 -54.541 60.9375 -49.1699 60.9375 -41.1621 C 60.9375 -36.7188 59.1797 -32.5684 55.5176 -27.7344 C 53.2227 -24.6582 50.4883 -21.1426 48.3887 -18.6035 C 47.1191 -16.9922 46.4844 -15.9668 44.7266 -15.9668 C 42.8711 -15.9668 41.6992 -17.2852 41.6992 -18.6523 C 41.6992 -19.5312 42.0898 -20.3613 42.7734 -21.1914 C 44.6777 -23.4863 47.3633 -26.709 49.7559 -29.7363 C 50.5859 -30.7617 51.1719 -31.5918 51.4648 -32.1289 L 50.9277 -32.1289 C 49.6582 -30.7617 46.8262 -29.7852 44.2871 -29.7852 C 37.3047 -29.7852 32.2266 -34.7168 32.2266 -41.5039 Z M 38.623 -41.7969 C 38.623 -37.793 42.041 -34.8633 46.582 -34.8633 C 51.0254 -34.8633 54.4922 -37.793 54.4922 -41.7969 C 54.4922 -45.752 51.0254 -48.7305 46.582 -48.7305 C 42.041 -48.7305 38.623 -45.752 38.623 -41.7969 Z"/>
  </g>
  <g id="Light-S" transform="matrix(1 0 0 1 1107.6 696)">
   <path d="M 45.5078 3.4668 C 66.6992 3.4668 84.2285 -14.0625 84.2285 -35.2051 C 84.2285 -56.3965 66.6504 -73.9258 45.5078 -73.9258 C 24.3164 -73.9258 6.83594 -56.3965 6.83594 -35.2051 C 6.83594 -14.0625 24.3652 3.4668 45.5078 3.4668 Z M 32.666 -41.5527 C 32.666 -48.8281 38.2324 -53.9062 46.1914 -53.9062 C 54.1992 -53.9062 59.7656 -48.7793 59.7656 -41.2598 C 59.7656 -37.0117 58.0078 -33.0566 54.3457 -28.1738 C 52.3926 -25.5371 49.2188 -21.3867 47.1191 -18.7988 C 46.0938 -17.5293 45.5078 -16.6992 44.1406 -16.6992 C 42.6758 -16.6992 41.7969 -17.6758 41.7969 -18.75 C 41.7969 -19.4824 42.0898 -20.1172 42.627 -20.8008 C 45.4102 -24.1699 47.998 -27.3438 50.0488 -29.9316 C 50.9277 -31.0547 51.4648 -31.8359 51.9043 -32.5195 L 51.416 -32.5684 C 50 -31.1035 47.168 -30.1758 44.5312 -30.1758 C 37.6465 -30.1758 32.666 -34.9121 32.666 -41.5527 Z M 37.6465 -41.748 C 37.6465 -37.3535 41.3086 -34.1797 46.2402 -34.1797 C 51.123 -34.1797 54.7852 -37.3535 54.7852 -41.6992 C 54.7852 -46.0938 51.0254 -49.3652 46.1914 -49.3652 C 41.3086 -49.3652 37.6465 -46.0938 37.6465 -41.748 Z"/>
  </g>
  <g id="Thin-S" transform="matrix(1 0 0 1 811.867 696)">
   <path d="M 44.5801 2.53906 C 65.2832 2.53906 82.2754 -14.4531 82.2754 -35.2051 C 82.2754 -55.9082 65.2344 -72.9004 44.5312 -72.9004 C 23.8281 -72.9004 6.83594 -55.9082 6.83594 -35.2051 C 6.83594 -14.4531 23.877 2.53906 44.5801 2.53906 Z M 33.252 -41.5527 C 33.252 -48.3398 38.3789 -53.125 45.7031 -53.125 C 53.0762 -53.125 58.252 -48.291 58.252 -41.3574 C 58.252 -37.4512 56.4941 -33.6914 52.8809 -28.7598 C 51.3184 -26.6602 47.4609 -21.7285 45.3613 -19.0918 C 44.6777 -18.2129 44.2383 -17.5781 43.3105 -17.5781 C 42.4316 -17.5781 41.8945 -18.2617 41.8945 -18.8965 C 41.8945 -19.3848 42.1387 -19.8242 42.4805 -20.2148 C 46.2891 -25 48.7793 -28.125 50.3906 -30.2246 C 51.3184 -31.4453 51.8555 -32.1777 52.3926 -33.1055 L 52.0508 -33.1055 C 50.3906 -31.5918 47.6074 -30.6641 44.8242 -30.6641 C 38.0859 -30.6641 33.252 -35.2051 33.252 -41.5527 Z M 36.377 -41.6992 C 36.377 -36.8164 40.332 -33.252 45.8496 -33.252 C 51.2207 -33.252 55.127 -36.7188 55.127 -41.6016 C 55.127 -46.4844 51.0742 -50.1953 45.7031 -50.1953 C 40.332 -50.1953 36.377 -46.582 36.377 -41.6992 Z"/>
  </g>
  <g id="Ultralight-S" transform="matrix(1 0 0 1 515.644 696)">
   <path d="M 44.043 2.05078 C 64.502 2.05078 81.2988 -14.6973 81.2988 -35.1562 C 81.2988 -55.6152 64.502 -72.3633 44.043 -72.3633 C 23.584 -72.3633 6.83594 -55.6152 6.83594 -35.1562 C 6.83594 -14.6973 23.584 2.05078 44.043 2.05078 Z M 33.5938 -41.6016 C 33.5938 -48.0957 38.5254 -52.6855 45.459 -52.6855 C 52.4902 -52.6855 57.4707 -47.998 57.4707 -41.4551 C 57.4707 -37.6465 55.7129 -34.0332 52.0996 -29.1016 C 50.7812 -27.2461 46.582 -21.9238 44.4824 -19.2383 C 43.9453 -18.5547 43.6035 -18.0664 42.9199 -18.0664 C 42.2852 -18.0664 41.9434 -18.5547 41.9434 -18.9941 C 41.9434 -19.3359 42.1387 -19.6777 42.334 -19.9219 C 46.7773 -25.4395 49.2188 -28.5645 50.5859 -30.3711 C 51.5625 -31.6406 52.0508 -32.373 52.6855 -33.3984 L 52.3438 -33.4473 C 50.6348 -31.8359 47.8516 -30.9082 44.9707 -30.9082 C 38.3301 -30.9082 33.5938 -35.3516 33.5938 -41.6016 Z M 35.7422 -41.6504 C 35.7422 -36.4746 39.7949 -32.7637 45.6055 -32.7637 C 51.2695 -32.7637 55.3223 -36.377 55.3223 -41.5039 C 55.3223 -46.7285 51.0742 -50.6348 45.4102 -50.6348 C 39.7949 -50.6348 35.7422 -46.8262 35.7422 -41.6504 Z"/>
  </g>
 </g>
</svg>
