<?xml version="1.0" encoding="UTF-8"?>
<!--Generator: Apple Native CoreSVG 123-->
<!DOCTYPE svg
PUBLIC "-//W3C//DTD SVG 1.1//EN"
       "http://www.w3.org/Graphics/SVG/1.1/DTD/svg11.dtd">
<svg version="1.1" xmlns="http://www.w3.org/2000/svg" xmlns:xlink="http://www.w3.org/1999/xlink" width="3300" height="2200">
 <!--glyph: "uni10004B.medium", point size: 100.000000, font version: "Version 15.0d7e11", template writer version: "5"-->
 <g id="Notes">
  <rect height="2200" id="artboard" style="fill:white;opacity:1" width="3300" x="0" y="0"/>
  <line id="" style="fill:none;stroke:black;opacity:1;stroke-width:0.5;" x1="263" x2="3036" y1="292" y2="292"/>
  <text style="stroke:none;fill:black;font-family:-apple-system,&quot;SF Pro Display&quot;,&quot;SF Pro Text&quot;,Helvetica,sans-serif;font-weight:bold;" transform="matrix(1 0 0 1 263 322)">Weight/Scale Variations</text>
  <text style="stroke:none;fill:black;font-family:-apple-system,&quot;SF Pro Display&quot;,&quot;SF Pro Text&quot;,Helvetica,sans-serif;text-anchor:middle;" transform="matrix(1 0 0 1 559.711 322)">Ultralight</text>
  <text style="stroke:none;fill:black;font-family:-apple-system,&quot;SF Pro Display&quot;,&quot;SF Pro Text&quot;,Helvetica,sans-serif;text-anchor:middle;" transform="matrix(1 0 0 1 856.422 322)">Thin</text>
  <text style="stroke:none;fill:black;font-family:-apple-system,&quot;SF Pro Display&quot;,&quot;SF Pro Text&quot;,Helvetica,sans-serif;text-anchor:middle;" transform="matrix(1 0 0 1 1153.13 322)">Light</text>
  <text style="stroke:none;fill:black;font-family:-apple-system,&quot;SF Pro Display&quot;,&quot;SF Pro Text&quot;,Helvetica,sans-serif;text-anchor:middle;" transform="matrix(1 0 0 1 1449.84 322)">Regular</text>
  <text style="stroke:none;fill:black;font-family:-apple-system,&quot;SF Pro Display&quot;,&quot;SF Pro Text&quot;,Helvetica,sans-serif;text-anchor:middle;" transform="matrix(1 0 0 1 1746.56 322)">Medium</text>
  <text style="stroke:none;fill:black;font-family:-apple-system,&quot;SF Pro Display&quot;,&quot;SF Pro Text&quot;,Helvetica,sans-serif;text-anchor:middle;" transform="matrix(1 0 0 1 2043.27 322)">Semibold</text>
  <text style="stroke:none;fill:black;font-family:-apple-system,&quot;SF Pro Display&quot;,&quot;SF Pro Text&quot;,Helvetica,sans-serif;text-anchor:middle;" transform="matrix(1 0 0 1 2339.98 322)">Bold</text>
  <text style="stroke:none;fill:black;font-family:-apple-system,&quot;SF Pro Display&quot;,&quot;SF Pro Text&quot;,Helvetica,sans-serif;text-anchor:middle;" transform="matrix(1 0 0 1 2636.69 322)">Heavy</text>
  <text style="stroke:none;fill:black;font-family:-apple-system,&quot;SF Pro Display&quot;,&quot;SF Pro Text&quot;,Helvetica,sans-serif;text-anchor:middle;" transform="matrix(1 0 0 1 2933.4 322)">Black</text>
  <line id="" style="fill:none;stroke:black;opacity:1;stroke-width:0.5;" x1="263" x2="3036" y1="1903" y2="1903"/>
  <g id="" transform="matrix(1 0 0 1 263 1933)">
   <path d="M 9.24805 0.830078 C 13.5547 0.830078 17.1387 -2.74414 17.1387 -7.05078 C 17.1387 -11.3574 13.5449 -14.9316 9.23828 -14.9316 C 4.94141 -14.9316 1.36719 -11.3574 1.36719 -7.05078 C 1.36719 -2.74414 4.95117 0.830078 9.24805 0.830078 Z M 9.24805 -0.654297 C 5.70312 -0.654297 2.87109 -3.49609 2.87109 -7.05078 C 2.87109 -10.6055 5.69336 -13.4473 9.23828 -13.4473 C 12.793 -13.4473 15.6348 -10.6055 15.6445 -7.05078 C 15.6543 -3.49609 12.8027 -0.654297 9.24805 -0.654297 Z M 9.22852 -3.42773 C 9.69727 -3.42773 9.9707 -3.74023 9.9707 -4.25781 L 9.9707 -6.31836 L 12.1973 -6.31836 C 12.6953 -6.31836 13.0371 -6.57227 13.0371 -7.04102 C 13.0371 -7.51953 12.7148 -7.7832 12.1973 -7.7832 L 9.9707 -7.7832 L 9.9707 -10.0098 C 9.9707 -10.5273 9.69727 -10.8496 9.22852 -10.8496 C 8.75977 -10.8496 8.50586 -10.5078 8.50586 -10.0098 L 8.50586 -7.7832 L 6.29883 -7.7832 C 5.78125 -7.7832 5.44922 -7.51953 5.44922 -7.04102 C 5.44922 -6.57227 5.80078 -6.31836 6.29883 -6.31836 L 8.50586 -6.31836 L 8.50586 -4.25781 C 8.50586 -3.75977 8.75977 -3.42773 9.22852 -3.42773 Z"/>
  </g>
  <g id="" transform="matrix(1 0 0 1 281.506 1933)">
   <path d="M 11.709 2.91016 C 17.1582 2.91016 21.6699 -1.60156 21.6699 -7.05078 C 21.6699 -12.4902 17.1484 -17.0117 11.6992 -17.0117 C 6.25977 -17.0117 1.74805 -12.4902 1.74805 -7.05078 C 1.74805 -1.60156 6.26953 2.91016 11.709 2.91016 Z M 11.709 1.25 C 7.09961 1.25 3.41797 -2.44141 3.41797 -7.05078 C 3.41797 -11.6504 7.08984 -15.3516 11.6992 -15.3516 C 16.3086 -15.3516 20 -11.6504 20.0098 -7.05078 C 20.0195 -2.44141 16.3184 1.25 11.709 1.25 Z M 11.6895 -2.41211 C 12.207 -2.41211 12.5195 -2.77344 12.5195 -3.33984 L 12.5195 -6.23047 L 15.5762 -6.23047 C 16.123 -6.23047 16.5039 -6.51367 16.5039 -7.03125 C 16.5039 -7.55859 16.1426 -7.86133 15.5762 -7.86133 L 12.5195 -7.86133 L 12.5195 -10.9277 C 12.5195 -11.5039 12.207 -11.8555 11.6895 -11.8555 C 11.1719 -11.8555 10.8789 -11.4844 10.8789 -10.9277 L 10.8789 -7.86133 L 7.83203 -7.86133 C 7.26562 -7.86133 6.89453 -7.55859 6.89453 -7.03125 C 6.89453 -6.51367 7.28516 -6.23047 7.83203 -6.23047 L 10.8789 -6.23047 L 10.8789 -3.33984 C 10.8789 -2.79297 11.1719 -2.41211 11.6895 -2.41211 Z"/>
  </g>
  <g id="" transform="matrix(1 0 0 1 304.924 1933)">
   <path d="M 14.9707 5.67383 C 21.9336 5.67383 27.6953 -0.078125 27.6953 -7.04102 C 27.6953 -14.0039 21.9238 -19.7559 14.9609 -19.7559 C 8.00781 -19.7559 2.25586 -14.0039 2.25586 -7.04102 C 2.25586 -0.078125 8.01758 5.67383 14.9707 5.67383 Z M 14.9707 3.85742 C 8.93555 3.85742 4.08203 -1.00586 4.08203 -7.04102 C 4.08203 -13.0762 8.92578 -17.9395 14.9609 -17.9395 C 21.0059 -17.9395 25.8594 -13.0762 25.8691 -7.04102 C 25.8789 -1.00586 21.0156 3.85742 14.9707 3.85742 Z M 14.9512 -1.06445 C 15.5176 -1.06445 15.8691 -1.45508 15.8691 -2.06055 L 15.8691 -6.13281 L 20.1074 -6.13281 C 20.6934 -6.13281 21.1133 -6.46484 21.1133 -7.02148 C 21.1133 -7.59766 20.7227 -7.93945 20.1074 -7.93945 L 15.8691 -7.93945 L 15.8691 -12.1875 C 15.8691 -12.8027 15.5176 -13.1934 14.9512 -13.1934 C 14.3848 -13.1934 14.0625 -12.7832 14.0625 -12.1875 L 14.0625 -7.93945 L 9.83398 -7.93945 C 9.21875 -7.93945 8.80859 -7.59766 8.80859 -7.02148 C 8.80859 -6.46484 9.23828 -6.13281 9.83398 -6.13281 L 14.0625 -6.13281 L 14.0625 -2.06055 C 14.0625 -1.47461 14.3848 -1.06445 14.9512 -1.06445 Z"/>
  </g>
  <text style="stroke:none;fill:black;font-family:-apple-system,&quot;SF Pro Display&quot;,&quot;SF Pro Text&quot;,Helvetica,sans-serif;font-weight:bold;" transform="matrix(1 0 0 1 263 1953)">Design Variations</text>
  <text style="stroke:none;fill:black;font-family:-apple-system,&quot;SF Pro Display&quot;,&quot;SF Pro Text&quot;,Helvetica,sans-serif;" transform="matrix(1 0 0 1 263 1971)">Symbols are supported in up to nine weights and three scales.</text>
  <text style="stroke:none;fill:black;font-family:-apple-system,&quot;SF Pro Display&quot;,&quot;SF Pro Text&quot;,Helvetica,sans-serif;" transform="matrix(1 0 0 1 263 1989)">For optimal layout with text and other symbols, vertically align</text>
  <text style="stroke:none;fill:black;font-family:-apple-system,&quot;SF Pro Display&quot;,&quot;SF Pro Text&quot;,Helvetica,sans-serif;" transform="matrix(1 0 0 1 263 2007)">symbols with the adjacent text.</text>
  <rect height="14" id="" style="fill:#00AEEF;stroke:none;opacity:0.4;" width="3" x="776" y="1919"/>
  <g id="" transform="matrix(1 0 0 1 779 1933)">
   <path d="M 10.5273 0 L 12.373 0 L 7.17773 -14.0918 L 5.43945 -14.0918 L 0.244141 0 L 2.08984 0 L 3.50586 -4.0332 L 9.11133 -4.0332 Z M 6.2793 -11.9531 L 6.33789 -11.9531 L 8.59375 -5.52734 L 4.02344 -5.52734 Z"/>
  </g>
  <rect height="14" id="" style="fill:#00AEEF;stroke:none;opacity:0.4;" width="3" x="791.617" y="1919"/>
  <text style="stroke:none;fill:black;font-family:-apple-system,&quot;SF Pro Display&quot;,&quot;SF Pro Text&quot;,Helvetica,sans-serif;font-weight:bold;" transform="matrix(1 0 0 1 776 1953)">Margins</text>
  <text style="stroke:none;fill:black;font-family:-apple-system,&quot;SF Pro Display&quot;,&quot;SF Pro Text&quot;,Helvetica,sans-serif;" transform="matrix(1 0 0 1 776 1971)">Leading and trailing margins on the left and right side of each symbol</text>
  <text style="stroke:none;fill:black;font-family:-apple-system,&quot;SF Pro Display&quot;,&quot;SF Pro Text&quot;,Helvetica,sans-serif;" transform="matrix(1 0 0 1 776 1989)">can be adjusted by modifying the width of the blue rectangles.</text>
  <text style="stroke:none;fill:black;font-family:-apple-system,&quot;SF Pro Display&quot;,&quot;SF Pro Text&quot;,Helvetica,sans-serif;" transform="matrix(1 0 0 1 776 2007)">Modifications are automatically applied proportionally to all</text>
  <text style="stroke:none;fill:black;font-family:-apple-system,&quot;SF Pro Display&quot;,&quot;SF Pro Text&quot;,Helvetica,sans-serif;" transform="matrix(1 0 0 1 776 2025)">scales and weights.</text>
  <g id="" transform="matrix(1 0 0 1 1289 1933)">
   <path d="M 2.83203 3.11523 L 4.375 4.6582 C 5.22461 5.48828 6.19141 5.41992 7.06055 4.46289 L 17.2754 -6.66016 C 17.7051 -6.36719 18.0957 -6.37695 18.5645 -6.47461 L 19.6094 -6.68945 L 20.3027 -5.99609 L 20.2539 -5.47852 C 20.1855 -4.95117 20.3516 -4.53125 20.8496 -4.0332 L 21.6602 -3.22266 C 22.168 -2.71484 22.8223 -2.68555 23.3008 -3.16406 L 26.5527 -6.41602 C 27.0312 -6.89453 27.0117 -7.54883 26.5039 -8.05664 L 25.6836 -8.87695 C 25.1855 -9.375 24.7754 -9.55078 24.2383 -9.47266 L 23.7109 -9.41406 L 23.0566 -10.0781 L 23.3398 -11.2207 C 23.4863 -11.7871 23.3398 -12.2559 22.7148 -12.8613 L 20.3027 -15.2539 C 16.7578 -18.7793 12.2266 -18.6719 9.11133 -15.5371 C 8.69141 -15.1074 8.64258 -14.5215 8.91602 -14.0918 C 9.15039 -13.7207 9.62891 -13.4961 10.2734 -13.6621 C 11.7871 -14.043 13.3008 -13.9258 14.7852 -12.9199 L 14.1602 -11.3379 C 13.9258 -10.752 13.9453 -10.2734 14.1797 -9.83398 L 3.01758 0.439453 C 2.08008 1.30859 1.97266 2.25586 2.83203 3.11523 Z M 10.6738 -15.1465 C 13.3398 -17.1387 16.6504 -16.8262 19.0527 -14.4141 L 21.6797 -11.8066 C 21.9141 -11.5723 21.9434 -11.3867 21.8848 -11.0938 L 21.5039 -9.53125 L 23.0762 -7.95898 L 24.043 -8.04688 C 24.3262 -8.07617 24.4141 -8.05664 24.6387 -7.83203 L 25.2637 -7.20703 L 22.5098 -4.46289 L 21.8848 -5.07812 C 21.6602 -5.30273 21.6406 -5.40039 21.6699 -5.68359 L 21.7578 -6.64062 L 20.1953 -8.20312 L 18.5742 -7.89062 C 18.291 -7.83203 18.1445 -7.83203 17.9102 -8.07617 L 15.7324 -10.2539 C 15.5078 -10.4883 15.4785 -10.625 15.6055 -10.9473 L 16.5527 -13.2227 C 14.9512 -14.7559 12.8418 -15.6055 10.8008 -14.9512 C 10.7129 -14.9219 10.6445 -14.9414 10.6152 -14.9805 C 10.5859 -15.0293 10.5859 -15.0781 10.6738 -15.1465 Z M 4.10156 2.41211 C 3.61328 1.91406 3.78906 1.61133 4.12109 1.30859 L 15.0781 -8.80859 L 16.3086 -7.57812 L 6.15234 3.34961 C 5.84961 3.68164 5.46875 3.7793 5.06836 3.37891 Z"/>
  </g>
  <text style="stroke:none;fill:black;font-family:-apple-system,&quot;SF Pro Display&quot;,&quot;SF Pro Text&quot;,Helvetica,sans-serif;font-weight:bold;" transform="matrix(1 0 0 1 1289 1953)">Exporting</text>
  <text style="stroke:none;fill:black;font-family:-apple-system,&quot;SF Pro Display&quot;,&quot;SF Pro Text&quot;,Helvetica,sans-serif;" transform="matrix(1 0 0 1 1289 1971)">Symbols should be outlined when exporting to ensure the</text>
  <text style="stroke:none;fill:black;font-family:-apple-system,&quot;SF Pro Display&quot;,&quot;SF Pro Text&quot;,Helvetica,sans-serif;" transform="matrix(1 0 0 1 1289 1989)">design is preserved when submitting to Xcode.</text>
  <text id="template-version" style="stroke:none;fill:black;font-family:-apple-system,&quot;SF Pro Display&quot;,&quot;SF Pro Text&quot;,Helvetica,sans-serif;text-anchor:end;" transform="matrix(1 0 0 1 3036 1933)">Template v.1.0</text>
  <text style="stroke:none;fill:black;font-family:-apple-system,&quot;SF Pro Display&quot;,&quot;SF Pro Text&quot;,Helvetica,sans-serif;text-anchor:end;" transform="matrix(1 0 0 1 3036 1951)">Generated from 9.circle.fill</text>
  <text style="stroke:none;fill:black;font-family:-apple-system,&quot;SF Pro Display&quot;,&quot;SF Pro Text&quot;,Helvetica,sans-serif;text-anchor:end;" transform="matrix(1 0 0 1 3036 1969)">Typeset at 100 points</text>
  <text style="stroke:none;fill:black;font-family:-apple-system,&quot;SF Pro Display&quot;,&quot;SF Pro Text&quot;,Helvetica,sans-serif;" transform="matrix(1 0 0 1 263 726)">Small</text>
  <text style="stroke:none;fill:black;font-family:-apple-system,&quot;SF Pro Display&quot;,&quot;SF Pro Text&quot;,Helvetica,sans-serif;" transform="matrix(1 0 0 1 263 1156)">Medium</text>
  <text style="stroke:none;fill:black;font-family:-apple-system,&quot;SF Pro Display&quot;,&quot;SF Pro Text&quot;,Helvetica,sans-serif;" transform="matrix(1 0 0 1 263 1586)">Large</text>
 </g>
 <g id="Guides">
  <g id="H-reference" style="fill:#27AAE1;stroke:none;" transform="matrix(1 0 0 1 339 696)">
   <path d="M 54.9316 0 L 57.666 0 L 30.5664 -70.459 L 28.0762 -70.459 L 0.976562 0 L 3.66211 0 L 12.9395 -24.4629 L 45.7031 -24.4629 Z M 29.1992 -67.0898 L 29.4434 -67.0898 L 44.8242 -26.709 L 13.8184 -26.709 Z"/>
  </g>
  <line id="Baseline-S" style="fill:none;stroke:#27AAE1;opacity:1;stroke-width:0.577;" x1="263" x2="3036" y1="696" y2="696"/>
  <line id="Capline-S" style="fill:none;stroke:#27AAE1;opacity:1;stroke-width:0.577;" x1="263" x2="3036" y1="625.541" y2="625.541"/>
  <g id="H-reference" style="fill:#27AAE1;stroke:none;" transform="matrix(1 0 0 1 339 1126)">
   <path d="M 54.9316 0 L 57.666 0 L 30.5664 -70.459 L 28.0762 -70.459 L 0.976562 0 L 3.66211 0 L 12.9395 -24.4629 L 45.7031 -24.4629 Z M 29.1992 -67.0898 L 29.4434 -67.0898 L 44.8242 -26.709 L 13.8184 -26.709 Z"/>
  </g>
  <line id="Baseline-M" style="fill:none;stroke:#27AAE1;opacity:1;stroke-width:0.577;" x1="263" x2="3036" y1="1126" y2="1126"/>
  <line id="Capline-M" style="fill:none;stroke:#27AAE1;opacity:1;stroke-width:0.577;" x1="263" x2="3036" y1="1055.54" y2="1055.54"/>
  <g id="H-reference" style="fill:#27AAE1;stroke:none;" transform="matrix(1 0 0 1 339 1556)">
   <path d="M 54.9316 0 L 57.666 0 L 30.5664 -70.459 L 28.0762 -70.459 L 0.976562 0 L 3.66211 0 L 12.9395 -24.4629 L 45.7031 -24.4629 Z M 29.1992 -67.0898 L 29.4434 -67.0898 L 44.8242 -26.709 L 13.8184 -26.709 Z"/>
  </g>
  <line id="Baseline-L" style="fill:none;stroke:#27AAE1;opacity:1;stroke-width:0.577;" x1="263" x2="3036" y1="1556" y2="1556"/>
  <line id="Capline-L" style="fill:none;stroke:#27AAE1;opacity:1;stroke-width:0.577;" x1="263" x2="3036" y1="1485.54" y2="1485.54"/>
  <rect height="119.336" id="left-margin" style="fill:#00AEEF;stroke:none;opacity:0.4;" width="8.74023" x="1391.3" y="1030.79"/>
  <rect height="119.336" id="right-margin" style="fill:#00AEEF;stroke:none;opacity:0.4;" width="8.74023" x="1499.65" y="1030.79"/>
 </g>
 <g id="Symbols">
  <g id="Black-L" transform="matrix(1 0 0 1 2854.05 1556)">
   <path d="M 79.3457 32.8613 C 116.748 32.8613 147.412 2.19727 147.412 -35.2051 C 147.412 -72.6074 116.748 -103.271 79.2969 -103.271 C 41.8945 -103.271 11.2793 -72.6074 11.2793 -35.2051 C 11.2793 2.19727 41.9434 32.8613 79.3457 32.8613 Z M 79.4434 -4.6875 C 68.0664 -4.6875 61.4746 -8.49609 59.0332 -13.2324 C 58.4473 -14.4043 58.2031 -15.5273 58.2031 -16.8457 C 58.2031 -20.7031 61.5234 -23.7793 65.625 -23.7793 C 69.1895 -23.7793 70.9961 -22.6562 72.6562 -21.5332 C 74.6582 -19.9219 76.5137 -18.8965 79.3945 -18.8965 C 85.0586 -18.8965 88.7695 -25.0488 87.8418 -33.4473 L 87.207 -33.4473 C 85.1074 -29.0039 80.6152 -26.0254 73.9258 -26.0254 C 62.6465 -26.0254 54.6387 -32.9102 54.6387 -44.3359 C 54.6387 -57.0312 65.0391 -65.8691 79.9805 -65.8691 C 96.7773 -65.8691 106.689 -54.7852 106.689 -35.7422 C 106.689 -16.0645 96.7285 -4.6875 79.4434 -4.6875 Z M 80.7129 -37.7441 C 84.9121 -37.7441 87.7441 -40.7715 87.7441 -44.7266 C 87.7441 -48.877 84.7656 -51.9043 80.7129 -51.9043 C 76.4648 -51.9043 73.584 -48.9746 73.584 -44.7754 C 73.584 -40.625 76.5137 -37.7441 80.7129 -37.7441 Z"/>
  </g>
  <g id="Heavy-L" transform="matrix(1 0 0 1 2558.39 1556)">
   <path d="M 78.2715 31.7871 C 115.088 31.7871 145.312 1.61133 145.312 -35.2051 C 145.312 -72.0215 115.039 -102.197 78.2715 -102.197 C 41.4551 -102.197 11.2793 -72.0215 11.2793 -35.2051 C 11.2793 1.61133 41.5039 31.7871 78.2715 31.7871 Z M 78.3691 -4.6875 C 67.2363 -4.6875 60.6934 -8.88672 58.4961 -13.5254 C 58.0078 -14.5996 57.7637 -15.625 57.7637 -16.748 C 57.7637 -20.2637 60.6445 -22.9492 64.3066 -22.9492 C 67.5293 -22.9492 69.1406 -21.8262 70.6055 -20.6543 C 72.8027 -18.5059 75 -17.2363 78.3203 -17.2363 C 84.9121 -17.2363 89.1602 -24.0234 88.4277 -34.0332 L 87.8418 -34.0332 C 85.7422 -29.3945 81.0059 -26.123 73.877 -26.123 C 62.8418 -26.123 54.5898 -33.0566 54.5898 -44.6289 C 54.5898 -57.2266 64.5996 -65.8691 79.0527 -65.8691 C 95.2148 -65.8691 104.785 -55.0781 104.785 -36.1816 C 104.785 -15.9668 95.166 -4.6875 78.3691 -4.6875 Z M 79.6875 -36.6211 C 84.7168 -36.6211 88.1836 -40.1855 88.1836 -44.9707 C 88.1836 -49.9512 84.5703 -53.5645 79.6875 -53.5645 C 74.6094 -53.5645 71.1426 -50.0977 71.1426 -45.0195 C 71.1426 -40.0879 74.6582 -36.6211 79.6875 -36.6211 Z"/>
  </g>
  <g id="Bold-L" transform="matrix(1 0 0 1 2262.88 1556)">
   <path d="M 77.0996 30.6152 C 113.232 30.6152 142.92 0.878906 142.92 -35.2051 C 142.92 -71.3379 113.184 -101.025 77.0508 -101.025 C 40.9668 -101.025 11.2793 -71.3379 11.2793 -35.2051 C 11.2793 0.878906 41.0156 30.6152 77.0996 30.6152 Z M 77.1973 -4.6875 C 66.3086 -4.6875 59.8145 -9.32617 57.9102 -13.8672 C 57.5195 -14.7949 57.3242 -15.6738 57.3242 -16.6992 C 57.3242 -19.7266 59.7168 -22.0215 62.8906 -22.0215 C 65.625 -22.0215 67.041 -20.9473 68.3594 -19.6777 C 70.7031 -16.9922 73.3398 -15.3809 77.1484 -15.3809 C 84.7168 -15.3809 89.5996 -22.9004 89.1113 -34.7168 L 88.5742 -34.7168 C 86.377 -29.834 81.4941 -26.2207 73.8281 -26.2207 C 63.0859 -26.2207 54.541 -33.252 54.541 -44.9219 C 54.541 -57.4219 64.0625 -65.8691 78.0273 -65.8691 C 93.457 -65.8691 102.637 -55.4199 102.637 -36.7188 C 102.637 -15.918 93.457 -4.6875 77.1973 -4.6875 Z M 78.5156 -35.4004 C 84.4727 -35.4004 88.623 -39.5996 88.623 -45.2637 C 88.623 -51.1719 84.3262 -55.4688 78.5645 -55.4688 C 72.5098 -55.4688 68.4082 -51.3672 68.4082 -45.3613 C 68.4082 -39.5508 72.5586 -35.4004 78.5156 -35.4004 Z"/>
  </g>
  <g id="Semibold-L" transform="matrix(1 0 0 1 1966.97 1556)">
   <path d="M 76.2695 29.7852 C 111.914 29.7852 141.309 0.439453 141.309 -35.2051 C 141.309 -70.8496 111.865 -100.244 76.2695 -100.244 C 40.625 -100.244 11.2793 -70.8496 11.2793 -35.2051 C 11.2793 0.439453 40.6738 29.7852 76.2695 29.7852 Z M 76.3672 -4.63867 C 65.6738 -4.63867 59.2285 -9.61914 57.5195 -14.1113 C 57.1777 -14.9902 56.9824 -15.7227 56.9824 -16.6504 C 56.9824 -19.3359 59.082 -21.3867 61.9141 -21.3867 C 64.3066 -21.3867 65.5762 -20.3613 66.7969 -19.043 C 69.2383 -15.918 72.168 -14.1113 76.3184 -14.1113 C 84.5703 -14.1113 89.8926 -22.1191 89.5508 -35.2051 L 89.0625 -35.2051 C 86.8652 -30.127 81.7871 -26.3184 73.7793 -26.3184 C 63.2324 -26.3184 54.541 -33.3984 54.541 -45.1172 C 54.541 -57.5684 63.7207 -65.8691 77.2949 -65.8691 C 92.2363 -65.8691 101.172 -55.6641 101.172 -37.0605 C 101.172 -15.8691 92.2363 -4.63867 76.3672 -4.63867 Z M 77.7344 -34.5215 C 84.2773 -34.5215 88.9648 -39.1602 88.9648 -45.459 C 88.9648 -52.002 84.1309 -56.7383 77.7832 -56.7383 C 71.0938 -56.7383 66.5039 -52.2461 66.5039 -45.5566 C 66.5039 -39.1113 71.1426 -34.5215 77.7344 -34.5215 Z"/>
  </g>
  <g id="Medium-L" transform="matrix(1 0 0 1 1670.87 1556)">
   <path d="M 75.6836 29.1992 C 110.938 29.1992 140.088 0.0488281 140.088 -35.2051 C 140.088 -70.459 110.889 -99.6094 75.6348 -99.6094 C 40.3809 -99.6094 11.2793 -70.459 11.2793 -35.2051 C 11.2793 0.0488281 40.3809 29.1992 75.6836 29.1992 Z M 75.7324 -4.63867 C 65.1367 -4.63867 58.7891 -9.86328 57.1777 -14.3066 C 56.8848 -15.0879 56.7383 -15.7715 56.7383 -16.6016 C 56.7383 -19.0918 58.5938 -20.8984 61.1816 -20.8984 C 63.3301 -20.8984 64.502 -19.873 65.625 -18.5059 C 68.1152 -15.0879 71.2891 -13.1836 75.6836 -13.1836 C 84.4727 -13.1836 90.1367 -21.5332 89.8926 -35.5469 L 89.4531 -35.5469 C 87.207 -30.3711 82.0312 -26.3672 73.7305 -26.3672 C 63.3301 -26.3672 54.541 -33.4961 54.541 -45.3125 C 54.541 -57.666 63.4277 -65.8691 76.7578 -65.8691 C 91.3086 -65.8691 100.049 -55.8594 100.049 -37.3047 C 100.049 -15.8203 91.3574 -4.63867 75.7324 -4.63867 Z M 77.0996 -33.8379 C 84.1797 -33.8379 89.209 -38.8672 89.209 -45.6055 C 89.209 -52.5879 84.0332 -57.7148 77.1484 -57.7148 C 70.0195 -57.7148 65.0879 -52.9297 65.0879 -45.7031 C 65.0879 -38.8184 70.0195 -33.8379 77.0996 -33.8379 Z"/>
  </g>
  <g id="Regular-L" transform="matrix(1 0 0 1 1374.97 1556)">
   <path d="M 74.8535 28.3691 C 109.668 28.3691 138.477 -0.390625 138.477 -35.2051 C 138.477 -70.0195 109.619 -98.7793 74.8047 -98.7793 C 40.0391 -98.7793 11.2793 -70.0195 11.2793 -35.2051 C 11.2793 -0.390625 40.0879 28.3691 74.8535 28.3691 Z M 74.9512 -4.63867 C 64.502 -4.63867 58.2031 -10.1562 56.7871 -14.5508 C 56.5918 -15.2344 56.4453 -15.8203 56.4453 -16.5527 C 56.4453 -18.7012 57.959 -20.2637 60.2051 -20.2637 C 62.0117 -20.2637 63.0859 -19.2871 64.0625 -17.8711 C 66.6992 -14.0625 70.1172 -11.9141 74.8535 -11.9141 C 84.3262 -11.9141 90.4785 -20.752 90.332 -35.9863 L 89.9414 -35.9863 C 87.6465 -30.6641 82.3242 -26.416 73.7305 -26.416 C 63.4766 -26.416 54.4922 -33.6426 54.4922 -45.5078 C 54.4922 -57.8125 63.0859 -65.918 76.0742 -65.918 C 90.1367 -65.918 98.584 -56.1035 98.584 -37.6953 C 98.584 -15.7715 90.1367 -4.63867 74.9512 -4.63867 Z M 76.3184 -33.0078 C 83.9844 -33.0078 89.502 -38.4766 89.502 -45.8008 C 89.502 -53.418 83.8379 -59.0332 76.3672 -59.0332 C 68.6035 -59.0332 63.2324 -53.7598 63.2324 -45.8984 C 63.2324 -38.4277 68.6035 -33.0078 76.3184 -33.0078 Z"/>
  </g>
  <g id="Light-L" transform="matrix(1 0 0 1 1079.18 1556)">
   <path d="M 73.9258 27.4902 C 108.301 27.4902 136.621 -0.830078 136.621 -35.1562 C 136.621 -69.5312 108.252 -97.8516 73.9258 -97.8516 C 39.5508 -97.8516 11.2793 -69.5312 11.2793 -35.1562 C 11.2793 -0.830078 39.5996 27.4902 73.9258 27.4902 Z M 74.0234 -5.41992 C 64.502 -5.41992 58.0566 -10.9863 56.7871 -15.1367 C 56.6406 -15.7227 56.4941 -16.1621 56.4941 -16.8457 C 56.4941 -18.5059 57.7148 -19.7266 59.4238 -19.7266 C 60.8887 -19.7266 61.6699 -18.9453 62.5488 -17.627 C 64.9902 -13.623 68.9453 -11.1816 74.0234 -11.1816 C 84.0332 -11.1816 90.2832 -20.3613 90.2344 -36.8164 L 89.8438 -36.8164 C 87.3535 -30.8594 81.7871 -26.7578 73.2422 -26.7578 C 63.0371 -26.7578 54.5898 -34.2285 54.5898 -45.459 C 54.5898 -57.1777 62.9883 -65.1367 75.1465 -65.1367 C 88.2812 -65.1367 96.582 -55.957 96.582 -38.0859 C 96.582 -16.2598 88.4277 -5.41992 74.0234 -5.41992 Z M 75.1953 -32.0801 C 83.3984 -32.0801 89.3066 -37.9395 89.3066 -45.6543 C 89.3066 -53.7109 83.2031 -59.6191 75.3418 -59.6191 C 67.1387 -59.6191 61.2793 -54.0039 61.2793 -45.8496 C 61.2793 -37.8906 66.9922 -32.0801 75.1953 -32.0801 Z"/>
  </g>
  <g id="Thin-L" transform="matrix(1 0 0 1 783.693 1556)">
   <path d="M 72.7051 26.3184 C 106.494 26.3184 134.18 -1.36719 134.18 -35.1074 C 134.18 -68.8965 106.494 -96.582 72.7051 -96.582 C 38.9648 -96.582 11.2793 -68.8965 11.2793 -35.1074 C 11.2793 -1.36719 38.9648 26.3184 72.7051 26.3184 Z M 72.8516 -6.44531 C 64.502 -6.44531 57.8125 -12.1094 56.7871 -15.9668 C 56.6895 -16.3574 56.5918 -16.6504 56.5918 -17.1875 C 56.5918 -18.2617 57.373 -18.9941 58.4473 -18.9941 C 59.375 -18.9941 59.8633 -18.5059 60.498 -17.334 C 62.6953 -13.0859 67.4316 -10.2051 72.9492 -10.2051 C 83.6914 -10.2051 90.0879 -19.8242 90.0391 -37.8906 L 89.7949 -37.8906 C 86.9629 -31.1035 81.0547 -27.1973 72.6562 -27.1973 C 62.4512 -27.1973 54.6875 -35.0586 54.6875 -45.4102 C 54.6875 -56.3965 62.793 -64.1113 73.9258 -64.1113 C 85.8398 -64.1113 93.9453 -55.7617 93.9453 -38.6719 C 93.9453 -16.8457 86.1328 -6.44531 72.8516 -6.44531 Z M 73.7305 -30.8594 C 82.5684 -30.8594 89.0137 -37.3047 89.0137 -45.5078 C 89.0137 -54.0527 82.373 -60.4004 73.877 -60.4004 C 65.1855 -60.4004 58.7402 -54.3457 58.7402 -45.752 C 58.7402 -37.207 64.8926 -30.8594 73.7305 -30.8594 Z"/>
  </g>
  <g id="Ultralight-L" transform="matrix(1 0 0 1 487.616 1556)">
   <path d="M 72.1191 25.7324 C 105.566 25.7324 132.91 -1.61133 132.91 -35.1074 C 132.91 -68.5547 105.566 -95.8984 72.1191 -95.8984 C 38.623 -95.8984 11.2793 -68.5547 11.2793 -35.1074 C 11.2793 -1.61133 38.623 25.7324 72.1191 25.7324 Z M 72.2656 -6.98242 C 64.502 -6.98242 57.7148 -12.6953 56.7871 -16.4062 C 56.7383 -16.6992 56.6406 -16.8945 56.6406 -17.334 C 56.6406 -18.1641 57.1777 -18.6035 57.9102 -18.6035 C 58.5938 -18.6035 58.9355 -18.2617 59.4238 -17.1875 C 61.5234 -12.793 66.6504 -9.7168 72.3633 -9.7168 C 83.4961 -9.7168 89.9414 -19.5312 89.9902 -38.4277 L 89.7461 -38.4277 C 86.7676 -31.25 80.6641 -27.3926 72.3145 -27.3926 C 62.1094 -27.3926 54.7363 -35.4492 54.7363 -45.4102 C 54.7363 -55.957 62.6953 -63.5742 73.291 -63.5742 C 84.5703 -63.5742 92.5781 -55.6641 92.5781 -38.9648 C 92.5781 -17.1875 84.9609 -6.98242 72.2656 -6.98242 Z M 72.998 -30.2246 C 82.1777 -30.2246 88.916 -36.9629 88.916 -45.459 C 88.916 -54.248 81.9336 -60.791 73.1934 -60.791 C 64.209 -60.791 57.4707 -54.4922 57.4707 -45.7031 C 57.4707 -36.8652 63.8184 -30.2246 72.998 -30.2246 Z"/>
  </g>
  <g id="Black-M" transform="matrix(1 0 0 1 2870.97 1126)">
   <path d="M 62.4023 18.457 C 91.9922 18.457 116.113 -5.61523 116.113 -35.2051 C 116.113 -64.7949 91.9922 -88.8672 62.4023 -88.8672 C 32.8125 -88.8672 8.74023 -64.7949 8.74023 -35.2051 C 8.74023 -5.61523 32.8125 18.457 62.4023 18.457 Z M 62.5488 -11.9629 C 53.9062 -11.9629 48.584 -14.4531 46.4355 -18.1152 C 45.9473 -19.043 45.7031 -20.0684 45.7031 -21.1914 C 45.7031 -24.5117 48.6328 -27.1484 52.1484 -27.1484 C 55.3223 -27.1484 56.8359 -26.3672 58.2031 -25.6836 C 59.4727 -25 60.6934 -24.3652 62.5488 -24.3652 C 66.0156 -24.3652 68.1641 -28.5156 67.1875 -33.4961 L 66.6992 -33.4961 C 64.9902 -29.9805 61.6699 -28.1738 57.0801 -28.1738 C 48.0469 -28.1738 42.3828 -33.5449 42.3828 -41.8945 C 42.3828 -51.5625 50.9766 -58.5449 62.6953 -58.5449 C 76.123 -58.5449 84.2285 -49.8535 84.2285 -35.2051 C 84.2285 -20.7031 76.123 -11.9629 62.5488 -11.9629 Z M 63.3301 -38.2324 C 65.7715 -38.2324 67.334 -39.9902 67.334 -42.1875 C 67.334 -44.4824 65.625 -46.1914 63.3301 -46.1914 C 60.9863 -46.1914 59.2773 -44.4824 59.2773 -42.1875 C 59.2773 -39.8438 60.9863 -38.2324 63.3301 -38.2324 Z"/>
  </g>
  <g id="Heavy-M" transform="matrix(1 0 0 1 2575.19 1126)">
   <path d="M 61.5234 17.5781 C 90.5273 17.5781 114.258 -6.15234 114.258 -35.2051 C 114.258 -64.2578 90.5273 -87.9883 61.4746 -87.9883 C 32.4707 -87.9883 8.74023 -64.2578 8.74023 -35.2051 C 8.74023 -6.15234 32.4707 17.5781 61.5234 17.5781 Z M 61.6211 -11.7676 C 52.9785 -11.7676 47.8027 -14.6484 45.8496 -18.2617 C 45.4102 -19.1406 45.2148 -20.0684 45.2148 -21.0449 C 45.2148 -24.0723 47.8027 -26.416 50.9766 -26.416 C 53.7598 -26.416 55.127 -25.5859 56.3965 -24.8047 C 57.8613 -23.584 59.375 -22.7539 61.5723 -22.7539 C 65.918 -22.7539 68.6523 -27.4902 67.8711 -33.9355 L 67.3828 -33.9355 C 65.7227 -30.3711 62.207 -28.1738 57.1777 -28.1738 C 48.3887 -28.1738 42.334 -33.5449 42.334 -42.1875 C 42.334 -51.9043 50.4883 -58.7402 61.9629 -58.7402 C 74.9023 -58.7402 82.6172 -50.2441 82.6172 -35.5957 C 82.6172 -20.5078 74.9023 -11.7676 61.6211 -11.7676 Z M 62.5 -37.207 C 65.6738 -37.207 67.8223 -39.502 67.8223 -42.5293 C 67.8223 -45.6055 65.5762 -47.9004 62.5 -47.9004 C 59.3262 -47.9004 57.1289 -45.6543 57.1289 -42.5293 C 57.1289 -39.4043 59.3262 -37.207 62.5 -37.207 Z"/>
  </g>
  <g id="Bold-M" transform="matrix(1 0 0 1 2279.5 1126)">
   <path d="M 60.498 16.5039 C 88.8672 16.5039 112.207 -6.78711 112.207 -35.2051 C 112.207 -63.623 88.8672 -86.9629 60.4492 -86.9629 C 32.0312 -86.9629 8.74023 -63.623 8.74023 -35.2051 C 8.74023 -6.78711 32.0801 16.5039 60.498 16.5039 Z M 60.5469 -11.5234 C 51.9531 -11.5234 46.875 -14.8926 45.2148 -18.457 C 44.873 -19.2383 44.6777 -20.0195 44.6777 -20.8984 C 44.6777 -23.5352 46.875 -25.5371 49.6094 -25.5371 C 52.002 -25.5371 53.2227 -24.707 54.3457 -23.7793 C 56.0547 -22.0215 57.8613 -20.9961 60.498 -20.9961 C 65.7715 -20.9961 69.1895 -26.3672 68.6523 -34.4238 L 68.2129 -34.4238 C 66.5527 -30.8105 62.8906 -28.1738 57.2266 -28.1738 C 48.7305 -28.1738 42.2852 -33.5938 42.2852 -42.5781 C 42.2852 -52.2949 49.9512 -58.9844 61.084 -58.9844 C 73.5352 -58.9844 80.8594 -50.6836 80.8594 -36.0352 C 80.8594 -20.3125 73.4863 -11.5234 60.5469 -11.5234 Z M 61.5723 -36.1328 C 65.625 -36.1328 68.4082 -39.0137 68.4082 -42.8223 C 68.4082 -46.8262 65.4785 -49.7559 61.5723 -49.7559 C 57.4707 -49.7559 54.6875 -46.9727 54.6875 -42.8711 C 54.6875 -38.916 57.5195 -36.1328 61.5723 -36.1328 Z"/>
  </g>
  <g id="Semibold-M" transform="matrix(1 0 0 1 1983.5 1126)">
   <path d="M 59.7656 15.8203 C 87.7441 15.8203 110.791 -7.22656 110.791 -35.2051 C 110.791 -63.1836 87.6953 -86.2793 59.7656 -86.2793 C 31.7871 -86.2793 8.74023 -63.1836 8.74023 -35.2051 C 8.74023 -7.22656 31.7871 15.8203 59.7656 15.8203 Z M 59.8145 -11.377 C 51.2207 -11.377 46.2891 -15.0391 44.7754 -18.6035 C 44.4824 -19.3359 44.3359 -20.0195 44.3359 -20.8008 C 44.3359 -23.1445 46.1914 -24.9512 48.6816 -24.9512 C 50.8301 -24.9512 51.9531 -24.1211 52.9785 -23.0957 C 54.834 -20.9473 56.8359 -19.7266 59.7656 -19.7266 C 65.6738 -19.7266 69.5312 -25.5859 69.1895 -34.7656 L 68.75 -34.7656 C 67.1387 -31.1035 63.3301 -28.1738 57.2754 -28.1738 C 49.0234 -28.1738 42.2852 -33.5938 42.2852 -42.7734 C 42.2852 -52.5879 49.6094 -59.1309 60.498 -59.1309 C 72.5586 -59.1309 79.6387 -50.9766 79.6387 -36.377 C 79.6387 -20.166 72.5586 -11.377 59.8145 -11.377 Z M 60.9375 -35.3516 C 65.5273 -35.3516 68.7988 -38.623 68.7988 -43.0664 C 68.7988 -47.7051 65.4297 -51.0742 60.9375 -51.0742 C 56.2012 -51.0742 53.0273 -47.9004 53.0273 -43.1152 C 53.0273 -38.5742 56.25 -35.3516 60.9375 -35.3516 Z"/>
  </g>
  <g id="Medium-M" transform="matrix(1 0 0 1 1687.3 1126)">
   <path d="M 59.2285 15.2832 C 86.9141 15.2832 109.766 -7.56836 109.766 -35.2051 C 109.766 -62.8906 86.8652 -85.7422 59.1797 -85.7422 C 31.543 -85.7422 8.74023 -62.8906 8.74023 -35.2051 C 8.74023 -7.56836 31.5918 15.2832 59.2285 15.2832 Z M 59.2773 -11.2305 C 50.6836 -11.2305 45.8008 -15.1367 44.4336 -18.7012 C 44.1895 -19.3848 44.043 -20.0195 44.043 -20.7031 C 44.043 -22.9004 45.7031 -24.5117 47.998 -24.5117 C 49.9023 -24.5117 50.9766 -23.6328 51.9043 -22.5586 C 53.9062 -20.1172 56.0547 -18.7988 59.2285 -18.7988 C 65.5762 -18.7988 69.8242 -25 69.5801 -35.0098 L 69.1895 -35.0098 C 67.5293 -31.2988 63.6719 -28.2227 57.3242 -28.2227 C 49.2188 -28.2227 42.2363 -33.6426 42.2363 -42.9688 C 42.2363 -52.7832 49.3164 -59.2773 60.0586 -59.2773 C 71.8262 -59.2773 78.7109 -51.1719 78.7109 -36.5723 C 78.7109 -20.0195 71.8262 -11.2305 59.2773 -11.2305 Z M 60.4004 -34.7656 C 65.4785 -34.7656 69.0918 -38.3789 69.0918 -43.2617 C 69.0918 -48.3398 65.4297 -52.0508 60.4492 -52.0508 C 55.2246 -52.0508 51.7578 -48.584 51.7578 -43.3105 C 51.7578 -38.3301 55.3223 -34.7656 60.4004 -34.7656 Z"/>
  </g>
  <g id="Regular-M" transform="matrix(1 0 0 1 1391.3 1126)">
   <path d="M 58.5449 14.5508 C 85.791 14.5508 108.35 -8.00781 108.35 -35.2539 C 108.35 -62.4512 85.7422 -85.0586 58.4961 -85.0586 C 31.2988 -85.0586 8.74023 -62.4512 8.74023 -35.2539 C 8.74023 -8.00781 31.3477 14.5508 58.5449 14.5508 Z M 58.5938 -11.084 C 50 -11.084 45.2148 -15.332 43.9941 -18.8477 C 43.7988 -19.4824 43.7012 -20.0195 43.7012 -20.6055 C 43.7012 -22.5586 45.0684 -23.9258 47.0703 -23.9258 C 48.7305 -23.9258 49.6582 -23.0469 50.5371 -21.875 C 52.6855 -19.043 55.0293 -17.5781 58.4961 -17.5781 C 65.4785 -17.5781 70.2148 -24.2676 70.1172 -35.3516 L 69.7266 -35.3516 C 68.1152 -31.5918 64.1113 -28.2227 57.373 -28.2227 C 49.4629 -28.2227 42.1875 -33.6426 42.1875 -43.2129 C 42.1875 -53.0762 48.9746 -59.4238 59.4727 -59.4238 C 70.8984 -59.4238 77.5391 -51.4648 77.5391 -36.8652 C 77.5391 -19.873 70.8496 -11.084 58.5938 -11.084 Z M 59.7656 -34.0332 C 65.4297 -34.0332 69.4824 -37.9883 69.4824 -43.457 C 69.4824 -49.1699 65.332 -53.3203 59.8145 -53.3203 C 53.9551 -53.3203 50.0977 -49.4629 50.0977 -43.5547 C 50.0977 -37.9883 54.0527 -34.0332 59.7656 -34.0332 Z"/>
  </g>
  <g id="Light-M" transform="matrix(1 0 0 1 1095.42 1126)">
   <path d="M 57.7148 13.7695 C 84.5215 13.7695 106.689 -8.39844 106.689 -35.2051 C 106.689 -62.0117 84.5215 -84.1797 57.666 -84.1797 C 30.8594 -84.1797 8.74023 -62.0117 8.74023 -35.2051 C 8.74023 -8.39844 30.9082 13.7695 57.7148 13.7695 Z M 57.7637 -11.7676 C 50 -11.7676 45.0684 -16.0645 43.9941 -19.3848 C 43.8477 -19.9219 43.75 -20.3125 43.75 -20.8496 C 43.75 -22.3633 44.8242 -23.4375 46.3867 -23.4375 C 47.7051 -23.4375 48.4375 -22.7539 49.1699 -21.6797 C 51.123 -18.6523 53.9551 -16.8945 57.7637 -16.8945 C 65.2344 -16.8945 70.0684 -23.877 69.9707 -36.084 L 69.6777 -36.084 C 67.8223 -31.7383 63.623 -28.5156 56.9824 -28.5156 C 49.0723 -28.5156 42.2852 -34.1797 42.2852 -43.1641 C 42.2852 -52.5391 48.877 -58.7402 58.6426 -58.7402 C 69.2383 -58.7402 75.7324 -51.3672 75.7324 -37.2559 C 75.7324 -20.3125 69.2871 -11.7676 57.7637 -11.7676 Z M 58.7891 -33.2031 C 64.8926 -33.2031 69.2871 -37.5488 69.2871 -43.3594 C 69.2871 -49.4141 64.7949 -53.8574 58.8379 -53.8574 C 52.6855 -53.8574 48.3887 -49.6582 48.3887 -43.5059 C 48.3887 -37.5488 52.6367 -33.2031 58.7891 -33.2031 Z"/>
  </g>
  <g id="Thin-M" transform="matrix(1 0 0 1 799.806 1126)">
   <path d="M 56.6406 12.7441 C 82.9102 12.7441 104.492 -8.83789 104.492 -35.1562 C 104.492 -61.4746 82.9102 -83.0566 56.5918 -83.0566 C 30.3223 -83.0566 8.74023 -61.4746 8.74023 -35.1562 C 8.74023 -8.83789 30.3223 12.7441 56.6406 12.7441 Z M 56.7383 -12.6953 C 50 -12.6953 44.873 -17.0898 43.9941 -20.1172 C 43.9453 -20.459 43.8477 -20.752 43.8477 -21.1426 C 43.8477 -22.168 44.5312 -22.8027 45.5078 -22.8027 C 46.3379 -22.8027 46.7773 -22.3633 47.3145 -21.4355 C 49.0723 -18.1641 52.5879 -16.0645 56.7383 -16.0645 C 64.9414 -16.0645 69.8242 -23.3887 69.8242 -37.0605 L 69.5801 -37.0605 C 67.4805 -31.9824 62.9395 -28.9062 56.4453 -28.9062 C 48.5352 -28.9062 42.334 -34.9121 42.334 -43.1152 C 42.334 -51.8066 48.6816 -57.8125 57.5684 -57.8125 C 67.041 -57.8125 73.3398 -51.1719 73.3398 -37.7441 C 73.3398 -20.8496 67.2363 -12.6953 56.7383 -12.6953 Z M 57.4707 -32.0801 C 64.1602 -32.0801 69.043 -36.9629 69.043 -43.2617 C 69.043 -49.7559 64.0137 -54.541 57.5684 -54.541 C 50.9277 -54.541 46.0938 -49.9512 46.0938 -43.4082 C 46.0938 -36.9141 50.7812 -32.0801 57.4707 -32.0801 Z"/>
  </g>
  <g id="Ultralight-M" transform="matrix(1 0 0 1 503.656 1126)">
   <path d="M 56.0547 12.207 C 82.0801 12.207 103.369 -9.08203 103.369 -35.1562 C 103.369 -61.1816 82.0801 -82.4707 56.0547 -82.4707 C 30.0293 -82.4707 8.74023 -61.1816 8.74023 -35.1562 C 8.74023 -9.08203 30.0293 12.207 56.0547 12.207 Z M 56.2012 -13.1836 C 50 -13.1836 44.7754 -17.627 43.9941 -20.5078 C 43.9453 -20.752 43.8965 -20.9473 43.8965 -21.2891 C 43.8965 -22.0215 44.3848 -22.4609 45.0195 -22.4609 C 45.6543 -22.4609 45.9473 -22.168 46.3867 -21.2891 C 48.0469 -17.9199 51.8555 -15.5762 56.25 -15.5762 C 64.7461 -15.5762 69.7266 -23.1445 69.7266 -37.5488 L 69.5801 -37.5488 C 67.334 -32.0801 62.6465 -29.1016 56.1523 -29.1016 C 48.2422 -29.1016 42.3828 -35.3027 42.3828 -43.1152 C 42.3828 -51.416 48.6328 -57.3242 56.9824 -57.3242 C 65.918 -57.3242 72.168 -51.0742 72.168 -38.0371 C 72.168 -21.1426 66.1621 -13.1836 56.2012 -13.1836 Z M 56.7871 -31.543 C 63.8184 -31.543 68.9453 -36.6699 68.9453 -43.1641 C 68.9453 -49.9023 63.623 -54.9316 56.9336 -54.9316 C 50.0488 -54.9316 44.9219 -50.0977 44.9219 -43.3594 C 44.9219 -36.6211 49.8047 -31.543 56.7871 -31.543 Z"/>
  </g>
  <g id="Black-S" transform="matrix(1 0 0 1 2884.57 696)">
   <path d="M 48.8281 6.78711 C 71.9727 6.78711 90.8203 -12.0605 90.8203 -35.2051 C 90.8203 -58.3496 71.9727 -77.1973 48.8281 -77.1973 C 25.6836 -77.1973 6.83594 -58.3496 6.83594 -35.2051 C 6.83594 -12.0605 25.6836 6.78711 48.8281 6.78711 Z M 48.9258 -16.9922 C 42.1387 -16.9922 37.9883 -18.9453 36.3281 -21.8262 C 35.9375 -22.5586 35.7422 -23.3398 35.7422 -24.2188 C 35.7422 -26.8066 38.0371 -28.8574 40.7715 -28.8574 C 43.2129 -28.8574 44.3848 -28.2227 45.459 -27.6855 C 46.4844 -27.0996 47.4609 -26.6113 48.9258 -26.6113 C 51.709 -26.6113 53.418 -29.8828 52.6855 -33.8867 L 52.2949 -33.8867 C 50.9766 -31.1523 48.3398 -29.6875 44.7266 -29.6875 C 37.6465 -29.6875 33.2031 -33.8867 33.2031 -40.4785 C 33.2031 -48.0469 39.8926 -53.5156 49.0723 -53.5156 C 59.5703 -53.5156 65.8691 -46.7285 65.8691 -35.2539 C 65.8691 -23.8281 59.5703 -16.9922 48.9258 -16.9922 Z M 49.5605 -37.5 C 51.5137 -37.5 52.7832 -38.916 52.7832 -40.7227 C 52.7832 -42.5781 51.416 -43.9453 49.5605 -43.9453 C 47.6562 -43.9453 46.2891 -42.5781 46.2891 -40.7227 C 46.2891 -38.8184 47.6562 -37.5 49.5605 -37.5 Z"/>
  </g>
  <g id="Heavy-S" transform="matrix(1 0 0 1 2588.47 696)">
   <path d="M 48.2422 6.15234 C 70.9961 6.15234 89.5996 -12.4512 89.5996 -35.2051 C 89.5996 -57.959 70.9961 -76.6113 48.1934 -76.6113 C 25.4395 -76.6113 6.83594 -57.959 6.83594 -35.2051 C 6.83594 -12.4512 25.4395 6.15234 48.2422 6.15234 Z M 48.291 -16.748 C 41.4551 -16.748 37.4023 -19.043 35.8887 -21.875 C 35.5469 -22.6074 35.3516 -23.291 35.3516 -24.0723 C 35.3516 -26.4648 37.4023 -28.3203 39.9414 -28.3203 C 42.1387 -28.3203 43.2129 -27.6367 44.2383 -27.002 C 45.4102 -26.0742 46.5332 -25.4395 48.291 -25.4395 C 51.6602 -25.4395 53.8086 -29.1504 53.2227 -34.1309 L 52.832 -34.1309 C 51.5625 -31.4453 48.8281 -29.6875 44.8242 -29.6875 C 37.9395 -29.6875 33.1543 -33.8379 33.1543 -40.7227 C 33.1543 -48.3887 39.5508 -53.7598 48.584 -53.7598 C 58.7891 -53.7598 64.8438 -47.0215 64.8438 -35.498 C 64.8438 -23.6328 58.7891 -16.748 48.291 -16.748 Z M 49.0234 -36.8164 C 51.5137 -36.8164 53.1738 -38.623 53.1738 -40.9668 C 53.1738 -43.4082 51.416 -45.166 49.0234 -45.166 C 46.5332 -45.166 44.8242 -43.457 44.8242 -40.9668 C 44.8242 -38.5254 46.582 -36.8164 49.0234 -36.8164 Z"/>
  </g>
  <g id="Bold-S" transform="matrix(1 0 0 1 2292.44 696)">
   <path d="M 47.5586 5.46875 C 69.873 5.46875 88.2324 -12.8906 88.2324 -35.2051 C 88.2324 -57.5684 69.873 -75.9277 47.5098 -75.9277 C 25.1953 -75.9277 6.83594 -57.5684 6.83594 -35.2051 C 6.83594 -12.8906 25.1953 5.46875 47.5586 5.46875 Z M 47.6074 -16.5039 C 40.6738 -16.5039 36.7188 -19.0918 35.4004 -21.9727 C 35.1074 -22.6074 34.9609 -23.2422 34.9609 -23.9258 C 34.9609 -26.0742 36.7188 -27.7344 38.9648 -27.7344 C 40.918 -27.7344 41.9434 -27.0508 42.8711 -26.2695 C 44.2383 -24.9023 45.5078 -24.1699 47.5586 -24.1699 C 51.5625 -24.1699 54.248 -28.3203 53.8086 -34.4238 L 53.4668 -34.4238 C 52.2461 -31.7383 49.4141 -29.6387 44.9219 -29.6387 C 38.2812 -29.6387 33.1055 -33.7891 33.1055 -40.9668 C 33.1055 -48.7793 39.1602 -54.0039 48.0469 -54.0039 C 57.959 -54.0039 63.7207 -47.3633 63.7207 -35.791 C 63.7207 -23.4375 57.9102 -16.5039 47.6074 -16.5039 Z M 48.4375 -36.084 C 51.5137 -36.084 53.6621 -38.2812 53.6621 -41.2109 C 53.6621 -44.2871 51.4648 -46.5332 48.4375 -46.5332 C 45.2637 -46.5332 43.1641 -44.4336 43.1641 -41.2598 C 43.1641 -38.2324 45.3613 -36.084 48.4375 -36.084 Z"/>
  </g>
  <g id="Semibold-S" transform="matrix(1 0 0 1 1996.2 696)">
   <path d="M 47.0703 4.98047 C 69.0918 4.98047 87.3047 -13.1836 87.3047 -35.2539 C 87.3047 -57.2754 69.0918 -75.4883 47.0215 -75.4883 C 25 -75.4883 6.83594 -57.2754 6.83594 -35.2539 C 6.83594 -13.1836 25.0488 4.98047 47.0703 4.98047 Z M 47.1191 -16.3086 C 40.0879 -16.3086 36.2793 -19.1406 35.0586 -22.0215 C 34.8145 -22.6562 34.668 -23.1934 34.668 -23.8281 C 34.668 -25.8301 36.2305 -27.3438 38.3301 -27.3438 C 40.0879 -27.3438 41.0645 -26.6113 41.8945 -25.7812 C 43.4082 -24.1211 44.8242 -23.291 47.0703 -23.291 C 51.5137 -23.291 54.541 -27.7832 54.248 -34.6191 L 53.9062 -34.6191 C 52.6855 -31.9336 49.8047 -29.6387 45.0195 -29.6387 C 38.5254 -29.6387 33.0566 -33.7891 33.0566 -41.1621 C 33.0566 -49.0234 38.8672 -54.1992 47.6562 -54.1992 C 57.373 -54.1992 62.9395 -47.6074 62.9395 -35.9863 C 62.9395 -23.291 57.3242 -16.3086 47.1191 -16.3086 Z M 48.0469 -35.5957 C 51.5137 -35.5957 53.9551 -38.0371 53.9551 -41.4062 C 53.9551 -44.9219 51.4648 -47.5098 48.0469 -47.5098 C 44.4336 -47.5098 42.041 -45.1172 42.041 -41.4551 C 42.041 -37.9883 44.5312 -35.5957 48.0469 -35.5957 Z"/>
  </g>
  <g id="Medium-S" transform="matrix(1 0 0 1 1699.83 696)">
   <path d="M 46.7285 4.63867 C 68.5547 4.63867 86.6211 -13.4277 86.6211 -35.2539 C 86.6211 -57.0312 68.5059 -75.1465 46.6797 -75.1465 C 24.8535 -75.1465 6.83594 -57.0312 6.83594 -35.2539 C 6.83594 -13.4277 24.9023 4.63867 46.7285 4.63867 Z M 46.7285 -16.1621 C 39.6973 -16.1621 35.9375 -19.1895 34.8145 -22.0703 C 34.5703 -22.6562 34.4727 -23.1934 34.4727 -23.7793 C 34.4727 -25.6348 35.8887 -27.0508 37.8418 -27.0508 C 39.502 -27.0508 40.3809 -26.2695 41.2109 -25.3906 C 42.8223 -23.5352 44.2871 -22.6074 46.6797 -22.6074 C 51.4648 -22.6074 54.7363 -27.3438 54.541 -34.7656 L 54.1992 -34.7656 C 53.0273 -32.0801 50.0977 -29.5898 45.0684 -29.5898 C 38.7207 -29.5898 33.0566 -33.7402 33.0566 -41.3086 C 33.0566 -49.2188 38.6719 -54.3457 47.3633 -54.3457 C 56.9336 -54.3457 62.3535 -47.8027 62.3535 -36.1328 C 62.3535 -23.1445 56.8359 -16.1621 46.7285 -16.1621 Z M 47.7051 -35.2051 C 51.5137 -35.2051 54.1992 -37.8418 54.1992 -41.5527 C 54.1992 -45.4102 51.4648 -48.1934 47.7051 -48.1934 C 43.75 -48.1934 41.1621 -45.6055 41.1621 -41.6016 C 41.1621 -37.8418 43.8477 -35.2051 47.7051 -35.2051 Z"/>
  </g>
  <g id="Regular-S" transform="matrix(1 0 0 1 1403.58 696)">
   <path d="M 46.2402 4.15039 C 67.7734 4.15039 85.6934 -13.7207 85.6934 -35.2539 C 85.6934 -56.7871 67.7246 -74.6582 46.1914 -74.6582 C 24.707 -74.6582 6.83594 -56.7871 6.83594 -35.2539 C 6.83594 -13.7207 24.7559 4.15039 46.2402 4.15039 Z M 46.2402 -15.9668 C 39.1602 -15.9668 35.498 -19.2383 34.4727 -22.1191 C 34.2773 -22.6562 34.1797 -23.1445 34.1797 -23.6816 C 34.1797 -25.3418 35.4004 -26.6113 37.207 -26.6113 C 38.6719 -26.6113 39.502 -25.8301 40.2832 -24.8535 C 41.9922 -22.7539 43.6035 -21.7285 46.1914 -21.7285 C 51.416 -21.7285 55.0781 -26.8066 54.9805 -34.9609 L 54.6387 -34.9609 C 53.4668 -32.3242 50.4395 -29.5898 45.166 -29.5898 C 38.9648 -29.5898 33.0078 -33.7402 33.0078 -41.5039 C 33.0078 -49.4629 38.4277 -54.541 46.9727 -54.541 C 56.3477 -54.541 61.5723 -48.0469 61.5723 -36.3281 C 61.5723 -22.998 56.25 -15.9668 46.2402 -15.9668 Z M 47.3145 -34.668 C 51.5137 -34.668 54.4922 -37.6465 54.4922 -41.748 C 54.4922 -46.0449 51.4648 -49.1699 47.3145 -49.1699 C 42.9199 -49.1699 40.0879 -46.2891 40.0879 -41.7969 C 40.0879 -37.6465 43.0176 -34.668 47.3145 -34.668 Z"/>
  </g>
  <g id="Light-S" transform="matrix(1 0 0 1 1107.6 696)">
   <path d="M 45.5078 3.4668 C 66.6992 3.4668 84.2285 -14.0625 84.2285 -35.2051 C 84.2285 -56.3965 66.6504 -73.9258 45.5078 -73.9258 C 24.3164 -73.9258 6.83594 -56.3965 6.83594 -35.2051 C 6.83594 -14.0625 24.3652 3.4668 45.5078 3.4668 Z M 45.5566 -16.6016 C 39.1602 -16.6016 35.3516 -19.9219 34.4727 -22.6074 C 34.3262 -23.0469 34.2285 -23.4375 34.2285 -23.877 C 34.2285 -25.1953 35.2051 -26.1719 36.6211 -26.1719 C 37.7441 -26.1719 38.4277 -25.5859 39.0137 -24.707 C 40.625 -22.4121 42.6758 -21.1426 45.5078 -21.1426 C 51.2207 -21.1426 54.9316 -26.4648 54.8828 -35.6445 L 54.5898 -35.6445 C 53.2227 -32.4707 50 -29.834 44.7754 -29.834 C 38.5742 -29.834 33.0566 -34.2285 33.0566 -41.4551 C 33.0566 -48.9746 38.3301 -53.9062 46.2402 -53.9062 C 54.8828 -53.9062 60.0098 -47.9004 60.0098 -36.6699 C 60.0098 -23.3887 54.8828 -16.6016 45.5566 -16.6016 Z M 46.4355 -33.9355 C 51.0254 -33.9355 54.3457 -37.207 54.3457 -41.6504 C 54.3457 -46.2402 50.9766 -49.6094 46.4844 -49.6094 C 41.748 -49.6094 38.5254 -46.4844 38.5254 -41.748 C 38.5254 -37.207 41.7969 -33.9355 46.4355 -33.9355 Z"/>
  </g>
  <g id="Thin-S" transform="matrix(1 0 0 1 811.867 696)">
   <path d="M 44.5801 2.53906 C 65.2832 2.53906 82.2754 -14.4531 82.2754 -35.2051 C 82.2754 -55.9082 65.2344 -72.9004 44.5312 -72.9004 C 23.8281 -72.9004 6.83594 -55.9082 6.83594 -35.2051 C 6.83594 -14.4531 23.877 2.53906 44.5801 2.53906 Z M 44.6289 -17.3828 C 39.1602 -17.3828 35.1562 -20.8008 34.4727 -23.2422 C 34.375 -23.5352 34.3262 -23.7793 34.3262 -24.1211 C 34.3262 -25.0488 34.9609 -25.6348 35.791 -25.6348 C 36.5723 -25.6348 36.9629 -25.2441 37.4023 -24.4629 C 38.8184 -21.9727 41.4551 -20.3613 44.6289 -20.3613 C 50.9277 -20.3613 54.7363 -26.0742 54.7363 -36.4746 L 54.541 -36.4746 C 52.9297 -32.6172 49.4629 -30.1758 44.2871 -30.1758 C 38.0859 -30.1758 33.1543 -34.8633 33.1543 -41.4551 C 33.1543 -48.3398 38.1836 -53.125 45.3125 -53.125 C 52.9297 -53.125 57.9102 -47.7539 57.9102 -37.1094 C 57.9102 -23.877 53.0762 -17.3828 44.6289 -17.3828 Z M 45.2637 -33.0078 C 50.3906 -33.0078 54.1504 -36.7188 54.1504 -41.5527 C 54.1504 -46.5332 50.293 -50.2441 45.3613 -50.2441 C 40.2344 -50.2441 36.5234 -46.7285 36.5234 -41.6504 C 36.5234 -36.6699 40.1367 -33.0078 45.2637 -33.0078 Z"/>
  </g>
  <g id="Ultralight-S" transform="matrix(1 0 0 1 515.644 696)">
   <path d="M 44.043 2.05078 C 64.502 2.05078 81.2988 -14.6973 81.2988 -35.1562 C 81.2988 -55.6152 64.502 -72.3633 44.043 -72.3633 C 23.584 -72.3633 6.83594 -55.6152 6.83594 -35.1562 C 6.83594 -14.6973 23.584 2.05078 44.043 2.05078 Z M 44.1406 -17.8223 C 39.1602 -17.8223 35.0586 -21.2891 34.4727 -23.584 C 34.4238 -23.8281 34.375 -23.9746 34.375 -24.2676 C 34.375 -24.9023 34.8145 -25.293 35.4004 -25.293 C 35.9375 -25.293 36.2305 -25.0488 36.5723 -24.3652 C 37.8906 -21.7285 40.8203 -19.9707 44.1895 -19.9707 C 50.7812 -19.9707 54.6387 -25.8301 54.6387 -36.9141 L 54.4922 -36.9141 C 52.7832 -32.7637 49.1211 -30.3711 44.043 -30.3711 C 37.8418 -30.3711 33.2031 -35.1562 33.2031 -41.4062 C 33.2031 -48.0469 38.0859 -52.6855 44.7754 -52.6855 C 51.9531 -52.6855 56.8359 -47.6562 56.8359 -37.3535 C 56.8359 -24.1211 52.0996 -17.8223 44.1406 -17.8223 Z M 44.6777 -32.4707 C 50.0977 -32.4707 54.0527 -36.4258 54.0527 -41.4551 C 54.0527 -46.6797 49.9512 -50.5859 44.7754 -50.5859 C 39.4531 -50.5859 35.498 -46.8262 35.498 -41.6016 C 35.498 -36.377 39.2578 -32.4707 44.6777 -32.4707 Z"/>
  </g>
 </g>
</svg>
