<svg xmlns="http://www.w3.org/2000/svg" viewBox="0 0 128.81 128.81"><title>1.circle.fill-image</title><g id="Layer_2" data-name="Layer 2"><g id="Layer_1-2" data-name="Layer 1"><g id="Medium-L"><path d="M64.4,128.81c35.26,0,64.41-29.15,64.41-64.41S99.61,0,64.36,0,0,29.15,0,64.4,29.1,128.81,64.4,128.81ZM68.12,93.9c-3.37,0-5.47-2.15-5.47-6V46.19h-.44L53.47,51.9A4.52,4.52,0,0,1,50.39,53,4,4,0,0,1,46.58,49a4.19,4.19,0,0,1,2.2-3.85L60.5,37.21c2.83-1.86,4.64-2.54,7.08-2.54,3.76,0,6,2.29,6,6V87.89C73.63,91.75,71.53,93.9,68.12,93.9Z"/></g></g></g></svg>