<svg xmlns="http://www.w3.org/2000/svg" viewBox="0 0 128.81 128.81"><title>10.circle.fill-image</title><g id="Layer_2" data-name="Layer 2"><g id="Layer_1-2" data-name="Layer 1"><g id="Medium-L"><path d="M64.4,128.81c35.26,0,64.41-29.15,64.41-64.41S99.61,0,64.36,0,0,29.15,0,64.4,29.1,128.81,64.4,128.81ZM81.3,92.14c-11.09,0-18.51-10.35-18.51-27.78S70.21,36.52,81.3,36.52,100,46.92,100,64.36,92.43,92.14,81.3,92.14ZM46.88,91.6c-2.5,0-4.06-1.66-4.06-4.34V47.12h-.29l-7.28,5.27a4,4,0,0,1-3.07,1.32,3.81,3.81,0,0,1-3.66-3.81A4.69,4.69,0,0,1,30.71,46l10-7c2.2-1.61,3.52-2.19,5.52-2.19A4.5,4.5,0,0,1,51,41.75V87.26C51,89.94,49.41,91.6,46.88,91.6Zm34.47-7.32c6.2,0,10.15-7.47,10.15-19.92s-4-19.93-10.15-19.93S71.24,51.86,71.24,64.36,75.2,84.28,81.35,84.28Z"/></g></g></g></svg>