<svg xmlns="http://www.w3.org/2000/svg" viewBox="0 0 128.81 128.81"><title>2.circle.fill-image</title><g id="Layer_2" data-name="Layer 2"><g id="Layer_1-2" data-name="Layer 1"><g id="Medium-L"><path d="M64.4,128.81c35.26,0,64.41-29.15,64.41-64.41S99.61,0,64.36,0,0,29.15,0,64.4,29.1,128.81,64.4,128.81ZM49.71,93.55c-2.93,0-4.79-1.75-4.79-4.44a5.54,5.54,0,0,1,2-4.25L67.19,63.48c4.1-4.25,7.47-8.06,7.47-12.45,0-5.18-3.86-8.6-9.82-8.6s-9.57,4-11,8.11c-1.08,1.75-2.3,3.12-4.69,3.12-2.73,0-4.54-1.66-4.54-4.34a11.19,11.19,0,0,1,.34-2.69c2-7.42,10.26-12.84,19.78-12.84,12.11,0,20.07,6.54,20.07,16.45,0,6.74-3.72,11.82-9.92,18.22L60,84.18v.44H82.76c2.84,0,4.69,1.66,4.69,4.44a4.33,4.33,0,0,1-4.69,4.49Z"/></g></g></g></svg>