<svg xmlns="http://www.w3.org/2000/svg" viewBox="0 0 128.81 128.81"><title>3.circle.fill-image</title><g id="Layer_2" data-name="Layer 2"><g id="Layer_1-2" data-name="Layer 1"><g id="Medium-L"><path d="M64.4,128.81c35.26,0,64.41-29.15,64.41-64.41S99.61,0,64.36,0,0,29.15,0,64.4,29.1,128.81,64.4,128.81ZM64.7,95c-10.4,0-18.85-5-21-12.3a9,9,0,0,1-.34-2.54,4.46,4.46,0,0,1,4.73-4.54c2.25,0,3.62,1,4.64,3.22,1.57,4.34,5.57,7.62,12.16,7.62,7.13,0,12-3.76,12-9.38s-4.78-9.37-11.76-9.37H61a4.18,4.18,0,1,1,0-8.35h3.85c5.91,0,10.26-3.81,10.26-8.94s-3.91-8.2-10.16-8.2c-5.71,0-9.76,3-11.13,7.61A4.43,4.43,0,0,1,49.27,53c-2.83,0-4.69-1.76-4.69-4.4a10.26,10.26,0,0,1,.34-2.68c1.71-7.42,9.67-12.16,20.17-12.16C77,33.74,85.3,40.09,85.3,49.17A13.88,13.88,0,0,1,73.83,62.7v.53C81.59,64,87.3,70,87.3,77.54,87.3,87.74,78.52,95,64.7,95Z"/></g></g></g></svg>