<svg xmlns="http://www.w3.org/2000/svg" viewBox="0 0 128.81 128.81"><title>4.circle.fill-image</title><g id="Layer_2" data-name="Layer 2"><g id="Layer_1-2" data-name="Layer 1"><g id="Medium-L"><path d="M64.4,128.81c35.26,0,64.41-29.15,64.41-64.41S99.61,0,64.36,0,0,29.15,0,64.4,29.1,128.81,64.4,128.81ZM73.54,93.9c-3,0-4.84-2-4.84-5.42v-6.6H46c-4.25,0-6.94-2.58-6.94-6.54a11.1,11.1,0,0,1,1.66-5.71C45.65,61.47,54,49,60.11,39.65c2.73-4.25,5.56-5.86,10.25-5.86,4.84,0,8.11,2.88,8.11,7V73.1h4.88a4.19,4.19,0,0,1,4.54,4.39,4.25,4.25,0,0,1-4.59,4.39H78.47v6.6C78.47,92,76.66,93.9,73.54,93.9ZM68.7,73.1V42.29h-.44c-6,9.17-14.84,22.65-19.33,30.37v.44Z"/></g></g></g></svg>