<svg xmlns="http://www.w3.org/2000/svg" viewBox="0 0 128.81 128.81"><title>5.circle.fill-image</title><g id="Layer_2" data-name="Layer 2"><g id="Layer_1-2" data-name="Layer 1"><g id="Medium-L"><path d="M64.4,128.81c35.26,0,64.41-29.15,64.41-64.41S99.61,0,64.36,0,0,29.15,0,64.4,29.1,128.81,64.4,128.81Zm.25-33.89c-10.55,0-18-4.25-20.46-10.79a8.3,8.3,0,0,1-.64-2.93c0-2.54,1.86-4.3,4.64-4.3a5.21,5.21,0,0,1,4.59,2.74c2,4.1,6.4,6.79,11.77,6.79a11.7,11.7,0,0,0,12.06-12c0-6.88-4.49-11.52-11.18-11.52-3.47,0-6.06,1.12-9.13,3.86a8.91,8.91,0,0,1-5.91,2.1c-3.81,0-6-2.35-5.76-6.16l1.71-21.53c.29-3.76,2.93-6.05,7-6.05H80.47a3.88,3.88,0,0,1,4.2,4.05,4,4,0,0,1-4.2,4.15H55L53.52,60.84h.53C56.49,57.37,61.91,55,67.29,55,79,55,87.06,62.84,87.06,74.27,87.06,86.72,78,94.92,64.65,94.92Z"/></g></g></g></svg>