<svg xmlns="http://www.w3.org/2000/svg" viewBox="0 0 128.81 128.81"><title>6.circle.fill-image</title><g id="Layer_2" data-name="Layer 2"><g id="Layer_1-2" data-name="Layer 1"><g id="Medium-L"><path d="M64.4,128.81c35.26,0,64.41-29.15,64.41-64.41S99.61,0,64.36,0,0,29.15,0,64.4,29.1,128.81,64.4,128.81Zm1-33.84c-8,0-15.09-3.12-19.19-10C43.55,80.62,42,74.12,42,65.58c0-21,9.47-31.84,24.9-31.84,8.6,0,15.53,4.25,17.53,8.89a6.58,6.58,0,0,1,.74,2.88,3.9,3.9,0,0,1-4.16,4c-2.19,0-3.41-1-5.17-2.78a11.08,11.08,0,0,0-9.18-4.49c-8.74,0-14.45,8.3-14.45,21.24a7.87,7.87,0,0,0,0,1h.49c2.3-4.78,7.47-8.93,15.77-8.93,10.41,0,19.19,7,19.19,18.75C87.74,87.21,78.56,95,65.43,95ZM65,86.77c7.32,0,12.06-4.74,12.06-12.11,0-6.94-4.88-11.77-12-11.77S53,67.77,53,74.61C53,81.69,58,86.77,65,86.77Z"/></g></g></g></svg>