<svg xmlns="http://www.w3.org/2000/svg" viewBox="0 0 128.81 128.81"><title>8.circle.fill-image</title><g id="Layer_2" data-name="Layer 2"><g id="Layer_1-2" data-name="Layer 1"><g id="Medium-L"><path d="M64.4,128.81c35.26,0,64.41-29.15,64.41-64.41S99.61,0,64.36,0,0,29.15,0,64.4,29.1,128.81,64.4,128.81ZM64.26,95c-14,0-23.2-7-23.2-17.48,0-7.18,5.23-13.13,13-14.6v-.44c-6.69-2-10.59-6.83-10.59-13,0-9.27,8.54-15.67,20.9-15.67s20.85,6.4,20.85,15.67c0,6.21-4,11.23-10.55,13v.44c7.71,1.47,13,7.37,13,14.6C87.65,87.94,78.27,95,64.26,95Zm.1-35.5c6.2,0,10.59-3.81,10.59-9.18s-4.39-9-10.59-9-10.6,3.76-10.6,9S58.15,59.47,64.36,59.47Zm0,28c7.33,0,12.65-4.44,12.65-10.55S71.78,66.55,64.4,66.55,51.71,71,51.71,76.9C51.71,83,57,87.45,64.4,87.45Z"/></g></g></g></svg>