<svg xmlns="http://www.w3.org/2000/svg" viewBox="0 0 128.81 128.81"><title>9.circle.fill-image</title><g id="Layer_2" data-name="Layer 2"><g id="Layer_1-2" data-name="Layer 1"><g id="Medium-L"><path d="M64.4,128.81c35.26,0,64.41-29.15,64.41-64.41S99.61,0,64.36,0,0,29.15,0,64.4,29.1,128.81,64.4,128.81Zm0-33.84C53.86,95,47.51,89.75,45.9,85.3A6.22,6.22,0,0,1,45.46,83a4.22,4.22,0,0,1,4.44-4.3,5.37,5.37,0,0,1,4.45,2.39A11.76,11.76,0,0,0,64.4,86.43c8.79,0,14.46-8.35,14.21-22.37h-.44c-2.24,5.18-7.42,9.18-15.72,9.18-10.4,0-19.19-7.13-19.19-18.94,0-12.36,8.89-20.56,22.22-20.56,14.55,0,23.29,10,23.29,28.56C88.77,83.79,80.08,95,64.45,95Zm1.37-29.2c7.08,0,12.11-5,12.11-11.77A11.77,11.77,0,0,0,65.87,41.89c-7.13,0-12.06,4.79-12.06,12C53.81,60.79,58.74,65.77,65.82,65.77Z"/></g></g></g></svg>