<svg xmlns="http://www.w3.org/2000/svg" viewBox="0 0 899.83 898.87"><defs><style>.cls-1{fill:#29abe2;}.cls-2{fill:#fefefe;}.cls-3{fill:#22b573;}</style></defs><title>appIcon</title><g id="Layer_2" data-name="Layer 2"><g id="Layer_1-2" data-name="Layer 1"><rect class="cls-1" x="1.91" y="1.63" width="897" height="897"/><g id="j13GMt.tif"><path class="cls-1" d="M449.94,898.87c-248.79,0-450-201.26-449.94-450C.08,200.58,201.81-.14,451.1,0,699,.14,900,201.86,899.83,450.25,899.68,697.81,698.05,898.87,449.94,898.87ZM83.2,226.93c5.63-2.43,11.06-5.73,16.94-7.09,8.42-1.94,13.33-6.49,15.91-14.54,2-6.4,7.14-9.89,13.57-11.24a46.73,46.73,0,0,1,14.89-.78c6.6.74,13.22,1.88,19.9.64,2.44-.45,4.27-1.12,4.62-4.2,1-8.61,2.19-9.07,9.05-4a18.54,18.54,0,0,1,2,1.52c6.72,6.58,15.06,6.14,23.45,5.36,3.15-.3,5-2.33,4.79-5.35-.6-7.9,2.7-15.19,3.18-22.9a50.54,50.54,0,0,1,5.24-19.4c5.35-11,12.18-19.4,24.9-22.43,9.69-2.31,13.81-8.72,14.19-18.64.06-1.5,0-3,.22-4.49.74-6.07,2.43-11.79,7.19-16,3.29-2.9,7.15-4.68,11.41-2.24,4,2.31,4.51,6.35,3.94,10.51a35.33,35.33,0,0,1-3.1,9.44c-2.6,5.94-5.26,11.88-5.75,18.47-.45,6,1,7.45,6.91,7.42,13.84-.08,26.4-4.65,38.6-10.68,7.74-3.83,15.49-7.73,24.3-8.63,10.12-1,11.13-.1,10.51,9.86q-.09,1.5-.09,3c0,3.71,1.95,5.42,5.62,5.44a25.12,25.12,0,0,0,9.76-1.75c12.5-5.14,20.47-13.91,22.06-27.73,1.54-13.51,6.86-19,19.93-20.75,2-.26,3.95-.59,5.92-1C425.7,72.55,438.09,70,449,63.06c7.2-4.6,12.09-10.87,13.61-19.41.34-1.89.92-3.87-.28-5.79-4-6.48-4.06-12.68,2.2-18.56a419.73,419.73,0,0,0-93.49,7Q244.87,50.3,151.92,139a411.3,411.3,0,0,0-69.44,87.21c-.28.42-1,.83-.17,1.31C82.44,227.63,82.9,227.15,83.2,226.93ZM543.38,29.63a199.54,199.54,0,0,1,17.08,18.69c13.27,15.82,13.51,20.09,1.32,37a32.11,32.11,0,0,0-6.2,15.5c-1.09,9.51-3.35,11.16-13.06,10.5-6.43-.44-7.46-1.53-7.4-7.81,0-2.33,0-4.66,0-7,0-9.76-.91-11.35-10.52-12.78C515.77,82.47,507,81,498.15,79.34,491,78,483.28,79.4,478,84.6a80,80,0,0,1-34.79,20.47,4.09,4.09,0,0,0-.87.47c-10.55,5.45-15.07,15.79-11.93,27.29,2.41,8.83,13.14,14.49,21.85,11.53,7.19-2.44,7.19-2.44,8.56,4.94.18,1,.25,2,.51,2.94,1.53,5.78,5.59,7.51,11,4.77,3.2-1.62,4.9-4.42,6.14-7.57,2.14-5.43,2.2-11,1.33-16.71-1.29-8.37,2.07-15.3,7.08-21.6,2.41-3,5-3.37,7.88-.2,4.46,4.89,7.06,10.41,7,17.09-.09,7.66-.08,15.31-.26,23-.12,5-.28,10-.82,14.95-.76,7-3.43,9.1-10.46,9-4.83-.07-9.67,0-14.5-.1-1.83,0-3.84.14-5.33-1-6.49-5-14-4.34-21.53-4.42-4.6,0-8.32,1.28-10.5,5.27-4.64,8.48-14.49,8.7-21.29,13.73-1.15.86-2.53,0-3.74-.62-5.48-2.91-6.19-7.74-5.61-13.23.22-2.15,1.33-5.31-2.18-5.56-5.44-.4-6.32-4.14-6.92-8.2s-.79-7.94-2.07-11.77c-3.37-10-9.24-11.48-16.21-3.62-7.29,8.22-14.19,16.78-21.22,25.23A11.47,11.47,0,0,0,357,174c-1.07,3-2.44,6.74.57,8.74a6.81,6.81,0,0,0,9.39-1.51c.58-.71,1.26-1.85,2.42-1.27,1,.51.72,1.74.83,2.68s.08,2,.15,3c.66,8.93,4.78,11,12.51,6.17a20.57,20.57,0,0,1,11.38-3.08c5.22,0,8.24,2.12,8.46,5.82.26,4.36-3.23,7.94-8.22,8.15-4,.17-8,.05-12,.06-2,0-3.71.56-4.12,2.78-.71,3.79-1.41,7.93.19,11.31,3.3,7,6,13.87,6.78,21.66.28,2.77-.68,2.91-2.24,3-4.81.28-9.83,1.91-13.75-3-1.64-2.05-4.77-2.2-7.37-2.73s-4.84-.21-5.77,3.07c-1.34,4.71-4.87,7.44-9.42,8.71-3,.84-4.18,2.67-4.79,5.54-1.11,5.18-1.59,10.7-4.64,15.16-2.23,3.25-1,4.92,1.67,6.33,3.94,2.13,8,4,12.05,6,8.54,4.18,9.18,10.71,5.26,18.74-1.35,2.77-3.71,5.11-5.88,7.38-5.42,5.68-11.66,10.42-17.78,15.3-14.81,11.79-31.3,21.6-43.52,36.48a42.64,42.64,0,0,1-12.08,10.29c-8,4.53-11.46,11.46-11.43,20.65,0,10.15-.54,20.3-1,30.44-.1,2.47-.05,5.24-1.13,7.33-3.89,7.61-3.49,15.57-2.2,23.46,3.11,19.06,10.06,36.83,19.69,53.52,8.65,15,21.64,24.08,38.88,26.77,9,1.4,17.93,1,26.89-.12,15.06-1.9,29.59-6.4,44.51-9,13.07-2.27,16.81-.9,23.14,10.78,3.33,6.15,8.09,8.4,14.51,8.57,3.83.1,7.68,0,11.49.31,6.31.57,8.34,3.05,8.67,9.29.31,5.82-.39,11.37-4.11,16-3.16,4-3.06,8-.63,12,6.35,10.49,11,21.94,18.1,32,4.13,5.83,8.1,11.79,12,17.8s7.61,12.07,9.52,19.1c1.8,6.63,1.81,12.66-3.66,17.81-2.41,2.27-4.36,5-6.57,7.51A9.85,9.85,0,0,0,471,678.8c-.54,5.8-1.26,11.58-1.62,17.38-.24,3.83-.1,7.74,2.75,10.82,4.07,4.4,7.91,9.08,12.43,13,3.7,3.18,5.15,6.65,4.65,11.32-.25,2.31,0,4.66-.21,7-.53,7.07.85,13.48,5.53,19.11,2.5,3,3.24,6.91,3.45,10.78s.2,7.65.31,11.48c.19,6,4.21,10.47,10.19,10.73,7.18.32,14.19-.18,20.8-3.8,7-3.84,14-8.53,21.93-9.29,16.87-1.63,28.93-9.82,39-23,5.15-6.77,13-10.64,22-11,6.18-.26,11.46-3,16.36-6.69,2.8-2.12,4.12-4.54,3.82-8.07a92,92,0,0,1,.61-17.94c2.56-22.35,12.75-38.29,35.34-45.94,14.73-5,17.71-6.56,14.18-24.88A180.14,180.14,0,0,1,680,594.06c.88-14,3.77-27.4,13.73-38.11,5.68-6.11,11.18-12.35,16.26-18.94,13.32-17.28,26.25-34.84,35.33-54.82,3.51-7.73,5.89-15.85,4.72-24.6-.41-3-1.23-4.42-4.78-3.52-6.64,1.7-13.15,3.49-18.91,7.42a62.83,62.83,0,0,1-12.74,6.8c-5.25,2-10.16,1.93-15.26-1A66.72,66.72,0,0,1,682.19,454c-18.38-20.29-33.91-42.73-49.39-65.22-6.24-9.06-12.07-18.35-15.9-28.71-1-2.86-3.76-6.61-1.2-8.77,3-2.53,6,1.27,8.61,2.94,7.45,4.72,13.8,11.18,21.83,14.88s14.39,9.46,19.83,16.31c7.27,9.15,13,19.28,18.84,29.37,4.73,8.21,9.13,16.63,14.84,24.23,7.71,10.29,12.71,10.64,21.66,1.56,5.51-5.6,10-12,14.39-18.5,11.26-16.7,20.52-34.6,31.19-51.67,2.76-4.43,3.24-9.58-.1-14.12-4.88-6.6-11.58-10.85-19.14-13.87-2.37-.95-3.59-.16-4.68,2-1.48,2.95-3.28,5.75-5.05,8.55a3.27,3.27,0,0,1-4.74,1.3c-10.56-5.95-21.72-10.9-31.17-18.69-2.71-2.24-5.59-4.5-7-7.73-4.23-9.91-1.91-13.77,7.2-14.65,4.7-.45,9.45-.47,13.85,1.1,12.53,4.47,25.61,7.28,37.85,12.54a15.67,15.67,0,0,0,15.23-1c1.71-1,3.43-2.05,5.21-3,9.07-4.68,17.1-.65,18.6,9.26,1.07,7.07,3.35,13.16,9.8,17.63,6.67,4.62,10.6,11.62,13.52,19.32a609.71,609.71,0,0,0,24.56,57.19,45.42,45.42,0,0,0,11.84,14.68c3.24,2.66,4.44,2.1,4.91-2.12,1-8.92,2.17-17.85,2.77-26.8.48-7.25,1.88-14.9-2-21.58-10.85-18.86-12.18-39-9-59.91.81-5.43,1-11.13,3.65-16,2.21-4,1.9-7.34.39-11.3q-75.63-198-276.89-265A274,274,0,0,0,543.38,29.63ZM148,751.38c.06-1.23.29-1.9.09-2.4-3.73-9.71-4.31-20.11-6.71-30.11-1.9-7.9-4.74-15.64-4.57-23.93.13-6.78,2.47-9.85,9.09-11,2.9-.49,3.45-1.66,3.12-4.24-.72-5.49-1.89-10.9-4.63-15.69-7.53-13.18-8.86-27.37-7.31-42,.77-7.34,2.6-14.42,8-20,4.36-4.47,7.58-22.32,5-27.91a3.07,3.07,0,0,0-.84-1.21c-8.06-6-15.5-13.15-25.69-15.67-6.24-1.54-11.14-5.58-11.63-10.2a38.15,38.15,0,0,0-7.53-19.46c-6.81-9.05-13.37-18.42-21.47-26.26C74,492.7,70.7,483.19,72.22,471c1.14-9.11-.83-18.09-8.16-24.67-9.74-8.76-14.73-19.38-12.38-32.45,2.15-12-3.69-19.23-13-24.92-3-1.82-6-3.55-9-5.38S25.54,382,25,385.82c-5.86,43.51-5.74,87,1.36,130.29A426.78,426.78,0,0,0,148,751.38Z"/><path class="cls-2" d="M543.38,29.63a274,274,0,0,1,33.14,8.72q201.22,67,276.89,265c1.51,4,1.82,7.34-.39,11.3-2.7,4.83-2.84,10.53-3.65,16-3.13,20.9-1.8,41.05,9,59.91,3.84,6.68,2.44,14.33,2,21.58-.6,8.95-1.76,17.88-2.77,26.8-.47,4.22-1.67,4.78-4.91,2.12a45.42,45.42,0,0,1-11.84-14.68,609.71,609.71,0,0,1-24.56-57.19c-2.92-7.7-6.85-14.7-13.52-19.32-6.45-4.47-8.73-10.56-9.8-17.63-1.5-9.91-9.53-13.94-18.6-9.26-1.78.91-3.5,1.93-5.21,3a15.67,15.67,0,0,1-15.23,1c-12.24-5.26-25.32-8.07-37.85-12.54-4.4-1.57-9.15-1.55-13.85-1.1-9.11.88-11.43,4.74-7.2,14.65,1.38,3.23,4.26,5.49,7,7.73,9.45,7.79,20.61,12.74,31.17,18.69a3.27,3.27,0,0,0,4.74-1.3c1.77-2.8,3.57-5.6,5.05-8.55,1.09-2.18,2.31-3,4.68-2,7.56,3,14.26,7.27,19.14,13.87,3.34,4.54,2.86,9.69.1,14.12-10.67,17.07-19.93,35-31.19,51.67-4.38,6.49-8.88,12.9-14.39,18.5-8.95,9.08-13.95,8.73-21.66-1.56-5.71-7.6-10.11-16-14.84-24.23C679,404.74,673.24,394.61,666,385.46c-5.44-6.85-11.68-12.54-19.83-16.31S631.76,359,624.31,354.27c-2.63-1.67-5.62-5.47-8.61-2.94-2.56,2.16.15,5.91,1.2,8.77,3.83,10.36,9.66,19.65,15.9,28.71,15.48,22.49,31,44.93,49.39,65.22a66.72,66.72,0,0,0,16.13,13.24c5.1,3,10,3,15.26,1a62.83,62.83,0,0,0,12.74-6.8c5.76-3.93,12.27-5.72,18.91-7.42,3.55-.9,4.37.49,4.78,3.52,1.17,8.75-1.21,16.87-4.72,24.6-9.08,20-22,37.54-35.33,54.82-5.08,6.59-10.58,12.83-16.26,18.94-10,10.71-12.85,24.1-13.73,38.11a180.14,180.14,0,0,0,2.51,45.69c3.53,18.32.55,19.89-14.18,24.88-22.59,7.65-32.78,23.59-35.34,45.94a92,92,0,0,0-.61,17.94c.3,3.53-1,6-3.82,8.07-4.9,3.7-10.18,6.43-16.36,6.69-9.08.38-16.9,4.25-22,11-10,13.17-22.09,21.36-39,23-7.88.76-14.95,5.45-21.93,9.29-6.61,3.62-13.62,4.12-20.8,3.8-6-.26-10-4.69-10.19-10.73-.11-3.83-.11-7.66-.31-11.48s-.95-7.77-3.45-10.78c-4.68-5.63-6.06-12-5.53-19.11.17-2.32,0-4.67.21-7,.5-4.67-1-8.14-4.65-11.32-4.52-3.89-8.36-8.57-12.43-13-2.85-3.08-3-7-2.75-10.82.36-5.8,1.08-11.58,1.62-17.38a9.85,9.85,0,0,1,2.85-5.67c2.21-2.49,4.16-5.24,6.57-7.51,5.47-5.15,5.46-11.18,3.66-17.81-1.91-7-5.65-13.1-9.52-19.1s-7.85-12-12-17.8c-7.13-10.07-11.75-21.52-18.1-32-2.43-4-2.53-8.07.63-12,3.72-4.67,4.42-10.22,4.11-16-.33-6.24-2.36-8.72-8.67-9.29-3.81-.34-7.66-.21-11.49-.31-6.42-.17-11.18-2.42-14.51-8.57-6.33-11.68-10.07-13-23.14-10.78-14.92,2.59-29.45,7.09-44.51,9-9,1.13-17.93,1.52-26.89.12-17.24-2.69-30.23-11.75-38.88-26.77-9.63-16.69-16.58-34.46-19.69-53.52-1.29-7.89-1.69-15.85,2.2-23.46,1.08-2.09,1-4.86,1.13-7.33.43-10.14,1-20.29,1-30.44,0-9.19,3.4-16.12,11.43-20.65a42.64,42.64,0,0,0,12.08-10.29c12.22-14.88,28.71-24.69,43.52-36.48,6.12-4.88,12.36-9.62,17.78-15.3,2.17-2.27,4.53-4.61,5.88-7.38,3.92-8,3.28-14.56-5.26-18.74-4-2-8.11-3.86-12.05-6-2.64-1.41-3.9-3.08-1.67-6.33,3.05-4.46,3.53-10,4.64-15.16.61-2.87,1.82-4.7,4.79-5.54,4.55-1.27,8.08-4,9.42-8.71.93-3.28,3.1-3.62,5.77-3.07s5.73.68,7.37,2.73c3.92,4.89,8.94,3.26,13.75,3,1.56-.09,2.52-.23,2.24-3-.79-7.79-3.48-14.7-6.78-21.66-1.6-3.38-.9-7.52-.19-11.31.41-2.22,2.11-2.78,4.12-2.78,4,0,8,.11,12-.06,5-.21,8.48-3.79,8.22-8.15-.22-3.7-3.24-5.81-8.46-5.82a20.57,20.57,0,0,0-11.38,3.08c-7.73,4.85-11.85,2.76-12.51-6.17-.07-1,0-2-.15-3s.17-2.17-.83-2.68c-1.16-.58-1.84.56-2.42,1.27a6.81,6.81,0,0,1-9.39,1.51c-3-2-1.64-5.74-.57-8.74a11.47,11.47,0,0,1,2.05-3.39c7-8.45,13.93-17,21.22-25.23,7-7.86,12.84-6.41,16.21,3.62,1.28,3.83,1.49,7.82,2.07,11.77s1.48,7.8,6.92,8.2c3.51.25,2.4,3.41,2.18,5.56-.58,5.49.13,10.32,5.61,13.23,1.21.64,2.59,1.48,3.74.62,6.8-5,16.65-5.25,21.29-13.73,2.18-4,5.9-5.31,10.5-5.27,7.51.08,15-.57,21.53,4.42,1.49,1.15,3.5,1,5.33,1,4.83.07,9.67,0,14.5.1,7,.09,9.7-2,10.46-9,.54-5,.7-10,.82-14.95.18-7.66.17-15.31.26-23,.08-6.68-2.52-12.2-7-17.09-2.9-3.17-5.47-2.84-7.88.2-5,6.3-8.37,13.23-7.08,21.6.87,5.69.81,11.28-1.33,16.71-1.24,3.15-2.94,5.95-6.14,7.57-5.42,2.74-9.48,1-11-4.77-.26-1-.33-2-.51-2.94-1.37-7.38-1.37-7.38-8.56-4.94-8.71,3-19.44-2.7-21.85-11.53-3.14-11.5,1.38-21.84,11.93-27.29a4.09,4.09,0,0,1,.87-.47A80,80,0,0,0,478,84.6c5.31-5.2,13-6.6,20.18-5.26,8.81,1.65,17.62,3.13,26.49,4.44,9.61,1.43,10.52,3,10.52,12.78,0,2.33,0,4.66,0,7-.06,6.28,1,7.37,7.4,7.81,9.71.66,12-1,13.06-10.5a32.11,32.11,0,0,1,6.2-15.5c12.19-17,12-21.22-1.32-37A199.54,199.54,0,0,0,543.38,29.63Zm-4.82,303.49c-1.06-5.07.25-10.37,2.59-15.44,1.57-3.41,3.86-6.88,8-6.58,7.58.54,15.51.3,22.46,3.8a201.11,201.11,0,0,0,21.5,8.91c3.53,1.3,5,.12,6.29-2.53,1.64-3.45,2.64-7.27,4.67-10.44,6-9.37,2.61-19,1.17-28.51-.33-2.21-1.41-4.42-4.4-2.86-8.27,4.32-19.07-5.15-16.79-15.52,1.48-6.76,4.49-12.68,10.31-17.11,4.36-3.31,9.33-3.2,14.19-3.92,6.67-1,11.28-5.94,11.15-11.94-.09-4.43-3.14-6.33-6.31-8.2-2.28-1.35-5-2.13-6.93-3.87-8.27-7.64-18-10.3-29-9.18a41.46,41.46,0,0,1-6.49-.17c-3.94-.24-7,1.34-9.77,4.07-5.84,5.73-6.7,13.19-7.29,20.66a101.78,101.78,0,0,1-2.58,17.23c-1.29,5.07-3,5.82-7.76,3.86-6.94-2.86-13.74,2-13.09,9.34.35,4,.46,8-1.76,11.61-2.5,4.06-6.37,5.35-10.76,4.57s-4.78-4.6-5.14-8.12a53.83,53.83,0,0,1-.15-6.48c.08-4.22-2.38-6.81-5.73-8.65s-5.61-.55-6,3.11a71.78,71.78,0,0,0,0,7.48c0,12.26-3.12,14.6-15,11.16a24.46,24.46,0,0,1-4.15-1.7,7.18,7.18,0,0,1-4.37-7.16,127.14,127.14,0,0,0-.54-12.94c-.34-4.12-2.84-6.65-6.76-7.62A133.6,133.6,0,0,0,456.46,247c-4.41-.62-7.5-2.7-9.22-6.65-1.67-3.8-4.59-6.46-7.53-9.17a4.25,4.25,0,0,0-5-.91c-9.38,4.32-18.78,8.61-24.53,17.92-1.31,2.11-2.69,4.62-5.09,5.32-4,1.16-5.79,4.24-7.69,7.35a111.45,111.45,0,0,0-5.69,10c-3.48,7.33-9.08,11.2-17.22,11.25-1.14,0-2.12-.48-2.56,1.31-2.71,11.11,6.47,22.32,16.86,20.88,8.8-1.21,17.62-.67,26.41-.56a23.54,23.54,0,0,0,16.08-5.56c3.56-2.94,7.11-5.94,10.91-8.55a8.39,8.39,0,0,1,9-.44c2.45,1.45.43,4.2.22,6.41-.69,7.3-1,14.47,2.17,21.53,2.23,5,4.76,7.35,10.58,5.73,8.06-2.23,15.48-1,21.24,5.89,1.84,2.19,4.58,3.21,7.06,4.59,10.84,6,23,8.4,34.4,13,7.1,2.84,10.84.06,11.39-7.61C538.35,337,538.43,335.36,538.56,333.12Z"/><path class="cls-2" d="M82.47,226.25A411.66,411.66,0,0,1,151.92,139Q244.68,50.17,371.05,26.26a419.73,419.73,0,0,1,93.49-7c-6.26,5.88-6.21,12.08-2.2,18.56,1.2,1.92.62,3.9.28,5.79-1.52,8.54-6.41,14.81-13.61,19.41-10.92,7-23.31,9.49-35.77,11.77-2,.36-3.94.69-5.92,1-13.07,1.73-18.39,7.24-19.93,20.75-1.59,13.82-9.56,22.59-22.06,27.73a25.12,25.12,0,0,1-9.76,1.75c-3.67,0-5.61-1.73-5.62-5.44q0-1.5.09-3c.62-10-.39-10.9-10.51-9.86-8.81.9-16.56,4.8-24.3,8.63-12.2,6-24.76,10.6-38.6,10.68-5.89,0-7.36-1.46-6.91-7.42.49-6.59,3.15-12.53,5.75-18.47a35.33,35.33,0,0,0,3.1-9.44c.57-4.16.09-8.2-3.94-10.51-4.26-2.44-8.12-.66-11.41,2.24-4.76,4.21-6.45,9.93-7.19,16-.19,1.48-.16,3-.22,4.49-.38,9.92-4.5,16.33-14.19,18.64-12.72,3-19.55,11.46-24.9,22.43a50.54,50.54,0,0,0-5.24,19.4c-.48,7.71-3.78,15-3.18,22.9.23,3-1.64,5.05-4.79,5.35-8.39.78-16.73,1.22-23.45-5.36a18.54,18.54,0,0,0-2-1.52c-6.86-5.1-8.07-4.64-9.05,4-.35,3.08-2.18,3.75-4.62,4.2-6.68,1.24-13.3.1-19.9-.64a46.73,46.73,0,0,0-14.89.78c-6.43,1.35-11.52,4.84-13.57,11.24-2.58,8-7.49,12.6-15.91,14.54-5.88,1.36-11.31,4.66-16.94,7.09C83,226.7,82.72,226.47,82.47,226.25Z"/><path class="cls-2" d="M148,751.38A426.78,426.78,0,0,1,26.38,516.11c-7.1-43.33-7.22-86.78-1.36-130.29.52-3.81,1.84-4,4.66-2.27s6,3.56,9,5.38c9.33,5.69,15.17,12.95,13,24.92-2.35,13.07,2.64,23.69,12.38,32.45,7.33,6.58,9.3,15.56,8.16,24.67C70.7,483.19,74,492.7,83,501.32c8.1,7.84,14.66,17.21,21.47,26.26A38.15,38.15,0,0,1,112,547c.49,4.62,5.39,8.66,11.63,10.2,10.19,2.52,17.63,9.63,25.69,15.67a3.07,3.07,0,0,1,.84,1.21c2.54,5.59-.68,23.44-5,27.91-5.43,5.56-7.26,12.64-8,20-1.55,14.66-.22,28.85,7.31,42,2.74,4.79,3.91,10.2,4.63,15.69.33,2.58-.22,3.75-3.12,4.24-6.62,1.12-9,4.19-9.09,11-.17,8.29,2.67,16,4.57,23.93,2.4,10,3,20.4,6.71,30.11C148.25,749.48,148,750.15,148,751.38Z"/><path class="cls-2" d="M83.2,226.93c-.3.22-.76.7-.89.63-.79-.48-.11-.89.16-1.31C82.72,226.47,83,226.7,83.2,226.93Z"/><path class="cls-1" d="M538.56,333.12c-.13,2.24-.21,3.9-.33,5.56-.55,7.67-4.29,10.45-11.39,7.61-11.37-4.56-23.56-7-34.4-13-2.48-1.38-5.22-2.4-7.06-4.59-5.76-6.88-13.18-8.12-21.24-5.89-5.82,1.62-8.35-.71-10.58-5.73-3.14-7.06-2.86-14.23-2.17-21.53.21-2.21,2.23-5-.22-6.41a8.39,8.39,0,0,0-9,.44c-3.8,2.61-7.35,5.61-10.91,8.55a23.54,23.54,0,0,1-16.08,5.56c-8.79-.11-17.61-.65-26.41.56-10.39,1.44-19.57-9.77-16.86-20.88.44-1.79,1.42-1.3,2.56-1.31,8.14-.05,13.74-3.92,17.22-11.25a111.45,111.45,0,0,1,5.69-10c1.9-3.11,3.68-6.19,7.69-7.35,2.4-.7,3.78-3.21,5.09-5.32,5.75-9.31,15.15-13.6,24.53-17.92a4.25,4.25,0,0,1,5,.91c2.94,2.71,5.86,5.37,7.53,9.17,1.72,4,4.81,6,9.22,6.65A133.6,133.6,0,0,1,470.1,250c3.92,1,6.42,3.5,6.76,7.62a127.14,127.14,0,0,1,.54,12.94,7.18,7.18,0,0,0,4.37,7.16,24.46,24.46,0,0,0,4.15,1.7c11.92,3.44,15.06,1.1,15-11.16a71.78,71.78,0,0,1,0-7.48c.39-3.66,2.77-4.9,6-3.11s5.81,4.43,5.73,8.65a53.83,53.83,0,0,0,.15,6.48c.36,3.52.79,7.34,5.14,8.12s8.26-.51,10.76-4.57c2.22-3.62,2.11-7.59,1.76-11.61-.65-7.37,6.15-12.2,13.09-9.34,4.73,2,6.47,1.21,7.76-3.86a101.78,101.78,0,0,0,2.58-17.23c.59-7.47,1.45-14.93,7.29-20.66,2.78-2.73,5.83-4.31,9.77-4.07a41.46,41.46,0,0,0,6.49.17c11-1.12,20.69,1.54,29,9.18,1.89,1.74,4.65,2.52,6.93,3.87,3.17,1.87,6.22,3.77,6.31,8.2.13,6-4.48,11-11.15,11.94-4.86.72-9.83.61-14.19,3.92-5.82,4.43-8.83,10.35-10.31,17.11-2.28,10.37,8.52,19.84,16.79,15.52,3-1.56,4.07.65,4.4,2.86,1.44,9.55,4.82,19.14-1.17,28.51-2,3.17-3,7-4.67,10.44-1.26,2.65-2.76,3.83-6.29,2.53a201.11,201.11,0,0,1-21.5-8.91c-7-3.5-14.88-3.26-22.46-3.8-4.12-.3-6.41,3.17-8,6.58C538.81,322.75,537.5,328.05,538.56,333.12Z"/></g><g id="xUQyLo.tif"><path class="cls-3" d="M450.18,411.23c1.35,17.15,14.64,4.41,20.95,9.13q.25-148.08.49-296.16c0-8.38,0-17.82-11.16-17.2s-9.87,10.53-9.88,18.54Q450.33,268.39,450.18,411.23Z"/><path class="cls-3" d="M471.13,469.4c-6.56,4.06-19.48-7.76-20.89,9.13q.17,53.88.34,107.77c0,8.31-.45,17.86,10.71,17.64s10.33-9.84,10.29-18.07Q471.37,527.63,471.13,469.4Z"/><path d="M471.13,469.4c19.92-17.63,19.92-31.42,0-49-5.95-5.64-14.27-5.33-20.95-9.13Q395,354.4,339.82,297.6c-8-8.21-16.87-21.52-28.76-10.1-14.15,13.58,1.29,22.39,9.19,30.77,35.11,37.21,70.62,74,106,111,14.25,14.9,14.22,16.36-.64,31.89q-82.5,86.24-165,172.51c-8.26,8.68-22.12,18.72-9.79,31.46,11.49,11.89,20.84-2,28.84-10.27q79.22-82.29,158.2-164.8c3.91-4.07,8.24-7.69,12.38-11.52C457,474.9,464.93,474.36,471.13,469.4Z"/><path class="cls-3" d="M450.49,443.87c.6,8.22,4.3,12.06,10.84,11.92s10.12-4.09,10-11.18-3.93-10.74-10.48-10.65C454.12,434.06,451.07,438.47,450.49,443.87Z"/></g></g></g></svg>