<svg xmlns="http://www.w3.org/2000/svg" viewBox="0 0 98.63 98.58"><defs><style>.cls-1{fill:#007aff;}</style></defs><title>location-symbol</title><g id="Layer_2" data-name="Layer 2"><g id="Layer_2-2" data-name="Layer 2"><g id="Regular-M"><path class="cls-1" d="M8.4,52.1l37,.15c.68,0,1,.29,1,1l.09,36.87c0,4.64,2.06,8.44,5.91,8.44s5.72-3.46,7.47-7.32L97.27,10.69a11.89,11.89,0,0,0,1.36-5A5.51,5.51,0,0,0,93,0a11.65,11.65,0,0,0-5.08,1.32L7.32,38.67C3.61,40.38,0,42.43,0,46.19S3.61,52.1,8.4,52.1Zm3.47-7.18c-.4,0-.44-.49,0-.68L89.21,8.74c.58-.29,1,0,.63.68L54.35,86.77c-.2.44-.69.29-.69-.1L54,48.05a3.27,3.27,0,0,0-3.47-3.42Z"/></g></g></g></svg>