<svg xmlns="http://www.w3.org/2000/svg" viewBox="0 0 96.58 98.64"><defs><style>.cls-1{fill:#007aff;}</style></defs><title>square.and.pencil-image</title><g id="Layer_2" data-name="Layer 2"><g id="Layer_1-2" data-name="Layer 1"><g id="Regular-M"><path class="cls-1" d="M91.8,11.54l3.51-3.62a3.9,3.9,0,0,0,0-5.71L94.24,1a3.88,3.88,0,0,0-5.52.24L85.16,4.8ZM35.6,62.32l9.52-4.15L88.18,15.1,81.49,8.51l-43,43.06-4.4,9.18A1.22,1.22,0,0,0,35.6,62.32ZM15.33,98.64H72.66c8.74,0,13.86-5.07,13.86-15.13V29.16L78.66,37v46.1c0,5.08-2.78,7.66-6.15,7.66H15.43c-4.88,0-7.57-2.58-7.57-7.66V27.7c0-5.08,2.69-7.72,7.57-7.72H57.67l7.86-7.86H15.33C5.13,12.12,0,17.2,0,27.26V83.51C0,93.62,5.13,98.64,15.33,98.64Z"/></g></g></g></svg>