<svg xmlns="http://www.w3.org/2000/svg" viewBox="0 0 94.53 108.74"><defs><style>.cls-1{fill:#ff3b30;}</style></defs><title>trash-image</title><g id="Layer_2" data-name="Layer 2"><g id="Layer_1-2" data-name="Layer 1"><g id="Regular-M"><path class="cls-1" d="M81.69,97.22l3.37-71h5.86a3.69,3.69,0,0,0,3.61-3.71,3.64,3.64,0,0,0-3.61-3.66H68.6V11.52C68.6,4.49,63.87,0,56.35,0H38.09C30.57,0,25.88,4.49,25.88,11.52v7.33H3.61a3.69,3.69,0,0,0,0,7.37H9.52l3.37,71.05c.34,7,4.93,11.47,12,11.47H69.68C76.66,108.74,81.35,104.2,81.69,97.22ZM33.69,12a4.63,4.63,0,0,1,5-4.73H55.81c3,0,5,2,5,4.73v6.84H33.69Zm-8.1,89.36a5,5,0,0,1-5-5L17.14,26.22H77.25L74,96.39a5,5,0,0,1-5.12,5Zm36.18-8.55a3,3,0,0,0,2.83-3.17l1.46-51.22a2.9,2.9,0,0,0-2.83-3.18,3.09,3.09,0,0,0-2.83,3.18L58.94,89.6A2.93,2.93,0,0,0,61.77,92.82Zm-29,0a2.93,2.93,0,0,0,2.83-3.22L34.13,38.43a3.09,3.09,0,0,0-2.83-3.18,2.9,2.9,0,0,0-2.83,3.18l1.46,51.22A3,3,0,0,0,32.81,92.82Zm14.46,0a3.09,3.09,0,0,0,3-3.17V38.43a3,3,0,1,0-5.9,0V89.65A3.08,3.08,0,0,0,47.27,92.82Z"/></g></g></g></svg>