<?xml version="1.0" encoding="utf-8"?>
<!-- Generator: Adobe Illustrator 24.0.0, SVG Export Plug-In . SVG Version: 6.00 Build 0)  -->
<svg version="1.1" id="Layer_1" xmlns="http://www.w3.org/2000/svg" xmlns:xlink="http://www.w3.org/1999/xlink" x="0px" y="0px"
	 viewBox="0 0 99.6 99.6" style="enable-background:new 0 0 99.6 99.6;" xml:space="preserve">
<style type="text/css">
	.st0{fill:#FFFFFF;}
</style>
<title>xmark.circle.fill-image</title>
<g id="Layer_2_1_">
	<g id="Layer_1-2">
		<g id="Regular-M">
			<path class="st0" d="M49.8,99.6c27.4-0.2,49.6-22.4,49.8-49.8C99.6,22.6,77,0,49.8,0S0,22.6,0,49.8C0.2,77.2,22.4,99.4,49.8,99.6
				z M32.3,71.5c-2.3,0-4.1-1.9-4.1-4.2c0-1.1,0.4-2.1,1.2-2.8L44,49.8L29.4,35.2c-0.8-0.7-1.2-1.8-1.2-2.8c0-2.2,1.9-4,4.1-4
				c1.1,0,2.1,0.4,2.8,1.2l14.7,14.6l14.7-14.7c0.7-0.8,1.7-1.3,2.8-1.3c2.3,0,4.1,1.8,4.1,4.1c0,0,0,0,0,0c0,1.1-0.4,2.1-1.2,2.8
				L55.6,49.8l14.6,14.6c0.8,0.8,1.2,1.8,1.2,2.9c0,2.3-1.8,4.1-4.1,4.1c-1.1,0-2.1-0.4-2.9-1.2L49.8,55.6L35.2,70.3
				C34.4,71.1,33.4,71.5,32.3,71.5z"/>
		</g>
	</g>
</g>
</svg>
